<?xml version="1.0" encoding="utf-8"?>
<!-- Generator: Adobe Illustrator 19.2.0, SVG Export Plug-In . SVG Version: 6.00 Build 0)  -->
<svg version="1.1" id="Layer_1" xmlns="http://www.w3.org/2000/svg" xmlns:xlink="http://www.w3.org/1999/xlink" x="0px" y="0px"
	 viewBox="0 0 13.6 36.5" enable-background="new 0 0 13.6 36.5" xml:space="preserve">
<g>
	<defs>
		<path id="SVGID_148_" d="M11.6,28.4c0.4,0.1,0.6,0.2,0.7,0.4c0.1,0.2,0.1,0.4,0.1,0.6c0,0.2-0.1,0.4-0.3,0.7
			c-0.2,0.2-0.3,0.4-0.4,0.6c-0.2,0-0.4,0-0.5,0.1c-0.2,0.1-0.3,0.3-0.4,0.4c-0.6-0.1-1.1-0.1-1.7,0c-0.5,0.1-1,0.1-1.5,0.2
			c-0.1,0-0.1,0-0.1,0.1c0,0.1,0,0.1-0.1,0.2c-0.6-0.2-1.2-0.3-1.8-0.2s-1.3,0.1-1.9,0.3s-1.3,0.3-2,0.5c-0.7,0.2-1.4,0.3-2.1,0.3
			c-0.3-0.2-0.5-0.4-0.6-0.7c-0.2-0.3-0.3-0.6-0.4-0.9c-0.1-0.3-0.2-0.6-0.3-1c-0.1-0.3-0.1-0.6-0.2-1c0-0.2,0-0.4,0.1-0.5
			c0.1-0.1,0.2-0.2,0.3-0.3c0.3-1.2,0.6-2.3,1-3.5c0.4-1.2,0.8-2.3,1-3.5c0.3-1,0.5-1.9,0.8-2.8c0.3-0.9,0.5-1.7,0.7-2.5
			c0.2-0.8,0.4-1.6,0.7-2.4C3,12.8,3.2,12,3.4,11.2c0.2-0.7,0.4-1.3,0.5-2C4.1,8.6,4.2,8,4.4,7.3c0.2-0.6,0.3-1.3,0.5-1.9
			C5,4.7,5.1,4,5.3,3.1c0-0.3-0.1-0.5,0-0.6c0-0.1,0-0.3,0-0.4C5.2,1.8,5,1.6,4.9,1.4C5,1.4,5.2,1.2,5.2,1c0.1-0.2,0.1-0.4,0-0.5
			c0.3-0.1,0.7-0.2,1-0.2c0.4,0,0.7-0.1,1.1-0.1c0.4,0,0.7-0.1,1-0.1C8.7,0.1,9,0,9.3-0.2c1,0,2.1-0.1,3.1-0.1c1.1,0,2.1-0.1,3-0.1
			c0.3,0.1,0.7,0.2,1.2,0.2c0.5,0,0.9,0,1.4,0.1c0.4,0.1,0.8,0.2,1.2,0.4c0.4,0.2,0.6,0.5,0.8,1c0.3,0,0.5,0.1,0.6,0.2
			s0.2,0.3,0.3,0.4c0.1,0.2,0.1,0.4,0,0.5c0,0.2,0,0.4,0,0.6c-0.3,0.3-0.8,0.5-1.3,0.6s-1.1,0.3-1.7,0.3C17.3,4,16.7,4.1,16,4.1
			c-0.7,0-1.3,0.1-1.9,0.1c-0.6,0-1.2,0-1.7,0c-0.5,0-1,0.1-1.3,0.1c-0.3,0-0.5,0.1-0.8,0.1c-0.3,0-0.5,0.1-0.7,0.1
			C9.3,5.4,9.1,6.4,8.9,7.4c-0.2,1-0.5,2-0.7,3c-0.3,1-0.5,2-0.7,3c-0.2,1-0.5,1.8-0.7,2.6c-0.2,0.8-0.4,1.5-0.5,2.1
			c-0.1,0.6-0.2,1-0.2,1.2c-0.3,0.9-0.6,1.8-0.8,2.4c-0.2,0.7-0.4,1.3-0.6,1.9s-0.3,1.2-0.5,1.8C4,26,3.8,26.7,3.5,27.5
			c0.3-0.1,0.8-0.1,1.4-0.2c0.5,0,1.2-0.1,2.1-0.1c0.9,0,1.9-0.1,3.3-0.1c0,0.2,0.1,0.3,0.3,0.4s0.3,0.2,0.4,0.2
			c0.2,0.1,0.3,0.1,0.4,0.2C11.5,28,11.6,28.2,11.6,28.4z"/>
	</defs>
	<clipPath id="SVGID_3_">
		<use xlink:href="#SVGID_148_"  overflow="visible"/>
	</clipPath>
	
		<path clip-path="url(#SVGID_3_)" fill="none" stroke="#000000" stroke-width="6" stroke-linecap="round" stroke-linejoin="round" stroke-miterlimit="10" d="
		M18.8,2c0,0-9.5-0.4-11.2,0.2s-5.2,25.5-6.8,27c-2.3,2.1,8.3-0.4,9.5-0.1"/>
</g>
</svg>
