<?xml version="1.0" encoding="utf-8"?>
<!-- Generator: Adobe Illustrator 19.2.0, SVG Export Plug-In . SVG Version: 6.00 Build 0)  -->
<svg version="1.1" id="Layer_1" xmlns="http://www.w3.org/2000/svg" xmlns:xlink="http://www.w3.org/1999/xlink" x="0px" y="0px"
	 viewBox="0 0 11.2 36.5" enable-background="new 0 0 11.2 36.5" xml:space="preserve">
<g>
	<defs>
		<path id="SVGID_114_" d="M6.6,5c0.2,0.4,0.5,0.8,0.9,1.1s0.7,0.5,1,0.8c0.4,0.8,0.7,1.7,0.8,2.6s0.2,2,0.3,3.2
			c0,0.9-0.1,1.8-0.2,2.6c-0.1,0.8-0.3,1.6-0.5,2.4c-0.2,0.8-0.4,1.5-0.6,2.3c-0.2,0.8-0.5,1.6-0.7,2.4c-0.3,0.3-0.5,0.7-0.6,1.3
			c-0.2,0.6-0.2,1.1,0,1.6c-0.3,0.3-0.5,0.6-0.8,0.9c-0.3,0.3-0.6,0.6-0.9,0.8c-0.1-0.1-0.3-0.2-0.5-0.2c-0.2,0-0.4,0-0.6,0
			c-0.2,0-0.4,0-0.6,0.1s-0.3,0-0.4,0c-0.1-0.2-0.2-0.3-0.4-0.5s-0.3-0.4-0.5-0.6c-0.1-0.2-0.2-0.4-0.3-0.6c-0.1-0.2-0.1-0.4,0-0.6
			c0-0.2-0.1-0.3-0.4-0.3c0.1-0.9,0.2-1.8,0.5-2.7c0.2-0.9,0.5-1.8,0.8-2.6s0.6-1.7,0.9-2.5c0.3-0.8,0.5-1.7,0.7-2.5
			c0.2-0.8,0.2-1.6,0.1-2.5C4.7,10.7,4.5,9.8,4.1,9c0-0.3,0-0.5,0-0.7c0-0.2,0-0.4,0-0.5c0-0.2,0-0.3,0-0.4c0-0.1-0.1-0.3-0.1-0.5
			C3.9,6.6,4,6.3,4.1,6.1c0.1-0.2,0-0.5,0-0.7c0-0.1,0.1-0.3,0.1-0.3C4.2,5,4.3,4.9,4.4,4.8c0.1-0.1,0.2-0.2,0.2-0.3
			c0.1-0.1,0.1-0.2,0.1-0.3h0.7C5.6,4.4,5.8,4.5,6,4.7C6.1,4.9,6.4,4.9,6.6,5z"/>
	</defs>
	<clipPath id="SVGID_3_">
		<use xlink:href="#SVGID_114_"  overflow="visible"/>
	</clipPath>
	
		<path clip-path="url(#SVGID_3_)" fill="none" stroke="#000000" stroke-width="6" stroke-linecap="round" stroke-linejoin="round" stroke-miterlimit="10" d="
		M5.7,6.4c0,0,3.1,6.5-1.3,17.9"/>
</g>
</svg>
