<?xml version="1.0" encoding="utf-8"?>
<!-- Generator: Adobe Illustrator 19.2.0, SVG Export Plug-In . SVG Version: 6.00 Build 0)  -->
<svg version="1.1" id="Layer_1" xmlns="http://www.w3.org/2000/svg" xmlns:xlink="http://www.w3.org/1999/xlink" x="0px" y="0px"
	 viewBox="0 0 15.6 36.5" enable-background="new 0 0 15.6 36.5" xml:space="preserve">
<g>
	<defs>
		<path id="SVGID_40_" d="M7.4,26.7c-0.6,0.2-1.2,0.4-1.8,0.5c-0.7,0.2-1.3,0.3-2,0.3c-1,0-1.8-0.3-2.4-0.8
			c-0.1-0.2-0.2-0.4-0.3-0.5c-0.1-0.1-0.1-0.2-0.2-0.3c-0.1-0.1-0.1-0.2-0.1-0.4c-0.2-0.3-0.4-0.6-0.6-1c-0.1-0.4-0.2-0.8-0.3-1.1
			s-0.1-0.8,0-1.2c0-0.4,0.1-0.8,0.2-1.1C0,21.1,0,21,0,21c0-0.1,0-0.2,0-0.3c0.1-0.3,0.2-0.6,0.3-0.9c0.1-0.3,0.2-0.6,0.4-0.8
			c-0.1-0.2-0.1-0.4,0-0.6c0.1-0.2,0.2-0.4,0.3-0.6c0.3-0.8,0.5-1.4,0.7-1.9c0.2-0.5,0.4-1.1,0.6-1.6c0.3-0.9,0.7-1.8,1-2.7
			c0.3-0.9,0.6-1.8,0.8-2.9c0.2-0.1,0.3-0.2,0.4-0.2c0.1,0,0.2-0.1,0.3-0.1C5.1,8.6,5.5,8.7,6,8.9c0.5,0.2,0.9,0.3,1.2,0.3
			c0.2,0.1,0.3,0.2,0.3,0.2c0,0.1,0.1,0.1,0.1,0.1C7.8,9.8,8,10,8.2,10.3c0.2,0.3,0.2,0.6,0.2,1.1c-0.1,0.2-0.2,0.3-0.3,0.3
			c-0.1,0.4-0.2,0.7-0.3,1c-0.1,0.3-0.2,0.6-0.3,0.8c-0.1,0.3-0.3,0.6-0.4,0.9s-0.2,0.7-0.3,1.1c-0.1,0.1-0.1,0.2-0.2,0.3
			c0,0.1-0.1,0.2-0.1,0.3c0,0.1-0.1,0.2-0.1,0.3s-0.1,0.2-0.2,0.3C6,17.2,5.9,17.6,5.8,18s-0.3,0.6-0.4,1c-0.2,0.6-0.5,1.2-0.6,1.7
			c-0.2,0.6-0.3,1.2-0.3,2c0.1,0,0.2-0.1,0.3-0.1s0.2,0,0.3,0c0.2,0,0.4,0,0.6,0.1c0.6-0.3,1.3-0.5,2-0.6C8.3,22.1,9,22,9.7,22
			c0.3,0,0.6,0,0.8,0c0.3,0,0.5,0,0.8-0.1c0.2,0.1,0.3,0.2,0.3,0.2c0,0,0.1,0,0.2,0c0.1,0,0.3,0,0.4,0c0.2,0.2,0.5,0.4,0.7,0.5
			c0.2,0.1,0.5,0.2,0.7,0.3c0.2,0.1,0.4,0.2,0.6,0.3c0.2,0.1,0.4,0.2,0.6,0.4l0.2,1.3c0.1,0.2,0.2,0.3,0.2,0.4c0,0.2,0,0.3-0.1,0.4
			l0.1,0.3c-0.3,0.1-0.5,0.1-0.6,0.2c-0.1,0.1-0.2,0.2-0.3,0.3c-0.2,0-0.3,0-0.3,0c-0.1,0-0.1,0-0.2,0c-0.3,0-0.6,0.1-1,0.2
			c-0.5-0.2-1.1-0.3-1.7-0.3c-0.2,0-0.5,0-0.7,0c-0.2,0-0.5,0-0.7,0.1c-0.2,0-0.5,0.1-0.7,0.1c-0.3,0-0.5,0-0.8,0L7.4,26.7z"/>
	</defs>
	<clipPath id="SVGID_3_">
		<use xlink:href="#SVGID_40_"  overflow="visible"/>
	</clipPath>
	
		<path clip-path="url(#SVGID_3_)" fill="none" stroke="#000000" stroke-width="6" stroke-linecap="round" stroke-linejoin="round" stroke-miterlimit="10" d="
		M5.9,10.6C6,12.1,1.4,21.9,2.1,24.3s7.5-1.5,11,0.3"/>
</g>
</svg>
