<?xml version="1.0" encoding="utf-8"?>
<!-- Generator: Adobe Illustrator 19.2.0, SVG Export Plug-In . SVG Version: 6.00 Build 0)  -->
<svg version="1.1" id="Layer_1" xmlns="http://www.w3.org/2000/svg" xmlns:xlink="http://www.w3.org/1999/xlink" x="0px" y="0px"
	 viewBox="0 0 17.1 36.5" enable-background="new 0 0 17.1 36.5" xml:space="preserve">
<g>
	<defs>
		<path id="SVGID_134_" d="M14.6,4.8C15,5.2,15.4,5.5,15.7,6c0.3,0.5,0.5,0.9,0.6,1.4c0.2,0.5,0.3,1,0.4,1.6
			c0.1,0.6,0.2,1.1,0.2,1.6c-0.2,0.7-0.5,1.4-1,2c-0.5,0.6-1.1,1.2-1.7,1.5c-0.6,0.5-1.1,0.9-1.6,1.3c-0.5,0.4-1,0.6-1.7,0.7
			c-0.2,0.2-0.3,0.3-0.5,0.4c-0.2,0.1-0.3,0.3-0.4,0.5c0.3,0.9,0.7,1.8,1.1,2.7c0.4,0.9,0.6,1.9,0.7,3c-0.2,0.1-0.4,0.4-0.4,0.6
			c0,0.3,0,0.6,0,0.9c-0.2,0.3-0.4,0.6-0.5,0.9c-0.1,0.3-0.3,0.6-0.6,0.8c-0.1,0-0.1,0-0.2,0c-0.1,0-0.1,0-0.2,0
			c-0.3,0.1-0.5,0.3-0.8,0.5c-0.3,0.2-0.5,0.4-0.8,0.5c-0.5,0.1-1.1,0.2-1.6,0.2c-0.5,0-1-0.1-1.5-0.2c-0.5-0.1-1-0.3-1.4-0.6
			c-0.4-0.3-0.8-0.5-1.1-0.9c-0.2-0.4-0.4-0.8-0.5-1.3c-0.1-0.4-0.4-0.8-0.7-1.1c-0.1-0.6-0.2-1.4-0.2-2.3c0-0.9,0.1-1.8,0.4-2.6
			C1.7,18,1.8,17.7,2,17.5s0.2-0.5,0.2-0.8c0.1,0,0.2-0.1,0.2-0.1c0-0.1,0.1-0.1,0.2-0.2c0.1-0.2,0.1-0.3,0-0.3
			c-0.1-0.1-0.1-0.2,0-0.3C2.3,15.4,2,15,1.7,14.5c-0.3-0.5-0.5-0.9-0.7-1.4c-0.2-0.5-0.3-1-0.4-1.5c0-0.5,0-1.1,0.3-1.7
			c0-0.3,0.1-0.6,0.2-1c0.1-0.4,0.3-0.8,0.5-1.1c0.2-0.4,0.5-0.7,0.8-1C2.7,6.4,3,6.2,3.3,6.1c0-0.1,0-0.2,0.1-0.3s0.1-0.1,0.1-0.3
			C3.8,5.5,4,5.4,4.2,5.3C4.5,5.1,4.7,5,4.9,4.9c0.2-0.1,0.5-0.2,0.8-0.3s0.6-0.1,0.9-0.2c0.6,0,1.3,0,2,0.1
			c0.7,0.1,1.2,0.3,1.7,0.6c0.2,0.5,0.4,1,0.7,1.4c0.3,0.4,0.5,0.8,0.6,1.1c0,0.3,0.1,0.6,0.1,0.8c0,0.2,0.1,0.5,0.1,0.7
			s0,0.4-0.1,0.7c-0.1,0.2-0.2,0.5-0.3,0.8c0.4-0.1,0.7-0.3,1-0.5c0.3-0.2,0.5-0.5,0.6-1c0-0.3-0.1-0.6-0.3-0.9
			c-0.2-0.2-0.3-0.5-0.4-0.8c0.1-0.1,0.2-0.1,0.2-0.2c0-0.1,0-0.2,0-0.3c0-0.1,0-0.2-0.1-0.3c0-0.1,0-0.2,0-0.3c0.1,0,0.2,0,0.2,0
			c0,0,0.1,0,0.2,0c0-0.2-0.1-0.2-0.1-0.3c0,0,0-0.1,0-0.2c0.1-0.1,0.2-0.2,0.3-0.3c0.1-0.1,0.2-0.1,0.3,0c-0.1-0.2-0.1-0.4,0-0.6
			c0.1-0.2,0.3-0.3,0.4-0.4c0.1,0,0.2,0.1,0.3,0.1C14.3,4.8,14.4,4.8,14.6,4.8z M7.4,22c0-0.1,0-0.2,0.1-0.3
			c0.1-0.1,0.1-0.2,0.2-0.3C7.4,21,7.2,20.5,7,20.2c-0.2-0.4-0.6-0.7-1.1-1c-0.3,0.2-0.5,0.4-0.6,0.7S5,20.4,5,20.6
			c0,0.3,0,0.5,0.1,0.8c0.1,0.3,0.3,0.5,0.5,0.7c0.2-0.1,0.5-0.1,0.8,0C6.8,22.2,7.1,22.2,7.4,22z M6.7,13.3C7,13.1,7.3,13,7.6,12.9
			c0.3-0.1,0.6-0.2,1-0.4c0.3-0.1,0.6-0.3,0.9-0.4s0.6-0.3,0.8-0.6c-0.8,0-1.4-0.1-1.9-0.4c-0.5-0.3-0.7-0.7-0.7-1.4
			C7.4,9.6,7.1,9.5,6.8,9.5c-0.3,0-0.6,0.1-0.9,0.2c-0.3,0.1-0.5,0.3-0.6,0.5c-0.1,0.2-0.1,0.5,0,0.8c0,0.1-0.1,0.2-0.2,0.2
			S5,11.3,5,11.4c0.3,0.3,0.6,0.6,0.8,0.9S6.3,13,6.7,13.3z"/>
	</defs>
	<clipPath id="SVGID_3_">
		<use xlink:href="#SVGID_134_"  overflow="visible"/>
	</clipPath>
	
		<path clip-path="url(#SVGID_3_)" fill="none" stroke="#000000" stroke-width="6" stroke-linecap="round" stroke-linejoin="round" stroke-miterlimit="10" d="
		M9.3,8.5c0.1-0.8-0.7-1.9-3.2-1.4S1.4,10.6,5.6,16s5.6,10.6-1.6,7.8s8.9-10.5,10.8-12.9s-1.4-4.3-1.4-4.3"/>
</g>
</svg>
