<?xml version="1.0" encoding="utf-8"?>
<!-- Generator: Adobe Illustrator 19.2.0, SVG Export Plug-In . SVG Version: 6.00 Build 0)  -->
<svg version="1.1" id="Layer_1" xmlns="http://www.w3.org/2000/svg" xmlns:xlink="http://www.w3.org/1999/xlink" x="0px" y="0px"
	 viewBox="0 0 19.4 36.5" enable-background="new 0 0 19.4 36.5" xml:space="preserve">
<g>
	<defs>
		<path id="SVGID_22_" d="M20.7,21.6c-0.5,0.9-1.1,1.5-1.9,2c-0.8,0.5-1.6,0.9-2.6,1.2c-0.9,0.3-1.9,0.6-3,0.8s-2,0.6-3,0.9
			c-0.3,0-0.5,0-0.7,0c-0.2,0-0.4,0-0.6,0.1c-0.2,0-0.4,0.1-0.6,0.1c-0.2,0-0.4,0.1-0.6,0.1c-0.1,0-0.1,0-0.2,0
			c0,0.1-0.1,0.1-0.1,0.1c-0.3,0.1-0.6,0.1-0.9,0.1c-0.3,0-0.5,0-0.7,0c-0.2,0-0.5,0-0.7,0.1c-0.3,0.1-0.5,0.1-0.7,0.1
			C3,27.2,1.8,26.7,1,25.7c-0.9-1-1.3-2.4-1.4-4.1c0-0.1,0-0.2,0-0.2c-0.1,0-0.1,0-0.1-0.1c0-0.2,0-0.4,0.1-0.5
			c0.1-0.1,0.1-0.3,0-0.5C0,19.1,0.6,18,1.2,17.1c0.7-1,1.5-1.8,2.4-2.5c0.1-0.1,0.3-0.2,0.4-0.4c0.1-0.1,0.2-0.2,0.3-0.4
			c0.1-0.1,0.2-0.2,0.3-0.3c0.1-0.1,0.3-0.2,0.5-0.2c0.4-0.5,0.9-0.9,1.5-1.3c0.6-0.4,1.2-0.8,1.8-1.2c0.6-0.4,1.3-0.7,1.9-1.1
			s1.2-0.8,1.7-1.3c0.2,0.1,0.4,0.1,0.5,0.1c0.1,0,0.2,0,0.3,0c0.1,0.3,0.3,0.5,0.6,0.6s0.5,0.2,0.8,0.4c0.3,0.1,0.5,0.3,0.7,0.5
			c0.2,0.2,0.4,0.4,0.5,0.7c-0.1,0-0.2,0-0.2,0.1c0,0.1,0,0.2,0.1,0.3c0,0.1,0.1,0.2,0,0.3c0,0.1-0.1,0.1-0.2,0.1
			c0,0.1,0.1,0.2,0.2,0.2c0.1,0,0.2,0.1,0.2,0.2s0,0.2-0.1,0.2c-0.1,0.1-0.1,0.2,0,0.3c-0.4,0.3-0.8,0.5-1.3,0.8s-1,0.5-1.5,0.8
			s-1.1,0.6-1.7,0.9c-0.6,0.3-1.1,0.7-1.7,1.1c-0.5,0.4-1.1,0.8-1.7,1.3c-0.6,0.5-1.1,1-1.6,1.6c-0.5,0.5-1,1.1-1.5,1.7
			c-0.5,0.6-0.9,1.1-1.2,1.7c0,0.1,0.1,0.2,0.1,0.2c0,0.1,0.1,0.1,0.1,0.2c0.6,0,1.2,0,1.8,0c0.6,0,1.1,0,1.7,0.1
			c0.1,0,0.1-0.1,0.1-0.2c0-0.1,0.1-0.1,0.2-0.2c1.1-0.1,2.2-0.3,3.2-0.6c1-0.3,2-0.5,3-0.8c-0.2-0.1-0.3-0.1-0.4-0.2
			c-0.1,0-0.3-0.1-0.4-0.1c-0.1-0.1-0.1-0.2,0-0.3c0.1-0.1,0.2-0.1,0.3-0.2c-0.3-0.2-0.5-0.4-0.7-0.6s-0.3-0.6-0.3-1
			c0.1-0.1,0.2-0.2,0.2-0.4c0-0.1-0.1-0.3-0.2-0.3c-0.1,0-0.1,0-0.2,0c0,0,0,0.1,0,0.1c0,0,0,0.1,0,0.1c0,0-0.1,0-0.2,0
			c0-0.2,0.1-0.3,0.1-0.5c0.1-0.1,0.1-0.3,0.2-0.4l2.1-1.4c0.2,0.2,0.5,0.3,0.8,0.5c0.3,0.2,0.7,0.4,1,0.6c0.4,0.2,0.7,0.4,1.1,0.6
			c0.4,0.2,0.7,0.4,1,0.6c0.3,0.1,0.5,0.3,0.8,0.5c0.2,0.2,0.4,0.4,0.6,0.6c0.2,0.2,0.4,0.4,0.6,0.6c0.2,0.2,0.5,0.4,0.7,0.5
			c0,0.3,0,0.5,0,0.6C20.7,21.2,20.8,21.4,20.7,21.6z"/>
	</defs>
	<clipPath id="SVGID_3_">
		<use xlink:href="#SVGID_22_"  overflow="visible"/>
	</clipPath>
	
		<path clip-path="url(#SVGID_3_)" fill="none" stroke="#000000" stroke-width="6" stroke-linecap="round" stroke-linejoin="round" stroke-miterlimit="10" d="
		M12.7,11.1c-3.9,1.2-12.4,9-10.4,12.2s14.9-0.8,15.5-2.1s-4-2.7-4-2.7"/>
</g>
</svg>
