<?xml version="1.0" encoding="utf-8"?>
<!-- Generator: Adobe Illustrator 19.2.0, SVG Export Plug-In . SVG Version: 6.00 Build 0)  -->
<svg version="1.1" id="Layer_1" xmlns="http://www.w3.org/2000/svg" xmlns:xlink="http://www.w3.org/1999/xlink" x="0px" y="0px"
	 viewBox="0 0 14.4 36.5" enable-background="new 0 0 14.4 36.5" xml:space="preserve">
<g>
	<defs>
		<path id="SVGID_12_" d="M14.8,18.7c0,0.1,0,0.2-0.1,0.3c0,0.1,0,0.1-0.1,0.2c0,0.1,0,0.1,0,0.2c0,0.1,0,0.2,0,0.3
			c-0.6,1.1-1.4,2-2.3,2.7c-0.9,0.7-1.9,1.4-3,1.9c-1.1,0.6-2.2,1.1-3.4,1.5c-1.2,0.5-2.3,0.9-3.5,1.5c-0.5-0.1-0.8-0.3-1.1-0.6
			c-0.3-0.3-0.4-0.6-0.6-1s-0.2-0.8-0.3-1.2c-0.1-0.5-0.1-0.9-0.1-1.4c0.1-0.2,0.1-0.4,0.3-0.6s0.2-0.4,0.2-0.6
			c0.2-0.5,0.3-1,0.5-1.5c0.2-0.5,0.3-1,0.3-1.5c0.1-0.2,0.2-0.3,0.3-0.3c0.1-1,0.1-1.9,0-2.9c-0.1-1-0.3-1.9-0.5-2.8
			c0-0.2,0-0.3,0.1-0.4c0-0.1,0-0.2,0-0.2c0-0.2,0-0.2,0.2-0.2s0.3,0,0.4,0C2,11.6,2,11.3,1.9,11c-0.1-0.3-0.2-0.6-0.3-1
			C1.7,9.6,1.8,9.3,1.8,9c0-0.3,0.1-0.5,0.3-0.8C3.2,8.6,4.2,9,5.2,9.5c1,0.5,2,0.8,2.9,1.1c0.7,0.5,1.5,1,2.2,1.6s1.5,1.1,2.1,1.7
			c0.6,0.6,1.1,1.3,1.6,2.1C14.5,16.7,14.7,17.6,14.8,18.7z M7.6,20.4C8,20.2,8.4,20,8.9,19.9c0.4-0.2,0.8-0.4,1.1-0.6
			c0.4-0.2,0.7-0.5,1-0.8c0.3-0.3,0.5-0.7,0.7-1.1c-0.1-0.2-0.3-0.5-0.5-0.6c-0.2-0.2-0.4-0.4-0.6-0.5c-0.2-0.2-0.4-0.3-0.6-0.5
			c-0.2-0.2-0.3-0.4-0.5-0.7c-0.3,0-0.5-0.1-0.7-0.2c-0.2-0.1-0.4-0.2-0.6-0.3c-0.2-0.1-0.4-0.2-0.6-0.3c-0.2-0.1-0.5-0.2-0.7-0.2
			c-0.4-0.2-0.8-0.4-1.2-0.5c-0.4-0.1-0.6-0.2-0.8-0.4c-0.1,0-0.3,0-0.3,0.1c0.2,0.8,0.4,1.5,0.5,2.2c0.1,0.7,0.2,1.3,0.2,2
			c0,0.7,0,1.4-0.1,2.1c-0.1,0.7-0.2,1.5-0.3,2.3c0.2,0,0.4-0.1,0.6-0.1c0.2-0.1,0.3-0.1,0.5-0.2c0.2-0.1,0.4-0.2,0.5-0.2
			C6.5,21,6.8,21,7,20.9c0.1-0.1,0.1-0.2,0.3-0.3C7.4,20.6,7.5,20.5,7.6,20.4z"/>
	</defs>
	<clipPath id="SVGID_3_">
		<use xlink:href="#SVGID_12_"  overflow="visible"/>
	</clipPath>
	
		<path clip-path="url(#SVGID_3_)" fill="none" stroke="#000000" stroke-width="6" stroke-linecap="round" stroke-linejoin="round" stroke-miterlimit="10" d="
		M2.3,13.5c0.3,1.8,0.9,7.7,0,11.2h2c1.4-0.3,9.2-5.6,8.7-7.8c-0.6-2.2-7.7-5.9-9.8-6.2"/>
</g>
</svg>
