<?xml version="1.0" encoding="utf-8"?>
<!-- Generator: Adobe Illustrator 19.2.0, SVG Export Plug-In . SVG Version: 6.00 Build 0)  -->
<svg version="1.1" id="Layer_1" xmlns="http://www.w3.org/2000/svg" xmlns:xlink="http://www.w3.org/1999/xlink" x="0px" y="0px"
	 viewBox="0 0 15.2 36.5" enable-background="new 0 0 15.2 36.5" xml:space="preserve">
<g>
	<defs>
		<path id="SVGID_124_" d="M-0.1,9.5C-0.4,9-0.6,8.5-1,8.2C-0.9,8-0.9,7.8-1,7.5c-0.1-0.2-0.2-0.4-0.4-0.6c-0.5-0.1-0.8-0.1-1-0.2
			c-0.2,0-0.3-0.1-0.4-0.1c-0.1,0-0.1,0-0.1,0c0,0,0,0-0.1,0c-0.1,0-0.2,0.1-0.5,0.1c-0.2,0-0.6,0.1-1.1,0.1c-0.2,0-0.5,0-0.8,0
			C-5.7,7-6,7-6.3,7c-0.3,0-0.5,0.1-0.7,0.1h-0.4c-0.1,0-0.2,0-0.3,0c-0.1,0-0.3,0.1-0.5,0.1c0,0-0.1,0-0.1,0
			c-2.2,0.5-5.1,0.7-6.4,2.8c-1.1,1.7-0.3,3.4,1.7,3.7c0.6,0.1,1.1,0,1.6-0.2l0,0c0.4-0.2,0.8-0.3,1.2-0.4s0.8-0.2,1.2-0.2
			c0.4-0.1,0.8-0.1,1.2-0.2c0.4-0.1,0.8-0.2,1.2-0.3c0.1,0,0.1,0,0.1,0s0.1,0,0.1-0.1c0,0,0,0,0.1,0c0,0,0,0.1,0,0.2
			c0.7-0.1,1.2-0.2,1.4-0.2c0.2,0,0.4-0.1,0.5-0.1c0.1,0,0.2,0,0.4-0.1c0.2,0,0.7,0,1.4-0.1c0.4-0.1,0.8-0.2,1.1-0.3
			c0.4-0.1,0.8-0.2,1.2-0.4C0,10.6,0.1,10-0.1,9.5z"/>
	</defs>
	<clipPath id="SVGID_3_">
		<use xlink:href="#SVGID_124_"  overflow="visible"/>
	</clipPath>
	
		<path clip-path="url(#SVGID_3_)" fill="none" stroke="#000000" stroke-width="6" stroke-linecap="round" stroke-linejoin="round" stroke-miterlimit="10" d="
		M-13.5,12.4C-14,9.7-2,9.2-2,9.2"/>
</g>
<g>
	<defs>
		<path id="SVGID_128_" d="M13.6,17.8c0.2,0.1,0.4,0.3,0.5,0.5c0.1,0.2,0.3,0.4,0.4,0.5c0,0.4,0,0.8,0.1,1.3c0.1,0.5,0.1,1,0,1.5
			c-0.4,0.6-0.8,1.2-1.3,1.8c-0.5,0.6-1.1,1-1.8,1.4c-0.1,0-0.1,0.1-0.1,0.2c0,0.1,0,0.2-0.1,0.3c-0.2,0-0.3,0-0.4,0.1
			c-0.1,0.1-0.2,0.1-0.3,0c-0.2,0.1-0.5,0.3-0.7,0.4c-0.2,0.1-0.5,0.2-0.6,0.4c-0.2,0-0.3,0-0.5,0c-0.1,0-0.3,0.1-0.4,0.1
			c-0.1,0.1-0.3,0.1-0.4,0.1c-0.1,0-0.3,0-0.4,0c-0.6,0.3-1.4,0.6-2.1,0.8c-0.8,0.2-1.6,0.2-2.5,0.1c-0.6-0.1-1.1-0.3-1.6-0.7
			c-0.4-0.3-0.8-0.8-1.1-1.3c-0.3-0.5-0.4-1.1-0.5-1.7c-0.1-0.7,0-1.3,0.2-2c0-0.1-0.1-0.1-0.1-0.2c0-0.1,0-0.2,0-0.3
			c0-0.1,0-0.2,0-0.3s0-0.2-0.1-0.2c0.1-0.2,0.2-0.4,0.3-0.6c0.1-0.2,0.1-0.5,0-0.7c0.1,0,0.2-0.1,0.2-0.2c0-0.1,0.1-0.2,0.1-0.3
			s0.1-0.2,0.1-0.3c0-0.1,0.1-0.2,0.2-0.2c0-0.5,0.1-1.1,0.3-1.5c0.2-0.5,0.3-0.9,0.6-1.4c0.2-0.5,0.4-0.9,0.7-1.3s0.5-0.9,0.7-1.4
			c-0.1-0.2-0.1-0.3-0.1-0.3s0.1-0.2,0.1-0.3c0.3-0.5,0.6-1,0.9-1.6c0.3-0.6,0.6-1.1,1-1.7C5,7.9,5.4,7.4,5.8,6.9
			c0.4-0.5,0.8-1,1.3-1.4C7.4,5.4,7.7,5.3,8,5.1s0.6-0.3,0.9-0.4c0.3-0.1,0.6-0.2,0.9-0.2s0.6,0,1,0.2c0,0.2,0.1,0.3,0,0.4
			c0,0.1,0,0.2,0,0.3c0.3,0.2,0.5,0.4,0.6,0.8c0,0.4,0.1,0.7,0.1,1.1c0.2,0.1,0.4,0.3,0.5,0.5c0.1,0.2,0.2,0.5,0.2,0.8
			c-0.2,0.2-0.5,0.5-0.7,0.7s-0.4,0.4-0.6,0.6c-0.1,0-0.2,0.1-0.3,0c-0.1,0-0.2,0-0.3,0c-0.6,0.3-1.1,0.6-1.6,1
			c-0.5,0.4-0.8,0.9-1.2,1.5c-0.3,0.5-0.6,1.1-0.8,1.7c-0.2,0.6-0.4,1.2-0.6,1.8c-0.6,0.9-1.1,1.8-1.4,2.7s-0.7,2-0.9,3.1
			c0,0.2,0.1,0.2,0.3,0.2c0.2,0,0.3,0,0.4,0c0.2-0.4,0.4-0.8,0.5-1.2c0.1-0.4,0.1-0.8,0.1-1.3C5.5,19,5.7,18.6,6,18.3
			c0.3-0.3,0.5-0.7,0.7-1.1c0.3-0.2,0.6-0.5,0.9-0.6c0.3-0.2,0.6-0.3,0.8-0.5C8.7,16,9,15.8,9.4,15.7c0.3-0.1,0.7-0.2,1.2-0.3
			c0.5,0,0.9,0.1,1.3,0.3c0.4,0.2,0.6,0.4,0.9,0.6c0.2,0.2,0.4,0.5,0.6,0.8C13.4,17.3,13.5,17.6,13.6,17.8z"/>
	</defs>
	<clipPath id="SVGID_5_">
		<use xlink:href="#SVGID_128_"  overflow="visible"/>
	</clipPath>
	
		<path clip-path="url(#SVGID_5_)" fill="none" stroke="#000000" stroke-width="6" stroke-linecap="round" stroke-linejoin="round" stroke-miterlimit="10" d="
		M9.8,7.4c-2.4-1.1-10.3,11.8-7.7,17S15,18.5,12.2,18s-4.8,1.6-4.8,1.6s-1.8,1.9-0.2,3.2"/>
</g>
</svg>
