<?xml version="1.0" encoding="utf-8"?>
<!-- Generator: Adobe Illustrator 18.0.0, SVG Export Plug-In . SVG Version: 6.00 Build 0)  -->
<!DOCTYPE svg PUBLIC "-//W3C//DTD SVG 1.1//EN" "http://www.w3.org/Graphics/SVG/1.1/DTD/svg11.dtd">
<svg version="1.1" id="Layer_1" xmlns="http://www.w3.org/2000/svg" xmlns:xlink="http://www.w3.org/1999/xlink" x="0px" y="0px"
	 viewBox="0 0 23.9 36.5" enable-background="new 0 0 23.9 36.5" xml:space="preserve">
<path fill="none" stroke="#000000" stroke-width="4" stroke-linecap="round" stroke-linejoin="round" stroke-miterlimit="10" d="
	M13.7,14.8c-0.8,0.3-11.6,7.2,0.5,6.4"/>
<path fill="none" stroke="#000000" stroke-width="4" stroke-linecap="round" stroke-linejoin="round" stroke-miterlimit="10" d="
	M16.6,14c-0.6,1.1-1.2,2.2-1.3,3.4c-0.1,1.2,0.4,2.6,1.5,3.1c1.1,0.5,2.4,0,3.2-0.9c1.5-1.5,1.8-4,1-6s-2.4-3.6-4.1-4.8
	c-0.5-0.3-1-0.7-1.6-0.7c-0.8-0.1-1.6,0.3-2.4,0.8c-2.1,1.2-4.1,2.4-6,3.9s-3.4,3.4-4.1,5.7c-0.6,1.7-0.6,3.7,0.6,5
	C4.1,24.1,5,24.5,6,24.9c3.7,1.3,7.7,1.5,11.4,0.6"/>
</svg>
