<?xml version="1.0" encoding="utf-8"?>
<!-- Generator: Adobe Illustrator 19.2.0, SVG Export Plug-In . SVG Version: 6.00 Build 0)  -->
<svg version="1.1" id="Layer_1" xmlns="http://www.w3.org/2000/svg" xmlns:xlink="http://www.w3.org/1999/xlink" x="0px" y="0px"
	 viewBox="0 0 11.4 36.5" enable-background="new 0 0 11.4 36.5" xml:space="preserve">
<g>
	<defs>
		<path id="SVGID_78_" d="M14.2,10.7c0-0.1,0-0.2,0-0.3c0-0.1-0.1-0.3-0.2-0.5l-0.3-0.2c-0.3-0.2-0.5-0.3-0.8-0.5
			c-0.3-0.2-0.4-0.4-0.5-0.6l-0.1-0.4L12,8.4c-1.2,0.2-2.1,0.9-2.7,1.9l-0.3,0.2c-0.1,0.2-0.2,0.3-0.4,0.5c-0.2,0.1-0.3,0.3-0.5,0.5
			L7.4,12l0.1,0.3l-1.8,2.4c0,0-0.1,0.1-0.1,0.1c0,0-0.1,0.1-0.1,0.1C5.4,15,5.3,15,5.2,15.1l0,0c-0.3,0.8-0.6,1.5-1,2.2
			c-0.4,0.6-0.7,1.5-1.2,2.1l0,0c-0.1,0.2-0.2,0.4-0.4,0.7c-0.2,0.3-0.4,0.7-0.7,1.1c-0.3,0.6-0.6,1.1-0.7,1.4
			c-0.1,0.3-0.2,0.5-0.3,0.7c-0.2,0.2-0.4,0.5-0.5,0.8c-0.1,0.3-0.2,0.6-0.3,0.8C0.1,25,0,25.1,0,25.2c0,0.1-0.1,0.2-0.1,0.3l0,0.3
			c0.3,1.4,1.2,2.2,2.7,2.4L3,28c0.1-0.1,0.2-0.2,0.2-0.2c0.1-0.1,0.2-0.2,0.3-0.3c0.1-0.1,0.2-0.3,0.3-0.4l0.1-0.3
			c0,0,0-0.1,0.1-0.2c0-0.1,0.1-0.1,0.1-0.2c0.1-0.2,0.2-0.3,0.3-0.5c0.1-0.2,0.1-0.3,0.2-0.5c0.7-0.9,1.2-1.8,1.4-2.6
			c0.2-0.2,0.4-0.4,0.5-0.6c0.1-0.2,0.2-0.4,0.3-0.7C7,21.2,7.1,21,7.3,20.8c0.1-0.2,0.2-0.4,0.3-0.6c0.1-0.2,0.2-0.4,0.3-0.5
			c0.1-0.2,0.2-0.3,0.4-0.4l0.2-0.5c0.2-0.2,0.3-0.3,0.3-0.5S8.9,18,9,17.9c0.1-0.2,0.2-0.3,0.2-0.4c0.1-0.1,0.2-0.3,0.5-0.6
			c0-0.1,0.1-0.2,0.1-0.3c0-0.1,0.1-0.1,0.1-0.2c0,0,0.1-0.1,0.2-0.2c0.1-0.1,0.2-0.2,0.3-0.4c0.1-0.3,0.2-0.5,0.3-0.5
			c0.1-0.1,0.1-0.1,0.1-0.1h0.4l0.1-0.4c0.1-0.4,0.4-0.7,0.8-1l0.2-0.2c0.1-0.2,0.2-0.4,0.3-0.5c0.2-0.1,0.3-0.3,0.5-0.4
			c0.2-0.2,0.4-0.4,0.7-0.6s0.4-0.6,0.6-1.1L14.2,10.7z"/>
	</defs>
	<clipPath id="SVGID_3_">
		<use xlink:href="#SVGID_78_"  overflow="visible"/>
	</clipPath>
	
		<path clip-path="url(#SVGID_3_)" fill="none" stroke="#000000" stroke-width="6" stroke-linecap="round" stroke-linejoin="round" stroke-miterlimit="10" d="
		M11.8,10.7C10.9,11.1,2.1,23,2.4,25.8"/>
</g>
<g>
	<defs>
		<path id="SVGID_80_" d="M0.4,11.2c0.1,0.2,0.1,0.5,0.2,0.7c0,0.2,0,0.4,0,0.6l-0.1,0.3c0,0.1,0.1,0.3,0.2,0.4c0,0.2,0,0.5,0.1,0.7
			c0,0.2,0.1,0.4,0.2,0.7C0.9,14.8,1,15,1,15.1c0,0.2,0.1,0.4,0.1,0.7c0.1,0.4,0.2,0.8,0.4,1.2C1.7,17.5,2,18,2.2,18.5
			c0.3,0.3,0.6,0.7,0.7,0.9s0.9,0.4,1.3,0c0.3-0.3,0.6-0.8,0.7-1.2c0.3-1,0.2-2,0.2-3.1l0,0c0-0.3,0-0.5,0-0.8
			C5.1,14.1,5,13.8,5,13.6s-0.1-0.5-0.2-0.7c-0.1-0.3-0.1-0.5-0.1-0.8l-0.1-0.4c-0.1-0.1-0.1-0.2-0.1-0.5c0-0.1,0-0.3,0-0.3v-0.3
			L4,10.3L3.8,9.8C3.6,9.7,3.4,9.5,3.2,9.4C3,9.3,2.8,9.2,2.5,9.1C2.4,9,2.2,8.9,2.1,8.9C1.9,8.8,1.7,8.7,1.5,8.6L1,8.6
			C0.7,8.8,0.6,8.9,0.5,9.2C0.3,9.4,0.3,9.6,0.3,9.8c0,0.2,0,0.5,0,0.7C0.4,10.8,0.4,11,0.4,11.2z"/>
	</defs>
	<clipPath id="SVGID_5_">
		<use xlink:href="#SVGID_80_"  overflow="visible"/>
	</clipPath>
	
		<path clip-path="url(#SVGID_5_)" fill="none" stroke="#000000" stroke-width="6" stroke-linecap="round" stroke-linejoin="round" stroke-miterlimit="10" d="
		M1.8,10.2c0,1.6,2.1,8.2,4.4,9.3"/>
</g>
</svg>
