<?xml version="1.0" encoding="utf-8"?>
<!-- Generator: Adobe Illustrator 18.0.0, SVG Export Plug-In . SVG Version: 6.00 Build 0)  -->
<!DOCTYPE svg PUBLIC "-//W3C//DTD SVG 1.1//EN" "http://www.w3.org/Graphics/SVG/1.1/DTD/svg11.dtd">
<svg version="1.1" id="Layer_1" xmlns="http://www.w3.org/2000/svg" xmlns:xlink="http://www.w3.org/1999/xlink" x="0px" y="0px"
	 viewBox="0 0 19.2 36.5" enable-background="new 0 0 19.2 36.5" xml:space="preserve">
<path fill="none" stroke="#000000" stroke-width="4" stroke-linecap="round" stroke-linejoin="round" stroke-miterlimit="10" d="
	M6.2,6.3c-1.8,0.8-3.2,2.3-4,4.1c-0.3,0.7-0.5,1.5,0,2.1C2.6,12.9,3.3,13,3.9,13c1,0,2.1-0.1,2.7-0.8c0.6-0.7,0.6-1.7,0.3-2.5
	c-0.4-0.8-1-1.5-1.7-2"/>
<path fill="none" stroke="#000000" stroke-width="4" stroke-linecap="round" stroke-linejoin="round" stroke-miterlimit="10" d="
	M17.4,8.6c-3,2.8-6,5.5-9,8.3c-2.7,2.5-5.5,5.2-6.5,8.7"/>
<path fill="none" stroke="#000000" stroke-width="4" stroke-linecap="round" stroke-linejoin="round" stroke-miterlimit="10" d="
	M13.4,19.2c-1.8,0.6-3.2,2.2-3.8,4c-0.2,0.6-0.2,1.4,0.2,1.9c0.4,0.4,1,0.5,1.6,0.5c0.7,0,1.5,0.1,2.2-0.3c0.8-0.4,1.3-1.4,1.2-2.2
	c-0.1-0.9-0.9-1.6-1.8-1.8"/>
</svg>
