<?xml version="1.0" encoding="utf-8"?>
<!-- Generator: Adobe Illustrator 19.2.0, SVG Export Plug-In . SVG Version: 6.00 Build 0)  -->
<svg version="1.1" id="Layer_1" xmlns="http://www.w3.org/2000/svg" xmlns:xlink="http://www.w3.org/1999/xlink" x="0px" y="0px"
	 viewBox="0 0 10.2 36.5" enable-background="new 0 0 10.2 36.5" xml:space="preserve">
<g>
	<defs>
		<path id="SVGID_144_" d="M7.3,13.3l-1.1,1.4l0,0.8c-0.2,0.5-0.5,1-0.6,1.6C5.4,17.7,5.2,18.3,5,19c-0.2,0.8-0.3,1.6-0.3,2.4
			c0,0.8,0,1.7,0.1,2.5c0.1,0.8,0.2,1.6,0.4,2.4c0.2,0.8,0.4,1.5,0.6,2.1c-0.1,0.1-0.1,0.2-0.2,0.5c0,0.2-0.1,0.5-0.1,0.7
			c0,0.3-0.1,0.5-0.1,0.7c0,0.2,0,0.4,0,0.5l0.2,0.3c0.1,0,0.1,0.1,0.2,0.2c0,0.1,0,0.2,0.1,0.3c0,0.5-0.1,1-0.4,1.4
			c-0.4-0.1-0.8-0.2-1.1-0.3c-0.4-0.1-0.7-0.3-1-0.4C3.3,32,3,31.6,2.8,31.3C2.5,31,2.3,30.7,2,30.4c-0.2-0.2-0.4-0.5-0.6-0.8
			c-0.2-0.3-0.4-0.6-0.6-1c-0.1-0.7-0.2-1.3-0.3-1.8c-0.1-0.5-0.3-1.1-0.4-1.7l-0.1-0.3C0,24.1,0,23.3,0,22.5c0-0.8,0-1.4,0-2
			c0-0.2,0.1-0.3,0.1-0.5c0-0.2,0-0.4,0-0.6c0-0.1,0-0.2,0-0.4s0-0.3,0-0.4l0.7-0.1l-0.2-1L1,17.3l0.1-0.5c0.1-1.1,0.2-2.1,0.5-3
			c0.3-0.9,0.6-1.7,1.1-2.5l0.2-0.5c0.3-0.5,0.7-1,1-1.5c0.3-0.5,0.7-1.1,1.2-1.7c0.7-0.8,1.3-1.4,1.9-2c0.5-0.5,1.1-1,1.6-1.3
			L8.9,4c0.4-0.4,0.7-0.7,1-0.9c0.3-0.2,0.5-0.5,0.7-0.7c0.2-0.2,0.4-0.4,0.6-0.5c0.2-0.2,0.4-0.3,0.5-0.4c0.3,0.2,0.6,0.3,0.8,0.2
			c0.3,0,0.5-0.1,0.6-0.2c0.2,0.3,0.4,0.5,0.4,0.7c0,0.2,0,0.4-0.1,0.8c-0.1,0.3-0.1,0.6-0.2,0.9c-0.1,0.3,0,0.7,0.2,1.1
			c-0.1,0.2-0.2,0.4-0.3,0.7C13.1,6,13,6.2,13,6.4c-0.1,0.2-0.2,0.4-0.2,0.5c-0.1,0.1-0.1,0.2-0.2,0.3c-0.1,0.1-0.2,0.1-0.2,0.2
			c-0.1,0.1-0.2,0.2-0.3,0.3c-0.5,0.2-0.9,0.5-1.4,0.9S9.7,9.5,9.3,9.9c-0.4,0.5-0.8,1-1.1,1.5c-0.3,0.5-0.5,1-0.7,1.4L7.3,13.3z"/>
	</defs>
	<clipPath id="SVGID_3_">
		<use xlink:href="#SVGID_144_"  overflow="visible"/>
	</clipPath>
	
		<path clip-path="url(#SVGID_3_)" fill="none" stroke="#000000" stroke-width="6" stroke-linecap="round" stroke-linejoin="round" stroke-miterlimit="10" d="
		M12.7,3.9c-4.8,2.7-14,12.4-8.5,27.4"/>
</g>
</svg>
