<?xml version="1.0" encoding="utf-8"?>
<!-- Generator: Adobe Illustrator 19.2.0, SVG Export Plug-In . SVG Version: 6.00 Build 0)  -->
<svg version="1.1" id="Layer_1" xmlns="http://www.w3.org/2000/svg" xmlns:xlink="http://www.w3.org/1999/xlink" x="0px" y="0px"
	 viewBox="0 0 9 36.5" enable-background="new 0 0 9 36.5" xml:space="preserve">
<g>
	<defs>
		<path id="SVGID_30_" d="M5.9,25.2c0.1,0.6,0.1,1.1-0.1,1.4C5.6,27,5.4,27.2,5,27.4c-0.3,0.2-0.7,0.3-1.1,0.3c-0.4,0-0.8,0-1.1-0.1
			c-0.2-0.3-0.4-0.6-0.5-1.1c-0.2-0.4-0.3-0.9-0.5-1.3c-0.1-0.5-0.3-0.9-0.4-1.3c-0.1-0.4-0.2-0.8-0.3-1.2c0.1-0.2,0.2-0.5,0.2-0.8
			c0-0.3,0.1-0.6,0.1-0.9c0-0.3,0-0.6,0-1c0-0.3,0-0.6,0.1-0.9c0.1-0.8,0.3-1.6,0.6-2.4s0.5-1.6,0.6-2.4c0-0.2,0-0.4,0-0.5
			c-0.1-0.2-0.1-0.3,0-0.5c0-0.1,0.1-0.1,0.2-0.2s0.2-0.1,0.2-0.2c0.1-0.2,0.1-0.4,0-0.5c0-0.1,0-0.3,0.1-0.5
			c0.1-0.2,0.2-0.4,0.4-0.7c0.2-0.3,0.2-0.6,0.2-1C3.9,10,4.1,9.9,4.3,9.7c0.2-0.2,0.3-0.3,0.5-0.4C4.9,9.2,5.1,9.1,5.4,9
			c0.2-0.1,0.5-0.2,0.8-0.2C6.3,9,6.4,9.2,6.4,9.5c0,0.2,0.1,0.5,0.2,0.7c0,0.2,0.1,0.5,0.2,0.7c0.1,0.2,0.3,0.4,0.5,0.5
			c0,0.2,0,0.4,0,0.6s0,0.5,0,0.7c0,0.2,0.1,0.4,0.1,0.6c0.1,0.2,0.2,0.3,0.3,0.4c-0.4,1-0.7,1.9-1,2.9c-0.3,0.9-0.6,1.9-0.8,2.9
			c-0.2,1-0.3,1.9-0.4,2.9C5.6,23.3,5.7,24.2,5.9,25.2z"/>
	</defs>
	<clipPath id="SVGID_3_">
		<use xlink:href="#SVGID_30_"  overflow="visible"/>
	</clipPath>
	
		<path clip-path="url(#SVGID_3_)" fill="none" stroke="#000000" stroke-width="6" stroke-linecap="round" stroke-linejoin="round" stroke-miterlimit="10" d="
		M5.9,11.6C4.8,13,3.4,23.8,3.8,25.3"/>
</g>
</svg>
