<?xml version="1.0" encoding="utf-8"?>
<!-- Generator: Adobe Illustrator 19.2.0, SVG Export Plug-In . SVG Version: 6.00 Build 0)  -->
<svg version="1.1" id="Layer_1" xmlns="http://www.w3.org/2000/svg" xmlns:xlink="http://www.w3.org/1999/xlink" x="0px" y="0px"
	 viewBox="0 0 8.5 36.5" enable-background="new 0 0 8.5 36.5" xml:space="preserve">
<g>
	<defs>
		<path id="SVGID_142_" d="M7.4,9.6c0,0.1-0.1,0.2-0.1,0.2c-0.1,0-0.1,0.1-0.2,0.2C7.1,10.1,7,10.3,7,10.3c0,0.1,0,0.1-0.1,0.1
			c0,0,0,0-0.1,0.1c0,0-0.1,0.2-0.2,0.4c-0.1,0.3-0.3,0.6-0.5,0.9C6,12,5.8,12.3,5.8,12.6c-0.3,0.2-0.6,0.5-1,0.9
			c-0.4,0.4-0.8,0.6-1.2,0.8c-0.2-0.1-0.5-0.2-0.9-0.4c-0.4-0.2-0.8-0.4-1.1-0.6C1.2,13,1,12.8,0.8,12.5S0.6,12,0.8,11.8
			c0.4-0.4,0.7-0.8,1-1.4c0.3-0.5,0.5-1.1,0.7-1.7c0.2-0.6,0.4-1.2,0.5-1.9c0.2-0.7,0.3-1.3,0.4-1.9C3.5,5,3.6,5,3.7,5
			C3.8,5,3.9,4.9,4,4.9C4,4.8,4.1,4.7,4.2,4.6s0.1-0.2,0.2-0.2C4.5,4.5,4.7,4.6,5,4.7C5.2,4.9,5.6,5,5.9,5.1
			c0.3,0.1,0.6,0.2,0.9,0.3c0.3,0.1,0.5,0.2,0.6,0.2c0.2,0.4,0.4,0.7,0.4,1c0,0.3,0.1,0.6,0.2,1C7.8,7.8,7.7,7.9,7.7,8.2
			c0,0.2,0,0.4-0.1,0.5c0,0.2-0.1,0.3-0.1,0.3c0,0-0.1,0.1-0.1,0.3c0,0,0,0.1,0,0.2C7.5,9.5,7.5,9.5,7.4,9.6z"/>
	</defs>
	<clipPath id="SVGID_3_">
		<use xlink:href="#SVGID_142_"  overflow="visible"/>
	</clipPath>
	
		<path clip-path="url(#SVGID_3_)" fill="none" stroke="#000000" stroke-width="6" stroke-linecap="round" stroke-linejoin="round" stroke-miterlimit="10" d="
		M5.5,6.5c0,1.4-2.5,5.6-2.5,5.6"/>
</g>
</svg>
