<?xml version="1.0" encoding="utf-8"?>
<!-- Generator: Adobe Illustrator 19.2.0, SVG Export Plug-In . SVG Version: 6.00 Build 0)  -->
<svg version="1.1" id="Layer_1" xmlns="http://www.w3.org/2000/svg" xmlns:xlink="http://www.w3.org/1999/xlink" x="0px" y="0px"
	 viewBox="0 0 15.3 36.5" enable-background="new 0 0 15.3 36.5" xml:space="preserve">
<g>
	<defs>
		<path id="SVGID_14_" d="M14.8,23.2c0-0.1,0-0.2-0.1-0.3c0-0.1-0.1-0.2-0.2-0.3c-0.2,0-0.3,0-0.5-0.1s-0.2-0.2-0.3-0.3
			c-0.1-0.1-0.2-0.3-0.3-0.4c-0.1-0.2-0.3-0.3-0.4-0.3c-0.5,0.2-1,0.3-1.5,0.3c-0.6,0.1-1,0.2-1.4,0.4c-0.6,0-1.2,0-1.6,0
			s-0.8,0.1-1.2,0.2c-0.4,0.1-0.8,0.1-1.3,0.1c-0.5,0-1,0-1.7-0.1c0.2-0.5,0.4-1.1,0.7-1.5c0.3-0.5,0.6-0.9,0.9-1.4l0,0
			c0.2-0.6,0.6-1.1,0.8-1.8c0.3-0.9,0.2-1.7,0.3-2.6c0-0.1-0.1-0.2-0.1-0.4c0-0.2,0-0.4-0.1-0.6l0,0c-0.7-1.3-3.4-0.4-3.9,1.1l0,0
			c-0.1,0.4-0.3,0.7-0.4,1C2.2,16.6,2,17,1.9,17.3c-0.2,0.3-0.3,0.6-0.4,0.9c-0.1,0.3-0.3,0.7-0.4,1c-0.1,0-0.2,0-0.2,0.1
			c0,0.1-0.1,0.1-0.2,0.2c0.1,0.3,0,0.5-0.2,0.8c-0.2,0.2-0.3,0.5-0.4,0.8C0,21.4,0,21.7,0,22c0,0.3,0.1,0.7,0.1,1
			c0.1,0.4,0.1,0.7,0.2,1c0.1,0.3,0.1,0.6,0.1,0.9c0.2,0.1,0.4,0.2,0.4,0.4c0,0.2,0.2,0.4,0.3,0.5c0.4,0.4,0.9,0.6,1.5,0.8
			s1.2,0.2,1.9,0.3c0.7,0,1.3,0,2-0.1c0.6-0.1,1.2-0.2,1.7-0.3c0.2,0,0.3,0,0.4,0.1c0.1,0,0.3,0.1,0.5,0c0.7-0.1,1.4-0.3,2-0.4
			s1.2-0.2,1.7-0.4c0.5-0.2,1-0.4,1.3-0.8c0.4-0.4,0.7-0.9,1-1.5c-0.1,0-0.2,0-0.3-0.1C14.8,23.4,14.8,23.3,14.8,23.2z"/>
	</defs>
	<clipPath id="SVGID_3_">
		<use xlink:href="#SVGID_14_"  overflow="visible"/>
	</clipPath>
	
		<path clip-path="url(#SVGID_3_)" fill="none" stroke="#000000" stroke-width="6" stroke-linecap="round" stroke-linejoin="round" stroke-miterlimit="10" d="
		M4.5,12.5c0.9,2-2.8,10-2.4,11.1s7.7,2,11.2,0.4"/>
</g>
<g>
	<defs>
		<path id="SVGID_180_" d="M16.5,10.3c0-0.1,0-0.1,0-0.2c0-0.1,0-0.1,0-0.2c0-0.1,0-0.2,0-0.3c-0.4-0.2-0.7-0.4-1-0.6
			c-0.3-0.2-0.6-0.5-0.8-0.9c0,0.2,0,0.2-0.1,0.2c-0.1-0.1-0.2,0-0.3,0.2c-0.2,0-0.3-0.1-0.5-0.3c-0.8,0.2-1.6,0.3-2.3,0.4
			c-0.7,0.1-1.3,0.2-1.9,0.3C9,8.9,8.4,9,7.7,9.1S6.4,9.5,5.6,9.7C5.1,9.8,4.7,9.9,4.3,10c-0.4,0.1-0.8,0.2-1.1,0.3
			c-0.3,0.1-0.7,0.3-1,0.5C2,11,1.7,11.2,1.5,11.5c0.1,0.3,0.2,0.7,0.2,1c0,0.3,0.1,0.7,0.2,1c0.1,0.3,0.2,0.6,0.3,0.9
			c0.1,0.3,0.3,0.6,0.6,0.9c0,0,0,0,0,0c1.3,0.1,2.8-0.4,3.9-1.1l0,0c0.2-0.1,0.4-0.1,0.5-0.2c0.2-0.1,0.3-0.1,0.5-0.3
			c0.4,0,0.7,0,0.9-0.1c0.2-0.1,0.4-0.1,0.7,0c0.7-0.4,1.3-0.7,2-0.8c0.7-0.1,1.3-0.2,2-0.3c0.6-0.1,1.2-0.3,1.8-0.5
			c0.6-0.3,1-0.7,1.5-1.4C16.5,10.5,16.5,10.3,16.5,10.3z"/>
	</defs>
	<clipPath id="SVGID_5_">
		<use xlink:href="#SVGID_180_"  overflow="visible"/>
	</clipPath>
	
		<path clip-path="url(#SVGID_5_)" fill="none" stroke="#000000" stroke-width="6" stroke-linecap="round" stroke-linejoin="round" stroke-miterlimit="10" d="
		M4,12.8c0.4-0.3,10.2-1.8,10.8-2.4"/>
</g>
<g>
	<defs>
		<path id="SVGID_182_" d="M8.1,19.6c0.3,0,0.5,0,0.7-0.1c0.1,0.1,0.1,0.1,0.2,0.1h0.2c0.5,0,0.9,0,1.3-0.1c0.4-0.1,0.8-0.3,1.1-0.4
			c0.4-0.2,0.7-0.4,1-0.6c0.3-0.2,0.6-0.5,1-0.7c0.1-0.2,0.1-0.4,0.1-0.6c0-0.2-0.1-0.4-0.2-0.5c-0.2,0-0.4,0-0.5-0.1
			c-0.2-0.1-0.3-0.2-0.4-0.3c-0.1-0.1-0.3-0.3-0.4-0.4s-0.3-0.3-0.4-0.4c0-0.1,0-0.1,0-0.2c0,0,0.1-0.1,0-0.2
			c-0.8,0-1.7,0.1-2.5,0.2c-0.9,0.1-1.6,0.1-2.3,0c0,0,0,0,0,0c-0.6,0-1.3,0-1.7,0.5c-0.3,0.4-0.5,0.8-0.5,1.3
			c-0.1,1.1,0.3,2,1.1,2.5l0,0c0.2,0.1,0.5,0.1,0.8,0.1c0.3,0,0.6,0,0.8,0.1C7.5,19.6,7.8,19.6,8.1,19.6z"/>
	</defs>
	<clipPath id="SVGID_7_">
		<use xlink:href="#SVGID_182_"  overflow="visible"/>
	</clipPath>
	
		<path clip-path="url(#SVGID_7_)" fill="none" stroke="#000000" stroke-width="6" stroke-linecap="round" stroke-linejoin="round" stroke-miterlimit="10" d="
		M4,17.3c0.7,0.2,6.3,0.8,7,0"/>
</g>
</svg>
