<?xml version="1.0" encoding="utf-8"?>
<!-- Generator: Adobe Illustrator 19.2.0, SVG Export Plug-In . SVG Version: 6.00 Build 0)  -->
<svg version="1.1" id="Layer_1" xmlns="http://www.w3.org/2000/svg" xmlns:xlink="http://www.w3.org/1999/xlink" x="0px" y="0px"
	 viewBox="0 0 17.2 36.5" enable-background="new 0 0 17.2 36.5" xml:space="preserve">
<g>
	<defs>
		<path id="SVGID_104_" d="M15,17.7c0.3,0,0.5,0.1,0.6,0.2c0.1,0.1,0.2,0.2,0.3,0.4c0,0.2,0.1,0.3,0,0.5c0,0.2,0,0.4,0,0.5
			c-0.5,0.3-1.2,0.6-2.1,0.7c-0.9,0.1-1.8,0.2-2.8,0.3s-1.9,0.1-2.8,0.1c-0.9,0-1.6,0-2.1,0.1c-1.1,0.1-1.9,0.2-2.5,0.3
			c-0.6,0.1-1,0.2-1.2,0.3c-0.4,0-0.7-0.1-0.9-0.2c-0.2-0.1-0.4-0.3-0.5-0.4c-0.1-0.2-0.3-0.4-0.4-0.6c-0.1-0.2-0.2-0.5-0.4-0.7
			c0.1-0.2,0.1-0.4,0.1-0.7c0-0.3-0.2-0.5-0.4-0.7c0.2,0,0.3-0.1,0.4-0.3s0.1-0.4,0-0.5c0.3-0.1,0.7-0.1,1-0.2
			c0.4,0,0.7-0.1,1.1-0.1c0.4,0,0.7-0.1,1-0.1c0.3,0,0.6-0.1,0.9-0.3c1,0,2,0,3.1-0.1c1.1,0,2.1-0.1,3-0.1c0.3,0.1,0.7,0.2,1.2,0.2
			c0.5,0,0.9,0,1.4,0.1c0.4,0.1,0.8,0.2,1.2,0.3C14.6,16.9,14.8,17.2,15,17.7z"/>
	</defs>
	<clipPath id="SVGID_3_">
		<use xlink:href="#SVGID_104_"  overflow="visible"/>
	</clipPath>
	
		<path clip-path="url(#SVGID_3_)" fill="none" stroke="#000000" stroke-width="6" stroke-linecap="round" stroke-linejoin="round" stroke-miterlimit="10" d="
		M1.9,19c2-1.6,12,0,12,0"/>
</g>
</svg>
