<?xml version="1.0" encoding="utf-8"?>
<!-- Generator: Adobe Illustrator 19.2.0, SVG Export Plug-In . SVG Version: 6.00 Build 0)  -->
<svg version="1.1" id="Layer_1" xmlns="http://www.w3.org/2000/svg" xmlns:xlink="http://www.w3.org/1999/xlink" x="0px" y="0px"
	 viewBox="0 0 17.2 36.5" enable-background="new 0 0 17.2 36.5" xml:space="preserve">
<g>
	<defs>
		<path id="SVGID_66_" d="M16.5,10c0,0.4,0.1,0.8,0.2,1.1c0.1,0.3,0.2,0.6,0.3,0.9c0.1,0.3,0.2,0.6,0.3,0.8s0.2,0.6,0.2,1
			c-0.2,0.5-0.3,1-0.3,1.4c-0.1,0.4-0.1,0.9-0.2,1.4c-0.3,0.7-0.6,1.3-0.9,1.9c-0.3,0.5-0.5,1-0.7,1.4c-0.1,0.1-0.2,0.2-0.3,0.3
			c-0.1,0.1-0.1,0.3-0.2,0.4c0,0.1-0.1,0.2-0.2,0.3s-0.1,0.2-0.2,0.2l-0.6-0.2l-0.1,0.8L13.3,22L13,22.3c-0.4,0.7-0.8,1.2-1.2,1.7
			c-0.4,0.5-0.9,0.9-1.4,1.2c-0.5,0.4-1.1,0.7-1.8,1c-0.7,0.3-1.4,0.6-2.3,1c-0.3,0-0.6-0.1-0.9-0.1s-0.5,0-0.7,0
			c-0.4,0-0.9,0-1.4-0.1c-0.1-0.2-0.2-0.3-0.3-0.3c-0.1-0.1-0.2-0.1-0.3-0.1c-0.3-0.2-0.6-0.4-0.8-0.7c-0.2-0.3-0.3-0.6-0.5-1
			c-0.1-0.2-0.2-0.4-0.3-0.6C1,24,0.9,23.8,0.8,23.6l0.5-0.2l-0.7-0.7c0-0.1-0.1-0.1-0.2-0.2c-0.1,0-0.1-0.1-0.2-0.2l0-0.5
			c-0.1-1.4-0.1-2.7-0.1-3.8c0-1.2,0.2-2.2,0.5-3.1v-0.3c0.1-0.4,0.1-0.8,0.2-1.1C1,13.3,1,13,1,12.8c0.1-0.4,0.2-0.9,0.3-1.2
			c0.3-0.1,0.5-0.2,0.6-0.3s0.3-0.3,0.4-0.5c0.3,0,0.5,0,0.6,0.1c0.1,0.1,0.2,0.3,0.3,0.5c0.1,0.2,0.2,0.4,0.4,0.6
			c0.2,0.2,0.4,0.4,0.7,0.5c0,0.2,0.1,0.3,0.2,0.5c0.1,0.2,0.1,0.4,0.2,0.6c0.2,0.3,0.3,0.7,0.4,1.1c0.1,0.4,0.2,0.7,0.2,1.1
			C5.1,16,4.9,16.5,4.8,17c-0.1,0.5-0.2,1-0.2,1.5c0,0.5,0,1,0,1.5c0,0.5,0.1,0.9,0.3,1.2l0.2,0.4l0.5-0.1c0.6-0.2,1.2-0.3,1.6-0.5
			c0.5-0.2,1-0.4,1.4-0.7C9,20,9.4,19.7,9.8,19.4c0.4-0.4,0.8-0.8,1.2-1.2s0.8-1,1.1-1.6c0.3-0.6,0.6-1.2,0.8-1.9
			c0.2-0.6,0.4-1.3,0.5-1.9s0.2-1.2,0.2-1.8c0.3-0.1,0.5-0.4,0.5-0.7l-0.1-0.3c-0.1-0.1-0.1-0.3,0-0.4c0.1-0.4,0.4-0.7,0.8-0.9
			c0.3,0.2,0.6,0.4,0.9,0.7C16,9.6,16.3,9.8,16.5,10z"/>
	</defs>
	<clipPath id="SVGID_3_">
		<use xlink:href="#SVGID_66_"  overflow="visible"/>
	</clipPath>
	
		<path clip-path="url(#SVGID_3_)" fill="none" stroke="#000000" stroke-width="6" stroke-linecap="round" stroke-linejoin="round" stroke-miterlimit="10" d="
		M4.3,12.3c-0.9,0.3-0.8,1.5-0.8,1.5c-0.7,2-2.3,10.1,1.6,10.7c3.6,0.6,10.7-7.9,10.2-12.2c0,0,0.4-1.2-0.4-2.3"/>
</g>
</svg>
