<?xml version="1.0" encoding="utf-8"?>
<!-- Generator: Adobe Illustrator 19.2.0, SVG Export Plug-In . SVG Version: 6.00 Build 0)  -->
<svg version="1.1" id="Layer_1" xmlns="http://www.w3.org/2000/svg" xmlns:xlink="http://www.w3.org/1999/xlink" x="0px" y="0px"
	 viewBox="0 0 13.5 36.5" enable-background="new 0 0 13.5 36.5" xml:space="preserve">
<g>
	<defs>
		<path id="SVGID_187_" d="M6.1,9.8c0.1,0,0.2-0.2,0.2,0.1c0,0.4-0.1,0.7-0.1,1.1c0,0.1-0.1,0.4-0.1,0.5c0,0.1,0,0.2-0.1,0.2
			c0,0,0,0,0,0l0.2,0.1c0,0-0.1,0-0.2,0c-0.1,0,0-0.1-0.3,0L5.4,12L5,12.2l-0.5,0.2l-1.9,0.7c-1.3,0.4-2.2,1.1-2.4,1.7
			c0.1,0,0.2,0,0.1,0.1c-0.1,0.3-0.2,0.5-0.4,1c0.1,0.3,0.1,0.7,0.2,1c0,0.1,0.1,0.2,0.2,0.4c0.1,0.1,0.2,0.1,0.3,0.1
			c0.3,0.4,0.6,0.7,1,1.1c0.7,0.5,1.5,1,2.3,1.5c0.8,0.5,1.2,0.8,1.4,0.9c0.1,0,0.3,0.1,0.4,0.2c0.1,0.1,0.1,0.3,0.1,0.5
			c0,0,0,0.1,0,0.1c0,0.1,0,0.1-0.1,0.2l-0.3,0.7C5.2,23,5,23.5,4.8,24c-0.4,1-0.8,2.1-1,3.4c0,0.6,0,1.2,0.2,1.8
			c0.2,0.6,0.6,1.1,1,1.4c1.3,1.1,3,1.5,4.3,1.8c-0.1-0.5,3-0.7,2.4-1.3c0.8,0,2.1,0,2.1-0.2c0.1-0.3,0.3-0.5,0.7-0.8
			c0.4-0.3,1.1-0.6,1.8-0.9c0.3-0.1,0.5-0.4,0.5-0.5c-0.1-0.1-0.2-0.2-0.1-0.2c0,0-0.1,0-0.1,0.1c-0.2,0.1-0.4,0.1-0.7,0.2
			c-0.6,0.1-1.3,0.2-2,0.3C13.1,29,12.4,29,11.7,29l-1.1,0l-0.5,0l-0.4-0.1C9,28.8,8.4,28.7,8,28.5c-0.2-0.1-0.4-0.2-0.4-0.2
			c0,0,0,0,0,0c0,0,0,0,0,0c0-0.1,0-0.3,0.1-0.5c0.1-0.5,0.4-1.1,0.7-1.8c0.1-0.3,0.3-0.8,0.6-1.5C9,24.2,9.1,24,9.2,23.8
			c0.1-0.3,0.2-0.6,0.4-0.9c0.3-0.8,0.7-1.7,0.5-2.6c-0.2-1.8-3.2-3.7-2.9-3.5c-0.1-0.1-0.3-0.2-0.4-0.3c0.1-0.1,0.3-0.2,0.5-0.2
			c0.2-0.1,1.3-0.6,2.2-1.3c0.8-0.7,1.3-1.7,1.3-2.6c0-0.2,0-0.5,0-0.7c0-0.2,0-0.3,0-0.4c0-0.2,0-0.4,0.1-0.6l0-0.3
			c0.1-0.9,0.3-1.9,0.5-2.8c0.2-0.9,0.6-1.6,0.9-2.2c0.2-0.6,0.6-1,1-1.5C13,3.9,12.7,4,12.4,4.1c0.3-0.2,0.5-0.4,0.8-0.5
			c0.2-0.1,0.4-0.3,0.5-0.4c1.3-0.7,0.5-0.7-0.3-0.9c-0.5,0,0-0.5-0.8-0.3c0.5-0.3,0.8-0.3,1.4-0.5c0-0.1-0.4,0.1-0.8,0.2
			c-0.4,0.2-0.7,0.3-0.6,0.1c0.3-0.1,0.5-0.2,0.8-0.3c0.3-0.1,0.6-0.2,0.9-0.3c-0.1-0.1-0.6,0-1.1,0.1c-0.5,0.1-0.9,0.4-0.9,0.2
			c0.3-0.3,1.7-0.4,1.8-0.6c0-0.1-0.6,0.1-0.9,0.2c0.9-0.4,1.6-0.5,1.9-0.7c0.3-0.1,0.1-0.3-0.8-0.3c0.7-0.1,1.5,0,2.2-0.1l0,0
			c-0.3,0-0.9,0-1.2,0l1.1,0C16.4,0,16.3,0,16.3,0c-0.3,0-0.6,0-0.9,0l0.8,0c-0.2-0.1-0.4-0.2-0.7-0.2c-0.9-0.1-2-0.2-2.5,0
			C11.9,0,10.8,0.6,9.9,1.4C9,2.1,8.3,3.1,7.8,4C6.7,5.9,6.3,7.9,6.1,9.8z"/>
	</defs>
	<clipPath id="SVGID_3_">
		<use xlink:href="#SVGID_187_"  overflow="visible"/>
	</clipPath>
	
		<path clip-path="url(#SVGID_3_)" fill="none" stroke="#000000" stroke-width="6" stroke-linecap="round" stroke-linejoin="round" stroke-miterlimit="10" d="
		M15.5,1.9C8.8,2,8.4,6.5,8.6,11c0.2,4.5-8.3,4.8-8.6,4.8c-0.3,0,8.3,1.9,7.3,5.4s-6,7.9,3,8.4c0,0,2.1,0.9,4.5,0.7"/>
</g>
</svg>
