<?xml version="1.0" encoding="utf-8"?>
<!-- Generator: Adobe Illustrator 19.2.0, SVG Export Plug-In . SVG Version: 6.00 Build 0)  -->
<svg version="1.1" id="Layer_1" xmlns="http://www.w3.org/2000/svg" xmlns:xlink="http://www.w3.org/1999/xlink" x="0px" y="0px"
	 viewBox="0 0 17.6 36.5" enable-background="new 0 0 17.6 36.5" xml:space="preserve">
<g>
	<defs>
		<path id="SVGID_1_" d="M6.3,23.5c0.2-0.6,0.5-1.3,0.7-2s0.5-1.3,0.7-1.9c0,0,1.2-4.2,0.4-5c-0.2-0.4-0.5-0.7-0.8-0.9
			c-0.4-0.2-0.7-0.5-1-0.8c-0.3-0.2-1.8-0.3-1.7,0.5c0.1,0.3,0.1,0.6,0,0.9c-0.1,0.3-0.1,0.5-0.2,0.7c-0.1,0.2-0.2,0.5-0.3,0.7
			C4,16,4,16.3,4,16.6c-0.2,0.5-0.3,0.9-0.4,1.2c-0.1,0.3-0.1,0.6-0.2,0.9c-0.1,0.3-0.1,0.6-0.2,0.9S3,20.3,2.8,20.9
			c-0.2,0.1-0.3,0.3-0.3,0.5c-0.1,0.2-0.1,0.4-0.2,0.5c0,0.2-0.1,0.4-0.2,0.5c-0.1,0.2-0.2,0.3-0.3,0.4C1.9,23,2,23.1,2,23.2
			c0,0.1,0.1,0.2,0.1,0.4c-0.2,0-0.3,0.2-0.4,0.5c0,0.3-0.1,0.5-0.1,0.7C1.7,25,1.8,25.2,2,25.4c0.2,0.2,0.2,0.4,0.1,0.5
			c0.2,0,0.3,0.1,0.4,0.3c0.1,0.2,0.1,0.3,0.1,0.4c0.2,0,0.3,0.1,0.4,0.2C3,26.9,3.1,26.9,3.1,27c0.1,0.1,0.1,0.1,0.2,0.2
			c0.1,0.1,0.2,0.2,0.3,0.2c0.1-0.1,0.2-0.1,0.3-0.1c0.1,0,0.3,0,0.5,0.1c0.2-0.1,0.3-0.2,0.4-0.3c0.1-0.2,0.2-0.3,0.3-0.5L6.3,23.5
			z"/>
	</defs>
	<clipPath id="SVGID_3_">
		<use xlink:href="#SVGID_1_"  overflow="visible"/>
	</clipPath>
	
		<path clip-path="url(#SVGID_3_)" fill="none" stroke="#000000" stroke-width="6" stroke-linecap="round" stroke-linejoin="round" stroke-miterlimit="10" d="
		M6.3,14.9c0.1,1.2-2.5,9.5-3.1,10.6"/>
</g>
<g>
	<defs>
		<path id="SVGID_8_" d="M17.1,21.8c0.1-0.1,0.1-0.2,0.1-0.4c0-0.2-0.1-0.3-0.1-0.5c-0.1-0.2-0.2-0.4-0.3-0.6
			c-0.1-0.2-0.2-0.4-0.2-0.6c-0.1,0-0.1-0.1-0.2-0.1c-0.1,0-0.1-0.1-0.2-0.1c-0.2-0.3-0.4-0.6-0.6-0.8s-0.5-0.4-0.8-0.6
			s-0.5-0.4-0.8-0.6c-0.3-0.2-0.5-0.4-0.7-0.7c0.3-0.4,0.6-0.7,1-1.1c0.4-0.3,0.7-0.7,1-1.1c0.3-0.4,0.6-0.8,0.8-1.3
			c0.2-0.5,0.3-1,0.3-1.6c0-0.1-0.1-0.1-0.2-0.1c-0.1,0-0.1-0.1-0.1-0.2c0-0.3-0.1-0.5-0.2-0.7c-0.1-0.2-0.3-0.4-0.5-0.6
			C15.4,10,15.2,9.9,15,9.7c-0.2-0.2-0.4-0.3-0.5-0.5c-0.1,0-0.3,0-0.4-0.2c-0.1-0.1-0.3-0.2-0.4-0.3s-0.3-0.2-0.5-0.3
			c-0.2-0.1-0.4-0.1-0.6,0.1c-0.2-0.2-0.4-0.3-0.6-0.3c-0.2,0-0.3-0.1-0.4-0.2c-0.1,0.1-0.3,0.1-0.4,0.1c-0.2,0-0.3,0-0.5,0
			c-0.2,0-0.4,0-0.5,0c-0.2,0-0.3,0-0.4,0.1C8.7,8.2,7.8,8.2,7,8.4S5.5,8.7,4.7,8.9C4.2,9,3.7,9.1,3.2,9.3c-0.5,0.1-1,0.3-1.5,0.5
			c-0.5,0.2-0.9,0.5-1.2,0.8c-0.4,0.3-0.6,0.7-0.8,1.2c0.3,0.7,0.7,1.3,1.1,1.8c0.5,0.5,1,0.9,1.7,1.2c0.2-0.1,0.4-0.1,0.6-0.1
			c0.2,0,0.4-0.1,0.6-0.2c0-0.3,0.1-0.5,0.2-0.7c0.1-0.2,0.3-0.3,0.6-0.3L6.2,13c0.7-0.4,1.5-0.7,2.5-0.9c1-0.2,2-0.3,3.1-0.3
			c-0.5,0.6-1.1,1.2-1.7,1.6c-0.6,0.5-1.3,0.9-2.1,1.2l0,0c-1.2,0.6-2.5,1.2-2.6,2.7c0,1.4,0.9,2.2,2.1,2.3l0,0
			c0.4-0.1,0.9-0.2,1.3-0.3s0.9-0.2,1.4-0.3c0.5-0.1,1-0.1,1.5,0c0.5,0.1,1.1,0.3,1.8,0.6c0,0.2,0,0.4-0.2,0.6
			c-0.1,0.1-0.3,0.3-0.4,0.4c-0.2,0.1-0.3,0.2-0.5,0.3c-0.2,0.1-0.3,0.3-0.3,0.5c-0.5,0.2-1,0.4-1.4,0.6c-0.5,0.2-0.9,0.4-1.4,0.6
			c-0.5,0.2-1,0.4-1.5,0.6c-0.5,0.2-1.1,0.3-1.7,0.4c0,0,0,0,0,0c-0.9,0-1.8,0.2-1.9,1.3c-0.1,0.8,0.3,1.4,0.8,1.8l0,0
			c0.2,0.1,0.4,0.3,0.6,0.4s0.5,0.3,0.7,0.4c0.2,0.1,0.4,0.1,0.6,0.1c0.2,0,0.3-0.1,0.3-0.3c0.1,0,0.1,0.1,0.1,0.2
			c0,0.1,0.1,0.1,0.1,0.2c0.4-0.1,0.8-0.2,1.3-0.3c0.5-0.1,0.8-0.2,0.9-0.5c1-0.2,2-0.5,3-0.9c1-0.4,1.9-0.9,2.8-1.4
			c0.2-0.2,0.4-0.3,0.5-0.4c0.1-0.1,0.1-0.1,0.2-0.2c0.1-0.1,0.2-0.2,0.3-0.4c0.1-0.2,0.4-0.5,0.8-1c0-0.1,0-0.2,0-0.3
			C17.3,22,17.3,21.9,17.1,21.8z"/>
	</defs>
	<clipPath id="SVGID_5_">
		<use xlink:href="#SVGID_8_"  overflow="visible"/>
	</clipPath>
	
		<path clip-path="url(#SVGID_5_)" fill="none" stroke="#000000" stroke-width="6" stroke-linecap="round" stroke-linejoin="round" stroke-miterlimit="10" d="
		M2.1,12.5c1.1-1.2,9.8-3.4,11.4-1.2s-5.7,5.9-5.7,6.2c0,0.3,9.3,1.4,7.3,4.3s-8.7,3.7-9.2,3.7"/>
</g>
</svg>
