<?xml version="1.0" encoding="utf-8"?>
<!-- Generator: Adobe Illustrator 19.2.0, SVG Export Plug-In . SVG Version: 6.00 Build 0)  -->
<svg version="1.1" id="Layer_1" xmlns="http://www.w3.org/2000/svg" xmlns:xlink="http://www.w3.org/1999/xlink" x="0px" y="0px"
	 viewBox="0 0 15.6 36.5" enable-background="new 0 0 15.6 36.5" xml:space="preserve">
<g>
	<defs>
		<path id="SVGID_16_" d="M5.2,22.2c0.3-0.7,0.7-1.5,1-2.2c0.3-0.7,0.8-1.5,0.8-2.3c0-0.1,0-0.2,0-0.2c0-0.2,0-0.3,0-0.4
			c0-0.1,0.1-0.3,0.3-0.5c0-0.6,0.2-1.1,0.5-1.5c0-0.1,0-0.2,0-0.3c0-0.1,0-0.2,0-0.2c0-0.1,0-0.2,0.1-0.4c0-0.1,0.1-0.3,0.2-0.5
			l0,0c0.3-1-0.5-1.5-1.3-1.4c-0.5,0-1.1,0.2-1.6,0.4c-0.5,0.3-1,0.7-1.4,1.2c-0.3,0.5-0.3,1-0.4,1.5l0,0c-0.1,0.2-0.1,0.5-0.1,0.7
			c-0.1,0.2-0.2,0.4-0.3,0.5c-0.1,0.2-0.1,0.4-0.2,0.5c0,0.2-0.1,0.3-0.1,0.4c0,0.1-0.1,0.2-0.2,0.2c0,0.1-0.1,0.2-0.1,0.3
			c0,0,0,0-0.1,0.1c-0.2,0.7-0.5,1.3-0.7,2c-0.2,0.6-0.4,1.3-0.7,1.8l0,0c0,0.1-0.1,0.2-0.1,0.4c0,0.1-0.1,0.3-0.1,0.4
			c-0.1,0.4-0.2,0.8-0.3,1.2c-0.1,0.4-0.1,0.9,0.1,1.5c0.2,0.3,0.3,0.6,0.5,0.8c0.1,0.1,0.2,0.2,0.2,0.3c0.1,0.1,0.1,0.2,0.2,0.3
			l0.3,0.2c0.1,0,0.3,0.1,0.5,0.2c0.1,0.1,0.3,0.1,0.4,0.2c0.1,0,0.3,0,0.6,0c0.6-0.3,0.9-0.7,1-1.4c0.1-0.4,0-0.7-0.1-1
			c0-0.1,0-0.1,0-0.2c0,0,0-0.1,0.1-0.2c0-0.1,0.1-0.2,0.1-0.3c0-0.1,0.1-0.3,0.3-0.5v-0.5c0.1-0.2,0.3-0.4,0.3-0.7
			c0-0.1,0.1-0.2,0.1-0.3S5.1,22.3,5.2,22.2L5.2,22.2z"/>
	</defs>
	<clipPath id="SVGID_3_">
		<use xlink:href="#SVGID_16_"  overflow="visible"/>
	</clipPath>
	
		<path clip-path="url(#SVGID_3_)" fill="none" stroke="#000000" stroke-width="6" stroke-linecap="round" stroke-linejoin="round" stroke-miterlimit="10" d="
		M6.2,11.6c0.4,1.1-4.1,11-3.9,12.8s0.4,1.2,0.4,1.2"/>
</g>
<g>
	<defs>
		<path id="SVGID_18_" d="M13.8,18.6c-0.1-0.1-0.1-0.2-0.2-0.2l-0.2-0.3c-0.1,0-0.1-0.1-0.2-0.1c-0.1,0-0.1-0.1-0.3-0.1l-0.2-0.4
			l0.2-0.2h-1c-0.5,0-1,0-1.5,0.1c-0.5,0.1-1,0.1-1.4,0.2c-0.3,0.1-0.7,0.1-1,0.2c-0.3,0-0.7,0-1.1-0.1C5.6,18,4.3,18,2.8,18l-0.2,0
			c-0.2-0.1-0.4-0.2-0.5-0.4l-0.4-0.2c-0.2,0.1-0.4,0.1-0.7,0.2c-0.2,0.1-0.5,0.2-0.7,0.3c-0.2,0.1-0.4,0.3-0.6,0.6
			c-0.2,0.2-0.3,0.5-0.3,0.9c0,0.5,0.2,1,0.5,1.5c0.3,0.5,0.7,0.9,1.2,1.2l0,0c1.4,0.2,2.8,0.3,4.3,0.1l0,0c0.1,0,0.3-0.1,0.5-0.1
			C5.9,22,6,22,6.2,22h0.4c0.3-0.1,0.6-0.2,1-0.3c0.3-0.1,0.7-0.1,1.1-0.2c0.3,0,0.6-0.1,0.8-0.1c0.3,0,0.6-0.1,1-0.2
			c0.2,0,0.3,0,0.5,0s0.3-0.1,0.4-0.1c0.3-0.1,0.6-0.1,0.9-0.1l0.4-0.1l1.2-1.7C13.9,18.9,13.8,18.7,13.8,18.6z"/>
	</defs>
	<clipPath id="SVGID_5_">
		<use xlink:href="#SVGID_18_"  overflow="visible"/>
	</clipPath>
	
		<path clip-path="url(#SVGID_5_)" fill="none" stroke="#000000" stroke-width="6" stroke-linecap="round" stroke-linejoin="round" stroke-miterlimit="10" d="
		M1.7,19.7C2.6,20.2,12.4,19,12.2,19"/>
</g>
<g>
	<defs>
		<path id="SVGID_20_" d="M17.8,10.2c0,0-0.1-0.1-0.2-0.1c-0.1-0.1-0.1-0.1-0.2-0.2c-0.1-0.1-0.3-0.2-0.4-0.4
			c-0.1-0.1-0.3-0.2-0.5-0.3c-0.2-0.5-0.8-0.8-1.7-0.8c-0.1,0-0.2,0-0.3,0c-0.1,0-0.2,0-0.3,0l-0.5,0c-1,0.1-2,0.2-2.8,0.4
			s-1.5,0.3-2,0.5C8.6,9.3,8.3,9.4,8.1,9.5c0,0.1-0.1,0.1-0.2,0.1c-0.1,0-0.2,0-0.3,0c-0.1,0-0.3,0-0.5,0.1c-0.2,0-0.3,0.1-0.5,0.2
			c-0.4,0.1-0.8,0.2-1.2,0.3c-0.4,0.1-0.8,0.3-1.2,0.4c-0.4,0.1-0.8,0.3-1.2,0.4s-0.8,0.2-1.2,0.3l-0.3,0.3c0,0-0.1,0.1-0.2,0.4
			l-0.1,0.3c0,0.1,0,0.2,0,0.5c0.1,0.1,0.1,0.2,0.1,0.3c0,0.1,0,0.1-0.1,0.2l-0.2,0.3l0.3,0.2c0.2,0.2,0.3,0.4,0.5,0.6
			c0.1,0.1,0.2,0.2,0.3,0.4c0.1,0.1,0.3,0.3,0.5,0.5c0.2,0,0.3,0.1,0.3,0.1c0.2,0,0.3,0.1,0.4,0.2c1.6-0.4,3.1-1.3,4.7-1.7l0,0
			l0.5-0.3c0.5-0.2,1-0.4,1.7-0.5c0.6-0.2,1.3-0.3,2-0.4c0.7-0.1,1.4-0.2,2-0.3c0.7-0.1,1.2-0.1,1.7-0.1h0.3c0.1,0,0.3,0,0.5,0
			l0.3-0.2c0.3,0,0.5-0.2,0.7-0.5C18.2,11.1,18.1,10.7,17.8,10.2z"/>
	</defs>
	<clipPath id="SVGID_7_">
		<use xlink:href="#SVGID_20_"  overflow="visible"/>
	</clipPath>
	
		<path clip-path="url(#SVGID_7_)" fill="none" stroke="#000000" stroke-width="6" stroke-linecap="round" stroke-linejoin="round" stroke-miterlimit="10" d="
		M3,13.3c0.4-0.2,10.7-4,12.9-2.9"/>
</g>
</svg>
