<?xml version="1.0" encoding="utf-8"?>
<!-- Generator: Adobe Illustrator 19.2.0, SVG Export Plug-In . SVG Version: 6.00 Build 0)  -->
<svg version="1.1" id="Layer_1" xmlns="http://www.w3.org/2000/svg" xmlns:xlink="http://www.w3.org/1999/xlink" x="0px" y="0px"
	 viewBox="0 0 19.7 36.5" enable-background="new 0 0 19.7 36.5" xml:space="preserve">
<g>
	<defs>
		<path id="SVGID_52_" d="M18.6,16.6c-0.4-0.9-0.8-1.8-1.3-2.6c-0.5-0.8-1-1.6-1.6-2.3c-0.1-0.1-0.1-0.2,0-0.2
			c0.1,0,0.2-0.1,0.2-0.2c-0.5-0.6-1-1.2-1.6-1.7S13,8.8,12.3,8.4c-0.1,0-0.2,0.1-0.3,0.2c-0.1,0.1-0.2,0.1-0.4,0.1
			c-0.4-0.2-0.8-0.3-1.2-0.3c-0.3,0.1-0.6,0.2-0.8,0.4C9.4,9.1,9.3,9.4,9.3,9.7c0,0.3,0.1,0.6,0.3,1H9.1c-0.1,0.4-0.2,0.8-0.5,1.1
			C8.3,12,8,12.2,7.6,12.5c-0.4,0.2-0.7,0.5-1,0.7C6.2,13.4,6,13.7,5.8,14c-0.1,0-0.3,0-0.4,0.1c-0.2,0.1-0.3,0.2-0.4,0.3
			c-0.1,0.1-0.2,0.3-0.3,0.4c-0.1,0.2-0.1,0.3-0.1,0.4c-0.2,0-0.3,0-0.3,0c0,0.1-0.1,0.1-0.2,0c-0.4,0.4-0.9,0.8-1.3,1.3
			c-0.5,0.4-0.9,0.9-1.3,1.4c-0.4,0.5-0.7,1.1-1,1.7C0.2,20.2,0,20.9,0,21.6c0,0.2,0.1,0.3,0.2,0.5c0.1,0.1,0.1,0.3,0.2,0.5
			c-0.1,0.3-0.1,0.5-0.1,0.7c0,0.2,0,0.4,0.1,0.6c0,0.2,0.1,0.4,0.1,0.6c0,0.2,0,0.5,0,0.7c0.5,0.6,1,1.2,1.7,1.6
			c0.7,0.4,1.4,0.7,2.3,1c1.6-0.1,3-0.3,4.4-0.7c1.4-0.3,2.7-0.8,3.9-1.3l0,0c1.2-0.6,2.3-1.2,3.3-1.9l0,0c0.3-0.5,0.7-1,1.1-1.4
			c0.4-0.4,0.8-0.9,1.1-1.5c0.2-0.8,0.3-1.5,0.3-2.2C18.7,18,18.7,17.3,18.6,16.6z M14.5,18.9c-0.3,0.4-0.6,0.8-0.9,1.1l0,0
			c-0.8,0.9-1.9,1.3-3,1.7l0,0c-0.9,0.3-1.9,0.6-2.9,0.9c-1,0.2-2,0.5-3,0.8c-0.2,0-0.4-0.1-0.6-0.1c-0.2,0-0.4-0.1-0.6-0.2
			c0.4-1,0.8-1.8,1.4-2.7c0.6-0.8,1.3-1.5,2-2.1c0.8-0.8,1.6-1.5,2.5-2.1c0.9-0.6,1.8-1.3,2.7-1.9c0.2,0,0.3,0,0.3,0
			c0-0.1,0.1-0.1,0.3-0.1c0.3,0.1,0.5,0.3,0.8,0.5c0.2,0.3,0.5,0.5,0.7,0.8c0.2,0.3,0.4,0.6,0.5,1s0.3,0.6,0.4,0.9
			C14.9,18.1,14.7,18.5,14.5,18.9z"/>
	</defs>
	<clipPath id="SVGID_3_">
		<use xlink:href="#SVGID_52_"  overflow="visible"/>
	</clipPath>
	
		<path clip-path="url(#SVGID_3_)" fill="none" stroke="#000000" stroke-width="6" stroke-linecap="round" stroke-linejoin="round" stroke-miterlimit="10" d="
		M13.2,10.8C12.4,12.1-0.1,19.5,2.1,24s14.5-2.1,15.4-4.6s-4.6-8-5.7-8.6"/>
</g>
<g>
	<defs>
		<path id="SVGID_54_" d="M17.2,26.8c0-0.1,0.1-0.2,0.2-0.2c-0.2,0-0.3,0-0.3-0.1c0.1-0.1,0.1-0.2,0-0.4c0-0.2-0.1-0.3-0.2-0.5
			c-0.1-0.2-0.1-0.3-0.2-0.5c-0.1-0.2-0.1-0.3-0.1-0.4l-0.5-1l0,0c-0.3-0.6-0.7-1.1-1-1.7c-0.5-0.7-1.1-1.4-1.6-2l0,0
			c-0.3-0.3-0.5-0.7-0.8-1c-0.2-0.3-0.5-0.6-0.9-0.9c-0.3-0.1-0.7-0.1-1.1-0.1S10,18,9.7,17.9c-0.2,0-0.4,0.1-0.5,0.2
			C9.1,18.1,9,18.2,9,18.3c-0.1,0.1-0.1,0.3-0.2,0.4c0,0.1-0.1,0.3-0.2,0.4c0.2,0.4,0.5,0.9,0.8,1.3c0.3,0.5,0.7,0.9,1.1,1.4l0,0
			c0.4,0.8,0.9,1.5,1.4,2.3c0.3,0.5,0.7,1,0.9,1.6l0,0l0.9,2.2c0.3,0.3,0.5,0.5,0.7,0.6c0.2,0.2,0.5,0.3,0.8,0.5
			c0.3,0,0.6-0.1,0.8-0.2c0.3-0.2,0.5-0.3,0.7-0.5c0.2-0.2,0.3-0.4,0.5-0.7c0.1-0.2,0.2-0.4,0.2-0.6C17.3,26.9,17.2,26.9,17.2,26.8z
			"/>
	</defs>
	<clipPath id="SVGID_5_">
		<use xlink:href="#SVGID_54_"  overflow="visible"/>
	</clipPath>
	
		<path clip-path="url(#SVGID_5_)" fill="none" stroke="#000000" stroke-width="6" stroke-linecap="round" stroke-linejoin="round" stroke-miterlimit="10" d="
		M10.8,19.3c0.6,0.8,4.7,5.4,4.8,7.3"/>
</g>
</svg>
