<?xml version="1.0" encoding="utf-8"?>
<!-- Generator: Adobe Illustrator 19.2.0, SVG Export Plug-In . SVG Version: 6.00 Build 0)  -->
<svg version="1.1" id="Layer_1" xmlns="http://www.w3.org/2000/svg" xmlns:xlink="http://www.w3.org/1999/xlink" x="0px" y="0px"
	 viewBox="0 0 15.4 36.5" enable-background="new 0 0 15.4 36.5" xml:space="preserve">
<g>
	<defs>
		<path id="SVGID_62_" d="M19.3,10c-0.2-0.3-0.5-0.6-0.7-0.8c-0.1-0.1-0.2-0.2-0.3-0.3C18.1,8.8,18,8.7,18,8.6l-0.3-0.2
			c-0.2,0-0.5-0.1-0.7-0.1c-0.3,0-0.5,0-0.8,0c-0.6,0-1.3,0-2,0.1c-0.7,0.1-1.4,0.2-2.1,0.3c-0.5,0.1-0.9,0.1-1.4,0.2S9.8,8.9,9.4,9
			l0,0C8.7,9,8.3,9.1,7.7,9.2l0,0c-0.4,0-0.9,0.1-1.3,0.1C6,9.4,5.6,9.4,5.2,9.4C4.5,9.5,3.8,9.5,3.1,9.6c-0.7,0.1-1.3,0.1-2,0.1
			H0.3l-0.4,0l-0.1,0.5c0,0.1-0.1,0.1-0.2,0.2c-0.1,0.1-0.1,0.2-0.1,0.4c0,0.3,0,0.6,0.1,0.8c0.1,0.2,0.1,0.4,0.2,0.6
			c0,0.1,0.1,0.3,0.1,0.4c0,0.1,0.1,0.2,0.1,0.3l0.3,0.4c0.1,0,0.2,0.2,0.5,0.5c0.2,0.1,0.4,0.2,0.5,0.2c0.2,0,0.3,0,0.5,0
			c0,0,0.1,0,0.2,0c0.1,0,0.1,0,0.2,0h1c0.1-0.1,0.3-0.1,0.5-0.1c0,0,0.1,0,0.1,0c0,0,0.1,0,0.2,0h0.3c0.3,0,0.5,0,0.7-0.2
			c0.1,0,0.2,0,0.3,0c0.1,0,0.2,0,0.3,0c0.1,0,0.2,0,0.3,0c0.1,0,0.2,0,0.3,0c0.1,0,0.2,0,0.3,0c0,0,0,0,0,0
			c1.7-0.2,3.1-0.4,4.7-0.7l0,0c0.3,0,0.6-0.1,1-0.1c0.4,0,0.8-0.1,1.2-0.2c0.6-0.1,1.1-0.2,1.7-0.2c0.6-0.1,1.1-0.1,1.6-0.1
			c0.1,0,0.2,0,0.3,0c0.1,0,0.3,0,0.4,0c0.1,0,0.2,0,0.3-0.1c0.1,0,0.2-0.1,0.2-0.1c0.1,0,0.2-0.1,0.3-0.1s0.2,0,0.3,0l0.3,0
			l0.3-0.4c0.1,0,0.2-0.2,0.4-0.4C19.6,10.7,19.6,10.3,19.3,10z"/>
	</defs>
	<clipPath id="SVGID_3_">
		<use xlink:href="#SVGID_62_"  overflow="visible"/>
	</clipPath>
	
		<path clip-path="url(#SVGID_3_)" fill="none" stroke="#000000" stroke-width="6" stroke-linecap="round" stroke-linejoin="round" stroke-miterlimit="10" d="
		M1.7,11.5c1.2,0.3,13.9-1.4,15.6-1"/>
</g>
<g>
	<defs>
		<path id="SVGID_64_" d="M9.5,9.1c0,0-0.1-0.1-0.1-0.1C9.3,8.9,9.1,8.8,9,8.7C8.8,8.6,8.6,8.5,8.2,8.5L7.9,8.7
			C7.8,8.8,7.8,9,7.7,9.2l0,0C7.5,9.9,7.2,10.7,7,11.4c-0.2,0.8-0.2,1.5-0.5,2.2l0,0c0,0.1-0.1,0.2-0.1,0.3
			c-0.1,0.1-0.1,0.3-0.2,0.4c-0.1,0.2-0.2,0.4-0.3,0.6c-0.1,0.2-0.2,0.5-0.3,0.8l-0.3,0.3C5.2,16.6,5,17,4.9,17.4s-0.3,0.8-0.5,1.2
			c-0.3,0.7-0.6,1.5-0.8,2.3c-0.3,0.8-0.4,1.8-0.3,3c0.1,0.1,0.1,0.3,0.2,0.4c0.1,0.2,0.1,0.3,0.1,0.5c0,0.2,0.1,0.4,0.2,0.7
			s0.2,0.4,0.3,0.6v0.4l0.3,0.2C4.5,26.7,4.7,26.8,5,27c0.1,0.1,0.2,0.2,0.3,0.2c0.1,0,0.2,0.1,0.4,0.2c0,0.1,0.1,0.1,0.2,0.2h0.4
			c0.7,0,1.2-0.2,1.5-0.6C8,26.7,8.1,26.2,8,25.6l-0.3-0.3c-0.2-0.1-0.3-0.2-0.4-0.2c-0.1,0-0.2-0.1-0.3-0.2c0-0.1-0.1-0.2-0.1-0.2
			c-0.1-0.1-0.1-0.1-0.2-0.2c0-0.1,0-0.3,0.1-0.6c0-0.1,0-0.2,0.1-0.3c0-0.1,0-0.2,0-0.3c0.1-0.1,0.2-0.2,0.2-0.4c0,0,0-0.1,0-0.2
			c0-0.1,0-0.2,0.1-0.3c0.1-0.2,0.2-0.4,0.2-0.7c0.1-0.1,0.1-0.1,0.2-0.2c0-0.1,0.1-0.2,0.2-0.3l0.1-0.4c0.1-0.2,0.2-0.5,0.3-0.9
			c0.1-0.3,0.3-0.6,0.5-0.9c0.1-0.3,0.2-0.6,0.3-0.9c0.1-0.3,0.3-0.6,0.5-0.9c0.1-0.4,0.2-0.8,0.4-1.1c0.1-0.4,0.3-0.7,0.4-1
			c0.2-0.3,0.3-0.7,0.5-1c0.1-0.3,0.3-0.8,0.4-1.2C11.3,11.4,10.7,10.3,9.5,9.1z"/>
	</defs>
	<clipPath id="SVGID_5_">
		<use xlink:href="#SVGID_64_"  overflow="visible"/>
	</clipPath>
	
		<path clip-path="url(#SVGID_5_)" fill="none" stroke="#000000" stroke-width="6" stroke-linecap="round" stroke-linejoin="round" stroke-miterlimit="10" d="
		M9.4,10.7C9.7,11.8,4.7,22,4.7,23.8c0,1.7,0.8,2.6,1.1,2.4"/>
</g>
</svg>
