<?xml version="1.0" encoding="utf-8"?>
<!-- Generator: Adobe Illustrator 19.2.0, SVG Export Plug-In . SVG Version: 6.00 Build 0)  -->
<svg version="1.1" id="Layer_1" xmlns="http://www.w3.org/2000/svg" xmlns:xlink="http://www.w3.org/1999/xlink" x="0px" y="0px"
	 viewBox="0 0 14.4 36.5" enable-background="new 0 0 14.4 36.5" xml:space="preserve">
<g>
	<defs>
		<path id="SVGID_68_" d="M16.1,10.7c0,0,0-0.1,0-0.2c0-0.1,0-0.2,0-0.3c0-0.1,0-0.2-0.1-0.2c-0.1-0.3-0.2-0.5-0.3-0.6
			c-0.1-0.1-0.1-0.3-0.1-0.3c0-0.1-0.1-0.2-0.1-0.3c0-0.1-0.1-0.2-0.2-0.4c-0.2,0-0.4,0-0.6,0s-0.3-0.1-0.4-0.1
			c-0.1,0-0.2-0.1-0.3-0.2C14,8,13.9,8,13.7,8c-1,1-1.9,1.9-2.5,2.7c-0.6,0.8-1.2,1.6-1.7,2.3c-0.5,0.8-1,1.6-1.5,2.4
			S6.7,17.1,6,18.2l0,0c-0.1,0.3-0.4,0.6-0.6,0.9c-0.4,0.7-0.7,1.4-0.9,2.2c-0.2,1-0.3,2.3,0.7,2.8c0.7,0.3,1.4,0.2,2.1-0.1l0,0
			c0.2-0.2,0.4-0.3,0.6-0.6C8,23.3,8.2,23,8.4,22.8s0.3-0.5,0.4-0.7C8.9,21.8,9,21.6,9,21.3c0.1,0,0.1,0,0.2-0.1
			c0-0.1,0.1-0.1,0.1-0.2c0-0.1,0.1-0.1,0.1-0.2c0-0.1,0.1-0.1,0.2-0.1c0.4-0.8,0.8-1.6,1.3-2.4c0.5-0.8,1-1.5,1.6-2.2
			c0.6-0.7,1.1-1.3,1.7-2c0.6-0.6,1.1-1.3,1.5-1.9c0-0.3,0-0.6,0.2-0.8c0.2-0.2,0.3-0.5,0.3-0.8C16.2,10.8,16.1,10.8,16.1,10.7z"/>
	</defs>
	<clipPath id="SVGID_3_">
		<use xlink:href="#SVGID_68_"  overflow="visible"/>
	</clipPath>
	
		<path clip-path="url(#SVGID_3_)" fill="none" stroke="#000000" stroke-width="6" stroke-linecap="round" stroke-linejoin="round" stroke-miterlimit="10" d="
		M5.2,23.6c0,0,6.6-12.1,8.9-12.9"/>
</g>
<g>
	<defs>
		<path id="SVGID_70_" d="M7.3,24c-0.6-1.8-0.9-4-1.3-5.8l0,0c-0.1-0.4-0.2-0.8-0.2-1.3s-0.1-1-0.1-1.6c0-0.6-0.1-1.1-0.2-1.7
			c-0.1-0.6-0.2-1.1-0.3-1.6c-0.2-0.5-0.4-1-0.6-1.4c-0.3-0.4-0.6-0.7-1-1c0.1-0.3,0-0.6-0.3-0.9C3,8.4,2.6,8.2,2.2,8.2
			C2,8.3,1.8,8.5,1.6,8.7S1.2,9,1.1,9.2C1,9.5,1,9.8,1,10.2S1,11,1,11.5c0,0.5,0.1,1,0.1,1.5c0,0.5,0.1,1,0.1,1.4c0,0.5,0,1,0,1.5
			s0,1,0.1,1.5c0,0.2,0.1,0.4,0.2,0.6c0.1,0.2,0.1,0.3,0.1,0.5c0,0.4,0,0.8,0.1,1.3s0.2,1,0.3,1.4c0.1,0.5,0.2,1,0.3,1.5
			c0.1,0.5,0.2,0.9,0.3,1.4c0.1,0,0.3,0.2,0.4,0.5C3,24.9,3,25.2,3,25.6c0.3,0.1,0.5,0.2,0.6,0.5c0.2,0.3,0.3,0.5,0.6,0.6
			c0.5,0.4,1.1,0.4,1.7,0.2S7,26,7.3,25.2c0-0.3,0-0.5,0-0.6C7.4,24.5,7.4,24.3,7.3,24L7.3,24z"/>
	</defs>
	<clipPath id="SVGID_5_">
		<use xlink:href="#SVGID_70_"  overflow="visible"/>
	</clipPath>
	
		<path clip-path="url(#SVGID_5_)" fill="none" stroke="#000000" stroke-width="6" stroke-linecap="round" stroke-linejoin="round" stroke-miterlimit="10" d="
		M2.8,10.7C3.3,11.7,5,24.5,5,24.5"/>
</g>
</svg>
