<?xml version="1.0" encoding="utf-8"?>
<!-- Generator: Adobe Illustrator 19.2.0, SVG Export Plug-In . SVG Version: 6.00 Build 0)  -->
<svg version="1.1" id="Layer_1" xmlns="http://www.w3.org/2000/svg" xmlns:xlink="http://www.w3.org/1999/xlink" x="0px" y="0px"
	 viewBox="0 0 18.2 36.5" enable-background="new 0 0 18.2 36.5" xml:space="preserve">
<g>
	<defs>
		<path id="SVGID_96_" d="M12,15.3c-0.2-0.1-0.3-0.2-0.3-0.4c0-0.2,0-0.4,0-0.7c0-0.3,0.1-0.5,0.2-0.8c0.1-0.3,0.1-0.5,0.1-0.7
			c-0.3-0.1-0.5-0.3-0.6-0.5c-0.1-0.2-0.2-0.3-0.3-0.5c-0.1-0.2-0.2-0.4-0.2-0.6c-0.1-0.2-0.2-0.4-0.4-0.6c-0.3,0-0.6,0.1-0.9,0.2
			C9.4,10.9,9.2,11,9,11.2s-0.4,0.3-0.5,0.5c-0.2,0.2-0.4,0.3-0.6,0.5c0,0.4,0,0.7-0.2,1.1S7.4,13.8,7.3,14
			c-0.1,0.2-0.2,0.4-0.1,0.6s0,0.4-0.1,0.6c0,0.1-0.1,0.2-0.2,0.2c-0.1,0-0.2,0.1-0.2,0.2c0,0.1,0,0.3,0.1,0.5
			c0.1,0.2,0.1,0.4,0,0.7l0,0c0,0.5-0.4,1.1-0.5,1.6c-0.3,0.9-0.3,1.9-0.6,2.7l0,0c-0.1,0.4-0.1,0.8-0.2,1.2S5.3,23,5.3,23.5
			s-0.1,0.8-0.1,1.2c0,0.4,0,0.7,0,0.9C5.6,25.8,6,26,6.4,26.2c0.4,0.2,0.8,0.3,1.2,0.3c0.4,0,0.8-0.1,1.1-0.4
			c0.4-0.3,0.7-0.7,1-1.3c0.3-0.9,0.6-1.7,0.7-2.3c0.1-0.6,0.3-1.2,0.4-1.8l0,0c0.1-0.9,0.4-1.9,0.6-2.8c0.1-0.5,0.1-0.9,0.3-1.3
			l0,0c0.1-0.2,0.1-0.4,0.2-0.6C11.9,15.8,11.9,15.6,12,15.3z"/>
	</defs>
	<clipPath id="SVGID_3_">
		<use xlink:href="#SVGID_96_"  overflow="visible"/>
	</clipPath>
	
		<path clip-path="url(#SVGID_3_)" fill="none" stroke="#000000" stroke-width="6" stroke-linecap="round" stroke-linejoin="round" stroke-miterlimit="10" d="
		M9.5,12.8c0.2,0.6-2.1,10.7-2.1,11.5"/>
</g>
<g>
	<defs>
		<path id="SVGID_98_" d="M16.8,18.6c0-0.2-0.1-0.3-0.3-0.4c-0.1-0.1-0.3-0.2-0.6-0.2c-0.1-0.4-0.4-0.7-0.7-0.9
			c-0.3-0.2-0.7-0.3-1.1-0.4s-0.8-0.1-1.3-0.1s-0.8,0-1.2-0.1l0,0c-1.6,0-3.3,0.3-4.9,0.1l0,0c-0.3,0-0.5,0-0.8,0
			c-0.3,0-0.5,0-0.8,0C4.9,16.9,4.6,17,4.3,17c-0.3,0.1-0.7,0.1-1,0.1c-0.4,0-0.7,0-1.1,0.1s-0.7,0.1-1,0.2c0.1,0.1,0.1,0.3,0,0.5
			s-0.2,0.3-0.4,0.3c0.2,0.2,0.3,0.4,0.3,0.7c0,0.3,0,0.5,0,0.7c0.1,0.2,0.3,0.5,0.4,0.7c0.1,0.2,0.2,0.4,0.4,0.6
			c0.1,0.2,0.3,0.3,0.5,0.4c0.2,0.1,0.5,0.2,0.9,0.2c0.2-0.1,0.4-0.1,0.8-0.2C4.5,21.2,5,21.1,5.6,21l0,0c1.8-0.2,3.3-0.4,5.1-0.3
			c0.5,0,1.2,0,1.8-0.1c0.6,0,1.2-0.1,1.7-0.2c0.5-0.1,1-0.2,1.5-0.3c0.5-0.1,0.8-0.3,1.1-0.5c0-0.2,0-0.4,0-0.5
			C16.8,18.9,16.8,18.8,16.8,18.6z"/>
	</defs>
	<clipPath id="SVGID_5_">
		<use xlink:href="#SVGID_98_"  overflow="visible"/>
	</clipPath>
	
		<path clip-path="url(#SVGID_5_)" fill="none" stroke="#000000" stroke-width="6" stroke-linecap="round" stroke-linejoin="round" stroke-miterlimit="10" d="
		M14.6,18.7C9.1,18.1,3,19.4,3,19.4"/>
</g>
</svg>
