<?xml version="1.0" encoding="utf-8"?>
<!-- Generator: Adobe Illustrator 19.2.0, SVG Export Plug-In . SVG Version: 6.00 Build 0)  -->
<svg version="1.1" id="Layer_1" xmlns="http://www.w3.org/2000/svg" xmlns:xlink="http://www.w3.org/1999/xlink" x="0px" y="0px"
	 viewBox="0 0 17.8 36.5" enable-background="new 0 0 17.8 36.5" xml:space="preserve">
<g>
	<defs>
		<path id="SVGID_44_" d="M17.8,10.8c-0.2-0.3-0.4-0.7-0.7-1c-0.3,0-0.6-0.1-0.8-0.3C16.2,9.4,16,9.2,15.8,9
			c-0.2-0.2-0.4-0.3-0.6-0.5s-0.5-0.2-0.8-0.3c-0.1,0.2-0.2,0.5-0.3,0.8C14.1,9.4,14,9.7,13.9,10c-0.1,0.3-0.2,0.6-0.3,0.8
			s-0.2,0.5-0.4,0.7c-0.2,1-0.3,2-0.5,2.9c-0.1,0.9-0.3,1.8-0.6,2.7c-0.3,0.8-0.6,1.6-1.1,2.2c-0.4,0.7-1,1.2-1.7,1.6
			c-0.1-0.5-0.2-1-0.2-1.5c0-0.5,0-1,0-1.4c0-0.5,0-0.9,0-1.3s0-0.9-0.1-1.3l0,0C8.9,14,8.4,12.6,7,13.7c-0.8,0.6-0.9,1.3-1.1,2.3
			c-0.4,1.9-0.1,4.6,0.3,5.5c0,0.1,0,0,0,0c0.4,1.1,0.9,2,1.6,2.8s1.4,1.5,2.2,2.1c0.6,0.2,1,0.3,1.4,0.2c0.4-0.1,0.7-0.2,0.9-0.4
			c0.3-0.2,0.5-0.4,0.7-0.6s0.5-0.4,0.8-0.5c0-0.1-0.1-0.2,0-0.2c0-0.1,0-0.1,0.1-0.1c0,0,0.1-0.1,0.1-0.1c0,0,0-0.1,0-0.2
			c0.1,0,0.2,0.1,0.2,0.1c0,0,0.1,0,0.2-0.1c0.2-0.4,0.4-0.7,0.6-1.1c0.2-0.4,0.4-0.7,0.8-0.9c0.1-0.4,0.2-0.9,0.4-1.4
			c0.2-0.5,0.4-1,0.5-1.5c0-0.5,0-1,0.1-1.5c0.1-0.5,0.1-0.9,0.2-1.3c0.1-0.4,0.2-0.8,0.3-1.3c0.1-0.4,0.2-0.9,0.2-1.4
			c0.2-0.1,0.3-0.3,0.4-0.4c0.1-0.2,0.2-0.4,0.2-0.6c0.1-0.2,0.1-0.4,0.2-0.6c0-0.2,0.1-0.4,0.2-0.5C18.1,11.5,18,11.1,17.8,10.8z"
			/>
	</defs>
	<clipPath id="SVGID_3_">
		<use xlink:href="#SVGID_44_"  overflow="visible"/>
	</clipPath>
	
		<path clip-path="url(#SVGID_3_)" fill="none" stroke="#000000" stroke-width="6" stroke-linecap="round" stroke-linejoin="round" stroke-miterlimit="10" d="
		M6.9,14.1c0,1.4,0.3,9.9,3.5,10.1S15.5,10,15.5,10"/>
</g>
<g>
	<defs>
		<path id="SVGID_46_" d="M6.6,19.8c0.2-0.5,0.3-0.9,0.5-1.4c0.4-1,0.9-2.2,1.6-3c0.1-0.1,0.2-0.2,0.3-0.2l0,0c0.1,0,0.1,0,0.1,0
			c0,0,0.1-0.1,0.1-0.1s0-0.1,0.1-0.1c0,0,0.1,0,0.1,0c-0.1-0.2-0.1-0.4,0-0.5c0-0.1,0.1-0.3,0.2-0.4c0.1-0.1,0.1-0.2,0.1-0.4
			c0-0.1,0-0.3-0.1-0.5c0.1,0,0.2,0,0.2,0c0,0,0.1-0.1,0.2,0C10,13.1,10,13,10,12.9c0-0.1,0-0.1,0-0.2c0,0,0-0.1,0-0.1
			c0,0-0.1-0.1-0.1-0.2c0-0.1,0.1-0.1,0.1,0c0,0,0.1,0,0.1-0.1c-0.1-0.5-0.3-0.9-0.5-1.3c-0.3-0.4-0.6-0.7-1-1S7.9,9.3,7.4,9.1
			C7,8.8,6.5,8.6,6.1,8.5c-1,2.3-2.2,4.7-3.3,7c-1.2,2.4-2.2,4.6-3.2,6.7c0.1,0.1,0.2,0.3,0.2,0.5c0,0.2,0,0.4,0,0.6
			c0.1,0.3,0.3,0.6,0.4,1c0.2,0.4,0.3,0.8,0.5,1.1c0.2,0.4,0.4,0.7,0.7,1c0.3,0.3,0.6,0.5,0.9,0.6c0.2,0,0.3-0.1,0.4-0.1
			c0.1-0.1,0.3-0.1,0.5,0c0-0.1-0.1-0.2-0.1-0.2c0,0,0-0.1,0-0.2c0.3,0,0.5,0,0.7-0.2C3.9,26.3,4,26.1,4,25.9
			c0.1-0.2,0.1-0.4,0.1-0.6c0-0.2,0.1-0.4,0.3-0.5c-0.1-0.2-0.1-0.4-0.1-0.5c0-0.2,0.1-0.3,0.2-0.4c0.1-0.1,0.2-0.3,0.3-0.4
			S5,23.2,5,23c0.1,0,0.2-0.1,0.3-0.2c0.1-0.2,0.1-0.3,0.2-0.5c0.1-0.2,0.1-0.4,0.2-0.5c0.1-0.1,0.2-0.3,0.4-0.3
			C6.4,21.1,6.5,20.2,6.6,19.8z"/>
	</defs>
	<clipPath id="SVGID_5_">
		<use xlink:href="#SVGID_46_"  overflow="visible"/>
	</clipPath>
	
		<path clip-path="url(#SVGID_5_)" fill="none" stroke="#000000" stroke-width="6" stroke-linecap="round" stroke-linejoin="round" stroke-miterlimit="10" d="
		M1.8,24.6c0-3.4,6.1-10.9,5.5-13c0,0-0.1-0.6-0.5-1.3"/>
</g>
</svg>
