<?xml version="1.0" encoding="utf-8"?>
<!-- Generator: Adobe Illustrator 19.2.0, SVG Export Plug-In . SVG Version: 6.00 Build 0)  -->
<svg version="1.1" id="Layer_1" xmlns="http://www.w3.org/2000/svg" xmlns:xlink="http://www.w3.org/1999/xlink" x="0px" y="0px"
	 viewBox="0 0 15.7 36.5" enable-background="new 0 0 15.7 36.5" xml:space="preserve">
<g>
	<defs>
		<path id="SVGID_10_" d="M12.8,27.1c-0.3,0-0.7,0-1.2,0c-0.5,0-0.9,0-1.3,0.2c-1.1,0-2.2-0.2-3.3-0.4c-1.1-0.2-2.1-0.5-3-0.8
			c-0.2-0.2-0.4-0.4-0.6-0.6c-0.2-0.2-0.5-0.3-0.8-0.4c-0.5-0.4-0.9-0.8-1.2-1.4c-0.3-0.6-0.5-1.1-0.7-1.8c-0.2-0.6-0.3-1.3-0.4-1.9
			c-0.1-0.7-0.1-1.3-0.1-1.9c0.3-0.9,0.7-1.7,1.3-2.3c0.6-0.7,1.1-1.3,1.7-1.9c0.3-0.1,0.5-0.2,0.6-0.4c0.1-0.1,0.3-0.3,0.4-0.4
			c0.2-0.1,0.3-0.2,0.5-0.3s0.3-0.2,0.4-0.4c0.4-0.1,0.8-0.2,1.1-0.4c0.3-0.2,0.6-0.4,0.9-0.6c0.3-0.2,0.6-0.4,0.9-0.6
			c0.3-0.2,0.7-0.3,1.1-0.4c0.2-0.2,0.4-0.3,0.6-0.4c0.2-0.1,0.4-0.2,0.7-0.3c0.2-0.1,0.5-0.2,0.7-0.3c0.2-0.1,0.4-0.3,0.5-0.5
			c0.1,0.2,0.2,0.2,0.4,0.2c0.2,0,0.4-0.1,0.5-0.2c0.1,0,0.2,0,0.3,0.1c0.1,0.1,0.1,0.1,0.2,0.2C13,9,13.1,9,13.1,9s0.1,0,0.1-0.1
			c0.1,0,0.1,0.1,0.1,0.2c0,0.1-0.1,0.2-0.1,0.2c0.2,0,0.3,0,0.4,0.1c0.1,0.1,0.3,0.1,0.5,0.2c0.1,0.1,0.1,0.2,0.1,0.2
			c0,0.1-0.1,0.1-0.1,0.3c0.6,0.2,1,0.5,1.1,0.9c0.2,0.4,0.2,0.8,0,1.2c-0.1,0.4-0.4,0.8-0.8,1.2c-0.4,0.4-0.8,0.6-1.2,0.7
			c-1,0.3-1.9,0.5-2.7,0.9c-0.9,0.3-1.6,0.8-2.1,1.4c-0.5,0.1-0.9,0.3-1.3,0.6C7,17,6.6,17.3,6.3,17.5c-0.3,0.3-0.6,0.6-0.9,0.9
			c-0.3,0.3-0.6,0.6-0.9,0.9c0,0.3,0,0.5-0.1,0.6S4.1,20.3,4,20.5c0,0.3,0.1,0.6,0.2,0.8c0.1,0.2,0.2,0.5,0.3,0.7
			c1.3,0.4,2.7,0.7,4.2,0.8c1.5,0.1,3,0.2,4.5,0.2c0.1,0.2,0.3,0.4,0.5,0.6c0.2,0.2,0.4,0.4,0.5,0.5c0.2,0.2,0.3,0.4,0.4,0.6
			c0.1,0.2,0.1,0.5,0.1,0.9c-0.3,0.3-0.6,0.6-0.9,0.8S13.1,26.8,12.8,27.1z"/>
	</defs>
	<clipPath id="SVGID_3_">
		<use xlink:href="#SVGID_10_"  overflow="visible"/>
	</clipPath>
	
		<path clip-path="url(#SVGID_3_)" fill="none" stroke="#000000" stroke-width="6" stroke-linecap="round" stroke-linejoin="round" stroke-miterlimit="10" d="
		M12.8,11.2C9.3,11.9,0.6,17.1,2.7,21.8s9.9,3.2,10.2,3.1"/>
</g>
</svg>
