<svg version="1.1" id="logo" xmlns="http://www.w3.org/2000/svg" xmlns:xlink="http://www.w3.org/1999/xlink" x="0px" y="0px" viewBox="0 0 169.4 35.4" xml:space="preserve">
	<text transform="matrix(1 0 0 1 -0.8081 30.0447)" fill="transparent" font-family="'PermanentMarker'" font-size="30.7418">whiteboard</text>
	<path fill="none" stroke="#000000" stroke-width="4" stroke-linecap="round" stroke-linejoin="round" stroke-miterlimit="10" d="M142.1,18.2c0.1,0.6-1.8,10-1.8,10 M152.7,28.8c-5.9,0.2-9.5-5.3-9.5-5.3s6.9-2.1,7.7-3.6c0.9-1.7-1.5-5.5-2.9-5.9c-1.4-0.4-5.2,5.3-5.2,5.3"/>
	<path fill="none" stroke="#C1272D" stroke-width="4" stroke-linecap="round" stroke-linejoin="round" stroke-miterlimit="10" d="M5.6,33.2c4.6-9.5,15.2-15.1,25.7-15.7C49.6,16.5,66.8,29,85.2,28c4-0.2,7.9-1.1,11.8-1.9c2.7-0.6,5.4-1.2,8.1-2c7.7-2.5,14.5-7.2,21.6-11.2c7.1-3.9,15.1-7.1,23.2-6.2"/>
	<path fill="none" stroke="#000000" stroke-width="4" stroke-linecap="round" stroke-linejoin="round" stroke-miterlimit="10" d="M88.5,18.4C88.4,22.3,86,28.6,86,28.6 M88.5,28.6c0,0,8.4-0.3,9.3-4.4c0.7-3.6-7.7-3.4-7.7-3.4s6.8-2,6.2-5.9c-0.6-3.9-11.2,0.1-11.8,0.5"/>
	<path fill="none" stroke="#000000" stroke-width="4" stroke-linecap="round" stroke-linejoin="round" stroke-miterlimit="10" d="M80.1,27c0,0-9.3,3.2-10.4,0.3c-1.1-2.9,3.6-9.2,2.8-10.6 M81.8,13.5c0,0-10.8,1.4-11,2.6 M71.2,21c0,0,6.6,0.2,7.3-0.4"/>
	<path fill="none" stroke="#000000" stroke-width="4" stroke-linecap="round" stroke-linejoin="round" stroke-miterlimit="10" d="M13.9,16.4C10.2,26.2,2.8,29.2,2.2,27.6c-0.6-1.6,2-12.2,2.7-12.7 M13.9,16.4c-0.9,3.3-0.7,12.4,2.5,11.6c3.8-0.9,6.1-11.9,7.5-12.8"/>
	<path fill="none" stroke="#000000" stroke-width="4" stroke-linecap="round" stroke-linejoin="round" stroke-miterlimit="10" d="M29.2,15.2c0.2,0.7-2.3,13.6-2.3,13.6 M26.9,28.8c0,0,1.1-4.8,6.4-5.4c4.1-0.4,5.2-2,5.3-2.6c0.1-0.6,1.1-7,1.1-7 M37.4,28.4c0,0,2.4-13.8,2.3-14.5"/>
	<path fill="none" stroke="#000000" stroke-width="4" stroke-linecap="round" stroke-linejoin="round" stroke-miterlimit="10" d="M48.6,14.5c-0.4,0.5-2.5,11.2-1.2,14.6"/>
	<path fill="none" stroke="#000000" stroke-width="4" stroke-linecap="round" stroke-linejoin="round" stroke-miterlimit="10" d="M113.4,13.9c0,0-14.7,9-9.7,13.2c4.6,3.9,12.7-1.2,12.9-3.1c0.2-1.9-1.8-6.8-4.3-8.9"/>
	<path fill="none" stroke="#000000" stroke-width="4" stroke-linecap="round" stroke-linejoin="round" stroke-miterlimit="10" d="M121.3,27.7c0,0,4.3-11.2,8.8-13.6c0,0,5.6,12.6,2,14.5 M126.8,24.4c0,0,4.9-0.1,9-2.1"/>
	<path fill="none" stroke="#000000" stroke-width="4" stroke-linecap="round" stroke-linejoin="round" stroke-miterlimit="10" d="M157.3,16.8c1,3.6,0.7,6.5-0.6,12.1 M156.8,28.8c16.1-5.5,11.7-10.9,0.6-14.9"/>
	<path fill="none" stroke="#C1272D" stroke-width="4" stroke-linecap="round" stroke-linejoin="round" stroke-miterlimit="10" d="M123,15c1.3-0.7,2.5-1.5,3.8-2.2c7.1-3.9,15.1-7.1,23.2-6.2"/>
	<path fill="none" stroke="#C1272D" stroke-width="4" stroke-linecap="round" stroke-linejoin="round" stroke-miterlimit="10" d="M34.6,17.5C51.7,18,67.9,28.9,85.2,28c4-0.2,7.9-1.1,11.8-1.9c2.7-0.6,5.4-1.2,8.1-2c1.7-0.6,3.4-1.2,5.1-2"/>
	<path fill="none" stroke="#C1272D" stroke-width="4" stroke-linecap="round" stroke-linejoin="round" stroke-miterlimit="10" d="M5.6,33.2c2.3-4.7,6.1-8.5,10.7-11.2c0.1,0,0.1-0.1,0.2-0.1"/>
	<path fill="none" stroke="#000000" stroke-width="4" stroke-linecap="round" stroke-linejoin="round" stroke-miterlimit="10" d="M54,15c0.6,0.3,14.7-2.4,16.3-1.8 M61.3,13.7c1.6,2.4-5.9,12.8-2.3,15.9"/>
	<polyline fill="none" stroke="#C1272D" stroke-width="4" stroke-linecap="round" stroke-linejoin="round" stroke-miterlimit="10" points="145.4,2.1 149.9,6.7 145.4,11.3 "/>
</svg>