<?xml version="1.0" encoding="utf-8"?>
<!-- Generator: Adobe Illustrator 19.2.0, SVG Export Plug-In . SVG Version: 6.00 Build 0)  -->
<svg version="1.1" id="Layer_1" xmlns="http://www.w3.org/2000/svg" xmlns:xlink="http://www.w3.org/1999/xlink" x="0px" y="0px"
	 width="501.1px" height="333px" viewBox="0 0 501.1 333" enable-background="new 0 0 501.1 333" xml:space="preserve">
<path fill="none" stroke="#FFFFFF" stroke-width="120" stroke-linejoin="bevel" stroke-miterlimit="10" d="M393.7,32.6
	c-14.5,17.8-28.9,35.6-43.4,53.5c-0.9-15.3-1.7-30.6-2.6-45.9c-0.3-4.8-0.8-10.2-4.4-13.3c-6.1-5.3-16.2,0.2-19.4,7.7
	c-3.2,7.4-2.4,15.9-4.2,23.8c-1.8,7.9-8.1,16.2-16.1,15.1c-8.1-1.2-11.8-10.8-12.9-18.9c-1.9-14.3-0.9-28.9,2.9-42.8
	c-7.1,12.1-14.2,24.3-21.3,36.4c-4.1,7-8.6,14.3-15.8,18c-7.2,3.6-17.9,1.5-20.5-6.2c-1.8-5.5,1.1-11.4,4.5-16
	c3.5-4.6,7.7-9,9.1-14.5c1.4-5.6-1.5-12.8-7.2-13.3c-5.6-0.5-9.5,5.3-12.1,10.4c-10.5,20.6-21,41.1-31.6,61.7
	c-1.1-12.1-2.2-24.2-3.4-36.2c-0.7-7.5-1.6-15.4-6.2-21.2c-7.8-9.8-25.5-8.6-31.9,2.2s1.1,26.9,13.4,29
	c-14.5,19.9-35.9,34.7-59.7,41.2c-16.3,4.4-33.3,5-49.9,8.1c-9.2,1.7-18.8,4.5-25.1,11.3c-6.4,6.9-7.9,18.9-0.9,25.2
	c5.2,4.6,13.3,4.6,19.6,1.8s11.4-7.9,16.2-12.9c12.4-12.8,24.8-25.6,37.3-38.4c-7.4,10.4-0.9,26.4,10.6,32
	c11.4,5.7,25.6,3.2,36.6-3.3c11-6.4,19.6-16.3,28-25.9c-2.5,9.1-5.1,18.5-3.2,27.8c1.9,9.2,9.8,17.9,19.1,17.4c8.6-0.5,15-8,20.2-15
	c12-16,24-32.1,36-48.1c0.9,18.4,1.8,36.8,2.8,55.2c17.1-10.8,30.6-27.1,38.1-45.8c-3.8,22.3-7.6,44.7-11.4,67
	c-43.3-4.1-87.8,4-126.9,23.1c-12.3,6-25.6,15.5-26,29.2c25.9,3.9,53.5-11.2,64.2-35c1.9,14.7,3.8,29.4,5.7,44
	c14.9-15.8,29.9-31.6,44.8-47.3c-4.6,8-9.3,16.4-10.1,25.7c-0.7,9.2,3.8,19.6,12.6,22.6c8.7,2.9,18.2-2.2,24.9-8.5
	c13.9-12.8,22.4-31.1,23.4-50c0.2,17,0.4,34,0.6,51c10.6-5.4,16.6-18.5,13.7-30.1c-16.5,2.9-31.7,12.6-41.4,26.3
	c8.6-2.5,10-15.8,3.4-22c-6.6-6.1-17.1-5.8-25.3-2.1c-8.2,3.8-14.6,10.3-21.5,16.1c-23.5,19.8-53.9,31.4-84.6,32.3
	c-20.2,0.6-40.3-3.2-60.4-2.9s-41.7,5.7-54.9,20.9c-9.7,11.1-12.5,30.7-0.4,39.1c9.3,6.5,22.8,2.7,30.7-5.3s11.6-19.3,15.1-30
	s7.1-22,15-30.1C80.8,250.3,74,274,67.1,297.8c22.9-17.4,43.5-37.8,61.1-60.5c-10.8-8.7-29.4-3.9-34.7,8.9
	c-5.3,12.8,4.7,29.3,18.4,30.7c11.9,1.2,22.5-7.1,31.6-14.8c12-10.2,24-20.4,35.9-30.6c-11.9,22.2-23.9,44.4-35.8,66.6
	c21.1-12.1,38.6-30.5,49.6-52.2c-2.2,15.6-4.3,31.2-6.5,46.8c12-16.7,24.1-33.3,36.1-50c-2.6,17.5-5.1,35-7.7,52.5
	c12.3-17,24.6-34,36.9-51c0.4,16.7,0.7,33.5,1.1,50.2c10.2-17.8,20.4-35.6,30.6-53.4c-4.2,27.4-8.4,54.8-12.6,82.2
	c22.8-32,45.6-64,68.3-96c0.3,15.3,0.6,30.6,0.9,45.9c14.9-5.7,27.9-16.2,36.6-29.6c-0.5,16.3-1.1,32.6-1.6,48.9
	c15.4-20.1,30.9-40.3,46.3-60.4c-1,20.4-2,40.8-3,61.2c19.6-8.4,35.6-24.9,43.3-44.8c14.7,5.1,20.1,26.8,9.4,38.1
	c-7.2,7.6-18.4,9.5-28.8,10.9c-41.6,5.5-83.5,9.1-125.4,10.9c-14.2,0.6-29.7,0.6-41-8c-12.5-9.6-15.9-26.8-18-42.5
	c-6.2-46.6-9.4-93.6-9.4-140.7c0-16.1,1-33.8,12.2-45.3"/>
<g id="Arrow_right">
</g>
<text transform="matrix(1 0 0 1 156.9458 40.6011)"><tspan x="0" y="0" font-family="'PermanentMarker'" font-size="30.74px">how easy it is</tspan><tspan x="-6.1" y="30" font-family="'PermanentMarker'" font-size="30.74px">to fall asleep</tspan></text>
<path fill="none" stroke="#000000" stroke-width="7" stroke-linecap="round" stroke-linejoin="round" stroke-miterlimit="10" d="
	M258.6,84.1c5.7,58.7-1,191,2.5,220.5"/>
<text transform="matrix(1 0 0 1 36.9491 133.7708)" font-family="'PermanentMarker'" font-size="30.74px">in a hammock</text>
<path fill="none" stroke="#CE3045" stroke-width="7" stroke-linecap="round" stroke-linejoin="round" stroke-miterlimit="10" d="
	M264.5,106.3c1,13.1,2,26.1,3,39.2c0.5-11.5,1.1-23,1.6-34.5c1.1,10.2,2.3,20.5,3.4,30.7c0.4-11.2,0.8-22.5,1.2-33.7
	c0.8,11.8,1.7,23.6,2.5,35.4c-0.1-11.4,1.4-22.8,4.5-34.1c0.6,10.8,1.1,21.6,1.7,32.5c-0.4-11.7,0.8-23.5,3.6-35.1
	c0.1,12.5,0.1,25,0.2,37.4"/>
<text transform="matrix(1 0 0 1 129.4393 203.8485)" font-family="'PermanentMarker'" font-size="30.74px">in a bed</text>
<path fill="none" stroke="#CE3045" stroke-width="7" stroke-linecap="round" stroke-linejoin="round" stroke-miterlimit="10" d="
	M266.9,176.3c0,12.7,0.1,25.4,0.1,38.1c0.9-12.6,1.9-25.2,2.8-37.7c0.6,11.8,1.2,23.5,1.8,35.3c0.6-11.7,1.2-23.5,1.8-35.2
	c0.8,12.8,1.6,25.6,2.4,38.4c1.3-12.7,2.5-25.4,3.8-38.1c0.2,11.9,0.3,23.8,0.5,35.6c0.2-12,0.4-24,0.6-36c1.3,11.8,2.7,23.6,4,35.4
	c0.2-10.8,0.3-21.7,0.5-32.5c0.9,11.4,1.9,22.9,2.8,34.3c0.6-12.3,1.3-24.5,1.9-36.8c0.8,12.3,1.5,24.5,2.3,36.8
	c0.5-12.6,0.9-25.2,1.4-37.8c1.1,12.6,2.2,25.1,3.3,37.7c0.5-11.9,1.1-23.8,1.6-35.7c0.6,11.1,1.3,22.3,1.9,33.4c1-11.3,2-22.6,3-34
	c0.7,11.3,1.4,22.6,2.1,33.9c1.2-11.2,2.4-22.3,3.6-33.5c0.6,10.9,1.3,21.9,1.9,32.8"/>
<text transform="matrix(1 0 0 1 22.9001 258.9261)"><tspan x="0" y="0" font-family="'PermanentMarker'" font-size="30.74px">on a chair in a</tspan><tspan x="12.3" y="30" font-family="'PermanentMarker'" font-size="30.74px">meeting room</tspan></text>
<path fill="none" stroke="#CE3045" stroke-width="7" stroke-linecap="round" stroke-linejoin="round" stroke-miterlimit="10" d="
	M264.9,283.5c0.8-12.4,1.6-24.8,2.3-37.2c0.5,12.8,1,25.5,1.4,38.3c0.7-12.8,1.5-25.6,2.2-38.3c0.8,12.9,1.6,25.8,2.4,38.6
	c0.9-12.9,1.8-25.8,2.7-38.7c0.5,12.7,1,25.3,1.5,38c1-12.8,2.1-25.6,3.1-38.4c-0.1,13-0.2,26-0.3,38.9c1.1-13.3,2.2-26.6,3.3-39.8
	c0.4,13.6,0.7,27.2,1.1,40.8c0.9-13.1,1.8-26.2,2.6-39.3c0.3,12.4,0.6,24.8,0.8,37.2c0.9-12.4,1.9-24.7,2.8-37.1
	c-0.4,12.5-0.8,24.9-1.2,37.4c1.2-12.7,2.4-25.5,3.5-38.2c0.7,13.3,1.4,26.6,2.2,40c0.5-12.8,1-25.7,1.5-38.5
	c0.1,12.5,0.3,25.1,0.4,37.6c0.5-12.5,0.9-25,1.4-37.5c1.4,12.6,2.8,25.2,4.2,37.8c0.2-12.9,0.4-25.8,0.5-38.7
	c1,12.6,1.9,25.3,2.9,37.9c0.4-12.5,0.9-25,1.3-37.5c1.1,12.4,2.3,24.8,3.4,37.2c0.5-12.4,1.1-24.9,1.6-37.3
	c1.2,12.5,2.4,24.9,3.6,37.4c0.5-12,0.9-24,1.4-36c0.6,11.8,1.2,23.7,1.8,35.5c1-11.6,2.1-23.2,3.1-34.9c0.5,11.5,1.1,23,1.6,34.5
	c0.6-11.9,1.3-23.7,1.9-35.6c1,12.1,2,24.2,3,36.3c0.9-11.9,1.9-23.9,2.8-35.8c0.4,11.8,0.7,23.5,1.1,35.3
	c0.9-11.9,1.7-23.9,2.6-35.8c0.9,12.2,1.9,24.4,2.8,36.6c-1-12.1,0.1-24.4,3.3-36.2c-0.6,11.8,0.3,23.6,2.8,35.3
	c0.9-11.8,1.7-23.6,2.6-35.3c0.8,11.6,1.6,23.3,2.3,34.9c0.4-11.5,0.8-23,1.2-34.5c0.8,11.4,1.6,22.9,2.4,34.3
	c0.1-12.1,0.2-24.1,0.2-36.2c0.7,12.1,1.5,24.3,2.2,36.4c0.8-11.6,1.6-23.3,2.5-34.9c1,11.8,2,23.7,3.1,35.5
	c0.6-11.7,1.1-23.4,1.7-35.1c0.7,11.5,1.5,23,2.2,34.6c0.7-12.2,1.4-24.4,2.2-36.6c0.5,12.3,1.1,24.7,1.6,37c0.6-12,1.2-24,1.8-35.9
	c0.7,12.4,1.4,24.8,2.1,37.1c0.9-13.3,1.9-26.7,2.8-40c0.4,13.1,0.8,26.1,1.2,39.2c1-12.3,2-24.5,3-36.8c0.5,12,1,24,1.5,36
	c1.1-11.8,2.2-23.6,3.2-35.4c0.8,12.2,1.6,24.5,2.5,36.7c1-12.1,2-24.3,3-36.4c1.1,12.1,2.3,24.1,3.4,36.2c1-11.7,2.1-23.4,3.1-35.2
	c0.7,11.5,1.5,23.1,2.2,34.6c0.4-11.9,0.8-23.8,1.2-35.8c1,12.1,1.9,24.2,2.9,36.3c-0.1-12.5-0.2-25.1-0.3-37.6
	c1.2,12.5,2.5,24.9,3.7,37.4c0.8-12.5,1.6-24.9,2.4-37.4c1.6,12.2,3.3,24.5,4.9,36.7c0.6-11.4,1.2-22.8,1.8-34.2
	c0.4,11.5,0.7,23.1,1.1,34.6c0.5-12,0.9-23.9,1.4-35.9c0.6,11.8,1.2,23.7,1.8,35.5c0.6-12.3,1.2-24.6,1.8-36.9
	c1.6,12.4,3.2,24.9,4.8,37.3c-0.1-12-0.2-23.9-0.3-35.9c2.4,12.1,4.8,24.3,7.2,36.4c-0.7-12.1-1.4-24.2-2.1-36.3
	c2.4,12,4.8,24,7.1,36c-0.4-11.6-0.8-23.1-1.3-34.7c2,11.6,4,23.1,6,34.7c-0.3-12.4-0.7-24.9-1-37.3c2.2,12.3,4.5,24.6,6.7,36.9
	c-0.4-12-0.9-24.1-1.3-36.1c2,12.3,3.9,24.6,5.9,36.9c0.1-12.4,0.2-24.7,0.3-37.1c0.9,12,1.9,24.1,2.8,36.1
	c0.4-11.9,0.7-23.9,1.1-35.8c0.9,11.8,1.8,23.5,2.6,35.3c0.6-11.8,1.1-23.6,1.7-35.4c1.1,12,2.2,24,3.3,36
	c0.9-12.3,1.9-24.5,2.8-36.8c0.1,12.3,0.2,24.6,0.4,36.8"/>
<g id="Arrow_up">
</g>
</svg>
