<?xml version="1.0" encoding="utf-8"?>
<!-- Generator: Adobe Illustrator 18.0.0, SVG Export Plug-In . SVG Version: 6.00 Build 0)  -->
<!DOCTYPE svg PUBLIC "-//W3C//DTD SVG 1.1//EN" "http://www.w3.org/Graphics/SVG/1.1/DTD/svg11.dtd">
<svg version="1.1" id="Layer_1" xmlns="http://www.w3.org/2000/svg" xmlns:xlink="http://www.w3.org/1999/xlink" x="0px" y="0px"
	 viewBox="0 0 789 534" enable-background="new 0 0 789 534" xml:space="preserve">
<path fill="none" stroke="#FFFFFF" stroke-width="120" stroke-linejoin="bevel" stroke-miterlimit="10" d="M163.4,5.3
	c-2.5,33.5-5.1,67-7.6,100.5c25.9,0.6,45.4-22.9,58.5-45.2s26.5-47.8,51-56.3c-46.9,36.4-87.6,80.9-119.7,130.9
	c-6.4,10-12.7,20.9-13,32.8c-0.3,11.9,7.8,24.8,19.6,25.8c11.7,1,21.1-9.2,28-18.7c26-35.8,46.1-75.5,72.2-111.3s59.7-68.3,102-81.1
	c-44.1,65.2-88.3,130.4-132.4,195.5c-23.6,34.8-48.1,72.9-46.3,115C244.6,183.4,341.4,91.3,454.6,28.2c-71,72.5-142,145.1-213,217.6
	c58.9-23.8,107.7-67.1,151.8-112.9S478.1,37.7,527.1-2.6c10-8.2,26.7-15.4,34.1-4.7c4.9,7.2,1,16.9-3.1,24.6
	C524.2,82,490.3,146.7,456.4,211.4c25-3.9,43.3-26.4,52.8-49.8c9.5-23.5,12.7-49.1,21.9-72.7c16.4-42.1,52.2-76.1,95.1-90.1
	c-35.8,130.3-39.6,269.2-11.1,401.2c-22.9-18.7-30.7-49.7-37.1-78.5c-13.4-59.8-26.8-119.6-40.1-179.3c-16,67.5-32,134.9-48,202.4
	c-3.5,14.7-10.1,32.3-25,34.3c-17.7,2.3-28.1-19-32.9-36.2c-10.7-39-21.5-78-32.2-117.1c-3-10.8-8.1-23.5-19.1-25.1
	c-14.5-2-22.3,16.2-25,30.6c-13.8,71.9-27.6,143.9-41.4,215.8c-22.9-63-45.7-125.9-68.6-188.9c-3.5-9.5-8.4-20.4-18.3-22.6
	c-7.8-1.7-15.8,3-20.4,9.5s-6.4,14.5-8.2,22.2c-11,49.1-22,98.2-33.1,147.4c-35.9,31.2-71.7,62.4-107.6,93.5
	c-7.7,6.7-17.1,13.8-26.9,11.4c-9.7-2.4-15.1-13.6-14.3-23.6s6.2-18.9,11.4-27.4c6-9.8,12.3-19.8,21.5-26.6
	c9.3-6.8,22.4-9.6,32.3-3.9c11.6,6.8,14.7,22.1,14.8,35.5s-1.2,27.8,5.6,39.4c10.9,18.5,37.8,20.6,57.5,12.1
	c19.7-8.5,34.8-24.6,52.3-37s40.5-21.1,60.1-12.4c18.4,8.2,31.1,30.8,51.3,29.9c12.8-0.5,23-10.8,29.9-21.6s12.2-22.9,21.7-31.4
	c14.2-12.5,34.5-14.4,53.4-15.6c66.1-4.3,132.2-8.6,198.3-13c17.7-1.2,99.1-0.5,115.7,6s30.6,22.9,28.4,40.6
	c-1.8,14.4-13.9,25.8-27.5,31c-13.5,5.2-91.4,3.7-105.9,3.8c-116.1,1-232.2,2.1-348.3,3.1"/>
<text transform="matrix(1 0 0 1 147.2595 33)"><tspan x="0" y="0" font-family="'PermanentMarker'" font-size="31">ii</tspan><tspan x="19.9" y="0" fill="#1C75BC" font-family="'PermanentMarker'" font-size="31">i</tspan><tspan x="29.8" y="0" font-family="'PermanentMarker'" font-size="31">iiiiiiiiiiiii</tspan><tspan x="158.9" y="0" fill="#1C75BC" font-family="'PermanentMarker'" font-size="31">i</tspan><tspan x="168.8" y="0" font-family="'PermanentMarker'" font-size="31">iiiiiiiiiiiiiiiiiiiiiiiiiiiiiii</tspan><tspan x="476.6" y="0" fill="#1C75BC" font-family="'PermanentMarker'" font-size="31">i</tspan><tspan x="486.6" y="0" font-family="'PermanentMarker'" font-size="31">i</tspan><tspan x="0" y="30" font-family="'PermanentMarker'" font-size="31">iiiiii</tspan><tspan x="59.6" y="30" fill="#1C75BC" font-family="'PermanentMarker'" font-size="31">i</tspan><tspan x="69.5" y="30" font-family="'PermanentMarker'" font-size="31">iiiiiiiiiiiiiiiiiiiiiiiii</tspan><tspan x="317.8" y="30" fill="#1C75BC" font-family="'PermanentMarker'" font-size="31">i</tspan><tspan x="327.7" y="30" font-family="'PermanentMarker'" font-size="31">iiiiiiiiiiiiiiiii</tspan><tspan x="0" y="60" font-family="'PermanentMarker'" font-size="31">iiiiiiiiiiiiiiiiiiiiiiiiiii</tspan><tspan x="268.1" y="60" fill="#1C75BC" font-family="'PermanentMarker'" font-size="31">i</tspan><tspan x="278" y="60" font-family="'PermanentMarker'" font-size="31">iiiiiiiiiiiiiiiiiiiiii</tspan><tspan x="0" y="90" font-family="'PermanentMarker'" font-size="31">iiiiiiii</tspan><tspan x="79.4" y="90" fill="#1C75BC" font-family="'PermanentMarker'" font-size="31">i</tspan><tspan x="89.4" y="90" font-family="'PermanentMarker'" font-size="31">iiiiiiiiiiiiiiiiiiiiiiiiiiii</tspan><tspan x="367.4" y="90" fill="#1C75BC" font-family="'PermanentMarker'" font-size="31">i</tspan><tspan x="377.3" y="90" font-family="'PermanentMarker'" font-size="31">iiiiiiiiiiii</tspan><tspan x="0" y="120" font-family="'PermanentMarker'" font-size="31">iiiiiiiiiii</tspan><tspan x="109.2" y="120" fill="#1C75BC" font-family="'PermanentMarker'" font-size="31">i</tspan><tspan x="119.2" y="120" font-family="'PermanentMarker'" font-size="31">iiiiiiiiiiiiiiiiiiiiiiiiiiiiiiiiiiiiii</tspan><tspan x="0" y="150" fill="#1C75BC" font-family="'PermanentMarker'" font-size="31">i</tspan><tspan x="9.9" y="150" font-family="'PermanentMarker'" font-size="31">iiiiiiiiiiiiiiiiiiiiii</tspan><tspan x="228.4" y="150" fill="#1C75BC" font-family="'PermanentMarker'" font-size="31">i</tspan><tspan x="238.3" y="150" font-family="'PermanentMarker'" font-size="31">iiiiiiiiiiiiiiiiii</tspan><tspan x="417" y="150" fill="#1C75BC" font-family="'PermanentMarker'" font-size="31">i</tspan><tspan x="427" y="150" font-family="'PermanentMarker'" font-size="31">iiiiiii</tspan><tspan x="0" y="180" font-family="'PermanentMarker'" font-size="31">iiii</tspan><tspan x="39.7" y="180" fill="#1C75BC" font-family="'PermanentMarker'" font-size="31">i</tspan><tspan x="49.6" y="180" font-family="'PermanentMarker'" font-size="31">iiiiiiiiiiiiiiiiiiiiiiiiiiiiiiiiiiiiiiiiiiiii</tspan><tspan x="0" y="210" font-family="'PermanentMarker'" font-size="31">iiiiiiiiiiiiiii</tspan><tspan x="148.9" y="210" fill="#1C75BC" font-family="'PermanentMarker'" font-size="31">i</tspan><tspan x="158.9" y="210" font-family="'PermanentMarker'" font-size="31">iiiiiiiiiiiiii</tspan><tspan x="297.9" y="210" fill="#1C75BC" font-family="'PermanentMarker'" font-size="31">i</tspan><tspan x="307.8" y="210" font-family="'PermanentMarker'" font-size="31">iiiiiiiiiiiiiiiiiii</tspan><tspan x="0" y="240" font-family="'PermanentMarker'" font-size="31">iiiiiiiiiiiiiiiiiiiiiiiiiiiiiiiiiiiiii</tspan><tspan x="377.3" y="240" fill="#1C75BC" font-family="'PermanentMarker'" font-size="31">i</tspan><tspan x="387.3" y="240" font-family="'PermanentMarker'" font-size="31">iiiiiiiiiii</tspan><tspan x="0" y="270" font-family="'PermanentMarker'" font-size="31">iiiiiiiiiiiiiiiiiiiiiiiii</tspan><tspan x="248.2" y="270" fill="#1C75BC" font-family="'PermanentMarker'" font-size="31">i</tspan><tspan x="258.2" y="270" font-family="'PermanentMarker'" font-size="31">iiiiiiiiiiiiiiiiiiiiiiii</tspan><tspan x="0" y="300" font-family="'PermanentMarker'" font-size="31">iiiii</tspan><tspan x="49.6" y="300" fill="#1C75BC" font-family="'PermanentMarker'" font-size="31">i</tspan><tspan x="59.6" y="300" font-family="'PermanentMarker'" font-size="31">iiiiiiiiiii</tspan><tspan x="168.8" y="300" fill="#1C75BC" font-family="'PermanentMarker'" font-size="31">i</tspan><tspan x="178.7" y="300" font-family="'PermanentMarker'" font-size="31">iiiiiiiiiiiiiiiiiiiiiiiiiiiiiii</tspan><tspan x="486.6" y="300" fill="#1C75BC" font-family="'PermanentMarker'" font-size="31">i</tspan><tspan x="0" y="330" font-family="'PermanentMarker'" font-size="31">iiiiiiiiiiiiiiiiiiiiiiiiiiiiiiiiiiiiiii</tspan><tspan x="387.3" y="330" fill="#1C75BC" font-family="'PermanentMarker'" font-size="31">i</tspan><tspan x="397.2" y="330" font-family="'PermanentMarker'" font-size="31">iiiiiiiiii</tspan><tspan x="0" y="360" font-family="'PermanentMarker'" font-size="31">iiiiiiii</tspan><tspan x="79.4" y="360" fill="#1C75BC" font-family="'PermanentMarker'" font-size="31">i</tspan><tspan x="89.4" y="360" font-family="'PermanentMarker'" font-size="31">iiiiiiiiiii</tspan><tspan x="198.6" y="360" fill="#1C75BC" font-family="'PermanentMarker'" font-size="31">i</tspan><tspan x="208.5" y="360" font-family="'PermanentMarker'" font-size="31">iiiiiiiiiiiiiiiiiiiiiiiiiiiii</tspan></text>
<text transform="matrix(1 0 0 1 46.5703 433.5728)" font-family="'PermanentMarker'" font-size="31">all the books, movies, articles... in the world</text>
<text transform="matrix(1 0 0 1 1.2208 465.427)"><tspan x="0" y="0" fill="#1C75BC" font-family="'PermanentMarker'" font-size="31">everything that would completely change your way</tspan><tspan x="12.1" y="30" fill="#1C75BC" font-family="'PermanentMarker'" font-size="31">of seeing things and make your whole life better</tspan></text>
<text transform="matrix(1 0 0 1 37.5645 527.2812)" fill="#C32026" font-family="'PermanentMarker'" font-size="31">everything you’ll read / watch in your lifetime</text>
<path fill="none" stroke="#C32026" stroke-width="7" stroke-linecap="round" stroke-linejoin="round" stroke-miterlimit="10" d="
	M142.9,8.7c1,18.4,2.1,36.7,3.1,55.1c0.1,1.2,0.2,2.5,1.8,3.5c3.1,2,10,2.2,15.9,2.2c21.8-0.1,43.5-0.3,65.3-0.4
	c5.4,0,11.4-0.2,14.9-1.8c3-1.4,3.1-3.4,3.1-5.3c-0.2-15.2-0.5-30.4-0.7-45.6c0-2.7-0.4-5.6-5-7.5c-5-2-13.1-2-20.2-1.9
	c-25.7,0.6-51.5,1.1-77.2,1.7"/>
</svg>
