<?xml version="1.0" encoding="utf-8"?>
<!-- Generator: Adobe Illustrator 18.0.0, SVG Export Plug-In . SVG Version: 6.00 Build 0)  -->
<!DOCTYPE svg PUBLIC "-//W3C//DTD SVG 1.1//EN" "http://www.w3.org/Graphics/SVG/1.1/DTD/svg11.dtd">
<svg version="1.1" id="Layer_1" xmlns="http://www.w3.org/2000/svg" xmlns:xlink="http://www.w3.org/1999/xlink" x="0px" y="0px"
	 viewBox="0 0 404.5 416.7" enable-background="new 0 0 404.5 416.7" xml:space="preserve">
<path fill="none" stroke="#FFFFFF" stroke-width="120" stroke-linejoin="bevel" stroke-miterlimit="10" d="M57.2,2.9
	C55.4,13.7,47.7,22.4,39.9,30S23.5,45.1,19.4,55.2S17,78.9,26.5,84.2c6.8,3.9,15.6,2.4,22.4-1.6s12-10,17.3-15.8
	c34.6-37.7,78.2-67,126.1-85c-14.2,35-37.1,66.4-66.1,90.6c-23.9,20-51.8,35.2-73.4,57.7s-36.1,55.9-24.7,84.9
	c2.1,5.3,5.5,10.7,11,12c5.7,1.4,11.3-2.1,16.1-5.5c56.6-40.3,106.3-90.2,146.4-146.9c10.8-15.3,21-31.2,34.3-44.3
	c13.3-13.1,30.4-23.5,49-24.8c6.7,24.4-2.6,50.8-17.8,71c-15.2,20.2-35.8,35.5-55.4,51.5c-41.3,33.8-78.9,71.9-114.9,111.4
	c-22.1,24.3-43.6,49.2-62.7,75.9c-7.9,11.1-15.6,23-17.2,36.5c-1.6,13.5,4.7,28.9,17.5,33.4c10.6,3.7,22.6-0.8,31.1-8.3
	s14.2-17.4,20.5-26.7c31.9-46.9,80.3-79.7,117.8-122.3C261.3,163,290.9,77.5,346.2,10.6c5.6-6.8,12.5-13.9,21.3-14.4
	c9.9-0.5,18.5,8.2,21,17.8c2.5,9.6,0.3,19.8-2.6,29.3c-14.1,47-43.4,87.8-72.2,127.5c-47.9,66-96.6,133-161.2,182.8
	c-8.7,6.7-17.8,13.2-24.4,22c-6.6,8.8-10.3,20.6-6.7,31c12.4,8.3,29.9,2.8,41-7.2c11.1-10,18.1-23.6,27.6-35.2
	c26.2-31.8,69.8-46,94.4-79.1c5.7-7.6,10.2-16.1,16.8-23.1c6.5-6.9,15.8-12.2,25.2-10.9c8.7,1.2,15.8,7.8,20,15.6
	c4.1,7.7,5.7,16.5,7.2,25.1c3.3,18.9,6.7,37.7,10,56.6c3.3,19,5.3,41.9-9.5,54.1c-11.2,9.3-28.7,7.9-40.7-0.4
	c-12-8.3-19.1-22.1-23-36.1c-1.7-6-2.9-12.3-6.3-17.5s-9.7-9.2-15.8-7.6c-7.2,1.9-10.4,10-13.3,16.9c-9.8,22.7-28.6,41.3-51.4,50.7"
	/>
<g>
	
		<line fill="none" stroke="#000000" stroke-width="7" stroke-linecap="round" stroke-linejoin="round" stroke-miterlimit="10" x1="46.7" y1="61" x2="46.7" y2="409.7"/>
	
		<line fill="none" stroke="#000000" stroke-width="7" stroke-linecap="round" stroke-linejoin="round" stroke-miterlimit="10" x1="372.3" y1="387.4" x2="23.6" y2="387.4"/>
</g>
<g>
	
		<polyline fill="none" stroke="#000000" stroke-width="7" stroke-linecap="round" stroke-linejoin="round" stroke-miterlimit="10" points="
		350.3,364.9 372.3,387.4 350.3,409.9 	"/>
	<text transform="matrix(1 0 0 1 249.8242 353.3315)" font-family="'PermanentMarker'" font-size="31">cuteness</text>
</g>
<g>
	
		<polyline fill="none" stroke="#000000" stroke-width="7" stroke-linecap="round" stroke-linejoin="round" stroke-miterlimit="10" points="
		24.2,83 46.7,61 69.2,83 	"/>
	<text transform="matrix(1 0 0 1 4 33.3071)" font-family="'PermanentMarker'" font-size="30.7418">unethicalness of eating it</text>
</g>
<path fill="none" stroke="#ED1E79" stroke-width="7" stroke-linecap="round" stroke-linejoin="round" stroke-miterlimit="10" d="
	M51.8,382.3c91.4-15.2,185.1-47.4,245.5-117.7c46.2-53.8,68-124,85.8-192.7"/>
<g>
	<g>
		<text transform="matrix(1 0 0 1 78.197 280.0029)" font-family="'PermanentMarker'" font-size="30.7418">pigs</text>
	</g>
	<path fill="none" stroke="#000000" stroke-width="7" stroke-linecap="round" stroke-miterlimit="10" d="M93.1,363
		c-4.7-7.3-4.5-16.8-2.1-25.2c2.4-8.3,6.9-15.9,10.6-23.7c3.7-7.9,6.7-16.4,5.7-25.1"/>
</g>
<g>
	<text transform="matrix(1 0 0 1 201.0269 100.0605)"><tspan x="0" y="0" font-family="'PermanentMarker'" font-size="30.7418">obese</tspan><tspan x="-4" y="24" font-family="'PermanentMarker'" font-size="30.7418">koala</tspan><tspan x="0.4" y="48" font-family="'PermanentMarker'" font-size="30.7418">bears</tspan></text>
	<path fill="none" stroke="#000000" stroke-width="7" stroke-linecap="round" stroke-miterlimit="10" d="M364.7,103.2
		c-4-3.4-9.2-5.2-14.5-5.2c-9.2,0.1-17.3,5.9-25.1,10.8c-7.8,4.9-17.1,9.4-26,6.7"/>
</g>
</svg>
