<?xml version="1.0" encoding="utf-8"?>
<!-- Generator: Adobe Illustrator 18.0.0, SVG Export Plug-In . SVG Version: 6.00 Build 0)  -->
<!DOCTYPE svg PUBLIC "-//W3C//DTD SVG 1.1//EN" "http://www.w3.org/Graphics/SVG/1.1/DTD/svg11.dtd">
<svg version="1.1" id="Layer_1" xmlns="http://www.w3.org/2000/svg" xmlns:xlink="http://www.w3.org/1999/xlink" x="0px" y="0px"
	 viewBox="0 0 657.3 426.7" enable-background="new 0 0 657.3 426.7" xml:space="preserve">
<path fill="none" stroke="#FFFFFF" stroke-width="120" stroke-linejoin="bevel" stroke-miterlimit="10" d="M22.2,3.7
	c-4.9,25.4-9.8,50.7-14.8,76.1c35-25.9,70-51.8,105-77.7c-11.6,34.6-23.2,69.2-34.7,103.9c45.1-34.2,90.2-68.5,135.4-102.7
	c-9.4,28.5-18.8,56.9-28.3,85.4c40-32.8,79.9-65.6,119.9-98.4c-9.7,28.5-19.5,57-29.2,85.5c36.3-14.7,72.6-29.4,108.9-44.1
	C374,49.3,363.5,67.1,353,84.9c15-11.8,36.7-10.7,54.3-3.6s32.5,19.6,48.5,29.8c40.3,25.8,88.9,38.3,136.6,35.1
	c37,51.2,48.3,139.7,37.6,201.9c-13.4-38.5-36.6-94.1-71.5-115.2c3.8,40.1,3.1,80.6-2.3,120.5c-5.2-49.5-34.9-95.7-77.7-121
	c-3.4,28,6.3,87.7,2.9,115.7c-23-68.2-59-168.1-81.9-236.3c-0.7,100.2-1.4,200.3-2.2,300.5c-19.7-37.6-39.3-75.2-59-112.8
	c-13.1,30.7-26.1,61.5-39.2,92.2c-59.9-5.7-119.8-11.3-179.5-18.3c-27.5-3.2-57.8-8.3-75.1-29.9c-11.6-14.6-15-33.9-17.9-52.3
	C15.5,221.7,5.2,147,36,83.8c5.6,76.5,32.3,151.3,76.4,214c-1.4-28.8-2.7-57.6-4.1-86.4c-0.5-10.4,1-23.8,11.1-26.6
	c11.7-3.2,19.8,11.5,23,23.2c10,36.2,19.9,72.4,29.9,108.5c10.6-42,31.5-81.5,60.3-113.9c17,47.5,33.9,95,50.9,142.6
	c-7.7-38.1,0.6-79.2,22.5-111.3"/>
<g>
	
		<line fill="none" stroke="#000000" stroke-width="7" stroke-linecap="round" stroke-linejoin="round" stroke-miterlimit="10" x1="652" y1="325.7" x2="5.3" y2="325.7"/>
	
		<line fill="none" stroke="#000000" stroke-width="7" stroke-linecap="round" stroke-linejoin="round" stroke-miterlimit="10" x1="27.8" y1="95.6" x2="27.8" y2="356.3"/>
</g>
<g>
	
		<polyline fill="none" stroke="#000000" stroke-width="7" stroke-linecap="round" stroke-linejoin="round" stroke-miterlimit="10" points="
		630,303.2 652,325.7 630,348.2 	"/>
	<text transform="matrix(1 0 0 1 443.0728 260.8117)"><tspan x="0" y="0" font-family="'PermanentMarker'" font-size="31">length of the</tspan><tspan x="21.1" y="30" font-family="'PermanentMarker'" font-size="31">relationship</tspan></text>
</g>
<g>
	
		<polyline fill="none" stroke="#000000" stroke-width="7" stroke-linecap="round" stroke-linejoin="round" stroke-miterlimit="10" points="
		5.3,117.6 27.8,95.6 50.3,117.6 	"/>
	<text transform="matrix(1 0 0 1 3.312 54.2028)"><tspan x="0" y="0" fill="#4A2661" font-family="'PermanentMarker'" font-size="31">how much this relationship</tspan><tspan x="0" y="30" fill="#4A2661" font-family="'PermanentMarker'" font-size="31">seems like a good idea</tspan></text>
</g>
<path fill="none" stroke="#4A2661" stroke-width="7" stroke-linecap="round" stroke-linejoin="round" stroke-miterlimit="10" d="
	M37.1,212.4c60.2-16.5,123.8-30.5,183.4-10.7c40.1,13.3,75.7,41.3,105.9,74.7c30.2,33.3,55.7,72,80.9,110.5
	c1.1-74.4,11.8-213.8,12.9-288.2c35.1,48.2,156.4,74.2,209.8,62.2"/>
<g>
	<path fill="none" stroke="#221F1F" stroke-width="7" stroke-linecap="round" stroke-linejoin="round" stroke-miterlimit="10" d="
		M403.5,395.5c0.6,9.3-5.6,18.4-13.9,22.6c-8.3,4.3-18.4,4.2-27.4,1.4c-8.9-2.8-16.8-8.2-24-14.3c-6-5.1-11.8-10.8-18.8-14.4
		c-7.1-3.6-16-4.8-22.7-0.6"/>
	<path fill="none" stroke="#221F1F" stroke-width="7" stroke-linecap="round" stroke-linejoin="round" stroke-miterlimit="10" d="
		M392.3,402.7c4.1-2.7,8.2-5.4,12.3-8.1c2.1,4.5,4.3,8.9,6.4,13.4"/>
	<text transform="matrix(1 0 0 1 138.7363 401.6696)" fill="#221F1F" font-family="'PermanentMarker'" font-size="31">break-up</text>
</g>
<text transform="matrix(1 0 0 1 3.312 25.1676)" fill="#085C56" font-family="'PermanentMarker'" font-size="31">existential loneliness</text>
<path fill="none" stroke="#085C56" stroke-width="7" stroke-linecap="round" stroke-linejoin="round" stroke-miterlimit="10" d="
	M37.4,225.9c17.3,28.2,42.5,44.4,72.9,57.4s63.3,19.2,96.1,23.8c63.8,8.8,128.4,11.8,192.7,8.8c2.6-76.3,8.2-168.9,10.9-245.3
	c65.9,49.7,126.6,73.7,220,71.6"/>
</svg>
