<?xml version="1.0" encoding="utf-8"?>
<!-- Generator: Adobe Illustrator 18.0.0, SVG Export Plug-In . SVG Version: 6.00 Build 0)  -->
<!DOCTYPE svg PUBLIC "-//W3C//DTD SVG 1.1//EN" "http://www.w3.org/Graphics/SVG/1.1/DTD/svg11.dtd">
<svg version="1.1" id="Layer_1" xmlns="http://www.w3.org/2000/svg" xmlns:xlink="http://www.w3.org/1999/xlink" x="0px" y="0px"
	 viewBox="0 0 631 310" enable-background="new 0 0 631 310" xml:space="preserve">
<path fill="none" stroke="#FFFFFF" stroke-width="120" stroke-linejoin="bevel" stroke-miterlimit="10" d="M625.2,16.8
	C423.4,5.7,220.9,7.3,19.3,21.7c-1.8,76.2-3.5,152.4-5.3,228.6c-0.3,12.8,2.6,29.7,15.4,31.5c10.1,1.4,17.8-8.6,23.1-17.3
	c28.9-47.5,57.7-94.9,86.6-142.4c4.6-7.5,9.3-15.2,16.4-20.5s17-7.6,24.7-3.4c7.4,4,10.9,12.9,12.2,21.2c4.7,30-11.1,59.5-29.5,83.6
	s-40.6,46.2-52.4,74.3c16.7,4.4,33.6,8.9,50.9,8.7s35.2-5.4,47.2-17.9c15.6-16.3,18.1-41,16.5-63.5c-1.5-22.5-6.2-45.2-1.5-67.3
	c6.6-1.1,10.7,6.9,12.6,13.4c10,34.7,20,69.5,30,104.2c117.3-0.3,247.8,0.3,365.1,0.1"/>
<g>
	
		<polyline fill="none" stroke="#000000" stroke-width="7" stroke-linecap="round" stroke-linejoin="round" stroke-miterlimit="10" points="
		8.5,60.2 31,38.2 53.5,60.2 	"/>
	
		<line fill="none" stroke="#000000" stroke-width="7" stroke-linecap="round" stroke-linejoin="round" stroke-miterlimit="10" x1="31" y1="287.1" x2="31" y2="38.1"/>
	
		<line fill="none" stroke="#000000" stroke-width="7" stroke-linecap="round" stroke-linejoin="round" stroke-miterlimit="10" x1="9" y1="264.6" x2="555" y2="264.6"/>
	
		<polyline fill="none" stroke="#000000" stroke-width="7" stroke-linecap="round" stroke-linejoin="round" stroke-miterlimit="10" points="
		533,242.1 555,264.6 533,287.1 	"/>
</g>
<text transform="matrix(1 0 0 1 4.5 22.5137)" font-family="'PermanentMarker'" font-size="30.74">how far ahead i think i can plan my life</text>
<text transform="matrix(1 0 0 1 568.9995 272.9326)" font-family="'PermanentMarker'" font-size="30.74">age</text>
<path fill="none" stroke="#29ABE2" stroke-width="7" stroke-linecap="round" stroke-miterlimit="10" d="M32,264.6
	c27-0.2,48.5-23.7,59.1-48.6s13.8-52.4,24.5-77.2s32.5-48.1,59.5-48c20.5,0.1,39,14,49.8,31.4s15.1,38,18.4,58.2
	c3.4,20.2,6,40.8,14,59.7c4.6,10.8,13.2,22.2,25,21.6c16.3-0.9,24.3-23.9,40.5-25.2c18.1-1.5,30.1,25.1,48,22.2
	c15.8-2.5,22.9-26.7,38.9-25.5c15.2,1.2,21.1,25.1,36.3,25.6c9.6,0.3,16.2-8.9,23.8-14.8c9.7-7.5,23.2-9.9,34.9-6.2
	c11.7,3.7,21.3,13.4,24.9,25.2"/>
<g>
	<path fill="none" stroke="#C1272D" stroke-width="7" stroke-linecap="round" stroke-miterlimit="10" d="M112.6,258.7
		c-3.9,4.1-7.7,8.3-11.6,12.4"/>
	<path fill="none" stroke="#C1272D" stroke-width="7" stroke-linecap="round" stroke-miterlimit="10" d="M134.3,257.7
		c-5.2,3.8-9.8,8.6-13.4,14"/>
	<path fill="none" stroke="#C1272D" stroke-width="7" stroke-linecap="round" stroke-miterlimit="10" d="M155.6,258.9
		c-4.8,4-9.5,8.1-14.3,12.1"/>
	<path fill="none" stroke="#C1272D" stroke-width="7" stroke-linecap="round" stroke-miterlimit="10" d="M176.6,257.6
		c-4.9,4.9-9.8,9.8-14.7,14.7"/>
	<path fill="none" stroke="#C1272D" stroke-width="7" stroke-linecap="round" stroke-miterlimit="10" d="M196.9,257.9
		c-4.5,4.7-9,9.4-13.6,14.1"/>
	<path fill="none" stroke="#C1272D" stroke-width="7" stroke-linecap="round" stroke-miterlimit="10" d="M215.3,258.6
		c-1.9,2.7-3.9,5.5-5.8,8.2c-1,1.5-2,3-3,4.4"/>
	<path fill="none" stroke="#C1272D" stroke-width="7" stroke-linecap="round" stroke-miterlimit="10" d="M237,258.6
		c-4.5,3.2-8.2,7.7-10.5,12.8"/>
	<text transform="matrix(1 0 0 1 108.6665 305.3335)" fill="#C1272D" font-family="'PermanentMarker'" font-size="30.74">college</text>
</g>
</svg>
