<?xml version="1.0" encoding="utf-8"?>
<!-- Generator: Adobe Illustrator 18.0.0, SVG Export Plug-In . SVG Version: 6.00 Build 0)  -->
<!DOCTYPE svg PUBLIC "-//W3C//DTD SVG 1.1//EN" "http://www.w3.org/Graphics/SVG/1.1/DTD/svg11.dtd">
<svg version="1.1" id="Layer_1" xmlns="http://www.w3.org/2000/svg" xmlns:xlink="http://www.w3.org/1999/xlink" x="0px" y="0px"
	 viewBox="0 0 862.5 618" enable-background="new 0 0 862.5 618" xml:space="preserve">
<path fill="none" stroke="#FFFFFF" stroke-width="120" stroke-linejoin="bevel" stroke-miterlimit="10" d="M42.7,2.4
	C31,31.9,19.2,61.4,7.5,90.9c49.1-36.2,98.2-72.5,147.4-108.7c-27.6,58.6-96.3,109.4-123.8,168c74.4-50.3,238.6-93.7,313-144
	C322.2,65.7,251.8,126.1,230,185.6c18.3,8.8,39-4.9,54.6-17.9c54-44.8,108.1-89.6,162.1-134.4c27.6,40.8,9.3,104.6-35.7,124.5
	c-25.5,11.3-54.7,9.3-82.5,7.1c-50.4-4-100.7-7.9-151.1-11.9c-25-2-52-3.5-73.2,9.9c-16.4,10.4-26.6,28.1-34.9,45.6
	c-43.8,91.9-54.7,199-30.3,297.9c5.3,21.6,12.7,43.5,28,59.7c15.3,16.1,102,24.5,122.1,15.1c-11.2-93.2-84-186.2-95.1-279.4
	c0.9,73.8,1.9,147.6,2.8,221.4c18.1-2.2,33.2-15.4,43-30.8c9.8-15.4,15.1-33,21.5-50.1c22.4-59.8,58.9-114.3,105.5-157.9
	c-26.2,36.1-46.6,76.3-60.2,118.8c-4.4,13.8-8.2,28.3-6.5,42.6s9.9,28.8,23.3,34.2c13.1,5.3,28.7,0.8,39.6-8.1
	c10.9-9,18-21.8,23.6-34.8c22.7-53,24.4-112.4,38.9-168.2c14.5-55.8,48.2-113.5,104.1-127.7c-44.9,115.8-87,232.7-126.2,350.6
	c41.8-21.8,65.1-67.9,77.3-113.4c12.3-45.5,16.3-93.2,33.3-137.2c17-44,51.1-85.6,97.6-93.3c-23.9,80.4-47.8,160.8-71.7,241.3
	c-10.1,34.1-20.3,70.4-11.1,104.8c52.1-36.9,72.6-103.2,91.5-164.3c18.9-61,43.8-127,99.7-157.9c22.6,34.9,18.1,81.5,1.6,119.7
	c-16.5,38.2-43.4,70.7-65.5,106c-22.1,35.2-40,75.8-35.2,117.1c33.2-4.4,51.6-39.7,64.6-70.6c40.1-95.5,80.2-191.1,120.3-286.6
	c19.9,56.3,4.2,118.7-16.1,174.9s-45.7,112.7-44.9,172.4c0.2,15,5.3,33.6,20.1,35.9c16.6,2.6,26.6-17.4,31.4-33.5
	c32.4-108.9,75.9-214.4,129.6-314.4c35.8,71.6,35.9,160,0.2,231.6c-15.5,31.2-37.2,58.9-54.7,89.1s-31,64.4-27.7,99.1"/>
<g>
	
		<line fill="none" stroke="#000000" stroke-width="7" stroke-linecap="round" stroke-miterlimit="10" x1="43.6" y1="501" x2="838.5" y2="501"/>
	
		<line fill="none" stroke="#000000" stroke-width="7" stroke-linecap="round" stroke-miterlimit="10" x1="66.1" y1="523.5" x2="66.1" y2="171.1"/>
	
		<polyline fill="none" stroke="#010101" stroke-width="7" stroke-linecap="round" stroke-linejoin="round" stroke-miterlimit="10" points="
		43.6,193.1 66.1,171.1 88.6,193.1 	"/>
	
		<polyline fill="none" stroke="#010101" stroke-width="7" stroke-linecap="round" stroke-linejoin="round" stroke-miterlimit="10" points="
		816.5,478.5 838.5,501 816.5,523.5 	"/>
</g>
<g>
	
		<line fill="none" stroke="#000000" stroke-width="7" stroke-linecap="round" stroke-miterlimit="10" x1="102.1" y1="490.3" x2="102.1" y2="511.6"/>
	<text transform="matrix(1 0 0 1 89.0526 543.184)"><tspan x="0" y="0" font-family="'PermanentMarker'" font-size="30.74">head</tspan><tspan x="0" y="30" font-family="'PermanentMarker'" font-size="30.74">hits</tspan><tspan x="0" y="60" font-family="'PermanentMarker'" font-size="30.74">pillow</tspan></text>
</g>
<g>
	
		<line fill="none" stroke="#000000" stroke-width="7" stroke-linecap="round" stroke-miterlimit="10" x1="765.1" y1="491.9" x2="765.1" y2="513.9"/>
	<text transform="matrix(1 0 0 1 696.2751 544.9575)"><tspan x="0" y="0" font-family="'PermanentMarker'" font-size="30.74">alarm</tspan><tspan x="6.6" y="30" font-family="'PermanentMarker'" font-size="30.74">clock</tspan><tspan x="15.6" y="60" font-family="'PermanentMarker'" font-size="30.74">rings</tspan></text>
</g>
<text transform="matrix(0 -1 1 0 38.9985 411.0044)" font-family="'PermanentMarker'" font-size="30.74">thoughts</text>
<text transform="matrix(1 0 0 1 30.61 155.1821)" fill="#626CB2" font-family="'PermanentMarker'" font-size="30.74">item #1 to #4 on todo-list</text>
<path fill="none" stroke="#626CB2" stroke-width="7" stroke-linecap="round" stroke-linejoin="round" stroke-miterlimit="10" d="
	M75.3,496.3c49.6-25.2,88.5-70.6,105.8-123.4c6.2-19,9.8-39,18.4-57c8.7-18,23.9-34.5,43.6-37.7c25.5-4.2,49.5,14.8,62.8,36.9
	c13.3,22.1,19.7,47.8,32.5,70.2c23.8,41.9,68.3,68.9,114.8,82s95.3,13.9,143.5,14.6c31.2,0.5,63.9,0.6,91.7-13.5
	c37.7-19.1,58.4-59.7,76.7-97.7c19.1-39.6,38.1-79.2,57.2-118.8"/>
<text transform="matrix(1 0 0 1 31.0605 125.1821)" fill="#FFDD00" font-family="'PermanentMarker'" font-size="30.74">need to pee</text>
<path fill="none" stroke="#FFDD00" stroke-width="7" stroke-linecap="round" stroke-linejoin="round" stroke-miterlimit="10" d="
	M73.1,477.2c9,0.6,17.9,1.2,26.9,1.8c4.3-52.7,8.7-105.3,13-158c12.1,63.9,67.8,112.5,128.9,134.7c61.1,22.2,127.6,22.7,192.7,22.9
	c44.2,0.2,88.4,0.3,132.6,0.5c30.9,0.1,63.1-0.1,90.7-14.1c45.3-23,65.3-75.9,81.4-124.1s35.8-101.1,81-124.5"/>
<g>
	<g>
		
			<line fill="none" stroke="#000000" stroke-width="7" stroke-linecap="round" stroke-miterlimit="10" x1="376.1" y1="184" x2="376.1" y2="197"/>
		
			<line fill="none" stroke="#000000" stroke-width="7" stroke-linecap="round" stroke-miterlimit="10" x1="376.1" y1="209" x2="376.1" y2="219"/>
		
			<line fill="none" stroke="#000000" stroke-width="7" stroke-linecap="round" stroke-miterlimit="10" x1="376.1" y1="234" x2="376.1" y2="253"/>
		
			<line fill="none" stroke="#000000" stroke-width="7" stroke-linecap="round" stroke-miterlimit="10" x1="376.1" y1="272" x2="376.1" y2="286"/>
		
			<line fill="none" stroke="#000000" stroke-width="7" stroke-linecap="round" stroke-miterlimit="10" x1="376.1" y1="301" x2="376.1" y2="319"/>
		
			<line fill="none" stroke="#000000" stroke-width="7" stroke-linecap="round" stroke-miterlimit="10" x1="376.1" y1="335" x2="376.1" y2="348"/>
		
			<line fill="none" stroke="#000000" stroke-width="7" stroke-linecap="round" stroke-miterlimit="10" x1="376.1" y1="369" x2="376.1" y2="381"/>
		
			<line fill="none" stroke="#000000" stroke-width="7" stroke-linecap="round" stroke-miterlimit="10" x1="376.1" y1="400" x2="376.1" y2="414"/>
		
			<line fill="none" stroke="#000000" stroke-width="7" stroke-linecap="round" stroke-miterlimit="10" x1="376.1" y1="427" x2="376.1" y2="441"/>
		
			<line fill="none" stroke="#000000" stroke-width="7" stroke-linecap="round" stroke-miterlimit="10" x1="376.1" y1="455" x2="376.1" y2="465"/>
		
			<line fill="none" stroke="#000000" stroke-width="7" stroke-linecap="round" stroke-miterlimit="10" x1="376.1" y1="484" x2="376.1" y2="501"/>
	</g>
	<g>
		
			<line fill="none" stroke="#000000" stroke-width="7" stroke-linecap="round" stroke-miterlimit="10" x1="669.8" y1="184" x2="669.8" y2="197"/>
		
			<line fill="none" stroke="#000000" stroke-width="7" stroke-linecap="round" stroke-miterlimit="10" x1="669.8" y1="213.5" x2="669.8" y2="234.5"/>
		
			<line fill="none" stroke="#000000" stroke-width="7" stroke-linecap="round" stroke-miterlimit="10" x1="669.8" y1="246.6" x2="669.8" y2="268.6"/>
		
			<line fill="none" stroke="#000000" stroke-width="7" stroke-linecap="round" stroke-miterlimit="10" x1="669.8" y1="284.1" x2="669.8" y2="298.1"/>
		
			<line fill="none" stroke="#000000" stroke-width="7" stroke-linecap="round" stroke-miterlimit="10" x1="669.8" y1="317.2" x2="669.8" y2="332.2"/>
		
			<line fill="none" stroke="#000000" stroke-width="7" stroke-linecap="round" stroke-miterlimit="10" x1="669.8" y1="349.7" x2="669.8" y2="366.7"/>
		
			<line fill="none" stroke="#000000" stroke-width="7" stroke-linecap="round" stroke-miterlimit="10" x1="669.8" y1="386.3" x2="669.8" y2="397.3"/>
		
			<line fill="none" stroke="#000000" stroke-width="7" stroke-linecap="round" stroke-miterlimit="10" x1="669.8" y1="416.8" x2="669.8" y2="433.8"/>
		
			<line fill="none" stroke="#000000" stroke-width="7" stroke-linecap="round" stroke-miterlimit="10" x1="669.8" y1="451.4" x2="669.8" y2="466.4"/>
		
			<line fill="none" stroke="#000000" stroke-width="7" stroke-linecap="round" stroke-miterlimit="10" x1="669.8" y1="483.9" x2="669.8" y2="501"/>
	</g>
</g>
<g>
	
		<line fill="none" stroke="#000000" stroke-width="7" stroke-linecap="round" stroke-miterlimit="10" x1="386.7" y1="192.7" x2="657.1" y2="192.7"/>
	
		<polyline fill="none" stroke="#010101" stroke-width="7" stroke-linecap="round" stroke-linejoin="round" stroke-miterlimit="10" points="
		400.9,178.1 386.7,192.7 400.9,207.3 	"/>
	
		<polyline fill="none" stroke="#010101" stroke-width="7" stroke-linecap="round" stroke-linejoin="round" stroke-miterlimit="10" points="
		642.9,178.1 657.1,192.7 642.9,207.3 	"/>
</g>
<path fill="none" stroke="#FFFFFF" stroke-width="60" stroke-linejoin="round" stroke-miterlimit="10" d="M469.3,186.1
	c16.8-2.3,33.9,1.2,50.2,6c16.3,4.8,32.3,10.8,49,13.6"/>
<text transform="matrix(1 0 0 1 472.9834 173.666)"><tspan x="0" y="0" font-family="'PermanentMarker'" font-size="30.74">actual</tspan><tspan x="10.9" y="30" font-family="'PermanentMarker'" font-size="30.74">sleep</tspan><tspan x="17.5" y="60" font-family="'PermanentMarker'" font-size="30.74">time</tspan></text>
<g>
	<text transform="matrix(1 0 0 1 30.61 95.1822)" fill="#ED1164" font-family="'PermanentMarker'" font-size="30.74">the most recent break-up</text>
</g>
<path fill="none" stroke="#ED1164" stroke-width="7" stroke-linecap="round" stroke-linejoin="round" stroke-miterlimit="10" d="
	M73.5,385.8c7.4,14.4,29.3,11.6,42.9,2.7s26.1-22,42.3-22.2c21.3-0.3,36,21.6,56.2,28.6c22.6,7.8,46.8-4.5,67.2-16.9
	c20.4-12.4,43.5-25.8,66.8-20.2c19.9,4.8,34,22.6,42.9,41.1s14,38.7,24.5,56.3c10.5,17.6,28.6,32.8,49.1,31.8
	c18.2-0.9,33.8-14.5,42.1-30.7c8.3-16.2,10.8-34.6,13.1-52.7c2.9-22.7,5.8-45.5,8.7-68.2c1-7.9,3.2-17.4,10.7-20.1
	c6-2.1,12.9,1.6,16.4,6.9c3.5,5.3,4.6,11.9,5.5,18.2c4.3,29.2,8.6,58.5,12.9,87.7c3,20.1,7,42.2,22.8,55
	c14.3,11.7,35.5,12.3,52.5,5.1c17-7.2,30.4-21,41.1-36.1c11.9-16.8,21.2-35.5,34.5-51.1c13.3-15.7,32.1-28.6,52.7-27.9
	c20.4,0.6,38,14.1,53.9,26.9"/>
<text transform="matrix(1 0 0 1 30.6103 65.1822)" fill="#39B54A" font-family="'PermanentMarker'" font-size="30.74">top ranking shameful memory</text>
<path fill="none" stroke="#39B54A" stroke-width="7" stroke-linecap="round" stroke-linejoin="round" stroke-miterlimit="10" d="
	M71,485.4c55.7-0.8,147,17.6,167-2.5s20.8-132.6,29.2-132.7c8.4-0.2,13.5,74.9,31.2,107.9c8,14.9,19.4,29.6,35.4,33.8
	c19.4,5.1,39.9-7.2,51.2-24.2s15.4-37.9,19.3-58.1c5.8-30.3,11.6-60.6,17.4-90.9c2.7-14.1,10.3-32,24.1-29.8
	c10,1.6,14.8,13.2,17.2,23.3c2.4,10.1,5.1,21.8,14.2,26.2c9.9,4.8,21.7-2.3,28.1-11.5c6.4-9.2,9.6-20.4,16.2-29.4
	c6.6-9,18.9-15.5,28.4-10c14.8,8.6,12.5,38.8,29.4,39.7c9.5,0.5,15.7-9.9,19.3-19s8.2-19.8,17.5-21.4c13.2-2.3,20.7,14.7,23.6,28.2
	c11.6,54.1,20.7,146.4,34.9,162.2s93.9,1.3,129.6,1.3"/>
<text transform="matrix(1 0 0 1 30.6099 35.1822)" fill="#E68A1B" font-family="'PermanentMarker'" font-size="30.74">sex &amp; flying unicorns</text>
<path fill="none" stroke="#E68A1B" stroke-width="7" stroke-linecap="round" stroke-linejoin="round" stroke-miterlimit="10" d="
	M388.5,500.4c23-16.8,40.7-40.7,50.2-67.5c3.9-10.9,7.8-23.9,18.7-27.9c10.7-3.9,22.7,3.8,27.9,13.9c5.2,10.1,5.5,21.9,6.3,33.3
	c0.8,11.3,2.6,23.4,10.1,32c12.7,14.7,37.6,12.9,52.8,0.6c15.1-12.3,22.4-31.7,27-50.6c1.9-7.8,3.6-15.8,7.9-22.5
	c4.3-6.7,12.1-12,20-10.7c6.7,1.1,11.9,6.5,14.9,12.5s4.1,12.8,5.6,19.4c5.5,23.5,17.4,45.6,33.9,63.2"/>
</svg>
