<?xml version="1.0" encoding="utf-8"?>
<!-- Generator: Adobe Illustrator 19.2.0, SVG Export Plug-In . SVG Version: 6.00 Build 0)  -->
<svg version="1.1" id="Layer_1" xmlns="http://www.w3.org/2000/svg" xmlns:xlink="http://www.w3.org/1999/xlink" x="0px" y="0px"
	 width="559.66px" height="236.73px" viewBox="0 0 559.66 236.73" enable-background="new 0 0 559.66 236.73" xml:space="preserve">
<path fill="none" stroke="#FFFFFF" stroke-width="120" stroke-linejoin="bevel" stroke-miterlimit="10" d="M94.59,19.55
	c77.13-3.88,154.26-7.75,231.4-11.63c60.86-3.06,122.17-6.1,182.47,2.63c6.45,0.93,14.4,3.49,15.1,9.98
	c0.75,6.96-7.52,11.04-14.31,12.77c-52.13,13.23-106.66,12.28-160.43,11.36s-108.34-1.62-160.35,12.1S86.46,100.64,60.79,147.9
	c54.19-27.86,108.39-55.72,162.58-83.58c-9.87,19.29-19.75,38.58-29.62,57.87c34.7-27.54,69.39-55.07,104.09-82.61
	c-14.22,31.63-28.43,63.26-42.65,94.89c34.92-29.45,69.84-58.89,104.76-88.34c-9.14,27.81-18.28,55.61-27.42,83.42
	c33.26-17.96,66.52-35.92,99.78-53.88c-19.5,33.84-43.59,71.07-81.98,78.25c-31.29,5.85-61.81-10.42-92.09-20.23
	c-79.75-25.85-172.95-4.39-233.37,53.74c30.76-7.59,58.8-25.79,78.25-50.8c-7.26,17.51-14.52,35.03-21.78,52.54
	c24.19-9.17,45.71-25.28,61.32-45.91c-10.46,25.84-20.93,51.68-31.39,77.52c19.96-21.15,39.91-42.3,59.87-63.45
	c-3.94,14.45-7.89,28.91-11.83,43.36c31.21-20.92,62.43-41.84,93.64-62.76c-5.27,30.91-10.54,61.82-15.81,92.73
	c24.79-25.91,49.57-51.83,74.36-77.74c-3.1,14.25-6.2,28.5-9.29,42.75c30.89-11.47,59.18-29.86,82.21-53.43
	c-9.7,27.55-19.41,55.11-29.11,82.66c19.06-25.46,38.13-50.92,57.19-76.39c-9,12.88-17.28,29.39-10.67,43.64
	c8.05,17.36,34.21,18.67,49.6,7.31c15.4-11.36,22.64-30.44,29.1-48.45c0.21,12.39,0.42,24.78,0.64,37.17
	c9.85-15.18,19.7-30.36,29.55-45.54c1.97,21.81,3.95,43.62,5.92,65.43c7.4-17.7,14.8-35.41,22.21-53.11
	c5.42,23.57,10.84,47.14,16.26,70.71"/>
<text transform="matrix(1 0 0 1 124.682 26.9101)"><tspan x="0" y="0" font-family="'PermanentMarker'" font-size="30.74px">when i can’t hear </tspan><tspan x="272.28" y="0" font-family="'PermanentMarker'" font-size="30.74px">s</tspan><tspan x="285.94" y="0" font-family="'PermanentMarker'" font-size="30.74px">om</tspan><tspan x="330.3" y="0" font-family="'PermanentMarker'" font-size="30.74px">e</tspan><tspan x="346.04" y="0" font-family="'PermanentMarker'" font-size="30.74px">one</tspan></text>
<path fill="none" stroke="#000000" stroke-width="7" stroke-linecap="round" stroke-linejoin="round" stroke-miterlimit="10" d="
	M324.06,52.81c3.07,58.86,6.13,117.73,9.2,176.59"/>
<text transform="matrix(1 0 0 1 126.9876 88.4934)"><tspan x="0" y="0" font-family="'PermanentMarker'" font-size="30.74px">tell them i</tspan><tspan x="-32.33" y="30" font-family="'PermanentMarker'" font-size="30.74px">c</tspan><tspan x="-16.54" y="30" font-family="'PermanentMarker'" font-size="30.74px">o</tspan><tspan x="2.19" y="30" font-family="'PermanentMarker'" font-size="30.74px">uldn’t hear</tspan></text>
<path fill="none" stroke="#ED1C24" stroke-width="7" stroke-linecap="round" stroke-linejoin="round" stroke-miterlimit="10" d="
	M329.26,83.89c-0.33,12.24-0.27,17.39-0.61,29.63c0.16-13.13,2.73-19.27,2.89-32.4c1.64,9.98,0.47,20.08,2.11,30.06
	c0.1-6.73,0.2-13.46,0.3-20.18c1.36,8.73,2.71,17.45,4.07,26.18c0.07-9.82,0.25-23.39,0.31-33.21c1.72,9.49,3.33,22.72,5.06,32.21
	c-1.13-11.14-1.52-22.59,2.38-33.09c-0.27,13.58,1.41,22.33,1.14,35.91c0.77-12.8,1.45-20.72,2.23-33.52
	c1.54,9.55,3.08,19.11,4.61,28.66c0.59-9.74,1.17-19.47,1.76-29.21c0.46,8.83,0.92,17.67,1.38,26.5c1.88-7.5,3.76-15,5.64-22.51
	c-0.16,7.52-0.33,15.05-0.49,22.57c0.39-8.68,0.77-17.35,1.16-26.03c1.24,6.6,2.48,13.2,3.73,19.79c0.44-5.85,0.88-11.71,1.32-17.56
	c0.34,6.35-0.71,20.89-0.37,27.25c1.25-5.96,3.88-20.1,5.13-26.06c0.42,10.24,0.7,17.02,1.12,27.26
	c0.14-11.36,0.43-19.26,0.57-30.62c1.2,10.46,2.4,20.92,3.6,31.38c0.25-8.79,0.51-17.58,0.76-26.38c0.88,7.55,1.76,15.11,2.63,22.66
	c0.28-10.1,0.56-20.2,0.84-30.31c1.28,11.87,2.59,20.2,3.88,32.07c0.1-12.46,0.17-21.37,0.27-33.83c0.34,8.76,0.69,17.51,1.03,26.27
	c1.05-7.13,2.1-14.26,3.15-21.39c0.63,8.44,1.26,16.87,1.88,25.31c0.65-8.03,1.3-16.07,1.95-24.1c0.99,9.29,1.97,18.57,2.96,27.86
	c-0.03-11.1-0.06-22.2-0.09-33.31c1.68,9.49,3.36,18.98,5.04,28.48c0.2-8.84,0.4-17.67,0.59-26.51c0.93,8.88,1.87,17.76,2.8,26.63
	c0.41-8.67,0.82-17.35,1.23-26.02c0.44,6.97,2.65,23.62,3.09,30.6"/>
<text transform="matrix(1 0 0 1 29.6042 175.0245)"><tspan x="0" y="0" font-family="'PermanentMarker'" font-size="30.74px">l</tspan><tspan x="16.39" y="0" font-family="'PermanentMarker'" font-size="30.74px">a</tspan><tspan x="33.32" y="0" font-family="'PermanentMarker'" font-size="30.74px">ugh and h</tspan><tspan x="180.39" y="0" font-family="'PermanentMarker'" font-size="30.74px">o</tspan><tspan x="199.12" y="0" font-family="'PermanentMarker'" font-size="30.74px">pe it</tspan><tspan x="3.96" y="30" font-family="'PermanentMarker'" font-size="30.74px">w</tspan><tspan x="29.03" y="30" font-family="'PermanentMarker'" font-size="30.74px">a</tspan><tspan x="46.29" y="30" font-family="'PermanentMarker'" font-size="30.74px">sn’t a </tspan><tspan x="139.38" y="30" font-family="'PermanentMarker'" font-size="30.74px">q</tspan><tspan x="158.29" y="30" font-family="'PermanentMarker'" font-size="30.74px">uest</tspan><tspan x="221.3" y="30" font-family="'PermanentMarker'" font-size="30.74px">i</tspan><tspan x="230.55" y="30" font-family="'PermanentMarker'" font-size="30.74px">on</tspan></text>
<path fill="none" stroke="#ED1C24" stroke-width="7" stroke-linecap="round" stroke-linejoin="round" stroke-miterlimit="10" d="
	M333.02,162.46c0.15,11.5,0.29,23.01,0.44,34.51c1.4-10.74,2.8-21.48,4.21-32.22c0.34,10.1,0.68,20.2,1.02,30.3
	c1.18-9.93,2.36-19.87,3.54-29.8c0.72,10.24,1.44,20.49,2.16,30.73c0.99-9.24,1.98-18.47,2.98-27.71c1.1,11.37,2.2,22.74,3.29,34.12
	c1.02-11.3,2.05-22.6,3.07-33.9c1.1,9.3,2.2,18.61,3.3,27.91c0.93-9.21,1.87-18.43,2.8-27.64c1.21,9.23,2.41,18.47,3.62,27.7
	c0.78-9.23,1.55-18.46,2.33-27.69c0.61,8.47,1.23,16.95,1.84,25.42c0.89-8.14,1.78-16.28,2.67-24.42
	c0.57,8.44,1.15,16.88,1.72,25.32c0.59-7.89,1.18-15.79,1.78-23.68c1.43,8.77,2.86,17.54,4.3,26.31c0.77-9.71,1.54-19.42,2.32-29.13
	c1.05,9.7,2.1,19.4,3.15,29.09c0.76-9.26,1.52-18.51,2.28-27.77c1.04,9.03,2.08,18.06,3.13,27.09c0.46-8.43,0.92-16.87,1.38-25.3
	c1.74,9.59,3.49,19.19,5.23,28.78c0.66-10.68,1.32-21.37,1.98-32.05c1.21,10.97,2.41,21.94,3.62,32.92
	c1.31-10.75,2.63-21.5,3.94-32.25c0.95,10.95,1.9,21.91,2.85,32.86c0.75-9.85,1.49-19.7,2.24-29.54c0.68,8,1.36,16.01,2.03,24.01
	c0.42-9.23,0.84-18.46,1.26-27.7c0.56,9.07,1.13,18.14,1.69,27.2c1.4-7.72,2.79-15.43,4.19-23.15c0.43,6.33,0.87,12.67,1.3,19
	c0.56-7.14,1.11-14.27,1.67-21.41c1.26,9.27,2.52,18.54,3.78,27.8c0.93-8.97,1.86-17.95,2.8-26.92c0.89,9.63,1.78,19.25,2.67,28.88
	c0.36-10.49,0.72-20.98,1.08-31.47c0.63,9.34,1.26,18.69,1.89,28.03c0.67-8.73,1.35-17.47,2.02-26.2c0.23,8.37,0.46,16.73,0.69,25.1
	c1.05-8.46,2.1-16.92,3.15-25.38c0.12,8.64,0.24,17.29,0.37,25.93c0.82-9.59,1.65-19.18,2.47-28.77c0.65,10.18,1.3,20.35,1.95,30.53
	c1.02-10.5,2.05-21,3.07-31.51c0.03,9.91,0.05,19.82,0.08,29.73c1.34-7.55,2.67-15.1,4.01-22.65c0.8,6.9,1.61,13.8,2.41,20.7
	c0.34-9.95,0.68-19.89,1.02-29.84c0.71,9.85,1.43,19.69,2.14,29.54c1.07-9.34,2.13-18.67,3.2-28.01c0.21,9.19,0.42,18.37,0.63,27.56
	c0.75-7.89,1.49-15.79,2.24-23.68c0.51,9.76,1.02,19.51,1.53,29.27c0.9-10.34,1.79-20.68,2.69-31.03
	c1.84,9.38,3.67,18.76,5.51,28.15c-0.81-9.18-1.61-18.37-2.42-27.55c1.51,8.09,3.01,16.17,4.52,24.26
	c0.32-8.96,0.64-17.91,0.96-26.87c1.01,10.47,2.02,20.94,3.04,31.41c1.49-9.35,2.97-18.7,4.46-28.05c0.21,7.3,0.42,14.61,0.63,21.91
	c1.19-6.83,2.38-13.67,3.56-20.5c0.01,6.4,0.03,12.79,0.04,19.19c1.77-7.85,3.54-15.7,5.31-23.55c-0.32,7.21-0.65,14.42-0.97,21.63
	c1.49-7.61,2.98-15.22,4.48-22.83c0.32,9.07,0.64,18.13,0.96,27.2c1.17-8.68,2.33-17.36,3.5-26.04c0.67,8.17,1.34,16.33,2.01,24.5
	c0.68-9.73,1.37-19.46,2.05-29.19c0.73,8.98,1.46,17.97,2.19,26.95c0.58-7.4,1.16-14.8,1.73-22.19c0.6,7.48,1.2,14.96,1.8,22.43
	c0.46-7.33,0.92-14.67,1.38-22c0.66,8.42,1.31,16.84,1.97,25.27c0.55-9.8,1.1-19.59,1.65-29.39c0.65,8.8,1.29,17.6,1.94,26.39
	c0.77-8.88,1.55-17.77,2.32-26.65c0.9,9.97,1.8,19.94,2.7,29.91c0.42-9.81,0.84-19.62,1.25-29.43c0.8,9.06,1.6,18.11,2.39,27.17
	c0.43-10.68,0.86-21.36,1.28-32.04c1.77,10.44,3.54,20.88,5.31,31.32c-0.09-8.59-0.18-17.18-0.27-25.77"/>
</svg>
