<?xml version="1.0" encoding="utf-8"?>
<!-- Generator: Adobe Illustrator 19.2.0, SVG Export Plug-In . SVG Version: 6.00 Build 0)  -->
<svg version="1.1" id="Layer_1" xmlns="http://www.w3.org/2000/svg" xmlns:xlink="http://www.w3.org/1999/xlink" x="0px" y="0px"
	 width="509.77px" height="347.99px" viewBox="0 0 509.77 347.99" enable-background="new 0 0 509.77 347.99" xml:space="preserve">
<path fill="none" stroke="#FFFFFF" stroke-width="120" stroke-linejoin="bevel" stroke-miterlimit="10" d="M20.94,3.24
	C9.38,35.19-2.17,67.14-13.73,99.09C27.36,65.75,68.45,32.41,109.54-0.93c-6.09,24.6-12.17,49.2-18.26,73.81
	c47.88-13.87,92.08-40.27,126.99-75.85C211,27.4,203.73,57.77,196.46,88.15c37.03-28.6,74.06-57.2,111.09-85.8
	c-6.65,19.73-13.31,39.45-19.96,59.18c56.36-13.32,109.53-39.92,153.97-77.05c15.67,30.39,3.28,69.88-22.18,92.71
	c-25.46,22.83-60.9,31.43-95.08,32.54c-54.03,1.75-107.06-13.11-160.73-19.63S51.23,86.77,8.26,119.57
	c-7.57,5.78-14.88,13.03-16.7,22.38c-3.66,18.81,18.12,34.58,37.19,32.63s34.76-15.26,49.12-27.96
	c-20.02,50.96-40.04,101.92-60.06,152.88c48.62-37.15,85.15-89.88,102.85-148.45c1.26,55.07-3.17,110.27-13.19,164.44
	c44.87-42.67,74.88-100.67,83.82-161.94c15.86,48.57,31.73,97.13,47.59,145.7c19.83-65.35,25.6-134.93,16.81-202.66
	c8.02,39.55,16.03,79.11,24.05,118.66c1.74,8.57,6.36,19.4,15.05,18.37c4.75-0.56,8.14-4.73,10.99-8.58
	c18.21-24.56,36.43-49.12,54.64-73.67c-0.31,33.38-0.62,66.75-0.93,100.13c33.13-42.32,66.25-84.65,99.38-126.97
	c-4.39,42.71-8.77,85.43-13.16,128.14c0.94-2.88,1.89-5.76,2.83-8.64c-63.75-9.77-131.91,20.28-167.7,73.94
	c31.11-38.16,73.49-67.02,120.39-81.98c0.68,24.62,1.37,49.25,2.05,73.87c18.18-21.98,36.36-43.97,54.54-65.95
	c9.83,26.78,12.58,56.13,7.89,84.27c7.48-23.77,14.97-47.54,22.45-71.3c-4.92,35.55-9.84,71.11-14.76,106.66"/>
<g>
	
		<line fill="none" stroke="#000000" stroke-width="7" stroke-linecap="round" stroke-linejoin="round" stroke-miterlimit="10" x1="19.16" y1="277.7" x2="493.84" y2="277.7"/>
	
		<polyline fill="none" stroke="#000000" stroke-width="7" stroke-linecap="round" stroke-linejoin="round" stroke-miterlimit="10" points="
		471.84,255.2 493.84,277.7 471.84,300.2 	"/>
</g>
<text transform="matrix(1 0 0 1 438.2173 337.643)" font-family="'PermanentMarker'" font-size="30.74px">time</text>
<g>
	
		<line fill="none" stroke="#000000" stroke-width="7" stroke-linecap="round" stroke-linejoin="round" stroke-miterlimit="10" x1="41.66" y1="86.49" x2="41.66" y2="300.2"/>
	
		<polyline fill="none" stroke="#000000" stroke-width="7" stroke-linecap="round" stroke-linejoin="round" stroke-miterlimit="10" points="
		19.16,108.49 41.66,86.49 64.16,108.49 	"/>
</g>
<text transform="matrix(1 0 0 1 11.3087 71.6135)" fill="#39B54A" font-family="'PermanentMarker'" font-size="30.74px">skill in a domain</text>
<line fill="none" stroke="#39B54A" stroke-width="7" stroke-linecap="round" stroke-linejoin="round" stroke-miterlimit="10" x1="60.24" y1="200.51" x2="262.24" y2="200.51"/>
<text transform="matrix(1 0 0 1 11.3087 36.2094)"><tspan x="0" y="0" fill="#F15A22" font-family="'PermanentMarker'" font-size="30.74px">a</tspan><tspan x="17.86" y="0" fill="#F15A22" font-family="'PermanentMarker'" font-size="30.74px">w</tspan><tspan x="42.93" y="0" fill="#F15A22" font-family="'PermanentMarker'" font-size="30.74px">areness of </tspan><tspan x="211.43" y="0" fill="#F15A22" font-family="'PermanentMarker'" font-size="30.74px">s</tspan><tspan x="225.39" y="0" fill="#F15A22" font-family="'PermanentMarker'" font-size="30.74px">p</tspan><tspan x="241.51" y="0" fill="#F15A22" font-family="'PermanentMarker'" font-size="30.74px">e</tspan><tspan x="257.24" y="0" fill="#F15A22" font-family="'PermanentMarker'" font-size="30.74px">cific </tspan><tspan x="333.88" y="0" fill="#F15A22" font-family="'PermanentMarker'" font-size="30.74px">d</tspan><tspan x="348.86" y="0" fill="#F15A22" font-family="'PermanentMarker'" font-size="30.74px">e</tspan><tspan x="364.89" y="0" fill="#F15A22" font-family="'PermanentMarker'" font-size="30.74px" letter-spacing="-1">t</tspan><tspan x="378.1" y="0" fill="#F15A22" font-family="'PermanentMarker'" font-size="30.74px">ail</tspan></text>
<path fill="none" stroke="#F15A22" stroke-width="7" stroke-linecap="round" stroke-linejoin="round" stroke-miterlimit="10" d="
	M58,260.13c58,0.73,118.99-8.72,155.5-53.54c25.76-31.63,38.26-71.75,49.26-111.03"/>
<polyline fill="none" stroke="#39B54A" stroke-width="7" stroke-linecap="round" stroke-linejoin="round" stroke-miterlimit="10" points="
	262.24,200.51 262.24,167.64 452.76,167.64 "/>
<path fill="none" stroke="#F15A22" stroke-width="7" stroke-linecap="round" stroke-linejoin="round" stroke-miterlimit="10" d="
	M262.76,95.56c6.45,45.4,29.64,88.24,64.14,118.46s80.01,47.58,125.87,47.99"/>
</svg>
