<?xml version="1.0" encoding="utf-8"?>
<!-- Generator: Adobe Illustrator 19.2.0, SVG Export Plug-In . SVG Version: 6.00 Build 0)  -->
<svg version="1.1" id="Layer_1" xmlns="http://www.w3.org/2000/svg" xmlns:xlink="http://www.w3.org/1999/xlink" x="0px" y="0px"
	 width="429.6px" height="448.38px" viewBox="0 0 429.6 448.38" enable-background="new 0 0 429.6 448.38" xml:space="preserve">
<path fill="none" stroke="#FFFFFF" stroke-width="120" stroke-linejoin="bevel" stroke-miterlimit="10" d="M27.64,2.88
	c-11.38,19.3-22.76,38.6-34.14,57.9C23.23,40.32,52.97,19.88,82.7-0.57C56.28,33.97,29.87,68.52,3.45,103.06
	C48.25,69.23,93.06,35.4,137.86,1.56c-8.37,24.8-16.75,49.6-25.12,74.4c27.81-22.81,55.61-45.62,83.42-68.43
	C187.78,37.37,179.39,67.2,171,97.04c29.1-29.57,58.2-59.14,87.29-88.71c-3.3,21.7-6.6,43.39-9.9,65.09
	c19.32-16.2,38.65-32.41,57.97-48.61c-3.58,24.73-7.15,49.46-10.73,74.19c6.01-10.29,12.01-20.57,18.02-30.86
	c-67.61,53.41-153.96,82.59-240.11,81.15c-10.91-0.18-22.27-0.96-31.77-6.33s-16.55-16.59-13.75-27.13s18.12-16.38,25.52-8.35
	C33.27,144.12,13,180.75-7.27,217.39c53.91-41.61,107.83-83.21,161.74-124.82c-34.65,52.73-69.3,105.47-103.96,158.2
	c40.31-49.14,80.61-98.29,120.92-147.43c-51.75,60.57-103.5,121.14-155.25,181.71c17.58-9.73,35.16-19.45,52.74-29.18
	c-17.38,44.22-34.75,88.44-52.13,132.66c8.96-13.59,17.92-27.18,26.89-40.77c-6.74,18.27-13.47,36.53-20.21,54.8
	c19.91-10.8,39.82-21.59,59.74-32.39c-9.88,21.91-19.77,43.81-29.65,65.72c25.87-15.79,51.74-31.59,77.61-47.38
	c-6.21,25.56-12.42,51.13-18.63,76.69c23.25-26.23,46.49-52.45,69.74-78.68c-7.98,25.59-15.96,51.18-23.95,76.77
	c34.19-33.25,68.38-66.51,102.58-99.76c-9.3,43.26-18.59,86.51-27.89,129.77c24.71-35.06,49.42-70.13,74.13-105.19
	c-0.48,18.57,7.04,37.21,20.27,50.24c15.01-26.17,30.02-52.34,45.03-78.5c7.96,7.35,7.87,19.93,5.52,30.51s-6.37,21.33-4.19,31.95
	s14.25,20.05,23.67,14.7c4.98-2.83,7.36-8.62,9.24-14.03c17.74-51.01,22.05-106.62,12.38-159.76
	c-18.53,16.99-37.06,33.97-55.59,50.96c3.66-29.23,7.31-58.45,10.97-87.68c-16.05,12.27-32.1,24.54-48.16,36.82
	c4.9-11.61,9.79-23.21,14.69-34.82c-27.71,11.04-51.28,32.15-65.3,58.48c8.92-5.23,18.19-10.8,23.66-19.58
	c5.46-8.79,5.63-21.79-2.45-28.25c-6.36-5.08-15.34-4.62-23.25-6.55c-18.66-4.56-30.85-22.47-38.33-40.17
	c-7.49-17.69-12.42-37.02-24.74-51.76c-5.7-6.82-13.25-12.6-22.02-14.02c-15.96-2.58-31.15,10.32-36.81,25.47
	c-5.66,15.15-4.11,31.91-2.48,48c10.35-2.78,20.69-5.56,31.04-8.35c-3.05,13.3-6.09,26.6-9.14,39.91
	c3.67-3.67,7.34-7.34,11.01-11.02c-47.98,13.62-90.57,45.4-117.27,87.52c51.82-28.89,103.64-57.78,155.45-86.67
	c-26.49,31.95-52.98,63.9-79.46,95.85c15.85-19.94,31.71-39.88,47.56-59.82c-15.28,25.8-30.56,51.61-45.84,77.41
	c32.36,5.23,66.37-0.29,95.41-15.5c-16.02,21.52-32.04,43.04-48.06,64.55c19.63-17.02,39.27-34.04,58.9-51.05
	c22.75,22.46,45.51,44.92,68.26,67.39"/>
<g>
	
		<line fill="none" stroke="#000000" stroke-width="7" stroke-linecap="round" stroke-linejoin="round" stroke-miterlimit="10" x1="17.7" y1="376.25" x2="422.06" y2="376.25"/>
	
		<polyline fill="none" stroke="#000000" stroke-width="7" stroke-linecap="round" stroke-linejoin="round" stroke-miterlimit="10" points="
		400.06,353.75 422.06,376.25 400.06,398.75 	"/>
</g>
<text transform="matrix(1 0 0 1 55.8523 410.8584)"><tspan x="0" y="0" font-family="'PermanentMarker'" font-size="30.74px">how dama</tspan><tspan x="150.01" y="0" font-family="'PermanentMarker'" font-size="30.74px" letter-spacing="-1">g</tspan><tspan x="168.53" y="0" font-family="'PermanentMarker'" font-size="30.74px">ing i think</tspan><tspan x="52.11" y="30" font-family="'PermanentMarker'" font-size="30.74px">the beh</tspan><tspan x="163.7" y="30" font-family="'PermanentMarker'" font-size="30.74px" letter-spacing="-1">a</tspan><tspan x="180.33" y="30" font-family="'PermanentMarker'" font-size="30.74px">v</tspan><tspan x="195.25" y="30" font-family="'PermanentMarker'" font-size="30.74px">i</tspan><tspan x="204.49" y="30" font-family="'PermanentMarker'" font-size="30.74px">or is</tspan></text>
<g>
	
		<line fill="none" stroke="#000000" stroke-width="7" stroke-linecap="round" stroke-linejoin="round" stroke-miterlimit="10" x1="35.38" y1="400.57" x2="35.38" y2="75.58"/>
	
		<polyline fill="none" stroke="#000000" stroke-width="7" stroke-linecap="round" stroke-linejoin="round" stroke-miterlimit="10" points="
		12.88,97.58 35.38,75.58 57.88,97.58 	"/>
</g>
<text transform="matrix(1 0 0 1 8.4263 32.7708)"><tspan x="0" y="0" font-family="'PermanentMarker'" font-size="30.74px">how willing i am </tspan><tspan x="276.09" y="0" font-family="'PermanentMarker'" font-size="30.74px">t</tspan><tspan x="289.9" y="0" font-family="'PermanentMarker'" font-size="30.74px">o</tspan><tspan x="0" y="30" font-family="'PermanentMarker'" font-size="30.74px">engage in a beh</tspan><tspan x="238.12" y="30" font-family="'PermanentMarker'" font-size="30.74px" letter-spacing="-1">a</tspan><tspan x="254.75" y="30" font-family="'PermanentMarker'" font-size="30.74px">v</tspan><tspan x="269.67" y="30" font-family="'PermanentMarker'" font-size="30.74px">i</tspan><tspan x="278.91" y="30" font-family="'PermanentMarker'" font-size="30.74px">or</tspan></text>
<path fill="none" stroke="#FFC60B" stroke-width="7" stroke-linecap="round" stroke-linejoin="round" stroke-miterlimit="10" d="
	M48.61,108.94c44.63,30.24,89.27,60.48,133.9,90.72c12.77,8.65,26.89,17.16,33.95,30.86c9.63,18.67,8.61,36.18,6.34,56.45
	c-1.19,10.67-0.94,24.45,0.25,35.12c1.18,10.68,5.76,21.54,14.64,27.58c9.26,6.29,21.26,5.86,32.45,6.06
	c38.92,0.7,72.06,2.62,110.17,2.96"/>
<g>
	<path fill="none" stroke="#000000" stroke-width="7" stroke-linecap="round" stroke-linejoin="round" stroke-miterlimit="10" d="
		M205.78,208.85c-5.15,0.85-10.11,2.8-14.46,5.67"/>
	<path fill="none" stroke="#000000" stroke-width="7" stroke-linecap="round" stroke-linejoin="round" stroke-miterlimit="10" d="
		M196.42,203.55c0.81,4.43,1.63,8.85,2.44,13.28"/>
	<path fill="none" stroke="#000000" stroke-width="7" stroke-linecap="round" stroke-linejoin="round" stroke-miterlimit="10" d="
		M205.19,196.78c3.97-1.46,5.28-6.89,3.49-10.72c-1.79-3.83-5.73-6.2-9.72-7.61c-3.98-1.41-8.21-2.11-12.09-3.8
		c-6.46-2.82-11.62-8.46-13.85-15.14c-2.23-6.68-1.5-14.29,1.96-20.42"/>
	<text transform="matrix(1 0 0 1 117.3848 126.3131)" font-family="'PermanentMarker'" font-size="30.74px">driving a car</text>
</g>
<g>
	<path fill="none" stroke="#000000" stroke-width="7" stroke-linecap="round" stroke-linejoin="round" stroke-miterlimit="10" d="
		M360.54,352.55c2.39,3.55,4.78,7.1,7.18,10.65"/>
	<path fill="none" stroke="#000000" stroke-width="7" stroke-linecap="round" stroke-linejoin="round" stroke-miterlimit="10" d="
		M367.76,352.49c-2.51,3.57-5.02,7.13-7.52,10.7"/>
	<path fill="none" stroke="#000000" stroke-width="7" stroke-linecap="round" stroke-linejoin="round" stroke-miterlimit="10" d="
		M364.7,343.4c-3.82-5.33-2.97-12.7-0.84-18.9c2.13-6.2,5.39-12.14,5.97-18.67c0.78-8.71-3.79-17.68-11.29-22.18"/>
	<text transform="matrix(1 0 0 1 295.0569 238.0769)"><tspan x="0" y="0" font-family="'PermanentMarker'" font-size="30.74px">killing</tspan><tspan x="5.3" y="30" font-family="'PermanentMarker'" font-size="30.74px">p</tspan><tspan x="21.42" y="30" font-family="'PermanentMarker'" font-size="30.74px">e</tspan><tspan x="37.15" y="30" font-family="'PermanentMarker'" font-size="30.74px">o</tspan><tspan x="55.88" y="30" font-family="'PermanentMarker'" font-size="30.74px">ple</tspan></text>
</g>
<g>
	<path fill="none" stroke="#000000" stroke-width="7" stroke-linecap="round" stroke-linejoin="round" stroke-miterlimit="10" d="
		M254.37,348.13c-2.45,4.18-4.91,8.36-7.36,12.54"/>
	<path fill="none" stroke="#000000" stroke-width="7" stroke-linecap="round" stroke-linejoin="round" stroke-miterlimit="10" d="
		M245.9,346.73c2.81,4.63,5.63,9.25,8.44,13.88"/>
	<path fill="none" stroke="#000000" stroke-width="7" stroke-linecap="round" stroke-linejoin="round" stroke-miterlimit="10" d="
		M231.73,358.22c-6.92,1.38-14.02,2.77-20.81,1.12c-6.79-1.65-13.31-7.03-14.97-15.07c-2.15-10.36,4.02-20.57,9.17-29.61
		c3.16-5.55,6.19-12.04,5.1-18.48c-1.18-7-7.86-11.71-13.68-9.63"/>
	<text transform="matrix(1 0 0 1 91.3723 279.47)"><tspan x="0" y="0" font-family="'PermanentMarker'" font-size="30.74px">e</tspan><tspan x="16.03" y="0" font-family="'PermanentMarker'" font-size="30.74px" letter-spacing="-1">a</tspan><tspan x="32.36" y="0" font-family="'PermanentMarker'" font-size="30.74px">ting</tspan><tspan x="22.21" y="30" font-family="'PermanentMarker'" font-size="30.74px">me</tspan><tspan x="63.28" y="30" font-family="'PermanentMarker'" font-size="30.74px" letter-spacing="-1">a</tspan><tspan x="79.61" y="30" font-family="'PermanentMarker'" font-size="30.74px">t</tspan></text>
</g>
</svg>
