<?xml version="1.0" encoding="utf-8"?>
<!-- Generator: Adobe Illustrator 19.2.0, SVG Export Plug-In . SVG Version: 6.00 Build 0)  -->
<svg version="1.1" id="Layer_1" xmlns="http://www.w3.org/2000/svg" xmlns:xlink="http://www.w3.org/1999/xlink" x="0px" y="0px"
	 width="628.28px" height="345.8px" viewBox="0 0 628.28 345.8" enable-background="new 0 0 628.28 345.8" xml:space="preserve">
<path fill="none" stroke="#FFFFFF" stroke-width="120" stroke-linejoin="bevel" stroke-miterlimit="10" d="M195.85,5.77
	c-6.27,16.76-12.54,33.52-18.81,50.28c29.3-21.61,58.6-43.22,87.9-64.83c-5.7,16.38-11.41,32.77-17.11,49.15
	c28.18-13.2,56.37-26.4,84.55-39.6c-12.77,23.83-25.55,47.65-38.32,71.48C320.04,48.28,346.02,24.32,372,0.36
	c-5.95,15.86-11.91,31.73-17.86,47.59c26.77-18.4,53.55-36.81,80.32-55.21c-7.91,16.97-15.82,33.93-23.73,50.9
	c23.19-6.56,46.39-13.11,69.58-19.67c-5.81,13.9-11.61,27.8-17.42,41.71c23.23-8.01,46.46-16.03,69.69-24.04
	c-12.64,19.66-25.27,39.31-37.91,58.97c20.76-4.09,41.52-8.17,62.27-12.26c-29.7,9.81-59.76,19.79-86.03,36.77
	s-48.75,42.02-55.94,72.46c26.26-20.59,52.52-41.18,78.78-61.77c-13.05,24.27-26.1,48.54-39.16,72.81
	c34.64-31.4,69.29-62.81,103.93-94.21c-11,23.83-22,47.66-33,71.5c25.54-18.25,51.07-36.5,76.61-54.75
	c-12.73,25.87-25.47,51.75-38.2,77.62c13.95-18.37,27.91-36.75,41.86-55.12c-1.65,17.21-3.31,34.42-4.96,51.63
	c-16.34-11.41-39.48-8.58-56.43,1.9s-28.97,27.21-39.84,43.91c-10.88,16.7-21.33,34.13-36.43,47.14
	c-15.1,13.01-36.13,21.06-55.21,15.3s-32.84-28.79-24.17-46.74c-13.64,31.48-27.28,62.96-40.92,94.44
	c6.87-24.08,12.21-54.03-6.43-70.75c-3.42-3.07-7.49-5.43-11.85-6.88c-20.64-6.86-52.97,43.98-70.28,57.15
	c5.4-5.45,22.13-48.27,23.7-55.79c1.57-7.51-3.02-16.82-10.69-17.21c-8.31-0.43-13.42,8.72-16.47,16.47
	c-7.54,19.13-15.09,38.26-22.63,57.39c-47.48-35.07-108.01-52.01-166.8-46.68c34.41-11.43,68.83-22.86,103.24-34.29
	c-41.32-4.8-82.63-9.61-123.95-14.41c17.24-6.38,34.47-12.77,51.71-19.15c-33.74-0.54-71.47-2.77-94.37-27.55
	c-21.2-22.94-22.33-58.1-16.13-88.71c23.59,31.04,47.17,62.09,70.76,93.13c-8.91-23.05-17.82-46.1-26.73-69.15
	c25.82,30.3,51.64,60.59,77.46,90.89C95.84,186.99,83.3,148.29,70.76,109.6c20.03,39.13,48.55,73.88,83.01,101.16
	c-4.21-28.21-8.43-56.42-12.64-84.62c6.41,23.95,23.45,44.85,45.62,55.95c-16.95-53.14-78.73-87.43-132.79-73.7
	c-1.23-28.41,22.29-53.14,49.04-62.8s56.1-7.63,84.46-5.47"/>
<text transform="matrix(1 0 0 1 189.381 37.5784)"><tspan x="0" y="0" font-family="'PermanentMarker'" font-size="30.74px">“</tspan><tspan x="12.61" y="0" font-family="'PermanentMarker'" font-size="30.74px">y</tspan><tspan x="23.99" y="0" font-family="'PermanentMarker'" font-size="30.74px">o</tspan><tspan x="42.72" y="0" font-family="'PermanentMarker'" font-size="30.74px">u’re selfish”</tspan></text>
<g>
	<path fill="none" stroke="#EF8031" stroke-width="7" stroke-linecap="round" stroke-linejoin="round" stroke-miterlimit="10" d="
		M433.27,31.65c23.6-0.63,47.3,8.81,64,25.5c16.7,16.68,26.17,40.37,25.57,63.97"/>
	<path fill="none" stroke="#EF8031" stroke-width="7" stroke-linecap="round" stroke-linejoin="round" stroke-miterlimit="10" d="
		M514.59,114.07c2.65,3.37,5.31,6.74,7.96,10.11c2.97-3.5,5.95-7,8.92-10.49"/>
</g>
<text transform="matrix(1 0 0 1 423.8898 164.3296)"><tspan x="0" y="0" font-family="'PermanentMarker'" font-size="30.74px">b</tspan><tspan x="17.62" y="0" font-family="'PermanentMarker'" font-size="30.74px">e</tspan><tspan x="33.35" y="0" font-family="'PermanentMarker'" font-size="30.74px">come more</tspan><tspan x="12.5" y="30" font-family="'PermanentMarker'" font-size="30.74px">in</tspan><tspan x="39.7" y="30" font-family="'PermanentMarker'" font-size="30.74px">d</tspan><tspan x="54.68" y="30" font-family="'PermanentMarker'" font-size="30.74px">ependant</tspan></text>
<g>
	<path fill="none" stroke="#FDE92B" stroke-width="7" stroke-linecap="round" stroke-linejoin="round" stroke-miterlimit="10" d="
		M525.11,211.04c1.73,24.05-6.43,48.66-22.19,66.9c-15.76,18.25-38.92,29.91-62.96,31.69"/>
	<path fill="none" stroke="#FDE92B" stroke-width="7" stroke-linecap="round" stroke-linejoin="round" stroke-miterlimit="10" d="
		M441.08,301.45c-3.02,2.7-6.04,5.4-9.05,8.1c4.68,3.39,9.36,6.78,14.04,10.18"/>
</g>
<text transform="matrix(1 0 0 1 224.0132 301.4498)"><tspan x="0" y="0" font-family="'PermanentMarker'" font-size="30.74px">owe less </tspan><tspan x="144.42" y="0" font-family="'PermanentMarker'" font-size="30.74px">t</tspan><tspan x="158.23" y="0" font-family="'PermanentMarker'" font-size="30.74px">o</tspan><tspan x="25.38" y="30" font-family="'PermanentMarker'" font-size="30.74px">ev</tspan><tspan x="56.33" y="30" font-family="'PermanentMarker'" font-size="30.74px">e</tspan><tspan x="72.06" y="30" font-family="'PermanentMarker'" font-size="30.74px">r</tspan><tspan x="88.09" y="30" font-family="'PermanentMarker'" font-size="30.74px">y</tspan><tspan x="99.47" y="30" font-family="'PermanentMarker'" font-size="30.74px">one</tspan></text>
<g>
	<path fill="none" stroke="#91BE4A" stroke-width="7" stroke-linecap="round" stroke-linejoin="round" stroke-miterlimit="10" d="
		M199.03,301.96c-26.51,10.42-58.24,6.28-81.2-10.59c-19.77-14.53-32.8-38.49-32.33-63.02"/>
	<path fill="none" stroke="#91BE4A" stroke-width="7" stroke-linecap="round" stroke-linejoin="round" stroke-miterlimit="10" d="
		M77.75,236.87c2.42-4.36,4.84-8.73,7.25-13.09c2.43,2.91,4.87,5.81,7.3,8.72"/>
</g>
<text transform="matrix(1 0 0 1 3.6996 149.0139)"><tspan x="0" y="0" font-family="'PermanentMarker'" font-size="30.74px">n</tspan><tspan x="17.35" y="0" font-family="'PermanentMarker'" font-size="30.74px" letter-spacing="-1">o</tspan><tspan x="35.15" y="0" font-family="'PermanentMarker'" font-size="30.74px">ti</tspan><tspan x="59.74" y="0" font-family="'PermanentMarker'" font-size="30.74px">c</tspan><tspan x="75.23" y="0" font-family="'PermanentMarker'" font-size="30.74px">e less</tspan><tspan x="8.2" y="30" font-family="'PermanentMarker'" font-size="30.74px">ev</tspan><tspan x="39.15" y="30" font-family="'PermanentMarker'" font-size="30.74px">e</tspan><tspan x="54.88" y="30" font-family="'PermanentMarker'" font-size="30.74px">r</tspan><tspan x="70.91" y="30" font-family="'PermanentMarker'" font-size="30.74px">y</tspan><tspan x="82.28" y="30" font-family="'PermanentMarker'" font-size="30.74px">one’s</tspan><tspan x="20.28" y="60" font-family="'PermanentMarker'" font-size="30.74px">feelin</tspan><tspan x="109.92" y="60" font-family="'PermanentMarker'" font-size="30.74px">g</tspan><tspan x="129.04" y="60" font-family="'PermanentMarker'" font-size="30.74px">s</tspan></text>
<g>
	<path fill="none" stroke="#00A055" stroke-width="7" stroke-linecap="round" stroke-linejoin="round" stroke-miterlimit="10" d="
		M75.43,120.3c-2.63-21.81,4.42-44.61,18.9-61.13s36.15-26.5,58.12-26.76"/>
	<path fill="none" stroke="#00A055" stroke-width="7" stroke-linecap="round" stroke-linejoin="round" stroke-miterlimit="10" d="
		M149.94,24.46c3.44,2.25,6.88,4.5,10.32,6.75c-2.77,2.84-5.54,5.69-8.31,8.53"/>
</g>
</svg>
