<?xml version="1.0" encoding="utf-8"?>
<!-- Generator: Adobe Illustrator 18.0.0, SVG Export Plug-In . SVG Version: 6.00 Build 0)  -->
<!DOCTYPE svg PUBLIC "-//W3C//DTD SVG 1.1//EN" "http://www.w3.org/Graphics/SVG/1.1/DTD/svg11.dtd">
<svg version="1.1" id="Layer_1" xmlns="http://www.w3.org/2000/svg" xmlns:xlink="http://www.w3.org/1999/xlink" x="0px" y="0px"
	 viewBox="0 0 604 336" enable-background="new 0 0 604 336" xml:space="preserve">
<path fill="none" stroke="#FFFFFF" stroke-width="120" stroke-linejoin="bevel" stroke-miterlimit="10" d="M402.9,29.3
	c-128,2.6-256,5.2-384,7.7C-1.9,129.7,2.2,227.8,30.8,318.3c2.1,6.7,4.5,13.6,9.4,18.6c4.9,5,13.1,7.5,19.2,4
	c4.5-64.3,9-128.5,13.5-192.8c1.1-15.1,4.6-33.5,19.1-37.9c12.2-3.7,25.2,6.2,29.8,18.1c4.6,11.9,3.4,25.2,2.9,37.9
	c-2.2,54.9,11.4,110.4,38.7,158.1c11.1-39.7,22.2-79.4,33.3-119.1c2.4-8.5,8-19.2,16.7-17.3c5.7,1.3,8.6,7.6,10.6,13.1
	c12.8,34.9,25.6,69.7,38.5,104.6c9.4,7.1,23.5,1.6,31-7.5s10.7-20.9,16.5-31.1c5.8-10.2,16.3-19.6,27.9-17.9
	c14.9,2.2,21.2,19.9,23.7,34.7c2.5,14.8,6.2,32.5,20.2,37.9c13.9,5.4,29.1-5.5,36.8-18.2c7.7-12.7,11.4-27.9,20.8-39.5
	c17.6-21.7,49.5-24.7,77.3-21.8s56.5,9.7,83.1,1.4c4.7,18.6-12.4,36.3-30.6,42.4s-38.1,5.2-56.5,10.6c-31.6,9.4-59.6,64.9-62.7,97.7
	"/>
<g>
	
		<line fill="none" stroke="#000000" stroke-width="7" stroke-linecap="round" stroke-linejoin="round" stroke-miterlimit="10" x1="12" y1="298.6" x2="472" y2="298.6"/>
	
		<polyline fill="none" stroke="#000000" stroke-width="7" stroke-linecap="round" stroke-linejoin="round" stroke-miterlimit="10" points="
		450,276.1 472,298.6 450,321.1 	"/>
	<text transform="matrix(1 0 0 1 316 262)" font-family="'PermanentMarker'" font-size="30.74">length of vacation</text>
</g>
<g>
	
		<line fill="none" stroke="#000000" stroke-width="7" stroke-linecap="round" stroke-linejoin="round" stroke-miterlimit="10" x1="34" y1="321.1" x2="34" y2="72.1"/>
	
		<polyline fill="none" stroke="#000000" stroke-width="7" stroke-linecap="round" stroke-linejoin="round" stroke-miterlimit="10" points="
		11.5,94.2 34,72.2 56.5,94.2 	"/>
	<text transform="matrix(1 0 0 1 6 27)"><tspan x="0" y="0" font-family="'PermanentMarker'" font-size="30.74">how well i can do my job </tspan><tspan x="0" y="30" font-family="'PermanentMarker'" font-size="30.74">on my first day back</tspan></text>
</g>
<path fill="none" stroke="#D4145A" stroke-width="7" stroke-linecap="round" stroke-miterlimit="10" d="M37.2,117.1
	c55.4-10.1,115.5,12.7,150.2,57c25.7,32.8,39.9,77.3,76.6,97c37.3,20,84,6.3,124.8,17.9c38.7,11,69.3,46.6,74.3,86.5"/>
</svg>
