<?xml version="1.0" encoding="utf-8"?>
<!-- Generator: Adobe Illustrator 19.2.0, SVG Export Plug-In . SVG Version: 6.00 Build 0)  -->
<svg version="1.1" id="Layer_1" xmlns="http://www.w3.org/2000/svg" xmlns:xlink="http://www.w3.org/1999/xlink" x="0px" y="0px"
	 width="757.96px" height="530.47px" viewBox="0 0 757.96 530.47" enable-background="new 0 0 757.96 530.47" xml:space="preserve">
<path fill="none" stroke="#FFFFFF" stroke-width="120" stroke-linejoin="bevel" stroke-miterlimit="10" d="M266.96-0.23
	c-6.37,9.66-12.74,19.33-19.11,28.99c29.94-16.61,59.89-33.22,89.83-49.83c-9.86,22.21-19.71,44.42-29.57,66.63
	c30.45-17.64,60.9-35.28,91.35-52.91c-7.33,19.53-14.65,39.07-21.98,58.6c23.05-20.64,46.09-41.27,69.14-61.91
	c-1.97,13.51-3.94,27.02-5.91,40.53c14.32-11.8,28.63-23.6,42.95-35.4c-5.88,14.91-11.75,29.82-17.63,44.73
	c9.47-10.23,18.94-20.46,28.41-30.69c-30.54,30.16-70.51,49.36-111.79,61.12s-84.17,16.53-126.83,21.26
	c-21.96,2.43-43.92,4.87-65.89,7.3c170.7,1.07,341.4,2.15,512.1,3.22c11.37,0.07,24.17,0.75,31.75,9.23
	c7.12,7.96,6.87,20.5,2.26,30.14c-4.61,9.64-12.75,17.04-20.69,24.18c5.16-5.95,10.51-12.28,12.09-20
	c1.58-7.72-2.18-17.14-9.85-18.96c-8.95-2.13-16.54,6.42-21.79,13.98c-17.92,25.86-35.83,51.72-53.75,77.57
	c1.53-22.75,3.05-45.5,4.58-68.25c-17.08,14.24-34.17,28.49-51.25,42.73c0.72-13.62,1.43-27.24,2.15-40.86
	c-38.94,1.87-76.89,19.56-103.35,48.18c5.47-17.19,5.35-39.26-9.46-49.56c-12.3-8.55-30-4.72-41.55,4.81
	c-11.55,9.53-18.39,23.47-24.89,36.97c4.12-18.97,5.82-43.66-11.29-52.83c-15.07-8.07-33.51,3.03-44.34,16.26
	c-10.83,13.23-19.21,29.64-34.52,37.25c-0.88-12.13-1.76-24.25-2.64-36.38c-17.93,0.71-35.22,10.85-44.6,26.15
	c-10.23-10.24-7.98-26.96-6.91-41.39c1.07-14.44-2.55-32.67-16.58-36.26c-12.4-3.18-23.63,7.56-31.95,17.29
	c-22.26,26.04-44.52,52.09-66.78,78.13c12.49-16.09,2.42-43.85-17.47-48.2s-40.63,16.68-35.99,36.51c1.2-14.64,2.4-29.28,3.6-43.92
	c-22.72,6.1-41.45,25.22-47.08,48.07c4.02-18.55,8.03-37.1,12.05-55.64c-16.98,13.41-13.32,42.09,1.95,57.42s37.76,20.53,59.1,24.11
	c171.98,28.83,348.81-4.36,522.26,13.63c-40.88,29.44-85.91,53.13-133.33,70.13c9.08-20.03,18.16-40.07,27.24-60.1
	c-33.07,30.35-66.14,60.69-99.22,91.04c9.74-14.39,19.83-29.82,20.36-47.19c0.53-17.37-13-36.32-30.3-34.71
	c-28.64,2.67-30.87,50.21-58.07,59.59c8.46-27.98,16.92-55.97,25.39-83.95c-29.08,29.72-58.15,59.45-87.23,89.17
	c13.3-14.01,5.15-39.84-12.25-48.23c-17.68-8.52-39.63-2.17-54.72,10.38c-15.08,12.55-24.77,30.26-34.1,47.52
	c2.3-27.29,4.6-54.58,6.9-81.87c-30.6,20.48-56.07,48.55-73.49,80.99c13.88-33.66,27.77-67.32,41.65-100.97
	c-55.6,47.92-111.21,95.84-166.81,143.76c157.31-21.64,316.01-33.12,474.8-34.35c12.2-0.09,27.84,2.45,30.45,14.36
	c1.86,8.46-4.49,16.32-10.39,22.67c-24.96,26.87-49.92,53.75-74.88,80.62c18.67-30.8,37.34-61.6,56.01-92.39
	c-42.99,36.94-85.98,73.88-128.97,110.83c8.77-23.4,17.53-46.81,26.3-70.21c-24.99,7.07-47.17,23.66-60.99,45.65
	c8.85-23.9,17.7-47.8,26.55-71.69c-41.6,16.69-80.48,40.13-114.66,69.12c4.3-31.83,8.6-63.66,12.9-95.49
	c-42.26,9.7-79.9,38.02-100.93,75.95c8.3-34.03,16.61-68.06,24.91-102.09c-30.92,35.8-61.85,71.59-92.77,107.39
	c-5.34-14.77-10.67-29.55-16.01-44.32c-1.65-4.57-3.34-9.22-6.21-13.14c-9.11-12.46-30.25-13.21-40.22-1.44
	c-9.97,11.78-5.75,32.5,8.04,39.44c-0.76-4.51-1.52-9.02-2.28-13.54c-9.31,7-18.85,14.26-24.89,24.22s-7.81,23.43-1.22,33.04
	c8.02,11.71,24.31,13.4,38.49,13.98c53.33,2.19,106.66,4.37,159.99,6.56c82.14,3.37,166.04,6.53,244.88-16.76
	c23.25-6.87,47.53-17.4,59.59-38.43c10.71-18.65,9.57-41.7,16.24-62.14c13.31-40.77,54.24-64.42,87.35-91.68
	c62.08-51.09,103.72-126.37,114.02-206.11"/>
<path fill="none" stroke="#000000" stroke-width="7" stroke-linecap="round" stroke-linejoin="round" stroke-miterlimit="10" d="
	M372.96,46.17c-0.39,154.5-0.78,308.99-1.17,463.49"/>
<text transform="matrix(1 0 0 1 252.5559 25.8944)" font-family="'PermanentMarker'" font-size="30.74px">remaining years</text>
<g>
	<text transform="matrix(1 0 0 1 206.5298 106.6333)" fill="#D7DF23" font-family="'PermanentMarker'" font-size="30.74px">maldives</text>
	<path fill="none" stroke="#D7DF23" stroke-width="7" stroke-linecap="round" stroke-linejoin="round" stroke-miterlimit="10" d="
		M375.44,85.07c0.54,8.43,1.09,16.86,1.63,25.29c0.48-9.36,0.95-18.72,1.43-28.08c-3.67,9.67-1.91,21.21,4.48,29.34
		c-0.2-9.59-0.4-19.18-0.6-28.77c-3.11,9.87-0.94,21.25,5.59,29.28c-0.42-9.19-0.84-18.37-1.26-27.56
		c1.01,8.81,2.01,17.62,3.02,26.43c0.79-9.58,1.57-19.17,2.36-28.75c0.67,10.42,1.34,20.84,2.01,31.26
		c0.86-10.17,1.71-20.33,2.57-30.5c0.14,10.65,0.28,21.29,0.42,31.94c1.42-12.71,2.83-25.42,4.25-38.13
		c0.8,12.77,1.6,25.53,2.4,38.3c0.23-10.08,0.46-20.15,0.68-30.23c2.9,8.94,5.8,17.88,8.7,26.81c-0.22-10.63-0.44-21.25-0.66-31.88
		c-2.7,11-0.75,23.07,5.28,32.67c0.72-9.08,1.44-18.16,2.15-27.25c-1.07,8.97,1.3,18.3,6.53,25.67c0.37-10.33,0.74-20.66,1.1-30.99
		c2.37,12.44,4.74,24.88,7.11,37.32c1.41-11.6,2.82-23.21,4.23-34.81c0.94,9.75,1.88,19.5,2.81,29.25
		c1.54-9.73,3.07-19.45,4.61-29.18c1.38,9.81,2.76,19.62,4.13,29.43c-2.08-8.43-0.54-17.69,4.16-24.98
		c0.18,9.1,0.37,18.19,0.55,27.29c-0.53-12.35-1.06-24.71-1.6-37.06c3.8,13.09,7.6,26.18,11.4,39.26
		c0.64-11.8,1.28-23.61,1.93-35.41c0.96,11.5,1.92,22.99,2.89,34.49c1.43-11.48,2.85-22.95,4.28-34.43
		c-0.63,11.27-1.26,22.54-1.88,33.82c1.73-10.7,3.45-21.41,5.18-32.11c1.42,10.29,2.84,20.58,4.26,30.87
		c0.09-11.53,0.19-23.06,0.28-34.58c-0.01,11.03-0.02,22.06-0.03,33.08c1.5-11.75,3-23.49,4.49-35.24
		c0.96,12.9,1.92,25.79,2.88,38.69c1.88-12.77,3.76-25.54,5.63-38.31c-0.02,12.03-0.05,24.06-0.07,36.09
		c1.23-11.48,2.47-22.96,3.7-34.44c1.93,12.71,3.86,25.41,5.79,38.12c1.27-12.19,2.54-24.39,3.8-36.58
		c0.51,9.92,1.02,19.85,1.52,29.77c1.13-8.35,2.27-16.7,3.4-25.05c0.11,7.49,0.22,14.99,0.34,22.48
		c-0.02-9.66-0.03-19.32-0.05-28.98c1.04,10.33,2.08,20.66,3.13,30.99c-0.02-9.27-0.05-18.55-0.07-27.82
		c1.04,9.48,2.08,18.96,3.11,28.44c1.55-8.61,3.09-17.22,4.64-25.83c0.04,8.69,0.07,17.38,0.11,26.07
		c1.52-8.87,3.03-17.74,4.55-26.6c0.86,7.53,1.72,15.07,2.58,22.6c0.86-7.69,1.71-15.38,2.57-23.07c1.6,7.91,3.2,15.82,4.81,23.73
		c0.52-8.35,1.04-16.71,1.56-25.06c1.25,9.14,2.5,18.29,3.75,27.43c1.32-8.44,2.65-16.89,3.97-25.33
		c1.22,7.89,2.44,15.77,3.66,23.66c0.27-9.19,0.54-18.38,0.81-27.57c0.25,8.44,0.5,16.88,0.74,25.31
		c0.79-8.39,1.58-16.77,2.36-25.16c0.63,9.29,1.26,18.57,1.89,27.86c0.75-10.33,1.51-20.66,2.26-31
		c0.91,11.89,1.83,23.77,2.74,35.66c1.49-11.7,2.98-23.41,4.47-35.11c0.15,10.28,0.3,20.56,0.45,30.84
		c1.34-9.96,2.69-19.92,4.03-29.88c0.76,11.27,1.52,22.55,2.28,33.82c0.54-11.33,1.08-22.66,1.62-33.99
		c0.35,8.84,0.71,17.68,1.06,26.53c1.15-9.24,2.3-18.49,3.45-27.73c0.53,8.71,1.07,17.42,1.6,26.14c0.64-9.03,1.27-18.05,1.91-27.08
		c0.11,10.34,0.21,20.69,0.32,31.03c2.06-9.29,4.13-18.58,6.19-27.86c0.28,7.76,0.57,15.51,0.85,23.27c1.1-9.95,2.2-19.9,3.3-29.85
		c0.79,13.23,1.59,26.46,2.38,39.7c0.22-10.32,0.44-20.64,0.66-30.97c2.03,9.37,4.07,18.74,6.1,28.1c-0.7-9.83-1.39-19.67-2.09-29.5
		c1.58,8.78,3.17,17.57,4.75,26.35c-0.16-9.18-0.33-18.35-0.49-27.53c0.57,8.63,1.14,17.26,1.71,25.89
		c1.07-9.26,2.15-18.53,3.22-27.79c0.44,8.68,0.88,17.36,1.32,26.03c5.17-7.68,6.97-17.54,4.86-26.55
		c0.08,7.85,0.17,15.71,0.25,23.56c1.29-7.75,2.58-15.5,3.87-23.25c0.09,9.37,0.19,18.73,0.28,28.1c1.04-8.34,2.09-16.69,3.13-25.03
		c0.43,9.64,0.85,19.27,1.28,28.91c0.99-9.51,1.98-19.01,2.97-28.52c-2.7,9.92-1.56,20.84,3.14,29.99
		c0.29-11.39,0.58-22.78,0.87-34.18c1.35,9.38,2.69,18.75,4.04,28.13c0.18-9.41,0.36-18.82,0.55-28.22
		c1.27,10.21,2.54,20.42,3.82,30.64c0.85-8.81,1.7-17.63,2.56-26.44c0.38,8.96,0.76,17.92,1.14,26.89
		c0.96-9.23,1.92-18.47,2.88-27.7c1.74,8.82,3.47,17.64,5.21,26.45c0.35-8.01,0.7-16.02,1.05-24.03c1.47,8.22,2.94,16.43,4.42,24.65
		c0.35-8.24,0.71-16.49,1.06-24.73c1,8.72,1.99,17.43,2.99,26.15c1.66-10.29,3.33-20.58,4.99-30.87
		c0.53,10.33,1.05,20.66,1.58,30.99c0.18-9.86,0.36-19.73,0.54-29.59c1.11,10.65,2.23,21.29,3.34,31.94
		c0.42-10.67,0.85-21.34,1.27-32.01c1.11,9.45,2.21,18.91,3.32,28.36c0.19-9.46,0.38-18.92,0.57-28.39c0.6,8.85,1.2,17.7,1.81,26.55
		c1.26-8.48,2.52-16.96,3.78-25.44"/>
	<text transform="matrix(1 0 0 1 699.7538 106.6332)" font-family="'PermanentMarker'" font-size="30.74px">100</text>
</g>
<g>
	<text transform="matrix(1 0 0 1 55.2627 168.8275)"><tspan x="0" y="0" fill="#D7DF23" font-family="'PermanentMarker'" font-size="30.74px">gre</tspan><tspan x="52.71" y="0" fill="#D7DF23" font-family="'PermanentMarker'" font-size="30.74px" letter-spacing="-1">a</tspan><tspan x="69.04" y="0" fill="#D7DF23" font-family="'PermanentMarker'" font-size="30.74px">t barri</tspan><tspan x="173.75" y="0" fill="#D7DF23" font-family="'PermanentMarker'" font-size="30.74px">e</tspan><tspan x="189.48" y="0" fill="#D7DF23" font-family="'PermanentMarker'" font-size="30.74px">r reef</tspan></text>
	<path fill="none" stroke="#D7DF23" stroke-width="7" stroke-linecap="round" stroke-linejoin="round" stroke-miterlimit="10" d="
		M376.44,143.98c0.53,8.81,1.06,17.62,1.59,26.42c1.2-9.29,2.39-18.57,3.59-27.86c-0.4,9.88-0.8,19.77-1.19,29.65
		c1.52-10.63,3.04-21.26,4.55-31.89c0.31,10.91,0.63,21.82,0.94,32.73c2.01-10.27,4.03-20.54,6.04-30.82
		c-0.1,8.16-0.21,16.32-0.31,24.48c1.48-7.74,2.96-15.49,4.44-23.23c1.04,9.01,2.08,18.01,3.13,27.02
		c1.64-10.33,3.29-20.66,4.93-30.99c1.22,12.29,2.44,24.57,3.66,36.86c1.18-11.05,2.36-22.09,3.53-33.14
		c0.02,9.36,0.05,18.71,0.07,28.07c0.7-8.36,1.41-16.72,2.11-25.08c0.54,8.61,1.08,17.22,1.62,25.82
		c1.22-8.76,2.44-17.53,3.67-26.29c1.33,7.84,2.66,15.69,3.98,23.53c0.71-8.43,1.41-16.85,2.12-25.28
		c0.26,8.42,0.51,16.84,0.77,25.26c1.7-7.74,3.39-15.48,5.09-23.21c-0.28,8.73-0.55,17.45-0.83,26.18
		c2.08-9.45,4.16-18.91,6.24-28.36c0.27,9.15,0.55,18.31,0.82,27.46c0.97-9.13,1.94-18.27,2.91-27.4
		c0.07,8.53,0.15,17.06,0.22,25.59c1.96-8.54,3.92-17.07,5.88-25.61c-0.1,10.4-0.2,20.79-0.3,31.19c2.25-10.13,4.5-20.25,6.75-30.38
		c-0.22,8.28-0.45,16.56-0.67,24.84c1.34-8.3,2.68-16.6,4.02-24.89c-0.07,7.93-0.15,15.87-0.22,23.8c2.03-6.93,4.06-13.86,6.09-20.8
		c-0.16,8.27-0.33,16.54-0.49,24.8c1.92-8.51,3.85-17.03,5.77-25.54c0.72,11.85,0.72,11.85,1.44,23.7
		c0.54-12.01,1.8-12.18,2.34-24.19c0.58,7.46,1.15,14.92,1.73,22.37c1.46-7.99,2.92-15.98,4.38-23.97
		c-0.47,8.38-0.95,16.76-1.42,25.14c2.16-7.61,4.32-15.23,6.48-22.84c-0.15,7.49-0.3,14.97-0.45,22.46
		c1.39-7.3,2.77-14.59,4.16-21.89c-0.06,8.29-0.13,16.59-0.19,24.88c1.42-9.56,2.83-19.11,4.25-28.67
		c-0.07,8.61-0.15,17.22-0.22,25.83c1.78-8.14,3.57-16.28,5.35-24.42c-0.2,8.04-0.4,16.09-0.6,24.13c2.5-8.4,5-16.8,7.49-25.21
		c-1.09,8.75-2.19,17.5-3.28,26.25c2.48-8.31,4.96-16.61,7.45-24.92c-0.33,7.03-0.65,14.06-0.98,21.1
		c0.68-7.08,1.35-14.16,2.03-21.24c1.59,8.32,3.18,16.63,4.76,24.95c-0.57-9.26-1.13-18.53-1.7-27.79
		c1.98,9.06,3.96,18.12,5.94,27.18c1.08-8.39,2.17-16.77,3.25-25.16c1.14,7.68,2.28,15.37,3.43,23.05
		c0.71-6.89,1.43-13.78,2.14-20.67c0.25,9.25,0.51,18.51,0.76,27.76c0.82-9.38,1.64-18.76,2.46-28.14
		c1.32,8.16,2.65,16.32,3.97,24.47c0.12-9.07,0.25-18.14,0.37-27.21c0.46,8.06,0.93,16.13,1.39,24.19
		c0.49-7.43,0.97-14.86,1.46-22.29c2.13,9.04,4.25,18.08,6.38,27.12c-0.06-8.47-0.13-16.94-0.19-25.41
		c1.51,7.76,3.03,15.52,4.54,23.28c1.83-8.65,3.66-17.3,5.49-25.95c-0.43,8.65-0.86,17.29-1.29,25.94
		c1.31-8.44,2.61-16.89,3.92-25.33c0.6,7.69,1.19,15.39,1.79,23.08c0.91-6.42,1.81-12.84,2.72-19.26
		c0.09,6.71,0.18,13.42,0.27,20.12c1.61-8.67,3.22-17.34,4.82-26c-0.49,8.45-0.99,16.9-1.48,25.35c3.68-7.99,7.36-15.97,11.04-23.96
		c-0.39,8.77-0.78,17.54-1.18,26.3c2.37-8.4,4.74-16.81,7.11-25.21c-0.42,7.56-0.84,15.12-1.26,22.67
		c1.37-7.23,2.75-14.46,4.12-21.7c0.88,8.07,1.76,16.14,2.64,24.21c0.24-8.54,0.48-17.07,0.72-25.61
		c1.31,7.14,2.61,14.28,3.92,21.41c0.08-6.53,0.15-13.05,0.23-19.58c0,7.39,0,14.78-0.01,22.17c1.65-7.41,3.3-14.82,4.95-22.22
		c-0.09,6.64-0.18,13.27-0.27,19.91c1.52-7.07,3.05-14.14,4.57-21.21c-0.63,8.33-1.27,16.67-1.9,25c1.33-7.82,2.65-15.65,3.98-23.47
		c1.62,6.61,3.24,13.21,4.86,19.82c0.55-6.71,1.1-13.42,1.65-20.12c-0.03,7.01-0.05,14.01-0.08,21.02c0.7-6.8,1.4-13.6,2.1-20.4
		c1.62,6.61,3.24,13.23,4.86,19.84c0.59-6.75,1.18-13.5,1.77-20.25c0.36,6.83,0.72,13.67,1.07,20.5c1.44-6.61,2.88-13.22,4.32-19.82
		c-0.37,9.01-0.73,18.01-1.1,27.02c1.56-9.37,3.12-18.73,4.68-28.1c0.08,7.45,0.17,14.9,0.25,22.35c1.43-7.77,2.86-15.54,4.3-23.31
		c0.87,8.18,1.73,16.36,2.6,24.54c0.34-7,0.69-14,1.03-21c0.9,6.46,1.81,12.92,2.71,19.38c1.4-7.8,2.8-15.6,4.19-23.4
		c0.36,7.72,0.72,15.44,1.07,23.15c1.73-7.9,3.46-15.81,5.18-23.71c-0.34,8.76-0.67,17.52-1.01,26.28
		c1.14-8.98,2.28-17.97,3.41-26.95c0.19,9.92,0.38,19.84,0.56,29.76c1.72-9.52,3.44-19.04,5.17-28.57
		c-0.21,9.24-0.42,18.49-0.63,27.73c1.99-9.07,3.97-18.14,5.96-27.22c0.56,8.18,1.12,16.37,1.68,24.55
		c-0.05-8.97-0.1-17.94-0.16-26.91c1.27,7.92,2.55,15.84,3.82,23.75c0.62-6.98,1.25-13.96,1.87-20.95
		c0.93,7.88,1.86,15.76,2.8,23.64c0.61-7.79,1.22-15.57,1.83-23.36c1.86,6.97,3.72,13.94,5.58,20.91c1.92-7.1,3.84-14.2,5.76-21.3
		c0.2,6.89,0.41,13.79,0.61,20.68"/>
	<text transform="matrix(1 0 0 1 699.7538 168.8275)" font-family="'PermanentMarker'" font-size="30.74px">100</text>
</g>
<g>
	<text transform="matrix(1 0 0 1 249.1464 231.0217)"><tspan x="0" y="0" fill="#FBB040" font-family="'PermanentMarker'" font-size="30.74px">veni</tspan><tspan x="58.15" y="0" fill="#FBB040" font-family="'PermanentMarker'" font-size="30.74px">c</tspan><tspan x="73.64" y="0" fill="#FBB040" font-family="'PermanentMarker'" font-size="30.74px">e</tspan></text>
	<path fill="none" stroke="#FBB040" stroke-width="7" stroke-linecap="round" stroke-linejoin="round" stroke-miterlimit="10" d="
		M373.27,211.96c0.35,7.01,0.69,14.02,1.04,21.03c0.91-8.57,1.83-17.14,2.74-25.71c0.92,11.76,2.58,14.95,3.51,26.71
		c1.07-12.38,1.4-16.2,2.47-28.58c1.6,10.34,3.2,20.67,4.8,31.01c0.3-9.39,0.6-18.79,0.9-28.18c1.27,10.29,2.55,20.59,3.82,30.88
		c0.49-10.49,0.97-20.99,1.46-31.48c1.27,8.94,2.55,17.87,3.82,26.81c0.78-8.72,1.56-17.44,2.33-26.16
		c1.64,9.76,3.28,19.52,4.93,29.28c0.52-10.92,1.05-21.84,1.57-32.77c0.97,9.68,1.93,19.35,2.9,29.03
		c0.75-8.65,1.5-17.31,2.25-25.96c1.02,10,2.05,19.99,3.07,29.99c0.97-9.73,1.95-19.47,2.92-29.2c1.09,9.99,2.18,19.98,3.26,29.97
		c0.44-9.84,0.88-19.68,1.32-29.52c1.68,10.67,3.36,21.34,5.04,32.01c0.36-10.72,0.73-21.45,1.09-32.17
		c1.73,9.67,3.46,19.34,5.19,29.01c0.55-10.15,1.09-20.29,1.64-30.44c0.21,9.42,0.41,18.84,0.62,28.26
		c1.49-9.22,2.98-18.44,4.47-27.65c0.03,9.85,0.05,19.7,0.08,29.55c2.41-10.33,4.81-20.67,7.22-31
		c-1.54,10.48-3.08,20.96-4.62,31.44c2.32-9.04,4.64-18.08,6.96-27.11c0.71,7.53,1.42,15.05,2.13,22.58
		c0.39-8.8,0.77-17.6,1.16-26.4c1.5,9.67,3,19.34,4.49,29.01c0.85-8.05,1.7-16.1,2.55-24.16c0.42,6.54,0.85,13.08,1.27,19.62
		c0.81-6.88,1.62-13.77,2.43-20.65c0.77,10.56,1,13.75,1.78,24.31c1.32-12.66,3.19-17.94,4.51-30.6
		c-0.05,13.41-0.06,18.18-0.11,31.58c2.28-11.21,4.53-13.78,6.82-24.98c-0.82,9-1.63,17.99-2.45,26.99
		c1.75-10.69,3.49-21.39,5.24-32.08c0.59,8.81,1.18,17.62,1.77,26.43c0.35-7.86,0.7-15.72,1.05-23.58c1,7.65,2,15.29,3,22.94
		c1.07-8.63,2.15-17.26,3.22-25.89c1.13,8.34,2.26,16.68,3.39,25.02c1.31-8.95,2.62-17.9,3.93-26.84c0.23,8.62,0.47,17.24,0.7,25.85
		c1.32-7.88,2.64-15.76,3.96-23.65c-0.25,9.15-0.5,18.3-0.75,27.45c2.07-9.18,4.15-18.35,6.22-27.53
		c0.29,8.79,0.58,17.57,0.87,26.36c1.27-8.12,2.54-16.24,3.81-24.36c1.25,7.09,2.51,14.19,3.76,21.28c0.5-8.7,1-17.4,1.51-26.1
		c2.32,8.76,4.65,17.51,6.97,26.27c-0.14-7.55-0.28-15.11-0.41-22.66c1.52,7.46,3.05,14.91,4.57,22.37
		c0.11-12.15,0.13-14.35,0.23-26.5c1.55,10.69,3.19,11.42,4.74,22.11c0.51-7.68,1.01-15.37,1.52-23.05
		c0.45,8.21,0.9,16.43,1.35,24.64c1.05-6.36,2.1-12.73,3.15-19.09c1.67,8.01,3.35,16.02,5.02,24.04c0.04-6.94,0.09-13.88,0.13-20.82
		c1.68,7.85,3.37,15.7,5.05,23.55c0.71-10.35,1.42-20.69,2.13-31.04c1.29,9.24,2.58,18.47,3.86,27.71
		c0.12-10.33,0.23-20.65,0.35-30.98c0.58,10.47,1.16,20.94,1.74,31.4c1.04-9.26,2.08-18.51,3.11-27.77
		c0.01,10.2,0.02,20.4,0.04,30.59c1.13-10.73,2.27-21.47,3.4-32.2c0.79,9.55,1.57,19.1,2.36,28.65c0.25-9.33,0.51-18.67,0.76-28
		c0.84,9.84,1.67,19.69,2.51,29.53c0.95-10.58,1.89-21.16,2.84-31.74c0.6,9.75,1.2,19.5,1.81,29.24c0.66-7.85,1.33-15.7,1.99-23.55
		c0.95,7.07,1.9,14.14,2.86,21.21c0.97-7.96,1.94-15.91,2.92-23.87c0.17,9.73,0.34,19.46,0.51,29.19
		c1.41-9.56,2.83-19.12,4.24-28.67c0.49,8.48,0.98,16.96,1.46,25.44"/>
	<text transform="matrix(1 0 0 1 606.0107 231.0217)" font-family="'PermanentMarker'" font-size="30.74px">70</text>
</g>
<g>
	<text transform="matrix(1 0 0 1 155.695 293.2159)"><tspan x="0" y="0" fill="#F7941E" font-family="'PermanentMarker'" font-size="30.74px">the </tspan><tspan x="60.04" y="0" fill="#F7941E" font-family="'PermanentMarker'" font-size="30.74px">d</tspan><tspan x="75.02" y="0" fill="#F7941E" font-family="'PermanentMarker'" font-size="30.74px">ead sea</tspan></text>
	<path fill="none" stroke="#F7941E" stroke-width="7" stroke-linecap="round" stroke-linejoin="round" stroke-miterlimit="10" d="
		M373,275.33c0.71,7.01,1.43,14.03,2.14,21.04c0.79-6.96,1.58-13.93,2.37-20.89c0.84,7.11,1.68,14.23,2.53,21.34
		c0.41-8.65,0.83-17.3,1.24-25.96c0.83,9.75,1.66,19.49,2.49,29.24c1.31-10.3,2.61-20.61,3.92-30.91
		c1.34,10.62,2.69,21.24,4.03,31.86c0.53-11.44,1.06-22.88,1.6-34.32c1.78,13.4,3.56,26.81,5.34,40.21
		c0.78-13.33,1.56-26.66,2.34-39.99c0.29,10.71,0.58,21.41,0.87,32.12c1.18-9.26,2.36-18.53,3.54-27.79
		c1.2,10.16,2.4,20.32,3.6,30.48c0.76-8.32,1.53-16.65,2.29-24.97c0.26,7.27,0.53,14.55,0.79,21.82c0.6-8.33,1.19-16.66,1.79-24.99
		c1.69,7.62,3.39,15.24,5.08,22.87c1.08-10.66,2.16-21.33,3.24-31.99c0.42,10.58,0.84,21.16,1.25,31.74
		c0.41-8.77,0.83-17.54,1.24-26.31c0.76,8.39,1.52,16.79,2.27,25.18c2.45-6.87,4.89-13.74,7.34-20.62
		c-0.31,7.54-0.62,15.09-0.94,22.63c-0.04-8.92-0.07-17.83-0.11-26.75c1.81,9.94,3.63,19.89,5.44,29.83
		c0.2-10.8,0.39-21.59,0.59-32.39c1.6,9.56,3.2,19.12,4.8,28.68c0.66-9.65,1.33-19.3,1.99-28.94c0.6,10.68,1.21,21.36,1.81,32.05
		c2.17-9.92,4.35-19.84,6.52-29.76c0.45,8.38,0.9,16.76,1.35,25.14c0.48-9.89,0.95-19.78,1.43-29.66c0.9,10.03,1.8,20.06,2.7,30.09
		c0.57-8.08,1.14-16.16,1.71-24.25c1.17,8.75,2.34,17.5,3.51,26.25c0.35-8.2,0.69-16.41,1.04-24.61c1.11,8.17,2.21,16.34,3.32,24.51
		c0.24-8.6,0.48-17.21,0.71-25.81c1.59,7.42,3.17,14.83,4.76,22.25c-0.05-8.92-0.11-17.85-0.16-26.77
		c1.64,10.47,3.28,20.93,4.92,31.4c0.39-10.36,0.78-20.71,1.17-31.07c1.41,10.96,2.82,21.92,4.23,32.87
		c0.38-10.56,0.76-21.12,1.14-31.68c1.04,9.9,2.08,19.8,3.12,29.71c0.26-12.24,0.52-24.48,0.78-36.73
		c0.76,10.96,1.52,21.92,2.28,32.88c0.93-10.27,1.87-20.54,2.8-30.81c0.33,11.18,0.67,22.37,1,33.55
		c0.86-6.86,1.72-13.71,2.58-20.57c0.32,7.25,0.63,14.5,0.95,21.74c0.93-8,1.86-16,2.79-24c0.67,7.15,1.34,14.3,2.02,21.45
		c0.1-9.18,0.19-18.37,0.29-27.55c0.59,8.14,1.18,16.27,1.76,24.41c1.6-10.94,3.2-21.89,4.81-32.83
		c0.73,11.45,1.45,22.89,2.18,34.34c-0.02-9.42-0.04-18.83-0.05-28.25c0.98,9.21,1.97,18.41,2.95,27.62
		c1.17-8.11,2.34-16.23,3.51-24.34c1.05,9.54,2.1,19.07,3.15,28.61"/>
	<text transform="matrix(1 0 0 1 539.3342 293.2159)" font-family="'PermanentMarker'" font-size="30.74px">50</text>
</g>
<g>
	<text transform="matrix(1 0 0 1 68.0204 355.4101)"><tspan x="0" y="0" fill="#F15A29" font-family="'PermanentMarker'" font-size="30.74px">the a</tspan><tspan x="77.9" y="0" fill="#F15A29" font-family="'PermanentMarker'" font-size="30.74px">l</tspan><tspan x="93.69" y="0" fill="#F15A29" font-family="'PermanentMarker'" font-size="30.74px">p’s glaci</tspan><tspan x="221.51" y="0" fill="#F15A29" font-family="'PermanentMarker'" font-size="30.74px">e</tspan><tspan x="237.24" y="0" fill="#F15A29" font-family="'PermanentMarker'" font-size="30.74px">rs</tspan></text>
	<path fill="none" stroke="#F15A29" stroke-width="7" stroke-linecap="round" stroke-linejoin="round" stroke-miterlimit="10" d="
		M375.87,335.58c2.11,8.11,0.25,17.74,2.36,25.85c-0.17-6.57-0.35-13.13-0.52-19.7c0.67,5.05,1.33,10.1,2,15.15
		c0.06-8.12,0.12-16.24,0.18-24.36c0.72,9.88,1.43,19.77,2.15,29.65c0.95-8.67,1.9-17.34,2.85-26c0.5,6.66,1,13.32,1.5,19.97
		c-0.05-10.15-0.02-17.2-0.07-27.34c0.3,10.94,0.51,18.78,0.81,29.73c1.1-7.22,2.21-14.44,3.31-21.66
		c0.87,6.71,1.75,13.42,2.62,20.14c0.16-9.52,0.32-19.04,0.48-28.57c1.42,14.15,1.97,19.62,3.39,33.77
		c0.54-9.6,1.94-10.51,2.48-20.11c0.32,3.99,0.64,7.99,0.97,11.98c0-6.34,0-12.67-0.01-19.01c1.54,9.84,3.07,19.68,4.61,29.52
		c0.67-9.66,1.34-19.32,2.01-28.98c0.47,10.03,0.73,15.49,1.21,25.53c0.27-9.59,0.77-14.61,1.04-24.21
		c1.06,9.36,2.12,18.72,3.19,28.08c0.88-9.01,1.76-18.02,2.64-27.03c1.09,7.29,2.19,14.59,3.28,21.88
		c0.02-7.19,0.04-14.37,0.05-21.56c2.63,10.86,3.62,14.96,6.26,25.82c-0.03-11.98,1.57-17.2,1.53-29.18
		c0.69,9,1.38,17.99,2.07,26.99c0.3-9.96,0.59-19.93,0.89-29.89c0.94,8.11,1.89,16.23,2.83,24.34c0.95-6.48,1.89-12.96,2.84-19.45
		c1.41,7.54,2.83,15.08,4.24,22.63c-0.34-11.56-0.6-20.5-0.95-32.06c0.85,8.33,1.62,14.03,2.47,22.36
		c1.35-7.47,2.7-14.95,4.06-22.42c0.53,9.59,1.07,19.19,1.6,28.78c-0.53-9.7-1.06-19.39-1.59-29.09c0.63,11.41,1.27,22.82,1.9,34.23
		c1.06-11.1,2.12-22.21,3.18-33.31c0.53,8.15,1.06,16.3,1.59,24.45c-0.09-6.68-0.19-13.36-0.28-20.04
		c0.94,9.31,1.88,18.61,2.83,27.92c0.92-9.2,1.84-18.41,2.76-27.61c0.89,9.09,1.78,18.18,2.67,27.27
		c-0.04-10.1-0.09-20.2-0.13-30.29c1.2,11.1,2.4,22.21,3.59,33.31c1.29-9.32,2.58-18.64,3.88-27.96c0.83,7,1.65,14,2.48,21
		c0.55-7.18,1.11-14.35,1.66-21.53c0.44,7.18,0.87,14.35,1.31,21.53c1.1-7.75,2.2-15.51,3.3-23.26c0.56,10.39,1.12,20.77,1.69,31.16
		c0.46-11.98,0.92-23.97,1.39-35.95c0.6,9.69,1.21,19.39,1.81,29.08c1.54-6.86,3.07-13.73,4.61-20.59
		c0.58,9.68,1.26,15.19,1.84,24.87c0.34-15.31,0.77-17.81,1.11-33.12c0.26,11.77,0.33,14.88,0.59,26.65
		c0.7-0.73,5.37-23.81,5.32-21.43"/>
	<text transform="matrix(1 0 0 1 508.1503 355.4101)" font-family="'PermanentMarker'" font-size="30.74px">40</text>
</g>
<g>
	<text transform="matrix(1 0 0 1 17.257 417.6043)"><tspan x="0" y="0" fill="#EF4136" font-family="'PermanentMarker'" font-size="30.74px">madag</tspan><tspan x="96.09" y="0" fill="#EF4136" font-family="'PermanentMarker'" font-size="30.74px">a</tspan><tspan x="113.35" y="0" fill="#EF4136" font-family="'PermanentMarker'" font-size="30.74px">scar’s forests</tspan></text>
	<path fill="none" stroke="#EF4136" stroke-width="7" stroke-linecap="round" stroke-linejoin="round" stroke-miterlimit="10" d="
		M373.2,398.9c0.35-0.96,0.7-1.92,1.05-2.88c-0.43,10.04-0.73,16.92-1.16,26.96c0.71-9.77,1.28-16.37,1.99-26.13
		c0.63,7.69,1.26,15.38,1.9,23.06c0.74-8.63,1.48-17.26,2.22-25.9c0.13,9.46,0.26,18.92,0.38,28.38c1.78-9.51,3.55-19.03,5.33-28.54
		c-0.44,8.33-0.87,16.66-1.31,24.99c1.07-6.77,2.14-13.54,3.22-20.32c0.29,6.35,0.58,12.69,0.87,19.04
		c0.61-8.25,1.22-16.51,1.82-24.76c0.2,9.89,0.4,19.78,0.6,29.67c1.96-9.24,3.91-18.49,5.87-27.73c-0.12,7.9-0.24,15.79-0.35,23.69
		c1.04-7.27,2.08-14.55,3.11-21.82c0.41,8.94,0.83,17.88,1.24,26.81c1.21-8.32,2.42-16.64,3.63-24.97
		c0.19,8.26,0.38,16.52,0.57,24.78c1.41-10.23,2.82-20.45,4.23-30.68c0.4,9.36,0.79,18.73,1.19,28.09
		c0.99-7.37,1.98-14.73,2.97-22.1c1.12,7.5,2.24,15.01,3.36,22.51c0.81-9.03,1.63-18.06,2.44-27.09c0.23,10.53,0.37,16.78,0.6,27.31
		c1.65-10.09,3.4-15.9,5.05-25.99c0.08,8.88,0.16,17.76,0.24,26.64c1-8.98,2.01-17.95,3.01-26.93c0.46,7.41,0.92,14.81,1.38,22.22
		c1.16-7.73,2.31-15.46,3.47-23.19c-0.31,8.89-0.63,17.78-0.94,26.67c1.53-5.08,3.05-10.15,4.58-15.23c0,6.36-0.01,12.72-0.01,19.08
		c0.52-9.9,1.04-19.8,1.56-29.7c1.04,9.16,2.08,18.33,3.12,27.49c1.18-9.79,2.36-19.58,3.54-29.37c0,11.85,0.32,19.55,0.32,31.4
		c0.88-11.75,1.45-19.37,2.33-31.12c0.88,9.19,1.75,18.38,2.63,27.56c0.81-7.06,1.63-14.11,2.44-21.17
		c-0.36,6.46-0.72,12.93-1.09,19.39c1.58-8.24,3.16-16.47,4.74-24.71c0.74,10.7,1.48,21.4,2.22,32.1
		c0.61-10.44,1.22-20.88,1.83-31.32c0.6,8.44,1.2,16.87,1.81,25.31c1.2-9.77,2.4-19.53,3.6-29.3c-0.38,11.6-0.76,23.2-1.15,34.81
		c1.02-11.24,2.03-22.48,3.05-33.72c0.34,10.76,0.68,21.53,1.02,32.29c0.67-9.58,1.35-19.16,2.02-28.75
		c-0.08,8.45-0.15,16.91-0.23,25.36c1.07-9.68,2.14-19.37,3.21-29.05c-0.06,10.67-0.12,21.33-0.18,32
		c0.95-11.6,1.39-17.05,2.34-28.64c-0.24,10.62,0.02,15.1-0.22,25.72c0.85-9.55,1.69-19.1,2.54-28.65
		c0.33,15.02,0.33,15.02,0.66,30.04"/>
	<text transform="matrix(1 0 0 1 494.7368 417.6043)" font-family="'PermanentMarker'" font-size="30.74px">35</text>
</g>
<g>
	<text transform="matrix(1 0 0 1 54.0611 479.7985)" fill="#BE1E2D" font-family="'PermanentMarker'" font-size="30.74px">congo’s rainforest</text>
	<path fill="none" stroke="#BE1E2D" stroke-width="7" stroke-linecap="round" stroke-linejoin="round" stroke-miterlimit="10" d="
		M373.41,463.25c0.02,6.04,0.03,12.08,0.05,18.12c0.74-6.11,1.48-12.22,2.22-18.33c0.89,7.27,1.77,14.54,2.66,21.81
		c0.55-7.68,1.1-15.37,1.65-23.05c0.32,6.55,0.65,13.1,0.97,19.65c0.89-7.31,1.77-14.61,2.66-21.92c0.11,8.69,0.23,17.39,0.34,26.08
		c2.18-9.58,4.35-19.17,6.53-28.75c-0.38,7.54-0.75,15.08-1.13,22.61c0.91-6.93,1.82-13.87,2.72-20.8
		c0.31,9.11,0.63,18.23,0.94,27.34c0.86-8.47,1.72-16.94,2.58-25.41c0.4,8.05,0.8,16.11,1.2,24.16c0.75-6.92,1.5-13.83,2.26-20.75
		c0.42,6.7,0.85,13.41,1.27,20.11c0.64-7.96,1.29-15.93,1.93-23.89c0.24,7.23,0.49,14.47,0.73,21.7c1.28-8.41,2.56-16.82,3.84-25.23
		c-0.01,8.25-0.01,16.49-0.02,24.74c0.91-8.94,1.81-17.87,2.72-26.81c0.29,10.16,0.58,20.31,0.88,30.47
		c0.49-8.15,0.98-16.29,1.46-24.44c0.47,8.75,0.94,17.49,1.4,26.24c0.42-10.15,0.85-20.31,1.27-30.46
		c0.69,7.34,1.37,14.69,2.06,22.03c0.33-8.81,0.71-12.43,1.04-21.24c0.09,11.11,0.14,17.03,0.23,28.14
		c0.83-8.35,1.67-16.7,2.5-25.04c0.37,8.14,0.74,16.29,1.11,24.43c0.81-9.01,1.62-18.02,2.43-27.03c0,7.53,0,15.05-0.01,22.58
		c-0.09-7.64-0.18-15.27-0.27-22.91c1.03,11.26,1.47,17.73,2.5,28.99c0.38-11.5,1.34-18.23,1.71-29.73
		c-0.06,7.44-0.12,14.87-0.18,22.31c0.65-6.14,1.29-12.28,1.94-18.42c0.73,7.8,1.45,15.6,2.18,23.39
		c-0.42-9.45-0.85-18.89-1.27-28.34c0.71,8.28,1.42,16.55,2.12,24.83c0.88-7.69,1.77-15.38,2.65-23.07
		c0.63,8.79,1.26,17.58,1.9,26.38c0.14-7.64,0.28-15.28,0.42-22.92c1.08,8.44,2.16,16.88,3.24,25.31c0.17-8.53,0.33-17.05,0.5-25.58
		c0.73,9.27,1.46,18.54,2.19,27.8c0.84-8.61,1.69-17.22,2.53-25.83c-0.17,7.95-0.33,15.9-0.5,23.86"/>
	<text transform="matrix(1 0 0 1 465.4326 479.7985)" font-family="'PermanentMarker'" font-size="30.74px">25</text>
</g>
</svg>
