<?xml version="1.0" encoding="utf-8"?>
<!-- Generator: Adobe Illustrator 18.0.0, SVG Export Plug-In . SVG Version: 6.00 Build 0)  -->
<!DOCTYPE svg PUBLIC "-//W3C//DTD SVG 1.1//EN" "http://www.w3.org/Graphics/SVG/1.1/DTD/svg11.dtd">
<svg version="1.1" id="Layer_1" xmlns="http://www.w3.org/2000/svg" xmlns:xlink="http://www.w3.org/1999/xlink" x="0px" y="0px"
	 viewBox="0 0 579 326" enable-background="new 0 0 579 326" xml:space="preserve">
<path fill="none" stroke="#FFFFFF" stroke-width="120" stroke-linejoin="bevel" stroke-miterlimit="10" d="M31.1-13.3
	C17,19,2.9,51.3-11.3,83.6C22.8,53.4,57,23.1,91.1-7.1C76.3,36.8,61.4,80.7,46.6,124.6c-12.1,35.9-24.4,72.5-25,110.4
	c-0.3,15.2,4.1,33.9,18.8,38c15.6,4.3,29-11.2,37.8-24.8c48.6-75.2,97.1-150.5,145.7-225.7c17.5,38.5,2.9,83.5-15.2,121.7
	s-40.1,77.5-36.9,119.7c27.2-18.3,42.8-49.3,53.8-80.2s18.7-63.2,35.5-91.4s45.3-52.1,78-52.2c-7.2,44.2-14.3,88.3-21.5,132.5
	c6,3.9,14.4,2.1,20-2.4c5.6-4.4,9.2-11,12.6-17.3c20.7-38.6,41.3-77.1,62-115.7c8.4,39.6,5.3,81.6-8.9,119.5
	c-5,13.5-11.5,26.6-14.5,40.7c-3,14.1-2.1,29.9,6.6,41.5c8.6,11.6,26.4,16.7,38.2,8.3c29.5-49.9,47.4-106.6,51.9-164.4
	c0.8-10.5,1.3-21.2,5.1-31.1s11.8-18.8,22.2-20.5c14.7-2.4,28.1,10.7,32,25c3.8,14.3,0.7,29.5-1.7,44.1
	c-13.1,78.1-6.1,159.5,20.1,234.2c-31.7-4.2-61.6-21-81.7-45.8c-10.8-13.4-21.5-30.6-38.7-31.9c-19-1.4-32.6,17.6-41.5,34.5
	c-8.9,16.9-20.6,36.5-39.6,37.6c-13.2,0.8-25-8.2-33.6-18.2c-8.6-10-15.5-21.7-25.8-29.9c-10.3-8.2-25.9-12.1-36.6-4.4
	c6.8,7.7,7.7,19.9,2.3,28.6c-5.5,8.7-16.9,13.1-26.8,10.3c-14.3-4-21.4-19.6-30.8-31.1C191.1,260.7,155.9,252,128,264"/>
<g>
	
		<line fill="none" stroke="#000000" stroke-width="7" stroke-linecap="round" stroke-linejoin="round" stroke-miterlimit="10" x1="25" y1="266" x2="571" y2="266"/>
	<text transform="matrix(1 0 0 1 241.1104 320)" font-family="'PermanentMarker'" font-size="31">importance of the lie</text>
	
		<polyline fill="none" stroke="#000000" stroke-width="7" stroke-linecap="round" stroke-linejoin="round" stroke-miterlimit="10" points="
		549,243.5 571,266 549,288.5 	"/>
</g>
<g>
	
		<line fill="none" stroke="#000000" stroke-width="7" stroke-linecap="round" stroke-linejoin="round" stroke-miterlimit="10" x1="47" y1="289" x2="47" y2="40"/>
	
		<polyline fill="none" stroke="#000000" stroke-width="7" stroke-linecap="round" stroke-linejoin="round" stroke-miterlimit="10" points="
		24.5,62.1 47,40.1 69.5,62.1 	"/>
	<text transform="matrix(1 0 0 1 1.0752 29)" font-family="'PermanentMarker'" font-size="31">shame</text>
</g>
<path fill="none" stroke="#C69C6D" stroke-width="7" stroke-linecap="round" stroke-miterlimit="10" d="M51.4,263.7
	c48.2-0.3,96.5-4.4,138.8-26.4s76.8-58.4,96.6-101.8c3.2-7.1,8.5-15.8,16.1-14.4c6.3,1.1,9.1,8.4,11.1,14.5
	c9.5,29.9,24.7,58,44.6,82.2c9.9,12.1,21.2,23.4,35.1,30.6s30.7,9.9,45.4,4.5c19.9-7.4,31.8-27.4,40.9-46.5
	c27.4-57.5,44-120,48.8-183.5"/>
<g>
	<path fill="none" stroke="#000000" stroke-width="7" stroke-linecap="round" stroke-miterlimit="10" d="M294.4,116.2
		c4.6,1.9,8.5,5.5,10.8,9.9"/>
	<path fill="none" stroke="#000000" stroke-width="7" stroke-linecap="round" stroke-miterlimit="10" d="M305.2,116.3
		c-3.8,1.9-7.1,4.8-9.5,8.2"/>
	<text transform="matrix(1 0 0 1 167.7676 69.5649)"><tspan x="0" y="0" font-family="'PermanentMarker'" font-size="30.74">“i did not eat the </tspan><tspan x="-18" y="36.9" font-family="'PermanentMarker'" font-size="30.74">last chocolate bar”</tspan></text>
</g>
</svg>
