<?xml version="1.0" encoding="utf-8"?>
<!-- Generator: Adobe Illustrator 19.2.0, SVG Export Plug-In . SVG Version: 6.00 Build 0)  -->
<svg version="1.1" id="Layer_1" xmlns="http://www.w3.org/2000/svg" xmlns:xlink="http://www.w3.org/1999/xlink" x="0px" y="0px"
	 width="599.62px" height="389.02px" viewBox="0 0 599.62 389.02" enable-background="new 0 0 599.62 389.02" xml:space="preserve">
<path fill="none" stroke="#FFFFFF" stroke-width="120" stroke-linejoin="bevel" stroke-miterlimit="10" d="M71.22,36.98
	c-4.51,20.57-9.01,41.14-13.52,61.72c26.45-25.38,52.91-50.77,79.36-76.15c-15.42,32.25-30.85,64.49-46.27,96.74
	c30.1-27.73,60.19-55.45,90.29-83.18c-16.44,33.74-32.89,67.48-49.33,101.21c32.37-34.49,64.74-68.98,97.11-103.47
	c-14.09,48.44-36.93,94.32-67.07,134.78c31.28-34.95,62.56-69.9,93.84-104.84c-0.35,22.68-6.01,45.26-16.41,65.41
	c-11.21,21.74-27.59,40.3-43.8,58.61C144.69,245.1,93.96,302.4,43.24,359.71c68.6-37.17,119.38-99.54,168.29-160.32
	c-25.39,51.41-50.77,102.81-76.16,154.22c29.63-37.92,59.27-75.84,88.9-113.76c-12.24,38.51-24.47,77.01-36.71,115.52
	c28.59-52.28,57.18-104.56,85.78-156.84c-12.87,58.11-25.74,116.21-38.61,174.32c25.73-47.27,51.46-94.53,77.19-141.8
	c-19.19,41.07-30.7,85.71-33.78,130.93c27.38-46.94,54.77-93.88,82.15-140.83c-1.61,52.74-3.23,105.48-4.84,158.22
	c30.69-50.75,51.98-107.15,62.48-165.52c-3.64,58-0.12,116.45,10.45,173.6c10.82-54.73,11.93-111.36,3.27-166.47
	c4.61,33.16,9.22,66.32,13.83,99.49c1.43,10.28,5.74,23.29,16.12,23.44c9.79,0.14,14.84-11.6,16.32-21.28
	c1.48-9.68,3.42-21.42,12.56-24.95c10.05,11.64,8.17,28.9,9.48,44.23c1.31,15.32,11.14,33.53,26.4,31.6
	c9.35-1.19,16.15-10.17,17.93-19.42c1.78-9.25-0.37-18.76-2.5-27.93c7.19,10.19,14.37,20.38,21.56,30.57
	c0.91-22.39,1.81-44.77,2.72-67.15c8.41,13.7,16.82,27.41,25.23,41.11c5.3-64.82,5.94-130.02,1.9-194.93
	c-1.22-19.69-3.3-40.53-15.17-56.3c-8.27-11-20.43-18.28-32.28-25.29c-2.09,28.02-4.18,56.04-6.27,84.06
	c-6.5-29.27-12.99-58.55-19.49-87.82c-1.53-6.92-3.81-14.78-10.28-17.67C499,27.91,489,40.6,484.48,51.44
	c-16.33,39.14-17.66,122.91-19.16,165.3c-4.43-54.9-16.73-151.47-21.16-206.37c-24.57,60.3-33.15,158.09-43.34,222.4
	c6.61-63.46,4.19-161.58,10.8-225.04c-20.3,70.71-49.24,138.94-85.97,202.68c-1.69-59.87-3.38-119.74-5.06-179.62
	c-22.96,76.77-37.48,156.05-43.21,235.98c0.53-79.52,1.07-159.03,1.6-238.55c-15.44,43.85-30.87,87.7-46.31,131.55
	c26.45-18.32,53.4-36.89,84.05-46.66s66.12-9.6,92.97,8.12c18.33,12.09,30.9,30.95,42.97,49.29c11.7,17.77,23.39,35.55,35.09,53.32
	c3.61,5.49,7.31,11.2,8.36,17.69c1.04,6.49-1.33,14.02-7.22,16.94"/>
<path fill="none" stroke="#000000" stroke-width="7" stroke-linecap="round" stroke-linejoin="round" stroke-miterlimit="10" d="
	M310.57,81.58c-53.93,14.48-101.06,52.58-126.53,102.27c-15.22,29.7-22.73,65.43-10.68,96.55c10.69,27.58,35.29,47.77,61.99,60.5
	c56.13,26.78,127.01,23.51,177.2-13.21s74.7-107.29,52.84-165.52c-21.86-58.23-91.45-95.61-150.72-76.74"/>
<path fill="none" stroke="#000000" stroke-width="7" stroke-linecap="round" stroke-linejoin="round" stroke-miterlimit="10" d="
	M316.07,91.89c-2.17,41.21-4.35,82.41-6.52,123.62c51.11,6.4,102.22,12.8,153.32,19.2"/>
<path fill="none" stroke="#602D91" stroke-width="7" stroke-linecap="round" stroke-linejoin="round" stroke-miterlimit="10" d="
	M324.16,89.82c-1.25,2.16-2.49,4.33-3.74,6.49c5.88-3.07,11.76-6.13,17.64-9.2c-6.36,4.24-12.72,8.48-19.07,12.72
	c9.45-4.42,18.91-8.84,28.36-13.25c-9.03,5.87-18.05,11.75-27.08,17.62c11.79-6.31,23.59-12.63,35.38-18.94
	c-12.16,8.44-24.32,16.88-36.48,25.32c13.99-7.3,27.98-14.6,41.96-21.89c-13.3,9.21-26.61,18.42-39.91,27.64
	c15.47-8.22,30.95-16.43,46.42-24.65c-14.58,9.99-29.16,19.99-43.74,29.98c17.59-10.75,35.17-21.49,52.76-32.24
	c-19.46,13.35-38.91,26.7-58.37,40.05c21.23-11.94,42.45-23.88,63.68-35.81c-21.6,14.24-43.2,28.47-64.8,42.71
	c24.1-13.95,48.19-27.9,72.29-41.84c-23.49,16.42-46.98,32.83-70.48,49.25c25.83-14.58,51.67-29.16,77.5-43.74
	c-25.71,17.7-51.42,35.41-77.13,53.11c26.81-15.97,53.62-31.94,80.43-47.91c-27.5,17.51-55,35.01-82.5,52.52
	c31.28-17.09,62.57-34.19,93.85-51.28c-29.13,24.17-61.24,44.75-95.35,61.15c36.46-18.19,72.91-36.37,109.37-54.56
	c-36.11,20.2-72.22,40.41-108.33,60.61c36.33-17.98,72.66-35.96,108.99-53.94c-36.55,20.16-73.1,40.31-109.64,60.47
	c38.81-18.94,77.61-37.88,116.42-56.82c-40.12,21.75-80.24,43.49-120.35,65.24c41.53-20.37,83.06-40.74,124.59-61.11
	c-40.89,22.77-81.78,45.54-122.67,68.31c42.91-20.98,85.82-41.96,128.73-62.95c-42.98,23.38-85.96,46.77-128.95,70.15
	c46.76-11.7,90.41-35.61,125.44-68.72c-40.6,25.87-81.2,51.74-121.79,77.61c42.9-22.44,85.8-44.87,128.71-67.31
	c-38.21,22.94-76.43,45.88-114.64,68.82c37.93-21.28,75.86-42.56,113.79-63.83c-31.26,21.87-62.52,43.73-93.77,65.6
	c33.65-21.43,67.3-42.86,100.94-64.28c-30.57,21.8-61.13,43.6-91.7,65.4c30.04-21.82,60.07-43.64,90.11-65.46
	c-25.58,21.8-51.16,43.6-76.73,65.4c24.88-20.93,49.76-41.86,74.63-62.79c-21.7,22.73-43.41,45.45-65.11,68.18
	c22.26-21.27,44.52-42.54,66.77-63.81c-19.55,21.2-39.11,42.4-58.66,63.59c19.61-19.64,39.22-39.28,58.82-58.92
	c-16.27,19.15-32.53,38.3-48.8,57.44c18.15-18.42,36.3-36.83,54.45-55.25c-16.38,19.32-32.76,38.65-49.14,57.97
	c18.74-17.29,37.47-34.59,56.21-51.88c-16.06,17.34-32.12,34.68-48.18,52.02c15.97-15.65,31.94-31.3,47.91-46.95
	c-14.36,17.24-28.72,34.47-43.08,51.71c14.41-14.37,28.83-28.74,43.24-43.11c-10.94,13.41-21.89,26.82-32.83,40.23
	c11.68-11.49,23.36-22.98,35.04-34.47c-9.42,12.26-18.83,24.53-28.25,36.79c9.88-9.87,19.77-19.75,29.65-29.62
	c-7.35,10.35-14.7,20.7-22.06,31.06c7.49-7.21,14.98-14.42,22.47-21.63c-5.37,6.75-10.74,13.49-16.12,20.24
	c4.69-3.43,9.37-6.85,14.06-10.28c-3.24,3.53-6.49,7.05-9.73,10.58c4.01-1.95,8.03-3.91,12.04-5.86c-1.26,2.6-2.52,5.19-3.78,7.79"
	/>
<text transform="matrix(1 0 0 1 431.4203 76.6307)" fill="#602D91" font-family="'PermanentMarker'" font-size="30.74px">working</text>
<path fill="none" stroke="#000000" stroke-width="7" stroke-linecap="round" stroke-linejoin="round" stroke-miterlimit="10" d="
	M308.5,218.74c-15.28,42.42-30.57,84.84-45.85,127.26"/>
<path fill="none" stroke="#F4783B" stroke-width="7" stroke-linecap="round" stroke-linejoin="round" stroke-miterlimit="10" d="
	M313.26,220.6c-1.18,1.23-2.35,2.46-3.53,3.69c3.07-1.27,6.15-2.54,9.22-3.8c-3.49,2.65-6.98,5.29-10.47,7.94
	c5.26-2.72,10.53-5.45,15.79-8.17c-6,4.36-12,8.72-18,13.07c7.58-4.24,15.16-8.48,22.74-12.71c-8.55,6.09-17.1,12.17-25.66,18.26
	c10.88-5.53,21.76-11.07,32.64-16.6c-11.62,8.43-23.24,16.86-34.87,25.29c13.84-8.5,27.69-17,41.53-25.5
	c-15.47,11.45-30.94,22.9-46.41,34.35c16.79-10.67,33.57-21.34,50.36-32.02c-17.73,12.71-35.45,25.41-53.18,38.12
	c19.42-11.86,38.83-23.71,58.25-35.57c-19.25,13.64-38.5,27.28-57.75,40.93c21.77-14.46,43.54-28.93,65.31-43.39
	c-22.65,16.15-45.3,32.29-67.94,48.44c24.6-15.05,49.21-30.11,73.81-45.16c-21.49,19.42-46.05,35.44-72.48,47.28
	c27.11-15.62,54.22-31.23,81.32-46.85c-29.47,19.08-58.95,38.17-88.42,57.25c33.76-14.35,65.71-32.98,94.83-55.28
	c-21.07,12.47-42.14,24.93-63.21,37.4c-12.49,7.39-25.21,14.97-34.65,25.98c37.83-16.95,76.4-34.39,106.74-62.64
	c-32.91,24.92-67.9,47.09-104.48,66.21c40.29-18.53,80.96-37.29,116.09-64.34c-42.11,21.31-82.8,45.44-121.71,72.15
	c46.04-17.42,89.46-41.73,128.38-71.87c-42.4,27.62-84.94,55.32-130.46,77.44c47.99-23.45,95.14-48.62,141.32-75.45
	c-46.64,29.52-93.4,59.11-143.03,83.25c50.53-27.42,101.05-54.84,151.58-82.26c-49.87,32.27-100.04,64.7-154.67,88.02
	c57.08-26.19,114.48-52.56,166.31-88.03c-57.35,32-114.71,64.01-172.06,96.01c64.29-25.93,125.32-59.22,186.17-92.43
	c-35.66,10.06-64.2,36.14-96.34,54.6c-12.18,6.99-24.93,12.92-37.67,18.83c-16.34,7.59-32.68,15.18-49.02,22.76
	c67.49-25.43,135.89-51.35,194.21-93.79c-26.97,16.54-53.94,33.08-80.91,49.62c-15.14,9.29-30.31,18.59-46.25,26.44
	c-21.98,10.83-45.3,18.82-67.04,30.14c62.49-37.45,127.53-70.66,194.51-99.32c-56.66,40.6-119.6,71.44-182.2,102.09
	c60.93-25.09,119.83-55.14,175.91-89.75c-50.72,33.38-103.26,64.01-157.29,91.71c53.78-18,102.56-48.09,150.79-77.91
	c-44.43,26.88-88.86,53.76-133.29,80.63c43.55-20.34,86.28-42.46,128.02-66.29c-32.63,23.86-67.11,45.19-103.03,63.74
	c25.63-13.13,51.27-26.25,76.9-39.38c-15.82,10.53-31.65,21.07-47.47,31.6c16.91-10.39,33.82-20.77,50.74-31.16
	c-22.06,8.01-42.87,19.46-61.45,33.81"/>
<text transform="matrix(1 0 0 1 446.4321 347.7814)" fill="#F4783B" font-family="'PermanentMarker'" font-size="30.74px">sleeping</text>
<path fill="none" stroke="#000000" stroke-width="7" stroke-linecap="round" stroke-linejoin="round" stroke-miterlimit="10" d="
	M306.05,214.12c-27.51,7.74-53.86,19.06-80.12,30.35c-17.5,7.52-34.99,15.05-52.49,22.57"/>
<path fill="none" stroke="#00A9A3" stroke-width="7" stroke-linecap="round" stroke-linejoin="round" stroke-miterlimit="10" d="
	M177.68,266.8c-0.48,3.61-0.95,7.21-1.43,10.82c2.13-4.17,4.25-8.34,6.38-12.5c-0.78,7.23-1.56,14.46-2.33,21.7
	c2.08-7.14,4.15-14.28,6.23-21.42c-0.85,8.57-1.71,17.15-2.56,25.72c2.16-11.72,4.33-23.45,6.49-35.17
	c-1.52,15.11-3.04,30.22-4.56,45.33c3.49-13.41,6.97-26.81,10.46-40.22c-1.38,14.77-2.76,29.54-4.14,44.3
	c3.97-15.85,7.93-31.7,11.9-47.55c0.13,18.05-1.71,36.1-5.48,53.75c1.3-19.26,5.51-38.32,12.43-56.35
	c-3.95,20.16-7.89,40.32-11.84,60.48c8.97-20.14,15.18-41.52,18.39-63.34c-3.91,22.67-7.82,45.34-11.73,68.01
	c5.71-23.12,11.41-46.24,17.12-69.35c0.61,25.47-15.05,49.87-11.5,75.1c5.46-25.75,10.93-51.5,16.39-77.26
	c-4.95,26.7-8.54,53.65-10.77,80.71c4.26-28.58,10.14-56.92,17.58-84.84c-4.64,29.19-9.28,58.39-13.92,87.58
	c11.38-27.44,22.91-55.46,25.21-85.09c0.1-1.25,0.17-2.55-0.34-3.7c-0.51-1.14-1.79-2.05-2.99-1.7
	c-4.58,31.18-9.16,62.37-13.74,93.55c16.24-30.65,24.59-65.44,24.02-100.12c-3.26,34.07-9.52,67.85-18.7,100.81
	c10.38-10.62,14.35-25.82,16.98-40.44c2.63-14.61,4.46-29.8,11.82-42.69c-0.34-5.36-0.67-10.72-1.01-16.08
	c-5.28,5.39-7.71,13.03-8.43,20.54c-0.73,7.51,0.06,15.08,0.3,22.62c0.67,20.99-2.99,42.11-10.67,61.66
	c16.89-32.54,18.36-70.61,19.47-107.25c-6.55,35.88-13.13,72.4-8.97,108.64c2.38-37.62,6.17-75.13,9.95-112.63
	c1.51,34.11,3.01,68.41-1.26,102.29c1.99-20.14,3.97-40.29,5.96-60.43c1.31-13.29,2.56-27.1-1.9-39.68
	c-1.15,24.45,0.21,49.01,4.05,73.19c-2.9-23.82-3.37-47.94-1.39-71.85c1.49,18.29,2.98,36.58,4.48,54.87
	c-0.7-17.37-1.4-34.74-2.09-52.12c3.07,15.99,6.14,31.98,9.21,47.97c-2.7-18.63-5.4-37.26-8.09-55.88
	c4.31,14.4,8.62,28.8,12.94,43.2c-2.19-14.73-4.38-29.45-6.57-44.18c1.57,10.38,5.65,20.38,11.8,28.89
	c-2.75-10.64-5.5-21.27-8.25-31.91c3.14,7.24,6.28,14.47,9.43,21.71c-1.25-7.68-2.5-15.36-3.75-23.04
	c2.66,5.29,5.33,10.57,7.99,15.86c-0.92-5.87-1.84-11.73-2.75-17.6c2.2,2.94,4.39,5.88,6.59,8.82c-0.06-3.56-0.12-7.12-0.17-10.68
	c0.83,1.33,1.67,2.65,2.5,3.98c-9.14,3.23-18.28,6.46-27.42,9.69"/>
<text transform="matrix(1 0 0 1 73.0359 326.2019)"><tspan x="0" y="0" fill="#00A9A3" font-family="'PermanentMarker'" font-size="30.74px">e</tspan><tspan x="16.03" y="0" fill="#00A9A3" font-family="'PermanentMarker'" font-size="30.74px" letter-spacing="-1">a</tspan><tspan x="32.36" y="0" fill="#00A9A3" font-family="'PermanentMarker'" font-size="30.74px">ting</tspan></text>
<text transform="matrix(1 0 0 1 118.0606 49.4216)"><tspan x="0" y="0" font-family="'PermanentMarker'" font-size="30.74px">time</tspan><tspan x="-60.52" y="30" font-family="'PermanentMarker'" font-size="30.74px">myst</tspan><tspan x="5.82" y="30" font-family="'PermanentMarker'" font-size="30.74px">e</tspan><tspan x="21.55" y="30" font-family="'PermanentMarker'" font-size="30.74px">r</tspan><tspan x="38.18" y="30" font-family="'PermanentMarker'" font-size="30.74px">io</tspan><tspan x="66.16" y="30" font-family="'PermanentMarker'" font-size="30.74px">us</tspan><tspan x="98.4" y="30" font-family="'PermanentMarker'" font-size="30.74px">l</tspan><tspan x="113.86" y="30" font-family="'PermanentMarker'" font-size="30.74px">y</tspan><tspan x="-22.5" y="60" font-family="'PermanentMarker'" font-size="30.74px">missing</tspan></text>
<path fill="none" stroke="#000000" stroke-width="7" stroke-linecap="round" stroke-linejoin="round" stroke-miterlimit="10" d="
	M249.48,162.06c3.42-7.06,3.5-15.65,0.21-22.77s-9.87-12.64-17.46-14.62c-10.54-2.75-21.6,1.13-31.6,5.47
	c-10,4.34-20.29,9.29-31.18,8.73c-10.88-0.56-22.27-9.06-21.54-19.93"/>
<path fill="none" stroke="#000000" stroke-width="7" stroke-linecap="round" stroke-linejoin="round" stroke-miterlimit="10" d="
	M242.96,158.26c1.31,3.1,2.61,6.19,3.92,9.29c3.39-2.16,6.77-4.31,10.16-6.47"/>
</svg>
