<?xml version="1.0" encoding="utf-8"?>
<!-- Generator: Adobe Illustrator 19.2.0, SVG Export Plug-In . SVG Version: 6.00 Build 0)  -->
<svg version="1.1" id="Layer_1" xmlns="http://www.w3.org/2000/svg" xmlns:xlink="http://www.w3.org/1999/xlink" x="0px" y="0px"
	 width="1113.29px" height="434.4px" viewBox="0 0 1113.29 434.4" enable-background="new 0 0 1113.29 434.4" xml:space="preserve">
<path fill="none" stroke="#FFFFFF" stroke-width="120" stroke-linejoin="bevel" stroke-miterlimit="10" d="M16.97,6.39
	C5.49,29.46-5.99,52.54-17.47,75.61C18.42,52.14,54.32,28.67,90.21,5.19c-27.3,37.49-54.6,74.99-81.9,112.48
	C41.81,90.28,75.3,62.88,108.8,35.49c11.45-9.37,30.44-17.95,38.77-5.73c7.52,11.01-3.92,24.88-14.33,33.22
	c-35.3,28.28-70.6,56.56-105.91,84.85c50.67-29.7,101.34-59.39,152.01-89.09C119.93,119.24,60.52,179.75,1.1,240.27
	c68.66-49.91,137.32-99.82,205.98-149.72c-18.29,39.51-51.27,70.09-84.78,97.88s-68.87,54.4-94.59,89.52
	C1.98,313.08-13.07,359.19,0.03,400.71c16.43-29.59,32.86-59.19,49.29-88.78c6.72,43.74,13.45,87.47,20.17,131.21
	c21.68-61.78,43.35-123.56,65.03-185.33c5.14,39.62,10.29,79.24,15.43,118.85c1.86,14.33,7.13,32.21,21.5,33.74
	c12.21,1.3,21.91-12.05,21.59-24.33c-0.32-12.28-7.44-23.2-14.31-33.38c10.23,34.37,20.47,68.74,30.7,103.12
	c18.62-26.63,22.23-63.07,9.21-92.84c-13.03-29.77-42.24-51.84-74.44-56.23c-18.5-2.52-41.58-1.83-50.41-18.28
	c-5.93-11.05-1.85-24.62,2.69-36.32c24.88-64.09,61.07-123.77,106.39-175.46c-27.34,60.86-42.92,126.98-45.64,193.65
	c29.2-47.69,58.41-95.37,87.61-143.06c-9.33,49.03-18.65,98.06-27.98,147.08c23.52-47.46,46.33-136.72,69.85-184.19
	c-4.91,35.71-9.12,113.22-14.04,148.93c33.61-42.25,67.22-84.5,100.83-126.76c-35.87,55.64-60.05,118.78-70.52,184.15
	c37.9-44.81,75.8-89.63,113.71-134.44c-26.61,46.71-53.22,93.43-79.83,140.14c42.45-43.85,84.91-87.71,127.36-131.56
	c-5.87,34.93-23.29,67.81-48.88,92.29c-51.31,49.06-127.06,59.99-197.54,68.52c84.59-0.87,169.18-1.73,253.77-2.6
	c-10.26,29-20.52,57.99-30.79,86.99c24.75-31.74,49.49-63.47,74.24-95.21c-18.07,40.72-36.13,81.44-54.2,122.16
	c31.93-34.51,63.86-69.02,95.79-103.53c-10.06,31.18-20.13,62.36-30.19,93.54c13.67-53.26,43.18-102.34,83.81-139.38
	c-10.05,49.15-20.1,98.29-30.15,147.44c34.28-33.93,60.01-76.44,74.18-122.55c-2.71,46-5.43,91.99-8.14,137.99
	c13.43-43.19,26.85-86.38,40.28-129.57c15.57,36.07,31.13,72.13,46.7,108.2c-1.13-39.55-2.26-79.1-3.39-118.66
	c12.11,31.16,24.22,62.32,36.33,93.48c23.12-27.04,10.1-71.65-17.56-94.01c-27.66-22.36-64.7-28.35-99.89-33.56
	c-55.49-8.21-110.98-16.42-166.47-24.64C457.5,180.17,461.29,94.11,492.61,19.2c-7.02,29.59-14.05,59.18-21.07,88.76
	c24.78-23.59,49.57-47.19,74.35-70.78c-11.65,21.38-23.3,42.76-34.95,64.14c30.02-19.31,60.05-38.63,90.07-57.94
	c-9.68,19.85-19.36,39.69-29.04,59.54c27.66-14.66,69.12-51.82,96.77-66.48c-46.14,37.68-107.96,95.57-157.62,128.49
	c25.54,0.43,51.08,0.85,76.62,1.28c-21.53,19.42-43.06,38.84-64.58,58.26c19.53-3.17,39.07-6.34,58.6-9.51
	c-8.98,20.88-17.96,41.76-26.94,62.64c31.11-3.36,58.16-30.01,61.98-61.07c14.56,11.04,29.12,22.08,43.69,33.12
	c-4.41-25.32-8.82-50.64-13.23-75.96c25.28,26.06,50.56,52.13,75.84,78.19c-5.75-33.03-11.5-66.05-17.25-99.08
	c10.94,10.93,21.88,21.87,32.82,32.8c-0.14-29.83-0.29-59.65-0.43-89.48c19.4,28.08,38.79,56.15,58.19,84.23
	c0.66-24.73,1.32-49.46,1.98-74.18c10.13,17.94,20.26,35.88,30.39,53.82c3.39-21.78,6.79-43.56,10.18-65.34
	c9.54,12.16,19.08,24.32,28.61,36.49c0.37-14.68,0.75-29.35,1.12-44.03c12.93,14.54,25.86,29.07,38.79,43.61
	c1.34-14.83,2.68-29.66,4.02-44.5c10.16,13.44,20.33,26.88,30.49,40.31c1.63-15.78,3.26-31.57,4.88-47.35
	c10.05,3.96,20.11,7.92,30.16,11.88c-38.2,51.56-115.79,51.89-167.81,89.47c-46.36,33.5-67.14,98.47-48.82,152.66
	c10.96-46.12,33.08-89.55,63.95-125.53c-15.06,57.47-30.13,114.94-45.19,172.42c17.07-80.87,50.49-158.25,97.67-226.11
	c-11.63,61.36-23.26,122.73-34.88,184.09c20.84-57.8,41.68-115.59,62.52-173.39c-19.06,77.42-38.12,154.85-57.18,232.27
	c30.02-71.48,60.03-142.96,90.05-214.44c-8.02,54.92-16.05,109.84-24.07,164.76c24.23-49.01,48.47-98.03,72.7-147.04
	c-2.68,54.73-5.35,109.46-8.03,164.19c17.7-49.29,35.4-98.58,53.09-147.87c2.07,51.53,4.14,103.06,6.2,154.59
	c5.59-39.84,11.19-79.68,16.78-119.52c20.69,28.47,29.24,65.46,23.14,100.12c6.86-18.53,13.72-37.07,20.59-55.6
	c19,39.83-6.7,94.02-49.56,104.5"/>
<g>
	
		<line fill="none" stroke="#000000" stroke-width="7" stroke-linecap="round" stroke-linejoin="round" stroke-miterlimit="10" x1="28.6" y1="351.44" x2="28.6" y2="79.16"/>
	
		<polyline fill="none" stroke="#000000" stroke-width="7" stroke-linecap="round" stroke-linejoin="round" stroke-miterlimit="10" points="
		6.1,101.16 28.6,79.16 51.1,101.16 	"/>
</g>
<text transform="matrix(1 0 0 1 6.1026 36.4388)"><tspan x="0" y="0" font-family="'PermanentMarker'" font-size="30.74px">intensity</tspan><tspan x="0" y="30" font-family="'PermanentMarker'" font-size="30.74px">of feelin</tspan><tspan x="134.34" y="30" font-family="'PermanentMarker'" font-size="30.74px">g</tspan><tspan x="153.46" y="30" font-family="'PermanentMarker'" font-size="30.74px">s</tspan></text>
<path fill="none" stroke="#000000" stroke-width="7" stroke-linecap="round" stroke-linejoin="round" stroke-miterlimit="10" d="
	M6.1,328.94c192.05,0.47,384.05,0.47,576.19,0"/>
<path fill="none" stroke="#ED1C24" stroke-width="7" stroke-linecap="round" stroke-linejoin="round" stroke-miterlimit="10" d="
	M46.49,307.62c27.65,1.53,39.37-31.36,39.37-31.36s-0.41,30.27,12.36,30.76c9.65,0.37,19.14-5.58,23.71-16.47
	c4.56-10.89,5.04-23.77,4.77-36.12c-0.26-12.35,0.6-37,0.6-37s-0.87,24.65,0.4,36.58c1.3,12.17,11.23,22.25,20.8,21.3
	c13.25-1.31,19.65-21.94,19.35-38.94c-0.3-17,0.26-50.62,0.26-50.62s0.82,31.59,0.72,46.78c-0.1,16.47,17.65,29.47,28.96,21.6"/>
<path fill="none" stroke="#000000" stroke-width="7" stroke-linecap="round" stroke-linejoin="round" stroke-miterlimit="10" d="
	M44.36,344.67c0.68,2.62,3.05,4.54,5.61,5.41s5.33,0.88,8.04,0.87c15.01-0.03,30.03-0.06,45.04-0.08c5.65-0.01,12.2,0.41,15.51,4.99
	c3.69-4.23,10.03-4.55,15.64-4.56c12.64-0.02,25.28-0.04,37.93-0.06c6.14-0.01,13.44-0.66,16.48-6"/>
<text transform="matrix(1 0 0 1 50.8283 391.0688)"><tspan x="0" y="0" font-family="'PermanentMarker'" font-size="30.74px">y</tspan><tspan x="11.38" y="0" font-family="'PermanentMarker'" font-size="30.74px">o</tspan><tspan x="30.11" y="0" font-family="'PermanentMarker'" font-size="30.74px">u meet</tspan><tspan x="-22.3" y="30" font-family="'PermanentMarker'" font-size="30.74px">a few times</tspan></text>
<path fill="none" stroke="#ED1C24" stroke-width="7" stroke-linecap="round" stroke-linejoin="round" stroke-miterlimit="10" d="
	M197.81,254.13c10.28-7.15,14.66-27.52,26.36-27.75c9.11-0.18,17.12,13.17,25.68,9.17c11.24-5.24,7.52-33,19.23-36.16
	c7.33-1.97,13.15,8.48,20.52,10.15c6.5,1.47,12.75-4.28,16.68-11.07"/>
<path fill="none" stroke="#000000" stroke-width="7" stroke-linecap="round" stroke-linejoin="round" stroke-miterlimit="10" d="
	M205.3,210.05c20.46-14.45,40.92-28.91,61.38-43.36"/>
<path fill="none" stroke="#000000" stroke-width="7" stroke-linecap="round" stroke-linejoin="round" stroke-miterlimit="10" d="
	M261.24,160.83c3.45,0.36,6.9,0.72,10.34,1.08c-0.24,3.46-0.48,6.92-0.72,10.38"/>
<text transform="matrix(1 0 0 1 123.4363 131.6717)"><tspan x="0" y="0" font-family="'PermanentMarker'" font-size="30.74px">they grow</tspan><tspan x="28.79" y="30" font-family="'PermanentMarker'" font-size="30.74px">on </tspan><tspan x="76.85" y="30" font-family="'PermanentMarker'" font-size="30.74px">y</tspan><tspan x="88.23" y="30" font-family="'PermanentMarker'" font-size="30.74px">o</tspan><tspan x="106.96" y="30" font-family="'PermanentMarker'" font-size="30.74px">u</tspan></text>
<path fill="none" stroke="#ED1C24" stroke-width="7" stroke-linecap="round" stroke-linejoin="round" stroke-miterlimit="10" d="
	M289.59,209.54c6.5,1.47,12.75-4.28,16.68-11.07c3.93-6.79,6.43-14.83,10.66-21.31c11.14-17.05,30.71-19,48.07-19.64
	c10.75-0.4,22.65-0.09,32.62,4.32"/>
<path fill="none" stroke="#000000" stroke-width="7" stroke-linecap="round" stroke-linejoin="round" stroke-miterlimit="10" d="
	M331.71,220.42c6.3,0,12.61,0,18.91,0h49"/>
<path fill="none" stroke="#000000" stroke-width="7" stroke-linecap="round" stroke-linejoin="round" stroke-miterlimit="10" d="
	M397.9,214.4c2.76,1.35,5.53,2.7,8.29,4.04c-2.85,2.26-5.71,4.53-8.56,6.79"/>
<path fill="none" stroke="#000000" stroke-width="7" stroke-linecap="round" stroke-linejoin="round" stroke-miterlimit="10" d="
	M330.71,215.03c-2.14,1.62-4.28,3.24-6.42,4.86c2.4,2.03,4.8,4.07,7.2,6.1"/>
<text transform="matrix(1 0 0 1 304.8738 258.7325)"><tspan x="0" y="0" font-family="'PermanentMarker'" font-size="30.74px">y</tspan><tspan x="11.38" y="0" font-family="'PermanentMarker'" font-size="30.74px">o</tspan><tspan x="30.11" y="0" font-family="'PermanentMarker'" font-size="30.74px">u like</tspan><tspan x="-14.39" y="30" font-family="'PermanentMarker'" font-size="30.74px">each</tspan><tspan x="53.18" y="30" font-family="'PermanentMarker'" font-size="30.74px" letter-spacing="-1">o</tspan><tspan x="70.98" y="30" font-family="'PermanentMarker'" font-size="30.74px">th</tspan><tspan x="103.61" y="30" font-family="'PermanentMarker'" font-size="30.74px">e</tspan><tspan x="119.34" y="30" font-family="'PermanentMarker'" font-size="30.74px">r</tspan></text>
<path fill="none" stroke="#ED1C24" stroke-width="7" stroke-linecap="round" stroke-linejoin="round" stroke-miterlimit="10" d="
	M365,157.52c10.75-0.4,22.65-0.09,32.62,4.32c6.7,2.96,12.52,7.76,16.55,15.43c4.56,8.69,8.09,21.77,16.27,21.26
	c4.86-0.3,8.95-5.97,13.79-5.43c6.29,0.7,8.83,10.62,9.47,18.65c0.64,8.03,1.88,17.88,7.84,20.52c6.56,2.9,12.82-5.6,19.72-6.52
	c6.9-0.92,13.06,6.05,16.32,13.89s4.57,16.78,7.56,24.78c3.25,8.67,6.83,15.4,11.82,20.42c4.46,4.48,11.23,11.98,41.68,11.98
	c0.57,0,1.87,0,1.87,0"/>
<path fill="none" stroke="#000000" stroke-width="7" stroke-linecap="round" stroke-linejoin="round" stroke-miterlimit="10" d="
	M434.63,342.41c-0.17,2.78,2.01,5.26,4.57,6.35c2.56,1.09,5.43,1.08,8.21,1.06c13.63-0.12,27.25-0.23,40.88-0.35
	c4.74-0.04,10.64,0.67,12.28,5.12c2.34-5.24,9.36-5.93,15.1-5.84c16.62,0.24,18.87,0.32,35.49,0.56c6.23,0.09,13.72-0.51,16.69-6"/>
<text transform="matrix(1 0 0 1 446.0797 391.0688)"><tspan x="0" y="0" font-family="'PermanentMarker'" font-size="30.74px">y</tspan><tspan x="11.38" y="0" font-family="'PermanentMarker'" font-size="30.74px">o</tspan><tspan x="30.11" y="0" font-family="'PermanentMarker'" font-size="30.74px">u get</tspan><tspan x="12.7" y="30" font-family="'PermanentMarker'" font-size="30.74px">bored</tspan></text>
<g>
	<path fill="none" stroke="#000000" stroke-width="7" stroke-linecap="round" stroke-linejoin="round" stroke-miterlimit="10" d="
		M560.29,107.93c-0.16,4.64-0.31,9.28-0.47,13.92"/>
	<path fill="none" stroke="#000000" stroke-width="7" stroke-linecap="round" stroke-linejoin="round" stroke-miterlimit="10" d="
		M560.06,134.74c0,5.29,0,10.58,0,15.87"/>
	<path fill="none" stroke="#000000" stroke-width="7" stroke-linecap="round" stroke-linejoin="round" stroke-miterlimit="10" d="
		M560.06,164.5c0,5.62,0,11.24,0,16.86"/>
	<path fill="none" stroke="#000000" stroke-width="7" stroke-linecap="round" stroke-linejoin="round" stroke-miterlimit="10" d="
		M560.06,198.22c0,5.07,0,10.14,0,15.2"/>
	<path fill="none" stroke="#000000" stroke-width="7" stroke-linecap="round" stroke-linejoin="round" stroke-miterlimit="10" d="
		M559.84,227.98c0.15,5.63,0.3,11.26,0.45,16.89"/>
	<path fill="none" stroke="#000000" stroke-width="7" stroke-linecap="round" stroke-linejoin="round" stroke-miterlimit="10" d="
		M560.06,258.73c0,4.3,0,8.6,0,12.9"/>
	<path fill="none" stroke="#000000" stroke-width="7" stroke-linecap="round" stroke-linejoin="round" stroke-miterlimit="10" d="
		M560.06,285.77c0,4.88,0,9.76,0,14.64"/>
	<path fill="none" stroke="#000000" stroke-width="7" stroke-linecap="round" stroke-linejoin="round" stroke-miterlimit="10" d="
		M560.06,311.14c0,3.36,0,6.72,0,10.08"/>
</g>
<text transform="matrix(1 0 0 1 470.4086 61.7598)"><tspan x="0" y="0" font-family="'PermanentMarker'" font-size="30.74px">symmet</tspan><tspan x="107.41" y="0" font-family="'PermanentMarker'" font-size="30.74px">r</tspan><tspan x="123.44" y="0" font-family="'PermanentMarker'" font-size="30.74px">y of</tspan><tspan x="-16.48" y="30" font-family="'PermanentMarker'" font-size="30.74px">a rel</tspan><tspan x="61.81" y="30" font-family="'PermanentMarker'" font-size="30.74px" letter-spacing="-1">a</tspan><tspan x="78.14" y="30" font-family="'PermanentMarker'" font-size="30.74px">t</tspan><tspan x="92.88" y="30" font-family="'PermanentMarker'" font-size="30.74px">i</tspan><tspan x="102.13" y="30" font-family="'PermanentMarker'" font-size="30.74px">onship</tspan></text>
<path fill="none" stroke="#000000" stroke-width="7" stroke-linecap="round" stroke-linejoin="round" stroke-miterlimit="10" d="
	M558.85,328.94c183.3,0.47,365.3,0.47,548.2,0"/>
<polyline fill="none" stroke="#000000" stroke-width="7" stroke-linecap="round" stroke-linejoin="round" stroke-miterlimit="10" points="
	1085.05,306.44 1107.05,328.94 1085.05,351.44 "/>
<text transform="matrix(1 0 0 1 1044.0911 381.4993)" font-family="'PermanentMarker'" font-size="30.74px">time</text>
<path fill="none" stroke="#ED1C24" stroke-width="7" stroke-linecap="round" stroke-linejoin="round" stroke-miterlimit="10" d="
	M556.12,296.8c0,0,5.72,0,6.29,0c30.45,0,37.22-7.49,41.68-11.98c4.99-5.02,8.57-11.75,11.82-20.42c3-8,4.31-16.94,7.56-24.78
	c3.26-7.84,9.42-14.81,16.32-13.89c6.9,0.92,13.17,9.43,19.72,6.52c5.96-2.64,7.2-12.49,7.84-20.52c0.64-8.03,3.18-17.96,9.47-18.65
	c4.84-0.54,8.94,5.13,13.79,5.43c8.18,0.51,11.7-12.56,16.27-21.26c10.03-19.1,31.2-20.42,49.18-19.75
	c17.36,0.64,36.93,2.59,48.07,19.64c4.23,6.48,6.74,14.53,10.66,21.31s10.18,12.54,16.68,11.07c7.37-1.67,13.19-12.13,20.52-10.15
	c11.71,3.15,7.98,30.91,19.23,36.16c8.56,3.99,16.57-9.35,25.68-9.17c11.7,0.23,16.08,20.6,26.36,27.75
	c11.31,7.87,29.06-5.12,28.96-21.6c-0.09-15.2,0.72-46.78,0.72-46.78s0.56,33.62,0.26,50.62c-0.3,17,6.1,37.64,19.35,38.94
	c9.57,0.95,19.5-9.14,20.8-21.3c1.27-11.93,0.4-36.58,0.4-36.58s0.87,24.65,0.6,37c-0.26,12.35,0.21,25.23,4.77,36.12
	c4.56,10.89,14.06,16.84,23.71,16.47c12.78-0.49,12.36-30.76,12.36-30.76s11.72,32.89,39.37,31.36"/>
<path fill="none" stroke="#000000" stroke-width="7" stroke-linecap="round" stroke-linejoin="round" stroke-miterlimit="10" d="
	M598.48,341.24c0.61,3.69,3.82,6.52,7.35,7.77c3.53,1.25,7.36,1.2,11.1,1.14c12.5-0.21,25.01-0.42,37.51-0.62
	c3.09-0.05,6.27-0.09,9.16,1.01s5.47,3.6,5.7,6.68c3.3-5.44,9.96-7.97,16.3-8.44c6.34-0.47,12.68,0.72,19.04,0.88
	c8.34,0.2,16.73-1.41,24.4-4.69"/>
<text transform="matrix(1 0 0 1 600.7539 391.0688)"><tspan x="0" y="0" font-family="'PermanentMarker'" font-size="30.74px">y</tspan><tspan x="11.38" y="0" font-family="'PermanentMarker'" font-size="30.74px">o</tspan><tspan x="30.11" y="0" font-family="'PermanentMarker'" font-size="30.74px">u fight</tspan><tspan x="-29.63" y="30" font-family="'PermanentMarker'" font-size="30.74px">more &amp; more</tspan></text>
<path fill="none" stroke="#000000" stroke-width="7" stroke-linecap="round" stroke-linejoin="round" stroke-miterlimit="10" d="
	M722.73,154.18c3.07,3.66,6.14,7.33,9.21,10.99"/>
<path fill="none" stroke="#000000" stroke-width="7" stroke-linecap="round" stroke-linejoin="round" stroke-miterlimit="10" d="
	M731.27,152.27c-2.46,5.17-4.92,10.33-7.37,15.5"/>
<path fill="none" stroke="#000000" stroke-width="7" stroke-linecap="round" stroke-linejoin="round" stroke-miterlimit="10" d="
	M729.37,141.87c-2.01-9.14,4.83-18.5,13.51-22.02c8.68-3.51,18.54-2.37,27.59,0.05s17.79,6.06,27.05,7.47
	c17.99,2.75,37.14-3.66,49.86-16.69"/>
<text transform="matrix(1 0 0 1 840.7108 98.89)" font-family="'PermanentMarker'" font-size="30.74px">break-up</text>
<path fill="none" stroke="#000000" stroke-width="7" stroke-linecap="round" stroke-linejoin="round" stroke-miterlimit="10" d="
	M845.5,246.38c25.85,11.88,51.7,23.76,77.55,35.64"/>
<path fill="none" stroke="#000000" stroke-width="7" stroke-linecap="round" stroke-linejoin="round" stroke-miterlimit="10" d="
	M921.78,274.95c1.78,2.41,3.56,4.83,5.34,7.24c-3.32,1.4-6.64,2.79-9.96,4.19"/>
<text transform="matrix(1 0 0 1 778.3859 300.4115)" font-family="'PermanentMarker'" font-size="30.74px">regrets</text>
<g>
	<text transform="matrix(1 0 0 1 956.7929 157.3917)"><tspan x="0" y="0" font-family="'PermanentMarker'" font-size="30.74px">th</tspan><tspan x="32.63" y="0" font-family="'PermanentMarker'" font-size="30.74px">o</tspan><tspan x="51.36" y="0" font-family="'PermanentMarker'" font-size="30.74px">se bad</tspan><tspan x="24.83" y="30" font-family="'PermanentMarker'" font-size="30.74px">nights</tspan></text>
</g>
<path fill="none" stroke="#000000" stroke-width="7" stroke-linecap="round" stroke-linejoin="round" stroke-miterlimit="10" d="
	M957.13,181.35c-3.33,2.5-6.66,4.99-9.99,7.49"/>
<path fill="none" stroke="#000000" stroke-width="7" stroke-linecap="round" stroke-linejoin="round" stroke-miterlimit="10" d="
	M947.53,182.11c3.45,2.38,6.9,4.76,10.34,7.13"/>
<path fill="none" stroke="#000000" stroke-width="7" stroke-linecap="round" stroke-linejoin="round" stroke-miterlimit="10" d="
	M997.77,214.29c-2.82,2.1-5.63,4.19-8.45,6.29"/>
<path fill="none" stroke="#000000" stroke-width="7" stroke-linecap="round" stroke-linejoin="round" stroke-miterlimit="10" d="
	M988.74,211.81c3.18,3.19,6.37,6.38,9.55,9.56"/>
</svg>
