<?xml version="1.0" encoding="utf-8"?>
<!-- Generator: Adobe Illustrator 19.2.0, SVG Export Plug-In . SVG Version: 6.00 Build 0)  -->
<svg version="1.1" id="Layer_1" xmlns="http://www.w3.org/2000/svg" xmlns:xlink="http://www.w3.org/1999/xlink" x="0px" y="0px"
	 width="467.65px" height="431.33px" viewBox="0 0 467.65 431.33" enable-background="new 0 0 467.65 431.33" xml:space="preserve">
<path fill="none" stroke="#FFFFFF" stroke-width="120" stroke-linejoin="bevel" stroke-miterlimit="10" d="M39.19-8.03
	C23.58,22.02,7.97,52.08-7.64,82.14c47.36-31.4,94.72-62.8,142.08-94.19C94.68,31.66,54.92,75.38,15.16,119.09
	C82.05,77.84,148.95,36.58,215.85-4.68c-31.22,23.66-62.45,47.32-93.67,70.98c-48.37,36.65-97.8,74.43-130.27,125.7
	c52.5-21.93,93.61-63.76,134.79-103.02s86.26-78.22,141.5-91.83C216.88,47.94,165.56,98.71,114.23,149.48
	C73.53,189.75,32.29,230.7,3.97,280.46c80.46-59.32,160.93-118.64,241.39-177.96c-18.18,25.75-36.37,51.51-54.55,77.26
	c48.11-21.2,91.58-52.84,126.54-92.1c-10.26,27.7-20.51,55.4-30.77,83.1c22.55-22.29,45.1-44.58,67.64-66.87
	c-4.63,19.18-9.25,38.37-13.88,57.55c17.41-21.37,34.82-42.75,52.23-64.12c-4.42,16.54-8.83,33.08-13.25,49.62
	c14.27-23.29,40.7-38.64,68-39.49c-49.95,60.76-128.58,87.96-200.89,118.91c-96.25,41.2-187.7,93.6-271.92,155.8
	c41.95-7.8,76.53-36.44,109.04-64.06c33.65-28.59,67.3-57.18,100.95-85.77c-28,51.25-56.01,102.51-84.01,153.76
	c41.43-43.52,74.96-94.55,98.46-149.86c-22.01,58.28-44.03,116.55-66.04,174.83c38.24-59.34,76.47-118.69,114.71-178.03
	c-15.17,49.42-30.33,98.84-45.5,148.25c24.17-51.63,48.34-103.27,72.51-154.9c-6.38,57.67-12.76,115.34-19.14,173.01
	c35.19-52.87,70.38-105.75,105.57-158.62c-12.88,47.19-25.75,94.38-38.63,141.58c-2.65,9.7-2.82,23.8,7.04,25.77
	c8.94,1.79,14.66-9.05,17.21-17.8c14.21-48.87,28.42-97.73,42.63-146.6c5.63,45.8,11.27,91.6,16.9,137.4
	c5.07-55.7,10.13-111.4,15.2-167.09c-0.08,53.48-0.17,106.97-0.25,160.45c7.26-8.88,14.52-17.77,21.77-26.65
	c0.49,20.3,6.69,40.43,17.71,57.48"/>
<g>
	
		<line fill="none" stroke="#000000" stroke-width="7" stroke-linecap="round" stroke-linejoin="round" stroke-miterlimit="10" x1="45.95" y1="72.53" x2="45.95" y2="398.46"/>
	
		<polyline fill="none" stroke="#000000" stroke-width="7" stroke-linecap="round" stroke-linejoin="round" stroke-miterlimit="10" points="
		23.45,94.53 45.95,72.53 68.45,94.53 	"/>
</g>
<g>
	
		<line fill="none" stroke="#000000" stroke-width="7" stroke-linecap="round" stroke-linejoin="round" stroke-miterlimit="10" x1="23.45" y1="375.96" x2="386.16" y2="375.96"/>
	
		<polyline fill="none" stroke="#000000" stroke-width="7" stroke-linecap="round" stroke-linejoin="round" stroke-miterlimit="10" points="
		364.16,353.46 386.16,375.96 364.16,398.46 	"/>
</g>
<text transform="matrix(1 0 0 1 18.0962 29.4608)"><tspan x="0" y="0" font-family="'PermanentMarker'" font-size="30.74px">% of </tspan><tspan x="75.86" y="0" font-family="'PermanentMarker'" font-size="30.74px">y</tspan><tspan x="87.24" y="0" font-family="'PermanentMarker'" font-size="30.74px">o</tspan><tspan x="105.97" y="0" font-family="'PermanentMarker'" font-size="30.74px">ur life a</tspan><tspan x="0" y="30" font-family="'PermanentMarker'" font-size="30.74px">year represents</tspan></text>
<text transform="matrix(1 0 0 1 400.8996 384.7903)" font-family="'PermanentMarker'" font-size="30.74px">age</text>
<path fill="none" stroke="#F190AC" stroke-width="7" stroke-linecap="round" stroke-linejoin="round" stroke-miterlimit="10" d="
	M56.96,122.95c4.03,34.79,8.43,69.77,19.04,103.14s27.88,65.37,54.14,88.53c26.42,23.29,60.6,36.43,95.3,42.47
	s70.19,5.43,105.39,4.01"/>
<g>
	<path fill="none" stroke="#000000" stroke-width="7" stroke-linecap="round" stroke-linejoin="round" stroke-miterlimit="10" d="
		M68.2,163.7c-3.54,2.66-7.08,5.32-10.62,7.98"/>
	<path fill="none" stroke="#000000" stroke-width="7" stroke-linecap="round" stroke-linejoin="round" stroke-miterlimit="10" d="
		M55.76,163.81c4.72,2.66,9.44,5.32,14.16,7.99"/>
	<path fill="none" stroke="#000000" stroke-width="7" stroke-linecap="round" stroke-linejoin="round" stroke-miterlimit="10" d="
		M77.49,164.04c5.88,2.19,12.8,1.32,17.97-2.24c5.16-3.56,8.43-9.72,8.48-16c0.04-5.5-2.22-11.02-1.04-16.4
		c1.72-7.84,11.75-12.53,18.87-8.83"/>
</g>
<text transform="matrix(1 0 0 1 136.3966 122.9458)"><tspan x="0" y="0" font-family="'PermanentMarker'" font-size="30.74px">are the next holid</tspan><tspan x="275.76" y="0" font-family="'PermanentMarker'" font-size="30.74px">a</tspan><tspan x="292.69" y="0" font-family="'PermanentMarker'" font-size="30.74px">ys</tspan><tspan x="0" y="30" font-family="'PermanentMarker'" font-size="30.74px">ev</tspan><tspan x="30.95" y="30" font-family="'PermanentMarker'" font-size="30.74px">e</tspan><tspan x="46.68" y="30" font-family="'PermanentMarker'" font-size="30.74px">r gonna come?</tspan></text>
<g>
	<path fill="none" stroke="#000000" stroke-width="7" stroke-linecap="round" stroke-linejoin="round" stroke-miterlimit="10" d="
		M248.66,354.1c-2.94,3.55-5.88,7.11-8.82,10.66"/>
	<path fill="none" stroke="#000000" stroke-width="7" stroke-linecap="round" stroke-linejoin="round" stroke-miterlimit="10" d="
		M240.45,353.39c2.35,4.14,4.7,8.28,7.05,12.42"/>
	<path fill="none" stroke="#000000" stroke-width="7" stroke-linecap="round" stroke-linejoin="round" stroke-miterlimit="10" d="
		M243.8,344.53c-2.21-4.32-7.36-6.37-12.2-6.71s-9.68,0.66-14.54,0.68c-10.91,0.04-21.73-5.21-28.44-13.81
		c-6.72-8.6-9.2-20.36-6.52-30.94c1.6-6.34,6.45-13.05,12.96-12.47"/>
</g>
<text transform="matrix(1 0 0 1 212.4183 272.7934)"><tspan x="0" y="0" font-family="'PermanentMarker'" font-size="30.74px">w</tspan><tspan x="25.07" y="0" font-family="'PermanentMarker'" font-size="30.74px">ait... how old</tspan><tspan x="0" y="30" font-family="'PermanentMarker'" font-size="30.74px">am i alrea</tspan><tspan x="160.27" y="30" font-family="'PermanentMarker'" font-size="30.74px" letter-spacing="-1">d</tspan><tspan x="174.32" y="30" font-family="'PermanentMarker'" font-size="30.74px">y?</tspan></text>
</svg>
