<?xml version="1.0" encoding="utf-8"?>
<!-- Generator: Adobe Illustrator 18.0.0, SVG Export Plug-In . SVG Version: 6.00 Build 0)  -->
<!DOCTYPE svg PUBLIC "-//W3C//DTD SVG 1.1//EN" "http://www.w3.org/Graphics/SVG/1.1/DTD/svg11.dtd">
<svg version="1.1" id="Layer_1" xmlns="http://www.w3.org/2000/svg" xmlns:xlink="http://www.w3.org/1999/xlink" x="0px" y="0px"
	 viewBox="0 0 528 304" enable-background="new 0 0 528 304" xml:space="preserve">
<path fill="none" stroke="#FFFFFF" stroke-width="120" stroke-linejoin="bevel" stroke-miterlimit="10" d="M40.2-12
	c-6.7,19.4-13.3,38.8-20,58.3c22.7,3.8,42.2-14.8,58-31.5s36.4-34.6,58.7-29.2c6.6,14.1,5.8,31.4-2,44.8
	c-8.3,14.3-23.2,23.4-33.1,36.6s-12.7,35.2,1.5,43.8c11.4,6.9,25.8,0.5,38.3-4.1c12.5-4.6,30-5.6,35.8,6.4
	c-35.5,11.3-66.2,37.2-83.3,70.3c-10.3,20-15.6,44.7-5.5,64.8c13.8,27.7,49.5,35.5,80.5,35.6c33.1,0.1,66.3-5,97.9-15
	c5.1-53.3-37.2-106.7-90.3-113.9c46.2-9.6,93.9-1.8,140.9,2.6c47,4.4,96.9,4.7,138.2-18c9.7-5.3,19-12.1,24.8-21.5
	c5.8-9.4,7.6-21.9,2.2-31.6c-9.1-16.4-33.3-17.2-49.8-8.5s-28.6,24-43.6,35.1s-36.7,17.6-52,6.9c-9.8-6.9-14.2-18.9-20.7-29
	c-6.4-10.1-18.1-19.4-29.4-15.6c-13.3,4.5-15.2,21.8-19.4,35.2c-9,28.4-40.7,47.6-70,42.5c-29.4-5.1-52.6-33.9-51.5-63.7"/>
<g>
	
		<line fill="none" stroke="#000000" stroke-width="7" stroke-linecap="round" stroke-linejoin="round" stroke-miterlimit="10" x1="73" y1="164.3" x2="363.7" y2="164.3"/>
	
		<polyline fill="none" stroke="#000000" stroke-width="7" stroke-linecap="round" stroke-linejoin="round" stroke-miterlimit="10" points="
		341.7,141.8 363.7,164.3 341.7,186.8 	"/>
	<text transform="matrix(1 0 0 1 236.9695 96.0972)"><tspan x="0" y="0" font-family="'PermanentMarker'" font-size="30.74">sh*t done to you</tspan><tspan x="-29.3" y="36.9" font-family="'PermanentMarker'" font-size="30.74">“for your own good”</tspan></text>
</g>
<g>
	
		<line fill="none" stroke="#000000" stroke-width="7" stroke-linecap="round" stroke-linejoin="round" stroke-miterlimit="10" x1="95" y1="288.8" x2="95" y2="39.8"/>
	
		<polyline fill="none" stroke="#000000" stroke-width="7" stroke-linecap="round" stroke-linejoin="round" stroke-miterlimit="10" points="
		72.5,61.9 95,39.9 117.5,61.9 	"/>
	<text transform="matrix(1 0 0 1 1.9995 22.6006)" font-family="'PermanentMarker'" font-size="30.74">actual good</text>
</g>
<path fill="none" stroke="#93278F" stroke-width="7" stroke-linecap="round" stroke-miterlimit="10" d="M103.7,75
	c97.1,28,172.3,120,180.6,220.7"/>
</svg>
