<?xml version="1.0" encoding="utf-8"?>
<!-- Generator: Adobe Illustrator 18.0.0, SVG Export Plug-In . SVG Version: 6.00 Build 0)  -->
<!DOCTYPE svg PUBLIC "-//W3C//DTD SVG 1.1//EN" "http://www.w3.org/Graphics/SVG/1.1/DTD/svg11.dtd">
<svg version="1.1" id="Layer_1" xmlns="http://www.w3.org/2000/svg" xmlns:xlink="http://www.w3.org/1999/xlink" x="0px" y="0px"
	 viewBox="0 0 370 321.8" enable-background="new 0 0 370 321.8" xml:space="preserve">
<path fill="none" stroke="#FFFFFF" stroke-width="120" stroke-linejoin="bevel" stroke-miterlimit="10" d="M17.8,13
	c-2,18.8-3.9,37.5-5.9,56.3C54.3,38.1,96.6,6.9,138.9-24.2c-8.3,17.4-16.6,34.8-24.9,52.2C154.4,18.1,195,8.2,235.5-1.8
	c-0.5,9-1,18-1.5,27c34.2,0.9,68.6-6.6,99.2-21.7C324,104.3,245.7,195.1,147.3,219c-23.3,5.7-49.5,7.4-69.9-5.2
	c-18.8-11.7-29.1-33.7-31.8-55.7c-2.7-21.9,1.1-44.1,4.9-65.9c-3.7-0.3-7.5-0.6-11.2-0.9c-0.7,33.8-1.4,67.5-2.1,101.3
	c-0.2,10.1-0.4,20.4,3,29.9c7.6,21.3,31.6,33,54.2,33.2s44.1-8.7,65-17.4c-3.2,11.3-6.4,23.2-3.5,34.5c2.9,11.3,14.4,21.4,25.6,18.3
	c9.3-2.5,14.5-12.2,18.6-21c8-17.1,16-34.1,24-51.2c9.6,12.2,5.2,29.7,2.4,45s-1.2,35.1,13.3,40.7c10.4,4,22.4-2.1,29.1-10.9
	c6.8-8.9,9.7-19.9,13.7-30.3c9.7-25.2,26-47.9,47-64.9c2.9,36.8,5.8,73.5,8.7,110.3"/>
<g>
	
		<line fill="none" stroke="#000000" stroke-width="7" stroke-linecap="round" stroke-linejoin="round" stroke-miterlimit="10" x1="42.6" y1="40.5" x2="42.6" y2="252.5"/>
	
		<line fill="none" stroke="#000000" stroke-width="7" stroke-linecap="round" stroke-linejoin="round" stroke-miterlimit="10" x1="20.1" y1="230" x2="347.8" y2="230"/>
	
		<polyline fill="none" stroke="#000000" stroke-width="7" stroke-linecap="round" stroke-linejoin="round" stroke-miterlimit="10" points="
		20.1,62.5 42.6,40.5 65.1,62.5 	"/>
	
		<polyline fill="none" stroke="#000000" stroke-width="7" stroke-linecap="round" stroke-linejoin="round" stroke-miterlimit="10" points="
		326.6,207.5 348.6,230 326.6,252.5 	"/>
</g>
<text transform="matrix(1 0 0 1 139.1027 281.6091)"><tspan x="0" y="0" font-family="'PermanentMarker'" font-size="31">how much you</tspan><tspan x="11.7" y="30" font-family="'PermanentMarker'" font-size="31">make excuses</tspan></text>
<text transform="matrix(1 0 0 1 4.1283 27.6666)" font-family="'PermanentMarker'" font-size="31">how much you screw up</text>
<path fill="none" stroke="#E5952E" stroke-width="7" stroke-linecap="round" stroke-linejoin="round" stroke-miterlimit="10" d="
	M56.5,219.3c64.9,5.6,132.9-14.5,180.6-48.6s76.1-80.9,85-128.3"/>
</svg>
