<?xml version="1.0" encoding="utf-8"?>
<!-- Generator: Adobe Illustrator 19.2.0, SVG Export Plug-In . SVG Version: 6.00 Build 0)  -->
<svg version="1.1" id="Layer_1" xmlns="http://www.w3.org/2000/svg" xmlns:xlink="http://www.w3.org/1999/xlink" x="0px" y="0px"
	 width="687.52px" height="434.83px" viewBox="0 0 687.52 434.83" enable-background="new 0 0 687.52 434.83" xml:space="preserve">
<path fill="none" stroke="#FFFFFF" stroke-width="120" stroke-linejoin="bevel" stroke-miterlimit="10" d="M221.63,2.93
	c-15.02,8.12-62.71,32.02-50.04,43.45c11.32,10.21,28.55,9,43.69,7.18c25.2-3.04,50.4-6.08,75.6-9.11c2.14-0.26,4.28-0.52,6.42-0.77
	c10.5-1.27,21-2.53,31.47-4.04c22.62-3.26,45.05-7.66,67.48-12.05c35.6-6.97,71.19-13.95,106.79-20.92
	c0.02,26.52,7.6,58.42,32.83,66.56c21.89,7.07,45.02-8.68,58.1-27.6c6.96-10.07,12.43-21.38,21.35-29.75s22.91-13.14,33.52-7.05
	c16.06,9.21,11.16,35.95-4.27,46.19s-35.44,9.08-53.92,8c-127.13-7.39-255.54,7.78-377.44,44.6c-9.63,2.91-19.58,6.16-26.87,13.1
	c-7.29,6.94-11.02,18.67-5.87,27.31c4.56,7.64,14.64,10.51,23.43,9.15c8.8-1.36,16.65-6.1,24.24-10.75
	c-23.52,10-31.69,38.44-38.7,63.02c-7.01,24.58-20.14,52.65-45.44,56.25c-19.91,2.83-38.47-11.74-49.36-28.65
	c-8.08-12.55-13.46-26.74-22.06-38.94s-21.74-22.71-36.67-22.5c-17.95,0.25-33.13,17.8-32.58,35.74s15.15,33.9,32.63,37.98
	c28.76,6.72,55.64-14.42,79.5-31.84c59.63-43.53,130.78-71.15,204.16-79.24c-5.4,22.46-10.8,44.92-16.19,67.37
	c-1.75,7.27-3.48,15.03-1.02,22.1c4.18,12.01,19.34,17.12,31.75,14.36s22.63-11.26,32.32-19.49
	c40.66-34.52,81.32-69.05,121.97-103.57c16.15,19.52,33.24,45.41,22.12,68.17c-8.07,16.51-27.65,23.25-45.28,28.42
	c-29.55,8.66-59.11,17.32-88.66,25.98c39.09,23.63,86.94,32.37,131.85,24.08c20.17-3.72,43.07-10.18,59.6,1.97
	c13.21,9.7,16.73,27.6,19.26,43.79c6.04,38.64,12.09,77.28,18.13,115.93c-30.17,1.92-59.83-21.71-64.7-51.55
	c-1.69-10.36-0.72-21.04-2.8-31.33c-2.08-10.29-8.37-20.83-18.57-23.3c-13.67-3.31-25.77,8.83-34.61,19.76
	c-19.21,23.73-38.42,47.46-57.63,71.2c-8.13-31.84-16.27-63.67-24.4-95.51c-2.53-9.89-5.59-20.59-13.88-26.55
	c-13.39-9.63-32.12-1.71-45.55,7.86c-34.02,24.24-60.66,58.68-75.57,97.7c-20.66-11.98-33.49-36.28-31.74-60.09
	c0.76-10.27,3.98-20.27,4.35-30.57c0.37-10.29-2.94-21.72-11.82-26.93c-8.18-4.8-19.08-2.83-26.71,2.81
	c-7.62,5.64-12.46,14.3-15.91,23.13c-12.27,31.38-9.09,68.39,8.37,97.21c17-47.18,34.01-94.35,51.01-141.53
	c5.19-14.4,10.27-30.88,3.1-44.4c-9.32-17.57-33.15-19.81-53.03-19.81"/>
<g>
	
		<line fill="none" stroke="#000000" stroke-width="7" stroke-linecap="round" stroke-linejoin="round" stroke-miterlimit="10" x1="199.13" y1="362.11" x2="608.01" y2="362.11"/>
	
		<polyline fill="none" stroke="#000000" stroke-width="7" stroke-linecap="round" stroke-linejoin="round" stroke-miterlimit="10" points="
		587.18,339.61 609.18,362.11 587.18,384.61 	"/>
</g>
<text transform="matrix(1 0 0 1 555.5637 418.1445)" font-family="'PermanentMarker'" font-size="30.74px">age</text>
<g>
	
		<line fill="none" stroke="#000000" stroke-width="7" stroke-linecap="round" stroke-linejoin="round" stroke-miterlimit="10" x1="221.63" y1="83.22" x2="221.63" y2="384.61"/>
	
		<polyline fill="none" stroke="#000000" stroke-width="7" stroke-linecap="round" stroke-linejoin="round" stroke-miterlimit="10" points="
		199.13,105.22 221.63,83.22 244.13,105.22 	"/>
</g>
<g>
	<text transform="matrix(1 0 0 1 17.865 218.0163)"><tspan x="0" y="0" font-family="'PermanentMarker'" font-size="30.74px">re</tspan><tspan x="32.66" y="0" font-family="'PermanentMarker'" font-size="30.74px">as</tspan><tspan x="63.58" y="0" font-family="'PermanentMarker'" font-size="30.74px">on </tspan><tspan x="111.64" y="0" font-family="'PermanentMarker'" font-size="30.74px">t</tspan><tspan x="125.45" y="0" font-family="'PermanentMarker'" font-size="30.74px">o do</tspan><tspan x="13.42" y="30" font-family="'PermanentMarker'" font-size="30.74px">m</tspan><tspan x="38.46" y="30" font-family="'PermanentMarker'" font-size="30.74px">o</tspan><tspan x="57.19" y="30" font-family="'PermanentMarker'" font-size="30.74px">st thin</tspan><tspan x="157.39" y="30" font-family="'PermanentMarker'" font-size="30.74px">g</tspan><tspan x="176.51" y="30" font-family="'PermanentMarker'" font-size="30.74px">s</tspan></text>
</g>
<g>
	<text transform="matrix(1 0 0 1 194.0461 69.5861)"><tspan x="0" y="0" fill="#F4783B" font-family="'PermanentMarker'" font-size="30.74px">t</tspan><tspan x="13.81" y="0" fill="#F4783B" font-family="'PermanentMarker'" font-size="30.74px">o pr</tspan><tspan x="77.27" y="0" fill="#F4783B" font-family="'PermanentMarker'" font-size="30.74px">o</tspan><tspan x="95.67" y="0" fill="#F4783B" font-family="'PermanentMarker'" font-size="30.74px">ve </tspan><tspan x="138" y="0" fill="#F4783B" font-family="'PermanentMarker'" font-size="30.74px">y</tspan><tspan x="149.38" y="0" fill="#F4783B" font-family="'PermanentMarker'" font-size="30.74px">o</tspan><tspan x="168.11" y="0" fill="#F4783B" font-family="'PermanentMarker'" font-size="30.74px">u can do stuff</tspan></text>
	<path fill="none" stroke="#F4783B" stroke-width="7" stroke-linecap="round" stroke-linejoin="round" stroke-miterlimit="10" d="
		M236.63,129.08c35.03-7.93,70.5,13.79,93.85,41.07s39.02,60.47,62.46,87.68c43.54,50.53,114.02,76.35,179.9,65.91"/>
</g>
<g>
	<text transform="matrix(1 0 0 1 194.0461 35.2806)"><tspan x="0" y="0" fill="#00A9A3" font-family="'PermanentMarker'" font-size="30.74px">t</tspan><tspan x="13.81" y="0" fill="#00A9A3" font-family="'PermanentMarker'" font-size="30.74px">o pr</tspan><tspan x="77.27" y="0" fill="#00A9A3" font-family="'PermanentMarker'" font-size="30.74px">o</tspan><tspan x="95.67" y="0" fill="#00A9A3" font-family="'PermanentMarker'" font-size="30.74px">ve </tspan><tspan x="138" y="0" fill="#00A9A3" font-family="'PermanentMarker'" font-size="30.74px">y</tspan><tspan x="149.38" y="0" fill="#00A9A3" font-family="'PermanentMarker'" font-size="30.74px">o</tspan><tspan x="168.11" y="0" fill="#00A9A3" font-family="'PermanentMarker'" font-size="30.74px">u can still do stuff</tspan></text>
	<path fill="none" stroke="#00A9A3" stroke-width="7" stroke-linecap="round" stroke-linejoin="round" stroke-miterlimit="10" d="
		M242.64,324.83c54.39-1.38,107.78-26.3,143.77-67.1c23.43-26.56,39.39-58.94,62.03-86.18c22.64-27.24,55.61-50.06,90.84-46.32"/>
</g>
</svg>
