<?xml version="1.0" encoding="utf-8"?>
<!-- Generator: Adobe Illustrator 18.0.0, SVG Export Plug-In . SVG Version: 6.00 Build 0)  -->
<!DOCTYPE svg PUBLIC "-//W3C//DTD SVG 1.1//EN" "http://www.w3.org/Graphics/SVG/1.1/DTD/svg11.dtd">
<svg version="1.1" id="Layer_1" xmlns="http://www.w3.org/2000/svg" xmlns:xlink="http://www.w3.org/1999/xlink" x="0px" y="0px"
	 viewBox="0 0 1028 408" enable-background="new 0 0 1028 408" xml:space="preserve">
<path fill="none" stroke="#FFFFFF" stroke-width="120" stroke-linejoin="bevel" stroke-miterlimit="10" d="M258.3,6.2
	c-0.6,10.5-1.2,21-1.8,31.6c34-13.3,68-26.6,102-39.9c-33.1,39.3-66.2,78.7-99.3,118c85.6-30.5,167-72.7,241.3-125.1
	c-10,48.7-59.3,77.3-104,99.1s-94.5,48.5-107.2,96.6c-1.8,6.7-2.2,15.1,3.2,19.4c7.1,5.7,17.5-0.1,24.6-5.8
	C399.9,134.1,482.7,68,565.5,1.9c17.8,27.9,6.6,66.6-16,90.8c-22.6,24.2-54,37.7-83.5,52.6c-77.1,38.7-147.6,90.4-207.6,152.3
	c90.6,1.2,180.8-42.2,236.3-113.9c29.3-37.8,54.1-86.3,100.5-97.8c-13,37.4-35.5,71.6-64.8,98.3c-38.9,35.5-88,57.1-133.1,84.4
	S308.6,332,293,382.3c70.6-39.8,141.2-79.5,211.9-119.3c44.2-24.9,88.7-49.9,136.6-66.9c47.8-17,99.6-25.8,149.6-17.2
	c-86.3,28.9-169.5,67.1-247.7,113.8C672.2,281.8,801,271,929.8,260.2c13.2-1.1,27.1-2.1,39.1,3.6c12,5.7,20.7,20.5,14.9,32.4
	c-5.1,10.7-18.5,14-30.2,15.8c-93.4,14-191,5.3-280,36.7c-36.7,13-70.8,32.4-107.5,45.4c-87.8,31.1-188.9,22.2-269.9-23.7
	c-15.8-8.9-30.7-19.2-45.7-29.4c-22.7-15.5-45.5-31-68.2-46.6C128.9,257.9,53.3,216.7,0,180.3c55.7-1,133.6,2.8,189.3,1.8
	c29.8-0.5,66.3-5.4,77.1-33.2c9.4-24-8.7-51.7-32.4-62.1s-50.6-8-76.3-5.5c-46.1,4.5-92.2,9-138.2,13.6"/>
<g>
	
		<line fill="none" stroke="#010101" stroke-width="7" stroke-linecap="round" stroke-linejoin="round" stroke-miterlimit="10" x1="277.7" y1="32.3" x2="277.7" y2="304.6"/>
	
		<line fill="none" stroke="#010101" stroke-width="7" stroke-linecap="round" stroke-linejoin="round" stroke-miterlimit="10" x1="255.2" y1="282.1" x2="782.8" y2="282.1"/>
	
		<polyline fill="none" stroke="#010101" stroke-width="7" stroke-linecap="round" stroke-linejoin="round" stroke-miterlimit="10" points="
		255.2,54.3 277.7,32.3 300.2,54.3 	"/>
	
		<polyline fill="none" stroke="#010101" stroke-width="7" stroke-linecap="round" stroke-linejoin="round" stroke-miterlimit="10" points="
		760.8,259.6 782.8,282.1 760.8,304.6 	"/>
</g>
<g>
	<text transform="matrix(1 0 0 1 794.4531 274.3027)"><tspan x="0" y="0" font-family="'PermanentMarker'" font-size="30.74">importance</tspan><tspan x="0" y="30" font-family="'PermanentMarker'" font-size="30.74">of the problem</tspan></text>
</g>
<g>
	<text transform="matrix(1 0 0 1 251.2349 21.4692)" fill="#507282" font-family="'PermanentMarker'" font-size="30.74">how many people care</text>
</g>
<path fill="none" stroke="#507282" stroke-width="7" stroke-linecap="round" stroke-linejoin="round" stroke-miterlimit="10" d="
	M288.7,272.2c38.3-0.6,76.6-10.2,110.9-28.4c30.7-16.3,58.1-39.3,80.3-67c11.1-13.9,20.9-28.9,29.2-44.8
	c7.5-14.4,12.2-32.7,23.7-44.2c12.9-12.9,30.7-7.1,40.6,6.6c11.8,16.3,10,38.6,11.4,57.9c2.5,33.9,13.9,74.6,47.3,84
	c24.2,6.8,87,3.8,114.7,4"/>
<g>
	
		<line fill="none" stroke="#010101" stroke-width="7" stroke-linecap="round" stroke-linejoin="round" stroke-miterlimit="10" x1="416" y1="274.8" x2="416" y2="293.5"/>
	<text transform="matrix(0.9239 -0.3827 0.3827 0.9239 265.7048 369.856)"><tspan x="0" y="0" font-family="'PermanentMarker'" font-size="30.74">coca-cola</tspan><tspan x="20.1" y="30" font-family="'PermanentMarker'" font-size="30.74">or pepsi?</tspan></text>
</g>
<g>
	<path fill="none" stroke="#010101" stroke-width="7" stroke-linecap="round" stroke-linejoin="round" stroke-miterlimit="10" d="
		M713.4,273.3c-0.7,6.3-1.4,12.7-2.1,19"/>
	<text transform="matrix(0.9239 -0.3827 0.3827 0.9239 492.847 398.1041)"><tspan x="0" y="0" font-family="'PermanentMarker'" font-size="30.74">climate change</tspan><tspan x="39.7" y="30" font-family="'PermanentMarker'" font-size="30.74">&amp; revolution</tspan></text>
</g>
<g>
	
		<line fill="none" stroke="#71535C" stroke-width="7" stroke-linecap="round" stroke-linejoin="round" stroke-miterlimit="10" x1="270.1" y1="82" x2="284.8" y2="82"/>
	
		<line fill="none" stroke="#71535C" stroke-width="7" stroke-linecap="round" stroke-linejoin="round" stroke-miterlimit="10" x1="298.2" y1="82" x2="309.5" y2="82"/>
	
		<line fill="none" stroke="#71535C" stroke-width="7" stroke-linecap="round" stroke-linejoin="round" stroke-miterlimit="10" x1="323.2" y1="82" x2="339.2" y2="82"/>
	
		<line fill="none" stroke="#71535C" stroke-width="7" stroke-linecap="round" stroke-linejoin="round" stroke-miterlimit="10" x1="350.6" y1="82" x2="366.6" y2="82"/>
	
		<line fill="none" stroke="#71535C" stroke-width="7" stroke-linecap="round" stroke-linejoin="round" stroke-miterlimit="10" x1="380.9" y1="82" x2="390.9" y2="82"/>
	
		<line fill="none" stroke="#71535C" stroke-width="7" stroke-linecap="round" stroke-linejoin="round" stroke-miterlimit="10" x1="407" y1="82" x2="419.7" y2="82"/>
	
		<line fill="none" stroke="#71535C" stroke-width="7" stroke-linecap="round" stroke-linejoin="round" stroke-miterlimit="10" x1="432.3" y1="82" x2="449" y2="82"/>
	
		<line fill="none" stroke="#71535C" stroke-width="7" stroke-linecap="round" stroke-linejoin="round" stroke-miterlimit="10" x1="461.4" y1="82" x2="474.7" y2="82"/>
	
		<line fill="none" stroke="#71535C" stroke-width="7" stroke-linecap="round" stroke-linejoin="round" stroke-miterlimit="10" x1="486.7" y1="82" x2="504.1" y2="82"/>
	
		<line fill="none" stroke="#71535C" stroke-width="7" stroke-linecap="round" stroke-linejoin="round" stroke-miterlimit="10" x1="517.8" y1="82" x2="527.8" y2="82"/>
	<path fill="none" stroke="#71535C" stroke-width="7" stroke-linecap="round" stroke-linejoin="round" stroke-miterlimit="10" d="
		M553.5,73.7c-4.8,5.4-9.6,10.8-14.4,16.2"/>
	<path fill="none" stroke="#71535C" stroke-width="7" stroke-linecap="round" stroke-linejoin="round" stroke-miterlimit="10" d="
		M539,75.4c4.1,4.3,8.2,8.6,12.4,13"/>
</g>
<g>
	<text transform="matrix(1 0 0 1 26.0884 80.5532)"><tspan x="0" y="0" fill="#71535C" font-family="'PermanentMarker'" font-size="30.74">good elections</tspan><tspan x="15.4" y="30" fill="#71535C" font-family="'PermanentMarker'" font-size="30.74">(80% turnout)</tspan></text>
</g>
<g>
	<text transform="matrix(1 0 0 1 3.5142 180.3013)"><tspan x="0" y="0" fill="#71535C" font-family="'PermanentMarker'" font-size="30.74">recent elections</tspan><tspan x="36.7" y="30" fill="#71535C" font-family="'PermanentMarker'" font-size="30.74">(50% turnout)</tspan></text>
</g>
<g>
	
		<line fill="none" stroke="#71535C" stroke-width="7" stroke-linecap="round" stroke-linejoin="round" stroke-miterlimit="10" x1="270.8" y1="183.1" x2="284.8" y2="183.1"/>
	
		<line fill="none" stroke="#71535C" stroke-width="7" stroke-linecap="round" stroke-linejoin="round" stroke-miterlimit="10" x1="302.5" y1="183.1" x2="315.5" y2="183.1"/>
	
		<line fill="none" stroke="#71535C" stroke-width="7" stroke-linecap="round" stroke-linejoin="round" stroke-miterlimit="10" x1="332.2" y1="183.1" x2="348.2" y2="183.1"/>
	
		<line fill="none" stroke="#71535C" stroke-width="7" stroke-linecap="round" stroke-linejoin="round" stroke-miterlimit="10" x1="362.8" y1="183.1" x2="379.8" y2="183.1"/>
	
		<line fill="none" stroke="#71535C" stroke-width="7" stroke-linecap="round" stroke-linejoin="round" stroke-miterlimit="10" x1="394" y1="183.1" x2="411" y2="183.1"/>
	
		<line fill="none" stroke="#71535C" stroke-width="7" stroke-linecap="round" stroke-linejoin="round" stroke-miterlimit="10" x1="425.6" y1="183.1" x2="441.6" y2="183.1"/>
	
		<line fill="none" stroke="#71535C" stroke-width="7" stroke-linecap="round" stroke-linejoin="round" stroke-miterlimit="10" x1="457.8" y1="183.1" x2="471.8" y2="183.1"/>
	
		<line fill="none" stroke="#71535C" stroke-width="7" stroke-linecap="round" stroke-linejoin="round" stroke-miterlimit="10" x1="488.9" y1="183.1" x2="502.9" y2="183.1"/>
	
		<line fill="none" stroke="#71535C" stroke-width="7" stroke-linecap="round" stroke-linejoin="round" stroke-miterlimit="10" x1="518.6" y1="183.1" x2="535.6" y2="183.1"/>
	
		<line fill="none" stroke="#71535C" stroke-width="7" stroke-linecap="round" stroke-linejoin="round" stroke-miterlimit="10" x1="548.7" y1="183.1" x2="567.7" y2="183.1"/>
	
		<line fill="none" stroke="#71535C" stroke-width="7" stroke-linecap="round" stroke-linejoin="round" stroke-miterlimit="10" x1="581.9" y1="183.1" x2="596.9" y2="183.1"/>
	
		<line fill="none" stroke="#71535C" stroke-width="7" stroke-linecap="round" stroke-linejoin="round" stroke-miterlimit="10" x1="612.6" y1="183.1" x2="628.6" y2="183.1"/>
	
		<line fill="none" stroke="#71535C" stroke-width="7" stroke-linecap="round" stroke-linejoin="round" stroke-miterlimit="10" x1="641.7" y1="183.1" x2="661.7" y2="183.1"/>
	
		<line fill="none" stroke="#71535C" stroke-width="7" stroke-linecap="round" stroke-linejoin="round" stroke-miterlimit="10" x1="675.9" y1="183.1" x2="689.9" y2="183.1"/>
	
		<line fill="none" stroke="#71535C" stroke-width="7" stroke-linecap="round" stroke-linejoin="round" stroke-miterlimit="10" x1="706" y1="183.1" x2="722" y2="183.1"/>
	
		<line fill="none" stroke="#71535C" stroke-width="7" stroke-linecap="round" stroke-linejoin="round" stroke-miterlimit="10" x1="737.7" y1="183.1" x2="752.7" y2="183.1"/>
	
		<line fill="none" stroke="#71535C" stroke-width="7" stroke-linecap="round" stroke-linejoin="round" stroke-miterlimit="10" x1="769.8" y1="183.1" x2="782.8" y2="183.1"/>
</g>
<g>
	<path fill="none" stroke="#010101" stroke-width="7" stroke-linecap="round" stroke-linejoin="round" stroke-miterlimit="10" d="
		M474.5,177.6c-2.9-0.1-5.7,2.2-6,5.1c-0.2,2,0.7,4.1,2.4,5.1c1.7,1,4.1,0.9,5.5-0.5c1.4-1.4,1.7-3.9,0.4-5.4
		c-1.7-2.2-3.1-1.6-4.6,1.2"/>
	<path fill="none" stroke="#010101" stroke-width="7" stroke-linecap="round" stroke-linejoin="round" stroke-miterlimit="10" d="
		M587.3,178.5c-1.8,1.3-2.5,4-1.7,6c0.9,2.1,3.2,3.4,5.4,3.1c3.6-0.5,5.8-7.1,4.8-8.4s-5.2-1.5-6.5,3.7"/>
	<text transform="matrix(1 0 0 1 449.0093 164.3027)" fill="#010101" font-family="'PermanentMarker'" font-size="30.74">which is it?</text>
</g>
</svg>
