<?xml version="1.0" encoding="utf-8"?>
<!-- Generator: Adobe Illustrator 19.2.0, SVG Export Plug-In . SVG Version: 6.00 Build 0)  -->
<svg version="1.1" id="Layer_1" xmlns="http://www.w3.org/2000/svg" xmlns:xlink="http://www.w3.org/1999/xlink" x="0px" y="0px"
	 width="814.08px" height="581.35px" viewBox="0 0 814.08 581.35" enable-background="new 0 0 814.08 581.35" xml:space="preserve">
<path fill="none" stroke="#FFFFFF" stroke-width="120" stroke-linejoin="bevel" stroke-miterlimit="10" d="M31.89,8.93
	c-3.34,21.94-6.68,43.89-10.02,65.83c22.59-35.84,56.62-64.33,95.87-80.27c-2.5,17.96-5,35.92-7.49,53.88
	C150.23,25.81,190.22,3.25,230.2-19.3c-4.41,33.07-8.82,66.14-13.23,99.21c32.16-14.77,89.91-56.37,122.08-71.14
	c-48.76,26.22-129.69,66.9-185.06,66.76c-27.15-0.07-55.38-3.27-80.55,6.89s-45.12,40.14-33.1,64.48
	c26.85-24.97,53.7-49.93,80.55-74.9c-26.39,38.44-52.77,76.87-79.16,115.31c39.19-32.21,78.38-64.43,117.57-96.64
	c-2.04,31.85-4.07,63.71-6.11,95.56c30.88-22.94,61.75-45.89,92.63-68.83c-0.83,10.19-1.67,20.38-2.5,30.57
	c16.72-10.21,33.44-20.43,50.17-30.64c-1,21.23-2,42.45-2.99,63.68c12.96-18.7,25.93-37.4,38.89-56.11
	c-3.28,12.24,2.18,26.31,12.86,33.14c19.42-37.37,38.84-74.73,58.26-112.1c1.87,39.78,3.74,79.57,5.61,119.35
	c25.69-64.63,61.64-125.17,106.07-178.67c7.41,52.54,10.78,105.65,10.07,158.7c-0.23,17.12-4.7,38.95-21.56,41.93
	c-15.47,2.73-28.09-15.55-25.69-31.08c2.4-15.52,14.43-27.61,26.41-37.77c73.76-62.55,171.53-96.03,268.15-91.83
	c-67.33,48.8-134.66,97.59-201.99,146.39c48.19-25.25,96.37-50.49,144.56-75.74c13.16-6.89,27.17-13.98,41.99-13.03
	c14.82,0.94,29.96,13.41,28.01,28.14c-1.13,8.51-7.36,15.32-13.28,21.52c-17.58,18.4-35.17,36.8-52.75,55.2
	c26.84-13.47,53.67-26.94,80.51-40.42c-37.95,37.11-92.97,52.08-146.02,53.47c-53.06,1.39-105.57-9.29-158.15-16.55
	c-158.33-21.84-320.91-12.48-475.69,27.39c79.07-11.68,160.19-9.28,238.43,7.05c-54.74-5.08-111.97-9.83-162.91,10.86
	c-15.51,6.3-30.2,14.95-42.26,26.55c-24.72,23.78-36.7,58.39-39.58,92.57s2.48,68.46,7.82,102.35
	c28.59-61.71,57.18-123.41,85.77-185.12c-39.92,75.15-62.82,159.29-66.5,244.3c31.14-63.41,62.27-126.82,93.41-190.23
	c-21.07,55.34-32.09,114.48-32.35,173.69c39.89-68.21,79.77-136.42,119.66-204.62c-8.45,58.56-16.89,117.13-25.34,175.69
	c29-47.93,58-95.85,87-143.78c-32.09,64.92-42.55,140.3-29.33,211.5c38.84-99.15,68.48-201.9,88.42-306.51
	c1.38,78.18,2.77,156.36,4.15,234.54c22.75-63.97,45.51-127.95,68.26-191.92c-23.21,72.52-33.45,149.17-30.09,225.24
	c26.84-73.65,66.99-142.44,117.92-202.03c-4.61,59.62-9.22,119.23-13.83,178.85c14.09-46.56,28.18-93.12,42.27-139.67
	c3.7-12.24,13.24-27.56,25.08-22.73c8.57,3.49,9.74,14.94,9.56,24.2c-1.11,55.38-2.22,110.76-3.33,166.13
	c32.69-70.99,65.39-141.98,98.08-212.97c-9.61,68.7-6.66,139.13,8.66,206.78c9.39-74.73,18.78-149.47,28.17-224.2
	c11.12,72.18,22.25,144.37,33.37,216.55c12.96-74.07-3.43-149.78-19.74-223.18c30.43,68.14,52.26,140.13,64.8,213.7
	c15.77,2.68,31.54,5.36,47.31,8.05c-3.98-25.27-34.91-35.2-60.42-37.11c-144.62-10.83-285.13,65.27-429.8,55.21
	c-38.46-2.67-76.65-11.45-115.15-9.4s-79.32,17.6-98.32,51.15c96.21,4.84,192.43,9.68,288.64,14.51
	c23.51,1.18,47.62,2.29,70.06-4.82c22.44-7.11,43.23-24.3,47.73-47.4c-12.32,22.51-24.64,45.01-36.96,67.52
	c32.77-11.96,60.95-36.05,77.85-66.57c-6.42,21.36-12.84,42.73-19.26,64.09c21.43-27.05,42.85-54.09,64.28-81.14
	c-3.91,22.6-7.83,45.21-11.74,67.81c10.27-11.49,20.55-22.97,30.82-34.46c-19.76,11.04-18.27,45.57,2.37,54.86"/>
<g>
	<g>
		
			<line fill="none" stroke="#000000" stroke-width="7" stroke-linecap="round" stroke-linejoin="round" stroke-miterlimit="10" x1="43.46" y1="52.57" x2="43.46" y2="175.02"/>
		
			<line fill="none" stroke="#000000" stroke-width="7" stroke-linecap="round" stroke-linejoin="round" stroke-miterlimit="10" x1="20.96" y1="152.52" x2="795.73" y2="152.52"/>
		
			<polyline fill="none" stroke="#000000" stroke-width="7" stroke-linecap="round" stroke-linejoin="round" stroke-miterlimit="10" points="
			20.96,74.57 43.46,52.57 65.96,74.57 		"/>
		
			<polyline fill="none" stroke="#000000" stroke-width="7" stroke-linecap="round" stroke-linejoin="round" stroke-miterlimit="10" points="
			773.73,130.02 795.73,152.52 773.73,175.02 		"/>
	</g>
	<text transform="matrix(1 0 0 1 736.9608 116.285)" font-family="'PermanentMarker'" font-size="30.74px">time</text>
	<text transform="matrix(1 0 0 1 13.3157 39.7668)"><tspan x="0" y="0" fill="#6DC065" font-family="'PermanentMarker'" font-size="30.74px">gl</tspan><tspan x="36.44" y="0" fill="#6DC065" font-family="'PermanentMarker'" font-size="30.74px">o</tspan><tspan x="55.18" y="0" fill="#6DC065" font-family="'PermanentMarker'" font-size="30.74px">bal temp</tspan><tspan x="190.35" y="0" fill="#6DC065" font-family="'PermanentMarker'" font-size="30.74px">e</tspan><tspan x="206.08" y="0" fill="#6DC065" font-family="'PermanentMarker'" font-size="30.74px">r</tspan><tspan x="222.71" y="0" fill="#6DC065" font-family="'PermanentMarker'" font-size="30.74px" letter-spacing="-1">a</tspan><tspan x="239.05" y="0" fill="#6DC065" font-family="'PermanentMarker'" font-size="30.74px">tures</tspan></text>
	<path fill="none" stroke="#6DC065" stroke-width="7" stroke-linecap="round" stroke-linejoin="round" stroke-miterlimit="10" d="
		M51.54,143.44c116.37-0.19,232.75-0.38,349.12-0.58c70.28-0.12,141.68-0.39,209.1-20.23S741.27,60.3,770.61-3.56"/>
	<g>
		<path fill="none" stroke="#F4783B" stroke-width="7" stroke-linecap="round" stroke-linejoin="round" stroke-miterlimit="10" d="
			M660.97,90.54c-0.59,26.6-1.19,53.2-1.78,79.8c4.55,0.31,9.09,0.61,13.64,0.92c-0.11-27.81-0.22-55.62-0.33-83.42
			c-4.22-0.02-8.44-0.04-12.66-0.06"/>
		<path fill="none" stroke="#F4783B" stroke-width="7" stroke-linecap="round" stroke-linejoin="round" stroke-miterlimit="10" d="
			M653.46,81.5c-5.43-7.17-15.18-9.98-24.13-9.22c-8.96,0.76-17.35,4.55-25.43,8.48s-16.21,8.11-25.05,9.75
			c-10.24,1.89-21.12,0.15-30.26-4.84"/>
		<path fill="none" stroke="#F4783B" stroke-width="7" stroke-linecap="round" stroke-linejoin="round" stroke-miterlimit="10" d="
			M654.1,69.96c0.09,4.01,0.18,8.01,0.28,12.02c-3.48,0.93-6.97,1.87-10.45,2.8"/>
		<text transform="matrix(1 0 0 1 386.2615 74.5715)"><tspan x="0" y="0" fill="#F4783B" font-family="'PermanentMarker'" font-size="30.74px">my life</tspan><tspan x="104.98" y="0" fill="#F4783B" font-family="'PermanentMarker'" font-size="30.74px">s</tspan><tspan x="118.94" y="0" fill="#F4783B" font-family="'PermanentMarker'" font-size="30.74px">p</tspan><tspan x="134.46" y="0" fill="#F4783B" font-family="'PermanentMarker'" font-size="30.74px">an</tspan></text>
	</g>
</g>
<g>
	<g>
		
			<line fill="none" stroke="#F4783B" stroke-width="7" stroke-linecap="round" stroke-linejoin="round" stroke-miterlimit="10" x1="20.96" y1="464.2" x2="795.73" y2="464.2"/>
		
			<polyline fill="none" stroke="#F4783B" stroke-width="7" stroke-linecap="round" stroke-linejoin="round" stroke-miterlimit="10" points="
			773.73,441.7 795.73,464.2 773.73,486.7 		"/>
		<text transform="matrix(1 0 0 1 632.9429 432.1897)"><tspan x="0" y="0" fill="#F4783B" font-family="'PermanentMarker'" font-size="30.74px">my life</tspan><tspan x="104.98" y="0" fill="#F4783B" font-family="'PermanentMarker'" font-size="30.74px">s</tspan><tspan x="118.94" y="0" fill="#F4783B" font-family="'PermanentMarker'" font-size="30.74px">p</tspan><tspan x="134.46" y="0" fill="#F4783B" font-family="'PermanentMarker'" font-size="30.74px">an</tspan></text>
	</g>
	<g>
		
			<line fill="none" stroke="#000000" stroke-width="7" stroke-linecap="round" stroke-linejoin="round" stroke-miterlimit="10" x1="43.46" y1="231.15" x2="43.46" y2="486.7"/>
		
			<polyline fill="none" stroke="#000000" stroke-width="7" stroke-linecap="round" stroke-linejoin="round" stroke-miterlimit="10" points="
			20.96,253.15 43.46,231.15 65.96,253.15 		"/>
		<text transform="matrix(1 0 0 1 13.3157 217.6421)"><tspan x="0" y="0" fill="#A967AA" font-family="'PermanentMarker'" font-size="30.74px">life s</tspan><tspan x="81.89" y="0" fill="#A967AA" font-family="'PermanentMarker'" font-size="30.74px" letter-spacing="-1">a</tspan><tspan x="98.22" y="0" fill="#A967AA" font-family="'PermanentMarker'" font-size="30.74px">tis</tspan><tspan x="137.07" y="0" fill="#A967AA" font-family="'PermanentMarker'" font-size="30.74px">f</tspan><tspan x="150.76" y="0" fill="#A967AA" font-family="'PermanentMarker'" font-size="30.74px">act</tspan><tspan x="199.15" y="0" fill="#A967AA" font-family="'PermanentMarker'" font-size="30.74px">i</tspan><tspan x="208.4" y="0" fill="#A967AA" font-family="'PermanentMarker'" font-size="30.74px">on</tspan></text>
	</g>
	<path fill="none" stroke="#6DC065" stroke-width="7" stroke-linecap="round" stroke-linejoin="round" stroke-miterlimit="10" d="
		M67.22,403.92c224.29-36.61,448.58-73.23,672.86-109.84"/>
	<path fill="none" stroke="#A967AA" stroke-width="7" stroke-linecap="round" stroke-linejoin="round" stroke-miterlimit="10" d="
		M73.92,340.01c2.1-13.03,4.41-26.6,12.16-37.29c7.75-10.69,22.69-17.41,34.53-11.57c15.42,7.6,15.86,29.01,14.54,46.15
		c-1.4,18.07-2.05,37.27,6.65,53.18c8.7,15.9,30.15,26.2,45.63,16.76c12.83-7.83,16.06-24.56,20.36-38.96
		c4.3-14.4,14.45-30.46,29.44-29.44c13.07,0.89,21.49,14.84,23.28,27.82c1.8,12.98-0.63,26.37,2.06,39.19
		c2.69,12.83,13.44,25.78,26.41,23.96c12.39-1.74,19.03-15.14,23.57-26.79c10.94-28.07,21.88-56.15,32.82-84.22
		c4.03-10.33,8.32-21.06,16.55-28.49c8.23-7.43,21.64-10.38,30.4-3.59c7.06,5.47,9.67,15.86,17.7,19.77
		c7.74,3.76,17-0.23,23.99-5.26s13.64-11.35,22.12-12.8c14.04-2.4,26.8,9.92,31.7,23.29c4.9,13.37,4.58,28.05,7.73,41.94
		s11.58,28.35,25.49,31.39c23.62,5.17,42.8-24.84,66.93-23.28c19.52,1.26,32.39,22.51,51.53,26.55
		c19.95,4.22,38.16-11.23,52.83-25.4s33.3-29.33,53.09-24.45"/>
</g>
<g>
	<g>
		<text transform="matrix(1 0 0 1 128.2144 550.1909)"><tspan x="0" y="0" font-family="'PermanentMarker'" font-size="30.74px">p</tspan><tspan x="16.12" y="0" font-family="'PermanentMarker'" font-size="30.74px">e</tspan><tspan x="31.85" y="0" font-family="'PermanentMarker'" font-size="30.74px">r</tspan><tspan x="48.48" y="0" font-family="'PermanentMarker'" font-size="30.74px">c</tspan><tspan x="63.97" y="0" font-family="'PermanentMarker'" font-size="30.74px">eived correl</tspan><tspan x="248.26" y="0" font-family="'PermanentMarker'" font-size="30.74px" letter-spacing="-1">a</tspan><tspan x="264.59" y="0" font-family="'PermanentMarker'" font-size="30.74px">t</tspan><tspan x="279.33" y="0" font-family="'PermanentMarker'" font-size="30.74px">i</tspan><tspan x="288.58" y="0" font-family="'PermanentMarker'" font-size="30.74px">on:</tspan></text>
	</g>
	<text transform="matrix(1 0 0 1 517.4707 550.1908)" font-family="'PermanentMarker'" font-size="30.74px">r = 0</text>
	<path fill="none" stroke="#000000" stroke-width="7" stroke-linecap="round" stroke-linejoin="round" stroke-miterlimit="10" d="
		M507.3,521.55c-0.22,15.96,0.6,31.93,2.47,47.78c33.24-6.53,67.59-7.31,101.09-2.3c-2.43-16.23-4.87-32.45-7.3-48.68
		c-27.92,0.6-55.83,1.19-83.75,1.79"/>
</g>
</svg>
