<?xml version="1.0" encoding="utf-8"?>
<!-- Generator: Adobe Illustrator 19.2.0, SVG Export Plug-In . SVG Version: 6.00 Build 0)  -->
<svg version="1.1" id="Layer_1" xmlns="http://www.w3.org/2000/svg" xmlns:xlink="http://www.w3.org/1999/xlink" x="0px" y="0px"
	 width="689.55px" height="446.49px" viewBox="0 0 689.55 446.49" enable-background="new 0 0 689.55 446.49" xml:space="preserve">
<path fill="none" stroke="#FFFFFF" stroke-width="120" stroke-linejoin="bevel" stroke-miterlimit="10" d="M6.42,158.47
	c8.54-2.85,17.07-5.71,25.61-8.56c1.13,11.87,2.27,23.74,3.4,35.61c17.36-17.77,34.73-35.54,52.09-53.31
	c-0.32,20.73-0.64,41.46-0.95,62.2c11.82-14.89,23.63-29.78,35.45-44.68c-13.45-1.04-26.33,11.47-25.67,24.94
	c0.65,13.48,14.67,24.68,27.96,22.35c5.19-0.91,9.93-3.51,14.27-6.5c19.36-13.33,32.35-35.51,34.51-58.91s-6.55-47.59-23.13-64.24
	c69,6.88,138.34,10.33,207.68,10.33c25.92,0,52.43-0.59,76.73-9.61c49.11-18.23,85.98-69.43,138.36-70.16
	c-47.07,17.04-89.45,46.82-121.43,85.33c44.27-12.65,88.53-25.3,132.8-37.95c-21.68,29.54-50.65,53.68-83.62,69.68
	c32.96,3.26,66.75-2.44,96.82-16.32c-16.82,16.69-33.64,33.38-50.46,50.07c53.26,0.29,106.51-15.6,150.9-45.05
	c-67.85-27.54-138.07-50.21-210.5-60.99s-147.31-9.38-217.79,10.47c-39.14,11.03-78.58,29.17-102.05,62.39
	c-9.46,13.38-15.25,33.41-3.63,44.97c10.66,10.6,28.36,6.81,42.69,2.29c57.61-18.15,115.22-36.3,172.83-54.45
	c10.47-3.3,21.46-6.64,32.26-4.62c10.79,2.01,21.08,11.3,20.18,22.24c-1.04,12.64-15.03,19.61-27.29,22.87
	c-41.8,11.11-85.95,8.05-128.82,13.82s-88.24,23.63-108.34,61.92c47.41,5.31,91.22-22.46,135.51-40.19
	c82.3-32.95,177.76-31.53,259.04,3.87c-51.97,7.89-103.93,15.77-155.9,23.66c54.94,4.24,109.88,8.48,164.82,12.73
	c-56.25,18.91-116.09,27.07-175.34,23.92c-17.68-0.94-36.08-2.77-52.52,3.82c-16.43,6.59-29.78,25-23.9,41.7
	c6.3,17.89,28.85,22.95,47.76,24.35c49.36,3.67,99.16,1.29,147.95-7.05c-66.86,25.37-137.31,41.23-208.58,46.98
	c30.67,19.81,70.98,12.85,106.06,2.71c35.08-10.14,72.23-22.83,107.2-12.33c-39.37,33.95-89.56,55.16-141.35,59.73
	c47.18,17.9,100.04,20.43,148.72,7.12c-27.93,21.83-67.1,23.88-101.58,15.64c-34.48-8.24-66.02-25.43-98.65-39.3
	c-32.63-13.87-68.2-24.63-103.19-18.93c-17.79,2.9-38.48,9.24-52-2.69c-8.66-7.65-10.69-20.18-11.8-31.67
	c-3.98-41.19-3.09-82.85,2.65-123.83c-7.88,57.31-14.75,114.76-20.6,172.31c-1.02,10.03-1.96,20.45,1.46,29.93
	c3.42,9.48,12.55,17.7,22.57,16.64c8.67-0.92,15.42-8.43,18.43-16.61c3.01-8.18,3.1-17.09,3.8-25.78
	c4.24-52.85,32.29-101.7,69.47-139.5s83.11-65.74,129.75-90.95c-48.01,58.5-96.01,116.99-144.02,175.49"/>
<g>
	
		<line fill="none" stroke="#000000" stroke-width="7" stroke-linecap="round" stroke-linejoin="round" stroke-miterlimit="10" x1="144.57" y1="375.1" x2="484.97" y2="375.1"/>
	
		<polyline fill="none" stroke="#000000" stroke-width="7" stroke-linecap="round" stroke-linejoin="round" stroke-miterlimit="10" points="
		462.97,352.6 484.97,375.1 462.97,397.6 	"/>
</g>
<text transform="matrix(1 0 0 1 371.0384 429.6136)"><tspan x="0" y="0" font-family="'PermanentMarker'" font-size="30.74px">cynici</tspan><tspan x="80.93" y="0" font-family="'PermanentMarker'" font-size="30.74px">s</tspan><tspan x="94.89" y="0" font-family="'PermanentMarker'" font-size="30.74px">m</tspan></text>
<g>
	
		<line fill="none" stroke="#000000" stroke-width="7" stroke-linecap="round" stroke-linejoin="round" stroke-miterlimit="10" x1="167.07" y1="93.55" x2="167.07" y2="397.6"/>
	
		<polyline fill="none" stroke="#000000" stroke-width="7" stroke-linecap="round" stroke-linejoin="round" stroke-miterlimit="10" points="
		144.57,115.55 167.07,93.55 189.57,115.55 	"/>
</g>
<text transform="matrix(1 0 0 1 135.616 75.412)"><tspan x="0" y="0" font-family="'PermanentMarker'" font-size="30.74px">how prof</tspan><tspan x="140.04" y="0" font-family="'PermanentMarker'" font-size="30.74px">o</tspan><tspan x="158.77" y="0" font-family="'PermanentMarker'" font-size="30.74px">und </tspan><tspan x="220.76" y="0" font-family="'PermanentMarker'" font-size="30.74px">y</tspan><tspan x="232.14" y="0" font-family="'PermanentMarker'" font-size="30.74px">o</tspan><tspan x="250.87" y="0" font-family="'PermanentMarker'" font-size="30.74px">u </tspan><tspan x="280.23" y="0" font-family="'PermanentMarker'" font-size="30.74px">so</tspan><tspan x="312.62" y="0" font-family="'PermanentMarker'" font-size="30.74px">und</tspan></text>
<path fill="none" stroke="#1A509D" stroke-width="7" stroke-linecap="round" stroke-linejoin="round" stroke-miterlimit="10" d="
	M184.48,358.03c74.01-88.43,156.63-169.65,246.32-242.13"/>
<g>
	<path fill="none" stroke="#000000" stroke-width="7" stroke-linecap="round" stroke-linejoin="round" stroke-miterlimit="10" d="
		M291.58,228.26c5,3,10,6,15,9.01"/>
	<path fill="none" stroke="#000000" stroke-width="7" stroke-linecap="round" stroke-linejoin="round" stroke-miterlimit="10" d="
		M304.13,226.98c-4.15,2.7-7.49,6.62-9.5,11.14"/>
	<path fill="none" stroke="#000000" stroke-width="7" stroke-linecap="round" stroke-linejoin="round" stroke-miterlimit="10" d="
		M320.86,238.87c5.66-0.68,11.01,4.15,12.15,9.74c1.14,5.59-1.19,11.44-4.84,15.82c-3.66,4.38-8.52,7.55-13.33,10.62
		c-4.8,3.08-9.69,6.19-13.43,10.5s-6.22,10.07-5.29,15.7c1.24,7.48,9.14,13.18,16.63,12"/>
</g>
<g>
	<text transform="matrix(1 0 0 1 328.5676 314.2705)"><tspan x="0" y="0" font-family="'PermanentMarker'" font-size="30.74px">extreme </tspan><tspan x="131.46" y="0" font-family="'PermanentMarker'" font-size="30.74px">p</tspan><tspan x="146.98" y="0" font-family="'PermanentMarker'" font-size="30.74px">a</tspan><tspan x="164.84" y="0" font-family="'PermanentMarker'" font-size="30.74px">r</tspan><tspan x="180.54" y="0" font-family="'PermanentMarker'" font-size="30.74px">ty</tspan><tspan x="0" y="30" font-family="'PermanentMarker'" font-size="30.74px">politi</tspan><tspan x="86.28" y="30" font-family="'PermanentMarker'" font-size="30.74px">c</tspan><tspan x="101.77" y="30" font-family="'PermanentMarker'" font-size="30.74px">s</tspan></text>
</g>
<g>
	<path fill="none" stroke="#000000" stroke-width="7" stroke-linecap="round" stroke-linejoin="round" stroke-miterlimit="10" d="
		M390.62,138.83c4.58,2.7,9.17,5.4,13.76,8.1"/>
	<path fill="none" stroke="#000000" stroke-width="7" stroke-linecap="round" stroke-linejoin="round" stroke-miterlimit="10" d="
		M401.33,136.1c-2.62,4.38-5.24,8.77-7.85,13.15"/>
	<path fill="none" stroke="#000000" stroke-width="7" stroke-linecap="round" stroke-linejoin="round" stroke-miterlimit="10" d="
		M402.08,157.12c2.07,3.96,0.14,8.84-2.49,12.45s-6.04,6.84-7.33,11.11c-1.59,5.25,0.52,11.17,4.43,15.01
		c3.91,3.85,9.35,5.82,14.79,6.5c5.44,0.68,10.95,0.17,16.41-0.34"/>
</g>
<text transform="matrix(1 0 0 1 444.5676 203.2705)"><tspan x="0" y="0" font-family="'PermanentMarker'" font-size="30.74px">teenage</tspan><tspan x="0" y="30" font-family="'PermanentMarker'" font-size="30.74px">nihili</tspan><tspan x="81.17" y="30" font-family="'PermanentMarker'" font-size="30.74px">s</tspan><tspan x="95.13" y="30" font-family="'PermanentMarker'" font-size="30.74px">m</tspan></text>
<g>
	<path fill="none" stroke="#000000" stroke-width="7" stroke-linecap="round" stroke-linejoin="round" stroke-miterlimit="10" d="
		M541.92,10.13c-2.05,10.22,0.3,20.73,1.61,31.07s1.34,21.64-4.58,30.22c-4.58,6.63-12.06,10.66-17.43,16.66
		c-5.58,6.24-8.69,14.62-8.54,22.98c0.08,4.47,1.15,9.09,4.05,12.49c2.9,3.4,7.91,5.23,12.02,3.5"/>
	<path fill="none" stroke="#000000" stroke-width="7" stroke-linecap="round" stroke-linejoin="round" stroke-miterlimit="10" d="
		M533.49,15.18c2.7-3.39,5.4-6.77,8.1-10.16c2.61,3.13,5.23,6.27,7.84,9.4"/>
</g>
<text transform="matrix(1 0 0 1 544.2431 138.8315)" font-family="'PermanentMarker'" font-size="30.74px">nietzsche</text>
<g>
	<path fill="none" stroke="#000000" stroke-width="7" stroke-linecap="round" stroke-linejoin="round" stroke-miterlimit="10" d="
		M208.62,138.05c-2.93,3.71-5.86,7.43-8.79,11.14"/>
	<path fill="none" stroke="#000000" stroke-width="7" stroke-linecap="round" stroke-linejoin="round" stroke-miterlimit="10" d="
		M199.01,139.11c3.37,3.08,6.73,6.15,10.1,9.23"/>
	<path fill="none" stroke="#000000" stroke-width="7" stroke-linecap="round" stroke-linejoin="round" stroke-miterlimit="10" d="
		M189.98,156.9c-12.48,10.06-30.11,13.33-45.37,8.42"/>
</g>
<text transform="matrix(1 0 0 1 7.8823 162.5703)"><tspan x="0" y="0" font-family="'PermanentMarker'" font-size="30.74px">b</tspan><tspan x="17.02" y="0" font-family="'PermanentMarker'" font-size="30.74px">u</tspan><tspan x="35" y="0" font-family="'PermanentMarker'" font-size="30.74px">d</tspan><tspan x="49.98" y="0" font-family="'PermanentMarker'" font-size="30.74px">dhist</tspan><tspan x="40.44" y="30" font-family="'PermanentMarker'" font-size="30.74px">monk</tspan></text>
</svg>
