<?xml version="1.0" encoding="utf-8"?>
<!-- Generator: Adobe Illustrator 19.2.0, SVG Export Plug-In . SVG Version: 6.00 Build 0)  -->
<svg version="1.1" id="Layer_1" xmlns="http://www.w3.org/2000/svg" xmlns:xlink="http://www.w3.org/1999/xlink" x="0px" y="0px"
	 width="807.6px" height="336.8px" viewBox="0 0 807.6 336.8" enable-background="new 0 0 807.6 336.8" xml:space="preserve">
<path fill="none" stroke="#FFFFFF" stroke-width="120" stroke-linejoin="bevel" stroke-miterlimit="10" d="M572.4,21.1
	c-0.3,11.4-13.3,19-24.6,17.9c-11.3-1.1-21-8.2-30-15.2c-9-7-18.4-14.4-29.6-16.2c-30.7-4.9-53.3,32.7-84.3,34.9
	c-21.1,1.5-39.2-13.7-58.3-23c-12.6-6.1-26.3-9.7-40.2-11.3c-11.8-1.3-24.1-1.1-34.8,3.9s-19.5,15.6-19.4,27.4
	c0.1,15.5,15,27.6,30.3,30s30.7-2.4,45.4-7.2C303.5,84.9,272,98.8,239.6,101c-39,2.6-77.1-11.1-115.9-15.2s-84.2,5.1-103.4,39.1
	c-4,7.2-6.7,15.6-4.9,23.6s9.3,15.1,17.5,14.2c8-0.8,13.5-8.2,17.9-15c14.8-22.6,29.7-45.2,44.5-67.7c-0.2,30.2-0.3,60.3-0.5,90.5
	c22.4-27.5,44.7-55.1,67.1-82.6c3.3,27.2,6.6,54.3,9.9,81.5c19.3-27.3,38.5-54.7,57.8-82c-6.4,20.4,0.7,47.9,21.5,52.7
	c14.5,3.3,29.4-6.3,37-19.1s9.5-28,11.2-42.8c-0.6,17.9-1.2,35.9-1.8,53.8c15.4-14.6,30.8-29.3,46.1-43.9
	c-13.4,23.9-26.9,47.8-40.3,71.7c-5,8.9-10.1,18.3-9.8,28.5c0.3,10.2,8.5,20.8,18.6,19.9c-8.4,18.2-16.7,36.4-25.1,54.6
	c10.1,1.6,13.2,15.3,10.1,25c-3.1,9.7-10,18.3-11.3,28.4c-1.3,10.1,7.6,22.6,17.1,18.8c6.7-2.7,8.6-11.2,9.5-18.4
	c3.1-25.3,6.2-50.6,9.3-75.9c8.2,32.1,16.3,64.1,24.5,96.2c11.3-15.3,22.5-30.5,33.8-45.8c4.1-5.6,8.4-11.3,14.4-14.7
	c12-6.7,29.2-1,34.6,11.6s-2.1,29.1-15.1,33.2c11.1-20.8,22.2-41.7,33.4-62.5c10,8.7,7.4,24.5,6.1,37.7
	c-1.3,13.2,3.6,30.7,16.9,31.1c12.6,0.3,18.6-15.1,21.2-27.4c5.7-27.9,11.3-55.8,17-83.7c9.7,37.7,19.4,75.4,29.1,113.1
	c4.8-14.4,9.6-29,9.9-44.2c0.3-15.1-4.5-31.1-16-40.9c-13.1-11-31.9-12.1-48.9-9.7c-17,2.3-33.7,7.5-50.8,6.7
	c-30.4-1.3-57.5-21.3-75-46.2c-17.5-24.9-26.9-54.4-36-83.5c17.1,47,51,87.7,94.1,113c12.2,7.2,25.7,13.3,39.8,12.7
	c24-1,43.4-21.8,50.8-44.6c7.3-22.8,5.2-47.5,2.9-71.4c-7.5-5.1-6.5-17.8,0.5-23.6c7-5.9,17.4-5.9,25.9-2.8
	c22.7,8.4,33.9,39,21.8,60c16-24.2,32-48.4,48.1-72.6c2.1,28.4,4.1,56.8,6.2,85.2c13.4-20.1,26.8-40.3,40.3-60.4
	c4.8,17,9.6,33.9,14.4,50.9c8.7-21.1,17.4-42.2,26-63.3c0,10,0,20.3,3.7,29.5c3.7,9.3,12,17.4,22,17.9c10.3,0.5,19.4-7.4,23.7-16.8
	c4.3-9.3,4.8-19.9,5.2-30.2c-2.4,15.1,5.7,31.2,19.2,38.4c13.5,7.2,31.4,4.8,42.6-5.6"/>
<g id="Arrow_right">
</g>
<g>
	
		<line fill="none" stroke="#000000" stroke-width="7" stroke-linecap="round" stroke-linejoin="round" stroke-miterlimit="10" x1="302.3" y1="52.8" x2="302.3" y2="289.5"/>
	
		<line fill="none" stroke="#000000" stroke-width="7" stroke-linecap="round" stroke-linejoin="round" stroke-miterlimit="10" x1="281.6" y1="267" x2="541.8" y2="267"/>
	<g>
		
			<polyline fill="none" stroke="#000000" stroke-width="7" stroke-linecap="round" stroke-linejoin="round" stroke-miterlimit="10" points="
			519.8,244.5 541.8,267 519.8,289.5 		"/>
	</g>
	<g>
		
			<polyline fill="none" stroke="#000000" stroke-width="7" stroke-linecap="round" stroke-linejoin="round" stroke-miterlimit="10" points="
			279.8,74.8 302.3,52.8 324.8,74.8 		"/>
	</g>
</g>
<text transform="matrix(1 0 0 1 285.8366 319.8922)" font-family="'PermanentMarker'" font-size="30.74px">how hungry i am</text>
<text transform="matrix(1 0 0 1 256.4326 39.6037)" font-family="'PermanentMarker'" font-size="30.74px">how much food i buy</text>
<path fill="none" stroke="#CE3045" stroke-width="7" stroke-linecap="round" stroke-linejoin="round" stroke-miterlimit="10" d="
	M330.7,104.8c5.1,30.6,10.6,62,26.8,88.4c16.3,26.4,46.3,46.8,76.9,42.4c26.5-3.8,47.8-25.4,58.8-49.8s13.5-51.7,15.9-78.5"/>
<g>
	<path fill="none" stroke="#000000" stroke-width="7" stroke-linecap="round" stroke-linejoin="round" stroke-miterlimit="10" d="
		M335.8,110.3c-2.6,2.6-5.2,5.2-7.8,7.8"/>
	<path fill="none" stroke="#000000" stroke-width="7" stroke-linecap="round" stroke-linejoin="round" stroke-miterlimit="10" d="
		M327.4,111.5c3,1.8,6,3.7,9,5.5"/>
	<path fill="none" stroke="#000000" stroke-width="7" stroke-linecap="round" stroke-linejoin="round" stroke-miterlimit="10" d="
		M316.6,114.7c-4.5-2.2-10.1-1.2-14.4,1.4c-4.3,2.6-7.6,6.6-10.6,10.6c-3,4-6,8.2-9.9,11.4c-3.9,3.2-8.9,5.4-13.9,4.6
		s-9.5-5.2-9.2-10.2"/>
	<text transform="matrix(1 0 0 1 57.1029 122.3404)"><tspan x="0" y="0" font-family="'PermanentMarker'" font-size="30.74px">planning for</tspan><tspan x="-50" y="30" font-family="'PermanentMarker'" font-size="30.74px">the whole week</tspan></text>
</g>
<g>
	<path fill="none" stroke="#000000" stroke-width="7" stroke-linecap="round" stroke-linejoin="round" stroke-miterlimit="10" d="
		M513.7,113.6c-3.1,1.9-6.1,3.9-9.2,5.8"/>
	<path fill="none" stroke="#000000" stroke-width="7" stroke-linecap="round" stroke-linejoin="round" stroke-miterlimit="10" d="
		M506.6,112.5c1.6,2.4,3.1,4.7,4.7,7.1"/>
	<path fill="none" stroke="#000000" stroke-width="7" stroke-linecap="round" stroke-linejoin="round" stroke-miterlimit="10" d="
		M525.3,118c2.8-2.2,7.2-0.9,9.4,1.9c2.3,2.7,3,6.4,3.6,9.9s1.2,7.2,3.3,10c3.8,5.2,11.7,6,17.7,3.5c6-2.5,10.6-7.4,14.9-12.3"/>
	<text transform="matrix(1 0 0 1 584.1111 122.3403)"><tspan x="0" y="0" font-family="'PermanentMarker'" font-size="30.74px">planning for </tspan><tspan x="0" y="30" font-family="'PermanentMarker'" font-size="30.74px">a single feast</tspan></text>
</g>
<g id="Arrow_up">
</g>
</svg>
