<?xml version="1.0" encoding="utf-8"?>
<!-- Generator: Adobe Illustrator 19.2.0, SVG Export Plug-In . SVG Version: 6.00 Build 0)  -->
<svg version="1.1" id="Layer_1" xmlns="http://www.w3.org/2000/svg" xmlns:xlink="http://www.w3.org/1999/xlink" x="0px" y="0px"
	 width="602.47px" height="379.15px" viewBox="0 0 602.47 379.15" enable-background="new 0 0 602.47 379.15" xml:space="preserve">
<path fill="none" stroke="#FFFFFF" stroke-width="120" stroke-linejoin="bevel" stroke-miterlimit="10" d="M42.36-6.25
	C24.28,17.91,6.2,42.06-11.88,66.21C38.51,55.44,86.79,34.85,129.45,5.94c-12.91,21.79-25.82,43.58-38.74,65.36
	c39.98-30.62,79.96-61.23,119.94-91.85C198.67,6.33,186.7,33.2,174.72,60.07c33.77-19.46,67.54-38.92,101.31-58.39
	c-14.56,27.46-29.12,54.92-43.68,82.37c51.99-35.78,103.99-71.57,155.98-107.35c-13.27,31.8-26.53,63.6-39.8,95.4
	c28.53-24.24,57.05-48.48,85.58-72.72c-11.23,25.82-22.47,51.64-33.7,77.47c34.11-30.12,68.23-60.24,102.34-90.36
	c-8.47,23.9-16.94,47.8-25.42,71.71c18.93-13.77,37.85-27.54,56.78-41.31c-5.44,22.42-10.88,44.85-16.32,67.27
	c20.5-31.71,41.01-63.42,61.51-95.13c-2.07,15.41-4.13,30.81-6.2,46.22c4.11-5.74,8.22-11.49,12.32-17.23
	c10.15,20.22-4.18,45.83-24.4,55.99c-20.22,10.16-44.01,9.09-66.6,7.78C392.08,75.87,289.74,69.96,187.4,64.04
	c-24.09-1.39-49.1-2.65-71.49,6.37s-41.32,31.44-38.11,55.36c13.31-7.12,26.62-14.24,39.94-21.35c-8.3,21.48-16.6,42.97-24.9,64.45
	c9.95-12.41,25-20.6,40.83-22.23c-12.12,28.35-24.23,56.7-36.35,85.05c11.18-4.97,22.36-9.93,33.55-14.9
	c-11.45,32.38-22.9,64.76-34.35,97.14c9.33-12.11,18.65-24.22,27.98-36.34c-13.47,24.44-26.95,48.88-40.42,73.32
	c15.56-14.74,31.12-29.47,46.68-44.21c-9.82,29.65-19.64,59.29-29.47,88.94c11.82-33.5,23.63-67.01,35.45-100.51
	c7.97,24.25,15.93,48.5,23.9,72.75c-2.48-30.96-4.96-61.92-7.44-92.88c18.41,14.19,36.81,28.39,55.22,42.58
	c-1.84-28.95-3.68-57.91-5.51-86.86c15.76,9.51,31.52,19.02,47.28,28.54c-0.7-26.21-1.41-52.42-2.11-78.63
	c23.66,0.35,44.48-23.9,40.55-47.23c13.87,6.13,30.18-2.03,40.53-13.11s17.36-25.06,28.42-35.43s28.89-16.33,41.28-7.6
	c12.59,8.86,12.63,28.56,4.44,41.6c-8.19,13.03-22.1,21.12-35.21,29.18C267.39,209.93,184.23,300,130.52,405.29
	c33.4-36.75,66.8-73.51,100.2-110.26c-5.91,26.11-11.83,52.22-17.74,78.33c17.22-22.1,34.44-44.19,51.65-66.29
	c-1.59,16.66-3.18,33.32-4.76,49.98c19.81-23.08,39.63-46.17,59.44-69.25c-6.94,26.24-13.87,52.48-20.81,78.72
	c13.01-30.03,26.01-60.07,39.02-90.1c0.09,34.59,0.18,69.18,0.26,103.77c21.02-35.01,42.04-70.02,63.06-105.02
	c-6.05,9.95-12.33,20.76-11.51,32.38c0.82,11.62,12.42,23.05,23.36,19.06c3.27-1.2,6.01-3.57,8.15-6.32
	c12.9-16.53,3.69-40.41-5.87-59.07c-6.18,38.8-5.34,78.71,2.48,117.22c16.58-19.1,72.14-29.45,97.41-28.51"/>
<g>
	
		<line fill="none" stroke="#000000" stroke-width="7" stroke-linecap="round" stroke-linejoin="round" stroke-miterlimit="10" x1="112.55" y1="68.38" x2="112.55" y2="372.43"/>
	
		<polyline fill="none" stroke="#000000" stroke-width="7" stroke-linecap="round" stroke-linejoin="round" stroke-miterlimit="10" points="
		90.05,90.38 112.55,68.38 135.05,90.38 	"/>
</g>
<g>
	
		<line fill="none" stroke="#000000" stroke-width="7" stroke-linecap="round" stroke-linejoin="round" stroke-miterlimit="10" x1="90.05" y1="349.93" x2="430.45" y2="349.93"/>
	
		<polyline fill="none" stroke="#000000" stroke-width="7" stroke-linecap="round" stroke-linejoin="round" stroke-miterlimit="10" points="
		408.45,327.43 430.45,349.93 408.45,372.43 	"/>
</g>
<text transform="matrix(1 0 0 1 448.3436 357.4283)" font-family="'PermanentMarker'" font-size="30.74px">age</text>
<text transform="matrix(1 0 0 1 6.4672 56.1612)"><tspan x="0" y="0" fill="#F4783B" font-family="'PermanentMarker'" font-size="30.74px">age </tspan><tspan x="65.32" y="0" fill="#F4783B" font-family="'PermanentMarker'" font-size="30.74px" letter-spacing="-1">a</tspan><tspan x="81.65" y="0" fill="#F4783B" font-family="'PermanentMarker'" font-size="30.74px">t which men look best </tspan><tspan x="436.03" y="0" fill="#F4783B" font-family="'PermanentMarker'" font-size="30.74px">t</tspan><tspan x="449.84" y="0" fill="#F4783B" font-family="'PermanentMarker'" font-size="30.74px">o women</tspan></text>
<path fill="none" stroke="#F4783B" stroke-width="7" stroke-linecap="round" stroke-linejoin="round" stroke-miterlimit="10" d="
	M132.15,295.48c33.05,2.75,63.23-20.01,83.01-46.64s32.68-57.89,52.86-84.21c33.98-44.32,88.63-72.08,144.47-73.38"/>
<text transform="matrix(1 0 0 1 6.4672 28.7395)"><tspan x="0" y="0" fill="#00A9A3" font-family="'PermanentMarker'" font-size="30.74px">age </tspan><tspan x="65.32" y="0" fill="#00A9A3" font-family="'PermanentMarker'" font-size="30.74px" letter-spacing="-1">a</tspan><tspan x="81.65" y="0" fill="#00A9A3" font-family="'PermanentMarker'" font-size="30.74px">t which women look best </tspan><tspan x="480.73" y="0" fill="#00A9A3" font-family="'PermanentMarker'" font-size="30.74px">t</tspan><tspan x="494.54" y="0" fill="#00A9A3" font-family="'PermanentMarker'" font-size="30.74px">o men</tspan></text>
<path fill="none" stroke="#00A9A3" stroke-width="7" stroke-linecap="round" stroke-linejoin="round" stroke-miterlimit="10" d="
	M132.22,316.34c92.9,7.85,187.22-1.37,276.84-27.06"/>
</svg>
