<?xml version="1.0" encoding="utf-8"?>
<!-- Generator: Adobe Illustrator 18.0.0, SVG Export Plug-In . SVG Version: 6.00 Build 0)  -->
<!DOCTYPE svg PUBLIC "-//W3C//DTD SVG 1.1//EN" "http://www.w3.org/Graphics/SVG/1.1/DTD/svg11.dtd">
<svg version="1.1" id="Layer_1" xmlns="http://www.w3.org/2000/svg" xmlns:xlink="http://www.w3.org/1999/xlink" x="0px" y="0px"
	 viewBox="0 0 639 361.7" enable-background="new 0 0 639 361.7" xml:space="preserve">
<path fill="none" stroke="#FFFFFF" stroke-width="120" stroke-linejoin="bevel" stroke-miterlimit="10" d="M24,1.6
	C17.2,21.2,10.5,40.8,3.8,60.3C41.6,39.5,79.5,18.7,117.3-2.1c-18,26-36.1,52-54.1,78C31.3,122-1.8,171.7-2.7,227.7
	C51.5,141,108.3,51.7,193.7-4.5C187,49.8,166,102.3,133.5,146.4c-35.6,48.2-86.4,89.9-96.9,148.9c90.9-97.1,174.3-201.2,249.1-311.2
	c-6.9,104.7-73,194.6-113.6,291.3c-5.5,13-9.7,30,0.6,39.6c6.6,6.1,17.1,6.4,25.3,2.8c8.3-3.6,14.7-10.2,20.7-17
	c51.3-58.3,79.2-133,105.9-205.9c7.8-21.2,15.6-42.4,23.3-63.6c7.8-9.1,15.7-18.1,23.5-27.2c-16.3,104-32.6,207.9-48.9,311.9
	c-2.4,15.2-2.2,35,12.1,40.6c8.6,3.4,18.7-1,24.8-8c6.1-7,9-16.1,11.8-25c22.2-70.6,44.5-141.2,66.7-211.8
	c13.3-42.2,27.5-85.9,58.1-117.9c-13.9,113.4-20.4,227.8-19.4,342c0.1,8.2,0.2,16.7,3.8,24.1s11.4,13.4,19.5,12.1
	c12.8-2,16.5-18.3,17.4-31.2c5.9-88.5,11.8-177,17.7-265.5c1.1-16.2,2.3-32.8,9.3-47.4s21.3-26.9,37.6-26.6
	c-2.9,116.9-5.9,233.8-8.8,350.7c-0.2,9,0.2,19.6,7.5,25c8,5.9,20.2,1.5,26-6.6s6.8-18.6,7.5-28.5c2.7-38.1,3.3-76.3,4-114.5
	c1.3-77.2,2.6-154.5,3.9-231.7"/>
<g>
	
		<line fill="none" stroke="#000000" stroke-width="7" stroke-linecap="round" stroke-linejoin="round" stroke-miterlimit="10" x1="627.1" y1="264.5" x2="10.6" y2="264.5"/>
	
		<polyline fill="none" stroke="#000000" stroke-width="7" stroke-linecap="round" stroke-linejoin="round" stroke-miterlimit="10" points="
		605.1,242 627.1,264.5 605.1,287 	"/>
</g>
<g>
	
		<line fill="none" stroke="#000000" stroke-width="7" stroke-linecap="round" stroke-linejoin="round" stroke-miterlimit="10" x1="318.9" y1="34.4" x2="318.9" y2="295.2"/>
	
		<polyline fill="none" stroke="#000000" stroke-width="7" stroke-linecap="round" stroke-linejoin="round" stroke-miterlimit="10" points="
		296.4,56.4 318.9,34.4 341.4,56.4 	"/>
</g>
<text transform="matrix(1 0 0 1 417.8066 325.6304)"><tspan x="0" y="0" font-family="'PermanentMarker'" font-size="31">distance from</tspan><tspan x="69.7" y="30" font-family="'PermanentMarker'" font-size="31">the norm</tspan></text>
<g>
	<text transform="matrix(1 0 0 1 2.3506 26.0361)" font-family="'PermanentMarker'" font-size="31">how much luck you need to be successful</text>
</g>
<path fill="none" stroke="#0C6D87" stroke-width="7" stroke-linecap="round" stroke-linejoin="round" stroke-miterlimit="10" d="
	M25.8,34.4c18.2,85,59.8,167.1,127.3,221.8s162.8,78.3,244.6,48.9c53.3-19.2,97.6-58.9,128.8-106.1c31.3-47.2,50.3-101.5,63.1-156.7
	"/>
</svg>
