<?xml version="1.0" encoding="utf-8"?>
<!-- Generator: Adobe Illustrator 18.0.0, SVG Export Plug-In . SVG Version: 6.00 Build 0)  -->
<!DOCTYPE svg PUBLIC "-//W3C//DTD SVG 1.1//EN" "http://www.w3.org/Graphics/SVG/1.1/DTD/svg11.dtd">
<svg version="1.1" id="Layer_1" xmlns="http://www.w3.org/2000/svg" xmlns:xlink="http://www.w3.org/1999/xlink" x="0px" y="0px"
	 viewBox="0 0 439 423" enable-background="new 0 0 439 423" xml:space="preserve">
<path fill="none" stroke="#FFFFFF" stroke-width="120" stroke-linejoin="bevel" stroke-miterlimit="10" d="M402.5,9.9
	c-66.8-4-165.9-0.7-232.6,5c-26,2.2-52.2,5.3-76.5,14.8s-46.7,26.2-58,49.7C29.1,92.5,27,109.5,36,121c10.7,13.7,32.5,13.1,47.6,4.3
	S109,101.9,120.6,89c35.6-39.2,87-63.6,139.9-66.2C243.8,90,193.4,142.8,145.1,192.5S46.8,295.6,31,363c-2.1,9-2.7,20.3,5,25.5
	c10.2,6.8,22.7-4.1,30.1-13.8c71.1-92.4,152.9-176.7,243.1-250.6c6.2-5.1,13.7-10.4,21.4-8.2c9.7,2.7,12.5,15.2,11.7,25.3
	c-2.1,27.3-18,53.3-41.3,67.6c-10.8,6.6-24.6,13.3-25.3,25.9c-0.6,11.4,11.5,20.2,23,20.5c11.4,0.3,22.1-5.3,32.3-10.4
	c10.2-5.1,21.4-10,32.7-8.3c12.9,2,23.2,12.5,28.6,24.4c5.4,11.9,6.6,25.2,7.8,38.2c1.9,21.3,27.3,69.2,14.6,86.3
	c-13.9,18.8-63.6-1-86.8,1.3c-85.8,8.5-173,3.6-257.3-14.3"/>
<g>
	
		<line fill="none" stroke="#010101" stroke-width="7" stroke-linecap="round" stroke-linejoin="round" stroke-miterlimit="10" x1="392.7" y1="363" x2="44.1" y2="363"/>
	
		<line fill="none" stroke="#010101" stroke-width="7" stroke-linecap="round" stroke-linejoin="round" stroke-miterlimit="10" x1="67.1" y1="36.7" x2="67.1" y2="385.4"/>
</g>
<g>
	
		<polyline fill="none" stroke="#010101" stroke-width="7" stroke-linecap="round" stroke-linejoin="round" stroke-miterlimit="10" points="
		370.7,340.5 392.7,363 370.7,385.5 	"/>
	<text transform="matrix(1 0 0 1 4.4981 417.0166)" fill="#010101" font-family="'PermanentMarker'" font-size="31">how long it takes to digest</text>
</g>
<g>
	
		<polyline fill="none" stroke="#010101" stroke-width="7" stroke-linecap="round" stroke-linejoin="round" stroke-miterlimit="10" points="
		44.6,58.7 67.1,36.7 89.6,58.7 	"/>
	<text transform="matrix(1 0 0 1 40.4028 25.0186)" fill="#010101" font-family="'PermanentMarker'" font-size="31">how good it is for you</text>
</g>
<path fill="none" stroke="#A9C358" stroke-width="7" stroke-linecap="round" stroke-linejoin="round" stroke-miterlimit="10" d="
	M76.5,349.5c89.1-89.2,173.6-182.9,253.2-280.7"/>
<g>
	<path fill="none" stroke="#010101" stroke-width="7" stroke-linecap="round" stroke-linejoin="round" stroke-miterlimit="10" d="
		M198.2,210.2c5.6,2.6,10.7,6.2,15,10.6"/>
	<path fill="none" stroke="#010101" stroke-width="7" stroke-linecap="round" stroke-linejoin="round" stroke-miterlimit="10" d="
		M209.1,206.2c-2.8,6.4-5.5,12.8-8.3,19.2"/>
	<path fill="none" stroke="#010101" stroke-width="7" stroke-linecap="round" stroke-linejoin="round" stroke-miterlimit="10" d="
		M210.6,232.7c5.3,0.9,7.3,7.2,10.7,11.3c3.4,4.1,8.7,6.2,14,6.8c5.3,0.6,10.6-0.1,15.9-0.9"/>
</g>
<text transform="matrix(1 0 0 1 264.0001 258)" font-family="'PermanentMarker'" font-size="31">vegetables</text>
<g>
	<path fill="none" stroke="#010101" stroke-width="7" stroke-linecap="round" stroke-linejoin="round" stroke-miterlimit="10" d="
		M300,92.6c6.2-0.5,12.5,1.6,17.1,5.6"/>
	<path fill="none" stroke="#010101" stroke-width="7" stroke-linecap="round" stroke-linejoin="round" stroke-miterlimit="10" d="
		M312.1,84.7c-0.4,5.5-2.8,10.7-6.6,14.7c-0.4,1.3-0.9,2.7-1.3,4"/>
	<path fill="none" stroke="#010101" stroke-width="7" stroke-linecap="round" stroke-linejoin="round" stroke-miterlimit="10" d="
		M295.1,82.5c-3.8-4.6-8.7-9.6-14.6-8.8c-3.4,0.5-6.2,3-8.4,5.7s-3.8,5.8-6.1,8.4c-4.9,5.3-12.9,7.7-19.9,5.9"/>
</g>
<text transform="matrix(1 0 0 1 151.3868 101.3781)" font-family="'PermanentMarker'" font-size="31">truth</text>
</svg>
