<?xml version="1.0" encoding="utf-8"?>
<!-- Generator: Adobe Illustrator 19.2.0, SVG Export Plug-In . SVG Version: 6.00 Build 0)  -->
<svg version="1.1" id="Layer_1" xmlns="http://www.w3.org/2000/svg" xmlns:xlink="http://www.w3.org/1999/xlink" x="0px" y="0px"
	 width="613.26px" height="383.88px" viewBox="0 0 613.26 383.88" enable-background="new 0 0 613.26 383.88" xml:space="preserve">
<path fill="none" stroke="#FFFFFF" stroke-width="120" stroke-linejoin="bevel" stroke-miterlimit="10" d="M41.86-0.17
	C32.57,27.9,23.28,55.96,14,84.03C39.31,56.95,64.62,29.88,89.93,2.8C72.29,41.5,54.65,80.21,37.01,118.91
	c24.33-26.46,48.67-52.92,73-79.39C97.66,73.53,85.3,107.54,72.94,141.55c14.08-24.43,28.16-48.86,42.25-73.29
	C74.76,115.86,45.91,173.2,31.77,234.02c44.07-63.5,88.14-127,132.21-190.5c-51,101.73-96.16,206.39-135.18,313.3
	c44.17-79.67,98.43-153.75,161.07-219.88c-27.89,64.39-55.78,128.78-83.67,193.17c-2.54,5.87-5.14,12.03-4.72,18.41
	c0.42,6.38,4.91,12.99,11.29,13.51c7.58,0.61,13.01-6.9,16.81-13.5c10.89-18.93,21.79-37.86,32.68-56.79
	c6.88,12.27,6.3,27.21,5.3,41.24c-1,14.04-2.09,28.83,3.98,41.52c6.07,12.69,22.18,21.76,34.58,15.11
	c10.08-5.41,13.33-18.04,15.57-29.25c4.33-21.6,8.66-43.2,12.98-64.81c6.16,25.47,15.03,50.29,26.4,73.91
	c3.7,7.68,8.74,16.07,17.11,17.66c10.22,1.94,19.41-8.01,21.31-18.23c1.9-10.22-1.12-20.62-2.64-30.91
	c-1.52-10.29-1.09-21.97,6.13-29.46c2.56,11.53,5.31,23.48,12.61,32.77c7.29,9.29,20.54,15.03,31.23,10.03
	c11.84-5.53,15.1-22.48,8.55-33.79c17.77,23.97,35.54,47.94,53.31,71.91c1.11-23.35,2.22-46.71,3.32-70.06
	c15.58,20.67,31.15,41.34,46.73,62.02c1.96-34.43,3.92-68.86,5.88-103.3c7.31,8.17,16.8,15.06,27.68,16.38
	c18.58,2.26,35.76-12.77,42.38-30.28c6.62-17.51,5.18-36.89,3.65-55.55c-32.76,19.81-59.47,49.47-75.77,84.1
	c-6.3-10.47-5.15-23.72-2.71-35.69c2.44-11.97,5.99-24.18,3.82-36.21c-2.17-12.03-12.47-23.75-24.61-22.41
	c-9.7,1.07-16.62,9.57-22.43,17.41c-22.98,31-70.46,79.23-93.44,110.23c12.06-30.11,40.27-80.75,35.1-112.78
	c-8.84,21.33-17.68,42.67-26.51,64c3.73-13.29,7.49-26.84,7.09-40.64s-5.6-28.15-16.7-36.35c-12.59-9.29-30.34-8.85-44.8-2.88
	c-14.47,5.97-26.4,16.64-38.02,27.12c1.55-34.04,3.1-68.09,4.65-102.13c-17.8,23.05-35.61,46.11-53.41,69.16
	c1.89-11.54,3.77-23.34,1.73-34.85s-8.81-22.87-19.66-27.21c-11.84-4.74-28.83,4.47-26.25,16.96
	c-4.68-22.88,15.84-45.15,38.75-49.66c22.92-4.51,46.39,4.39,66.66,16s39.04,26.15,60.81,34.6c-7.72-24.62-15.43-49.23-23.15-73.85
	c7.85,7.73,15.87,15.59,25.72,20.53c9.85,4.93,22.01,6.55,31.8,1.5c9.79-5.05,0.4-43.75-4.63-53.55
	c6.53,13.88,28.3,53.52,34.83,67.4c1.54-17.53,3.09-35.05,4.63-52.58c2.99,12.69,9.08,28.13,22.1,28.78
	c14.64,0.74,21.74-18.06,21.06-32.7c-0.67-14.64-3.86-31.46,6.11-42.2c-3.2,21.46,18.7,42.66,40.04,38.76
	c10.94,18.77,21.88,37.54,32.83,56.31c3.12-42.1,6.24-84.2,9.36-126.3c9.4,33.93,18.79,67.87,28.19,101.8"/>
<line fill="none" stroke="#000000" stroke-width="7" stroke-linecap="round" stroke-linejoin="round" stroke-miterlimit="10" x1="37.37" y1="323.36" x2="434.47" y2="323.36"/>
<polyline fill="none" stroke="#000000" stroke-width="7" stroke-linecap="round" stroke-linejoin="round" stroke-miterlimit="10" points="
	412.47,300.86 434.47,323.36 412.47,345.86 "/>
<text transform="matrix(1 0 0 1 295.6733 375.8706)" font-family="'PermanentMarker'" font-size="30.74px">normality</text>
<line fill="none" stroke="#000000" stroke-width="7" stroke-linecap="round" stroke-linejoin="round" stroke-miterlimit="10" x1="59.87" y1="345.86" x2="59.87" y2="42.03"/>
<polyline fill="none" stroke="#000000" stroke-width="7" stroke-linecap="round" stroke-linejoin="round" stroke-miterlimit="10" points="
	37.37,64.03 59.87,42.03 82.37,64.03 "/>
<text transform="matrix(1 0 0 1 30.1997 35.4574)" font-family="'PermanentMarker'" font-size="30.74px">risk</text>
<path fill="none" stroke="#C1172C" stroke-width="7" stroke-linecap="round" stroke-linejoin="round" stroke-miterlimit="10" d="
	M86.77,78.84c74.49,46.13,145.14,98.16,215.69,150.12c26.77,19.71,53.53,39.43,80.3,59.14"/>
<text transform="matrix(1 0 0 1 342.3625 239.8291)"><tspan x="0" y="0" fill="#C1172C" font-family="'PermanentMarker'" font-size="30.74px">b</tspan><tspan x="17.62" y="0" fill="#C1172C" font-family="'PermanentMarker'" font-size="30.74px">a</tspan><tspan x="34.88" y="0" fill="#C1172C" font-family="'PermanentMarker'" font-size="30.74px" letter-spacing="-1">b</tspan><tspan x="51.27" y="0" fill="#C1172C" font-family="'PermanentMarker'" font-size="30.74px">y boom</tspan><tspan x="156.28" y="0" fill="#C1172C" font-family="'PermanentMarker'" font-size="30.74px">e</tspan><tspan x="172.01" y="0" fill="#C1172C" font-family="'PermanentMarker'" font-size="30.74px">rs</tspan></text>
<path fill="none" stroke="#00A651" stroke-width="7" stroke-linecap="round" stroke-linejoin="round" stroke-miterlimit="10" d="
	M85.99,295.67c83.3-69.42,163.17-142.96,239.22-220.26"/>
<text transform="matrix(1 0 0 1 342.3623 65.8689)"><tspan x="0" y="0" fill="#00A651" font-family="'PermanentMarker'" font-size="30.74px">millennia</tspan><tspan x="146.1" y="0" fill="#00A651" font-family="'PermanentMarker'" font-size="30.74px">l</tspan><tspan x="161.56" y="0" fill="#00A651" font-family="'PermanentMarker'" font-size="30.74px">s</tspan></text>
</svg>
