<?xml version="1.0" encoding="utf-8"?>
<!-- Generator: Adobe Illustrator 19.2.0, SVG Export Plug-In . SVG Version: 6.00 Build 0)  -->
<svg version="1.1" id="Layer_1" xmlns="http://www.w3.org/2000/svg" xmlns:xlink="http://www.w3.org/1999/xlink" x="0px" y="0px"
	 width="820.85px" height="767.94px" viewBox="0 0 820.85 767.94" enable-background="new 0 0 820.85 767.94" xml:space="preserve">
<path fill="none" stroke="#FFFFFF" stroke-width="120" stroke-linejoin="bevel" stroke-miterlimit="10" d="M30.09,4.19
	C18.46,31.35,6.83,58.5-4.8,85.66C42.1,51.92,88.99,18.19,135.89-15.55C100.11,43.85,64.33,103.24,28.55,162.63
	c62.8-62.82,125.6-125.64,188.4-188.46C168.54,43.08,120.12,112,71.7,180.92c-5.92,8.43-12.01,17.25-13.61,27.43
	c-1.6,10.18,2.75,22.09,12.4,25.7C111.6,152.04,165.08,76.24,228.55,10c-33.52,80.65-67.05,161.29-100.57,241.94
	C187.54,170.11,247.11,88.29,306.67,6.47c-12.49,92.55-45.25,182.31-95.29,261.16c53.4-72.36,106.8-144.72,160.2-217.09
	c-24.15,66.44-44.11,134.41-59.74,203.35c47.89-103.53,118.63-196.42,205.7-270.11c-28.59,70.53-57.19,141.06-85.78,211.58
	c49.89-58.87,99.78-117.73,149.67-176.6c-40.99,75.79-81.99,151.59-122.98,227.38c80.17-44.17,122.81-133.21,160.44-216.65
	c-20.79,69.56-41.57,139.13-62.36,208.69c32.51-81.27,76.23-158.04,129.53-227.47C654.05,89.39,622.02,168.07,590,246.75
	c52.54-89.98,105.07-179.96,157.61-269.95c-34.97,94.87-69.94,189.74-104.91,284.61c47.22-83.26,97.21-164.95,149.85-244.88
	c-17.96,83.41-47.72,164.28-88.12,239.43c28.49-23.01,56.98-46.02,85.46-69.03c8.95,11.33,2.93,29.24-8.69,37.81
	c-11.62,8.57-26.77,10.27-41.16,11.57c-183.35,16.6-368.36,14.96-551.39-4.91c-43.73-4.75-89.08-10.37-130.82,3.53
	c-41.73,13.9-78.48,53.98-72.59,97.57c49.41-14.36,93.62-46.02,123.11-88.18c-33.7,74.83-67.4,149.66-101.1,224.48
	c57.48-83.23,114.97-166.45,172.45-249.68C116.18,310.75,70.03,414.4,44.45,522.94c46.1-87.94,92.2-175.87,138.3-263.81
	c-3.22,85.69-27.99,170.49-71.41,244.44c45.95-89.22,91.89-178.44,137.84-267.66c-29.27,97.56-58.53,195.12-87.8,292.68
	c33.19-109.51,66.38-219.03,99.58-328.54c-15.39,107.13-30.78,214.26-46.16,321.38c31.15-96.4,62.3-192.81,93.45-289.21
	c-9.76,85.05-19.53,170.09-29.29,255.14c-1.2,10.43,0.16,24.56,10.48,26.42c11.69,2.1,17.04-13.97,17.55-25.83
	c3.17-72.78,6.34-145.56,9.51-218.34c0.65-14.91,6.56-34.82,21.43-33.54c13.92,1.2,17.41,19.77,17.07,33.74
	c-2.29,93.31-4.57,186.63-6.86,279.94c24.19-73.2,31-152.09,19.71-228.36c-2.25-15.18-6.29-31.96-19.22-40.24
	c-17.13-10.98-39.6-1.23-57.04,9.25C148.96,376.14,36.6,511.17-21.77,667.01c51.97-50.57,103.95-101.14,155.92-151.7
	C93.28,584.23,52.4,653.16,11.53,722.09c55.75-68.28,111.49-136.56,167.24-204.83c-59.4,70.61-109.4,149.12-148.28,232.8
	c62.97-71.88,121.59-147.56,175.46-226.49c-52.06,83.76-104.11,167.52-156.17,251.28c71.05-77.05,133.05-162.43,184.33-253.84
	c-42.63,83.61-85.26,167.21-127.9,250.82c50.67-23.15,77.02-78.86,95.66-131.35c18.65-52.5,35.76-109.32,78.44-145.12
	c-43.85,88.05-79.78,180.04-107.23,274.51c46.03-85.7,92.07-171.4,138.1-257.09c-19.98,87.8-39.95,175.6-59.93,263.39
	c41.47-68.54,75.9-141.34,102.56-216.88c-16.89,50.46-33.77,100.93-50.66,151.39c-4.2,12.55-8.28,26.84-2,38.48
	c8.5,15.75,30.11,17.24,48,16.71c69.29-2.05,138.59-4.11,207.88-6.16c85-2.52,175.68-6.87,244.69-56.57
	c-118.51-14.76-239.75-7.25-355.53,22.02c-29.65,7.5-67.67,13.56-85.02-11.64c-11.29-16.4-7.39-38.59-1.65-57.66
	c11.98-39.85,30.06-77.85,53.4-112.3c8.34-12.3,23.65-25.51,36.04-17.3c11.61,7.7,7.12,25.5,1.36,38.18
	c-21.28,46.8-42.57,93.6-63.85,140.4c39.67-65.4,79.33-130.8,119-196.2c-22.83,64.84-45.66,129.68-68.49,194.52
	c21.94,7.34,41-16.15,52.3-36.33c29.39-52.49,58.77-104.98,88.16-157.47c-27.12,80.72-54.24,161.43-81.35,242.15
	c53.99-18.07,81.23-76.73,102.51-129.54c17.82-44.22,35.64-88.44,53.45-132.66c-20.05,74.13-40.1,148.27-60.15,222.4
	c-3.06,11.31-6.11,23.38-2.56,34.54c3.55,11.16,16.57,20.11,27.1,14.98c10.87-37.81,21.73-75.61,32.6-113.42
	c15.72-54.69,37.56-116.42,90.51-137.27c-22.04,67.86-44.08,135.73-66.11,203.59c33.37-7.76,47.42-46.61,55.96-79.79
	c14.54-56.46,29.08-112.91,43.62-169.37c-7.11,81.24-14.22,162.48-21.33,243.72c-0.67,7.65-1.29,15.66,1.73,22.73
	s10.92,12.68,18.25,10.39c16.82-42.14,15.9-91.04-2.48-132.52c-18.38-41.48-53.99-75-96.5-90.85c-43.01-16.03-90.25-14.12-136-17.88
	c-45.75-3.76-94.58-15.46-124.18-50.55c-14.2-16.84-22.81-38.01-26.26-59.77c-10.06-63.31,27.11-131.12,85.9-156.7
	c-22.47,46.96-44.94,93.92-67.41,140.89c-3.16,6.6-6.29,14.56-2.57,20.86c3.9,6.61,13.74,7.38,20.46,3.69s11.05-10.5,15.09-17.02
	c35.29-56.96,70.57-113.92,105.86-170.88c-48.67,93.79-97.33,187.57-146,281.36c55.58-83.8,111.15-167.6,166.73-251.4
	c-38.4,82.5-76.8,165.01-115.19,247.51c58.03-85.45,116.06-170.9,174.1-256.35c-42.3,87.29-84.61,174.57-126.91,261.86
	c62.9-100.59,125.79-201.19,188.69-301.78c-48.62,99.64-97.24,199.28-145.85,298.93c55.72-84.45,111.44-168.89,167.17-253.34
	c-38.46,91.32-76.93,182.64-115.39,273.96c45.09-30.85,78.11-76.86,101.52-126.22c23.41-49.36,37.94-102.37,52.35-155.07
	c-15.54,87.65-31.07,175.31-46.61,262.96c27.69-86.15,55.39-172.31,83.08-258.46c6.47,92.54-12.17,186.73-53.43,269.82
	c21.9-80.61,43.81-161.22,65.71-241.83c-4.74,59.05-9.48,118.1-14.22,177.16c-0.7,8.76-1.32,18.01,2.58,25.88
	s14.04,13.36,21.72,9.11c-4.82-93.46-9.65-186.91-14.47-280.37"/>
<g>
	<g>
		<path fill="none" stroke="#000000" stroke-width="7" stroke-linecap="round" stroke-linejoin="round" stroke-miterlimit="10" d="
			M278.47,17.26c-54.2,2.75-87.81,41.51-91.63,87.78c-2.95,35.69,18.78,72.38,53.59,87.1s79.19,6.3,105.13-19.96
			c16.39-16.58,25.26-38.84,28.06-61.29c3.22-25.8-1.77-53.52-19.23-73.69s-52.91-30.15-76.92-16.62"/>
		<path fill="none" stroke="#000000" stroke-width="7" stroke-linecap="round" stroke-linejoin="round" stroke-miterlimit="10" d="
			M132.31,8.97C90.96,7.48,51.4,34.46,36.9,70.28c-11.86,29.31-7.87,63.87,11.11,89.79s52.66,42.26,86.5,41.23
			c30.51-0.93,60.15-15.89,77.47-39.12c19.09-25.6,22.51-60.33,9.51-89s-48.13-56.96-80.96-63.19"/>
		<text transform="matrix(1 0 0 1 42.5432 114.1535)" font-family="'PermanentMarker'" font-size="30.74px">offensive</text>
		<text transform="matrix(1 0 0 1 259.1868 114.1536)"><tspan x="0" y="0" font-family="'PermanentMarker'" font-size="30.74px">t</tspan><tspan x="14.74" y="0" font-family="'PermanentMarker'" font-size="30.74px">r</tspan><tspan x="30.77" y="0" font-family="'PermanentMarker'" font-size="30.74px">ue</tspan></text>
		<g>
			<path fill="none" stroke="#602D91" stroke-width="7" stroke-linecap="round" stroke-linejoin="round" stroke-miterlimit="10" d="
				M228.16,41.26c-2.95,4.89-5.76,9.52-8.88,14.69"/>
			<path fill="none" stroke="#602D91" stroke-width="7" stroke-linecap="round" stroke-linejoin="round" stroke-miterlimit="10" d="
				M247.32,33.91c-4.06,10.78-12.73,24.33-19.18,33.88"/>
			<path fill="none" stroke="#602D91" stroke-width="7" stroke-linecap="round" stroke-linejoin="round" stroke-miterlimit="10" d="
				M272.73,28.77c-10.28,16.84-24.01,39.34-34.28,56.18"/>
			<path fill="none" stroke="#602D91" stroke-width="7" stroke-linecap="round" stroke-linejoin="round" stroke-miterlimit="10" d="
				M301.08,21.58c-12.9,22.43-25.79,44.86-38.69,67.29"/>
			<path fill="none" stroke="#602D91" stroke-width="7" stroke-linecap="round" stroke-linejoin="round" stroke-miterlimit="10" d="
				M249.75,109.92c-6.16,10.35-8.75,14.72-14.91,25.06"/>
			<path fill="none" stroke="#602D91" stroke-width="7" stroke-linecap="round" stroke-linejoin="round" stroke-miterlimit="10" d="
				M321.74,25.18c-11.93,20.58-23.85,41.16-35.78,61.74"/>
			<path fill="none" stroke="#602D91" stroke-width="7" stroke-linecap="round" stroke-linejoin="round" stroke-miterlimit="10" d="
				M267.19,121.76c-13.29,17.69-25.23,36.38-35.68,55.88"/>
			<path fill="none" stroke="#602D91" stroke-width="7" stroke-linecap="round" stroke-linejoin="round" stroke-miterlimit="10" d="
				M341.23,35.64c-10.03,17.31-20.05,34.62-30.08,51.93"/>
			<path fill="none" stroke="#602D91" stroke-width="7" stroke-linecap="round" stroke-linejoin="round" stroke-miterlimit="10" d="
				M296.56,120.21c-14.81,21.84-29.62,43.69-44.44,65.53"/>
			<path fill="none" stroke="#602D91" stroke-width="7" stroke-linecap="round" stroke-linejoin="round" stroke-miterlimit="10" d="
				M356.88,52.51c-9.44,13.63-18.87,27.26-28.31,40.89"/>
			<path fill="none" stroke="#602D91" stroke-width="7" stroke-linecap="round" stroke-linejoin="round" stroke-miterlimit="10" d="
				M315.64,121.24c-13.68,23.7-27.37,47.4-41.05,71.1"/>
			<path fill="none" stroke="#602D91" stroke-width="7" stroke-linecap="round" stroke-linejoin="round" stroke-miterlimit="10" d="
				M366.14,75.91c-21.46,37.63-42.92,75.27-64.38,112.9"/>
			<path fill="none" stroke="#602D91" stroke-width="7" stroke-linecap="round" stroke-linejoin="round" stroke-miterlimit="10" d="
				M367.04,111.85c-12.41,20.93-24.81,41.86-37.22,62.78"/>
		</g>
		<text transform="matrix(1 0 0 1 64.1135 234.0269)"><tspan x="0" y="0" fill="#602D91" font-family="'PermanentMarker'" font-size="30.74px">comfo</tspan><tspan x="93.48" y="0" fill="#602D91" font-family="'PermanentMarker'" font-size="30.74px">r</tspan><tspan x="109.18" y="0" fill="#602D91" font-family="'PermanentMarker'" font-size="30.74px" letter-spacing="-1">t</tspan><tspan x="122.39" y="0" fill="#602D91" font-family="'PermanentMarker'" font-size="30.74px">a</tspan><tspan x="139.65" y="0" fill="#602D91" font-family="'PermanentMarker'" font-size="30.74px">ble t</tspan><tspan x="215.81" y="0" fill="#602D91" font-family="'PermanentMarker'" font-size="30.74px">r</tspan><tspan x="231.84" y="0" fill="#602D91" font-family="'PermanentMarker'" font-size="30.74px">uth</tspan></text>
	</g>
	<g>
		<text transform="matrix(1 0 0 1 451.8665 119.4528)" font-family="'PermanentMarker'" font-size="30.74px">offensive</text>
		<text transform="matrix(1 0 0 1 667.51 119.4529)"><tspan x="0" y="0" font-family="'PermanentMarker'" font-size="30.74px">t</tspan><tspan x="14.74" y="0" font-family="'PermanentMarker'" font-size="30.74px">r</tspan><tspan x="30.77" y="0" font-family="'PermanentMarker'" font-size="30.74px">ue</tspan></text>
		<path fill="none" stroke="#000000" stroke-width="7" stroke-linecap="round" stroke-linejoin="round" stroke-miterlimit="10" d="
			M518.14,19.6c-38.79,5.3-71.88,38.99-76.48,77.87s19.7,79.36,56.19,93.57c18.48,7.2,39,8.03,58.61,5.03
			c19.12-2.93,38.13-9.69,52.63-22.49c29.13-25.74,33.3-73.42,13.03-106.59s-60.84-51.11-99.67-49.05"/>
		<path fill="none" stroke="#000000" stroke-width="7" stroke-linecap="round" stroke-linejoin="round" stroke-miterlimit="10" d="
			M698.37,15.91c-34,1.19-67.1,18.53-85,45.43s-19.7,62.67-3.71,90.6c15.99,27.93,49.47,46.64,83.48,45.79
			c29.12-0.73,57.23-15.46,73.77-37.75c16.54-22.3,21.42-51.53,13.85-77.68c-9.5-32.82-40.23-60.68-76.57-64.27"/>
		<g>
			<text transform="matrix(1 0 0 1 458.8577 233.4503)"><tspan x="0" y="0" fill="#602D91" font-family="'PermanentMarker'" font-size="30.74px">uncomfo</tspan><tspan x="128.81" y="0" fill="#602D91" font-family="'PermanentMarker'" font-size="30.74px">r</tspan><tspan x="144.51" y="0" fill="#602D91" font-family="'PermanentMarker'" font-size="30.74px" letter-spacing="-1">t</tspan><tspan x="157.72" y="0" fill="#602D91" font-family="'PermanentMarker'" font-size="30.74px">a</tspan><tspan x="174.98" y="0" fill="#602D91" font-family="'PermanentMarker'" font-size="30.74px">ble t</tspan><tspan x="251.14" y="0" fill="#602D91" font-family="'PermanentMarker'" font-size="30.74px">r</tspan><tspan x="267.17" y="0" fill="#602D91" font-family="'PermanentMarker'" font-size="30.74px">uth</tspan></text>
		</g>
		<path fill="none" stroke="#602D91" stroke-width="7" stroke-linecap="round" stroke-linejoin="round" stroke-miterlimit="10" d="
			M617.71,67.71c-2.46,2.9-4.91,5.79-7.37,8.69"/>
		<path fill="none" stroke="#602D91" stroke-width="7" stroke-linecap="round" stroke-linejoin="round" stroke-miterlimit="10" d="
			M621.16,78.01c-5.5,6.4-10.99,12.79-16.49,19.19"/>
		<path fill="none" stroke="#602D91" stroke-width="7" stroke-linecap="round" stroke-linejoin="round" stroke-miterlimit="10" d="
			M624.92,90.6c-5.97,8.2-12.77,15.8-20.27,22.63"/>
		<path fill="none" stroke="#602D91" stroke-width="7" stroke-linecap="round" stroke-linejoin="round" stroke-miterlimit="10" d="
			M629.8,106.67c-7.73,7.53-15.47,15.06-23.2,22.59"/>
		<path fill="none" stroke="#602D91" stroke-width="7" stroke-linecap="round" stroke-linejoin="round" stroke-miterlimit="10" d="
			M628.11,125.91c-5.36,5.32-10.73,10.65-16.09,15.97"/>
		<path fill="none" stroke="#602D91" stroke-width="7" stroke-linecap="round" stroke-linejoin="round" stroke-miterlimit="10" d="
			M622.81,146.77c-2.53,2.7-5.07,5.4-7.6,8.11"/>
	</g>
</g>
<g>
	<g>
		<text transform="matrix(1 0 0 1 35.3948 376.3492)" font-family="'PermanentMarker'" font-size="30.74px">offensive</text>
		<text transform="matrix(1 0 0 1 251.0383 376.3494)"><tspan x="0" y="0" font-family="'PermanentMarker'" font-size="30.74px">t</tspan><tspan x="14.74" y="0" font-family="'PermanentMarker'" font-size="30.74px">r</tspan><tspan x="30.77" y="0" font-family="'PermanentMarker'" font-size="30.74px">ue</tspan></text>
		<path fill="none" stroke="#000000" stroke-width="7" stroke-linecap="round" stroke-linejoin="round" stroke-miterlimit="10" d="
			M106.95,277.79c-28.18,5.71-55.81,31.91-69.24,57.69c-15.35,29.47-15.05,69.74,5.59,95.06c15.46,18.97,39.51,27.14,62.73,28.44
			c28.38,1.58,57.88-6.45,79.77-26.25s34.93-52.22,29.51-82.71c-2.91-16.38-10.84-31.44-21.47-43.42
			c-20.25-22.82-50.7-34.29-79.52-29.95"/>
		<path fill="none" stroke="#000000" stroke-width="7" stroke-linecap="round" stroke-linejoin="round" stroke-miterlimit="10" d="
			M249.97,283.19c-17.89,7.49-34.59,17.79-47.95,32.61c-21.12,23.42-31.91,60.23-19.64,90.23c5.55,13.56,15.26,24.74,26.35,33.37
			c24.24,18.88,56.15,26.09,84.98,17.92c28.84-8.17,53.84-31.99,63.95-62.55c10.11-30.55,4.51-66.99-15.14-91.42
			s-57.55-35.16-85.59-22.88"/>
		<g>
			<path fill="none" stroke="#00A9A3" stroke-width="7" stroke-linecap="round" stroke-linejoin="round" stroke-miterlimit="10" d="
				M30.64,253.88c-8.48,10.21-16.97,20.43-25.45,30.64"/>
			<path fill="none" stroke="#00A9A3" stroke-width="7" stroke-linecap="round" stroke-linejoin="round" stroke-miterlimit="10" d="
				M53.68,253.73c-15.57,19.5-31.13,39-46.7,58.5"/>
			<path fill="none" stroke="#00A9A3" stroke-width="7" stroke-linecap="round" stroke-linejoin="round" stroke-miterlimit="10" d="
				M78.66,254.01c-22.51,27.35-45.03,54.7-67.54,82.05"/>
			<path fill="none" stroke="#00A9A3" stroke-width="7" stroke-linecap="round" stroke-linejoin="round" stroke-miterlimit="10" d="
				M108.1,254.63c-5.47,6.18-10.93,12.37-16.4,18.55"/>
			<path fill="none" stroke="#00A9A3" stroke-width="7" stroke-linecap="round" stroke-linejoin="round" stroke-miterlimit="10" d="
				M20.4,366.71c-4.05,4.83-8.09,9.67-12.14,14.5"/>
			<path fill="none" stroke="#00A9A3" stroke-width="7" stroke-linecap="round" stroke-linejoin="round" stroke-miterlimit="10" d="
				M133.77,257.09c-3.19,3.65-6.37,7.3-9.56,10.96"/>
			<path fill="none" stroke="#00A9A3" stroke-width="7" stroke-linecap="round" stroke-linejoin="round" stroke-miterlimit="10" d="
				M22.29,402.7c-3.19,3.65-6.38,7.29-9.57,10.94"/>
			<path fill="none" stroke="#00A9A3" stroke-width="7" stroke-linecap="round" stroke-linejoin="round" stroke-miterlimit="10" d="
				M158.23,259.68c-3.27,3.34-6.54,6.68-9.81,10.02"/>
			<path fill="none" stroke="#00A9A3" stroke-width="7" stroke-linecap="round" stroke-linejoin="round" stroke-miterlimit="10" d="
				M31.85,425.26c-4.33,6.15-8.66,12.31-12.99,18.46"/>
			<path fill="none" stroke="#00A9A3" stroke-width="7" stroke-linecap="round" stroke-linejoin="round" stroke-miterlimit="10" d="
				M185.03,261.17c-4.36,5.21-8.73,10.43-13.09,15.64"/>
			<path fill="none" stroke="#00A9A3" stroke-width="7" stroke-linecap="round" stroke-linejoin="round" stroke-miterlimit="10" d="
				M42.85,443.09c-7.09,8.87-14.17,17.74-21.26,26.62"/>
			<path fill="none" stroke="#00A9A3" stroke-width="7" stroke-linecap="round" stroke-linejoin="round" stroke-miterlimit="10" d="
				M209.79,262.65c-6.66,8.63-13.31,17.25-19.97,25.88"/>
			<path fill="none" stroke="#00A9A3" stroke-width="7" stroke-linecap="round" stroke-linejoin="round" stroke-miterlimit="10" d="
				M60.49,454.74c-4.43,5.57-8.87,11.14-13.3,16.71"/>
			<path fill="none" stroke="#00A9A3" stroke-width="7" stroke-linecap="round" stroke-linejoin="round" stroke-miterlimit="10" d="
				M232.64,262.85c-10,13.76-19.99,27.52-29.99,41.28"/>
			<path fill="none" stroke="#00A9A3" stroke-width="7" stroke-linecap="round" stroke-linejoin="round" stroke-miterlimit="10" d="
				M84.93,461.78c-2.62,4.03-5.23,8.06-7.85,12.09"/>
			<path fill="none" stroke="#00A9A3" stroke-width="7" stroke-linecap="round" stroke-linejoin="round" stroke-miterlimit="10" d="
				M258.1,261.58c-25.39,36.7-50.78,73.41-76.16,110.11"/>
			<path fill="none" stroke="#00A9A3" stroke-width="7" stroke-linecap="round" stroke-linejoin="round" stroke-miterlimit="10" d="
				M112.54,464.92c-2.51,3.19-5.01,6.38-7.52,9.57"/>
			<path fill="none" stroke="#00A9A3" stroke-width="7" stroke-linecap="round" stroke-linejoin="round" stroke-miterlimit="10" d="
				M281.76,261.89c-30.86,45.45-61.72,90.9-92.58,136.35"/>
			<path fill="none" stroke="#00A9A3" stroke-width="7" stroke-linecap="round" stroke-linejoin="round" stroke-miterlimit="10" d="
				M141.85,461.44c-3.01,4.52-6.03,9.05-9.04,13.57"/>
			<path fill="none" stroke="#00A9A3" stroke-width="7" stroke-linecap="round" stroke-linejoin="round" stroke-miterlimit="10" d="
				M309.66,260.85c-19.86,30.9-39.71,61.8-59.57,92.69"/>
			<path fill="none" stroke="#00A9A3" stroke-width="7" stroke-linecap="round" stroke-linejoin="round" stroke-miterlimit="10" d="
				M233.7,371.34c-25.14,34.99-50.27,69.98-75.41,104.97"/>
			<path fill="none" stroke="#00A9A3" stroke-width="7" stroke-linecap="round" stroke-linejoin="round" stroke-miterlimit="10" d="
				M332.64,262.21c-17.87,29.8-35.74,59.61-53.6,89.41"/>
			<path fill="none" stroke="#00A9A3" stroke-width="7" stroke-linecap="round" stroke-linejoin="round" stroke-miterlimit="10" d="
				M261.37,384.08c-21.53,31.54-43.06,63.07-64.59,94.61"/>
			<path fill="none" stroke="#00A9A3" stroke-width="7" stroke-linecap="round" stroke-linejoin="round" stroke-miterlimit="10" d="
				M352.39,266.25c-15.11,26.4-30.22,52.8-45.33,79.2"/>
			<path fill="none" stroke="#00A9A3" stroke-width="7" stroke-linecap="round" stroke-linejoin="round" stroke-miterlimit="10" d="
				M292.31,386.35c-16.55,29.1-33.1,58.19-49.65,87.29"/>
			<path fill="none" stroke="#00A9A3" stroke-width="7" stroke-linecap="round" stroke-linejoin="round" stroke-miterlimit="10" d="
				M377.3,266.88C343,336,308.71,405.12,274.41,474.24"/>
			<path fill="none" stroke="#00A9A3" stroke-width="7" stroke-linecap="round" stroke-linejoin="round" stroke-miterlimit="10" d="
				M379.7,316.63c-27.99,48.14-54.6,104.27-74.14,156.42"/>
			<path fill="none" stroke="#00A9A3" stroke-width="7" stroke-linecap="round" stroke-linejoin="round" stroke-miterlimit="10" d="
				M376.22,377.49c-13.94,26.42-36.34,68.89-50.27,95.32"/>
			<path fill="none" stroke="#00A9A3" stroke-width="7" stroke-linecap="round" stroke-linejoin="round" stroke-miterlimit="10" d="
				M376.22,423.83c-6.82,14.57-16.33,31.59-23.83,44.42"/>
			<path fill="none" stroke="#00A9A3" stroke-width="7" stroke-linecap="round" stroke-linejoin="round" stroke-miterlimit="10" d="
				M376.22,455.19c-1.7,3.83-3.39,7.66-5.09,11.49"/>
		</g>
		<text transform="matrix(1 0 0 1 51.7215 507.6469)"><tspan x="0" y="0" fill="#00A9A3" font-family="'PermanentMarker'" font-size="30.74px">political</tspan><tspan x="136.32" y="0" fill="#00A9A3" font-family="'PermanentMarker'" font-size="30.74px">l</tspan><tspan x="151.78" y="0" fill="#00A9A3" font-family="'PermanentMarker'" font-size="30.74px">y corr</tspan><tspan x="243.85" y="0" fill="#00A9A3" font-family="'PermanentMarker'" font-size="30.74px">e</tspan><tspan x="259.58" y="0" fill="#00A9A3" font-family="'PermanentMarker'" font-size="30.74px">ct</tspan></text>
	</g>
	<g>
		<text transform="matrix(1 0 0 1 444.718 381.6486)" font-family="'PermanentMarker'" font-size="30.74px">offensive</text>
		<text transform="matrix(1 0 0 1 662.3621 379.6487)"><tspan x="0" y="0" font-family="'PermanentMarker'" font-size="30.74px">t</tspan><tspan x="14.74" y="0" font-family="'PermanentMarker'" font-size="30.74px">r</tspan><tspan x="30.77" y="0" font-family="'PermanentMarker'" font-size="30.74px">ue</tspan></text>
		<path fill="none" stroke="#000000" stroke-width="7" stroke-linecap="round" stroke-linejoin="round" stroke-miterlimit="10" d="
			M497.44,284.57c-10.98,6.03-21.71,12.57-31.5,20.66c-14.21,11.73-26.48,27.09-32.12,45.56c-8.22,26.91-0.85,58.05,16.37,79.26
			c17.23,21.21,43.22,32.72,69.13,33.69c25.91,0.97,51.64-8,73.93-22.5c11.55-7.52,22.62-16.93,28.95-29.9
			c7.16-14.66,7.45-32.38,4.13-48.6c-5.72-27.95-22-53.14-44.18-68.35s-49.99-20.28-75.48-13.73"/>
		<path fill="none" stroke="#000000" stroke-width="7" stroke-linecap="round" stroke-linejoin="round" stroke-miterlimit="10" d="
			M710.75,281.34c-28.77-2.9-53.59,4.32-75.53,20.42c-21.95,16.1-38.88,40.69-42.92,68.39c-4.04,27.7,6.22,58.06,28.15,74.19
			c14.64,10.77,32.89,14.63,50.69,16.64c21.59,2.44,44.29,2.35,63.91-7.36c30.61-15.16,47.91-53.18,43.59-88.29
			c-4.32-35.11-28.02-65.93-58.27-81.86"/>
		<g>
			<path fill="none" stroke="#00A9A3" stroke-width="7" stroke-linecap="round" stroke-linejoin="round" stroke-miterlimit="10" d="
				M430.3,262.83c-5.8,10.05-11.6,20.1-17.4,30.15"/>
			<path fill="none" stroke="#00A9A3" stroke-width="7" stroke-linecap="round" stroke-linejoin="round" stroke-miterlimit="10" d="
				M452.81,264.39c-12.93,21.27-25.87,42.55-38.8,63.82"/>
			<path fill="none" stroke="#00A9A3" stroke-width="7" stroke-linecap="round" stroke-linejoin="round" stroke-miterlimit="10" d="
				M480.27,264.03c-8.06,12.33-16.13,24.65-24.19,36.98"/>
			<path fill="none" stroke="#00A9A3" stroke-width="7" stroke-linecap="round" stroke-linejoin="round" stroke-miterlimit="10" d="
				M424.56,360.16c-3.33,6.79-6.67,13.58-10.01,20.37"/>
			<path fill="none" stroke="#00A9A3" stroke-width="7" stroke-linecap="round" stroke-linejoin="round" stroke-miterlimit="10" d="
				M506.96,264.89c-2.37,4.06-4.75,8.12-7.12,12.17"/>
			<path fill="none" stroke="#00A9A3" stroke-width="7" stroke-linecap="round" stroke-linejoin="round" stroke-miterlimit="10" d="
				M429.44,403.68c-3.27,7.68-6.54,15.37-9.81,23.05"/>
			<path fill="none" stroke="#00A9A3" stroke-width="7" stroke-linecap="round" stroke-linejoin="round" stroke-miterlimit="10" d="
				M536.22,263.43c-2,3.38-4,6.77-6,10.15"/>
			<path fill="none" stroke="#00A9A3" stroke-width="7" stroke-linecap="round" stroke-linejoin="round" stroke-miterlimit="10" d="
				M441.02,430.36c-7.07,12.2-14.14,24.4-21.21,36.61"/>
			<path fill="none" stroke="#00A9A3" stroke-width="7" stroke-linecap="round" stroke-linejoin="round" stroke-miterlimit="10" d="
				M564.04,262.28c-3.23,4.92-6.45,9.83-9.68,14.75"/>
			<path fill="none" stroke="#00A9A3" stroke-width="7" stroke-linecap="round" stroke-linejoin="round" stroke-miterlimit="10" d="
				M459.14,448.82c-4.53,7.26-9.06,14.51-13.6,21.77"/>
			<path fill="none" stroke="#00A9A3" stroke-width="7" stroke-linecap="round" stroke-linejoin="round" stroke-miterlimit="10" d="
				M590.7,262.45c-4.03,6.96-8.07,13.92-12.1,20.88"/>
			<path fill="none" stroke="#00A9A3" stroke-width="7" stroke-linecap="round" stroke-linejoin="round" stroke-miterlimit="10" d="
				M479.77,461.31c-1.71,3.21-3.42,6.43-5.13,9.64"/>
			<path fill="none" stroke="#00A9A3" stroke-width="7" stroke-linecap="round" stroke-linejoin="round" stroke-miterlimit="10" d="
				M620.77,260.71c-7.53,11.32-15.06,22.65-22.59,33.97"/>
			<path fill="none" stroke="#00A9A3" stroke-width="7" stroke-linecap="round" stroke-linejoin="round" stroke-miterlimit="10" d="
				M502.23,467.72c-0.64,1.93-1.28,3.85-1.93,5.78"/>
			<path fill="none" stroke="#00A9A3" stroke-width="7" stroke-linecap="round" stroke-linejoin="round" stroke-miterlimit="10" d="
				M646.5,260.18c-8.85,15.9-17.71,31.79-26.56,47.69"/>
			<path fill="none" stroke="#00A9A3" stroke-width="7" stroke-linecap="round" stroke-linejoin="round" stroke-miterlimit="10" d="
				M531.43,468.54c-1.34,2.32-2.68,4.64-4.02,6.97"/>
			<path fill="none" stroke="#00A9A3" stroke-width="7" stroke-linecap="round" stroke-linejoin="round" stroke-miterlimit="10" d="
				M675.04,261.56c-3.43,5.56-6.86,11.13-10.29,16.69"/>
			<path fill="none" stroke="#00A9A3" stroke-width="7" stroke-linecap="round" stroke-linejoin="round" stroke-miterlimit="10" d="
				M571.84,460.16c-2.59,4.27-5.19,8.53-7.78,12.8"/>
			<path fill="none" stroke="#00A9A3" stroke-width="7" stroke-linecap="round" stroke-linejoin="round" stroke-miterlimit="10" d="
				M697.84,261.07c-2.2,4.25-4.39,8.51-6.59,12.76"/>
			<path fill="none" stroke="#00A9A3" stroke-width="7" stroke-linecap="round" stroke-linejoin="round" stroke-miterlimit="10" d="
				M608.45,445.66c-5.11,9.22-10.23,18.44-15.34,27.66"/>
			<path fill="none" stroke="#00A9A3" stroke-width="7" stroke-linecap="round" stroke-linejoin="round" stroke-miterlimit="10" d="
				M720.24,261.66c-2.41,5.11-4.82,10.22-7.23,15.34"/>
			<path fill="none" stroke="#00A9A3" stroke-width="7" stroke-linecap="round" stroke-linejoin="round" stroke-miterlimit="10" d="
				M626.43,456.25c-2.04,5.09-4.09,10.18-6.13,15.27"/>
			<path fill="none" stroke="#00A9A3" stroke-width="7" stroke-linecap="round" stroke-linejoin="round" stroke-miterlimit="10" d="
				M747.99,261.09c-3.83,7.83-7.66,15.66-11.49,23.49"/>
			<path fill="none" stroke="#00A9A3" stroke-width="7" stroke-linecap="round" stroke-linejoin="round" stroke-miterlimit="10" d="
				M646.95,464.61c-1.55,3.19-3.1,6.37-4.65,9.56"/>
			<path fill="none" stroke="#00A9A3" stroke-width="7" stroke-linecap="round" stroke-linejoin="round" stroke-miterlimit="10" d="
				M776.92,262.68c-7.42,11.69-14.84,23.37-22.27,35.06"/>
			<path fill="none" stroke="#00A9A3" stroke-width="7" stroke-linecap="round" stroke-linejoin="round" stroke-miterlimit="10" d="
				M668.59,468.37c-1.5,2.14-3,4.28-4.5,6.42"/>
			<path fill="none" stroke="#00A9A3" stroke-width="7" stroke-linecap="round" stroke-linejoin="round" stroke-miterlimit="10" d="
				M802.33,262.64c-10.99,18.59-21.98,37.17-32.97,55.76"/>
			<path fill="none" stroke="#00A9A3" stroke-width="7" stroke-linecap="round" stroke-linejoin="round" stroke-miterlimit="10" d="
				M694.93,467.72c-1.71,2.57-3.43,5.14-5.14,7.71"/>
			<path fill="none" stroke="#00A9A3" stroke-width="7" stroke-linecap="round" stroke-linejoin="round" stroke-miterlimit="10" d="
				M802.76,308.83c-7.94,11.4-15.89,22.8-23.83,34.19"/>
			<path fill="none" stroke="#00A9A3" stroke-width="7" stroke-linecap="round" stroke-linejoin="round" stroke-miterlimit="10" d="
				M718.58,466.05c-1.58,3.39-3.17,6.77-4.75,10.16"/>
			<path fill="none" stroke="#00A9A3" stroke-width="7" stroke-linecap="round" stroke-linejoin="round" stroke-miterlimit="10" d="
				M800.67,348.5c-5.27,8.49-10.53,16.97-15.8,25.46"/>
			<path fill="none" stroke="#00A9A3" stroke-width="7" stroke-linecap="round" stroke-linejoin="round" stroke-miterlimit="10" d="
				M746.31,454.88c-3.43,6.85-6.85,13.7-10.28,20.55"/>
			<path fill="none" stroke="#00A9A3" stroke-width="7" stroke-linecap="round" stroke-linejoin="round" stroke-miterlimit="10" d="
				M804.11,383.93c-14.6,29.74-29.2,59.49-43.81,89.23"/>
			<path fill="none" stroke="#00A9A3" stroke-width="7" stroke-linecap="round" stroke-linejoin="round" stroke-miterlimit="10" d="
				M806.46,427.5c-8.96,15.01-17.92,30.02-26.87,45.02"/>
			<path fill="none" stroke="#00A9A3" stroke-width="7" stroke-linecap="round" stroke-linejoin="round" stroke-miterlimit="10" d="
				M809.24,454.87c-4.24,6.45-8.48,12.9-12.72,19.36"/>
		</g>
		<text transform="matrix(1 0 0 1 551.4646 507.6468)"><tspan x="0" y="0" fill="#00A9A3" font-family="'PermanentMarker'" font-size="30.74px">politi</tspan><tspan x="86.28" y="0" fill="#00A9A3" font-family="'PermanentMarker'" font-size="30.74px">c</tspan><tspan x="101.77" y="0" fill="#00A9A3" font-family="'PermanentMarker'" font-size="30.74px">s</tspan></text>
	</g>
</g>
<g>
	<g>
		<text transform="matrix(1 0 0 1 23.3884 626.2164)" font-family="'PermanentMarker'" font-size="30.74px">offensive</text>
		<text transform="matrix(1 0 0 1 239.032 626.2166)"><tspan x="0" y="0" font-family="'PermanentMarker'" font-size="30.74px">t</tspan><tspan x="14.74" y="0" font-family="'PermanentMarker'" font-size="30.74px">r</tspan><tspan x="30.77" y="0" font-family="'PermanentMarker'" font-size="30.74px">ue</tspan></text>
		<path fill="none" stroke="#000000" stroke-width="7" stroke-linecap="round" stroke-linejoin="round" stroke-miterlimit="10" d="
			M106.6,528.45c-27.71,4.65-55.11,18.1-72.56,42.02s-22.91,59.26-8.96,85.76c7.69,14.6,20.32,25.4,33.79,33.65
			c26.93,16.49,59.64,23.95,89.22,14.26s54.51-38.77,56.09-72.38c0.88-18.58-5.12-36.95-14.11-52.76
			c-8.72-15.32-20.45-28.8-34.76-37.84s-31.29-13.44-47.68-10.96"/>
		<path fill="none" stroke="#000000" stroke-width="7" stroke-linecap="round" stroke-linejoin="round" stroke-miterlimit="10" d="
			M248.32,528.66c-38.44,6.65-71.27,36.62-79.22,72.74c-7.96,36.12,9.68,76.14,42.63,95.98c32.95,19.84,79.08,17.96,109.87-4.78
			s43.81-64.8,30.48-99.48s-52.18-59.14-91.2-57.08"/>
		<g>
			<path fill="none" stroke="#F4783B" stroke-width="7" stroke-linecap="round" stroke-linejoin="round" stroke-miterlimit="10" d="
				M56.16,558.32C48.58,571.81,41,585.3,33.42,598.79"/>
			<path fill="none" stroke="#F4783B" stroke-width="7" stroke-linecap="round" stroke-linejoin="round" stroke-miterlimit="10" d="
				M80.89,544.62c-9.15,18.12-18.3,36.25-27.45,54.37"/>
			<path fill="none" stroke="#F4783B" stroke-width="7" stroke-linecap="round" stroke-linejoin="round" stroke-miterlimit="10" d="
				M40.2,630.42c-2.98,5.66-5.96,11.33-8.94,16.99"/>
			<path fill="none" stroke="#F4783B" stroke-width="7" stroke-linecap="round" stroke-linejoin="round" stroke-miterlimit="10" d="
				M106.14,542.16c-9.15,20.48-19.58,40.39-31.21,59.56"/>
			<path fill="none" stroke="#F4783B" stroke-width="7" stroke-linecap="round" stroke-linejoin="round" stroke-miterlimit="10" d="
				M63.59,632.41c-6.02,11.81-12.04,23.63-18.06,35.44"/>
			<path fill="none" stroke="#F4783B" stroke-width="7" stroke-linecap="round" stroke-linejoin="round" stroke-miterlimit="10" d="
				M131.52,540.15c-10.42,19.54-20.85,39.08-31.27,58.62"/>
			<path fill="none" stroke="#F4783B" stroke-width="7" stroke-linecap="round" stroke-linejoin="round" stroke-miterlimit="10" d="
				M87.9,632.48c-7.19,15.12-14.38,30.23-21.57,45.35"/>
			<path fill="none" stroke="#F4783B" stroke-width="7" stroke-linecap="round" stroke-linejoin="round" stroke-miterlimit="10" d="
				M151.1,548.14c-9.32,17.93-18.64,35.87-27.97,53.8"/>
			<path fill="none" stroke="#F4783B" stroke-width="7" stroke-linecap="round" stroke-linejoin="round" stroke-miterlimit="10" d="
				M112.37,634.58c-8.5,18.46-17.01,36.92-25.51,55.38"/>
			<path fill="none" stroke="#F4783B" stroke-width="7" stroke-linecap="round" stroke-linejoin="round" stroke-miterlimit="10" d="
				M164.9,559.01c-6.14,13.08-12.29,26.17-18.43,39.25"/>
			<path fill="none" stroke="#F4783B" stroke-width="7" stroke-linecap="round" stroke-linejoin="round" stroke-miterlimit="10" d="
				M137.15,634.05c-8.77,20.99-17.55,41.97-26.32,62.96"/>
			<path fill="none" stroke="#F4783B" stroke-width="7" stroke-linecap="round" stroke-linejoin="round" stroke-miterlimit="10" d="
				M157.65,636.96c-7.67,20-15.35,40-23.02,60"/>
			<path fill="none" stroke="#F4783B" stroke-width="7" stroke-linecap="round" stroke-linejoin="round" stroke-miterlimit="10" d="
				M167.2,660.5c-3.5,10.01-7.01,20.02-10.51,30.03"/>
			<path fill="none" stroke="#F4783B" stroke-width="7" stroke-linecap="round" stroke-linejoin="round" stroke-miterlimit="10" d="
				M177.82,672.06c-1.02,3.07-2.04,6.13-3.07,9.2"/>
		</g>
		<text transform="matrix(1 0 0 1 68.8548 759.0715)"><tspan x="0" y="0" fill="#F4783B" font-family="'PermanentMarker'" font-size="30.74px">regular d</tspan><tspan x="148.24" y="0" fill="#F4783B" font-family="'PermanentMarker'" font-size="30.74px">o</tspan><tspan x="166.97" y="0" fill="#F4783B" font-family="'PermanentMarker'" font-size="30.74px">uche</tspan></text>
	</g>
	<g>
		<text transform="matrix(1 0 0 1 434.7112 631.5157)" font-family="'PermanentMarker'" font-size="30.74px">offensive</text>
		<text transform="matrix(1 0 0 1 650.3552 631.5159)"><tspan x="0" y="0" font-family="'PermanentMarker'" font-size="30.74px">t</tspan><tspan x="14.74" y="0" font-family="'PermanentMarker'" font-size="30.74px">r</tspan><tspan x="30.77" y="0" font-family="'PermanentMarker'" font-size="30.74px">ue</tspan></text>
		<path fill="none" stroke="#000000" stroke-width="7" stroke-linecap="round" stroke-linejoin="round" stroke-miterlimit="10" d="
			M504.07,532.84c-28.65,10.39-53.86,30.26-67.13,56.31c-13.27,26.06-13.6,58.26,1.68,83.33c11.31,18.57,30.63,32.51,52.39,38.75
			c37.4,10.72,81.23-2.83,104.57-32.35c23.34-29.52,24.56-72.92,2.91-103.55c-21.65-30.64-64.66-46.35-102.61-37.5"/>
		<path fill="none" stroke="#000000" stroke-width="7" stroke-linecap="round" stroke-linejoin="round" stroke-miterlimit="10" d="
			M632.83,551.56c-33.17,18.75-54.76,54.33-55.03,90.68c-0.14,19.55,6,39.81,20.47,53.88c15.29,14.86,38.16,21.17,60.16,21.09
			c42.43-0.14,84.52-24.22,101.34-60.78c16.82-36.56,5.4-83.58-28.48-107.56c-33.88-23.98-87.41-20.23-115.1,9.95"/>
		<g>
			<path fill="none" stroke="#F4783B" stroke-width="7" stroke-linecap="round" stroke-linejoin="round" stroke-miterlimit="10" d="
				M425.26,520.83c-7.84,10.81-15.68,21.61-23.52,32.42"/>
			<path fill="none" stroke="#F4783B" stroke-width="7" stroke-linecap="round" stroke-linejoin="round" stroke-miterlimit="10" d="
				M453.1,521.57c-15.8,20.82-35.56,46.87-51.36,67.7"/>
			<path fill="none" stroke="#F4783B" stroke-width="7" stroke-linecap="round" stroke-linejoin="round" stroke-miterlimit="10" d="
				M483,521.16c-24.92,32.85-56.34,74.29-81.26,107.14"/>
			<path fill="none" stroke="#F4783B" stroke-width="7" stroke-linecap="round" stroke-linejoin="round" stroke-miterlimit="10" d="
				M515.69,520.74c-20.92,27.86-41.83,55.71-62.75,83.57"/>
			<path fill="none" stroke="#F4783B" stroke-width="7" stroke-linecap="round" stroke-linejoin="round" stroke-miterlimit="10" d="
				M431.65,638.43c-7.95,9.95-21.96,27.48-29.91,37.43"/>
			<path fill="none" stroke="#F4783B" stroke-width="7" stroke-linecap="round" stroke-linejoin="round" stroke-miterlimit="10" d="
				M545.84,520.91c-19.83,27.71-39.65,55.43-59.48,83.14"/>
			<path fill="none" stroke="#F4783B" stroke-width="7" stroke-linecap="round" stroke-linejoin="round" stroke-miterlimit="10" d="
				M469.31,639.82c-18.03,23.73-46.4,60.74-67.57,81.72"/>
			<path fill="none" stroke="#F4783B" stroke-width="7" stroke-linecap="round" stroke-linejoin="round" stroke-miterlimit="10" d="
				M570.5,522.78c-17.87,27.39-35.74,54.78-53.61,82.17"/>
			<path fill="none" stroke="#F4783B" stroke-width="7" stroke-linecap="round" stroke-linejoin="round" stroke-miterlimit="10" d="
				M500.82,642.09c-20.29,28.92-45.76,57.8-66.05,86.72"/>
			<path fill="none" stroke="#F4783B" stroke-width="7" stroke-linecap="round" stroke-linejoin="round" stroke-miterlimit="10" d="
				M599.54,522.38c-16.26,26.26-35.32,57.04-51.57,83.3"/>
			<path fill="none" stroke="#F4783B" stroke-width="7" stroke-linecap="round" stroke-linejoin="round" stroke-miterlimit="10" d="
				M535.97,639.66c-19.75,29.72-39.5,59.44-59.25,89.16"/>
			<path fill="none" stroke="#F4783B" stroke-width="7" stroke-linecap="round" stroke-linejoin="round" stroke-miterlimit="10" d="
				M625.55,524.37c-15.69,24.5-35.07,54.78-50.76,79.28"/>
			<path fill="none" stroke="#F4783B" stroke-width="7" stroke-linecap="round" stroke-linejoin="round" stroke-miterlimit="10" d="
				M565.35,637.71c-16.7,30.79-33.4,61.58-50.1,92.37"/>
			<path fill="none" stroke="#F4783B" stroke-width="7" stroke-linecap="round" stroke-linejoin="round" stroke-miterlimit="10" d="
				M655.91,525.62c-37.04,68.08-74.08,136.16-111.13,204.25"/>
			<path fill="none" stroke="#F4783B" stroke-width="7" stroke-linecap="round" stroke-linejoin="round" stroke-miterlimit="10" d="
				M682.89,522.38c-33.74,69.45-67.48,138.9-101.21,208.35"/>
			<path fill="none" stroke="#F4783B" stroke-width="7" stroke-linecap="round" stroke-linejoin="round" stroke-miterlimit="10" d="
				M710.13,522.1c-14.17,27.95-28.35,55.9-42.52,83.85"/>
			<path fill="none" stroke="#F4783B" stroke-width="7" stroke-linecap="round" stroke-linejoin="round" stroke-miterlimit="10" d="
				M655.67,637.97c-15.49,31.01-30.97,62.01-46.46,93.02"/>
			<path fill="none" stroke="#F4783B" stroke-width="7" stroke-linecap="round" stroke-linejoin="round" stroke-miterlimit="10" d="
				M736.25,524.37c-12.95,28.82-27.76,56.81-44.3,83.74"/>
			<path fill="none" stroke="#F4783B" stroke-width="7" stroke-linecap="round" stroke-linejoin="round" stroke-miterlimit="10" d="
				M677.78,641.01c-13.93,30.75-27.86,61.51-41.79,92.26"/>
			<path fill="none" stroke="#F4783B" stroke-width="7" stroke-linecap="round" stroke-linejoin="round" stroke-miterlimit="10" d="
				M764.51,523.55c-13.31,28.64-26.63,57.28-39.94,85.92"/>
			<path fill="none" stroke="#F4783B" stroke-width="7" stroke-linecap="round" stroke-linejoin="round" stroke-miterlimit="10" d="
				M711.92,640.31c-13.27,30.74-26.53,61.49-39.8,92.23"/>
			<path fill="none" stroke="#F4783B" stroke-width="7" stroke-linecap="round" stroke-linejoin="round" stroke-miterlimit="10" d="
				M788.04,523.86c-29.8,69.62-58.43,139.73-85.88,210.3"/>
			<path fill="none" stroke="#F4783B" stroke-width="7" stroke-linecap="round" stroke-linejoin="round" stroke-miterlimit="10" d="
				M790.81,568.61c-20.07,55.14-40.13,110.27-60.2,165.41"/>
			<path fill="none" stroke="#F4783B" stroke-width="7" stroke-linecap="round" stroke-linejoin="round" stroke-miterlimit="10" d="
				M791.19,624.14c-11.36,36.03-22.73,72.06-34.09,108.09"/>
			<path fill="none" stroke="#F4783B" stroke-width="7" stroke-linecap="round" stroke-linejoin="round" stroke-miterlimit="10" d="
				M793.49,687.22c-6.2,15.47-12.4,30.95-18.61,46.42"/>
			<path fill="none" stroke="#F4783B" stroke-width="7" stroke-linecap="round" stroke-linejoin="round" stroke-miterlimit="10" d="
				M796.42,722.74c-1.25,3.59-2.51,7.18-3.76,10.77"/>
		</g>
		<text transform="matrix(1 0 0 1 477.719 759.0714)"><tspan x="0" y="0" fill="#F4783B" font-family="'PermanentMarker'" font-size="30.74px">int</tspan><tspan x="41.94" y="0" fill="#F4783B" font-family="'PermanentMarker'" font-size="30.74px">e</tspan><tspan x="57.67" y="0" fill="#F4783B" font-family="'PermanentMarker'" font-size="30.74px">rnet d</tspan><tspan x="149.08" y="0" fill="#F4783B" font-family="'PermanentMarker'" font-size="30.74px">o</tspan><tspan x="167.81" y="0" fill="#F4783B" font-family="'PermanentMarker'" font-size="30.74px">uche</tspan></text>
	</g>
</g>
</svg>
