<?xml version="1.0" encoding="utf-8"?>
<!-- Generator: Adobe Illustrator 18.0.0, SVG Export Plug-In . SVG Version: 6.00 Build 0)  -->
<!DOCTYPE svg PUBLIC "-//W3C//DTD SVG 1.1//EN" "http://www.w3.org/Graphics/SVG/1.1/DTD/svg11.dtd">
<svg version="1.1" id="Layer_1" xmlns="http://www.w3.org/2000/svg" xmlns:xlink="http://www.w3.org/1999/xlink" x="0px" y="0px"
	 viewBox="0 0 423.3 440" enable-background="new 0 0 423.3 440" xml:space="preserve">
<path fill="none" stroke="#FFFFFF" stroke-width="120" stroke-linejoin="bevel" stroke-miterlimit="10" d="M417.5,16.6
	c-136-1.4-272.1,1.9-407.9,9.9C-4.6,44.8,6.9,73.6,26.8,85.6s44.4,12,67.6,11.6c43.9-0.8,87.7-1.5,131.6-2.3
	c16.8-0.3,34.2-0.5,49.7,6.1s28.6,21.9,27.1,38.6c-1.8,20-22.5,32.8-42,37.6c-47.3,11.5-100.7-7.7-129.8-46.8
	c65.5-21.3,136.8-24.5,203.9-9.1c5.8,1.3,11.7,2.9,16.3,6.5c12.4,9.7,9.8,30.4-1.1,41.8c-10.8,11.4-26.8,15.9-42,20
	s-31.1,8.9-41.6,20.6c-14,15.6-14,40-5.7,59.3s23.5,34.5,38.3,49.4c28.7,28.6,57.4,57.3,86.1,85.9c-109.8,34.3-230.7,31.8-339-7
	c-1.2-15.1,10.2-28.9,23.9-35.3c13.7-6.4,29.3-7,44.5-7.4c45.9-1.4,91.7-2.8,137.6-4.3c-40.3-18.4-89.4-16.4-128,5.4
	c-9.7,5.4-18.7,12-29,16.1c-10.3,4.1-22.5,5.4-32.2,0.1c-16-8.7-18.8-30-19.7-48.1C38.1,221.9,32.8,119.7,27.5,17.4"/>
<g>
	
		<line fill="none" stroke="#000000" stroke-width="7" stroke-linecap="round" stroke-miterlimit="10" x1="40.7" y1="38.4" x2="40.7" y2="420.5"/>
	
		<line fill="none" stroke="#000000" stroke-width="7" stroke-linecap="round" stroke-miterlimit="10" x1="18.2" y1="398" x2="402.7" y2="398"/>
	
		<polyline fill="none" stroke="#010101" stroke-width="7" stroke-linecap="round" stroke-linejoin="round" stroke-miterlimit="10" points="
		18.2,60.4 40.7,38.4 63.2,60.4 	"/>
	
		<polyline fill="none" stroke="#010101" stroke-width="7" stroke-linecap="round" stroke-linejoin="round" stroke-miterlimit="10" points="
		380.7,375.5 402.7,398 380.7,420.5 	"/>
</g>
<text transform="matrix(1 0 0 1 55.2422 434.7407)" font-family="'PermanentMarker'" font-size="30.74">times a story is told</text>
<text transform="matrix(1 0 0 1 2.1982 24.8101)" font-family="'PermanentMarker'" font-size="30.74">closeness to original story</text>
<path fill="none" stroke="#D27B5A" stroke-width="7" stroke-linecap="round" stroke-miterlimit="10" d="M53.2,71
	c104.1,101.9,208.2,203.8,312.3,305.8"/>
<g>
	<path fill="none" stroke="#000000" stroke-width="7" stroke-linecap="round" stroke-miterlimit="10" d="M351.8,348.1
		c-5.8,7.2-7.5,9.4-13.3,16.6"/>
	<path fill="none" stroke="#000000" stroke-width="7" stroke-linecap="round" stroke-miterlimit="10" d="M337.2,349.6
		c8.4,4.1,11.5,7.2,16.6,15.1"/>
	<path fill="none" stroke="#000000" stroke-width="7" stroke-linecap="round" stroke-miterlimit="10" d="M320.6,359.2
		c-5.1-1.8-10.8,0.2-15.3,3.2s-8.2,7-12.7,10c-7.8,5.2-17.7,7-26.8,5s-17.3-7.9-22.1-15.9"/>
</g>
<text transform="matrix(1 0 0 1 142.2194 348.0917)"><tspan x="0" y="0" font-family="'PermanentMarker'" font-size="30.74">urban</tspan><tspan x="-27.9" y="30" font-family="'PermanentMarker'" font-size="30.74">legends</tspan></text>
<g>
	<path fill="none" stroke="#000000" stroke-width="7" stroke-linecap="round" stroke-miterlimit="10" d="M279.4,276.7
		c-6.3,6.7-8.1,8.7-14.4,15.4"/>
	<path fill="none" stroke="#000000" stroke-width="7" stroke-linecap="round" stroke-miterlimit="10" d="M267,280.7
		c4.1,3.8,8.2,7.6,12.3,11.4"/>
	<path fill="none" stroke="#000000" stroke-width="7" stroke-linecap="round" stroke-miterlimit="10" d="M272.3,268.9
		c-4-9.6-2.4-21.3,4-29.5c4.4-5.6,10.6-9.4,16.2-13.8s11-9.8,12.4-16.8c1.4-7-2.7-15.4-9.8-16.2"/>
</g>
<text transform="matrix(1 0 0 1 222.667 120.0002)"><tspan x="0" y="0" font-family="'PermanentMarker'" font-size="30.74">social</tspan><tspan x="0" y="30" font-family="'PermanentMarker'" font-size="30.74">psychology</tspan><tspan x="0" y="60" font-family="'PermanentMarker'" font-size="30.74">findings</tspan></text>
</svg>
