<?xml version="1.0" encoding="utf-8"?>
<!-- Generator: Adobe Illustrator 18.0.0, SVG Export Plug-In . SVG Version: 6.00 Build 0)  -->
<!DOCTYPE svg PUBLIC "-//W3C//DTD SVG 1.1//EN" "http://www.w3.org/Graphics/SVG/1.1/DTD/svg11.dtd">
<svg version="1.1" id="Layer_1" xmlns="http://www.w3.org/2000/svg" xmlns:xlink="http://www.w3.org/1999/xlink" x="0px" y="0px"
	 viewBox="0 0 469.5 171" enable-background="new 0 0 469.5 171" xml:space="preserve">
<path fill="none" stroke="#FFFFFF" stroke-width="120" stroke-linejoin="bevel" stroke-miterlimit="10" d="M4.7,109.1
	c9.1-13.5,24.6-43.5,40.8-44c13.8-0.5,25.4,9.7,38,15.3c22.1,9.9,47.6,6,71.4,1.9c43.7-7.5,87.3-15.1,131-22.6
	c18.4-3.2,37.4-6.6,53.3-16.5c10.9-6.8,19.8-16.5,30.6-23.4c18.9-12.2,43.5-15.2,64.8-8c4.4,13.5-6.9,27.9-20.2,32.9
	c-13.3,5-28,3.3-42.2,3C289.8,46,208.6,95.6,172.5,169.5c47-7.3,92.2-26,130.5-54.1"/>
<path fill="none" stroke="#000000" stroke-width="7" stroke-linecap="round" stroke-linejoin="round" stroke-miterlimit="10" d="
	M234.2,77.1c-9.7,27.1-19.4,54.1-29.1,81.2c22.4,0.1,44.7,0.2,67.1,0.3c-12.6-26.9-25.1-53.9-37.7-80.8"/>
<path fill="none" stroke="#000000" stroke-width="7" stroke-linecap="round" stroke-linejoin="round" stroke-miterlimit="10" d="
	M17.8,102.9c144.6-20,289.3-40.1,433.9-60.1"/>
<text transform="matrix(0.9906 -0.1368 0.1368 0.9906 14.149 94.1343)" fill="#FBC926" font-family="'PermanentMarker'" font-size="30.74">present</text>
<text transform="matrix(0.9906 -0.1368 0.1368 0.9906 352.8676 47.715)" fill="#FBC926" font-family="'PermanentMarker'" font-size="30.74">future</text>
</svg>
