<?xml version="1.0" encoding="utf-8"?>
<!-- Generator: Adobe Illustrator 18.0.0, SVG Export Plug-In . SVG Version: 6.00 Build 0)  -->
<!DOCTYPE svg PUBLIC "-//W3C//DTD SVG 1.1//EN" "http://www.w3.org/Graphics/SVG/1.1/DTD/svg11.dtd">
<svg version="1.1" id="Layer_1" xmlns="http://www.w3.org/2000/svg" xmlns:xlink="http://www.w3.org/1999/xlink" x="0px" y="0px"
	 viewBox="0 0 385.5 304.5" enable-background="new 0 0 385.5 304.5" xml:space="preserve">
<path fill="none" stroke="#FFFFFF" stroke-width="120" stroke-linejoin="bevel" stroke-miterlimit="10" d="M43.7,204.5
	c-6.1-41.3-11.3-86.8,11.2-122c13.9-21.8,36.6-36.2,58.5-49.9c13.7-8.6,27.7-17.3,43.4-20.9s33.8-1.3,45.3,10s13.3,32.5,1,43
	c-3.6,3.1-8.1,5-12.5,6.9c-10.4,4.5-20.9,9.1-31.3,13.6c8.6,12.1,27.8,9.4,40.1,1.1s21.8-20.8,35.4-26.6
	c21.5-9.1,47.2,1.7,62.5,19.4c15.2,17.7,22.4,40.7,29.1,63c12.8,42.4,25.6,84.9,38.3,127.3c2.6,8.7,4.2,20.2-3.6,24.9
	c-7.7,4.6-17.2-2.1-22.6-9.3c-8.3-10.9-14-23.8-16.5-37.3c-1.6-8.7-1.9-17.9-6-25.8c-4-7.9-13.5-14-21.7-10.7
	c-11.4,4.7-10.1,20.9-14.4,32.5c-7,18.6-29.6,25-49.2,28.9c-23.7,4.7-47.7,9.4-71.9,8.3s-48.9-8.8-66.1-25.8
	c-7.8-7.7-13.9-17.1-21.8-24.9s-18.4-13.9-29.4-12.6S20.8,230.6,24.4,241c2.9,8.4,13.1,12.5,21.9,11.4s16.6-6.3,23.8-11.5
	c7.2-5.2,14.6-10.7,23.2-12.9"/>
<text transform="matrix(1 0 0 1 22.0767 230.0716)"><tspan x="0" y="0" font-family="'PermanentMarker'" font-size="30.74">feel</tspan><tspan x="5.8" y="30" font-family="'PermanentMarker'" font-size="30.74">bad</tspan></text>
<g>
	<path fill="none" stroke="#1C75BC" stroke-width="7" stroke-linecap="round" stroke-linejoin="round" stroke-miterlimit="10" d="
		M38.6,197.1c-15.4-21-20.8-49-14.2-74.1S49.5,76,73.2,65.4"/>
	<path fill="none" stroke="#1C75BC" stroke-width="7" stroke-linecap="round" stroke-linejoin="round" stroke-miterlimit="10" d="
		M56.7,61.6c7.3-0.4,14.7-0.8,22-1.2c-1,6-2,11.9-3,17.9"/>
</g>
<text transform="matrix(1 0 0 1 168.7271 26.3948)"><tspan x="0" y="0" font-family="'PermanentMarker'" font-size="30.74">set</tspan><tspan x="-63.4" y="30" font-family="'PermanentMarker'" font-size="30.74">meaningful</tspan><tspan x="-21.4" y="60" font-family="'PermanentMarker'" font-size="30.74">goals</tspan></text>
<g>
	<path fill="none" stroke="#1C75BC" stroke-width="7" stroke-linecap="round" stroke-linejoin="round" stroke-miterlimit="10" d="
		M293.3,59.8c33.2,28.6,49.1,75.8,40,118.6"/>
	<path fill="none" stroke="#1C75BC" stroke-width="7" stroke-linecap="round" stroke-linejoin="round" stroke-miterlimit="10" d="
		M325.2,166.4c1.5,6.7,3.1,13.5,4.6,20.2c5.5-4.2,11-8.4,16.5-12.6"/>
</g>
<text transform="matrix(1 0 0 1 279.9024 216.8856)"><tspan x="0" y="0" font-family="'PermanentMarker'" font-size="30.74">obsess</tspan><tspan x="4.1" y="30" font-family="'PermanentMarker'" font-size="30.74">about</tspan><tspan x="11" y="60" font-family="'PermanentMarker'" font-size="30.74">them</tspan></text>
<g>
	<path fill="none" stroke="#1C75BC" stroke-width="7" stroke-linecap="round" stroke-linejoin="round" stroke-miterlimit="10" d="
		M262.7,273.3c-51.1,18.7-110,14.6-158.2-10.8"/>
	<path fill="none" stroke="#1C75BC" stroke-width="7" stroke-linecap="round" stroke-linejoin="round" stroke-miterlimit="10" d="
		M106.5,277.4c-1.9-6.2-3.9-12.5-5.8-18.7c6.4-0.6,12.8-1.3,19.2-1.9"/>
</g>
</svg>
