<?xml version="1.0" encoding="utf-8"?>
<!-- Generator: Adobe Illustrator 19.2.0, SVG Export Plug-In . SVG Version: 6.00 Build 0)  -->
<svg version="1.1" id="Layer_1" xmlns="http://www.w3.org/2000/svg" xmlns:xlink="http://www.w3.org/1999/xlink" x="0px" y="0px"
	 width="732.7px" height="530.4px" viewBox="0 0 732.7 530.4" enable-background="new 0 0 732.7 530.4" xml:space="preserve">
<path fill="none" stroke="#FFFFFF" stroke-width="120" stroke-linejoin="bevel" stroke-miterlimit="10" d="M451,13.5
	c-7.8,29.1-15.6,58.3-23.4,87.4c-4.4-33.7-8.9-67.3-13.3-101c-12.5,25.1-25.1,50.1-37.6,75.2c18.7,2.3,36.5-17.4,32.4-35.8
	C404.9,21,380.2,11,364.4,21.2c-9.1,5.8-14.2,16.1-18.9,25.8c-8.4,17.4-16.8,34.9-25.2,52.3c-5-30.7-10.1-61.4-15.1-92.1
	c-9.1,32.6-18.2,65.1-27.3,97.7c-6.5-33.2-12.9-66.3-19.4-99.5c-15.2,4.6-16.1,25.8-12.8,41.3c3.3,15.6,5.9,35.6-7.7,43.9
	c-17.8,11-38.1-11.9-59-13.2c-11.4-0.7-22.9,6-27.9,16.3c-5,10.3-3.2,23.5,4.4,32c18.1-7.5,36.2-14.9,54.4-22.4
	c0.8,31.3-30.9,59.1-61.8,54.4c-17.8-2.7-33.2-14.2-50.7-18.4c-17.5-4.3-41.1,3.7-42.1,21.7c52.4-1.4,104.7-7.4,156-18
	c-12.6,21.9-29.6,41.2-49.8,56.4c9.2,1.8,18.4,3.6,27.6,5.4c-4.3,11-8.6,22-13,33c8.3-0.8,16.5-1.6,24.8-2.4
	c4.1,17.6,8.1,35.2,12.2,52.7c-47.9-22.6-101.2-33.8-154.2-32.3c-13.6,0.4-31,5-32.4,18.5c-1,9.9,8.5,18.4,18.4,20
	c9.8,1.6,19.7-1.9,29.1-5.3c16.4-6,32.8-11.9,49.3-17.9c16.8-6.1,37.8-11.5,50.8,0.8c11.3,10.6,9.9,28.5,7.8,43.9
	c-3.2,22.3-6.4,44.9-13.9,66.1c9.4-3.5,19.3-7.1,29.2-5.5c9.9,1.6,19.4,10.4,17.9,20.4c-1.8,12.1-17.8,16.8-29.3,12.8
	c-11.5-4-20.2-13.3-30.6-19.8c-26.5-16.6-64.5-11.7-85.8,11.1c-4-7.3-8.1-14.7-12.1-22c30.9,25.4,74.6,34.3,112.9,22.9
	c1.4,8.7,2.7,17.3,4.1,26c40,12.2,79.9,24.4,119.9,36.6c-39.3-13-78.5-26-117.8-39c40.8-14.9,87.4-13.3,127.1,4.3
	c-8.9,6.6-16.2,16.3-17.3,27.4c-1.1,11,5.3,23.1,15.9,26.2c10.7,3.1,23.7-5.9,22.6-17c2.7,11,5.5,22,8.2,32.9
	c10.1-13.8,20.2-27.7,30.3-41.5c2,16.9,4,33.8,6.1,50.7c15.9-18.2,31.9-36.3,47.8-54.5c-3.9,20.6-7.7,41.2-11.6,61.8
	c15.9-9.8,28.6-24.6,35.9-41.8c2.5,10.9,4.9,21.7,7.4,32.6c8.9-14.1,17.8-28.2,26.8-42.2c3.1,15.3,6.2,30.5,9.4,45.8
	c20.2-12.1,34.9-33,39.3-56.1c3.8,22.7,7.7,45.3,11.5,68c25.6-12.2,44.6-37.3,49.5-65.2c8.3,23,16.6,46.1,24.9,69.1
	c13-5.5,20.9-21,17.7-34.8c10.7,13.1,21.3,26.2,32,39.3c10.8-22.3,21.5-44.6,32.3-67c5.3-11.1,10.8-23.9,6.1-35.2
	c-6.2-15-26-18.3-42.1-16.7c-24.7,2.4-48.6,11-73.4,11.8c-24.8,0.8-52.6-9.1-62.2-32c-1.1,22.8-2.2,45.5-3.4,68.3
	c-3.7-19-7.4-38.6-2.8-57.4s19.8-36.4,39.1-37.3c12.5-0.5,24.3,5.8,36.8,7.1c12.5,1.2,28-6.8,26.4-19.3c-18.8,7.5-40,5.2-60.1,2.1
	c-20.1-3-40.8-6.7-60.4-1.5c-19.6,5.2-37.8,22.2-37,42.4c0.9-36.7,1.7-73.5,2.6-110.2c0.2-9,0.5-18.4,4.8-26.3
	c4.3-7.9,13.9-13.7,22.3-10.6c8.4,3.1,10.8,17.2,2.6,20.9c10.9-13.2,21.7-26.3,32.6-39.5c6.9,14.6,13.8,29.2,20.8,43.7
	c11.8-9.1,23.5-18.3,35.3-27.4c15.9,7.2,31.9,14.4,47.8,21.6c27.4-37.8,44-83.4,47.5-130c-11.2-6.9-27.3-4.4-35.9,5.6
	c-24.8-13.5-56-14.7-81.8-3.3c-1.7-9.3-13.9-13.3-22.8-10.2c-8.9,3.1-15.4,10.8-21.9,17.6c-6.5,6.8-14.5,13.6-23.9,13.8
	c-9.5,0.3-19.1-9.7-15.1-18.3c-43.7,42.4-87.3,84.7-131,127.1c-39.7-50.3-87.2-94.3-140.3-130.1c48.1,32.2,88.6,75.8,117.2,126.1
	c-42.7,7.6-86.6,9-129.7,4.2c99.6,2.1,199.2,4.2,298.7,6.3c-43.1,2.4-86.2,4.8-129.3,7.2c36.3,35.4,72.6,70.9,108.9,106.3
	c-11.5,15.3-37.1,9.1-49.6-5.4s-17.1-34-27-50.4c-9.9-16.4-29.8-30.3-47.3-22.5c-13.1,5.9-18.7,21.2-22.7,35.1
	c-13.9,49.2-23.4,99.7-28.3,150.6c-22.1-7.3-43.5-18.7-58.8-36.3c-15.2-17.6-23.5-42.3-17.9-64.9c5.9-23.6,25.3-41.1,43.7-57
	c25.6-22.2,55-45.7,88.8-43.6c25.2,1.6,47,17.3,67.3,32.5c42,31.4,83.9,62.8,125.9,94.2c-19.3,7.9-40.8,7.3-61.6,6.5
	c-103-3.6-206-7.3-309-10.9"/>
<g id="Arrow_right">
</g>
<g>
	
		<line fill="none" stroke="#000000" stroke-width="7" stroke-linecap="round" stroke-linejoin="round" stroke-miterlimit="10" x1="181.2" y1="98.3" x2="181.2" y2="443.6"/>
	
		<line fill="none" stroke="#000000" stroke-width="7" stroke-linecap="round" stroke-linejoin="round" stroke-miterlimit="10" x1="158.7" y1="421.1" x2="536" y2="421.1"/>
	<g>
		
			<polyline fill="none" stroke="#000000" stroke-width="7" stroke-linecap="round" stroke-linejoin="round" stroke-miterlimit="10" points="
			158.7,120.3 181.2,98.3 203.7,120.3 		"/>
	</g>
	<g>
		
			<polyline fill="none" stroke="#000000" stroke-width="7" stroke-linecap="round" stroke-linejoin="round" stroke-miterlimit="10" points="
			514,398.6 536,421.1 514,443.6 		"/>
	</g>
</g>
<text transform="matrix(1 0 0 1 548.623 428.3583)" font-family="'PermanentMarker'" font-size="30.74px">knowledge</text>
<text transform="matrix(1 0 0 1 158.6898 87.3767)"><tspan x="0" y="0" font-family="'PermanentMarker'" font-size="30.74px">hope </tspan><tspan x="80.8" y="0" fill="#F4BB3A" font-family="'PermanentMarker'" font-size="30.74px">as an idealist</tspan></text>
<line fill="none" stroke="#F4BB3A" stroke-width="7" stroke-linecap="round" stroke-linejoin="round" stroke-miterlimit="10" x1="211.4" y1="406.4" x2="477.8" y2="140"/>
<g>
	<path fill="none" stroke="#000000" stroke-width="7" stroke-linecap="round" stroke-linejoin="round" stroke-miterlimit="10" d="
		M215.8,396.1c2.3,2,4.6,4.1,6.9,6.1"/>
	<path fill="none" stroke="#000000" stroke-width="7" stroke-linecap="round" stroke-linejoin="round" stroke-miterlimit="10" d="
		M221,394.4c-1.4,2.8-2.9,5.6-4.3,8.4"/>
	<path fill="none" stroke="#000000" stroke-width="7" stroke-linecap="round" stroke-linejoin="round" stroke-miterlimit="10" d="
		M207.3,394.2c-5.1-0.1-9.3-4.1-12.2-8.3s-5.3-9-9.3-12c-4-3-9.6-4-14.4-2.5c-4.8,1.5-8.8,5.4-10.4,10.2"/>
	<text transform="matrix(1 0 0 1 63.6597 401.4184)" font-family="'PermanentMarker'" font-size="30.74px">stupid</text>
</g>
<g>
	<path fill="none" stroke="#000000" stroke-width="7" stroke-linecap="round" stroke-linejoin="round" stroke-miterlimit="10" d="
		M467.8,142.6c3,2.1,5.9,4.2,8.9,6.2"/>
	<path fill="none" stroke="#000000" stroke-width="7" stroke-linecap="round" stroke-linejoin="round" stroke-miterlimit="10" d="
		M474.1,140.5c-1.8,3.1-3.7,6.2-5.5,9.4"/>
	<path fill="none" stroke="#000000" stroke-width="7" stroke-linecap="round" stroke-linejoin="round" stroke-miterlimit="10" d="
		M475.7,157.1c-0.6,3.4,2.5,6.6,5.9,7.1s6.8-1,9.5-3.1c2.7-2.1,5-4.7,7.6-6.8c2.7-2.1,5.9-3.9,9.3-3.6"/>
	<text transform="matrix(1 0 0 1 520.5195 150.8416)" font-family="'PermanentMarker'" font-size="30.74px">optimistic</text>
</g>
<text transform="matrix(1 0 0 1 238.6946 61.1181)" fill="#821E70" font-family="'PermanentMarker'" font-size="30.74px">as a pessimist</text>
<line fill="none" stroke="#821E70" stroke-width="7" stroke-linecap="round" stroke-linejoin="round" stroke-miterlimit="10" x1="211.4" y1="137.5" x2="477.8" y2="403.9"/>
<g>
	<path fill="none" stroke="#000000" stroke-width="7" stroke-linecap="round" stroke-linejoin="round" stroke-miterlimit="10" d="
		M216.5,137.4c-2,2.1-3.9,4.3-5.9,6.4"/>
	<path fill="none" stroke="#000000" stroke-width="7" stroke-linecap="round" stroke-linejoin="round" stroke-miterlimit="10" d="
		M211.8,138.4c1.5,1.6,3.1,3.3,4.6,4.9"/>
	<path fill="none" stroke="#000000" stroke-width="7" stroke-linecap="round" stroke-linejoin="round" stroke-miterlimit="10" d="
		M199.4,141.3c-7.5-0.9-15.2,1.2-21.4,5.5c-5.3,3.8-9.2,9.2-14.4,13.2s-12.3,6.6-18.1,3.6"/>
	<text transform="matrix(1 0 0 1 63.8288 155.6037)" font-family="'PermanentMarker'" font-size="30.74px">naive</text>
</g>
<g>
	<path fill="none" stroke="#000000" stroke-width="7" stroke-linecap="round" stroke-linejoin="round" stroke-miterlimit="10" d="
		M470,389.8c-2.8,2.7-5.6,5.4-8.4,8.1"/>
	<path fill="none" stroke="#000000" stroke-width="7" stroke-linecap="round" stroke-linejoin="round" stroke-miterlimit="10" d="
		M461.5,390.5c2.9,2.3,5.9,4.7,8.8,7"/>
	<path fill="none" stroke="#000000" stroke-width="7" stroke-linecap="round" stroke-linejoin="round" stroke-miterlimit="10" d="
		M475.2,381.2c11.2-4,14.2-19.5,24.7-25.2c7.3-4,17.4-1.7,22.2,5"/>
	<text transform="matrix(1 0 0 1 533.3607 367.6346)" font-family="'PermanentMarker'" font-size="30.74px">bitter</text>
</g>
<text transform="matrix(1 0 0 1 238.6944 34.8621)" fill="#72AA8B" font-family="'PermanentMarker'" font-size="30.74px">as a scientist</text>
<line fill="none" stroke="#72AA8B" stroke-width="7" stroke-linecap="round" stroke-linejoin="round" stroke-miterlimit="10" x1="211.4" y1="273.8" x2="477.8" y2="273.8"/>
<g>
	<path fill="none" stroke="#000000" stroke-width="7" stroke-linecap="round" stroke-linejoin="round" stroke-miterlimit="10" d="
		M219,270c-1.6,2.6-3.3,5.2-4.9,7.8"/>
	<path fill="none" stroke="#000000" stroke-width="7" stroke-linecap="round" stroke-linejoin="round" stroke-miterlimit="10" d="
		M213.4,270.5c1.4,2.7,3.5,5.1,6.1,6.7"/>
	<path fill="none" stroke="#000000" stroke-width="7" stroke-linecap="round" stroke-linejoin="round" stroke-miterlimit="10" d="
		M211.6,260.6c-4.7-6.5-10.3-13.4-18.2-14.5c-8.6-1.2-16.2,5.1-22.8,10.9c-6.5,5.8-14.5,11.8-23,10"/>
	<text transform="matrix(1 0 0 1 11.3833 277.5113)" font-family="'PermanentMarker'" font-size="30.74px">hesitant</text>
</g>
<g>
	<path fill="none" stroke="#000000" stroke-width="7" stroke-linecap="round" stroke-linejoin="round" stroke-miterlimit="10" d="
		M468,268.5c-2,3-4.1,6-6.1,9.1"/>
	<path fill="none" stroke="#000000" stroke-width="7" stroke-linecap="round" stroke-linejoin="round" stroke-miterlimit="10" d="
		M460.3,268.5c2.7,3,5.4,6.1,8.2,9.1"/>
	<path fill="none" stroke="#000000" stroke-width="7" stroke-linecap="round" stroke-linejoin="round" stroke-miterlimit="10" d="
		M464.8,258.4c-1.4-5.4,0.7-11.5,5.1-14.9s10.7-4.1,15.7-1.6c3.8,1.9,6.5,5.4,9.8,8c5.5,4.4,12.9,6.3,19.9,5.3"/>
	<text transform="matrix(1 0 0 1 527.5261 262.0999)" font-family="'PermanentMarker'" font-size="30.74px">cautious</text>
</g>
<g>
	<path fill="none" stroke="#000000" stroke-width="7" stroke-linecap="round" stroke-linejoin="round" stroke-miterlimit="10" d="
		M344.9,307c1.3,27.8-5.9,55.9-20.5,79.5c-6.5,10.6-14.5,20.2-20.2,31.2c-5.7,11-9.1,23.9-5.8,35.9c3.4,11.9,15.2,22,27.5,20.1"/>
	<path fill="none" stroke="#000000" stroke-width="7" stroke-linecap="round" stroke-linejoin="round" stroke-miterlimit="10" d="
		M339.2,311.6c2.3-3.4,4.6-6.8,7-10.3c0.1,4.1,1.8,8.1,4.8,10.9"/>
	<text transform="matrix(1 0 0 1 337.2125 483.8788)"><tspan x="0" y="0" font-family="'PermanentMarker'" font-size="30.74px">why everybody thinks</tspan><tspan x="0" y="30" font-family="'PermanentMarker'" font-size="30.74px">they’re being realistic</tspan></text>
</g>
<g id="Arrow_up">
</g>
</svg>
