<?xml version="1.0" encoding="utf-8"?>
<!-- Generator: Adobe Illustrator 19.2.0, SVG Export Plug-In . SVG Version: 6.00 Build 0)  -->
<svg version="1.1" id="Layer_1" xmlns="http://www.w3.org/2000/svg" xmlns:xlink="http://www.w3.org/1999/xlink" x="0px" y="0px"
	 width="550.8px" height="397.07px" viewBox="0 0 550.8 397.07" enable-background="new 0 0 550.8 397.07" xml:space="preserve">
<path fill="none" stroke="#FFFFFF" stroke-width="120" stroke-linejoin="bevel" stroke-miterlimit="10" d="M22.05,8.48
	c-1.37,14.88-2.75,29.75-4.12,44.63C38.05,35.49,58.18,17.87,78.3,0.26C68.5,20.9,58.69,41.55,48.89,62.2
	c27.89-26.16,55.79-52.32,83.68-78.48c-12.18,31.33-24.36,62.67-36.54,94c37.98-32.39,75.96-64.77,113.94-97.16
	c-12.66,34.87-25.32,69.73-37.98,104.6c23.76-18.33,47.52-36.65,71.28-54.98c-4.27,11.04-8.55,22.08-12.82,33.12
	c12.15-15.38,24.3-30.77,36.45-46.15c-3.88,6.62-7.75,13.25-11.63,19.87c4.25-11.36,20.13-15.08,30.69-9.12s15.81,18.71,16.07,30.83
	c0.25,12.12-3.66,23.9-7.52,35.4c15.07-13.57,30.13-27.15,45.2-40.72c-11.27,30.24-22.54,60.49-33.8,90.73
	c27.51-18.84,49.98-44.96,64.49-74.98c1.26,7.88,2.53,15.76,3.79,23.64c13.47-13.28,26.94-26.55,40.41-39.83
	c-0.53,13.63-1.06,27.27-1.59,40.9c5.91-5.54,11.82-11.07,17.74-16.61c-29.08,46.51-90.23,64.83-144.63,57.74
	c-54.4-7.08-103.64-34.92-150.4-63.61c-25.76-15.8-56.23-32.65-84.54-22.08c-16.71,6.24-28.9,21.31-35.76,37.77
	s-9.1,34.42-11.27,52.13c37.99-20.82,72.72-47.57,102.55-78.99C68.8,107.29,30.9,154.34-6.99,201.4
	c25.55-19.26,51.1-38.51,76.65-57.77c-17.29,31.84-34.58,63.68-51.88,95.51c10.31-8.58,20.61-17.15,30.92-25.73
	c-8.14,19.82-16.28,39.65-24.41,59.47c-3.11,7.59-6.08,16.8-1.3,23.46c4,5.58,12.17,6.76,18.68,4.59
	c6.52-2.17,11.77-6.96,16.82-11.62c-11.7,30.91-23.39,61.81-35.09,92.72c8.02-8.55,16.03-17.09,24.05-25.64
	c-2.74,5.19-5.48,10.38-8.22,15.58c39.97,4.92,80.71,3.59,120.28-3.93c-2.17,6.97-4.35,13.94-6.52,20.91
	c15.26-13.72,30.53-27.44,45.79-41.16c12.09,15.55,33.73,19.14,53.28,21.59c7.06,0.89,14.12,1.77,21.19,2.66
	c8.68,1.09,17.53,2.17,26.1,0.46c14.53-2.9,27.02-14.35,31.16-28.58c13.19,14.47,33.8,18.98,53.02,22.72
	c7.12,1.39,14.23,2.78,21.35,4.16c23.02,4.49,46.04,8.98,69.06,13.47c14.36,2.8,30.57,5.24,42.51-3.21
	c9.52-6.74,13.76-19.09,13.62-30.75s-4-22.92-7.83-33.94c-43.28,17.19-86.57,34.38-129.85,51.57c-0.54-28.52,7.99-57.13,24.04-80.71
	c-25.66,9.55-51.32,19.09-76.98,28.64c10.17-21.79,20.34-43.58,30.52-65.38c-35.49,1.81-70.12,17.19-95.26,42.31
	c6.08-26.51,12.16-53.02,18.24-79.53c1.95-8.52,3.83-17.84-0.04-25.68c-6.06-12.29-23.8-14.39-36-8.15
	c-12.2,6.24-20.26,18.15-28.3,29.24c-8.04,11.1-17.39,22.43-30.49,26.46c1.03-36.53,2.05-73.07,3.08-109.6
	c0.27-9.6-0.95-21.59-9.92-25.03c-7.56-2.89-15.56,2.46-21.89,7.51c-22.1,17.64-44.21,35.28-66.31,52.92
	c15.34-41.27,30.69-82.54,46.03-123.8c-37.5,36.07-70.04,77.3-96.41,122.15"/>
<path fill="none" stroke="#000000" stroke-width="7" stroke-linecap="round" stroke-linejoin="round" stroke-miterlimit="10" d="
	M42.61,44.87c0,26.42,0,52.85,0,79.27v259.58"/>
<line fill="none" stroke="#000000" stroke-width="7" stroke-linecap="round" stroke-linejoin="round" stroke-miterlimit="10" x1="24.92" y1="366.02" x2="535.28" y2="366.02"/>
<polyline fill="none" stroke="#000000" stroke-width="7" stroke-linecap="round" stroke-linejoin="round" stroke-miterlimit="10" points="
	20.11,66.87 42.61,44.87 65.11,66.87 "/>
<text transform="matrix(1 0 0 1 16.1101 34.8738)"><tspan x="0" y="0" font-family="'PermanentMarker'" font-size="30.74px">f</tspan><tspan x="13.69" y="0" font-family="'PermanentMarker'" font-size="30.74px">aith in humanity</tspan></text>
<polyline fill="none" stroke="#000000" stroke-width="7" stroke-linecap="round" stroke-linejoin="round" stroke-miterlimit="10" points="
	513.28,343.52 535.28,366.02 513.28,388.52 "/>
<text transform="matrix(1 0 0 1 480.4537 334.2529)" font-family="'PermanentMarker'" font-size="30.74px">time</text>
<path fill="none" stroke="#A967AA" stroke-width="7" stroke-linecap="round" stroke-linejoin="round" stroke-miterlimit="10" d="
	M71.47,121.69c24.47-4.04,42.91-24.67,51.37-46.8"/>
<g>
	<path fill="none" stroke="#00A9A3" stroke-width="7" stroke-linecap="round" stroke-linejoin="round" stroke-miterlimit="10" d="
		M127.84,70.46c-3.01,2.58-6.01,5.15-9.02,7.73"/>
	<path fill="none" stroke="#00A9A3" stroke-width="7" stroke-linecap="round" stroke-linejoin="round" stroke-miterlimit="10" d="
		M117.23,69.37c3.62,2.83,7.24,5.66,10.87,8.49"/>
</g>
<text transform="matrix(1 0 0 1 312.9884 74.3281)"><tspan x="0" y="0" fill="#00A9A3" font-family="'PermanentMarker'" font-size="30.74px">political</tspan><tspan x="0" y="30" fill="#00A9A3" font-family="'PermanentMarker'" font-size="30.74px">events</tspan></text>
<path fill="none" stroke="#A967AA" stroke-width="7" stroke-linecap="round" stroke-linejoin="round" stroke-miterlimit="10" d="
	M122.84,74.89c4.13,20.44,2.69,39.07,2.85,58.89c0.16,19.82,9.46,43.26,29.08,46.03c10.81,1.53,21.64-4.12,29.09-12.11
	c7.45-7.99,12.12-18.1,16.67-28.03"/>
<g>
	<path fill="none" stroke="#00A9A3" stroke-width="7" stroke-linecap="round" stroke-linejoin="round" stroke-miterlimit="10" d="
		M204.15,135.53c-3.01,1.29-6.01,2.58-9.02,3.87"/>
	<path fill="none" stroke="#00A9A3" stroke-width="7" stroke-linecap="round" stroke-linejoin="round" stroke-miterlimit="10" d="
		M196.97,133.07c2.15,3,4.3,6.01,6.45,9.01"/>
</g>
<path fill="none" stroke="#A967AA" stroke-width="7" stroke-linecap="round" stroke-linejoin="round" stroke-miterlimit="10" d="
	M200.53,139.67c1.6,20.17,0.02,38.94,4.44,59.93c4.17,19.81,31.35,38.53,48.16,27.24c11.31-7.59,18.94-17.61,21.45-30.21
	c4.97,17.79,9.38,32.31,12.76,47.96c3.52,16.31,9,34.34,23.94,41.78c9.96,4.96,22.62,3.93,31.64-2.57s12-18.48,12.47-29.2
	c1.35,17.48,2.78,35.31,9.65,51.44c6.87,16.13,20,32.45,37.47,33.86c10.53,0.85,23.06,1.04,29.38-7.29
	c6.46-8.51,7.7-18.19,7.99-28.42c12.79,27.6,25.57,55.2,38.36,82.8"/>
<g>
	<path fill="none" stroke="#00A9A3" stroke-width="7" stroke-linecap="round" stroke-linejoin="round" stroke-miterlimit="10" d="
		M269.38,194.61c4.06,1.76,8.12,3.53,12.18,5.29"/>
	<path fill="none" stroke="#00A9A3" stroke-width="7" stroke-linecap="round" stroke-linejoin="round" stroke-miterlimit="10" d="
		M280.55,192.45c-4.61,1.69-8.28,5.72-9.54,10.47"/>
	<path fill="none" stroke="#00A9A3" stroke-width="7" stroke-linecap="round" stroke-linejoin="round" stroke-miterlimit="10" d="
		M360.33,250.06c-3,1.73-6,3.47-8.99,5.2"/>
	<path fill="none" stroke="#00A9A3" stroke-width="7" stroke-linecap="round" stroke-linejoin="round" stroke-miterlimit="10" d="
		M352.56,248.8c2.16,2.57,4.31,5.14,6.47,7.71"/>
	<path fill="none" stroke="#00A9A3" stroke-width="7" stroke-linecap="round" stroke-linejoin="round" stroke-miterlimit="10" d="
		M444.94,298.59c-2.8,2.57-5.59,5.15-8.39,7.72"/>
	<path fill="none" stroke="#00A9A3" stroke-width="7" stroke-linecap="round" stroke-linejoin="round" stroke-miterlimit="10" d="
		M436.31,299.7c2.78,1.95,5.57,3.89,8.35,5.84"/>
</g>
</svg>
