<?xml version="1.0" encoding="utf-8"?>
<!-- Generator: Adobe Illustrator 18.0.0, SVG Export Plug-In . SVG Version: 6.00 Build 0)  -->
<!DOCTYPE svg PUBLIC "-//W3C//DTD SVG 1.1//EN" "http://www.w3.org/Graphics/SVG/1.1/DTD/svg11.dtd">
<svg version="1.1" id="Layer_1" xmlns="http://www.w3.org/2000/svg" xmlns:xlink="http://www.w3.org/1999/xlink" x="0px" y="0px"
	 viewBox="0 0 684 357.2" enable-background="new 0 0 684 357.2" xml:space="preserve">
<path fill="none" stroke="#FFFFFF" stroke-width="120" stroke-linejoin="bevel" stroke-miterlimit="10" d="M319.5,29
	c-91.8-2.6-201.6,1.1-293.4-1.5c-5.3,104.9-3.6,210.1,5.2,314.8c15.8,4.6,33-5.4,41.9-19.2c8.9-13.9,11.5-30.7,13.9-47.1
	c7.4-50.5,14.7-100.9,22.1-151.4c1.9-12.7,3.9-25.9,10.6-36.9c6.8-11,19.7-19.2,32.3-16.5c11.6,2.5,19.8,13.6,22.5,25.2
	c2.7,11.6,0.8,23.7-1,35.5c-5.1,33.1-10.2,66.3-15.3,99.4c-3.8,24.5-7.3,50.9,4.3,72.8c14,26.4,46.7,38.2,76.7,36.9
	s58.2-12.8,86.7-22.1c85.7-28.1,177.6-37,267.1-25.6c19.9,2.5,43.5,4.8,56.8-10.3c11.2-12.6,9.1-33.3-1.5-46.4
	c-10.6-13.1-27.7-19.4-44.5-21s-33.6,0.9-50.4,2.3c-107,9-217.1-27.4-297.6-98.5c-9.1-8-19.9-17.1-31.8-14.6
	c-9.1,1.9-15.7,10.8-17.2,20s1.1,18.7,5,27.2c13.7,30.3,43.5,52.7,76.4,57.5c32.9,4.7,67.8-8.4,89.5-33.6
	c15.8-18.3,24.2-41.6,34.7-63.4c23.5-48.9,75.5-96.8,118.4-130"/>
<g>
	
		<line fill="none" stroke="#000000" stroke-width="7" stroke-linecap="round" stroke-linejoin="round" stroke-miterlimit="10" x1="10.3" y1="224.5" x2="556.3" y2="224.5"/>
	
		<line fill="none" stroke="#000000" stroke-width="7" stroke-linecap="round" stroke-linejoin="round" stroke-miterlimit="10" x1="32.3" y1="349" x2="32.3" y2="100"/>
	
		<polyline fill="none" stroke="#000000" stroke-width="7" stroke-linecap="round" stroke-linejoin="round" stroke-miterlimit="10" points="
		534.3,202 556.3,224.5 534.3,247 	"/>
	
		<polyline fill="none" stroke="#000000" stroke-width="7" stroke-linecap="round" stroke-linejoin="round" stroke-miterlimit="10" points="
		9.8,122.1 32.3,100.1 54.8,122.1 	"/>
</g>
<text transform="matrix(1 0 0 1 416.0459 282.9971)" font-family="'PermanentMarker'" font-size="30.74">amount of money</text>
<g>
	<g>
		<text transform="matrix(1 0 0 1 10.2646 62.0366)" fill="#00A99D" font-family="'PermanentMarker'" font-size="30.74">wage distribution</text>
	</g>
	<path fill="none" stroke="#00A99D" stroke-width="7" stroke-linecap="round" stroke-miterlimit="10" d="M33.9,219.8
		c21.5,12.1,49.7,3.7,68.4-12.5s30.5-38.7,43.7-59.6c13.2-20.9,29.4-41.6,52.5-50.5c29.2-11.3,62.7-0.8,88.9,16.5
		c26.2,17.2,47.6,40.7,72.8,59.3c48.9,35.9,112,52,172.1,43.7"/>
</g>
<g>
	<g>
		<text transform="matrix(1 0 0 1 10.2646 26.0005)" fill="#C1272D" font-family="'PermanentMarker'" font-size="30.74">enjoyment from job</text>
	</g>
	<path fill="none" stroke="#C1272D" stroke-width="7" stroke-linecap="round" stroke-linejoin="round" stroke-miterlimit="10" d="
		M55.7,86.4c30.2,34,42.1,80,55.8,123.4s32,88.7,69.4,114.5c37.7,26,91.5,25.9,129-0.3c31.4-21.8,49.7-58,61.4-94.4
		c11.7-36.4,18.1-74.5,32.3-110C426.3,63.1,468.8,14.9,522-14.7"/>
</g>
</svg>
