<?xml version="1.0" encoding="utf-8"?>
<!-- Generator: Adobe Illustrator 19.2.0, SVG Export Plug-In . SVG Version: 6.00 Build 0)  -->
<svg version="1.1" id="Layer_1" xmlns="http://www.w3.org/2000/svg" xmlns:xlink="http://www.w3.org/1999/xlink" x="0px" y="0px"
	 width="842.9px" height="596.3px" viewBox="0 0 842.9 596.3" enable-background="new 0 0 842.9 596.3" xml:space="preserve">
<path fill="none" stroke="#FFFFFF" stroke-width="120" stroke-linejoin="bevel" stroke-miterlimit="10" d="M26,3.5
	c-1.8,13.8-3.5,27.6-5.3,41.4C43.8,32.7,66.9,20.4,90,8.2C75.8,26,61.6,43.9,47.4,61.8C74,55,98,38.4,113.8,16
	c-10,17.1-19.9,34.1-29.9,51.2c22.3-18.5,44.7-37,67-55.5c-1,17.2-2.1,34.3-3.1,51.5c19-23,32.8-33.7,51.8-56.7
	C188.1,33.8,181.6,49,170,76.3c18.7-24.2,37.4-48.4,56.1-72.6c-9.2,31.9-18.5,63.8-27.7,95.7c24.1-32.1,48.2-64.2,72.3-96.2
	c-9.5,33.1-19,66.1-28.4,99.2c19.6-26.7,39.2-53.4,58.8-80.1c-4.8,27.3-9.6,54.6-14.4,82c23.7-29.1,47.4-58.3,71.1-87.4
	c-8,24.2-16.1,48.4-24.1,72.6c15.3-18.8,30.5-37.7,45.8-56.5c-1.5,23-2.9,45.9-4.4,68.9c17-6.1,34-12.2,51-18.3
	c-3.1,12-6.1,24.1-9.2,36.1c18.8-13.2,37.7-26.3,56.5-39.5c-4.3,12.3-8.5,24.6-12.8,36.9c17.3-5.4,34.6-10.8,51.9-16.2
	c0.5,30.5-21,60.1-50.1,69.1c29.3-19.8,58.6-39.6,87.8-59.3c-5,17.9-10.1,35.8-15.1,53.7c13.7-11.7,27.4-23.5,41.1-35.2
	c-5.6,16.2-11.2,32.4-16.8,48.6c23.3-11,46.6-22.1,69.9-33.1c6.6,4.9,3.3,16.3-3.7,20.6c-7,4.3-15.7,4-23.9,4.7
	c-8.2,0.7-17.3,3.1-21.2,10.3c-7.4,13.7,13.5,28.5,27.8,22.4c14.3-6.1,21-22.2,26.3-36.9c-9.6,23.9-19.3,47.7-28.9,71.6
	c15.6-10.6,31.3-21.2,46.9-31.9c-9.6,16.4-19.3,32.9-28.9,49.3c20.5-11.7,40.9-23.4,61.4-35c-17,27.1-34,54.1-51,81.2
	c21.5-11.8,43-23.7,64.4-35.5c-4.2,14.7-8.4,29.4-12.6,44.1c-0.8,3-1.7,5.9-2.1,9c-2.6,20.5,21.4,39,40.6,31.5
	c19.2-7.6,24-37.5,8.1-50.7c-5.6,11.2-11.2,22.3-16.8,33.5c19.3-10,38.6-20,57.9-30c-22.2,21.8-48.7,39.3-77.5,51
	c17.5-1.7,35.1-3.5,52.6-5.2c-19.1,24.1-38.3,48.2-57.4,72.3c12.8-6.2,25.6-12.4,38.5-18.6c-8.1,11.4-16.2,22.9-24.3,34.3
	c28.8-12.3,57.5-24.5,86.3-36.8c-1.2,9.6-2.4,19.2-3.5,28.8c12.2-6,24.3-12,36.5-18.1c-43.6-2.4-87.9,14.3-119,44.9
	c9.7,0.2,19.3,0.5,29,0.7c-6.2,14.7-12.5,29.3-18.7,44c10.9,6.3,25.8,4.7,35.2-3.7c-3.8,9.2-7.6,18.4-11.5,27.6
	c36.6,3.1,70.2,29.6,81.7,64.5c-6.7-31.6-13.4-63.2-20.1-94.9c-11.1,34.4-19.8,49.9-31,84.4c6.9-19.4,11.4-19.8,18.4-39.1
	c-2.2,13-4.4,25.9-6.6,38.9c2.8-10.3,5.6-20.6,8.3-30.8c-30.6,6.8-55,9.8-67.7,38.5c3-19.5,3.5-20.1,6.4-39.6
	c-7.5,10.9-15,21.8-22.4,32.8c5.8-18.1,11.5-36.2,17.3-54.3c-11.9,0.2-23.9,0.3-35.8,0.5c1.3-5.6,2.6-11.2,3.8-16.7
	c-18.4,12.6-36.9,25.3-55.3,37.9c7.8-21.4,15.6-42.8,23.3-64.3c-12.2,5-24.4,9.9-36.6,14.9c7.1-19.5,14.1-39,21.2-58.5
	c-13.1,12.1-26.3,24.1-39.4,36.2c3.7-55.1,32.1-108.1,75.9-141.7C655.9,394,619.1,450.8,573.2,499c1.1-16.2,2.2-32.3,3.3-48.5
	c-14,12.8-27.9,25.7-41.9,38.5c11.1-19.2,22.3-38.4,33.4-57.6c-9.4,7.9-18.8,15.8-28.2,23.6c4.5-9.4,8.9-18.7,13.4-28.1
	c-19.8,4-39.6,8.1-59.4,12.1c12.4-36.1,38.6-67.3,72.1-85.8c-31.2,16.3-62.3,32.6-93.5,48.8c0.3-17.3,0.6-34.7,0.9-52
	c-16.6,22-33.1,44-49.7,66.1c-0.3-19.6-0.7-39.3-1-58.9c-11.1,5.8-22.3,11.6-33.4,17.4c2.3-0.4,3.4-3.8,1.8-5.5
	c-1.7-1.7-5.1-0.6-5.5,1.7c24.8,0.5,48.1-20.6,50.2-45.3c-19.8,5.5-39.7,10.9-59.5,16.4c9.5-17.2,19-34.4,28.5-51.5
	c-13,4-26.1,7.9-39.1,11.9c2.1-10.2,4.2-20.4,6.3-30.6c-10.5,6.2-20.9,12.5-31.4,18.7c17.6-7.6,35.2-15.2,52.9-22.8
	c27.4-42,64.4-77.7,107.4-103.6c-54.5,35.2-101.7,81.5-138,135.2c0.8-4.3,1.6-8.5,2.5-12.8c-3.8,1.8-7.5,3.6-11.3,5.4
	c5-18.3,9.9-36.6,14.9-54.9c-16,6.2-31.9,12.4-47.9,18.5c14.6-19.3,29.2-38.6,43.9-57.9c-11.4,3.3-22.8,6.7-34.2,10
	c13.6-15.5,27.2-31,40.8-46.5c-20.5,18-41.1,36.1-61.6,54.1c13-23.4,25.9-46.8,38.9-70.1c-22.5,18.7-44.9,37.4-67.4,56.1
	c12.3-25.1,24.6-50.2,37-75.3c-16.3,14-32.7,28.1-49,42.1c19.2-23.7,38.5-47.4,57.7-71c-30.1,25.1-60.2,50.1-90.3,75.2
	c5.8-9.2,11.6-18.4,17.5-27.6c-13.8,7.8-27.6,15.6-41.4,23.4c4.2-9.2,8.3-18.4,12.5-27.7c-16.8,9.4-35.6,19.2-54.4,15.1
	c-18.8-4.2-32.1-30.5-17.8-43.3c-8.6,0.3-17.2,0.6-25.7,1c-0.2-8.5-0.3-16.9-0.5-25.4c0.9,4-4,8-7.7,6.3c-3.7-1.7-4.1-7.9-0.5-10
	c-15.2,5.5-30.4,11.1-45.6,16.6C78.9,96.8,85,93,91.1,89.2c-9.6,6-13.7,19.4-9.2,29.7c4.5,10.4,17.2,16.4,28.1,13.4
	c-2.9,8.7-5.9,17.5-8.8,26.2c6.3,0.5,12.7,1,19,1.4c-0.4,9.8-0.7,19.7-1.1,29.5c7-2.9,13.9-5.8,20.9-8.7c-5,10.1-9.9,20.3-14.9,30.4
	c5.1-5.5,10.2-11.1,15.3-16.6c-10.5,9.6-21.1,19.2-31.6,28.8c11.1-11.7,22.1-23.5,33.2-35.2c-1.8,17.3-3.5,34.6-5.3,52
	c21.4-10.1,42.7-20.2,64.1-30.4c-13.3,20.6-26.6,41.2-39.9,61.8c26-22.8,52-45.6,78-68.4c-10.5,15.7-21.1,31.4-31.6,47.1
	c13-3.7,26-7.3,39.1-11c-0.6,11.9-1.2,23.9-1.8,35.8c6.4-5.2,12.8-10.4,19.2-15.5c-4.4,15,16.6,29.8,29.2,20.6
	c16.5,14.4,43.5,14.8,60.3,0.8c-44.2,9.8-90.8,8.9-134.6-2.6c-10-2.6-20.5-6.1-27.2-14c-6.7-7.9-7.7-21.5,0.5-27.8
	c-15.4,2.5-28.7,14.5-32.9,29.5c12.8,1.8,25.5,3.5,38.3,5.3c-7.5,9.4-15,18.7-22.5,28.1c3.6,0.7,7.3,1.4,10.9,2
	c-6.6,11.6-13.3,23.3-19.9,34.9c3.6-0.6,7.2-1.1,10.7-1.7c7.8,10.1,0.1,25.9-11.4,31.5c-11.5,5.6-24.9,4.5-37.7,4.6
	c-12.8,0.1-26.9,2.2-35.2,11.9c2.7-12,5.4-24,8-36c-5.2,16.4-10.4,32.8-15.6,49.2c4.2,2.9,8.4,5.7,12.7,8.6
	c13.4-10.5,26.8-21.1,40.1-31.6c-1.3,4.4-2.6,8.7-3.9,13.1c15-5.1,29.9-10.2,44.9-15.3c-2.4,8.4-4.7,16.7-7.1,25.1
	c23.2-6.5,46.4-13.1,69.6-19.6c-3.3,6.2-6.6,12.3-9.9,18.5c3.5-7.9,7-15.8,10.4-23.7c-31.8,4-63.7,8-95.5,12
	c14.5,5.7,29,11.5,43.5,17.2c-9.8,7.2-19.5,14.4-29.3,21.6c2.5-2.5,5-5,7.6-7.4c8.7,5.8,20.4,6.7,29.9,2.4c-6,9-12,18.1-18,27.1
	c4.3-2.2,8.7-4.4,13-6.7c-15.2,9.7-30.4,19.4-45.6,29.2c18.9-3.8,37.8-7.5,56.8-11.3c-6.4,8-12.8,16.1-19.2,24.1
	c16.6-7.9,33.3-15.9,49.9-23.8c11.9-0.1,23.7-0.1,35.6-0.2c-3.3,6.8-6.6,13.6-10,20.4c3.5-4.8,7-9.7,10.5-14.5
	c-10.2,18.5-20.4,37.1-30.6,55.6c11.4-5.1,22.7-10.2,34.1-15.3c-4.3,7.9-8.6,15.9-12.9,23.8c10.9-4.4,21.9-8.8,32.8-13.2
	c-1.6,7-3.1,14-4.7,21c11.8-5.8,23.6-11.6,35.4-17.4c0.9,3.4,1.8,6.8,2.7,10.3c6.3-4.3,12.5-8.6,18.8-12.9c0,3.7,0.1,7.4,0.1,11.1
	c8.2-12.9,16.4-25.9,24.6-38.8c-9.4,25.7-18.8,51.4-28.2,77.1c19-26.6,38.1-53.2,57.1-79.7c-4,22.2-8,44.4-11.9,66.6
	c10.5-13.8,21-27.6,31.5-41.3c0.2,18.1,0.4,36.1,0.6,54.2c11.6-13.5,16.3-32.7,12.2-50.1c1.1,11.1,2.2,22.2,3.4,33.3
	c7.2-22.5,14.4-45.1,21.6-67.6c1.2,7.4,2.5,14.8,3.7,22.3c2.4-5.9,4.7-11.8,7.1-17.6c1.2,4.2,2.4,8.4,3.6,12.6
	c6-12.2,11.9-24.4,17.9-36.6c4.8,7.4,9.5,14.8,14.3,22.2c3.4-5.9,6.8-11.7,10.2-17.6c-0.9,7.2,13.4,7.7,13.1,0.5
	c-24.6,19.8-49.2,39.6-73.8,59.4c9.2-3.2,18.5-6.4,27.7-9.6c-4.3,8.2-8.6,16.4-12.9,24.6c6.7-3,13.5-6.1,20.2-9.1
	c-1.9,16.6-3.8,33.1-5.7,49.7c11.7-12.4,23.4-24.7,35.1-37.1c-4.1,15-8.3,30-12.4,45c-4.5-27.5-8.9-55-13.4-82.4
	c16.4,22.6,27.4,49.2,31.5,76.8c10.3-11.8,20.5-23.5,30.8-35.3c-0.5,8.1-1,16.2-1.6,24.3c7.7-3.6,15.5-7.2,23.2-10.7
	c-0.4,5.1-0.8,10.2-1.2,15.3c5.9-3,11.7-6.1,17.6-9.1c11,9.1,28.2,9.9,39.9,1.7c-0.4,9.7,9.5,18.5,19.1,16.8
	c-240.5-67-436-170.4-643.2-309.8c40.3-6.1,46.4-14.5,86.8-20.6c-40.8,4.2-47.4,10.8-88.3,15c54.6,11,77.7,5.9,131.1-10.1
	c-37.2,15.6-74.5,31.2-111.7,46.8c18-4.2,36-8.4,53.9-12.7c-11.8,8.6-23.6,17.3-35.4,25.9c23.1-4.9,46.3-9.8,69.4-14.6
	c-26.2,20.8-52.3,41.6-78.5,62.4c16.8-13.1,33.6-26.2,50.4-39.3c-10,9.8-20,19.5-30,29.3c22-9.8,43.9-19.7,65.9-29.5
	c-20.5,25.4-41,50.8-61.5,76.2c17-20.9,34-41.7,51-62.6c-6.4,3.2-12.9,6.4-19.3,9.6C82,300,71.9,250.3,61.9,200.5
	c-16.3,9.3-32.5,18.7-48.8,28c13.3-16.3,26.5-32.6,39.8-49c-10.5,26.6-21,53.1-31.4,79.7c8.5-2.3,14.9-10.7,15-19.4
	c0.1-8.8-6.2-17.3-14.6-19.7c10-16.1,20.1-32.1,30.1-48.2c-9.1,1.3-18.1,2.6-27.2,3.9c3.7-14.6,7.3-29.2,11-43.8
	c-5.4-1-10.8-1.9-16.2-2.9c8.3-15.2,16.5-30.4,24.8-45.5c-3.4,1.4-6.8,2.8-10.2,4.2c-0.2-4.8-0.5-9.5-0.7-14.3"/>
<g id="Arrow_right">
</g>
<text transform="matrix(1 0 0 1 18.7428 32.5844)"><tspan x="0" y="0" fill="#F09B36" font-family="'PermanentMarker'" font-size="30.74px">happier</tspan><tspan x="27.1" y="30" fill="#F09B36" font-family="'PermanentMarker'" font-size="30.74px">life</tspan></text>
<g>
	<path fill="none" stroke="#CE3045" stroke-width="7" stroke-linecap="round" stroke-linejoin="round" stroke-miterlimit="10" d="
		M150.6,19.7c25.5-4,51.5-4,77-0.1"/>
	<path fill="none" stroke="#CE3045" stroke-width="7" stroke-linecap="round" stroke-linejoin="round" stroke-miterlimit="10" d="
		M152.3,25.1c-2-1.2-4.1-2.4-6.1-3.6c1.4-1.9,2.9-3.8,4.3-5.7"/>
</g>
<text transform="matrix(1 0 0 1 243.8153 30.8264)" font-family="'PermanentMarker'" font-size="30.74px">love</text>
<g>
	<path fill="none" stroke="#CE3045" stroke-width="7" stroke-linecap="round" stroke-linejoin="round" stroke-miterlimit="10" d="
		M144.7,45.6c21-1.3,42.3,8.7,54.8,25.6"/>
	<path fill="none" stroke="#CE3045" stroke-width="7" stroke-linecap="round" stroke-linejoin="round" stroke-miterlimit="10" d="
		M147.2,51.1c-2.2-1.7-4.3-3.5-6.5-5.2c2.6-2,5.3-3.9,7.9-5.9"/>
</g>
<text transform="matrix(1 0 0 1 193.7867 101.8816)" font-family="'PermanentMarker'" font-size="30.74px">creativity</text>
<g>
	<path fill="none" stroke="#CE3045" stroke-width="7" stroke-linecap="round" stroke-linejoin="round" stroke-miterlimit="10" d="
		M126.7,84.6c13.8,26.4,34.5,49.1,59.5,65.4"/>
	<path fill="none" stroke="#CE3045" stroke-width="7" stroke-linecap="round" stroke-linejoin="round" stroke-miterlimit="10" d="
		M123.4,89.1c0-2.5,0.1-5.1,0.1-7.6c2.1,0.8,4.2,1.6,6.4,2.5"/>
</g>
<text transform="matrix(1 0 0 1 209.5033 163.1904)" font-family="'PermanentMarker'" font-size="30.74px">art</text>
<g>
	<path fill="none" stroke="#CE3045" stroke-width="7" stroke-linecap="round" stroke-linejoin="round" stroke-miterlimit="10" d="
		M88.9,85.5c7,39.4,27.4,76.4,57.2,103.1"/>
	<path fill="none" stroke="#CE3045" stroke-width="7" stroke-linecap="round" stroke-linejoin="round" stroke-miterlimit="10" d="
		M84.1,92.3c0.5-3.5,1-6.9,1.5-10.4c2.9,1.9,5.8,3.8,8.8,5.7"/>
</g>
<text transform="matrix(1 0 0 1 104.1383 221.2985)"><tspan x="0" y="0" font-family="'PermanentMarker'" font-size="30.74px">meaningful</tspan><tspan x="45.4" y="30" font-family="'PermanentMarker'" font-size="30.74px">work</tspan></text>
<g>
	<path fill="none" stroke="#CE3045" stroke-width="7" stroke-linecap="round" stroke-linejoin="round" stroke-miterlimit="10" d="
		M37.2,84.7c-14.4,50.1-8.5,105.6,16.1,151.5"/>
	<path fill="none" stroke="#CE3045" stroke-width="7" stroke-linecap="round" stroke-linejoin="round" stroke-miterlimit="10" d="
		M30.4,88.5c2.2-2.2,4.3-4.4,6.5-6.6c1.7,2.9,3.3,5.7,5,8.6"/>
</g>
<text transform="matrix(1 0 0 1 7.3082 273.549)" font-family="'PermanentMarker'" font-size="30.74px">sports</text>
<g>
	<path fill="none" stroke="#CE3045" stroke-width="7" stroke-linecap="round" stroke-linejoin="round" stroke-miterlimit="10" d="
		M336,74.7c5.3-5.4,12.8-8.6,20.4-8.7c7.6-0.1,15.2,2.9,20.6,8.1"/>
	<path fill="none" stroke="#CE3045" stroke-width="7" stroke-linecap="round" stroke-linejoin="round" stroke-miterlimit="10" d="
		M333.1,70.4c-0.4,2.4-0.8,4.8-1.2,7.2c2.7-0.3,5.4-0.7,8.1-1"/>
</g>
<g>
	<path fill="none" stroke="#CE3045" stroke-width="7" stroke-linecap="round" stroke-linejoin="round" stroke-miterlimit="10" d="
		M326.4,23.7c16.3-0.9,34-1.4,47.2,8.2c11.5,8.4,16.9,22.6,21.7,36"/>
	<path fill="none" stroke="#CE3045" stroke-width="7" stroke-linecap="round" stroke-linejoin="round" stroke-miterlimit="10" d="
		M326.8,18.7c-1.4,1.1-2.8,2.2-4.3,3.2c1.8,1.3,3.5,2.7,5.3,4"/>
</g>
<text transform="matrix(1 0 0 1 379.4325 101.8816)" font-family="'PermanentMarker'" font-size="30.74px">people</text>
<g>
	<path fill="none" stroke="#CE3045" stroke-width="7" stroke-linecap="round" stroke-linejoin="round" stroke-miterlimit="10" d="
		M374.2,250.7c-7.8-49.6-29.3-96.9-61.4-135.5"/>
	<path fill="none" stroke="#CE3045" stroke-width="7" stroke-linecap="round" stroke-linejoin="round" stroke-miterlimit="10" d="
		M310.3,122.7c0-3.8,0.1-7.7,0.1-11.5c2.9,0.7,5.8,1.4,8.7,2"/>
</g>
<g>
	<path fill="none" stroke="#CE3045" stroke-width="7" stroke-linecap="round" stroke-linejoin="round" stroke-miterlimit="10" d="
		M344.6,257.4c-9.7-37.7-38.1-70.1-74.1-84.7"/>
	<path fill="none" stroke="#CE3045" stroke-width="7" stroke-linecap="round" stroke-linejoin="round" stroke-miterlimit="10" d="
		M270.9,179.8c-1.2-3.1-2.3-6.3-3.5-9.4c2.2-0.8,4.3-1.6,6.5-2.4"/>
</g>
<g>
	<path fill="none" stroke="#CE3045" stroke-width="7" stroke-linecap="round" stroke-linejoin="round" stroke-miterlimit="10" d="
		M246.4,260.9c21.6,16.2,49.7,23.4,76.4,19.6"/>
	<path fill="none" stroke="#CE3045" stroke-width="7" stroke-linecap="round" stroke-linejoin="round" stroke-miterlimit="10" d="
		M243.2,265.7c0-2.5,0.1-5.1,0.1-7.6c2.4,0,4.7-0.1,7.1-0.1"/>
</g>
<text transform="matrix(1 0 0 1 341.8607 289.2847)" font-family="'PermanentMarker'" font-size="30.74px">time</text>
<g>
	<path fill="none" stroke="#CE3045" stroke-width="7" stroke-linecap="round" stroke-linejoin="round" stroke-miterlimit="10" d="
		M177.6,355.5c8.2-28.2,9.7-58.3,4.2-87.2"/>
	<path fill="none" stroke="#CE3045" stroke-width="7" stroke-linecap="round" stroke-linejoin="round" stroke-miterlimit="10" d="
		M177.2,272.9c1.1-2.2,2.2-4.4,3.3-6.7c1.8,1.5,3.7,3,5.5,4.5"/>
</g>
<text transform="matrix(1 0 0 1 83.6456 388.8626)" font-family="'PermanentMarker'" font-size="30.74px">motivation</text>
<g>
	<path fill="none" stroke="#CE3045" stroke-width="7" stroke-linecap="round" stroke-linejoin="round" stroke-miterlimit="10" d="
		M42,298.7c-3.3,29.5,10.4,60.4,34.6,77.7"/>
	<path fill="none" stroke="#CE3045" stroke-width="7" stroke-linecap="round" stroke-linejoin="round" stroke-miterlimit="10" d="
		M37.8,299.4c1.1-1.6,2.3-3.2,3.4-4.8c1.1,1.5,2.2,3.1,3.4,4.6"/>
</g>
<g>
	<path fill="none" stroke="#CE3045" stroke-width="7" stroke-linecap="round" stroke-linejoin="round" stroke-miterlimit="10" d="
		M81.5,283.1c12.3,6,21.3,17.8,25.9,30.7s5.3,27,4.3,40.7"/>
	<path fill="none" stroke="#CE3045" stroke-width="7" stroke-linecap="round" stroke-linejoin="round" stroke-miterlimit="10" d="
		M108.5,354.6c1.3,1.8,2.5,3.6,3.8,5.4c0.9-2.1,1.8-4.2,2.6-6.3"/>
</g>
<g>
	<path fill="none" stroke="#CE3045" stroke-width="7" stroke-linecap="round" stroke-linejoin="round" stroke-miterlimit="10" d="
		M489.5,91.1c7-1.8,14.7,0.5,20.3,5s9.6,10.9,12.1,17.7c2.5,6.8,3.8,13.9,5,21.1"/>
	<path fill="none" stroke="#CE3045" stroke-width="7" stroke-linecap="round" stroke-linejoin="round" stroke-miterlimit="10" d="
		M492.7,96.5c-1.8-1.9-3.6-3.8-5.4-5.7c2.1-1.8,4.1-3.7,6.2-5.5"/>
</g>
<text transform="matrix(1 0 0 1 451.5766 163.1902)" font-family="'PermanentMarker'" font-size="30.74px">opportunities</text>
<g>
	<path fill="none" stroke="#CE3045" stroke-width="7" stroke-linecap="round" stroke-linejoin="round" stroke-miterlimit="10" d="
		M399.6,253.4c-2.6-9.1,2.1-19.1,9.4-25.1c7.3-6.1,16.6-9,25.8-11.4c9.2-2.4,18.6-4.6,26.7-9.5c10.9-6.6,18.7-18.2,20.7-30.8"/>
	<path fill="none" stroke="#CE3045" stroke-width="7" stroke-linecap="round" stroke-linejoin="round" stroke-miterlimit="10" d="
		M477,177.7c1.9-2.1,3.9-4.3,5.8-6.4c1.1,2.3,2.2,4.7,3.3,7"/>
</g>
<g>
	<path fill="none" stroke="#CE3045" stroke-width="7" stroke-linecap="round" stroke-linejoin="round" stroke-miterlimit="10" d="
		M593.8,172.3c-0.9,5.1,1.4,10.6,5.5,13.6c3.1,2.3,7,3.1,10.4,4.8c8.9,4.3,14.7,14.5,13.7,24.4"/>
	<path fill="none" stroke="#CE3045" stroke-width="7" stroke-linecap="round" stroke-linejoin="round" stroke-miterlimit="10" d="
		M589.7,174.4c1.5-1.8,3-3.6,4.4-5.5c1.1,1.5,2.2,2.9,3.3,4.4"/>
</g>
<text transform="matrix(1 0 0 1 598.3388 241.1569)" font-family="'PermanentMarker'" font-size="30.74px">places</text>
<g>
	<path fill="none" stroke="#CE3045" stroke-width="7" stroke-linecap="round" stroke-linejoin="round" stroke-miterlimit="10" d="
		M169.1,398.2c-3.6,7-1.6,16.5,4.7,21.4c4.7,3.7,10.9,4.7,16.3,7.2c5.4,2.5,10.7,7.7,9.5,13.5"/>
	<path fill="none" stroke="#CE3045" stroke-width="7" stroke-linecap="round" stroke-linejoin="round" stroke-miterlimit="10" d="
		M161.9,404.1c2.1-2.3,4.3-4.7,6.4-7c1.9,1.7,3.7,3.3,5.6,5"/>
</g>
<text transform="matrix(1 0 0 1 159.5696 465.1719)" font-family="'PermanentMarker'" font-size="30.74px">wake up</text>
<g>
	<path fill="none" stroke="#CE3045" stroke-width="7" stroke-linecap="round" stroke-linejoin="round" stroke-miterlimit="10" d="
		M257.5,482.2c-2.7,7.4-0.6,16.2,5,21.6c5.5,5.3,13.5,7,21.1,7.4s15.3-0.4,22.8,0.9c7.5,1.2,15.2,4.9,18.7,11.7"/>
	<path fill="none" stroke="#CE3045" stroke-width="7" stroke-linecap="round" stroke-linejoin="round" stroke-miterlimit="10" d="
		M251.5,487.3c1.4-2.8,2.8-5.5,4.2-8.3c1.7,2,3.3,3.9,5,5.9"/>
</g>
<text transform="matrix(1 0 0 1 351.1163 516.962)"><tspan x="0" y="0" font-family="'PermanentMarker'" font-size="30.74px">sleep</tspan><tspan x="-8.5" y="30" font-family="'PermanentMarker'" font-size="30.74px">better</tspan></text>
<g>
	<path fill="none" stroke="#CE3045" stroke-width="7" stroke-linecap="round" stroke-linejoin="round" stroke-miterlimit="10" d="
		M381.2,297.5c-1.9,3.8-0.2,8.7,3,11.6s7.6,4,11.8,4.5c4.3,0.6,8.6,0.7,12.7,1.8c12,3.4,20.3,16.5,18.2,28.8"/>
	<path fill="none" stroke="#CE3045" stroke-width="7" stroke-linecap="round" stroke-linejoin="round" stroke-miterlimit="10" d="
		M376.2,301.6c1.2-2.2,2.4-4.3,3.6-6.5c1.4,1.8,2.7,3.5,4.1,5.3"/>
</g>
<text transform="matrix(1 0 0 1 383.2835 373.3088)"><tspan x="0" y="0" font-family="'PermanentMarker'" font-size="30.74px">stop wasting</tspan><tspan x="64.8" y="30" font-family="'PermanentMarker'" font-size="30.74px">time</tspan></text>
<g>
	<path fill="none" stroke="#CE3045" stroke-width="7" stroke-linecap="round" stroke-linejoin="round" stroke-miterlimit="10" d="
		M651.3,254.3c-2.4,4.2-0.7,9.8,2.6,13.3s8.1,5.3,12.7,6.8c4.6,1.5,9.4,2.9,13.3,5.7s6.9,7.6,6,12.4"/>
	<path fill="none" stroke="#CE3045" stroke-width="7" stroke-linecap="round" stroke-linejoin="round" stroke-miterlimit="10" d="
		M645.7,258.5c1.6-2.4,3.3-4.8,4.9-7.2c1.8,2.5,3.6,5,5.4,7.5"/>
</g>
<text transform="matrix(1 0 0 1 662.8087 322.4775)" font-family="'PermanentMarker'" font-size="30.74px">get out</text>
<g>
	<path fill="none" stroke="#CE3045" stroke-width="7" stroke-linecap="round" stroke-linejoin="round" stroke-miterlimit="10" d="
		M447.7,526.1c5.2,2.1,11.1,0.6,16.2-1.7c5.1-2.3,9.9-5.4,15.3-6.7c7.7-1.9,16.3,0.2,22.3,5.5s9.2,13.5,8.3,21.4"/>
	<path fill="none" stroke="#CE3045" stroke-width="7" stroke-linecap="round" stroke-linejoin="round" stroke-miterlimit="10" d="
		M449.1,531.1c-1.5-1.6-3.1-3.2-4.6-4.8c2-1.3,4.1-2.5,6.1-3.8"/>
</g>
<text transform="matrix(1 0 0 1 475.3173 571.8535)" font-family="'PermanentMarker'" font-size="30.74px">eat less</text>
<g>
	<path fill="none" stroke="#CE3045" stroke-width="7" stroke-linecap="round" stroke-linejoin="round" stroke-miterlimit="10" d="
		M526.9,462.9c-9-2.5-18.8,1.4-26.3,7c-7.5,5.6-13.5,13-20.7,19s-16.3,10.8-25.6,9.6"/>
	<path fill="none" stroke="#CE3045" stroke-width="7" stroke-linecap="round" stroke-linejoin="round" stroke-miterlimit="10" d="
		M454,493.7c-1.9,1.9-3.7,3.9-5.6,5.8c1.8,0.8,3.6,1.7,5.5,2.5"/>
</g>
<text transform="matrix(1 0 0 1 539.4714 471.9246)" font-family="'PermanentMarker'" font-size="30.74px">less tv</text>
<g>
	<path fill="none" stroke="#CE3045" stroke-width="7" stroke-linecap="round" stroke-linejoin="round" stroke-miterlimit="10" d="
		M511.9,412.8c-1.7,5,0,11.1,4.1,14.4c4.1,3.3,9.7,3.8,15,3.8c5.2,0,10.7-0.4,15.6,1.6c4.9,2,8.9,7.2,7.6,12.2"/>
	<path fill="none" stroke="#CE3045" stroke-width="7" stroke-linecap="round" stroke-linejoin="round" stroke-miterlimit="10" d="
		M507,415.5c1.4-1.8,2.8-3.5,4.1-5.3c1.4,1.6,2.7,3.1,4.1,4.7"/>
</g>
<g>
	<path fill="none" stroke="#CE3045" stroke-width="7" stroke-linecap="round" stroke-linejoin="round" stroke-miterlimit="10" d="
		M614.1,433.8c-6.6-14.1,4.1-29.4,14.9-37.8c12.9-9.9,28.3-16.2,37.7-30.1c5-7.3,8.2-15.7,9.4-24.4"/>
	<path fill="none" stroke="#CE3045" stroke-width="7" stroke-linecap="round" stroke-linejoin="round" stroke-miterlimit="10" d="
		M669.6,344.9c2.2-2.1,4.4-4.2,6.6-6.3c1.1,2,2.2,4,3.3,6"/>
</g>
<g>
	<path fill="none" stroke="#CE3045" stroke-width="7" stroke-linecap="round" stroke-linejoin="round" stroke-miterlimit="10" d="
		M713.5,340.1c-1.1,5.6-2,11.9,1.3,16.6c2.1,3,5.6,4.7,8.5,6.9c7.9,5.9,11.8,16.7,9.6,26.3"/>
	<path fill="none" stroke="#CE3045" stroke-width="7" stroke-linecap="round" stroke-linejoin="round" stroke-miterlimit="10" d="
		M708.5,341.3c1.5-2.3,3.1-4.5,4.6-6.8c1.6,3,3.3,5.9,4.9,8.9"/>
</g>
<text transform="matrix(1 0 0 1 685.3604 422.9919)" font-family="'PermanentMarker'" font-size="30.74px">own less</text>
<g>
	<path fill="none" stroke="#CE3045" stroke-width="7" stroke-linecap="round" stroke-linejoin="round" stroke-miterlimit="10" d="
		M749.8,514.4c-11.6-8.8-20.5-21.1-25.1-34.9c-4.7-13.8-5.1-29-1.2-43"/>
	<path fill="none" stroke="#CE3045" stroke-width="7" stroke-linecap="round" stroke-linejoin="round" stroke-miterlimit="10" d="
		M718.9,439.8c2-2.8,3.9-5.5,5.9-8.3c-0.2,2.8,0.4,5.6,1.8,8.1"/>
</g>
<g>
	<path fill="none" stroke="#CE3045" stroke-width="7" stroke-linecap="round" stroke-linejoin="round" stroke-miterlimit="10" d="
		M635.7,483.3c12.1,22.3,35.3,38.3,60.5,41.8"/>
	<path fill="none" stroke="#CE3045" stroke-width="7" stroke-linecap="round" stroke-linejoin="round" stroke-miterlimit="10" d="
		M633.4,486.5c0.2-2.2,0.4-4.5,0.6-6.7c1.4,0.8,2.8,1.6,4.2,2.5"/>
</g>
<g>
	<path fill="none" stroke="#CE3045" stroke-width="7" stroke-linecap="round" stroke-linejoin="round" stroke-miterlimit="10" d="
		M606.3,569.3c20.3,9,43.5,11.2,65.1,6"/>
	<path fill="none" stroke="#CE3045" stroke-width="7" stroke-linecap="round" stroke-linejoin="round" stroke-miterlimit="10" d="
		M606.1,575.5c-1.4-2.3-2.9-4.6-4.3-6.9c2.8-1.2,5.6-2.3,8.4-3.5"/>
</g>
<text transform="matrix(1 0 0 1 712.9868 553.6306)"><tspan x="0" y="0" fill="#F09B36" font-family="'PermanentMarker'" font-size="30.74px">be less</tspan><tspan x="-15.2" y="30" fill="#F09B36" font-family="'PermanentMarker'" font-size="30.74px">american</tspan></text>
<g id="Arrow_up">
</g>
</svg>
