<?xml version="1.0" encoding="utf-8"?>
<!-- Generator: Adobe Illustrator 19.2.0, SVG Export Plug-In . SVG Version: 6.00 Build 0)  -->
<svg version="1.1" id="Layer_1" xmlns="http://www.w3.org/2000/svg" xmlns:xlink="http://www.w3.org/1999/xlink" x="0px" y="0px"
	 width="800.3px" height="568.8px" viewBox="0 0 800.3 568.8" enable-background="new 0 0 800.3 568.8" xml:space="preserve">
<path fill="none" stroke="#FFFFFF" stroke-width="120" stroke-linejoin="bevel" stroke-miterlimit="10" d="M33.2,5.9
	c-3.9,19.6-7.7,39.3-11.6,58.9C45.1,43.2,68.5,21.6,92,0c-5.4,21-10.9,42-16.3,63c19.9-20.7,39.7-41.3,59.6-62
	c-5.4,20.9-10.9,41.9-16.3,62.8c20.5-20.3,40.9-40.5,61.4-60.8c-5.5,22.3-11,44.6-16.5,66.9c13.7-19,27.4-38.1,41.1-57.1
	C158,61.5,89.7,89,22.1,86.4c13.9,4.2,27.8,8.5,41.7,12.7c-13.7,31.7-27.4,63.4-41.1,95.1c7.4-5.6,14.8-11.1,22.3-16.7
	c-5.5,24.1-11,48.2-16.5,72.3c30.2-21.9,52.6-54.4,62.3-90.4c-4.7,39.1-9.4,78.2-14.1,117.4c20.2-34.3,40.5-68.6,60.7-103
	c-0.5,25.7-0.9,51.4-1.4,77.2c11.1-33.1,22.2-66.1,33.3-99.2c-2.9,35,2,70.7,14.2,103.7c23.3-26.5,12.2-74.8-20.3-88.5
	c-29-12.2-69.8-1.5-87.8-27.4c5.1-7.9,10.2-15.8,15.3-23.7c11.8,11.7,23.6,23.3,35.4,35C147.5,91.3,190.8,39.7,245.8,8.2
	c-7.1,29-14.3,58-21.4,87.1c13.4-17.5,26.8-35.1,40.2-52.6c-7.1,20.9-14.2,41.7-21.3,62.6c16.5-19.5,33.1-39,49.6-58.5
	c-4.4,16.8-8.8,33.6-13.2,50.4c17.5-20.9,35.1-41.8,52.6-62.7c-2.1,5-4.1,10-6.2,15.1c3.6-0.8,7.1-1.7,10.7-2.5
	c-42.3,27.7-84.6,55.4-127,83c39.2-14.8,78.5-29.6,117.7-44.4C313,117.9,287,145,255.2,161c-3.1-10.3-6.3-20.6-9.4-30.9
	c-8.4,24.6-16.8,49.1-25.2,73.7c10.8-12.9,21.5-25.7,32.3-38.6c-4.3,13.6-8.7,27.1-13,40.7c10.3-11.2,20.6-22.4,30.9-33.6
	c-12.2,23.1-24.5,46.1-36.7,69.2c39-3.7,78-7.3,117-11c10-0.9,23.4-6.7,20.3-16.2c-1.5-4.5-6.3-6.8-10.7-8.6
	c-28.7-12.1-57.4-24.3-86.1-36.4c31.5-1.9,63-3.8,94.5-5.7c8.2,10,6.6,26.5-3.4,34.7c21-59.6,42-119.2,63-178.9
	c-3.6,15.1-7.2,30.1-10.8,45.2c19.1-20.9,38.3-41.9,57.4-62.8c-8.2,24.2-16.5,48.3-24.7,72.5c17.3-19.5,34.6-39,51.9-58.5
	c-5.6,15.9-11.2,31.8-16.8,47.8c16.8-15.7,33.7-31.4,50.5-47.1c-4.3,13.8-8.7,27.6-13,41.4c13.3-16.7,26.7-33.3,40-50
	c2,19.4-12.8,37.2-30.2,45.9c-17.5,8.7-37.4,10.5-56.5,14.1c-19.2,3.5-39.1,9.6-52.1,24.1c18.1-1.2,36.2-2.4,54.2-3.6
	c-10.7,7.2-21.4,14.4-32.1,21.6c31.4-7.6,62.8-15.3,94.1-22.9c3.7,11.4,7.4,22.9,11,34.3c-8.6-16.9-29-27-47.6-23.4
	s-33.9,20.4-35.6,39.4c4.1-4.2,8.2-8.3,12.3-12.5c-15.9-10-39.9-2.7-47.5,14.4c11.4,0.5,22.7,0.9,34.1,1.4c5.1,8.5-4.3,19-13.9,21.7
	c-9.6,2.7-20.5,2.1-28.6,7.9c-11.9,8.6-9.4,30.4,4.2,36c13.6,5.6,30.8-8,28.4-22.5c-3.4,8.6-6.8,17.1-10.2,25.7
	c-3.3-14.3,11.6-26.9,26-29.2s29.1,2,43.8,1.6c14.6-0.4,31.3-7.9,33.7-22.3c0.8,10,13.8,16.6,22.3,11.3c4.1,22.5,2.2,46-5.4,67.5
	c-1.3-12.3-2.6-24.5-3.9-36.8c-2.9,11.2-5.8,22.4-8.6,33.6c-13.2-10.8-36.7-2.5-40.2,14.2c-0.5-9-0.9-17.9-1.4-26.9
	c-13.9,6.5-27.8,13-41.6,19.5c-13.8-9.3-33.5-8.7-46.7,1.5c43.2-43.1,96.2-76.5,153.8-96.8c-4-22.5-3.7-45.8,1-68.2
	c2-9.6,5-19.3,11.3-26.7s16.9-12,26.2-9s15.1,15.4,9.6,23.5c3.7-6.7,7.4-13.4,11.1-20.1c-9.3,23.9-18.5,47.8-27.8,71.8
	c17.6-27.7,35.1-55.4,52.7-83c0.8,20,1.6,39.9,2.4,59.9c21.6-20.1,35-48.8,36.7-78.3c-5.9,27.7-11.8,55.4-17.7,83.1
	c8.9,0.7,17.7-6.3,19-15.1c-17.3-1.7-35.5-3.3-51.2,4.1c-15.7,7.4-26.9,27.3-18.7,42.6c7.7,14.4,28.6,17,43.3,9.9
	c14.7-7.1,24.7-21.1,34.1-34.5c6.6,11.4,13.3,22.9,19.9,34.3c3-8.1,6-16.3,9-24.4c37.6,37.2,46.5,100,20.8,146.1
	c0.7-33.3-6.6-66.7-21.1-96.6c1.9,28.9-3.2,58.3-14.8,84.9c8.6-21,16.3-47.5,1-64.3c-8.8-9.6-22.6-12.5-35.6-14.2
	c-17.6-2.3-35.4-3.2-53.2-2.8c-3.9,0.1-8,0.3-11.6,1.8c-13,5.6-12,26.3-1.1,35.3s26.5,9,40.5,7s28.3-5.4,42-1.9
	c15,3.9,28,20.4,21.5,34.4c-6.5,14-26.5,14.9-40.8,9.3c-14.3-5.6-27.3-15.8-42.7-17c-43.3-3.7-68.2,61.6-111.6,59.4
	c-19.8-1-41-16.2-57.4-5.1c-6.6,4.5-10.5,12.5-17.5,16.2c-10.8,5.8-24.1-0.6-33.6-8.5c-9.4-7.9-18.4-17.7-30.5-19.7
	c-19.8-3.3-36.4,15.7-56.2,19.2c-14.2,2.5-28.5-3.1-42.1-8c-13.6-4.9-28.8-9.1-42.2-3.7c-13.4,5.4-21.6,24.6-11.3,34.8
	c13.6,0.7,27.1,1.4,40.7,2c-4.3,19.4-8.5,38.7-12.8,58.1c-4.5,20.5-9,40.9-13.5,61.4c6,15.5,2.9,34.1-7.8,46.8
	c13.3,2.7,26.5,5.4,39.8,8.2c-30.5,18.7-61.1,37.4-91.6,56c38.9-0.4,74.5-34.3,76.8-73.1c4.9,28,9.7,56,14.6,84
	c21.6-25,43.2-49.9,64.8-74.9c3.3,18.5,6.6,37,9.9,55.5c16.8-17.3,33.6-34.7,50.3-52c5.4,16.1,10.7,32.2,16.1,48.3
	c12.1-18.3,24.2-36.6,36.4-54.9c-2.8,18,8.3,38.6,26.2,41.6c15.2,2.5,30.2-8.1,37.7-21.5s9.2-29.3,10.7-44.7
	c7.3,14.6,8.9,31.2,12.9,47.1c4,15.8,11.3,32.2,25.6,40.1c14.3,7.9,36.3,2.1,39.8-13.8c0.3-4.1,0.5-8.3,0.8-12.4
	c-111.3,27-231.2,17.2-336.7-27.4c3.5-26,27-44,48.6-58.9c41-28.4,82.1-56.8,123.1-85.2c12.9-8.9,27.2-18.3,42.9-17
	c25.1,2,39.3,28.9,48.9,52.2c7.3,17.9,14.8,36.1,16.3,55.4c1.5,19.3-3.9,40.1-18.5,52.7c-19.2,16.6-47.6,14.8-72.7,12.1
	c-65.9-7-131.8-14-197.6-21"/>
<g id="Arrow_right">
</g>
<g>
	<g>
		
			<line fill="none" stroke="#000000" stroke-width="7" stroke-linecap="round" stroke-linejoin="round" stroke-miterlimit="10" x1="48.1" y1="73.1" x2="48.1" y2="196"/>
		
			<line fill="none" stroke="#000000" stroke-width="7" stroke-linecap="round" stroke-linejoin="round" stroke-miterlimit="10" x1="25.6" y1="173.5" x2="183.1" y2="173.5"/>
		<g>
			
				<polyline fill="none" stroke="#000000" stroke-width="7" stroke-linecap="round" stroke-linejoin="round" stroke-miterlimit="10" points="
				25.6,95.1 48.1,73.1 70.6,95.1 			"/>
		</g>
		<g>
			
				<polyline fill="none" stroke="#000000" stroke-width="7" stroke-linecap="round" stroke-linejoin="round" stroke-miterlimit="10" points="
				161.1,151 183.1,173.5 161.1,196 			"/>
		</g>
	</g>
	<g>
		<text transform="matrix(1 0 0 1 21.6118 30.8256)"><tspan x="0" y="0" fill="#F09B36" font-family="'PermanentMarker'" font-size="30.74px">consumption</tspan><tspan x="0" y="30" fill="#F09B36" font-family="'PermanentMarker'" font-size="30.74px">of alcool</tspan></text>
	</g>
	<text transform="matrix(1 0 0 1 145.9536 217.3794)" fill="#AD123C" font-family="'PermanentMarker'" font-size="30.74px">i.q.</text>
	<path fill="none" stroke="#AD123C" stroke-width="7" stroke-linecap="round" stroke-linejoin="round" stroke-miterlimit="10" d="
		M66.1,152.5c15.4,6.2,33.4,2.2,47.6-6.5s25.2-21.5,36-34.1"/>
	<text transform="matrix(1 0 0 1 30.9204 245.6138)" fill="#507282" font-family="'PermanentMarker'" font-size="30.74px">depression</text>
	<path fill="none" stroke="#507282" stroke-width="7" stroke-linecap="round" stroke-linejoin="round" stroke-miterlimit="10" d="
		M65,135.2c5.2,5.2,13.3,6.8,20.6,5.6s14-4.8,20.2-8.9c16.2-10.5,30.5-23.9,41.9-39.5"/>
</g>
<g>
	
		<line fill="none" stroke="#000000" stroke-width="7" stroke-linecap="round" stroke-linejoin="round" stroke-miterlimit="10" x1="269.2" y1="310.2" x2="269.2" y2="516.2"/>
	
		<line fill="none" stroke="#000000" stroke-width="7" stroke-linecap="round" stroke-linejoin="round" stroke-miterlimit="10" x1="247.9" y1="493.7" x2="557.9" y2="493.7"/>
	<g>
		
			<polyline fill="none" stroke="#000000" stroke-width="7" stroke-linecap="round" stroke-linejoin="round" stroke-miterlimit="10" points="
			535.9,471.2 557.9,493.7 535.9,516.2 		"/>
	</g>
	<g>
		
			<polyline fill="none" stroke="#000000" stroke-width="7" stroke-linecap="round" stroke-linejoin="round" stroke-miterlimit="10" points="
			246.7,332.2 269.2,310.2 291.7,332.2 		"/>
	</g>
</g>
<text transform="matrix(1 0 0 1 190.2088 546.9288)"><tspan x="0" y="0" font-family="'PermanentMarker'" font-size="30.74px">correlation with </tspan><tspan x="270.5" y="0" fill="#507282" font-family="'PermanentMarker'" font-size="30.74px">depression</tspan></text>
<text transform="matrix(1 0 0 1 246.2254 299.0455)"><tspan x="0" y="0" font-family="'PermanentMarker'" font-size="30.74px">correlation with </tspan><tspan x="270.5" y="0" fill="#AD123C" font-family="'PermanentMarker'" font-size="30.74px">i.q.</tspan></text>
<path fill="none" stroke="#F09B36" stroke-width="7" stroke-linecap="round" stroke-linejoin="round" stroke-miterlimit="10" d="
	M323.8,440.5c-0.5,1.5,1,3.3,2.6,3.1c1.6-0.2,2.6-2.3,1.7-3.6c-0.9-0.1-1.9-0.1-2.8-0.2"/>
<g>
	<g>
		
			<line fill="none" stroke="#000000" stroke-width="7" stroke-linecap="round" stroke-linejoin="round" stroke-miterlimit="10" x1="245.2" y1="73.1" x2="245.2" y2="196"/>
		
			<line fill="none" stroke="#000000" stroke-width="7" stroke-linecap="round" stroke-linejoin="round" stroke-miterlimit="10" x1="222.7" y1="173.5" x2="380.1" y2="173.5"/>
		<g>
			
				<polyline fill="none" stroke="#000000" stroke-width="7" stroke-linecap="round" stroke-linejoin="round" stroke-miterlimit="10" points="
				222.7,95.1 245.2,73.1 267.7,95.1 			"/>
		</g>
		<g>
			
				<polyline fill="none" stroke="#000000" stroke-width="7" stroke-linecap="round" stroke-linejoin="round" stroke-miterlimit="10" points="
				358.1,151 380.1,173.5 358.1,196 			"/>
		</g>
	</g>
	<g>
		<text transform="matrix(1 0 0 1 218.6768 61.0659)" fill="#ED7C31" font-family="'PermanentMarker'" font-size="30.74px">cynicism</text>
	</g>
	<text transform="matrix(1 0 0 1 343.019 217.3794)" fill="#AD123C" font-family="'PermanentMarker'" font-size="30.74px">i.q.</text>
	<path fill="none" stroke="#AD123C" stroke-width="7" stroke-linecap="round" stroke-linejoin="round" stroke-miterlimit="10" d="
		M272.3,161.8c22.7-22.7,45.3-45.4,68-68.1"/>
	<text transform="matrix(1 0 0 1 227.9858 245.6138)" fill="#507282" font-family="'PermanentMarker'" font-size="30.74px">depression</text>
	<path fill="none" stroke="#507282" stroke-width="7" stroke-linecap="round" stroke-linejoin="round" stroke-miterlimit="10" d="
		M261.5,151.9c20.9-23.4,43.4-45.4,67.3-65.7"/>
</g>
<path fill="none" stroke="#ED7C31" stroke-width="7" stroke-linecap="round" stroke-linejoin="round" stroke-miterlimit="10" d="
	M485.6,336.6c0.4,1.3,2.1,1.9,3.3,1.3c1.2-0.6,1.7-2.3,1-3.4c-0.9,0-1.9-0.1-2.8-0.1"/>
<g>
	<g>
		
			<line fill="none" stroke="#000000" stroke-width="7" stroke-linecap="round" stroke-linejoin="round" stroke-miterlimit="10" x1="442.2" y1="73.1" x2="442.2" y2="196"/>
		
			<line fill="none" stroke="#000000" stroke-width="7" stroke-linecap="round" stroke-linejoin="round" stroke-miterlimit="10" x1="419.7" y1="173.5" x2="577.2" y2="173.5"/>
		<g>
			
				<polyline fill="none" stroke="#000000" stroke-width="7" stroke-linecap="round" stroke-linejoin="round" stroke-miterlimit="10" points="
				419.7,95.1 442.2,73.1 464.7,95.1 			"/>
		</g>
		<g>
			
				<polyline fill="none" stroke="#000000" stroke-width="7" stroke-linecap="round" stroke-linejoin="round" stroke-miterlimit="10" points="
				555.2,151 577.2,173.5 555.2,196 			"/>
		</g>
	</g>
	<g>
		<text transform="matrix(1 0 0 1 415.7427 30.8253)"><tspan x="0" y="0" fill="#B55232" font-family="'PermanentMarker'" font-size="30.74px">antisocial</tspan><tspan x="0" y="30" fill="#B55232" font-family="'PermanentMarker'" font-size="30.74px">behavior</tspan></text>
	</g>
	<text transform="matrix(1 0 0 1 540.0847 217.3794)" fill="#AD123C" font-family="'PermanentMarker'" font-size="30.74px">i.q.</text>
	<path fill="none" stroke="#AD123C" stroke-width="7" stroke-linecap="round" stroke-linejoin="round" stroke-miterlimit="10" d="
		M462.8,161.6c14.4-34.8,47.7-61,84.8-66.9"/>
	<text transform="matrix(1 0 0 1 425.0515 245.6138)" fill="#507282" font-family="'PermanentMarker'" font-size="30.74px">depression</text>
	<path fill="none" stroke="#507282" stroke-width="7" stroke-linecap="round" stroke-linejoin="round" stroke-miterlimit="10" d="
		M452.7,149.5c14.6-38.4,51.8-67.2,92.6-71.8"/>
</g>
<path fill="none" stroke="#B55232" stroke-width="7" stroke-linecap="round" stroke-linejoin="round" stroke-miterlimit="10" d="
	M369.1,411.6c-0.7,1.4-1.4,2.8-2.1,4.3c1.4,0.3,2.8,0.5,4.2,0.8C372,414.7,371,412.3,369.1,411.6"/>
<g>
	<g>
		
			<line fill="none" stroke="#000000" stroke-width="7" stroke-linecap="round" stroke-linejoin="round" stroke-miterlimit="10" x1="639.3" y1="73.1" x2="639.3" y2="196"/>
		
			<line fill="none" stroke="#000000" stroke-width="7" stroke-linecap="round" stroke-linejoin="round" stroke-miterlimit="10" x1="616.8" y1="173.5" x2="774.3" y2="173.5"/>
		<g>
			
				<polyline fill="none" stroke="#000000" stroke-width="7" stroke-linecap="round" stroke-linejoin="round" stroke-miterlimit="10" points="
				616.8,95.1 639.3,73.1 661.8,95.1 			"/>
		</g>
		<g>
			
				<polyline fill="none" stroke="#000000" stroke-width="7" stroke-linecap="round" stroke-linejoin="round" stroke-miterlimit="10" points="
				752.3,151 774.3,173.5 752.3,196 			"/>
		</g>
	</g>
	<g>
		<text transform="matrix(1 0 0 1 612.8082 61.066)" fill="#824737" font-family="'PermanentMarker'" font-size="30.74px">anxiety</text>
	</g>
	<text transform="matrix(1 0 0 1 737.15 217.3793)" fill="#AD123C" font-family="'PermanentMarker'" font-size="30.74px">i.q.</text>
	<path fill="none" stroke="#AD123C" stroke-width="7" stroke-linecap="round" stroke-linejoin="round" stroke-miterlimit="10" d="
		M652.5,161.8c31.6-11.3,63.2-22.5,94.7-33.8"/>
	<text transform="matrix(1 0 0 1 622.1168 245.6137)" fill="#507282" font-family="'PermanentMarker'" font-size="30.74px">depression</text>
	<path fill="none" stroke="#507282" stroke-width="7" stroke-linecap="round" stroke-linejoin="round" stroke-miterlimit="10" d="
		M652,144.9c31.7-11.6,63.4-23.1,95.2-34.7"/>
</g>
<path fill="none" stroke="#824737" stroke-width="7" stroke-linecap="round" stroke-linejoin="round" stroke-miterlimit="10" d="
	M418.4,381.2c0.5,2.3,1,4.5,1.5,6.8c2-1.9,2.5-5.2,1.1-7.6"/>
<g id="Arrow_up">
</g>
</svg>
