<?xml version="1.0" encoding="utf-8"?>
<!-- Generator: Adobe Illustrator 19.2.0, SVG Export Plug-In . SVG Version: 6.00 Build 0)  -->
<svg version="1.1" id="Layer_1" xmlns="http://www.w3.org/2000/svg" xmlns:xlink="http://www.w3.org/1999/xlink" x="0px" y="0px"
	 width="1101.59px" height="646.47px" viewBox="0 0 1101.59 646.47" enable-background="new 0 0 1101.59 646.47"
	 xml:space="preserve">
<path fill="none" stroke="#FFFFFF" stroke-width="120" stroke-linejoin="bevel" stroke-miterlimit="10" d="M11.51,233.2
	c4.25,15.41,8.5,30.83,12.76,46.24c7.63-11.25,15.26-22.5,22.88-33.74c5.47,18.75,10.93,37.5,16.4,56.26
	c-7.56-89.35,59.91-178.88,147.88-196.24c-10.02,5.13-20.56,10.74-26.28,20.44c-5.72,9.7-3.95,24.68,6.38,29.16
	c9.57,4.15,20.16-2.36,28.54-8.57c35.61-26.36,71.21-52.71,106.82-79.07c-32.14,34.56-64.28,69.13-96.42,103.69
	c-44.19,47.53-89.3,96.45-113.97,156.48c56.56-24.61,101.39-69.83,141.57-116.62s77.7-96.67,125.86-135.21
	s109.84-65.18,170.84-56.08C503.05,56.37,451.34,92.8,399.63,129.24c-10.94,7.71-22.22,15.78-28.85,27.4
	c-6.63,11.62-7.2,27.85,2.36,37.21c10.22,10.01,27.73,8.15,39.63,0.22c11.89-7.94,19.77-20.44,28.3-31.92
	C487.63,99.48,564.03,60.06,642.08,58.42c-56.68,50.39-114.95,99-174.68,145.73c28.87,12.94,61.43-5.24,87.78-22.75
	c71.85-47.75,143.7-95.51,215.54-143.26c9.19-6.11,18.76-12.37,29.67-14.06c10.9-1.69,23.56,2.54,28.13,12.59
	c8.01,17.61-12.16,34.38-29.31,43.33c-34.86,18.19-69.72,36.37-104.57,54.56c-11.45,5.97-23.23,12.21-31.4,22.21
	c-8.17,10-11.86,24.85-5.35,36c8.3,14.2,29.24,15.94,43.94,8.57c14.7-7.38,24.92-21.13,35.6-33.63
	C805.55,87.94,915.03,45.61,1019.1,58.78c17.87,2.26,39.62,10.38,40.76,28.36c1.37,21.57-26.7,30.39-48.1,33.47
	c-86.77,12.48-170.14,47.91-239.34,101.72c49.8,6.03,97.52-18.61,142.35-41.13c44.83-22.51,95.02-44.14,143.66-31.88
	c3.97,8.89,7.94,17.77,11.9,26.66c-181.1,100.7-398.75,133.87-601.62,91.68c-53.38-11.1-108.48-27.25-161.41-14.16
	c-39.74,9.83-73.75,35.29-103.86,63.02c-52.07,47.96-96.13,104.6-129.81,166.87c29.55-20.81,59.1-41.62,88.65-62.44
	c58.8-41.41,117.67-82.87,179.58-119.48c15.31-9.06,37.41-16.82,48.66-3.05c8.05,9.85,4.06,25.46-4.95,34.44
	c-9.01,8.99-21.57,13.19-33.41,17.85c-64.3,25.31-119.7,72.6-154.79,132.13c-17.57,29.81-29.03,70.66-6.31,96.76
	c20.91,24.02,58.27,21.52,89.8,17c14.85-2.13,30.11-4.39,43.12-11.86s23.42-21.47,22.12-36.42c-1.75-20.04-40.53-32.91-48.72-51.29
	c-8-17.97,15.27-39.6,26.53-55.72c11.26-16.12,27.88-27.63,44.63-37.93c63.43-38.98,134.38-65.69,207.78-78.23
	c-16.01,66.58-106.59,85.65-139.4,145.76c-11.43,20.95-10.27,54.06,12.5,61.21c23.19,7.28,42.07-18.44,54.38-39.39
	c43.47-73.96,108.82-134.88,185.64-173.07c-22.51,88.41-33.48,163.84-98.81,227.51c-9.36,9.12-55.63,24.63-61.69,36.21
	c-6.06,11.58-7.49,26.63,0.16,37.23c9.33,12.93,27.6,14.58,43.53,15.05c78.94,2.36,157.88,4.71,236.82,7.07
	c7.85,0.23,16.25,0.33,22.86-3.92c14.17-9.1,9.92-32.98-3.94-42.54s-32.24-8.68-48.9-6.26c-16.67,2.42-34.05,5.94-50,0.55
	c-19.63-6.64-32.92-26.04-37.17-46.32c-4.25-20.28-0.79-41.38,4.35-61.45c17.42-68.04,56.24-132.67,115.73-170.02
	c59.48-37.35,140.82-42.85,199.27-3.9c-51.87,24.15-103.75,48.3-155.62,72.44c-27.57,12.83-56.17,26.47-75.05,50.3
	c-18.88,23.84-24.57,61.09-4.38,83.84c5.06,5.71,11.39,10.15,17.93,14.08c69.56,41.78,169.85,20.38,216.3-46.15
	c-23.15-3.67-46.3-7.34-69.45-11.02c-27.49-4.36-61.63-15.47-63.8-43.22c-1.84-23.44,23.61-41.26,47.12-41.68
	c23.51-0.42,45.38,10.82,67.36,19.18c21.97,8.36,47.65,13.75,68.23,2.38c27.49-15.2,32.84-52.12,31.83-83.51
	c-1.45-44.98-9.4-89.75-23.55-132.48"/>
<g>
	<text transform="matrix(1 0 0 1 624.6041 146.4339)" fill="#009542" font-family="'PermanentMarker'" font-size="30.74px">stress</text>
</g>
<g>
	
		<line fill="none" stroke="#000000" stroke-width="7" stroke-linecap="round" stroke-linejoin="round" stroke-miterlimit="10" x1="669.69" y1="163.04" x2="669.69" y2="327.71"/>
	<path fill="none" stroke="#000000" stroke-width="7" stroke-linecap="round" stroke-linejoin="round" stroke-miterlimit="10" d="
		M660.69,169.76c2.18-4.05,4.78-7.87,7.75-11.37c0.11-0.12,0.22-0.25,0.38-0.29c0.23-0.05,0.44,0.13,0.61,0.29
		c3.5,3.34,6.71,6.99,9.59,10.89"/>
	<path fill="none" stroke="#000000" stroke-width="7" stroke-linecap="round" stroke-linejoin="round" stroke-miterlimit="10" d="
		M660.07,323.04c0.21,0.56,0.79,0.89,1.32,1.19c2.87,1.65,5.29,4.09,6.91,6.97c0.22,0.53,0.44,1.06,0.66,1.6
		c2.35-3.67,5.15-7.06,8.32-10.06"/>
</g>
<text transform="matrix(1 0 0 1 640.0612 364.659)"><tspan x="0" y="0" fill="#009542" font-family="'PermanentMarker'" font-size="30.74px">feel</tspan><tspan x="-29.52" y="30" fill="#009542" font-family="'PermanentMarker'" font-size="30.74px">stressed</tspan></text>
<g>
	<path fill="none" stroke="#000000" stroke-width="7" stroke-linecap="round" stroke-linejoin="round" stroke-miterlimit="10" d="
		M607.91,311.87c10.2-3.99,22.98,0.4,28.58,9.81c3.1,5.22,4.04,11.39,4.93,17.39"/>
	<path fill="none" stroke="#000000" stroke-width="7" stroke-linecap="round" stroke-linejoin="round" stroke-miterlimit="10" d="
		M611.07,303.15c-1.65,2.39-3.63,4.55-5.86,6.39c-0.26,0.22-0.54,0.46-0.61,0.79c-0.07,0.39,0.19,0.76,0.44,1.08
		c1.65,2.06,3.5,3.95,5.52,5.65"/>
</g>
<text transform="matrix(1 0 0 1 491.9635 307.3531)"><tspan x="0" y="0" fill="#009542" font-family="'PermanentMarker'" font-size="30.74px">stress</tspan><tspan x="-20.71" y="30" fill="#009542" font-family="'PermanentMarker'" font-size="30.74px">hormone</tspan></text>
<g>
	<path fill="none" stroke="#000000" stroke-width="7" stroke-linecap="round" stroke-linejoin="round" stroke-miterlimit="10" d="
		M733.94,377.65c6.63-0.24,13.09-3.44,17.3-8.57c4.2-5.13,6.08-12.1,5.01-18.65"/>
	<path fill="none" stroke="#000000" stroke-width="7" stroke-linecap="round" stroke-linejoin="round" stroke-miterlimit="10" d="
		M748.42,353.55c2.34-2.52,4.68-5.05,7.03-7.57c3,2.03,5.49,4.82,7.16,8.04"/>
</g>
<text transform="matrix(1 0 0 1 751.3864 307.567)"><tspan x="0" y="0" fill="#009542" font-family="'PermanentMarker'" font-size="30.74px">immune</tspan><tspan x="-9.22" y="30" fill="#009542" font-family="'PermanentMarker'" font-size="30.74px">re</tspan><tspan x="23.45" y="30" fill="#009542" font-family="'PermanentMarker'" font-size="30.74px">s</tspan><tspan x="37.4" y="30" fill="#009542" font-family="'PermanentMarker'" font-size="30.74px">ponse</tspan></text>
<g>
	<path fill="none" stroke="#000000" stroke-width="7" stroke-linecap="round" stroke-linejoin="round" stroke-miterlimit="10" d="
		M586.03,279.5c21.98-21.87,52.43-35,83.42-35.97c30.99-0.98,62.2,10.21,85.51,30.66"/>
	<path fill="none" stroke="#000000" stroke-width="7" stroke-linecap="round" stroke-linejoin="round" stroke-miterlimit="10" d="
		M756.91,263.71c0,3.78,0,7.55,0,11.33c-4.12-0.03-8.24,0.16-12.35,0.56"/>
	<path fill="none" stroke="#000000" stroke-width="7" stroke-linecap="round" stroke-linejoin="round" stroke-miterlimit="10" d="
		M584.22,269.38c0.14,3.56,0.04,7.12-0.32,10.66c3.78,0,7.56,0,11.34,0"/>
</g>
<g>
	<path fill="none" stroke="#000000" stroke-width="7" stroke-linecap="round" stroke-linejoin="round" stroke-miterlimit="10" d="
		M524.97,347.52c-1.32,3.12-2.05,6.56-2.05,10.16c0,14.42,11.69,26.11,26.11,26.11c14.42,0,26.11-11.69,26.11-26.11
		c0-3.61-0.73-7.04-2.05-10.16"/>
	<path fill="none" stroke="#000000" stroke-width="7" stroke-linecap="round" stroke-linejoin="round" stroke-miterlimit="10" d="
		M514.26,354.83c1.15-0.24,2.04-1.13,2.87-1.96c2.59-2.57,5.34-4.98,8.24-7.19c1.94,3.46,3.72,7.02,5.31,10.66"/>
</g>
<g>
	<path fill="none" stroke="#000000" stroke-width="7" stroke-linecap="round" stroke-linejoin="round" stroke-miterlimit="10" d="
		M798.08,347.52c-1.32,3.12-2.05,6.56-2.05,10.16c0,14.42,11.69,26.11,26.11,26.11s26.11-11.69,26.11-26.11
		c0-3.61-0.73-7.04-2.05-10.16"/>
	<path fill="none" stroke="#000000" stroke-width="7" stroke-linecap="round" stroke-linejoin="round" stroke-miterlimit="10" d="
		M787.91,352.38c0.42-0.02,0.84-0.05,1.26-0.07c2.92-3.06,5.85-6.13,8.77-9.19c2.07,3.6,4,7.27,5.8,11.01"/>
</g>
<g>
	<path fill="none" stroke="#000000" stroke-width="7" stroke-linecap="round" stroke-linejoin="round" stroke-miterlimit="10" d="
		M512.48,276.67c-2.73-9.05-9.17-16.92-17.5-21.39c-8.33-4.47-18.44-5.49-27.49-2.76"/>
	<path fill="none" stroke="#000000" stroke-width="7" stroke-linecap="round" stroke-linejoin="round" stroke-miterlimit="10" d="
		M470.11,245.9c-2.28,2.17-4.57,4.33-6.85,6.5c-0.19,0.73,0.37,1.42,0.9,1.96c2.14,2.16,4.53,4.06,7.11,5.66"/>
</g>
<text transform="matrix(1 0 0 1 308.7184 236.9866)"><tspan x="0" y="0" fill="#009542" font-family="'PermanentMarker'" font-size="30.74px">n</tspan><tspan x="17.35" y="0" fill="#009542" font-family="'PermanentMarker'" font-size="30.74px">e</tspan><tspan x="33.08" y="0" fill="#009542" font-family="'PermanentMarker'" font-size="30.74px">uro</tspan><tspan x="-53.39" y="30" fill="#009542" font-family="'PermanentMarker'" font-size="30.74px">d</tspan><tspan x="-38.41" y="30" fill="#009542" font-family="'PermanentMarker'" font-size="30.74px">egen</tspan><tspan x="31.06" y="30" fill="#009542" font-family="'PermanentMarker'" font-size="30.74px">e</tspan><tspan x="46.79" y="30" fill="#009542" font-family="'PermanentMarker'" font-size="30.74px">r</tspan><tspan x="63.42" y="30" fill="#009542" font-family="'PermanentMarker'" font-size="30.74px" letter-spacing="-1">a</tspan><tspan x="79.75" y="30" fill="#009542" font-family="'PermanentMarker'" font-size="30.74px">t</tspan><tspan x="94.49" y="30" fill="#009542" font-family="'PermanentMarker'" font-size="30.74px">i</tspan><tspan x="103.73" y="30" fill="#009542" font-family="'PermanentMarker'" font-size="30.74px">on</tspan></text>
<g>
	<path fill="none" stroke="#000000" stroke-width="7" stroke-linecap="round" stroke-linejoin="round" stroke-miterlimit="10" d="
		M466.55,302.07c-18.84-2.51-38.25-4.99-56.65-0.19c-18.39,4.8-35.75,18.7-38.66,37.49"/>
	<path fill="none" stroke="#000000" stroke-width="7" stroke-linecap="round" stroke-linejoin="round" stroke-miterlimit="10" d="
		M365.49,329.04c-0.29,4.95,1.44,10,4.72,13.72c3.29-2.75,6.59-5.49,9.88-8.24"/>
</g>
<text transform="matrix(1 0 0 1 296.8805 367.0223)"><tspan x="0" y="0" fill="#009542" font-family="'PermanentMarker'" font-size="30.74px">sleep</tspan><tspan x="-42.88" y="30" fill="#009542" font-family="'PermanentMarker'" font-size="30.74px">d</tspan><tspan x="-27.9" y="30" fill="#009542" font-family="'PermanentMarker'" font-size="30.74px">epri</tspan><tspan x="30.72" y="30" fill="#009542" font-family="'PermanentMarker'" font-size="30.74px">v</tspan><tspan x="44.71" y="30" fill="#009542" font-family="'PermanentMarker'" font-size="30.74px" letter-spacing="-1">a</tspan><tspan x="61.04" y="30" fill="#009542" font-family="'PermanentMarker'" font-size="30.74px">t</tspan><tspan x="75.78" y="30" fill="#009542" font-family="'PermanentMarker'" font-size="30.74px">i</tspan><tspan x="85.03" y="30" fill="#009542" font-family="'PermanentMarker'" font-size="30.74px">on</tspan></text>
<g>
	
		<line fill="none" stroke="#000000" stroke-width="7" stroke-linecap="round" stroke-linejoin="round" stroke-miterlimit="10" x1="339.39" y1="410.06" x2="339.39" y2="461.06"/>
	<path fill="none" stroke="#000000" stroke-width="7" stroke-linecap="round" stroke-linejoin="round" stroke-miterlimit="10" d="
		M331.5,457.97c1.17,4.22,3.62,8.08,6.94,10.93c3.27-3.11,6.09-6.69,8.36-10.59"/>
</g>
<text transform="matrix(1 0 0 1 276.0622 497.0574)"><tspan x="0" y="0" fill="#009542" font-family="'PermanentMarker'" font-size="30.74px">physical</tspan><tspan x="-8.39" y="30" fill="#009542" font-family="'PermanentMarker'" font-size="30.74px">inactivity</tspan></text>
<g>
	<path fill="none" stroke="#000000" stroke-width="7" stroke-linecap="round" stroke-linejoin="round" stroke-miterlimit="10" d="
		M487.71,345.36c5.01,13.5-0.29,30.1-12.2,38.2c-13.04,8.86-32.07,8.07-42.21,20.15c-7.12,8.48-7.41,20.71-6.01,31.7
		s4.09,22.18,1.67,32.99c-2.42,10.81-12.23,21.08-23.15,19.25"/>
	<path fill="none" stroke="#000000" stroke-width="7" stroke-linecap="round" stroke-linejoin="round" stroke-miterlimit="10" d="
		M407.56,479.72c0.22,0.48-0.06,1.03-0.35,1.47c-1.73,2.65-3.99,4.96-6.6,6.74c4.13,2.44,8.25,4.87,12.38,7.31"/>
	<path fill="none" stroke="#000000" stroke-width="7" stroke-linecap="round" stroke-linejoin="round" stroke-miterlimit="10" d="
		M480.07,350.81c1.8-2.64,3.83-5.11,6.06-7.38c-0.1-0.52,0.2-1.09,0.68-1.3c3.54,1.5,6.9,3.43,9.99,5.72"/>
</g>
<g>
	<path fill="none" stroke="#000000" stroke-width="7" stroke-linecap="round" stroke-linejoin="round" stroke-miterlimit="10" d="
		M263.79,405.29c0,12.15-9.85,22-22,22c-12.15,0-22-9.85-22-22s9.85-22,22-22"/>
	<path fill="none" stroke="#000000" stroke-width="7" stroke-linecap="round" stroke-linejoin="round" stroke-miterlimit="10" d="
		M238.02,376.19c1.69,2.69,3.91,5.06,6.48,6.93c0.43,1.04-0.36,2.16-1.09,3.02c-1.61,1.86-3.22,3.72-4.82,5.58"/>
</g>
<g>
	<path fill="none" stroke="#000000" stroke-width="7" stroke-linecap="round" stroke-linejoin="round" stroke-miterlimit="10" d="
		M210.64,277.37c2.43,0.45,4.26,2.58,4.26,5.13c0,2.88-2.34,5.22-5.22,5.22c-2.88,0-5.22-2.34-5.22-5.22c0-2.88,2.34-5.22,5.22-5.22
		"/>
	<path fill="none" stroke="#000000" stroke-width="7" stroke-linecap="round" stroke-linejoin="round" stroke-miterlimit="10" d="
		M209.35,298.27c-1.1,7.3-2.2,14.7-1.31,22.03s4.02,14.69,9.93,19.11c5.89,4.4,13.65,5.32,21,5.41c7.35,0.09,14.85-0.49,21.93,1.48
		s13.87,7.25,14.96,14.52"/>
	<path fill="none" stroke="#000000" stroke-width="7" stroke-linecap="round" stroke-linejoin="round" stroke-miterlimit="10" d="
		M304.8,274.36c1.21,13.32-7.94,26.86-20.75,30.71c-5.62,1.69-11.97,1.57-17.1-1.3c-4.52-2.53-7.66-6.89-11.44-10.44
		c-7.91-7.42-19.05-11.29-29.86-10.36"/>
	
		<line fill="none" stroke="#000000" stroke-width="7" stroke-linecap="round" stroke-linejoin="round" stroke-miterlimit="10" x1="209.25" y1="267.04" x2="209.25" y2="174.37"/>
	<path fill="none" stroke="#000000" stroke-width="7" stroke-linecap="round" stroke-linejoin="round" stroke-miterlimit="10" d="
		M105.01,315.85c1.35,10.21,10.43,18.86,20.69,19.72c9.74,0.82,19.04-4.72,25.77-11.82c6.72-7.1,11.53-15.76,17.38-23.59
		c5.85-7.83,13.26-15.15,22.69-17.71"/>
	<path fill="none" stroke="#000000" stroke-width="7" stroke-linecap="round" stroke-linejoin="round" stroke-miterlimit="10" d="
		M232.61,276.07c-2.45,2.64-5.16,5.05-8.08,7.16c2.54,2.5,5.09,4.99,7.63,7.49"/>
	<path fill="none" stroke="#000000" stroke-width="7" stroke-linecap="round" stroke-linejoin="round" stroke-miterlimit="10" d="
		M201.4,303.16c2.32-2.34,4.85-4.46,7.56-6.34c0.28-0.19,0.6-0.39,0.93-0.33c0.22,0.04,0.41,0.19,0.58,0.33
		c2.66,2.2,5.06,4.69,7.16,7.42"/>
	<path fill="none" stroke="#000000" stroke-width="7" stroke-linecap="round" stroke-linejoin="round" stroke-miterlimit="10" d="
		M199.89,181.64c3.24-3.12,6.21-6.51,8.87-10.13c2.79,2.88,5.51,5.84,8.15,8.85"/>
	<path fill="none" stroke="#000000" stroke-width="7" stroke-linecap="round" stroke-linejoin="round" stroke-miterlimit="10" d="
		M99.37,323.36c-0.68-3.65,0.2-7.56,2.39-10.56c0.25-0.14,0.51-0.28,0.79-0.36c1.45-0.44,2.85,0.7,4.01,1.67
		c2.35,1.99,4.96,3.66,7.74,4.96"/>
</g>
<text transform="matrix(1 0 0 1 14.4674 272.0257)"><tspan x="0" y="0" fill="#009542" font-family="'PermanentMarker'" font-size="30.74px">less brain</tspan><tspan x="29.22" y="30" fill="#009542" font-family="'PermanentMarker'" font-size="30.74px">pow</tspan><tspan x="90.04" y="30" fill="#009542" font-family="'PermanentMarker'" font-size="30.74px">e</tspan><tspan x="105.77" y="30" fill="#009542" font-family="'PermanentMarker'" font-size="30.74px">r</tspan></text>
<text transform="matrix(1 0 0 1 119.32 131.4339)"><tspan x="0" y="0" fill="#009542" font-family="'PermanentMarker'" font-size="30.74px" letter-spacing="-1">d</tspan><tspan x="14.05" y="0" fill="#009542" font-family="'PermanentMarker'" font-size="30.74px">ysfunct</tspan><tspan x="120.47" y="0" fill="#009542" font-family="'PermanentMarker'" font-size="30.74px">i</tspan><tspan x="129.71" y="0" fill="#009542" font-family="'PermanentMarker'" font-size="30.74px">onal</tspan><tspan x="36.17" y="30" fill="#009542" font-family="'PermanentMarker'" font-size="30.74px">beh</tspan><tspan x="87.72" y="30" fill="#009542" font-family="'PermanentMarker'" font-size="30.74px" letter-spacing="-1">a</tspan><tspan x="104.35" y="30" fill="#009542" font-family="'PermanentMarker'" font-size="30.74px">v</tspan><tspan x="119.27" y="30" fill="#009542" font-family="'PermanentMarker'" font-size="30.74px">i</tspan><tspan x="128.51" y="30" fill="#009542" font-family="'PermanentMarker'" font-size="30.74px">or</tspan></text>
<path fill="none" stroke="#000000" stroke-width="7" stroke-linecap="round" stroke-linejoin="round" stroke-miterlimit="10" d="
	M85.36,243.72c-0.85-34.28,19.11-68.25,49.47-84.2"/>
<path fill="none" stroke="#000000" stroke-width="7" stroke-linecap="round" stroke-linejoin="round" stroke-miterlimit="10" d="
	M124.91,156.08c4.11-0.16,8.23-0.06,12.33,0.3c-0.29,4.44-0.57,8.88-0.86,13.32"/>
<g>
	<path fill="none" stroke="#000000" stroke-width="7" stroke-linecap="round" stroke-linejoin="round" stroke-miterlimit="10" d="
		M322.36,111.09c38.53-24.24,82.82-39.26,128.15-43.47"/>
	<path fill="none" stroke="#000000" stroke-width="7" stroke-linecap="round" stroke-linejoin="round" stroke-miterlimit="10" d="
		M448.27,61.35c3.19,2.19,6.39,4.38,9.58,6.56c-3.4,1.47-6.4,3.84-8.62,6.8"/>
</g>
<text transform="matrix(1 0 0 1 470.568 74.1287)"><tspan x="0" y="0" fill="#009542" font-family="'PermanentMarker'" font-size="30.74px">e</tspan><tspan x="15.73" y="0" fill="#009542" font-family="'PermanentMarker'" font-size="30.74px">conomic</tspan><tspan x="23.71" y="30" fill="#009542" font-family="'PermanentMarker'" font-size="30.74px">s</tspan><tspan x="37.97" y="30" fill="#009542" font-family="'PermanentMarker'" font-size="30.74px" letter-spacing="-1">ta</tspan><tspan x="67.51" y="30" fill="#009542" font-family="'PermanentMarker'" font-size="30.74px">tus</tspan></text>
<g>
	<path fill="none" stroke="#000000" stroke-width="7" stroke-linecap="round" stroke-linejoin="round" stroke-miterlimit="10" d="
		M514.03,46.26c-1.32-3.12-2.05-6.56-2.05-10.16c0-14.42,11.69-26.11,26.11-26.11c14.42,0,26.11,11.69,26.11,26.11
		c0,3.61-0.73,7.04-2.05,10.16"/>
	<path fill="none" stroke="#000000" stroke-width="7" stroke-linecap="round" stroke-linejoin="round" stroke-miterlimit="10" d="
		M556.43,35.41c-1.05,4.92,0,10.25,2.84,14.4c6.11-1.9,11.75-5.29,16.29-9.79"/>
</g>
<g>
	<path fill="none" stroke="#000000" stroke-width="7" stroke-linecap="round" stroke-linejoin="round" stroke-miterlimit="10" d="
		M614.56,79.48c10.91-1.02,22.17,2.3,30.77,9.08c8.61,6.78,14.47,16.95,16.03,27.8"/>
	<path fill="none" stroke="#000000" stroke-width="7" stroke-linecap="round" stroke-linejoin="round" stroke-miterlimit="10" d="
		M651.36,111.21c4.03,2.7,7.47,6.29,9.99,10.44c0.41,0.33,0.88-0.33,0.99-0.84c1.06-4.93,2.12-9.86,3.17-14.79"/>
</g>
<g>
	<path fill="none" stroke="#000000" stroke-width="7" stroke-linecap="round" stroke-linejoin="round" stroke-miterlimit="10" d="
		M318.27,146.7c36.05,35.86,89.08,53.87,139.52,47.37"/>
	<path fill="none" stroke="#000000" stroke-width="7" stroke-linecap="round" stroke-linejoin="round" stroke-miterlimit="10" d="
		M455.96,187.66c1.58,1.4,3.15,2.81,4.73,4.21c1.11,0.98,2.22,1.98,3.51,2.7c-3.53,1.54-6.64,4.06-8.88,7.19"/>
</g>
<text transform="matrix(1 0 0 1 491.6442 188.7391)"><tspan x="0" y="0" fill="#009542" font-family="'PermanentMarker'" font-size="30.74px">s</tspan><tspan x="13.66" y="0" fill="#009542" font-family="'PermanentMarker'" font-size="30.74px">ocial</tspan><tspan x="-21.67" y="30" fill="#009542" font-family="'PermanentMarker'" font-size="30.74px">i</tspan><tspan x="-11.83" y="30" fill="#009542" font-family="'PermanentMarker'" font-size="30.74px">s</tspan><tspan x="1.83" y="30" fill="#009542" font-family="'PermanentMarker'" font-size="30.74px">ol</tspan><tspan x="37.55" y="30" fill="#009542" font-family="'PermanentMarker'" font-size="30.74px" letter-spacing="-1">a</tspan><tspan x="53.89" y="30" fill="#009542" font-family="'PermanentMarker'" font-size="30.74px">t</tspan><tspan x="68.62" y="30" fill="#009542" font-family="'PermanentMarker'" font-size="30.74px">i</tspan><tspan x="77.87" y="30" fill="#009542" font-family="'PermanentMarker'" font-size="30.74px">on</tspan></text>
<g>
	<path fill="none" stroke="#000000" stroke-width="7" stroke-linecap="round" stroke-linejoin="round" stroke-miterlimit="10" d="
		M514.03,160.26c-1.32-3.12-2.05-6.56-2.05-10.16c0-14.42,11.69-26.11,26.11-26.11c14.42,0,26.11,11.69,26.11,26.11
		c0,3.61-0.73,7.04-2.05,10.16"/>
	<path fill="none" stroke="#000000" stroke-width="7" stroke-linecap="round" stroke-linejoin="round" stroke-miterlimit="10" d="
		M556.02,150.57c2.36,4.31,4.37,8.81,6,13.44c3.4-6.04,8.48-11.13,14.52-14.55"/>
</g>
<g>
	<path fill="none" stroke="#000000" stroke-width="7" stroke-linecap="round" stroke-linejoin="round" stroke-miterlimit="10" d="
		M597.34,187.27c8.78,1.85,18.3-0.2,25.54-5.49c7.24-5.29,12.08-13.75,12.98-22.68"/>
	<path fill="none" stroke="#000000" stroke-width="7" stroke-linecap="round" stroke-linejoin="round" stroke-miterlimit="10" d="
		M627.64,159.46c3-2.8,6.32-5.27,9.87-7.35c0.5,4.41,2.11,8.7,4.64,12.35"/>
</g>
<g>
	<path fill="none" stroke="#000000" stroke-width="7" stroke-linecap="round" stroke-linejoin="round" stroke-miterlimit="10" d="
		M701.18,158.37c-1.34,12,3.15,24.52,11.81,32.94c5.81,6.28,14.36,9.92,22.92,9.75"/>
	<path fill="none" stroke="#000000" stroke-width="7" stroke-linecap="round" stroke-linejoin="round" stroke-miterlimit="10" d="
		M733.59,192.7c2.46,2.59,4.61,5.48,6.38,8.58c1.15,0.42,2.19,1.14,3,2.06c-4.2,0.88-8.17,2.88-11.38,5.73"/>
</g>
<text transform="matrix(1 0 0 1 760.609 173.8468)"><tspan x="0" y="0" fill="#009542" font-family="'PermanentMarker'" font-size="30.74px">stress</tspan><tspan x="-10.63" y="30" fill="#009542" font-family="'PermanentMarker'" font-size="30.74px">rel</tspan><tspan x="38.42" y="30" fill="#009542" font-family="'PermanentMarker'" font-size="30.74px" letter-spacing="-1">a</tspan><tspan x="54.76" y="30" fill="#009542" font-family="'PermanentMarker'" font-size="30.74px">ted</tspan><tspan x="-13.52" y="60" fill="#009542" font-family="'PermanentMarker'" font-size="30.74px">dise</tspan><tspan x="41.89" y="60" fill="#009542" font-family="'PermanentMarker'" font-size="30.74px">a</tspan><tspan x="59.15" y="60" fill="#009542" font-family="'PermanentMarker'" font-size="30.74px">ses</tspan></text>
<g>
	<path fill="none" stroke="#000000" stroke-width="7" stroke-linecap="round" stroke-linejoin="round" stroke-miterlimit="10" d="
		M874.52,220.09c18.7,2.57,38.41,2.92,55.71-4.63c17.3-7.55,31.51-24.64,30.77-43.5"/>
	<path fill="none" stroke="#000000" stroke-width="7" stroke-linecap="round" stroke-linejoin="round" stroke-miterlimit="10" d="
		M952.75,176.8c2.08-3.86,5.16-7.18,8.86-9.54c1.94,3.62,4.22,7.05,6.79,10.25"/>
</g>
<text transform="matrix(1 0 0 1 953.0905 131.4879)"><tspan x="0" y="0" fill="#009542" font-family="'PermanentMarker'" font-size="30.74px">poor</tspan><tspan x="-13.46" y="30" fill="#009542" font-family="'PermanentMarker'" font-size="30.74px">hea</tspan><tspan x="38.32" y="30" fill="#009542" font-family="'PermanentMarker'" font-size="30.74px" letter-spacing="-2">l</tspan><tspan x="52.25" y="30" fill="#009542" font-family="'PermanentMarker'" font-size="30.74px">th</tspan></text>
<g>
	<path fill="none" stroke="#000000" stroke-width="7" stroke-linecap="round" stroke-linejoin="round" stroke-miterlimit="10" d="
		M873.2,56.39c20.91-1.39,42.42-2.72,62.33,3.78s38.12,22.78,40.4,43.61"/>
	<path fill="none" stroke="#000000" stroke-width="7" stroke-linecap="round" stroke-linejoin="round" stroke-miterlimit="10" d="
		M877.07,48.17c-2.61,2.29-5.22,4.59-7.83,6.88c-0.44,0.39-0.88,0.77-1.3,1.18c-0.17,0.17-0.35,0.35-0.41,0.59
		c-0.12,0.52,0.37,0.96,0.81,1.26c2.99,2.06,5.98,4.12,8.97,6.18"/>
</g>
<text transform="matrix(1 0 0 1 755.9186 59.1283)"><tspan x="0" y="0" fill="#009542" font-family="'PermanentMarker'" font-size="30.74px">dise</tspan><tspan x="55.42" y="0" fill="#009542" font-family="'PermanentMarker'" font-size="30.74px">a</tspan><tspan x="72.68" y="0" fill="#009542" font-family="'PermanentMarker'" font-size="30.74px">se</tspan><tspan x="-4.23" y="30" fill="#009542" font-family="'PermanentMarker'" font-size="30.74px">rel</tspan><tspan x="44.82" y="30" fill="#009542" font-family="'PermanentMarker'" font-size="30.74px" letter-spacing="-1">a</tspan><tspan x="61.15" y="30" fill="#009542" font-family="'PermanentMarker'" font-size="30.74px">ted</tspan><tspan x="6.39" y="60" fill="#009542" font-family="'PermanentMarker'" font-size="30.74px">stress</tspan></text>
<g>
	<path fill="none" stroke="#000000" stroke-width="7" stroke-linecap="round" stroke-linejoin="round" stroke-miterlimit="10" d="
		M681.6,117.04c0.08-12.78,6.34-25.38,16.48-33.17c10.14-7.79,23.92-10.59,36.29-7.37"/>
	<path fill="none" stroke="#000000" stroke-width="7" stroke-linecap="round" stroke-linejoin="round" stroke-miterlimit="10" d="
		M674.19,109.43c1.76,1.8,3.17,3.93,4.15,6.24c0.82,1.92,1.36,4.01,2.63,5.67c0.09,0.11,0.19,0.23,0.33,0.25
		c0.19,0.03,0.35-0.14,0.46-0.29c3.15-3.98,6.29-7.96,9.44-11.94"/>
</g>
<g>
	<path fill="none" stroke="#000000" stroke-width="7" stroke-linecap="round" stroke-linejoin="round" stroke-miterlimit="10" d="
		M1048.6,136.11c13.68-4.76,23.5-17.77,23.5-33.07c0-19.33-15.67-35-35-35s-35,15.67-35,35"/>
	<path fill="none" stroke="#000000" stroke-width="7" stroke-linecap="round" stroke-linejoin="round" stroke-miterlimit="10" d="
		M994.45,93.06c1.1,4.92,4.4,9.02,7.6,12.92c1.07,0.4,1.97-0.85,2.49-1.86c1.72-3.35,4.13-6.34,7.04-8.72"/>
</g>
<g>
	
		<line fill="none" stroke="#000000" stroke-width="7" stroke-linecap="round" stroke-linejoin="round" stroke-miterlimit="10" x1="988.8" y1="175.85" x2="988.8" y2="274.03"/>
	<path fill="none" stroke="#000000" stroke-width="7" stroke-linecap="round" stroke-linejoin="round" stroke-miterlimit="10" d="
		M979.16,265.86c2.73,4.85,5.71,9.56,8.93,14.1c2.18-3.22,4.69-6.22,7.49-8.92"/>
</g>
<text transform="matrix(1 0 0 1 932.4821 307.3528)"><tspan x="0" y="0" fill="#009542" font-family="'PermanentMarker'" font-size="30.74px">chronic</tspan><tspan x="4.05" y="30" fill="#009542" font-family="'PermanentMarker'" font-size="30.74px">illness</tspan></text>
<g>
	
		<line fill="none" stroke="#000000" stroke-width="7" stroke-linecap="round" stroke-linejoin="round" stroke-miterlimit="10" x1="880.58" y1="313.04" x2="923.27" y2="313.04"/>
	<path fill="none" stroke="#000000" stroke-width="7" stroke-linecap="round" stroke-linejoin="round" stroke-miterlimit="10" d="
		M883.08,306.64c-2.8,1.82-5.21,4.24-7.02,7.05c2.24,1.53,4.48,3.06,6.72,4.59c0.14,0.28,0.29,0.56,0.43,0.84"/>
</g>
<g>
	<path fill="none" stroke="#000000" stroke-width="7" stroke-linecap="round" stroke-linejoin="round" stroke-miterlimit="10" d="
		M669.25,406.38c0,18.67,0,37.33,0,56"/>
	<path fill="none" stroke="#000000" stroke-width="7" stroke-linecap="round" stroke-linejoin="round" stroke-miterlimit="10" d="
		M661.75,460.57c2.79,2.41,5.36,5.09,7.65,7.98c1.55-2.59,3.45-4.96,5.64-7.04"/>
</g>
<text transform="matrix(1 0 0 1 607.0426 497.0579)"><tspan x="0" y="0" fill="#009542" font-family="'PermanentMarker'" font-size="30.74px">neg</tspan><tspan x="53.43" y="0" fill="#009542" font-family="'PermanentMarker'" font-size="30.74px" letter-spacing="-1">a</tspan><tspan x="69.77" y="0" fill="#009542" font-family="'PermanentMarker'" font-size="30.74px">tive</tspan><tspan x="-54.13" y="30" fill="#009542" font-family="'PermanentMarker'" font-size="30.74px">represen</tspan><tspan x="74.96" y="30" fill="#009542" font-family="'PermanentMarker'" font-size="30.74px" letter-spacing="-1">ta</tspan><tspan x="104.5" y="30" fill="#009542" font-family="'PermanentMarker'" font-size="30.74px">t</tspan><tspan x="119.24" y="30" fill="#009542" font-family="'PermanentMarker'" font-size="30.74px">i</tspan><tspan x="128.48" y="30" fill="#009542" font-family="'PermanentMarker'" font-size="30.74px">ons</tspan></text>
<g>
	<path fill="none" stroke="#000000" stroke-width="7" stroke-linecap="round" stroke-linejoin="round" stroke-miterlimit="10" d="
		M759.04,492.19c14.31-3.43,25.5-17.09,26.05-31.8"/>
	<path fill="none" stroke="#000000" stroke-width="7" stroke-linecap="round" stroke-linejoin="round" stroke-miterlimit="10" d="
		M775.21,465.99c3.02-2.41,6.45-4.3,10.09-5.59c2.41,2.79,5.05,5.37,7.9,7.71"/>
</g>
<text transform="matrix(1 0 0 1 760.5475 422.2855)"><tspan x="0" y="0" fill="#009542" font-family="'PermanentMarker'" font-size="30.74px">bi</tspan><tspan x="27.47" y="0" fill="#009542" font-family="'PermanentMarker'" font-size="30.74px">a</tspan><tspan x="44.73" y="0" fill="#009542" font-family="'PermanentMarker'" font-size="30.74px">sed</tspan><tspan x="-40.38" y="30" fill="#009542" font-family="'PermanentMarker'" font-size="30.74px">p</tspan><tspan x="-24.26" y="30" fill="#009542" font-family="'PermanentMarker'" font-size="30.74px">e</tspan><tspan x="-8.53" y="30" fill="#009542" font-family="'PermanentMarker'" font-size="30.74px">r</tspan><tspan x="8.11" y="30" fill="#009542" font-family="'PermanentMarker'" font-size="30.74px">c</tspan><tspan x="23.6" y="30" fill="#009542" font-family="'PermanentMarker'" font-size="30.74px">ept</tspan><tspan x="70.49" y="30" fill="#009542" font-family="'PermanentMarker'" font-size="30.74px">i</tspan><tspan x="79.73" y="30" fill="#009542" font-family="'PermanentMarker'" font-size="30.74px">ons</tspan></text>
<g>
	<path fill="none" stroke="#000000" stroke-width="7" stroke-linecap="round" stroke-linejoin="round" stroke-miterlimit="10" d="
		M545.06,450.53c-2.52,8.01-1.73,17,2.15,24.44s10.8,13.24,18.8,15.76"/>
	<path fill="none" stroke="#000000" stroke-width="7" stroke-linecap="round" stroke-linejoin="round" stroke-miterlimit="10" d="
		M535.72,455.23c1.83-1.26,3.46-2.81,4.8-4.58c1.23-1.62,2.32-3.5,4.17-4.36c2.62,3.24,5.32,6.42,8.1,9.52"/>
</g>
<text transform="matrix(1 0 0 1 454.068 436.9651)"><tspan x="0" y="0" fill="#009542" font-family="'PermanentMarker'" font-size="30.74px">r</tspan><tspan x="16.03" y="0" fill="#009542" font-family="'PermanentMarker'" font-size="30.74px">umin</tspan><tspan x="86.25" y="0" fill="#009542" font-family="'PermanentMarker'" font-size="30.74px" letter-spacing="-1">a</tspan><tspan x="102.58" y="0" fill="#009542" font-family="'PermanentMarker'" font-size="30.74px">t</tspan><tspan x="117.32" y="0" fill="#009542" font-family="'PermanentMarker'" font-size="30.74px">i</tspan><tspan x="126.56" y="0" fill="#009542" font-family="'PermanentMarker'" font-size="30.74px">on</tspan></text>
<g>
	<path fill="none" stroke="#000000" stroke-width="7" stroke-linecap="round" stroke-linejoin="round" stroke-miterlimit="10" d="
		M694.25,409.8c-1.34,7.11-2.68,14.47-1.04,21.51s7.09,13.74,14.29,14.45"/>
	<path fill="none" stroke="#000000" stroke-width="7" stroke-linecap="round" stroke-linejoin="round" stroke-miterlimit="10" d="
		M641.64,407.42c1.01,4.78,2.02,9.61,1.81,14.49c-0.21,4.88-1.79,9.88-5.29,13.28c-4.29,4.18-11.29,5.27-16.64,2.59"/>
	<path fill="none" stroke="#000000" stroke-width="7" stroke-linecap="round" stroke-linejoin="round" stroke-miterlimit="10" d="
		M633.34,411.78c2.33-2.86,4.8-5.62,7.39-8.25c3.18,1.45,5.41,4.89,8.87,5.41"/>
	<path fill="none" stroke="#000000" stroke-width="7" stroke-linecap="round" stroke-linejoin="round" stroke-miterlimit="10" d="
		M686.09,412.22c2.56-2.33,5.12-4.67,7.68-7c0.2-0.18,0.42-0.38,0.69-0.41c0.37-0.05,0.71,0.22,0.98,0.48
		c2.71,2.55,4.85,5.7,6.24,9.16"/>
</g>
<g>
	<path fill="none" stroke="#000000" stroke-width="7" stroke-linecap="round" stroke-linejoin="round" stroke-miterlimit="10" d="
		M465.54,448.76c-1.32,3.12-2.05,6.56-2.05,10.16c0,14.42,11.69,26.11,26.11,26.11c14.42,0,26.11-11.69,26.11-26.11
		c0-3.61-0.73-7.04-2.05-10.16"/>
	<path fill="none" stroke="#000000" stroke-width="7" stroke-linecap="round" stroke-linejoin="round" stroke-miterlimit="10" d="
		M456.24,452.76c1.18,0.04,2.15-0.88,2.96-1.74c1.95-2.07,3.91-4.14,5.86-6.21c1.41,2.91,3.18,5.63,5.27,8.1
		c0.45,0.69,0.91,1.38,1.36,2.07"/>
</g>
<g>
	<path fill="none" stroke="#000000" stroke-width="7" stroke-linecap="round" stroke-linejoin="round" stroke-miterlimit="10" d="
		M399.58,539.04c0,0,122.23,34,270.11,34s258.89-34,258.89-34"/>
	<path fill="none" stroke="#000000" stroke-width="7" stroke-linecap="round" stroke-linejoin="round" stroke-miterlimit="10" d="
		M920.1,531.63c1.17,0.73,2.34,1.45,3.51,2.18c1.66,1.03,3.33,2.06,5.16,2.73c1.31,0.48,2.75,0.8,3.79,1.73
		c-2.7,3.86-4.95,8.05-6.66,12.44"/>
</g>
<text transform="matrix(1 0 0 1 928.5641 497.0579)"><tspan x="0" y="0" fill="#009542" font-family="'PermanentMarker'" font-size="30.74px">physical</tspan><tspan x="11.06" y="30" fill="#009542" font-family="'PermanentMarker'" font-size="30.74px">hea</tspan><tspan x="62.85" y="30" fill="#009542" font-family="'PermanentMarker'" font-size="30.74px" letter-spacing="-2">l</tspan><tspan x="76.78" y="30" fill="#009542" font-family="'PermanentMarker'" font-size="30.74px">th</tspan></text>
<g>
	<path fill="none" stroke="#000000" stroke-width="7" stroke-linecap="round" stroke-linejoin="round" stroke-miterlimit="10" d="
		M1050.36,470.63c0,0,43.5-68.61,43.5-157.59s-43.5-150-43.5-150"/>
	<path fill="none" stroke="#000000" stroke-width="7" stroke-linecap="round" stroke-linejoin="round" stroke-miterlimit="10" d="
		M1044.43,173.69c0.54-4.88,1.29-9.74,2.25-14.55c4.08,1.26,8.3,2.07,12.55,2.4"/>
</g>
<text transform="matrix(1 0 0 1 502.5934 632.2825)"><tspan x="0" y="0" fill="#C1172C" font-family="'PermanentMarker'" font-size="30.74px">d</tspan><tspan x="14.98" y="0" fill="#C1172C" font-family="'PermanentMarker'" font-size="30.74px">epress</tspan><tspan x="108.31" y="0" fill="#C1172C" font-family="'PermanentMarker'" font-size="30.74px">i</tspan><tspan x="117.56" y="0" fill="#C1172C" font-family="'PermanentMarker'" font-size="30.74px">on s</tspan><tspan x="179.88" y="0" fill="#C1172C" font-family="'PermanentMarker'" font-size="30.74px" letter-spacing="-1">t</tspan><tspan x="193.09" y="0" fill="#C1172C" font-family="'PermanentMarker'" font-size="30.74px">a</tspan><tspan x="210.95" y="0" fill="#C1172C" font-family="'PermanentMarker'" font-size="30.74px">r</tspan><tspan x="226.65" y="0" fill="#C1172C" font-family="'PermanentMarker'" font-size="30.74px">ts h</tspan><tspan x="284.92" y="0" fill="#C1172C" font-family="'PermanentMarker'" font-size="30.74px">e</tspan><tspan x="300.65" y="0" fill="#C1172C" font-family="'PermanentMarker'" font-size="30.74px">re</tspan></text>
<line fill="none" stroke="#C1172C" stroke-width="7" stroke-linecap="round" stroke-miterlimit="10" x1="669.25" y1="603.54" x2="669.25" y2="545.54"/>
<path fill="none" stroke="#C1172C" stroke-width="7" stroke-linecap="round" stroke-linejoin="round" stroke-miterlimit="10" d="
	M657.26,553.68c3.83-3.86,7.66-7.73,11.5-11.59c4.36,3.35,8.72,6.69,13.08,10.04"/>
<g>
	<text transform="matrix(1 0 0 1 192.0993 621.6502)"><tspan x="0" y="0" fill="#C1172C" font-family="'PermanentMarker'" font-size="30.74px">and h</tspan><tspan x="79.76" y="0" fill="#C1172C" font-family="'PermanentMarker'" font-size="30.74px">e</tspan><tspan x="95.49" y="0" fill="#C1172C" font-family="'PermanentMarker'" font-size="30.74px">re</tspan></text>
</g>
<path fill="none" stroke="#C1172C" stroke-width="7" stroke-linecap="round" stroke-linejoin="round" stroke-miterlimit="10" d="
	M276.11,595.82c3.54-4.06,1.75-10.6-1.7-14.73c-3.46-4.13-8.26-7-11.54-11.28c-6.18-8.05-5.27-20.68,1.99-27.77"/>
<path fill="none" stroke="#C1172C" stroke-width="7" stroke-linecap="round" stroke-linejoin="round" stroke-miterlimit="10" d="
	M258.41,542.57c2.5-1.34,5-2.69,7.49-4.03c0.41,2.51,0.83,5.01,1.24,7.52"/>
<g>
	<text transform="matrix(1 0 0 1 73.1622 479.7161)"><tspan x="0" y="0" fill="#C1172C" font-family="'PermanentMarker'" font-size="30.74px">and h</tspan><tspan x="79.76" y="0" fill="#C1172C" font-family="'PermanentMarker'" font-size="30.74px">e</tspan><tspan x="95.49" y="0" fill="#C1172C" font-family="'PermanentMarker'" font-size="30.74px">re</tspan></text>
</g>
<path fill="none" stroke="#C1172C" stroke-width="7" stroke-linecap="round" stroke-linejoin="round" stroke-miterlimit="10" d="
	M214.71,468.28c16.9,1.08,34.11-3.46,48.29-12.71c14.18-9.26,25.25-23.19,31.06-39.1"/>
<path fill="none" stroke="#C1172C" stroke-width="7" stroke-linecap="round" stroke-linejoin="round" stroke-miterlimit="10" d="
	M287.33,419.08c2.34-1.53,4.68-3.07,7.02-4.6c1.01,2.7,2.02,5.4,3.03,8.1"/>
<g>
	<text transform="matrix(1 0 0 1 342.7253 142.1263)"><tspan x="0" y="0" fill="#C1172C" font-family="'PermanentMarker'" font-size="30.74px">and h</tspan><tspan x="79.76" y="0" fill="#C1172C" font-family="'PermanentMarker'" font-size="30.74px">e</tspan><tspan x="95.49" y="0" fill="#C1172C" font-family="'PermanentMarker'" font-size="30.74px">re</tspan></text>
</g>
<path fill="none" stroke="#C1172C" stroke-width="7" stroke-linecap="round" stroke-linejoin="round" stroke-miterlimit="10" d="
	M442.46,114.47c3.37-12.02,15.94-20.74,28.38-19.7"/>
<path fill="none" stroke="#C1172C" stroke-width="7" stroke-linecap="round" stroke-linejoin="round" stroke-miterlimit="10" d="
	M470.37,91.49c1.9,0.99,3.81,1.98,5.71,2.97c-2.18,1.09-4.36,2.18-6.54,3.27"/>
<path fill="none" stroke="#C1172C" stroke-width="7" stroke-linecap="round" stroke-linejoin="round" stroke-miterlimit="10" d="
	M440.7,153.43c0.69,4.8,4.98,8.37,9.53,10.05c4.55,1.68,9.48,1.94,14.22,2.98c4.74,1.03,9.61,3.1,12.19,7.2"/>
<path fill="none" stroke="#C1172C" stroke-width="7" stroke-linecap="round" stroke-linejoin="round" stroke-miterlimit="10" d="
	M480.36,170.37c-0.03,2.28-0.06,4.55-0.08,6.83c-2.25-0.13-4.51-0.26-6.76-0.39"/>
<g>
	<text transform="matrix(1 0 0 1 904.3326 416.6077)"><tspan x="0" y="0" fill="#C1172C" font-family="'PermanentMarker'" font-size="30.74px">and h</tspan><tspan x="79.76" y="0" fill="#C1172C" font-family="'PermanentMarker'" font-size="30.74px">e</tspan><tspan x="95.49" y="0" fill="#C1172C" font-family="'PermanentMarker'" font-size="30.74px">re</tspan></text>
</g>
<path fill="none" stroke="#C1172C" stroke-width="7" stroke-linecap="round" stroke-linejoin="round" stroke-miterlimit="10" d="
	M995.63,389.57c3.23-1.5,4.61-5.6,3.95-9.09c-0.66-3.5-2.93-6.47-5.39-9.04c-2.46-2.57-5.2-4.92-7.19-7.87
	c-1.99-2.95-3.15-6.73-2.02-10.1"/>
<path fill="none" stroke="#C1172C" stroke-width="7" stroke-linecap="round" stroke-linejoin="round" stroke-miterlimit="10" d="
	M979.96,354.71c1.59-1.63,3.18-3.26,4.77-4.89c1.81,1.67,3.62,3.34,5.43,5.02"/>
</svg>
