<?xml version="1.0" encoding="utf-8"?>
<!-- Generator: Adobe Illustrator 19.2.0, SVG Export Plug-In . SVG Version: 6.00 Build 0)  -->
<svg version="1.1" id="Layer_1" xmlns="http://www.w3.org/2000/svg" xmlns:xlink="http://www.w3.org/1999/xlink" x="0px" y="0px"
	 width="438.1px" height="363.1px" viewBox="0 0 438.1 363.1" enable-background="new 0 0 438.1 363.1" xml:space="preserve">
<path fill="none" stroke="#FFFFFF" stroke-width="120" stroke-linejoin="bevel" stroke-miterlimit="10" d="M438.1,34.2
	c-19.9,18.3-44.5,31.6-70.8,38.3c-1-25.2,5.3-50.7,18.1-72.5c-20.9,19-41.7,37.9-62.6,56.9c-6.8,6.2-14.8,12.8-24,12
	c-12.3-1.1-19.5-15.9-17.2-28c2.3-12.1,11-21.9,19.3-31c-16.4,14.7-32.8,29.5-49.2,44.2c-6.6,5.9-15.1,12.3-23.5,9.5
	c-6.4-2.2-10.1-9.3-10.3-16.1c-0.2-6.8,2.3-13.3,4.7-19.6c-18.9,11.8-32.8,31.3-37.7,53.1c-0.5-13.5-1-27-1.5-40.6
	c-0.3-7-0.9-14.8-6.2-19.3c-7.9-6.7-21.1-0.7-25.3,8.8s-2.2,20.4-0.2,30.6c-14.5,4.1-28.9,8.1-43.4,12.2
	c-0.2-20.6-0.4-41.3-0.7-61.9c-14.6,3.1-27.2,14.5-31.7,28.7C74.1,46,73.6,53,70.7,59.3c-2.9,6.2-9.5,11.7-16.2,10.1
	c-9.7-2.3-10.8-16.1-7-25.3s10.6-18.2,9.1-28c-8.5,4.3-17.2,8.8-23.3,16.1s-9.2,18-4.8,26.5C34.4,69.9,49.6,71.6,62.4,72
	c13.4,0.4,26.8,0.7,40.1,1.1c-11.1,10.4-22.1,20.7-33.2,31.1c9.2-1.5,19.1-0.9,27.3,3.6s14.3,13.5,13.7,22.9
	c-0.6,9.4-9,18-18.4,17.3c-9.7,8.8-9.2,23.8-8.1,36.9c2.3,27.1,4.2,54.3,3.4,81.5c-14.3-9.8-35.5-6.3-47.4,6.4s-14.5,32.5-8.3,48.7
	c6.2,16.2,20.4,28.7,36.5,35.1c-3.1-21.7-6.3-43.4-9.4-65.1c7.9,12,15.9,24.1,23.8,36.1c3.6,5.4,7.7,11.2,13.9,12.9
	c9.9,2.7,19.7-7.2,20.9-17.4c1.2-10.2-3.5-20.1-8.1-29.3c17.4,18.6,34.9,37.2,52.3,55.8c-2.5-10.1-7.7-19.5-9-29.8
	c-1.3-10.3,3.2-22.6,13.3-25.2c9.1-2.3,18.2,4.5,23,12.6c4.8,8.1,6.7,17.5,11.1,25.8c4.4,8.3,12.7,15.8,22,14.7
	c-6.2-19.6-12.3-39.3-18.5-58.9c14.4,12.7,28.7,25.5,43.1,38.2c1.9,1.7,3.8,3.4,6,4.7c10.3,6.3,25.6,1.4,30.5-9.6s-1.9-25.6-13.5-29
	c10.1,19.1,20.2,38.3,30.3,57.4c4.5-11,8.9-22,13.4-32.9c0.7-1.7,1.4-3.4,2.2-5c6.9-12.6,26.3-16,37.1-6.5
	c10.8,9.6,9.7,29.2-2.1,37.6c10.9-2.9,20.1-11.5,23.7-22.2c3.6-10.7,1.5-23.1-5.5-32c14.3,12.1,28.5,24.2,42.8,36.3
	c8-17.6-2.6-39.2-18.6-50c-16-10.8-36-13.6-55.2-16c-83.5-10.4-169-20-251.2-1.9c9.6-37.6,19.2-75.2,28.8-112.8
	c11.3,14.4,22.7,28.9,34,43.3c12.8,16.3,26.5,33.3,45.8,40.7c19.2,7.3,41.4,3.7,59.2-6.5s31.6-26.3,42.3-43.8
	c6.5-10.7,14.4-23.5,26.9-23.5c12,0,20,12.3,24.4,23.5c14.3,36.8,13.8,79.1-1.1,115.6"/>
<g id="Arrow_right">
</g>
<g>
	
		<line fill="none" stroke="#000000" stroke-width="7" stroke-linecap="round" stroke-linejoin="round" stroke-miterlimit="10" x1="92.2" y1="80.5" x2="92.2" y2="282.6"/>
	
		<line fill="none" stroke="#000000" stroke-width="7" stroke-linecap="round" stroke-linejoin="round" stroke-miterlimit="10" x1="69.7" y1="260.1" x2="364" y2="260.1"/>
	<g>
		
			<polyline fill="none" stroke="#000000" stroke-width="7" stroke-linecap="round" stroke-linejoin="round" stroke-miterlimit="10" points="
			69.7,102.3 92.2,80.3 114.7,102.3 		"/>
	</g>
	<g>
		
			<polyline fill="none" stroke="#000000" stroke-width="7" stroke-linecap="round" stroke-linejoin="round" stroke-miterlimit="10" points="
			342.1,237.6 364.1,260.1 342.1,282.6 		"/>
	</g>
</g>
<text transform="matrix(1 0 0 1 31.0387 38.636)"><tspan x="0" y="0" font-family="'PermanentMarker'" font-size="30.74px">how awkward it is when</tspan><tspan x="-12.1" y="30" font-family="'PermanentMarker'" font-size="30.74px">you see someone in person</tspan></text>
<text transform="matrix(1 0 0 1 14.9328 312.0029)"><tspan x="0" y="0" font-family="'PermanentMarker'" font-size="30.74px">how much you know about</tspan><tspan x="21.8" y="30" font-family="'PermanentMarker'" font-size="30.74px">them from social media</tspan></text>
<path fill="none" stroke="#88206E" stroke-width="7" stroke-linecap="round" stroke-linejoin="round" stroke-miterlimit="10" d="
	M129,148.3c2.2,29.3,19,57.2,44,72.5s57.7,17.6,84.5,5.5c14.6-6.6,27.3-17.1,36.5-30.2c9.9-14.1,15.5-30.6,19.8-47.2"/>
<g id="Arrow_up">
</g>
</svg>
