<?xml version="1.0" encoding="utf-8"?>
<!-- Generator: Adobe Illustrator 19.2.0, SVG Export Plug-In . SVG Version: 6.00 Build 0)  -->
<svg version="1.1" id="Layer_1" xmlns="http://www.w3.org/2000/svg" xmlns:xlink="http://www.w3.org/1999/xlink" x="0px" y="0px"
	 width="780.3px" height="596.3px" viewBox="0 0 780.3 596.3" enable-background="new 0 0 780.3 596.3" xml:space="preserve">
<path fill="none" stroke="#FFFFFF" stroke-width="120" stroke-linejoin="bevel" stroke-miterlimit="10" d="M35.7,15
	c-0.9,14-1.8,27.9-2.7,41.9C55.7,49.7,75.5,34,87.7,13.6c-1.3,18.7-2.6,37.4-4,56.1c23.2-23.4,46.3-46.8,69.5-70.2
	c-4.9,23.1-9.8,46.3-14.8,69.4c22.5-12.1,41.6-30.6,54.5-52.7c14,17.7,2.4,46.2-17.8,56.3s-44.4,6.4-65.8-0.4
	C94.3,67.3,78.6,60.9,63.1,64c-15.5,3.2-29,21.4-20.6,34.9c8.9,14.3,30.5,9.7,46.1,3.5c-13.7,9.7-28.1,20.2-34.9,35.6
	s-2.6,37,13.1,43.2C59,192,47.1,199.8,34.1,202.7c-8.3,8.2-17,17.2-18.7,28.6c-1.7,11.5,7.8,25,19.2,22.6
	c11.8-2.6,14.5-18,14.8-30.1c0.3-12.1,3.6-27.6,15.5-29.5c-2.3,12.1-4.5,25.1,0.8,36.2C71,241.6,87.3,248,96,239.2
	c9.5-9.6,2.8-28.2,12.4-37.6c7.9-7.8,22.3-3.4,28.7,5.7c6.3,9.1,6.8,20.9,7.1,32c6.2-21.1,12.5-42.1,18.7-63.2
	c11,22.2,22,44.3,33,66.5c15-4.8,20.4-25.4,13.2-39.4c-7.3-14-23.2-21.6-38.8-23.8c-15.6-2.2-31.5,0-47.2,0.4
	c-15.8,0.4-32.4-1.3-45.4-10.3c21.7-4.3,38.6-21.4,51.6-39.3s24.2-37.7,41.3-51.8c31.2-25.8,75.2-27.4,115.7-27.7
	c-3.4,7.5-6.9,14.9-10.3,22.4c21.3-26.4,61.1-25.8,94.9-22.8c43.2,3.9,86.4,7.7,129.6,11.6C434.7,73.9,367.8,79,301,77.4
	c12.4,4.4,24.8,8.8,37.2,13.2c-9.2,15.3-18.4,30.6-27.6,45.9c6.1-0.3,12.3-0.7,18.4-1c-8.6,19.1-17.2,38.3-25.9,57.4
	c4.8-1.8,9.5-3.6,14.3-5.4c-24,14.6-26.2,54.3-4,71.5c7.6-16.1,15.2-32.2,22.8-48.3c-2.6,11.4-5.2,23.3-2.3,34.7
	c2.9,11.3,13.2,21.7,24.8,20.5c10.9-1.1,18.8-12,20.2-22.9c1.4-10.9-2-21.8-5.5-32.3c11.4,23.6,22.8,47.3,34.2,70.9
	c24.1-15.5,41.8-40.8,47.9-68.9c-4,22.4,1.6,46.3,15.1,64.5c23-11,25.1-46.2,8.7-65.8c-16.4-19.6-44-25.7-69.5-25.1
	c-25.5,0.6-50.7,6.8-76.2,6.7c12.9-20.3,25.8-40.7,38.6-61c7.6-11.9,15.5-24.2,27.3-32c11.8-7.8,28.6-9.8,39.6-0.8
	c12,9.8,12.4,28,9,43.1c-3.4,15.1-9.5,30.3-6.9,45.6c2.6,15.3,19.4,29.4,33.1,22.1c-0.3-74.3,36.3-147.8,95.6-192.4
	c1,13.3,2,26.7,3.1,40c13.4-14.6,26.7-29.2,40.1-43.8c-2.1,22.6-4.2,45.3-6.2,67.9c21.6-19.1,43.2-38.2,64.8-57.3
	c2.4,19.6,4.8,39.2,7.1,58.8c12.1-24.2,24.3-48.5,36.4-72.7c13.4,15.5,17.9,38.2,11.6,57.6c10.3-22.6,20.6-45.2,30.9-67.8
	c4.3,14.3-4.1,29.9-16.1,38.7c-12,8.8-27,12.3-41.5,15.6C653.1,65.4,606,76,558.9,86.7c17.6,2.8,35.1,5.6,52.7,8.4
	c-7.8,14.1-15.7,28.3-23.5,42.4c14.8,15.7,6.6,46-14.1,52.2c-19.7,4.4-32.6,27.9-25.7,46.9c21.9-4.3,40.9-21.4,47.4-42.8
	c-9.1,20.4-18.2,40.8-27.2,61.2c35.2-19.3,76.7-26.7,116.4-20.8c19,2.8,40.1,0.9,59-2.2c19-3.1,35.9-11.6,33.2-30.6
	c-1.8-12.6-13.7-22.9-26.4-22.8c-12.7,0.1-21.6,30.2-23.2,42.8c0.9-14.1-18.7-43.1-32.8-41.8c-14,1.3-26.4,9.3-39.8,13.9
	c-23.2,8-52.4,3.6-66.9-16.3c-14.5-19.9-4.6-54.6,19.7-58.2c19.3-2.9,36.2,12.8,48.2,28.2s24.7,33.1,43.8,36.9
	c-28.4,6.5-50.4,29-66.6,53.3c-16.2,24.2-28.2,51.2-46.3,74c-18.1,22.8-44.4,41.8-73.6,41.1c4.7-32.7,33.2-60.4,66-64.2
	c-39.5,5.4-73.4,29.9-105.4,53.7c-10.3,7.6-20.6,15.2-30.8,22.9c5.6-19.4,11.1-38.8,16.7-58.2c-25.5,7.2-47.2,26.4-57.5,50.8
	c2.4-9.3,4.9-18.9,3.5-28.4c-1.4-9.5-7.7-19-17.1-21c-11.1-2.4-22,6.4-26.1,17c-4,10.6-2.8,22.3-1.6,33.6c-10.1,6-20.5-8-22.2-19.6
	c-1.6-11.6-2.8-26.4-13.9-30.1c-9.8-3.3-20.1,6.3-21.6,16.6c-1.5,10.2,3.1,20.3,7.5,29.6c-11.5,1.7-23.7-4.8-28.9-15.2
	c-5.2-10.4-2.8-24,5.5-32.2c10.5,26.3,0,59.3-23.7,74.8c16-3.2,32-6.4,48-9.6c-7.1,45-14.2,90-21.3,134.9c-1.3,8.3-2.8,17-8,23.6
	c-5.2,6.6-15.6,9.9-22.2,4.8c-6.7-5.1-3.3-18.8,5.1-18c6.4-5.2,16.4-1.2,21.4,5.3c5,6.5,6.7,14.9,10.4,22.3
	c12.9,26.2,46.2,34.9,75.4,35.2c40.1,0.4,80.2-9.6,115.5-28.7c13.1-7.1,27.4-21.2,20.9-34.6c-5.9-12.1-23-11.7-36.3-9.4
	c-32.1,5.5-64.2,11-96.3,16.6c-17.4,3-35.9,5.9-52.4-0.6s-29.1-26.2-21.5-42.2c5.2,12.1,20.9,16.7,33.7,13.5s23.3-12,33.3-20.6
	c16.2-14,32.5-27.9,48.7-41.9c19.5-16.7,40.7-37.8,37.9-63.3"/>
<g id="Arrow_right">
</g>
<g>
	<g>
		
			<line fill="none" stroke="#000000" stroke-width="7" stroke-linecap="round" stroke-linejoin="round" stroke-miterlimit="10" x1="56.5" y1="79.3" x2="56.5" y2="211.4"/>
		
			<line fill="none" stroke="#000000" stroke-width="7" stroke-linecap="round" stroke-linejoin="round" stroke-miterlimit="10" x1="35.5" y1="188.9" x2="200.3" y2="188.9"/>
		<g>
			
				<polyline fill="none" stroke="#000000" stroke-width="7" stroke-linecap="round" stroke-linejoin="round" stroke-miterlimit="10" points="
				34,101.3 56.5,79.3 79,101.3 			"/>
		</g>
		<g>
			
				<polyline fill="none" stroke="#000000" stroke-width="7" stroke-linecap="round" stroke-linejoin="round" stroke-miterlimit="10" points="
				178.3,166.4 200.3,188.9 178.3,211.4 			"/>
		</g>
	</g>
	<text transform="matrix(1 0 0 1 18.206 237.3865)" fill="#821E70" font-family="'PermanentMarker'" font-size="30.74px">consequences</text>
	<text transform="matrix(1 0 0 1 19.7971 39.6083)"><tspan x="0" y="0" fill="#AB3D63" font-family="'PermanentMarker'" font-size="30.74px">difficulty of </tspan><tspan x="39.3" y="30" fill="#AB3D63" font-family="'PermanentMarker'" font-size="30.74px">decision</tspan></text>
	<path fill="none" stroke="#ED7C31" stroke-width="7" stroke-linecap="round" stroke-linejoin="round" stroke-miterlimit="10" d="
		M71,174c21.3-5.7,41.7-15.7,58.1-30.4c16.4-14.8,28.6-34.6,32.7-56.3"/>
</g>
<g>
	<g>
		
			<line fill="none" stroke="#000000" stroke-width="7" stroke-linecap="round" stroke-linejoin="round" stroke-miterlimit="10" x1="325.5" y1="79.3" x2="325.5" y2="211.4"/>
		
			<line fill="none" stroke="#000000" stroke-width="7" stroke-linecap="round" stroke-linejoin="round" stroke-miterlimit="10" x1="304.5" y1="188.9" x2="469.3" y2="188.9"/>
		<g>
			
				<polyline fill="none" stroke="#000000" stroke-width="7" stroke-linecap="round" stroke-linejoin="round" stroke-miterlimit="10" points="
				303,101.3 325.5,79.3 348,101.3 			"/>
		</g>
		<g>
			
				<polyline fill="none" stroke="#000000" stroke-width="7" stroke-linecap="round" stroke-linejoin="round" stroke-miterlimit="10" points="
				447.3,166.4 469.3,188.9 447.3,211.4 			"/>
		</g>
	</g>
	<text transform="matrix(1 0 0 1 294.4824 237.3869)"><tspan x="0" y="0" fill="#AB3D63" font-family="'PermanentMarker'" font-size="30.74px">difficulty of</tspan><tspan x="33.6" y="30" fill="#AB3D63" font-family="'PermanentMarker'" font-size="30.74px">decision</tspan></text>
	<text transform="matrix(1 0 0 1 268.0654 69.5527)" fill="#A583A2" font-family="'PermanentMarker'" font-size="30.74px">procrastination</text>
	<path fill="none" stroke="#ED7C31" stroke-width="7" stroke-linecap="round" stroke-linejoin="round" stroke-miterlimit="10" d="
		M351,169.1c13.7-35.4,42.7-64.6,77.9-78.7"/>
</g>
<g>
	<g>
		
			<line fill="none" stroke="#000000" stroke-width="7" stroke-linecap="round" stroke-linejoin="round" stroke-miterlimit="10" x1="594.5" y1="79.3" x2="594.5" y2="211.4"/>
		
			<line fill="none" stroke="#000000" stroke-width="7" stroke-linecap="round" stroke-linejoin="round" stroke-miterlimit="10" x1="573.5" y1="188.9" x2="738.3" y2="188.9"/>
		<g>
			
				<polyline fill="none" stroke="#000000" stroke-width="7" stroke-linecap="round" stroke-linejoin="round" stroke-miterlimit="10" points="
				572,101.3 594.5,79.3 617,101.3 			"/>
		</g>
		<g>
			
				<polyline fill="none" stroke="#000000" stroke-width="7" stroke-linecap="round" stroke-linejoin="round" stroke-miterlimit="10" points="
				716.3,166.4 738.3,188.9 716.3,211.4 			"/>
		</g>
	</g>
	<text transform="matrix(1 0 0 1 537.0623 237.3868)" fill="#A583A2" font-family="'PermanentMarker'" font-size="30.74px">procrastination</text>
	<text transform="matrix(1 0 0 1 553.4681 39.6081)"><tspan x="0" y="0" fill="#80739C" font-family="'PermanentMarker'" font-size="30.74px">likelihood of</tspan><tspan x="16.7" y="30" fill="#80739C" font-family="'PermanentMarker'" font-size="30.74px">being right</tspan></text>
	<path fill="none" stroke="#ED7C31" stroke-width="7" stroke-linecap="round" stroke-linejoin="round" stroke-miterlimit="10" d="
		M609.2,115.5c28.2,18.8,56.4,37.7,84.7,56.5"/>
</g>
<g>
	<g>
		
			<line fill="none" stroke="#000000" stroke-width="7" stroke-linecap="round" stroke-linejoin="round" stroke-miterlimit="10" x1="293" y1="364.2" x2="293" y2="544.2"/>
		
			<line fill="none" stroke="#000000" stroke-width="7" stroke-linecap="round" stroke-linejoin="round" stroke-miterlimit="10" x1="270.5" y1="521.7" x2="510" y2="521.7"/>
		<g>
			
				<polyline fill="none" stroke="#000000" stroke-width="7" stroke-linecap="round" stroke-linejoin="round" stroke-miterlimit="10" points="
				270.5,385.7 293,363.7 315.5,385.7 			"/>
		</g>
		<g>
			
				<polyline fill="none" stroke="#000000" stroke-width="7" stroke-linecap="round" stroke-linejoin="round" stroke-miterlimit="10" points="
				488,499.2 510,521.7 488,544.2 			"/>
		</g>
	</g>
	<text transform="matrix(1 0 0 1 290.5464 574.6722)" fill="#821E70" font-family="'PermanentMarker'" font-size="30.74px">consequences</text>
	<text transform="matrix(1 0 0 1 266.5245 324.2466)"><tspan x="0" y="0" fill="#80739C" font-family="'PermanentMarker'" font-size="30.74px">likelihood of making</tspan><tspan x="0" y="30" fill="#80739C" font-family="'PermanentMarker'" font-size="30.74px">the wrong choice</tspan></text>
	<path fill="none" stroke="#ED7C31" stroke-width="7" stroke-linecap="round" stroke-linejoin="round" stroke-miterlimit="10" d="
		M307,506.7c61.1-36.3,117.2-80.8,166.5-132"/>
</g>
<g id="Arrow_up">
</g>
</svg>
