<?xml version="1.0" encoding="utf-8"?>
<!-- Generator: Adobe Illustrator 19.2.0, SVG Export Plug-In . SVG Version: 6.00 Build 0)  -->
<svg version="1.1" id="Layer_1" xmlns="http://www.w3.org/2000/svg" xmlns:xlink="http://www.w3.org/1999/xlink" x="0px" y="0px"
	 width="525.68px" height="365px" viewBox="0 0 525.68 365" enable-background="new 0 0 525.68 365" xml:space="preserve">
<path fill="none" stroke="#FFFFFF" stroke-width="120" stroke-linejoin="bevel" stroke-miterlimit="10" d="M57.39,14.19
	c125.41-3.24,250.81-6.48,376.22-9.72c-31.05,28.74-75.5,37.93-117.78,39.5s-84.89-3.24-126.78,2.72
	C104.28,58.75,27.77,117.93-5.21,196.95c72.78-65.01,150.93-132.71,247.07-149.4c-76.83,88.67-153.66,177.34-230.48,266
	c66.25-62.11,132.5-124.22,198.75-186.33c27.9-26.15,56.5-52.79,91.44-68.33c-61.11,96.34-164.6,206.29-238.23,293.44
	c25.6-39.6,87.22-97.25,119.84-131.31s72.85-62.33,118.68-73.42c-59.63,79.28-119.25,158.57-178.88,237.85
	c36.56-13.37,69.69-36.02,95.41-65.24c42.69-48.51,63.3-111.91,91.24-170.18c27.94-58.27,69.04-116.53,130.91-135.17
	c-15.89,25.63-31.77,51.26-47.66,76.88c-27.51,44.37-55.01,88.75-82.52,133.12c-13.97,22.54-28.05,45.29-37.02,70.25
	c-8.97,24.96-12.55,52.63-5.08,78.08c29.29-11.79,45.09-42.91,58.36-71.55c19.22-41.45,78.95-109.04,98.16-150.49
	c-21.45,73.75-83.41,173.63-104.86,247.38c41.39-55.17,82.78-110.33,124.17-165.5c-2.43,35.63-4.87,71.27-7.3,106.9
	c-0.5,7.31-0.96,14.92,1.78,21.72c2.74,6.8,9.67,12.51,16.91,11.31c10.41-1.72,13.83-14.76,14.97-25.25
	c4.02-36.71,24.76-96.88,28.78-133.58c-2.68,11.85-22,48.18-16.91,59.21s21.44,17.25,29.68,8.32c4.6-4.99,4.95-12.46,4.87-19.25
	c-0.67-56.88-13.21-113.59-36.59-165.44c-7.55-16.74-17.29-34.06-33.89-41.93c-16.59-7.87-41.12-0.49-44.16,17.62"/>
<path fill="none" stroke="#000000" stroke-width="7" stroke-linecap="round" stroke-linejoin="round" stroke-miterlimit="10" d="
	M113.97,58.25C63.42,82.4,24.21,130.94,15.29,186.24s14.58,115.6,60.91,147.09s113.66,30.09,156.3-6.24
	c27.12-23.11,42.87-57.36,49.87-92.29c9.05-45.16,3.77-94.94-23.2-132.27S180.9,44.11,137.73,60.15"/>
<text transform="matrix(1 0 0 1 88.6947 169.5685)"><tspan x="0" y="0" font-family="'PermanentMarker'" font-size="30.74px">wh</tspan><tspan x="43.26" y="0" font-family="'PermanentMarker'" font-size="30.74px" letter-spacing="-1">a</tspan><tspan x="59.59" y="0" font-family="'PermanentMarker'" font-size="30.74px">t</tspan><tspan x="13.12" y="30" font-family="'PermanentMarker'" font-size="30.74px">y</tspan><tspan x="24.5" y="30" font-family="'PermanentMarker'" font-size="30.74px">o</tspan><tspan x="43.23" y="30" font-family="'PermanentMarker'" font-size="30.74px">u</tspan><tspan x="-3.78" y="60" font-family="'PermanentMarker'" font-size="30.74px">know</tspan><tspan x="-6" y="90" font-family="'PermanentMarker'" font-size="30.74px">a</tspan><tspan x="11.26" y="90" font-family="'PermanentMarker'" font-size="30.74px">b</tspan><tspan x="28.88" y="90" font-family="'PermanentMarker'" font-size="30.74px">o</tspan><tspan x="47.61" y="90" font-family="'PermanentMarker'" font-size="30.74px">ut</tspan></text>
<path fill="none" stroke="#000000" stroke-width="7" stroke-linecap="round" stroke-linejoin="round" stroke-miterlimit="10" d="
	M381.84,58.01c-49.63,1.78-98.08,25.51-129.92,63.63s-46.55,90.02-39.46,139.18c3.78,26.24,14.27,52.63,34.66,69.58
	c31.79,26.42,77.92,23.62,118.96,18.74c40.45-4.81,83.83-11.67,113.03-40.07c24.81-24.14,34.76-59.82,38.17-94.26
	c4.2-42.49-0.79-87.87-25.38-122.77S419.43,36.5,380,52.88"/>
<text transform="matrix(1 0 0 1 349.985 169.5685)"><tspan x="0" y="0" font-family="'PermanentMarker'" font-size="30.74px">wh</tspan><tspan x="43.26" y="0" font-family="'PermanentMarker'" font-size="30.74px" letter-spacing="-1">a</tspan><tspan x="59.59" y="0" font-family="'PermanentMarker'" font-size="30.74px">t</tspan><tspan x="-9.71" y="30" font-family="'PermanentMarker'" font-size="30.74px">w</tspan><tspan x="15.66" y="30" font-family="'PermanentMarker'" font-size="30.74px">o</tspan><tspan x="34.39" y="30" font-family="'PermanentMarker'" font-size="30.74px">uld</tspan><tspan x="-31.96" y="60" font-family="'PermanentMarker'" font-size="30.74px">make </tspan><tspan x="58.19" y="60" font-family="'PermanentMarker'" font-size="30.74px">y</tspan><tspan x="69.57" y="60" font-family="'PermanentMarker'" font-size="30.74px">o</tspan><tspan x="88.3" y="60" font-family="'PermanentMarker'" font-size="30.74px">u</tspan><tspan x="-2.4" y="90" font-family="'PermanentMarker'" font-size="30.74px">upset</tspan></text>
<path fill="none" stroke="#ED1C24" stroke-width="7" stroke-linecap="round" stroke-linejoin="round" stroke-miterlimit="10" d="
	M260.38,116.05c-2.06,2.6-4.11,5.19-6.17,7.79c3.16-0.61,6.31-1.22,9.47-1.84c-3.35,1.9-6.69,3.81-10.04,5.71
	c6.29,1.23,12.57,2.45,18.86,3.68c-9.78,0.44-19.56,0.87-29.33,1.31c8.41,2.83,16.82,5.65,25.24,8.48
	c-9.02,0.7-18.05,1.41-27.07,2.11c11.4,1,22.81,2,34.21,3c-14.34,2.29-28.68,4.57-43.03,6.86c15.26,1.27,30.51,2.53,45.77,3.8
	c-15.4,2.05-30.79,4.1-46.19,6.15c14.41,0.99,28.82,1.99,43.23,2.98c-17.16,1.9-34.32,3.81-51.48,5.71
	c20.37,0.09,40.74,0.18,61.11,0.28c-21.74,3.91-43.49,7.82-65.23,11.73c20.7,0.94,41.4,1.88,62.1,2.81
	c-20.71,3.24-41.42,6.49-62.13,9.73c21-11.76,47.86-9.2,66.76,6.37c-23.96-3.46-48.22-4.34-72.34-2.61
	c23.14-0.38,46.32,2.6,68.77,8.84c-18.13,5.92-37.52,6.99-56.09,3.12c-0.41-1.09-0.83-2.17-1.24-3.26
	c-3.76,0.15-7.52,0.31-11.28,0.46c21.86,8.98,43.72,17.97,65.58,26.95c-22.59-4.56-45.17-9.12-67.76-13.68
	c21.95-6.17,46.79,3.23,60.83,23.01c-15.03-0.17-30.06-0.35-45.09-0.52c-2.69-0.03-5.49-0.09-7.89-1.45
	c-2.4-1.36-4.25-4.43-3.51-7.31c19.77,2.63,38.92,10.9,55.12,23.79c-18.2-2.02-36.4-4.03-54.6-6.05
	c18.59,2.11,36.63,9.84,51.69,22.16c-16.04-3.1-32.07-6.2-48.11-9.3c14.83,7.03,29.66,14.06,44.49,21.09
	c-14.76-3.08-29.53-6.15-44.29-9.23c10.38,4.51,20.76,9.01,31.15,13.52c-9.53-1.64-19.05-3.29-28.58-4.93
	c7.32,4.66,14.64,9.33,21.96,13.99c-4.33-1.48-8.67-2.96-13-4.44c3.57,4.95,7.13,9.9,10.7,14.85c-3.41-4.14-6.83-8.29-10.24-12.43
	c2.27,4.32,4.54,8.65,6.81,12.97"/>
<text transform="matrix(1 0 0 1 67.5968 24.4749)"><tspan x="0" y="0" fill="#ED1C24" font-family="'PermanentMarker'" font-size="30.74px">so</tspan><tspan x="32.39" y="0" fill="#ED1C24" font-family="'PermanentMarker'" font-size="30.74px">ur</tspan><tspan x="67" y="0" fill="#ED1C24" font-family="'PermanentMarker'" font-size="30.74px">c</tspan><tspan x="82.49" y="0" fill="#ED1C24" font-family="'PermanentMarker'" font-size="30.74px">e of all t</tspan><tspan x="231.36" y="0" fill="#ED1C24" font-family="'PermanentMarker'" font-size="30.74px">r</tspan><tspan x="247.39" y="0" fill="#ED1C24" font-family="'PermanentMarker'" font-size="30.74px">ue rage</tspan></text>
</svg>
