<?xml version="1.0" encoding="utf-8"?>
<!-- Generator: Adobe Illustrator 18.0.0, SVG Export Plug-In . SVG Version: 6.00 Build 0)  -->
<!DOCTYPE svg PUBLIC "-//W3C//DTD SVG 1.1//EN" "http://www.w3.org/Graphics/SVG/1.1/DTD/svg11.dtd">
<svg version="1.1" id="Layer_1" xmlns="http://www.w3.org/2000/svg" xmlns:xlink="http://www.w3.org/1999/xlink" x="0px" y="0px"
	 viewBox="0 0 510 460.5" enable-background="new 0 0 510 460.5" xml:space="preserve">
<path fill="none" stroke="#FFFFFF" stroke-width="120" stroke-linejoin="bevel" stroke-miterlimit="10" d="M13.4,82.4
	c-3.7,17.1-7.3,34.1-11,51.2c12.1,2.7,24.3-4.6,32.8-13.7s14.9-20.1,24.2-28.2S83,78.8,93.8,85C74,122.2,54.3,159.3,34.6,196.4
	c-9.8,18.5-19.9,37.8-21.1,58.8c17.1-9.5,34.1-19,51.2-28.5c4.8,10,1.7,22.2-4.3,31.5s-14.6,16.7-21.9,25C13,312.4,3.8,355,15,392.1
	c22.4-19.6,42.9-41.2,61.3-64.6c8.9,17.8-0.3,39.1-11.3,55.6c-11,16.5-24.5,33.3-24.6,53.2c-0.1,11.5,8.5,25,19.7,22.6
	c8.6-1.9,12.5-11.7,15.1-20.1c7.3-24.2,14.6-48.5,21.9-72.7c3.2-10.7,7.9-22.9,18.5-26.2c10.2-3.2,21.4,4.2,25.9,14
	c4.4,9.8,3.6,21.1,1.8,31.6c-1.8,10.6-4.5,21.2-3.4,31.9c1.2,12.6,12.7,26.5,24.4,21.6c11.3-4.8,10.2-20.9,8.2-33
	c-4.5-26.5-4.1-53.9,1.2-80.2c1.7-8.7,5.1-18.5,13.4-21.4c8-2.8,17,2.8,21,10.3c4,7.5,4.2,16.4,4.3,24.9c0.2,17.7,0.5,35.4,0.7,53.1
	c0.2,12.9,0.6,26.5,7.5,37.4c8.6,13.5,25.1,19.5,40.9,22.3c27.8,5,56.4,2.9,84.6,0.8c31.7-2.4,105.6,5.4,130.2-14.7
	c4.1-3.3,8.1-7.8,7.8-13c-0.6-9.8-14-11.9-23.8-11.1c-28.9,2.4-97.8-6.3-126.6-3.9c-9.8,0.8-20.2,1.5-29.1-2.6
	c-9-4.1-15.6-15-11.7-24c3.7-8.6,14.4-11.3,23.6-13c28.7-5.2,57.4-10.4,86.1-15.5c-29.9-28.5-73.7-35.2-114.1-43.9
	c-8.4-1.8-17-3.9-24.4-8.4s-13.3-12.1-13.8-20.8c-0.5-10.2,6.4-19.1,12.7-27.1c49.5-63.5,82.8-161.3,87.3-241.7"/>
<g>
	<text transform="matrix(1 0 0 1 28.1887 414.3455)"><tspan x="0" y="0" font-family="'PermanentMarker'" font-size="31">how many chopsticks came</tspan><tspan x="0" y="37.2" font-family="'PermanentMarker'" font-size="31">with your chinese food for one</tspan></text>
	
		<line fill="none" stroke="#000000" stroke-width="7" stroke-linecap="round" stroke-linejoin="round" stroke-miterlimit="10" x1="28.2" y1="359.8" x2="411.2" y2="359.8"/>
	
		<polyline fill="none" stroke="#000000" stroke-width="7" stroke-linecap="round" stroke-linejoin="round" stroke-miterlimit="10" points="
		389.2,337.3 411.2,359.8 389.2,382.3 	"/>
	<path fill="none" stroke="#000000" stroke-width="7" stroke-linecap="round" stroke-linejoin="round" stroke-miterlimit="10" d="
		M109.1,354.7c0.3,3,0.7,6,1,9"/>
	
		<line fill="none" stroke="#000000" stroke-width="7" stroke-linecap="round" stroke-linejoin="round" stroke-miterlimit="10" x1="181.7" y1="355.3" x2="181.7" y2="364.3"/>
	<path fill="none" stroke="#000000" stroke-width="7" stroke-linecap="round" stroke-linejoin="round" stroke-miterlimit="10" d="
		M249.5,354.8c-0.5,3-1.1,6-1.6,9"/>
	<path fill="none" stroke="#000000" stroke-width="7" stroke-linecap="round" stroke-linejoin="round" stroke-miterlimit="10" d="
		M325.1,354.6c-1.2,3.2-1.1,6.5,0.2,9.7"/>
</g>
<g>
	
		<line fill="none" stroke="#000000" stroke-width="7" stroke-linecap="round" stroke-linejoin="round" stroke-miterlimit="10" x1="50.7" y1="382.3" x2="50.7" y2="128.3"/>
	
		<polyline fill="none" stroke="#000000" stroke-width="7" stroke-linecap="round" stroke-linejoin="round" stroke-miterlimit="10" points="
		28.2,150.3 50.7,128.3 73.2,150.3 	"/>
	<text transform="matrix(1 0 0 1 4.7639 116.345)" font-family="'PermanentMarker'" font-size="31">shame</text>
</g>
<path fill="none" stroke="#FF7BAC" stroke-width="7" stroke-linecap="round" stroke-linejoin="round" stroke-miterlimit="10" d="
	M56.1,356.2c82.2,3.2,165.1-33.4,220.7-97.4s73.1-152.5,73.1-240.4"/>
</svg>
