<?xml version="1.0" encoding="utf-8"?>
<!-- Generator: Adobe Illustrator 18.0.0, SVG Export Plug-In . SVG Version: 6.00 Build 0)  -->
<!DOCTYPE svg PUBLIC "-//W3C//DTD SVG 1.1//EN" "http://www.w3.org/Graphics/SVG/1.1/DTD/svg11.dtd">
<svg version="1.1" id="Layer_1" xmlns="http://www.w3.org/2000/svg" xmlns:xlink="http://www.w3.org/1999/xlink" x="0px" y="0px"
	 viewBox="0 0 594.9 622.5" enable-background="new 0 0 594.9 622.5" xml:space="preserve">
<path fill="none" stroke="#FFFFFF" stroke-width="120" stroke-linejoin="bevel" stroke-miterlimit="10" d="M188.9,5.6
	C182.4,25.4,176,45.2,169.5,65c32.1-8.3,61.5-26.6,83.3-51.6c-22.9,55.6-45.7,111.1-68.6,166.7c14.1-17.6,28.2-35.2,42.3-52.8
	c36-45,72.3-90.3,115.4-128.7c-29.8,60-59.7,120-89.5,180c17.5,6.8,37.6-4.8,48-20.5c10.4-15.7,14-34.8,20.2-52.5
	c14.3-40.7,43.7-76,81.2-97.4C380.8,65,359.9,121.8,339,178.6c47.1-42.7,83.2-97.5,103.7-157.7c7.9,61.6-22.5,122.3-62.3,170
	s-89.2,86.6-129.8,133.6s-73.1,106.1-68.5,168c25.3-1.1,42.6-25.1,55.9-46.7c13.2-21.6,30.2-45.7,55.5-47.3
	C274,474.7,238.9,546.9,191,609.2c26.7-5.4,49.1-24.1,65.6-45.7c16.5-21.6,28.3-46.5,41.9-70c24.8-42.9,56.2-82.1,92.7-115.6
	c-5,29.1-19,55.7-32.8,81.8c-28.6,54.1-57.3,108.3-85.9,162.4c45.6-18.2,84.1-53.6,106-97.5c4.6-9.2,8.7-19,16.5-25.7
	c7.8-6.7,20.7-8.8,27.9-1.5c8.6,8.7,3.9,23.1-1.2,34.2c-10.9,23.3-21.7,46.5-32.6,69.8c19.5,2,33.4-17.7,42.8-34.9
	c47.6-87.5,95.3-175.1,142.9-262.6c8.6-15.9,16.9-36.9,5-50.5c-11.7-13.4-34.9-7.8-46.9,5.4c-11.9,13.2-16.6,31.2-24.4,47.1
	s-21.7,31.7-39.5,31.5c-17.9-0.1-31.7-16.5-37.8-33.3c-6.1-16.8-7.2-35.2-14-51.7c-6.7-16.6-22-32-39.8-30.3
	c-22.2,2.2-32.9,27.4-40.5,48.3c-7.2,19.7-16,39.3-30.4,54.6c-14.4,15.2-35.4,25.5-56.2,22.4c-26.9-4-45.5-28-63.4-48.5
	c-28.5-32.8-62.2-61.1-99.4-83.6c-19-11.5-42.8-21.6-62.6-11.6C2.9,214.9-1.4,244.4-0.3,269.2c1.4,29.5,6.5,58.8,15.3,87
	c2.8,8.9,7,18.8,15.9,21.5c14.8,4.5,25.6-13.9,30.2-28.7c9.5-30.3,18.9-60.5,28.4-90.8"/>
<g>
	
		<line fill="none" stroke="#010101" stroke-width="7" stroke-linecap="round" stroke-linejoin="round" stroke-miterlimit="10" x1="37.8" y1="293.3" x2="585" y2="293.3"/>
	
		<line fill="none" stroke="#010101" stroke-width="7" stroke-linecap="round" stroke-linejoin="round" stroke-miterlimit="10" x1="46.3" y1="380.6" x2="46.3" y2="183.2"/>
	
		<polyline fill="none" stroke="#010101" stroke-width="7" stroke-linecap="round" stroke-linejoin="round" stroke-miterlimit="10" points="
		563,270.8 585,293.3 563,315.8 	"/>
	
		<polyline fill="none" stroke="#010101" stroke-width="7" stroke-linecap="round" stroke-linejoin="round" stroke-miterlimit="10" points="
		23.8,205.2 46.3,183.2 68.8,205.2 	"/>
</g>
<text transform="matrix(0 -1 1 0 23.787 363.2014)" fill="#FBCC34" font-family="'PermanentMarker'" font-size="30.74">happiness</text>
<text transform="matrix(1 0 0 1 524.3232 254.4646)" fill="#010101" font-family="'PermanentMarker'" font-size="30.74">time</text>
<path fill="none" stroke="#FBCC34" stroke-width="7" stroke-linecap="round" stroke-miterlimit="10" d="M52.2,294.3
	c33.6-10.8,44.2-78.4,78.3-78.4c18.2,0,28.1,17.8,35.1,31.9c9.8,19.7,19.5,39.5,29.3,59.2c7.6,15.5,17,32.4,35.3,38.7
	c25.4,8.7,53.9-8.3,66.7-28.8s16.3-44.4,28.4-65.2c8.5-14.8,23.6-28.7,43-29.8c26.4-1.5,45.7,20.9,54.3,42s12.9,45.1,32,60.5
	c15.6,12.6,40,16.7,60.2,10.3c20.2-6.5,35.2-23.2,37.1-41.4"/>
<g>
	<path fill="none" stroke="#00A651" stroke-width="7" stroke-linecap="round" stroke-linejoin="round" stroke-miterlimit="10" d="
		M377.7,214.7c-4.1,4.4-8.2,8.8-12.3,13.2"/>
	<path fill="none" stroke="#00A651" stroke-width="7" stroke-linecap="round" stroke-linejoin="round" stroke-miterlimit="10" d="
		M366.2,215.7c3.1,3.7,6.3,7.4,9.4,11.1"/>
</g>
<g>
	<g>
		<text transform="matrix(1 0 0 1 174.6156 150.0109)"><tspan x="0" y="0" fill="#00A651" font-family="'PermanentMarker'" font-size="30.74">happiness as seen</tspan><tspan x="0" y="30" fill="#00A651" font-family="'PermanentMarker'" font-size="30.74">from up there</tspan></text>
	</g>
	<g>
		
			<line fill="none" stroke="#010101" stroke-width="7" stroke-linecap="round" stroke-linejoin="round" stroke-miterlimit="10" x1="184.5" y1="93.9" x2="439.4" y2="93.9"/>
		
			<line fill="none" stroke="#010101" stroke-width="7" stroke-linecap="round" stroke-linejoin="round" stroke-miterlimit="10" x1="206.5" y1="116.4" x2="206.5" y2="10.3"/>
		
			<polyline fill="none" stroke="#010101" stroke-width="7" stroke-linecap="round" stroke-linejoin="round" stroke-miterlimit="10" points="
			417.6,71.4 439.6,93.9 417.6,116.4 		"/>
		
			<polyline fill="none" stroke="#010101" stroke-width="7" stroke-linecap="round" stroke-linejoin="round" stroke-miterlimit="10" points="
			184,32.4 206.5,10.4 229,32.4 		"/>
	</g>
	<path fill="none" stroke="#FBCC34" stroke-width="7" stroke-linecap="round" stroke-linejoin="round" stroke-miterlimit="10" d="
		M206.5,93.9c22.1-18.6,36.2-45.9,39.3-74.6c-0.8,5.7,2.2,12.2,6.5,16.3c4.3,4.1,10.3,6,16.3,6.5s11.9-0.4,17.8-1.3
		c1.1-0.2,2.8-0.4,3.8-0.4c1,2.2,2,4.5,3.7,6.2c1.7,1.7,4.4,2.6,6.6,1.6c2.8-1.3,3.6-4.9,4-8c0.9-7.3,1.9-14.7,2.8-22l0,0
		c-0.8,5.7,2.2,12.2,6.5,16.3s10.3,6,16.3,6.5s11.9-0.4,17.8-1.3c1.1-0.2,2.8-0.4,3.8-0.4c1,2.2,2,4.5,3.7,6.2
		c1.7,1.7,4.4,2.6,6.6,1.6c2.8-1.3,3.6-4.9,4-8c0.9-7.3,1.9-14.7,2.8-22l0.1,0c-0.8,5.7,2.2,12.2,6.5,16.3s10.3,6,16.3,6.5
		s11.9-0.4,17.8-1.3c1.1-0.2,2.8-0.4,3.8-0.4c1,2.2,2,4.5,3.7,6.2c1.7,1.7,4.4,2.6,6.6,1.6c2.8-1.3,3.6-4.9,4-8
		c0.9-7.3,1.9-14.7,2.8-22"/>
</g>
<g>
	<path fill="none" stroke="#A583A2" stroke-width="7" stroke-linecap="round" stroke-linejoin="round" stroke-miterlimit="10" d="
		M250.4,340.5c-3.6,4.8-7.3,9.6-10.9,14.3"/>
	<path fill="none" stroke="#A583A2" stroke-width="7" stroke-linecap="round" stroke-linejoin="round" stroke-miterlimit="10" d="
		M240,342.2c3.4,4.2,6.8,8.3,10.2,12.5"/>
</g>
<g>
	<g>
		<text transform="matrix(1 0 0 1 174.6156 407.2851)"><tspan x="0" y="0" fill="#A583A2" font-family="'PermanentMarker'" font-size="30.74">happiness as seen</tspan><tspan x="0" y="30" fill="#A583A2" font-family="'PermanentMarker'" font-size="30.74">from down here</tspan></text>
	</g>
	<g>
		
			<line fill="none" stroke="#010101" stroke-width="7" stroke-linecap="round" stroke-linejoin="round" stroke-miterlimit="10" x1="184.5" y1="537.8" x2="439.4" y2="537.8"/>
		
			<line fill="none" stroke="#010101" stroke-width="7" stroke-linecap="round" stroke-linejoin="round" stroke-miterlimit="10" x1="206.5" y1="560.3" x2="206.5" y2="454.2"/>
		
			<polyline fill="none" stroke="#010101" stroke-width="7" stroke-linecap="round" stroke-linejoin="round" stroke-miterlimit="10" points="
			417.6,515.3 439.6,537.8 417.6,560.3 		"/>
		
			<polyline fill="none" stroke="#010101" stroke-width="7" stroke-linecap="round" stroke-linejoin="round" stroke-miterlimit="10" points="
			184,476.3 206.5,454.3 229,476.3 		"/>
	</g>
	<path fill="none" stroke="#FBCC34" stroke-width="7" stroke-linecap="round" stroke-linejoin="round" stroke-miterlimit="10" d="
		M206.5,537.8c22.1,18.6,36.2,45.9,39.3,74.6c-0.8-5.7,2.2-12.2,6.5-16.3s10.3-6,16.3-6.5c5.9-0.5,11.9,0.4,17.8,1.3
		c1.1,0.2,2.8,0.4,3.8,0.4c1-2.2,2-4.5,3.7-6.2s4.4-2.6,6.6-1.6c2.8,1.3,3.6,4.9,4,8c0.9,7.3,1.9,14.7,2.8,22l0,0
		c-0.8-5.7,2.2-12.2,6.5-16.3c4.3-4.1,10.3-6,16.3-6.5c5.9-0.5,11.9,0.4,17.8,1.3c1.1,0.2,2.8,0.4,3.8,0.4c1-2.2,2-4.5,3.7-6.2
		c1.7-1.7,4.4-2.6,6.6-1.6c2.8,1.3,3.6,4.9,4,8c0.9,7.3,1.9,14.7,2.8,22l0.1,0c-0.8-5.7,2.2-12.2,6.5-16.3c4.3-4.1,10.3-6,16.3-6.5
		c5.9-0.5,11.9,0.4,17.8,1.3c1.1,0.2,2.8,0.4,3.8,0.4c1-2.2,2-4.5,3.7-6.2c1.7-1.7,4.4-2.6,6.6-1.6c2.8,1.3,3.6,4.9,4,8
		c0.9,7.3,1.9,14.7,2.8,22"/>
</g>
</svg>
