<?xml version="1.0" encoding="utf-8"?>
<!-- Generator: Adobe Illustrator 18.0.0, SVG Export Plug-In . SVG Version: 6.00 Build 0)  -->
<!DOCTYPE svg PUBLIC "-//W3C//DTD SVG 1.1//EN" "http://www.w3.org/Graphics/SVG/1.1/DTD/svg11.dtd">
<svg version="1.1" id="Layer_1" xmlns="http://www.w3.org/2000/svg" xmlns:xlink="http://www.w3.org/1999/xlink" x="0px" y="0px"
	 viewBox="0 0 597 429.1" enable-background="new 0 0 597 429.1" xml:space="preserve">
<path fill="none" stroke="#FFFFFF" stroke-width="120" stroke-linejoin="bevel" stroke-miterlimit="10" d="M9.3,58.7
	C29,30.2,65.3,14.3,99.5,19.1c-4.5,10.7-9,22-7.5,33.5s11.6,22.7,23.1,21c9.4-1.4,15.7-10.3,20.7-18.4c9.3-15,18.7-30,28-45
	c7.7-12.3,18.6-26.3,33-24.4c14,1.9,21.1,17.7,24.5,31.4c11.3,44.9,11.3,92.6,0.2,137.5c9-39.2,49.8-68.4,89.7-64.1
	c6.2,12.4,3.1,27.8-4.2,39.5c-7.4,11.7-18.4,20.6-29.3,29.2c-29.3,23.2-58.6,46.4-87.8,69.5c21.8,27.2,38.2,58.5,48.2,91.9
	c-73.6,5.5-148.3-3.4-218.5-26c35.5-16.2,76.9-18.9,114.2-7.5s70.1,36.9,90.4,70.2c9.5,15.6,16.8,33.3,30.9,45
	c14.1,11.6,38.6,13.7,48.6-1.7c4.6-7,5-15.9,5.4-24.3c0.4-8.4,1.1-17.3,6-24.1c4.9-6.8,15.6-10.2,21.9-4.5c6.7,6,4,16.7,4.1,25.7
	c0,21.2,19.2,39.2,40.1,42.5c20.9,3.3,42.3-5.6,58.7-19.1c16.3-13.5,28.5-31.3,40.4-48.9c10.6,6.5,10.3,21.5,10.9,33.9
	c0.5,12.4,7.4,28,19.7,26.4c9.8-1.3,14.4-13.1,14.4-22.9c0.1-27.1-21.1-52.7-47.7-57.7c-21-4-42.3,3.7-63.6,5.7
	c-21.3,2-47-5-53.7-25.4c-4.6-14.2,2.3-30,13.1-40.2c10.8-10.2,25-15.9,38.9-21.4c-19.9-4.5-41.7,0.3-57.9,12.8
	c-10.5,8.1-20.8,19.8-33.9,18.2c-11.4-1.4-19.2-13.3-19.6-24.7c-0.5-11.4,4.7-22.3,10.3-32.3c19.3-34.2,46-64.3,77.8-87.4
	c20.6-15,45.6-30.9,47.6-56.3c1.1-14.2-6.5-28.6-18.7-35.8c-12.3-7.2-28.6-6.7-40.4,1.2c12.1,15.4,32.9,22.6,52.4,20.9
	c28.6-2.4,52.8-21.2,78.4-34.2s67.7,3.3,88.8,22.8"/>
<g>
	
		<line fill="none" stroke="#010101" stroke-width="7" stroke-linecap="round" stroke-linejoin="round" stroke-miterlimit="10" x1="218.7" y1="69.8" x2="218.7" y2="367"/>
	
		<line fill="none" stroke="#010101" stroke-width="7" stroke-linecap="round" stroke-linejoin="round" stroke-miterlimit="10" x1="489.7" y1="344.9" x2="196.6" y2="344.9"/>
</g>
<g>
	<text transform="matrix(1 0 0 1 283.7064 391.9314)"><tspan x="0" y="0" font-family="'PermanentMarker'" font-size="31">how good they</tspan><tspan x="0" y="30" font-family="'PermanentMarker'" font-size="31">make you feel</tspan></text>
	
		<polyline fill="none" stroke="#010101" stroke-width="7" stroke-linecap="round" stroke-linejoin="round" stroke-miterlimit="10" points="
		467.7,322.4 489.7,344.9 467.7,367.4 	"/>
</g>
<g>
	<text transform="matrix(1 0 0 1 37.73 25.3284)"><tspan x="0" y="0" font-family="'PermanentMarker'" font-size="31">how good you</tspan><tspan x="-28.9" y="30" font-family="'PermanentMarker'" font-size="31">make them feel</tspan></text>
	
		<polyline fill="none" stroke="#010101" stroke-width="7" stroke-linecap="round" stroke-linejoin="round" stroke-miterlimit="10" points="
		196.2,91.8 218.7,69.8 241.2,91.8 	"/>
</g>
<path fill="none" stroke="#39B54A" stroke-width="7" stroke-linecap="round" stroke-linejoin="round" stroke-miterlimit="10" d="
	M247.8,327.9c68.8-80.6,130-152.6,198.9-233.2"/>
<g>
	<text transform="matrix(1 0 0 1 370.2375 279.4304)"><tspan x="0" y="0" fill="#EBBCD8" font-family="'PermanentMarker'" font-size="31">too</tspan><tspan x="-24.8" y="30" fill="#EBBCD8" font-family="'PermanentMarker'" font-size="31">selfish</tspan></text>
</g>
<g>
	<g>
		<text transform="matrix(1 0 0 1 233.6366 125.1506)"><tspan x="0" y="0" fill="#EBBCD8" font-family="'PermanentMarker'" font-size="31">hard to</tspan><tspan x="3.4" y="30" fill="#EBBCD8" font-family="'PermanentMarker'" font-size="31">sustain</tspan></text>
	</g>
</g>
<g>
	<text transform="matrix(0.6651 -0.7468 0.7468 0.6651 296.8959 253.4792)"><tspan x="0" y="0" fill="#39B54A" font-family="'PermanentMarker'" font-size="31">balanced</tspan><tspan x="-33.5" y="36" fill="#39B54A" font-family="'PermanentMarker'" font-size="31">relationships</tspan></text>
</g>
<g>
	<path fill="none" stroke="#010101" stroke-width="7" stroke-linecap="round" stroke-linejoin="round" stroke-miterlimit="10" d="
		M419.1,114.2c6.1,5,12.2,9.9,18.3,14.9"/>
	<path fill="none" stroke="#010101" stroke-width="7" stroke-linecap="round" stroke-linejoin="round" stroke-miterlimit="10" d="
		M414.7,128.1c6.5-5.1,13-10.3,19.4-15.4"/>
	<path fill="none" stroke="#010101" stroke-width="7" stroke-linecap="round" stroke-linejoin="round" stroke-miterlimit="10" d="
		M411.9,103.7c-1.3-10.3-11.9-16.6-21.6-20.2s-20.8-6.6-26.5-15.2c-4.8-7.2-4.5-17.3,0.7-24.2c5.2-6.9,14.9-9.9,23.1-7.2"/>
</g>
<text transform="matrix(1 0 0 1 395.3426 47.15)" font-family="'PermanentMarker'" font-size="31">unattainable</text>
<g>
	<path fill="none" stroke="#010101" stroke-width="7" stroke-linecap="round" stroke-linejoin="round" stroke-miterlimit="10" d="
		M265.6,291.9c4.9,4.1,9.8,8.2,14.7,12.4"/>
	<path fill="none" stroke="#010101" stroke-width="7" stroke-linecap="round" stroke-linejoin="round" stroke-miterlimit="10" d="
		M273.9,290c-2.6,6.7-5.2,13.4-7.9,20.1"/>
	<path fill="none" stroke="#010101" stroke-width="7" stroke-linecap="round" stroke-linejoin="round" stroke-miterlimit="10" d="
		M258.5,299.7c-6.5-4.2-15.1-2.3-22,1.2c-6.8,3.5-13,8.5-20.3,10.8c-7.4,2.3-16.8,0.7-20.3-6.1"/>
</g>
<text transform="matrix(1 0 0 1 6.2002 309.8409)" font-family="'PermanentMarker'" font-size="31">undesirable</text>
</svg>
