<?xml version="1.0" encoding="utf-8"?>
<!-- Generator: Adobe Illustrator 19.2.0, SVG Export Plug-In . SVG Version: 6.00 Build 0)  -->
<svg version="1.1" id="Layer_1" xmlns="http://www.w3.org/2000/svg" xmlns:xlink="http://www.w3.org/1999/xlink" x="0px" y="0px"
	 width="812.75px" height="465.72px" viewBox="0 0 812.75 465.72" enable-background="new 0 0 812.75 465.72" xml:space="preserve">
<path fill="none" stroke="#FFFFFF" stroke-width="120" stroke-linejoin="bevel" stroke-miterlimit="10" d="M123.77-6.89
	c-2.61,26.01-5.22,52.01-7.84,78.02c24.89-25,49.78-49.99,74.66-74.99c-15.84,28.88-31.68,57.76-47.52,86.64
	c33.53-26.38,67.06-52.76,100.59-79.14c-17.35,35.84-34.69,71.67-52.04,107.51c31.21-39.04,62.41-78.07,93.62-117.11
	c-9.29,39.85-18.57,79.69-27.86,119.54c26.93-37.75,53.86-75.51,80.79-113.26c-10.23,35.65-20.46,71.3-30.69,106.95
	c44.23-27.11,88.45-54.21,132.68-81.32c-4.52,26.41-9.05,52.82-13.57,79.23c17.53-15.15,35.05-30.3,52.58-45.45
	c-4.24,19.05-8.49,38.09-12.73,57.14c79.15-13.38,159.62-18.89,239.85-16.44c28.95,0.88,63.4,6.36,75.5,32.68
	c9.94,21.62-2.2,49.08-22.91,60.8s-47.07,9.76-68.8,0.08s-39.65-26.18-56.23-43.25c-18.23-18.77-41.63-40.49-66.67-32.91
	c-14.97,4.53-24.82,18.42-33.52,31.42c-14.12,21.13-28.25,42.25-42.37,63.38c-16.57,24.78-33.68,56.11-20.02,82.61
	c0.12-20.47,0.24-40.93,0.36-61.4c-13.43,37.67-26.86,75.34-40.29,113.01c-2.48-46.71-4.95-93.43-7.43-140.14
	c-16.65,37.4-33.31,74.8-49.96,112.2c13.47-53.67,26.93-107.33,40.4-161c-25.57,50.71-51.13,101.42-76.7,152.13
	c4.25-43.31,8.51-86.61,12.76-129.92c-14.55,14.51-29.11,29.03-43.66,43.54c9.14-30.77,18.28-61.54,27.42-92.31
	c-24.82,28.28-49.64,56.55-74.45,84.83c16.32-50.24,32.64-100.48,48.96-150.72c-25.08,40.95-50.16,81.89-75.24,122.84
	c-13.6-26.12-32.29-55.7-61.69-57.31c-32.05-1.75-54.13,30.52-69.41,58.74c12.78-28.57,25.56-57.14,38.35-85.71
	C92.87,165.06,45.06,226.11-2.75,287.17c9.36-19.52,18.72-39.05,28.08-58.57c-2.5,19.53-5.01,39.05-7.51,58.58
	c28.01-29.5,56.01-59.01,84.02-88.51c-16.3,37.97-32.59,75.94-48.89,113.91c32.88-51.24,65.75-102.49,98.63-153.73
	c-19.99,41.68-39.98,83.37-59.97,125.06c29.78-45.19,59.57-90.38,89.35-135.57c-34.4,66.43-59.26,137.8-73.6,211.23
	c35.92-64.43,71.83-128.87,107.75-193.3c-10.44,59.95-20.89,119.91-31.33,179.86c11.18-39.17,22.36-78.35,33.54-117.52
	c-32.46,68.07-64.91,136.14-97.37,204.21c37.99-51.25,75.98-102.49,113.97-153.74c-15.17,33.95-30.34,67.9-45.51,101.86
	c25.04-61.57,50.07-123.14,75.11-184.7c-22.05,64.37-44.09,128.74-66.14,193.11c31.8-45.73,63.61-91.46,95.41-137.19
	c-16.86,55.09-33.72,110.19-50.57,165.28c17.82-37.92,35.63-75.84,53.45-113.76c-11.79,53.06-23.58,106.12-35.37,159.18
	c22.02-35.71,44.03-71.42,66.05-107.14c-5.93,30.77-11.87,61.53-17.8,92.3c24.29-48.36,48.58-96.73,72.87-145.09
	c-3.79,39.13-7.58,78.27-11.38,117.4c14.47-24.41,28.94-48.82,43.41-73.24c-2.92,28.11-5.83,56.23-8.75,84.34
	c9.07-31.61,18.13-63.23,27.2-94.84c2.55,20.07,5.1,40.13,7.65,60.2c12.6-20.73,25.21-41.47,37.81-62.2
	c1.13,7.21,2.26,14.42,3.4,21.64c22.53-8.69,45.07-17.37,67.6-26.06c9.43,10.94,18.85,21.89,28.28,32.83
	c7.6-12.8,15.2-25.59,22.79-38.39c8.31,18.23,17.92,37.83,35.96,46.55c18.03,8.71,45.67-2.3,44.51-22.3
	c27.16,8.38,55.05-7.54,80.78-19.62c16.25-7.63,33.84-14.02,51.72-12.46c17.88,1.56,35.95,12.99,40.18,30.44
	c5.49,22.64-19.33,46.5-41.74,40.13c-4.77-1.36-9.17-3.75-13.52-6.12c-17.35-9.46-34.71-18.91-52.06-28.37
	c25.43,36.95,50.86,73.91,76.29,110.86c-26.95-37.55-53.89-75.1-80.84-112.64c3.43,38.96,6.87,77.92,10.3,116.87
	c-23.95-28.38-47.9-56.76-71.84-85.15c5.62,22.2,11.24,44.39,16.86,66.59c-4.05-9.47-8.09-18.94-12.14-28.4
	c0.98,22.32,1.95,44.65,2.93,66.97"/>
<g>
	
		<line fill="none" stroke="#000000" stroke-width="7" stroke-linecap="round" stroke-linejoin="round" stroke-miterlimit="10" x1="143.5" y1="43.48" x2="143.5" y2="369.41"/>
	
		<polyline fill="none" stroke="#000000" stroke-width="7" stroke-linecap="round" stroke-linejoin="round" stroke-miterlimit="10" points="
		121,65.48 143.5,43.48 166,65.48 	"/>
</g>
<g>
	
		<line fill="none" stroke="#000000" stroke-width="7" stroke-linecap="round" stroke-linejoin="round" stroke-miterlimit="10" x1="121" y1="346.91" x2="800.59" y2="346.91"/>
	
		<polyline fill="none" stroke="#000000" stroke-width="7" stroke-linecap="round" stroke-linejoin="round" stroke-miterlimit="10" points="
		778.59,324.41 800.59,346.91 778.59,369.41 	"/>
</g>
<text transform="matrix(1 0 0 1 720.6567 398.7732)"><tspan x="0" y="0" font-family="'PermanentMarker'" font-size="30.74px">gr</tspan><tspan x="36.68" y="0" font-family="'PermanentMarker'" font-size="30.74px">o</tspan><tspan x="55.42" y="0" font-family="'PermanentMarker'" font-size="30.74px">ss</tspan><tspan x="-46.38" y="30" font-family="'PermanentMarker'" font-size="30.74px">domestic</tspan><tspan x="-31.64" y="60" font-family="'PermanentMarker'" font-size="30.74px">pro</tspan><tspan x="20.44" y="60" font-family="'PermanentMarker'" font-size="30.74px">d</tspan><tspan x="35.42" y="60" font-family="'PermanentMarker'" font-size="30.74px">uct</tspan></text>
<text transform="matrix(1 0 0 1 114.0014 32.7126)"><tspan x="0" y="0" fill="#009542" font-family="'PermanentMarker'" font-size="30.74px">income ine</tspan><tspan x="157.99" y="0" fill="#009542" font-family="'PermanentMarker'" font-size="30.74px">q</tspan><tspan x="176.91" y="0" fill="#009542" font-family="'PermanentMarker'" font-size="30.74px">u</tspan><tspan x="193.96" y="0" fill="#009542" font-family="'PermanentMarker'" font-size="30.74px">ality</tspan></text>
<g>
	<path fill="none" stroke="#000000" stroke-width="7" stroke-linecap="round" stroke-linejoin="round" stroke-miterlimit="10" d="
		M159.96,323.46c3.98,3.08,7.96,6.16,11.94,9.25"/>
	<path fill="none" stroke="#000000" stroke-width="7" stroke-linecap="round" stroke-linejoin="round" stroke-miterlimit="10" d="
		M167.83,320.9c-0.88,4.86-1.77,9.71-2.65,14.57"/>
	<path fill="none" stroke="#000000" stroke-width="7" stroke-linecap="round" stroke-linejoin="round" stroke-miterlimit="10" d="
		M161.47,311.72c-2.1-3.78-0.47-8.61,2.13-12.06c2.6-3.45,6.12-6.17,8.46-9.81c6.88-10.68,0.84-25.94-9.77-32.94
		c-10.61-7-24.11-7.67-36.8-7.04"/>
	<text transform="matrix(1 0 0 1 2.6562 237.4301)"><tspan x="0" y="0" font-family="'PermanentMarker'" font-size="30.74px">ev</tspan><tspan x="30.95" y="0" font-family="'PermanentMarker'" font-size="30.74px">e</tspan><tspan x="46.68" y="0" font-family="'PermanentMarker'" font-size="30.74px">r</tspan><tspan x="62.71" y="0" font-family="'PermanentMarker'" font-size="30.74px">y</tspan><tspan x="74.09" y="0" font-family="'PermanentMarker'" font-size="30.74px">one</tspan><tspan x="0" y="30" font-family="'PermanentMarker'" font-size="30.74px">is poor</tspan></text>
</g>
<path fill="none" stroke="#009542" stroke-width="7" stroke-linecap="round" stroke-linejoin="round" stroke-miterlimit="10" d="
	M152.91,336.69c53.13-26.07,90.69-72.99,99.11-123.79c2.61-15.77,2.62-32,8.68-47.1c6.06-15.1,20.12-29.42,39.1-31.55"/>
<g>
	<path fill="none" stroke="#000000" stroke-width="7" stroke-linecap="round" stroke-linejoin="round" stroke-miterlimit="10" d="
		M304.25,126.2c-1.77,4.86-3.53,9.71-5.3,14.57"/>
	<path fill="none" stroke="#000000" stroke-width="7" stroke-linecap="round" stroke-linejoin="round" stroke-miterlimit="10" d="
		M295.06,127.45c3.99,3.95,7.98,7.91,11.98,11.86"/>
	<path fill="none" stroke="#000000" stroke-width="7" stroke-linecap="round" stroke-linejoin="round" stroke-miterlimit="10" d="
		M299.66,117.82c1.34-4.85-3.47-9.64-8.46-10.27c-5-0.62-9.86,1.6-14.42,3.73c-4.56,2.13-9.48,4.27-14.45,3.48
		c-6.74-1.08-11.85-8.27-10.65-14.99"/>
	<text transform="matrix(1 0 0 1 180.697 90.1589)"><tspan x="0" y="0" font-family="'PermanentMarker'" font-size="30.74px">in</tspan><tspan x="27.2" y="0" font-family="'PermanentMarker'" font-size="30.74px">d</tspan><tspan x="42.18" y="0" font-family="'PermanentMarker'" font-size="30.74px">ustria</tspan><tspan x="133.5" y="0" font-family="'PermanentMarker'" font-size="30.74px">l</tspan><tspan x="148.96" y="0" font-family="'PermanentMarker'" font-size="30.74px">s g</tspan><tspan x="194.65" y="0" font-family="'PermanentMarker'" font-size="30.74px" letter-spacing="-1">o</tspan><tspan x="212.45" y="0" font-family="'PermanentMarker'" font-size="30.74px">t rich</tspan></text>
</g>
<path fill="none" stroke="#009542" stroke-width="7" stroke-linecap="round" stroke-linejoin="round" stroke-miterlimit="10" d="
	M260.69,165.8c6.06-15.1,20.12-29.42,39.1-31.55c20.16-2.26,39.21,10.06,48.84,24.96c9.63,14.89,12.22,32.1,16.51,48.63
	s11.12,33.65,26.58,44.64c21.72,15.45,55.81,14.13,80.18,1.7"/>
<g>
	<path fill="none" stroke="#C1172C" stroke-width="7" stroke-linecap="round" stroke-linejoin="round" stroke-miterlimit="10" d="
		M337.61,178.1c7.9,6.29,11.79,16.39,13.71,26.31c1.92,9.92,2.22,20.13,4.72,29.92c2.49,9.79,7.67,19.53,16.54,24.35"/>
	<path fill="none" stroke="#C1172C" stroke-width="7" stroke-linecap="round" stroke-linejoin="round" stroke-miterlimit="10" d="
		M372.96,249.64c0.8,3.36,1.59,6.72,2.39,10.09c-4.1,0.63-8.2,1.25-12.31,1.88"/>
	<text transform="matrix(1 0 0 1 275.6972 290.8131)"><tspan x="0" y="0" fill="#C1172C" font-family="'PermanentMarker'" font-size="30.74px">trickle down</tspan><tspan x="0" y="30" fill="#C1172C" font-family="'PermanentMarker'" font-size="30.74px">e</tspan><tspan x="15.73" y="30" fill="#C1172C" font-family="'PermanentMarker'" font-size="30.74px">conomi</tspan><tspan x="122.42" y="30" fill="#C1172C" font-family="'PermanentMarker'" font-size="30.74px">c</tspan><tspan x="137.91" y="30" fill="#C1172C" font-family="'PermanentMarker'" font-size="30.74px">s</tspan></text>
</g>
<g>
	<path fill="none" stroke="#000000" stroke-width="7" stroke-linecap="round" stroke-linejoin="round" stroke-miterlimit="10" d="
		M161.4,358.54c-1.46,3.92,1.33,8.4,5.08,10.28c3.74,1.88,8.12,1.83,12.31,1.73c27.18-0.61,54.36-1.22,81.54-1.83
		c7.52-0.17,15.15-0.32,22.41,1.61c7.26,1.93,14.24,6.28,17.59,13c1.86-5.06,6.75-8.52,11.93-10.04c5.17-1.52,10.67-1.4,16.06-1.26
		c27.2,0.69,54.39,1.38,81.59,2.07c5,0.13,10.1,0.24,14.89-1.16c4.8-1.41,9.34-4.61,11.08-9.3"/>
	<text transform="matrix(1 0 0 1 196.293 415.3199)"><tspan x="0" y="0" font-family="'PermanentMarker'" font-size="30.74px">kuznet’s </tspan><tspan x="134.55" y="0" font-family="'PermanentMarker'" font-size="30.74px">w</tspan><tspan x="159.61" y="0" font-family="'PermanentMarker'" font-size="30.74px" letter-spacing="-1">a</tspan><tspan x="176.25" y="0" font-family="'PermanentMarker'" font-size="30.74px">ve</tspan></text>
</g>
<g>
	<path fill="none" stroke="#009542" stroke-width="7" stroke-linecap="round" stroke-linejoin="round" stroke-miterlimit="10" d="
		M391.71,252.48c21.72,15.45,55.81,14.13,80.18,1.7s40.32-33.75,51.04-55.78c10.71-22.03,17.06-45.38,27.38-67.54
		c5.69-12.22,12.89-24.39,24.69-33.08s29.11-13.25,43.77-8.44c16.13,5.29,24.79,19.95,28.75,33.98
		c3.97,14.03,4.86,28.88,12.38,41.87c15.02,25.96,57.93,37.57,88.46,23.94"/>
	<path fill="none" stroke="#009542" stroke-width="7" stroke-linecap="round" stroke-linejoin="round" stroke-miterlimit="10" d="
		M756.9,183.27c2.07-2.51,4.14-5.02,6.21-7.53"/>
	<path fill="none" stroke="#009542" stroke-width="7" stroke-linecap="round" stroke-linejoin="round" stroke-miterlimit="10" d="
		M769.74,165.89c1.38-3.22,2.77-6.45,4.15-9.67"/>
	<path fill="none" stroke="#009542" stroke-width="7" stroke-linecap="round" stroke-linejoin="round" stroke-miterlimit="10" d="
		M777.13,144.61c0.98-3.58,1.95-7.17,2.93-10.75"/>
</g>
</svg>
