<?xml version="1.0" encoding="utf-8"?>
<!-- Generator: Adobe Illustrator 18.0.0, SVG Export Plug-In . SVG Version: 6.00 Build 0)  -->
<!DOCTYPE svg PUBLIC "-//W3C//DTD SVG 1.1//EN" "http://www.w3.org/Graphics/SVG/1.1/DTD/svg11.dtd">
<svg version="1.1" id="Layer_1" xmlns="http://www.w3.org/2000/svg" xmlns:xlink="http://www.w3.org/1999/xlink" x="0px" y="0px"
	 viewBox="0 0 588 298" enable-background="new 0 0 588 298" xml:space="preserve">
<path fill="none" stroke="#FFFFFF" stroke-width="120" stroke-linejoin="bevel" stroke-miterlimit="10" d="M-5,44.8
	c48.1,2.6,96.2,5.3,144.3,7.9C101.7,66.8,64,80.8,26.4,94.9C20.5,142.6,14.6,190.3,8.7,238c-1.2,9.5-2.3,19.5,1.4,28.4
	c3.7,8.8,14,15.7,22.9,12.1c16.4-46.1,32.8-92.2,49.2-138.3c-1,47.1-2,94.1-3.1,141.2c-0.1,4.7,0.5,10.5,4.9,12.1
	c4.9,1.8,9.4-3.4,12.1-7.9c25.8-43.9,51.6-87.8,77.4-131.7c-5.3,32.4-10.7,64.7-16,97.1c-1.8,11.2-2.4,25.4,7.5,31
	c6.3,3.6,14.5,1.7,20.3-2.6s9.6-10.7,13.4-16.9c22.5-37.6,45-75.3,67.5-112.9c-5.3,43.6,1.5,88.7,19.5,128.8
	c59-13.2,120.6-15,180.3-5.2c20.8,3.4,42.1,8.2,62.8,4.3c25.2-4.8,46-21.8,65.6-38.3c-22.3-20.4-55.7-20.8-86-22
	c-53.8-2.2-107.4-10.8-159.3-25.4c-8.2-2.3-16.5-4.9-23.1-10.1c-6.7-5.2-11.4-13.8-9.8-22.1c1.7-8.6,9.7-14.8,18.1-17
	c8.5-2.2,17.4-1.2,26-0.2c64.2,7.6,128.4,15.3,192.6,22.9c19.3-27.1,39.2-55.7,44-88.6c4.8-33-10.8-71.5-42.7-81.1
	c-22.9-6.9-47.3,2.3-69.5,11.4c-20.3,8.3-40.6,16.6-60.9,25c-6.4,2.6-13.8,6.4-14.8,13.3c-0.9,6.4,4.6,12.2,10.8,14
	c6.2,1.8,12.8,0.5,19.1-0.8c28.6-5.9,57.3-11.7,85.9-17.6c8.5-1.7,17.5-3.5,25.7-0.8s15.2,11.5,12.6,19.8
	c-2.2,7.1-9.9,10.7-16.7,13.5c-99.4,40.1-198.8,80.2-298.1,120.4"/>
<g>
	
		<line fill="none" stroke="#010101" stroke-width="7" stroke-linecap="round" stroke-linejoin="round" stroke-miterlimit="10" x1="31.9" y1="68.5" x2="31.9" y2="291.5"/>
	
		<line fill="none" stroke="#010101" stroke-width="7" stroke-linecap="round" stroke-linejoin="round" stroke-miterlimit="10" x1="9.4" y1="269" x2="573.4" y2="269"/>
	
		<polyline fill="none" stroke="#010101" stroke-width="7" stroke-linecap="round" stroke-linejoin="round" stroke-miterlimit="10" points="
		9.4,90.5 31.9,68.5 54.4,90.5 	"/>
	
		<polyline fill="none" stroke="#010101" stroke-width="7" stroke-linecap="round" stroke-linejoin="round" stroke-miterlimit="10" points="
		551.4,246.5 573.4,269 551.4,291.5 	"/>
</g>
<g>
	
		<line fill="none" stroke="#000000" stroke-width="7" stroke-linecap="round" stroke-linejoin="round" stroke-miterlimit="10" x1="107.5" y1="264.4" x2="107.5" y2="273.5"/>
	
		<line fill="none" stroke="#000000" stroke-width="7" stroke-linecap="round" stroke-linejoin="round" stroke-miterlimit="10" x1="299" y1="264.7" x2="299" y2="273.2"/>
	
		<line fill="none" stroke="#000000" stroke-width="7" stroke-linecap="round" stroke-linejoin="round" stroke-miterlimit="10" x1="490.5" y1="264.7" x2="490.5" y2="273.2"/>
	<text transform="matrix(1 0 0 1 440.9585 232.4526)" font-family="'PermanentMarker'" font-size="30.74">elections</text>
</g>
<g>
	<path fill="none" stroke="#67923D" stroke-width="7" stroke-linecap="round" stroke-linejoin="round" stroke-miterlimit="10" d="
		M46.3,257.5c71.9-26.1,143.8-52.1,215.7-78.2c101.2-36.7,202.5-73.4,303.7-110.1"/>
	<text transform="matrix(1 0 0 1 473.0791 24.5352)"><tspan x="0" y="0" fill="#67923D" font-family="'PermanentMarker'" font-size="30.74">global</tspan><tspan x="-94.4" y="30" fill="#67923D" font-family="'PermanentMarker'" font-size="30.74">temperatures</tspan></text>
</g>
<g>
	<text transform="matrix(1 0 0 1 4.3926 54.45)" fill="#507282" font-family="'PermanentMarker'" font-size="30.74">my life</text>
	<path fill="none" stroke="#507282" stroke-width="7" stroke-linecap="round" stroke-linejoin="round" stroke-miterlimit="10" d="
		M43.3,182.7c8.4-5.2,15.8-22.2,25.4-29.4c10-7.5,25.2-4.7,35.8,2c13,8.2,20.9,24.4,35.8,28c14.7,3.6,28.8-6.8,40.1-16.9
		s24.4-21.1,39.4-19.3c23.3,2.9,34.8,35,58.2,36.8c25.2,2,39.5-31.8,64.3-36.6c29.9-5.7,53.1,33,83.6,31.5
		c29.5-1.4,49.5-39.9,78.8-35.8c11.8,1.6,21.3,10.1,30.9,17.2s21.6,13.4,33,10"/>
</g>
</svg>
