<?xml version="1.0" encoding="utf-8"?>
<!-- Generator: Adobe Illustrator 19.2.0, SVG Export Plug-In . SVG Version: 6.00 Build 0)  -->
<svg version="1.1" id="Layer_1" xmlns="http://www.w3.org/2000/svg" xmlns:xlink="http://www.w3.org/1999/xlink" x="0px" y="0px"
	 width="544.9px" height="282.7px" viewBox="0 0 544.9 282.7" enable-background="new 0 0 544.9 282.7" xml:space="preserve">
<path fill="none" stroke="#FFFFFF" stroke-width="120" stroke-linejoin="bevel" stroke-miterlimit="10" d="M12.6,24.8
	c166.9-4.2,333.8-8.4,500.6-12.6c5.6-0.1,12,0.1,15.7,4.4c4.5,5.4,1.4,14.3-4.5,18.2S511,38.8,504,39
	c-126.5,2.2-252.9,4.3-379.4,6.5c-31.8,0.5-63.8,1.1-95.2,5.9C17.9,53.2,6.1,55.6-3.7,61.9s-17.5,17-17.1,28.7
	c0.7,18.9,22.5,31.2,41.3,29S55.1,105.2,70,93.5c-6.3,40.4-28.4,76.4-49.9,111.1c17.1-4,34.1-7.9,51.2-11.9
	c-12.5,19.1-25,38.3-37.5,57.4c15-18.9,30-37.8,45-56.6c0.9,22,1.7,44,2.6,65.9c0.2,6.1,1.2,13.4,6.7,16.2c5.9,3,13.2-1.7,15.9-7.7
	c2.7-6,2.4-12.9,3.2-19.4c2.8-22.2,20.2-41.8,41.9-47.2c-7.6,8-5.8,22.9,3.6,28.8c9.4,5.9,23.6,1.1,27.5-9.3
	c3.4-9,0.4-21.2,8.1-26.9c6.5-4.8,16.2-0.7,20.9,5.9c4.7,6.6,6.1,14.8,9,22.4c2.9,7.5,8.4,15.1,16.4,16.1c2.2-22.7,4.4-45.4,6.5-68
	c13.6,36.1,27.3,72.1,40.9,108.2c24.2-24.8,41.7-56,50.4-89.6c5.3,19.9,10.7,39.7,16,59.6c3,11.3,8,24.5,19.4,27
	c11.1,2.4,21.2-7.2,26.2-17.3c5-10.2,7.3-21.8,14.6-30.5s22.6-12.3,29.3-3.1c4.2,5.8,3.1,13.7,3,20.8c-0.1,7.2,2.4,15.8,9.3,17.5
	c6.9,1.7,12.9-4.7,17.2-10.4c14.6-19.5,29.2-38.9,43.8-58.4c-33.4,2.2-66.9,4.3-100.3,6.5c37.7,16.5,78.6,25.7,119.8,27.1
	c-58.2-32.1-124.2-49.8-190.6-51.1c-9.1-0.2-18.7-0.1-26.9-4.1c-8.2-4-14.7-13.4-12-22.1c3.4-11.1,17.7-13.7,29.3-14.3
	c25.2-1.4,50.4-2.8,75.5-4.2c5.9-0.3,12.1-0.7,17.3-3.6c5.2-2.9,9.2-8.9,7.6-14.7c-2.7-10-16.9-9.6-26.9-7
	c-28.9,7.4-57.9,14.8-86.8,22.3c-9.8,2.5-20,5.1-30.1,3.5s-20-8.2-22.2-18.2c-2.2-10.1,4.4-20.4,13.1-25.8
	c8.8-5.4,19.3-6.9,29.6-8.1c36.8-4.3,74-6,111-5.1c-7,0-13.9,0-20.9,0.1c13.9-6.3,27.9-12.6,41.8-18.8
	c-26.2-7.6-52.9-15.3-80.1-14.4S304,53.5,288.7,76.1c-21.1,31-12.9,75.5-34.4,106.2"/>
<g id="Arrow_right">
</g>
<g>
	
		<line fill="none" stroke="#000000" stroke-width="7" stroke-linecap="round" stroke-linejoin="round" stroke-miterlimit="10" x1="21" y1="216.2" x2="519.3" y2="216.2"/>
	
		<line fill="none" stroke="#000000" stroke-width="7" stroke-linecap="round" stroke-linejoin="round" stroke-miterlimit="10" x1="43.5" y1="241.1" x2="43.5" y2="46"/>
	<g>
		
			<polyline fill="none" stroke="#000000" stroke-width="7" stroke-linecap="round" stroke-linejoin="round" stroke-miterlimit="10" points="
			21,68 43.5,46 66,68 		"/>
	</g>
	<g>
		
			<polyline fill="none" stroke="#000000" stroke-width="7" stroke-linecap="round" stroke-linejoin="round" stroke-miterlimit="10" points="
			497.3,193.7 519.3,216.2 497.3,238.7 		"/>
	</g>
</g>
<text transform="matrix(1 0 0 1 20.5236 30.8406)" font-family="'PermanentMarker'" font-size="30.74px">motivation to stick to resolution</text>
<text transform="matrix(1 0 0 1 55.4608 259.2142)" font-family="'PermanentMarker'" font-size="30.74px">8am</text>
<path fill="none" stroke="#D6562B" stroke-width="7" stroke-linecap="round" stroke-linejoin="round" stroke-miterlimit="10" d="
	M58.5,199.2c45.2-0.6,90.3-1.1,135.5-1.7c15.6-0.2,31.6-0.5,46.2-6.8c23-10.1,39-34.3,46.9-60.2c8-25.9,9.1-53.7,10.1-81.1"/>
<g>
	<path fill="none" stroke="#000000" stroke-width="7" stroke-linecap="round" stroke-linejoin="round" stroke-miterlimit="10" d="
		M305.9,209.1c0,4.9,0,9.8,0,14.7"/>
	<text transform="matrix(1 0 0 1 241.3511 259.2141)" font-family="'PermanentMarker'" font-size="30.74px">midnight</text>
</g>
<g>
	<path fill="none" stroke="#000000" stroke-width="7" stroke-linecap="round" stroke-linejoin="round" stroke-miterlimit="10" d="
		M426.7,209.2c0,4.4,0,8.8,0,13.1"/>
	<text transform="matrix(1 0 0 1 397.0289 259.2139)" font-family="'PermanentMarker'" font-size="30.74px">8am</text>
</g>
<g>
	<path fill="none" stroke="#88206E" stroke-width="7" stroke-linecap="round" stroke-linejoin="round" stroke-miterlimit="10" d="
		M323.7,45.4c-1.7,2.2-3.4,4.4-5.1,6.5"/>
	<path fill="none" stroke="#88206E" stroke-width="7" stroke-linecap="round" stroke-linejoin="round" stroke-miterlimit="10" d="
		M345.6,45.1c-8.4,10.9-16.7,21.8-25.1,32.7"/>
	<path fill="none" stroke="#88206E" stroke-width="7" stroke-linecap="round" stroke-linejoin="round" stroke-miterlimit="10" d="
		M320.5,113.2c15.6-22.4,31.1-44.7,46.7-67.1"/>
	<path fill="none" stroke="#88206E" stroke-width="7" stroke-linecap="round" stroke-linejoin="round" stroke-miterlimit="10" d="
		M320.7,145.7c23.5-32.8,47.1-65.6,70.6-98.4"/>
	<path fill="none" stroke="#88206E" stroke-width="7" stroke-linecap="round" stroke-linejoin="round" stroke-miterlimit="10" d="
		M320.3,177.2c32.7-43.3,65.4-86.7,98-130"/>
	<path fill="none" stroke="#88206E" stroke-width="7" stroke-linecap="round" stroke-linejoin="round" stroke-miterlimit="10" d="
		M319.5,206c35.7-40.6,68.4-83.8,97.8-129.3"/>
	<path fill="none" stroke="#88206E" stroke-width="7" stroke-linecap="round" stroke-linejoin="round" stroke-miterlimit="10" d="
		M346.5,204.9c23.6-28.8,47.2-57.7,70.8-86.5"/>
	<path fill="none" stroke="#88206E" stroke-width="7" stroke-linecap="round" stroke-linejoin="round" stroke-miterlimit="10" d="
		M371.2,207.5c15.5-20.9,31-41.9,46.6-62.8"/>
	<path fill="none" stroke="#88206E" stroke-width="7" stroke-linecap="round" stroke-linejoin="round" stroke-miterlimit="10" d="
		M392.9,207.1c8.1-10.1,16.3-20.1,24.4-30.2"/>
	<path fill="none" stroke="#88206E" stroke-width="7" stroke-linecap="round" stroke-linejoin="round" stroke-miterlimit="10" d="
		M419,201.1c-2.1,2.4-4.2,4.8-6.3,7.2"/>
	<path fill="none" stroke="#FFFFFF" stroke-width="40" stroke-linejoin="round" stroke-miterlimit="10" d="M361.6,184.2
		c11.5-13.1,5.1-33.7,4.5-47.8c-0.8-20.2-6.7-52.4,0.9-60.5"/>
	<text transform="matrix(0 -1 1 0 375.0252 167.1301)" font-family="'PermanentMarker'" font-size="30.74px">sleep</text>
</g>
<path fill="none" stroke="#D6562B" stroke-width="7" stroke-linecap="round" stroke-linejoin="round" stroke-miterlimit="10" d="
	M437.1,199c15-0.1,30-0.3,44.9-0.4"/>
<g id="Arrow_up">
</g>
</svg>
