<?xml version="1.0" encoding="utf-8"?>
<!-- Generator: Adobe Illustrator 19.2.0, SVG Export Plug-In . SVG Version: 6.00 Build 0)  -->
<svg version="1.1" id="Layer_1" xmlns="http://www.w3.org/2000/svg" xmlns:xlink="http://www.w3.org/1999/xlink" x="0px" y="0px"
	 width="502.19px" height="391.23px" viewBox="0 0 502.19 391.23" enable-background="new 0 0 502.19 391.23" xml:space="preserve">
<path fill="none" stroke="#FFFFFF" stroke-width="120" stroke-linejoin="bevel" stroke-miterlimit="10" d="M398.35,24.26
	C299.8,24.13,201.25,24,102.7,23.87c-19.52-0.03-40.56,0.43-56.21,12.1c-20.33,15.16-24.4,43.46-26.82,68.7
	C12.36,180.64,5.06,256.6-2.25,332.56c-1.25,12.99-1.29,28.68,9.58,35.89c7.01,4.65,16.59,3.81,24.04-0.11
	c7.44-3.91,13.15-10.43,18.34-17.04c34-43.28,53.4-95.86,75.71-146.18s49.44-100.91,93.66-133.68c8.18-6.06,17.57-11.65,27.74-11.28
	c20.72,0.75,32.1,24.13,37.35,44.19c9.56,36.48,14.5,75.11,33.92,107.43c21.54,35.85,60.62,60.56,102.24,64.64
	c16.69,1.64,34.08,0.24,49.67,6.41c15.59,6.17,28.63,23.8,22.23,39.3c-6.4,15.5-26.55,18.79-43.3,19.45
	c-56.75,2.26-113.65,0.64-170.18-4.87c-65.25-6.35-130.99-17.87-195.95-9.01"/>
<path fill="none" stroke="#000000" stroke-width="7" stroke-linecap="round" stroke-linejoin="round" stroke-miterlimit="10" d="
	M37.61,19.1c0.44,106.67,0.87,213.34,1.31,320.02"/>
<path fill="none" stroke="#000000" stroke-width="7" stroke-linecap="round" stroke-linejoin="round" stroke-miterlimit="10" d="
	M15.11,316.62c155.88,0,311.77,0,467.65,0"/>
<polyline fill="none" stroke="#000000" stroke-width="7" stroke-linecap="round" stroke-linejoin="round" stroke-miterlimit="10" points="
	15.11,41.1 37.61,19.1 60.11,41.1 "/>
<polyline fill="none" stroke="#000000" stroke-width="7" stroke-linecap="round" stroke-linejoin="round" stroke-miterlimit="10" points="
	460.75,294.12 482.75,316.62 460.75,339.12 "/>
<text transform="matrix(1 0 0 1 233.4104 375.5524)"><tspan x="0" y="0" font-family="'PermanentMarker'" font-size="30.74px">d</tspan><tspan x="14.98" y="0" font-family="'PermanentMarker'" font-size="30.74px">enial of reality</tspan></text>
<text transform="matrix(1 0 0 1 75.7478 36.1033)"><tspan x="0" y="0" font-family="'PermanentMarker'" font-size="30.74px">a</tspan><tspan x="17.26" y="0" font-family="'PermanentMarker'" font-size="30.74px">bility </tspan><tspan x="109.39" y="0" font-family="'PermanentMarker'" font-size="30.74px">t</tspan><tspan x="123.2" y="0" font-family="'PermanentMarker'" font-size="30.74px">o funct</tspan><tspan x="233.76" y="0" font-family="'PermanentMarker'" font-size="30.74px">i</tspan><tspan x="243.01" y="0" font-family="'PermanentMarker'" font-size="30.74px">on</tspan></text>
<path fill="none" stroke="#00A055" stroke-width="7" stroke-linecap="round" stroke-linejoin="round" stroke-miterlimit="10" d="
	M56.1,300.98c25.79,9.32,56.58,2.95,76.55-15.85c15.96-15.02,24.57-36.38,29.1-57.83c4.53-21.45,5.44-43.48,8.63-65.17
	c3.19-21.69,8.95-43.61,21.86-61.33s34.16-30.55,55.99-28.61c21.52,1.91,39.86,17.71,50.41,36.56s14.59,40.56,18.1,61.88
	c3.51,21.32,6.74,43.04,15.94,62.59c19.01,40.39,64.55,66.61,109.02,62.77"/>
</svg>
