<?xml version="1.0" encoding="utf-8"?>
<!-- Generator: Adobe Illustrator 18.0.0, SVG Export Plug-In . SVG Version: 6.00 Build 0)  -->
<!DOCTYPE svg PUBLIC "-//W3C//DTD SVG 1.1//EN" "http://www.w3.org/Graphics/SVG/1.1/DTD/svg11.dtd">
<svg version="1.1" id="Layer_1" xmlns="http://www.w3.org/2000/svg" xmlns:xlink="http://www.w3.org/1999/xlink" x="0px" y="0px"
	 viewBox="0 0 600 625.9" enable-background="new 0 0 600 625.9" xml:space="preserve">
<path fill="none" stroke="#FFFFFF" stroke-width="120" stroke-linejoin="bevel" stroke-miterlimit="10" d="M16.5,38.4
	C11.1,57,5.6,75.6,0.2,94.2c35.3-22.9,70.6-45.8,105.9-68.8C69,76.8,31.9,128.1-5.2,179.4c59.2-37,111.4-85.2,152.8-141.4
	c4.9,37.2-24.3,69.5-52.2,94.7s-59.2,53.8-60.2,91.3C85.8,176,136.3,127.9,186.9,79.9C149.7,148.6,112.5,217.3,75.2,286
	c39.1-36.5,78.2-73,117.3-109.5c-6.1,20.8-12.2,41.7-18.3,62.5c7.3,3.4,11.8,11.9,10.3,19.8c50.8-66,101.6-132.1,152.4-198.1
	c18.1-23.6,38-48.4,66.2-57.9c-15.2,34-30.3,68.1-45.5,102.1c44.3-33.1,84.8-71.4,120.3-113.8c-5.3,38.3-32.8,69.3-59.1,97.7
	c-21.6,23.3-43.1,46.6-64.7,69.9c15.6,5.3,33.1,1.5,47.5-6.6c14.4-8,26.2-19.8,37.8-31.5c40-40.1,79.9-80.1,119.9-120.2
	c7.2,3.4,9.6,13.1,7.3,20.7s-8,13.7-13.5,19.5C492.6,103.9,432.1,167,371.7,230.1c30.9-5.5,58.3-24.3,79.6-47.3s37.6-50.3,53.7-77.3
	c9.3-15.7,24-33.7,41.7-29c13.3,3.5,20.1,19.4,18,33c-2.1,13.6-10.6,25.2-19.1,36c-32.8,42-68.7,81.5-107.3,118.3
	c32.6-6,65.3-12,97.9-18c-61.1,25.7-130.3,17-196.6,14.9c-101.7-3.3-203.9,10.1-301.4,39.5c-6.8,2.1-14.7,5.2-16.5,12.1
	C18.6,324.3,35,331.1,47.2,332c68.9,5.1,138.8-2.4,205-22.1c43.3-12.8,85-30.8,128.6-42.7c43.5-12,90.1-17.9,133.8-6.1
	c6.8,1.8,14.2,4.6,17.5,11c3.7,7.3,0.1,16.7-6.3,21.8c-6.4,5.1-14.8,6.9-22.9,8.1c-40.9,5.9-82.7-0.5-123.9,3.4
	c-41.2,4-85.2,22-102.1,59.7c95.6-21.5,191.1-43,286.7-64.5c6,11.3-0.6,26-11.1,33.1s-23.8,8.8-36.6,10
	c-91.8,8.7-184.4,9.2-276.3,1.5c-31.2-2.6-63.6-6-92.9,4.8c-38.3,14.1-64.8,50.7-77.1,89.7S57.1,520.2,57,561
	c0,11.6,1,25.2,10.8,31.4c9.5,6,22.9,1.1,30-7.7c7.1-8.8,9.7-20.2,12.6-31.2c18.9-72.3,58.7-139,113.5-189.8
	c16.3,34.6-3.7,74.5-23.2,107.3c-25.2,42.5-50.5,85-75.7,127.5c24,3.5,47.3-10.8,63.6-28.7s27.9-39.7,43.7-58.1s38-33.9,62.2-32.5
	c-0.1,19-13.3,34.9-21.8,51.9s-10.4,41.6,5.9,51.3c13.4,8,31.1,0.5,42.3-10.4c11.2-10.9,19.2-25,31.9-34.2s33.1-11,42,1.8
	c9,13.1,0.2,30.8-9.5,43.4c-9.7,12.6-21,27.5-16.4,42.7c15.7,5,32.8-4.3,43.6-16.7c10.8-12.5,17.5-28,27.2-41.3
	c9.7-13.3,24.4-25,40.9-24c-4.2,22.5-8.3,44.9-12.5,67.4c2.6,1.3,22.7,5.8,25.4,7.1"/>
<g>
	<g>
		
			<line fill="none" stroke="#010101" stroke-width="7" stroke-linecap="round" stroke-linejoin="round" stroke-miterlimit="10" x1="17.7" y1="204.3" x2="199" y2="204.3"/>
		
			<line fill="none" stroke="#010101" stroke-width="7" stroke-linecap="round" stroke-linejoin="round" stroke-miterlimit="10" x1="39.7" y1="226.8" x2="39.7" y2="100"/>
		
			<polyline fill="none" stroke="#010101" stroke-width="7" stroke-linecap="round" stroke-linejoin="round" stroke-miterlimit="10" points="
			177,181.8 199,204.3 177,226.8 		"/>
		
			<polyline fill="none" stroke="#010101" stroke-width="7" stroke-linecap="round" stroke-linejoin="round" stroke-miterlimit="10" points="
			17.2,122 39.7,100 62.2,122 		"/>
	</g>
	<g>
		<text transform="matrix(1 0 0 1 7.8895 59.1717)"><tspan x="0" y="0" fill="#2E3192" font-family="'PermanentMarker'" font-size="30.74">how much</tspan><tspan x="0" y="30" fill="#2E3192" font-family="'PermanentMarker'" font-size="30.74">i know</tspan></text>
	</g>
	<text transform="matrix(1 0 0 1 73.6586 259.4723)" fill="#010101" font-family="'PermanentMarker'" font-size="30.74">expertise</text>
	<path fill="none" stroke="#2E3192" stroke-width="7" stroke-linecap="round" stroke-linejoin="round" stroke-miterlimit="10" d="
		M48.2,195.1c44.3-30.4,88.5-60.8,132.8-91.2"/>
</g>
<g>
	<g>
		
			<line fill="none" stroke="#010101" stroke-width="7" stroke-linecap="round" stroke-linejoin="round" stroke-miterlimit="10" x1="366.7" y1="204.3" x2="548" y2="204.3"/>
		
			<line fill="none" stroke="#010101" stroke-width="7" stroke-linecap="round" stroke-linejoin="round" stroke-miterlimit="10" x1="388.7" y1="226.8" x2="388.7" y2="100"/>
		
			<polyline fill="none" stroke="#010101" stroke-width="7" stroke-linecap="round" stroke-linejoin="round" stroke-miterlimit="10" points="
			526,181.8 548,204.3 526,226.8 		"/>
		
			<polyline fill="none" stroke="#010101" stroke-width="7" stroke-linecap="round" stroke-linejoin="round" stroke-miterlimit="10" points="
			366.2,122 388.7,100 411.2,122 		"/>
	</g>
	<text transform="matrix(1 0 0 1 422.6351 259.4723)" fill="#010101" font-family="'PermanentMarker'" font-size="30.74">expertise</text>
	<g>
		<text transform="matrix(1 0 0 1 356.8661 29.1717)"><tspan x="0" y="0" fill="#9F2214" font-family="'PermanentMarker'" font-size="30.74">how much more</tspan><tspan x="0" y="30" fill="#9F2214" font-family="'PermanentMarker'" font-size="30.74">i realize there</tspan><tspan x="0" y="60" fill="#9F2214" font-family="'PermanentMarker'" font-size="30.74">is to know</tspan></text>
	</g>
	<path fill="none" stroke="#9F2214" stroke-width="7" stroke-linecap="round" stroke-linejoin="round" stroke-miterlimit="10" d="
		M393.3,199.8c35.3-4.1,69.1-19,94.9-41.9s43.5-53.5,49.7-86.1"/>
</g>
<g>
	<text transform="matrix(1 0 0 1 10.5492 328.9124)" fill="#F7941E" font-family="'PermanentMarker'" font-size="30.74">% i think i know</text>
	<g>
		<text transform="matrix(1 0 0 1 268.5887 328.9124)" font-family="'PermanentMarker'" font-size="30.74">=</text>
	</g>
	<path fill="none" stroke="#010101" stroke-width="4" stroke-linecap="round" stroke-linejoin="round" stroke-miterlimit="10" d="
		M350,319.5c64.4-1.6,128.8-3.1,193.2-4.7"/>
	<g>
		<text transform="matrix(1 0 0 1 293.9229 301.817)" fill="#2E3192" font-family="'PermanentMarker'" font-size="30.74">knowledge acquired</text>
	</g>
	<g>
		<text transform="matrix(1 0 0 1 302.1446 349.4797)" fill="#9F2214" font-family="'PermanentMarker'" font-size="30.74">knowledge missing</text>
	</g>
</g>
<g>
	
		<line fill="none" stroke="#010101" stroke-width="7" stroke-linecap="round" stroke-linejoin="round" stroke-miterlimit="10" x1="89" y1="563.3" x2="487" y2="563.3"/>
	
		<line fill="none" stroke="#010101" stroke-width="7" stroke-linecap="round" stroke-linejoin="round" stroke-miterlimit="10" x1="111" y1="585.8" x2="111" y2="339.7"/>
	
		<polyline fill="none" stroke="#010101" stroke-width="7" stroke-linecap="round" stroke-linejoin="round" stroke-miterlimit="10" points="
		465,540.8 487,563.3 465,585.8 	"/>
	
		<polyline fill="none" stroke="#010101" stroke-width="7" stroke-linecap="round" stroke-linejoin="round" stroke-miterlimit="10" points="
		88.5,361.7 111,339.7 133.5,361.7 	"/>
</g>
<text transform="matrix(1 0 0 1 351.7777 618.4598)" fill="#010101" font-family="'PermanentMarker'" font-size="30.74">expertise</text>
<path fill="none" stroke="#F7941E" stroke-width="7" stroke-linecap="round" stroke-linejoin="round" stroke-miterlimit="10" d="
	M116.1,557.1c11.3,3,23.4-3.7,30.5-13.2c7-9.5,10.1-21.4,13-33c7.9-31.2,15.8-62.4,23.6-93.6c3.4-13.6,8.1-28.8,20.5-34.8
	c12.9-6.3,28.9,0.9,38.1,12c9.2,11.1,13.7,25.5,19.4,38.8c16.7,39.1,46.1,72.5,82.4,93.6c36.3,21.1,79.4,29.9,121,24.7"/>
</svg>
