<?xml version="1.0" encoding="utf-8"?>
<!-- Generator: Adobe Illustrator 18.0.0, SVG Export Plug-In . SVG Version: 6.00 Build 0)  -->
<!DOCTYPE svg PUBLIC "-//W3C//DTD SVG 1.1//EN" "http://www.w3.org/Graphics/SVG/1.1/DTD/svg11.dtd">
<svg version="1.1" id="Layer_1" xmlns="http://www.w3.org/2000/svg" xmlns:xlink="http://www.w3.org/1999/xlink" x="0px" y="0px"
	 viewBox="0 0 628.5 360" enable-background="new 0 0 628.5 360" xml:space="preserve">
<path fill="none" stroke="#FFFFFF" stroke-width="120" stroke-linejoin="bevel" stroke-miterlimit="10" d="M97.8-9
	C81.6,9.3,15.4,51.9,9,75.5c-3.2,11.9-4.6,26,3.4,35.3c6.8,8,18.8,9.9,29,7.5s19.2-8.5,27.9-14.4c42.5-29,85-58,127.5-87
	c-28.1,62-67.3,118.9-115.1,167.3C54.3,212,22.3,240.4,17.2,279c6.8,6.4,18,5.9,26.3,1.5c8.2-4.5,14.2-12.1,19.9-19.5
	c59.1-76.4,118.1-152.8,177.2-229.2c22.7,26.2,16.2,66.5,2.9,98.5c-13.3,32-32.5,63.5-31.2,98.1c22.1,1.8,40.4-18,48-38.8
	c7.6-20.8,8.1-43.6,15.3-64.5s24.8-41.2,46.9-40.5c2.2,32.9,4.4,65.7,6.5,98.6c1.1,15.9,4.5,35.1,19.4,40.6
	c14.8,5.4,31-8.1,34.4-23.5c3.4-15.4-2-31.1-7.4-45.9c9.5-6.1,22.8-1.9,30.7,6.3s11.7,19.2,16,29.7c20.3,50,54,93.3,87.2,135.8
	c5.8,7.4,13.9,15.6,22.9,13c6.5-1.9,10.1-8.7,12.9-14.8c13.4-29.1,26.8-58.1,40.2-87.2c5.8-12.5,11.6-25.3,12.9-39.1
	c1.2-13.7-3-28.8-14.1-37c-14.7-10.9-35.2-6.5-52.8-1.7c-30.4,8.3-60.9,16.6-91.3,24.9c-1.7,20.1,11,40.5,29.8,48
	c18.7,7.4,42,1.2,54.5-14.6"/>
<g>
	
		<line fill="none" stroke="#000000" stroke-width="7" stroke-linecap="round" stroke-linejoin="round" stroke-miterlimit="10" x1="7.5" y1="220.9" x2="553.5" y2="220.9"/>
	
		<line fill="none" stroke="#000000" stroke-width="7" stroke-linecap="round" stroke-linejoin="round" stroke-miterlimit="10" x1="29.5" y1="293.1" x2="29.5" y2="44.1"/>
	
		<polyline fill="none" stroke="#000000" stroke-width="7" stroke-linecap="round" stroke-linejoin="round" stroke-miterlimit="10" points="
		531.5,198.4 553.5,220.9 531.5,243.4 	"/>
	
		<polyline fill="none" stroke="#000000" stroke-width="7" stroke-linecap="round" stroke-linejoin="round" stroke-miterlimit="10" points="
		7,66.2 29.5,44.2 52,66.2 	"/>
</g>
<text transform="matrix(1 0 0 1 3.5 29.999)" font-family="'PermanentMarker'" font-size="30.74">ability to sleep</text>
<text transform="matrix(1 0 0 1 448.833 157.7729)"><tspan x="0" y="0" font-family="'PermanentMarker'" font-size="30.74">desire to</tspan><tspan x="0" y="30" font-family="'PermanentMarker'" font-size="30.74">fall asleep</tspan></text>
<path fill="none" stroke="#006798" stroke-width="7" stroke-linecap="round" stroke-miterlimit="10" d="M31.5,219.2
	c52.1,0.1,103.3-29.7,128.9-75.1c10-17.8,16.3-37.6,26.1-55.5S211,54,230.7,48.5c25.4-7,51.7,6.2,73.7,20.8
	c98.9,65.7,171.9,169.5,200.3,284.9"/>
</svg>
