<?xml version="1.0" encoding="utf-8"?>
<!-- Generator: Adobe Illustrator 18.0.0, SVG Export Plug-In . SVG Version: 6.00 Build 0)  -->
<!DOCTYPE svg PUBLIC "-//W3C//DTD SVG 1.1//EN" "http://www.w3.org/Graphics/SVG/1.1/DTD/svg11.dtd">
<svg version="1.1" id="Layer_1" xmlns="http://www.w3.org/2000/svg" xmlns:xlink="http://www.w3.org/1999/xlink" x="0px" y="0px"
	 viewBox="0 0 660.5 415.5" enable-background="new 0 0 660.5 415.5" xml:space="preserve">
<path fill="none" stroke="#FFFFFF" stroke-width="120" stroke-linejoin="bevel" stroke-miterlimit="10" d="M458,12.3
	c-43.1,5-86.6,0-129.9-0.2S239.7,17,202.8,39.9c-23,14.3-41.5,34.7-59.7,54.8C109.5,132,75.9,169.2,42.3,206.5
	C24.5,226.3,6,247.3,0,273.2c24.4,3.4,44.6-17.8,60.1-37c40.5-49.8,82.4-99.3,133.7-137.8s113.5-65.5,177.6-64.4
	c8.6,0.2,18.8,1.9,22.4,9.7c5.2,11.1-7.5,21.9-18.2,27.9c-99.1,54.6-192.9,118.7-279.9,191.1c-13.4,11.2-28,28.3-20,43.8
	c5.4,10.5,19.5,14,30.9,11c11.4-3,20.9-10.9,30-18.4c72.1-59.6,150.7-111.2,233.9-153.8C327.5,224.2,244.9,271.3,175,328
	c-9.4,7.7-19,16-23.5,27.3c-4.5,11.3-2.1,26.3,8.5,32.3c14.2,8.1,31.2-3.9,43.1-15.2c89.1-84.4,178.2-168.8,267.4-253.1
	c14.1,31.9-5.8,68.4-28.8,94.6c-23,26.2-51.2,51.5-57,85.9c27.5,3.9,54-13.4,71.4-35.1c17.4-21.6,28.2-47.7,43.6-70.8
	c15.3-23.1,37.4-44.4,64.9-47.9c-27.5,41.8-55.7,85.6-61.3,135.3c0,0,31.8-45.6,157.2-45.7"/>
<path fill="none" stroke="#000000" stroke-width="7" stroke-linecap="round" stroke-miterlimit="10" d="M188.7,381.7"/>
<g>
	
		<line fill="none" stroke="#000000" stroke-width="7" stroke-linecap="round" stroke-linejoin="round" stroke-miterlimit="10" x1="186.5" y1="405.6" x2="186.5" y2="72.6"/>
	
		<line fill="none" stroke="#000000" stroke-width="7" stroke-linecap="round" stroke-linejoin="round" stroke-miterlimit="10" x1="11" y1="258.1" x2="379" y2="258.1"/>
	
		<polyline fill="none" stroke="#000000" stroke-width="7" stroke-linecap="round" stroke-linejoin="round" stroke-miterlimit="10" points="
		164,94.6 186.5,72.6 209,94.6 	"/>
	
		<polyline fill="none" stroke="#000000" stroke-width="7" stroke-linecap="round" stroke-linejoin="round" stroke-miterlimit="10" points="
		357,235.6 379,258.1 357,280.6 	"/>
</g>
<g>
	<text transform="matrix(1 0 0 1 158.0388 30.6974)"><tspan x="0" y="0" font-family="'PermanentMarker'" font-size="31">how good i think </tspan><tspan x="0" y="30" font-family="'PermanentMarker'" font-size="31">i am at something</tspan></text>
</g>
<g>
	<text transform="matrix(1 0 0 1 391.0428 235.1056)"><tspan x="0" y="0" font-family="'PermanentMarker'" font-size="31">how good i think</tspan><tspan x="0" y="30" font-family="'PermanentMarker'" font-size="31">people are at</tspan><tspan x="0" y="60" font-family="'PermanentMarker'" font-size="31">something</tspan></text>
</g>
<g>
	<text transform="matrix(1 0 0 1 282.1243 123.8658)"><tspan x="0" y="0" fill="#0071BC" font-family="'PermanentMarker'" font-size="31">how good i</tspan><tspan x="0" y="30" fill="#0071BC" font-family="'PermanentMarker'" font-size="31">actually am</tspan></text>
</g>
<g>
	<path fill="none" stroke="#0071BC" stroke-width="7" stroke-linecap="round" stroke-miterlimit="10" d="M187.3,258.1
		c18.1-12,9.3-37.7-12.7-30.9c-18.5,5.7-18.8,28.1-9.1,41.7c31.6,44.2,95.7-26.7,49.6-65c-19.2-16-47.3-15.3-67.5-1.4
		c-25,17.3-30.2,51.3-21.1,78.6c19,57.4,89.1,67.7,132.6,30.9c43.8-37.1,47.2-106.1,10.2-149.3c-33.4-39.1-88.3-48.2-134.8-29.5
		C80.3,155,48.9,208,51.8,266c2.9,58.6,53.4,112.5,109.3,126.1c33.4,8.2,70.7,1.1,100.8-14.6"/>
	<path fill="none" stroke="#0071BC" stroke-width="7" stroke-linecap="round" stroke-linejoin="round" stroke-miterlimit="10" d="
		M245.7,372.2c6.1,1.4,12.1,2.9,18.2,4.3c-1.9,5.3-3.8,10.6-5.7,15.9"/>
</g>
</svg>
