<?xml version="1.0" encoding="utf-8"?>
<!-- Generator: Adobe Illustrator 19.2.0, SVG Export Plug-In . SVG Version: 6.00 Build 0)  -->
<svg version="1.1" id="Layer_1" xmlns="http://www.w3.org/2000/svg" xmlns:xlink="http://www.w3.org/1999/xlink" x="0px" y="0px"
	 width="575.2px" height="507.8px" viewBox="0 0 575.2 507.8" enable-background="new 0 0 575.2 507.8" xml:space="preserve">
<path fill="none" stroke="#FFFFFF" stroke-width="120" stroke-linejoin="bevel" stroke-miterlimit="10" d="M82.3,1.1
	C77.1,20.7,71.8,40.4,66.6,60c16-17.5,31.9-34.9,47.9-52.4c-7,17.7-14,35.4-21,53c25.6-27.3,51.3-54.5,76.9-81.8
	c0.7,14.1,1.3,28.1,2,42.2c17.5-6.8,35-13.6,52.5-20.4c8.1,8.9,4.2,24.4-5.5,31.6s-22.8,7.6-34.7,5.5c-11.9-2.1-23.3-6.3-35.3-7.7
	c-37.2-4.1-74.9,25-80.3,62c13.9-4.2,27.8-8.5,41.7-12.7c-9.3,14.3-18.6,28.7-27.9,43c17-10.4,34-20.9,51-31.3
	c-34.1,19.2-64.5,45-89.2,75.4c-7,8.6-13.2,22.4-4.7,29.6c9,7.6,22-2.3,29.5-11.5c13.6-16.9,27.3-33.8,40.9-50.7
	c-2.4,22.3-4.9,44.7-7.3,67c11.4-21.3,22.8-42.7,34.1-64c6.1,18.9,12.1,37.8,18.2,56.7c6.5-27.8,13.1-55.6,19.6-83.5
	c6.8,29.1,20.8,56.4,40.4,78.9c3.9-7.6,7.7-15.2,11.6-22.7c10.3,13,20.6,26,30.9,39c1.1-32.8-23.4-61.2-50.6-79.6S148.7,95,123.5,74
	c50.3,17.9,109.2,9.3,152.3-22.3c12.9-9.4,24.5-20.8,38.6-28.1c18.9-9.8,40.8-11.5,62-13.1c66.2-5,132.5-10,198.7-14.9
	c-51.4,23.2-109.6,31.2-165.3,22.6c-9.9-1.5-20-3.6-29.7-1.2c-9.7,2.3-18.9,10.5-18.7,20.4c0.3,10.9,11.7,18.7,22.6,19.1
	c10.9,0.4,21.1-4.7,30.7-9.6c-18,22.3-35.9,44.7-53.9,67c9.9,0.8,19.8,1.6,29.8,2.5c-0.1,12.5-5.6,24.2-10.7,35.6s-9.9,23.6-8.6,36
	c1.3,12.4,11,24.8,23.5,24.9c0.6-40.3,1.2-80.6,1.7-121c9.3,42.4,26.8,83.1,51.2,119c11.7-34.8,8.4-74.3-8.7-106.7
	c31,30.7,55.6,67.9,71.7,108.5c7.3-29.6-0.2-62.4-19.6-85.9c-10-12.1-23.2-22.1-29.3-36.6c-6.1-14.5-0.4-35.7,15.1-37.8
	c9.7-1.3,19,5.6,23.5,14.3s5.4,18.7,6.2,28.5c1.6,20.5,3.2,40.9,4.8,61.4c0.4,5,0.7,10.4-1.9,14.7c-3.5,5.6-10.7,7.4-17.1,8.7
	c-84.4,16.9-168.9,33.9-253.3,50.8c-30.3,6.1-61,12.2-91.9,10.2c-13.7-0.9-27.3-3.4-41.1-2.9s-28,4.3-37.7,14
	c-9.6,9.8-12.9,26.5-4.7,37.5c19-13.1,38-26.1,57.1-39.2c1.2,15.2,2.4,30.4,3.6,45.6c19.9-18.8,39.9-37.6,59.8-56.4
	c-1.9,22.1-3.8,44.2-5.8,66.4c20.4-21.9,40.8-43.8,61.2-65.7c-4.9,9,5.2,20,15.5,20.9c10.2,1,20-3.9,29.9-6.4
	c10-2.5,22.6-1.4,27.7,7.5c-85.2,23.2-174.2,32.3-262.3,26.7c5.4,16.4,23.7,27.4,40.7,24.4c-5.4,15.7-10.8,31.4-16.1,47.1
	c12.4-6,27.1,7.6,27.4,21.4c0.3,13.8-8.7,25.9-17.7,36.3c-9,10.4-18.9,21.2-21.3,34.8c-2.4,13.6,7,30.2,20.7,29.3
	c8.2-0.5,15-6.9,18.4-14.4s4-15.8,4.5-24c1.2-18.6,2.4-37.2,3.6-55.8c5.3,25.9,10.5,51.9,15.8,77.8c9.9-37,19.8-73.9,29.7-110.9
	c4.7,40.1,9.3,80.2,14,120.4c9.2-42,18.4-84.1,27.6-126.1c4.8,48.3,9.5,96.5,14.3,144.8c12.5-41.5,25-83.1,37.5-124.6
	c3.3,34.7,6.7,69.4,10,104.1c5.1-39.5,10.1-78.9,15.2-118.4c5.6,39.7,11.1,79.3,16.7,119c4.7-40.1,9.4-80.3,14.2-120.4
	c10.1,39.9,20.2,79.7,30.3,119.6c3.4-31.8,6.7-63.6,10.1-95.4c0.6-5.4,2-11.9,7.2-13.6c5.3-1.7,10.7,3.4,11.7,8.8
	c1,5.4-1,10.9-2.6,16.2c-8.1,28.1-2.8,59.6,13.8,83.6c1.6-30.1,3.2-60.1,4.7-90.2c0.4-7,1.9-15.6,8.6-17.8
	c6.8-2.2,13.6,4.8,14.4,11.9c0.9,7.1-2.1,14-4,20.8c-6,21.5-1.5,45.8,11.8,63.7c6.3-37.3,12.6-74.7,18.9-112
	c2.7,38,5.4,76.1,8.2,114.1c4.2-38.7,8.4-77.4,12.6-116.1c3.7,37.9,7.4,75.7,11.1,113.6c3.6-32.3,7.2-64.6,10.8-96.9
	c5.4,24.6,10.7,49.2,16.1,73.8c6-7.4,16.5-10.8,25.7-8.4c9.2,2.4,16.7,10.4,18.5,19.7c3,15.8-10.1,31-25.3,36.1
	c-15.2,5.1-31.8,2.8-47.6,0.4c28.1,12.7,62.1,11.2,89-3.8"/>
<g id="Arrow_right">
</g>
<g>
	<g>
		
			<line fill="none" stroke="#000000" stroke-width="7" stroke-linecap="round" stroke-linejoin="round" stroke-miterlimit="10" x1="87.1" y1="35.7" x2="87.1" y2="164"/>
		
			<line fill="none" stroke="#000000" stroke-width="7" stroke-linecap="round" stroke-linejoin="round" stroke-miterlimit="10" x1="64.6" y1="141.5" x2="227" y2="141.5"/>
		<g>
			
				<polyline fill="none" stroke="#000000" stroke-width="7" stroke-linecap="round" stroke-linejoin="round" stroke-miterlimit="10" points="
				64.6,57.7 87.1,35.7 109.6,57.7 			"/>
		</g>
		<g>
			
				<polyline fill="none" stroke="#000000" stroke-width="7" stroke-linecap="round" stroke-linejoin="round" stroke-miterlimit="10" points="
				205,119 227,141.5 205,164 			"/>
		</g>
	</g>
	<text transform="matrix(1 0 0 1 21.2162 193.2239)" fill="#F09B36" font-family="'PermanentMarker'" font-size="30.74px"># of jokes made</text>
	<text transform="matrix(1 0 0 1 68.2265 24.7117)" fill="#5D8F76" font-family="'PermanentMarker'" font-size="30.74px">depression</text>
	<path fill="none" stroke="#F09B36" stroke-width="7" stroke-linecap="round" stroke-linejoin="round" stroke-miterlimit="10" d="
		M103.9,67.9c25.8,25,55.1,46.3,86.9,62.9"/>
</g>
<g>
	<g>
		
			<line fill="none" stroke="#000000" stroke-width="7" stroke-linecap="round" stroke-linejoin="round" stroke-miterlimit="10" x1="382.9" y1="35.7" x2="382.9" y2="164"/>
		
			<line fill="none" stroke="#000000" stroke-width="7" stroke-linecap="round" stroke-linejoin="round" stroke-miterlimit="10" x1="360.4" y1="141.5" x2="522.7" y2="141.5"/>
		<g>
			
				<polyline fill="none" stroke="#000000" stroke-width="7" stroke-linecap="round" stroke-linejoin="round" stroke-miterlimit="10" points="
				360.4,57.7 382.9,35.7 405.4,57.7 			"/>
		</g>
		<g>
			
				<polyline fill="none" stroke="#000000" stroke-width="7" stroke-linecap="round" stroke-linejoin="round" stroke-miterlimit="10" points="
				500.7,119 522.7,141.5 500.7,164 			"/>
		</g>
	</g>
	<text transform="matrix(1 0 0 1 364.0024 193.2243)" fill="#5D8F76" font-family="'PermanentMarker'" font-size="30.74px">depression</text>
	<text transform="matrix(1 0 0 1 316.9916 22.8864)" fill="#F09B36" font-family="'PermanentMarker'" font-size="30.74px"># of jokes made</text>
	<path fill="none" stroke="#5D8F76" stroke-width="7" stroke-linecap="round" stroke-linejoin="round" stroke-miterlimit="10" d="
		M396.9,128.4c21.4-5,41-16.1,58.3-29.6s32.6-29.4,47.9-45.3"/>
</g>
<g>
	
		<line fill="none" stroke="#000000" stroke-width="7" stroke-linecap="round" stroke-linejoin="round" stroke-miterlimit="10" x1="85.8" y1="303.9" x2="85.8" y2="469.2"/>
	
		<line fill="none" stroke="#000000" stroke-width="7" stroke-linecap="round" stroke-linejoin="round" stroke-miterlimit="10" x1="63.3" y1="446.7" x2="526.2" y2="446.7"/>
	<g>
		
			<polyline fill="none" stroke="#000000" stroke-width="7" stroke-linecap="round" stroke-linejoin="round" stroke-miterlimit="10" points="
			63.3,325.9 85.8,303.9 108.3,325.9 		"/>
	</g>
	<g>
		
			<polyline fill="none" stroke="#000000" stroke-width="7" stroke-linecap="round" stroke-linejoin="round" stroke-miterlimit="10" points="
			504.2,424.2 526.2,446.7 504.2,469.2 		"/>
	</g>
</g>
<text transform="matrix(1 0 0 1 464.5861 497.4304)" font-family="'PermanentMarker'" font-size="30.74px">time</text>
<text transform="matrix(1 0 0 1 59.3459 290.5304)" fill="#5D8F76" font-family="'PermanentMarker'" font-size="30.74px">depression</text>
<path fill="none" stroke="#5D8F76" stroke-width="7" stroke-linecap="round" stroke-linejoin="round" stroke-miterlimit="10" d="
	M108.8,433.1c10.8,1.5,20.4-7.3,25.5-16.9s7.2-20.6,12.8-29.9c5.6-9.3,16.5-17,26.9-13.7c21.7,6.8,13.4,47.7,35,54.8
	c10.5,3.5,21.7-4.4,27.5-13.8c5.8-9.5,8.2-20.6,13.8-30.2c5.6-9.5,16.5-17.7,27.1-14.8c12.5,3.5,16.5,18.8,18.8,31.6
	c2.2,12.8,7.3,28.2,20.1,30.3c10.2,1.7,19.6-6.7,24.2-16c4.6-9.3,6.1-19.9,10.9-29.2c4.7-9.2,14.5-17.4,24.7-15.2
	c8.6,1.9,14,10.5,16.4,18.9s2.5,17.5,5.5,25.7c2.9,8.3,9.9,16.2,18.7,16.2c9,0,16.1-8.3,19-16.8c2.9-8.6,3.2-17.8,6-26.4
	c2.8-8.6,9.7-17,18.7-17.3c9.5-0.3,16.9,8.5,20,17.4c3.1,9,3.5,18.7,7,27.5"/>
<text transform="matrix(1 0 0 1 59.346 262.3204)" fill="#F09B36" font-family="'PermanentMarker'" font-size="30.74px"># of jokes made</text>
<path fill="none" stroke="#F09B36" stroke-width="7" stroke-linecap="round" stroke-linejoin="round" stroke-miterlimit="10" d="
	M105.7,388.2c4.4,8,6,17.1,9.6,25.5c3.6,8.3,10.2,16.4,19.2,17.5c10.3,1.3,19.5-7,24.2-16.3c4.7-9.2,6.5-19.7,11.3-28.9
	c4.7-9.2,14-17.5,24.2-16.2c9.6,1.2,16.3,10.4,19.6,19.5s4.3,19.1,8.8,27.7c4.5,8.6,14.1,15.8,23.4,13.1c8.6-2.5,12.9-12,16.1-20.3
	c4.2-10.8,8.6-22,17.3-29.8c8.6-7.7,22.7-10.8,31.8-3.6c8.4,6.6,9.6,18.6,11.3,29.2c1.7,10.6,6.3,22.8,16.8,25.1
	c9,2,18-4.8,22.4-12.9c4.4-8.1,5.8-17.5,9-26.2c3.2-8.7,9.2-17.4,18.2-19.4c7.4-1.6,15.3,1.8,20.5,7.3c5.2,5.5,8,12.9,9.6,20.3
	c1.4,6.4,2.1,13,5.1,18.8c3,5.8,9.2,10.6,15.6,9.4c6.6-1.2,10.6-8,13.6-14c4.9-9.8,7.2-23.7,14.3-32.1c5.3-6.2,12.4-11.7,20.6-11.6"
	/>
<g id="Arrow_up">
</g>
</svg>
