<?xml version="1.0" encoding="utf-8"?>
<!-- Generator: Adobe Illustrator 18.0.0, SVG Export Plug-In . SVG Version: 6.00 Build 0)  -->
<!DOCTYPE svg PUBLIC "-//W3C//DTD SVG 1.1//EN" "http://www.w3.org/Graphics/SVG/1.1/DTD/svg11.dtd">
<svg version="1.1" id="Layer_1" xmlns="http://www.w3.org/2000/svg" xmlns:xlink="http://www.w3.org/1999/xlink" x="0px" y="0px"
	 viewBox="0 0 1087.4 612" enable-background="new 0 0 1087.4 612" xml:space="preserve">
<path fill="none" stroke="#FFFFFF" stroke-width="120" stroke-linejoin="bevel" stroke-miterlimit="10" d="M11.2,207.3
	c-12.3,8.3-11.4,30,1.7,36.9c11.8,6.3,27.2-0.3,35.1-11.1s10.3-24.6,12.4-37.8c15,35,30.1,69.9,45.1,104.9
	c17.1-48.5,34.2-96.9,51.3-145.4c12.6-35.7,25.2-71.4,37.8-107.1c9-25.4,25.9-56.1,52.7-52.6c19.9,2.7,32,25.4,30.5,45.4
	c-1.5,20-12.6,37.9-23,55.1C185.3,211,137.1,339.1,113.5,471.7c-2,11.5-3.9,23.6,0.1,34.6c4,11,15.9,20,27.1,16.6
	c9.8-2.9,14.9-13.4,18.6-22.9c32-82.4,41.8-171.5,61.9-257.7S274.8,68.7,341.9,11c-2.9,55.1-5.9,110.2-8.8,165.3
	c34-7.3,55.2-40.3,72.7-70.4c22.6-39,45.1-78,67.7-117c4.7,48.7,11.8,135.3,16.5,184c25-26.6,47.7-91.1,72.7-117.7
	c19.6-20.9,45.7-43.7,73.1-35.6c-7.1,21.3-14.2,44.2-8.2,65.9s31.2,39.4,51.2,29.1c20.2-10.4,20.7-38.3,27.7-59.9
	C717.2,21.6,809.6-0.3,844.3,0c-52.4,60-20.1,135,16.8,153.3C871.9,112.7,903.7,14,943.4,0c-7.9,33.4-16.5,83.5,15.1,96.9
	c24.5,10.4,53.6,7,77.2,19.2c21.6,11.2,35.4,34,41.2,57.7s4.9,48.4,3.9,72.7c-0.7,17-3.2,37-18.1,45.2c-14.9,8.2-34.4-1.2-44.1-15.2
	c-9.7-14.1-12.6-31.5-17.5-47.8s-13.4-33.3-29-40.2c-23.6-10.5-51.9,8.5-60.9,32.8c-9,24.3,19.9,81.8,24.8,107.2
	c-31.3-36.2-97.7-81.5-129-117.7c-17.4-20.1-32.6-63.8-56.1-51.4c-21.1,11.1-21.1,40.5-21.2,64.4s-10.3,54.5-34.2,54.2
	c-14.1-0.2-25-12-34-22.8c-25.3-30.4-50.7-60.9-76-91.3c-7.3,34.6-14.7,69.1-22,103.7c-26.8,12.9-59,1.3-84.2-14.6
	s-48.8-36.3-77.9-42.5c-44-9.4-89.4,17.6-115.2,54.5c-25.8,36.9-36.1,82.1-45.9,126.1c39.3-9.5,65-46,89.1-78.5S385,246,425.4,246
	c6.9,53.4-36.5,98.7-76.3,135c-54.7,49.8-109.4,99.7-164.1,149.5c46.5,9.2,93.9-15.3,127.7-48.5s57.9-74.8,87.8-111.7
	c29.9-36.8,68.6-70.3,115.5-77.1c6,45.1-8.3,112.9-2.3,158c2.9,21.5,29,24.2,49.4,31.7c18.3,6.7,39.2-6.6,47.5-24.2
	c8.3-17.7,7.3-38.1,5.5-57.6c-1.5-16-3.3-32.6,2.2-47.7c5.5-15.1,20.8-28,36.6-24.8c17.7,3.6,26.1,24.4,27.1,42.5
	c1,18.1-2.2,37.1,5.1,53.7c7.4,16.5,32.2,26.6,43.5,12.5c10.8-11.7,14-28.3,16.1-44c2.1-15.7,3.9-32.2,12.6-45.5
	s27.2-21.7,40.9-13.8c26.2,15,4.4,59.2,21.1,84.3c10.4,15.6,32.7,18.3,50.8,13.7s34.6-14.6,52.7-19.3c20.1-5.2,42.5-3.3,60.3,7.5
	c17.8,10.8,30.3,30.9,29.7,51.7c-0.8,28.5-25,52-52,61.2c-27,9.2-56.3,7.1-84.8,4.9c-1.2,23,11.4,46.1,31.3,57.5
	c20,11.4,46.3,10.5,65.5-2.2c-11.2,23.2-33.5,41.1-58.9,45.2c-25.4,4.1-53.1-6.6-67.7-27.7c-9.8-14.1-54-0.9-60.8-16.7
	c-6.8-15.8,22-62,5-64.9c-26.9-4.6-91.7-3.6-104,20.8c-12.3,24.4,12.7,80.3-14.2,75.4C644,620,618.9,603,599.9,579
	c-21.6-27.3-47.6-55-74.1-32.6c-20.4,17.3-28.2,45-44.1,66.6c-15.8,21.6-49.9,35.9-68.2,16.4c-23.4-24.9,6-75-20.4-96.8
	c-20.1-16.6-49.3,1.7-68.5,19.3c-28,25.8-56.1,51.6-84.1,77.4"/>
<g>
	<path fill="none" stroke="#39B54A" stroke-width="7" stroke-linecap="round" stroke-linejoin="round" stroke-miterlimit="10" d="
		M236.7,0c-9,11.2-12.7,26.5-9.7,40.5c25.7-0.4,46.6,23.8,50.6,49.2c3.5,22-5.9,48.2-27.1,55.1c-10.5,3.4-22.6,1.3-31.1-5.8
		c-8.4-7-12.7-18.9-10.2-29.6c2.9-12.5,13.5-21.6,23.6-29.6c12.5-10,26.5-20.6,42.5-20c11.7,0.4,23,7.5,28.5,17.9
		c5.5,10.4,5,23.7-1.3,33.6c-13.9-5.1-27.8-10.2-41.7-15.3c-7.7,6.9-11.2,18.4-8.5,28.4c2.7,10.1,11.3,18.3,21.4,20.5
		c15.3,3.3,30.1-6.1,42.9-15c13.6-9.5,28.2-20.4,32.4-36.5c3.5-13.3-1.2-27.8-10.1-38.3s-21.4-17.3-34.4-21.7
		c-3.7-9.4-0.1-21.1,8.1-26.9s20.5-5.1,28.1,1.6c6.9,8.3,2,21.5-6.3,28.4s-19,10.3-27.7,16.7c-8.7,6.4-15.2,18.5-9.9,27.9
		c5.4,9.6,18.7,10.2,29.6,9.5c22.2-1.3,44.4-2.5,66.6-3.8"/>
	<path fill="none" stroke="#39B54A" stroke-width="7" stroke-linecap="round" stroke-linejoin="round" stroke-miterlimit="10" d="
		M383.9,76.6c4.4,3.4,8.9,6.8,13.3,10.2c-3.3,4.3-6.7,8.7-10,13"/>
</g>
<text transform="matrix(1 0 0 1 428.6553 25.542)"><tspan x="0" y="0" font-family="'PermanentMarker'" font-size="31">this path represents all the states</tspan><tspan x="0" y="30" font-family="'PermanentMarker'" font-size="31">you’ve been in throughout your life,</tspan><tspan x="0" y="60" font-family="'PermanentMarker'" font-size="31">including your chemical composition,</tspan><tspan x="0" y="90" font-family="'PermanentMarker'" font-size="31">your thoughts, memories, values, feelings...</tspan></text>
<g>
	<path fill="none" stroke="#010101" stroke-width="7" stroke-linecap="round" stroke-linejoin="round" stroke-miterlimit="10" d="
		M203.2,153.3c-18.4,4.8-33.4,20.5-37.3,39.1"/>
	<text transform="matrix(1 0 0 1 3.8164 226.5217)"><tspan x="0" y="0" font-family="'PermanentMarker'" font-size="31">now we project</tspan><tspan x="9.1" y="30" font-family="'PermanentMarker'" font-size="31">your life’s path</tspan><tspan x="55.5" y="60" font-family="'PermanentMarker'" font-size="31">onto an axis</tspan></text>
	<path fill="none" stroke="#010101" stroke-width="7" stroke-linecap="round" stroke-linejoin="round" stroke-miterlimit="10" d="
		M158.7,304.5c-2.9,29.2,7.3,59.4,27.4,80.8c20.1,21.4,49.6,33.5,78.9,32.4"/>
	<path fill="none" stroke="#010101" stroke-width="7" stroke-linecap="round" stroke-linejoin="round" stroke-miterlimit="10" d="
		M262,407.1c3.2,3.9,6.3,7.7,9.5,11.6c-4,3.2-8.1,6.4-12.1,9.6"/>
</g>
<g>
	
		<line fill="none" stroke="#39B54A" stroke-width="7" stroke-linecap="round" stroke-linejoin="round" stroke-miterlimit="10" x1="326.5" y1="210.9" x2="326.5" y2="549.9"/>
	<path fill="none" stroke="#39B54A" stroke-width="7" stroke-linecap="round" stroke-linejoin="round" stroke-miterlimit="10" d="
		M305,231.4c5.8-6.2,11.6-12.4,17.4-18.5c0.9-0.9,1.8-1.9,3.1-2.1c1.7-0.3,3.2,1,4.5,2.3c6.4,6.2,12.7,12.3,19.1,18.5"/>
</g>
<g>
	<path fill="none" stroke="#39B54A" stroke-width="7" stroke-linecap="round" stroke-linejoin="round" stroke-miterlimit="10" d="
		M317.5,512.3c5.8,0,11.7,0,17.5,0"/>
	<text transform="matrix(1 0 0 1 95.5179 520.8375)" fill="#39B54A" font-family="'PermanentMarker'" font-size="31">1 year old you</text>
</g>
<g>
	<path fill="none" stroke="#39B54A" stroke-width="7" stroke-linecap="round" stroke-linejoin="round" stroke-miterlimit="10" d="
		M317,379.4c6-0.1,12-0.3,18-0.4"/>
	<g>
		<text transform="matrix(1 0 0 1 128.8792 389.3375)" fill="#39B54A" font-family="'PermanentMarker'" font-size="31">25 year old</text>
	</g>
</g>
<g>
	<path fill="none" stroke="#39B54A" stroke-width="7" stroke-linecap="round" stroke-linejoin="round" stroke-miterlimit="10" d="
		M317,265.3c5.3,0.2,10.7,0.3,16,0.5"/>
	<g>
		<text transform="matrix(1 0 0 1 265.5032 277.3375)" fill="#39B54A" font-family="'PermanentMarker'" font-size="31">50</text>
	</g>
</g>
<g>
	<path fill="none" stroke="#010101" stroke-width="7" stroke-linecap="round" stroke-linejoin="round" stroke-miterlimit="10" d="
		M304.8,536.7c57,0,114,0,171,0h379.5"/>
	
		<polyline fill="none" stroke="#010101" stroke-width="7" stroke-linecap="round" stroke-linejoin="round" stroke-miterlimit="10" points="
		833.3,514.2 855.3,536.7 833.3,559.2 	"/>
	<text transform="matrix(1 0 0 1 861.6778 543.0081)" font-family="'PermanentMarker'" font-size="31">time</text>
</g>
<g>
	<path fill="none" stroke="#BE1E2D" stroke-width="7" stroke-linecap="round" stroke-linejoin="round" stroke-miterlimit="10" d="
		M342.2,262c0.4,1.7,0.8,3.5,1.2,5.2c5.2,7.5,16.2,8.6,25,6c8.8-2.6,16.5-8.1,25-11.3c8.6-3.3,19.2-4,26.1,2.1
		c8.3,7.3,7,21,1.4,30.5s-14.3,16.8-20.5,25.9s-9.4,22-2.8,30.9c8.4,11.3,27,8.3,37.8-0.7s17.5-22.2,27.9-31.8
		c10.4-9.6,28-14.5,38.1-4.6c7.4,7.3,7.7,19.8,15.3,26.9c13.2,12.4,35.9-0.3,52.4,7.2c11.1,5,16.5,18.7,14.7,30.7
		c-1.8,12-9.3,22.5-18.2,30.9c-7.7,7.3-16.6,13.4-22.9,22s-9.4,20.6-4.1,29.7c5.9,10.1,19.6,12.7,31.2,11
		c20.1-2.9,38.4-15.9,47.8-33.9c6.7-12.9,9-27.9,16.2-40.6c7.3-12.7,22.9-22.9,36.1-16.8c10.8,5,14.8,17.9,18.1,29.2
		c3.3,11.4,8.7,24.2,20.1,27.4c7.5,2.1,15.8-0.9,21.8-5.9c6-5,10.3-11.8,14.5-18.4c9-14.4,18.4-31.6,12.3-47.5
		c-3.6-9.3-12-16.1-15.7-25.4c-5.4-13.5,1.8-30.6,15.2-36.2c13.4-5.6,30.6,1.3,36.5,14.6c5.8,13.3,0.8,29.6,7.1,42.6
		c4.7,9.7,14.6,15.7,20.8,24.5c9.6,13.6,9,31.5,11.1,48s9.7,35.1,25.9,38.9"/>
	<path fill="none" stroke="#BE1E2D" stroke-width="7" stroke-linecap="round" stroke-linejoin="round" stroke-miterlimit="10" d="
		M854.2,462.7c2.3,3.7,4.6,7.4,6.9,11.1c-4.9,2.3-9.7,4.7-14.6,7"/>
</g>
<text transform="matrix(1 0 0 1 878.2188 407.0992)"><tspan x="0" y="0" fill="#BE1E2D" font-family="'PermanentMarker'" font-size="31">someone</tspan><tspan x="0" y="30" fill="#BE1E2D" font-family="'PermanentMarker'" font-size="31">else’s path</tspan><tspan x="0" y="60" fill="#BE1E2D" font-family="'PermanentMarker'" font-size="31">projected</tspan><tspan x="0" y="90" fill="#BE1E2D" font-family="'PermanentMarker'" font-size="31">on your axis</tspan></text>
<g>
	<path fill="none" stroke="#BE1E2D" stroke-width="7" stroke-linecap="round" stroke-linejoin="round" stroke-miterlimit="10" d="
		M390.4,254.9c1.6,5.5,3.1,11,4.7,16.5"/>
	<text transform="matrix(1 0 0 1 356.9944 249.8375)" fill="#BE1E2D" font-family="'PermanentMarker'" font-size="31">1 year old</text>
</g>
<g>
	<path fill="none" stroke="#BE1E2D" stroke-width="7" stroke-linecap="round" stroke-linejoin="round" stroke-miterlimit="10" d="
		M524.4,462.2c6.5-3.7,13-7.4,19.4-11.1"/>
	<g>
		<text transform="matrix(1 0 0 1 478.3499 473.3596)" fill="#BE1E2D" font-family="'PermanentMarker'" font-size="31">25</text>
	</g>
</g>
<g>
	<path fill="none" stroke="#BE1E2D" stroke-width="7" stroke-linecap="round" stroke-linejoin="round" stroke-miterlimit="10" d="
		M730.1,421.5c5.3,2.6,9.8,6.6,13.2,11.4"/>
	<g>
		<text transform="matrix(1 0 0 1 752.9944 451.3375)" fill="#BE1E2D" font-family="'PermanentMarker'" font-size="31">50</text>
	</g>
</g>
<g>
	<path fill="none" stroke="#000000" stroke-width="7" stroke-linecap="round" stroke-linejoin="round" stroke-miterlimit="10" d="
		M344.6,379.1c3,0,6,0,9,0h8.5"/>
	<path fill="none" stroke="#000000" stroke-width="7" stroke-linecap="round" stroke-linejoin="round" stroke-miterlimit="10" d="
		M372.1,379.8c0.1,0,0.2,0,0.2,0h13.8"/>
	
		<line fill="none" stroke="#000000" stroke-width="7" stroke-linecap="round" stroke-linejoin="round" stroke-miterlimit="10" x1="397.9" y1="379.6" x2="410.6" y2="379.6"/>
	
		<line fill="none" stroke="#000000" stroke-width="7" stroke-linecap="round" stroke-linejoin="round" stroke-miterlimit="10" x1="422.1" y1="379.1" x2="434.4" y2="379.1"/>
	
		<line fill="none" stroke="#000000" stroke-width="7" stroke-linecap="round" stroke-linejoin="round" stroke-miterlimit="10" x1="449.6" y1="379.3" x2="461.1" y2="379.3"/>
	
		<line fill="none" stroke="#000000" stroke-width="7" stroke-linecap="round" stroke-linejoin="round" stroke-miterlimit="10" x1="472.1" y1="379.6" x2="490.9" y2="379.6"/>
	
		<line fill="none" stroke="#000000" stroke-width="7" stroke-linecap="round" stroke-linejoin="round" stroke-miterlimit="10" x1="502.1" y1="379.8" x2="512.1" y2="379.8"/>
	
		<line fill="none" stroke="#000000" stroke-width="7" stroke-linecap="round" stroke-linejoin="round" stroke-miterlimit="10" x1="524.9" y1="380.1" x2="540.9" y2="380.1"/>
	
		<line fill="none" stroke="#000000" stroke-width="7" stroke-linecap="round" stroke-linejoin="round" stroke-miterlimit="10" x1="552.1" y1="380.8" x2="561.1" y2="380.8"/>
</g>
<g>
	<path fill="none" stroke="#010101" stroke-width="7" stroke-linecap="round" stroke-linejoin="round" stroke-miterlimit="10" d="
		M577,374.4c4.6,3.8,9.2,7.7,13.8,11.5"/>
	<path fill="none" stroke="#010101" stroke-width="7" stroke-linecap="round" stroke-linejoin="round" stroke-miterlimit="10" d="
		M574.5,386.1c5.8-4.1,11.5-8.2,17.3-12.4"/>
	<path fill="none" stroke="#010101" stroke-width="7" stroke-linecap="round" stroke-linejoin="round" stroke-miterlimit="10" d="
		M594.1,363.4c9.8-10.5,9-30.6,4.1-45.8s-13-28.9-15.3-45.1c-3.7-25.7,10.1-53.7,29.7-60"/>
</g>
<text transform="matrix(1 0 0 1 626.9944 220.3375)"><tspan x="0" y="0" font-family="'PermanentMarker'" font-size="31">this 18 year old is closer to</tspan><tspan x="0" y="30" font-family="'PermanentMarker'" font-size="31">who you were at 25 than</tspan><tspan x="0" y="60" font-family="'PermanentMarker'" font-size="31">the you from now is.</tspan></text>
<g>
	<path fill="none" stroke="#FBB040" stroke-width="7" stroke-linecap="round" stroke-linejoin="round" stroke-miterlimit="10" d="
		M871.4,292c65.4,23.7,141.3,16.7,201.1-18.8c10.9-6.4,21.5-14.1,28.3-24.7c6.8-10.7,9-25.1,2.6-36c-5.4-9.3-15.6-14.5-25.5-18.6
		c-50.7-21-106.6-26-161.5-28.6c-191.8-9.2-384.7,6.5-572.5,46.7"/>
	<path fill="none" stroke="#FBB040" stroke-width="7" stroke-linecap="round" stroke-linejoin="round" stroke-miterlimit="10" d="
		M347.8,200c-3.7,5.3-7.4,10.6-11.1,15.9c7.5,0.3,14.9,0.6,22.4,1"/>
</g>
<text transform="matrix(1 0 0 1 390.4075 601.3459)"><tspan x="0" y="0" font-family="'PermanentMarker'" font-size="31">does that make </tspan><tspan x="245.1" y="0" fill="#BE1E2D" font-family="'PermanentMarker'" font-size="31">him</tspan><tspan x="298.3" y="0" font-family="'PermanentMarker'" font-size="31"> </tspan><tspan x="309.8" y="0" fill="#39B54A" font-family="'PermanentMarker'" font-size="31">you</tspan><tspan x="359.8" y="0" font-family="'PermanentMarker'" font-size="31">?</tspan></text>
</svg>
