<?xml version="1.0" encoding="utf-8"?>
<!-- Generator: Adobe Illustrator 19.2.0, SVG Export Plug-In . SVG Version: 6.00 Build 0)  -->
<svg version="1.1" id="Layer_1" xmlns="http://www.w3.org/2000/svg" xmlns:xlink="http://www.w3.org/1999/xlink" x="0px" y="0px"
	 width="687.6px" height="497.4px" viewBox="0 0 687.6 497.4" enable-background="new 0 0 687.6 497.4" xml:space="preserve">
<path fill="none" stroke="#FFFFFF" stroke-width="120" stroke-linejoin="bevel" stroke-miterlimit="10" d="M110.2,11.6
	C103.7,14.7,97,18,92.6,23.7c-4.3,5.7-5.2,14.7-0.1,19.7c8.8,8.5,23-1.7,29.2-12.3s14-23.9,26.1-22.3
	c-23.5,32.4-47.1,64.9-70.6,97.3c39-36.3,78.1-72.6,117.1-108.8C159.1,43.1,123.9,89,88.6,134.9c49.7-51.5,99.3-102.9,149-154.4
	c5.1,32.5-19.4,61.8-44.1,83.6s-53.2,43.9-60.1,76.1c52.9-23.8,99.5-61.5,133.8-108.4C246.6,70.9,226,110,205.4,149.1
	c35.3-37.1,70.5-74.2,105.8-111.4c-8.5,29.4-17,58.8-25.5,88.2c14.2-3.9,28.4-7.8,42.6-11.7c-76.5,7.8-152.9,15.7-229.4,23.5
	c7.3-2.1,14.5-4.2,21.8-6.2c-1.8,28.4-35.7,49.6-62,38.8c-7.3-3-14-7.9-21.8-9.2c-7.8-1.3-17.6,3.3-17.7,11.2
	c-0.1,10.3,13.8,13.4,24.1,13.2c31.5-0.6,63.1-1.3,94.6-1.9c166.9-3.3,333.7-6.7,500.6-10c-54.5,27.4-118.1,30.6-178.8,24
	c-60.6-6.6-119.9-22.3-180.3-30.6s-123.7-9-180.3,13.5c7.5,50.4,11.4,101.4,11.7,152.3c0.1,20.4-0.3,40.9-0.8,61.3
	c-0.2,9.9-0.5,20.3-5.4,28.9c-4.8,8.6-15.7,14.8-24.8,11c-9.1-3.8-10.5-19.8-1.1-22.9c17.1,34.5,43.9,64.1,76.5,84.6
	c-19.8-30.6-39.6-61.2-59.5-91.8c10.9,36.7,39.4,67.9,75,82.1c-1.1-6.1-2.2-12.2-3.3-18.3c8.7,11.8,17.5,23.6,26.2,35.4
	c-23.4-31.2-46.7-62.3-70.1-93.5c11.5,9.6,23,19.1,34.5,28.7c2.2-5.9,4.4-11.8,6.7-17.7c24.6,19.8,58.6,27.2,89.2,19.5
	c-23.7-12.9-47.4-25.7-71.1-38.6c27.1,9,54.2,18.1,81.2,27.1c11.8,3.9,24,7.9,36.3,6.6s24.9-9.5,27.1-21.7
	c-2.8,14.2,14,28.1,27.5,22.6c10.8-4.4,15.8-17,25.5-23.5c9.9-6.6,23.2-5.8,34.1-1s19.7,13.1,28.3,21.3c-6.1-6.1-0.9-17.8,7.4-20.3
	s17.2,1.2,24.3,6.1c7.2,4.9,13.7,11,21.8,13.9c16.9,6.1,37.9-5.8,41.4-23.4c0.9,19,17.2,36.1,36.1,38c18.9,1.9,38.3-11.6,42.9-30.1
	c6.7,13.8,28.6,16.6,38.6,4.9c2.2,9.7,4.4,19.3,6.6,29c-5.7-14.6-11.4-29.2-17.2-43.8c14.3-1.5,22.5,18.8,15.8,31.5
	s-21.3,18.8-34.8,23.9c-11.4,4.3-22.7,8.6-34.1,12.9c-15.4,5.8-34.7,11-46.7-0.2c-11.2-10.4-8.3-30,1.8-41.4
	c10.1-11.5,25.2-17,39.5-22.5s29.3-11.8,38.3-24.1c-14.2,19.7-44.3,15.8-67.7,9.1c-74.1-21.2-146.2-48.9-220.8-68.1
	s-153-29.7-228.7-15.7c-9.1,9.9-3,27.1,8.4,34.2c11.4,7,25.7,6.8,39.1,6.4c82.9-2.8,166.4-5.6,247-24.7S561.3,273,617.3,211.8
	c-17.5,89.7-73.8,171.1-151.4,219.1c29.8-47.4,99.6-63.9,147.5-34.8c-38.9-59.5-99.5-101.9-163.8-132.3
	c-99.7-47.2-212.3-68.5-321.8-54.9"/>
<g id="Arrow_right">
</g>
<g>
	
		<line fill="none" stroke="#000000" stroke-width="7" stroke-linecap="round" stroke-linejoin="round" stroke-miterlimit="10" x1="111.9" y1="132.2" x2="111.9" y2="449.4"/>
	
		<line fill="none" stroke="#000000" stroke-width="7" stroke-linecap="round" stroke-linejoin="round" stroke-miterlimit="10" x1="89.4" y1="426.9" x2="667.6" y2="426.9"/>
	<g>
		
			<polyline fill="none" stroke="#000000" stroke-width="7" stroke-linecap="round" stroke-linejoin="round" stroke-miterlimit="10" points="
			89.4,152.9 111.9,130.9 134.4,152.9 		"/>
	</g>
	<g>
		
			<polyline fill="none" stroke="#000000" stroke-width="7" stroke-linecap="round" stroke-linejoin="round" stroke-miterlimit="10" points="
			645.6,404.4 667.6,426.9 645.6,449.4 		"/>
	</g>
</g>
<text transform="matrix(1 0 0 1 115.84 483.4827)" font-family="'PermanentMarker'" font-size="30.74px">1820</text>
<text transform="matrix(1 0 0 1 563.5225 483.4827)" font-family="'PermanentMarker'" font-size="30.74px">2020</text>
<text transform="matrix(1 0 0 1 88.5086 118.7458)" fill="#675890" font-family="'PermanentMarker'" font-size="30.74px">extreme poverty</text>
<path fill="none" stroke="#675890" stroke-width="7" stroke-linecap="round" stroke-linejoin="round" stroke-miterlimit="10" d="
	M126.8,205.2c96.5,0,194.8-0.3,284.5,33.8c80.6,30.7,147.3,89.2,207.3,151"/>
<text transform="matrix(1 0 0 1 17.9016 190.5528)" font-family="'PermanentMarker'" font-size="30.74px">100%</text>
<g>
	<path fill="none" stroke="#000000" stroke-width="7" stroke-linecap="round" stroke-linejoin="round" stroke-miterlimit="10" d="
		M106.1,180.8c3.9,0.1,7.9,0.1,11.8,0.1"/>
	<path fill="none" stroke="#000000" stroke-width="7" stroke-linecap="round" stroke-linejoin="round" stroke-miterlimit="10" d="
		M131.1,181c3.7,0,7.4,0.1,11.1,0.1"/>
	<path fill="none" stroke="#000000" stroke-width="7" stroke-linecap="round" stroke-linejoin="round" stroke-miterlimit="10" d="
		M155.5,181.2c2.8,0,5.6,0,8.4,0"/>
	<path fill="none" stroke="#000000" stroke-width="7" stroke-linecap="round" stroke-linejoin="round" stroke-miterlimit="10" d="
		M177.1,181.2c4.9,0,9.7,0,14.6,0"/>
	<path fill="none" stroke="#000000" stroke-width="7" stroke-linecap="round" stroke-linejoin="round" stroke-miterlimit="10" d="
		M204.8,181.3c4.6,0,9.2,0,13.9,0"/>
	<path fill="none" stroke="#000000" stroke-width="7" stroke-linecap="round" stroke-linejoin="round" stroke-miterlimit="10" d="
		M231.1,181.2c3.6,0,7.3,0,10.9,0"/>
	<path fill="none" stroke="#000000" stroke-width="7" stroke-linecap="round" stroke-linejoin="round" stroke-miterlimit="10" d="
		M255.2,181.2c3,0,6,0,9.1,0"/>
	<path fill="none" stroke="#000000" stroke-width="7" stroke-linecap="round" stroke-linejoin="round" stroke-miterlimit="10" d="
		M276.7,181.2c4.3,0,8.7,0,13,0"/>
	<path fill="none" stroke="#000000" stroke-width="7" stroke-linecap="round" stroke-linejoin="round" stroke-miterlimit="10" d="
		M302.3,181.2c5.6,0,11.2,0,16.8,0"/>
	<path fill="none" stroke="#000000" stroke-width="7" stroke-linecap="round" stroke-linejoin="round" stroke-miterlimit="10" d="
		M332.4,181.2c3.5,0,7,0,10.5,0"/>
	<path fill="none" stroke="#000000" stroke-width="7" stroke-linecap="round" stroke-linejoin="round" stroke-miterlimit="10" d="
		M356.1,181.2c5.6,0,11.2,0,16.8,0"/>
	<path fill="none" stroke="#000000" stroke-width="7" stroke-linecap="round" stroke-linejoin="round" stroke-miterlimit="10" d="
		M386.1,181.2c5.1,0,10.2,0,15.3,0"/>
	<path fill="none" stroke="#000000" stroke-width="7" stroke-linecap="round" stroke-linejoin="round" stroke-miterlimit="10" d="
		M414.7,181.1c5.1,0,10.3,0,15.4,0"/>
	<path fill="none" stroke="#000000" stroke-width="7" stroke-linecap="round" stroke-linejoin="round" stroke-miterlimit="10" d="
		M443.3,181.1c4.9,0,9.7,0,14.6,0"/>
	<path fill="none" stroke="#000000" stroke-width="7" stroke-linecap="round" stroke-linejoin="round" stroke-miterlimit="10" d="
		M471.1,181c3.7,0,7.4,0,11.1,0"/>
	<path fill="none" stroke="#000000" stroke-width="7" stroke-linecap="round" stroke-linejoin="round" stroke-miterlimit="10" d="
		M495.4,181c4.6,0,9.3,0,13.9,0"/>
	<path fill="none" stroke="#000000" stroke-width="7" stroke-linecap="round" stroke-linejoin="round" stroke-miterlimit="10" d="
		M522.6,180.9c4.2,0,8.4,0,12.6,0"/>
	<path fill="none" stroke="#000000" stroke-width="7" stroke-linecap="round" stroke-linejoin="round" stroke-miterlimit="10" d="
		M547.1,180.9c5.6,0,11.2,0,16.8,0"/>
	<path fill="none" stroke="#000000" stroke-width="7" stroke-linecap="round" stroke-linejoin="round" stroke-miterlimit="10" d="
		M576.5,180.8c4.9,0,9.8,0,14.7,0"/>
	<path fill="none" stroke="#000000" stroke-width="7" stroke-linecap="round" stroke-linejoin="round" stroke-miterlimit="10" d="
		M603.6,180.8c6.4,0.5,11.4,0.5,17.1,0"/>
</g>
<text transform="matrix(1 0 0 1 89.4388 91.2708)" fill="#F09B36" font-family="'PermanentMarker'" font-size="30.74px">basic education</text>
<path fill="none" stroke="#F09B36" stroke-width="7" stroke-linecap="round" stroke-linejoin="round" stroke-miterlimit="10" d="
	M128,364.3c61.7-9.1,123.4-18.2,185.1-27.2c55.5-8.2,111.3-16.4,164.5-33.8c53.2-17.4,104.1-44.7,141-85.6"/>
<text transform="matrix(1 0 0 1 88.5155 63.7952)" fill="#5D8F76" font-family="'PermanentMarker'" font-size="30.74px">child mortality</text>
<path fill="none" stroke="#5D8F76" stroke-width="7" stroke-linecap="round" stroke-linejoin="round" stroke-miterlimit="10" d="
	M126.8,316.8c166.6,2.6,332.9,34.6,491.8,94.8"/>
<text transform="matrix(1 0 0 1 88.5086 36.3194)" fill="#CE3045" font-family="'PermanentMarker'" font-size="30.74px">vaccination</text>
<path fill="none" stroke="#CE3045" stroke-width="7" stroke-linecap="round" stroke-linejoin="round" stroke-miterlimit="10" d="
	M126.8,416.5c79.4,0,158.8,0,238.3,0c38.3,0,88.1,4.1,123.6-12.7c53.5-25.4,121.4-113.9,129.9-173.2"/>
<g id="Arrow_up">
</g>
</svg>
