<?xml version="1.0" encoding="utf-8"?>
<!-- Generator: Adobe Illustrator 19.2.0, SVG Export Plug-In . SVG Version: 6.00 Build 0)  -->
<svg version="1.1" id="Layer_1" xmlns="http://www.w3.org/2000/svg" xmlns:xlink="http://www.w3.org/1999/xlink" x="0px" y="0px"
	 width="670.5px" height="396.2px" viewBox="0 0 670.5 396.2" enable-background="new 0 0 670.5 396.2" xml:space="preserve">
<path fill="none" stroke="#FFFFFF" stroke-width="120" stroke-linejoin="bevel" stroke-miterlimit="10" d="M418.8,30.6
	C326.6,30,234.4,29.5,142.2,29c-40.7-0.2-81.8-0.4-121.6,8.2c-8.1,1.8-16.5,4.1-22.7,9.6s-9.4,15.3-5.2,22.4
	c5.6,9.5,19.2,9.1,30.1,7.5c22.4-3.3,44.7-6.6,67.1-9.9c-13.7,15.5-27.4,30.9-41.1,46.4c-7.2,8.1-14.8,17.5-14,28.3
	S51,160.6,57.5,152c-9.4,21.9-18.9,43.8-28.3,65.7c15.9-0.4,28.5,19.2,21.5,33.5c-7.6,15.6-32.1,22.9-30.3,40.2
	c1,10.2,12.7,16.9,22.7,15.1c10.1-1.8,17.9-10.1,22-19.5s4.9-19.8,5.7-29.9c2.9-37,5.9-74,8.8-111.1c1.3,47.6,28.3,93.7,69.2,118
	c10.5-57.7-19-120.5-70-149.3c8.9-7.9,23.4-5.9,33,1.3c9.5,7.1,15.3,18.1,20.7,28.7c11.2,21.8,22.4,43.7,33.6,65.5
	c4,7.7,8.1,15.6,14.6,21.3s16.2,8.7,24.1,5.2c13.4-6,13.5-25,9.6-39.1c-10.4-37.9-34.8-71.9-67.4-93.9c27.9-2.1,54.2,16.3,69.5,39.7
	s21.6,51.5,27.7,78.8c28.5-23.2,34.5-69.5,13-99.3c17.7,29.2,35.3,58.4,53,87.5c6.8,11.3,13.9,22.8,24.2,31.1
	c10.3,8.3,24.7,12.7,37,7.8c19.4-7.7,23.9-32.5,25.7-53.3c1.9-22.6,3.8-45.2,5.7-67.7c1.8-21.1,6-46,25.2-54.9
	c13.4-6.3,29.2-2.1,43.4,2.3c52.3,15.9,104.6,31.9,156.9,47.8c10.3,3.1,21.6,7,27,16.4c7.6,13.2-0.3,29.5-8,42.5
	c-7.9,13.3-15.8,26.5-23.7,39.8c-4.4,7.5-9,15.1-15.9,20.4c-13.7,10.7-35.6,8.7-47.2-4.2c-11.7-12.9-11.3-34.8,0.7-47.4
	c8.2-8.6,20.4-12.5,28.9-20.8s11.2-25.2,0.5-30.4c-11.5-5.6-22.7,8.1-28.3,19.6c-16.9,34.5-33.7,68.9-50.6,103.4
	c-4.9-28-9.9-56-14.8-83.9c-2.7-15.4-8.4-34-23.8-37c-15-2.9-27.5,11.8-33.6,25.8c-13.5,30.9-14.5,67.1-2.7,98.7
	c-13.2-38.5-26.6-79.7-17-119.3c2.8-11.5,7.8-23,16.8-30.7c9-7.8,22.5-11.1,33-5.6c12.5,6.4,17,22.7,14.7,36.6s-9.7,26.2-15.8,38.9
	c-6,12.7-10.8,27.1-7.2,40.7c4.2,15.9,19.1,27.1,34.9,31.5c15.8,4.4,32.6,3.2,48.9,1.9c45.8-3.5,91.5-7,137.3-10.4
	c-14.4,14.5-28.9,29-43.3,43.5c-5-15.3-10-30.6-15-45.8c-10.8,16.4-4,41.7,13.7,50.4c-0.1,26.9-0.1,53.8-0.2,80.7
	c-16.9-34.3-33.8-68.6-50.7-103c-7.2,41.7-2.3,85.4,13.9,124.5c-20.9-43.5-41.7-87-62.6-130.5c-5.5,44.5,1.8,90.5,20.8,131
	c-31.1-38.1-51-85.3-56.5-134.2c-4.9,26.1-9.9,52.1-14.8,78.2c-19.7-14.7-25-45.5-11.3-65.9c-53.7-0.7-107.3-1.3-161-2
	c-12.6-0.2-26.1-0.1-36.7,6.9c-18.8,12.3-16.8,45.6,3.3,55.6c15.4-24.4,30.9-48.9,46.3-73.3c-1.7,14.5-3.4,29.1-5.1,43.6
	c-0.7,6.2-1.4,12.7,0.9,18.4c4.4,10.9,18.9,15.2,29.8,10.9c10.9-4.3,18.1-15.2,21-26.6c2.9-11.4,2.2-23.3,1.5-35
	c7.1,13.3,14.3,26.6,21.4,39.9c0.4-25.3-23.5-45.5-48.3-50.6s-50.3,1-75.1,5.8c-73.7,14.3-149.5,17.4-224.1,9.3"/>
<g id="Arrow_right">
</g>
<g>
	
		<line fill="none" stroke="#000000" stroke-width="7" stroke-linecap="round" stroke-linejoin="round" stroke-miterlimit="10" x1="20.4" y1="281.8" x2="643.8" y2="281.8"/>
	<g>
		
			<polyline fill="none" stroke="#000000" stroke-width="7" stroke-linecap="round" stroke-linejoin="round" stroke-miterlimit="10" points="
			621.8,259.3 643.8,281.8 621.8,304.3 		"/>
	</g>
	
		<line fill="none" stroke="#000000" stroke-width="7" stroke-linecap="round" stroke-linejoin="round" stroke-miterlimit="10" x1="44.8" y1="52.4" x2="44.8" y2="301.2"/>
	<g>
		
			<polyline fill="none" stroke="#000000" stroke-width="7" stroke-linecap="round" stroke-linejoin="round" stroke-miterlimit="10" points="
			22.3,74.4 44.8,52.4 67.3,74.4 		"/>
	</g>
</g>
<text transform="matrix(1 0 0 1 473.1232 338.1283)"><tspan x="0" y="0" font-family="'PermanentMarker'" font-size="30.74px">duration of</tspan><tspan x="49.8" y="30" font-family="'PermanentMarker'" font-size="30.74px">the date</tspan></text>
<text transform="matrix(1 0 0 1 19.321 40.0825)" font-family="'PermanentMarker'" font-size="30.74px">how self conscious i feel</text>
<line fill="none" stroke="#88206E" stroke-width="7" stroke-linecap="round" stroke-linejoin="round" stroke-miterlimit="10" x1="62.4" y1="119.8" x2="218" y2="119.8"/>
<text transform="matrix(1 0 0 1 57.9381 161.8194)"><tspan x="0" y="0" font-family="'PermanentMarker'" font-size="30.74px">“stop staring</tspan><tspan x="28.8" y="30" font-family="'PermanentMarker'" font-size="30.74px">and think</tspan><tspan x="0" y="60" font-family="'PermanentMarker'" font-size="30.74px">of something</tspan><tspan x="44.6" y="90" font-family="'PermanentMarker'" font-size="30.74px">to say.”</tspan></text>
<g>
	<path fill="none" stroke="#000000" stroke-width="7" stroke-linecap="round" stroke-linejoin="round" stroke-miterlimit="10" d="
		M269.3,275.7c0,4,0,8.1,0,12.1"/>
	<path fill="none" stroke="#000000" stroke-width="7" stroke-linecap="round" stroke-linejoin="round" stroke-miterlimit="10" d="
		M400.9,275.4c0,3.8,0,7.6,0,11.4"/>
	<path fill="none" stroke="#000000" stroke-width="7" stroke-linecap="round" stroke-linejoin="round" stroke-miterlimit="10" d="
		M287,295c-1.8,2.6-4.2,4.7-6.9,6.3c2.6,1.7,5.2,3.4,7.7,5.2"/>
	<path fill="none" stroke="#000000" stroke-width="7" stroke-linecap="round" stroke-linejoin="round" stroke-miterlimit="10" d="
		M285.8,300.9c32.5,0.2,64.9,0.3,97.4,0.5"/>
	<path fill="none" stroke="#000000" stroke-width="7" stroke-linecap="round" stroke-linejoin="round" stroke-miterlimit="10" d="
		M381.9,295.4c2.4,2.1,4.8,4.1,7.1,6.2c-2.5,2.2-5,4.4-7.4,6.6"/>
	<text transform="matrix(1 0 0 1 289.4841 333.6346)" font-family="'PermanentMarker'" font-size="30.74px">i talk</text>
</g>
<path fill="none" stroke="#88206E" stroke-width="7" stroke-linecap="round" stroke-linejoin="round" stroke-miterlimit="10" d="
	M621.6,115.2c-32,3.3-66.1,6.4-95-7.8c-17.5-8.5-31.5-22.7-48.1-32.8s-38.3-15.9-55.2-6.2c-10.5,6-17.3,17.2-20.6,28.9
	s-3.6,23.9-3.8,36.1c-0.7,37.3-1.5,74.6-2.2,111.9c-22.9,2.7-63.5,4.8-82.6-8.1c-15.1-10.2-23.1-28-28.8-45.3s-10-35.5-20.4-50.5
	c-10.4-14.9-28.6-21.4-46.8-21.4"/>
<text transform="matrix(1 0 0 1 427.9652 161.8198)"><tspan x="0" y="0" font-family="'PermanentMarker'" font-size="30.74px">“well done...</tspan><tspan x="-21.1" y="30" font-family="'PermanentMarker'" font-size="30.74px">i really should</tspan><tspan x="-3.2" y="60" font-family="'PermanentMarker'" font-size="30.74px">have kept my</tspan><tspan x="-2.6" y="90" font-family="'PermanentMarker'" font-size="30.74px">mouth shut!”</tspan></text>
<g id="Arrow_up">
</g>
</svg>
