<?xml version="1.0" encoding="utf-8"?>
<!-- Generator: Adobe Illustrator 19.2.0, SVG Export Plug-In . SVG Version: 6.00 Build 0)  -->
<svg version="1.1" id="Layer_1" xmlns="http://www.w3.org/2000/svg" xmlns:xlink="http://www.w3.org/1999/xlink" x="0px" y="0px"
	 width="647.35px" height="200.47px" viewBox="0 0 647.35 200.47" enable-background="new 0 0 647.35 200.47" xml:space="preserve">
<path fill="none" stroke="#FFFFFF" stroke-width="120" stroke-linejoin="bevel" stroke-miterlimit="10" d="M16.01,98.09
	c1.5,22.35,2.99,44.71,4.49,67.06c19.07-23.93,38.15-47.87,57.22-71.8c-0.71,28.5-1.41,57-2.12,85.5
	c23.69-26.01,47.38-52.01,71.07-78.02c1.64,26.86,3.28,53.73,4.92,80.59c21.04-25.74,36.87-55.71,46.27-87.6
	c5.42,27.54,10.85,55.08,16.27,82.62c1.89,9.6,6.55,21.59,16.34,21.35c8.99-0.22,13.49-10.74,15.8-19.43
	c8.4-31.53,16.79-63.05,25.19-94.58c6.12,35.96,17.86,70.96,34.64,103.35c3.18-33.54,6.36-67.09,9.55-100.63
	c12.68,35.04,25.35,70.09,38.03,105.13c15.81-44.98,31.62-89.97,47.43-134.95c11.67,28.29,23.33,56.59,35,84.88
	c1.62,3.92,3.35,8.01,6.63,10.71c8.53,7.01,22.38-0.06,26.51-10.29c4.13-10.24,1.84-21.76,0.41-32.71
	c-1.43-10.94-1.54-23.27,5.73-31.57c8.23-9.41,23.36-9.86,34.63-4.44c11.27,5.42,19.59,15.36,27.54,25.01
	c0.91-25.54,1.82-51.08,2.73-76.62c1.65,19.69,11.01,38.63,25.63,51.91c4.78-25.51,9.56-51.02,14.34-76.54
	c11.92,16.93,23.85,33.86,35.77,50.79c3.16-7.75,6.32-15.49,9.49-23.24c9.42,8.71,18.84,17.42,28.26,26.13"/>
<path fill="none" stroke="#ED1C24" stroke-width="7" stroke-linecap="round" stroke-linejoin="round" stroke-miterlimit="10" d="
	M320.86,123.61c-9.79,20.37-22.24,41.01-32.03,61.38c27.84-0.63,55.68-1.26,83.53-1.89c-14.89-18.97-34.74-44.97-49.63-63.94"/>
<path fill="none" stroke="#000000" stroke-width="7" stroke-linecap="round" stroke-linejoin="round" stroke-miterlimit="10" d="
	M76.17,162.19c168.16-34.35,336.32-68.7,504.49-103.05"/>
<text transform="matrix(1 0 0 1 14.9266 135.8791)" font-family="'PermanentMarker'" font-size="30.74px">listening</text>
<text transform="matrix(1 0 0 1 523.3809 37.4449)"><tspan x="0" y="0" font-family="'PermanentMarker'" font-size="30.74px" letter-spacing="-1">t</tspan><tspan x="13.21" y="0" font-family="'PermanentMarker'" font-size="30.74px">alking</tspan></text>
</svg>
