<?xml version="1.0" encoding="utf-8"?>
<!-- Generator: Adobe Illustrator 19.2.0, SVG Export Plug-In . SVG Version: 6.00 Build 0)  -->
<svg version="1.1" id="Layer_1" xmlns="http://www.w3.org/2000/svg" xmlns:xlink="http://www.w3.org/1999/xlink" x="0px" y="0px"
	 width="638.2px" height="343.9px" viewBox="0 0 638.2 343.9" enable-background="new 0 0 638.2 343.9" xml:space="preserve">
<path fill="none" stroke="#FFFFFF" stroke-width="120" stroke-linejoin="bevel" stroke-miterlimit="10" d="M23.1,10.8
	c-2.9,16.8-5.8,33.6-8.7,50.3c29.2-22.8,58.4-45.7,87.5-68.5C85.6,19.9,69.3,47.1,53,74.4C71.5,58.6,90,42.8,108.5,26.9
	C95.9,46.2,83.3,65.5,70.8,84.8c-8.7,13.3-17.5,27.1-20.1,42.8c-2.6,15.7,2.8,33.8,16.8,41.3c-7,10.7-13.9,21.4-20.9,32.1
	c6.5,1.3,13,2.5,19.4,3.8c-2.3,12.6-4.6,25.1-6.8,37.7c10,1.5,13,15.5,8.5,24.6s-13.3,15.1-19.5,23.1s-9.3,20.6-1.9,27.6
	c4.6-14.9,9.3-29.8,13.9-44.8c0.5-1.7,1-3.3,1.5-5c7.8-25.2,15.8-50.9,15-77.3c5.1,18.2,10.2,36.4,15.3,54.6
	c5.3,18.7,13.1,40.2,31.7,46c17.4,5.4,38-9.7,38-27.9c0-18.3-20.5-33.4-37.9-28c-11.2,21.9,3,52.6,27,58.2
	c4.1-26.6,8.3-53.1,12.4-79.7c6.9,26.1,13.7,52.2,20.6,78.3c2.1-29.9,4.2-59.7,6.3-89.6c6.2,26.4,12.5,52.7,18.7,79.1
	c5.5-24.7,11-49.4,16.6-74.1c2.6,17.4,5.2,34.8,7.8,52.2c1.5,9.8,3.1,19.9,8.7,28.1c5.6,8.2,16.5,13.6,25.6,9.8
	c1.7-34.5,3.4-69.1,5.1-103.6c13.2,6.3,17.8,22.7,19.3,37.2c1.5,14.5,1.8,30.3,10.8,41.8c12.6,16,36.2,16.6,56.6,15.7
	c18-0.8,36-1.5,54.1-2.3c15.6-0.7,35.8,1.8,39.7,16.9c3.4,13-10,25.5-23.3,26.3c-13.4,0.7-25.8-6.6-36.8-14.3
	c23-17.4,45.9-34.8,68.9-52.2c-13.7-17.8-36.1-29.9-58.4-26.8c-22.2,3-41.9,24-39.3,46.3c-8.5-12.2-6.1-28.5-5.8-43.3
	c0.3-14.8-4.1-32.7-18.2-37.2c-15.8-5.1-30.2,9.9-40.1,23.2c3.9-32.1,7.8-64.1,11.7-96.2c3.6-29.7,6.6-62.2-9.6-87.4
	c-5-7.8-12-16.1-9.6-25c1.9-6.9,9.4-11.1,16.5-11.6s14.2,2,20.9,4.5c-4.3,20-8.5,40-12.8,60c26.3-19.8,52.7-39.6,79-59.4
	c-11,41.2-37.9,78-73.8,101c11.5,2.2,23.1,4.5,34.6,6.7c-13.3,12.6-27.4,26.9-28.7,45.2c-1.1,16.1,8.2,30.9,17.1,44.3
	c11.1,16.8,22.2,33.6,33.4,50.3c11.8-46.5,23.6-93.1,35.3-139.6c3.7,20.1,7.5,40.2,11.2,60.2c1.4,7.5,3.7,16.1,10.7,18.9
	c8.8,3.5,18.2-5.4,20.3-14.7c2.1-9.3-0.3-18.9,0.6-28.4s6.9-20,16.4-20.1c7.9-0.1,14.1,7.1,17,14.5c2.9,7.4,3.8,15.6,7.6,22.5
	c3.9,6.9,12.4,12.4,19.6,9.2c-2-10.1-4-20.9-0.5-30.6c3.4-9.8,14.3-17.7,24-14.1c16.2,6.1,14.8,36.1,32,38
	c11.6,1.3,18.7-12.2,22-23.4c3.3-11.2,9.4-24.9,21.1-24.8c0.9,17.3,1.9,34.6,2.8,52"/>
<g id="Arrow_right">
</g>
<g>
	
		<line fill="none" stroke="#000000" stroke-width="7" stroke-linecap="round" stroke-linejoin="round" stroke-miterlimit="10" x1="60.1" y1="49.7" x2="60.1" y2="303.4"/>
	
		<line fill="none" stroke="#000000" stroke-width="7" stroke-linecap="round" stroke-linejoin="round" stroke-miterlimit="10" x1="37.6" y1="280.9" x2="445" y2="280.9"/>
	<g>
		
			<polyline fill="none" stroke="#000000" stroke-width="7" stroke-linecap="round" stroke-linejoin="round" stroke-miterlimit="10" points="
			37.6,71.8 60.1,49.8 82.6,71.8 		"/>
	</g>
	<g>
		
			<polyline fill="none" stroke="#000000" stroke-width="7" stroke-linecap="round" stroke-linejoin="round" stroke-miterlimit="10" points="
			423,258.4 445,280.9 423,303.4 		"/>
	</g>
</g>
<text transform="matrix(1 0 0 1 401.1531 330.3776)" font-family="'PermanentMarker'" font-size="30.74px">time</text>
<text transform="matrix(1 0 0 1 12.7353 38.4837)" font-family="'PermanentMarker'" font-size="30.74px">effort</text>
<path fill="none" stroke="#F4BB3A" stroke-width="7" stroke-linecap="round" stroke-linejoin="round" stroke-miterlimit="10" d="
	M70.8,238.7c11.9-4.8,18.6-33.5,35.9-21.7c10.8,7.3,6.4,32.8,27.1,24.3c13-5.4,16.9-34.7,36-25.8c11.5,5.3,7.3,29.1,25.8,23.2
	c12.1-3.9,17.2-32.5,34.1-22c11.7,7.3,6.5,21.8,24.8,20.8c16.2-1,29.1-6,41.2-17.2c10.6-9.9,20.7-31.5,37.2-29.6
	c20.9,2.4,9.2,21.1,14.6,33.7c7.3,17.2,40.8,13.4,55.1,12.2"/>
<g>
	<path fill="none" stroke="#000000" stroke-width="7" stroke-linecap="round" stroke-linejoin="round" stroke-miterlimit="10" d="
		M345,48c0,4.8,0,9.7,0,14.5"/>
	<path fill="none" stroke="#000000" stroke-width="7" stroke-linecap="round" stroke-linejoin="round" stroke-miterlimit="10" d="
		M345.1,75.6c0,5.8,0,11.6,0,17.4"/>
	<path fill="none" stroke="#000000" stroke-width="7" stroke-linecap="round" stroke-linejoin="round" stroke-miterlimit="10" d="
		M345.1,106.3c0,4.9,0,9.7,0,14.6"/>
	<path fill="none" stroke="#000000" stroke-width="7" stroke-linecap="round" stroke-linejoin="round" stroke-miterlimit="10" d="
		M345.2,133.5c0,5.6,0,11.1,0,16.7"/>
	<path fill="none" stroke="#000000" stroke-width="7" stroke-linecap="round" stroke-linejoin="round" stroke-miterlimit="10" d="
		M345.2,163.4c0,5.8,0,11.5,0,17.3"/>
	<path fill="none" stroke="#000000" stroke-width="7" stroke-linecap="round" stroke-linejoin="round" stroke-miterlimit="10" d="
		M345.2,193.8c0,5.1,0,10.2,0,15.2"/>
	<path fill="none" stroke="#000000" stroke-width="7" stroke-linecap="round" stroke-linejoin="round" stroke-miterlimit="10" d="
		M345.2,222.1c0,5.3,0,10.6,0,16"/>
	<path fill="none" stroke="#000000" stroke-width="7" stroke-linecap="round" stroke-linejoin="round" stroke-miterlimit="10" d="
		M345.2,250.5c0,3.9,0,7.9,0,11.8"/>
	<path fill="none" stroke="#000000" stroke-width="7" stroke-linecap="round" stroke-linejoin="round" stroke-miterlimit="10" d="
		M345.1,275.5c0,4.4,0,8.8-0.1,13.2"/>
</g>
<text transform="matrix(1 0 0 1 283.1654 38.4837)" font-family="'PermanentMarker'" font-size="30.74px">deadline</text>
<text transform="matrix(1 0 0 1 399.238 173.2981)" fill="#F4BB3A" font-family="'PermanentMarker'" font-size="30.74px">normal person</text>
<path fill="none" stroke="#72AA8B" stroke-width="7" stroke-linecap="round" stroke-linejoin="round" stroke-miterlimit="10" d="
	M71.5,254.3c42.7-0.3,85.4-0.5,128.1-0.8c23.4-0.1,48.1-0.6,68.3-12.4c18.9-11.1,31.4-31,38-51.9s8-43.1,9.3-64.9
	c1.4-23.4,2.8-46.7,4.3-70.1"/>
<g>
	<text transform="matrix(1 0 0 1 399.2381 142.8347)" fill="#72AA8B" font-family="'PermanentMarker'" font-size="30.74px">procrastinator</text>
</g>
<path fill="none" stroke="#A583A2" stroke-width="7" stroke-linecap="round" stroke-linejoin="round" stroke-miterlimit="10" d="
	M71.5,269.8c62.1,1.4,124.3,0.7,186.4-2c12.9-0.6,25.9-1.3,38.4-4.5c12.5-3.2,24.6-9.2,33.1-19c5.4-6.1,11.3-14.5,19.3-13
	c6.9,1.4,9.9,9.4,13.1,15.6c9.3,17.8,31.3,27.8,50.8,23.2"/>
<g>
	<text transform="matrix(1 0 0 1 399.238 203.1898)" fill="#A583A2" font-family="'PermanentMarker'" font-size="30.74px">me</text>
</g>
<g id="Arrow_up">
</g>
</svg>
