<?xml version="1.0" encoding="utf-8"?>
<!-- Generator: Adobe Illustrator 19.2.0, SVG Export Plug-In . SVG Version: 6.00 Build 0)  -->
<svg version="1.1" id="Layer_1" xmlns="http://www.w3.org/2000/svg" xmlns:xlink="http://www.w3.org/1999/xlink" x="0px" y="0px"
	 width="474.7px" height="324.5px" viewBox="0 0 474.7 324.5" enable-background="new 0 0 474.7 324.5" xml:space="preserve">
<path fill="none" stroke="#FFFFFF" stroke-width="120" stroke-linejoin="bevel" stroke-miterlimit="10" d="M150.8,26.4
	c-35.3,0.4-70.6,0.8-105.8,1.2c-12,0.1-24.9,0.5-34.8,7.4S-4.1,57.8,4.8,66c27.2-1.6,54.3-3.3,81.5-4.9
	c-13.6,23.9-27.2,47.8-40.8,71.6c2.7,0,5.4,0,8.2,0.1c-4,40.3-13,80-26.9,118c7.9,20,15.9,40,23.8,60.1c6.9-34.5,13.9-69,20.8-103.4
	c5.8,26.8,11.6,53.7,17.4,80.5c1.7,7.7,3.4,15.6,8,22.1c4.6,6.4,12.8,10.9,20.4,8.8c10.3-2.9,14-15.2,16.1-25.7
	c5.1-25.9,10.3-51.7,15.4-77.6c7.6,24.6,15.2,49.1,22.9,73.7c1.4,4.5,2.9,9.2,6.3,12.5c8.6,8.3,24.2,2,29.3-8.8s2.9-23.5,0.6-35.2
	c-0.8,13.9-1.4,28.7,5.8,40.6c7.3,11.8,25.6,17.7,35.2,7.7c3.3-3.4,5-8,6.6-12.5c5.9-16.3,11.8-32.6,17.7-48.8
	c6.6,13.4,13.3,26.9,19.9,40.3c15.2-17.9,5.7-48-14.2-60.5c-19.9-12.5-45.5-11.3-68.3-5.6s-44.6,15.5-67.8,19
	c-11.3,1.7-25.2,0.6-30.6-9.5c-6.3-11.7,4.1-25.7,15.4-32.8c17.9-11.2,39.3-15.1,59-22.7s39.5-20.8,45-41.2
	c-2.2,17.6-2.7,39.2,12.4,48.5c9.9,6.1,23.2,3.9,33-2.4c9.8-6.3,16.8-16,23.6-25.4c-1.2,11.6-2.3,23.9,3.2,34.2s20.4,16.2,29.1,8.5
	c7.3-6.4,8.6-20,18.2-21.5c7.7-1.2,13.4,7,20.8,9.5c10,3.3,19.9-4.3,28.4-10.6c8.5-6.2,21.2-11.3,28.7-3.9
	c7.5,7.3,2.1,21.3-7.4,25.8c-9.5,4.5-20.6,2.5-30.9,0.4c-59.9-12.2-122.5-25.7-169.1-65.3c-7.9-6.7-15.5-14.8-17.1-24.9
	c-1.6-10.4,3.6-20.9,11.1-28.2c7.5-7.3,17.1-12.1,26.5-16.7c9.3,18.3,18.7,36.7,28,55c7.6-13.8,15.9-28.4,30-35.4
	c14.1-7,35.3-1.6,38.5,13.8c13-14.6,26-29.2,39-43.8c7.3-8.2,17.4-17.2,27.8-13.8c14.9,4.9,13.5,29.3,27.4,36.5
	c7.5,3.8,16.4,1.1,24.3-1.6c28.7-9.9,57.4-19.8,86.1-29.7"/>
<g id="Arrow_right">
</g>
<g>
	
		<line fill="none" stroke="#000000" stroke-width="7" stroke-linecap="round" stroke-linejoin="round" stroke-miterlimit="10" x1="48.3" y1="52.8" x2="48.3" y2="272.5"/>
	
		<line fill="none" stroke="#000000" stroke-width="7" stroke-linecap="round" stroke-linejoin="round" stroke-miterlimit="10" x1="25.8" y1="250" x2="294.1" y2="250"/>
	<g>
		
			<polyline fill="none" stroke="#000000" stroke-width="7" stroke-linecap="round" stroke-linejoin="round" stroke-miterlimit="10" points="
			25.8,74.8 48.3,52.8 70.8,74.8 		"/>
	</g>
	<g>
		
			<polyline fill="none" stroke="#000000" stroke-width="7" stroke-linecap="round" stroke-linejoin="round" stroke-miterlimit="10" points="
			272.1,227.5 294.1,250 272.1,272.5 		"/>
	</g>
</g>
<text transform="matrix(1 0 0 1 43.2432 306.3324)" font-family="'PermanentMarker'" font-size="30.74px">acting abilities</text>
<text transform="matrix(1 0 0 1 21.8385 37.1065)" font-family="'PermanentMarker'" font-size="30.74px">success</text>
<path fill="none" stroke="#F09B36" stroke-width="7" stroke-linecap="round" stroke-linejoin="round" stroke-miterlimit="10" d="
	M60.9,238.5c46.1-3.3,90.9-22.1,125.7-52.5s59.2-72.5,68.5-117.7"/>
<g>
	<path fill="none" stroke="#000000" stroke-width="7" stroke-linecap="round" stroke-linejoin="round" stroke-miterlimit="10" d="
		M212.5,148c2.6,4.2,5.2,8.3,7.8,12.5"/>
	<path fill="none" stroke="#000000" stroke-width="7" stroke-linecap="round" stroke-linejoin="round" stroke-miterlimit="10" d="
		M224.7,150.6c-5.2,2.2-10.3,4.4-15.5,6.6"/>
	<path fill="none" stroke="#000000" stroke-width="7" stroke-linecap="round" stroke-linejoin="round" stroke-miterlimit="10" d="
		M235.4,157.4c2.3-2.8,6.7-3,10-1.4c3.2,1.6,5.5,4.7,7.2,7.9c1.7,3.2,3.1,6.6,5.2,9.6c5.3,7.6,15.4,11.3,24.4,9.1"/>
	<text transform="matrix(1 0 0 1 293.1088 190.5859)" font-family="'PermanentMarker'" font-size="30.74px">hollywood</text>
</g>
<g>
	<path fill="none" stroke="#000000" stroke-width="7" stroke-linecap="round" stroke-linejoin="round" stroke-miterlimit="10" d="
		M248.6,76c3.2,2.9,6.4,5.9,9.6,8.8"/>
	<path fill="none" stroke="#000000" stroke-width="7" stroke-linecap="round" stroke-linejoin="round" stroke-miterlimit="10" d="
		M259.1,75.4c-4.5,2.7-8.6,6-12.1,9.8"/>
	<path fill="none" stroke="#000000" stroke-width="7" stroke-linecap="round" stroke-linejoin="round" stroke-miterlimit="10" d="
		M260.7,95.5c0.7,2.2,1.6,4.5,3.1,6.3c1.5,1.8,3.7,3.2,6,3.2c3.4,0,6.2-2.9,7.6-6c1.4-3.1,1.8-6.6,3.1-9.7
		c3.4-8.6,13.2-14.2,22.4-12.7"/>
	<text transform="matrix(1 0 0 1 313.3138 85.2595)" font-family="'PermanentMarker'" font-size="30.74px">world cup</text>
</g>
<g id="Arrow_up">
</g>
</svg>
