<?xml version="1.0" encoding="utf-8"?>
<!-- Generator: Adobe Illustrator 19.2.0, SVG Export Plug-In . SVG Version: 6.00 Build 0)  -->
<svg version="1.1" id="Layer_1" xmlns="http://www.w3.org/2000/svg" xmlns:xlink="http://www.w3.org/1999/xlink" x="0px" y="0px"
	 width="827.25px" height="598.57px" viewBox="0 0 827.25 598.57" enable-background="new 0 0 827.25 598.57" xml:space="preserve">
<path fill="none" stroke="#FFFFFF" stroke-width="120" stroke-linejoin="bevel" stroke-miterlimit="10" d="M32.12-1.99
	c-15.95,23.47-31.9,46.94-47.84,70.4C26.2,53.12,64.9,29.07,97.17-1.76C67.43,41.01,37.7,83.77,7.96,126.53
	C53.08,84.51,98.19,42.5,143.31,0.48C95.14,67.59,46.96,134.69-1.22,201.79c46.88-44.13,93.76-88.27,140.63-132.4
	c-25.55,48.02-51.11,96.04-76.66,144.07c32.96-35.92,65.92-71.85,98.87-107.77c-15.54,40.01-31.09,80.03-46.63,120.04
	c25.6-36.36,51.2-72.72,76.79-109.08c-19.44,51.58-38.88,103.16-58.32,154.75c40.37-90.49,80.74-180.98,121.11-271.46
	c-31.67,1.92-60.35,27.55-65.8,58.81C249.61,30.59,305.83-7.51,354.5-53.59c-41.28,52.75-82.55,105.5-123.83,158.26
	c33.14-39.53,66.28-79.05,99.42-118.58c-36.31,54.9-72.63,109.81-108.94,164.71C279.42,96.38,337.7,41.97,395.98-12.44
	c-36.37,62.7-72.74,125.41-109.11,188.11c39.91-57.35,79.82-114.69,119.72-172.04c-82.13,75.63-154.97,161.32-216.4,254.55
	c54.38-44.01,108.75-88.02,163.13-132.03c-13.76,20.1-27.52,40.2-41.29,60.3c23.25-13.41,46.5-26.82,69.76-40.22
	c-6.12,21.75-12.24,43.5-18.36,65.25c16.94-83.82,56.51-162.96,113.4-226.82c-8.92,25.51-17.83,51.02-26.75,76.53
	C481.92,26.09,513.77-9,545.61-44.09c-33.34,51.5-66.68,103-100.02,154.5C494.64,70.4,543.68,30.38,592.72-9.64
	c-45.15,50.62-90.3,101.25-135.44,151.87c10.32-14.41,20.64-28.81,30.95-43.22c-17.98,37.64-35.96,75.27-53.94,112.91
	c62.36-36.63,118.83-83.28,166.57-137.61c-29.94,43.89-59.88,87.79-89.82,131.68c24.6-32.22,49.2-64.45,73.8-96.67
	c-7.76,33.44-15.51,66.88-23.27,100.32c31.41-9.78,57.63-34.92,68.73-65.89c-15.69,25.51-31.39,51.01-47.08,76.52
	c8.15-46.07,16.57-92.96,38.21-134.44C643.07,44.36,680.43,8.4,726.52,0.4c-23.96,31.22-47.92,62.43-71.88,93.65
	c34.65-36.43,69.3-72.87,103.95-109.3c-34.48,54.33-68.95,108.66-103.43,163c39.87-47.6,79.74-95.21,119.61-142.81
	c-40.71,59.29-81.42,118.59-122.13,177.88c39.98-42.98,79.96-85.95,119.95-128.93c-27.46,49.32-54.92,98.65-82.38,147.97
	c46.44-40.08,82.67-91.89,104.38-149.26c-26.64,60.87-53.28,121.74-79.92,182.61c26.11-25.73,52.22-51.46,78.33-77.19
	c-4.65,15.83-9.3,31.66-13.95,47.49c12.53-25.19,25.06-50.38,37.59-75.57c17.06,31.53-8.33,72.59-41.97,84.99
	c-33.64,12.4-71,4.53-105.78-4.14c-52.8-13.17-105.49-27.98-159.63-33.47c-54.14-5.49-110.6-1.12-159.6,22.55
	s-89.49,68.8-98.3,122.51c26.95-22.23,53.9-44.47,80.85-66.7c-20.55,34.53-41.1,69.07-61.66,103.6
	c36.39-34.61,72.79-69.22,109.18-103.82c-38.85,52.12-77.71,104.25-116.56,156.37c35.14-21.93,70.28-43.86,105.43-65.79
	c-33.75,40.72-67.5,81.44-101.24,122.16c42.13-32.04,84.26-64.09,126.39-96.13c-38.79,46.02-77.57,92.04-116.36,138.05
	c47.15-39.45,94.31-78.91,141.46-118.36c-51.21,57.93-102.42,115.86-153.63,173.79c56.44-48.99,112.89-97.98,169.33-146.97
	c-30.97,61.31-61.93,122.63-92.9,183.94c47.02-60.68,94.04-121.36,141.06-182.04c-31.22,73.91-62.44,147.81-93.65,221.72
	c39.82-53.8,79.64-107.6,119.47-161.4c-21.34,48.96-42.68,97.92-64.02,146.87c38.54-60.93,77.09-121.86,115.63-182.79
	c-17.57,42.54-35.14,85.08-52.71,127.62c28.97-32.26,57.95-64.53,86.92-96.79c-20.13,49.68-40.26,99.36-60.39,149.05
	c27.19-43.61,54.37-87.22,81.56-130.83"/>
<g>
	
		<line fill="none" stroke="#000000" stroke-width="7" stroke-linecap="round" stroke-linejoin="round" stroke-miterlimit="10" x1="39.67" y1="38.34" x2="39.67" y2="168.8"/>
	
		<line fill="none" stroke="#000000" stroke-width="7" stroke-linecap="round" stroke-linejoin="round" stroke-miterlimit="10" x1="17.52" y1="146.3" x2="174" y2="146.3"/>
	
		<polyline fill="none" stroke="#000000" stroke-width="7" stroke-linecap="round" stroke-linejoin="round" stroke-miterlimit="10" points="
		17.52,60.34 40.02,38.34 62.52,60.34 	"/>
	
		<polyline fill="none" stroke="#000000" stroke-width="7" stroke-linecap="round" stroke-linejoin="round" stroke-miterlimit="10" points="
		152.44,123.8 174.44,146.3 152.44,168.8 	"/>
	<text transform="matrix(1 0 0 1 18.7907 198.415)"><tspan x="0" y="0" fill="#A967AA" font-family="'PermanentMarker'" font-size="30.74px">s</tspan><tspan x="13.66" y="0" fill="#A967AA" font-family="'PermanentMarker'" font-size="30.74px">omething</tspan><tspan x="17.86" y="30" fill="#A967AA" font-family="'PermanentMarker'" font-size="30.74px">i can do</tspan></text>
	<text transform="matrix(1 0 0 1 12.443 27.8158)"><tspan x="0" y="0" fill="#6DC065" font-family="'PermanentMarker'" font-size="30.74px">do</tspan><tspan x="34.61" y="0" fill="#6DC065" font-family="'PermanentMarker'" font-size="30.74px">a</tspan><tspan x="51.87" y="0" fill="#6DC065" font-family="'PermanentMarker'" font-size="30.74px">bility</tspan></text>
	<path fill="none" stroke="#6DC065" stroke-width="7" stroke-linecap="round" stroke-linejoin="round" stroke-miterlimit="10" d="
		M50.41,134.76c32.92-24.35,63.4-51.98,90.87-82.35"/>
</g>
<g>
	
		<line fill="none" stroke="#000000" stroke-width="7" stroke-linecap="round" stroke-linejoin="round" stroke-miterlimit="10" x1="252.92" y1="39.43" x2="252.92" y2="169.89"/>
	
		<line fill="none" stroke="#000000" stroke-width="7" stroke-linecap="round" stroke-linejoin="round" stroke-miterlimit="10" x1="230.76" y1="147.39" x2="387.24" y2="147.39"/>
	
		<polyline fill="none" stroke="#000000" stroke-width="7" stroke-linecap="round" stroke-linejoin="round" stroke-miterlimit="10" points="
		230.76,61.43 253.26,39.43 275.76,61.43 	"/>
	
		<polyline fill="none" stroke="#000000" stroke-width="7" stroke-linecap="round" stroke-linejoin="round" stroke-miterlimit="10" points="
		365.68,124.89 387.68,147.39 365.68,169.89 	"/>
	<text transform="matrix(1 0 0 1 242.6893 199.5005)"><tspan x="0" y="0" fill="#6DC065" font-family="'PermanentMarker'" font-size="30.74px">do</tspan><tspan x="34.61" y="0" fill="#6DC065" font-family="'PermanentMarker'" font-size="30.74px">a</tspan><tspan x="51.87" y="0" fill="#6DC065" font-family="'PermanentMarker'" font-size="30.74px">bility</tspan></text>
	<text transform="matrix(1 0 0 1 200.7525 28.9013)"><tspan x="0" y="0" fill="#00A9A3" font-family="'PermanentMarker'" font-size="30.74px">done </tspan><tspan x="79.37" y="0" fill="#00A9A3" font-family="'PermanentMarker'" font-size="30.74px" letter-spacing="-1">b</tspan><tspan x="95.76" y="0" fill="#00A9A3" font-family="'PermanentMarker'" font-size="30.74px">y </tspan><tspan x="119.45" y="0" fill="#00A9A3" font-family="'PermanentMarker'" font-size="30.74px" letter-spacing="-1">o</tspan><tspan x="137.25" y="0" fill="#00A9A3" font-family="'PermanentMarker'" font-size="30.74px">th</tspan><tspan x="169.88" y="0" fill="#00A9A3" font-family="'PermanentMarker'" font-size="30.74px">e</tspan><tspan x="185.61" y="0" fill="#00A9A3" font-family="'PermanentMarker'" font-size="30.74px">rs</tspan></text>
	<path fill="none" stroke="#00A9A3" stroke-width="7" stroke-linecap="round" stroke-linejoin="round" stroke-miterlimit="10" d="
		M265.35,134.03c35.06-25.94,70.11-51.87,105.17-77.81"/>
</g>
<g>
	
		<line fill="none" stroke="#000000" stroke-width="7" stroke-linecap="round" stroke-linejoin="round" stroke-miterlimit="10" x1="467.64" y1="39.43" x2="467.64" y2="169.89"/>
	
		<line fill="none" stroke="#000000" stroke-width="7" stroke-linecap="round" stroke-linejoin="round" stroke-miterlimit="10" x1="445.49" y1="147.39" x2="601.97" y2="147.39"/>
	
		<polyline fill="none" stroke="#000000" stroke-width="7" stroke-linecap="round" stroke-linejoin="round" stroke-miterlimit="10" points="
		445.49,61.43 467.99,39.43 490.49,61.43 	"/>
	
		<polyline fill="none" stroke="#000000" stroke-width="7" stroke-linecap="round" stroke-linejoin="round" stroke-miterlimit="10" points="
		580.41,124.89 602.41,147.39 580.41,169.89 	"/>
	<text transform="matrix(1 0 0 1 415.4801 199.5005)"><tspan x="0" y="0" fill="#00A9A3" font-family="'PermanentMarker'" font-size="30.74px">done </tspan><tspan x="79.37" y="0" fill="#00A9A3" font-family="'PermanentMarker'" font-size="30.74px" letter-spacing="-1">b</tspan><tspan x="95.76" y="0" fill="#00A9A3" font-family="'PermanentMarker'" font-size="30.74px">y </tspan><tspan x="119.45" y="0" fill="#00A9A3" font-family="'PermanentMarker'" font-size="30.74px" letter-spacing="-1">o</tspan><tspan x="137.25" y="0" fill="#00A9A3" font-family="'PermanentMarker'" font-size="30.74px">th</tspan><tspan x="169.88" y="0" fill="#00A9A3" font-family="'PermanentMarker'" font-size="30.74px">e</tspan><tspan x="185.61" y="0" fill="#00A9A3" font-family="'PermanentMarker'" font-size="30.74px">rs</tspan></text>
	<text transform="matrix(1 0 0 1 445.4914 28.9013)"><tspan x="0" y="0" fill="#FBC9C3" font-family="'PermanentMarker'" font-size="30.74px">uni</tspan><tspan x="45.18" y="0" fill="#FBC9C3" font-family="'PermanentMarker'" font-size="30.74px">q</tspan><tspan x="64.09" y="0" fill="#FBC9C3" font-family="'PermanentMarker'" font-size="30.74px">ueness</tspan></text>
	<path fill="none" stroke="#FBC9C3" stroke-width="7" stroke-linecap="round" stroke-linejoin="round" stroke-miterlimit="10" d="
		M480.74,73.05c28.58,17.99,55.71,38.29,81.04,60.62"/>
</g>
<g>
	
		<line fill="none" stroke="#000000" stroke-width="7" stroke-linecap="round" stroke-linejoin="round" stroke-miterlimit="10" x1="682.37" y1="39.43" x2="682.37" y2="169.89"/>
	
		<line fill="none" stroke="#000000" stroke-width="7" stroke-linecap="round" stroke-linejoin="round" stroke-miterlimit="10" x1="660.22" y1="147.39" x2="816.7" y2="147.39"/>
	
		<polyline fill="none" stroke="#000000" stroke-width="7" stroke-linecap="round" stroke-linejoin="round" stroke-miterlimit="10" points="
		660.22,61.43 682.72,39.43 705.22,61.43 	"/>
	
		<polyline fill="none" stroke="#000000" stroke-width="7" stroke-linecap="round" stroke-linejoin="round" stroke-miterlimit="10" points="
		795.14,124.89 817.14,147.39 795.14,169.89 	"/>
	<text transform="matrix(1 0 0 1 658.4556 199.5005)"><tspan x="0" y="0" fill="#FBC9C3" font-family="'PermanentMarker'" font-size="30.74px">uni</tspan><tspan x="45.18" y="0" fill="#FBC9C3" font-family="'PermanentMarker'" font-size="30.74px">q</tspan><tspan x="64.09" y="0" fill="#FBC9C3" font-family="'PermanentMarker'" font-size="30.74px">ueness</tspan></text>
	<text transform="matrix(1 0 0 1 654.2189 28.9013)"><tspan x="0" y="0" fill="#F4783B" font-family="'PermanentMarker'" font-size="30.74px">wo</tspan><tspan x="44.7" y="0" fill="#F4783B" font-family="'PermanentMarker'" font-size="30.74px">r</tspan><tspan x="60.4" y="0" fill="#F4783B" font-family="'PermanentMarker'" font-size="30.74px">th</tspan></text>
	<path fill="none" stroke="#F4783B" stroke-width="7" stroke-linecap="round" stroke-linejoin="round" stroke-miterlimit="10" d="
		M697.36,135.39c38.91-13.89,70.84-46.06,84.44-85.07"/>
</g>
<g>
	
		<line fill="none" stroke="#000000" stroke-width="7" stroke-linecap="round" stroke-linejoin="round" stroke-miterlimit="10" x1="307.79" y1="283.16" x2="307.79" y2="542.34"/>
	
		<line fill="none" stroke="#000000" stroke-width="7" stroke-linecap="round" stroke-linejoin="round" stroke-miterlimit="10" x1="285.29" y1="519.84" x2="580.41" y2="519.84"/>
	
		<polyline fill="none" stroke="#000000" stroke-width="7" stroke-linecap="round" stroke-linejoin="round" stroke-miterlimit="10" points="
		285.29,305.16 307.79,283.16 330.29,305.16 	"/>
	
		<polyline fill="none" stroke="#000000" stroke-width="7" stroke-linecap="round" stroke-linejoin="round" stroke-miterlimit="10" points="
		558.41,497.34 580.41,519.84 558.41,542.34 	"/>
	<text transform="matrix(1 0 0 1 355.8808 562.2598)"><tspan x="0" y="0" fill="#A967AA" font-family="'PermanentMarker'" font-size="30.74px">s</tspan><tspan x="13.66" y="0" fill="#A967AA" font-family="'PermanentMarker'" font-size="30.74px">omething</tspan><tspan x="17.86" y="30" fill="#A967AA" font-family="'PermanentMarker'" font-size="30.74px">i can do</tspan></text>
	<text transform="matrix(1 0 0 1 278.5377 272.9155)"><tspan x="0" y="0" fill="#F4783B" font-family="'PermanentMarker'" font-size="30.74px">wo</tspan><tspan x="44.7" y="0" fill="#F4783B" font-family="'PermanentMarker'" font-size="30.74px">r</tspan><tspan x="60.4" y="0" fill="#F4783B" font-family="'PermanentMarker'" font-size="30.74px">th</tspan></text>
	<path fill="none" stroke="#F4783B" stroke-width="7" stroke-linecap="round" stroke-linejoin="round" stroke-miterlimit="10" d="
		M325.88,323.71c37.92,87.67,117.06,156.44,209.16,181.76"/>
</g>
</svg>
