<?xml version="1.0" encoding="utf-8"?>
<!-- Generator: Adobe Illustrator 19.2.0, SVG Export Plug-In . SVG Version: 6.00 Build 0)  -->
<svg version="1.1" id="Layer_1" xmlns="http://www.w3.org/2000/svg" xmlns:xlink="http://www.w3.org/1999/xlink" x="0px" y="0px"
	 width="850.56px" height="590.98px" viewBox="0 0 850.56 590.98" enable-background="new 0 0 850.56 590.98" xml:space="preserve">
<path fill="none" stroke="#FFFFFF" stroke-width="120" stroke-linejoin="bevel" stroke-miterlimit="10" d="M177.75,30.34
	c-8.08,16.93-16.16,33.85-24.24,50.78c19.54-9.85,39.08-19.7,58.63-29.54c-15.28,33.5-30.55,67-45.83,100.5
	c-4.87,10.69-9.1,24.97-0.32,32.77c5.86,5.2,15.24,4.45,21.93,0.39c6.7-4.07,11.32-10.73,15.75-17.19
	c20.48-29.89,40.95-59.78,61.43-89.66c0.34,24.19,0.67,48.38,1.01,72.58c0.07,5.14,0.3,10.73,3.58,14.68
	c5.99,7.21,18.91,3.72,23.46-4.48c4.55-8.19,2.82-18.45-0.51-27.21c-3.33-8.76-8.17-17.07-9.69-26.32
	c-3.23-19.6,11.49-40.4,31.05-43.87c19.56-3.47,40.53,11,44.23,30.52c10.03-18.93,20.57-38.48,37.63-51.43
	c17.07-12.95,42.63-17.32,59.62-4.27c11.66,8.95,16.83,23.71,24.08,36.49s19.75,25.24,34.32,23.29c26.18-3.51,29-46.3,54.21-54.18
	c17.2-5.38,35.2,10.28,39.23,27.84s-1.77,35.72-7.5,52.81c26.24,8.35,53.98-4,79.82-13.53s57.77-15.37,78.53,2.72
	c21.26,18.53,17.91,55.64-2.46,75.15c-20.37,19.51-52.06,23.2-79.36,16.1c-27.3-7.1-51.17-23.39-73.97-39.99
	s-45.54-34.05-71.92-44.04c-45.01-17.05-98.52-9.49-137.04,19.38s-60.81,78.09-57.09,126.08
	c50.09-54.73,100.18-109.45,150.27-164.18c-22.23,59.33-44.46,118.65-66.69,177.98c48.84-55.66,97.68-111.31,146.52-166.97
	c-6.38,65.74-50.98,120.56-93.64,170.99c37.27-26.36,74.54-52.73,111.81-79.09c2.32,28.91-16.85,56.46-41.92,71.05
	s-55.03,18.24-84.03,18.34c-65.58,0.22-131.15-16.45-188.66-47.97c-21.23-11.63-42.3-25.57-66.38-28.07s-52.13,11.64-54.75,35.71
	c21.23,6.55,42.46,13.1,63.69,19.65c-27.35,37.65-66.18,66.84-109.94,82.67c-21.85,7.9-45.32,12.77-64.36,26.09
	s-32.47,38.82-22.9,60c41.44-27.16,82.88-54.33,124.32-81.49c-12.31,34.28-24.62,68.56-36.93,102.83
	c31.93-42.9,63.87-85.8,95.8-128.7c-41.21,72.26-51.5,161.49-27.8,241.23c18.57-82.35,37.15-164.7,55.72-247.05
	c25.21,15.35,45.73,38.3,58.15,65.07c16.05-20.95,32.11-41.89,48.16-62.84c7.95,26.78,15.91,53.56,23.86,80.34
	c36.84-45.91,73.68-91.81,110.52-137.72c7.34,51.51,14.69,103.02,22.03,154.52c15.7-57.41,49.09-109.85,94.45-148.37
	c10.09,44.81,7.95,92.31-6.13,136.03c43.62-41.78,77.63-93.53,98.67-150.15c5.94,0.43,11.89,0.86,17.83,1.29
	c-16.07,45.5-32.15,91.01-48.22,136.51c-3.67,10.4-6.54,23.94,2.1,30.8c6.94,5.51,17.83,2.59,23.85-3.91
	c6.02-6.5,8.41-15.48,10.59-24.08c15.15-59.63,30.3-119.26,45.44-178.89c1.12,60.18,2.24,120.36,3.36,180.54
	c0.32,17.29,0.18,36.08-10.37,49.78c-13.46,17.48-38.43,20.12-60.48,20.51c-74.68,1.33-149.53-6.56-222.29-23.45
	c-41.35-9.6-84.85-22.06-125.33-9.3c-55.75,17.57-86.55,76.52-105.21,131.92c45.99-49.27,91.97-98.54,137.96-147.82
	c-20.42,54.73-40.84,109.46-61.26,164.19c44.45-30.41,83.91-68.1,116.32-111.11c-10.99,36.41-21.99,72.81-32.98,109.22
	c34.35-41.54,68.7-83.07,103.06-124.61c-16.87,44.7-33.75,89.39-50.62,134.09c34.13-31.71,68.26-63.42,102.38-95.13
	c-8.67,29.1-17.34,58.2-26,87.31c29.99-25.29,59.97-50.57,89.96-75.86c-9.73,24.06-19.46,48.12-29.19,72.18
	c31.71-28.52,63.41-57.04,95.12-85.57c-8.29,12.68-16.82,26.08-17.97,41.18c-1.15,15.1,7.98,32.14,22.99,34.22
	c17.04,2.36,30.24-14.21,38.44-29.34c8.19-15.13,17.92-32.79,34.95-35.18c3.4,27.28,6.79,54.56,10.19,81.83
	c12.16-35.06,24.32-70.12,36.49-105.19c2.34-6.76,5.14-14.08,11.35-17.64c12.9-7.38,28.4,8.19,29.24,23.03
	c0.84,14.84-6.35,28.98-7.6,43.79s8.04,33.08,22.84,31.63c8.91-27.99,5.08-59.77-10.23-84.84"/>
<g>
	
		<line fill="none" stroke="#000000" stroke-width="7" stroke-linecap="round" stroke-linejoin="round" stroke-miterlimit="10" x1="176.46" y1="281.96" x2="176.46" y2="564.66"/>
	
		<polyline fill="none" stroke="#000000" stroke-width="7" stroke-linecap="round" stroke-linejoin="round" stroke-miterlimit="10" points="
		153.96,303.96 176.46,281.96 198.96,303.96 	"/>
</g>
<g>
	
		<line fill="none" stroke="#000000" stroke-width="7" stroke-linecap="round" stroke-linejoin="round" stroke-miterlimit="10" x1="153.96" y1="542.16" x2="828.53" y2="542.16"/>
	
		<polyline fill="none" stroke="#000000" stroke-width="7" stroke-linecap="round" stroke-linejoin="round" stroke-miterlimit="10" points="
		807.88,519.66 829.88,542.16 807.88,564.66 	"/>
</g>
<text transform="matrix(1 0 0 1 38.5905 385.5436)"><tspan x="0" y="0" font-family="'PermanentMarker'" font-size="30.74px">how we</tspan><tspan x="-28.1" y="30" font-family="'PermanentMarker'" font-size="30.74px">s</tspan><tspan x="-14.14" y="30" font-family="'PermanentMarker'" font-size="30.74px">pend </tspan><tspan x="62.02" y="30" font-family="'PermanentMarker'" font-size="30.74px">o</tspan><tspan x="80.75" y="30" font-family="'PermanentMarker'" font-size="30.74px">ur</tspan><tspan x="49.71" y="60" font-family="'PermanentMarker'" font-size="30.74px">time</tspan></text>
<text transform="matrix(1 0 0 1 780.9082 508.4161)" font-family="'PermanentMarker'" font-size="30.74px">age</text>
<g>
	<path fill="none" stroke="#000000" stroke-width="7" stroke-linecap="round" stroke-linejoin="round" stroke-miterlimit="10" d="
		M220.2,534.78c0,4.96,0,9.92,0,14.88"/>
	<text transform="matrix(1 0 0 1 199.6552 582.5751)" font-family="'PermanentMarker'" font-size="30.74px">20</text>
</g>
<g>
	<path fill="none" stroke="#000000" stroke-width="7" stroke-linecap="round" stroke-linejoin="round" stroke-miterlimit="10" d="
		M391.31,534.78c0,4.96,0,9.92,0,14.88"/>
	<text transform="matrix(1 0 0 1 371.8119 582.5751)" font-family="'PermanentMarker'" font-size="30.74px">40</text>
</g>
<g>
	<path fill="none" stroke="#000000" stroke-width="7" stroke-linecap="round" stroke-linejoin="round" stroke-miterlimit="10" d="
		M562.42,534.78c0,4.96,0,9.92,0,14.88"/>
	<text transform="matrix(1 0 0 1 544.1635 582.5751)" font-family="'PermanentMarker'" font-size="30.74px">60</text>
</g>
<g>
	<path fill="none" stroke="#000000" stroke-width="7" stroke-linecap="round" stroke-linejoin="round" stroke-miterlimit="10" d="
		M733.52,533.54c0,5.79,0,11.57,0,17.36"/>
	<text transform="matrix(1 0 0 1 714.7144 582.5751)" font-family="'PermanentMarker'" font-size="30.74px">80</text>
</g>
<path fill="none" stroke="#FFC60B" stroke-width="7" stroke-linecap="round" stroke-linejoin="round" stroke-miterlimit="10" d="
	M210.87,487.67c18.27,10.86,36.68,21.79,57.65,30.14c20.97,8.35,44.89,14.07,69.23,13.54c13.82-0.3,27.35-2.59,40.99-4.09
	c35.63-3.91,72.02-2.44,108.05-0.96c89.48,3.68,178.96,7.36,268.44,11.04"/>
<text transform="matrix(1 0 0 1 433.4792 281.9567)"><tspan x="0" y="0" fill="#FFC60B" font-family="'PermanentMarker'" font-size="30.74px">s</tspan><tspan x="13.96" y="0" fill="#FFC60B" font-family="'PermanentMarker'" font-size="30.74px">po</tspan><tspan x="49.41" y="0" fill="#FFC60B" font-family="'PermanentMarker'" font-size="30.74px">r</tspan><tspan x="65.11" y="0" fill="#FFC60B" font-family="'PermanentMarker'" font-size="30.74px">ts</tspan></text>
<path fill="none" stroke="#ED1C24" stroke-width="7" stroke-linecap="round" stroke-linejoin="round" stroke-miterlimit="10" d="
	M208.37,508.42c30.06-37.75,60.12-75.51,90.18-113.26c7.81-9.8,18.06-20.78,36.73-23.16c17.2-2.19,33.8,3.94,49.04,8.92
	c41.64,13.62,89.11,20.36,135.87,26.93c77.51,10.9,155.02,21.79,232.53,32.69"/>
<text transform="matrix(1 0 0 1 348.1339 249.845)"><tspan x="0" y="0" fill="#ED1C24" font-family="'PermanentMarker'" font-size="30.74px">h</tspan><tspan x="17.89" y="0" fill="#ED1C24" font-family="'PermanentMarker'" font-size="30.74px">o</tspan><tspan x="36.62" y="0" fill="#ED1C24" font-family="'PermanentMarker'" font-size="30.74px">usehold chores</tspan></text>
<path fill="none" stroke="#0083CA" stroke-width="7" stroke-linecap="round" stroke-linejoin="round" stroke-miterlimit="10" d="
	M212.87,475.04c26.78,18.24,67.75,24.24,105.62,21.72c37.87-2.52,73.65-12.5,108.78-22.36c112.9-31.7,227.86-64.24,320.71-117.91"/>
<text transform="matrix(1 0 0 1 428.2799 217.7334)" fill="#0083CA" font-family="'PermanentMarker'" font-size="30.74px">leisure</text>
<path fill="none" stroke="#00A651" stroke-width="7" stroke-linecap="round" stroke-linejoin="round" stroke-miterlimit="10" d="
	M208.91,321.81c34.54,20.47,72.57,41.97,118.42,44.28c35.56,1.79,70.2-8.52,99.83-21.9c29.63-13.38,55.88-29.95,85.75-43.09
	c69.07-30.4,156.82-40.78,237.11-28.05"/>
<text transform="matrix(1 0 0 1 372.5789 185.6217)"><tspan x="0" y="0" fill="#00A651" font-family="'PermanentMarker'" font-size="30.74px">TV &amp; comput</tspan><tspan x="186.81" y="0" fill="#00A651" font-family="'PermanentMarker'" font-size="30.74px">e</tspan><tspan x="202.54" y="0" fill="#00A651" font-family="'PermanentMarker'" font-size="30.74px">r</tspan></text>
<text transform="matrix(1 0 0 1 441.3386 153.5101)" fill="#F7941E" font-family="'PermanentMarker'" font-size="30.74px">work</text>
<path fill="none" stroke="#FFFFFF" stroke-width="120" stroke-linejoin="bevel" stroke-miterlimit="10" d="M137.13,299.28
	c22.13-1.29,44.26-2.58,66.38-3.87"/>
<g>
	
		<line fill="none" stroke="#000000" stroke-width="7" stroke-linecap="round" stroke-linejoin="round" stroke-miterlimit="10" x1="176.46" y1="39.07" x2="176.46" y2="366.65"/>
	
		<polyline fill="none" stroke="#000000" stroke-width="7" stroke-linecap="round" stroke-linejoin="round" stroke-miterlimit="10" points="
		153.96,61.07 176.46,39.07 198.96,61.07 	"/>
</g>
<path fill="none" stroke="#F7941E" stroke-width="7" stroke-linecap="round" stroke-linejoin="round" stroke-miterlimit="10" d="
	M249.94,160.41c7.37-14.21,15.16-28.2,23.33-41.97c11.03-18.57,23.37-37.31,41.64-48.82c18.69-11.77,41.44-14.66,63.38-17.27
	c53.59-6.37,108.85-12.63,160.79,2.02c35.86,10.12,68.18,29.7,100.01,49.06c40.2,24.46,80.41,48.91,120.61,73.37"/>
</svg>
