<?xml version="1.0" encoding="utf-8"?>
<!-- Generator: Adobe Illustrator 18.0.0, SVG Export Plug-In . SVG Version: 6.00 Build 0)  -->
<!DOCTYPE svg PUBLIC "-//W3C//DTD SVG 1.1//EN" "http://www.w3.org/Graphics/SVG/1.1/DTD/svg11.dtd">
<svg version="1.1" id="Layer_1" xmlns="http://www.w3.org/2000/svg" xmlns:xlink="http://www.w3.org/1999/xlink" x="0px" y="0px"
	 viewBox="0 0 495 220.5" enable-background="new 0 0 495 220.5" xml:space="preserve">
<path fill="none" stroke="#FFFFFF" stroke-width="120" stroke-linejoin="bevel" stroke-miterlimit="10" d="M67,4
	C38.5,33.7,22,74.6,21.8,115.8C53.9,77.9,85.9,40,118,2.1C92.9,43.7,67.9,85.4,42.8,127c-11.6,19.3-23.5,42.6-14.3,63.2
	c6.5-11.4,13-22.8,19.5-34.2c15.8-27.7,31.6-55.4,47.5-83.2c-8.9,33.9-17.7,67.8-26.6,101.8c-1.9,7.5-3.3,16.9,2.9,21.5
	c4.8,3.7,12.2,2,16.6-2.1c4.5-4.1,6.8-10,8.9-15.7c14.6-38.7,29.2-77.4,43.8-116.1c-6.7,52.8-13.3,105.6-20,158.3
	c14.9-14.4,26-32.6,32-52.4c6.1-20.4,6.9-42,12.5-62.5c5.6-20.5,17.9-41.1,38-48.1c-9,35.9-13.2,73-12.5,109.9
	c0.2,10.6,3.8,24.4,14.4,24.9c9.3,0.5,14.8-10.1,17.1-19c8.6-33.7,6.5-72.4,28.7-99.2c18.2-21.9,51.5-29.7,77.5-18.2
	c6.6,2.9,13.4,8,13.9,15.2c0.7,11.1-12.8,16.8-23.6,19.3c-17.1,3.9-34.4,8-49.4,17s-27.6,23.8-29.6,41.2c-2,17.4,9.4,36.6,26.6,39.4
	c15.5,2.6,30-7.5,45.3-11.2c27.1-6.6,55.2,7.3,83,5.2c36.4-2.7,66.1-33.1,79.2-67.2c13.1-34.1,12.9-71.7,12.5-108.2
	c-69,15.3-140.5-0.4-211-5.2c-58.5-3.9-117.6-0.2-175.1,11.2"/>
<g>
	<text transform="matrix(1 0 0 1 57.3127 27.2785)" font-family="'PermanentMarker'" font-size="30.74">how much i’m willing to pay</text>
</g>
<line fill="none" stroke="#000000" stroke-width="7" stroke-linecap="round" stroke-linejoin="round" stroke-miterlimit="10" x1="274.7" y1="51.3" x2="274.7" y2="213.3"/>
<text transform="matrix(1 0 0 1 21.8873 100.6571)" font-family="'PermanentMarker'" font-size="30.74">to know things</text>
<path fill="none" stroke="#00AEEF" stroke-width="7" stroke-linecap="round" stroke-linejoin="round" stroke-miterlimit="10" d="
	M278.8,96.7c0.8-6.2,1.6-12.4,2.3-18.6c0.9,5.9,1.8,11.9,2.7,17.8c1.3-5.8,2.6-11.6,3.9-17.3c0.5,6,1.1,12,1.6,18
	c1.9-5.8,3.8-11.5,5.7-17.3c0.6,5.9,1.3,11.8,1.9,17.7c1.2-6.4,2.5-12.9,3.7-19.3c1.4,6.4,2.8,12.7,4.2,19.1
	c1.4-7.4,2.8-14.7,4.2-22.1c0.5,7.5,1,15.1,1.6,22.6c1.7-6.7,3.3-13.3,5-20c0.5,7.1,1,14.2,1.5,21.3c2-7.3,4-14.7,6-22
	c1.6,6.2,3.2,12.5,4.8,18.7c0.8-5.8,1.6-11.5,2.4-17.3c0.4,5.1,0.7,10.2,1.1,15.3c1.6-5.5,3.3-11.1,4.9-16.6
	c1,7.1,2.1,14.2,3.1,21.4c1.1-7.8,2.2-15.5,3.3-23.3c1,7.9,1.9,15.7,2.9,23.6c1.2-7.2,2.4-14.3,3.6-21.5"/>
<text transform="matrix(1 0 0 1 3.0048 184.1572)" font-family="'PermanentMarker'" font-size="30.74">to forget things</text>
<path fill="none" stroke="#00AEEF" stroke-width="7" stroke-linecap="round" stroke-linejoin="round" stroke-miterlimit="10" d="
	M279.7,186.5c0.7-7.4,1.3-14.8,2-22.2c1.8,8.1,3.5,16.3,5.3,24.4c0.9-7.8,1.8-15.7,2.6-23.5c1,7,2,14,3,21c0.3-6.5,0.6-13,0.9-19.4
	c1.1,6.4,2.1,12.8,3.2,19.2c2.1-5.9,4.2-11.7,6.2-17.6c1,5.1,2,10.3,3.1,15.4c0.1-5.9,0.2-11.9,0.3-17.8c1.2,6.6,2.3,13.2,3.5,19.9
	c0.9-6.9,1.7-13.8,2.6-20.7c0.4,6.9,0.8,13.9,1.1,20.8c1.2-6.4,2.3-12.7,3.5-19.1c1.2,6.8,2.3,13.7,3.5,20.5
	c1.7-6.9,3.4-13.7,5.1-20.6c1.7,6,3.3,11.9,5,17.9c0.3-7,0.7-14,1-21c1.8,6.9,3.6,13.7,5.4,20.6c1.3-7.3,2.5-14.6,3.8-21.9
	c0.5,7.5,1,15.1,1.5,22.6c1.2-7.4,2.4-14.7,3.6-22.1c0.7,7.1,1.3,14.3,2,21.4c2.3-7.1,4.6-14.1,6.8-21.2c-0.2,7.3-0.4,14.6-0.6,21.9
	c1.6-6,3.3-11.9,4.9-17.9c0.3,5.8,0.6,11.6,0.9,17.4c1.9-7.4,3.8-14.8,5.7-22.2c1,7.3,1.9,14.5,2.9,21.8c1.4-6.8,2.7-13.7,4.1-20.5
	c0.9,6.6,1.9,13.2,2.8,19.8c1.1-6.8,2.2-13.6,3.3-20.3c0.7,7.1,1.4,14.3,2,21.4c1.8-6.5,3.5-13,5.3-19.5c0.3,5.9,0.6,11.8,0.9,17.7
	c0.7-7.4,1.5-14.8,2.2-22.2c1.3,7.4,2.7,14.8,4,22.2c1.6-7.5,3.1-15,4.7-22.5c0.7,7.9,1.3,15.7,2,23.6c1.4-7.5,2.8-15.1,4.2-22.6
	c1.3,8,2.6,15.9,3.9,23.9c1.7-7.4,3.4-14.8,5.2-22.1c1.1,8.4,2.2,16.8,3.3,25.2c1.1-10.1,2.2-20.2,3.4-30.3
	c1.2,8.8,2.4,17.6,3.6,26.4c0.4-5.9,0.8-11.8,1.2-17.8c0.9,4.2,1.7,8.4,2.6,12.6c1.5-5.1,3-10.1,4.6-15.2c0.7,6.1,1.4,12.2,2.1,18.4
	"/>
</svg>
