<?xml version="1.0" encoding="utf-8"?>
<!-- Generator: Adobe Illustrator 18.0.0, SVG Export Plug-In . SVG Version: 6.00 Build 0)  -->
<!DOCTYPE svg PUBLIC "-//W3C//DTD SVG 1.1//EN" "http://www.w3.org/Graphics/SVG/1.1/DTD/svg11.dtd">
<svg version="1.1" id="Layer_1" xmlns="http://www.w3.org/2000/svg" xmlns:xlink="http://www.w3.org/1999/xlink" x="0px" y="0px"
	 viewBox="0 0 708.6 465" enable-background="new 0 0 708.6 465" xml:space="preserve">
<path fill="none" stroke="#FFFFFF" stroke-width="120" stroke-linejoin="bevel" stroke-miterlimit="10" d="M363.9,21.8
	C271.6,35.8,172,1.5,86.7,39.1C69.8,46.5,53.8,57,43.5,72.2s-13.9,35.8-5.8,52.3c30.8-4.9,67-8.2,88.6,14.3
	c19,19.7,18,50.6,15.8,77.9c-1.5,18.9-3.1,38.1-9,56.1c-6,18-17,35.1-33.4,44.6c-14.7,8.5-32.3,10.3-47.8,17.3s-29.7,23.1-25,39.4
	c94.7-0.8,189.3-1.5,284-2.3c66.4-0.5,133-1.1,199.1,5.3c60.9,5.8,121.1,17.4,181.1,29c7.3-8.2,2.9-22.1-5.8-28.7
	c-8.8-6.6-20.2-8-31.1-9.6c-10.8-1.6-22.4-3.9-30-11.8c-19.1-19.5-2.8-59-24.4-75.7c-16.7-12.9-40.9-0.6-61.8-3.7
	c-20.3-3-38.4-21.1-58.5-16.5c-12.8,2.9-21.8,14.5-27.7,26.3c-5.9,11.8-10,24.7-18.5,34.7c-15.9,18.9-44.2,23.4-68.2,17.5
	c-24-6-44.8-20.5-65-34.8c-25-17.6-50.1-35.5-70.9-57.9c-47-50.8-67.1-120.2-85.7-186.9"/>
<g>
	
		<line fill="none" stroke="#000000" stroke-width="7" stroke-linecap="round" stroke-linejoin="round" stroke-miterlimit="10" x1="122.1" y1="51.7" x2="122.1" y2="400.4"/>
	
		<line fill="none" stroke="#000000" stroke-width="7" stroke-linecap="round" stroke-linejoin="round" stroke-miterlimit="10" x1="99.6" y1="378.4" x2="683" y2="378.4"/>
</g>
<g>
	
		<polyline fill="none" stroke="#000000" stroke-width="7" stroke-linecap="round" stroke-linejoin="round" stroke-miterlimit="10" points="
		661,355.9 683,378.4 661,400.9 	"/>
	<text transform="matrix(1 0 0 1 616.8361 446.8416)" font-family="'PermanentMarker'" font-size="31">time</text>
</g>
<g>
	
		<polyline fill="none" stroke="#000000" stroke-width="7" stroke-linecap="round" stroke-linejoin="round" stroke-miterlimit="10" points="
		99.6,73.7 122.1,51.7 144.6,73.7 	"/>
	<text transform="matrix(1 0 0 1 99.6447 39.175)" fill="#89BBE5" font-family="'PermanentMarker'" font-size="31">toothpaste tube</text>
</g>
<g>
	<text transform="matrix(1 0 0 1 30.1545 99.053)" font-family="'PermanentMarker'" font-size="31">full</text>
	<text transform="matrix(1 0 0 1 10.507 369.2366)" font-family="'PermanentMarker'" font-size="31">empty</text>
</g>
<path fill="none" stroke="#89BBE5" stroke-width="7" stroke-linecap="round" stroke-linejoin="round" stroke-miterlimit="10" d="
	M144.6,99.1c0,167.7,308.8,309.7,486.8,309.7"/>
<g>
	<path fill="none" stroke="#FF7BAC" stroke-width="7" stroke-linecap="round" stroke-linejoin="round" stroke-miterlimit="10" d="
		M630.2,384.7c-4.8,5-8.7,10.9-11.5,17.2"/>
	<path fill="none" stroke="#FF7BAC" stroke-width="7" stroke-linecap="round" stroke-linejoin="round" stroke-miterlimit="10" d="
		M608.7,385.3c-0.8,0.7-1.5,1.4-2.3,2.1c-2.6,2.4-5.2,4.9-7.8,7.3c-0.9,1.5-2,2.9-3.2,4.1"/>
	<path fill="none" stroke="#FF7BAC" stroke-width="7" stroke-linecap="round" stroke-linejoin="round" stroke-miterlimit="10" d="
		M578.5,385c-3.5,4.7-7.5,9-12.1,12.7"/>
	<path fill="none" stroke="#FF7BAC" stroke-width="7" stroke-linecap="round" stroke-linejoin="round" stroke-miterlimit="10" d="
		M549.2,384.4c-3.1,2.9-6.4,5.5-10,7.8"/>
	<path fill="none" stroke="#FF7BAC" stroke-width="7" stroke-linecap="round" stroke-linejoin="round" stroke-miterlimit="10" d="
		M522.8,380.5c-2,2.3-4,4.6-6.1,7"/>
</g>
<g>
	<text transform="matrix(1 0 0 1 413.5617 274.8362)"><tspan x="0" y="0" font-family="'PermanentMarker'" font-size="31">somehow, this</tspan><tspan x="0" y="37.2" font-family="'PermanentMarker'" font-size="31">is possible</tspan></text>
	<path fill="none" stroke="#000000" stroke-width="7" stroke-linecap="round" stroke-linejoin="round" stroke-miterlimit="10" d="
		M584.7,303.1c6.1-0.7,12.6,0.1,17.7,3.2c5.1,3.1,8.5,8.6,7.7,14.1c-0.8,5.8-5.8,10.4-10.9,13.9c-5.2,3.6-10.9,6.7-14.5,11.6
		c-4.3,5.8-4.7,13.4-2.9,20.2c1.8,6.8,5.6,13,9.4,19.1"/>
</g>
</svg>
