<?xml version="1.0" encoding="utf-8"?>
<!-- Generator: Adobe Illustrator 18.0.0, SVG Export Plug-In . SVG Version: 6.00 Build 0)  -->
<!DOCTYPE svg PUBLIC "-//W3C//DTD SVG 1.1//EN" "http://www.w3.org/Graphics/SVG/1.1/DTD/svg11.dtd">
<svg version="1.1" id="Layer_1" xmlns="http://www.w3.org/2000/svg" xmlns:xlink="http://www.w3.org/1999/xlink" x="0px" y="0px"
	 viewBox="0 0 787.1 318.4" enable-background="new 0 0 787.1 318.4" xml:space="preserve">
<path fill="none" stroke="#FFFFFF" stroke-width="120" stroke-linejoin="bevel" stroke-miterlimit="10" d="M25.2,190.2
	c3.3-46.7,39.5-105.6,78.5-131.6c-10.8,50.5-2.8,104.8,22,150.1C132.2,126.1,169.2,46.3,228-12c0.2,17.7,0.6,36,8.5,51.9
	c7.9,15.8,25.7,28.2,42.9,23.9c15.2-3.8,24.5-18.5,34.1-30.9c9.6-12.4,24.3-24.5,39.3-20c17.1,5.1,22.4,28.1,38.4,36.1
	c16.6,8.3,36-3.1,50-15.2s29.6-26.4,48-24.3c-1.8,15.5-3.6,31.5,1.4,46.3c5,14.7,18.9,27.7,34.4,26.4c21.4-1.9,31.4-26.5,46-42.2
	C586.7,23,611.9,15.5,634.3,21c22.4,5.5,41.2,23.7,47.4,46c-59.5,15.6-114.2,49.2-155,95.3c35.4,26.3,85.6,17.7,126,0.1
	s78.5-43.2,122.2-48.8c-25.7,43-71.4,71-119.3,85.5c-47.9,14.6-98.5,17.2-148.5,19.7c47.7,18.3,95.4,36.6,143,54.8
	c-49.4,16.6-104.6,15.7-153.4-2.5c-18-6.7-37.1-15.9-55.7-10.9c-15.1,4.1-26,16.6-37.6,27.1c-11.6,10.5-27,19.8-42,15.5
	c-20.6-6-27.3-33.5-46.5-43.1c-13.7-6.9-30.8-2.7-43.2,6.4s-20.9,22.3-29.1,35.1c-2.9-19.4-5.8-38.8-8.7-58.2
	c-34.4-18.1-76.2-21.7-113.3-9.8c-13.3,4.3-28.3,14.6-25.5,28.3c3.1,15.4,24.7,17.3,39.7,12.8c42.5-12.7,75.5-46,102.9-80.8
	s51.5-72.9,85.2-101.8s80.3-47.4,122.7-34.3c-1.4,27.1-22.2,49.5-45.4,63.5s-49.5,22.1-72.9,35.8c-23.4,13.7-44.6,35.5-47,62.5
	c68.5-41.9,137-83.8,205.4-125.8c7.8,23.2-11.1,46.2-28.6,63.4c-42.4,41.8-84.8,83.7-127.1,125.5"/>
<g>
	<text transform="matrix(1 0 0 1 289.2536 28.7715)"><tspan x="0" y="0" font-family="'PermanentMarker'" font-size="30.7418">not a very</tspan><tspan x="-16.3" y="30" font-family="'PermanentMarker'" font-size="30.7418">efficient day</tspan></text>
</g>
<g>
	<path fill="none" stroke="#662F8F" stroke-width="7" stroke-linecap="round" stroke-linejoin="round" stroke-miterlimit="10" d="
		M480.5,18.7c40-4,81.5-4.7,119,9.8s70.2,47,74.8,86.9"/>
	<path fill="none" stroke="#662F8F" stroke-width="7" stroke-linecap="round" stroke-linejoin="round" stroke-miterlimit="10" d="
		M658.5,108.4c6.8,1.9,12.4,7.5,14.3,14.2c3.5-6.1,7.1-12.2,10.6-18.3"/>
</g>
<text transform="matrix(1 0 0 1 508.2961 150.7715)"><tspan x="0" y="0" fill="#231F20" font-family="'PermanentMarker'" font-size="30.7418">i’m a little behind</tspan><tspan x="48.7" y="30" fill="#231F20" font-family="'PermanentMarker'" font-size="30.7418">on schedule</tspan></text>
<g>
	<path fill="none" stroke="#662F8F" stroke-width="7" stroke-linecap="round" stroke-linejoin="round" stroke-miterlimit="10" d="
		M680.6,193.5c-2,17.2-11.3,32.9-22.4,46.2c-38.1,45.8-101.1,69.6-160,60.2"/>
	<path fill="none" stroke="#662F8F" stroke-width="7" stroke-linecap="round" stroke-linejoin="round" stroke-miterlimit="10" d="
		M506.5,289.3c-5.9,3.7-11.7,7.4-17.6,11.1c4.4,3.3,8.8,6.5,13.3,9.8"/>
</g>
<text transform="matrix(1 0 0 1 277.2746 272.7715)"><tspan x="0" y="0" fill="#231F20" font-family="'PermanentMarker'" font-size="30.7418">and a little</tspan><tspan x="-15.3" y="30" fill="#231F20" font-family="'PermanentMarker'" font-size="30.7418">more stressed</tspan></text>
<g>
	<path fill="none" stroke="#662F8F" stroke-width="7" stroke-linecap="round" stroke-linejoin="round" stroke-miterlimit="10" d="
		M240.3,296.4c-33.9,2-68.9-0.5-99.6-15.1s-56.2-43.1-60.1-76.8"/>
	<path fill="none" stroke="#662F8F" stroke-width="7" stroke-linecap="round" stroke-linejoin="round" stroke-miterlimit="10" d="
		M72.8,217.4c0.2-6.8,2.9-13.5,7.4-18.7c3.9,4.5,7.8,9.1,11.7,13.6"/>
</g>
<text transform="matrix(1 0 0 1 32.8268 150.7715)"><tspan x="0" y="0" fill="#231F20" font-family="'PermanentMarker'" font-size="30.7418">slept a</tspan><tspan x="-26.8" y="30" fill="#231F20" font-family="'PermanentMarker'" font-size="30.7418">little less</tspan></text>
<g>
	<path fill="none" stroke="#662F8F" stroke-width="7" stroke-linecap="round" stroke-linejoin="round" stroke-miterlimit="10" d="
		M64.6,125c1.9-26.8,17.2-51.5,38.3-68.2S150.1,31,176.6,27s53.5-3.1,80.3-1.4"/>
	<path fill="none" stroke="#662F8F" stroke-width="7" stroke-linecap="round" stroke-linejoin="round" stroke-miterlimit="10" d="
		M249.7,15.7c5.3,2.5,10.6,5,15.9,7.5c-4.5,3.6-9,7.1-13.5,10.7"/>
</g>
<g>
	<path fill="none" stroke="#662F8F" stroke-width="7" stroke-linecap="round" stroke-linejoin="round" stroke-miterlimit="10" d="
		M479.5,49.2c21.1-2.1,42.9,3.8,60.1,16.2c17.1,12.5,29.5,31.4,33.9,52.2"/>
	<path fill="none" stroke="#662F8F" stroke-width="7" stroke-linecap="round" stroke-linejoin="round" stroke-miterlimit="10" d="
		M562.6,112.8c3.7,4.6,7.4,9.2,11.1,13.7c3.5-5.8,7.1-11.7,10.6-17.5"/>
</g>
<g>
	<path fill="none" stroke="#662F8F" stroke-width="7" stroke-linecap="round" stroke-linejoin="round" stroke-miterlimit="10" d="
		M575.6,190.2c-2.6,22.4-14.3,43.6-32,57.6c-17.7,14-41,20.6-63.4,18"/>
	<path fill="none" stroke="#662F8F" stroke-width="7" stroke-linecap="round" stroke-linejoin="round" stroke-miterlimit="10" d="
		M486.7,254.2c-5.1,4.1-10.2,8.3-15.3,12.4c5,3.5,9.9,6.9,14.9,10.4"/>
</g>
<g>
	<path fill="none" stroke="#662F8F" stroke-width="7" stroke-linecap="round" stroke-linejoin="round" stroke-miterlimit="10" d="
		M250.8,262.9c-16.1,2.1-32.3,4.2-48.4,2.8c-16.1-1.4-32.4-6.5-44.5-17.3c-12.1-10.8-19.3-27.8-15.6-43.6"/>
	<path fill="none" stroke="#662F8F" stroke-width="7" stroke-linecap="round" stroke-linejoin="round" stroke-miterlimit="10" d="
		M129.2,215.5c2.7-6.8,7.6-12.8,13.8-16.7c3.2,5.2,6.4,10.5,9.6,15.7"/>
</g>
<g>
	<path fill="none" stroke="#662F8F" stroke-width="7" stroke-linecap="round" stroke-linejoin="round" stroke-miterlimit="10" d="
		M121.2,121.5c4.6-23.7,23.9-42.4,45.9-52.3s46.5-12.2,70.6-13.3"/>
	<path fill="none" stroke="#662F8F" stroke-width="7" stroke-linecap="round" stroke-linejoin="round" stroke-miterlimit="10" d="
		M234.2,48.4c4.3,2,8.6,4.1,12.9,6.1c-4.1,3.2-8.2,6.5-12.3,9.7"/>
</g>
<path fill="none" stroke="#662F8F" stroke-width="7" stroke-linecap="round" stroke-linejoin="round" stroke-miterlimit="10" d="
	M414,78.3c28.4,5.8,48,36,46.2,64.9c-1.8,28.9-22,54.7-47.8,68s-56.2,15.2-84.8,10.7c-14.3-2.3-28.6-6.2-40.7-14
	c-12.2-7.8-22-20-24.8-34.2c-4.5-23.5,11.9-47.1,33.2-57.9s46.3-11,70.1-8.9c22.4,2,48,8.5,57.1,29c7.9,17.7-1.2,39.8-17.3,50.7
	c-16.1,10.9-37.1,12.1-56.1,7.9c-16.5-3.6-34.6-14.6-34.5-31.5c0-10.4,7.6-19.8,17-24.3c9.4-4.5,20.2-4.9,30.6-3.8
	c7.7,0.8,15.6,2.6,21.8,7.3s10.1,13,7.8,20.4c-2.3,7.2-10,11.7-17.5,12.6c-7.6,0.8-18,0.4-22.4-3.3c-4.4-3.7-3-9.4-1-12
	c2-2.6,6-3.4,8.2-0.8"/>
</svg>
