<?xml version="1.0" encoding="utf-8"?>
<!-- Generator: Adobe Illustrator 18.0.0, SVG Export Plug-In . SVG Version: 6.00 Build 0)  -->
<!DOCTYPE svg PUBLIC "-//W3C//DTD SVG 1.1//EN" "http://www.w3.org/Graphics/SVG/1.1/DTD/svg11.dtd">
<svg version="1.1" id="Layer_1" xmlns="http://www.w3.org/2000/svg" xmlns:xlink="http://www.w3.org/1999/xlink" x="0px" y="0px"
	 viewBox="0 0 600 237.6" enable-background="new 0 0 600 237.6" xml:space="preserve">
<path fill="none" stroke="#FFFFFF" stroke-width="120" stroke-linejoin="bevel" stroke-miterlimit="10" d="M153.7,1.4
	c-9.2,11.2-13.6,26.1-11.9,40.4c20.6-12.7,41.3-25.5,61.9-38.2c-16.9,52.2-33.8,104.3-50.8,156.5c27.3-19.7,42.3-51.8,57.5-81.9
	S243.7,16.9,273.9,2c-47,63.4-83.5,134.6-107.6,209.8c18.6-2.5,33.6-16.8,44.1-32.4c18.1-27,26.5-59,38.2-89.2
	c11.8-30.2,28.6-60.7,56.9-76.5c25.8-14.5,57-14.6,86.5-12c29.4,2.6,59.3,7.4,88.3,1.5c-0.6,9.9-7.5,18.7-16,23.9
	s-18.4,7.4-28.3,8.9c-21.8,3.4-44.1,4.1-65.7,9c-21.6,4.9-43,14.6-56.4,32.3c-11.5,15.2-15.8,34.5-19,53.3
	c-5.8,33.5-9.2,67.5-10.2,101.5c31.6-27.8,49.8-70.3,48.2-112.4c-0.4-10.5-2-21.3,1.2-31.2c3.2-10,13.1-18.9,23.4-16.5
	c7.1,1.6,12.1,8.2,14.1,15.1c2,7,1.4,14.4,0.9,21.6c-1.3,16.4-2.6,32.8-3.9,49.1c-0.9,11-0.4,24.6,9.4,29.8
	c10.8,5.7,24.1-4.9,27.1-16.8c3-11.9-0.3-24.3-0.6-36.6c-0.5-25.5,13.4-50.9,35.2-64.2c-2,33.5-4,66.9-6,100.4
	c4.3,7.9,13.2,13.1,22.2,12.9c9-0.2,17.7-5.6,21.7-13.7c5.4-10.7,2.4-23.5,3.2-35.4c1.2-18.1,11.9-35.3,27.6-44.4
	c0.2,34.3,0.4,68.6,0.6,102.9c12.9,0.2,24.2-10,29.3-21.9c5.1-11.9,5.4-25.2,5.5-38.1s0.3-26.2,5.3-38.2
	c7.6-18.1,26.6-30.8,46.3-30.7c4.5,46.1-47.9,83.9-41.8,129.8"/>
<text transform="matrix(1 0 0 1 140.4756 23.0362)" font-family="'PermanentMarker'" font-size="30.74">the fine line between</text>
<text transform="matrix(1 0 0 1 169.2256 128.0425)"><tspan x="0" y="0" font-family="'PermanentMarker'" font-size="30.74">to be</tspan><tspan x="17.3" y="30" font-family="'PermanentMarker'" font-size="30.74">shy</tspan></text>
<path fill="none" stroke="#BE1E2D" stroke-width="7" stroke-linecap="round" stroke-linejoin="round" stroke-miterlimit="10" d="
	M303.3,60c-4,55.4-8.1,110.8-12.1,166.2"/>
<text transform="matrix(1 0 0 1 336.4907 98.0425)"><tspan x="0" y="0" font-family="'PermanentMarker'" font-size="30.74">to regularly find</tspan><tspan x="34.4" y="30" font-family="'PermanentMarker'" font-size="30.74">yourself in a</tspan><tspan x="12.1" y="60" font-family="'PermanentMarker'" font-size="30.74">situation where</tspan><tspan x="42.1" y="90" font-family="'PermanentMarker'" font-size="30.74">you feel shy</tspan></text>
</svg>
