<svg xmlns="http://www.w3.org/2000/svg" viewBox="0 0 50 50"><defs><style>.a{fill:none;stroke:#231f20;stroke-linecap:round;stroke-miterlimit:10;stroke-width:7px;}</style></defs><title>graphs UI</title><path class="a" d="M7.82105,36.73744c-1.33343-.20528-2.45194,1.10019-2.80191,2.40314a5.64633,5.64633,0,0,0,2.11976,5.96458,5.20221,5.20221,0,0,0,6.24562-.32573,4.82557,4.82557,0,0,0,.784-6.12226,4.50177,4.50177,0,0,0-5.967-1.19056"/><path class="a" d="M6.43227,21.575c6.15545-1.64439,12.7963,1.86266,16.56541,6.99953s5.213,11.58827,6.18592,17.88486"/><path class="a" d="M6.48044,5.7172c8.7762-.64433,18.23711-0.41016,25.45337,4.626,5.48133,3.82533,8.94961,10.01757,10.75453,16.45344s2.11011,13.183,2.40457,19.86063"/></svg>