<svg xmlns="http://www.w3.org/2000/svg" viewBox="0 0 50 50"><defs><style>.a{fill:none;stroke:#231f20;stroke-linecap:round;stroke-linejoin:round;stroke-width:7px;}</style></defs><title>graphs UI</title><path class="a" d="M29.81333,16.3449a7.2621,7.2621,0,0,0-9.21682,3.34593,7.2621,7.2621,0,0,0,3.19067,9.27172,7.2621,7.2621,0,0,0,9.324-3.0345,7.2621,7.2621,0,0,0-2.87749-9.37364c2.13851,0.73,2.88705,3.35985,3.02023,5.61561s0.04946,4.7574,1.53046,6.46409c2.17717,2.509,6.70441,1.47619,8.47383-1.33523s1.333-6.52252.03066-9.57848a19.86372,19.86372,0,0,0-18.103-11.77827A19.86372,19.86372,0,0,0,7.42747,18.23382,19.86372,19.86372,0,0,0,12.07552,39.3251a19.86372,19.86372,0,0,0,21.28007,3.68848"/></svg>