<svg xmlns="http://www.w3.org/2000/svg" viewBox="0 0 50 50"><defs><style>.a{fill:none;stroke:#231f20;stroke-linecap:round;stroke-linejoin:round;stroke-width:7px;}</style></defs><title>graphs UI</title><path class="a" d="M-1.68931,44.0795l54.7962-.55839L49.335,8.72389A298.04089,298.04089,0,0,0-3.59879,7.58615C-1.80643,7.51147-1.76374,41.13041-1.68931,44.0795Z"/><path class="a" d="M3.43234,43.43439c0.77111-2.94765,1.57758-5.97177,3.36857-8.43665s4.81659-4.27882,7.81688-3.74824c2.26475,0.40051,4.21,2.04926,6.50483,2.20119a7.09324,7.09324,0,0,0,5.79074-3.02211A24.03556,24.03556,0,0,0,29.924,24.35793a12.46088,12.46088,0,0,1,2.28668-4.08745,4.57529,4.57529,0,0,1,4.23137-1.5244A6.8425,6.8425,0,0,1,39.36248,20.685l12.2003,11.59256"/><path class="a" d="M9.56261,16.98734a2.90759,2.90759,0,0,0,.8696,2.25708,1.82576,1.82576,0,0,0,2.28994.13948,1.34153,1.34153,0,0,0-.11081-2.11456l-2.54345-.374"/></svg>