<svg xmlns="http://www.w3.org/2000/svg" width="50" height="50" viewBox="0 0 50 50"><defs><style>.a{fill:none;stroke:#231f20;stroke-linecap:round;stroke-linejoin:round;stroke-width:7px;}</style></defs><title>graphs UI</title><path class="a" d="M2.94091,37.53295c0.15279,2.42941.38048,5.0499,1.97755,6.887,2.314,2.66169,6.40371,2.55931,9.91611,2.2399L40.3089,44.3432c2.26442-.20592,4.70341-0.48559,6.383-2.01828C49.3597,39.89037,48.857,35.63484,48.1401,32.095L42.70587,5.26394a207.18739,207.18739,0,0,0-40.28179.87644C2.0637,11.06263,1.548,15.38483,1.86015,20.34816Z"/><path class="a" d="M15.241,29.22315a10.19464,10.19464,0,0,0,9.05531,7.98038,10.19464,10.19464,0,0,0,10.0376-6.70311,10.19464,10.19464,0,0,0-3.90156-11.422A9.80186,9.80186,0,0,0,15.241,29.22315Z"/><path class="a" d="M35.25108,11.61514a0.82864,0.82864,0,0,0-.05073.99445,0.57734,0.57734,0,0,0,.9106-0.02039,0.44016,0.44016,0,0,0-.52419-0.60575"/></svg>