<svg xmlns="http://www.w3.org/2000/svg" width="50" height="50" viewBox="0 0 50 50"><defs><style>.a{fill:none;stroke:#231f20;stroke-linecap:round;stroke-linejoin:round;stroke-width:7px;}</style></defs><title>graphs UI</title><path class="a" d="M37.69482,6.44839a4.49884,4.49884,0,0,0,.77564,5.35012,4.49884,4.49884,0,0,0,5.38359.49231l0.073-6.99729-6.06869.22729"/><path class="a" d="M22.00795,12.95417l6.05753,0.00163,0.13033-7.20409c-1.37261-.04664-5.0919-0.91048-5.84578.53714C22.031,6.90139,22.12266,12.95417,22.00795,12.95417Z"/><path class="a" d="M6.78207,11.55326l5.60873-.52053a13.05447,13.05447,0,0,0-.1452-5.60441c-1.21721-.002-3.81178-0.50593-4.82064.44791C6.32789,6.91345,6.84073,10.17067,6.78207,11.55326Z"/><path class="a" d="M37.48388,44.81736a0.74725,0.74725,0,0,0,.89084.98282l5.2481-.13883-0.64418-6.77064a11.1202,11.1202,0,0,1-2.65152.62384c-0.49985.05453-2.13391-.22637-2.49676,0.05965C37.12446,40.13061,37.51773,43.87206,37.48388,44.81736Z"/><path class="a" d="M22.17235,45.743l6.05571-.0161-0.40672-5.7741c0,0.12722-4.93326-.19452-5.37358.18007C21.55924,40.88878,22.16962,44.60325,22.17235,45.743Z"/><path class="a" d="M6.70751,45.20669l5.97034-.05614a19.38159,19.38159,0,0,0-.22517-4.938c-1.04106-.033-4.64942-0.72146-5.40441-0.02972C6.316,40.8538,6.7434,44.23633,6.70751,45.20669Z"/><path class="a" d="M21.91909,29.02882l6.70807-.52743a26.21608,26.21608,0,0,0-.09655-4.17679,1.763,1.763,0,0,0-.627-1.40544,1.79859,1.79859,0,0,0-.897-0.178q-1.48512-.03482-2.97025-0.06965c-0.86551-.02027-1.749-0.33974-2.05252.4264a10.41426,10.41426,0,0,0-.03187,2.96988Z"/><path class="a" d="M37.22967,28.97939l5.12456,0.25549a1.76173,1.76173,0,0,0,1.3193-.28978,1.76069,1.76069,0,0,0,.38184-1.26956l0.09125-2.91563a1.39086,1.39086,0,0,0-.4484-1.32013,1.36562,1.36562,0,0,0-.80233-0.08814c-1.18569.1097-4.4514-.17741-5.282,0.73132C36.80423,24.96888,37.26416,27.85254,37.22967,28.97939Z"/><path class="a" d="M6.47163,27.42988a1.32963,1.32963,0,0,0,.08249.742,1.354,1.354,0,0,0,1.2409.4751l4.08517,0.06368a1.57618,1.57618,0,0,0,1.01338-.216,1.53087,1.53087,0,0,0,.40287-1.24491,20.78116,20.78116,0,0,0-.42839-4.251c0-.08587-5.141-0.9288-5.60246-0.6093C6.23586,23.10242,6.55905,26.34529,6.47163,27.42988Z"/></svg>