<svg xmlns="http://www.w3.org/2000/svg" width="50" height="50" viewBox="0 0 50 50"><defs><style>.a{fill:none;stroke:#231f20;stroke-linecap:round;stroke-miterlimit:10;stroke-width:7px;}</style></defs><title>graphs UI</title><path class="a" d="M5.64655,35.78948a8.4775,8.4775,0,0,0,.6922,4.23572c1.13727,2.06619,3.87163,2.9677,6.32174,2.747a19.43492,19.43492,0,0,0,6.86636-2.43527L33.43358,33.315c3.40294-1.71824,7.31469-4.2675,6.98212-7.90484-0.29445-3.22042-3.78432-5.17329-6.85743-6.58253L16.14242,10.8412c-2.40154-1.10128-5.044-2.23191-7.64422-1.66213C3.28426,10.3223,5.82407,16.32442,5.80687,19.7355,5.7799,25.08679,5.7,30.43836,5.64655,35.78948Z"/><path class="a" d="M44.44654,5.63285L43.95861,43.41151"/></svg>