<svg xmlns="http://www.w3.org/2000/svg" width="50" height="50" viewBox="0 0 50 50"><defs><style>.a,.b{fill:none;stroke:#231f20;stroke-linecap:round;stroke-width:7px;}.a{stroke-linejoin:round;}.b{stroke-miterlimit:10;}</style></defs><title>graphs UI</title><path class="a" d="M7.1814,17.64793L0.91217,12.30206l5.6437-6.33463L13.30115,10.48s5.28626-7.405,13.409-3.91478L29.97813-.38361l9.7982,4.55716-3.09072,6.67462s7.67233,3.30071,6.92073,11.47691l8.31619,1.28821L50.67891,33.79941l-8.05423-.79953s-0.15736,6.97756-6.79993,9.63543l1.24861,6.17258L26.39067,51.22471,24.828,44.99733a13.47049,13.47049,0,0,1-12.99582-3.93057L4.4996,45.53764-1.12615,35.48849l6.53148-5.2253S2.23454,23.50572,7.1814,17.64793Z"/><path class="b" d="M22.84046,21.38721a12.88057,12.88057,0,0,0-3.22456,5.25607c-0.498,2.01615.07534,4.4352,1.84439,5.523,2.19658,1.35069,5.17815.09665,6.843-1.87252,1.73527-2.05247,2.5414-5.09185,1.33246-7.49232s-4.78984-3.47251-6.75961-1.6439"/></svg>