<?xml version="1.0" encoding="utf-8"?>
<!-- Generator: Adobe Illustrator 18.0.0, SVG Export Plug-In . SVG Version: 6.00 Build 0)  -->
<!DOCTYPE svg PUBLIC "-//W3C//DTD SVG 1.1//EN" "http://www.w3.org/Graphics/SVG/1.1/DTD/svg11.dtd">
<svg version="1.1" id="Layer_1" xmlns="http://www.w3.org/2000/svg" xmlns:xlink="http://www.w3.org/1999/xlink" x="0px" y="0px"
	 viewBox="0 -150 857.2 1000" enable-background="new 0 -150 857.2 1000" xml:space="preserve">
<path d="M845.6,279l-76-76c-10.7-10.7-23.3-16-38-16s-27.3,5.3-38,16l-366,367l-164-165c-10.7-10.7-23.3-16-38-16s-27.3,5.3-38,16
	l-76,76c-10,10.7-15,23.3-15,38c0,14.7,5,27.3,15,38l202,202l76,76c10.7,10,23.3,15,38,15s27.3-5,38-15l76-76l404-404
	c10-10.7,15-23.3,15-38S855.6,289.7,845.6,279z"/>
</svg>
