<?xml version="1.0" encoding="utf-8"?>
<!-- Generator: Adobe Illustrator 18.0.0, SVG Export Plug-In . SVG Version: 6.00 Build 0)  -->
<!DOCTYPE svg PUBLIC "-//W3C//DTD SVG 1.1//EN" "http://www.w3.org/Graphics/SVG/1.1/DTD/svg11.dtd">
<svg version="1.1" id="Layer_1" xmlns="http://www.w3.org/2000/svg" xmlns:xlink="http://www.w3.org/1999/xlink" x="0px" y="0px"
	 viewBox="393 -1003.6 857.1 1000" enable-background="new 393 -1003.6 857.1 1000" xml:space="preserve">
<path d="M957.1-478.5c3.3-3.3,6-7,8-11v379c-0.7,9.3,2.7,17.7,10,25c7.3,7.3,15.7,11,25,11h72c10,0,18.3-3.7,25-11
	c6.7-7.3,10-15.7,10-25v-786c0.7-9.3-2.7-17.7-10-25s-15.7-11-25-11h-72c-10,0-18.3,3.7-25,11s-10,15.7-10,25v379
	c-2-4.7-4.7-8.3-8-11l-396-396c-7.3-8-13.3-10.7-18-8s-7,8.7-7,18v822c-0.7,10,1.7,16,7,18s11.3-0.7,18-8L957.1-478.5z"/>
</svg>
