<svg version="1.1" id="logo" xmlns="http://www.w3.org/2000/svg" xmlns:xlink="http://www.w3.org/1999/xlink" x="0px" y="0px" viewBox="0 0 169.2 35.3" enable-background="new 0 0 169.2 35.3" xml:space="preserve">
	<text fill="transparent" transform="matrix(1 0 0 1 -0.8063 30.0782)" font-family="'PermanentMarker'" font-size="30.7418">whiteboard</text>
	<path fill="none" stroke="#000000" stroke-width="4" stroke-linecap="round" stroke-linejoin="round" stroke-miterlimit="10" d="M121.2,27.8c0,0,4.3-11.2,8.8-13.6c0,0,5.6,12.6,2,14.5 M126.7,24.5c0,0,4.9-0.1,9-2.1"/>
	<path fill="none" stroke="#000000" stroke-width="4" stroke-linecap="round" stroke-linejoin="round" stroke-miterlimit="10" d="M113.4,14c0,0-14.7,9-9.7,13.2c1.8,1.5,4.2,1.7,6.4,1.2"/>
	<path fill="none" stroke="#000000" stroke-width="4" stroke-linecap="round" stroke-linejoin="round" stroke-miterlimit="10" d="M88.5,18.5c-0.2,3.9-2.6,10.2-2.6,10.2 M88.5,28.7c0,0,8.4-0.3,9.3-4.4c0.7-3.6-7.7-3.4-7.7-3.4s6.8-2,6.2-5.9C95.7,11,85.1,15,84.5,15.5"/>
	<path fill="none" stroke="#000000" stroke-width="4" stroke-linecap="round" stroke-linejoin="round" stroke-miterlimit="10" d="M80.1,27.1c0,0-9.3,3.2-10.4,0.3c-1.1-2.9,3.6-9.2,2.8-10.6 M81.7,13.5c0,0-10.8,1.4-11,2.6 M71.2,21c0,0,6.6,0.2,7.3-0.4"/>
	<path fill="none" stroke="#000000" stroke-width="4" stroke-linecap="round" stroke-linejoin="round" stroke-miterlimit="10" d="M48.6,14.6c-0.4,0.5-2.5,11.2-1.2,14.6"/>
	<path fill="none" stroke="#000000" stroke-width="4" stroke-linecap="round" stroke-linejoin="round" stroke-miterlimit="10" d="M37.4,28.4c0,0,2.4-13.8,2.3-14.5c0,0-1,6.4-1.1,7c-0.1,0.6-1.2,2.2-5.3,2.6c-5.3,0.6-6.4,5.4-6.4,5.4"/>
	<path fill="none" stroke="#000000" stroke-width="4" stroke-linecap="round" stroke-linejoin="round" stroke-miterlimit="10" d="M16.4,28.1c-3.2,0.8-3.3-8.3-2.5-11.6C10.1,26.3,2.8,29.3,2.2,27.6C1.5,26,4.1,15.5,4.9,15"/>
	<path fill="none" stroke="#000000" stroke-width="4" stroke-linecap="round" stroke-linejoin="round" stroke-miterlimit="10" d="M142,18.2c0.1,0.6-1.8,10-1.8,10 M152.7,28.8c-5.9,0.2-9.5-5.3-9.5-5.3s6.9-2.1,7.7-3.6c0.9-1.7-1.5-5.5-2.9-5.9c-1.4-0.4-5.2,5.3-5.2,5.3"/>
  <path id="arrowpath" fill="none" stroke="#C1282D" stroke-dasharray="157.75 473.25" stroke-dashoffset="-472.25" stroke-width="4" stroke-linecap="round" stroke-linejoin="round" stroke-miterlimit="10" d="M149.8,6c1.6-0.2,3.2-0.4,4.8-0.5c9.8-0.9,18.6-5.5,23.1-14.7c4.9-10,3.5-22.3-2.2-31.8s-15-16.5-25.3-20.7c-10.2-4.3-21.3-6-32.4-7.1C72.5-73.2,26.6-65.6-17.4-53c-12.2,3.5-24.9,7.8-33.1,17.5c-7.3,8.7-9.8,20.3-11.7,31.5c-2.3,13.5-4,27.5-0.1,40.6s14.9,25,28.5,25.7c8.6,0.5,17-3.5,23.5-9.1c7.8-6.8,12.2-15.8,18.4-23.9c5.4-7.1,14.3-11.1,23.1-11.6c18.4-1,35.5,11.4,53.9,10.4c4-0.2,7.9-1.1,11.8-1.9c2.7-0.6,5.4-1.2,8.1-2c7.7-2.5,14.5-7.2,21.6-11.2C134.1,8.9,141.7,7,149.8,6"/>
  <polyline id="arrowhead" fill="none" stroke="#C1282D" stroke-width="4" stroke-linecap="round" stroke-linejoin="round" stroke-miterlimit="10" points="144.8,2 149.8,6 146,11.1 "/>
	<path fill="none" stroke="#000000" stroke-width="4" stroke-linecap="round" stroke-linejoin="round" stroke-miterlimit="10" d="M29.1,15.3c0.2,0.7-2.3,13.6-2.3,13.6"/>
	<path fill="none" stroke="#000000" stroke-width="4" stroke-linecap="round" stroke-linejoin="round" stroke-miterlimit="10" d="M157.3,16.8c1,3.6,0.7,6.5-0.6,12.1 M156.7,28.9c16.1-5.5,11.7-10.9,0.6-14.9"/>
	<path fill="none" stroke="#000000" stroke-width="4" stroke-linecap="round" stroke-linejoin="round" stroke-miterlimit="10" d="M16.4,28.1c3.8-0.9,6.1-11.9,7.5-12.8"/>
	<path fill="none" stroke="#000000" stroke-width="4" stroke-linecap="round" stroke-linejoin="round" stroke-miterlimit="10" d="M29.1,15.3c0.2,0.7-2.3,13.6-2.3,13.6"/>
	<path fill="none" stroke="#000000" stroke-width="4" stroke-linecap="round" stroke-linejoin="round" stroke-miterlimit="10" d="M110.1,28.4c3.4-0.8,6.4-3.1,6.5-4.3c0.2-1.9-1.8-6.8-4.3-8.9"/>
	<path fill="none" stroke="#000000" stroke-width="4" stroke-linecap="round" stroke-linejoin="round" stroke-miterlimit="10" d="M53.9,15.1c0.6,0.3,14.7-2.4,16.3-1.8 M61.3,13.8c1.6,2.4-5.9,12.8-2.3,15.9"/>
</svg>
