<?xml version="1.0" encoding="utf-8"?>
<!-- Generator: Adobe Illustrator 19.2.0, SVG Export Plug-In . SVG Version: 6.00 Build 0)  -->
<svg version="1.1" id="Layer_1" xmlns="http://www.w3.org/2000/svg" xmlns:xlink="http://www.w3.org/1999/xlink" x="0px" y="0px"
	 viewBox="0 0 20.7 36.5" enable-background="new 0 0 20.7 36.5" xml:space="preserve">
<g>
	<defs>
		<path id="SVGID_106_" d="M20.6,11.5c0-0.1-0.1-0.3-0.3-0.3c-0.2-0.1-0.4-0.1-0.8-0.2c-0.1-0.4-0.4-0.6-0.8-0.8
			c-0.4-0.2-0.8-0.3-1.3-0.3c-0.5-0.1-1-0.1-1.5-0.1c-0.5,0-1,0-1.4-0.1l0,0c-2.4,0-4.8,0.2-7.3,0.2c-0.1,0-0.1,0-0.2,0l-0.6,0
			c-0.3,0.1-0.7,0.2-1.1,0.3c-0.4,0.1-0.8,0.1-1.3,0.1c-0.4,0-0.9,0.1-1.3,0.1c-0.5,0-0.9,0.1-1.3,0.2c0.1,0.1,0,0.2-0.1,0.4
			s-0.3,0.3-0.4,0.3c0.2,0.1,0.3,0.3,0.4,0.6c0,0.3,0,0.5-0.2,0.6c0.1,0.2,0.3,0.4,0.4,0.6c0.1,0.2,0.2,0.4,0.4,0.6
			c0.2,0.2,0.4,0.3,0.6,0.4c0.3,0.1,0.6,0.2,1.1,0.2c0.2-0.1,0.5-0.2,1-0.2c0.5-0.1,1-0.2,1.8-0.3l0,0c1.6-0.2,3.3-0.4,4.9-0.4
			c1.1,0,2.1-0.2,3.2-0.1l0,0c1.2-0.1,2.3-0.2,3.4-0.3s1.9-0.4,2.5-0.7c0-0.2,0-0.3,0.1-0.5C20.7,11.8,20.7,11.7,20.6,11.5z"/>
	</defs>
	<clipPath id="SVGID_3_">
		<use xlink:href="#SVGID_106_"  overflow="visible"/>
	</clipPath>
	
		<path clip-path="url(#SVGID_3_)" fill="none" stroke="#000000" stroke-width="6" stroke-linecap="round" stroke-linejoin="round" stroke-miterlimit="10" d="
		M2.8,12.7c0.7-0.2,13.4-1.7,15.1-1.4"/>
</g>
<g>
	<defs>
		<path id="SVGID_108_" d="M17,4.9c-0.2-0.1-0.3-0.2-0.5-0.3c-0.2-0.1-0.3-0.2-0.5-0.2c-0.2,0-0.3,0-0.5,0.1
			c-0.2,0.1-0.4,0.3-0.6,0.5c-0.4,0-0.7,0-1.1,0.2c-0.3,0.2-0.7,0.4-1,0.7c-0.3,0.3-0.6,0.6-0.9,0.9c-0.3,0.3-0.6,0.6-0.9,0.8l0,0
			c-0.7,1-1.5,1.9-2.2,2.8C8,11.6,7.4,12.8,6.6,14l0,0c-0.1,0.1-0.1,0.2-0.2,0.2c-0.1,0.1-0.1,0.1-0.2,0.2c-0.1,0.3-0.2,0.6-0.4,0.9
			s-0.4,0.7-0.6,1c-0.2,0.3-0.5,0.7-0.7,1c-0.2,0.4-0.4,0.7-0.6,1c0.1,0,0.3,0.1,0.4,0.2c0.1,0.2,0.1,0.3,0,0.5
			C4.7,19,5,19,5.3,19.1c0.3,0.1,0.5,0.2,0.6,0.4c0.3,0,0.6,0,0.9,0s0.5,0,0.8-0.1c0.3,0,0.5-0.2,0.8-0.3c0.3-0.2,0.5-0.4,0.8-0.8
			c0.1-0.2,0.2-0.6,0.5-1c0.2-0.5,0.6-1.1,1.1-1.9l0,0c1.2-1.4,2.7-3.2,3.5-4.9c0-0.1,0.1-0.2,0.2-0.2c0.1-0.2,0.3-0.4,0.3-0.4
			c0.6-0.9,1.2-1.8,1.7-2.7C16.7,6.2,17,5.5,17,4.9z"/>
	</defs>
	<clipPath id="SVGID_5_">
		<use xlink:href="#SVGID_108_"  overflow="visible"/>
	</clipPath>
	
		<path clip-path="url(#SVGID_5_)" fill="none" stroke="#000000" stroke-width="6" stroke-linecap="round" stroke-linejoin="round" stroke-miterlimit="10" d="
		M15,6.4c-0.8-0.1-8.3,10.7-8.3,11.2"/>
</g>
<g>
	<defs>
		<path id="SVGID_110_" d="M15.9,17c0-0.4-0.1-0.8-0.2-1.2c-0.1-0.4-0.3-0.8-0.5-1.2c-0.2-0.4-0.4-0.8-0.5-1.1c0,0,0-0.1,0-0.1
			c-0.2-1.1-1.4-2.1-2-3c-0.5-0.9-1-1.9-1.5-2.7c-0.1-0.1-0.1,0-0.1-0.1c-0.2-0.1-0.4-0.3-0.6-0.5C10.2,6.7,10,6.4,9.8,6.1
			c-0.2-0.3-0.4-0.6-0.6-1C8.9,4.8,8.7,4.6,8.5,4.3C8.4,4.4,8.2,4.5,8,4.5c-0.2,0-0.4,0-0.5-0.1C7.4,4.6,7.3,4.8,7,5
			C6.7,5.2,6.5,5.3,6.3,5.3C6.1,5.5,6,5.8,5.8,6C5.6,6.2,5.5,6.4,5.4,6.6C5.3,6.8,5.3,7,5.3,7.3c0,0.3,0.1,0.6,0.3,0.9
			c0.2,0.1,0.4,0.3,0.6,0.6c0.3,0.3,0.6,0.7,1,1.2c0,0,0,0.1,0,0.2c0.7,2,2.4,3.4,3.5,5.2l0,0c0.6,0.9,1.2,1.8,1.8,2.6
			c0.6,0.8,1.3,1.4,1.9,1.7c0.2-0.1,0.4-0.2,0.5-0.2c0.2-0.1,0.3-0.2,0.5-0.3c0.1-0.1,0.2-0.3,0.2-0.4c0-0.2,0-0.4-0.1-0.7
			C15.8,17.7,15.9,17.3,15.9,17z"/>
	</defs>
	<clipPath id="SVGID_7_">
		<use xlink:href="#SVGID_110_"  overflow="visible"/>
	</clipPath>
	
		<path clip-path="url(#SVGID_7_)" fill="none" stroke="#000000" stroke-width="6" stroke-linecap="round" stroke-linejoin="round" stroke-miterlimit="10" d="
		M7.3,6.4c0,0,5.8,7.9,6.5,10.4"/>
</g>
</svg>
