<?xml version="1.0" encoding="utf-8"?>
<!-- Generator: Adobe Illustrator 19.2.0, SVG Export Plug-In . SVG Version: 6.00 Build 0)  -->
<svg version="1.1" id="Layer_1" xmlns="http://www.w3.org/2000/svg" xmlns:xlink="http://www.w3.org/1999/xlink" x="0px" y="0px"
	 viewBox="0 0 25.2 36.5" enable-background="new 0 0 25.2 36.5" xml:space="preserve">
<g>
	<defs>
		<path id="SVGID_72_" d="M16.3,27.4c-0.7-0.3-1.3-0.8-1.7-1.4c-0.4-0.6-0.8-1.3-1.2-2.1c-0.1-0.1-0.1-0.2-0.2-0.4s-0.1-0.2-0.2-0.3
			l-0.4-0.8L12.4,22l-0.4,0.3l-0.5,0.5l-0.3,0.3c-0.5,0.5-1.1,1-1.6,1.4c-0.5,0.5-1.1,0.9-1.7,1.3s-1.2,0.7-1.9,0.9
			c-0.7,0.2-1.4,0.4-2.1,0.4l-0.7-0.3c-0.4-0.2-0.7-0.4-1-0.5c-0.3-0.2-0.6-0.4-0.9-0.8c-0.1-0.2-0.2-0.4-0.3-0.5
			c-0.1-0.2-0.1-0.3-0.2-0.5c-0.2-0.4-0.4-0.8-0.5-1.1C0.3,23,0.1,22.7,0,22.3C0,22,0.1,21.5,0.2,20.8c0.1-0.7,0.3-1.4,0.4-2.2
			S1,17,1.2,16.2c0.2-0.8,0.4-1.5,0.6-2.1C2,13.6,2.2,13,2.4,12.4c0.2-0.6,0.5-1.1,0.8-1.6s0.6-0.9,0.9-1.3c0.3-0.4,0.7-0.6,1-0.6
			c0.1,0.1,0.2,0.2,0.3,0.3c0.1,0.1,0.2,0.1,0.3,0.2c0.3,0.4,0.6,0.7,0.8,1c0.3,0.3,0.6,0.6,1,0.8c-0.1,0.5-0.2,1.1-0.4,1.7
			c-0.2,0.6-0.4,1.2-0.6,1.8S6.1,16,5.9,16.5c-0.2,0.6-0.4,1.1-0.5,1.5c-0.1,0.3-0.2,0.7-0.3,1.1c-0.2,0.7-0.4,1.8-0.5,3
			c0.2-0.1,0.5-0.2,0.8-0.4c0.3-0.2,0.6-0.4,0.8-0.6c0.3-0.2,0.6-0.5,0.9-0.8c0.4-0.4,0.7-0.7,1-1.1c0.3-0.3,0.5-0.7,0.7-1
			C9,18,9.3,17.6,9.5,17.2c0.2-0.4,0.5-0.9,0.9-1.5c0.3-0.5,0.6-1,1-1.6c0.3-0.6,0.7-1.1,1-1.6s0.7-1,1-1.4c0.3-0.4,0.6-0.8,0.9-1
			c0.2,0.2,0.4,0.4,0.6,0.6c0.3,0.2,0.5,0.3,0.8,0.4c0.1,0.2,0.2,0.3,0.3,0.5c0.1,0.2,0.2,0.3,0.3,0.4c0.1,0.2,0.2,0.4,0.3,0.5
			c0.1,0.2,0.2,0.3,0.3,0.5c0,0.1-0.1,0.3-0.1,0.5c0,0.2-0.1,0.5-0.1,0.7c-0.1,0.3-0.1,0.5-0.2,0.8c-0.1,0.3-0.1,0.5-0.2,0.8
			c-0.2,0.8-0.3,1.3-0.4,1.7c-0.1,0.4-0.1,0.7-0.2,0.9c0,0.2,0,0.4-0.1,0.6c0,0.2,0,0.4,0,0.6c0,0.2,0,0.4,0,0.6
			c0,0.2,0.1,0.4,0.1,0.6c0.1,0.2,0.1,0.4,0.2,0.5l1.2-0.9c0.3-0.3,0.7-0.6,1-1.1c0.3-0.5,0.6-1,0.9-1.6c0.3-0.6,0.6-1.2,0.9-1.9
			s0.6-1.4,0.8-2.1c0.4-1.1,0.8-2.1,1.3-3.1c0.4-1,0.8-1.8,1.3-2.3c0.4,0.3,0.8,0.6,1.2,0.9s0.6,0.6,0.9,0.9
			c0.2,0.3,0.4,0.7,0.6,1.2c0.2,0.4,0.3,1,0.3,1.6c-0.4,0.7-0.7,1.4-1,2.2c-0.3,0.7-0.6,1.5-1,2.2c-0.4,1-0.8,1.9-1.3,2.9
			c-0.4,1-0.9,1.9-1.4,2.8c-0.5,0.9-1.1,1.7-1.7,2.4c-0.6,0.7-1.4,1.4-2.2,1.9c-0.2-0.1-0.4-0.1-0.6-0.1
			C16.8,27.2,16.6,27.3,16.3,27.4z"/>
	</defs>
	<clipPath id="SVGID_3_">
		<use xlink:href="#SVGID_72_"  overflow="visible"/>
	</clipPath>
	
		<path clip-path="url(#SVGID_3_)" fill="none" stroke="#000000" stroke-width="6" stroke-linecap="round" stroke-linejoin="round" stroke-miterlimit="10" d="
		M5.2,11.4c0.1,3.2-5.6,10.7-1.9,12.9c4.9,2.8,11.2-11.8,11.5-11.4s-1.5,11.4,2.2,11.7s4.6-8.9,7.2-13.6"/>
</g>
</svg>
