<?xml version="1.0" encoding="utf-8"?>
<!-- Generator: Adobe Illustrator 19.2.0, SVG Export Plug-In . SVG Version: 6.00 Build 0)  -->
<svg version="1.1" id="Layer_1" xmlns="http://www.w3.org/2000/svg" xmlns:xlink="http://www.w3.org/1999/xlink" x="0px" y="0px"
	 viewBox="0 0 11.8 36.5" enable-background="new 0 0 11.8 36.5" xml:space="preserve">
<g>
	<defs>
		<path id="SVGID_185_" d="M6.4,6.4c0.1,0,0.2-0.1,0.2,0.1c0.1,0.6-0.3,1-0.3,1.7l0.1,0.1c0,0.1,0,0.1-0.1,0.2L6.4,8.7
			c0,0.2-0.1,0.4-0.2,0.7c-0.1,0.4-0.1,0.9-0.1,1.4c0.1,0.8,0.2,1.7,0.5,2.4c0.1,0.4,0.3,0.7,0.4,1.1c0.1,0.2,0.2,0.3,0.3,0.5
			L7.4,15l0.1,0.1l0,0c0,0,0.1-0.1,0.1,0c0.2,0.2,0.1,0.2,0.1,0.3l0,0l0,0c0.1,0,0.1,0,0.2,0c0,0,0,0.1,0,0.1
			c0.2,0.1,0.1,0.1,0.1,0.2c0,0-0.1,0.1-0.1,0.1l-0.1,0.1L7.8,16l0,0c0,0,0,0-0.1,0.1c-0.4,0.3-0.9,0.7-1.4,1.1
			c-0.4,0.5-0.8,1-1,1.6c-0.2,0.6-0.3,1-0.4,1.5c-0.2,1-0.4,1.9-0.5,2.8c-0.1,0.8-0.2,1.6-0.5,2.2c-0.4,1-1.3,1.9-2.2,2.3
			c0.2,0.2-0.2,0.7-0.7,1c-0.2,0.2-0.5,0.3-0.6,0.5c-0.2,0.1-0.2,0.3-0.1,0.4c-0.2,0-0.4,0-0.6,0c-0.3,0-0.3,0-0.5,0.1
			c-0.4,0.1-0.7,0.1-0.7,0.2c-0.1,0.2-1.6,2,0,1.9l0.6-0.1l0.5-0.1l0,0l-0.1,0l0,0l0.2,0l0.3,0c0.2,0,0.4,0,0.7-0.1
			c0.5-0.1,0.9-0.2,1.4-0.4C2.5,31.1,3,31,3.4,30.7c0.9-0.5,1.6-1.3,2.2-2c0.6-0.8,1-1.6,1.3-2.4c0.7-1.6,1-3.2,1.4-4.4
			c0-0.2,0.1-0.6,0.3-1c0.1-0.2,0.2-0.4,0.5-0.7c0.1-0.1,0.2-0.1,0.3-0.2c0.1,0,0,0,0.1-0.1l0.3-0.1c0.2-0.1,0.4-0.1,0.6-0.2
			c0.4-0.1,0.9-0.2,1.4-0.3c0.5-0.1,0.8-0.3,1-0.5c0.3-0.2,0.4-0.4,0.5-0.6l0.1-0.3l0.1-0.1l0-0.1l0-0.1l0,0l0,0l0,0
			c0.2,0.1,0.1,0,0.1,0l0,0c0-0.2,0-0.4,0-0.6c0-0.3,0.1-0.5,0.2-0.9l-1.1-1.1c-0.4-0.4-0.6-0.7-0.9-1.1c-0.2-0.3-0.4-0.7-0.6-1
			L11,12.3c-0.3-0.6-0.5-1.3-0.5-1.8c0-0.3,0-0.5,0-0.8c0-0.1,0-0.2,0-0.3c0-0.2,0.1-0.4,0.1-0.6c0.1-0.8,0.2-1.5,0.2-2
			c0-0.1,0-0.3,0-0.4c0-1.2-0.3-2.7-1.1-4C9,1,7.7,0.2,6.8-0.1C6.3-0.2,5.9-0.2,5.4-0.3c-0.4,0-0.9,0-1.3,0c0.4,0.1,0.7,0.3,1,0.4
			C4.3,0,3.6-0.1,3.3,0C1.6,0.3,2.6,0.6,3.2,1C3.6,1.2,3,1.4,3.6,1.6c-0.5,0-0.7-0.1-1.2,0c0,0.1,0.3,0,0.7,0c0.3,0,0.6,0,0.4,0.2
			c-0.4-0.1-0.9,0-1.4,0C2.3,1.9,2.7,1.9,3,1.9c0.4,0,0.7,0.1,0.6,0.2C3.6,2.1,3.3,2,3,2c-0.3,0-0.6,0-0.6,0.1c0,0.1,0.4,0,0.7,0
			C1.6,2.2,0.9,2.6,2.2,2.8c-0.4,0-1,0-1.5,0.1l0,0c0.2,0,0.6,0,0.8,0L0.7,2.9L0.9,3c0.2,0,0.4,0,0.6,0L1,3c0.1,0.1,0.3,0.1,0.5,0.2
			C2,3.3,2.6,3.6,2.9,3.6c1.2,0,2.3,0.3,2.8,0.8c0.3,0.2,0.4,0.4,0.6,0.8C6.3,5.5,6.4,5.9,6.4,6.4z"/>
	</defs>
	<clipPath id="SVGID_3_">
		<use xlink:href="#SVGID_185_"  overflow="visible"/>
	</clipPath>
	
		<path clip-path="url(#SVGID_3_)" fill="none" stroke="#000000" stroke-width="6" stroke-linecap="round" stroke-linejoin="round" stroke-miterlimit="10" d="
		M0.5,2c8.2-1.2,9.7,3.1,8.7,7.4s0.3,8.5,3.3,7.9c0,0-4.2,0-5.5,2.9c-1.5,3.2-1.5,9.4-7.8,9.4"/>
</g>
</svg>
