<?xml version="1.0" encoding="utf-8"?>
<!-- Generator: Adobe Illustrator 19.2.0, SVG Export Plug-In . SVG Version: 6.00 Build 0)  -->
<svg version="1.1" id="Layer_1" xmlns="http://www.w3.org/2000/svg" xmlns:xlink="http://www.w3.org/1999/xlink" x="0px" y="0px"
	 viewBox="0 0 18.7 36.5" enable-background="new 0 0 18.7 36.5" xml:space="preserve">
<g>
	<defs>
		<path id="SVGID_156_" d="M10.7,9.3c-0.2-0.9-0.5-1.6-0.8-2.2C9.7,6.4,9.2,5.8,8.6,5.3C8.1,5.4,7.7,5.7,7.4,6.2
			C7.1,6.7,6.8,7.2,6.6,7.9C6.4,8.6,6.2,9.2,6,9.9c-0.2,0.7-0.4,1.2-0.6,1.6l0,0c-0.3,0.6-0.4,1.4-0.7,2.1c-0.2,0.7-0.2,1.3-0.5,1.9
			l0,0c-0.2,0.5-0.4,1-0.5,1.5c-0.2,0.5-0.2,0.8-0.2,1.1c0,0,0,0.1,0,0.2c0,0.1,0,0.1,0,0.2l0,0c-0.2,1.4-0.9,2.8-1.6,4l0,0
			c-0.2,0.3-0.4,0.6-0.6,1c-0.2,0.4-0.4,0.7-0.5,1.1c-0.1,0.4-0.2,0.8-0.2,1.2c0,0.4,0.2,0.8,0.5,1.1c0.4,0.2,0.7,0.3,0.9,0.4
			c0.3,0.1,0.6,0.3,1,0.4c0.2,0,0.4-0.1,0.6-0.2c0.2-0.1,0.3-0.2,0.5-0.3c0.1-0.1,0.3-0.2,0.4-0.4s0.3-0.2,0.5-0.3
			c0.1-0.2,0.1-0.3,0.2-0.6c0-0.2,0-0.4,0.1-0.6s0.1-0.4,0.2-0.6c0.1-0.2,0.2-0.4,0.5-0.6c0-0.1-0.1-0.2-0.2-0.3
			c-0.1-0.1-0.1-0.2-0.1-0.3C5.8,23.3,6,23,6.2,22.7c0.2-0.3,0.3-0.6,0.4-1l0,0c0.2-0.7,0.6-1.4,0.8-2.1c0.2-0.5,0.2-1.1,0.3-1.7
			l0,0l0-0.2c0-0.2,0.1-0.6,0.3-1.1c0.2-0.5,0.3-1.1,0.6-1.7l0,0c0.2-0.6,0.5-1.2,0.8-1.8c0.3-0.7,0.4-1.4,0.7-2.1l0,0
			c0.2-0.4,0.3-0.8,0.4-1.1C10.6,9.8,10.7,9.5,10.7,9.3z"/>
	</defs>
	<clipPath id="SVGID_3_">
		<use xlink:href="#SVGID_156_"  overflow="visible"/>
	</clipPath>
	
		<path clip-path="url(#SVGID_3_)" fill="none" stroke="#000000" stroke-width="6" stroke-linecap="round" stroke-linejoin="round" stroke-miterlimit="10" d="
		M8.7,7.7c-0.3,3-6.7,16.5-6,17.8"/>
</g>
<g>
	<defs>
		<path id="SVGID_158_" d="M15.1,17.8L15.1,17.8c0-0.3,0.1-0.6,0.3-1.2s0.4-1.1,0.6-1.7l0,0c0.2-0.6,0.4-1.1,0.7-1.7
			c0.2-0.5,0.3-0.9,0.5-1.4c0.1-0.2,0.1-0.4,0.2-0.6l0,0c0.2-0.4,0.3-0.8,0.4-1.1s0.2-0.6,0.3-0.8c-0.2-0.9-0.4-1.6-0.8-2.3
			c-0.3-0.6-0.8-1.2-1.4-1.8c-0.5,0.1-0.8,0.4-1.1,0.8c-0.3,0.4-0.6,1-0.8,1.6c-0.2,0.6-0.4,1.2-0.6,1.8c-0.2,0.6-0.3,1.2-0.5,1.6
			l0,0c-0.2,0.7-0.5,1.4-0.7,2.2c-0.1,0.4-0.2,0.9-0.3,1.3c-0.1,0.2-0.1,0.3-0.2,0.5l0,0c-0.2,0.5-0.4,1.1-0.6,1.6s-0.3,0.9-0.3,1.2
			l0,0c-0.1,0.8-0.3,1.5-0.6,2.3c-0.2,0.5-0.5,1-0.7,1.5l0,0c-0.1,0.2-0.2,0.5-0.4,0.8c-0.2,0.3-0.4,0.6-0.6,1
			c-0.2,0.4-0.4,0.7-0.5,1.1c-0.1,0.4-0.2,0.8-0.1,1.2c0,0.4,0.2,0.8,0.5,1.1c0.3,0.2,0.6,0.3,0.9,0.4c0.3,0.1,0.6,0.3,1,0.4
			c0.2,0,0.4-0.1,0.6-0.2s0.3-0.2,0.4-0.3c0.1-0.1,0.3-0.2,0.4-0.4s0.3-0.2,0.5-0.3c0.1-0.2,0.1-0.4,0.1-0.6c0-0.2,0-0.4,0.1-0.6
			c0-0.2,0.1-0.4,0.2-0.6c0.1-0.2,0.2-0.4,0.5-0.6c0-0.1-0.1-0.2-0.2-0.3c-0.1-0.1-0.1-0.2-0.1-0.3c0.3-0.3,0.5-0.6,0.7-1
			c0.2-0.4,0.3-0.8,0.5-1.2l0,0C14.4,20.2,14.9,19,15.1,17.8z"/>
	</defs>
	<clipPath id="SVGID_5_">
		<use xlink:href="#SVGID_158_"  overflow="visible"/>
	</clipPath>
	
		<path clip-path="url(#SVGID_5_)" fill="none" stroke="#000000" stroke-width="6" stroke-linecap="round" stroke-linejoin="round" stroke-miterlimit="10" d="
		M16.1,7.7c-0.9,1-6,16-6,17.4"/>
</g>
<g>
	<defs>
		<path id="SVGID_160_" d="M20.6,12.7c-0.1-0.1-0.4-0.2-0.7-0.2c0-0.2-0.1-0.4-0.2-0.6c-0.1-0.2-0.3-0.3-0.6-0.4
			c-0.2-0.1-0.5-0.2-0.8-0.2c-0.3,0-0.6-0.1-0.9-0.1l0,0c-1.6-0.1-2.8-0.2-4.4-0.2c0,0-0.3,0-0.3,0c-0.4,0-0.7,0-1.1,0
			c-0.5,0-1,0-1.4,0l0,0c-1.5,0.1-3,0.2-4.6,0.3l0,0c-0.6,0.1-1.2,0.1-1.9,0.1c-0.7,0-1.3,0.1-1.9,0.2c0,0.1,0,0.2-0.2,0.4
			c-0.2,0.2-0.3,0.3-0.5,0.3c0.2,0.1,0.2,0.4,0.2,0.6c0,0.3-0.2,0.5-0.3,0.7C0.9,14,0.9,14.3,1,14.5s0.1,0.4,0.2,0.6
			c0.1,0.2,0.3,0.3,0.5,0.4c0.2,0.1,0.6,0.2,1.1,0.2c0.2,0,0.4-0.1,0.6-0.1c0.2,0,0.5-0.1,0.9-0.2l0,0C5.8,15.2,7.1,15,8.6,15l0,0
			c0.4,0,0.9,0,1.5,0h1.7l0,0c1.4,0,2.7,0,4.2-0.1c0.9-0.1,1.8-0.2,2.5-0.3c0.8-0.1,1.5-0.3,2-0.6c0.1-0.2,0.1-0.3,0.2-0.5
			c0.1-0.2,0.1-0.3,0.1-0.5C20.8,12.9,20.7,12.8,20.6,12.7z"/>
	</defs>
	<clipPath id="SVGID_7_">
		<use xlink:href="#SVGID_160_"  overflow="visible"/>
	</clipPath>
	
		<path clip-path="url(#SVGID_7_)" fill="none" stroke="#000000" stroke-width="6" stroke-linecap="round" stroke-linejoin="round" stroke-miterlimit="10" d="
		M2.3,13.8c1.1-0.8,15.8-0.7,16.3-0.7"/>
</g>
<g>
	<defs>
		<path id="SVGID_162_" d="M18.5,19.3c-0.1-0.2-0.4-0.3-0.8-0.4c0.1-0.2,0-0.3-0.1-0.4c-0.1-0.1-0.3-0.1-0.5-0.2
			c-0.2-0.1-0.4-0.1-0.5-0.2c-0.2-0.1-0.2-0.2-0.2-0.4h-1.3l0,0c-1.4,0-2.8,0-4.2,0l0,0c-0.6,0-1.1,0-1.7,0.1s-1,0.1-1.4,0.1l0,0
			c-1.4,0.3-2.9,0.3-4.3,0.3l0,0c-0.5,0-0.9,0.1-1.4,0.1c-0.5,0-1,0.1-1.6,0.1c-0.2,0.1-0.4,0.2-0.6,0.3s-0.3,0.3-0.4,0.5
			c0,0.3,0,0.6,0,0.8c0,0.3,0,0.6,0.1,0.8c0,0.3,0.1,0.5,0.3,0.8s0.4,0.4,0.7,0.6c0.2,0,0.5,0,0.7,0c0.3,0,0.5,0,0.7,0l0,0
			c1.6,0,3.2-0.4,4.8-0.6l0,0c0.5-0.1,1-0.1,1.5-0.1c0.5,0,0.9,0,1.4,0l0,0c1.6-0.1,3-0.1,4.5-0.2l0,0h0.8c0.3,0,0.5,0,0.8,0.1
			c0.2-0.1,0.5-0.3,0.7-0.4c0.3-0.1,0.5-0.1,0.7-0.1c0.2-0.1,0.5-0.3,0.8-0.5c0.3-0.2,0.5-0.4,0.6-0.6
			C18.6,19.7,18.6,19.5,18.5,19.3z"/>
	</defs>
	<clipPath id="SVGID_9_">
		<use xlink:href="#SVGID_162_"  overflow="visible"/>
	</clipPath>
	
		<path clip-path="url(#SVGID_9_)" fill="none" stroke="#000000" stroke-width="6" stroke-linecap="round" stroke-linejoin="round" stroke-miterlimit="10" d="
		M0.5,20.5c1.2-0.8,15.1-0.9,15.8-0.9"/>
</g>
</svg>
