<?xml version="1.0" encoding="utf-8"?>
<!-- Generator: Adobe Illustrator 19.2.0, SVG Export Plug-In . SVG Version: 6.00 Build 0)  -->
<svg version="1.1" id="Layer_1" xmlns="http://www.w3.org/2000/svg" xmlns:xlink="http://www.w3.org/1999/xlink" x="0px" y="0px"
	 viewBox="0 0 19 36.5" enable-background="new 0 0 19 36.5" xml:space="preserve">
<g>
	<defs>
		<path id="SVGID_112_" d="M6,27c-0.8,0.1-1.5,0.1-2.2-0.1c-0.7-0.2-1.3-0.5-1.8-1c-0.5-0.4-1-1-1.3-1.6c-0.4-0.6-0.7-1.2-0.9-1.9
			c-0.2-1.4-0.1-2.7,0.2-3.9c0.3-1.2,0.6-2.2,1.1-3.2c0.5-1,1.1-1.9,1.7-2.8s1.2-1.7,1.8-2.5c0.1,0.1,0.2,0.1,0.3,0
			C4.9,10,5,9.9,5,9.8c0.1-0.1,0.1-0.2,0.2-0.3c0.1-0.1,0.2-0.2,0.3-0.2c0.1-0.2,0.2-0.3,0.3-0.5C6,8.7,6.1,8.6,6.2,8.4
			s0.3-0.2,0.4-0.4C6.7,8,6.8,7.8,6.9,7.6c0.2,0,0.3-0.1,0.5-0.2C7.5,7.3,7.7,7.2,7.8,7C7.9,6.9,8,6.8,8.2,6.7
			c0.1-0.1,0.3-0.2,0.5-0.3V6.1C9,5.8,9.3,5.6,9.5,5.3s0.4-0.6,0.7-1c0.2,0,0.4-0.1,0.5,0c0.1,0,0.3,0,0.5,0
			c0.2-0.3,0.3-0.6,0.5-0.8c0.1-0.2,0.4-0.4,0.6-0.6c0.3,0.2,0.6,0.3,0.9,0.3c0.3,0.1,0.6,0.2,0.8,0.5C14,4,14,4.2,14.2,4.3
			s0.2,0.3,0.4,0.4c0.1,0.1,0.3,0.2,0.4,0.4c0.1,0.1,0.2,0.3,0.2,0.5c0.1,0,0.1,0,0.2-0.1c0,0,0.1,0,0.2,0c0,0.2,0.1,0.3,0.1,0.4
			c0,0.1,0.1,0.2,0.1,0.3c0,0.1,0.1,0.2,0.1,0.3c0,0.1,0.1,0.2,0.1,0.4c-0.1,0.2-0.2,0.5-0.3,0.8c-0.1,0.3-0.2,0.5-0.4,0.6
			c0,0.2,0.1,0.3,0.2,0.3c0.1,0,0.2,0.1,0.2,0.2c0,0.2,0,0.4-0.1,0.5c0.5,1,1,2,1.4,3.1s0.9,2.1,1.4,3.1c0,0.3,0,0.6,0,0.9
			c0.1,0.3,0.2,0.6,0.2,0.8c0.1,0.3,0.2,0.5,0.3,0.8c0.1,0.3,0.2,0.5,0.2,0.8c0,0.4,0,0.7,0,1.2s-0.1,0.8-0.2,1.2
			c-0.1,0.4-0.3,0.7-0.4,1.1c-0.2,0.3-0.4,0.6-0.6,0.7c0,0-0.2,0-0.3,0.2c-0.2,0.1-0.4,0.3-0.6,0.5s-0.5,0.4-0.7,0.7
			s-0.5,0.5-0.6,0.6c-0.2,0.2-0.5,0.3-0.8,0.3c-0.3,0.1-0.6,0.1-0.9,0.2c-0.2,0.2-0.5,0.3-0.9,0.5c-0.3,0.2-0.7,0.3-1,0.4
			c-0.4,0.1-0.7,0.2-1,0.3s-0.6,0.1-0.9,0c-0.7,0.3-1.3,0.5-1.9,0.6C7.5,27.2,6.8,27.2,6,27z M6.6,15.6c-0.2,0.5-0.4,0.9-0.6,1.3
			c-0.2,0.4-0.4,0.8-0.6,1.2c-0.2,0.4-0.4,0.8-0.5,1.3c-0.2,0.5-0.2,1-0.3,1.6c0.3,0.3,0.7,0.6,1.2,0.6c0.5,0.1,0.9,0.1,1.4,0
			c0.5-0.1,0.9-0.1,1.4-0.2c0.5-0.1,0.9-0.2,1.3-0.2c0-0.2,0.1-0.3,0.2-0.2c0.7-0.1,1.3-0.3,1.9-0.7c0.6-0.4,1.2-0.8,1.9-1.3
			c0.1-0.3,0.2-0.5,0.3-0.7s0.2-0.4,0.2-0.8c-0.1-0.2-0.1-0.4-0.2-0.5c0-0.1,0-0.3,0-0.6c-0.4-0.8-0.8-1.6-1.1-2.5
			c-0.3-0.9-0.7-1.7-1.1-2.5c0,0.1-0.1,0.2-0.2,0.3s-0.2,0.1-0.3-0.1c-0.1,0.4-0.3,0.6-0.5,0.5c-0.3,0-0.5-0.2-0.7-0.4
			C9.6,12.5,9,13,8.5,13.6c-0.6,0.6-1.1,1.2-1.5,1.9c-0.1,0.1-0.1,0.1-0.2,0C6.8,15.5,6.7,15.5,6.6,15.6z"/>
	</defs>
	<clipPath id="SVGID_3_">
		<use xlink:href="#SVGID_112_"  overflow="visible"/>
	</clipPath>
	
		<path clip-path="url(#SVGID_3_)" fill="none" stroke="#000000" stroke-width="6" stroke-linecap="round" stroke-linejoin="round" stroke-miterlimit="10" d="
		M13.8,8c-0.7-2.6,0.7-3.3-2.7-0.5C6.7,11,0.1,20,2.5,22.9c2.7,3.3,13.1,0.2,14-3.3S12.6,9.4,11.9,9.6"/>
</g>
</svg>
