<?xml version="1.0" encoding="utf-8"?>
<!-- Generator: Adobe Illustrator 19.2.0, SVG Export Plug-In . SVG Version: 6.00 Build 0)  -->
<svg version="1.1" id="Layer_1" xmlns="http://www.w3.org/2000/svg" xmlns:xlink="http://www.w3.org/1999/xlink" x="0px" y="0px"
	 viewBox="0 0 17.8 36.5" enable-background="new 0 0 17.8 36.5" xml:space="preserve">
<g>
	<defs>
		<path id="SVGID_86_" d="M6.2,23.1c0,0.3-0.1,0.5-0.1,0.7s0,0.3,0,0.4s0,0.3,0,0.5s0.1,0.5,0.2,0.8l0.1,0.5L5.9,26
			c-0.1,0-0.3,0.1-0.5,0.3c-0.2,0.2-0.4,0.3-0.6,0.4C4.5,26.8,4.2,27,4,27.2c-0.3,0.2-0.5,0.3-0.8,0.3c-0.3-0.2-0.5-0.3-0.6-0.4
			c-0.1-0.1-0.2-0.2-0.4-0.2c-0.1-0.2-0.2-0.4-0.3-0.5c-0.1-0.2-0.2-0.4-0.3-0.5c-0.1-0.1-0.1-0.2-0.1-0.3c0,0,0-0.1,0-0.1
			c0,0,0,0-0.1,0c0,0-0.1-0.1-0.2-0.2l-0.2-0.4c0-0.2,0-0.3,0-0.5c0-0.2,0.1-0.3,0.1-0.4c0-0.1,0-0.1,0.1-0.2c0-0.1,0-0.2,0-0.2
			l-0.2-0.3l0.2-0.3c0.1-0.2,0.2-0.4,0.3-0.5c0.1-0.1,0.1-0.2,0.2-0.3l0.3-0.2c0.5,0,1-0.1,1.3-0.2c0.3,0.1,0.6,0.1,0.7,0.2
			c0.1,0.1,0.2,0.1,0.3,0.2c0.2,0.2,0.4,0.2,0.5,0.2h0.6l-0.1,0.5L6.2,23.1z"/>
	</defs>
	<clipPath id="SVGID_3_">
		<use xlink:href="#SVGID_86_"  overflow="visible"/>
	</clipPath>
	
		<path clip-path="url(#SVGID_3_)" fill="none" stroke="#000000" stroke-width="6" stroke-linecap="round" stroke-linejoin="round" stroke-miterlimit="10" d="
		M3.6,24c-0.3,0.4,0.4,1.6,0.5,1.4"/>
</g>
<g>
	<defs>
		<path id="SVGID_88_" d="M17.7,5.7C17.9,5.9,18,6,18.1,6.2c0.1,0.2,0.3,0.3,0.5,0.4c-0.1,0.5-0.1,1-0.1,1.4c0,0.5,0.1,0.9,0.1,1.5
			c-0.3,1.5-0.9,2.7-1.9,3.7c-1,0.9-2.1,1.5-3.3,1.9c0,0.2-0.1,0.3-0.2,0.4c-0.4,0.1-0.7,0.2-0.9,0.3s-0.4,0.3-0.6,0.5
			c-0.2,0.2-0.4,0.3-0.6,0.5c-0.2,0.2-0.6,0.3-1.1,0.3c-0.1,0.2-0.2,0.4-0.4,0.4c-0.2,0.1-0.3,0.1-0.5,0.1c-0.2,0-0.3,0.1-0.5,0.2
			c-0.2,0.1-0.3,0.2-0.4,0.5l-1.7,1.6c-0.5-0.1-0.9-0.2-1.3-0.2c-0.4,0-0.7,0-0.9,0c-0.2,0-0.4-0.2-0.6-0.4
			c-0.1-0.2-0.2-0.6-0.3-1.1c0-0.2,0.1-0.3,0.2-0.4S4,17.5,4,17.4c0-0.4,0.1-0.8,0.2-1s0.3-0.4,0.5-0.5c0.2-0.1,0.4-0.3,0.6-0.5
			c0.2-0.2,0.4-0.4,0.6-0.8c0.3-0.1,0.7-0.4,1.1-0.7c0.4-0.3,0.7-0.6,1.1-0.9c0.5-0.3,0.9-0.5,1.3-0.7c0.4-0.2,0.7-0.4,1-0.6
			c0.3-0.2,0.6-0.4,0.9-0.7c0.3-0.2,0.7-0.5,1.1-0.9c-0.1-0.3-0.3-0.4-0.6-0.4s-0.6,0-0.9,0c-0.6-0.2-1.2-0.3-1.7-0.3
			S7.9,9.3,7.2,9.2c-0.3,0-0.5,0-0.6,0.1s-0.3,0-0.6,0C5.9,9.4,5.7,9.5,5.6,9.5C5.4,9.6,5.3,9.6,5.1,9.7C4.9,9.7,4.7,9.8,4.6,9.8
			C4.4,9.9,4.3,9.9,4.1,10c-0.4-0.1-0.7-0.3-1-0.6C2.9,9.2,2.6,9,2.3,8.8c0-0.1,0-0.2,0.1-0.3c0.1,0,0.1-0.2,0.1-0.4
			C2.3,8.1,2.2,8,2.2,7.9c0-0.1-0.1-0.1-0.2-0.2C2,7.4,2.2,7.1,2.3,6.8c0.2-0.2,0.3-0.5,0.5-0.7C3,6,3.2,5.8,3.4,5.6
			c0.2-0.2,0.3-0.4,0.5-0.7c0.3-0.1,0.6-0.2,0.8-0.4c0.2-0.2,0.5-0.4,0.7-0.6c1.1-0.1,2.1-0.2,3.2-0.1s2,0.2,3.1,0.3
			c1,0.2,2,0.4,3,0.7C15.6,5.1,16.7,5.4,17.7,5.7z"/>
	</defs>
	<clipPath id="SVGID_5_">
		<use xlink:href="#SVGID_88_"  overflow="visible"/>
	</clipPath>
	
		<path clip-path="url(#SVGID_5_)" fill="none" stroke="#000000" stroke-width="6" stroke-linecap="round" stroke-linejoin="round" stroke-miterlimit="10" d="
		M4.5,7.6c2.2-2.2,11.9-0.3,11.9,1c0,3.8-10.1,7.6-10.6,10.2"/>
</g>
</svg>
