<?xml version="1.0" encoding="utf-8"?>
<!-- Generator: Adobe Illustrator 19.2.0, SVG Export Plug-In . SVG Version: 6.00 Build 0)  -->
<svg version="1.1" id="Layer_1" xmlns="http://www.w3.org/2000/svg" xmlns:xlink="http://www.w3.org/1999/xlink" x="0px" y="0px"
	 viewBox="0 0 11 36.5" enable-background="new 0 0 11 36.5" xml:space="preserve">
<g>
	<defs>
		<path id="SVGID_168_" d="M7.4,10.9c0.4-0.3,0.8-0.7,1.2-1.3C9,9,9.5,8.4,9.9,7.9c0.5-0.6,1-1.1,1.4-1.5c0.5-0.4,1-0.6,1.5-0.6
			c0.3,0.7,0.5,1.4,0.5,2.2c0,0.7-0.1,1.5-0.2,2.4c-0.2,0.2-0.4,0.5-0.8,0.9c-0.3,0.4-0.7,0.8-1.1,1.3c-0.4,0.5-0.8,1-1.3,1.5
			s-0.9,1-1.3,1.4c-0.4,0.5-0.7,0.9-1,1.3s-0.5,0.7-0.6,0.9c-0.3,0.3-0.7,0.7-1.1,1.3c-0.5,0.5-1,1.1-1.5,1.7
			c-0.5,0.6-1,1.2-1.5,1.8c-0.5,0.6-0.9,1.1-1.2,1.4c0,0.1,0,0.2,0.1,0.3c0.1,0.1,0.1,0.2,0.2,0.3c-0.2,0.2-0.4,0.4-0.4,0.6
			c0,0.2-0.1,0.3,0,0.5c0,0.2,0,0.4,0.1,0.5c0,0.2,0,0.4,0,0.6c-0.1,0.1-0.3,0.3-0.3,0.4c-0.1,0.2-0.2,0.3-0.3,0.5
			c-0.1,0.2-0.2,0.3-0.3,0.4c-0.1,0.1-0.3,0.3-0.5,0.4c-0.4,0-0.8-0.1-1-0.2c-0.3-0.1-0.6-0.1-0.9-0.2c-0.3-0.3-0.6-0.6-0.7-1
			c-0.1-0.4-0.2-0.8-0.2-1.3c0-0.4,0.1-0.9,0.2-1.3c0.1-0.4,0.2-0.8,0.3-1.1c0.2-0.1,0.2-0.2,0-0.3c0.1-0.3,0.2-0.5,0.4-0.7
			c0.2-0.2,0.3-0.4,0.3-0.5c0.1-0.2,0.4-0.6,0.8-1c0.4-0.5,0.8-0.9,1.3-1.5c0.5-0.5,0.9-1,1.4-1.5s0.8-0.9,1-1.2
			c0.1-0.3,0.4-0.7,0.8-1.3s0.9-1,1.4-1.6c0.5-0.5,0.9-1.1,1.3-1.5C7.2,11.6,7.4,11.2,7.4,10.9z"/>
	</defs>
	<clipPath id="SVGID_3_">
		<use xlink:href="#SVGID_168_"  overflow="visible"/>
	</clipPath>
	
		<path clip-path="url(#SVGID_3_)" fill="none" stroke="#000000" stroke-width="6" stroke-linecap="round" stroke-linejoin="round" stroke-miterlimit="10" d="
		M12.1,8.6c0,0-13.1,14.3-12,17.4"/>
</g>
</svg>
