<?xml version="1.0" encoding="utf-8"?>
<!-- Generator: Adobe Illustrator 19.2.0, SVG Export Plug-In . SVG Version: 6.00 Build 0)  -->
<svg version="1.1" id="Layer_1" xmlns="http://www.w3.org/2000/svg" xmlns:xlink="http://www.w3.org/1999/xlink" x="0px" y="0px"
	 viewBox="0 0 16.6 36.5" enable-background="new 0 0 16.6 36.5" xml:space="preserve">
<g>
	<defs>
		<path id="SVGID_124_" d="M19.8,9.5c-0.2-0.5-0.5-1-0.9-1.3c0.1-0.2,0.1-0.4,0-0.7c-0.1-0.2-0.2-0.4-0.4-0.6
			c-0.5-0.1-0.8-0.1-1-0.2c-0.2,0-0.3-0.1-0.4-0.1c-0.1,0-0.1,0-0.1,0c0,0,0,0-0.1,0c-0.1,0-0.2,0.1-0.5,0.1c-0.2,0-0.6,0.1-1.1,0.1
			c-0.2,0-0.5,0-0.8,0C14.3,7,14,7,13.7,7c-0.3,0-0.5,0.1-0.7,0.1h-0.4c-0.1,0-0.2,0-0.3,0c-0.1,0-0.3,0.1-0.5,0.1c0,0-0.1,0-0.1,0
			C9.4,7.7,6.6,7.9,5.3,10c-1.1,1.7-0.3,3.4,1.7,3.7c0.6,0.1,1.1,0,1.6-0.2l0,0C9,13.3,9.4,13.1,9.8,13s0.8-0.2,1.2-0.2
			c0.4-0.1,0.8-0.1,1.2-0.2c0.4-0.1,0.8-0.2,1.2-0.3c0.1,0,0.1,0,0.1,0s0.1,0,0.1-0.1c0,0,0,0,0.1,0c0,0,0,0.1,0,0.2
			c0.7-0.1,1.2-0.2,1.4-0.2c0.2,0,0.4-0.1,0.5-0.1c0.1,0,0.2,0,0.4-0.1c0.2,0,0.7,0,1.4-0.1c0.4-0.1,0.8-0.2,1.1-0.3
			c0.4-0.1,0.8-0.2,1.2-0.4C20,10.6,20,10,19.8,9.5z"/>
	</defs>
	<clipPath id="SVGID_3_">
		<use xlink:href="#SVGID_124_"  overflow="visible"/>
	</clipPath>
	
		<path clip-path="url(#SVGID_3_)" fill="none" stroke="#000000" stroke-width="6" stroke-linecap="round" stroke-linejoin="round" stroke-miterlimit="10" d="
		M6.4,12.4C6,9.7,17.9,9.2,17.9,9.2"/>
</g>
<g>
	<defs>
		<path id="SVGID_126_" d="M13.8,18.9c0-0.2,0-0.3,0-0.3c-0.1-0.1-0.1-0.2-0.1-0.3c-0.4-0.3-0.7-0.7-1-1.1c-0.3-0.4-0.6-0.8-0.9-1.2
			c-0.3-0.4-0.6-0.7-1-1.1c-0.4-0.3-0.8-0.5-1.4-0.7c0-0.1-0.1-0.2-0.2-0.2C9.1,14,9.1,13.9,9,13.9c-0.1,0-0.2-0.1-0.3-0.2
			c0,0,0-0.1-0.1-0.1c-1.5-0.5-2.2-2.2-1.5-3.7c0.4-0.8,1.2-1.3,2-1.6c0.6-0.3,1.3-0.5,1.9-0.8c0.3-0.2,0.5-0.3,0.4-0.4
			c-0.2,0-0.5-0.1-0.7-0.2c-0.3-0.2-0.5-0.4-0.8-0.6C9.8,6.2,9.6,5.9,9.4,5.7C9.2,5.4,8.9,5.2,8.7,5C7.3,5.5,6,6.2,4.7,7
			c-1.3,0.8-2.4,1.8-3.2,3c-0.1,0.4-0.1,0.7-0.2,1c0,0.3-0.1,0.6-0.1,0.9c0,0.3,0,0.6-0.1,0.9c0,0.3,0,0.6-0.1,0.9
			c0,0.3,0.1,0.5,0.2,0.8c0.1,0.2,0.2,0.5,0.4,0.7c0.2,0.2,0.3,0.5,0.5,0.7c0.2,0.2,0.3,0.4,0.5,0.7c0.8,0.4,1.7,0.8,2.5,1.2
			c0.9,0.4,1.8,0.7,2.6,0.9c0.2,0.2,0.5,0.4,0.8,0.6c0.4,0.2,0.7,0.3,0.9,0.3c0,0.1,0,0.2,0,0.3c0,0.1,0.1,0.1,0.2,0.2
			c0.1,0.1,0.1,0.1,0.2,0.2c0.1,0.1,0.1,0.1,0.1,0.3c-0.1,0.1-0.2,0.2-0.3,0.3c-0.1,0.1-0.3,0.1-0.4,0.2C9.3,20.9,9.1,21,9,21.1
			c-0.1,0.1-0.2,0.2-0.2,0.3c-1.3,0.2-2.5,0.3-3.6,0.3C4.1,21.6,3,21.5,2,21.4c-0.1,0.1-0.2,0.2-0.3,0.2c-0.1,0-0.2,0.1-0.3,0.1
			c-0.3,0.5-0.4,1.1-0.2,1.7c0.1,0.6,0.4,1.1,0.9,1.4c0.1,0.4,0.2,0.7,0.5,1c0.3,0.3,0.6,0.4,0.9,0.6c0.4,0.1,0.8,0.2,1.2,0.3
			c0.4,0.1,0.9,0.1,1.3,0C6.6,27,7.1,27.1,7.6,27c0.5-0.1,1-0.2,1.5-0.4c0.1,0,0.2,0.1,0.3,0c0.1,0,0.3,0,0.4,0.1
			c0.3-0.2,0.7-0.4,1.2-0.5c0.4-0.1,0.9-0.3,1.4-0.5c0.6-0.5,1.1-1,1.4-1.4c0.4-0.5,0.7-1,0.9-1.6c0.1-0.8,0.1-1.6-0.1-2.2
			S14.2,19.3,13.8,18.9z"/>
	</defs>
	<clipPath id="SVGID_5_">
		<use xlink:href="#SVGID_126_"  overflow="visible"/>
	</clipPath>
	
		<path clip-path="url(#SVGID_5_)" fill="none" stroke="#000000" stroke-width="6" stroke-linecap="round" stroke-linejoin="round" stroke-miterlimit="10" d="
		M8.8,7.7c-0.9,0.4-7.7,3.9-5.3,6.1c2.5,2.2,10.8,4.7,9.8,7.2c-1.2,3-6.6,4.1-10.1,2.9"/>
</g>
</svg>
