<?xml version="1.0" encoding="utf-8"?>
<!-- Generator: Adobe Illustrator 19.2.0, SVG Export Plug-In . SVG Version: 6.00 Build 0)  -->
<svg version="1.1" id="Layer_1" xmlns="http://www.w3.org/2000/svg" xmlns:xlink="http://www.w3.org/1999/xlink" x="0px" y="0px"
	 viewBox="0 0 18.2 36.5" enable-background="new 0 0 18.2 36.5" xml:space="preserve">
<g>
	<defs>
		<path id="SVGID_118_" d="M1.8,6.5C2.9,6.3,4,6.1,5.1,5.9c1.1-0.2,2.2-0.4,3.3-0.6c1.1-0.2,2.2-0.3,3.4-0.3c1.1-0.1,2.4,0,3.6,0.1
			c0.5,0.5,0.9,1.1,1.3,1.7c0.4,0.6,0.7,1.3,1.1,1.9c0,0.1-0.1,0.3-0.1,0.4c0,0.1,0,0.3-0.1,0.5c-0.1,0.3-0.2,0.5-0.4,0.7
			s-0.3,0.5-0.4,0.7c-0.5,0.3-1,0.6-1.4,0.9c-0.5,0.3-0.9,0.7-1.3,1c-0.4,0.2-0.7,0.3-1.1,0.4c-0.4,0.1-0.7,0.4-0.9,0.7
			c0.7,0.3,1.2,0.6,1.7,1c0.5,0.4,0.9,0.9,1.3,1.4c0.4,0.5,0.7,1,1,1.6c0.3,0.6,0.5,1.2,0.8,1.8c0,0.3-0.1,0.6-0.2,0.9
			c-0.1,0.3-0.1,0.6,0,0.8c-0.1,0.4-0.3,0.8-0.6,1c-0.2,0.3-0.5,0.6-0.7,1c-0.7,0.3-1.3,0.7-1.7,1.3c-0.2,0-0.3,0-0.3-0.1
			c-0.6,0.4-1.3,0.8-2.2,1.1c-0.8,0.3-1.7,0.5-2.7,0.7c-0.9,0.2-1.9,0.3-3,0.3c-1,0-2.1,0-3.1-0.1c-0.1-0.1-0.2-0.1-0.2-0.2
			c-0.1-0.1-0.2-0.1-0.4-0.1c-0.1-0.2-0.2-0.4-0.3-0.5s-0.2-0.3-0.3-0.5c0.2-0.3,0.3-0.7,0.4-1.1c0.1-0.4,0.2-0.8,0.2-1.2
			s0.2-0.7,0.4-1.1c0.2-0.3,0.4-0.5,0.8-0.7c0.2,0,0.3,0,0.3,0.2c0,0.1,0.1,0.2,0.2,0.2c0.8,0,1.6,0,2.4,0c0.8,0,1.5-0.1,2.2-0.2
			c0.7-0.1,1.4-0.3,2-0.5c0.6-0.2,1.1-0.5,1.6-0.9c-0.6-0.5-1.3-0.8-2.1-1.1c-0.8-0.3-1.6-0.5-2.3-0.7s-1.4-0.5-2-0.9
			s-1-0.9-1.1-1.6c0.1-0.5,0.2-0.9,0.2-1.2s0.1-0.7,0.2-1c0.1-0.3,0.2-0.6,0.3-0.9c0.1-0.3,0.3-0.5,0.6-0.8c-0.1-0.1-0.2-0.1-0.4,0
			c-0.2,0-0.4,0.1-0.6,0.2c-0.2,0.1-0.4,0.2-0.6,0.2c-0.2,0.1-0.4,0.2-0.5,0.2c-0.4-0.1-0.8-0.2-1.3-0.2c-0.4,0-0.8-0.2-1.2-0.4
			c0-0.2-0.1-0.5-0.2-0.7c-0.1-0.3-0.1-0.5-0.1-0.8c0-0.3,0-0.6,0.1-0.8C0.6,9,0.7,8.7,0.9,8.5c0-0.1-0.1-0.3-0.1-0.4
			c0-0.1-0.1-0.3-0.1-0.4c0.2-0.2,0.5-0.4,0.7-0.5C1.7,7,1.8,6.8,1.8,6.5z"/>
	</defs>
	<clipPath id="SVGID_3_">
		<use xlink:href="#SVGID_118_"  overflow="visible"/>
	</clipPath>
	
		<path clip-path="url(#SVGID_3_)" fill="none" stroke="#000000" stroke-width="6" stroke-linecap="round" stroke-linejoin="round" stroke-miterlimit="10" d="
		M2.3,9.4c0,0,9.1-2.7,12.5-1.7S6,13.2,6.4,14.6s7.8,1.5,7.8,5.7c-0.1,4.2-11,3.7-11,3.7"/>
</g>
</svg>
