<?xml version="1.0" encoding="utf-8"?>
<!-- Generator: Adobe Illustrator 19.2.0, SVG Export Plug-In . SVG Version: 6.00 Build 0)  -->
<svg version="1.1" id="Layer_1" xmlns="http://www.w3.org/2000/svg" xmlns:xlink="http://www.w3.org/1999/xlink" x="0px" y="0px"
	 viewBox="0 0 16.2 36.5" enable-background="new 0 0 16.2 36.5" xml:space="preserve">
<g>
	<defs>
		<path id="SVGID_50_" d="M10.7,8.2c0.8,0.1,1.6,0.3,2.3,0.5s1.2,0.6,1.7,1c0.3,0.5,0.6,1,0.9,1.6s0.5,1.2,0.7,1.8s0.2,1.3,0.2,1.9
			c0,0.7-0.2,1.3-0.4,2c-0.6,0.7-1.3,1.3-2.1,1.8c-0.8,0.5-1.7,0.8-2.7,1.1c-1,0.3-2,0.5-3,0.7c-1,0.2-2,0.4-3,0.6
			c0,0.5,0,0.9,0,1.5s-0.1,1-0.2,1.5c-0.1,0.5-0.2,1-0.4,1.5c-0.2,0.5-0.4,0.9-0.7,1.3c-0.3,0-0.7,0-1.1,0.1c-0.4,0.1-0.7,0.2-1,0.2
			c-0.1-0.1-0.3-0.2-0.4-0.2c-0.1-0.1-0.3-0.1-0.5-0.1c0-0.2,0-0.4-0.2-0.6c-0.1-0.2-0.3-0.4-0.4-0.6c-0.1-0.2-0.2-0.4-0.3-0.6
			c-0.1-0.2,0-0.4,0.3-0.6c-0.1-0.1-0.2-0.3-0.2-0.5c0.1-0.2,0.3-0.6,0.4-1c0.1-0.4,0.2-0.8,0.3-1.3c0.1-0.4,0.1-0.8,0-1.1
			c0-0.3-0.2-0.6-0.6-0.8c0,0,0.1-0.1,0.1-0.1c0.1,0,0.1,0,0.2,0c-0.2-0.1-0.3-0.3-0.3-0.5s-0.1-0.4-0.2-0.6c0-0.1,0.1-0.2,0.1-0.3
			c0-0.1,0.1-0.1,0.2-0.1c-0.1-0.4-0.1-0.7,0-1c0.1-0.3,0.2-0.6,0.3-0.9c0.1-0.3,0.3-0.6,0.5-0.9c0.2-0.3,0.4-0.6,0.6-0.8
			c0.1,0,0.2,0,0.3,0.1c0,0.1,0.1,0.1,0.2,0c0.3-0.2,0.4-0.4,0.5-0.6c0.1-0.2,0.2-0.5,0.2-0.8c0.1-0.4,0.3-0.8,0.5-1.3
			c0.2-0.4,0.4-0.8,0.7-1.2c0.2-0.4,0.5-0.7,0.8-1c0.3-0.3,0.6-0.5,0.9-0.6c0.2-0.2,0.5-0.4,0.9-0.6c0.4-0.2,0.8-0.3,1.2-0.4
			c0.4-0.1,0.8-0.1,1.3-0.2c0.4,0,0.8,0,1.2,0.1c0.1,0,0.2,0,0.2-0.1C10.6,8.2,10.6,8.2,10.7,8.2z M9.4,15.4c0.5-0.2,1-0.4,1.6-0.5
			c0.6-0.1,1.1-0.4,1.4-0.7c-0.2-0.2-0.6-0.4-1.1-0.6c-0.5-0.2-1-0.3-1.5-0.3c-0.5,0-1.1,0-1.6,0.1c-0.6,0.1-1,0.4-1.4,0.7
			c-0.1,0.4-0.2,0.6-0.3,0.9c-0.1,0.2-0.2,0.5-0.3,0.8c0,0.1,0.1,0.2,0.2,0.2C6.5,16,6.6,16,6.6,16.2c0.5-0.2,0.9-0.4,1.4-0.4
			C8.5,15.7,9,15.6,9.4,15.4z"/>
	</defs>
	<clipPath id="SVGID_3_">
		<use xlink:href="#SVGID_50_"  overflow="visible"/>
	</clipPath>
	
		<path clip-path="url(#SVGID_3_)" fill="none" stroke="#000000" stroke-width="6" stroke-linecap="round" stroke-linejoin="round" stroke-miterlimit="10" d="
		M2.2,25.3c0.4-0.6,1.5-11.6,4.2-13.7c3.1-2.5,8.7,0.2,7.7,3.4c-0.9,2.8-7.1,4.6-11.5,3.6l-1.2-0.2"/>
</g>
</svg>
