<?xml version="1.0" encoding="utf-8"?>
<!-- Generator: Adobe Illustrator 19.2.0, SVG Export Plug-In . SVG Version: 6.00 Build 0)  -->
<svg version="1.1" id="Layer_1" xmlns="http://www.w3.org/2000/svg" xmlns:xlink="http://www.w3.org/1999/xlink" x="0px" y="0px"
	 viewBox="0 0 16.7 36.5" enable-background="new 0 0 16.7 36.5" xml:space="preserve">
<g>
	<defs>
		<path id="SVGID_56_" d="M16.6,26.8c-0.1,0-0.1,0-0.1-0.1c0.1-0.1,0.2-0.3,0.2-0.6c0-0.2,0-0.5,0-0.7c0-0.3-0.1-0.5-0.3-0.8
			c-0.1-0.3-0.3-0.5-0.5-0.6c-0.5,0-0.8-0.1-1.1-0.1c-0.3,0-0.5-0.1-0.7-0.1c-0.2,0-0.5-0.1-0.8-0.2c-0.3-0.1-0.7-0.2-1.2-0.3
			s-0.9-0.2-1.2-0.3c-0.3-0.1-0.6-0.2-0.8-0.3s-0.5-0.3-0.8-0.5c-0.3-0.2-0.7-0.4-1.1-0.7c0-0.1,0-0.2-0.1-0.2c-0.1,0-0.1,0-0.1-0.1
			c0.7-0.3,1.4-0.5,2.2-0.8s1.6-0.5,2.3-0.9c0.7-0.4,1.3-0.8,1.9-1.3c0.5-0.5,0.8-1.3,0.9-2.1c0-0.1,0-0.3,0-0.3
			c0-0.1,0-0.2-0.1-0.2c0-0.1,0-0.2,0-0.2s0-0.2,0.1-0.3c-0.2-0.3-0.3-0.6-0.4-1s-0.2-0.7-0.4-1c-0.1-0.3-0.3-0.6-0.4-0.9
			c-0.2-0.3-0.3-0.5-0.6-0.8V11c-0.2-0.1-0.3-0.2-0.4-0.3c-0.1-0.1-0.2-0.2-0.4-0.3c-0.3-0.5-0.7-0.9-1.2-1.2
			C10.9,9,10.4,8.7,10,8.4C9.2,8.4,8.6,8.7,8.1,9.1s-1,0.9-1.4,1.4c-0.4,0.5-0.8,1.1-1.2,1.7c-0.4,0.5-0.9,1.1-1.4,1.5
			c-0.5,1.3,0,2.6,1.1,3.6c0.6,0.5,0.6,0.2,0,0.7c-1.3,1.2-2.1,2.5-1.4,4.3C4,23,4.5,23.4,4.9,23.9l0,0c0.4,0.3,0.7,0.6,1,0.9
			c0.3,0.2,0.6,0.5,0.9,0.7c0.3,0.2,0.7,0.4,1.2,0.6c0.5,0.2,1,0.5,1.8,0.7c1.4,0.6,2.6,0.9,3.6,1.2c0.9,0.2,1.7,0.2,2.4,0
			c0.2,0,0.3-0.1,0.4-0.2c0.1-0.1,0.2-0.2,0.3-0.3c0.1-0.1,0.2-0.2,0.2-0.4c0.1-0.1,0.2-0.2,0.3-0.3C16.8,26.8,16.7,26.8,16.6,26.8z
			 M6.6,17.3c0.1-0.4,0.2-0.8,0.4-1.2c0.2-0.3,0.4-0.6,0.7-0.9s0.5-0.5,0.8-0.8c0.3-0.3,0.5-0.6,0.7-0.9c0.4,0.1,0.7,0.4,1.1,0.8
			c0.4,0.4,0.6,0.9,0.6,1.5c-0.7,0.3-1.4,0.6-2.2,0.9C8,17,7.3,17.2,6.6,17.3z"/>
	</defs>
	<clipPath id="SVGID_3_">
		<use xlink:href="#SVGID_56_"  overflow="visible"/>
	</clipPath>
	
		<path clip-path="url(#SVGID_3_)" fill="none" stroke="#000000" stroke-width="6" stroke-linecap="round" stroke-linejoin="round" stroke-miterlimit="10" d="
		M5.8,14.9c0-1.1,3-3.9,3.7-4.1s5.4,4.2,3.9,5.7S5.3,21,5.3,21.3c0,0.3,1.3,3.7,8.9,4.6"/>
</g>
<g>
	<defs>
		<path id="SVGID_58_" d="M4.9,23.9c0.4-1.7,0.8-3.5,0.8-5.2c0-2-0.8-3.4-1.6-5l0,0c-0.1-0.1-0.2-0.3-0.5-0.3S3,13.2,2.8,13.3
			c-0.2,0.4-0.4,0.9-0.5,1.4c-0.1,0.5-0.2,1.1-0.3,1.6c-0.1,0.5-0.2,1.1-0.4,1.6c-0.1,0.6-0.3,1.1-0.5,1.6c0,0.1,0,0.2,0,0.4
			c0,0.2,0,0.3,0,0.5S1.1,20.7,1,20.8c0,0.1-0.1,0.1-0.2,0C1,21.1,1,21.4,0.9,21.7c-0.1,0.3-0.1,0.6-0.2,0.8
			c-0.1,0.3-0.2,0.6-0.2,0.9c-0.1,0.3-0.1,0.7-0.2,1c0.1,0.1,0.2,0.3,0.2,0.4s0.1,0.2,0.2,0.2c0,0.1-0.1,0.3,0,0.3
			c0,0.1,0,0.2,0.1,0.3c0,0.1,0.1,0.2,0.1,0.3c0,0.1,0,0.2,0,0.4c0.2,0,0.4,0,0.4,0.2s0.1,0.3,0.1,0.5c0.2,0,0.3,0,0.4,0.1
			c0.1,0,0.2,0.1,0.2,0.2c0.1,0.1,0.1,0.1,0.2,0.1c0.1,0,0.2,0,0.4,0c0.1-0.1,0.2-0.2,0.3-0.3C3.1,27,3.3,27,3.5,27
			c0.3-0.4,0.6-0.9,0.8-1.3C4.5,25.3,4.6,24.7,4.9,23.9L4.9,23.9z"/>
	</defs>
	<clipPath id="SVGID_5_">
		<use xlink:href="#SVGID_58_"  overflow="visible"/>
	</clipPath>
	
		<path clip-path="url(#SVGID_5_)" fill="none" stroke="#000000" stroke-width="6" stroke-linecap="round" stroke-linejoin="round" stroke-miterlimit="10" d="
		M3.8,15.1c0.1,0.6-1.5,9.6-1.7,9.9"/>
</g>
</svg>
