<?xml version="1.0" encoding="utf-8"?>
<!-- Generator: Adobe Illustrator 19.2.0, SVG Export Plug-In . SVG Version: 6.00 Build 0)  -->
<svg version="1.1" id="Layer_1" xmlns="http://www.w3.org/2000/svg" xmlns:xlink="http://www.w3.org/1999/xlink" x="0px" y="0px"
	 viewBox="0 0 23.9 36.5" enable-background="new 0 0 23.9 36.5" xml:space="preserve">
<g>
	<defs>
		<path id="SVGID_164_" d="M15.1,13.2C15.1,13.2,15.1,13.2,15.1,13.2c-0.1,0-0.1,0-0.2,0c-0.1,0-0.1-0.1-0.2-0.2
			c0,0.1-0.1,0.1-0.2,0c-0.1-0.1-0.2-0.1-0.3-0.1c-0.1,0-0.2,0.1-0.3,0.1s-0.2,0-0.3,0c-0.1,0.2-0.4,0.4-0.7,0.6
			c-0.3,0.1-0.6,0.3-0.7,0.5c-0.3,0.1-0.5,0.2-0.7,0.3c-0.2,0.1-0.4,0.3-0.6,0.4c-0.2,0.1-0.4,0.3-0.6,0.4c-0.2,0.1-0.4,0.3-0.7,0.3
			c-0.1,0.2-0.3,0.3-0.5,0.5c-0.2,0.1-0.4,0.3-0.6,0.5c-0.3,0.4-0.6,0.8-0.9,1.2c-0.3,0.4-0.5,0.8-0.6,1.3c0,0.3,0.1,0.6,0.2,1
			s0.2,0.7,0.4,1c0.2,0.3,0.4,0.6,0.6,0.8c0.3,0.3,0.5,0.5,0.9,0.6c0.2,0,0.4,0.1,0.5,0.1c0.1,0.1,0.3,0.2,0.5,0.3
			c0.6,0.1,1.3,0.1,2.1,0.1c0.7,0,1.5,0,2.2-0.1c0.2-0.1,0.5-0.2,0.8-0.2c0.3,0,0.6-0.1,0.8-0.1c0.1-0.1,0.1-0.1,0.2-0.2
			c0.1,0,0.1-0.1,0.2-0.1l0,0c0.6-0.7,0.6-1.8,0-2.5c-0.7-0.8-1.6-0.5-2.5-0.5l0,0c-0.4,0-0.8,0.1-1.2,0.1c-0.4,0-0.8,0-1.2,0
			c-0.1-0.1-0.1-0.1-0.2-0.2c-0.1-0.1-0.1-0.1-0.1-0.2c0-0.1,0.1-0.1,0.1-0.2s0-0.1,0-0.2c0.2-0.2,0.4-0.4,0.6-0.7s0.5-0.4,0.8-0.6
			c0.1-0.1,0.2-0.3,0.4-0.4c0.2-0.1,0.3-0.2,0.5-0.3l0,0c0.4-0.2,0.8-0.2,1.2-0.5c0.5-0.4,0.7-1.1,0.6-1.7
			C15.7,14.1,15.6,13.3,15.1,13.2z"/>
	</defs>
	<clipPath id="SVGID_3_">
		<use xlink:href="#SVGID_164_"  overflow="visible"/>
	</clipPath>
	
		<path clip-path="url(#SVGID_3_)" fill="none" stroke="#000000" stroke-width="6" stroke-linecap="round" stroke-linejoin="round" stroke-miterlimit="10" d="
		M13.7,14.8c-0.8,0.3-11.6,7.2,0.5,6.4"/>
</g>
<g>
	<defs>
		<path id="SVGID_166_" d="M23,13.9c-0.5-1-1-2-1.5-2.9c-0.5-0.9-1.1-1.8-1.8-2.6c-0.1-0.1-0.1-0.1-0.1-0.2c0,0,0-0.1,0.1-0.1
			c0,0,0.1-0.1,0.1-0.1c0,0,0.1-0.1,0.1-0.1c-0.6-0.7-1.2-1.3-1.9-1.9c-0.7-0.6-1.5-1-2.5-1.4c-0.1,0-0.1,0.1-0.2,0.1
			c0,0-0.1,0.1-0.2,0.1C15,4.9,15,4.9,14.9,5c-0.1,0-0.2,0-0.3,0c-0.5-0.2-1-0.3-1.4-0.3c-0.4,0.1-0.7,0.2-1,0.5
			c-0.2,0.2-0.4,0.5-0.4,0.9c0,0.4,0.1,0.7,0.3,1.1h-0.6C11.6,7.6,11.4,8,11,8.4C10.7,8.7,10.3,9,9.9,9.2C9.5,9.5,9,9.8,8.6,10
			s-0.7,0.6-0.9,1c-0.2,0-0.3,0-0.5,0.1c-0.2,0.1-0.3,0.2-0.5,0.4c-0.2,0.2-0.3,0.3-0.4,0.5c-0.1,0.2-0.2,0.3-0.2,0.4
			c-0.2,0-0.3,0-0.4,0c0,0.1-0.1,0.1-0.2,0c-0.5,0.5-1,0.9-1.6,1.4c-0.5,0.5-1,1-1.5,1.6c-0.5,0.6-0.8,1.2-1.2,1.9
			c-0.3,0.7-0.5,1.5-0.5,2.3c0.1,0.2,0.1,0.3,0.2,0.5c0.1,0.2,0.1,0.3,0.2,0.5c-0.1,0.3-0.1,0.6-0.1,0.8c0,0.2,0.1,0.4,0.1,0.6
			c0,0.2,0.1,0.4,0.2,0.7c0,0.2,0.1,0.5,0.1,0.8c0.2,0.3,0.5,0.6,0.9,1c0.4,0.4,0.7,0.7,1.1,1c0.4,0.3,0.8,0.6,1.3,0.9
			C5.2,26.6,5.6,26.8,6,27c0.4,0.3,0.8,0.5,1.3,0.6c0.2,0,0.3,0.1,0.5,0.1c0.2,0,0.4,0,0.5,0.1c0.3,0.1,0.7,0.2,1.4,0.2
			c0.3,0.1,0.6,0.1,0.9,0.1c0.2,0,0.6,0.1,1,0.2c0.7-0.1,1.5-0.1,2.3,0s1.5,0.1,2.3,0.1c0.7,0,1.4-0.1,2-0.2
			c0.6-0.1,1.2-0.4,1.7-0.8c0.1-0.1,0.1-0.3,0.1-0.4c0-0.1,0-0.2,0.1-0.4c-0.2-0.1-0.4-0.3-0.5-0.5c-0.2-0.2-0.4-0.5-0.5-0.8
			c-0.2-0.3-0.4-0.5-0.6-0.8S18,24,17.8,23.8c-0.1,0.1-0.1,0.2-0.1,0.2c0,0.1,0,0.1,0,0.3c-0.5,0.1-1.1,0.2-1.6,0.2
			c-0.6,0.1-1.2,0.1-1.9,0.1c-0.8,0-1.5,0-2.3-0.1c-0.8,0-1.6-0.1-2.7-0.1c-0.4-0.2-0.8-0.3-1.2-0.3c-0.4-0.1-0.8-0.2-1.3-0.3
			c0,0,0-0.1-0.1-0.3L5.6,23c-0.2-0.1-0.4-0.1-0.7-0.2c-0.2,0-0.5-0.1-0.7-0.2c-0.2-0.1-0.3-0.1-0.3-0.2c0.4-1.5,1-2.9,1.7-4.1
			c0.8-1.2,1.6-2.2,2.6-3.1c1-1.1,2.1-2.2,3.3-3c1.2-0.9,2.4-1.8,3.6-2.7c0.1,0.1,0.2,0.1,0.3,0.1c0.1,0,0.1,0,0.2-0.1
			c0,0,0.1-0.1,0.2-0.1s0.1,0,0.2,0c0.4,0.2,0.8,0.5,1.2,1c0.4,0.5,0.7,1,1,1.5c0.3,0.6,0.6,1.1,0.9,1.7c0.3,0.6,0.5,1.1,0.7,1.6
			c-0.1,0.3-0.1,0.5-0.1,0.8c0,0.2,0,0.5,0,0.7c0,0.2,0,0.4-0.1,0.6c0,0.2-0.1,0.4-0.2,0.6l0.2,0.5c-0.2,0.3-0.4,0.6-0.6,0.8
			s-0.4,0.3-0.5,0.4c-0.2,0.1-0.4,0.2-0.5,0.2c-0.2,0-0.4-0.1-0.5-0.2c-0.1-0.1-0.2-0.2-0.3-0.4C17,19,17,18.9,17,18.7
			c0-0.2-0.1-0.3-0.1-0.5c-0.1-0.3,0-0.7,0.1-1.3c0.1-0.6,0.3-1.3,0.6-2.1c0-0.1,0-0.1,0-0.2c0,0,0-0.1,0-0.1v-0.3
			c0-0.1,0-0.1,0-0.2v-0.4c0-0.1-0.1-0.2-0.1-0.3c0,0,0-0.1,0-0.3c0-0.2-0.1-0.3-0.1-0.4c-0.1-0.1-0.1-0.2-0.2-0.2l-0.5-0.5l-0.3,0
			l-0.6,0.4l-0.4,0.3c0,0.1-0.1,0.2-0.2,0.3c-0.1,0.1-0.2,0.2-0.3,0.3l0,0c-0.7,0.8-1,2.2-1.2,3.4l0,0c0,0.1,0,0.2-0.1,0.3
			c0,0.1,0,0.2-0.1,0.3c0,0.1,0,0.1,0,0.2c0,0.1,0,0.1,0,0.2c-0.1,0.6,0,1.2,0.3,1.7l0,0c0.6,1.2,1.4,2.2,2.5,2.9
			c0.3,0.1,0.6,0.2,0.9,0.2c0.3,0,0.7,0,1.1,0c0.2,0,0.5-0.2,0.9-0.4c0.4-0.3,0.9-0.6,1.3-1c0.4-0.4,0.9-0.8,1.2-1.2
			s0.7-0.8,0.8-1.1c0.2-0.9,0.3-1.7,0.3-2.4C23.1,15.5,23.1,14.7,23,13.9z"/>
	</defs>
	<clipPath id="SVGID_5_">
		<use xlink:href="#SVGID_166_"  overflow="visible"/>
	</clipPath>
	
		<path clip-path="url(#SVGID_5_)" fill="none" stroke="#000000" stroke-width="6" stroke-linecap="round" stroke-linejoin="round" stroke-miterlimit="10" d="
		M16.6,14c-0.6,1.1-1.2,2.2-1.3,3.4c-0.1,1.2,0.4,2.6,1.5,3.1c1.1,0.5,2.4,0,3.2-0.9c1.5-1.5,1.8-4,1-6s-1.8-4-3.6-5.2
		C17,8,15.8,6.9,15.2,6.8c-0.8-0.1-2.1,1.2-2.9,1.6c-2.1,1.2-3.6,2.7-5.4,4.2s-3.4,3.4-4.1,5.7c-0.6,1.7-0.6,3.7,0.6,5
		C4.1,24.1,5,24.5,6,24.9c3.7,1.3,8.2,2,11.9,1.1"/>
</g>
</svg>
