<?xml version="1.0" encoding="utf-8"?>
<!-- Generator: Adobe Illustrator 19.2.0, SVG Export Plug-In . SVG Version: 6.00 Build 0)  -->
<svg version="1.1" id="Layer_1" xmlns="http://www.w3.org/2000/svg" xmlns:xlink="http://www.w3.org/1999/xlink" x="0px" y="0px"
	 viewBox="0 0 18.9 36.5" enable-background="new 0 0 18.9 36.5" xml:space="preserve">
<g>
	<defs>
		<path id="SVGID_130_" d="M15.7,9.9c0-0.1,0.1-0.1,0.1-0.1c0,0,0.1-0.1,0.1-0.2c0,0-0.1-0.1-0.1-0.1c-0.1,0-0.1,0-0.2,0
			c-0.1,0-0.1,0-0.2,0c0,0,0-0.1,0.2-0.2c0-0.1,0-0.2,0.1-0.2c0,0,0-0.1,0-0.2c-0.5-0.3-0.9-0.7-1.2-1.1c-0.3-0.5-0.6-1-0.9-1.5
			c-0.4-0.1-0.7-0.2-1-0.4c-0.3-0.1-0.6-0.2-0.8-0.3s-0.6-0.2-0.8-0.2c-0.3,0-0.6,0-1,0c0-0.1-0.1-0.2-0.2-0.3
			c-0.1,0-0.2-0.1-0.3-0.1c-0.1,0-0.2,0-0.4,0c-0.1,0-0.3,0-0.4,0C8.4,5,8.1,4.9,7.9,4.9C7.7,4.8,7.5,4.8,7.3,4.8
			c-0.2,0-0.5,0-0.7,0c-0.3,0-0.6,0-1,0.1c-0.1,0-0.1,0-0.2,0c0,0-0.1-0.1-0.1-0.1c0,0,0-0.1-0.1-0.1s-0.1,0-0.2,0
			C4.7,4.7,4.5,4.8,4.4,4.8C4.2,4.9,4.1,4.9,4,4.9C3.9,5,3.8,5,3.6,5C3.4,5,3.1,5,2.7,5.1C2.5,5.2,2.3,5.3,2.1,5.5
			C2,5.7,1.8,5.8,1.6,5.8C1.5,5.8,1.5,5.9,1.5,6c0,0.1,0,0.1,0,0.2c0,0.1,0,0.1-0.1,0.2c0,0-0.1,0.1-0.3,0.1c0.1,0.5,0,1,0,1.5
			C1,8.5,0.9,8.9,0.8,9.2C0.9,9.4,1,9.5,1.1,9.6c0.1,0.1,0.2,0.2,0.2,0.3c0,0.1,0.1,0.2,0.1,0.3c0,0.1,0,0.2-0.1,0.3
			c0.4,0.1,0.8,0.1,1.1,0.1c0.3,0,0.7-0.1,1-0.1c0.3-0.1,0.7-0.1,1.1-0.2c0.4-0.1,0.8-0.1,1.4,0c0.5,0.1,1,0.2,1.5,0.2
			c0.5,0,1,0.1,1.4,0.1c0.5,0.1,0.9,0.2,1.3,0.3c0.4,0.1,0.8,0.4,1.2,0.8c-0.1,0.3,0,0.4,0.1,0.5s0.1,0.3,0.1,0.5
			c-0.1,0.4-0.2,0.8-0.4,1.1c-0.2,0.4-0.3,0.7-0.3,1.1l0,0c-0.4,0.9-1.3,1.7-1.9,2.5c-0.8,1-1.3,2.2-1.9,3.3l0,0
			c-0.4,0.7-0.7,1.4-1,2.3c-0.3,0.9-0.4,1.7-0.5,2.6c0.3,0.1,0.5,0.2,0.6,0.5C6,26,5.9,26.2,6,26.4C6,26.5,6,26.7,6,26.9
			c0.2,0,0.5,0,0.6,0c0.2,0,0.4,0,0.5,0s0.3,0,0.5,0S8.1,27,8.4,27c0.4,0,0.7-0.2,0.9-0.4c0.2-0.3,0.3-0.5,0.4-0.8
			c0.1-0.3,0.2-0.6,0.3-0.9c0.1-0.3,0.3-0.5,0.5-0.6c0-0.1,0-0.2-0.1-0.3c-0.1,0-0.1-0.1-0.1-0.2c0.2-0.2,0.4-0.5,0.5-0.7
			c0.2-0.3,0.3-0.5,0.5-0.8c0.2-0.3,0.3-0.5,0.5-0.8c0.2-0.2,0.4-0.4,0.6-0.6c0-0.2,0-0.4,0.1-0.5c0.1-0.1,0.2-0.3,0.3-0.4
			c0.1-0.1,0.2-0.2,0.3-0.3c0.1-0.1,0.2-0.2,0.3-0.3c0.5-0.9,1.1-1.8,1.5-2.8c0.3-0.8,0.5-1.5,0.7-2.3c0,0,0,0,0,0
			c0-0.4,0-0.8,0-1.2c0.1-0.4,0.1-0.9,0.2-1.3c0-0.4,0.1-0.8,0.1-1.1C15.9,10.4,15.8,10.2,15.7,9.9z"/>
	</defs>
	<clipPath id="SVGID_3_">
		<use xlink:href="#SVGID_130_"  overflow="visible"/>
	</clipPath>
	
		<path clip-path="url(#SVGID_3_)" fill="none" stroke="#000000" stroke-width="6" stroke-linecap="round" stroke-linejoin="round" stroke-miterlimit="10" d="
		M3.1,8.3c1.1-1.7,9.8-0.5,10.7,1.6S7.8,22.8,7.8,24.6"/>
</g>
<g>
	<defs>
		<path id="SVGID_132_" d="M19.8,16.7c-0.1,0-0.2,0-0.2,0c0-0.1-0.1-0.1-0.3,0c-0.1-0.1-0.2-0.2-0.1-0.2c0-0.1,0.1-0.1,0.2-0.2
			c0.1-0.1,0.2-0.1,0.3-0.2c0.1-0.1,0.1-0.2,0.1-0.3c-0.2-0.2-0.3-0.3-0.5-0.4C19.1,15.2,19,15,19,14.7c-0.6,0-1,0-1.3,0
			s-0.4,0-0.5,0s-0.3,0-0.5,0s-0.5-0.1-1.1-0.2l0,0c-1.6,0-3.3,0.2-4.8,0.4l0,0c-0.3,0.1-0.6,0.2-0.9,0.2c-0.3,0.1-0.6,0.1-1,0
			c-0.6,0.3-1.2,0.4-1.8,0.5S6,15.6,5.4,15.6c-0.6,0.1-1.1,0.2-1.6,0.5c-0.5,0.2-0.9,0.7-1.1,1.3c-0.1,0.2-0.1,0.2,0,0.3
			c0.1,0,0.1,0.1,0.2,0.1c-0.3,0.1-0.4,0.3-0.3,0.5c0.1,0.2,0.1,0.4,0.2,0.6c-0.2,0-0.3,0.1-0.3,0.3c0.2,0.1,0.3,0.2,0.5,0.4
			c0.2,0.1,0.3,0.3,0.3,0.5c0.1,0.1,0.3,0.2,0.5,0.3c0.2,0,0.3,0.2,0.3,0.4c0.4,0,0.6,0,0.9,0c0.2,0,0.4,0,0.6,0
			c0.2,0,0.4,0,0.6-0.1s0.5-0.1,0.9-0.1l0,0c1.4-0.4,2.8-0.4,4.2-0.7c0.8-0.1,1.6-0.3,2.3-0.4l0,0c0.7-0.1,1.2-0.2,1.5-0.3
			c0.3,0,0.6-0.1,0.9-0.2c0.3,0,0.5-0.1,0.8-0.2c0.3,0,0.8-0.1,1.5-0.2c0.1-0.2,0.2-0.3,0.4-0.4c0.2-0.1,0.3-0.2,0.5-0.3
			c0.2-0.1,0.3-0.2,0.4-0.4s0.2-0.3,0.3-0.5c-0.1,0-0.2-0.1-0.1-0.2C19.8,16.8,19.8,16.7,19.8,16.7z"/>
	</defs>
	<clipPath id="SVGID_5_">
		<use xlink:href="#SVGID_132_"  overflow="visible"/>
	</clipPath>
	
		<line clip-path="url(#SVGID_5_)" fill="none" stroke="#000000" stroke-width="6" stroke-linecap="round" stroke-linejoin="round" stroke-miterlimit="10" x1="17.8" y1="16.5" x2="4.6" y2="18.4"/>
</g>
</svg>
