<?xml version="1.0" encoding="utf-8"?>
<!-- Generator: Adobe Illustrator 19.2.0, SVG Export Plug-In . SVG Version: 6.00 Build 0)  -->
<svg version="1.1" id="Layer_1" xmlns="http://www.w3.org/2000/svg" xmlns:xlink="http://www.w3.org/1999/xlink" x="0px" y="0px"
	 viewBox="0 0 17.7 36.5" enable-background="new 0 0 17.7 36.5" xml:space="preserve">
<g>
	<defs>
		<path id="SVGID_74_" d="M17.8,10.9c-0.1-0.3-0.2-0.5-0.3-0.8c-0.1-0.3-0.3-0.5-0.5-0.7c-0.2-0.2-0.5-0.4-0.8-0.6
			c-0.6,0.2-1.2,0.6-1.8,1c-0.6,0.4-1.2,0.8-1.8,1.3c-0.6,0.4-1.2,0.9-1.7,1.3c-0.6,0.4-1.1,0.8-1.6,1.1l0,0c-0.6,0.6-1.4,1-2.1,1.6
			c-0.6,0.6-1.1,1.2-1.6,1.7l0,0c-0.1,0.2-0.3,0.4-0.5,0.6c-0.2,0.2-0.4,0.3-0.6,0.5S4.2,18.1,4,18.2c-0.2,0.2-0.3,0.3-0.3,0.5
			c-0.3,0.3-0.7,0.7-1.1,1.1c-0.4,0.4-0.7,0.8-1.1,1.2c-0.3,0.4-0.6,0.9-0.8,1.4c-0.2,0.5-0.4,1-0.4,1.5c-0.2,0.7-0.2,1.4,0.1,2.1
			c0.3,0.7,0.8,1.3,1.4,1.8c0.4-0.1,0.7-0.3,0.9-0.4s0.4-0.3,0.6-0.5c0.2-0.2,0.3-0.4,0.3-0.7s0.1-0.6,0.2-1c0.6-0.9,1.3-1.7,2-2.4
			c0.7-0.8,1.5-1.4,2.3-2.1l0,0c1-0.7,1.6-1.5,2.4-2.4c0.2-0.3,0.4-0.6,0.7-0.8l0,0c1.1-0.9,2-1.6,2.7-2.2s1.4-1,1.9-1.3
			c0.6-0.4,1.1-0.6,1.5-0.8c0.1-0.3,0.2-0.6,0.4-0.8c0.2-0.2,0.4-0.5,0.5-0.9C18.1,11.5,17.9,11.2,17.8,10.9z"/>
	</defs>
	<clipPath id="SVGID_3_">
		<use xlink:href="#SVGID_74_"  overflow="visible"/>
	</clipPath>
	
		<path clip-path="url(#SVGID_3_)" fill="none" stroke="#000000" stroke-width="6" stroke-linecap="round" stroke-linejoin="round" stroke-miterlimit="10" d="
		M15.6,11.4c-1.3,0.3-15,11.5-14,14.4"/>
</g>
<g>
	<defs>
		<path id="SVGID_76_" d="M14.2,21.7c-0.2-0.1-0.4-0.2-0.5-0.4c-0.1-0.2-0.3-0.4-0.4-0.5s-0.2-0.4-0.3-0.6c-0.1-0.2-0.3-0.3-0.5-0.5
			c-0.1-0.2-0.2-0.4-0.3-0.6c-0.1-0.2-0.2-0.4-0.4-0.7s-0.4-0.5-0.6-0.8l0,0c-0.4-0.6-0.6-1.4-0.9-2.1c-0.3-0.7-0.8-1.4-1-2.1l0,0
			c-0.1-0.2-0.4-0.5-0.6-0.9c-0.3-0.4-0.6-0.8-1-1.2c-0.4-0.4-0.7-0.8-1.1-1.1C6.2,9.9,5.9,9.6,5.5,9.5c0-0.1,0-0.1-0.1-0.1
			S5.4,9.4,5.3,9.3c0,0-0.1,0-0.1-0.1c0,0,0-0.1,0-0.2c-0.2,0.1-0.3,0.1-0.5,0C4.6,9,4.5,9,4.3,8.9C4.1,8.8,3.9,8.7,3.7,8.7
			C3.5,8.6,3.3,8.6,3,8.6c0.1,0.1,0.1,0.2,0,0.4C3,9.1,3,9.3,2.9,9.4C2.8,9.5,2.8,9.7,2.7,9.8c-0.1,0.2-0.1,0.3-0.1,0.5
			c0.1,0.4,0.1,0.7,0.1,1c-0.1,0.3-0.2,0.6-0.2,0.8c0.2,0.2,0.4,0.5,0.6,0.8c0.2,0.3,0.2,0.6,0.2,0.8c0,0.1,0.1,0.1,0.2,0
			c0.1,0,0.2,0,0.2,0.1c0.3,0.5,0.7,1,1.1,1.5c0.4,0.5,0.7,0.9,0.8,1.4l0,0c0.3,0.7,0.9,1.4,1.2,2.1c0.4,0.7,0.8,1.3,1.3,1.9l0,0
			c0.5,0.7,1.1,1.5,1.6,2.4s1,1.9,1.3,2.9l1.7,1.2c0.1-0.1,0.2-0.2,0.4-0.3c0.2-0.1,0.4-0.1,0.5-0.2c0.1-0.3,0.3-0.6,0.6-0.9
			c0.3-0.3,0.5-0.7,0.6-1.1c0-0.5-0.1-1-0.3-1.5C14.4,22.8,14.3,22.3,14.2,21.7z"/>
	</defs>
	<clipPath id="SVGID_5_">
		<use xlink:href="#SVGID_76_"  overflow="visible"/>
	</clipPath>
	
		<path clip-path="url(#SVGID_5_)" fill="none" stroke="#000000" stroke-width="6" stroke-linecap="round" stroke-linejoin="round" stroke-miterlimit="10" d="
		M4.1,11c0.9,0.4,8.6,12.1,8.6,14.1"/>
</g>
</svg>
