<?xml version="1.0" encoding="utf-8"?>
<!-- Generator: Adobe Illustrator 19.2.0, SVG Export Plug-In . SVG Version: 6.00 Build 0)  -->
<svg version="1.1" id="Layer_1" xmlns="http://www.w3.org/2000/svg" xmlns:xlink="http://www.w3.org/1999/xlink" x="0px" y="0px"
	 viewBox="0 0 17.4 36.5" enable-background="new 0 0 17.4 36.5" xml:space="preserve">
<g>
	<defs>
		<path id="SVGID_24_" d="M17.1,14.2c0-0.6-0.1-1.2-0.1-1.8c-0.3-0.2-0.5-0.5-0.7-0.9c-0.2-0.3-0.4-0.7-0.5-1.1s-0.3-0.7-0.5-1.1
			c-0.2-0.4-0.4-0.7-0.6-1c-0.4,0.1-0.7,0.3-0.9,0.5c-0.3,0.3-0.4,0.6-0.6,1c-0.1,0.4-0.2,0.8-0.2,1.2c0,0.4,0,0.8,0.1,1.2
			c-0.1,0-0.2,0.1-0.3,0.2c-0.1,0.1-0.1,0.2-0.2,0.3c0.1,0.8,0.1,1.6-0.1,2.4c-0.2,0.8-0.3,1.6-0.4,2.4l0,0
			c-0.3,1.6-1.3,3.5-1.4,4.7c0,0.2,0,0,0,0c0,0,0,0.1,0,0.3s-0.1,0.4-0.1,0.7c-0.1,0.2-0.1,0.5-0.1,0.7c0,0.2,0,0.3,0,0.3
			c0,0.5,0.1,0.9,0.3,1.3c0.2,0.4,0.5,0.8,0.8,1.3c0.2,0.1,0.4,0.1,0.5,0.3c0.2,0.1,0.3,0.2,0.5,0.3c0.3-0.1,0.7-0.3,1.1-0.4
			c0.4-0.1,0.7-0.3,1-0.6c0.3-0.2,0.5-0.5,0.7-0.9c0.2-0.3,0.2-0.8,0.2-1.3c-0.2-0.3-0.2-0.6-0.2-0.8c0-0.2,0-0.4,0-0.7
			c0.1-0.1,0.3-0.3,0.4-0.5c0.1-0.2,0.2-0.4,0.3-0.6c0.1-0.2,0.2-0.4,0.2-0.6c0.1-0.2,0.2-0.4,0.3-0.5c0.1-0.8,0.2-1.6,0.4-2.3
			c0.2-0.7,0.4-1.5,0.5-2.2C17.2,15.4,17.1,14.8,17.1,14.2z"/>
	</defs>
	<clipPath id="SVGID_3_">
		<use xlink:href="#SVGID_24_"  overflow="visible"/>
	</clipPath>
	
		<path clip-path="url(#SVGID_3_)" fill="none" stroke="#000000" stroke-width="6" stroke-linecap="round" stroke-linejoin="round" stroke-miterlimit="10" d="
		M14.9,11.1c1,1.9-2.2,11.8-1.9,14.1"/>
</g>
<g>
	<defs>
		<path id="SVGID_26_" d="M10.6,22.3c1.4-0.1,2.5-0.5,3.2-1.7c0.3-0.6,0.5-1.4,0.1-2.1c-0.3-0.6-1.2-1-1.9-0.9l0,0
			c-0.4,0.2-0.9,0.4-1.4,0.6s-1,0.3-1.5,0.4s-1,0.2-1.6,0.3C7,18.9,6.5,19,6,19.1l0,0c-1.4,0.4-2.8,1.1-3.5,2.4
			c-0.4,0.9-0.3,2.1,0.5,2.8c0.7,0.6,1.6,0.4,2.4,0l0,0c0.3-0.2,0.6-0.4,1-0.6c0.4-0.2,0.9-0.4,1.3-0.7c0.5-0.2,1-0.4,1.5-0.6
			C9.7,22.4,10.2,22.3,10.6,22.3L10.6,22.3z"/>
	</defs>
	<clipPath id="SVGID_5_">
		<use xlink:href="#SVGID_26_"  overflow="visible"/>
	</clipPath>
	
		<path clip-path="url(#SVGID_5_)" fill="none" stroke="#000000" stroke-width="6" stroke-linecap="round" stroke-linejoin="round" stroke-miterlimit="10" d="
		M3.4,22.4c1-1,10.6-3.6,10.6-3.6"/>
</g>
<g>
	<defs>
		<path id="SVGID_28_" d="M5.4,24.4c0.2-1.6,0.5-3.3,0.7-5c0-0.1,0-0.2,0-0.2c0.1-0.2,0-0.3,0-0.3c-0.1,0-0.1-0.1-0.2-0.2
			c0.1-0.3,0.2-0.8,0.3-1.2s0.2-1,0.3-1.5s0.2-1,0.2-1.5c0.1-0.5,0.1-0.9,0.1-1.3c-0.2-0.4-0.4-0.7-0.6-1c-0.2-0.3-0.5-0.6-0.7-0.9
			c-0.2-0.3-0.4-0.6-0.6-0.9C4.5,9.9,4.4,9.6,4.3,9.1c-0.6,0.2-1.1,0.6-1.4,1.1c-0.3,0.6-0.5,1.2-0.6,2c-0.1,0.8-0.2,1.5-0.3,2.4
			c-0.1,0.8-0.1,1.6-0.3,2.2c-0.2,0-0.3,0-0.3,0.1c0.1,0.2,0.1,0.4,0.1,0.6c0,0.3,0,0.5-0.1,0.8c-0.1,0.3-0.1,0.5-0.3,0.8
			c-0.1,0.3-0.2,0.5-0.4,0.6c0,0.4-0.1,0.9-0.2,1.4s-0.3,1-0.6,1.4c0.1,0.1,0.1,0.2,0.1,0.3c0,0.1-0.1,0.2-0.1,0.3
			c0,0.1-0.1,0.2-0.1,0.3c0,0.1,0,0.3,0,0.5C-0.1,24-0.2,24-0.2,24c0,0-0.1,0.1-0.1,0.2s0,0.2-0.1,0.3c0,0.1-0.1,0.2-0.1,0.2
			c0.2,0.3,0.3,0.6,0.3,0.8c0,0.2,0.2,0.5,0.4,0.7c-0.1-0.1-0.2,0-0.2,0.1c0,0.2,0,0.2,0.1,0.2c0,0,0,0.1,0.1,0.1
			c0.1,0.1,0.2,0.1,0.3,0.2c0.1,0.1,0.2,0.2,0.3,0.2C1,27.2,1,27.3,1,27.4c0.4,0.2,0.7,0.3,1,0.3c0.3,0,0.5,0,0.8-0.1
			s0.5-0.2,0.7-0.3C3.7,27.1,4,27,4.2,26.9c0-0.1,0-0.2,0-0.2c0-0.1-0.1-0.1-0.1-0.2c0.1,0,0.3-0.1,0.4-0.3C4.7,26,4.8,25.8,5,25.5
			c0.1-0.3,0.2-0.5,0.3-0.7C5.3,24.6,5.4,24.4,5.4,24.4L5.4,24.4z"/>
	</defs>
	<clipPath id="SVGID_7_">
		<use xlink:href="#SVGID_28_"  overflow="visible"/>
	</clipPath>
	
		<path clip-path="url(#SVGID_7_)" fill="none" stroke="#000000" stroke-width="6" stroke-linecap="round" stroke-linejoin="round" stroke-miterlimit="10" d="
		M4.6,11.9c0.4,1.4-2.4,12.8-2.4,13.4"/>
</g>
</svg>
