<?xml version="1.0" encoding="utf-8"?>
<!-- Generator: Adobe Illustrator 19.2.0, SVG Export Plug-In . SVG Version: 6.00 Build 0)  -->
<svg version="1.1" id="Layer_1" xmlns="http://www.w3.org/2000/svg" xmlns:xlink="http://www.w3.org/1999/xlink" x="0px" y="0px"
	 viewBox="0 0 6.7 36.5" enable-background="new 0 0 6.7 36.5" xml:space="preserve">
<g>
	<defs>
		<path id="SVGID_94_" d="M5.3,22.9c0,0.2,0.1,0.3,0.1,0.5c0,0.1,0.1,0.3,0.1,0.5c-0.1,0.2-0.2,0.4-0.2,0.6
			c-0.1,0.2-0.1,0.4-0.2,0.6C5,25,5,25.1,4.9,25.2c0,0,0,0.1,0,0.1c0,0,0,0,0,0.1c0,0,0,0.1,0,0.3L4.8,26c-0.1,0.1-0.2,0.3-0.4,0.3
			c-0.1,0.1-0.3,0.2-0.4,0.2c0,0-0.1,0.1-0.2,0.1c-0.1,0-0.1,0.1-0.2,0.1l-0.1,0.4l-0.4,0.1c-0.3,0.1-0.6,0.1-0.9,0.1H2
			c-0.2-0.2-0.4-0.4-0.6-0.5s-0.3-0.2-0.5-0.3c-0.2-0.3-0.3-0.5-0.3-0.6c0-0.1,0-0.3-0.1-0.4c0-0.3-0.1-0.4-0.2-0.5l-0.4-0.4
			l0.4-0.3L0,23.6c0.2-0.2,0.4-0.3,0.5-0.4c0.1-0.1,0.2-0.2,0.3-0.3s0.2-0.2,0.3-0.3s0.3-0.4,0.5-0.7l0.3-0.4l0.4,0.2
			c0.1,0.1,0.3,0.1,0.5,0.2C3,22,3.3,22,3.5,22.1c0.3,0.1,0.7,0.2,1,0.2c0.3,0.1,0.5,0.2,0.7,0.3L5.3,22.9z"/>
	</defs>
	<clipPath id="SVGID_3_">
		<use xlink:href="#SVGID_94_"  overflow="visible"/>
	</clipPath>
	
		<path clip-path="url(#SVGID_3_)" fill="none" stroke="#000000" stroke-width="6" stroke-linecap="round" stroke-linejoin="round" stroke-miterlimit="10" d="
		M1.5,23.5c0.9-0.5,2.9,1,2.3,1.3c-0.6,0.3-2.2,0.7-2.3,0.6"/>
</g>
</svg>
