<?xml version="1.0" encoding="utf-8"?>
<!-- Generator: Adobe Illustrator 19.2.0, SVG Export Plug-In . SVG Version: 6.00 Build 0)  -->
<svg version="1.1" id="Layer_1" xmlns="http://www.w3.org/2000/svg" xmlns:xlink="http://www.w3.org/1999/xlink" x="0px" y="0px"
	 viewBox="0 0 16.6 36.5" enable-background="new 0 0 16.6 36.5" xml:space="preserve">
<g>
	<defs>
		<path id="SVGID_138_" d="M15.1,21.1c0.4,0.1,0.6,0.2,0.6,0.4c0.1,0.2,0,0.3-0.1,0.5c-0.1,0.2-0.3,0.4-0.5,0.6s-0.4,0.4-0.6,0.5
			c-0.2,0-0.4,0-0.6,0.1c-0.2,0.1-0.4,0.2-0.5,0.3c-0.6-0.1-1.1-0.1-1.7,0c-0.6,0.1-1.1,0.1-1.6,0.1c-0.1,0-0.2,0-0.2,0.1
			c0,0.1,0,0.1-0.1,0.2c-0.6-0.2-1.2-0.3-1.9-0.2c-0.7,0-1.4,0.1-2.1,0.2c-0.7,0.1-1.5,0.2-2.2,0.4s-1.5,0.2-2.2,0.2
			C1.3,24.4,1.1,24.2,1,24c-0.1-0.2-0.2-0.5-0.2-0.8c0-0.3-0.1-0.5,0-0.8c0-0.3,0-0.6,0-0.8c0.1-0.2,0.2-0.4,0.3-0.5
			s0.3-0.2,0.5-0.3c0.5,0,1,0,1.4-0.1c0.4,0,0.8-0.1,1.2-0.1s0.7-0.1,1.1-0.1c0.4,0,0.8-0.1,1.2-0.1c0.3-0.1,0.7-0.1,1.4-0.2
			c0.5,0,1.3-0.1,2.3-0.1s2.3-0.1,4-0.1c0,0.2,0,0.3,0.2,0.4c0.1,0.1,0.3,0.1,0.4,0.2c0.1,0.1,0.3,0.1,0.4,0.2
			C15.2,20.8,15.2,20.9,15.1,21.1z"/>
	</defs>
	<clipPath id="SVGID_3_">
		<use xlink:href="#SVGID_138_"  overflow="visible"/>
	</clipPath>
	
		<path clip-path="url(#SVGID_3_)" fill="none" stroke="#000000" stroke-width="6" stroke-linecap="round" stroke-linejoin="round" stroke-miterlimit="10" d="
		M2.1,22.7c1.7-0.5,11.1-1,11.5-1"/>
</g>
<g>
	<defs>
		<path id="SVGID_140_" d="M16.9,15.3c0.3,0,0.5,0.1,0.6,0.2c0.1,0.1,0.2,0.2,0.2,0.4c0,0.1,0,0.3-0.1,0.5c-0.1,0.2-0.1,0.3-0.2,0.5
			c-0.6,0.3-1.3,0.5-2.2,0.7c-0.9,0.1-1.9,0.2-2.8,0.3c-1,0.1-1.9,0.1-2.8,0.1c-0.9,0-1.6,0-2.2,0.1c-1.1,0.1-1.9,0.2-2.6,0.3
			c-0.6,0.1-1.1,0.2-1.3,0.3c-0.4,0-0.6-0.1-0.8-0.2c-0.2-0.1-0.3-0.3-0.4-0.4C2.1,17.8,2,17.6,2,17.4c0-0.2-0.1-0.4-0.2-0.7
			C2,16.5,2.1,16.3,2.1,16c0-0.3,0-0.5-0.2-0.6c0.2,0,0.3-0.2,0.4-0.3c0.1-0.2,0.2-0.3,0.1-0.4c0.4-0.1,0.7-0.1,1.1-0.2
			s0.7-0.1,1.1-0.1c0.4,0,0.7,0,1-0.1c0.3,0,0.6-0.1,0.9-0.2c1,0,2-0.1,3.1-0.1c1.1,0,2.1-0.1,3-0.1c0.3,0.1,0.7,0.2,1.1,0.2
			c0.5,0,0.9,0,1.3,0.1s0.8,0.2,1.1,0.3C16.7,14.6,16.9,14.8,16.9,15.3z"/>
	</defs>
	<clipPath id="SVGID_5_">
		<use xlink:href="#SVGID_140_"  overflow="visible"/>
	</clipPath>
	
		<path clip-path="url(#SVGID_5_)" fill="none" stroke="#000000" stroke-width="6" stroke-linecap="round" stroke-linejoin="round" stroke-miterlimit="10" d="
		M3.6,16.5c0,0,6-0.8,11.2-0.5"/>
</g>
</svg>
