<?xml version="1.0" encoding="utf-8"?>
<!-- Generator: Adobe Illustrator 19.2.0, SVG Export Plug-In . SVG Version: 6.00 Build 0)  -->
<svg version="1.1" id="Layer_1" xmlns="http://www.w3.org/2000/svg" xmlns:xlink="http://www.w3.org/1999/xlink" x="0px" y="0px"
	 viewBox="0 0 14.6 36.5" enable-background="new 0 0 14.6 36.5" xml:space="preserve">
<g>
	<defs>
		<path id="SVGID_60_" d="M-0.5,13.4c0.1-0.4,0.4-0.8,0.7-1.1c0.3-0.3,0.7-0.6,1-0.8c0.4-0.2,0.8-0.4,1.2-0.5
			c0.4-0.1,0.8-0.3,1.1-0.4c0.8-0.3,1.7-0.7,2.6-1C7,9.4,7.9,9.1,8.9,8.9s1.9-0.4,2.9-0.5c1-0.1,2.1,0.1,3.2,0.4
			C15,9,15.1,9.2,15.3,9.3c0.1,0.2,0.2,0.4,0.4,0.5c0.1,0.2,0.2,0.4,0.3,0.5c0.1,0.2,0.2,0.3,0.2,0.5c0.2,0.2,0.4,0.4,0.5,0.6
			c0.1,0.2,0.1,0.5,0.1,0.8c-0.2,0.2-0.4,0.3-0.6,0.4c-0.2,0.1-0.4,0.2-0.6,0.3C14.8,13,14,12.9,13.2,13c-0.8,0.1-1.4,0.1-2.1,0.2
			c-0.2-0.2-0.4-0.3-0.6-0.3s-0.5,0-0.8,0.1c-0.3,0.1-0.5,0.2-0.8,0.2c-0.3,0.1-0.5,0.1-0.8,0.1c-0.2,0.2-0.4,0.3-0.7,0.3
			c-0.3,0.1-0.6,0.1-1,0.1c0,0.1,0,0.2,0.1,0.2s0.1,0.1,0,0.2c0.1,0.1,0.3,0.2,0.5,0.3c0.2,0.1,0.4,0.1,0.6,0.2
			c0.2,0.1,0.4,0.1,0.6,0.2c0.2,0.1,0.3,0.2,0.3,0.4c0.3,0,0.6,0.1,0.8,0.2c0.2,0.1,0.4,0.3,0.5,0.5c0.1,0.2,0.2,0.4,0.3,0.6
			c0.1,0.2,0.1,0.4,0.1,0.6c0.1,0.2,0.1,0.2,0.2,0.2c0.1,0,0.2,0,0.3,0.1c0.1,0.3,0.2,0.5,0.5,0.8c0.2,0.3,0.4,0.6,0.6,0.9
			c0,0.5,0.1,1,0.1,1.3s-0.1,0.8-0.2,1.2c-0.3,0.7-0.7,1.4-1.3,2c-0.5,0.6-1.1,1.1-1.8,1.6c-0.7,0.5-1.4,0.8-2.2,1.2
			c-0.8,0.3-1.5,0.6-2.2,0.8c-0.1,0-0.2,0-0.2,0c-0.1,0-0.1,0-0.1-0.2c-0.2,0.1-0.3,0.2-0.5,0.3c-0.2,0-0.4,0.1-0.6,0
			c-0.2,0-0.4,0-0.7,0c-0.2,0-0.4,0-0.6,0c-0.1-0.1-0.3-0.3-0.4-0.4c-0.1-0.1-0.2-0.3-0.3-0.5c-0.1,0-0.1,0-0.1-0.2
			c0-0.1,0-0.2-0.1-0.2c0.1-0.2,0.2-0.3,0.2-0.3c0,0,0-0.1-0.1-0.1c-0.1,0-0.1,0-0.1-0.1c0,0-0.1-0.1,0-0.1c0.1-0.2,0.1-0.3,0.1-0.6
			c0-0.2,0-0.4-0.1-0.6c0-0.2,0-0.4,0-0.6c0-0.2,0.2-0.4,0.4-0.5c0.7,0.1,1.3,0.1,1.9-0.1c0.6-0.1,1.2-0.3,1.7-0.6s1.1-0.5,1.6-0.8
			c0.5-0.3,1-0.5,1.5-0.8c0.1-0.2,0.1-0.3,0.3-0.5s0.2-0.2,0.3-0.3c0.1-0.1,0.2-0.2,0.3-0.3c0.1-0.1,0.2-0.3,0.2-0.5
			c0-0.1,0-0.2-0.1-0.3c-0.1,0-0.1-0.1-0.1-0.2L8.3,19c-0.4-0.2-0.8-0.4-1.3-0.6s-0.9-0.3-1.2-0.5C5.5,18,5.3,18.1,5.1,18
			c-0.2-0.1-0.4-0.1-0.7-0.2c-0.7,0-1.3-0.1-2-0.2c-0.6-0.1-1.2-0.3-1.8-0.5c0-0.1-0.1-0.2-0.2-0.3c-0.1-0.1-0.2-0.1-0.3-0.1
			c-0.1-0.2-0.2-0.3-0.4-0.5c-0.1-0.2-0.2-0.3-0.3-0.5c0-0.2,0.1-0.4,0.1-0.6c0-0.2,0-0.3-0.2-0.5c0.1-0.3,0.1-0.5,0.2-0.6
			C-0.5,13.9-0.5,13.7-0.5,13.4z"/>
	</defs>
	<clipPath id="SVGID_3_">
		<use xlink:href="#SVGID_60_"  overflow="visible"/>
	</clipPath>
	
		<path clip-path="url(#SVGID_3_)" fill="none" stroke="#000000" stroke-width="6" stroke-linecap="round" stroke-linejoin="round" stroke-miterlimit="10" d="
		M14.5,11.1C13.2,10.2,2.1,12.4,1.5,14c-0.6,1.9,8.4,2.6,8.8,5.6s-6.9,6.2-7.9,5.8"/>
</g>
</svg>
