<?xml version="1.0" encoding="utf-8"?>
<!-- Generator: Adobe Illustrator 19.2.0, SVG Export Plug-In . SVG Version: 6.00 Build 0)  -->
<svg version="1.1" id="Layer_1" xmlns="http://www.w3.org/2000/svg" xmlns:xlink="http://www.w3.org/1999/xlink" x="0px" y="0px"
	 viewBox="0 0 7.1 36.5" enable-background="new 0 0 7.1 36.5" xml:space="preserve">
<g>
	<defs>
		<path id="SVGID_90_" d="M4.2,23.1c0,0.2,0.1,0.3,0.1,0.5c0,0.1,0,0.3,0.1,0.5c-0.1,0.4-0.3,0.8-0.4,1.1c-0.1,0.1-0.1,0.2-0.1,0.3
			c0,0,0,0.1,0,0.1c0,0,0,0,0,0.1c0,0,0,0.1,0,0.3l-0.2,0.4c-0.1,0.1-0.2,0.3-0.3,0.3c-0.1,0.1-0.3,0.2-0.4,0.2
			c-0.1,0-0.1,0.1-0.2,0.1c-0.1,0-0.1,0.1-0.2,0.1l-0.1,0.4l-0.4,0.1c-0.3,0.1-0.6,0.1-0.9,0.1H0.9c-0.2-0.2-0.4-0.4-0.6-0.5
			S0,26.7-0.2,26.6c-0.2-0.4-0.4-0.7-0.4-1c0-0.3-0.1-0.4-0.2-0.5l-0.4-0.4l0.4-0.3l-0.4-0.6c0.2-0.2,0.4-0.3,0.5-0.4
			c0.1-0.1,0.2-0.2,0.3-0.3c0.1-0.1,0.2-0.2,0.3-0.3c0.1-0.1,0.3-0.4,0.5-0.7l0.3-0.4L1.1,22c0.1,0.1,0.3,0.1,0.6,0.2
			c0.3,0.1,0.5,0.1,0.7,0.1c0.3,0.1,0.6,0.2,1,0.2c0.3,0.1,0.6,0.2,0.7,0.3L4.2,23.1z"/>
	</defs>
	<clipPath id="SVGID_3_">
		<use xlink:href="#SVGID_90_"  overflow="visible"/>
	</clipPath>
	
		<path clip-path="url(#SVGID_3_)" fill="none" stroke="#000000" stroke-width="6" stroke-linecap="round" stroke-linejoin="round" stroke-miterlimit="10" d="
		M1.4,25c2,0.8-0.5-1.1,0-1.3"/>
</g>
<g>
	<defs>
		<path id="SVGID_92_" d="M7.2,5.9c0,0.2,0,0.4-0.1,0.7S7,7.1,7,7.4s0,0.5,0,0.7c0,0.2,0.1,0.3,0.3,0.4c-0.4,1.1-0.6,2-0.7,2.7
			c-0.1,0.7-0.2,1.4-0.3,2.1s-0.2,1.3-0.3,2.1C5.6,16,5.4,16.9,5,18c-0.2,0.6-0.5,1.1-0.8,1.3c-0.3,0.3-0.7,0.4-1,0.4
			s-0.7-0.1-1.1-0.3c-0.4-0.2-0.7-0.4-1.1-0.7c-0.1-0.4-0.1-0.8,0-1.4c0-0.6,0.1-1.1,0.2-1.7c0.1-0.6,0.2-1.2,0.2-1.7
			c0.1-0.6,0.1-1,0.2-1.4C1.8,12.2,2,12,2,11.9c0.1-0.1,0.1-0.3,0.2-0.5c0-0.2,0.1-0.4,0.1-0.6c0-0.2,0.1-0.6,0.2-1
			c0-0.2,0-0.4,0-0.6c-0.1-0.2-0.1-0.3,0-0.5c0-0.1,0.1-0.1,0.2-0.2c0.1,0,0.1-0.1,0.2-0.2c0.1-0.3,0.1-0.5,0.1-0.6
			c0-0.2,0-0.3,0.1-0.6C3,7,3.1,6.7,3.2,6.4C3.4,6,3.4,5.7,3.4,5.3C3.6,5.1,3.7,5,3.9,4.8c0.2-0.2,0.3-0.3,0.5-0.5
			C4.6,4.2,4.8,4,5,3.9c0.2-0.1,0.5-0.2,0.8-0.2C5.9,4,6,4.2,6.1,4.4C6.2,4.6,6.3,4.8,6.3,5c0.1,0.2,0.2,0.4,0.3,0.5
			C6.7,5.7,6.9,5.8,7.2,5.9z"/>
	</defs>
	<clipPath id="SVGID_5_">
		<use xlink:href="#SVGID_92_"  overflow="visible"/>
	</clipPath>
	
		<path clip-path="url(#SVGID_5_)" fill="none" stroke="#000000" stroke-width="6" stroke-linecap="round" stroke-linejoin="round" stroke-miterlimit="10" d="
		M5.1,6.4c0,0-1.4,10.5-2.1,11.5"/>
</g>
</svg>
