<?xml version="1.0" encoding="utf-8"?>
<!-- Generator: Adobe Illustrator 19.2.0, SVG Export Plug-In . SVG Version: 6.00 Build 0)  -->
<svg version="1.1" id="Layer_1" xmlns="http://www.w3.org/2000/svg" xmlns:xlink="http://www.w3.org/1999/xlink" x="0px" y="0px"
	 viewBox="0 0 11.3 36.5" enable-background="new 0 0 11.3 36.5" xml:space="preserve">
<g>
	<defs>
		<path id="SVGID_146_" d="M11.3,9.8c0,0.8-0.1,1.5-0.1,2.3c0,0.8,0,1.4,0,2c0,0.2-0.1,0.4-0.1,0.6c0,0.2,0,0.4,0,0.6
			c0,0.1,0,0.2,0,0.4c0,0.2,0,0.3,0,0.4L10.4,16l0.2,0.9l-0.3,0.4l-0.1,0.5c-0.1,1.1-0.2,2.1-0.5,3c-0.3,0.9-0.6,1.7-1.1,2.5
			l-0.2,0.4c-0.3,0.5-0.7,1-1,1.5s-0.7,1.1-1.2,1.7c-0.7,0.8-1.3,1.4-1.9,1.9c-0.5,0.5-1.1,1-1.6,1.3l-0.3,0.3
			c-0.4,0.4-0.7,0.7-1,0.9c-0.3,0.2-0.5,0.5-0.7,0.7c-0.2,0.2-0.4,0.4-0.6,0.5c-0.2,0.2-0.4,0.3-0.5,0.4c-0.3-0.2-0.6-0.3-0.8-0.2
			C-1.6,33-1.8,33-2,33.1c-0.2-0.2-0.4-0.5-0.4-0.6s0-0.4,0.1-0.7c0.1-0.3,0.1-0.6,0.2-0.9c0-0.3,0-0.7-0.2-1.1
			c0.1-0.2,0.2-0.4,0.3-0.7c0.1-0.2,0.1-0.5,0.2-0.7c0.1-0.2,0.2-0.4,0.2-0.5c0.1-0.1,0.1-0.2,0.2-0.3c0.1-0.1,0.2-0.1,0.2-0.2
			c0.1-0.1,0.2-0.2,0.3-0.3c0.4-0.2,0.9-0.5,1.4-0.9s0.9-0.8,1.3-1.3c0.4-0.5,0.8-1,1.1-1.4s0.5-1,0.7-1.4l0.2-0.5L5,20L5,19.2
			c0.5-0.9,0.9-2.1,1.2-3.5c0.2-0.7,0.3-1.5,0.3-2.4c0-0.8,0-1.7-0.1-2.5C6.3,10,6.2,9.1,6,8.4S5.6,6.9,5.4,6.2
			C5.4,6.1,5.5,6,5.5,5.7c0-0.2,0.1-0.5,0.1-0.7c0-0.3,0-0.5,0.1-0.7c0-0.2,0-0.4,0-0.5L5.5,3.5C5.4,3.4,5.3,3.3,5.3,3.2
			c0-0.1,0-0.2-0.1-0.3c0-0.5,0.1-1,0.4-1.4C6,1.6,6.4,1.7,6.7,1.8c0.4,0.1,0.7,0.3,1,0.4C8,2.7,8.2,3.1,8.5,3.4
			C8.7,3.7,9,4,9.2,4.3C9.4,4.5,9.6,4.8,9.9,5c0.2,0.3,0.4,0.6,0.6,1c0.1,0.7,0.2,1.3,0.3,1.8c0.1,0.5,0.3,1.1,0.4,1.7L11.3,9.8z"/>
	</defs>
	<clipPath id="SVGID_3_">
		<use xlink:href="#SVGID_146_"  overflow="visible"/>
	</clipPath>
	
		<path clip-path="url(#SVGID_3_)" fill="none" stroke="#000000" stroke-width="6" stroke-linecap="round" stroke-linejoin="round" stroke-miterlimit="10" d="
		M6.7,3.9c6,9.6-1.8,22.7-7.6,26.9"/>
</g>
</svg>
