<?xml version="1.0" encoding="utf-8"?>
<!-- Generator: Adobe Illustrator 19.2.0, SVG Export Plug-In . SVG Version: 6.00 Build 0)  -->
<svg version="1.1" id="Layer_1" xmlns="http://www.w3.org/2000/svg" xmlns:xlink="http://www.w3.org/1999/xlink" x="0px" y="0px"
	 viewBox="0 0 17.8 36.5" enable-background="new 0 0 17.8 36.5" xml:space="preserve">
<g>
	<defs>
		<path id="SVGID_4_" d="M15,17.9c-0.2-0.4-0.3-0.8-0.4-1.3c-0.1-0.5-0.2-0.9-0.3-1.4c-0.1-0.3-0.1-0.7-0.2-1
			c-0.1-0.3-0.2-0.7-0.3-1c0-0.4-0.1-0.8-0.1-1.1c-0.1-0.3-0.1-0.7-0.2-1c0-0.2-0.1-0.3-0.1-0.5c0-0.2-0.1-0.4-0.2-0.7
			c-0.2-0.2-0.5-0.4-0.8-0.5c-0.3-0.1-0.7-0.2-1-0.3C11.3,9,11.1,9,10.9,8.9c-0.2,0-0.3-0.1-0.4-0.2l-0.4-0.2L9.8,8.9
			c-0.4,0.7-0.9,1.2-1.3,1.7c-0.4,0.5-0.9,0.8-1.5,1.1l-0.5-0.1c-0.1,0-0.2,0-0.3,0c-0.1,0-0.2,0.1-0.2,0.1L5.6,12
			c-0.3,0.3-0.5,0.7-0.6,1c-0.2,0.3-0.3,0.7-0.5,1c-0.1,0.3-0.3,0.6-0.4,0.8c-0.1,0.3-0.3,0.6-0.5,0.9c0,0.1-0.1,0.2-0.1,0.3
			c0,0.1,0,0.2,0,0.2c-0.2,0.3-0.3,0.6-0.5,1c-0.2,0.3-0.3,0.6-0.5,1c-0.5,1-0.9,2-1.4,2.9C0.7,22,0.2,23-0.2,24l0,0.5l-0.3,0.3
			l0.4,0.4c0,0,0.1,0.1,0.1,0.2c0,0.1,0,0.2,0.1,0.3c0,0.1,0,0.2,0.1,0.3c0,0.1,0.1,0.3,0.3,0.5c0.2,0.1,0.3,0.2,0.4,0.3
			c0.1,0.1,0.3,0.3,0.5,0.4l0.3,0c0.1,0,0.2,0,0.3,0c0.1,0,0.2-0.1,0.5-0.1l0.4-0.1l0.1-0.3c0,0,0.1,0,0.2-0.1s0.1-0.1,0.2-0.1
			c0.1-0.1,0.2-0.1,0.4-0.2s0.2-0.2,0.3-0.3L4,25.8c0-0.2,0-0.5,0.1-0.7c0.1-0.3,0.2-0.5,0.3-0.8c0.1-0.2,0.1-0.3,0.2-0.5
			c0.1-0.2,0.1-0.4,0.2-0.5c0,0,0.1-0.1,0.1-0.1c0,0,0.1-0.1,0.1-0.1l0.2-0.5c0,0,0-0.1,0-0.2c0-0.1,0.1-0.1,0.1-0.1l0.3-0.1
			l0.1-0.3c0.1-0.3,0.2-0.5,0.3-0.8l1-1.8c0.1-0.2,0.2-0.4,0.3-0.5c0.1-0.2,0.2-0.4,0.4-0.5c0.3-0.5,0.6-1,1-1.5
			c0.4-0.5,0.8-1,1.2-1.4L9.8,15c0.2,0.6,0.4,1.3,0.5,1.9c0.2,0.7,0.5,1.9,0.5,1.9l1.3,3.9c0,0.5,0,0.9-0.2,1.1
			c-0.2,0.2-0.5,0.4-1,0.5L10,24.6l0.5,0.6c0,0.1,0.1,0.1,0.2,0.2l0.2,0.2c0.2,0.2,0.3,0.3,0.4,0.4c0.1,0.1,0.1,0.2,0,0.4l-0.1,0.4
			l0.4,0.2c0,0,0.1,0,0.1,0.1c0.1,0,0.1,0.1,0.2,0.1c0.1,0.1,0.2,0.1,0.3,0.2c0.1,0.1,0.3,0.1,0.5,0.2c0.4,0,0.8-0.1,1.2-0.3
			c0.4-0.2,0.7-0.4,1-0.7c0.3-0.3,0.6-0.6,0.8-0.9c0.2-0.4,0.4-0.7,0.5-1l0.1-0.1c0-0.4,0-0.8,0-1.1c0-0.4-0.1-0.7-0.2-1.1
			c0-0.1-0.1-0.2-0.1-0.3c0-0.1,0-0.2,0-0.3L15,17.9z"/>
	</defs>
	<clipPath id="SVGID_3_">
		<use xlink:href="#SVGID_4_"  overflow="visible"/>
	</clipPath>
	
		<path clip-path="url(#SVGID_3_)" fill="none" stroke="#000000" stroke-width="6" stroke-linecap="round" stroke-linejoin="round" stroke-miterlimit="10" d="
		M2.2,24.7c0-1.4,5.2-12.7,8.5-13.8c0,0,5.3,11.5,2.3,14.2"/>
</g>
<g>
	<defs>
		<path id="SVGID_6_" d="M17.9,19c-0.1,0-0.2-0.1-0.2-0.2c-0.1-0.1-0.2-0.2-0.3-0.3c-0.1-0.1-0.3-0.1-0.6-0.2
			c-0.2-0.1-0.3-0.2-0.3-0.3l-0.1-0.3l-0.3,0c-0.1,0-0.3,0-0.4,0.1c-0.1,0-0.2,0.1-0.3,0.1c0,0-0.1,0-0.3,0l-4.2,1
			c-0.6,0.1-1.2,0.2-1.6,0.3c-0.5,0.1-1,0.1-1.6,0.1c-0.1,0-0.2,0-0.3,0c-0.1,0-0.2,0-0.3,0c-1.4,0-1,1.8-1,1.8
			c0,0.2,0.1,0.4,0.2,0.5c-0.1,0.3,0,0.5,0.1,0.6c0.1,0.2,0.2,0.3,0.3,0.4c0,0,0.1,0.1,0.1,0.1c0,0,0.1,0.2,0.1,0.4L7,23.2
			c0.2,0,0.3,0,0.5,0c0.1,0,0.3,0,0.5,0c0.4,0,0.8,0,1.2-0.1c0.4-0.1,0.7-0.2,1.1-0.3c0.3-0.1,0.6-0.2,0.8-0.2c0.3-0.1,0.6,0,1,0
			l4-1.3c0.5-0.2,0.9-0.5,1.3-0.8c0.4-0.3,0.7-0.7,0.9-1l0.2-0.5L17.9,19z"/>
	</defs>
	<clipPath id="SVGID_5_">
		<use xlink:href="#SVGID_6_"  overflow="visible"/>
	</clipPath>
	
		<path clip-path="url(#SVGID_5_)" fill="none" stroke="#000000" stroke-width="6" stroke-linecap="round" stroke-linejoin="round" stroke-miterlimit="10" d="
		M7,21.4c1.4,0,8.3-1.9,9.6-2.8"/>
</g>
</svg>
