<?xml version="1.0" encoding="utf-8"?>
<!-- Generator: Adobe Illustrator 19.2.0, SVG Export Plug-In . SVG Version: 6.00 Build 0)  -->
<svg version="1.1" id="Layer_1" xmlns="http://www.w3.org/2000/svg" xmlns:xlink="http://www.w3.org/1999/xlink" x="0px" y="0px"
	 viewBox="0 0 11.9 36.6" enable-background="new 0 0 11.9 36.6" xml:space="preserve">
<g>
	<defs>
		<path id="SVGID_176_" d="M7,23.6c0,0.2,0.1,0.3,0.1,0.5c0,0.1,0.1,0.3,0.1,0.5C7.1,24.7,7,24.9,7,25.1c-0.1,0.2-0.1,0.4-0.2,0.6
			c-0.1,0.1-0.1,0.2-0.1,0.3c0,0,0,0.1,0,0.1c0,0,0,0,0,0.1c0,0,0,0.1,0,0.3l-0.1,0.4c-0.1,0.1-0.2,0.3-0.4,0.3
			c-0.1,0.1-0.3,0.2-0.4,0.2c0,0-0.1,0.1-0.2,0.1c-0.1,0-0.1,0.1-0.2,0.1l-0.1,0.4l-0.4,0.1C4.6,28,4.3,28,4,28H3.7
			c-0.2-0.2-0.4-0.4-0.6-0.5s-0.3-0.2-0.5-0.3c-0.2-0.3-0.3-0.5-0.3-0.6c0-0.1,0-0.3-0.1-0.4c0-0.3-0.1-0.4-0.2-0.5l-0.4-0.4L2,25
			l-0.3-0.6c0.2-0.2,0.4-0.3,0.5-0.4c0.1-0.1,0.2-0.2,0.3-0.3s0.2-0.2,0.3-0.3s0.3-0.4,0.5-0.7l0.3-0.4L4,22.5
			c0.1,0.1,0.3,0.1,0.5,0.2c0.3,0.1,0.5,0.1,0.7,0.1c0.3,0.1,0.7,0.2,1,0.2c0.3,0.1,0.5,0.2,0.7,0.3L7,23.6z"/>
	</defs>
	<clipPath id="SVGID_3_">
		<use xlink:href="#SVGID_176_"  overflow="visible"/>
	</clipPath>
	
		<path clip-path="url(#SVGID_3_)" fill="none" stroke="#000000" stroke-width="6" stroke-linecap="round" stroke-linejoin="round" stroke-miterlimit="10" d="
		M4.6,25c-0.2,0-0.4,0.2-0.4,0.4c0,0.2,0.2,0.4,0.4,0.4c0.3,0,0.5-0.3,0.4-0.5"/>
</g>
<g>
	<defs>
		<path id="SVGID_178_" d="M8.7,15.2c0,0.3-0.1,0.5-0.1,0.7s0,0.3,0,0.4c0,0.1,0,0.3,0,0.5c0,0.2,0.1,0.5,0.2,0.8L8.8,18l-0.5,0.1
			c-0.1,0-0.3,0.1-0.5,0.3c-0.2,0.2-0.4,0.3-0.6,0.4C7,19,6.7,19.2,6.4,19.3c-0.3,0.2-0.5,0.3-0.8,0.3c-0.3-0.2-0.5-0.3-0.7-0.4
			c-0.1-0.1-0.2-0.2-0.4-0.3c-0.1-0.2-0.2-0.4-0.3-0.6c-0.1-0.2-0.2-0.4-0.3-0.5C4,17.8,4,17.7,4,17.6c0,0,0-0.1,0-0.1
			c0,0,0,0-0.1,0s-0.1-0.1-0.2-0.2L3.5,17c0-0.3,0-0.6,0.2-0.9c0-0.2,0.1-0.3,0.1-0.4l-0.2-0.3L3.8,15c0.1-0.2,0.2-0.3,0.3-0.4
			s0.1-0.2,0.2-0.3L4.6,14c0.3,0,0.6,0,0.8,0c0.2,0,0.4,0,0.6-0.1c0.3,0.1,0.6,0.2,0.7,0.2c0.1,0.1,0.2,0.1,0.3,0.2
			c0.2,0.2,0.4,0.2,0.5,0.2h0.6L8,15L8.7,15.2z"/>
	</defs>
	<clipPath id="SVGID_5_">
		<use xlink:href="#SVGID_178_"  overflow="visible"/>
	</clipPath>
	
		<path clip-path="url(#SVGID_5_)" fill="none" stroke="#000000" stroke-width="6" stroke-linecap="round" stroke-linejoin="round" stroke-miterlimit="10" d="
		M6.1,16.2c-0.4,0.1-0.6,0.7-0.3,1c0.3,0.3,0.9,0.1,1-0.3"/>
</g>
</svg>
