<?xml version="1.0" encoding="utf-8"?>
<!-- Generator: Adobe Illustrator 19.2.0, SVG Export Plug-In . SVG Version: 6.00 Build 0)  -->
<svg version="1.1" id="Layer_1" xmlns="http://www.w3.org/2000/svg" xmlns:xlink="http://www.w3.org/1999/xlink" x="0px" y="0px"
	 viewBox="0 0 19 36.5" enable-background="new 0 0 19 36.5" xml:space="preserve">
<g>
	<defs>
		<path id="SVGID_116_" d="M20.5,21.8c0.5,0.2,0.7,0.5,0.7,0.9c0,0.4-0.1,0.7-0.3,1c-0.2,0.3-0.5,0.5-0.9,0.7c-0.4,0.2-0.7,0.2-1,0
			c0,0.2-0.1,0.3-0.3,0.3c-0.1,0.1-0.2,0.1-0.3,0.3c-2,0.3-3.9,0.7-6,1.1c-2,0.4-4.1,0.8-6.1,1c-1.6-0.1-2.9-0.3-3.9-0.7
			c-0.4-0.4-0.7-0.8-1-1.4c-0.2-0.5-0.3-1.1-0.4-1.7c0-0.6,0-1.2,0.1-1.8c0.1-0.6,0.2-1.1,0.4-1.5c1-1.3,2.1-2.6,3.3-3.8
			C6,15,7.3,14,8.7,13c0.4-0.5,0.9-1,1.5-1.3c0.6-0.4,1.1-0.8,1.5-1.3c-0.6-0.2-1.2-0.3-1.9-0.3c-0.7,0-1.3,0.1-2,0.2
			c-0.6,0.1-1.2,0.2-1.8,0.4C5.5,10.8,5,11,4.6,11c-0.3-0.2-0.7-0.3-1.1-0.3c-0.4,0-0.9-0.1-1.3-0.2c-0.2-0.2-0.4-0.5-0.5-0.8
			c-0.1-0.3-0.1-0.7-0.2-1c0-0.3,0-0.7,0-1c0-0.3,0-0.6-0.1-0.8c0.2-0.3,0.3-0.5,0.4-0.8c0.1-0.3,0.3-0.5,0.5-0.7
			c0.9-0.3,2-0.5,3.1-0.6c1.1-0.2,2.3-0.2,3.5-0.2c1.2,0,2.3,0.2,3.4,0.4c1.1,0.3,2.1,0.7,2.9,1.3c0.1,0.6,0.3,1,0.6,1.3
			c0.3,0.3,0.7,0.6,1.2,0.8c0.2,0.4,0.4,0.8,0.6,1.2c0.2,0.4,0.3,0.8,0.3,1.3c-0.4,1.1-1,2-1.7,2.7c-0.7,0.7-1.5,1.4-2.2,2
			c-0.4,0.3-0.8,0.6-1.3,0.9c-0.5,0.2-0.9,0.5-1.2,0.8c-0.1,0.1-0.1,0.2-0.2,0.3c0,0.1-0.1,0.2-0.2,0.3c-0.4,0.3-0.8,0.6-1.2,0.9
			c-0.4,0.3-0.8,0.5-1.2,0.9c-0.3,0.2-0.5,0.5-0.6,0.7c-0.2,0.3-0.4,0.5-0.7,0.7c0.4,0.1,0.7,0.2,1.1,0.2c0.4,0,0.7-0.1,1.1-0.1
			c0.4-0.1,0.8-0.1,1.1-0.2c0.4-0.1,0.8-0.1,1.2-0.1c0.6-0.2,1.2-0.4,1.9-0.5c0.7-0.2,1.4-0.2,2.1-0.2c0.6-0.2,1.2-0.4,1.7-0.5
			c0.6-0.1,1.1-0.1,1.6-0.1c0.3,0.1,0.5,0.3,0.6,0.5c0.1,0.3,0.3,0.4,0.6,0.5c-0.1,0.2-0.1,0.4,0,0.5C20.5,21.4,20.5,21.5,20.5,21.8
			z"/>
	</defs>
	<clipPath id="SVGID_3_">
		<use xlink:href="#SVGID_116_"  overflow="visible"/>
	</clipPath>
	
		<path clip-path="url(#SVGID_3_)" fill="none" stroke="#000000" stroke-width="6" stroke-linecap="round" stroke-linejoin="round" stroke-miterlimit="10" d="
		M18.9,22c-7.5,2.5-14.9,2.2-14.9,2.2C-1.5,21.7,16.5,12.3,15.4,10C14.1,7.2,4.5,7,3.8,8c0,0-0.7,0.8,0.4,1.4"/>
</g>
</svg>
