<?xml version="1.0" encoding="utf-8"?>
<!-- Generator: Adobe Illustrator 19.2.0, SVG Export Plug-In . SVG Version: 6.00 Build 0)  -->
<svg version="1.1" id="Layer_1" xmlns="http://www.w3.org/2000/svg" xmlns:xlink="http://www.w3.org/1999/xlink" x="0px" y="0px"
	 viewBox="0 0 18.7 36.5" enable-background="new 0 0 18.7 36.5" xml:space="preserve">
<g>
	<defs>
		<path id="SVGID_32_" d="M14,11.5c-0.5-0.4-1-0.4-1.6-0.2c-0.9,0.3-1.8,0.9-2,1.9l0,0c-0.1,0.5-0.2,1-0.3,1.6
			c-0.1,0.6-0.2,1.2-0.4,1.9S9.4,18,9.2,18.6c-0.2,0.6-0.4,1.2-0.7,1.8v0.3c-0.1,0.1-0.2,0.2-0.2,0.3c-0.1,0.1-0.1,0.2-0.2,0.3
			c-0.1,0.1-0.2,0.3-0.2,0.4c-0.1,0.1-0.1,0.2-0.2,0.3c-0.1,0.1-0.2,0.2-0.2,0.3c-0.1,0.1-0.2,0.2-0.4,0.2l-0.2,0.2
			c-0.1,0-0.2,0-0.3,0.1c-0.1,0-0.2,0.1-0.3,0.1c-0.3,0.1-0.6,0.2-0.8,0.2c-0.2,0-0.3,0-0.4-0.1l-0.3,0c-0.1,0-0.2,0-0.2,0
			c-0.1,0-0.2,0-0.3,0H3.8c-0.1,0-0.1,0-0.1,0c0,0-0.1,0-0.2-0.1c-0.1,0-0.2-0.1-0.3-0.2c-0.3-0.1-0.7-0.3-1-0.4
			c-0.4-0.1-0.7-0.2-1.1-0.2c-0.3,0-0.7,0.1-1.2,0.4c-0.1,0.2-0.2,0.4-0.2,0.7c-0.1,0.3-0.1,0.6-0.2,1c0.3,1,0.6,1.6,1.1,1.9
			c0.4,0.3,0.8,0.5,1.2,0.5c0.3,0,0.5-0.1,0.8-0.2c0.2,0,0.4,0,0.5,0.1c0.1,0,0.2,0,0.3,0.1c0.1,0,0.2,0.1,0.3,0.1
			c0.1,0,0.3,0.1,0.5,0.2L4.5,27c0.2,0,0.5,0,0.7,0c0.3,0,0.6,0.1,0.9,0.1c0.1,0,0.2-0.1,0.3-0.1c0.1,0,0.2,0,0.3-0.1
			C7,27,7.2,27,7.5,26.9c0.2,0,0.5-0.1,0.8-0.1c0.6-0.2,1.2-0.5,1.6-0.9c0.5-0.4,1-1,1.5-1.5c0.6-1.2,1.1-2.5,1.6-4
			c0.5-1.5,0.8-3,1.2-4.6c0.1-0.4,0.3-0.9,0.3-1.3c0.1-0.4,0.1-0.9,0.2-1.4l0,0C14.7,12.4,14.5,11.9,14,11.5z"/>
	</defs>
	<clipPath id="SVGID_3_">
		<use xlink:href="#SVGID_32_"  overflow="visible"/>
	</clipPath>
	
		<path clip-path="url(#SVGID_3_)" fill="none" stroke="#000000" stroke-width="6" stroke-linecap="round" stroke-linejoin="round" stroke-miterlimit="10" d="
		M12.5,11c0.1,4.1-1.2,17.9-11,13.2"/>
</g>
<g>
	<defs>
		<path id="SVGID_34_" d="M20.4,11c-0.2-0.3-0.4-0.5-0.6-0.7c-0.1-0.1-0.2-0.2-0.3-0.3c-0.1-0.1-0.2-0.2-0.2-0.3L19,9.5L19,9.2h-0.5
			c-0.2,0-0.5,0-0.7,0c-0.2,0-0.5-0.1-0.8-0.1C16.8,9,16.6,9,16.5,9c-0.1,0-0.3,0-0.6,0c-0.2,0-0.4,0-0.5,0h-1.7c-0.2,0-0.3,0-0.5,0
			h-0.6c-0.4,0-0.8,0-1.3,0c-0.5,0-1,0.1-1.6,0.2c0,0-0.1,0-0.2-0.1c-0.1,0-0.1,0-0.2,0c0,0-0.1,0-0.2,0c-0.1,0-0.1,0.1-0.2,0.1H8.4
			c-0.4,0-0.7,0-1,0c-0.3,0-0.5,0-0.8,0c-0.3,0-0.5,0.1-0.8,0.1c-0.3,0-0.6,0.1-1,0.2C4.5,9.7,4.1,9.7,3.7,9.8C3.4,9.9,3,9.9,2.7,10
			l-0.3,0.3c0,0.1-0.1,0.1-0.1,0.2c0,0.1-0.1,0.1-0.2,0.2H1.6v0.9c0,0.2,0,0.4,0.1,0.6c0,0.2,0,0.3,0.1,0.4c0.1,0.4,0.3,0.8,0.7,1
			c0.4,0.4,0.8,0.6,1.3,0.6c0.3,0,0.6-0.1,0.9-0.2c0.3-0.1,0.6-0.3,0.9-0.4l0.5-0.1c0.4-0.1,0.8-0.2,1.1-0.2
			c0.3-0.1,0.6-0.1,0.8-0.1c0.3,0,0.6,0,0.9-0.1c0.3,0,0.7,0,1.2,0h0.3l0,0c1.4,0,2.8-0.1,4.2-0.2l0,0c0.1,0,0.3,0,0.3,0h1.7
			c0.3,0,0.7,0,1,0.1c0.3,0,0.6,0,0.9,0c0.2,0,0.3,0,0.5,0c0.2,0,0.4,0,0.6,0l0.3-0.2c0.1-0.1,0.3-0.2,0.4-0.3l0.2-0.3
			C20.6,11.7,20.6,11.3,20.4,11z"/>
	</defs>
	<clipPath id="SVGID_5_">
		<use xlink:href="#SVGID_34_"  overflow="visible"/>
	</clipPath>
	
		<path clip-path="url(#SVGID_5_)" fill="none" stroke="#000000" stroke-width="6" stroke-linecap="round" stroke-linejoin="round" stroke-miterlimit="10" d="
		M3.6,12.3C4,10.8,18.7,11,18.7,11"/>
</g>
</svg>
