<?xml version="1.0" encoding="utf-8"?>
<!-- Generator: Adobe Illustrator 19.2.0, SVG Export Plug-In . SVG Version: 6.00 Build 0)  -->
<svg version="1.1" id="Layer_1" xmlns="http://www.w3.org/2000/svg" xmlns:xlink="http://www.w3.org/1999/xlink" x="0px" y="0px"
	 viewBox="0 0 18.6 36.5" enable-background="new 0 0 18.6 36.5" xml:space="preserve">
<g>
	<defs>
		<path id="SVGID_48_" d="M16.9,17.7c0,0.2,0,0.5,0.1,0.7c0.1,0.2,0.1,0.4,0.2,0.6c0.1,0.2,0.2,0.4,0.3,0.6c0.1,0.2,0.1,0.4,0.2,0.7
			c0,0.3,0,0.6,0,0.9c0,0.3-0.1,0.7-0.2,1c-0.1,0.3-0.2,0.6-0.4,0.8c-0.2,0.3-0.4,0.4-0.6,0.6c-0.3,0.4-0.6,0.6-1,0.8
			c-0.4,0.2-0.8,0.4-1.1,0.7c-0.2,0.1-0.5,0.2-0.7,0.3c-0.3,0.1-0.5,0.1-0.8,0.2c-0.2,0.1-0.5,0.2-0.8,0.4c-0.3,0.1-0.6,0.3-0.9,0.4
			c-0.3,0.1-0.6,0.2-1,0.2c-0.3,0.1-0.6,0.1-0.8,0C8.6,26.9,8,27,7.4,27.1c-0.6,0.1-1.2,0-2-0.1c-0.7,0.1-1.4,0.1-2-0.1
			c-0.6-0.2-1.2-0.4-1.6-0.8c-0.5-0.4-0.9-0.8-1.2-1.3c-0.4-0.5-0.6-1-0.9-1.6c-0.2-1.1-0.1-2.2,0.1-3.1s0.6-1.8,1-2.6
			c0.5-0.8,1-1.5,1.6-2.2c0.6-0.7,1.1-1.3,1.7-2c0.1,0,0.2,0,0.3,0c0.1,0,0.1-0.1,0.2-0.2c0.1-0.1,0.1-0.2,0.2-0.3
			c0.1-0.1,0.2-0.1,0.3-0.2c0.1-0.3,0.3-0.5,0.6-0.7c0.3-0.2,0.5-0.4,0.6-0.6c0.2,0,0.3-0.1,0.5-0.2C6.8,11.2,7,11.1,7.1,11
			c0.1-0.1,0.2-0.2,0.3-0.3c0.1-0.1,0.3-0.2,0.4-0.2v-0.3C8.2,10,8.5,9.8,8.6,9.6C8.8,9.4,9,9.2,9.3,8.9c0.2,0,0.3,0,0.4,0
			c0.1,0,0.3,0,0.5-0.1c0.2-0.3,0.3-0.5,0.4-0.6C10.8,8,11,7.8,11.2,7.7c0.2,0.1,0.5,0.2,0.8,0.2c0.3,0,0.5,0.2,0.8,0.4
			c0,0.2,0.1,0.4,0.2,0.5c0.1,0.1,0.2,0.2,0.3,0.3c0.1,0.1,0.2,0.2,0.3,0.3c0.1,0.1,0.2,0.2,0.2,0.4c0.1,0,0.1,0,0.2,0
			c0,0,0.1,0,0.2,0c0.1,0.3,0.1,0.5,0.2,0.6c0.1,0.1,0.2,0.3,0.2,0.5c-0.1,0.2-0.2,0.4-0.2,0.6c-0.1,0.2-0.2,0.4-0.4,0.5
			c0,0.1,0,0.2,0.1,0.2c0.1,0,0.2,0.1,0.2,0.2c0,0.2,0,0.3-0.1,0.4c0.5,0.8,0.9,1.6,1.3,2.5C15.9,16,16.4,16.9,16.9,17.7z
			 M13.1,20.5c0.1-0.2,0.2-0.4,0.3-0.5c0.1-0.1,0.2-0.4,0.2-0.6c-0.1-0.2-0.2-0.3-0.2-0.4c0-0.1,0-0.2,0-0.4c-0.4-0.6-0.8-1.3-1.1-2
			c-0.3-0.7-0.7-1.4-1.1-2c0,0.1-0.1,0.2-0.2,0.2c-0.1,0.1-0.2,0.1-0.3-0.1c0,0.2-0.1,0.3-0.2,0.3c-0.1,0.1-0.2,0.1-0.3,0.1
			c-0.1,0-0.2,0-0.4-0.1c-0.1,0-0.2-0.1-0.3-0.2c-0.6,0.5-1.2,0.9-1.7,1.4c-0.6,0.4-1.1,1-1.6,1.5c-0.1,0-0.1,0.1-0.2,0
			s-0.1,0-0.2,0c-0.2,0.4-0.4,0.7-0.6,1c-0.2,0.3-0.5,0.6-0.7,1c-0.2,0.3-0.4,0.7-0.6,1c-0.2,0.4-0.3,0.8-0.3,1.3
			c0.3,0.3,0.7,0.5,1.2,0.5c0.5,0.1,0.9,0.1,1.4,0c0.5,0,1-0.1,1.4-0.2c0.5-0.1,0.9-0.1,1.3-0.1c0.8-0.2,1.6-0.5,2.2-0.8
			C11.8,21.2,12.4,20.9,13.1,20.5z"/>
	</defs>
	<clipPath id="SVGID_3_">
		<use xlink:href="#SVGID_48_"  overflow="visible"/>
	</clipPath>
	
		<path clip-path="url(#SVGID_3_)" fill="none" stroke="#000000" stroke-width="6" stroke-linecap="round" stroke-linejoin="round" stroke-miterlimit="10" d="
		M11.8,10.3c-1.8,0.9-13,10-9.7,13.5s13.4-0.1,13.6-3.5s-4.5-8.6-4.5-8.6"/>
</g>
</svg>
