<?xml version="1.0" encoding="utf-8"?>
<!-- Generator: Adobe Illustrator 19.2.0, SVG Export Plug-In . SVG Version: 6.00 Build 0)  -->
<svg version="1.1" id="Layer_1" xmlns="http://www.w3.org/2000/svg" xmlns:xlink="http://www.w3.org/1999/xlink" x="0px" y="0px"
	 viewBox="0 0 23.2 36.5" enable-background="new 0 0 23.2 36.5" xml:space="preserve">
<g>
	<defs>
		<path id="SVGID_42_" d="M19.9,26.8c-0.2,0.1-0.4,0.2-0.6,0.3c-0.2,0.1-0.4,0.1-0.6,0.1c-0.8-0.6-1.2-1.6-1.2-3
			c0-1.4,0.3-3.3,0.9-5.5c0.1-0.1,0.2-0.2,0.2-0.4L18.3,18c-0.1,0-0.2,0-0.2,0c-0.1,0-0.1,0.1-0.2,0.2c-0.5,0.4-1.1,0.8-1.7,1.2
			c-0.6,0.4-1.3,0.8-1.9,1.1c-0.7,0.4-1.4,0.6-2.1,0.9c-0.7,0.2-1.4,0.3-2,0.3c-1.7,0-3-0.9-3.8-2.6l-0.2-0.5l-0.2,0.4
			c-0.1,0.1-0.2,0.2-0.3,0.5c-0.1,0.3-0.2,0.5-0.4,0.9s-0.2,0.6-0.3,1c-0.1,0.3-0.1,0.6-0.1,0.9c-0.2,0.2-0.4,0.4-0.6,0.6
			c-0.2,0.2-0.4,0.5-0.5,0.8c0,0.2,0,0.3,0.1,0.5c0,0.2-0.1,0.3-0.3,0.4c-0.1,0.1-0.2,0.2-0.3,0.3c-0.1,0.1-0.2,0.2-0.2,0.3
			c0,0.1-0.1,0.2-0.1,0.3c0,0.1,0,0.2,0,0.3c0,0.1,0,0.3-0.1,0.4c-0.3,0.7-0.6,1.2-0.8,1.4c-0.2,0.2-0.5,0.3-0.8,0.3
			c-0.2,0-0.4,0-0.8-0.1c-0.3-0.3-0.5-0.7-0.7-1.2c-0.2-0.5-0.4-1-0.5-1.6c-0.1-0.6-0.2-1.1-0.2-1.7c0-0.6,0.1-1.1,0.3-1.5
			c0,0,0.1-0.2,0.2-0.6c0.2-0.4,0.4-0.9,0.6-1.5c0.3-0.6,0.5-1.3,0.9-2c0.3-0.7,0.6-1.4,1-2.1c0.3-0.7,0.6-1.3,0.9-1.9
			c0.3-0.6,0.5-1,0.7-1.3c0.2-0.2,0.3-0.5,0.4-0.7s0.3-0.4,0.4-0.6c0.4-0.6,0.7-1.1,1-1.6c0.3-0.4,0.8-0.7,1.5-1
			c0.4,0.2,0.8,0.4,1,0.6l0.1,0.3c0.1,0.2,0.2,0.3,0.4,0.3C8.7,9.9,8.9,10,9.1,10c0.2,0.1,0.3,0.1,0.5,0.1c0.1,0.2,0.3,0.4,0.4,0.6
			c0.2,0.2,0.3,0.5,0.5,0.7c0.2,0.2,0.3,0.5,0.4,0.7c0.1,0.2,0.1,0.5,0.2,0.7c0,0.2,0,0.5-0.1,0.8l0,0.3c0.1,0.2,0.1,0.4,0.1,0.8
			c0,0.1,0,0.3,0,0.4s0,0.3,0.1,0.5c0.4,0.3,0.7,0.4,1,0.4c0.3,0,0.6-0.1,0.9-0.2c0.3-0.2,0.5-0.3,0.8-0.5c0.2-0.1,0.3-0.2,0.5-0.3
			c0.2-0.1,0.3-0.1,0.5-0.2c0.4-0.3,0.7-0.6,1-0.9c0.3-0.3,0.6-0.5,0.9-0.8c0.6-0.5,1.2-1,1.7-1.6c0.6-0.6,1-1.3,1.4-2.1
			c0.2-0.1,0.4-0.2,0.6-0.2s0.5,0.1,0.7,0.2s0.5,0.2,0.7,0.3c0.1,0,0.1,0.1,0.2,0.1c0,0,0.1,0,0.1,0.1c0,0.2,0.1,0.4,0.2,0.5
			c0.1,0.1,0.1,0.1,0.2,0.1c0,0,0,0,0.1,0.1c0.3,0.2,0.5,0.3,0.6,0.5c0.1,0.5,0.4,0.8,0.8,1.1c0,0.2,0,0.4,0,0.6
			c0,0.2,0.1,0.3,0.2,0.5c0,0.1,0,0.1,0.1,0.2c0,0.1,0,0.1,0.1,0.2l-0.6-0.1l0.1,0.6c0,0.3,0,0.6-0.1,0.9c-0.1,0.3-0.2,0.6-0.3,0.8
			c0,0.5,0,0.9,0,1.2c0,0.3,0,0.6,0,0.8c0,0.3-0.1,0.5-0.2,0.7c-0.1,0.2-0.2,0.5-0.3,0.7c0.1,1.3-0.1,2.5-0.4,3.5
			c-0.4,1.1-0.8,2-1.2,3c0,0.1-0.1,0.2-0.1,0.3c-0.1,0.1-0.1,0.2-0.1,0.3c-0.2,0.1-0.3,0.1-0.5,0.2C20.2,26.7,20,26.8,19.9,26.8z"/>
	</defs>
	<clipPath id="SVGID_3_">
		<use xlink:href="#SVGID_42_"  overflow="visible"/>
	</clipPath>
	
		<path clip-path="url(#SVGID_3_)" fill="none" stroke="#000000" stroke-width="6" stroke-linecap="round" stroke-linejoin="round" stroke-miterlimit="10" d="
		M1.1,25c0-1.6,6.3-15.1,6.7-14.3c0.4,0.8,0.3,8.5,2.5,8.6c3.5,0.1,8.4-7.2,10.6-7.5c1.7-0.3-1.8,10.8-1.4,12.8"/>
</g>
</svg>
