<?xml version="1.0" encoding="utf-8"?>
<!-- Generator: Adobe Illustrator 19.2.0, SVG Export Plug-In . SVG Version: 6.00 Build 0)  -->
<svg version="1.1" id="Layer_1" xmlns="http://www.w3.org/2000/svg" xmlns:xlink="http://www.w3.org/1999/xlink" x="0px" y="0px"
	 viewBox="0 0 18 36.5" enable-background="new 0 0 18 36.5" xml:space="preserve">
<g>
	<defs>
		<path id="SVGID_2_" d="M18.6,27.7l-0.1,0c-0.4-0.4,0-0.2-0.4-0.6c0.1-0.1,0.1-0.1,0.1-0.1s0.1,0-0.2-0.4c-0.2-0.2-0.6-0.5-0.8-0.8
			l0,0c-0.4-0.6-0.8-0.8-1.1-1.2c0.1-0.1,0.2-0.3,0.3-0.4c0.3-0.4,0.5-0.8,0.7-1.3c0.4-0.9,0.5-2,0.3-3.1c0,0,0-0.1,0-0.2
			c0-0.1,0-0.3,0-0.5c0-0.4-0.1-0.7-0.1-0.7s0,0-0.1-0.1c0,0-0.1-0.1-0.1-0.1s-0.2-0.1-0.6,0.1c-0.3,0.2-0.8,0.1-1.1,0.3
			c-0.4,0.5-0.7,0.4-1,0.4c-0.3,0.3-0.4,0.6-0.5,0.9l-0.1,0c0,0,0.1,0.2,0.1,0.2c0,0.2,0.1,0.4,0,0.4c0,0,0,0.2,0,0.4
			c0,0.3-0.1,0-0.2,0.3c0,0.2-0.1,0.3-0.2,0.5l-0.1-0.1c-0.4-0.4-1-1.1-1.8-2c-0.1-0.6-1-1.2-1.6-1.9c0.2-0.2,0.3-0.4,0.4-0.5
			c0.1,0,0.2-0.1,0,0c0.2-0.4,0.5-0.5,0.5-0.7c0.3,0,0.7-0.8,1.1-0.9l0-0.2l0.2-0.1c0.6-0.9,0.6-1,0.6-1.1c0-0.1,0.1-0.1,0.6-0.9
			c0.1-0.1,0.1-0.2,0.2-0.4c0.1-0.1,0.1-0.2,0.2-0.3c0.1-0.2,0.2-0.4,0.2-0.6c0.1-0.4,0.2-0.7,0.3-1.1c0,0.1-0.2,0.4-0.1,0
			c0.1,0,0.1-0.2,0.1-0.5c0-0.3,0.1-0.5,0.1-0.6c0-0.1,0-0.2,0-0.4c0-0.2,0-0.4,0-0.6c0-0.4-0.1-0.6-0.2-0.3c0-0.1,0-0.5-0.1-0.8
			c-0.1-0.3,0.1-0.2-0.1-0.5c0,0-0.1-0.1-0.2-0.1c-0.4-0.7-0.8-1.1-1.2-1.4c-0.4-0.3-0.4-0.3-0.9-0.5c0,0-0.3,0-0.1,0
			c0.1,0.1,0.2,0.1,0.2,0.1c-0.8-0.4-1.6-0.4-1.9-0.5c0,0-0.1-0.1,0.1,0c0.1,0,0.1,0-0.2,0c-0.3,0-0.5,0-0.8,0.1
			C8.8,4.9,8.4,5,7.9,5.3l0.3-0.1C8,5.3,7.4,5.5,6.8,6C6,6.5,5.6,7,5.1,7.8C4.2,8.5,4.2,9.3,4,10c-0.1,0.3-0.2,0.6-0.2,0.9
			c0,0.3-0.1,0.4-0.1,0.6c0,0-0.1,0-0.1-0.1c-0.1,0.5-0.2,1.4,0,2.6c0.2,1.1,0.6,2.3,1.3,3.3c-0.4,0.3-0.7,0.6-1.1,0.9
			c-0.4,0.3-0.9,0.7-1.5,1C2,19.6,1.5,19.8,1,20.2c-0.3,0.4-0.3,0.8-0.5,1c-0.3,0.6-0.7,1.4-0.6,2.3c0,0.8-0.1,1.6,0.2,2.2l-0.1-0.1
			c0.1,0.4,0.4,1.1,1,1.8c0.6,0.8,1.5,1.5,2.5,2c0.3,0.1,0.6,0.2,0.8,0.3c0.3,0.1,0.5,0.1,0.8,0.2C5.8,30,6.3,30,6.8,30
			c0.9,0,1.6-0.2,1.9-0.2l-0.2,0c0.6-0.2,0.8-0.2,1.1-0.3c0.2,0,0.4,0,0.9-0.2c-0.2-0.1,0.7-0.6,1-0.7l0,0c0.3-0.2,0.7-0.4,1.1-0.8
			c0.3-0.2,0.6-0.5,0.8-0.7c0.6,0.6,1.2,1.6,1.6,1.7c1.1,0.4,3.6-0.9,3.8-1C18.8,27.9,18.8,27.9,18.6,27.7z M7.3,12.4L7.3,12.4
			c0-0.5,0.2-1.2,0.7-1.9c0.2-0.3,0.5-0.7,0.8-0.9c0.1-0.1,0.3-0.3,0.5-0.4C9.3,9.1,9.5,9,9.7,8.9c0.2-0.1,0.3-0.1,0.5-0.1
			c0.1,0,0.1,0,0.2,0c0.1,0,0.2,0.1,0.2,0.1c0,0,0,0.1,0,0.1c0,0,0,0,0,0.1c0,0,0,0.1,0,0.2c0,0.3-0.1,0.6-0.2,0.9
			c-0.1,0.2-0.2,0.4-0.4,0.6c-0.1,0.2-0.3,0.5-0.5,0.7c0.2-0.2,0.2-0.1,0.1,0.1c-0.4,0.7-0.4,0.7-0.4,0.7c0,0,0,0.1-0.4,0.7
			c-0.2,0.3-0.6,0.8-1,1.3c0-0.1-0.1-0.2-0.1-0.3c-0.1-0.4-0.2-0.7-0.2-1c0-0.1,0-0.3,0-0.4C7.3,12.6,7.3,12.5,7.3,12.4z M10.4,24.8
			c-0.3,0.2-0.5,0.3-0.7,0.4c-0.3,0.1-0.6,0.3-0.8,0.4c-0.1,0,0,0,0.1-0.1C8.2,25.7,7.6,25.9,7,26c-0.2,0-0.2-0.1-0.3-0.1
			c0.1,0-0.8,0.1-1.3-0.1c-0.3-0.1-0.5-0.3-0.7-0.4C4.5,25.2,4.4,25,4.4,25l-0.1,0.1c-0.2-0.2-0.1-0.2-0.1-0.3c0,0,0-0.1-0.1-0.2
			c-0.1,0-0.1,0-0.1-0.1c0-0.1-0.1-0.1-0.1-0.2c0,0,0-0.1,0-0.1c0,0,0-0.1,0-0.1c0,0,0-0.1,0-0.1c0,0,0,0,0-0.1c0,0,0-0.1,0.1,0
			c-0.1,0,0-0.1,0-0.2c0,0,0,0-0.1,0c0,0,0-0.1,0-0.1c0-0.1,0-0.1,0-0.1c0.1-0.1,0.2-0.1,0.1,0c0.1-0.1,0.3-0.5,0.8-1
			c0.5-0.5,1.4-1.1,2.3-1.9c0.1,0,0.1-0.1,0.2-0.1c0.5,0.6,0.9,1.1,1.1,1.3C8.7,22.2,8.4,22,8.3,22c0.5,0.5,0.8,0.7,0.8,0.5L9.6,23
			l-0.1,0c0.1,0.1,0.4,0.2,0.9,0.7c0.2,0.2,0.3,0.4,0.5,0.6C10.7,24.5,10.6,24.6,10.4,24.8z"/>
	</defs>
	<clipPath id="SVGID_3_">
		<use xlink:href="#SVGID_2_"  overflow="visible"/>
	</clipPath>
	
		<path clip-path="url(#SVGID_3_)" fill="none" stroke="#000000" stroke-width="6" stroke-linecap="round" stroke-linejoin="round" stroke-miterlimit="10" d="
		M15.2,18.3c0.9,1.6,0.8,3.5,0,4.9c-0.8,1.4-3,3.3-4.5,4C8.9,28,6.8,28.5,4.9,28s-3.5-2.5-3.2-4.6c0.4-1.7,2-2.8,3.4-4
		c2.6-2.1,4.9-4.6,6.6-7.5c0.8-1.4,1.4-3.3,0.3-4.4c-1-1-2.7-0.7-4,0C6.1,8.9,4.8,11.6,5.3,14c0.4,2.1,1.9,3.8,3.2,5.4
		c2.3,2.7,6.6,7.6,9,10.3"/>
</g>
</svg>
