<?xml version="1.0" encoding="utf-8"?>
<!-- Generator: Adobe Illustrator 19.2.0, SVG Export Plug-In . SVG Version: 6.00 Build 0)  -->
<svg version="1.1" id="Layer_1" xmlns="http://www.w3.org/2000/svg" xmlns:xlink="http://www.w3.org/1999/xlink" x="0px" y="0px"
	 viewBox="0 0 15.6 36.5" enable-background="new 0 0 15.6 36.5" xml:space="preserve">
<g>
	<defs>
		<path id="SVGID_136_" d="M14.1,9.3c0,0.2,0,0.4,0,0.5s0.1,0.3,0.1,0.5c0,0.2,0.1,0.3,0.1,0.5c0,0.2,0,0.3,0,0.5
			c0.1,0.2,0.2,0.4,0.3,0.5c0.1,0.2,0.3,0.3,0.4,0.5s0.2,0.3,0.3,0.5c0.1,0.2,0.1,0.4,0.1,0.7c-0.2,0.2-0.3,0.4-0.4,0.6
			c-0.1,0.2-0.2,0.4-0.4,0.5s-0.3,0.3-0.5,0.4s-0.3,0.3-0.5,0.4c-0.2,0.5-0.3,0.8-0.5,1.1c-0.2,0.3-0.3,0.7-0.5,1.1
			c0,0.5-0.1,1-0.2,1.4c-0.1,0.4-0.2,0.9-0.3,1.3c-0.1,0.4-0.2,0.8-0.3,1.3c-0.1,0.4-0.2,0.9-0.3,1.4c0,0.8-0.2,1.6-0.4,2.4
			c-0.3,0.8-0.6,1.5-1.1,2.2c-0.4,0-0.7,0-1,0c-0.3,0.1-0.6,0.1-1,0.2c-0.2-0.2-0.3-0.3-0.4-0.5c-0.1-0.2-0.3-0.3-0.4-0.4
			c0-1,0.1-1.9,0.2-2.7s0.2-1.6,0.4-2.4c0.2-0.8,0.3-1.6,0.5-2.4c0.2-0.8,0.4-1.8,0.6-2.8c-0.3,0-0.6,0-1,0
			c-0.4,0.1-0.8,0.1-1.2,0.2c-0.4,0.1-0.8,0.2-1.2,0.2s-0.8,0.2-1.2,0.2c-0.2,0-0.4,0-0.7,0c-0.2,0-0.4,0-0.6,0
			C3,17.1,2.8,17,2.7,17c-0.2-0.1-0.3-0.2-0.4-0.3c-0.3,0.1-0.6,0.1-0.8,0c-0.2-0.1-0.4-0.3-0.6-0.5c-0.2-0.2-0.3-0.4-0.4-0.6
			c-0.1-0.2-0.2-0.5-0.3-0.7C0,14.1,0,13.5,0,13c0-0.5,0.2-1,0.3-1.4c0.2-0.4,0.3-0.9,0.6-1.3S1.4,9.5,1.6,9C2.1,8.5,2.7,8,3.3,7.4
			C4,6.9,4.7,6.4,5.4,6c0.7-0.4,1.5-0.8,2.4-1s1.7-0.3,2.7-0.2c0.8,0.6,1.5,1.3,2,2.1C13.1,7.6,13.6,8.4,14.1,9.3z M10.1,10.8
			c0-0.4-0.1-0.6-0.3-0.8C9.6,9.9,9.3,9.8,9,9.7c-0.5,0.2-1,0.4-1.5,0.6s-0.9,0.5-1.2,0.8c-0.1,0.1-0.1,0.1-0.2,0.1
			c-0.1,0-0.2,0-0.3,0.1s-0.1,0.1-0.2,0.2s0,0.2,0,0.3c0.8,0,1.6,0,2.3-0.3C8.7,11.3,9.4,11.1,10.1,10.8z"/>
	</defs>
	<clipPath id="SVGID_3_">
		<use xlink:href="#SVGID_136_"  overflow="visible"/>
	</clipPath>
	
		<path clip-path="url(#SVGID_3_)" fill="none" stroke="#000000" stroke-width="6" stroke-linecap="round" stroke-linejoin="round" stroke-miterlimit="10" d="
		M13.9,13.3c-1.4,0.5-10.3,2.2-11.6,0.4s5.1-7.6,7-6.8s3.5,2.8,1.7,10.8S8.2,28,8.2,28"/>
</g>
</svg>
