<?xml version="1.0" encoding="utf-8"?>
<!-- Generator: Adobe Illustrator 19.2.0, SVG Export Plug-In . SVG Version: 6.00 Build 0)  -->
<svg version="1.1" id="Layer_1" xmlns="http://www.w3.org/2000/svg" xmlns:xlink="http://www.w3.org/1999/xlink" x="0px" y="0px"
	 viewBox="0 0 19.3 36.5" enable-background="new 0 0 19.3 36.5" xml:space="preserve">
<g>
	<defs>
		<path id="SVGID_36_" d="M18.9,21.8c-0.3-0.3-0.6-0.5-1.1-0.7c-0.1,0-0.1,0-0.1,0.1c0,0.1,0,0.1-0.1,0.1c-0.8,0-1.5,0-2.2,0
			c-0.7,0-1.4-0.1-2-0.2s-1.1-0.4-1.6-0.7c-0.5-0.3-0.9-0.8-1.2-1.5l0,0c-0.2-0.5-0.8-0.6-1.3-0.6c-0.5,0.1-1.1,0.5-1.6,0.8
			c-0.6,0.5-0.7,1.1-0.5,1.8c0,0.1,0.1,0.6,0.2,0.6s0.1,0.1,0.1,0.1c0.1,0,0.2,0.1,0.3,0.1c0.1,0,0.2,0.1,0.2,0.1
			c0.2,0.3,0.5,0.6,0.8,0.9c0.3,0.3,0.7,0.6,1,0.8c0.3,0.2,0.6,0.4,0.9,0.6s0.6,0.4,0.8,0.5c0.1,0,0.3,0.1,0.4,0s0.3,0,0.4,0.1
			c0,0,0.1,0.1,0.1,0.2c0,0.1,0.1,0.1,0.1,0.2c0.7,0.3,1.4,0.5,2.2,0.6c0.7,0.1,1.6,0.1,2.5,0.1c0.7-0.3,1.3-0.7,1.7-1.2
			c0.4-0.5,0.7-1.1,0.7-1.9C19.4,22.4,19.1,22.1,18.9,21.8z"/>
	</defs>
	<clipPath id="SVGID_3_">
		<use xlink:href="#SVGID_36_"  overflow="visible"/>
	</clipPath>
	
		<path clip-path="url(#SVGID_3_)" fill="none" stroke="#000000" stroke-width="6" stroke-linecap="round" stroke-linejoin="round" stroke-miterlimit="10" d="
		M8.1,19.2c0.8,2.1,5.1,5.6,9.3,4.8"/>
</g>
<g>
	<defs>
		<path id="SVGID_38_" d="M7.5,21.6c0.5-0.4,1-0.7,1.4-1.1c0.5-0.5,1.2-1.1,1.6-1.6l0,0c0-0.1,0.1-0.3,0.3-0.3
			c0.1-0.1,0.2-0.2,0.3-0.3c0.1,0,0.1,0,0.2,0c0.1,0,0.1,0,0.2,0c0.1-0.2,0.2-0.3,0.3-0.4s0.3-0.2,0.5-0.3c0.2-0.1,0.3-0.2,0.5-0.3
			s0.3-0.2,0.4-0.4c0.5-0.4,0.9-0.7,1.4-0.9s0.9-0.5,1.3-0.8c0.4-0.3,0.8-0.5,1.3-0.8c0.4-0.3,0.8-0.6,1.2-1
			c0.1-0.2,0.2-0.4,0.3-0.6c0.1-0.2,0.2-0.3,0.3-0.5c0-0.3-0.1-0.5-0.2-0.7c-0.1-0.1-0.2-0.3-0.4-0.4c-0.1-0.1-0.3-0.2-0.4-0.3
			c-0.1-0.1-0.3-0.3-0.4-0.5c-0.3,0-0.5-0.2-0.7-0.3c-0.2-0.2-0.3-0.4-0.5-0.6c-0.3,0.1-0.5,0.2-0.7,0.3C15.2,9.8,15,9.9,14.7,10
			c0,0.1,0,0.2,0.1,0.2c0.1,0,0.1,0.1,0.1,0.2c-0.1,0-0.2-0.1-0.3-0.1c-0.1,0-0.2,0-0.4,0c-0.7,0.5-1.3,0.9-1.9,1.3
			c-0.6,0.4-1.3,0.9-1.9,1.5c-0.2,0.2-0.5,0.4-0.8,0.6c-0.3,0.2-0.6,0.4-0.9,0.6C8.3,14.5,8,14.8,7.7,15c-0.3,0.2-0.6,0.5-0.8,0.7
			c0-0.4,0.1-0.9,0.3-1.4c0.2-0.5,0.5-1,0.9-1.3c-0.1-0.1-0.1-0.1-0.1-0.2c0,0,0-0.1,0-0.1c0,0,0-0.1,0-0.1s0-0.1,0-0.2
			c0.3-0.2,0.5-0.4,0.6-0.6c0.1-0.3,0.1-0.6,0-0.9c-0.1-0.3-0.2-0.6-0.3-0.9C8.2,9.7,8,9.4,7.8,9.3L7.3,9.4C7.3,9.3,7.2,9.2,7.1,9.1
			S7,8.9,7,8.8c-0.3,0-0.6,0-0.8-0.2C5.9,8.5,5.7,8.4,5.4,8.4C5.1,8.5,4.8,8.8,4.6,9.1C4.4,9.4,4.3,9.7,4.1,10
			c-0.2,0.3-0.3,0.6-0.4,0.9c-0.1,0.3-0.3,0.6-0.5,0.8c-0.2,0.9-0.5,1.8-0.8,2.6c-0.3,0.8-0.6,1.6-0.9,2.4c-0.3,0.8-0.6,1.6-0.9,2.4
			c-0.3,0.8-0.4,1.8-0.5,2.7c-0.1,0-0.2,0.1-0.2,0.1c-0.1,0-0.1,0.1-0.1,0.2c0.1,0.1,0.1,0.1,0.1,0.1c0,0,0,0.1,0.2,0.3
			c-0.1,0-0.3,0.1-0.4,0.1c-0.1,0.1-0.1,0.2-0.1,0.4c0,0.1,0.1,0.2,0.1,0.3c0,0.1,0.1,0.2,0.1,0.3c0,0.1,0,0.2-0.2,0.3
			c0.2,0.1,0.4,0.3,0.5,0.4C0,24.5-0.1,24.7,0,24.8c0,0.2,0.1,0.3,0.2,0.5c0.1,0.2,0.2,0.4,0.3,0.6c0.1,0.2,0.1,0.4,0.1,0.7
			c0.1,0,0.3,0.1,0.4,0.2C1.1,26.9,1.2,27,1.3,27c0.1,0.1,0.3,0.2,0.4,0.2c0.1,0.1,0.3,0.1,0.5,0.1c0.6-0.3,1.1-0.6,1.5-1.1
			c0.4-0.5,0.8-1,1.1-1.6C5.3,24.1,5.6,23.5,6,23C6.4,22.4,6.9,22,7.5,21.6L7.5,21.6z"/>
	</defs>
	<clipPath id="SVGID_5_">
		<use xlink:href="#SVGID_38_"  overflow="visible"/>
	</clipPath>
	
		<path clip-path="url(#SVGID_5_)" fill="none" stroke="#000000" stroke-width="6" stroke-linecap="round" stroke-linejoin="round" stroke-miterlimit="10" d="
		M6.5,10.6C5.4,11.7,1.4,23.3,2,24.5s7.6-9.8,14.2-12.2"/>
</g>
</svg>
