<?xml version="1.0" encoding="utf-8"?>
<!-- Generator: Adobe Illustrator 19.2.0, SVG Export Plug-In . SVG Version: 6.00 Build 0)  -->
<svg version="1.1" id="Layer_1" xmlns="http://www.w3.org/2000/svg" xmlns:xlink="http://www.w3.org/1999/xlink" x="0px" y="0px"
	 viewBox="0 0 7.2 36.5" enable-background="new 0 0 7.2 36.5" xml:space="preserve">
<g>
	<defs>
		<path id="SVGID_84_" d="M1.9,22.3c0.1,0.1,0.3,0.2,0.6,0.3c0.3,0.1,0.6,0.3,0.9,0.4c0.3,0.1,0.6,0.2,0.9,0.3s0.5,0.2,0.6,0.2
			c0.2,0.4,0.3,0.8,0.4,1.1c0,0.3,0.1,0.6,0.1,1c-0.1,0.1-0.2,0.3-0.2,0.5c0,0.2,0,0.4,0,0.5c0,0.2-0.1,0.3-0.1,0.3
			C5.1,26.9,5,27,5,27.1c0,0,0,0.1,0,0.2c0,0.1,0,0.1,0,0.2c0,0.1-0.1,0.2-0.1,0.2c-0.1,0-0.1,0.1-0.2,0.2c-0.1,0.2-0.1,0.4-0.2,0.4
			c0,0,0,0.1-0.1,0.1c0,0,0,0-0.1,0.1c0,0-0.1,0.1-0.2,0.3c-0.1,0.3-0.3,0.6-0.5,0.9c-0.2,0.3-0.3,0.6-0.4,0.9
			c-0.3,0.2-0.6,0.5-1,0.9c-0.4,0.4-0.8,0.6-1.2,0.8C1,32.1,0.7,32,0.3,31.8c-0.4-0.2-0.8-0.4-1.1-0.6c-0.4-0.2-0.6-0.5-0.8-0.7
			s-0.2-0.5,0.1-0.7c0.4-0.4,0.7-0.8,0.9-1.4c0.3-0.5,0.5-1.1,0.7-1.7c0.2-0.6,0.4-1.2,0.5-1.9c0.2-0.7,0.3-1.3,0.4-1.9
			c0.1,0.1,0.2,0.1,0.2,0.1c0.1,0,0.2-0.1,0.2-0.2c0.1-0.1,0.2-0.2,0.2-0.3C1.8,22.4,1.9,22.3,1.9,22.3z"/>
	</defs>
	<clipPath id="SVGID_3_">
		<use xlink:href="#SVGID_84_"  overflow="visible"/>
	</clipPath>
	
		<path clip-path="url(#SVGID_3_)" fill="none" stroke="#000000" stroke-width="6" stroke-linecap="round" stroke-linejoin="round" stroke-miterlimit="10" d="
		M3.2,24.4c0.2,1.1-2.1,5.1-2.6,5.7"/>
</g>
</svg>
