<?xml version="1.0" encoding="utf-8"?>
<!-- Generator: Adobe Illustrator 19.2.0, SVG Export Plug-In . SVG Version: 6.00 Build 0)  -->
<svg version="1.1" id="Layer_1" xmlns="http://www.w3.org/2000/svg" xmlns:xlink="http://www.w3.org/1999/xlink" x="0px" y="0px"
	 viewBox="0 0 16.9 36.5" enable-background="new 0 0 16.9 36.5" xml:space="preserve">
<g>
	<defs>
		<path id="SVGID_82_" d="M3.1,28.2c-0.1,0-0.2-0.1-0.3-0.1l-0.4-0.7l-0.5,0.4c-0.1-0.1-0.3-0.2-0.3-0.2c-0.1-0.1-0.2-0.2-0.3-0.3
			c-0.2-0.2-0.4-0.3-0.6-0.5s-0.3-0.3-0.3-0.5l0-0.3L0.1,26C0,25.7,0,25.5-0.1,25.4c-0.1-0.1-0.2-0.2-0.3-0.3
			c-0.1-1-0.1-1.8,0.1-2.5c0.2-0.7,0.5-1.4,0.9-2.2c0.2-0.1,0.5-0.2,0.6-0.3c0.2-0.1,0.4-0.3,0.5-0.4c0.2-0.1,0.3-0.3,0.5-0.4
			c0.2-0.1,0.3-0.2,0.5-0.2L3,18.9c0.3-0.4,0.8-0.8,1.2-1.1c0.5-0.3,1-0.6,1.5-0.9c0.4-0.2,0.8-0.5,1.3-0.8c0.4-0.3,0.8-0.6,1.2-0.9
			c0.2,0,0.3,0,0.4-0.1c0.1-0.1,0.1-0.2,0.1-0.4c0,0,0.1-0.1,0.1-0.1S9,14.6,9,14.5c0.1-0.1,0.3-0.2,0.6-0.4s0.4-0.3,0.5-0.5
			l0.7-0.6l-0.9,0c-0.5,0-1,0.1-1.5,0.1c-0.5,0-1,0.1-1.3,0.1c-0.3,0-0.6,0.1-0.9,0.1c-0.3,0-0.7,0-1.1,0c-0.6-0.4-1.1-1-1.3-1.8
			c-0.3-0.8-0.3-1.6,0-2.3c0.1,0,0.3-0.1,0.4-0.1C4.1,9.1,4.2,9,4.3,9c0.2,0,0.3,0,0.4,0c0.1,0,0.1,0,0.2,0c0.6-0.1,1-0.2,1.4-0.2
			c0.4,0,0.7,0,1,0c0.3,0,0.7,0,1,0C8.7,8.8,9,8.9,9.3,9c0.7,0,1.4,0,2.1-0.1c0.7-0.1,1.5,0,2.2,0.2c0.5-0.2,1.1-0.2,1.6-0.2
			c0.5,0.1,1,0.3,1.4,0.7c0,0.3,0.1,0.6,0.3,0.8c0.2,0.2,0.3,0.3,0.6,0.4c0.2,0.6,0.2,1.1,0,1.5c-0.1,0.4-0.3,0.8-0.6,1.2
			s-0.7,0.6-1.1,0.9s-0.8,0.5-1.2,0.8c-0.1,0.2-0.3,0.3-0.4,0.4c-0.2,0.1-0.3,0.2-0.5,0.4c-0.7,0.8-1.4,1.6-2.3,2.2
			s-1.7,1.2-2.6,1.8c-0.6,0.4-1.3,0.8-1.9,1.3c-0.6,0.4-1.2,0.9-1.8,1.4L4.8,23l0.3,0.3c0.2,0.2,0.5,0.4,0.8,0.4
			c0.2,0,0.4,0,0.5-0.1c0.2,0,0.3-0.1,0.5-0.2c0.2,0,0.3-0.1,0.4-0.1c0.1,0,0.2-0.1,0.3-0.1h0.4c0.2-0.1,0.3-0.2,0.5-0.2
			c0.2-0.1,0.3-0.1,0.5-0.2c0.2,0,0.3-0.1,0.5-0.1c0.1,0,0.3-0.1,0.5-0.2c0.4,0,0.9-0.1,1.3-0.2c0.4-0.1,0.8-0.3,1.2-0.4
			c0.2-0.1,0.5-0.2,0.7-0.3c0.2-0.1,0.5-0.1,0.7-0.2c0.1,0.1,0.2,0.2,0.3,0.3c0.1,0.1,0.2,0.1,0.3,0.2c0.3,0.2,0.4,0.3,0.4,0.5
			l0.1,0.8l0.6-0.6c0.2,0.2,0.4,0.4,0.4,0.7c0,0.3,0,0.6-0.1,1c-0.6,0.6-1.4,1.1-2.4,1.5s-2,0.7-3.1,1.1C10.1,26.9,9.9,27,9.6,27
			c-0.2,0.1-0.5,0.1-0.7,0.2l0-0.5l-0.7,0.4c-0.1,0.1-0.1,0.1-0.2,0.2c0,0.1-0.1,0.1-0.1,0.2c-0.5,0.1-1,0.2-1.3,0.3
			c-0.3,0.1-0.7,0.1-1,0.2c-0.3,0.1-0.7,0.1-1,0.2c-0.3,0-0.6,0.1-1,0.1c-0.1,0-0.2,0-0.3,0C3.3,28.3,3.2,28.3,3.1,28.2z"/>
	</defs>
	<clipPath id="SVGID_3_">
		<use xlink:href="#SVGID_82_"  overflow="visible"/>
	</clipPath>
	
		<path clip-path="url(#SVGID_3_)" fill="none" stroke="#000000" stroke-width="6" stroke-linecap="round" stroke-linejoin="round" stroke-miterlimit="10" d="
		M5.9,11c1.1-0.2,7.7-1.1,9.6,0c2.9,1.7-16,9.6-13.6,13.1s8.6,1.4,11.8-0.6"/>
</g>
<g>
	<defs>
		<path id="SVGID_84_" d="M21.2,22.3c0.1,0.1,0.3,0.2,0.6,0.3c0.3,0.1,0.6,0.3,0.9,0.4c0.3,0.1,0.6,0.2,0.9,0.3s0.5,0.2,0.6,0.2
			c0.2,0.4,0.3,0.8,0.4,1.1c0,0.3,0.1,0.6,0.1,1c-0.1,0.1-0.2,0.3-0.2,0.5c0,0.2,0,0.4,0,0.5c0,0.2-0.1,0.3-0.1,0.3
			c-0.1,0-0.1,0.1-0.2,0.3c0,0,0,0.1,0,0.2c0,0.1,0,0.1,0,0.2c0,0.1-0.1,0.2-0.1,0.2c-0.1,0-0.1,0.1-0.2,0.2
			c-0.1,0.2-0.1,0.4-0.2,0.4c0,0,0,0.1-0.1,0.1c0,0,0,0-0.1,0.1c0,0-0.1,0.1-0.2,0.3c-0.1,0.3-0.3,0.6-0.5,0.9
			c-0.2,0.3-0.3,0.6-0.4,0.9c-0.3,0.2-0.6,0.5-1,0.9c-0.4,0.4-0.8,0.6-1.2,0.8c-0.2-0.1-0.5-0.2-0.9-0.4c-0.4-0.2-0.8-0.4-1.1-0.6
			c-0.4-0.2-0.6-0.5-0.8-0.7s-0.2-0.5,0.1-0.7c0.4-0.4,0.7-0.8,0.9-1.4c0.3-0.5,0.5-1.1,0.7-1.7c0.2-0.6,0.4-1.2,0.5-1.9
			c0.2-0.7,0.3-1.3,0.4-1.9c0.1,0.1,0.2,0.1,0.2,0.1c0.1,0,0.2-0.1,0.2-0.2c0.1-0.1,0.2-0.2,0.2-0.3C21,22.4,21.1,22.3,21.2,22.3z"
			/>
	</defs>
	<clipPath id="SVGID_5_">
		<use xlink:href="#SVGID_84_"  overflow="visible"/>
	</clipPath>
	
		<path clip-path="url(#SVGID_5_)" fill="none" stroke="#000000" stroke-width="6" stroke-linecap="round" stroke-linejoin="round" stroke-miterlimit="10" d="
		M22.4,24.4c0.2,1.1-2.1,5.1-2.6,5.7"/>
</g>
</svg>
