<?xml version="1.0" encoding="utf-8"?>
<!-- Generator: Adobe Illustrator 18.0.0, SVG Export Plug-In . SVG Version: 6.00 Build 0)  -->
<!DOCTYPE svg PUBLIC "-//W3C//DTD SVG 1.1//EN" "http://www.w3.org/Graphics/SVG/1.1/DTD/svg11.dtd">
<svg version="1.1" id="Layer_1" xmlns="http://www.w3.org/2000/svg" xmlns:xlink="http://www.w3.org/1999/xlink" x="0px" y="0px"
	 viewBox="-98.4 0 792 841.9" enable-background="new -98.4 0 792 841.9" xml:space="preserve">
<path d="M351.1,243.9H244.2c-30.1,0-54.5-24.4-54.5-54.5V82.5c0-30.1,24.4-54.5,54.5-54.5h106.9c30.1,0,54.5,24.4,54.5,54.5v106.9
	C405.6,219.5,381.2,243.9,351.1,243.9z"/>
<path d="M639.1,243.9H532.2c-30.1,0-54.5-24.4-54.5-54.5V82.5c0-30.1,24.4-54.5,54.5-54.5h106.9c30.1,0,54.5,24.4,54.5,54.5v106.9
	C693.6,219.5,669.2,243.9,639.1,243.9z"/>
<path d="M63.1,243.9H-43.8c-30.1,0-54.5-24.4-54.5-54.5V82.5c0-30.1,24.4-54.5,54.5-54.5H63.1c30.1,0,54.5,24.4,54.5,54.5v106.9
	C117.6,219.5,93.2,243.9,63.1,243.9z"/>
<path d="M351.1,528.9H244.2c-30.1,0-54.5-24.4-54.5-54.5V367.5c0-30.1,24.4-54.5,54.5-54.5h106.9c30.1,0,54.5,24.4,54.5,54.5v106.9
	C405.6,504.5,381.2,528.9,351.1,528.9z"/>
<path d="M639.1,528.9H532.2c-30.1,0-54.5-24.4-54.5-54.5V367.5c0-30.1,24.4-54.5,54.5-54.5h106.9c30.1,0,54.5,24.4,54.5,54.5v106.9
	C693.6,504.5,669.2,528.9,639.1,528.9z"/>
<path d="M63.1,528.9H-43.8c-30.1,0-54.5-24.4-54.5-54.5V367.5c0-30.1,24.4-54.5,54.5-54.5H63.1c30.1,0,54.5,24.4,54.5,54.5v106.9
	C117.6,504.5,93.2,528.9,63.1,528.9z"/>
<path d="M63.1,813.9H-43.8c-30.1,0-54.5-24.4-54.5-54.5V652.5c0-30.1,24.4-54.5,54.5-54.5H63.1c30.1,0,54.5,24.4,54.5,54.5v106.9
	C117.6,789.5,93.2,813.9,63.1,813.9z"/>
<path d="M351.1,813.9H244.2c-30.1,0-54.5-24.4-54.5-54.5V652.5c0-30.1,24.4-54.5,54.5-54.5h106.9c30.1,0,54.5,24.4,54.5,54.5v106.9
	C405.6,789.5,381.2,813.9,351.1,813.9z"/>
<path d="M639.1,813.9H532.2c-30.1,0-54.5-24.4-54.5-54.5V652.5c0-30.1,24.4-54.5,54.5-54.5h106.9c30.1,0,54.5,24.4,54.5,54.5v106.9
	C693.6,789.5,669.2,813.9,639.1,813.9z"/>
</svg>
