<?xml version="1.0" encoding="utf-8"?>
<!-- Generator: Adobe Illustrator 18.0.0, SVG Export Plug-In . SVG Version: 6.00 Build 0)  -->
<!DOCTYPE svg PUBLIC "-//W3C//DTD SVG 1.1//EN" "http://www.w3.org/Graphics/SVG/1.1/DTD/svg11.dtd">
<svg version="1.1" id="Layer_1" xmlns="http://www.w3.org/2000/svg" xmlns:xlink="http://www.w3.org/1999/xlink" x="0px" y="0px"
	 viewBox="393 -1003.6 857.1 1000" enable-background="new 393 -1003.6 857.1 1000" xml:space="preserve">
<path d="M923-403.1c-28.7,28-62.3,42-101,42s-72.3-14-101-42s-42.7-61.7-42-101s14.7-73,42-101s61-42,101-42s73.7,14,101,42
	c27.3,28,41,61.7,41,101C965.3-464.8,951.7-431.1,923-403.1z M1246-578.1c-3.3-4-7.3-6.3-12-7l-102-15c-6-18-13.7-36.3-23-55
	c6.7-8.7,16.7-21.7,30-39s23-30,29-38c2.7-4,4-8,4-12c0-5.3-1.3-9.7-4-13c-13.3-18.7-44-50.3-92-95c-4.7-3.3-9.3-5-14-5
	c-5.3,0-9.7,1.7-13,5l-80,60c-14.7-8-31.3-15-50-21l-15-103c-0.7-5.3-3-9.3-7-12s-8.3-4-13-4H760c-11.3,0-18,5-20,15
	c-5.3,18.7-11,53.3-17,104c-17.3,5.3-34,12.3-50,21l-77-60c-5.3-3.3-10.3-5-15-5c-8.7,0-26.3,13.3-53,40c-26.7,26.7-45,46.7-55,60
	c-3.3,4.7-5,8.7-5,12c0,4.7,2,9.3,6,14c24.7,30,44.7,55.7,60,77c-9.3,17.3-16.7,34.3-22,51l-104,16c-3.3,0.7-6.7,3-10,7s-5,8.3-5,13
	v124c0.7,4.7,2.3,9,5,13s6.3,6.3,11,7l102,15c5.3,18,13,36.3,23,55c-6.7,10-16.7,23.3-30,40c-13.3,16.7-22.7,29-28,37
	c-3.3,4-5,8-5,12c0,5.3,1.3,9.7,4,13c14.7,20,45.3,51.3,92,94c4,4,8.7,6,14,6s10-1.7,14-5l79-60c15.3,8,32,15,50,21l16,103
	c0,4.7,2,8.7,6,12s8.7,5,14,5h124c10.7,0,17.3-5.3,20-16c4.7-18.7,10-53.3,16-104c17.3-5.3,34.3-12.3,51-21l77,60
	c4.7,3.3,9.3,5,14,5c8.7,0.7,26.3-12.3,53-39s45-47,55-61c3.3-4,5-8.3,5-13s-2-9-6-13c-26.7-33.3-46.3-59-59-77
	c7.3-14,14.3-31,21-51l104-16c4.7-0.7,8.3-3,11-7s4-8.3,4-13v-124C1250.7-569.8,1249.3-574.1,1246-578.1z"/>
</svg>
