<?xml version="1.0" encoding="utf-8"?>
<!-- Generator: Adobe Illustrator 18.0.0, SVG Export Plug-In . SVG Version: 6.00 Build 0)  -->
<!DOCTYPE svg PUBLIC "-//W3C//DTD SVG 1.1//EN" "http://www.w3.org/Graphics/SVG/1.1/DTD/svg11.dtd">
<svg version="1.1" id="Layer_1" xmlns="http://www.w3.org/2000/svg" xmlns:xlink="http://www.w3.org/1999/xlink" x="0px" y="0px"
	 viewBox="393 -1003.6 857.1 1000" enable-background="new 393 -1003.6 857.1 1000" xml:space="preserve">
<path d="M686.1-528.8c-3.3,2.7-5.7,6.3-7,11v-379c-0.7-9.3-4.3-17.7-11-25c-6.7-7.3-15-11-25-11h-71c-9.3,0-17.7,3.7-25,11
	c-7.3,7.3-11,15.7-11,25v786c0.7,9.3,4.3,17.7,11,25c6.7,7.3,15,11,25,11h71c9.3,0,17.7-3.7,25-11c7.3-7.3,11-15.7,11-25v-379
	c1.3,4,3.7,7.7,7,11l396,396c7.3,8,13.3,10.7,18,8c4.7-2.7,7-8.7,7-18v-822c0-10-2.3-16-7-18c-4.7-2-10.7,0.7-18,8L686.1-528.8z"/>
</svg>
