<?xml version="1.0" encoding="utf-8"?>
<!-- Generator: Adobe Illustrator 18.0.0, SVG Export Plug-In . SVG Version: 6.00 Build 0)  -->
<!DOCTYPE svg PUBLIC "-//W3C//DTD SVG 1.1//EN" "http://www.w3.org/Graphics/SVG/1.1/DTD/svg11.dtd">
<svg version="1.1" id="Layer_1" xmlns="http://www.w3.org/2000/svg" xmlns:xlink="http://www.w3.org/1999/xlink" x="0px" y="0px"
	 viewBox="393 -1003.6 857.1 1000" enable-background="new 393 -1003.6 857.1 1000" xml:space="preserve">
<path d="M611.5-293.6c-20.7-20.7-46-31-76-31s-55.3,10.3-76,31s-31,46-31,76s10.3,55.3,31,76s46,31,76,31s55.3-10.3,76-31
	s31-46,31-76S632.2-273,611.5-293.6z M883.5-319.6c-25.3-54.7-59-103-101-145c-42.7-42-91-75.7-145-101s-110.7-40.3-170-45h-3
	c-10,0-18,3.3-24,10c-8,6.7-12,15.3-12,26v75c0,9.3,3,17.3,9,24s13.7,10.3,23,11c85.3,8,158.3,42.3,219,103
	c60.7,60.7,95,133.7,103,219c0.7,9.3,4.3,17,11,23s14.7,9,24,9h75c10.7,0,19.7-4,27-12c6.7-7.3,9.7-16,9-26
	C923.9-208,908.9-265,883.5-319.6z M1147.5-427.6c-40-89.3-94.7-168.7-164-238c-70-70-149.3-124.7-238-164s-182-61.7-280-67h-1
	c-10,0-18.3,3.3-25,10c-7.3,7.3-11,16-11,26v80c0,8.7,3.3,16.7,10,24s14.7,11,24,11c78.7,5.3,154.3,24.3,227,57s135.3,75.7,188,129
	s95.7,116,129,188c33.3,72,52,148,56,228c0,8.7,3.7,16.3,11,23s15.7,10,25,10h80c10.7,0,19.3-3.7,26-11c7.3-7.3,10.7-16,10-26
	C1209.9-245,1187.5-338.3,1147.5-427.6z"/>
</svg>
