<?xml version="1.0" encoding="utf-8"?>
<!-- Generator: Adobe Illustrator 18.0.0, SVG Export Plug-In . SVG Version: 6.00 Build 0)  -->
<!DOCTYPE svg PUBLIC "-//W3C//DTD SVG 1.1//EN" "http://www.w3.org/Graphics/SVG/1.1/DTD/svg11.dtd">
<svg version="1.1" id="Layer_1" xmlns="http://www.w3.org/2000/svg" xmlns:xlink="http://www.w3.org/1999/xlink" x="0px" y="0px"
	 viewBox="393 -1003.6 857.1 1000" enable-background="new 393 -1003.6 857.1 1000" xml:space="preserve">
<path d="M574-598.6c-76.7-16-137-39.7-181-71v95c2,26.7,21.3,50.3,58,71c36.7,20.7,88.7,38,156,52s139,20.7,215,20s147.3-7.3,214-20
	c66.7-12.7,119-30,157-52s57-45.7,57-71v-95c-44,31.3-104.3,55-181,71c-76.7,16-159,24-247,24C733.4-574.6,650.7-582.6,574-598.6z
	 M574-170.6c-76.7-16-137-39.7-181-71v95c2,26,21.3,50,58,72s88.7,39.3,156,52s139,19,215,19s147.3-6.3,214-19
	c66.7-12.7,119-30,157-52s57-46,57-72v-95c-44,31.3-104.3,55-181,71c-76.7,16-159,24-247,24C733.4-146.6,650.7-154.6,574-170.6z
	 M574-384.6c-76.7-16-137-39.7-181-71v95c2,26.7,21.3,50.3,58,71c36.7,20.7,88.7,38,156,52s139,20.7,215,20c76-0.7,147.3-7.3,214-20
	c66.7-12.7,119-30,157-52s57-45.7,57-71v-95c-44,31.3-104.3,55-181,71c-76.7,16-159,24-247,24C733.4-360.6,650.7-368.6,574-384.6z
	 M607-984.6c-65.3,12.7-117.3,30-156,52s-58,46-58,72v71c2,26,21.3,50,58,72s88.7,39.3,156,52s139,19,215,19s147.3-6.3,214-19
	c66.7-12.7,119-30,157-52s57-46,57-72v-71c1.3-26-17.7-50-57-72c-39.3-22-91.7-39.3-157-52c-65.3-12.7-136.7-19-214-19
	C744-1003.6,672.4-997.3,607-984.6z"/>
</svg>
