<?xml version="1.0" encoding="utf-8"?>
<!-- Generator: Adobe Illustrator 18.0.0, SVG Export Plug-In . SVG Version: 6.00 Build 0)  -->
<!DOCTYPE svg PUBLIC "-//W3C//DTD SVG 1.1//EN" "http://www.w3.org/Graphics/SVG/1.1/DTD/svg11.dtd">
<svg version="1.1" id="Layer_1" xmlns="http://www.w3.org/2000/svg" xmlns:xlink="http://www.w3.org/1999/xlink" x="0px" y="0px"
	 viewBox="-124.9 0 845 841.9" enable-background="new -124.9 0 845 841.9" xml:space="preserve">
<path d="M104.1,226.9c-12.7,16-29.3,23-50,21s-37.7-9-51-21s-20.3-28.7-21-50s6.3-38.3,21-51s31.7-19.3,51-20s36,6,50,20
	s21,31,21,51C123.8,194.3,116.8,210.9,104.1,226.9z M700.1,447.9l-399-399c-14-14-33-26-57-36s-45.7-15-65-15h-233
	c-19.3,0.7-36,8-50,22s-21,30.7-21,50v232c0,19.3,5,41,15,65s22,43,36,57l399,399c13.3,14,30,21,50,21c19.3,0,36.3-7,51-21l274-274
	c13.3-14,20-31,20-51C720.1,478.6,713.5,461.9,700.1,447.9z"/>
</svg>
