<svg xmlns="http://www.w3.org/2000/svg" viewBox="0 0 19.2 36.6"><path d="M17.8 7.9c-3 2.8-6 5.5-9 8.3-2.7 2.5-5.5 5.2-6.5 8.7" clip-path="url(#alphabet_percent_0)"/><path d="M6.5 6.7c-1.8.8-3.2 2.3-4 4.1-.3.7-.5 1.5 0 2.1.4.4 1.1.5 1.7.5 1 0 2.1-.1 2.7-.8.6-.7.6-1.7.3-2.5-.4-.8-1-1.5-1.7-2" clip-path="url(#alphabet_percent_1)"/><path d="M13.9 18.7c-1.8.6-3.2 2.2-3.8 4-.1.6-.1 1.3.3 1.8.4.4 1 .5 1.6.5.7 0 1.5.1 2.2-.3.8-.4 1.3-1.4 1.2-2.2s-.9-1.6-1.8-1.8" clip-path="url(#alphabet_percent_2)"/></svg>