<svg><defs><clipPath id="alphabet_0_0"><path d="M6 27c-.8.1-1.5.1-2.2-.1-.7-.2-1.3-.5-1.8-1-.5-.4-1-1-1.3-1.6-.4-.6-.7-1.2-.9-1.9-.2-1.4-.1-2.7.2-3.9.3-1.2.6-2.2 1.1-3.2.5-1 1.1-1.9 1.7-2.8S4 10.8 4.6 10c.1.1.2.1.3 0 0 0 .1-.1.1-.2.1-.1.1-.2.2-.3.1-.1.2-.2.3-.2.1-.2.2-.3.3-.5.2-.1.3-.2.4-.4s.3-.2.4-.4c.1 0 .2-.2.3-.4.2 0 .3-.1.5-.2.1-.1.3-.2.4-.4.1-.1.2-.2.4-.3.1-.1.3-.2.5-.3v-.3c.3-.3.6-.5.8-.8s.4-.6.7-1c.2 0 .4-.1.5 0h.5c.2-.3.3-.6.5-.8.1-.2.4-.4.6-.6.3.2.6.3.9.3.3.1.6.2.8.5 0 .3 0 .5.2.6s.2.3.4.4c.1.1.3.2.4.4.1.1.2.3.2.5.1 0 .1 0 .2-.1h.2c0 .2.1.3.1.4 0 .1.1.2.1.3 0 .1.1.2.1.3 0 .1.1.2.1.4-.1.2-.2.5-.3.8-.1.3-.2.5-.4.6 0 .2.1.3.2.3s.2.1.2.2c0 .2 0 .4-.1.5.5 1 1 2 1.4 3.1s.9 2.1 1.4 3.1v.9c.1.3.2.6.2.8.1.3.2.5.3.8.1.3.2.5.2.8V20c0 .5-.1.8-.2 1.2-.1.4-.3.7-.4 1.1-.2.3-.4.6-.6.7 0 0-.2 0-.3.2-.2.1-.4.3-.6.5s-.5.4-.7.7-.5.5-.6.6c-.2.2-.5.3-.8.3-.3.1-.6.1-.9.2-.2.2-.5.3-.9.5-.3.2-.7.3-1 .4-.4.1-.7.2-1 .3s-.6.1-.9 0c-.7.3-1.3.5-1.9.6-.8-.1-1.5-.1-2.3-.3zm.6-11.4c-.2.5-.4.9-.6 1.3l-.6 1.2c-.2.4-.4.8-.5 1.3-.2.5-.2 1-.3 1.6.3.3.7.6 1.2.6.5.1.9.1 1.4 0 .5-.1.9-.1 1.4-.2.5-.1.9-.2 1.3-.2 0-.2.1-.3.2-.2.7-.1 1.3-.3 1.9-.7.6-.4 1.2-.8 1.9-1.3.1-.3.2-.5.3-.7s.2-.4.2-.8c-.1-.2-.1-.4-.2-.5v-.6c-.4-.8-.8-1.6-1.1-2.5-.3-.9-.7-1.7-1.1-2.5 0 .1-.1.2-.2.3s-.2.1-.3-.1c-.1.4-.3.6-.5.5-.3 0-.5-.2-.7-.4-.7.8-1.3 1.3-1.8 1.9-.6.6-1.1 1.2-1.5 1.9-.1.1-.1.1-.2 0 0 0-.1 0-.2.1z"/></clipPath><clipPath id="alphabet_1_0"><path d="M6.6 5c.2.4.5.8.9 1.1s.7.5 1 .8c.4.8.7 1.7.8 2.6s.2 2 .3 3.2c0 .9-.1 1.8-.2 2.6s-.3 1.6-.5 2.4c-.2.8-.4 1.5-.6 2.3-.2.8-.5 1.6-.7 2.4-.3.3-.5.7-.6 1.3-.2.6-.2 1.1 0 1.6-.3.3-.5.6-.8.9-.3.3-.6.6-.9.8-.1-.1-.3-.2-.5-.2h-.6c-.2 0-.4 0-.6.1s-.3 0-.4 0c-.1-.2-.2-.3-.4-.5s-.3-.4-.5-.6l-.3-.6c-.1-.2-.1-.4 0-.6 0-.2-.1-.3-.4-.3.1-.9.2-1.8.5-2.7.2-.9.5-1.8.8-2.6s.6-1.7.9-2.5c.3-.8.5-1.7.7-2.5.2-.8.2-1.6.1-2.5.1-.8-.1-1.7-.5-2.5v-.7-.5-.4c0-.1-.1-.3-.1-.5-.1-.3 0-.6.1-.8.1-.2 0-.5 0-.7 0-.1.1-.3.1-.3 0-.1.1-.2.2-.3.1-.1.2-.2.2-.3.1-.1.1-.2.1-.3h.7c.2.2.4.3.6.5.1.2.4.2.6.3z"/></clipPath><clipPath id="alphabet_2_0"><path d="M20.5 21.8c.5.2.7.5.7.9s-.1.7-.3 1c-.2.3-.5.5-.9.7-.4.2-.7.2-1 0 0 .2-.1.3-.3.3-.1.1-.2.1-.3.3-2 .3-3.9.7-6 1.1-2 .4-4.1.8-6.1 1-1.6-.1-2.9-.3-3.9-.7-.4-.4-.7-.8-1-1.4-.2-.5-.3-1.1-.4-1.7 0-.6 0-1.2.1-1.8.1-.6.2-1.1.4-1.5 1-1.3 2.1-2.6 3.3-3.8C6 15 7.3 14 8.7 13c.4-.5.9-1 1.5-1.3.6-.4 1.1-.8 1.5-1.3-.6-.2-1.2-.3-1.9-.3s-1.3.1-2 .2c-.6.1-1.2.2-1.8.4-.5.1-1 .3-1.4.3-.3-.2-.7-.3-1.1-.3-.4 0-.9-.1-1.3-.2-.2-.2-.4-.5-.5-.8-.1-.3-.1-.7-.2-1v-1c0-.3 0-.6-.1-.8.2-.3.3-.5.4-.8.1-.3.3-.5.5-.7.9-.3 2-.5 3.1-.6 1.1-.2 2.3-.2 3.5-.2 1.2 0 2.3.2 3.4.4 1.1.3 2.1.7 2.9 1.3.1.6.3 1 .6 1.3.3.3.7.6 1.2.8l.6 1.2c.2.4.3.8.3 1.3-.4 1.1-1 2-1.7 2.7-.7.7-1.5 1.4-2.2 2-.4.3-.8.6-1.3.9-.5.2-.9.5-1.2.8-.1.1-.1.2-.2.3 0 .1-.1.2-.2.3l-1.2.9c-.4.3-.8.5-1.2.9-.3.2-.5.5-.6.7-.2.3-.4.5-.7.7.4.1.7.2 1.1.2.4 0 .7-.1 1.1-.1.4-.1.8-.1 1.1-.2.4-.1.8-.1 1.2-.1.6-.2 1.2-.4 1.9-.5.7-.2 1.4-.2 2.1-.2.6-.2 1.2-.4 1.7-.5.6-.1 1.1-.1 1.6-.1.3.1.5.3.6.5.1.3.3.4.6.5-.1.2-.1.4 0 .5.1.3.1.4.1.7z"/></clipPath><clipPath id="alphabet_3_0"><path d="M1.8 6.5l3.3-.6 3.3-.6c1.1-.2 2.2-.3 3.4-.3 1.1-.1 2.4 0 3.6.1.5.5.9 1.1 1.3 1.7.4.6.7 1.3 1.1 1.9 0 .1-.1.3-.1.4 0 .1 0 .3-.1.5-.1.3-.2.5-.4.7s-.3.5-.4.7c-.5.3-1 .6-1.4.9-.5.3-.9.7-1.3 1-.4.2-.7.3-1.1.4-.4.1-.7.4-.9.7.7.3 1.2.6 1.7 1s.9.9 1.3 1.4c.4.5.7 1 1 1.6.3.6.5 1.2.8 1.8 0 .3-.1.6-.2.9-.1.3-.1.6 0 .8-.1.4-.3.8-.6 1-.2.3-.5.6-.7 1-.7.3-1.3.7-1.7 1.3-.2 0-.3 0-.3-.1-.6.4-1.3.8-2.2 1.1-.8.3-1.7.5-2.7.7-.9.2-1.9.3-3 .3-1 0-2.1 0-3.1-.1-.1-.1-.2-.1-.2-.2-.1-.1-.2-.1-.4-.1-.1-.2-.2-.4-.3-.5s-.2-.3-.3-.5c.2-.3.3-.7.4-1.1.1-.4.2-.8.2-1.2s.2-.7.4-1.1c.2-.3.4-.5.8-.7.2 0 .3 0 .3.2 0 .1.1.2.2.2h2.4c.8 0 1.5-.1 2.2-.2.7-.1 1.4-.3 2-.5.6-.2 1.1-.5 1.6-.9-.6-.5-1.3-.8-2.1-1.1-.8-.3-1.6-.5-2.3-.7s-1.4-.5-2-.9-1-.9-1.1-1.6c.1-.5.2-.9.2-1.2s.1-.7.2-1l.3-.9c.1-.3.3-.5.6-.8-.1-.1-.2-.1-.4 0-.2 0-.4.1-.6.2-.2.1-.4.2-.6.2-.2.1-.4.2-.5.2-.4-.1-.8-.2-1.3-.2-.4 0-.8-.2-1.2-.4 0-.2-.1-.5-.2-.7-.1-.3-.1-.5-.1-.8 0-.3 0-.6.1-.8-.1-.6 0-.9.2-1.1 0-.1-.1-.3-.1-.4 0-.1-.1-.3-.1-.4.2-.2.5-.4.7-.5.3-.2.4-.4.4-.7z"/></clipPath><clipPath id="alphabet_4_0"><path d="M15.2 7.6c-.5-1.7-1.3-3.1-2.5-4.1-.5.2-.8.4-1 .9-.2.4-.3.9-.4 1.4-.1.5-.1 1-.2 1.6 0 .5-.2 1-.4 1.4.1.3.1.6.1.8 0 .3 0 .6-.1.9-.1.3-.1.6-.2 1 0 .3-.1.7 0 1-.2 0-.2.1-.3.3 0 .2-.1.3-.2.3 0-.2-.1-.2-.3-.1s-.2 0-.3.1c-.1.9-.4 1.7-.6 2.5-.2.9-.3 1.9-.5 2.9-.2.7-.3 1.3-.4 1.9-.1.6-.2 1.1-.2 1.6.1.1 0 .3-.1.6s-.1.5 0 .8c.2 0 .2.1.1.3.1.3.1.7.2 1.1.1.4.3.8.4 1.2.2.4.4.8.7 1.1.3.3.6.5 1.1.6.3-.1.7-.2 1.1-.2.4 0 .8-.1 1.2-.2.1-.2.2-.4.3-.5 0-.2.1-.4.1-.5v-.5c0-.2.1-.4.2-.5-.1-.2-.2-.3-.3-.5-.2-.1-.3-.3-.4-.4s-.3-.4-.3-.6c-.1-.2-.1-.4 0-.7l-.2-.2c-.1 0-.2-.1-.2-.2.2-.9.5-1.8.8-2.6.3-.8.6-1.6.8-2.4.2-.7.7-1.5 1-2.2.4-1 .7-2.3.7-3.4V9.9c0-.7.1-1.5.3-2.3z"/></clipPath><clipPath id="alphabet_4_1"><path d="M17.9 13.3c-.3-.2-.6-.4-.7-.7-.1-.3-.2-.6-.4-.9-.3 0-.6.1-1 .2s-1.1.2-1.1.2c-1.1.3-2.2.5-3.3.6-.4 0-1 .1-1.5.1-.1 0-.2.1-.3.1-.1 0-.2.1-.3.2-.1-.1-.4-.1-.7-.1-.3 0-.5 0-.8.1-.3 0-.5 0-.7-.1-.2-.1-.4-.3-.6-.6 0-.5-.1-.9-.2-1.3s-.2-.7-.4-1.1c-.2-.3-.3-.7-.5-1-.2-.2-.3-.6-.4-.9-.2-.1-.4-.2-.5-.4s-.3-.3-.4-.4c-.1-.2-.2-.4-.3-.5-.2-.2-.3-.3-.6-.3-.2.2-.5.4-.7.7-.2.3-.4.5-.6.9-.1.5-.2 1-.1 1.6s.2 1.2.3 1.9c.1.7.3 1.4.4 2.1l.3 2.1c.2.2.4.4.5.6.2.2.3.4.5.6l.6.6c.2.2.5.3.8.4h.5c.2 0 .5 0 .8.1.3 0 .6.1.9.1.3 0 .6.1.9.2 1.3 0 2.3-.1 3.5-.4.4-.1.9-.3 1.3-.4.3-.2.7-.4 1.1-.6s.8-.3 1.2-.4c.4-.1.8-.3 1.2-.5.4-.2.7-.4 1-.7.1-.4.2-.8.2-1.1s0-.5.1-1z"/></clipPath><clipPath id="alphabet_5_0"><path d="M19.8 9.5c-.2-.5-.5-1-.9-1.3.1-.2.1-.4 0-.7-.1-.2-.2-.4-.4-.6-.5-.1-.8-.1-1-.2-.2 0-.3-.1-.4-.1H17h-.1c-.1 0-.2.1-.5.1-.2 0-.6.1-1.1.1h-.8c-.2.2-.5.2-.8.2-.3 0-.5.1-.7.1h-.7c-.1 0-.3.1-.5.1h-.1c-2.3.5-5.1.7-6.4 2.8-1.1 1.7-.3 3.4 1.7 3.7.6.1 1.1 0 1.6-.2.4-.2.8-.4 1.2-.5s.8-.2 1.2-.2c.4-.1.8-.1 1.2-.2l1.2-.3h.1s.1 0 .1-.1h.1v.2c.7-.1 1.2-.2 1.4-.2.2 0 .4-.1.5-.1.1 0 .2 0 .4-.1.2 0 .7 0 1.4-.1.4-.1.8-.2 1.1-.3.4-.1.8-.2 1.2-.4.3-.6.3-1.2.1-1.7z"/></clipPath><clipPath id="alphabet_5_1"><path d="M13.8 18.9v-.3c-.1-.1-.1-.2-.1-.3-.4-.3-.7-.7-1-1.1l-.9-1.2c-.3-.4-.6-.7-1-1.1-.4-.3-.8-.5-1.4-.7 0-.1-.1-.2-.2-.2s-.1-.1-.2-.1-.2-.1-.3-.2c0 0 0-.1-.1-.1-1.5-.5-2.2-2.2-1.5-3.7.4-.8 1.2-1.3 2-1.6.6-.3 1.3-.5 1.9-.8.3-.2.5-.3.4-.4-.2 0-.5-.1-.7-.2-.3-.2-.5-.4-.8-.6-.1-.1-.3-.4-.5-.6-.2-.3-.5-.5-.7-.7-1.4.5-2.7 1.2-4 2-1.3.8-2.4 1.8-3.2 3-.1.4-.1.7-.2 1 0 .3-.1.6-.1.9 0 .3 0 .6-.1.9 0 .3 0 .6-.1.9 0 .3.1.5.2.8.1.2.2.5.4.7.2.2.3.5.5.7.2.2.3.4.5.7.8.4 1.7.8 2.5 1.2.9.4 1.8.7 2.6.9.2.2.5.4.8.6.4.2.7.3.9.3v.3c0 .1.1.1.2.2l.2.2c.1.1.1.1.1.3l-.3.3c-.1.1-.3.1-.4.2.1-.2-.1-.1-.2 0s-.2.2-.2.3c-1.3.2-2.5.3-3.6.3-1.1-.1-2.2-.2-3.2-.3-.1.1-.2.2-.3.2-.1 0-.2.1-.3.1-.3.5-.4 1.1-.2 1.7.1.6.4 1.1.9 1.4.1.4.2.7.5 1 .3.3.6.4.9.6l1.2.3c.4.1.9.1 1.3 0 .6.3 1.1.4 1.6.3.5-.1 1-.2 1.5-.4.1 0 .2.1.3 0 .1 0 .3 0 .4.1.3-.2.7-.4 1.2-.5.4-.1.9-.3 1.4-.5.6-.5 1.1-1 1.4-1.4.4-.5.7-1 .9-1.6.1-.8.1-1.6-.1-2.2s-.4-1.2-.8-1.6z"/></clipPath><clipPath id="alphabet_6_0"><path d="M-.1 9.5c-.3-.5-.5-1-.9-1.3.1-.2.1-.4 0-.7-.1-.2-.2-.4-.4-.6-.5-.1-.8-.1-1-.2-.2 0-.3-.1-.4-.1h-.1-.1c-.1 0-.2.1-.5.1-.2 0-.6.1-1.1.1h-.8c-.3.2-.6.2-.9.2-.3 0-.5.1-.7.1h-.7c-.1 0-.3.1-.5.1h-.1c-2.2.5-5.1.7-6.4 2.8-1.1 1.7-.3 3.4 1.7 3.7.6.1 1.1 0 1.6-.2.4-.2.8-.3 1.2-.4s.8-.2 1.2-.2c.4-.1.8-.1 1.2-.2l1.2-.3h.1s.1 0 .1-.1h.1v.2c.7-.1 1.2-.2 1.4-.2.2 0 .4-.1.5-.1.1 0 .2 0 .4-.1.2 0 .7 0 1.4-.1.4-.1.8-.2 1.1-.3.4-.1.8-.2 1.2-.4.3-.7.4-1.3.2-1.8z"/></clipPath><clipPath id="alphabet_6_1"><path d="M13.6 17.8c.2.1.4.3.5.5.1.2.3.4.4.5 0 .4 0 .8.1 1.3s.1 1 0 1.5c-.4.6-.8 1.2-1.3 1.8-.5.6-1.1 1-1.8 1.4-.1 0-.1.1-.1.2s0 .2-.1.3c-.2 0-.3 0-.4.1-.1.1-.2.1-.3 0-.2.1-.5.3-.7.4-.2.1-.5.2-.6.4h-.5c-.1 0-.3.1-.4.1-.1.1-.3.1-.4.1h-.4c-.6.3-1.4.6-2.1.8-.8.2-1.6.2-2.5.1-.6-.1-1.1-.3-1.6-.7-.4-.3-.8-.8-1.1-1.3-.3-.5-.4-1.1-.5-1.7-.1-.7 0-1.3.2-2 0-.1-.1-.1-.1-.2v-.3-.3c0-.1 0-.2-.1-.2l.3-.6c.1-.2.1-.5 0-.7.1 0 .2-.1.2-.2s.1-.2.1-.3.1-.2.1-.3c0-.1.1-.2.2-.2 0-.5.1-1.1.3-1.5.2-.5.3-.9.6-1.4.2-.5.4-.9.7-1.3s.5-.9.7-1.4c-.1-.2-.1-.3-.1-.3s.1-.2.1-.3c.3-.5.6-1 .9-1.6.3-.6.6-1.1 1-1.7.1-.9.5-1.4.9-1.9s.8-1 1.3-1.4c.3-.1.6-.2.9-.4s.6-.3.9-.4c.3-.1.6-.2.9-.2s.6 0 1 .2c0 .2.1.3 0 .4v.3c.3.2.5.4.6.8 0 .4.1.7.1 1.1.2.1.4.3.5.5.1.2.2.5.2.8l-.7.7-.6.6c-.1 0-.2.1-.3 0h-.3c-.6.3-1.1.6-1.6 1s-.8.9-1.2 1.5c-.3.5-.6 1.1-.8 1.7l-.6 1.8c-.6.9-1.1 1.8-1.4 2.7s-.7 2-.9 3.1c0 .2.1.2.3.2h.4c.2-.4.4-.8.5-1.2.1-.4.1-.8.1-1.3.4-.4.6-.8.9-1.1.3-.3.5-.7.7-1.1.3-.2.6-.5.9-.6.3-.2.6-.3.8-.5.3-.1.6-.3 1-.4.3-.1.7-.2 1.2-.3.5 0 .9.1 1.3.3.4.2.6.4.9.6.2.2.4.5.6.8 0 .2.1.5.2.7z"/></clipPath><clipPath id="alphabet_7_0"><path d="M15.7 9.9c0-.1.1-.1.1-.1s.1-.1.1-.2l-.1-.1h-.4s0-.1.2-.2c0-.1 0-.2.1-.2v-.2c-.5-.3-.9-.7-1.2-1.1l-.9-1.5c-.4-.1-.7-.2-1-.4-.3-.1-.6-.2-.8-.3s-.6-.2-.8-.2h-1c0-.1-.1-.2-.2-.3-.1 0-.2-.1-.3-.1h-.8c-.3 0-.6-.1-.8-.1-.2-.1-.4-.1-.6-.1h-.7c-.3 0-.6 0-1 .1h-.2l-.1-.1s0-.1-.1-.1H5c-.3 0-.5.1-.6.1-.2.1-.3.1-.4.1-.1.1-.2.1-.4.1s-.5 0-.9.1c-.2.1-.4.2-.6.4-.1.2-.3.3-.5.3-.1 0-.1.1-.1.2v.2c0 .1 0 .1-.1.2 0 0-.1.1-.3.1.1.5 0 1 0 1.5-.1.5-.2.9-.3 1.2.1.2.2.3.3.4.1.1.2.2.2.3 0 .1.1.2.1.3 0 .1 0 .2-.1.3.4.1.8.1 1.1.1.3 0 .7-.1 1-.1.3-.1.7-.1 1.1-.2.4-.1.8-.1 1.4 0 .5.1 1 .2 1.5.2s1 .1 1.4.1c.5.1.9.2 1.3.3.4.1.8.4 1.2.8-.1.3 0 .4.1.5s.1.3.1.5c-.1.4-.2.8-.4 1.1-.2.4-.3.7-.3 1.1-.4.9-1.3 1.7-1.9 2.5-.8 1-1.3 2.2-1.9 3.3-.4.7-.7 1.4-1 2.3-.3.9-.4 1.7-.5 2.6.3.1.5.2.6.5-.1-.1-.2.1-.1.3v.5h1.6c.2 0 .5.1.8.1.4 0 .7-.2.9-.4.2-.3.3-.5.4-.8l.3-.9c.1-.3.3-.5.5-.6 0-.1 0-.2-.1-.3-.1 0-.1-.1-.1-.2.2-.2.4-.5.5-.7.2-.3.3-.5.5-.8.2-.3.3-.5.5-.8l.6-.6c0-.2 0-.4.1-.5.1-.1.2-.3.3-.4l.3-.3.3-.3c.5-.9 1.1-1.8 1.5-2.8.3-.8.5-1.5.7-2.3v-1.2c.1-.4.1-.9.2-1.3 0-.4.1-.8.1-1.1 0-.3-.1-.5-.2-.8z"/></clipPath><clipPath id="alphabet_7_1"><path d="M19.8 16.7h-.2c0-.1-.1-.1-.3 0-.1-.1-.2-.2-.1-.2 0-.1.1-.1.2-.2s.2-.1.3-.2c.1-.1.1-.2.1-.3-.2-.2-.3-.3-.5-.4-.2-.2-.3-.4-.3-.7h-2.3c-.2 0-.5-.1-1.1-.2-1.6 0-3.3.2-4.8.4-.3.1-.6.2-.9.2-.3.1-.6.1-1 0-.6.3-1.2.4-1.8.5s-1.1 0-1.7 0c-.6.1-1.1.2-1.6.5-.5.2-.9.7-1.1 1.3-.1.2-.1.2 0 .3.1 0 .1.1.2.1-.3.1-.4.3-.3.5.1.2.1.4.2.6-.2 0-.3.1-.3.3.2.1.3.2.5.4.2.1.3.3.3.5.1.1.3.2.5.3.2 0 .3.2.3.4h1.5c.2 0 .4 0 .6-.1s.5-.1.9-.1c1.4-.4 2.8-.4 4.2-.7.8-.1 1.6-.3 2.3-.4.7-.1 1.2-.2 1.5-.3.3 0 .6-.1.9-.2.3 0 .5-.1.8-.2.3 0 .8-.1 1.5-.2.1-.2.2-.3.4-.4.2-.1.3-.2.5-.3.2-.1.3-.2.4-.4s.2-.3.3-.5c-.1 0-.2-.1-.1-.2v-.1z"/></clipPath><clipPath id="alphabet_8_0"><path d="M14.6 4.8c.4.4.8.7 1.1 1.2.3.5.5.9.6 1.4.2.5.3 1 .4 1.6.1.6.2 1.1.2 1.6-.2.7-.5 1.4-1 2-.5.6-1.1 1.2-1.7 1.5-.6.5-1.1.9-1.6 1.3s-1 .6-1.7.7c-.2.2-.3.3-.5.4-.2.1-.3.3-.4.5.3.9.7 1.8 1.1 2.7.4.9.6 1.9.7 3-.2.1-.4.4-.4.6v.9c-.2.3-.4.6-.5.9-.1.3-.3.6-.6.8h-.4c-.3.1-.5.3-.8.5-.3.2-.5.4-.8.5-.5.1-1.1.2-1.6.2s-1-.1-1.5-.2-1-.3-1.4-.6c-.4-.3-.8-.5-1.1-.9-.2-.4-.4-.8-.5-1.3-.1-.4-.4-.8-.7-1.1-.1-.6-.2-1.4-.2-2.3 0-.9.1-1.8.4-2.6 0-.1.1-.4.3-.6s.2-.5.2-.8c.1 0 .2-.1.2-.1 0-.1.1-.1.2-.2.1-.2.1-.3 0-.3-.1-.1-.1-.2 0-.3-.3-.4-.6-.8-.9-1.3-.3-.5-.5-.9-.7-1.4-.2-.5-.3-1-.4-1.5 0-.5 0-1.1.3-1.7 0-.3.1-.6.2-1s.3-.8.5-1.1c.2-.4.5-.7.8-1 .3-.4.6-.6.9-.7 0-.1 0-.2.1-.3s.1-.1.1-.3c.3 0 .5-.1.7-.2.3-.2.5-.3.7-.4.2-.1.5-.2.8-.3s.6-.1.9-.2c.6 0 1.3 0 2 .1s1.2.3 1.7.6c.2.5.4 1 .7 1.4.3.4.5.8.6 1.1 0 .3.1.6.1.8 0 .2.1.5.1.7s0 .4-.1.7c-.1.2-.2.5-.3.8.4-.1.7-.3 1-.5.3-.2.5-.5.6-1 0-.3-.1-.6-.3-.9-.2-.2-.3-.5-.4-.8.1-.1.2-.1.2-.2v-.3c0-.1 0-.2-.1-.3v-.3h.4c0-.2-.1-.2-.1-.3v-.2l.3-.3c.1-.1.2-.1.3 0-.1-.2-.1-.4 0-.6.1-.2.3-.3.4-.4.1 0 .2.1.3.1.3.2.4.2.6.2zM7.4 22c0-.1 0-.2.1-.3.1-.1.1-.2.2-.3-.3-.4-.5-.9-.7-1.2-.2-.4-.6-.7-1.1-1-.3.2-.5.4-.6.7s-.3.5-.3.7c0 .3 0 .5.1.8.1.3.3.5.5.7.2-.1.5-.1.8 0 .4.1.7.1 1-.1zm-.7-8.7c.3-.2.6-.3.9-.4.3-.1.6-.2 1-.4.3-.1.6-.3.9-.4s.6-.3.8-.6c-.8 0-1.4-.1-1.9-.4-.5-.3-.7-.7-.7-1.4-.3-.1-.6-.2-.9-.2-.3 0-.6.1-.9.2-.3.1-.5.3-.6.5-.1.2-.1.5 0 .8 0 .1-.1.2-.2.2s-.1.1-.1.2c.3.3.6.6.8.9s.5.7.9 1z"/></clipPath><clipPath id="alphabet_9_0"><path d="M14.1 9.3v.5c0 .1.1.3.1.5s.1.3.1.5v.5c.1.2.2.4.3.5.1.2.3.3.4.5s.2.3.3.5c.1.2.1.4.1.7-.2.2-.3.4-.4.6-.1.2-.2.4-.4.5s-.3.3-.5.4-.3.3-.5.4c-.2.5-.3.8-.5 1.1-.2.3-.3.7-.5 1.1 0 .5-.1 1-.2 1.4-.1.4-.2.9-.3 1.3-.1.4-.2.8-.3 1.3-.1.4-.2.9-.3 1.4 0 .8-.2 1.6-.4 2.4-.3.8-.6 1.5-1.1 2.2H9c-.3.1-.6.1-1 .2-.2-.2-.3-.3-.4-.5-.1-.2-.3-.3-.4-.4 0-1 .1-1.9.2-2.7s.2-1.6.4-2.4c.2-.8.3-1.6.5-2.4.2-.8.4-1.8.6-2.8h-1c-.4.1-.8.1-1.2.2-.4.1-.8.2-1.2.2s-.8.2-1.2.2H3c0-.1-.2-.2-.3-.2-.2-.1-.3-.2-.4-.3-.3.1-.6.1-.8 0-.2-.1-.4-.3-.6-.5-.2-.2-.3-.4-.4-.6-.1-.2-.2-.5-.3-.7C0 14.1 0 13.5 0 13s.2-1 .3-1.4c.2-.4.3-.9.6-1.3s.5-.8.7-1.3c.5-.5 1.1-1 1.7-1.6.7-.5 1.4-1 2.1-1.4.7-.4 1.5-.8 2.4-1s1.7-.3 2.7-.2c.8.6 1.5 1.3 2 2.1.6.7 1.1 1.5 1.6 2.4zm-4 1.5c0-.4-.1-.6-.3-.8-.2-.1-.5-.2-.8-.3l-1.5.6c-.5.2-.9.5-1.2.8-.1.1-.1.1-.2.1s-.2 0-.3.1l-.2.2c-.1.1 0 .2 0 .3.8 0 1.6 0 2.3-.3.8-.2 1.5-.4 2.2-.7z"/></clipPath><clipPath id="alphabet_a_0"><path d="M15 17.9c-.2-.4-.3-.8-.4-1.3-.1-.5-.2-.9-.3-1.4-.1-.3-.1-.7-.2-1-.1-.3-.2-.7-.3-1 0-.4-.1-.8-.1-1.1-.1-.3-.1-.7-.2-1 0-.2-.1-.3-.1-.5s-.1-.4-.2-.7c-.2-.2-.5-.4-.8-.5-.3-.1-.7-.2-1-.3-.1-.1-.3-.1-.5-.2-.2 0-.3-.1-.4-.2l-.4-.2-.3.4c-.4.7-.9 1.2-1.3 1.7s-.9.8-1.5 1.1l-.5-.1h-.3c-.1 0-.2.1-.2.1l-.4.3c-.3.3-.5.7-.6 1-.2.3-.3.7-.5 1-.1.3-.3.6-.4.8-.1.3-.3.6-.5.9 0 .1-.1.2-.1.3v.2c-.2.3-.3.6-.5 1-.2.3-.3.6-.5 1-.5 1-.9 2-1.4 2.9C.7 22 .2 23-.2 24v.5l-.3.3.4.4s.1.1.1.2 0 .2.1.3c0 .1 0 .2.1.3 0 .1.1.3.3.5.2.1.3.2.4.3.1.1.3.3.5.4H2c.1 0 .2-.1.5-.1l.4-.1.1-.3s.1 0 .2-.1.1-.1.2-.1c.1-.1.2-.1.4-.2s.2-.2.3-.3l-.1-.2c0-.2 0-.5.1-.7.1-.3.2-.5.3-.8.1-.2.1-.3.2-.5s.1-.4.2-.5l.1-.1.1-.1.2-.5v-.2c0-.1.1-.1.1-.1l.3-.1.1-.3c.1-.3.2-.5.3-.8l1-1.8c.1-.2.2-.4.3-.5.1-.2.2-.4.4-.5.3-.5.6-1 1-1.5s.8-1 1.2-1.4l-.1-.4c.2.6.4 1.3.5 1.9.2.7.5 1.9.5 1.9l1.3 3.9c0 .5 0 .9-.2 1.1-.2.2-.5.4-1 .5l-.9.3.5.6c0 .1.1.1.2.2l.2.2.4.4c.1.1.1.2 0 .4l-.1.4.4.2s.1 0 .1.1c.1 0 .1.1.2.1.1.1.2.1.3.2.1.1.3.1.5.2.4 0 .8-.1 1.2-.3.4-.2.7-.4 1-.7.3-.3.6-.6.8-.9.2-.4.4-.7.5-1l.1-.1v-1.1c0-.4-.1-.7-.2-1.1 0-.1-.1-.2-.1-.3v-.3l-1-3.9z"/></clipPath><clipPath id="alphabet_a_1"><path d="M17.9 19c-.1 0-.2-.1-.2-.2l-.3-.3c-.1-.1-.3-.1-.6-.2-.2-.1-.3-.2-.3-.3l-.1-.3h-.3c-.1 0-.3 0-.4.1-.1 0-.2.1-.3.1h-.3l-4.2 1c-.6.1-1.2.2-1.6.3-.5.1-1 .1-1.6.1h-.6c-1.4 0-1 1.8-1 1.8 0 .2.1.4.2.5-.1.3 0 .5.1.6.1.2.2.3.3.4l.1.1s.1.2.1.4l.1.1h1c.4 0 .8 0 1.2-.1.4-.1.7-.2 1.1-.3.3-.1.6-.2.8-.2.3-.1.6 0 1 0l4-1.3c.5-.2.9-.5 1.3-.8.4-.3.7-.7.9-1l.2-.5h-.6z"/></clipPath><clipPath id="alphabet_and_0"><path d="M18.6 27.7h-.1c-.4-.4 0-.2-.4-.6l.1-.1s.1 0-.2-.4c-.2-.2-.6-.5-.8-.8-.4-.6-.8-.8-1.1-1.2.1-.1.2-.3.3-.4.3-.4.5-.8.7-1.3.4-.9.5-2 .3-3.1v-.2-.5c0-.4-.1-.7-.1-.7l-.1-.1-.1-.1s-.2-.1-.6.1c-.3.2-.8.1-1.1.3-.4.5-.7.4-1 .4-.3.3-.4.6-.5.9h-.1l.1.2c0 .2.1.4 0 .4v.4c0 .3-.1 0-.2.3 0 .2-.1.3-.2.5l-.1-.1c-.4-.4-1-1.1-1.8-2-.1-.6-1-1.2-1.6-1.9.2-.2.3-.4.4-.5.1 0 .2-.1 0 0 .2-.4.5-.5.5-.7.3 0 .7-.8 1.1-.9v-.2l.2-.1c.6-.9.6-1 .6-1.1 0-.1.1-.1.6-.9.1-.1.1-.2.2-.4.1-.1.1-.2.2-.3.1-.2.2-.4.2-.6.1-.4.2-.7.3-1.1 0 .1-.2.4-.1 0 .1 0 .1-.2.1-.5s.1-.5.1-.6v-.4-.6c0-.4-.1-.6-.2-.3 0-.1 0-.5-.1-.8-.1-.3.1-.2-.1-.5 0 0-.1-.1-.2-.1-.4-.7-.8-1.1-1.2-1.4-.4-.3-.4-.3-.9-.5h-.1c.1.1.2.1.2.1-.8-.4-1.6-.4-1.9-.5 0 0-.1-.1.1 0h-.2c-.3 0-.5 0-.8.1-.2 0-.6.1-1.1.4l.3-.1c-.2.1-.8.3-1.4.8-.8.5-1.2 1-1.7 1.8-.9.7-.9 1.5-1.1 2.2-.1.3-.2.6-.2.9 0 .3-.1.4-.1.6 0 0-.1 0-.1-.1-.1.5-.2 1.4 0 2.6.2 1.1.6 2.3 1.3 3.3-.4.3-.7.6-1.1.9-.4.3-.9.7-1.5 1-.3.4-.8.6-1.3 1-.3.4-.3.8-.5 1-.3.6-.7 1.4-.6 2.3 0 .8-.1 1.6.2 2.2l-.1-.1c.1.4.4 1.1 1 1.8.6.8 1.5 1.5 2.5 2 .3.1.6.2.8.3.3.1.5.1.8.2.7.1 1.2.1 1.7.1.9 0 1.6-.2 1.9-.2h-.2c.6-.2.8-.2 1.1-.3.2 0 .4 0 .9-.2-.2-.1.7-.6 1-.7.3-.2.7-.4 1.1-.8.3-.2.6-.5.8-.7.6.6 1.2 1.6 1.6 1.7 1.1.4 3.6-.9 3.8-1 0 .1 0 .1-.2-.1zM7.3 12.4c0-.5.2-1.2.7-1.9.2-.3.5-.7.8-.9.1-.1.3-.3.5-.4 0-.1.2-.2.4-.3.2-.1.3-.1.5-.1h.2c.1 0 .2.1.2.1v.4c0 .3-.1.6-.2.9-.1.2-.2.4-.4.6-.1.2-.3.5-.5.7.2-.2.2-.1.1.1l-.4.7s0 .1-.4.7c-.2.3-.6.8-1 1.3 0-.1-.1-.2-.1-.3-.1-.4-.2-.7-.2-1v-.4c-.2 0-.2-.1-.2-.2zm3.1 12.4c-.3.2-.5.3-.7.4-.3.1-.6.3-.8.4-.1 0 0 0 .1-.1-.8.2-1.4.4-2 .5-.2 0-.2-.1-.3-.1.1 0-.8.1-1.3-.1-.3-.1-.5-.3-.7-.4-.2-.2-.3-.4-.3-.4l-.1.1c-.2-.2-.1-.2-.1-.3 0 0 0-.1-.1-.2-.1 0-.1 0-.1-.1s-.1-.1-.1-.2v-.1-.1-.1-.1s0-.1.1 0c-.1 0 0-.1 0-.2h-.1v-.1-.1c.1-.1.2-.1.1 0 .1-.1.3-.5.8-1s1.4-1.1 2.3-1.9c.1 0 .1-.1.2-.1.5.6.9 1.1 1.1 1.3.3.4 0 .2-.1.2.5.5.8.7.8.5l.5.5h-.1c.1.1.4.2.9.7.2.2.3.4.5.6l-.5.5z"/></clipPath><clipPath id="alphabet_at_0"><path d="M15.1 13.2h-.2c-.1 0-.1-.1-.2-.2 0 .1-.1.1-.2 0s-.2-.1-.3-.1c-.1 0-.2.1-.3.1h-.3c-.1.2-.4.4-.7.6-.3.1-.6.3-.7.5-.3.1-.5.2-.7.3-.2.1-.4.3-.6.4-.2.1-.4.3-.6.4-.2.1-.4.3-.7.3-.1.2-.3.3-.5.5-.2.1-.4.3-.6.5l-.9 1.2c-.3.4-.5.8-.6 1.3 0 .3.1.6.2 1s.2.7.4 1c.2.3.4.6.6.8.3.3.5.5.9.6.2 0 .4.1.5.1.1.1.3.2.5.3.6.1 1.3.1 2.1.1.7 0 1.5 0 2.2-.1.2-.1.5-.2.8-.2.3 0 .6-.1.8-.1l.2-.2c.1 0 .1-.1.2-.1.6-.7.6-1.8 0-2.5-.7-.8-1.6-.5-2.5-.5-.4 0-.8.1-1.2.1h-1.2l-.2-.2c-.1-.1-.1-.1-.1-.2s.1-.1.1-.2v-.2c.2-.2.4-.4.6-.7s.5-.4.8-.6c.1-.1.2-.3.4-.4.2-.1.3-.2.5-.3.4-.2.8-.2 1.2-.5.5-.4.7-1.1.6-1.7.3-.2.2-1-.3-1.1z"/></clipPath><clipPath id="alphabet_at_1"><path d="M23 13.9c-.5-1-1-2-1.5-2.9-.5-.9-1.1-1.8-1.8-2.6-.1-.1-.1-.1-.1-.2 0 0 0-.1.1-.1l.1-.1.1-.1c-.6-.7-1.2-1.3-1.9-1.9-.7-.6-1.5-1-2.5-1.4-.1 0-.1.1-.2.1 0 0-.1.1-.2.1l-.2.2h-.3c-.5-.2-1-.3-1.4-.3-.4.1-.7.2-1 .5-.2.2-.4.5-.4.9s.1.7.3 1.1h-.6c.1.4-.1.8-.5 1.2-.3.3-.7.6-1.1.8-.4.3-.9.6-1.3.8s-.7.6-.9 1c-.2 0-.3 0-.5.1s-.3.2-.5.4-.3.3-.4.5c-.1.2-.2.3-.2.4h-.4c0 .1-.1.1-.2 0-.5.5-1 .9-1.6 1.4-.5.5-1 1-1.5 1.6-.5.6-.8 1.2-1.2 1.9-.3.7-.5 1.5-.5 2.3.1.2.1.3.2.5s.1.3.2.5c-.1.3-.1.6-.1.8 0 .2.1.4.1.6 0 .2.1.4.2.7 0 .2.1.5.1.8.2.3.5.6.9 1s.7.7 1.1 1c.4.3.8.6 1.3.9.5.2.9.4 1.3.6.4.3.8.5 1.3.6.2 0 .3.1.5.1s.4 0 .5.1c.3.1.7.2 1.4.2.3.1.6.1.9.1.2 0 .6.1 1 .2.7-.1 1.5-.1 2.3 0s1.5.1 2.3.1c.7 0 1.4-.1 2-.2.6-.1 1.2-.4 1.7-.8.1-.1.1-.3.1-.4 0-.1 0-.2.1-.4-.2-.1-.4-.3-.5-.5-.2-.2-.4-.5-.5-.8-.2-.3-.4-.5-.6-.8s-.5-.5-.7-.7c-.1.1-.1.2-.1.2v.3c-.5.1-1.1.2-1.6.2-.6.1-1.2.1-1.9.1-.8 0-1.5 0-2.3-.1-.8 0-1.6-.1-2.7-.1-.4-.2-.8-.3-1.2-.3-.4-.1-.8-.2-1.3-.3 0 0 0-.1-.1-.3l-1-.5c-.2-.1-.4-.1-.7-.2-.2 0-.5-.1-.7-.2-.2-.1-.3-.1-.3-.2.4-1.5 1-2.9 1.7-4.1.8-1.2 1.6-2.2 2.6-3.1 1-1.1 2.1-2.2 3.3-3l3.6-2.7c.1.1.2.1.3.1.1 0 .1 0 .2-.1 0 0 .1-.1.2-.1h.2c.4.2.8.5 1.2 1 .4.5.7 1 1 1.5.3.6.6 1.1.9 1.7.3.6.5 1.1.7 1.6-.1.3-.1.5-.1.8v.7c0 .2 0 .4-.1.6 0 .2-.1.4-.2.6l.2.5c-.2.3-.4.6-.6.8s-.4.3-.5.4c-.2.1-.4.2-.5.2-.2 0-.4-.1-.5-.2-.1-.1-.2-.2-.3-.4-.2-.2-.2-.3-.2-.5s-.1-.3-.1-.5c-.1-.3 0-.7.1-1.3.1-.6.3-1.3.6-2.1v-.2-.4V13.6c0-.1-.1-.2-.1-.3V13c0-.2-.1-.3-.1-.4-.1-.1-.1-.2-.2-.2l-.5-.5h-.3l-.6.4-.4.3c0 .1-.1.2-.2.3l-.3.3c-.7.8-1 2.2-1.2 3.4 0 .1 0 .2-.1.3 0 .1 0 .2-.1.3v.4c-.1.6 0 1.2.3 1.7.6 1.2 1.4 2.2 2.5 2.9.3.1.6.2.9.2h1.1c.2 0 .5-.2.9-.4.4-.3.9-.6 1.3-1s.9-.8 1.2-1.2.7-.8.8-1.1c.2-.9.3-1.7.3-2.4.3-.8.3-1.6.2-2.4z"/></clipPath><clipPath id="alphabet_b_0"><path d="M6.3 23.5c.2-.6.5-1.3.7-2s.5-1.3.7-1.9c0 0 1.2-4.2.4-5-.2-.4-.5-.7-.8-.9-.4-.2-.7-.5-1-.8-.3-.2-1.8-.3-1.7.5.1.3.1.6 0 .9-.1.3-.1.5-.2.7-.1.2-.2.5-.3.7-.1.3-.1.6-.1.9-.2.5-.3.9-.4 1.2-.1.3-.1.6-.2.9-.1.3-.1.6-.2.9s-.2.7-.4 1.3c-.2.1-.3.3-.3.5-.1.2-.1.4-.2.5 0 .2-.1.4-.2.5-.1.2-.2.3-.3.4.1.2.2.3.2.4 0 .1.1.2.1.4-.2 0-.3.2-.4.5 0 .3-.1.5-.1.7.1.2.2.4.4.6.2.2.2.4.1.5.2 0 .3.1.4.3.1.2.1.3.1.4.2 0 .3.1.4.2 0 .1.1.1.1.2l.2.2c.1.1.2.2.3.2.1-.1.2-.1.3-.1.1 0 .3 0 .5.1.2-.1.3-.2.4-.3.1-.2.2-.3.3-.5l1.2-3.1z"/></clipPath><clipPath id="alphabet_b_1"><path d="M17.1 21.8c.1-.1.1-.2.1-.4s-.1-.3-.1-.5l-.3-.6c-.1-.2-.2-.4-.2-.6-.1 0-.1-.1-.2-.1s-.1-.1-.2-.1c-.2-.3-.4-.6-.6-.8s-.5-.4-.8-.6-.5-.4-.8-.6c-.3-.2-.5-.4-.7-.7.3-.4.6-.7 1-1.1.4-.3.7-.7 1-1.1.3-.4.6-.8.8-1.3.2-.5.3-1 .3-1.6 0-.1-.1-.1-.2-.1s-.1-.1-.1-.2c0-.3-.1-.5-.2-.7-.1-.2-.3-.4-.5-.6 0-.1-.2-.2-.4-.4s-.4-.3-.5-.5c-.1 0-.3 0-.4-.2-.1-.1-.3-.2-.4-.3s-.3-.2-.5-.3c-.2-.1-.4-.1-.6.1-.2-.2-.4-.3-.6-.3-.2 0-.3-.1-.4-.2-.1.1-.3.1-.4.1h-1c-.2 0-.3 0-.4.1-1.1 0-2 0-2.8.2s-1.5.3-2.3.5c-.5.1-1 .2-1.5.4-.5.1-1 .3-1.5.5s-.9.5-1.2.8c-.4.3-.6.7-.8 1.2.3.7.7 1.3 1.1 1.8.5.5 1 .9 1.7 1.2.2-.1.4-.1.6-.1.2 0 .4-.1.6-.2 0-.3.1-.5.2-.7.1-.2.3-.3.6-.3l1.7-.5c.7-.4 1.5-.7 2.5-.9 1-.2 2-.3 3.1-.3-.5.6-1.1 1.2-1.7 1.6-.6.5-1.3.9-2.1 1.2-1.2.6-2.5 1.2-2.6 2.7 0 1.4.9 2.2 2.1 2.3.4-.1.9-.2 1.3-.3s.9-.2 1.4-.3c.5-.1 1-.1 1.5 0s1.1.3 1.8.6c0 .2 0 .4-.2.6l-.4.4c-.2.1-.3.2-.5.3-.2.1-.3.3-.3.5-.5.2-1 .4-1.4.6-.5.2-.9.4-1.4.6l-1.5.6c-.5.2-1.1.3-1.7.4-.9 0-1.8.2-1.9 1.3-.1.8.3 1.4.8 1.8.2.1.4.3.6.4s.5.3.7.4c.2.1.4.1.6.1.2 0 .3-.1.3-.3.1 0 .1.1.1.2s.1.1.1.2c.4-.1.8-.2 1.3-.3.5-.1.8-.2.9-.5 1-.2 2-.5 3-.9s1.9-.9 2.8-1.4c.2-.2.4-.3.5-.4l.2-.2c.1-.1.2-.2.3-.4.1-.2.4-.5.8-1v-.3c.1-.3.1-.4-.1-.5z"/></clipPath><clipPath id="alphabet_c_0"><path d="M12.8 27.1h-1.2c-.5 0-.9 0-1.3.2-1.1 0-2.2-.2-3.3-.4-1.1-.2-2.1-.5-3-.8l-.6-.6c-.2-.2-.5-.3-.8-.4-.5-.4-.9-.8-1.2-1.4-.3-.6-.5-1.1-.7-1.8-.2-.6-.3-1.3-.4-1.9-.1-.7-.1-1.3-.1-1.9.3-.9.7-1.7 1.3-2.3.6-.7 1.1-1.3 1.7-1.9.3-.1.5-.2.6-.4l.4-.4c.2-.1.3-.2.5-.3s.3-.2.4-.4c.4-.1.8-.2 1.1-.4l.9-.6.9-.6c.3-.2.7-.3 1.1-.4.2-.2.4-.3.6-.4.2-.1.4-.2.7-.3.2-.1.5-.2.7-.3.2-.1.4-.3.5-.5.1.2.2.2.4.2s.4-.1.5-.2c.1 0 .2 0 .3.1l.2.2c0-.2.1-.2.1-.2s.1 0 .1-.1c.1 0 .1.1.1.2s-.1.2-.1.2c.2 0 .3 0 .4.1.1.1.3.1.5.2.1.1.1.2.1.2 0 .1-.1.1-.1.3.6.2 1 .5 1.1.9.2.4.2.8 0 1.2-.1.4-.4.8-.8 1.2-.4.4-.8.6-1.2.7-1 .3-1.9.5-2.7.9-.9.3-1.6.8-2.1 1.4-.5.1-.9.3-1.3.6-.1 0-.5.3-.8.5l-.9.9-.9.9c0 .3 0 .5-.1.6s-.3.4-.4.6c0 .3.1.6.2.8.1.2.2.5.3.7 1.3.4 2.7.7 4.2.8 1.5.1 3 .2 4.5.2.1.2.3.4.5.6l.5.5c.2.2.3.4.4.6.1.2.1.5.1.9-.3.3-.6.6-.9.8s-.7.4-1 .7z"/></clipPath><clipPath id="alphabet_colon_0"><path d="M7 23.6c0 .2.1.3.1.5 0 .1.1.3.1.5-.1.1-.2.3-.2.5-.1.2-.1.4-.2.6-.1.1-.1.2-.1.3v.5l-.1.4c-.1.1-.2.3-.4.3-.1.1-.3.2-.4.2 0 0-.1.1-.2.1s-.1.1-.2.1l-.1.4-.4.1c-.3-.1-.6-.1-.9-.1h-.3c-.2-.2-.4-.4-.6-.5s-.3-.2-.5-.3c-.2-.3-.3-.5-.3-.6 0-.1 0-.3-.1-.4 0-.3-.1-.4-.2-.5l-.4-.4.4-.3-.3-.6c.2-.2.4-.3.5-.4l.3-.3.3-.3c.1-.1.3-.4.5-.7l.3-.4.4.2c.1.1.3.1.5.2.3.1.5.1.7.1.3.1.7.2 1 .2.3.1.5.2.7.3l.1.3z"/></clipPath><clipPath id="alphabet_colon_1"><path d="M8.7 15.2c0 .3-.1.5-.1.7v.9c0 .2.1.5.2.8v.4l-.5.1c-.1 0-.3.1-.5.3-.2.2-.4.3-.6.4-.2.2-.5.4-.8.5-.3.2-.5.3-.8.3-.3-.2-.5-.3-.7-.4-.1-.1-.2-.2-.4-.3l-.3-.6c-.1-.2-.2-.4-.3-.5.1 0 .1-.1.1-.2v-.1h-.1c-.1 0-.1-.1-.2-.2l-.2-.3c0-.3 0-.6.2-.9 0-.2.1-.3.1-.4l-.2-.3.2-.4c.1-.2.2-.3.3-.4s.1-.2.2-.3l.3-.3h.8c.2 0 .4 0 .6-.1.3.1.6.2.7.2.1.1.2.1.3.2.2.2.4.2.5.2h.6L8 15l.7.2z"/></clipPath><clipPath id="alphabet_coma_0"><path d="M1.9 22.3c.1.1.3.2.6.3.3.1.6.3.9.4l.9.3c.3.1.5.2.6.2.2.4.3.8.4 1.1 0 .3.1.6.1 1-.1.1-.2.3-.2.5v.5c0 .2-.1.3-.1.3s-.1.1-.1.2v.4c0 .1-.1.2-.1.2-.1 0-.1.1-.2.2-.1.2-.1.4-.2.4 0 0 0 .1-.1.1l-.1.1s-.1.1-.2.3c-.1.3-.3.6-.5.9-.2.3-.3.6-.4.9-.3.2-.6.5-1 .9s-.8.6-1.2.8c0-.2-.3-.3-.7-.5-.4-.2-.8-.4-1.1-.6-.4-.2-.6-.5-.8-.7s-.2-.5.1-.7c.4-.4.7-.8.9-1.4.3-.5.5-1.1.7-1.7.2-.6.4-1.2.5-1.9.2-.7.3-1.3.4-1.9.1.1.2.1.2.1.1 0 .2-.1.2-.2.1-.1.2-.2.2-.3.2-.1.3-.2.3-.2z"/></clipPath><clipPath id="alphabet_d_0"><path d="M14.8 18.7c0 .1 0 .2-.1.3 0 .1 0 .1-.1.2v.5c-.6 1.1-1.4 2-2.3 2.7-.9.7-1.9 1.4-3 1.9-1.1.6-2.2 1.1-3.4 1.5-1.2.5-2.3.9-3.5 1.5-.5-.1-.8-.3-1.1-.6-.3-.3-.4-.6-.6-1s-.2-.8-.3-1.2c-.1-.5-.1-.9-.1-1.4.1-.2.1-.4.3-.6s.2-.4.2-.6c.2-.5.3-1 .5-1.5s.3-1 .3-1.5c.1-.2.2-.3.3-.3.1-1 .1-1.9 0-2.9s-.3-1.9-.5-2.8c0-.2 0-.3.1-.4v-.2c0-.2 0-.2.2-.2h.4c-.1-.5-.1-.8-.2-1.1-.1-.3-.2-.6-.3-1 .1-.4.2-.7.2-1 0-.3.1-.5.3-.8 1.1.4 2.1.8 3.1 1.3s2 .8 2.9 1.1c.7.5 1.5 1 2.2 1.6s1.5 1.1 2.1 1.7c.6.6 1.1 1.3 1.6 2.1.5.7.7 1.6.8 2.7zm-7.2 1.7c.4-.2.8-.4 1.3-.5.4-.2.8-.4 1.1-.6.4-.2.7-.5 1-.8.3-.3.5-.7.7-1.1-.1-.2-.3-.5-.5-.6-.2-.2-.4-.4-.6-.5-.2-.2-.4-.3-.6-.5-.2-.2-.3-.4-.5-.7-.3 0-.5-.1-.7-.2l-.6-.3-.6-.3c-.2-.1-.5-.2-.7-.2-.4-.2-.8-.4-1.2-.5-.4-.1-.6-.2-.8-.4-.1 0-.3 0-.3.1.2.8.4 1.5.5 2.2.1.7.2 1.3.2 2s0 1.4-.1 2.1c-.1.7-.2 1.5-.3 2.3.2 0 .4-.1.6-.1.2-.1.3-.1.5-.2s.4-.2.5-.2c0-.4.3-.4.5-.5.1-.1.1-.2.3-.3.1 0 .2-.1.3-.2z"/></clipPath><clipPath id="alphabet_dash_0"><path d="M15 17.7c.3 0 .5.1.6.2.1.1.2.2.3.4 0 .2.1.3 0 .5v.5c-.5.3-1.2.6-2.1.7-.9.1-1.8.2-2.8.3s-1.9.1-2.8.1c-.9 0-1.6 0-2.1.1-1.1.1-1.9.2-2.5.3-.6.1-1 .2-1.2.3-.4 0-.7-.1-.9-.2-.2-.1-.4-.3-.5-.4-.1-.2-.3-.4-.4-.6-.1-.2-.2-.5-.4-.7.1-.2.1-.4.1-.7 0-.3-.2-.5-.4-.7.2 0 .3-.1.4-.3s.1-.4 0-.5c.3-.1.7-.1 1-.2.4 0 .7-.1 1.1-.1.4 0 .7-.1 1-.1.3 0 .6-.1.9-.3 1 0 2 0 3.1-.1 1.1 0 2.1-.1 3-.1.3.1.7.2 1.2.2s.9 0 1.4.1l1.2.3c.4.2.6.5.8 1z"/></clipPath><clipPath id="alphabet_double_0"><path d="M8.1 8.4c0 .1-.1.1-.1.2-.1 0-.1.1-.2.2s-.1.3-.1.3c0 .1 0 .1-.1.1l-.1.1-.2.4c-.1.2-.3.5-.5.8-.2.3-.3.6-.4.9-.3.2-.6.5-1 .9s-.8.6-1.2.8l-.8-.4c-.4-.2-.8-.4-1.1-.6-.4-.2-.6-.5-.8-.7s-.2-.5.1-.7c.4-.4.7-.8 1-1.4.1-.6.4-1.2.6-1.8.2-.6.4-1.2.5-1.9.2-.6.3-1.3.4-1.9.1.1.2.1.3.1.1 0 .2-.1.2-.2s.1-.2.2-.3.2-.1.2-.1c.1.1.3.2.6.4.3.1.6.3.9.4l.9.3c.3.1.5.2.6.2.2.4.4.7.4 1 0 .3.1.6.2 1-.1.1-.2.3-.2.5s0 .4-.1.5c0 .2-.1.3-.1.3s-.1.1-.1.3V8.4z"/></clipPath><clipPath id="alphabet_double_1"><path d="M12.4 3.2c.1.1.3.2.6.4s.6.3.9.4l.9.3c.3.1.5.2.6.2.2.4.3.7.3 1v1c-.1.1-.2.3-.3.5-.1.2-.1.4-.1.5 0 .2-.1.3-.2.3s-.1.1-.2.3v.4c0 .1-.1.2-.2.2s-.1.1-.2.2l-.2.4c0 .1 0 .1-.1.1l-.1.1-.2.4-.6.9c-.2.3-.4.6-.5.9-.2.1-.3.3-.5.4-.2.2-.4.3-.6.5-.2.2-.4.3-.6.5s-.4.2-.6.3c-.2-.1-.5-.2-.8-.4-.4-.2-.7-.4-1-.6-.3-.2-.6-.5-.7-.7-.2-.3-.1-.5.1-.7.4-.4.8-.8 1.1-1.4.3-.5.6-1.1.9-1.7.3-.6.5-1.2.7-1.9.2-1 .4-1.7.6-2.3.1.1.2.1.2.1.1 0 .2-.1.2-.2s.2-.2.2-.3.3-.1.4-.1z"/></clipPath><clipPath id="alphabet_e_0"><path d="M14.8 23.2c0-.1 0-.2-.1-.3 0-.1-.1-.2-.2-.3-.2 0-.3 0-.5-.1s-.2-.2-.3-.3c-.1-.1-.2-.3-.3-.4-.1-.2-.3-.3-.4-.3-.5.2-1 .3-1.5.3-.6.1-1 .2-1.4.4H8.5c-.4 0-.8.1-1.2.2-.4.1-.8.1-1.3.1s-1 0-1.7-.1c.2-.5.4-1.1.7-1.5.3-.5.6-.9.9-1.4.2-.6.6-1.1.8-1.8.3-.9.2-1.7.3-2.6 0-.1-.1-.2-.1-.4s0-.4-.1-.6c-.7-1.3-3.4-.4-3.9 1.1-.1.4-.3.7-.4 1-.3.4-.5.8-.6 1.1-.2.3-.3.6-.4.9-.1.3-.3.7-.4 1-.1 0-.2 0-.2.1s-.1.1-.2.2c.1.3 0 .5-.2.8-.2.2-.3.5-.4.8-.1.3-.1.6-.1.9 0 .3.1.7.1 1 .1.4.1.7.2 1 .1.3.1.6.1.9.2.1.4.2.4.4s.2.4.3.5c.4.4.9.6 1.5.8s1.2.2 1.9.3c.7 0 1.3 0 2-.1.6-.1 1.2-.2 1.7-.3.2 0 .3 0 .4.1.1 0 .3.1.5 0 .7-.1 1.4-.3 2-.4s1.2-.2 1.7-.4 1-.4 1.3-.8c.4-.4.7-.9 1-1.5-.1 0-.2 0-.3-.1v-.2z"/></clipPath><clipPath id="alphabet_e_1"><path d="M16.5 10.3v-.2-.2-.3c-.4-.2-.7-.4-1-.6-.3-.2-.6-.5-.8-.9 0 .2 0 .2-.1.2-.1-.1-.2 0-.3.2-.2 0-.3-.1-.5-.3-.8.2-1.6.3-2.3.4-.7.1-1.3.2-1.9.3-.6 0-1.2.1-1.9.2s-1.3.4-2.1.6c-.5.1-.9.2-1.3.3-.4.1-.8.2-1.1.3-.3.1-.7.3-1 .5-.2.2-.5.4-.7.7.1.3.2.7.2 1 0 .3.1.7.2 1l.3.9c.1.3.3.6.6.9 1.3.1 2.8-.4 3.9-1.1.2-.1.4-.1.5-.2.2-.1.3-.1.5-.3.4 0 .7 0 .9-.1.2-.1.4-.1.7 0 .7-.4 1.3-.7 2-.8.7-.1 1.3-.2 2-.3.6-.1 1.2-.3 1.8-.5.6-.3 1-.7 1.5-1.4-.1-.1-.1-.3-.1-.3z"/></clipPath><clipPath id="alphabet_e_2"><path d="M8.1 19.6c.3 0 .5 0 .7-.1.1.1.1.1.2.1h.2c.5 0 .9 0 1.3-.1s.8-.3 1.1-.4c.4-.2.7-.4 1-.6.3-.2.6-.5 1-.7.1-.2.1-.4.1-.6 0-.2-.1-.4-.2-.5-.2 0-.4 0-.5-.1-.2-.1-.3-.2-.4-.3l-.4-.4-.4-.4v-.2s.1-.1 0-.2c-.8 0-1.7.1-2.5.2-.9.1-1.6.1-2.3 0-.6 0-1.3 0-1.7.5-.3.4-.5.8-.5 1.3-.1 1.1.3 2 1.1 2.5.2.1.5.1.8.1.3 0 .6 0 .8.1 0-.2.3-.2.6-.2z"/></clipPath><clipPath id="alphabet_equal_0"><path d="M15.1 21.1c.4.1.6.2.6.4.1.2 0 .3-.1.5s-.3.4-.5.6-.4.4-.6.5c-.2 0-.4 0-.6.1-.2.1-.4.2-.5.3-.6-.1-1.1-.1-1.7 0-.6.1-1.1.1-1.6.1-.1 0-.2 0-.2.1s0 .1-.1.2c-.6-.2-1.2-.3-1.9-.2-.7 0-1.4.1-2.1.2-.7.1-1.5.2-2.2.4s-1.5.2-2.2.2c-.1-.1-.3-.3-.4-.5-.1-.2-.2-.5-.2-.8 0-.3-.1-.5 0-.8v-.8c.1-.2.2-.4.3-.5s.3-.2.5-.3c.5 0 1 0 1.4-.1.4 0 .8-.1 1.2-.1s.7-.1 1.1-.1c.4 0 .8-.1 1.2-.1.3-.1.7-.1 1.4-.2.5 0 1.3-.1 2.3-.1s2.3-.1 4-.1c0 .2 0 .3.2.4.1.1.3.1.4.2.1.1.3.1.4.2 0 0 0 .1-.1.3z"/></clipPath><clipPath id="alphabet_equal_1"><path d="M16.9 15.3c.3 0 .5.1.6.2.1.1.2.2.2.4 0 .1 0 .3-.1.5s-.1.3-.2.5c-.6.3-1.3.5-2.2.7-.9.1-1.9.2-2.8.3-1 .1-1.9.1-2.8.1-.9 0-1.6 0-2.2.1-1.1.1-1.9.2-2.6.3-.6.1-1.1.2-1.3.3-.4 0-.6-.1-.8-.2-.2-.1-.3-.3-.4-.4-.2-.3-.3-.5-.3-.7 0-.2-.1-.4-.2-.7.2-.2.3-.4.3-.7 0-.3 0-.5-.2-.6.2 0 .3-.2.4-.3.1-.2.2-.3.1-.4.4-.1.7-.1 1.1-.2s.7-.1 1.1-.1c.4 0 .7 0 1-.1.3 0 .6-.1.9-.2 1 0 2-.1 3.1-.1s2.1-.1 3-.1c.3.1.7.2 1.1.2.5 0 .9 0 1.3.1s.8.2 1.1.3c.6.1.8.3.8.8z"/></clipPath><clipPath id="alphabet_exclamation_0"><path d="M4.2 23.1c0 .2.1.3.1.5 0 .1 0 .3.1.5-.1.4-.3.8-.4 1.1-.1.1-.1.2-.1.3v.5l-.2.4c-.1.1-.2.3-.3.3-.1.1-.3.2-.4.2-.1 0-.1.1-.2.1s-.1.1-.2.1l-.1.4-.4.1c-.3.1-.6.1-.9.1H.9c-.2-.2-.4-.4-.6-.5s-.3-.5-.5-.6c-.2-.4-.4-.7-.4-1 0-.3-.1-.4-.2-.5l-.4-.4.4-.3-.4-.6c.2-.2.4-.3.5-.4l.3-.3.3-.3c.1-.1.3-.4.5-.7l.3-.4.4.3c.1.1.3.1.6.2s.5.1.7.1c.3.1.6.2 1 .2.3.1.6.2.7.3l.1.3z"/></clipPath><clipPath id="alphabet_exclamation_1"><path d="M7.2 5.9c0 .2 0 .4-.1.7s-.1.5-.1.8v.7c0 .2.1.3.3.4-.4 1.1-.6 2-.7 2.7l-.3 2.1c-.1.7-.2 1.3-.3 2.1-.4.6-.6 1.5-1 2.6-.2.6-.5 1.1-.8 1.3-.3.3-.7.4-1 .4s-.7-.1-1.1-.3c-.4-.2-.7-.4-1.1-.7-.1-.4-.1-.8 0-1.4 0-.6.1-1.1.2-1.7.1-.6.2-1.2.2-1.7.1-.6.1-1 .2-1.4.2-.3.4-.5.4-.6.1-.1.1-.3.2-.5 0-.2.1-.4.1-.6 0-.2.1-.6.2-1v-.6c-.1-.2-.1-.3 0-.5 0-.1.1-.1.2-.2.1 0 .1-.1.2-.2.1-.3.1-.5.1-.6 0-.2 0-.3.1-.6-.1-.1 0-.4.1-.7.2-.4.2-.7.2-1.1l.5-.5.5-.5c.2-.1.4-.3.6-.4.2-.1.5-.2.8-.2.1.3.2.5.3.7.1.2.2.4.2.6.1.2.2.4.3.5.1.2.3.3.6.4z"/></clipPath><clipPath id="alphabet_f_0"><path d="M5.2 22.2c.3-.7.7-1.5 1-2.2.3-.7.8-1.5.8-2.3v-.2-.4c0-.1.1-.3.3-.5 0-.6.2-1.1.5-1.5v-.3-.2c0-.1 0-.2.1-.4 0-.1.1-.3.2-.5.3-1-.5-1.5-1.3-1.4-.5 0-1.1.2-1.6.4-.5.3-1 .7-1.4 1.2-.3.5-.3 1-.4 1.5-.1.2-.1.5-.1.7-.1.2-.2.4-.3.5-.1.2-.1.4-.2.5 0 .2-.1.3-.1.4 0 .1-.1.2-.2.2 0 .1-.1.2-.1.3l-.1.1c-.2.7-.5 1.3-.7 2-.2.6-.4 1.3-.7 1.8 0 .1-.1.2-.1.4 0 .1-.1.3-.1.4l-.3 1.2c-.1.4-.1.9.1 1.5.2.3.3.6.5.8.1.1.2.2.2.3.1.1.1.2.2.3l.3.2c.1 0 .3.1.5.2.1.1.3.1.4.2h.6c.6-.3.9-.7 1-1.4.1-.4 0-.7-.1-1v-.2s0-.1.1-.2c0-.1.1-.2.1-.3 0-.1.1-.3.3-.5v-.5c.1-.2.3-.4.3-.7 0-.1.1-.2.1-.3s.1 0 .2-.1z"/></clipPath><clipPath id="alphabet_f_1"><path d="M13.8 18.6c-.1-.1-.1-.2-.2-.2l-.2-.3c-.1 0-.1-.1-.2-.1s-.1-.1-.3-.1l-.2-.4.2-.2h-1c-.5 0-1 0-1.5.1s-1 .1-1.4.2c-.3.1-.7.1-1 .2-.3 0-.7 0-1.1-.1-1.3.3-2.6.3-4.1.3h-.2c-.2-.1-.4-.2-.5-.4l-.4-.2c-.2.1-.4.1-.7.2-.2.1-.5.2-.7.3-.2.1-.4.3-.6.6-.2.2-.3.5-.3.9 0 .5.2 1 .5 1.5s.7.9 1.2 1.2c1.4.2 2.8.3 4.3.1.1 0 .3-.1.5-.1 0-.1.1-.1.3-.1h.4c.3-.1.6-.2 1-.3.3-.1.7-.1 1.1-.2.3 0 .6-.1.8-.1.3 0 .6-.1 1-.2h.5c.2 0 .3-.1.4-.1.3-.1.6-.1.9-.1l.4-.1 1.2-1.7c0-.3-.1-.5-.1-.6z"/></clipPath><clipPath id="alphabet_f_2"><path d="M17.8 10.2s-.1-.1-.2-.1l-.2-.2c-.1-.1-.3-.2-.4-.4-.1-.1-.3-.2-.5-.3-.2-.5-.8-.8-1.7-.8h-1.1c-1 .1-2 .2-2.8.4s-1.5.3-2 .5c-.3 0-.6.1-.8.2 0 .1-.1.1-.2.1h-.3c-.1 0-.3 0-.5.1-.2 0-.3.1-.5.2l-1.2.3c-.4.1-.8.3-1.2.4-.4.1-.8.3-1.2.4l-1.2.3-.3.3s-.1.1-.2.4l-.1.3v.5c.1.1.1.2.1.3 0 .1 0 .1-.1.2l-.2.3.3.2c.2.2.3.4.5.6.1.1.2.2.3.4l.5.5c.2 0 .3.1.3.1.2 0 .3.1.4.2 1.6-.4 3.1-1.3 4.7-1.7l.5-.3c.5-.2 1-.4 1.7-.5.6-.2 1.3-.3 2-.4.7-.1 1.4-.2 2-.3.7-.1 1.2-.1 1.7-.1h.8l.3-.2c.3 0 .5-.2.7-.5.5-.5.4-.9.1-1.4z"/></clipPath><clipPath id="alphabet_g_0"><path d="M20.7 21.6c-.5.9-1.1 1.5-1.9 2-.8.5-1.6.9-2.6 1.2-.9.3-1.9.6-3 .8s-2 .6-3 .9h-.7c-.2 0-.4 0-.6.1-.2 0-.4.1-.6.1-.2 0-.4.1-.6.1h-.2c0 .1-.1.1-.1.1-.3.1-.6.1-.9.1h-.7c-.2 0-.5 0-.7.1-.3.1-.5.1-.7.1-1.4 0-2.6-.5-3.4-1.5-.9-1-1.3-2.4-1.4-4.1v-.2c-.1 0-.1 0-.1-.1 0-.2 0-.4.1-.5.1-.1.1-.3 0-.5.4-1.2 1-2.3 1.6-3.2.7-1 1.5-1.8 2.4-2.5.1-.1.3-.2.4-.4.1-.1.2-.2.3-.4l.3-.3c.1-.1.3-.2.5-.2.4-.5.9-.9 1.5-1.3l1.8-1.2c.6-.4 1.3-.7 1.9-1.1s1.2-.8 1.7-1.3c.2.1.4.1.5.1h.3c.1.3.3.5.6.6s.5.2.8.4c.3.1.5.3.7.5.2.2.4.4.5.7-.1 0-.2 0-.2.1s0 .2.1.3c0 .1.1.2 0 .3 0 .1-.1.1-.2.1 0 .1.1.2.2.2s.2.1.2.2 0 .2-.1.2c-.1.1-.1.2 0 .3-.4.3-.8.5-1.3.8s-1 .5-1.5.8-1.1.6-1.7.9c-.6.3-1.1.7-1.7 1.1-.5.4-1.1.8-1.7 1.3-.6.5-1.1 1-1.6 1.6-.5.5-1 1.1-1.5 1.7-.5.6-.9 1.1-1.2 1.7 0 .1.1.2.1.2 0 .1.1.1.1.2h1.8c.6 0 1.1 0 1.7.1.1 0 .1-.1.1-.2s.1-.1.2-.2c1.1-.1 2.2-.3 3.2-.6s2-.5 3-.8c-.2-.1-.3-.1-.4-.2-.1 0-.3-.1-.4-.1-.1-.1-.1-.2 0-.3.1-.1.2-.1.3-.2-.3-.2-.5-.4-.7-.6s-.3-.6-.3-1c.1-.1.2-.2.2-.4 0-.1-.1-.3-.2-.3h-.2v.2h-.2c0-.2.1-.3.1-.5.1-.1.1-.3.2-.4l2.1-1.4c.2.2.5.3.8.5.3.2.7.4 1 .6.4.2.7.4 1.1.6.4.2.7.4 1 .6.3.1.5.3.8.5l.6.6.6.6c.2.2.5.4.7.5v.6c.2.3.3.5.2.7z"/></clipPath><clipPath id="alphabet_h_0"><path d="M17.1 14.2c0-.6-.1-1.2-.1-1.8-.3-.2-.5-.5-.7-.9-.2-.3-.4-.7-.5-1.1s-.3-.7-.5-1.1c-.2-.4-.4-.7-.6-1-.4.1-.7.3-.9.5-.3.3-.4.6-.6 1-.1.4-.2.8-.2 1.2 0 .4 0 .8.1 1.2-.1 0-.2.1-.3.2-.1.1-.1.2-.2.3.1.8.1 1.6-.1 2.4-.2.8-.3 1.6-.4 2.4-.3 1.6-1.3 3.5-1.4 4.7 0 .2 0 0 0 0v.3c0 .2-.1.4-.1.7-.1.2-.1.5-.1.7v.3c0 .5.1.9.3 1.3.2.4.5.8.8 1.3.2.1.4.1.5.3.2.1.3.2.5.3.3-.1.7-.3 1.1-.4.4-.1.7-.3 1-.6.3-.2.5-.5.7-.9.2-.3.2-.8.2-1.3-.2-.3-.2-.6-.2-.8v-.7c.1-.1.3-.3.4-.5l.3-.6c.1-.2.2-.4.2-.6.1-.2.2-.4.3-.5.1-.8.2-1.6.4-2.3.2-.7.4-1.5.5-2.2-.3-.6-.4-1.2-.4-1.8z"/></clipPath><clipPath id="alphabet_h_1"><path d="M10.6 22.3c1.4-.1 2.5-.5 3.2-1.7.3-.6.5-1.4.1-2.1-.3-.6-1.2-1-1.9-.9-.4.2-.9.4-1.4.6s-1 .3-1.5.4-1 .2-1.6.3c-.5 0-1 .1-1.5.2-1.4.4-2.8 1.1-3.5 2.4-.4.9-.3 2.1.5 2.8.7.6 1.6.4 2.4 0 .3-.2.6-.4 1-.6.4-.2.9-.4 1.3-.7l1.5-.6c.5 0 1-.1 1.4-.1z"/></clipPath><clipPath id="alphabet_h_2"><path d="M5.4 24.4c.2-1.6.5-3.3.7-5v-.2c.1-.2 0-.3 0-.3-.1 0-.1-.1-.2-.2.1-.3.2-.8.3-1.2s.2-1 .3-1.5.2-1 .2-1.5c.1-.5.1-.9.1-1.3-.2-.4-.4-.7-.6-1-.2-.3-.5-.6-.7-.9l-.6-.9c-.4-.5-.5-.8-.6-1.3-.6.2-1.1.6-1.4 1.1-.3.6-.5 1.2-.6 2-.1.8-.2 1.5-.3 2.4-.1.8-.1 1.6-.3 2.2-.2 0-.3 0-.3.1.1.2.1.4.1.6 0 .3 0 .5-.1.8-.1.3-.1.5-.3.8-.1.3-.2.5-.4.6 0 .4-.1.9-.2 1.4s-.3 1-.6 1.4c.1.1.1.2.1.3 0 .1-.1.2-.1.3 0 .1-.1.2-.1.3v.5c.1.1 0 .1 0 .1s-.1.1-.1.2 0 .2-.1.3c0 .1-.1.2-.1.2.2.3.3.6.3.8 0 .2.2.5.4.7-.1-.1-.2 0-.2.1 0 .2 0 .2.1.2 0 0 0 .1.1.1.1.1.2.1.3.2.1.1.2.2.3.2.2.2.2.3.2.4.4.2.7.3 1 .3.3 0 .5 0 .8-.1s.5-.2.7-.3c.2-.2.5-.3.7-.4v-.2c0-.1-.1-.1-.1-.2.1 0 .3-.1.4-.3.2-.2.3-.4.5-.7.1-.3.2-.5.3-.7 0-.2.1-.4.1-.4z"/></clipPath><clipPath id="alphabet_hashtag_0"><path d="M10.7 9.3c-.2-.9-.5-1.6-.8-2.2-.2-.7-.7-1.3-1.3-1.8-.5.1-.9.4-1.2.9-.3.5-.6 1-.8 1.7-.2.7-.4 1.3-.6 2-.2.7-.4 1.2-.6 1.6-.3.6-.4 1.4-.7 2.1-.2.7-.2 1.3-.5 1.9-.2.5-.4 1-.5 1.5-.2.5-.2.8-.2 1.1v.4c-.2 1.4-.9 2.8-1.6 4-.2.3-.4.6-.6 1-.2.4-.4.7-.5 1.1-.1.4-.2.8-.2 1.2 0 .4.2.8.5 1.1.4.2.7.3.9.4.3.1.6.3 1 .4.2 0 .4-.1.6-.2.2-.1.3-.2.5-.3.1-.1.3-.2.4-.4s.3-.2.5-.3c.1-.2.1-.3.2-.6 0-.2 0-.4.1-.6s.1-.4.2-.6c.1-.2.2-.4.5-.6 0-.1-.1-.2-.2-.3-.1-.1-.1-.2-.1-.3.1-.2.3-.5.5-.8.2-.3.3-.6.4-1 .2-.7.6-1.4.8-2.1.2-.5.2-1.1.3-1.7v-.2c0-.2.1-.6.3-1.1.2-.5.3-1.1.6-1.7.2-.6.5-1.2.8-1.8.3-.7.4-1.4.7-2.1.2-.4.3-.8.4-1.1.1-.1.2-.4.2-.6z"/></clipPath><clipPath id="alphabet_hashtag_1"><path d="M15.1 17.8c0-.3.1-.6.3-1.2s.4-1.1.6-1.7c.2-.6.4-1.1.7-1.7.2-.5.3-.9.5-1.4.1-.2.1-.4.2-.6.2-.4.3-.8.4-1.1s.2-.6.3-.8c-.2-.9-.4-1.6-.8-2.3-.3-.6-.8-1.2-1.4-1.8-.5.1-.8.4-1.1.8-.3.4-.6 1-.8 1.6l-.6 1.8c-.2.6-.3 1.2-.5 1.6-.2.7-.5 1.4-.7 2.2-.1.4-.2.9-.3 1.3-.1.2-.1.3-.2.5-.2.5-.4 1.1-.6 1.6s-.3.9-.3 1.2c-.1.8-.3 1.5-.6 2.3-.2.5-.5 1-.7 1.5-.1.2-.2.5-.4.8-.2.3-.4.6-.6 1-.2.4-.4.7-.5 1.1-.1.4-.2.8-.1 1.2 0 .4.2.8.5 1.1.3.2.6.3.9.4.3.1.6.3 1 .4.2 0 .4-.1.6-.2s.3-.2.4-.3c.1-.1.3-.2.4-.4s.3-.2.5-.3c.1-.2.1-.4.1-.6 0-.2 0-.4.1-.6 0-.2.1-.4.2-.6.1-.2.2-.4.5-.6 0-.1-.1-.2-.2-.3-.1-.1-.1-.2-.1-.3.3-.3.5-.6.7-1 .2-.4.3-.8.5-1.2.4-1 .9-2.2 1.1-3.4z"/></clipPath><clipPath id="alphabet_hashtag_2"><path d="M20.6 12.7c-.1-.1-.4-.2-.7-.2 0-.2-.1-.4-.2-.6-.1-.2-.3-.3-.6-.4-.2-.1-.5-.2-.8-.2-.3 0-.6-.1-.9-.1-1.6-.1-2.8-.2-4.4-.2h-2.8c-1.5.1-3 .2-4.6.3-.6.1-1.2.1-1.9.1s-1.3.1-1.9.2c0 .1 0 .2-.2.4s-.3.3-.5.3c.2.1.2.4.2.6 0 .3-.2.5-.3.7-.1.4-.1.7 0 .9s.1.4.2.6c.1.2.3.3.5.4.2.1.6.2 1.1.2.2 0 .4-.1.6-.1.2 0 .5-.1.9-.2 1.5-.2 2.8-.4 4.3-.4h3.2c1.4 0 2.7 0 4.2-.1.9-.1 1.8-.2 2.5-.3.8-.1 1.5-.3 2-.6.1-.2.1-.3.2-.5s.1-.3.1-.5c0-.1-.1-.2-.2-.3z"/></clipPath><clipPath id="alphabet_hashtag_3"><path d="M18.5 19.3c-.1-.2-.4-.3-.8-.4.1-.2 0-.3-.1-.4-.1-.1-.3-.1-.5-.2s-.4-.1-.5-.2c-.2-.1-.2-.2-.2-.4h-5.5c-.6 0-1.1 0-1.7.1s-1 .1-1.4.1c-1.4.3-2.9.3-4.3.3-.5 0-.9.1-1.4.1-.5 0-1 .1-1.6.1l-.6.3c-.2.1-.3.3-.4.5v.8c0 .3 0 .6.1.8 0 .3.1.5.3.8s.4.4.7.6H2c1.6 0 3.2-.4 4.8-.6.5-.1 1-.1 1.5-.1h1.4c1.6-.1 3-.1 4.5-.2h.8c.3 0 .5 0 .8.1.2-.1.5-.3.7-.4.3-.1.5-.1.7-.1.2-.1.5-.3.8-.5.3-.2.5-.4.6-.6 0-.1 0-.3-.1-.5z"/></clipPath><clipPath id="alphabet_i_0"><path d="M5.9 25.2c.1.6.1 1.1-.1 1.4-.2.4-.4.6-.8.8-.3.2-.7.3-1.1.3-.4 0-.8 0-1.1-.1-.2-.3-.4-.6-.5-1.1-.2-.4-.3-.9-.5-1.3-.1-.5-.3-.9-.4-1.3l-.3-1.2c.1-.2.2-.5.2-.8 0-.3.1-.6.1-.9v-1c0-.3 0-.6.1-.9.1-.8.3-1.6.6-2.4s.5-1.6.6-2.4v-.5c-.1-.2-.1-.3 0-.5 0-.1.1-.1.2-.2s.2-.1.2-.2c.1-.2.1-.4 0-.5 0-.1 0-.3.1-.5s.2-.4.4-.7c.2-.3.2-.6.2-1 .1-.2.3-.3.5-.5s.3-.3.5-.4c.1-.1.3-.2.6-.3.2-.1.5-.2.8-.2.1.2.2.4.2.7 0 .2.1.5.2.7 0 .2.1.5.2.7.1.2.3.4.5.5V12.7c0 .2.1.4.1.6.1.2.2.3.3.4-.4 1-.7 1.9-1 2.9-.3.9-.6 1.9-.8 2.9-.2 1-.3 1.9-.4 2.9.1.9.2 1.8.4 2.8z"/></clipPath><clipPath id="alphabet_j_0"><path d="M14 11.5c-.5-.4-1-.4-1.6-.2-.9.3-1.8.9-2 1.9-.1.5-.2 1-.3 1.6-.1.6-.2 1.2-.4 1.9s-.3 1.3-.5 1.9c-.2.6-.4 1.2-.7 1.8v.3c-.1.1-.2.2-.2.3-.1.1-.1.2-.2.3-.1.1-.2.3-.2.4-.1.1-.1.2-.2.3-.1.1-.2.2-.2.3-.1.1-.2.2-.4.2l-.2.2c-.1 0-.2 0-.3.1-.1 0-.2.1-.3.1-.3.1-.6.2-.8.2-.2 0-.3 0-.4-.1H3.7s-.1 0-.2-.1c-.1 0-.2-.1-.3-.2-.3-.1-.7-.3-1-.4-.4-.1-.7-.2-1.1-.2-.3 0-.7.1-1.2.4-.1.2-.2.4-.2.7-.1.3-.1.6-.2 1 .3 1 .6 1.6 1.1 1.9.4.3.8.5 1.2.5.3 0 .5-.1.8-.2.2 0 .4 0 .5.1.1 0 .2 0 .3.1.1 0 .2.1.3.1.1 0 .3.1.5.2l.3.1h.7c.3 0 .6.1.9.1.1 0 .2-.1.3-.1.1 0 .2 0 .3-.1.3.1.5.1.8 0 .2 0 .5-.1.8-.1.6-.2 1.2-.5 1.6-.9.5-.4 1-1 1.5-1.5.6-1.2 1.1-2.5 1.6-4s.8-3 1.2-4.6c.1-.4.3-.9.3-1.3.1-.4.1-.9.2-1.4 0-.7-.2-1.2-.7-1.6z"/></clipPath><clipPath id="alphabet_j_1"><path d="M20.4 11c-.2-.3-.4-.5-.6-.7l-.3-.3c-.1-.1-.2-.2-.2-.3l-.3-.2v-.3h-1.2c-.2 0-.5-.1-.8-.1-.2-.1-.4-.1-.5-.1h-5.2c-.5 0-1 .1-1.6.2 0 0-.1 0-.2-.1h-.2-.2c-.1 0-.1.1-.2.1H6.6c-.3 0-.5.1-.8.1-.3 0-.6.1-1 .2-.3.2-.7.2-1.1.3-.3.1-.7.1-1 .2l-.3.3c0 .1-.1.1-.1.2s-.1.1-.2.2h-.5v.9c0 .2 0 .4.1.6 0 .2 0 .3.1.4.1.4.3.8.7 1 .4.4.8.6 1.3.6.3 0 .6-.1.9-.2.3-.1.6-.3.9-.4l.5-.1c.4-.1.8-.2 1.1-.2.3-.1.6-.1.8-.1.3 0 .6 0 .9-.1h1.5c1.4 0 2.8-.1 4.2-.2h2c.3 0 .7 0 1 .1h2l.3-.2c.1-.1.3-.2.4-.3l.2-.3c.1-.5.1-.9-.1-1.2z"/></clipPath><clipPath id="alphabet_k_0"><path d="M18.9 21.8c-.3-.3-.6-.5-1.1-.7-.1 0-.1 0-.1.1s0 .1-.1.1h-2.2c-.7 0-1.4-.1-2-.2s-1.1-.4-1.6-.7c-.5-.3-.9-.8-1.2-1.5-.2-.5-.8-.6-1.3-.6-.5.1-1.1.5-1.6.8-.6.5-.7 1.1-.5 1.8 0 .1.1.6.2.6s.1.1.1.1c.1 0 .2.1.3.1.1 0 .2.1.2.1.2.3.5.6.8.9.3.3.7.6 1 .8l.9.6c.3.2.6.4.8.5.1 0 .3.1.4 0s.3 0 .4.1c0 0 .1.1.1.2s.1.1.1.2c.7.3 1.4.5 2.2.6.7.1 1.6.1 2.5.1.7-.3 1.3-.7 1.7-1.2.4-.5.7-1.1.7-1.9-.2-.3-.5-.6-.7-.9z"/></clipPath><clipPath id="alphabet_k_1"><path d="M7.5 21.6c.5-.4 1-.7 1.4-1.1.5-.5 1.2-1.1 1.6-1.6 0-.1.1-.3.3-.3l.3-.3h.4c.1-.2.2-.3.3-.4s.3-.2.5-.3c.2-.1.3-.2.5-.3s.3-.2.4-.4c.5-.4.9-.7 1.4-.9s.9-.5 1.3-.8c.4-.3.8-.5 1.3-.8.4-.3.8-.6 1.2-1l.3-.6c.1-.2.2-.3.3-.5 0-.3-.1-.5-.2-.7-.1-.1-.2-.3-.4-.4-.1-.1-.3-.2-.4-.3-.1-.1-.3-.3-.4-.5-.3 0-.5-.2-.7-.3-.2-.2-.3-.4-.5-.6-.3.1-.5.2-.7.3-.5 0-.7.1-1 .2 0 .1 0 .2.1.2s.1.1.1.2c-.1 0-.2-.1-.3-.1h-.4c-.7.5-1.3.9-1.9 1.3-.6.4-1.3.9-1.9 1.5-.2.2-.5.4-.8.6l-.9.6c-.4.2-.7.5-1 .7-.3.2-.6.5-.8.7 0-.4.1-.9.3-1.4.2-.5.5-1 .9-1.3-.1-.1-.1-.1-.1-.2v-.1-.1-.2c.3-.2.5-.4.6-.6.1-.3.1-.6 0-.9l-.3-.9c-.1-.3-.3-.6-.5-.7l-.5.1c0-.1-.1-.2-.2-.3S7 8.9 7 8.8c-.3 0-.6 0-.8-.2-.3-.1-.5-.2-.8-.2-.3.1-.6.4-.8.7-.2.3-.3.6-.5.9-.2.3-.3.6-.4.9-.1.3-.3.6-.5.8-.2.9-.5 1.8-.8 2.6l-.9 2.4-.9 2.4c-.3.8-.4 1.8-.5 2.7-.1 0-.2.1-.2.1-.1 0-.1.1-.1.2l.1.1s0 .1.2.3c-.1 0-.3.1-.4.1-.1.1-.1.2-.1.4 0 .1.1.2.1.3 0 .1.1.2.1.3 0 .1 0 .2-.2.3.2.1.4.3.5.4-.1.2-.2.4-.1.5 0 .2.1.3.2.5l.3.6c.1.2.1.4.1.7.1 0 .3.1.4.2.1.1.2.2.3.2.1.1.3.2.4.2.1.1.3.1.5.1.6-.3 1.1-.6 1.5-1.1.4-.5.8-1 1.1-1.6.5-.5.8-1.1 1.2-1.6.4-.6.9-1 1.5-1.4z"/></clipPath><clipPath id="alphabet_l_0"><path d="M7.4 26.7c-.6.2-1.2.4-1.8.5-.7.2-1.3.3-2 .3-1 0-1.8-.3-2.4-.8-.1-.2-.2-.4-.3-.5-.1-.1-.1-.2-.2-.3-.1-.1-.1-.2-.1-.4-.2-.3-.4-.6-.6-1-.1-.4-.2-.8-.3-1.1s-.1-.8 0-1.2c0-.4.1-.8.2-1.1.1 0 .1-.1.1-.1v-.3l.3-.9c.1-.3.2-.6.4-.8-.1-.2-.1-.4 0-.6l.3-.6c.3-.8.5-1.4.7-1.9.2-.5.4-1.1.6-1.6.3-.9.7-1.8 1-2.7.3-.9.6-1.8.8-2.9.2-.1.3-.2.4-.2.1 0 .2-.1.3-.1.3.2.7.3 1.2.5s.9.3 1.2.3c.2.1.3.2.3.2 0 .1.1.1.1.1.2.3.4.5.6.8.2.3.2.6.2 1.1-.1.2-.2.3-.3.3-.1.4-.2.7-.3 1-.1.3-.2.6-.3.8-.1.3-.3.6-.4.9s-.2.7-.3 1.1c-.1.1-.1.2-.2.3 0 .1-.1.2-.1.3 0 .1-.1.2-.1.3s-.1.2-.2.3c-.2.5-.3.9-.4 1.3s-.3.6-.4 1c-.2.6-.5 1.2-.6 1.7-.2.6-.3 1.2-.3 2 .1 0 .2-.1.3-.1h.3c.2 0 .4 0 .6.1.6-.3 1.3-.5 2-.6.6 0 1.3-.1 2-.1h.8c.3 0 .5 0 .8-.1.2.1.3.2.3.2H12.2c.2.2.5.4.7.5.2.1.5.2.7.3l.6.3c.2.1.4.2.6.4l.2 1.3c.1.2.2.3.2.4 0 .2 0 .3-.1.4l.1.3c-.3.1-.5.1-.6.2l-.3.3h-.5c-.3 0-.6.1-1 .2-.5-.2-1.1-.3-1.7-.3h-.7c-.2 0-.5 0-.7.1-.2 0-.5.1-.7.1h-.8l-.8.1z"/></clipPath><clipPath id="alphabet_left_b_0"><path d="M11.6 28.4c.4.1.6.2.7.4.1.2.1.4.1.6 0 .2-.1.4-.3.7-.2.2-.3.4-.4.6-.2 0-.4 0-.5.1-.2.1-.3.3-.4.4-.6-.1-1.1-.1-1.7 0-.5.1-1 .1-1.5.2-.1 0-.1 0-.1.1s0 .1-.1.2c-.6-.2-1.2-.3-1.8-.2s-1.3.1-1.9.3-1.3.3-2 .5-1.4.3-2.1.3c-.3-.2-.5-.4-.6-.7-.2-.3-.3-.6-.4-.9-.1-.3-.2-.6-.3-1-.1-.3-.1-.6-.2-1 0-.2 0-.4.1-.5l.3-.3c.3-1.2.6-2.3 1-3.5.4-1.2.8-2.3 1-3.5.3-1 .5-1.9.8-2.8.3-.9.5-1.7.7-2.5.2-.8.4-1.6.7-2.4.3-.7.5-1.5.7-2.3.2-.7.4-1.3.5-2 .2-.6.3-1.2.5-1.9.2-.6.3-1.3.5-1.9.1-.7.2-1.4.4-2.3 0-.3-.1-.5 0-.6v-.4c-.1-.3-.3-.5-.4-.7.1 0 .3-.2.3-.4.1-.2.1-.4 0-.5.3-.1.7-.2 1-.2.4 0 .7-.1 1.1-.1.4 0 .7-.1 1-.1.4 0 .7-.1 1-.3 1 0 2.1-.1 3.1-.1 1.1 0 2.1-.1 3-.1.3.1.7.2 1.2.2s.9 0 1.4.1c.4.1.8.2 1.2.4.4.2.6.5.8 1 .3 0 .5.1.6.2s.2.3.3.4c.1.2.1.4 0 .5V3c-.3.3-.8.5-1.3.6s-1.1.3-1.7.3c-.6.1-1.2.2-1.9.2s-1.3.1-1.9.1h-1.7c-.5 0-1 .1-1.3.1-.3 0-.5.1-.8.1-.3 0-.5.1-.7.1-.3.9-.5 1.9-.7 2.9-.2 1-.5 2-.7 3-.3 1-.5 2-.7 3-.2 1-.5 1.8-.7 2.6-.2.8-.4 1.5-.5 2.1-.1.6-.2 1-.2 1.2l-.8 2.4c-.2.7-.4 1.3-.6 1.9s-.3 1.2-.5 1.8c-.2.6-.4 1.3-.7 2.1.3-.1.8-.1 1.4-.2.5 0 1.2-.1 2.1-.1.9 0 1.9-.1 3.3-.1 0 .2.1.3.3.4s.3.2.4.2c.2.1.3.1.4.2.1.1.2.3.2.5z"/></clipPath><clipPath id="alphabet_left_curly_0"><path d="M6.1 9.8c.1 0 .2-.2.2.1 0 .4-.1.7-.1 1.1 0 .1-.1.4-.1.5 0 .1 0 .2-.1.2l.2.1H6c-.1 0 0-.1-.3 0l-.3.2-.4.2-.5.2-1.9.7c-1.3.4-2.2 1.1-2.4 1.7.1 0 .2 0 .1.1-.1.3-.2.5-.4 1 .1.3.1.7.2 1 0 .1.1.2.2.4.1.1.2.1.3.1.3.4.6.7 1 1.1.7.5 1.5 1 2.3 1.5.8.5 1.2.8 1.4.9.1 0 .3.1.4.2.1.1.1.3.1.5v.1c0 .1 0 .1-.1.2l-.3.7c-.2.4-.4.9-.6 1.4-.4 1-.8 2.1-1 3.4 0 .6 0 1.2.2 1.8.2.6.6 1.1 1 1.4 1.3 1.1 3 1.5 4.3 1.8-.1-.5 3-.7 2.4-1.3.8 0 2.1 0 2.1-.2.1-.3.3-.5.7-.8.4-.3 1.1-.6 1.8-.9.3-.1.5-.4.5-.5-.1-.1-.2-.2-.1-.2 0 0-.1 0-.1.1-.2.1-.4.1-.7.2-.6.1-1.3.2-2 .3-.8-.1-1.5-.1-2.2-.1h-1.6l-.4-.1c-.7-.1-1.3-.2-1.7-.4l-.4-.2c0-.1 0-.3.1-.5.1-.5.4-1.1.7-1.8.1-.3.3-.8.6-1.5 0-.3.1-.5.2-.7.1-.3.2-.6.4-.9.3-.8.7-1.7.5-2.6-.2-1.8-3.2-3.7-2.9-3.5-.1-.1-.3-.2-.4-.3.1-.1.3-.2.5-.2.2-.1 1.3-.6 2.2-1.3.8-.7 1.3-1.7 1.3-2.6v-.7-.4c0-.2 0-.4.1-.6v-.3c.1-.9.3-1.9.5-2.8.2-.9.6-1.6.9-2.2.2-.6.6-1 1-1.5-.3 0-.6.1-.9.2.3-.2.5-.4.8-.5.2-.1.4-.3.5-.4 1.3-.7.5-.7-.3-.9-.5 0 0-.5-.8-.3.5-.3.8-.3 1.4-.5 0-.1-.4.1-.8.2-.4.2-.7.3-.6.1.3-.1.5-.2.8-.3l.9-.3c-.1-.1-.6 0-1.1.1-.5.1-.9.4-.9.2.3-.3 1.7-.4 1.8-.6 0-.1-.6.1-.9.2.9-.4 1.6-.5 1.9-.7.3-.1.1-.3-.8-.3.7-.1 1.5 0 2.2-.1h-1.2 1-.9.8c-.2-.1-.4-.2-.7-.2-.9-.1-2-.2-2.5 0-1.1.2-2.2.8-3.1 1.6C9 2.1 8.3 3.1 7.8 4 6.7 5.9 6.3 7.9 6.1 9.8z"/></clipPath><clipPath id="alphabet_left_p_0"><path d="M7.3 13.3l-1.1 1.4v.8c-.2.5-.5 1-.6 1.6-.2.6-.4 1.2-.6 1.9-.2.8-.3 1.6-.3 2.4 0 .8 0 1.7.1 2.5s.2 1.6.4 2.4c.2.8.4 1.5.6 2.1-.1.1-.1.2-.2.5 0 .2-.1.5-.1.7 0 .3-.1.5-.1.7v.5l.2.3c.1 0 .1.1.2.2 0 .1 0 .2.1.3 0 .5-.1 1-.4 1.4-.4-.1-.8-.2-1.1-.3-.4-.1-.7-.3-1-.4-.1-.3-.4-.7-.6-1-.3-.3-.5-.6-.8-.9-.2-.2-.4-.5-.6-.8-.2-.3-.4-.6-.6-1-.1-.7-.2-1.3-.3-1.8-.1-.5-.3-1.1-.4-1.7l-.1-.3v-2.3-2c0-.2.1-.3.1-.5v-.6-.4-.4l.7-.1-.2-1 .4-.2.1-.5c.1-1.1.2-2.1.5-3 .3-.9.6-1.7 1.1-2.5l.2-.5c.3-.5.7-1 1-1.5.3-.5.7-1.1 1.2-1.7.7-.8 1.3-1.4 1.9-2 .5-.5 1.1-1 1.6-1.3l.3-.3c.4-.4.7-.7 1-.9.3-.2.5-.5.7-.7.2-.2.4-.4.6-.5.2-.2.4-.3.5-.4.3.2.6.3.8.2.3 0 .5-.1.6-.2.2.3.4.5.4.7 0 .2 0 .4-.1.8-.1.3-.1.6-.2.9-.1.3 0 .7.2 1.1-.1.2-.2.4-.3.7 0 .3-.1.5-.1.7-.1.2-.2.4-.2.5-.1.1-.1.2-.2.3-.1.1-.2.1-.2.2l-.3.3c-.5.2-.9.5-1.4.9s-1 .9-1.4 1.3c-.4.5-.8 1-1.1 1.5-.3.5-.5 1-.7 1.4l-.2.5z"/></clipPath><clipPath id="alphabet_m_0"><path d="M19.9 26.8l-.6.3c-.2.1-.4.1-.6.1-.8-.6-1.2-1.6-1.2-3s.3-3.3.9-5.5c.1-.1.2-.2.2-.4l-.3-.3h-.2c-.1 0-.1.1-.2.2-.5.4-1.1.8-1.7 1.2-.6.4-1.3.8-1.9 1.1-.7.4-1.4.6-2.1.9-.7.2-1.4.3-2 .3-1.7 0-3-.9-3.8-2.6l-.2-.5-.2.4c-.1.1-.2.2-.3.5-.1.3-.2.5-.4.9s-.2.6-.3 1c-.1.3-.1.6-.1.9l-.6.6c-.2.2-.4.5-.5.8 0 .2 0 .3.1.5 0 .2-.1.3-.3.4l-.3.3c-.1.1-.2.2-.2.3 0 .1-.1.2-.1.3v.3c0 .1 0 .3-.1.4-.3.7-.6 1.2-.8 1.4-.2.2-.5.3-.8.3-.2 0-.4 0-.8-.1-.3-.3-.5-.7-.7-1.2-.2-.5-.4-1-.5-1.6-.1-.6-.2-1.1-.2-1.7 0-.6.1-1.1.3-1.5 0 0 .1-.2.2-.6.2-.4.4-.9.6-1.5.3-.6.5-1.3.9-2 .3-.7.6-1.4 1-2.1.3-.7.6-1.3.9-1.9.3-.6.5-1 .7-1.3.2-.2.3-.5.4-.7s.3-.4.4-.6c.4-.6.7-1.1 1-1.6.3-.4.8-.7 1.5-1 .4.2.8.4 1 .6l.1.3c.1.2.2.3.4.3.2.2.4.3.6.3.2.1.3.1.5.1.1.2.3.4.4.6.2.2.3.5.5.7.2.2.3.5.4.7.1.2.1.5.2.7 0 .2 0 .5-.1.8v.3c.1.2.1.4.1.8v.4c0 .1 0 .3.1.5.4.3.7.4 1 .4.3 0 .6-.1.9-.2.3-.2.5-.3.8-.5.2-.1.3-.2.5-.3.2-.1.3-.1.5-.2.4-.3.7-.6 1-.9.3-.3.6-.5.9-.8.6-.5 1.2-1 1.7-1.6.6-.6 1-1.3 1.4-2.1.2-.1.4-.2.6-.2s.5.1.7.2.5.2.7.3c.1 0 .1.1.2.1 0 0 .1 0 .1.1 0 .2.1.4.2.5.1.1.1.1.2.1l.1.1c.3.2.5.3.6.5.1.5.4.8.8 1.1v.6c0 .2.1.3.2.5 0 .1 0 .1.1.2 0 .1 0 .1.1.2l-.6-.1.1.6c0 .3 0 .6-.1.9-.1.3-.2.6-.3.8v2c0 .3-.1.5-.2.7-.1.2-.2.5-.3.7.1 1.3-.1 2.5-.4 3.5-.4 1.1-.8 2-1.2 3 0 .1-.1.2-.1.3-.1.1-.1.2-.1.3-.2.1-.3.1-.5.2-.6.1-.8.2-.9.2z"/></clipPath><clipPath id="alphabet_multiply_0"><path d="M12.3 23.7c-.2-.4-.3-.9-.4-1.4-.2-.1-.3-.2-.5-.3-.1-.1-.2-.3-.3-.5-.1-.2-.2-.3-.3-.5s-.2-.3-.4-.4c-.1-.2-.2-.3-.2-.5-.1-.2-.2-.3-.3-.5-.1-.2-.3-.4-.5-.7-.1-.1-.2-.2-.2-.3-.2-.4-.2-.9-.4-1.3-.3-.6-.6-1.3-.9-1.9-.1-.2-.3-.4-.5-.8-.2-.3-.5-.7-.8-1-.3-.3-.6-.7-.9-.9-.3-.3-.6-.5-.9-.5 0-.1 0-.2-.1-.2s-.1-.1-.1-.3c-.1.1-.3.1-.4 0-.1 0-.3-.1-.4-.2-.2-.1-.3-.1-.5-.2s-.4-.1-.6 0v.3c0 .1-.1.2-.1.3-.1.1-.1.2-.2.3-.1.1-.1.3-.1.4.1.3.1.6 0 .9s-.1.5-.2.6c.2.2.3.4.5.6s.2.5.1.7h.4l.9 1.2c.3.4.6.8.7 1.2v.1c.3 1.2.9 1.9 1.3 2.6.2.4.6.8.9 1.1.5.6.9 1.2 1.4 2 .5.8.8 1.6 1.1 2.4l1.4 1c.1-.1.2-.2.4-.2.1 0 .3-.1.5-.1.1-.3.3-.5.5-.8.2-.2.4-.6.5-.9-.1-.4-.2-.8-.4-1.3z"/></clipPath><clipPath id="alphabet_multiply_1"><path d="M14.9 13.4l-.3-.6c-.1-.2-.2-.4-.4-.6-.2-.2-.4-.4-.7-.5-.5.2-1 .5-1.5.8-.5.3-1 .7-1.5 1-.5.4-1 .7-1.4 1.1-.5.4-.9.7-1.3.9-.2.2-.5.3-.8.6-.4.3-.7.7-1.1 1-.4.4-.9.8-1.3 1.2-.1.2-.2.3-.4.5 0 .1-.2.2-.3.4-.2.1-.3.2-.5.4s-.2.3-.3.4l-.9.9c-.3.3-.6.7-.9 1s-.5.8-.7 1.2c-.2.4-.3.8-.3 1.2-.2.6-.2 1.2.1 1.8.3.6.7 1.1 1.2 1.5.6-.2 1-.5 1.2-.7s.3-.8.4-1.5c.5-.7 1.1-1.4 1.7-2s1.3-1.2 1.9-1.7c.6-.6 1.2-1.1 1.7-1.7.3-.4.5-.7.8-.9.9-.8 1.6-1.4 2.3-1.8s1.2-.8 1.6-1.1c.5-.3.9-.5 1.3-.7.1-.3.2-.5.3-.7.2-.2.3-.4.5-.7-.1-.3-.3-.4-.4-.7z"/></clipPath><clipPath id="alphabet_n_0"><path d="M17.8 10.8c-.2-.3-.4-.7-.7-1-.3 0-.6-.1-.8-.3l-.5-.5c-.2-.2-.4-.3-.6-.5s-.5-.2-.8-.3c-.1.2-.2.5-.3.8 0 .4-.1.7-.2 1-.1.3-.2.6-.3.8s-.2.5-.4.7c-.2 1-.3 2-.5 2.9-.1.9-.3 1.8-.6 2.7-.3.8-.6 1.6-1.1 2.2-.4.7-1 1.2-1.7 1.6-.1-.5-.2-1-.2-1.5V18v-1.3c0-.4 0-.9-.1-1.3-.1-1.4-.6-2.8-2-1.7-.8.6-.9 1.3-1.1 2.3-.4 1.9-.1 4.6.3 5.5 0 .1 0 0 0 0 .4 1.1.9 2 1.6 2.8s1.4 1.5 2.2 2.1c.6.2 1 .3 1.4.2.4-.1.7-.2.9-.4.3-.2.5-.4.7-.6s.5-.4.8-.5c0-.1-.1-.2 0-.2 0-.1 0-.1.1-.1l.1-.1v-.2c.1 0 .2.1.2.1s.1 0 .2-.1c.2-.4.4-.7.6-1.1.2-.4.4-.7.8-.9.1-.4.2-.9.4-1.4.2-.5.4-1 .5-1.5 0-.5 0-1 .1-1.5s.1-.9.2-1.3.2-.8.3-1.3c.1-.4.2-.9.2-1.4.2-.1.3-.3.4-.4.1-.2.2-.4.2-.6.1-.2.1-.4.2-.6 0-.2.1-.4.2-.5-.4-.5-.5-.9-.7-1.2z"/></clipPath><clipPath id="alphabet_n_1"><path d="M6.6 19.8c.2-.5.3-.9.5-1.4.4-1 .9-2.2 1.6-3 .1-.1.2-.2.3-.2h.1l.1-.1s0-.1.1-.1h.1c-.1-.2-.1-.4 0-.5 0-.1.1-.3.2-.4.1-.1.1-.2.1-.4 0-.1 0-.3-.1-.5h.2s.1-.1.2 0v-.3-.2-.1s-.1-.1-.1-.2.1-.1.1 0c0 0 .1 0 .1-.1-.1-.5-.3-.9-.5-1.3-.3-.4-.6-.7-1-1s-.7-.7-1.2-.9c-.4-.3-.9-.5-1.3-.6-1 2.3-2.2 4.7-3.3 7-1.2 2.4-2.2 4.6-3.2 6.7.1.1.2.3.2.5v.6c.1.3.3.6.4 1 .2.4.3.8.5 1.1.2.4.4.7.7 1 .3.3.6.5.9.6.2 0 .3-.1.4-.1.1-.1.3-.1.5 0 0-.1-.1-.2-.1-.2v-.2c.3 0 .5 0 .7-.2.1 0 .2-.2.2-.4.1-.2.1-.4.1-.6 0-.2.1-.4.3-.5-.1-.2-.1-.4-.1-.5 0-.2.1-.3.2-.4.1-.1.2-.3.3-.4s.2-.3.2-.5c.1 0 .2-.1.3-.2.1-.2.1-.3.2-.5s.1-.4.2-.5c.1-.1.2-.3.4-.3.3-.4.4-1.3.5-1.7z"/></clipPath><clipPath id="alphabet_o_0"><path d="M16.9 17.7c0 .2 0 .5.1.7.1.2.1.4.2.6l.3.6c.1.2.1.4.2.7v.9c0 .3-.1.7-.2 1-.1.3-.2.6-.4.8-.2.3-.4.4-.6.6-.3.4-.6.6-1 .8-.4.2-.8.4-1.1.7-.2.1-.5.2-.7.3-.3.1-.5.1-.8.2-.2.1-.5.2-.8.4-.3.1-.6.3-.9.4-.3.1-.6.2-1 .2-.3.1-.6.1-.8 0-.8.3-1.4.4-2 .5-.6.1-1.2 0-2-.1-.7.1-1.4.1-2-.1-.6-.2-1.2-.4-1.6-.8-.5-.4-.9-.8-1.2-1.3-.4-.5-.6-1-.9-1.6-.2-1.1-.1-2.2.1-3.1s.6-1.8 1-2.6c.5-.8 1-1.5 1.6-2.2.6-.7 1.1-1.3 1.7-2h.3c.1 0 .1-.1.2-.2s.1-.2.2-.3c.1-.1.2-.1.3-.2.1-.3.3-.5.6-.7.3-.2.5-.4.6-.6.2 0 .3-.1.5-.2 0 .1.2 0 .3-.1l.3-.3c.1-.1.3-.2.4-.2v-.3c.4-.2.7-.4.8-.6l.7-.7h.4c.1 0 .3 0 .5-.1.2-.3.3-.5.4-.6.2-.2.4-.4.6-.5.2.1.5.2.8.2.3 0 .5.2.8.4 0 .2.1.4.2.5l.3.3.3.3c.1.1.2.2.2.4h.4c.1.3.1.5.2.6.1.1.2.3.2.5-.1.2-.2.4-.2.6-.1.2-.2.4-.4.5 0 .1 0 .2.1.2s.2.1.2.2c0 .2 0 .3-.1.4.5.8.9 1.6 1.3 2.5.4.7.9 1.6 1.4 2.4zm-3.8 2.8c.1-.2.2-.4.3-.5.1-.1.2-.4.2-.6-.1-.2-.2-.3-.2-.4v-.4c-.4-.6-.8-1.3-1.1-2-.3-.7-.7-1.4-1.1-2 0 .1-.1.2-.2.2-.1.1-.2.1-.3-.1 0 .2-.1.3-.2.3-.1.1-.2.1-.3.1-.1 0-.2 0-.4-.1-.1 0-.2-.1-.3-.2-.6.5-1.2.9-1.7 1.4-.6.4-1.1 1-1.6 1.5-.1 0-.1.1-.2 0s-.1 0-.2 0c-.2.4-.4.7-.6 1-.2.3-.5.6-.7 1-.2.3-.4.7-.6 1-.2.4-.3.8-.3 1.3.3.3.7.5 1.2.5.5.1.9.1 1.4 0 .5 0 1-.1 1.4-.2.5-.1.9-.1 1.3-.1.8-.2 1.6-.5 2.2-.8.7-.2 1.3-.5 2-.9z"/></clipPath><clipPath id="alphabet_p_0"><path d="M10.7 8.2c.8.1 1.6.3 2.3.5s1.2.6 1.7 1c.3.5.6 1 .9 1.6s.5 1.2.7 1.8.2 1.3.2 1.9c0 .7-.2 1.3-.4 2-.6.7-1.3 1.3-2.1 1.8s-1.7.8-2.7 1.1c-1 .3-2 .5-3 .7l-3 .6v1.5c0 .6-.1 1-.2 1.5s-.2 1-.4 1.5-.4.9-.7 1.3c-.3 0-.7 0-1.1.1-.4.1-.7.2-1 .2-.1-.1-.3-.2-.4-.2-.1-.1-.3-.1-.5-.1 0-.2 0-.4-.2-.6-.1-.2-.3-.4-.4-.6l-.3-.6c-.1-.2 0-.4.3-.6-.1-.1-.2-.3-.2-.5.1-.2.3-.6.4-1 .1-.4.2-.8.3-1.3.1-.4.1-.8 0-1.1 0-.3-.2-.6-.6-.8l.1-.1h.2c-.2-.1-.3-.3-.3-.5s-.1-.4-.2-.6c0-.1.1-.2.1-.3 0-.1.1-.1.2-.1-.1-.4-.1-.7 0-1l.3-.9c.1-.3.3-.6.5-.9.2-.3.4-.6.6-.8.1 0 .2 0 .3.1 0 .1.1.1.2 0 .3-.2.4-.4.5-.6.1-.2.2-.5.2-.8.1-.4.3-.8.5-1.3.2-.4.4-.8.7-1.2.2-.4.5-.7.8-1 .3-.3.6-.5.9-.6.2-.2.5-.4.9-.6.4-.2.8-.3 1.2-.4.4-.1.8-.1 1.3-.2.4 0 .8 0 1.2.1.1 0 .2 0 .2-.1-.1.1-.1.1 0 .1zm-1.3 7.2c.5-.2 1-.4 1.6-.5.6-.1 1.1-.4 1.4-.7-.2-.2-.6-.4-1.1-.6-.5-.2-1-.3-1.5-.3s-1.1 0-1.6.1c-.6.1-1 .4-1.4.7-.1.4-.2.6-.3.9-.1.2-.2.5-.3.8 0 .1.1.2.2.2s.2 0 .2.2c.5-.2.9-.4 1.4-.4.5-.1 1-.2 1.4-.4z"/></clipPath><clipPath id="alphabet_percent_0"><path d="M12.6 10.7c.3-.2.6-.4.9-.7.3-.3.7-.7 1-1.1.4-.4.7-.8 1.1-1.2l1.1-1.1c.4-.3.8-.6 1.1-.7.4-.2.7-.3 1-.2.2.7.2 1.4.1 2.1-.1.7-.3 1.5-.7 2.3-.2.2-.5.5-1 .9s-.9.8-1.4 1.2c-.5.5-1 .9-1.5 1.4-.5.5-1 1-1.5 1.4l-1.2 1.2c-.4.4-.6.7-.7.9-.3.3-.8.7-1.3 1.2-.6.5-1.1 1.1-1.7 1.7-.6.6-1.2 1.2-1.8 1.7l-1.4 1.4v.3c0 .1.1.2.1.3-.2.2-.4.4-.5.6-.1.2-.1.3-.1.5v.5c0 .2 0 .4-.1.6-.2.1-.3.3-.4.4s-.3.3-.4.5c0 0-.1.2-.3.3-.2.1-.3.2-.6.3-.4 0-.7-.1-1-.1s-.4-.1-.8-.2c-.3-.3-.4-.6-.5-1 0-.4 0-.8.1-1.2.1-.4.2-.8.4-1.3.2-.4.3-.8.5-1.1.2-.5.4-.8.6-1 .2-.2.4-.4.4-.5l1-1c.5-.4 1-.9 1.6-1.4.6-.5 1.1-1 1.6-1.5s.9-.8 1.2-1.1c.2-.3.5-.7 1.1-1.2s1.1-1 1.6-1.5 1.1-1 1.6-1.5c.5-.4.8-.8.8-1.1z"/></clipPath><clipPath id="alphabet_percent_1"><path d="M8 7c0 .1-.1.2-.1.3 0 .1-.1.2-.2.3.1.2.1.3.1.4l.6 1.2.6 1.2c0 .2 0 .5.1.7.1.2.2.4.2.7 0 .3 0 .6-.1.9-.1.3-.3.6-.5.7-.1.2-.3.3-.5.4s-.2.3-.4.4c-.1.1-.2.1-.4.2-.1 0-.3.1-.4.1-.2.1-.5.3-.9.4-.3.1-.6.1-.9.1-.3.1-.6.2-.9.2-.3 0-.6 0-1-.1-.7.1-1.4 0-1.8-.4s-.8-.9-1.1-1.4c-.1-.6-.1-1.1.1-1.6.1-.5.3-.9.5-1.3.3-.4.5-.8.8-1.1.3-.3.6-.7.8-1 .1 0 .2 0 .3-.1 0-.1.1-.2.2-.2.1-.2.2-.3.3-.3l.3-.3c.2 0 .3-.1.4-.2s.2-.2.4-.2c.2-.4.4-.5.5-.6 0-.1.1-.2.3-.4h.5c0-.2.1-.3.2-.3 0-.1.1-.2.3-.3.1.1.3.1.4.1.2 0 .3.1.4.2 0 .1 0 .2.1.2 0 .1 0 .2.1.2l.2.2c0 .1.1.1.1.2.2.1.3.2.3.3 0 0 0 .1.1.2zm-2.2 4.3c.1-.2.1-.3.1-.3v-.1c-.1-.1-.2-.3-.2-.4-.1-.1-.1-.3-.2-.4-.1.1-.2.1-.4.1l-.3.3-.3.3c-.1.2-.2.3-.3.4-.2.1-.2.2-.2.4.1.1.3.1.5.1s.4-.1.5-.1c.2 0 .3-.1.4-.2.2 0 .3 0 .4-.1z"/></clipPath><clipPath id="alphabet_percent_2"><path d="M16.8 22.2c0 .2 0 .5.1.7s.2.4.2.6c0 .3 0 .6-.1 1s-.3.6-.5.7c-.1.2-.3.3-.5.4s-.4.2-.6.4c-.1.1-.2.1-.4.1-.1 0-.3.1-.4.1-.2.1-.5.2-.9.4s-.7.2-.9.2c-.3.1-.6.2-.9.2-.3 0-.6 0-1-.1-.7.1-1.4 0-1.8-.4-.5-.4-.8-.9-1-1.4-.1-.6-.1-1.1.1-1.6.1-.5.3-.9.5-1.3s.5-.8.8-1.1c.3-.3.6-.7.9-1 .1 0 .2 0 .2-.1.1-.1.1-.2.2-.2.1-.2.2-.3.3-.3.1-.1.3-.2.3-.3.2 0 .3-.1.4-.2.1-.1.2-.2.4-.2.2-.2.3-.4.4-.5s.2-.2.3-.4h.4c.1-.2.2-.3.2-.3.1-.1.2-.1.3-.2.1.1.3.1.4.1.2 0 .3.1.4.2 0 .2.1.4.3.4.2.1.3.2.3.3.1.1.2.2.3.2 0 0 .1.1.1.3 0 .1-.1.2-.1.3 0 .1-.1.2-.2.2.1.2.2.4.1.4.2.4.5.8.6 1.3.3.3.5.7.8 1.1zm-3.3.8c0-.2.1-.3.1-.4-.1-.1-.2-.3-.2-.4s-.1-.3-.2-.4c-.2.2-.2.2-.3.2-.1 0-.1 0-.1-.1l-.3.3-.3.3c-.1.2-.2.3-.3.4s-.2.2-.2.4c.1.1.3.2.5.1s.4-.1.5-.1c.2 0 .3-.1.4-.2.1.1.3 0 .4-.1z"/></clipPath><clipPath id="alphabet_period_0"><path d="M5.3 22.9c0 .2.1.3.1.5 0 .1.1.3.1.5-.1.2-.2.4-.2.6-.1.2-.1.4-.2.6-.1-.1-.1 0-.2.1v.5l-.1.3c-.1.1-.2.3-.4.3-.1.1-.3.2-.4.2 0 0-.1.1-.2.1s-.1.1-.2.1l-.1.4-.4.1c-.3.1-.6.1-.9.1H2c-.2-.2-.4-.4-.6-.5s-.3-.2-.5-.3c-.2-.3-.3-.5-.3-.6 0-.1 0-.3-.1-.4 0-.3-.1-.4-.2-.5l-.4-.4.4-.3-.3-.7c.2-.2.4-.3.5-.4l.3-.3.3-.3c.1-.1.3-.4.5-.7l.3-.4.4.2c.1.1.3.1.5.2s.5.1.7.2c.3.1.7.2 1 .2.3.1.5.2.7.3l.1.3z"/></clipPath><clipPath id="alphabet_plus_0"><path d="M12 15.3c-.2-.1-.3-.2-.3-.4v-.7c0-.3.1-.5.2-.8.1-.3.1-.5.1-.7-.3-.1-.5-.3-.6-.5-.1-.2-.2-.3-.3-.5-.1-.2-.2-.4-.2-.6-.1-.2-.2-.4-.4-.6-.3 0-.6.1-.9.2-.2.2-.4.3-.6.5s-.4.3-.5.5c-.2.2-.4.3-.6.5 0 .4 0 .7-.2 1.1s-.3.5-.4.7c-.1.2-.2.4-.1.6s0 .4-.1.6c0 .1-.1.2-.2.2s-.2.1-.2.2 0 .3.1.5.1.4 0 .7c0 .5-.4 1.1-.5 1.6-.3.9-.3 1.9-.6 2.7-.1.4-.1.8-.2 1.2s-.2.7-.2 1.2-.1.8-.1 1.2v.9l1.2.6c.4.2.8.3 1.2.3.4 0 .8-.1 1.1-.4.4-.3.7-.7 1-1.3.3-.9.6-1.7.7-2.3.1-.6.3-1.2.4-1.8.1-.9.4-1.9.6-2.8.1-.5.1-.9.3-1.3.1-.2.1-.4.2-.6 0-.2 0-.4.1-.7z"/></clipPath><clipPath id="alphabet_plus_1"><path d="M16.8 18.6c0-.2-.1-.3-.3-.4-.1-.1-.3-.2-.6-.2-.1-.4-.4-.7-.7-.9-.3-.2-.7-.3-1.1-.4s-.8-.1-1.3-.1-.8 0-1.2-.1c-1.6 0-3.3.3-4.9.1H5.1c-.2.3-.5.4-.8.4-.3.1-.7.1-1 .1-.4 0-.7 0-1.1.1s-.7.1-1 .2c.1.1.1.3 0 .5s-.2.3-.4.3c.2.2.3.4.3.7v.7c.1.2.3.5.4.7.1.2.2.4.4.6.1.2.3.3.5.4.2.1.5.2.9.2.2-.1.4-.1.8-.2s.9-.2 1.5-.3c1.8-.2 3.3-.4 5.1-.3.5 0 1.2 0 1.8-.1.6 0 1.2-.1 1.7-.2l1.5-.3c.5-.1.8-.3 1.1-.5v-.5-.5z"/></clipPath><clipPath id="alphabet_q_0"><path d="M18.6 16.6c-.4-.9-.8-1.8-1.3-2.6s-1-1.6-1.6-2.3c-.1-.1-.1-.2 0-.2s.2-.1.2-.2c-.5-.6-1-1.2-1.6-1.7s-1.3-.8-2-1.2c-.1 0-.2.1-.3.2-.1.1-.2.1-.4.1-.4-.2-.8-.3-1.2-.3-.3.1-.6.2-.8.4-.2.3-.3.6-.3.9 0 .3.1.6.3 1h-.5c-.1.4-.2.8-.5 1.1-.3.2-.6.4-1 .7-.4.2-.7.5-1 .7-.4.2-.6.5-.8.8-.1 0-.3 0-.4.1-.2.1-.3.2-.4.3-.1.1-.2.3-.3.4-.1.2-.1.3-.1.4h-.3c0 .1-.1.1-.2 0-.4.4-.9.8-1.3 1.3-.5.4-.9.9-1.3 1.4-.4.5-.7 1.1-1 1.7-.3.6-.5 1.3-.5 2 0 .2.1.3.2.5.1.1.1.3.2.5-.1.3-.1.5-.1.7 0 .2 0 .4.1.6 0 .2.1.4.1.6v.7c.5.6 1 1.2 1.7 1.6.7.4 1.4.7 2.3 1 1.6-.1 3-.3 4.4-.7 1.4-.3 2.7-.8 3.9-1.3 1.2-.6 2.3-1.2 3.3-1.9.3-.5.7-1 1.1-1.4.4-.4.8-.9 1.1-1.5.2-.8.3-1.5.3-2.2.1-.8.1-1.5 0-2.2zm-4.1 2.3c-.3.4-.6.8-.9 1.1-.8.9-1.9 1.3-3 1.7-.9.3-1.9.6-2.9.9-1 .2-2 .5-3 .8-.2 0-.4-.1-.6-.1-.2 0-.4-.1-.6-.2.4-1 .8-1.8 1.4-2.7.6-.8 1.3-1.5 2-2.1.8-.8 1.6-1.5 2.5-2.1.9-.6 1.8-1.3 2.7-1.9h.3c0-.1.1-.1.3-.1.3.1.5.3.8.5.2.3.5.5.7.8.2.3.4.6.5 1s.3.6.4.9c-.2.7-.4 1.1-.6 1.5z"/></clipPath><clipPath id="alphabet_q_1"><path d="M17.2 26.8c0-.1.1-.2.2-.2-.2 0-.3 0-.3-.1.1-.1.1-.2 0-.4 0-.2-.1-.3-.2-.5s-.1-.3-.2-.5-.1-.3-.1-.4l-.5-1c-.3-.6-.7-1.1-1-1.7-.5-.7-1.1-1.4-1.6-2-.3-.3-.5-.7-.8-1-.2-.3-.5-.6-.9-.9-.3-.1-.7-.1-1.1-.1s-.7 0-1-.1c-.2 0-.4.1-.5.2-.1 0-.2.1-.2.2-.1.1-.1.3-.2.4 0 .1-.1.3-.2.4.2.4.5.9.8 1.3.3.5.7.9 1.1 1.4.4.8.9 1.5 1.4 2.3.3.5.7 1 .9 1.6l.9 2.2c.3.3.5.5.7.6.2.2.5.3.8.5.3 0 .6-.1.8-.2.3-.2.5-.3.7-.5.2-.2.3-.4.5-.7.1-.2.2-.4.2-.6-.1-.1-.2-.1-.2-.2z"/></clipPath><clipPath id="alphabet_question_0"><path d="M6.2 23.1c0 .3-.1.5-.1.7v.9c0 .2.1.5.2.8l.1.5h-.5c-.1 0-.3.1-.5.3-.2.2-.4.3-.6.4-.3.1-.6.3-.8.5-.3.2-.5.3-.8.3-.3-.2-.5-.3-.6-.4-.1-.1-.2-.2-.4-.2-.1-.2-.2-.4-.3-.5-.1-.2-.2-.4-.3-.5-.1-.1-.1-.2-.1-.3v-.1h-.1l-.2-.2-.2-.4v-.5c0-.2.1-.3.1-.4 0-.1 0-.1.1-.2v-.2l-.2-.3.2-.3c.1-.2.2-.4.3-.5.1-.1.1-.2.2-.3L2 22c.5 0 1-.1 1.3-.2.3.1.6.1.7.2.1.1.2.1.3.2.2.2.4.2.5.2h.6l-.1.5.9.2z"/></clipPath><clipPath id="alphabet_question_1"><path d="M17.7 5.7c.2.2.3.3.4.5.1.2.3.3.5.4-.1.5-.1 1-.1 1.4 0 .5.1.9.1 1.5-.3 1.5-.9 2.7-1.9 3.7-1 .9-2.1 1.5-3.3 1.9 0 .2-.1.3-.2.4-.4.1-.7.2-.9.3s-.4.3-.6.5c-.2.2-.4.3-.6.5-.2.2-.6.3-1.1.3-.1.2-.2.4-.4.4-.2.1-.3.1-.5.1s-.3.1-.5.2-.3.2-.4.5l-1.7 1.6c-.5-.1-.9-.2-1.3-.2h-.9c-.2 0-.4-.2-.6-.4-.1-.2-.2-.6-.3-1.1 0-.2.1-.3.2-.4s.4-.3.4-.4c0-.4.1-.8.2-1s.3-.4.5-.5c.2-.1.4-.3.6-.5.2-.2.4-.4.6-.8.3-.1.7-.4 1.1-.7.4-.3.7-.6 1.1-.9.5-.3.9-.5 1.3-.7.4-.2.7-.4 1-.6.3-.2.6-.4.9-.7.3-.2.7-.5 1.1-.9-.1-.3-.3-.4-.6-.4h-.9c-.6-.2-1.2-.3-1.7-.3s-1.3-.1-2-.2c-.3 0-.5 0-.6.1s-.3 0-.6 0c-.1.1-.3.2-.4.2-.2.1-.3.1-.5.2-.2 0-.4.1-.5.1-.2.1-.3.1-.5.2-.4-.1-.7-.3-1-.6-.2-.2-.5-.4-.8-.6 0-.1 0-.2.1-.3.1 0 .1-.2.1-.4-.2 0-.3-.1-.3-.2s-.1-.1-.2-.2c0-.3.2-.6.3-.9.2-.2.3-.5.5-.7.2-.1.4-.3.6-.5.2-.2.3-.4.5-.7.3-.1.6-.2.8-.4.2-.2.5-.4.7-.6 1.1-.1 2.1-.2 3.2-.1s2 .2 3.1.3c1 .2 2 .4 3 .7.9.3 2 .6 3 .9z"/></clipPath><clipPath id="alphabet_r_0"><path d="M16.6 26.8c-.1 0-.1 0-.1-.1.1-.1.2-.3.2-.6v-.7c0-.3-.1-.5-.3-.8-.1-.3-.3-.5-.5-.6-.5 0-.8-.1-1.1-.1-.3 0-.5-.1-.7-.1-.2 0-.5-.1-.8-.2-.3-.1-.7-.2-1.2-.3s-.9-.2-1.2-.3c-.3-.1-.6-.2-.8-.3s-.5-.3-.8-.5c-.3-.2-.7-.4-1.1-.7 0-.1 0-.2-.1-.2s-.1 0-.1-.1c.7-.3 1.4-.5 2.2-.8s1.6-.5 2.3-.9c.7-.4 1.3-.8 1.9-1.3.5-.5.8-1.3.9-2.1v-.3c0-.1 0-.2-.1-.2v-.2s0-.2.1-.3c-.2-.3-.3-.6-.4-1s-.2-.7-.4-1c-.1-.3-.3-.6-.4-.9-.2-.3-.3-.5-.6-.8V11c-.2-.1-.3-.2-.4-.3-.1-.1-.2-.2-.4-.3-.3-.5-.7-.9-1.2-1.2-.6-.2-1.1-.5-1.5-.8-.8 0-1.4.3-1.9.7s-1 .9-1.4 1.4c-.4.5-.8 1.1-1.2 1.7-.4.5-.9 1.1-1.4 1.5-.5 1.3 0 2.6 1.1 3.6.6.5.6.2 0 .7-1.3 1.2-2.1 2.5-1.4 4.3.2.7.7 1.1 1.1 1.6.4.3.7.6 1 .9.3.2.6.5.9.7.3.2.7.4 1.2.6.5.2 1 .5 1.8.7 1.4.6 2.6.9 3.6 1.2.9.2 1.7.2 2.4 0 .2 0 .3-.1.4-.2l.3-.3c.1-.1.2-.2.2-.4l.3-.3h-.4zm-10-9.5c.1-.4.2-.8.4-1.2.2-.3.4-.6.7-.9l.8-.8c.3-.3.5-.6.7-.9.4.1.7.4 1.1.8.4.4.6.9.6 1.5-.7.3-1.4.6-2.2.9-.7.3-1.4.5-2.1.6z"/></clipPath><clipPath id="alphabet_r_1"><path d="M4.9 23.9c.4-1.7.8-3.5.8-5.2 0-2-.8-3.4-1.6-5-.1-.1-.2-.3-.5-.3s-.6-.2-.8-.1c-.2.4-.4.9-.5 1.4-.1.5-.2 1.1-.3 1.6-.1.5-.2 1.1-.4 1.6-.1.6-.3 1.1-.5 1.6v.9c0 .2 0 .3-.1.4 0 .1-.1.1-.2 0 .2.3.2.6.1.9-.1.3-.1.6-.2.8-.1.3-.2.6-.2.9-.1.3-.1.7-.2 1 .1.1.2.3.2.4s.1.2.2.2c0 .1-.1.3 0 .3 0 .1 0 .2.1.3 0 .1.1.2.1.3v.4c.2 0 .4 0 .4.2s.1.3.1.5c.2 0 .3 0 .4.1.1 0 .2.1.2.2.1.1.1.1.2.1h.4l.3-.3c.2-.1.4-.1.6-.1.3-.4.6-.9.8-1.3.2-.4.3-1 .6-1.8z"/></clipPath><clipPath id="alphabet_right_b_0"><path d="M13.5 1.3c.3 0 .5.1.6.2.1.1.2.3.2.4 0 .2.1.4 0 .5V3c-.2.8-.4 1.8-.7 2.9-.2 1.1-.5 2.2-.8 3.4l-.9 3.6c-.3 1.2-.6 2.3-.9 3.4s-.5 2-.7 2.7c-.2.8-.3 1.3-.3 1.6-.3 1-.6 1.9-.8 2.6-.2.7-.4 1.4-.6 2-.2.6-.4 1.3-.6 2-.2.7-.5 1.5-.8 2.4 0 .2-.1.5-.3.7-.2.3-.3.5-.4.7-.2 0-.4 0-.5.1-.2.1-.3.3-.4.4-.6-.1-1.1-.1-1.7 0-.5.1-1 .1-1.5.2-.1 0-.1 0-.1.1s0 .1-.1.2c-.6-.2-1.2-.3-1.8-.2s-1.3.1-1.9.3c-.6.1-1.3.3-2 .5s-1.4.3-2.1.3c-.3-.2-.5-.4-.6-.7-.2-.3-.3-.6-.4-.9-.1-.3-.2-.6-.3-1-.1-.3-.1-.6-.2-1 0-.3.1-.5.2-.6.1-.1.2-.3.4-.4.5 0 .9-.1 1.3-.1.4-.1.7-.1 1.1-.2.3-.1.7-.1 1-.2s.7-.1 1.2-.1c.1-.1.4-.1.7-.2.4 0 .8-.1 1.3-.1s1-.1 1.5-.1h1.5c.2-.8.5-1.7.8-2.5.3-.8.5-1.6.8-2.4.2-1 .5-1.9.8-2.7.3-.8.5-1.6.8-2.4.3-.8.5-1.6.7-2.4.2-.8.4-1.6.5-2.5.2-.7.4-1.4.6-2 .2-.6.4-1.2.5-1.8.2-.6.3-1.2.5-1.9s.3-1.5.5-2.4H7.2c-.7 0-1.2 0-1.6.1-1 .2-1.7.3-2.2.4-.6.2-.9.3-1.1.4-.4 0-.6-.1-.8-.2-.2-.2-.4-.3-.5-.5-.1-.2-.2-.5-.3-.7S.5 3.3.4 3c.1-.2.1-.4 0-.8 0-.3-.1-.6-.3-.7.1 0 .2-.2.3-.4C.5.9.5.7.4.6c.3-.1.6-.2.9-.2.3 0 .6-.1 1-.1.3 0 .6-.1.9-.1.3 0 .5-.1.8-.3.9 0 1.8-.1 2.8-.2 1-.1 1.9-.1 2.7-.2.3.1.7.2 1.1.2.4 0 .8 0 1.2.1.4.1.8.2 1.1.4.3.2.5.6.6 1.1z"/></clipPath><clipPath id="alphabet_right_curly_0"><path d="M6.4 6.4c.1 0 .2-.1.2.1.1.6-.3 1-.3 1.7l.1.1c0 .1 0 .1-.1.2l.1.2c0 .2-.1.4-.2.7-.1.4-.1.9-.1 1.4.1.8.2 1.7.5 2.4.1.4.3.7.4 1.1.1.2.2.3.3.5l.1.2.1.1s.1-.1.1 0c.2.2.1.2.1.3h.2v.1c.2.1.1.1.1.2l-.1.1-.1.1v.1l-.1.1c-.4.3-.9.7-1.4 1.1-.4.5-.8 1-1 1.6-.2.6-.3 1-.4 1.5-.2 1-.4 1.9-.5 2.8-.1.8-.2 1.6-.5 2.2-.4 1-1.3 1.9-2.2 2.3.2.2-.2.7-.7 1-.2.2-.5.3-.6.5-.2.1-.2.3-.1.4h-.6c-.3 0-.3 0-.5.1-.4.1-.7.1-.7.2-.1.2-1.6 2 0 1.9l.6-.1.5-.1h-.1.5c.2 0 .4 0 .7-.1.5-.1.9-.2 1.4-.4.4.1.9 0 1.3-.3.9-.5 1.6-1.3 2.2-2 .6-.8 1-1.6 1.3-2.4.7-1.6 1-3.2 1.4-4.4 0-.2.1-.6.3-1 .1-.2.2-.4.5-.7.1-.1.2-.1.3-.2.1 0 0 0 .1-.1l.3-.1c.2-.1.4-.1.6-.2.4-.1.9-.2 1.4-.3.5-.1.8-.3 1-.5.3-.2.4-.4.5-.6l.1-.3.1-.1v-.2c.2.1.1 0 .1 0V17c0-.3.1-.5.2-.9L12.7 15c-.4-.4-.6-.7-.9-1.1-.2-.3-.4-.7-.6-1l-.2-.6c-.3-.6-.5-1.3-.5-1.8v-.8-.3c0-.2.1-.4.1-.6.1-.8.2-1.5.2-2v-.4c0-1.2-.3-2.7-1.1-4C9 1 7.7.2 6.8-.1c-.5-.1-.9-.1-1.4-.2H4.1c.4.1.7.3 1 .4C4.3 0 3.6-.1 3.3 0c-1.7.3-.7.6-.1 1 .4.2-.2.4.4.6-.5 0-.7-.1-1.2 0 0 .1.3 0 .7 0 .3 0 .6 0 .4.2-.4-.1-.9 0-1.4 0 .2.1.6.1.9.1.4 0 .7.1.6.2 0 0-.3-.1-.6-.1s-.6 0-.6.1.4 0 .7 0c-1.5.1-2.2.5-.9.7-.4 0-1 0-1.5.1h.8-.8l.2.1h.6H1c.1.1.3.1.5.2.5.1 1.1.4 1.4.4 1.2 0 2.3.3 2.8.8.3.2.4.4.6.8 0 .3.1.7.1 1.2z"/></clipPath><clipPath id="alphabet_right_p_0"><path d="M11.3 9.8c0 .8-.1 1.5-.1 2.3v2c0 .2-.1.4-.1.6v1.4l-.7-.1.2.9-.3.4-.1.5c-.1 1.1-.2 2.1-.5 3-.3.9-.6 1.7-1.1 2.5l-.2.4c-.3.5-.7 1-1 1.5s-.7 1.1-1.2 1.7c-.7.8-1.3 1.4-1.9 1.9-.5.5-1.1 1-1.6 1.3l-.3.3c-.4.4-.7.7-1 .9-.3.2-.5.5-.7.7-.2.2-.4.4-.6.5-.2.2-.4.3-.5.4-.3-.2-.6-.3-.8-.2-.4.3-.6.3-.8.4-.2-.2-.4-.5-.4-.6s0-.4.1-.7c.1-.3.1-.6.2-.9 0-.3 0-.7-.2-1.1.1-.2.2-.4.3-.7.1-.2.1-.5.2-.7.1-.2.2-.4.2-.5.1-.1.1-.2.2-.3.1-.1.2-.1.2-.2l.3-.3c.4-.2.9-.5 1.4-.9s.9-.8 1.3-1.3.8-1 1.1-1.4.5-1 .7-1.4l.2-.5L5 20v-.8c.5-.9.9-2.1 1.2-3.5.2-.7.3-1.5.3-2.4 0-.8 0-1.7-.1-2.5S6.2 9.1 6 8.4s-.4-1.5-.6-2.2c0-.1.1-.2.1-.5 0-.2.1-.5.1-.7 0-.3 0-.5.1-.7v-.5l-.2-.3c-.1-.1-.2-.2-.2-.3 0-.1 0-.2-.1-.3 0-.5.1-1 .4-1.4.4.1.8.2 1.1.3.4.1.7.3 1 .4.3.5.5.9.8 1.2.2.3.5.6.7.9.2.2.4.5.7.7.2.3.4.6.6 1 .1.7.2 1.3.3 1.8.1.5.3 1.1.4 1.7l.1.3z"/></clipPath><clipPath id="alphabet_s_0"><path d="M-.5 13.4c.1-.4.4-.8.7-1.1.3-.3.7-.6 1-.8.4-.2.8-.4 1.2-.5.4-.1.8-.3 1.1-.4.8-.3 1.7-.7 2.6-1 .9-.2 1.8-.5 2.8-.7s1.9-.4 2.9-.5c1-.1 2.1.1 3.2.4 0 .2.1.4.3.5.1.2.2.4.4.5.1.2.2.4.3.5.1.2.2.3.2.5.2.2.4.4.5.6.1.2.1.5.1.8-.2.2-.4.3-.6.4l-.6.3c-.8.1-1.6 0-2.4.1-.8.1-1.4.1-2.1.2-.2-.2-.4-.3-.6-.3s-.5 0-.8.1c-.3.1-.5.2-.8.2-.3.1-.5.1-.8.1-.2.2-.4.3-.7.3-.3.1-.6.1-1 .1 0 .1 0 .2.1.2s.1.1 0 .2c.1.1.3.2.5.3.2.1.4.1.6.2.2.1.4.1.6.2.2.1.3.2.3.4.3 0 .6.1.8.2.2.1.4.3.5.5l.3.6c.1.2.1.4.1.6.1.2.1.2.2.2s.2 0 .3.1c.1.3.2.5.5.8l.6.9c0 .5.1 1 .1 1.3s-.1.8-.2 1.2c-.3.7-.7 1.4-1.3 2-.5.6-1.1 1.1-1.8 1.6s-1.4.8-2.2 1.2c-.8.3-1.5.6-2.2.8H4c-.1 0-.1 0-.1-.2-.2.1-.3.2-.5.3-.2 0-.4.1-.6 0H1.5l-.4-.4c-.1-.1-.2-.3-.3-.5-.1 0-.1 0-.1-.2 0-.1 0-.2-.1-.2.1-.2.2-.3.2-.3s0-.1-.1-.1-.1 0-.1-.1c0 0-.1-.1 0-.1.1-.2.1-.3.1-.6 0-.2 0-.4-.1-.6v-.6c0-.2.2-.4.4-.5.7.1 1.3.1 1.9-.1.6-.1 1.2-.3 1.7-.6s1.1-.5 1.6-.8c.5-.3 1-.5 1.5-.8.1-.2.1-.3.3-.5l.3-.3.3-.3c.1-.1.2-.3.2-.5 0-.1 0-.2-.1-.3-.1 0-.1-.1-.1-.2l-.3.3c-.4-.2-.8-.4-1.3-.6s-.9-.3-1.2-.5c-.3.1-.5.2-.7.1-.2-.1-.4-.1-.7-.2-.7 0-1.3-.1-2-.2-.6-.1-1.2-.3-1.8-.5 0-.1-.1-.2-.2-.3-.1-.1-.2-.1-.3-.1-.1-.2-.2-.3-.4-.5-.1-.2-.2-.3-.3-.5 0-.2.1-.4.1-.6 0-.2 0-.3-.2-.5.1-.3.1-.5.2-.6v-.6z"/></clipPath><clipPath id="alphabet_single_0"><path d="M7.4 9.6c0 .1-.1.2-.1.2-.1 0-.1.1-.2.2 0 .1-.1.3-.1.3 0 .1 0 .1-.1.1l-.1.1-.2.4c-.1.3-.3.6-.5.9-.1.2-.3.5-.3.8-.3.2-.6.5-1 .9s-.8.6-1.2.8c-.2-.1-.5-.2-.9-.4s-.8-.4-1.1-.6c-.4-.3-.6-.5-.8-.8s-.2-.5 0-.7c.4-.4.7-.8 1-1.4.3-.5.5-1.1.7-1.7.2-.6.4-1.2.5-1.9.2-.7.3-1.3.4-1.9.1.1.2.1.3.1.1 0 .2-.1.3-.1 0-.1.1-.2.2-.3s.1-.2.2-.2c.1.1.3.2.6.3.2.2.6.3.9.4l.9.3c.3.1.5.2.6.2.2.4.4.7.4 1 0 .3.1.6.2 1-.2.2-.3.3-.3.6 0 .2 0 .4-.1.5 0 .2-.1.3-.1.3s-.1.1-.1.3v.2c.1 0 .1 0 0 .1z"/></clipPath><clipPath id="alphabet_slash_0"><path d="M7.4 10.9c.4-.3.8-.7 1.2-1.3.4-.6.9-1.2 1.3-1.7.5-.6 1-1.1 1.4-1.5.5-.4 1-.6 1.5-.6.3.7.5 1.4.5 2.2 0 .7-.1 1.5-.2 2.4-.2.2-.4.5-.8.9-.3.4-.7.8-1.1 1.3-.4.5-.8 1-1.3 1.5s-.9 1-1.3 1.4c-.4.5-.7.9-1 1.3s-.5.7-.6.9c-.3.3-.7.7-1.1 1.3-.5.5-1 1.1-1.5 1.7l-1.5 1.8c-.5.6-.9 1.1-1.2 1.4 0 .1 0 .2.1.3.1.1.1.2.2.3-.2.2-.4.4-.4.6 0 .2-.1.3 0 .5 0 .2 0 .4.1.5v.6c-.1.1-.3.3-.3.4-.1.2-.2.3-.3.5-.1.2-.2.3-.3.4-.1.1-.3.3-.5.4-.4 0-.8-.1-1-.2-.3-.1-.6-.1-.9-.2-.3-.3-.6-.6-.7-1-.1-.4-.2-.8-.2-1.3 0-.4.1-.9.2-1.3s.2-.8.3-1.1c.2-.1.2-.2 0-.3.1-.3.2-.5.4-.7.2-.2.3-.4.3-.5.1-.2.4-.6.8-1 .4-.5.8-.9 1.3-1.5.5-.5.9-1 1.4-1.5s.8-.9 1-1.2c.1-.3.4-.7.8-1.3s.9-1 1.4-1.6c.5-.5.9-1.1 1.3-1.5.5-.6.7-1 .7-1.3z"/></clipPath><clipPath id="alphabet_star_0"><path d="M20.6 11.5c0-.1-.1-.3-.3-.3-.2-.1-.4-.1-.8-.2-.1-.4-.4-.6-.8-.8-.4-.2-.8-.3-1.3-.3-.5-.1-1-.1-1.5-.1s-1 0-1.4-.1c-2.4 0-4.8.2-7.3.2h-.8c-.3.1-.7.2-1.1.3-.4.1-.8.1-1.3.1-.4 0-.9.1-1.3.1-.5 0-.9.1-1.3.2.1.1 0 .2-.1.4s-.3.3-.4.3c.2.1.3.3.4.6 0 .3 0 .5-.2.6.1.2.3.4.4.6.1.2.2.4.4.6.2.2.4.3.6.4.3.1.6.2 1.1.2.2-.1.5-.2 1-.2.5-.1 1-.2 1.8-.3 1.6-.2 3.3-.4 4.9-.4 1.1 0 2.1-.2 3.2-.1 1.2-.1 2.3-.2 3.4-.3s1.9-.4 2.5-.7c0-.2 0-.3.1-.5.2 0 .2-.1.1-.3z"/></clipPath><clipPath id="alphabet_star_1"><path d="M17 4.9c-.2-.1-.3-.2-.5-.3-.2-.1-.3-.2-.5-.2s-.3 0-.5.1-.4.3-.6.5c-.4 0-.7 0-1.1.2-.3.2-.7.4-1 .7l-.9.9c-.3.3-.6.6-.9.8-.7 1-1.5 1.9-2.2 2.8-.8 1.2-1.4 2.4-2.2 3.6-.1.1-.1.2-.2.2l-.2.2c-.1.3-.2.6-.4.9s-.4.7-.6 1c-.2.3-.5.7-.7 1-.2.4-.4.7-.6 1 .1 0 .3.1.4.2.1.2.1.3 0 .5.4 0 .7 0 1 .1.3.1.5.2.6.4h.9c.3 0 .5 0 .8-.1.3 0 .5-.2.8-.3.3-.2.5-.4.8-.8.1-.2.2-.6.5-1 .2-.5.6-1.1 1.1-1.9 1.2-1.4 2.7-3.2 3.5-4.9 0-.1.1-.2.2-.2.1-.2.3-.4.3-.4.6-.9 1.2-1.8 1.7-2.7.2-1 .5-1.7.5-2.3z"/></clipPath><clipPath id="alphabet_star_2"><path d="M15.9 17c0-.4-.1-.8-.2-1.2-.1-.4-.3-.8-.5-1.2-.2-.4-.4-.8-.5-1.1v-.1c-.2-1.1-1.4-2.1-2-3-.5-.9-1-1.9-1.5-2.7-.1-.1-.1 0-.1-.1-.2-.1-.4-.3-.6-.5-.3-.4-.5-.7-.7-1-.2-.3-.4-.6-.6-1-.3-.3-.5-.5-.7-.8-.1.1-.3.2-.5.2s-.4 0-.5-.1c-.1.2-.2.4-.5.6-.3.2-.5.3-.7.3-.2.2-.3.5-.5.7-.2.2-.3.4-.4.6-.1.2-.1.4-.1.7 0 .3.1.6.3.9.2.1.4.3.6.6.3.3.6.7 1 1.2v.2c.7 2 2.4 3.4 3.5 5.2.6.9 1.2 1.8 1.8 2.6.6.8 1.3 1.4 1.9 1.7.2-.1.4-.2.5-.2.2-.1.3-.2.5-.3.1-.1.2-.3.2-.4 0-.2 0-.4-.1-.7.3-.4.4-.8.4-1.1z"/></clipPath><clipPath id="alphabet_t_0"><path d="M19.3 10c-.2-.3-.5-.6-.7-.8l-.3-.3c-.2-.1-.3-.2-.3-.3l-.3-.2c-.2 0-.5-.1-.7-.1h-.8c-.6 0-1.3 0-2 .1l-2.1.3c-.5.1-.9.1-1.4.2s-.9 0-1.3.1c-.7 0-1.1.1-1.7.2-.4 0-.9.1-1.3.1-.4.1-.8.1-1.2.1-.7.1-1.4.1-2.1.2-.7.1-1.3.1-2 .1H-.1l-.1.5c0 .1-.1.1-.2.2s-.1.2-.1.4c0 .3 0 .6.1.8.1.2.1.4.2.6 0 .1.1.3.1.4 0 .1.1.2.1.3l.3.4c.1 0 .2.2.5.5.2.1.4.2.5.2h1.9c.1-.1.3-.1.5-.1H4.3c.3 0 .5 0 .7-.2h1.5c1.7-.2 3.1-.4 4.7-.7.3 0 .6-.1 1-.1s.8-.1 1.2-.2c.6-.1 1.1-.2 1.7-.2.6-.1 1.1-.1 1.6-.1h.7c.1 0 .2 0 .3-.1.1 0 .2-.1.2-.1.1 0 .2-.1.3-.1h.6l.3-.4c.1 0 .2-.2.4-.4.1-.6.1-1-.2-1.3z"/></clipPath><clipPath id="alphabet_t_1"><path d="M9.5 9.1L9.4 9c-.1-.1-.3-.2-.4-.3-.2-.1-.4-.2-.8-.2l-.3.2c-.1.1-.1.3-.2.5-.2.7-.5 1.5-.7 2.2-.2.8-.2 1.5-.5 2.2 0 .1-.1.2-.1.3-.1.1-.1.3-.2.4l-.3.6c-.1.2-.2.5-.3.8l-.3.3c-.1.6-.3 1-.4 1.4s-.3.8-.5 1.2c-.3.7-.6 1.5-.8 2.3-.3.8-.4 1.8-.3 3 .1.1.1.3.2.4.1.2.1.3.1.5s.1.4.2.7.2.4.3.6v.4l.3.2c.1 0 .3.1.6.3.1.1.2.2.3.2.1 0 .2.1.4.2 0 .1.1.1.2.2h.4c.7 0 1.2-.2 1.5-.6.2-.3.3-.8.2-1.4l-.3-.3c-.2-.1-.3-.2-.4-.2-.1 0-.2-.1-.3-.2 0-.1-.1-.2-.1-.2l-.2-.2c0-.1 0-.3.1-.6 0-.1 0-.2.1-.3v-.3c.1-.1.2-.2.2-.4v-.2c0-.1 0-.2.1-.3.1-.2.2-.4.2-.7l.2-.2c0-.1.1-.2.2-.3l.1-.4c.1-.2.2-.5.3-.9.1-.3.3-.6.5-.9l.3-.9c.1-.3.3-.6.5-.9.1-.4.2-.8.4-1.1.1-.4.3-.7.4-1 .2-.3.3-.7.5-1 .1-.3.3-.8.4-1.2.1-1.5-.5-2.6-1.7-3.8z"/></clipPath><clipPath id="alphabet_u_0"><path d="M16.5 10c0 .4.1.8.2 1.1l.3.9c.1.3.2.6.3.8s.2.6.2 1c-.2.5-.3 1-.3 1.4-.1.4-.1.9-.2 1.4-.3.7-.6 1.3-.9 1.9-.3.5-.5 1-.7 1.4l-.3.3c-.1.1-.1.3-.2.4 0 .1-.1.2-.2.3s-.1.2-.2.2l-.6-.2-.1.8-.5.3-.3.3c-.4.7-.8 1.2-1.2 1.7-.4.5-.9.9-1.4 1.2-.5.4-1.1.7-1.8 1-.7.3-1.4.6-2.3 1-.3 0-.6-.1-.9-.1h-.7c-.4 0-.9 0-1.4-.1-.1-.2-.2-.3-.3-.3-.1-.1-.2-.1-.3-.1-.3-.2-.6-.4-.8-.7-.2-.3-.3-.6-.5-1l-.3-.6c-.1-.3-.2-.5-.3-.7l.5-.2-.7-.7c0-.1-.1-.1-.2-.2-.1 0-.1-.1-.2-.2v-.5C.1 20.4.1 19.1.1 18c0-1.2.2-2.2.5-3.1v-.3c.1-.4.1-.8.2-1.1.2-.2.2-.5.2-.7.1-.4.2-.9.3-1.2.3-.1.5-.2.6-.3s.3-.3.4-.5c.3 0 .5 0 .6.1.1.1.2.3.3.5.1.2.2.4.4.6.2.2.4.4.7.5 0 .2.1.3.2.5s.1.4.2.6c.2.3.3.7.4 1.1.1.4.2.7.2 1.1-.2.2-.4.7-.5 1.2-.1.5-.2 1-.2 1.5V20c0 .5.1.9.3 1.2l.2.4.5-.1c.6-.2 1.2-.3 1.6-.5.5-.2 1-.4 1.4-.7l1.2-.9 1.2-1.2c.4-.4.8-1 1.1-1.6.3-.6.6-1.2.8-1.9.2-.6.4-1.3.5-1.9s.2-1.2.2-1.8c.3-.1.5-.4.5-.7L14 10c-.1-.1-.1-.3 0-.4.1-.4.4-.7.8-.9.3.2.6.4.9.7.3.2.6.4.8.6z"/></clipPath><clipPath id="alphabet_v_0"><path d="M16.1 10.7v-.2-.3c0-.1 0-.2-.1-.2-.1-.3-.2-.5-.3-.6-.1-.1-.1-.3-.1-.3 0-.1-.1-.2-.1-.3 0-.1-.1-.2-.2-.4h-.6c-.2 0-.3-.1-.4-.1-.1 0-.2-.1-.3-.2 0-.1-.1-.1-.3-.1-1 1-1.9 1.9-2.5 2.7-.6.8-1.2 1.6-1.7 2.3L8 15.4c-.5.8-1.3 1.7-2 2.8-.1.3-.4.6-.6.9-.4.7-.7 1.4-.9 2.2-.2 1-.3 2.3.7 2.8.7.3 1.4.2 2.1-.1.2-.2.4-.3.6-.6.1-.1.3-.4.5-.6s.3-.5.4-.7c.1-.3.2-.5.2-.8.1 0 .1 0 .2-.1 0-.1.1-.1.1-.2s.1-.1.1-.2.1-.1.2-.1c.4-.8.8-1.6 1.3-2.4.5-.8 1-1.5 1.6-2.2.6-.7 1.1-1.3 1.7-2 .6-.6 1.1-1.3 1.5-1.9 0-.3 0-.6.2-.8.2-.2.3-.5.3-.8 0 .2-.1.2-.1.1z"/></clipPath><clipPath id="alphabet_v_1"><path d="M7.3 24c-.6-1.8-.9-4-1.3-5.8-.1-.4-.2-.8-.2-1.3s-.1-1-.1-1.6c0-.6-.1-1.1-.2-1.7-.1-.6-.2-1.1-.3-1.6-.2-.5-.4-1-.6-1.4-.3-.4-.6-.7-1-1 .1-.3 0-.6-.3-.9-.3-.3-.7-.5-1.1-.5-.2.1-.4.3-.6.5s-.4.3-.5.5c-.1.3-.1.6-.1 1v1.3c0 .5.1 1 .1 1.5s.1 1 .1 1.4v1.5c0 .5 0 1 .1 1.5 0 .2.1.4.2.6.1.2.1.3.1.5 0 .4 0 .8.1 1.3s.2 1 .3 1.4l.3 1.5c.1.5.2.9.3 1.4.1 0 .3.2.4.5v1c.3.1.5.2.6.5.2.3.3.5.6.6.5.4 1.1.4 1.7.2S7 26 7.3 25.2v-.6c.1-.1.1-.3 0-.6z"/></clipPath><clipPath id="alphabet_w_0"><path d="M16.3 27.4c-.7-.3-1.3-.8-1.7-1.4-.4-.6-.8-1.3-1.2-2.1-.1-.1-.1-.2-.2-.4s-.1-.2-.2-.3l-.4-.8-.2-.4-.4.3-.5.5-.3.3c-.5.5-1.1 1-1.6 1.4-.5.5-1.1.9-1.7 1.3s-1.2.7-1.9.9c-.7.2-1.4.4-2.1.4l-.7-.3c-.4-.2-.7-.4-1-.5-.3-.2-.6-.4-.9-.8-.1-.2-.2-.4-.3-.5-.1-.2-.1-.3-.2-.5-.2-.4-.4-.8-.5-1.1 0-.4-.2-.7-.3-1.1 0-.3.1-.8.2-1.5s.3-1.4.4-2.2.4-1.6.6-2.4c.2-.8.4-1.5.6-2.1.2-.5.4-1.1.6-1.7.2-.6.5-1.1.8-1.6s.6-.9.9-1.3c.3-.4.7-.6 1-.6l.3.3c.1.1.2.1.3.2.3.4.6.7.8 1 .3.3.6.6 1 .8-.1.5-.2 1.1-.4 1.7l-.6 1.8c-.2.6-.4 1.3-.6 1.8-.2.6-.4 1.1-.5 1.5-.1.3-.2.7-.3 1.1-.2.7-.4 1.8-.5 3 .2-.1.5-.2.8-.4.3-.2.6-.4.8-.6.3-.2.6-.5.9-.8.4-.4.7-.7 1-1.1.3-.3.5-.7.7-1 .2-.2.5-.6.7-1 .2-.4.5-.9.9-1.5.3-.5.6-1 1-1.6.3-.6.7-1.1 1-1.6s.7-1 1-1.4c.3-.4.6-.8.9-1l.6.6c.3.2.5.3.8.4.1.2.2.3.3.5.1.2.2.3.3.4.1.2.2.4.3.5.1.2.2.3.3.5 0 .1-.1.3-.1.5s-.1.5-.1.7c-.1.3-.1.5-.2.8-.1.3-.1.5-.2.8-.2.8-.3 1.3-.4 1.7-.1.4-.1.7-.2.9 0 .2 0 .4-.1.6v1.2c0 .2.1.4.1.6.1.2.1.4.2.5l1.2-.9c.3-.3.7-.6 1-1.1.3-.5.6-1 .9-1.6.3-.6.6-1.2.9-1.9s.6-1.4.8-2.1c.4-1.1.8-2.1 1.3-3.1.4-1 .8-1.8 1.3-2.3l1.2.9c.4.3.6.6.9.9.2.3.4.7.6 1.2.2.4.3 1 .3 1.6-.4.7-.7 1.4-1 2.2-.3.7-.6 1.5-1 2.2-.4 1-.8 1.9-1.3 2.9-.4 1-.9 1.9-1.4 2.8-.5.9-1.1 1.7-1.7 2.4-.6.7-1.4 1.4-2.2 1.9-.2-.1-.4-.1-.6-.1-.3 0-.5.1-.8.2z"/></clipPath><clipPath id="alphabet_x_0"><path d="M17.8 10.9c-.1-.3-.2-.5-.3-.8-.1-.3-.3-.5-.5-.7-.2-.2-.5-.4-.8-.6-.6.2-1.2.6-1.8 1-.6.4-1.2.8-1.8 1.3-.6.4-1.2.9-1.7 1.3-.6.4-1.1.8-1.6 1.1-.6.6-1.4 1-2.1 1.6-.6.6-1.1 1.2-1.6 1.7-.1.2-.3.4-.5.6-.2.2-.4.3-.6.5s-.3.2-.5.3c-.2.2-.3.3-.3.5l-1.1 1.1c-.4.4-.7.8-1.1 1.2-.3.4-.6.9-.8 1.4-.2.5-.4 1-.4 1.5-.2.7-.2 1.4.1 2.1.3.7.8 1.3 1.4 1.8.4-.1.7-.3.9-.4s.4-.3.6-.5c.2-.2.3-.4.3-.7s.1-.6.2-1c.6-.9 1.3-1.7 2-2.4.7-.8 1.5-1.4 2.3-2.1 1-.7 1.6-1.5 2.4-2.4.2-.3.4-.6.7-.8 1.1-.9 2-1.6 2.7-2.2s1.4-1 1.9-1.3c.6-.4 1.1-.6 1.5-.8.1-.3.2-.6.4-.8.2-.2.4-.5.5-.9-.1 0-.3-.3-.4-.6z"/></clipPath><clipPath id="alphabet_x_1"><path d="M14.2 21.7c-.2-.1-.4-.2-.5-.4-.1-.2-.3-.4-.4-.5s-.2-.4-.3-.6c-.1-.2-.3-.3-.5-.5l-.3-.6c-.1-.2-.2-.4-.4-.7s-.4-.5-.6-.8c-.4-.6-.6-1.4-.9-2.1-.3-.7-.8-1.4-1-2.1-.1-.2-.4-.5-.6-.9-.3-.4-.6-.8-1-1.2-.4-.4-.7-.8-1.1-1.1-.4-.3-.7-.6-1.1-.7 0-.1 0-.1-.1-.1s0 0-.1-.1c0 0-.1 0-.1-.1V9c-.2.1-.3.1-.5 0-.1 0-.2 0-.4-.1s-.4-.2-.6-.2c-.2-.1-.4-.1-.7-.1.1.1.1.2 0 .4 0 .1 0 .3-.1.4-.1.1-.1.3-.2.4-.1.2-.1.3-.1.5.1.4.1.7.1 1-.1.3-.2.6-.2.8.2.2.4.5.6.8.2.3.2.6.2.8 0 .1.1.1.2 0 .1 0 .2 0 .2.1.3.5.7 1 1.1 1.5.4.5.7.9.8 1.4.3.7.9 1.4 1.2 2.1.4.7.8 1.3 1.3 1.9.5.7 1.1 1.5 1.6 2.4s1 1.9 1.3 2.9l1.7 1.2c.1-.1.2-.2.4-.3.2-.1.4-.1.5-.2.1-.3.3-.6.6-.9.3-.3.5-.7.6-1.1 0-.5-.1-1-.3-1.5-.1-.4-.2-.9-.3-1.5z"/></clipPath><clipPath id="alphabet_y_0"><path d="M14.2 10.7v-.3c0-.1-.1-.3-.2-.5l-.3-.2c-.3-.2-.5-.3-.8-.5-.3-.2-.4-.4-.5-.6l-.1-.4-.3.2c-1.2.2-2.1.9-2.7 1.9l-.3.2c-.1.2-.2.3-.4.5-.2.1-.3.3-.5.5l-.7.5.1.3-1.8 2.4-.1.1-.1.1c-.1.1-.2.1-.3.2-.3.8-.6 1.5-1 2.2-.4.6-.7 1.5-1.2 2.1-.1.2-.2.4-.4.7-.2.3-.4.7-.7 1.1-.3.6-.6 1.1-.7 1.4-.1.3-.2.5-.3.7-.2.2-.4.5-.5.8-.1.3-.2.6-.3.8 0 .1-.1.2-.1.3 0 .1-.1.2-.1.3v.3c.3 1.4 1.2 2.2 2.7 2.4L3 28l.2-.2.3-.3c.1-.1.2-.3.3-.4l.1-.3s0-.1.1-.2c0-.1.1-.1.1-.2.1-.2.2-.3.3-.5.1-.2.1-.3.2-.5.7-.9 1.2-1.8 1.4-2.6.2-.2.4-.4.5-.6.1-.2.2-.4.3-.7.2-.3.3-.5.5-.7l.3-.6c.1-.2.2-.4.3-.5.1-.2.2-.3.4-.4l.2-.5c.2-.2.3-.3.3-.5s.1-.3.2-.4c.1-.2.2-.3.2-.4.1-.1.2-.3.5-.6 0-.1.1-.2.1-.3 0-.1.1-.1.1-.2l.2-.2c.1-.1.2-.2.3-.4.1-.3.2-.5.3-.5l.1-.1h.4l.1-.4c.1-.4.4-.7.8-1l.2-.2c.1-.2.2-.4.3-.5.2-.1.3-.3.5-.4.2-.2.4-.4.7-.6s.4-.6.6-1.1l-.2-.3z"/></clipPath><clipPath id="alphabet_y_1"><path d="M.4 11.2c.1.2.1.5.2.7v.6l-.1.3c0 .1.1.3.2.4 0 .2 0 .5.1.7 0 .2.1.4.2.7-.1.2 0 .4 0 .5 0 .2.1.4.1.7.1.4.2.8.4 1.2.2.5.5 1 .7 1.5.3.3.6.7.7.9s.9.4 1.3 0c.3-.3.6-.8.7-1.2.3-1 .2-2 .2-3.1v-.8c0-.2-.1-.5-.1-.7s-.1-.5-.2-.7c-.1-.3-.1-.5-.1-.8l-.1-.4c-.1-.1-.1-.2-.1-.5v-.6l-.5-.3-.2-.5c-.2-.1-.4-.3-.6-.4-.2-.1-.4-.2-.7-.3-.1-.1-.3-.2-.4-.2l-.6-.3H1c-.3.2-.4.3-.5.6-.2.2-.2.4-.2.6v.7c.1.3.1.5.1.7z"/></clipPath><clipPath id="alphabet_z_0"><path d="M3.1 28.2c-.1 0-.2-.1-.3-.1l-.4-.7-.5.4c-.1-.1-.3-.2-.3-.2l-.3-.3c-.2-.2-.4-.3-.6-.5s-.3-.3-.3-.5V26H.1c-.1-.3-.1-.5-.2-.6l-.3-.3c-.1-1-.1-1.8.1-2.5s.5-1.4.9-2.2c.2-.1.5-.2.6-.3.2-.1.4-.3.5-.4.2-.1.3-.3.5-.4.2-.1.3-.2.5-.2l.3-.2c.3-.4.8-.8 1.2-1.1l1.5-.9c.4-.2.8-.5 1.3-.8l1.2-.9c.2 0 .3 0 .4-.1.1-.1.1-.2.1-.4l.1-.1s.2 0 .2-.1c.1-.1.3-.2.6-.4s.4-.3.5-.5l.7-.6h-.9c-.5 0-1 .1-1.5.1s-1 .1-1.3.1c-.3 0-.6.1-.9.1H5.1c-.6-.4-1.1-1-1.3-1.8-.3-.8-.3-1.6 0-2.3.1 0 .3-.1.4-.1-.1 0 0-.1.1-.1H4.9c.6-.1 1-.2 1.4-.2h2c.4 0 .7.1 1 .2.7 0 1.4 0 2.1-.1.7-.1 1.5 0 2.2.2.5-.2 1.1-.2 1.6-.2.5.1 1 .3 1.4.7 0 .3.1.6.3.8.2.2.3.3.6.4.2.6.2 1.1 0 1.5-.1.4-.3.8-.6 1.2s-.7.6-1.1.9-.8.5-1.2.8c-.1.2-.3.3-.4.4-.2.1-.3.2-.5.4-.7.8-1.4 1.6-2.3 2.2S9.7 19.4 8.8 20c-.6.4-1.3.8-1.9 1.3-.6.4-1.2.9-1.8 1.4l-.3.3.3.3c.2.2.5.4.8.4.2 0 .4 0 .5-.1.2 0 .3-.1.5-.2.2 0 .3-.1.4-.1.1 0 .2-.1.3-.1H8c.2-.1.3-.2.5-.2.2-.1.3-.1.5-.2.2 0 .3-.1.5-.1.1 0 .3-.1.5-.2.4 0 .9-.1 1.3-.2s.8-.3 1.2-.4c.2-.1.5-.2.7-.3.2-.1.5-.1.7-.2l.3.3c.1.1.2.1.3.2.3.2.4.3.4.5l.1.8.6-.6c.2.2.4.4.4.7 0 .3 0 .6-.1 1-.6.6-1.4 1.1-2.4 1.5s-2 .7-3.1 1.1c-.3 0-.5.1-.8.1-.2.1-.5.1-.7.2v-.5l-.7.4-.2.2c0 .1-.1.1-.1.2-.5.1-1 .2-1.3.3-.3.1-.7.1-1 .2-.3.1-.7.1-1 .2-.3 0-.6.1-1 .1h-.3s-.1 0-.2-.1z"/></clipPath><clipPath id="alphabet_z_1"><path d="M21.2 22.3c.1.1.3.2.6.3.3.1.6.3.9.4l.9.3c.3.1.5.2.6.2.2.4.3.8.4 1.1 0 .3.1.6.1 1-.1.1-.2.3-.2.5v.5c0 .2-.1.3-.1.3-.1 0-.1.1-.2.3v.4c0 .1-.1.2-.1.2-.1 0-.1.1-.2.2-.1.2-.1.4-.2.4 0 0 0 .1-.1.1l-.1.1s-.1.1-.2.3c-.1.3-.3.6-.5.9-.2.3-.3.6-.4.9-.3.2-.6.5-1 .9s-.8.6-1.2.8c-.2-.1-.5-.2-.9-.4s-.8-.4-1.1-.6c-.4-.2-.6-.5-.8-.7s-.2-.5.1-.7c.4-.4.7-.8.9-1.4.3-.5.5-1.1.7-1.7.2-.6.4-1.2.5-1.9.2-.7.3-1.3.4-1.9.1.1.2.1.2.1.1 0 .2-.1.2-.2.1-.1.2-.2.2-.3.4-.3.5-.4.6-.4z"/></clipPath></defs></svg>