<svg version="1.1" id="Layer_1" xmlns="http://www.w3.org/2000/svg" xmlns:xlink="http://www.w3.org/1999/xlink" x="0px" y="0px" viewBox="0 0 826 386" enable-background="new 0 0 826 386" xml:space="preserve"> <g> <text transform="matrix(1 0 0 1 10.3865 25.1953)" fill="#010101" font-family="'PermanentMarker'" font-size="31">how much i care how i look</text> <path d="M15.2,10.4c0.2,0.7-2.3,13.6-2.3,13.6"/> <path d="M12.9,24c0,0,1.1-4.8,6.4-5.4c4.1-0.4,5.2-2,5.3-2.6c0.1-0.6,1.1-7,1.1-7"/> <path d="M23.4,23.5c0,0,2.4-13.8,2.3-14.5"/> <path d="M41.5,9.1c0,0-14.7,9-9.7,13.2c4.6,3.9,12.7-1.2,12.9-3.1c0.2-1.9-1.8-6.8-4.3-8.9"/> <path d="M62.3,11.8C58.6,21.6,51.2,24.6,50.6,23c-0.6-1.6,2-12.2,2.7-12.7"/> <path d="M62.3,11.8c-0.9,3.3-0.7,12.4,2.5,11.6c3.8-0.9,6.1-11.9,7.5-12.8"/> <path d="M86.8,23.8c-0.2-1.2,4.8-15.5,6.6-14.9c2.2,0.7-0.6,7.8,3.4,8.2c3.9,0.4,8.6-7.7,9.8-7.4c1.6,0.4-1.2,12.3-1.8,13.7"/> <path d="M114.5,11.8c-0.4,0.5-2.7,9.4,2.6,11.2c3.8,1.3,10.5-9,9.6-13.3"/> <path d="M141.4,9.8c-9.1,0.7-17.8,14.4-0.4,13.2"/> <path d="M149.2,10.4c0.2,0.7-2.3,13.6-2.3,13.6"/> <path d="M146.9,24c0,0,1.1-4.8,6.4-5.4c4.1-0.4,5.2-2,5.3-2.6c0.1-0.6,1.1-7,1.1-7"/> <path d="M157.4,23.5c0,0,2.4-13.8,2.3-14.5"/> <path d="M179.6,9.7c-0.4,0.5-2.5,11.2-1.2,14.6"/> <path d="M207.4,9.8c-9.1,0.7-17.8,14.4-0.4,13.2"/> <path d="M212.3,22.8c0,0,4.3-11.2,8.8-13.6c0,0,5.6,12.6,2,14.5"/> <path d="M217.8,19.5c0,0,4.9-0.1,9-2.1"/> <path d="M233.1,13.3c0.1,0.6-1.8,10-1.8,10"/> <path d="M243.8,23.9c-5.9,0.2-9.5-5.3-9.5-5.3s6.9-2.1,7.7-3.6c0.9-1.7-1.5-5.5-2.9-5.9c-1.4-0.4-5.2,5.3-5.2,5.3"/> <path d="M258.1,22.2c0,0-9.3,3.2-10.4,0.3c-1.1-2.9,3.6-9.2,2.8-10.6"/> <path d="M259.8,8.6c0,0-10.8,1.4-11,2.6"/> <path d="M249.2,16.1c0,0,6.6,0.2,7.3-0.4"/> <path d="M278.2,10.4c0.2,0.7-2.3,13.6-2.3,13.6"/> <path d="M275.9,24c0,0,1.1-4.8,6.4-5.4c4.1-0.4,5.2-2,5.3-2.6c0.1-0.6,1.1-7,1.1-7"/> <path d="M286.4,23.5c0,0,2.4-13.8,2.3-14.5"/> <path d="M304.5,9.1c0,0-14.7,9-9.7,13.2c4.6,3.9,12.7-1.2,12.9-3.1c0.2-1.9-1.8-6.8-4.3-8.9"/> <path d="M326.3,10.8c-3.8,9.8-11.1,12.8-11.7,11.2c-0.6-1.6,2-12.2,2.7-12.7"/> <path d="M326.3,10.8c-0.9,3.3-0.7,12.4,2.5,11.6c3.8-0.9,6.1-11.9,7.5-12.8"/> <path d="M354.6,9.7c-0.4,0.5-2.5,11.2-1.2,14.6"/> <path d="M375.7,8.9c0.5,1.3-4.7,12.2-3.8,13.8c0.9,1.5,9.1-1.7,11.4,0"/> <path d="M399.5,8.1c0,0-14.7,9-9.7,13.2c4.6,3.9,12.7-1.2,12.9-3.1c0.2-1.9-1.8-6.8-4.3-8.9"/> <path d="M418.5,9.1c0,0-14.7,9-9.7,13.2c4.6,3.9,12.7-1.2,12.9-3.1c0.2-1.9-1.8-6.8-4.3-8.9"/> <path d="M428,23.8c0,0,3.6-14.1,4.3-14.6"/> <path d="M442.2,10.4C434.5,14,428,23.8,428,23.8"/> <path d="M434.2,16.9c0,0,2.5,5.8,10.2,5"/> <polyline stroke-width="7" points="11.2,61.3 33.7,39.3 56.2,61.3 	"/> <line stroke-width="7" x1="33.5" y1="39" x2="33.5" y2="369"/> </g> <g> <line stroke-width="7" x1="10" y1="203.5" x2="819" y2="203.5"/> <polyline stroke-width="7" points="797.3,181.3 819.3,203.8 797.3,226.3 	"/> <text transform="matrix(1 0 0 1 508.2527 163.2657)" fill="#010101" font-family="'PermanentMarker'" font-size="31">how fat i think i am</text> <path d="M515.2,148.4c0.2,0.7-2.3,13.6-2.3,13.6"/> <path d="M512.9,162c0,0,1.1-4.8,6.4-5.4c4.1-0.4,5.2-2,5.3-2.6c0.1-0.6,1.1-7,1.1-7"/> <path d="M523.4,161.5c0,0,2.4-13.8,2.3-14.5"/> <path d="M540.5,147.1c0,0-14.7,9-9.7,13.2c4.6,3.9,12.7-1.2,12.9-3.1c0.2-1.9-1.8-6.8-4.3-8.9"/> <path d="M562.3,149.8c-3.8,9.8-11.1,12.8-11.7,11.2c-0.6-1.6,2-12.2,2.7-12.7"/> <path d="M562.3,149.8c-0.9,3.3-0.7,12.4,2.5,11.6c3.8-0.9,6.1-11.9,7.5-12.8"/> <path d="M588.1,162.6c-0.9-0.9,2.8-14.1,2.8-14.1"/> <path d="M601,146.6c-2.7-0.9-13.1,2.6-13.1,2.6"/> <path d="M585.5,155.5c0.4,0.6,11.6-0.3,11.6-0.3"/> <path d="M600.3,160.8c0,0,4.3-11.2,8.8-13.6c0,0,5.6,12.6,2,14.5"/> <path d="M605.8,157.5c0,0,4.9-0.1,9-2.1"/> <path d="M617,148.2c0.6,0.3,14.7-2.4,16.3-1.8"/> <path d="M624.3,146.8c1.6,2.4-5.9,12.8-2.3,15.9"/> <path d="M646.6,147.7c-0.4,0.5-2.5,11.2-1.2,14.6"/> <path d="M665,148.2c0.6,0.3,14.7-2.4,16.3-1.8"/> <path d="M672.3,146.8c1.6,2.4-5.9,12.8-2.3,15.9"/> <path d="M682.2,148.4c0.2,0.7-2.3,13.6-2.3,13.6"/> <path d="M679.9,162c0,0,1.1-4.8,6.4-5.4c4.1-0.4,5.2-2,5.3-2.6c0.1-0.6,1.1-7,1.1-7"/> <path d="M690.4,161.5c0,0,2.4-13.8,2.3-14.5"/> <path d="M701.6,146.7c-0.4,0.5-2.5,11.2-1.2,14.6"/> <path d="M707.3,160.9c-0.2-0.9,5.3-13.4,5.3-13.4"/> <path d="M712.6,147.5c-0.8,2,0,14.6,3.8,12.9c3.5-1.6,3.5-12.4,4.5-13"/> <path d="M725,160.8c0,0,3.6-14.1,4.3-14.6"/> <path d="M739.2,147.4c-7.7,3.6-14.2,13.4-14.2,13.4"/> <path d="M731.2,153.9c0,0,2.5,5.8,10.2,5"/> <path d="M759.6,147.7c-0.4,0.5-2.5,11.2-1.2,14.6"/> <path d="M778.3,160.8c0,0,4.3-11.2,8.8-13.6c0,0,5.6,12.6,2,14.5"/> <path d="M783.8,157.5c0,0,4.9-0.1,9-2.1"/> <path d="M794.8,161.8c-0.2-1.2,4.8-15.5,6.6-14.9c2.2,0.7-0.6,7.8,3.4,8.2c3.9,0.4,8.6-7.7,9.8-7.4c1.6,0.4-1.2,12.3-1.8,13.7"/> </g> <path data-type="main" stroke="#046937" stroke-width="7" d="M36.7,159.3c34.5-3,54,3,84,16.5c25.5,12,66,19.5,93,7.5c28.5-13.5,55.5-43.5,75-66c21-24,34.5-58.5,58.5-78c46.5,69,36,172.5,105,229.5c36,30,91.5,42,136.5,52.5c64.5,15,127.5,37.5,192,51c12,1.5,22.5,6,34.5,6"/> <g> <path stroke-width="7" d="M363.9,46.2c6.7-1.9,13.9-0.6,20.4,2c6.5,2.6,12.4,6.3,18.5,9.6c25.6,13.6,55.7,18.5,84.2,13.5"/> <text transform="matrix(1 0 0 1 499.1912 70.2598)" fill="#010101" font-family="'PermanentMarker'" font-size="31">fuck it</text> <path d="M502.1,69.6c-0.9-0.9,2.8-14.1,2.8-14.1"/> <path d="M515,53.6c-2.7-0.9-13.1,2.6-13.1,2.6"/> <path d="M499.5,62.5c0.4,0.6,11.6-0.3,11.6-0.3"/> <path d="M517.5,56.8c-0.4,0.5-2.7,9.4,2.6,11.2c3.8,1.3,10.5-9,9.6-13.3"/> <path d="M543.4,54.8c-9.1,0.7-17.8,14.4-0.4,13.2"/> <path d="M550,68.8c0,0,3.6-14.1,4.3-14.6"/> <path d="M564.2,55.4C556.5,59,550,68.8,550,68.8"/> <path d="M556.2,61.9c0,0,2.5,5.8,10.2,5"/> <path d="M584.6,53.7c-0.4,0.5-2.5,11.2-1.2,14.6"/> <path d="M590,54.2c0.6,0.3,14.7-2.4,16.3-1.8"/> <path d="M597.3,52.8c1.6,2.4-5.9,12.8-2.3,15.9"/> </g> <path data-type="erase" stroke="transparent" stroke-width="120" stroke-linecap="square" d="M40.7-12.6C30,34.1,18.1,80.5,5,126.6c22.1-1.3,37.7-21.5,50.1-39.8c26.6-39.3,54.3-80.2,95.2-104.5c-2.1,52.6-45.4,92.8-70.8,139C64,149.5,55,180.7,47.2,211.8c-12.7,50.9-22.6,102.5-29.6,154.5c14.1,1.3,25.1-11.5,32.5-23.5c37.3-60.2,52.6-136.2,106.4-182.3c-2,11.1-4,22.7-1.1,33.6s12,21.1,23.3,21.3c13.7,0.2,23.4-13.4,27.7-26.3c4.3-13,6-27.4,14.8-37.8c3.8-4.4,9.8-8,15.2-6c3.4,1.3,5.6,4.4,7.4,7.4c6.6,11.3,9.3,24.8,17.4,35.1s25.4,15.5,33.8,5.5c4-4.8,4.7-11.4,5.3-17.6c3.5-39.8,4.3-86.5-26.5-111.9c-10.1-8.4-22.5-13.3-34.7-18.1c-22.7-8.9-45.4-17.8-68.1-26.7c6.5-14.6,25.8-18.7,41.4-15.4s29.6,11.9,45.1,15.6c27.8,6.6,56.5-3,84.9-6.1c31.5-3.5,63.4,1.2,95.1-0.8c11.3,7.3,5,26.1-6.5,33.2c-11.4,7.1-25.9,8.5-36.8,16.4c-17.5,12.8-20.1,37.5-21.1,59.2c-0.3,7.7-0.4,16.2,4.5,22.1c5.7,6.8,16.3,7.5,24.3,3.9c8.1-3.6,14-10.6,19.5-17.5c15.3-19.7,28.2-41.4,45.6-59.2s40.7-32,65.6-31.1c-5.9,23.9-29.5,38-49.1,52.8c-21.1,15.9-39.6,35.4-54.4,57.4c-12.7,19-22.9,40.5-23.9,63.3c-1.1,24.8,9.4,49.9,27.8,66.6c29.5-42.4,54.1-88.1,73.5-136c6.6-16.3,12.9-33.4,25.1-46.1s32.3-19.8,47.8-11.4c0.1,34.2-13.9,66.5-25.3,98.7c-15.4,43.4-26.6,88.3-33.3,133.8c27.6-7.4,44.5-34.5,57.5-60c20.2-39.5,37.8-80.4,52.7-122.2c2.7-7.7,5.6-15.7,11.6-21.1c6-5.4,16.4-7,22-1.2c3.4,3.5,4.3,8.7,4.8,13.5c8.5,80.5-40.6,158.4-33.7,239c0.2,2.7,0.5,5.4,1.9,7.7c1.7,2.9,4.7,4.7,7.9,5.8c12.9,4.5,27.6-2.5,36.2-13.1c8.6-10.6,12.6-24.2,16.3-37.4c13.2-46.7,26.5-93.7,33.1-141.8c2.6-19.2,4.6-39.5,16.2-55c11.6-15.5,36.8-22.6,50.3-8.7c7.9,8.2,9.2,20.7,9.3,32.2c0.5,40.4-7.9,80.8-24.3,117.7c-12.3,27.6-29.3,54.3-30.8,84.4c17.8,7,36.8,11,55.9,11.7"/> </svg> 