<svg version="1.1" id="Layer_1" xmlns="http://www.w3.org/2000/svg" xmlns:xlink="http://www.w3.org/1999/xlink" x="0px" y="0px" viewBox="0 0 594.8 614.5" enable-background="new 0 0 594.8 614.5" xml:space="preserve">
	<g>
		<line stroke-width="7" x1="587.9" y1="318.6" x2="7.9" y2="318.6"/>
		<polyline stroke-width="7" points="565.9,296.1 587.9,318.6 565.9,341.1 "/>
		<line stroke-width="7" x1="297.9" y1="28.6" x2="297.9" y2="608.6"/>
		<polyline stroke-width="7" points="275.4,50.6 297.9,28.6 320.4,50.6 "/>
		 </g>
	<g>
		<path d="M410.4,357.3c1,3.6,0.7,6.5-0.6,12.1"/>
		<path d="M410.4,354.4c11.2,4,15.6,9.4-0.6,14.9"/>
		<path d="M427.6,355.1c-0.4,0.5-2.5,11.2-1.2,14.6"/>
		<path d="M446.5,354.4c-1.6-1-12.1,1.8-12.2,3.4c-0.1,1.6,8.4,1.7,9,5.2c0.5,2.9-6.9,6.4-8.3,5.7"/>
		<path d="M449,355.6c0.6,0.3,14.7-2.4,16.3-1.8"/>
		<path d="M456.3,354.2c1.6,2.4-5.9,12.8-2.3,15.9"/>
		<path d="M466.1,358.7c0.1,0.6-1.8,10-1.8,10"/>
		<path d="M466.8,359.8c0,0,3.8-5.7,5.2-5.3c1.4,0.4,3.8,4.2,2.9,5.9c-0.8,1.5-7.7,3.6-7.7,3.6s3.6,5.5,9.5,5.3"/>
		<path d="M480.3,368.2c0,0,4.3-11.2,8.8-13.6c0,0,5.6,12.6,2,14.5"/>
		<path d="M485.8,364.9c0,0,4.9-0.1,9-2.1"/>
		<path d="M508.4,355.2c-9.1,0.7-17.8,14.4-0.4,13.2"/>
		<path d="M514,356.6c0.6,0.3,14.7-2.4,16.3-1.8"/>
		<path d="M521.3,355.2c1.6,2.4-5.9,12.8-2.3,15.9"/>
		<path d="M533.6,355.1c-0.4,0.5-2.5,11.2-1.2,14.6"/>
		<path d="M548.5,355.5c0,0-14.7,9-9.7,13.2c4.6,3.9,12.7-1.2,12.9-3.1c0.2-1.9-1.8-6.8-4.3-8.9"/>
		<path d="M557.3,369.3c-0.2-0.9,5.3-13.4,5.3-13.4"/>
		<path d="M562.6,355.9c-0.8,2,0,14.6,3.8,12.9c3.5-1.6,3.5-12.4,4.5-13"/>
		<path d="M587.5,355.4c-1.6-1-12.1,1.8-12.2,3.4c-0.1,1.6,8.4,1.7,9,5.2c0.5,2.9-6.9,6.4-8.3,5.7"/>
	</g>
	<g>
		<path d="M254.5,8.3c0.8,1.4-3.9,7.7-2.8,10.6c1.1,2.9,10.4-0.3,10.4-0.3"/>
		<path d="M252.7,7.5c0.3-1.2,11-2.6,11-2.6"/>
		<path d="M253.2,12.5c0,0,6.6,0.2,7.3-0.4"/>
		<path d="M267.3,19.3c-0.2-0.9,5.3-13.4,5.3-13.4"/>
		<path d="M272.6,5.9c-0.8,2,0,14.6,3.8,12.9c3.5-1.6,3.5-12.4,4.5-13"/>
		<path d="M287.5,8.3c0.8,1.4-3.9,7.7-2.8,10.6c1.1,2.9,10.4-0.3,10.4-0.3"/>
		<path d="M285.7,7.5c0.3-1.2,11-2.6,11-2.6"/>
		<path d="M286.2,12.5c0,0,6.6,0.2,7.3-0.4"/>
		<path d="M302.1,9.7c0.1,0.6-1.8,10-1.8,10"/>
		<path d="M302.8,10.8c0,0,3.8-5.7,5.2-5.3c1.4,0.4,3.8,4.2,2.9,5.9c-0.8,1.5-7.7,3.6-7.7,3.6s3.6,5.5,9.5,5.3"/>
		<path d="M328.3,6.4c-1.4-0.5-14.3,9.2-11.4,12.7c2.9,3.5,17.8-0.9,16.4-2.4c-1-1.1-3.8-3.9-4.6-3.2"/>
		<path d="M338.2,6.2c-0.1,0.8,1.5,7.4,4.1,8.1"/>
		<path d="M348,5.7c-1.8,1-9.8,15.6-9.8,15.6"/>
	</g>
	<g>
		<path stroke="#FEF37E" stroke-width="7" d="M5.7,70c4.7-12.5,9.5-25.1,16.6-36.5"/>
		<path stroke="#FEF37E" stroke-width="7" d="M17.9,115.3c18.2-29.1,36.4-58.1,54.6-87.2"/>
		<path stroke="#FEF37E" stroke-width="7" d="M29.5,164.9C61.8,108.9,94.9,52,142.6,8.4"/>
		<path stroke="#FEF37E" stroke-width="7" d="M11.3,262.7c36.3-48.1,63-102.9,98.9-151.3c18.4-24.8,39.1-47.8,59.8-70.7"/>
		<path stroke="#FEF37E" stroke-width="7" d="M45.1,286.9C99.7,195.1,158.8,106,222.2,20.1"/>
		<path stroke="#FEF37E" stroke-width="7" d="M95.8,294.3c39.6-58.4,80-116.1,120.5-173.9c6.7-9.5,13.4-19.1,20-28.6c9.3-13.2,18.5-26.4,28-39.4"/>
		<path stroke="#FEF37E" stroke-width="7" d="M188.6,283.7c8.8-16.6,15.7-34.2,23.6-51.3c16.9-36.4,38.6-70.6,64.4-101.3"/>
		<path stroke="#FEF37E" stroke-width="7" d="M231.8,297.9c15.8-42.3,37.6-82.1,59.3-121.6"/>
		<path stroke="#FEF37E" stroke-width="7" d="M275.5,307.3c3.4-13.3,6.7-26.6,10.1-39.8"/>
	</g>
	<g>
		<path d="M68.3,139.2c0,0,4.3-11.2,8.8-13.6c0,0,5.6,12.6,2,14.5"/>
		<path d="M73.8,135.9c0,0,4.9-0.1,9-2.1"/>
		<path d="M89.1,129.7c0.1,0.6-1.8,10-1.8,10"/>
		<path d="M89.8,130.8c0,0,3.8-5.7,5.2-5.3c1.4,0.4,3.8,4.2,2.9,5.9c-0.8,1.5-7.7,3.6-7.7,3.6s3.6,5.5,9.5,5.3"/>
		<path d="M106.5,128.3c0.8,1.4-3.9,7.7-2.8,10.6c1.1,2.9,10.4-0.3,10.4-0.3"/>
		<path d="M104.7,127.5c0.3-1.2,11-2.6,11-2.6"/>
		<path d="M105.2,132.5c0,0,6.6,0.2,7.3-0.4"/>
		<path d="M118.3,139.2c0,0,4.3-11.2,8.8-13.6c0,0,5.6,12.6,2,14.5"/>
		<path d="M123.8,135.9c0,0,4.9-0.1,9-2.1"/>
		<path d="M153.3,126.7c-0.7,0.5-3.3,11-2.7,12.7c0.6,1.6,8-1.4,11.7-11.2"/>
		<path d="M162.4,128.2c-0.9,3.3-0.7,12.4,2.5,11.6c3.8-0.9,6.1-11.9,7.5-12.8"/>
		<path d="M177.2,126.8c0.2,0.7-2.3,13.6-2.3,13.6"/>
		<path d="M174.9,140.4c0,0,1.1-4.8,6.4-5.4c4.1-0.4,5.2-2,5.3-2.6c0.1-0.6,1.1-7,1.1-7"/>
		<path d="M187.7,125.3c0.1,0.8-2.3,14.5-2.3,14.5"/>
		<path d="M195.5,128.3c0.8,1.4-3.9,7.7-2.8,10.6c1.1,2.9,10.4-0.3,10.4-0.3"/>
		<path d="M193.7,127.5c0.3-1.2,11-2.6,11-2.6"/>
		<path d="M194.2,132.5c0,0,6.6,0.2,7.3-0.4"/>
		<path d="M210.1,129.7c0.1,0.6-1.8,10-1.8,10"/>
		<path d="M210.8,130.8c0,0,3.8-5.7,5.2-5.3c1.4,0.4,3.8,4.2,2.9,5.9c-0.8,1.5-7.7,3.6-7.7,3.6s3.6,5.5,9.5,5.3"/>
		<path d="M228.5,128.3c0.8,1.4-3.9,7.7-2.8,10.6c1.1,2.9,10.4-0.3,10.4-0.3"/>
		<path d="M226.7,127.5c0.3-1.2,11-2.6,11-2.6"/>
		<path d="M227.2,132.5c0,0,6.6,0.2,7.3-0.4"/>
		<path d="M30.3,163.7c-0.7,0.5-3.3,11-2.7,12.7c0.6,1.6,8-1.4,11.7-11.2"/>
		<path d="M39.4,165.2c-0.9,3.3-0.7,12.4,2.5,11.6c3.8-0.9,6.1-11.9,7.5-12.8"/>
		<path d="M62.5,163.5c0,0-14.7,9-9.7,13.2c4.6,3.9,12.7-1.2,12.9-3.1c0.2-1.9-1.8-6.8-4.3-8.9"/>
		<path d="M73.1,166.7c0.1,0.6-1.8,10-1.8,10"/>
		<path d="M73.8,167.8c0,0,3.8-5.7,5.2-5.3c1.4,0.4,3.8,4.2,2.9,5.9c-0.8,1.5-7.7,3.6-7.7,3.6s3.6,5.5,9.5,5.3"/>
		<path d="M92.3,162.6c-0.6,0.5-4.3,14.6-4.3,14.6"/>
		<path d="M88,177.2c0,0,6.5-9.8,14.2-13.4"/>
		<path d="M94.2,170.3c0,0,2.5,5.8,10.2,5"/>
		<path d="M123.6,163.1c-0.4,0.5-2.5,11.2-1.2,14.6"/>
		<path d="M141.5,162.4c-1.6-1-12.1,1.8-12.2,3.4c-0.1,1.6,8.4,1.7,9,5.2c0.5,2.9-6.9,6.4-8.3,5.7"/>
		<path d="M154.3,176.2c0,0,4.3-11.2,8.8-13.6c0,0,5.6,12.6,2,14.5"/>
		<path d="M159.8,172.9c0,0,4.9-0.1,9-2.1"/>
		<path d="M184.4,163.2c-9.1,0.7-17.8,14.4-0.4,13.2"/>
		<path d="M189,163.6c0.6,0.3,14.7-2.4,16.3-1.8"/>
		<path d="M196.3,162.2c1.6,2.4-5.9,12.8-2.3,15.9"/>
		<path d="M206.5,165.2c-0.4,0.5-2.7,9.4,2.6,11.2c3.8,1.3,10.5-9,9.6-13.3"/>
		<path d="M220.3,177.2c0,0,4.3-11.2,8.8-13.6c0,0,5.6,12.6,2,14.5"/>
		<path d="M225.8,173.9c0,0,4.9-0.1,9-2.1"/>
		<path d="M243.7,162.3c0.5,1.3-4.7,12.2-3.8,13.8c0.9,1.5,9.1-1.7,11.4,0"/>
		<path d="M259.7,162.3c0.5,1.3-4.7,12.2-3.8,13.8c0.9,1.5,9.1-1.7,11.4,0"/>
		<path d="M272.2,162.2c-0.1,0.8,1.5,7.4,4.1,8.1"/>
		<path d="M282,161.7c-1.8,1-9.8,15.6-9.8,15.6"/>
		<path d="M93.6,214.5c0.5-1.2,2.4-13.5,3.9-14.6c2.3-1.6,12.6,1.3,6,5.8c-5,3.3-10.5,0.2-10.5,0.2"/>
		<path d="M119.5,199.5c0,0-14.7,9-9.7,13.2c4.6,3.9,12.7-1.2,12.9-3.1c0.2-1.9-1.8-6.8-4.3-8.9"/>
		<path d="M139.5,199.4c-1.6-1-12.1,1.8-12.2,3.4c-0.1,1.6,8.4,1.7,9,5.2c0.5,2.9-6.9,6.4-8.3,5.7"/>
		<path d="M154.5,199.4c-1.6-1-12.1,1.8-12.2,3.4c-0.1,1.6,8.4,1.7,9,5.2c0.5,2.9-6.9,6.4-8.3,5.7"/>
		<path d="M160.6,200.1c-0.4,0.5-2.5,11.2-1.2,14.6"/>
		<path d="M169.6,203.9c-0.2,3.9-2.6,10.2-2.6,10.2"/>
		<path d="M165.5,200.9c0.6-0.5,11.2-4.4,11.8-0.5c0.6,3.9-6.2,5.9-6.2,5.9s8.5-0.2,7.7,3.4c-0.8,4.1-9.3,4.4-9.3,4.4"/>
		<path d="M188.7,199.3c0.5,1.3-4.7,12.2-3.8,13.8c0.9,1.5,9.1-1.7,11.4,0"/>
		<path d="M204.5,203.3c0.8,1.4-3.9,7.7-2.8,10.6c1.1,2.9,10.4-0.3,10.4-0.3"/>
		<path d="M202.7,202.5c0.3-1.2,11-2.6,11-2.6"/>
		<path d="M203.2,207.5c0,0,6.6,0.2,7.3-0.4"/>
	</g>
	<g>
		<path stroke="#95CE8B" d="M372.3,68.2c1.6,2.4-5.9,12.8-2.3,15.9"/>
		<path stroke="#95CE8B" d="M365,69.6c0.6,0.3,14.7-2.4,16.3-1.8"/>
		<path stroke="#95CE8B" d="M383.6,68.1c-0.4,0.5-2.5,11.2-1.2,14.6"/>
		<path stroke="#95CE8B" d="M388.8,83.2c-0.2-1.2,4.8-15.5,6.6-14.9c2.2,0.7-0.6,7.8,3.4,8.2c3.9,0.4,8.6-7.7,9.8-7.4c1.6,0.4-1.2,12.3-1.8,13.7"/>
		<path stroke="#95CE8B" d="M417.5,71.3c0.8,1.4-3.9,7.7-2.8,10.6c1.1,2.9,10.4-0.3,10.4-0.3"/>
		<path stroke="#95CE8B" d="M415.7,70.5c0.3-1.2,11-2.6,11-2.6"/>
		<path stroke="#95CE8B" d="M416.2,75.5c0,0,6.6,0.2,7.3-0.4"/>
		<path stroke="#95CE8B" d="M453.5,67.5c0,0-14.7,9-9.7,13.2c4.6,3.9,12.7-1.2,12.9-3.1c0.2-1.9-1.8-6.8-4.3-8.9"/>
		<path stroke="#95CE8B" d="M465.9,68.9c0,0-3.7,13.3-2.8,14.1"/>
		<path stroke="#95CE8B" d="M462.9,69.5c0,0,10.4-3.4,13.1-2.6"/>
		<path stroke="#95CE8B" d="M460.5,75.9c0.4,0.6,11.6-0.3,11.6-0.3"/>
		<path stroke="#95CE8B" d="M494.3,68.2c1.6,2.4-5.9,12.8-2.3,15.9"/>
		<path stroke="#95CE8B" d="M487,69.6c0.6,0.3,14.7-2.4,16.3-1.8"/>
		<path stroke="#95CE8B" d="M505.2,68.8c0.2,0.7-2.3,13.6-2.3,13.6"/>
		<path stroke="#95CE8B" d="M502.9,82.4c0,0,1.1-4.8,6.4-5.4c4.1-0.4,5.2-2,5.3-2.6c0.1-0.6,1.1-7,1.1-7"/>
		<path stroke="#95CE8B" d="M515.7,67.3c0.1,0.8-2.3,14.5-2.3,14.5"/>
		<path stroke="#95CE8B" d="M523.5,71.3c0.8,1.4-3.9,7.7-2.8,10.6c1.1,2.9,10.4-0.3,10.4-0.3"/>
		<path stroke="#95CE8B" d="M521.7,70.5c0.3-1.2,11-2.6,11-2.6"/>
		<path stroke="#95CE8B" d="M522.2,75.5c0,0,6.6,0.2,7.3-0.4"/>
		<path stroke="#95CE8B" d="M549.4,71.3c1,3.6,0.7,6.5-0.6,12.1"/>
		<path stroke="#95CE8B" d="M549.4,68.4c11.2,4,15.6,9.4-0.6,14.9"/>
		<path stroke="#95CE8B" d="M563.3,82.2c0,0,4.3-11.2,8.8-13.6c0,0,5.6,12.6,2,14.5"/>
		<path stroke="#95CE8B" d="M568.8,78.9c0,0,4.9-0.1,9-2.1"/>
		<path stroke="#95CE8B" d="M581.2,68.2c-0.1,0.8,1.5,7.4,4.1,8.1"/>
		<path stroke="#95CE8B" d="M591,67.7c-1.8,1-9.8,15.6-9.8,15.6"/>
	</g>
	<path data-type="main" stroke="#95CE8B" stroke-width="7" d="M351.4,61.9c-8.6,26.5,11,53.3,30,73.8c16.7,18.1,33.8,35.8,51.4,53.1c20.9,20.5,42.9,41.1,55.7,67.5c12.8,26.4,14.3,60.6-4.5,83c-14.6,17.4-38.2,24.7-54.3,40.7c-6.5,6.5-11.7,14.3-19.1,19.9c-6,4.5-13.1,7.2-20,10.1c-56,23.2-105.2,59.8-153.9,96c-37.8,28.1-75.6,56.3-113.4,84.4"/>
	<path data-type="erase" stroke="transparent" stroke-width="120" stroke-linejoin="bevel" d="M52.7-16.9C6.2,19.3-27.6,71.4-41.7,128.5c19.5,7.6,38.7-10.3,52.5-26.1C52.9,54.4,100.3,11,151.9-26.6c4.6,20.2-4,40.8-13.2,59.4c-23.3,47-51.9,91.3-85.3,131.7c-37.3,45.3-81.8,88-98,144.4C-7.6,265.2,32.7,224.6,73,184c75.5-76.1,151.2-152.3,234.2-220.1C220.9,83.2,134.6,202.4,48.3,321.7c-4.3,6-8.7,14.3-4.1,20.1c5.6,7.1,17,1.7,23.8-4.2c29.9-25.7,56.4-55.5,78.5-88.1c20.7-30.6,37.5-63.6,56.4-95.3c40.9-68.5,91.9-131,150.9-184.8c-8.7,40.9-27.3,78.9-45.2,116.7c-42.2,89.2-81.1,181-99.6,278C323.9,273,349,106.7,447.3-2.1c-21.9,119.6-76.6,231.7-94.8,352c82.8-93.9,90-235.7,167.8-333.8c5.3,27.3-6.5,54.5-14.4,81.1c-24.5,81.9-14,170-26.7,254.5C527.8,240.4,562.2,123,581.2,3c6.2,123.4,6.3,247,6.5,370.6c-131.6-6.5-264.6-12.9-394.1,11.3c58.3,26.9,125.9,17.4,190,20.5c14.7,0.7,30,2.3,42.3,10.4c4.9,3.2,9.6,8.4,9,14.2c-0.5,4.7-4.2,8.4-7.9,11.5c-38.7,32.2-91.8,38.8-141.6,46.1c-58.3,8.6-116.2,19.8-173.4,33.7c58.9-43.3,132-66.8,205-66c24.9,0.3,55.7,8.2,60.9,32.6c-32.5,16.8-68.9,24.4-105,30.5c-67.3,11.5-135.2,19-203.3,22.5c100.6,19.8,205.5,3.7,306.5,21.5c-3.9,8.9-14.6,12.2-24,14.2c-96.5,20.7-196.7,11.5-294.5-1.4"/>
</svg>