<svg version="1.1" id="Layer_1" xmlns="http://www.w3.org/2000/svg" xmlns:xlink="http://www.w3.org/1999/xlink" x="0px" y="0px" viewBox="0 0 747 388" enable-background="new 0 0 747 388" xml:space="preserve">
	<g>
		<line fill="none" stroke="#010101" stroke-width="7" stroke-linecap="round" stroke-miterlimit="10" x1="32.5" y1="382" x2="32.5" y2="49"/>
		<polyline fill="none" stroke="#010101" stroke-width="7" stroke-linecap="round" stroke-linejoin="round" stroke-miterlimit="10" points="9.5,70.9 32,48.9 54.5,70.9 	"/>
		<text transform="matrix(1 0 0 1 8.5215 26.2872)" fill="#010101" font-family="'PermanentMarker'" font-size="31">how good of a person i am</text>
		<path fill="none" stroke="#010101" stroke-width="4" stroke-linecap="round" stroke-linejoin="round" stroke-miterlimit="10" d="M13.5,11c0.2,0.7-2.3,13.6-2.3,13.6"/>
		<path fill="none" stroke="#010101" stroke-width="4" stroke-linecap="round" stroke-linejoin="round" stroke-miterlimit="10" d="M11.2,24.6c0,0,1.1-4.8,6.4-5.4c4.1-0.4,5.2-2,5.3-2.6c0.1-0.6,1.1-7,1.1-7"/>
		<path fill="none" stroke="#010101" stroke-width="4" stroke-linecap="round" stroke-linejoin="round" stroke-miterlimit="10" d="M21.8,24.1c0,0,2.4-13.8,2.3-14.5"/>
		<path fill="none" stroke="#010101" stroke-width="4" stroke-linecap="round" stroke-linejoin="round" stroke-miterlimit="10" d="M38.8,9.7c0,0-14.7,9-9.7,13.2c4.6,3.9,12.7-1.2,12.9-3.1c0.2-1.9-1.8-6.8-4.3-8.9"/>
		<path fill="none" stroke="#010101" stroke-width="4" stroke-linecap="round" stroke-linejoin="round" stroke-miterlimit="10" d="M60.7,12.4c-3.8,9.8-11.1,12.8-11.7,11.2c-0.6-1.6,2-12.2,2.7-12.7"/>
		<path fill="none" stroke="#010101" stroke-width="4" stroke-linecap="round" stroke-linejoin="round" stroke-miterlimit="10" d="M60.7,12.4C59.8,15.7,60,24.8,63.2,24c3.8-0.9,6.1-11.9,7.5-12.8"/>
		<path fill="none" stroke="#010101" stroke-width="4" stroke-linecap="round" stroke-linejoin="round" stroke-miterlimit="10" d="M97.6,9.6c-1.4-0.5-14.3,9.2-11.4,12.7c2.9,3.5,17.8-0.9,16.4-2.4c-1-1.1-3.8-3.9-4.6-3.2"/>
		<path fill="none" stroke="#010101" stroke-width="4" stroke-linecap="round" stroke-linejoin="round" stroke-miterlimit="10" d="M115.8,9.7c0,0-14.7,9-9.7,13.2c4.6,3.9,12.7-1.2,12.9-3.1c0.2-1.9-1.8-6.8-4.3-8.9"/>
		<path fill="none" stroke="#010101" stroke-width="4" stroke-linecap="round" stroke-linejoin="round" stroke-miterlimit="10" d="M135.8,9.7c0,0-14.7,9-9.7,13.2c4.6,3.9,12.7-1.2,12.9-3.1c0.2-1.9-1.8-6.8-4.3-8.9"/>
		<path fill="none" stroke="#010101" stroke-width="4" stroke-linecap="round" stroke-linejoin="round" stroke-miterlimit="10" d="M145.7,12.5c1,3.6,0.7,6.5-0.6,12.1"/>
		<path fill="none" stroke="#010101" stroke-width="4" stroke-linecap="round" stroke-linejoin="round" stroke-miterlimit="10" d="M145.1,24.6c16.1-5.5,11.7-10.9,0.6-14.9"/>
		<path fill="none" stroke="#010101" stroke-width="4" stroke-linecap="round" stroke-linejoin="round" stroke-miterlimit="10" d="M181.8,9.7c0,0-14.7,9-9.7,13.2c4.6,3.9,12.7-1.2,12.9-3.1c0.2-1.9-1.8-6.8-4.3-8.9"/>
		<path fill="none" stroke="#010101" stroke-width="4" stroke-linecap="round" stroke-linejoin="round" stroke-miterlimit="10" d="M192.4,25.2c-0.9-0.9,2.8-14.1,2.8-14.1"/>
		<path fill="none" stroke="#010101" stroke-width="4" stroke-linecap="round" stroke-linejoin="round" stroke-miterlimit="10" d="M205.3,9.2c-2.7-0.9-13.1,2.6-13.1,2.6"/>
		<path fill="none" stroke="#010101" stroke-width="4" stroke-linecap="round" stroke-linejoin="round" stroke-miterlimit="10" d="M189.8,18.1c0.4,0.6,11.6-0.3,11.6-0.3"/>
		<path fill="none" stroke="#010101" stroke-width="4" stroke-linecap="round" stroke-linejoin="round" stroke-miterlimit="10" d="M215.6,23.4c0,0,4.3-11.2,8.8-13.6c0,0,5.6,12.6,2,14.5"/>
		<path fill="none" stroke="#010101" stroke-width="4" stroke-linecap="round" stroke-linejoin="round" stroke-miterlimit="10" d="M221.1,20.1c0,0,4.9-0.1,9-2.1"/>
		<path fill="none" stroke="#010101" stroke-width="4" stroke-linecap="round" stroke-linejoin="round" stroke-miterlimit="10" d="M246.9,24.7c0.5-1.2,2.4-13.5,3.9-14.6c2.3-1.6,12.6,1.3,6,5.8c-5,3.3-10.5,0.2-10.5,0.2"/>
		<path fill="none" stroke="#010101" stroke-width="4" stroke-linecap="round" stroke-linejoin="round" stroke-miterlimit="10" d="M272.5,22.8c0,0-9.3,3.2-10.4,0.3c-1.1-2.9,3.6-9.2,2.8-10.6"/>
		<path fill="none" stroke="#010101" stroke-width="4" stroke-linecap="round" stroke-linejoin="round" stroke-miterlimit="10" d="M274.1,9.2c0,0-10.8,1.4-11,2.6"/>
		<path fill="none" stroke="#010101" stroke-width="4" stroke-linecap="round" stroke-linejoin="round" stroke-miterlimit="10" d="M263.5,16.7c0,0,6.6,0.2,7.3-0.4"/>
		<path fill="none" stroke="#010101" stroke-width="4" stroke-linecap="round" stroke-linejoin="round" stroke-miterlimit="10" d="M279.4,13.9c0.1,0.6-1.8,10-1.8,10"/>
		<path fill="none" stroke="#010101" stroke-width="4" stroke-linecap="round" stroke-linejoin="round" stroke-miterlimit="10" d="M290.1,24.5c-5.9,0.2-9.5-5.3-9.5-5.3s6.9-2.1,7.7-3.6c0.9-1.7-1.5-5.5-2.9-5.9c-1.4-0.4-5.2,5.3-5.2,5.3"/>
		<path fill="none" stroke="#010101" stroke-width="4" stroke-linecap="round" stroke-linejoin="round" stroke-miterlimit="10" d="M306.9,9.6c-1.6-1-12.1,1.8-12.2,3.4c-0.1,1.6,8.4,1.7,9,5.2c0.5,2.9-6.9,6.4-8.3,5.7"/>
		<path fill="none" stroke="#010101" stroke-width="4" stroke-linecap="round" stroke-linejoin="round" stroke-miterlimit="10" d="M318.8,9.7c0,0-14.7,9-9.7,13.2c4.6,3.9,12.7-1.2,12.9-3.1c0.2-1.9-1.8-6.8-4.3-8.9"/>
		<path fill="none" stroke="#010101" stroke-width="4" stroke-linecap="round" stroke-linejoin="round" stroke-miterlimit="10" d="M326.6,23.5c-0.2-0.9,5.3-13.4,5.3-13.4"/>
		<path fill="none" stroke="#010101" stroke-width="4" stroke-linecap="round" stroke-linejoin="round" stroke-miterlimit="10" d="M331.9,10.1c-0.8,2,0,14.6,3.8,12.9c3.5-1.6,3.5-12.4,4.5-13"/>
		<path fill="none" stroke="#010101" stroke-width="4" stroke-linecap="round" stroke-linejoin="round" stroke-miterlimit="10" d="M360.9,10.3c-0.4,0.5-2.5,11.2-1.2,14.6"/>
		<path fill="none" stroke="#010101" stroke-width="4" stroke-linecap="round" stroke-linejoin="round" stroke-miterlimit="10" d="M376.6,23.4c0,0,4.3-11.2,8.8-13.6c0,0,5.6,12.6,2,14.5"/>
		<path fill="none" stroke="#010101" stroke-width="4" stroke-linecap="round" stroke-linejoin="round" stroke-miterlimit="10" d="M382.1,20.1c0,0,4.9-0.1,9-2.1"/>
		<path fill="none" stroke="#010101" stroke-width="4" stroke-linecap="round" stroke-linejoin="round" stroke-miterlimit="10" d="M394.1,25.4c-0.2-1.2,4.8-15.5,6.6-14.9c2.2,0.7-0.6,7.8,3.4,8.2c3.9,0.4,8.6-7.7,9.8-7.4c1.6,0.4-1.2,12.3-1.8,13.7"/>
	</g>
	<g>
		<line fill="none" stroke="#010101" stroke-width="7" stroke-linecap="round" stroke-miterlimit="10" x1="9" y1="145.5" x2="741" y2="145.5"/>
		<polyline fill="none" stroke="#010101" stroke-width="7" stroke-linecap="round" stroke-linejoin="round" stroke-miterlimit="10" points="718.5,122.9 740.5,145.4 718.5,167.9 	"/>
		<text transform="matrix(1 0 0 1 266.4395 96.3961)" fill="#010101" font-family="'PermanentMarker'" font-size="31">how many people are watching</text>
		<path fill="none" stroke="#010101" stroke-width="4" stroke-linecap="round" stroke-linejoin="round" stroke-miterlimit="10" d="M273.5,81c0.2,0.7-2.3,13.6-2.3,13.6"/>
		<path fill="none" stroke="#010101" stroke-width="4" stroke-linecap="round" stroke-linejoin="round" stroke-miterlimit="10" d="M271.2,94.6c0,0,1.1-4.8,6.4-5.4c4.1-0.4,5.2-2,5.3-2.6c0.1-0.6,1.1-7,1.1-7"/>
		<path fill="none" stroke="#010101" stroke-width="4" stroke-linecap="round" stroke-linejoin="round" stroke-miterlimit="10" d="M281.8,94.1c0,0,2.4-13.8,2.3-14.5"/>
		<path fill="none" stroke="#010101" stroke-width="4" stroke-linecap="round" stroke-linejoin="round" stroke-miterlimit="10" d="M300.8,79.7c0,0-14.7,9-9.7,13.2c4.6,3.9,12.7-1.2,12.9-3.1c0.2-1.9-1.8-6.8-4.3-8.9"/>
		<path fill="none" stroke="#010101" stroke-width="4" stroke-linecap="round" stroke-linejoin="round" stroke-miterlimit="10" d="M320.7,82.4c-3.8,9.8-11.1,12.8-11.7,11.2c-0.6-1.6,2-12.2,2.7-12.7"/>
		<path fill="none" stroke="#010101" stroke-width="4" stroke-linecap="round" stroke-linejoin="round" stroke-miterlimit="10" d="M320.7,82.4c-0.9,3.3-0.7,12.4,2.5,11.6c3.8-0.9,6.1-11.9,7.5-12.8"/>
		<path fill="none" stroke="#010101" stroke-width="4" stroke-linecap="round" stroke-linejoin="round" stroke-miterlimit="10" d="M346.1,95.4c-0.2-1.2,4.8-15.5,6.6-14.9c2.2,0.7-0.6,7.8,3.4,8.2c3.9,0.4,8.6-7.7,9.8-7.4c1.6,0.4-1.2,12.3-1.8,13.7"/>
		<path fill="none" stroke="#010101" stroke-width="4" stroke-linecap="round" stroke-linejoin="round" stroke-miterlimit="10" d="M370.6,94.4c0,0,4.3-11.2,8.8-13.6c0,0,5.6,12.6,2,14.5"/>
		<path fill="none" stroke="#010101" stroke-width="4" stroke-linecap="round" stroke-linejoin="round" stroke-miterlimit="10" d="M376.1,91.1c0,0,4.9-0.1,9-2.1"/>
		<path fill="none" stroke="#010101" stroke-width="4" stroke-linecap="round" stroke-linejoin="round" stroke-miterlimit="10" d="M388.6,93.5c-0.2-0.9,5.3-13.4,5.3-13.4"/>
		<path fill="none" stroke="#010101" stroke-width="4" stroke-linecap="round" stroke-linejoin="round" stroke-miterlimit="10" d="M393.9,80.1c-0.8,2,0,14.6,3.8,12.9c3.5-1.6,3.5-12.4,4.5-13"/>
		<path fill="none" stroke="#010101" stroke-width="4" stroke-linecap="round" stroke-linejoin="round" stroke-miterlimit="10" d="M411.6,88.6c-2.6-0.7-4.3-7.4-4.1-8.1"/>
		<path fill="none" stroke="#010101" stroke-width="4" stroke-linecap="round" stroke-linejoin="round" stroke-miterlimit="10" d="M417.3,79.9c-1.8,1-9.8,15.6-9.8,15.6"/>
		<path fill="none" stroke="#010101" stroke-width="4" stroke-linecap="round" stroke-linejoin="round" stroke-miterlimit="10" d="M430.9,94.7c0.5-1.2,2.4-13.5,3.9-14.6c2.3-1.6,12.6,1.3,6,5.8c-5,3.3-10.5,0.2-10.5,0.2"/>
		<path fill="none" stroke="#010101" stroke-width="4" stroke-linecap="round" stroke-linejoin="round" stroke-miterlimit="10" d="M457.5,92.8c0,0-9.3,3.2-10.4,0.3c-1.1-2.9,3.6-9.2,2.8-10.6"/>
		<path fill="none" stroke="#010101" stroke-width="4" stroke-linecap="round" stroke-linejoin="round" stroke-miterlimit="10" d="M459.1,79.2c0,0-10.8,1.4-11,2.6"/>
		<path fill="none" stroke="#010101" stroke-width="4" stroke-linecap="round" stroke-linejoin="round" stroke-miterlimit="10" d="M448.5,86.7c0,0,6.6,0.2,7.3-0.4"/>
		<path fill="none" stroke="#010101" stroke-width="4" stroke-linecap="round" stroke-linejoin="round" stroke-miterlimit="10" d="M472.8,80.7c0,0-14.7,9-9.7,13.2c4.6,3.9,12.7-1.2,12.9-3.1c0.2-1.9-1.8-6.8-4.3-8.9"/>
		<path fill="none" stroke="#010101" stroke-width="4" stroke-linecap="round" stroke-linejoin="round" stroke-miterlimit="10" d="M481.9,94.7c0.5-1.2,2.4-13.5,3.9-14.6c2.3-1.6,12.6,1.3,6,5.8c-5,3.3-10.5,0.2-10.5,0.2"/>
		<path fill="none" stroke="#010101" stroke-width="4" stroke-linecap="round" stroke-linejoin="round" stroke-miterlimit="10" d="M501.1,80.5c0.5,1.3-4.7,12.2-3.8,13.8c0.9,1.5,9.1-1.7,11.4,0"/>
		<path fill="none" stroke="#010101" stroke-width="4" stroke-linecap="round" stroke-linejoin="round" stroke-miterlimit="10" d="M524.5,93.8c0,0-9.3,3.2-10.4,0.3c-1.1-2.9,3.6-9.2,2.8-10.6"/>
		<path fill="none" stroke="#010101" stroke-width="4" stroke-linecap="round" stroke-linejoin="round" stroke-miterlimit="10" d="M526.1,80.2c0,0-10.8,1.4-11,2.6"/>
		<path fill="none" stroke="#010101" stroke-width="4" stroke-linecap="round" stroke-linejoin="round" stroke-miterlimit="10" d="M515.5,87.7c0,0,6.6,0.2,7.3-0.4"/>
		<path fill="none" stroke="#010101" stroke-width="4" stroke-linecap="round" stroke-linejoin="round" stroke-miterlimit="10" d="M541.6,94.4c0,0,4.3-11.2,8.8-13.6c0,0,5.6,12.6,2,14.5"/>
		<path fill="none" stroke="#010101" stroke-width="4" stroke-linecap="round" stroke-linejoin="round" stroke-miterlimit="10" d="M547.1,91.1c0,0,4.9-0.1,9-2.1"/>
		<path fill="none" stroke="#010101" stroke-width="4" stroke-linecap="round" stroke-linejoin="round" stroke-miterlimit="10" d="M562.4,83.9c0.1,0.6-1.8,10-1.8,10"/>
		<path fill="none" stroke="#010101" stroke-width="4" stroke-linecap="round" stroke-linejoin="round" stroke-miterlimit="10" d="M573.1,94.5c-5.9,0.2-9.5-5.3-9.5-5.3s6.9-2.1,7.7-3.6c0.9-1.7-1.5-5.5-2.9-5.9c-1.4-0.4-5.2,5.3-5.2,5.3"/>
		<path fill="none" stroke="#010101" stroke-width="4" stroke-linecap="round" stroke-linejoin="round" stroke-miterlimit="10" d="M587.5,92.8c0,0-9.3,3.2-10.4,0.3c-1.1-2.9,3.6-9.2,2.8-10.6"/>
		<path fill="none" stroke="#010101" stroke-width="4" stroke-linecap="round" stroke-linejoin="round" stroke-miterlimit="10" d="M589.1,79.2c0,0-10.8,1.4-11,2.6"/>
		<path fill="none" stroke="#010101" stroke-width="4" stroke-linecap="round" stroke-linejoin="round" stroke-miterlimit="10" d="M578.5,86.7c0,0,6.6,0.2,7.3-0.4"/>
		<path fill="none" stroke="#010101" stroke-width="4" stroke-linecap="round" stroke-linejoin="round" stroke-miterlimit="10" d="M617.7,82.4c-3.8,9.8-11.1,12.8-11.7,11.2c-0.6-1.6,2-12.2,2.7-12.7"/>
		<path fill="none" stroke="#010101" stroke-width="4" stroke-linecap="round" stroke-linejoin="round" stroke-miterlimit="10" d="M617.7,82.4c-0.9,3.3-0.7,12.4,2.5,11.6c3.8-0.9,6.1-11.9,7.5-12.8"/>
		<path fill="none" stroke="#010101" stroke-width="4" stroke-linecap="round" stroke-linejoin="round" stroke-miterlimit="10" d="M629.6,93.4c0,0,4.3-11.2,8.8-13.6c0,0,5.6,12.6,2,14.5"/>
		<path fill="none" stroke="#010101" stroke-width="4" stroke-linecap="round" stroke-linejoin="round" stroke-miterlimit="10" d="M635.1,90.1c0,0,4.9-0.1,9-2.1"/>
		<path fill="none" stroke="#010101" stroke-width="4" stroke-linecap="round" stroke-linejoin="round" stroke-miterlimit="10" d="M645.3,80.8c0.6,0.3,14.7-2.4,16.3-1.8"/>
		<path fill="none" stroke="#010101" stroke-width="4" stroke-linecap="round" stroke-linejoin="round" stroke-miterlimit="10" d="M652.7,79.4c1.6,2.4-5.9,12.8-2.3,15.9"/>
		<path fill="none" stroke="#010101" stroke-width="4" stroke-linecap="round" stroke-linejoin="round" stroke-miterlimit="10" d="M670.7,80.4c-9.1,0.7-17.8,14.4-0.4,13.2"/>
		<path fill="none" stroke="#010101" stroke-width="4" stroke-linecap="round" stroke-linejoin="round" stroke-miterlimit="10" d="M679.5,81c0.2,0.7-2.3,13.6-2.3,13.6"/>
		<path fill="none" stroke="#010101" stroke-width="4" stroke-linecap="round" stroke-linejoin="round" stroke-miterlimit="10" d="M677.2,94.6c0,0,1.1-4.8,6.4-5.4c4.1-0.4,5.2-2,5.3-2.6c0.1-0.6,1.1-7,1.1-7"/>
		<path fill="none" stroke="#010101" stroke-width="4" stroke-linecap="round" stroke-linejoin="round" stroke-miterlimit="10" d="M687.8,94.1c0,0,2.4-13.8,2.3-14.5"/>
		<path fill="none" stroke="#010101" stroke-width="4" stroke-linecap="round" stroke-linejoin="round" stroke-miterlimit="10" d="M698.9,81.3c-0.4,0.5-2.5,11.2-1.2,14.6"/>
		<path fill="none" stroke="#010101" stroke-width="4" stroke-linecap="round" stroke-linejoin="round" stroke-miterlimit="10" d="M704.6,93.5c-0.2-0.9,5.3-13.4,5.3-13.4"/>
		<path fill="none" stroke="#010101" stroke-width="4" stroke-linecap="round" stroke-linejoin="round" stroke-miterlimit="10" d="M709.9,80.1c-0.8,2,0,14.6,3.8,12.9c3.5-1.6,3.5-12.4,4.5-13"/>
		<path fill="none" stroke="#010101" stroke-width="4" stroke-linecap="round" stroke-linejoin="round" stroke-miterlimit="10" d="M733.6,80.6c-1.4-0.5-14.3,9.2-11.4,12.7c2.9,3.5,17.8-0.9,16.4-2.4c-1-1.1-3.8-3.9-4.6-3.2"/>
	</g>
	<path data-type="main" fill="none" stroke="#00A99D" stroke-width="7" stroke-linecap="round" stroke-miterlimit="10" d="M36.5,372.9c0-92,11-185,57-267c18-31,58-52,93-57c34-4,51,11,77,29c28,20,60,33,93,43c111,33,233,14,348,24"/>
	<g>
		<path fill="none" stroke="#000000" stroke-width="7" stroke-linecap="round" stroke-miterlimit="10" d="M83.6,163.1c2,5.9,5.8,11,9.9,15.8c18.3,21.3,43.9,36.4,71.4,42"/>
		<text transform="matrix(1 0 0 1 182.5215 236.8684)" fill="#010101" font-family="'PermanentMarker'" font-size="31">i’m me</text>
		<path fill="none" stroke="#010101" stroke-width="4" stroke-linecap="round" stroke-linejoin="round" stroke-miterlimit="10" d="M187.9,221.3c-0.4,0.5-2.5,11.2-1.2,14.6"/>
		<path fill="none" stroke="#010101" stroke-width="4" stroke-linecap="round" stroke-linejoin="round" stroke-miterlimit="10" d="M199.7,215.2c0.1,0.9-2.6,6-2.6,6"/>
		<path fill="none" stroke="#010101" stroke-width="4" stroke-linecap="round" stroke-linejoin="round" stroke-miterlimit="10" d="M200.1,236.4c-0.2-1.2,4.8-15.5,6.6-14.9c2.2,0.7-0.6,7.8,3.4,8.2c3.9,0.4,8.6-7.7,9.8-7.4c1.6,0.4-1.2,12.3-1.8,13.7"/>
		<path fill="none" stroke="#010101" stroke-width="4" stroke-linecap="round" stroke-linejoin="round" stroke-miterlimit="10" d="M237.1,236.4c-0.2-1.2,4.8-15.5,6.6-14.9c2.2,0.7-0.6,7.8,3.4,8.2c3.9,0.4,8.6-7.7,9.8-7.4c1.6,0.4-1.2,12.3-1.8,13.7"/>
		<path fill="none" stroke="#010101" stroke-width="4" stroke-linecap="round" stroke-linejoin="round" stroke-miterlimit="10" d="M273.5,234.8c0,0-9.3,3.2-10.4,0.3c-1.1-2.9,3.6-9.2,2.8-10.6"/>
		<path fill="none" stroke="#010101" stroke-width="4" stroke-linecap="round" stroke-linejoin="round" stroke-miterlimit="10" d="M275.1,221.2c0,0-10.8,1.4-11,2.6"/>
		<path fill="none" stroke="#010101" stroke-width="4" stroke-linecap="round" stroke-linejoin="round" stroke-miterlimit="10" d="M264.5,228.7c0,0,6.6,0.2,7.3-0.4"/>
	</g>
	<g>
		<path fill="none" stroke="#000000" stroke-width="7" stroke-linecap="round" stroke-miterlimit="10" d="M527.1,236.9c12.1-14,29.9-21.7,47.7-26.8s36.3-8,53.5-14.8c17.2-6.8,33.6-18.4,40.9-35.4"/>
		<text transform="matrix(1 0 0 1 352.8945 256.8684)" fill="#010101" font-family="'PermanentMarker'" font-size="31">i’m no one</text>
		<path fill="none" stroke="#010101" stroke-width="4" stroke-linecap="round" stroke-linejoin="round" stroke-miterlimit="10" d="M358.9,240.3c-0.4,0.5-2.5,11.2-1.2,14.6"/>
		<path fill="none" stroke="#010101" stroke-width="4" stroke-linecap="round" stroke-linejoin="round" stroke-miterlimit="10" d="M370.7,234.2c0.1,0.9-2.6,6-2.6,6"/>
		<path fill="none" stroke="#010101" stroke-width="4" stroke-linecap="round" stroke-linejoin="round" stroke-miterlimit="10" d="M371.1,255.4c-0.2-1.2,4.8-15.5,6.6-14.9c2.2,0.7-0.6,7.8,3.4,8.2c3.9,0.4,8.6-7.7,9.8-7.4c1.6,0.4-1.2,12.3-1.8,13.7"/>
		<path fill="none" stroke="#010101" stroke-width="4" stroke-linecap="round" stroke-linejoin="round" stroke-miterlimit="10" d="M407.6,254.5c-0.2-0.9,5.3-13.4,5.3-13.4"/>
		<path fill="none" stroke="#010101" stroke-width="4" stroke-linecap="round" stroke-linejoin="round" stroke-miterlimit="10" d="M412.9,241.1c-0.8,2,0,14.6,3.8,12.9c3.5-1.6,3.5-12.4,4.5-13"/>
		<path fill="none" stroke="#010101" stroke-width="4" stroke-linecap="round" stroke-linejoin="round" stroke-miterlimit="10" d="M435.8,240.7c0,0-14.7,9-9.7,13.2c4.6,3.9,12.7-1.2,12.9-3.1c0.2-1.9-1.8-6.8-4.3-8.9"/>
		<path fill="none" stroke="#010101" stroke-width="4" stroke-linecap="round" stroke-linejoin="round" stroke-miterlimit="10" d="M466.8,240.7c0,0-14.7,9-9.7,13.2c4.6,3.9,12.7-1.2,12.9-3.1c0.2-1.9-1.8-6.8-4.3-8.9"/>
		<path fill="none" stroke="#010101" stroke-width="4" stroke-linecap="round" stroke-linejoin="round" stroke-miterlimit="10" d="M474.6,254.5c-0.2-0.9,5.3-13.4,5.3-13.4"/>
		<path fill="none" stroke="#010101" stroke-width="4" stroke-linecap="round" stroke-linejoin="round" stroke-miterlimit="10" d="M479.9,241.1c-0.8,2,0,14.6,3.8,12.9c3.5-1.6,3.5-12.4,4.5-13"/>
		<path fill="none" stroke="#010101" stroke-width="4" stroke-linecap="round" stroke-linejoin="round" stroke-miterlimit="10" d="M503.5,253.8c0,0-9.3,3.2-10.4,0.3c-1.1-2.9,3.6-9.2,2.8-10.6"/>
		<path fill="none" stroke="#010101" stroke-width="4" stroke-linecap="round" stroke-linejoin="round" stroke-miterlimit="10" d="M505.1,240.2c0,0-10.8,1.4-11,2.6"/>
		<path fill="none" stroke="#010101" stroke-width="4" stroke-linecap="round" stroke-linejoin="round" stroke-miterlimit="10" d="M494.5,247.7c0,0,6.6,0.2,7.3-0.4"/>
	</g>
	<path data-type="erase" fill="none" stroke="transparent" stroke-width="120" stroke-linecap="round" stroke-linejoin="round" stroke-miterlimit="10" d="M59.5-25.2C33,59.9,6.5,145.1-20,230.2c5.5,4.6,14,3.4,19.8-0.8c5.8-4.2,9.3-10.7,12.4-17.1C40,155.1,49.9,90.4,79.1,33.9c11.4-22.1,31.1-45.4,55.8-42.3c10.4,23.3,4.8,50.8-6,73.9s-26.4,43.8-36.8,67.1c-13.8,30.7-18.3,64.8-27.7,97.2C49.6,280.7,22,329,20.7,382.1c9,1.7,15.7-8,19.7-16.3C84.8,274.9,127.1,182.9,167.2,90c14.4-33.3,29.3-67.8,56.5-91.7c3.2-2.8,6.9-5.6,11.2-5.4c8.4,0.2,12,10.7,12.9,19.1c7.8,75.7-26.2,148.7-59.3,217.2c5.9,12.8,24.4,15.2,36.7,8.3c12.3-6.9,19.4-20.2,25.1-33.1c29.7-68.2,35.5-150,87.7-202.9c1.9-2,4-3.9,6.5-5c6.9-3,15.2,1.4,19.1,7.8s4.5,14.2,4.9,21.7c3.2,59.8,1.1,119.8-6.3,179.2c-1.3,10.3-2.7,20.9,0.1,30.9c2.8,10,10.9,19.3,21.3,19.9c12.2,0.7,21.9-10.3,27-21.5c8.9-19.6,9.9-41.7,11.6-63.2c1.6-20,3.9-40,6.9-59.9c0.8-5,1.6-10.1,4.2-14.4c6.8-11.3,22.2-13.1,35.3-13.6c77.8-3.2,155.6-6.5,233.4-2.9c8.9,0.4,18.1,1,25.9,5.1c7.9,4.1,14.1,12.8,12.5,21.5c-2.3,12.7-17.8,17.4-30.7,18.7c-57.4,6-116.6-4.4-172.5,10.2c-14.5,3.8-31.2,12.7-31,27.7c0.1,9.3,7.4,17.4,15.9,21.2c8.5,3.8,18.1,4.3,27.4,4.7c44.5,2,89,4,133.5,6c4.9,0.2,10.6,0.8,13.4,4.9c3.8,5.5-0.6,13-5.5,17.5c-18.2,16.5-44.7,19.6-69.3,20c-58.5,1-118.4-8.3-174.7,7.8"/>
</svg>
