<svg version="1.1" id="Layer_1" xmlns="http://www.w3.org/2000/svg" xmlns:xlink="http://www.w3.org/1999/xlink" x="0px" y="0px" viewBox="0 0 743.3 315.7" enable-background="new 0 0 743.3 315.7" xml:space="preserve"> <g> <line stroke-width="7" x1="5.7" y1="195.5" x2="737.7" y2="195.5"/> <line stroke-width="7" x1="29.2" y1="311" x2="29.2" y2="37"/> <polyline stroke-width="7" points="715.7,173.3 737.7,195.8 715.7,218.3 	"/> <polyline stroke-width="7" points="6.7,59.3 29.2,37.3 51.7,59.3 	"/> </g> <g> <text transform="matrix(1 0 0 1 2.7257 21.5118)" fill="#010101" font-family="'PermanentMarker'" font-size="31">productivity</text> </g> <g> <text transform="matrix(1 0 0 1 309.5431 250.7521)" fill="#010101" font-family="'PermanentMarker'" font-size="31">all the people in the world</text> </g> <path data-type="main" stroke="#488EB1" stroke-width="7" d="M49.3,103.9c48.4,3.4,96.4,1.4,144.8-1c3.6-0.1,5.7-0.1,5.7-0.1s-3.7,0.1,0,0c-0.3,3.7-0.4,7.3-0.5,10.9c-1.6,54.5,12.4,107,25.5,159.5c-2.8-45.8-3.2-12.1,0,0c-3-56,6-110,19-167c0,0,1-1,2-1c14,3,28,8,42,7c8-1,16-5,24-6c36-3,71-4,107-4c8,0,16,2,24,3c4,1,9,2,13,3c19,2,37-5,56-9c13-2,24-2,37,1c6,1,13,1,19-2c22-13,47-19,69.7-9.1"/> <g> <path stroke-width="7" d="M169.1,263c11.1,9.9,27,14,41.5,10.8"/> <text transform="matrix(1 0 0 1 122.9787 258.1629)" fill="#010101" font-family="'PermanentMarker'" font-size="30.7418">me</text> </g> <path data-type="erase" stroke="transparent" stroke-width="120" stroke-linecap="square" d="M37-5.7C4,56.8,2.5,130.7,1.9,201.4c9.5,4.4,20.2-2.7,27.9-9.7c28.1-25.6,50.8-56.9,66.3-91.6c20.3-45.2,29.5-97.6,64.6-132.6c16.2,62.9-8.3,129.3-40.9,185.4s-74.2,107.8-97,168.6c39-3.8,73.2-29,98-59.3c24.9-30.3,42.2-65.9,62.3-99.6c18.4-30.8,42.3-62.4,77.2-70.8c-1,39.9-11.4,79.5-30,114.8c-5.5,10.5-11.9,20.9-14.4,32.5s-0.3,25.1,8.9,32.7c11.2,9.2,28.4,6.1,40.6-1.6c12.3-7.7,21.6-19.3,33.3-27.9c34-25,80.5-21,122.6-18c72.3,5.3,145.1,4.5,217.3-2.3c13.3-1.2,26.5-2.7,39.6-5.2c7.9-1.5,16.1-3.5,22.1-8.9c9.2-8.2,10.9-21.7,11-34c0.1-11.8-0.9-23.8-6-34.5c-9.3-19.5-30.5-30.4-51.3-36.2C613,91.8,569.4,94.8,526.9,98c-81.7,6-163.4,12.1-245.2,18.1"/> </svg> 