<svg version="1.1" id="Layer_1" xmlns="http://www.w3.org/2000/svg" xmlns:xlink="http://www.w3.org/1999/xlink" x="0px" y="0px" viewBox="0 0 827.5 315.5" enable-background="new 0 0 827.5 315.5" xml:space="preserve"> <g> <text transform="matrix(1 0 0 1 11.9458 23.5467)" fill="transparent" font-family="'PermanentMarker'" font-size="31">kindness</text> <path d="M14.6,21.7c0,0,3.6-14.1,4.3-14.6"/> <path d="M28.7,8.3c-7.7,3.6-14.2,13.4-14.2,13.4"/> <path d="M20.7,14.7c0,0,2.5,5.8,10.2,5"/> <path d="M38.2,7.5C37.8,8,35.7,18.7,37,22.1"/> <path d="M43.9,20.8c-0.2-0.9,5.3-13.4,5.3-13.4"/> <path d="M49.1,7.4c-0.8,2,0,14.6,3.8,12.9c3.5-1.6,3.5-12.4,4.5-13"/> <path d="M62.9,9.8c1,3.6,0.7,6.5-0.6,12.1"/> <path d="M62.3,21.8c16.1-5.5,11.7-10.9,0.6-14.9"/> <path d="M76.9,20.8c-0.2-0.9,5.3-13.4,5.3-13.4"/> <path d="M82.1,7.4c-0.8,2,0,14.6,3.8,12.9c3.5-1.6,3.5-12.4,4.5-13"/> <path d="M105.7,21c0,0-9.3,3.2-10.4,0.3c-1.1-2.9,3.6-9.2,2.8-10.6"/> <path d="M107.3,7.4c0,0-10.8,1.4-11,2.6"/> <path d="M96.8,15c0,0,6.6,0.2,7.3-0.4"/> <path d="M123.1,6.9c-1.6-1-12.1,1.8-12.2,3.4c-0.1,1.6,8.4,1.7,9,5.2c0.5,2.9-6.9,6.4-8.3,5.7"/> <path d="M137.1,6.9c-1.6-1-12.1,1.8-12.2,3.4c-0.1,1.6,8.4,1.7,9,5.2c0.5,2.9-6.9,6.4-8.3,5.7"/> <polyline stroke-width="7" points="8.7,59.1 31.2,37.1 53.8,59.1 	"/> <line stroke-width="7" x1="31" y1="37" x2="31" y2="311"/> </g> <g> <text transform="matrix(1 0 0 1 774.1885 150.2239)" fill="transparent" font-family="'PermanentMarker'" font-size="31">I.Q.</text> <line stroke-width="7" x1="7.5" y1="191.5" x2="816.5" y2="191.5"/> <polyline stroke-width="7" points="794.8,169.1 816.8,191.6 794.8,214.1 	"/> <path d="M783,148.1c-1.3-3.4,0.8-14.1,1.2-14.6"/> <path d="M792.1,130.9c-3.1-0.3-11.7,1.2-13.2,2"/> <path d="M785.5,146.8c-5.4-0.9-9.8,1.3-9.8,1.3"/> <path d="M790.9,147.7c0.9-0.5,2.9,1,2.3,1.3c-0.6,0.3-2.3,0.6-2.3,0.6"/> <path d="M809.8,132.9c0,0,5.2,3.1,5.1,7.3c-0.1,5.7-13.6,8.8-14.8,5.7c-1.2-3,10.8-13,10.8-13"/> <path d="M813.5,148.9c0,0-4.1-7.3-4.8-7.7"/> <path d="M820.9,147.7c0.9-0.5,2.9,1,2.3,1.3c-0.6,0.3-2.3,0.6-2.3,0.6"/> </g> <path data-type="main" stroke="#9D1F60" stroke-width="7" d="M34.8,188.1c10-32,27-61,42-90c11-20,30-59,61-46c12,6,19,26,24,37c11,21,19,45,28,67c15,39,35,99,82,110c39,8,60-46,78-69c22-27,41-83,88-67c17,5,31,29,43,42s28,25,43,35c13,9,22,14,38,13c24-1,34-16,51-31c27-22,54-38,90-27c30,10,44,32,78,18"/> <path data-type="erase" stroke="transparent" stroke-width="120" d="M70.4-36.9C22.5,14.1-12.7,77-31,144.5c-2,7.5,0.2,19.6,7.7,17.5c2.1-0.6,3.6-2.3,5-3.9C7.5,128.3,24.6,92.3,45,58.6s45.8-66.3,81.5-82.9c-9,43-36.2,79.5-56.7,118.3c-37.5,70.8-53.6,152.7-45.9,232.4c6.1-2.4,9.6-8.5,12.5-14.3C60.8,264,76.6,211.5,105.6,166c15.2-23.8,33.9-45.6,44.6-71.7c11.7-28.6,14.5-63.4,38.6-82.8c-7.9,85.4-11.9,171.2-11.8,257c0,7.4,0.1,15.1,3.7,21.5c3.6,6.4,11.9,10.9,18.5,7.7c4.9-2.4,7.3-7.9,9.1-13c13.2-36.5,17.9-76.7,39-109.3c2.7-4.2,7.4-8.7,12-6.7c2.1,0.9,3.4,3.1,4.4,5.1c9.5,18.2,12.1,39.1,19.6,58.2c7.5,19.1,22.6,37.8,43,39.3c24.7-48.2,42.2-100.1,51.8-153.4c4.6-25.6,11.8-56.8,36.8-63.9c11.9,32.3,15.1,67.1,23.1,100.7c8,33.5,22.1,67.6,49.7,88.3c16.8-28.9,33.6-57.8,50.5-86.6c3.8-6.5,9.3-13.9,16.7-13.1c6.8,0.8,10.7,7.9,13.2,14.3c7.6,18.8,14.1,38.4,25,55.5c11,17.1,27.5,31.9,47.5,35.3c1.2-35.9,8.8-71.5,22.2-104.8c2.4-6,6.8-12.9,13.2-12c5,0.8,7.7,6.1,9.7,10.7c13,31.2,26,62.4,39,93.6c34.2-50.1,63.5-103.6,87.4-159.4c5.9,56.3,7.3,113.1,4.2,169.7"/> </svg> 