<svg version="1.1" id="Layer_1" xmlns="http://www.w3.org/2000/svg" xmlns:xlink="http://www.w3.org/1999/xlink" x="0px" y="0px" viewBox="0 0 919 319.5" enable-background="new 0 0 919 319.5" xml:space="preserve"> <g> <line stroke-width="7" x1="28.5" y1="292.2" x2="28.5" y2="79.2"/> <polyline stroke-width="7" points="6,101 28.5,79 51,101 	"/> </g> <g> <line stroke-width="7" x1="5" y1="268.7" x2="915" y2="268.7"/> <polyline stroke-width="7" points="893,246 915,268.5 893,291 	"/> <text transform="matrix(1 0 0 1 848.792 205.9991)" fill="#010101" font-family="'PermanentMarker'" font-size="31">time</text> <path d="M851.6,189.9c0.6,0.3,14.7-2.4,16.3-1.8 M858.9,188.6c1.6,2.4-5.9,12.8-2.3,15.9"/> <path d="M870.2,189.4c-0.4,0.5-2.5,11.2-1.2,14.6"/> <path d="M875.4,204.5c-0.2-1.2,4.8-15.5,6.6-14.9c2.2,0.7-0.6,7.8,3.4,8.2c3.9,0.4,8.6-7.7,9.8-7.4c1.6,0.4-1.2,12.3-1.8,13.7"/> <path d="M912.7,202.9c0,0-9.3,3.2-10.4,0.3c-1.1-2.9,3.6-9.2,2.8-10.6 M914.3,189.3c0,0-10.8,1.4-11,2.6 M903.8,196.9c0,0,6.6,0.2,7.3-0.4"/> </g> <g> <text transform="matrix(1 0 0 1 5.1953 55.5244)" fill="#2AAAE2" font-family="'PermanentMarker'" font-size="31">how much money i have</text> <path stroke="#2AAAE2" d="M10.6,40.6c0.2,0.7-2.3,13.6-2.3,13.6 M8.3,54.2c0,0,1.1-4.8,6.4-5.4c4.1-0.4,5.2-2,5.3-2.6c0.1-0.6,1.1-7,1.1-7 M18.8,53.7c0,0,2.4-13.8,2.3-14.5"/> <path stroke="#2AAAE2" d="M35.8,39.3c0,0-14.7,9-9.7,13.2c4.6,3.9,12.7-1.2,12.9-3.1c0.2-1.9-1.8-6.8-4.3-8.9"/> <path stroke="#2AAAE2" d="M57.7,42C53.9,51.9,46.6,54.8,46,53.2c-0.6-1.6,2-12.2,2.7-12.7 M57.7,42c-0.9,3.3-0.7,12.4,2.5,11.6c3.8-0.9,6.1-11.9,7.5-12.8"/> <path stroke="#2AAAE2" d="M81.7,55c-0.2-1.2,4.8-15.5,6.6-14.9c2.2,0.7-0.6,7.8,3.4,8.2c3.9,0.4,8.6-7.7,9.8-7.4c1.6,0.4-1.2,12.3-1.8,13.7"/> <path stroke="#2AAAE2" d="M109.3,42c-0.4,0.5-2.7,9.4,2.6,11.2c3.8,1.3,10.5-9,9.6-13.3"/> <path stroke="#2AAAE2" d="M135.3,40c-9.1,0.7-17.8,14.4-0.4,13.2"/> <path stroke="#2AAAE2" d="M143.1,40.6c0.2,0.7-2.3,13.6-2.3,13.6 M140.8,54.2c0,0,1.1-4.8,6.4-5.4c4.1-0.4,5.2-2,5.3-2.6c0.1-0.6,1.1-7,1.1-7 M151.3,53.7c0,0,2.4-13.8,2.3-14.5"/> <path stroke="#2AAAE2" d="M171.4,53c0-1.6,5.4-12.9,5.8-12.1s0.9,6.9,3.1,7.1s8.9-6.5,10.5-7.1s-1.8,10.9-1.3,12.8"/> <path stroke="#2AAAE2" d="M206.4,39.7c-1.8,0.9-13,9.7-9.6,13.2s13.4-0.1,13.6-3.5s-4.5-8.6-4.5-8.6"/> <path stroke="#2AAAE2" d="M214.5,52.9c0-1.5,5.8-12.1,5.8-12.1"/> <path stroke="#2AAAE2" d="M219.6,43.2c0,1.4,0.3,9.9,3.5,10.1s5.1-13,5.1-13"/> <path stroke="#2AAAE2" d="M234.8,41.6c0.9,2-2.8,10-2.4,11.1c0.4,1.1,7.7,2,11.2,0.4"/> <path stroke="#2AAAE2" d="M234.4,41.9c0.4-0.3,10.2-1.8,10.8-2.4"/> <path stroke="#2AAAE2" d="M234.4,46.4c0.7,0.2,6.3,0.8,7,0"/> <path stroke="#2AAAE2" d="M250.7,39.8c0,1.6,1.3,7.8,3.6,8.8"/> <path stroke="#2AAAE2" d="M259.9,39.8c-0.9,0.4-9.8,12.3-9.4,15.1"/> <path stroke="#2AAAE2" d="M276.4,39.6c-1.1,1.4-2.5,12.2-2.1,13.7"/> <path stroke="#2AAAE2" d="M296.7,39.9c0.4,1.4-2.4,13.4-2.4,13.4"/> <path stroke="#2AAAE2" d="M306.9,39.2c1,1.9-2.2,11.8-1.9,14.1"/> <path stroke="#2AAAE2" d="M295.5,50.4c1-1,10.6-3.6,10.6-3.6"/> <path stroke="#2AAAE2" d="M312.8,53.2c0-1.4,5.2-12.7,8.5-13.8c0,0,5.3,11.5,2.3,14.2"/> <path stroke="#2AAAE2" d="M317.6,49.8c1.4,0,8.3-1.9,9.6-2.8"/> <path stroke="#2AAAE2" d="M330.6,40.9c0.5,1,2.1,13,2.1,13"/> <path stroke="#2AAAE2" d="M332.9,53c0,0,6.6-12.1,8.9-12.9"/> <path stroke="#2AAAE2" d="M346.8,41.6c0.9,2-2.8,10-2.4,11.1c0.4,1.1,7.7,2,11.2,0.4"/> <path stroke="#2AAAE2" d="M346.4,41.9c0.4-0.3,10.2-1.8,10.8-2.4"/> <path stroke="#2AAAE2" d="M346.4,46.4c0.7,0.2,6.3,0.8,7,0"/> </g> <path data-type="main" stroke="#2AAAE2" stroke-width="7" d="M29,267c19-27,53-8,73,4c27,15,58,15,85,3c25-12,53-36,79-41c37-7,57,30,84,48c52,33,105-2,140-41c25-28,59-60,100-51c29,5,47,38,64,59c36,47,93,86,148,51c27-17,53-53,87-45c7,2,14,7,20,9"/> <g> <text transform="matrix(1 0 0 1 5.1953 21.0264)" fill="#D41C5C" font-family="'PermanentMarker'" font-size="31">amount of money that would be sweet to have</text> <path stroke="#D41C5C" d="M6.8,19.2c0-1.4,5.2-12.7,8.5-13.8c0,0,5.3,11.5,2.3,14.2"/> <path stroke="#D41C5C" d="M11.6,15.8c1.4,0,8.3-1.9,9.6-2.8"/> <path stroke="#D41C5C" d="M25.4,18c0-1.6,5.4-12.9,5.8-12.1s0.9,6.9,3.1,7.1s8.9-6.5,10.5-7.1S43,16.7,43.4,18.6"/> <path stroke="#D41C5C" d="M60.4,4.7c-1.8,0.9-13,9.7-9.6,13.2s13.4-0.1,13.6-3.5s-4.5-8.6-4.5-8.6"/> <path stroke="#D41C5C" d="M71.1,7.8c-0.7,2-2,8.4,1.2,10.6s11.4-7.7,10.9-12.1"/> <path stroke="#D41C5C" d="M87.5,17.9c0-1.5,5.8-12.1,5.8-12.1"/> <path stroke="#D41C5C" d="M92.6,8.2c0,1.4,0.3,9.9,3.5,10.1s5.1-13,5.1-13"/> <path stroke="#D41C5C" d="M105.1,5.9c1.2,0.3,13.1-1.8,14.8-1.4"/> <path stroke="#D41C5C" d="M112.5,4.8c0.3,1.1-4.7,11.8-4.7,13.1s1.1,2.4,1.1,2.4"/> <path stroke="#D41C5C" d="M141.4,4.7c-1.8,0.9-13,9.7-9.6,13.2s13.4-0.1,13.6-3.5s-4.5-8.6-4.5-8.6"/> <path stroke="#D41C5C" d="M155.4,5.7c0.4,1.1-4.1,11-3.9,12.8s0.4,1.2,0.4,1.2"/> <path stroke="#D41C5C" d="M152.1,7.3c0.4-0.2,10.7-4,12.9-2.9"/> <path stroke="#D41C5C" d="M150.9,13.8c0.9,0.5,10.5-0.7,10.5-0.7"/> <path stroke="#D41C5C" d="M177.4,18c0-1.6,5.4-12.9,5.8-12.1s0.9,6.9,3.1,7.1s8.9-6.5,10.5-7.1s-1.8,10.9-1.3,12.8"/> <path stroke="#D41C5C" d="M212.4,4.7c-1.8,0.9-13,9.7-9.6,13.2s13.4-0.1,13.6-3.5s-4.5-8.6-4.5-8.6"/> <path stroke="#D41C5C" d="M220.5,17.9c0-1.5,5.8-12.1,5.8-12.1"/> <path stroke="#D41C5C" d="M225.6,8.2c0,1.4,0.3,9.9,3.5,10.1s5.1-13,5.1-13"/> <path stroke="#D41C5C" d="M240.8,6.6c0.9,2-2.8,10-2.4,11.1c0.4,1.1,7.7,2,11.2,0.4"/> <path stroke="#D41C5C" d="M240.4,6.9c0.4-0.3,10.2-1.8,10.8-2.4"/> <path stroke="#D41C5C" d="M240.4,11.4c0.7,0.2,6.3,0.8,7,0"/> <path stroke="#D41C5C" d="M256.7,4.8c0,1.6,1.3,7.7,3.6,8.8"/> <path stroke="#D41C5C" d="M265.9,4.8c-0.9,0.4-9.8,12.3-9.4,15.1"/> <path stroke="#D41C5C" d="M279.1,5.9c1.2,0.3,13.1-1.8,14.8-1.4"/> <path stroke="#D41C5C" d="M286.5,4.8c0.3,1.1-4.7,11.8-4.7,13.1s1.1,2.4,1.1,2.4"/> <path stroke="#D41C5C" d="M296.7,5.9c0.4,1.4-2.4,13.4-2.4,13.4"/> <path stroke="#D41C5C" d="M306.9,5.2c1,1.9-2.2,11.8-1.9,14.1"/> <path stroke="#D41C5C" d="M295.5,16.4c1-1,10.6-3.6,10.6-3.6"/> <path stroke="#D41C5C" d="M311.8,18.2c0-1.4,5.2-12.7,8.5-13.8c0,0,5.3,11.5,2.3,14.2"/> <path stroke="#D41C5C" d="M316.6,14.8c1.4,0,8.3-1.9,9.6-2.8"/> <path stroke="#D41C5C" d="M328.1,5.9c1.2,0.3,13.1-1.8,14.8-1.4"/> <path stroke="#D41C5C" d="M335.5,4.8c0.3,1.1-4.7,11.8-4.7,13.1s1.1,2.4,1.1,2.4"/> <path stroke="#D41C5C" d="M357.4,5.4c0.1,3.2-4.4,9.4-1.9,12.9s11.2-11.6,11.5-11.2s-1.6,11.2,2.2,11.5s4.6-8.9,7.2-13.6"/> <path stroke="#D41C5C" d="M390.4,4.7c-1.8,0.9-13,9.7-9.6,13.2s13.4-0.1,13.6-3.5s-4.5-8.6-4.5-8.6"/> <path stroke="#D41C5C" d="M401.1,7.8c-0.7,2-2,8.4,1.2,10.6s11.4-7.7,10.9-12.1"/> <path stroke="#D41C5C" d="M420.9,4.7c0.1,1.4-4.5,11.3-3.8,13.7s7.5-1.5,11,0.3"/> <path stroke="#D41C5C" d="M433.9,7.6c0.3,1.8,0.9,7.7,0,11.2"/> <path stroke="#D41C5C" d="M434.8,4.8c2.2,0.3,9.2,4.1,9.8,6.2c0.6,2.2-7.2,7.4-8.7,7.8"/> <path stroke="#D41C5C" d="M464.1,8.8c0.2,1.2-2.2,9.6-2.7,10.7"/> <path stroke="#D41C5C" d="M460.2,6.5c1.1-1.2,9.8-3.4,11.4-1.2c1.6,2.2-5.7,6.2-5.7,6.2s9.3,1.4,7.3,4.3s-9.2,3.7-9.2,3.7"/> <path stroke="#D41C5C" d="M480.8,6.6c0.9,2-2.8,10-2.4,11.1c0.4,1.1,7.7,2,11.2,0.4"/> <path stroke="#D41C5C" d="M480.4,6.9c0.4-0.3,10.2-1.8,10.8-2.4"/> <path stroke="#D41C5C" d="M480.4,11.4c0.7,0.2,6.3,0.8,7,0"/> <path stroke="#D41C5C" d="M518.1,4.5c-1.2-0.4-11,1.9-11.6,3.5s7.7,2.6,8.1,5.6s-6.9,6.2-7.9,5.8"/> <path stroke="#D41C5C" d="M523.4,5.4c0.1,3.2-4.4,9.4-1.9,12.9s11.2-11.6,11.5-11.2s-1.6,11.2,2.2,11.5s4.6-8.9,7.2-13.6"/> <path stroke="#D41C5C" d="M548.8,6.6c0.9,2-2.8,10-2.4,11.1c0.4,1.1,7.7,2,11.2,0.4"/> <path stroke="#D41C5C" d="M548.4,6.9c0.4-0.3,10.2-1.8,10.8-2.4"/> <path stroke="#D41C5C" d="M548.4,11.4c0.7,0.2,6.3,0.8,7,0"/> <path stroke="#D41C5C" d="M564.8,6.6c0.9,2-2.8,10-2.4,11.1c0.4,1.1,7.7,2,11.2,0.4"/> <path stroke="#D41C5C" d="M564.4,6.9c0.4-0.3,10.2-1.8,10.8-2.4"/> <path stroke="#D41C5C" d="M564.4,11.4c0.7,0.2,6.3,0.8,7,0"/> <path stroke="#D41C5C" d="M578.1,5.9c1.2,0.3,13.1-1.8,14.8-1.4"/> <path stroke="#D41C5C" d="M585.5,4.8c0.3,1.1-4.7,11.8-4.7,13.1s1.1,2.4,1.1,2.4"/> <path stroke="#D41C5C" d="M605.1,5.9c1.2,0.3,13.1-1.8,14.8-1.4"/> <path stroke="#D41C5C" d="M612.5,4.8c0.3,1.1-4.7,11.8-4.7,13.1s1.1,2.4,1.1,2.4"/> <path stroke="#D41C5C" d="M628.4,4.7c-1.8,0.9-13,9.7-9.6,13.2s13.4-0.1,13.6-3.5s-4.5-8.6-4.5-8.6"/> <path stroke="#D41C5C" d="M651.7,5.9c0.4,1.4-2.4,13.4-2.4,13.4"/> <path stroke="#D41C5C" d="M661.9,5.2c1,1.9-2.2,11.8-1.9,14.1"/> <path stroke="#D41C5C" d="M650.5,16.4c1-1,10.6-3.6,10.6-3.6"/> <path stroke="#D41C5C" d="M666.8,19.2c0-1.4,5.2-12.7,8.5-13.8c0,0,5.3,11.5,2.3,14.2"/> <path stroke="#D41C5C" d="M671.6,15.8c1.4,0,8.3-1.9,9.6-2.8"/> <path stroke="#D41C5C" d="M685.6,5.9c0.5,1,2.1,13,2.1,13"/> <path stroke="#D41C5C" d="M687.9,18c0,0,6.6-12.1,8.9-12.9"/> <path stroke="#D41C5C" d="M702.8,6.6c0.9,2-2.8,10-2.4,11.1c0.4,1.1,7.7,2,11.2,0.4"/> <path stroke="#D41C5C" d="M702.4,6.9c0.4-0.3,10.2-1.8,10.8-2.4"/> <path stroke="#D41C5C" d="M702.4,11.4c0.7,0.2,6.3,0.8,7,0"/> </g> <path data-type="main" stroke="#D41C5C" stroke-width="7" d="M29,235c19-27,53-8,73,4c27,15,58,15,85,3c25-12,53-36,79-41c37-7,57,30,84,48c52,33,105-2,140-41c25-28,59-60,100-51c29,5,47,38,64,59c36,47,93,86,148,51c27-17,53-53,87-45c7,2,14,7,20,9"/> <g> <path stroke-width="7" d="M574.4,158.1c0.1,10,0.3,15.9,0.4,25.9"/> <path stroke-width="7" d="M567.5,178.4c2.8,2.4,5.6,4.9,8.4,7.3c0.6-3.7,2.9-7.2,6.1-9.2"/> <path stroke-width="7" d="M567.3,165.5c1.1-3.5,2.9-6.9,5.1-9.8c3,2.9,6.3,5.5,9.9,7.6"/> </g> <g> <text transform="matrix(1 0 0 1 364.6667 140.6665)" fill="#010101" font-family="'PermanentMarker'" font-size="31">this tiny life long frustration</text> <path d="M367.1,124.9c1.2,0.3,13.1-1.8,14.8-1.4"/> <path d="M374.5,123.8c0.3,1.1-4.7,11.8-4.7,13.1s1.1,2.4,1.1,2.4"/> <path d="M384.7,124.9c0.4,1.4-2.4,13.4-2.4,13.4"/> <path d="M394.9,124.2c1,1.9-2.2,11.8-1.9,14.1"/> <path d="M383.5,135.4c1-1,10.6-3.6,10.6-3.6"/> <path d="M403.4,125.6c-1.1,1.4-2.5,12.2-2.1,13.7"/> <path d="M422.1,123.5c-1.2-0.4-11,1.9-11.6,3.5s7.7,2.6,8.1,5.6s-6.9,6.2-7.9,5.8"/> <path d="M436.1,125.9c1.2,0.3,13.1-1.8,14.8-1.4"/> <path d="M443.5,124.8c0.3,1.1-4.7,11.8-4.7,13.1s1.1,2.4,1.1,2.4"/> <path d="M454.4,125.6c-1.1,1.4-2.5,12.2-2.1,13.7"/> <path d="M460.5,136.9c0-1.5,5.8-12.1,5.8-12.1"/> <path d="M465.6,127.2c0,1.4,0.3,9.9,3.5,10.1s5.1-13,5.1-13"/> <path d="M478.7,124.8c0,1.6,1.3,7.8,3.6,8.8"/> <path d="M487.9,124.8c-0.9,0.4-9.8,12.3-9.4,15.1"/> <path d="M505.9,123.7c0.1,1.4-4.5,11.3-3.8,13.7c0.7,2.3,7.5-1.5,11,0.3"/> <path d="M522.4,125.6c-1.1,1.4-2.5,12.2-2.1,13.7"/> <path d="M531.4,124.7c0.4,1.1-4.1,11-3.9,12.8s0.4,1.2,0.4,1.2"/> <path d="M528.1,126.3c0.4-0.2,10.7-4,12.9-2.9"/> <path d="M526.9,132.8c0.9,0.5,10.5-0.7,10.5-0.7"/> <path d="M544.8,126.6c0.9,2-2.8,10-2.4,11.1c0.4,1.1,7.7,2,11.2,0.4"/> <path d="M544.4,126.9c0.4-0.3,10.2-1.8,10.8-2.4"/> <path d="M544.4,131.4c0.7,0.2,6.3,0.8,7,0"/> <path d="M573.9,124.7c0.1,1.4-4.5,11.3-3.8,13.7c0.7,2.3,7.5-1.5,11,0.3"/> <path d="M596.4,124.7c-1.8,0.9-13,9.7-9.6,13.2s13.4-0.1,13.6-3.5s-4.5-8.6-4.5-8.6"/> <path d="M605.5,136.9c0-1.5,5.8-12.1,5.8-12.1"/> <path d="M610.6,127.2c0,1.4,0.3,9.9,3.5,10.1s5.1-13,5.1-13"/> <path d="M634.8,125.2c-3.9,1.2-12.4,9-10.4,12.2s14.9-0.8,15.5-2.1s-4-2.7-4-2.7"/> <path d="M659.4,124.7c0.4,1.1-4.1,11-3.9,12.8s0.4,1.2,0.4,1.2"/> <path d="M656.1,126.3c0.4-0.2,10.7-4,12.9-2.9"/> <path d="M654.9,132.8c0.9,0.5,10.5-0.7,10.5-0.7"/> <path d="M671.3,128.1c0.1,0.6-1.7,9.9-1.7,9.9"/> <path d="M672.4,129.6c0-1.1,4-5.6,4.7-5.7s5.4,4.2,3.9,5.7s-8.6,3.1-8.6,3.1s1.8,5.4,9.4,6.2"/> <path d="M687.1,127.8c-0.7,2-2,8.4,1.2,10.6s11.4-7.7,10.9-12.1"/> <path d="M715.1,124.5c-1.2-0.4-11,1.9-11.6,3.5s7.7,2.6,8.1,5.6s-6.9,6.2-7.9,5.8"/> <path d="M718.1,125.9c1.2,0.3,13.1-1.8,14.8-1.4"/> <path d="M725.5,124.8c0.3,1.1-4.7,11.8-4.7,13.1s1.1,2.4,1.1,2.4"/> <path d="M735.3,129.1c0.1,0.6-1.7,9.9-1.7,9.9"/> <path d="M736.4,130.6c0-1.1,4-5.6,4.7-5.7s5.4,4.2,3.9,5.7s-8.6,3.1-8.6,3.1s1.8,5.4,9.4,6.2"/> <path d="M748.8,139.2c0-1.4,5.2-12.7,8.5-13.8c0,0,5.3,11.5,2.3,14.2"/> <path d="M753.6,135.8c1.4,0,8.3-1.9,9.6-2.8"/> <path d="M766.1,125.9c1.2,0.3,13.1-1.8,14.8-1.4"/> <path d="M773.5,124.8c0.3,1.1-4.7,11.8-4.7,13.1s1.1,2.4,1.1,2.4"/> <path d="M784.4,124.6c-1.1,1.4-2.5,12.2-2.1,13.7"/> <path d="M800.4,124.7c-1.8,0.9-13,9.7-9.6,13.2s13.4-0.1,13.6-3.5s-4.5-8.6-4.5-8.6"/> <path d="M809.5,136.9c0-1.5,5.8-12.1,5.8-12.1"/> <path d="M814.6,127.2c0,1.4,0.3,9.9,3.5,10.1s5.1-13,5.1-13"/> </g> <path data-type="erase" stroke="transparent" stroke-width="120" d="M929.7,269.6c-161,22.7-324.5,26.9-486.4,12.4c-92.9-8.3-187.7-22.7-278.5-1.2c-38.2,9-81.2,23.6-114.4,2.7c-25.9-16.4-36-49.6-36.8-80.2c-0.8-30.7,5.5-61.3,3.2-91.9c-1.4-18.2-5.6-37.5,2.5-53.8c10-20.2,34.5-27.7,56.4-32.5c47.9-10.4,96.6-17.3,145.6-20.6C189.1,20.7,157,37,124.9,53.3C214.1,47,302.4,30.1,387.6,3.1c-39.4,12.6-81.7,27.2-105,61.4C413.6,14.2,589.2,2.7,729.2,11.4C516.8,52,299.3,172.3,95,243.5c65.3,21.9,140.5,13.2,198.4-24.2c32.7-21.1,59.3-50.3,90.3-74s69.2-42.1,107.7-36.4c-43.3,43.2-88.5,84.5-135.2,123.9c52.9,7.2,102.8-23.8,145.4-56s86.5-68.3,139.5-74c-36.6,40.9-77.8,77.7-122.6,109.4c27.9,13.1,61.5,3.2,87.3-13.7c25.8-16.9,46.8-40.1,72.3-57.3s116.7-29.1,145-17c-42.1,35.4-142.2,72-184.3,107.4c-8.5,7.2-17.9,17.7-13.5,27.9c4.3,10.2,18.4,10.7,29.3,9.4c84.3-10.1,185.3-50.2,263.3-83.4"/> </svg> 