<svg version="1.1" id="Layer_1" xmlns="http://www.w3.org/2000/svg" xmlns:xlink="http://www.w3.org/1999/xlink" x="0px" y="0px" viewBox="0 0 759 409.2" enable-background="new 0 0 759 409.2" xml:space="preserve"> <g> <line stroke-width="7" x1="182" y1="404.2" x2="182" y2="71.2"/> <line stroke-width="7" x1="6.5" y1="256.7" x2="374.5" y2="256.7"/> <polyline stroke-width="7" points="160,93 182.5,71 205,93 	"/> <polyline stroke-width="7" points="353,234 375,256.5 353,279 	"/> </g> <g> <text transform="matrix(1 0 0 1 160 21.0921)"><tspan x="0" y="0" fill="#010101" font-family="'PermanentMarker'" font-size="31">how good i think </tspan><tspan x="0" y="37.2" fill="#010101" font-family="'PermanentMarker'" font-size="31">i am at something</tspan></text> <path stroke-linejoin="bevel" d="M164.7,5.9c0.4,1.4-2.4,13.4-2.4,13.4"/> <path stroke-linejoin="bevel" d="M174.9,5.2c1,1.9-2.2,11.8-1.9,14.1"/> <path stroke-linejoin="bevel" d="M163.5,16.4c1-1,10.6-3.6,10.6-3.6"/> <path stroke-linejoin="bevel" d="M190.4,4.7c-1.8,0.9-13,9.7-9.6,13.2s13.4-0.1,13.6-3.5s-4.5-8.6-4.5-8.6"/> <path stroke-linejoin="bevel" d="M203.4,5.4c0.1,3.2-4.4,9.4-1.9,12.9s11.2-11.6,11.5-11.2s-1.6,11.2,2.2,11.5s4.6-8.9,7.2-13.6"/> <path stroke-linejoin="bevel" d="M247.8,5.2c-3.9,1.2-12.4,9-10.4,12.2s14.9-0.8,15.5-2.1s-4-2.7-4-2.7"/> <path stroke-linejoin="bevel" d="M267.4,4.7c-1.8,0.9-13,9.7-9.6,13.2s13.4-0.1,13.6-3.5s-4.5-8.6-4.5-8.6"/> <path stroke-linejoin="bevel" d="M286.4,4.7c-1.8,0.9-13,9.7-9.6,13.2s13.4-0.1,13.6-3.5s-4.5-8.6-4.5-8.6"/> <path stroke-linejoin="bevel" d="M296.9,7.6c0.3,1.8,0.9,7.7,0,11.2"/> <path stroke-linejoin="bevel" d="M297.8,4.8c2.2,0.3,9.2,4.1,9.8,6.2c0.6,2.2-7.2,7.4-8.7,7.8"/> <path stroke-linejoin="bevel" d="M326.4,6.6c-1.1,1.4-2.5,12.2-2.1,13.7"/> <path stroke-linejoin="bevel" d="M345.1,5.9c1.2,0.3,13.1-1.8,14.8-1.4"/> <path stroke-linejoin="bevel" d="M352.5,4.7c0.3,1.1-4.7,11.8-4.7,13.1s1.1,2.4,1.1,2.4"/> <path stroke-linejoin="bevel" d="M361.7,6.9c0.4,1.4-2.4,13.4-2.4,13.4"/> <path stroke-linejoin="bevel" d="M371.9,6.2c1,1.9-2.2,11.8-1.9,14.1"/> <path stroke-linejoin="bevel" d="M360.5,17.4c1-1,10.6-3.6,10.6-3.6"/> <path stroke-linejoin="bevel" d="M381.4,5.6c-1.1,1.4-2.5,12.2-2.1,13.7"/> <path stroke-linejoin="bevel" d="M386.5,17.9c0-1.5,5.8-12.1,5.8-12.1"/> <path stroke-linejoin="bevel" d="M391.6,8.2c0,1.4,0.3,9.9,3.5,10.1s5.1-13,5.1-13"/> <path stroke-linejoin="bevel" d="M409.9,4.3c-1.1,1.1-5.1,12.8-4.5,13.9s7.6-9.8,14.2-12.2"/> <path stroke-linejoin="bevel" d="M411.6,12.9c0.8,2.1,5.1,5.6,9.3,4.8"/> <path stroke-linejoin="bevel" d="M166.4,43.6c-1.1,1.4-2.5,12.2-2.1,13.7"/> <path stroke-linejoin="bevel" d="M183.8,56.2c0-1.4,5.2-12.7,8.5-13.8c0,0,5.3,11.5,2.3,14.2"/> <path stroke-linejoin="bevel" d="M188.6,52.8c1.4,0,8.3-1.9,9.6-2.8"/> <path stroke-linejoin="bevel" d="M201.4,55c0-1.6,5.4-12.9,5.8-12.1s0.9,6.9,3.1,7.1s8.9-6.5,10.5-7.1s-1.8,10.9-1.3,12.8"/> <path stroke-linejoin="bevel" d="M237.8,56.2c0-1.4,5.2-12.7,8.5-13.8c0,0,5.3,11.5,2.3,14.2"/> <path stroke-linejoin="bevel" d="M242.6,52.8c1.4,0,8.3-1.9,9.6-2.8"/> <path stroke-linejoin="bevel" d="M256.1,42.9c1.2,0.3,13.1-1.8,14.8-1.4"/> <path stroke-linejoin="bevel" d="M263.5,41.7c0.3,1.1-4.7,11.8-4.7,13.1s1.1,2.4,1.1,2.4"/> <path stroke-linejoin="bevel" d="M293.1,41.5c-1.2-0.4-11,1.9-11.6,3.5s7.7,2.6,8.1,5.6s-6.9,6.2-7.9,5.8"/> <path stroke-linejoin="bevel" d="M305.4,41.7c-1.8,0.9-13,9.7-9.6,13.2s13.4-0.1,13.6-3.5s-4.5-8.6-4.5-8.6"/> <path stroke-linejoin="bevel" d="M314.4,55c0-1.6,5.4-12.9,5.8-12.1s0.9,6.9,3.1,7.1s8.9-6.5,10.5-7.1s-1.8,10.9-1.3,12.8"/> <path stroke-linejoin="bevel" d="M341.8,43.6c0.9,2-2.8,10-2.4,11.1c0.4,1.1,7.7,2,11.2,0.4"/> <path stroke-linejoin="bevel" d="M341.4,43.9c0.4-0.3,10.2-1.8,10.8-2.4"/> <path stroke-linejoin="bevel" d="M341.4,48.4c0.7,0.2,6.3,0.8,7,0"/> <path stroke-linejoin="bevel" d="M356.1,42.9c1.2,0.3,13.1-1.8,14.8-1.4"/> <path stroke-linejoin="bevel" d="M363.5,41.7c0.3,1.1-4.7,11.8-4.7,13.1s1.1,2.4,1.1,2.4"/> <path stroke-linejoin="bevel" d="M373.7,42.9c0.4,1.4-2.4,13.4-2.4,13.4"/> <path stroke-linejoin="bevel" d="M383.9,42.2c1,1.9-2.2,11.8-1.9,14.1"/> <path stroke-linejoin="bevel" d="M372.5,53.4c1-1,10.6-3.6,10.6-3.6"/> <path stroke-linejoin="bevel" d="M392.4,42.6c-1.1,1.4-2.5,12.2-2.1,13.7"/> <path stroke-linejoin="bevel" d="M398.5,54.9c0-1.5,5.8-12.1,5.8-12.1"/> <path stroke-linejoin="bevel" d="M403.6,45.2c0,1.4,0.3,9.9,3.5,10.1s5.1-13,5.1-13"/> <path stroke-linejoin="bevel" d="M426.8,42.2c-3.9,1.2-12.4,9-10.4,12.2s14.9-0.8,15.5-2.1s-4-2.7-4-2.7"/> </g> <g> <text transform="matrix(1 0 0 1 385 245.5005)"><tspan x="0" y="0" fill="#010101" font-family="'PermanentMarker'" font-size="31">how good i think</tspan><tspan x="0" y="37.2" fill="#010101" font-family="'PermanentMarker'" font-size="31">people are at something</tspan></text> <path stroke-linejoin="bevel" d="M389.7,229.9c0.4,1.4-2.4,13.4-2.4,13.4"/> <path stroke-linejoin="bevel" d="M399.9,229.2c1,1.9-2.2,11.8-1.9,14.1"/> <path stroke-linejoin="bevel" d="M388.5,240.4c1-1,10.6-3.6,10.6-3.6"/> <path stroke-linejoin="bevel" d="M415.4,228.7c-1.8,0.9-13,9.7-9.6,13.2s13.4-0.1,13.6-3.5s-4.5-8.6-4.5-8.6"/> <path stroke-linejoin="bevel" d="M428.4,229.4c0.1,3.2-4.4,9.4-1.9,12.9s11.2-11.6,11.5-11.2s-1.6,11.2,2.2,11.5s4.6-8.9,7.2-13.6"/> <path stroke-linejoin="bevel" d="M472.8,229.2c-3.9,1.2-12.4,9-10.4,12.2s14.9-0.8,15.5-2.1s-4-2.7-4-2.7"/> <path stroke-linejoin="bevel" d="M492.4,228.7c-1.8,0.9-13,9.7-9.6,13.2s13.4-0.1,13.6-3.5s-4.5-8.6-4.5-8.6"/> <path stroke-linejoin="bevel" d="M511.4,228.7c-1.8,0.9-13,9.7-9.6,13.2s13.4-0.1,13.6-3.5s-4.5-8.6-4.5-8.6"/> <path stroke-linejoin="bevel" d="M521.9,231.6c0.3,1.8,0.9,7.7,0,11.2"/> <path stroke-linejoin="bevel" d="M522.8,228.8c2.2,0.3,9.2,4.1,9.8,6.2c0.6,2.2-7.2,7.4-8.7,7.8"/> <path stroke-linejoin="bevel" d="M551.4,230.6c-1.1,1.4-2.5,12.2-2.1,13.7"/> <path stroke-linejoin="bevel" d="M570.1,229.9c1.2,0.3,13.1-1.8,14.8-1.4"/> <path stroke-linejoin="bevel" d="M577.5,228.7c0.3,1.1-4.7,11.8-4.7,13.1s1.1,2.4,1.1,2.4"/> <path stroke-linejoin="bevel" d="M586.7,230.9c0.4,1.4-2.4,13.4-2.4,13.4"/> <path stroke-linejoin="bevel" d="M596.9,230.2c1,1.9-2.2,11.8-1.9,14.1"/> <path stroke-linejoin="bevel" d="M585.5,241.4c1-1,10.6-3.6,10.6-3.6"/> <path stroke-linejoin="bevel" d="M606.4,229.6c-1.1,1.4-2.5,12.2-2.1,13.7"/> <path stroke-linejoin="bevel" d="M611.5,241.9c0-1.5,5.8-12.1,5.8-12.1"/> <path stroke-linejoin="bevel" d="M616.6,232.2c0,1.4,0.3,9.9,3.5,10.1s5.1-13,5.1-13"/> <path stroke-linejoin="bevel" d="M634.9,228.3c-1.1,1.1-5.1,12.8-4.5,13.9s7.6-9.8,14.2-12.2"/> <path stroke-linejoin="bevel" d="M636.6,236.9c0.8,2.1,5.1,5.6,9.3,4.8"/> <path stroke-linejoin="bevel" d="M388,281.3c0.4-0.6,1.5-11.7,4.2-13.7s8.7,0.6,7.7,3.4s-7.1,4.6-11.5,3.6"/> <path stroke-linejoin="bevel" d="M405.8,268.6c0.9,2-2.8,10-2.4,11.1c0.4,1.1,7.7,2,11.2,0.4"/> <path stroke-linejoin="bevel" d="M405.4,268.9c0.4-0.3,10.2-1.8,10.8-2.4"/> <path stroke-linejoin="bevel" d="M405.4,273.4c0.7,0.2,6.3,0.8,7,0"/> <path stroke-linejoin="bevel" d="M429.4,266.7c-1.8,0.9-13,9.7-9.6,13.2s13.4-0.1,13.6-3.5s-4.5-8.6-4.5-8.6"/> <path stroke-linejoin="bevel" d="M439,280.3c0.4-0.6,1.5-11.7,4.2-13.7s8.7,0.6,7.7,3.4s-7.1,4.6-11.5,3.6"/> <path stroke-linejoin="bevel" d="M458.9,265.7c0.1,1.4-4.5,11.3-3.8,13.7s7.5-1.5,11,0.3"/> <path stroke-linejoin="bevel" d="M473.8,268.6c0.9,2-2.8,10-2.4,11.1c0.4,1.1,7.7,2,11.2,0.4"/> <path stroke-linejoin="bevel" d="M473.4,268.9c0.4-0.3,10.2-1.8,10.8-2.4"/> <path stroke-linejoin="bevel" d="M473.4,273.4c0.7,0.2,6.3,0.8,7,0"/> <path stroke-linejoin="bevel" d="M497.8,280.2c0-1.4,5.2-12.7,8.5-13.8c0,0,5.3,11.5,2.3,14.2"/> <path stroke-linejoin="bevel" d="M502.6,276.8c1.4,0,8.3-1.9,9.6-2.8"/> <path stroke-linejoin="bevel" d="M518.3,270.1c0.1,0.6-1.7,9.9-1.7,9.9"/> <path stroke-linejoin="bevel" d="M519.4,271.6c0-1.1,4-5.6,4.7-5.7s5.4,4.2,3.9,5.7s-8.6,3.1-8.6,3.1s1.8,5.4,9.4,6.2"/> <path stroke-linejoin="bevel" d="M535.8,268.6c0.9,2-2.8,10-2.4,11.1c0.4,1.1,7.7,2,11.2,0.4"/> <path stroke-linejoin="bevel" d="M535.4,268.9c0.4-0.3,10.2-1.8,10.8-2.4"/> <path stroke-linejoin="bevel" d="M535.4,273.4c0.7,0.2,6.3,0.8,7,0"/> <path stroke-linejoin="bevel" d="M560.8,280.2c0-1.4,5.2-12.7,8.5-13.8c0,0,5.3,11.5,2.3,14.2"/> <path stroke-linejoin="bevel" d="M565.6,276.8c1.4,0,8.3-1.9,9.6-2.8"/> <path stroke-linejoin="bevel" d="M579.1,266.9c1.2,0.3,13.1-1.8,14.8-1.4"/> <path stroke-linejoin="bevel" d="M586.5,265.7c0.3,1.1-4.7,11.8-4.7,13.1s1.1,2.4,1.1,2.4"/> <path stroke-linejoin="bevel" d="M616.1,265.5c-1.2-0.4-11,1.9-11.6,3.5s7.7,2.6,8.1,5.6s-6.9,6.2-7.9,5.8"/> <path stroke-linejoin="bevel" d="M628.4,265.7c-1.8,0.9-13,9.7-9.6,13.2s13.4-0.1,13.6-3.5s-4.5-8.6-4.5-8.6"/> <path stroke-linejoin="bevel" d="M637.4,279c0-1.6,5.4-12.9,5.8-12.1s0.9,6.9,3.1,7.1s8.9-6.5,10.5-7.1s-1.8,10.9-1.3,12.8"/> <path stroke-linejoin="bevel" d="M664.8,267.6c0.9,2-2.8,10-2.4,11.1c0.4,1.1,7.7,2,11.2,0.4"/> <path stroke-linejoin="bevel" d="M664.4,267.9c0.4-0.3,10.2-1.8,10.8-2.4"/> <path stroke-linejoin="bevel" d="M664.4,272.4c0.7,0.2,6.3,0.8,7,0"/> <path stroke-linejoin="bevel" d="M679.1,266.9c1.2,0.3,13.1-1.8,14.8-1.4"/> <path stroke-linejoin="bevel" d="M686.5,265.7c0.3,1.1-4.7,11.8-4.7,13.1s1.1,2.4,1.1,2.4"/> <path stroke-linejoin="bevel" d="M696.7,266.9c0.4,1.4-2.4,13.4-2.4,13.4"/> <path stroke-linejoin="bevel" d="M706.9,266.2c1,1.9-2.2,11.8-1.9,14.1"/> <path stroke-linejoin="bevel" d="M695.5,277.4c1-1,10.6-3.6,10.6-3.6"/> <path stroke-linejoin="bevel" d="M715.4,266.6c-1.1,1.4-2.5,12.2-2.1,13.7"/> <path stroke-linejoin="bevel" d="M721.5,278.9c0-1.5,5.8-12.1,5.8-12.1"/> <path stroke-linejoin="bevel" d="M726.6,269.2c0,1.4,0.3,9.9,3.5,10.1s5.1-13,5.1-13"/> <path stroke-linejoin="bevel" d="M749.8,266.2c-3.9,1.2-12.4,9-10.4,12.2s14.9-0.8,15.5-2.1s-4-2.7-4-2.7"/> </g> <g> <text transform="matrix(1 0 0 1 205.0884 145.7045)" fill="#F79226" font-family="'PermanentMarker'" font-size="31">how good i actually am</text> <path stroke="#F79226" stroke-linejoin="bevel" d="M211.7,129.9c0.4,1.4-2.4,13.4-2.4,13.4"/> <path stroke="#F79226" stroke-linejoin="bevel" d="M221.9,129.2c1,1.9-2.2,11.8-1.9,14.1"/> <path stroke="#F79226" stroke-linejoin="bevel" d="M210.5,140.4c1-1,10.6-3.6,10.6-3.6"/> <path stroke="#F79226" stroke-linejoin="bevel" d="M237.4,128.7c-1.8,0.9-13,9.7-9.6,13.2s13.4-0.1,13.6-3.5s-4.5-8.6-4.5-8.6"/> <path stroke="#F79226" stroke-linejoin="bevel" d="M250.4,129.4c0.1,3.2-4.4,9.4-1.9,12.9s11.2-11.6,11.5-11.2s-1.6,11.2,2.2,11.5s4.6-8.9,7.2-13.6"/> <path stroke="#F79226" stroke-linejoin="bevel" d="M294.8,129.2c-3.9,1.2-12.4,9-10.4,12.2s14.9-0.8,15.5-2.1s-4-2.7-4-2.7"/> <path stroke="#F79226" stroke-linejoin="bevel" d="M314.4,128.7c-1.8,0.9-13,9.7-9.6,13.2s13.4-0.1,13.6-3.5s-4.5-8.6-4.5-8.6"/> <path stroke="#F79226" stroke-linejoin="bevel" d="M333.4,128.7c-1.8,0.9-13,9.7-9.6,13.2s13.4-0.1,13.6-3.5s-4.5-8.6-4.5-8.6"/> <path stroke="#F79226" stroke-linejoin="bevel" d="M343.9,131.6c0.3,1.8,0.9,7.7,0,11.2"/> <path stroke="#F79226" stroke-linejoin="bevel" d="M344.8,128.8c2.2,0.3,9.2,4.1,9.8,6.2c0.6,2.2-7.2,7.4-8.7,7.8"/> <path stroke="#F79226" stroke-linejoin="bevel" d="M373.4,130.6c-1.1,1.4-2.5,12.2-2.1,13.7"/> <path stroke="#F79226" stroke-linejoin="bevel" d="M390.8,144.2c0-1.4,5.2-12.7,8.5-13.8c0,0,5.3,11.5,2.3,14.2"/> <path stroke="#F79226" stroke-linejoin="bevel" d="M395.6,140.8c1.4,0,8.3-1.9,9.6-2.8"/> <path stroke="#F79226" stroke-linejoin="bevel" d="M419.6,130.2c-3.5,0.7-12.2,5.9-10.2,10.6c2.1,4.7,10.2,3.1,10.2,3.1"/> <path stroke="#F79226" stroke-linejoin="bevel" d="M425.1,130.9c1.2,0.3,13.1-1.8,14.8-1.4"/> <path stroke="#F79226" stroke-linejoin="bevel" d="M432.5,129.7c0.3,1.1-4.7,11.8-4.7,13.1s1.1,2.4,1.1,2.4"/> <path stroke="#F79226" stroke-linejoin="bevel" d="M442.1,132.8c-0.7,2-2,8.4,1.2,10.6s11.4-7.7,10.9-12.1"/> <path stroke="#F79226" stroke-linejoin="bevel" d="M456.8,144.2c0-1.4,5.2-12.7,8.5-13.8c0,0,5.3,11.5,2.3,14.2"/> <path stroke="#F79226" stroke-linejoin="bevel" d="M461.6,140.8c1.4,0,8.3-1.9,9.6-2.8"/> <path stroke="#F79226" stroke-linejoin="bevel" d="M479.9,129.7c0.1,1.4-4.5,11.3-3.8,13.7c0.7,2.3,7.5-1.5,11,0.3"/> <path stroke="#F79226" stroke-linejoin="bevel" d="M495.9,129.7c0.1,1.4-4.5,11.3-3.8,13.7c0.7,2.3,7.5-1.5,11,0.3"/> <path stroke="#F79226" stroke-linejoin="bevel" d="M508.7,129.7c0,1.6,1.3,7.8,3.6,8.8"/> <path stroke="#F79226" stroke-linejoin="bevel" d="M517.9,129.7c-0.9,0.4-9.8,12.3-9.4,15.1"/> <path stroke="#F79226" stroke-linejoin="bevel" d="M530.8,144.2c0-1.4,5.2-12.7,8.5-13.8c0,0,5.3,11.5,2.3,14.2"/> <path stroke="#F79226" stroke-linejoin="bevel" d="M535.6,140.8c1.4,0,8.3-1.9,9.6-2.8"/> <path stroke="#F79226" stroke-linejoin="bevel" d="M548.4,143c0-1.6,5.4-12.9,5.8-12.1s0.9,6.9,3.1,7.1s8.9-6.5,10.5-7.1c1.6-0.6-1.8,10.9-1.3,12.8"/> </g> <path data-type="main" stroke="#F79226" stroke-width="7" d="M183,255c14-5,30-24,24-39c-15-36-55-3-62,19c-20,59,70,81,99,32c22-36,1-65-34-80c-23-10-63-20-83-1c-17,16-21,52-20,74c3,38,40,67,76,75c69,16,127-61,128-125c2-80-110-125-178-117c-72,9-81,98-78,157c3,62,54,104,113,113c76,11,148-36,178-106"/> <path data-type="erase" stroke="transparent" stroke-width="120" stroke-linejoin="bevel" d="M454,10.7c-43.1,5-86.6,0-129.9-0.2s-88.4,4.9-125.3,27.8c-23,14.3-41.5,34.7-59.7,54.8c-33.6,37.3-67.2,74.5-100.8,111.8C20.5,224.7,2,245.7-4,271.6c24.4,3.4,44.6-17.8,60.1-37c40.5-49.8,82.4-99.3,133.7-137.8s113.5-65.5,177.6-64.4c8.6,0.2,18.8,1.9,22.4,9.7c5.2,11.1-7.5,21.9-18.2,27.9c-99.1,54.6-192.9,118.7-279.9,191.1c-13.4,11.2-28,28.3-20,43.8c5.4,10.5,19.5,14,30.9,11c11.4-3,20.9-10.9,30-18.4c72.1-59.6,150.7-111.2,233.9-153.8c-43.1,78.9-125.7,126-195.6,182.7c-9.4,7.7-19,16-23.5,27.3c-4.5,11.3-2.1,26.3,8.5,32.3c14.2,8.1,31.2-3.9,43.1-15.2c89.1-84.4,178.2-168.8,267.4-253.1c14.1,31.9-5.8,68.4-28.8,94.6s-51.2,51.5-57,85.9c27.5,3.9,54-13.4,71.4-35.1s28.2-47.7,43.6-70.8s37.4-44.4,64.9-47.9c-27.5,41.8-55.7,85.6-61.3,135.3c79.5-29.9,166.5-39.4,250.6-27.5c4.5,0.6,9.5,1.7,11.8,5.5c2.8,4.4,0.3,10.6-3.9,13.7s-9.6,3.9-14.8,4.6c-24.8,3.4-49.6,6.7-74.5,10.1c-17.1,2.3-35.7,4.4-50.7-4.2c-15-8.6-21.7-32.6-7.9-43.1"/> </svg> 