<svg version="1.1" id="Layer_1" xmlns="http://www.w3.org/2000/svg" xmlns:xlink="http://www.w3.org/1999/xlink" x="0px" y="0px" viewBox="0 0 709.5 379" enable-background="new 0 0 709.5 379" xml:space="preserve"> <g> <path d="M11.4,24c0.5-1.2,2.4-13.5,3.9-14.6c2.3-1.6,12.6,1.3,6,5.8c-5,3.3-10.5,0.2-10.5,0.2"/> <path d="M28.9,13.2c0.1,0.6-1.8,10-1.8,10"/> <path d="M39.6,23.8C33.7,24,30,18.6,30,18.6s6.9-2.1,7.7-3.6c0.9-1.7-1.5-5.5-2.9-5.9c-1.4-0.4-5.2,5.3-5.2,5.3"/> <path d="M54.3,9c0,0-14.7,9-9.7,13.2c4.6,3.9,12.7-1.2,12.9-3.1c0.2-1.9-1.8-6.8-4.3-8.9"/> <path d="M63.2,11.8c1,3.6,0.7,6.5-0.6,12.1"/> <path d="M62.6,23.9C78.7,18.4,74.3,13,63.2,9"/> <path d="M79.3,11.7c-0.4,0.5-2.7,9.4,2.6,11.2c3.8,1.3,10.5-9,9.6-13.3"/> <path d="M106.2,9.7c-9.1,0.7-17.8,14.4-0.4,13.2"/> <path d="M111.8,10.1c0.6,0.3,14.7-2.4,16.3-1.8"/> <path d="M119.1,8.7c1.6,2.4-5.9,12.8-2.3,15.9"/> <path d="M130.4,9.6c-0.4,0.5-2.5,11.2-1.2,14.6"/> <path d="M139.1,9.6c0.6,0.7,0.5,13.8,1.9,14.1c0.3,0.1,4.6-11.5,9.6-14.8"/> <path d="M155.4,8.6c-0.4,0.5-2.5,11.2-1.2,14.6"/> <path d="M160.8,10.1c0.6,0.3,14.7-2.4,16.3-1.8"/> <path d="M168.1,8.7c1.6,2.4-5.9,12.8-2.3,15.9"/> <path d="M181.1,17.9c-2.6-0.7-4.3-7.4-4.1-8.1"/> <path d="M186.8,9.2c-1.8,1-9.8,15.6-9.8,15.6"/> <polyline stroke-width="7" points="9,70.2 31.5,48.2 54,70.2 	"/> <line stroke-width="7" x1="31" y1="48" x2="31" y2="373"/>	 </g> <g> <line stroke-width="7" x1="7.5" y1="233.5" x2="698.5" y2="233.5"/> <polyline stroke-width="7" points="677,211.2 699,233.7 677,256.2 	"/> <path d="M634.8,178.1c0.6,0.3,14.7-2.4,16.3-1.8"/> <path d="M642.1,176.7c1.6,2.4-5.9,12.8-2.3,15.9"/> <path d="M653.4,177.6c-0.4,0.5-2.5,11.2-1.2,14.6"/> <path d="M658.6,192.7c-0.2-1.2,4.8-15.5,6.6-14.9c2.2,0.7-0.6,7.8,3.4,8.2c3.9,0.4,8.6-7.7,9.8-7.4c1.6,0.4-1.2,12.3-1.8,13.7"/> <path d="M695.9,191.1c0,0-9.3,3.2-10.4,0.3c-1.1-2.9,3.6-9.2,2.8-10.6"/> <path d="M697.6,177.5c0,0-10.8,1.4-11,2.6"/> <path d="M687,185c0,0,6.6,0.2,7.3-0.4"/> </g> <g> <line stroke-width="7" x1="180" y1="226" x2="180" y2="242"/> <path d="M161.2,255.5c0.1-0.8-1.1-4.1-3.7-3.6s-4.9,3.9-0.7,9.4c4.2,5.4,5.6,10.6-1.6,7.8s8.9-10.5,10.8-12.9s-1.4-4.3-1.4-4.3"/> <path d="M169.1,269.8c0,0,4.3-11.2,8.8-13.6c0,0,5.6,12.6,2,14.5"/> <path d="M174.6,266.5c0,0,4.9-0.1,9-2.1"/> <path d="M186.6,270.7c-0.2-1.2,4.8-15.5,6.6-14.9c2.2,0.7-0.6,7.8,3.4,8.2c3.9,0.4,8.6-7.7,9.8-7.4c1.6,0.4-1.2,12.3-1.8,13.7"/> </g> <g> <line stroke-width="7" x1="353" y1="226" x2="353" y2="242"/> <path d="M323.7,253.4c0,0,2.5,4.8-1.8,16.2"/> <path d="M332.4,253.6c1-0.4,9.8-1.9,11.4,1.4s-16.4,10.2-11.8,13.5s14.9-0.9,14.9-0.9"/> <path d="M351.4,271c0.5-1.2,2.4-13.5,3.9-14.6c2.3-1.6,12.6,1.3,6,5.8c-5,3.3-10.5,0.2-10.5,0.2"/> <path d="M365.6,271.7c-0.2-1.2,4.8-15.5,6.6-14.9c2.2,0.7-0.6,7.8,3.4,8.2c3.9,0.4,8.6-7.7,9.8-7.4c1.6,0.4-1.2,12.3-1.8,13.7"/> </g> <g> <line stroke-width="7" x1="526" y1="226" x2="526" y2="242"/> <path d="M508.2,255.5c0.1-0.8-1.1-4.1-3.7-3.6s-4.9,3.9-0.7,9.4c4.2,5.4,5.6,10.6-1.6,7.8s8.9-10.5,10.8-12.9s-1.4-4.3-1.4-4.3"/> <path d="M517.4,271c0.5-1.2,2.4-13.5,3.9-14.6c2.3-1.6,12.6,1.3,6,5.8c-5,3.3-10.5,0.2-10.5,0.2"/> <path d="M531.6,271.7c-0.2-1.2,4.8-15.5,6.6-14.9c2.2,0.7-0.6,7.8,3.4,8.2c3.9,0.4,8.6-7.7,9.8-7.4c1.6,0.4-1.2,12.3-1.8,13.7"/> </g> <path data-type="main" stroke="#C1282D" stroke-width="7" d="M31,234.2c0-9,5-15,12-10c4,2,1,13,4,17c19,17,18-19,32-19c12,0,10,35,27,22c10-8,6-38,26-26c4,3,5,13,9,16c8,5,18,2,27,1c11-1,22-2,33-2c23,1,44,2,67,1c30-2,49,4,72-18c18-18,36-46,65-30s33,61,70,63c47,2,53-55,65-91c9-29,23-86,65-77c40,9,49,49,64,80"/> <g> <path d="M159.8,103.1c0.6,0.3,14.7-2.4,16.3-1.8"/> <path d="M167.1,101.7c1.6,2.4-5.9,12.8-2.3,15.9"/> <path d="M177,103.3c0.2,0.7-2.3,13.6-2.3,13.6"/> <path d="M174.7,116.9c0,0,1.1-4.8,6.4-5.4c4.1-0.4,5.2-2,5.3-2.6c0.1-0.6,1.1-7,1.1-7"/> <path d="M185.2,116.4c0,0,2.4-13.8,2.3-14.5"/> <path d="M196.4,102.6c-0.4,0.5-2.5,11.2-1.2,14.6"/> <path d="M214.3,102c-1.6-1-12.1,1.8-12.2,3.4c-0.1,1.6,8.4,1.7,9,5.2c0.5,2.9-6.9,6.4-8.3,5.7"/> <path stroke-width="7" d="M141.2,109.1c-18,9-9,39,3,51c28.5,28.5,85.5,15,105,55.5"/> </g> <g> <path d="M232.4,106.5c-0.2,3.9-2.6,10.2-2.6,10.2"/> <path d="M232.4,116.6c0,0,8.4-0.3,9.3-4.4c0.7-3.6-7.7-3.4-7.7-3.4s6.8-2,6.2-5.9c-0.6-3.9-11.2,0.1-11.8,0.5"/> <path d="M256.9,115.1c0,0-9.3,3.2-10.4,0.3c-1.1-2.9,3.6-9.2,2.8-10.6"/> <path d="M258.6,101.5c0,0-10.8,1.4-11,2.6"/> <path d="M248,109c0,0,6.6,0.2,7.3-0.4"/> <path d="M272.2,102.7c-9.1,0.7-17.8,14.4-0.4,13.2"/> <path d="M277.1,115.8c0,0,4.3-11.2,8.8-13.6c0,0,5.6,12.6,2,14.5"/> <path d="M282.6,112.5c0,0,4.9-0.1,9-2.1"/> <path d="M297.3,104.7c-0.4,0.5-2.7,9.4,2.6,11.2c3.8,1.3,10.5-9,9.6-13.3"/> <path d="M325.3,102c-1.6-1-12.1,1.8-12.2,3.4c-0.1,1.6,8.4,1.7,9,5.2c0.5,2.9-6.9,6.4-8.3,5.7"/> <path d="M338.9,115.1c0,0-9.3,3.2-10.4,0.3c-1.1-2.9,3.6-9.2,2.8-10.6"/> <path d="M340.6,101.5c0,0-10.8,1.4-11,2.6"/> <path d="M330,109c0,0,6.6,0.2,7.3-0.4"/> <path d="M366.3,102c0,0-14.7,9-9.7,13.2c4.6,3.9,12.7-1.2,12.9-3.1c0.2-1.9-1.8-6.8-4.3-8.9"/> <path d="M375.9,117.5c-0.9-0.9,2.8-14.1,2.8-14.1"/> <path d="M388.8,101.5c-2.7-0.9-13.1,2.6-13.1,2.6"/> <path d="M373.3,110.5c0.4,0.6,11.6-0.3,11.6-0.3"/> <path d="M399.8,103.1c0.6,0.3,14.7-2.4,16.3-1.8"/> <path d="M407.1,101.7c1.6,2.4-5.9,12.8-2.3,15.9"/> <path d="M418,103.3c0.2,0.7-2.3,13.6-2.3,13.6"/> <path d="M415.7,116.9c0,0,1.1-4.8,6.4-5.4c4.1-0.4,5.2-2,5.3-2.6c0.1-0.6,1.1-7,1.1-7"/> <path d="M426.2,116.4c0,0,2.4-13.8,2.3-14.5"/> <path d="M432.1,115.8c0,0,4.3-11.2,8.8-13.6c0,0,5.6,12.6,2,14.5"/> <path d="M437.6,112.5c0,0,4.9-0.1,9-2.1"/> <path d="M448.8,103.1c0.6,0.3,14.7-2.4,16.3-1.8"/> <path d="M456.1,101.7c1.6,2.4-5.9,12.8-2.3,15.9"/> <path stroke-width="7" d="M448.7,82.1c30-15,70.5-19.5,97.5,1.5"/> </g> <path data-type="erase" stroke="transparent" stroke-width="120" d="M117.5-51.2c-43.1,35-94.4,59-136.3,95.3s-74.9,91.3-62.8,145.5C37.3,121.7,152.3,47,262.7-34.1C180.6,100.4,54.8,207.1-10,350.8C139.6,233.2,250.3,68.2,412.3-31.5c16.7-10.3,34.8-20,54.3-20.2C455.2-10,420.1,20,388.2,49.2C252.5,173.4,145.4,328.8,77.6,499.8c41.1-24.9,74.5-60.5,106.4-96.6C317.1,252.5,432.4,86,574.1-56.7c-5.1,36.4-27.1,67.7-46.8,98.8c-76.5,120.7-126.1,261.5-121.7,404.3c0.2,6.9,0.9,14.5,5.9,19.2c6,5.5,15.9,4.4,22.5-0.5s10.5-12.3,14.1-19.6C521.4,297,548.4,125.8,642.8-10.3c9.7-13.9,24-29,40.5-25.2c-32.1,107.1-64,215.4-71.2,327c-1.9,29.6-1.9,60,7.2,88.2s28.8,54.4,56.5,64.9c13.9-84,8.6-169.7,11.5-254.8c2.9-85,14.9-172.7,59.2-245.4"/> </svg> 