<svg version="1.1" id="Layer_1" xmlns="http://www.w3.org/2000/svg" xmlns:xlink="http://www.w3.org/1999/xlink" x="0px" y="0px" viewBox="0 0 743.3 315.7" enable-background="new 0 0 743.3 315.7" xml:space="preserve"> <g> <line stroke-width="7" x1="5.7" y1="195.5" x2="737.7" y2="195.5"/> <line stroke-width="7" x1="29.2" y1="311" x2="29.2" y2="37"/> <polyline stroke-width="7" points="715.7,173.3 737.7,195.8 715.7,218.3 	"/> <polyline stroke-width="7" points="6.7,59.3 29.2,37.3 51.7,59.3 	"/> </g> <g> <text transform="matrix(1 0 0 1 2.7257 21.5118)" fill="#010101" font-family="'PermanentMarker'" font-size="31">productivity</text> <path d="M6.2,20.2C6.7,19,8.6,6.6,10.1,5.6c2.3-1.6,12.6,1.3,6,5.8c-5,3.3-10.5,0.2-10.5,0.2"/> <path d="M23.6,9.4c0.1,0.6-1.8,10-1.8,10"/> <path d="M34.3,20c-5.9,0.2-9.5-5.3-9.5-5.3s6.9-2.1,7.7-3.6c0.9-1.7-1.5-5.5-2.9-5.9c-1.4-0.4-5.2,5.3-5.2,5.3"/> <path d="M48,5.1c0,0-14.7,9-9.7,13.2c4.6,3.9,12.7-1.2,12.9-3.1c0.2-1.9-1.8-6.8-4.3-8.9"/> <path d="M57.9,8c1,3.6,0.7,6.5-0.6,12.1"/> <path d="M57.3,20c16.1-5.5,11.7-10.9,0.6-14.9"/> <path d="M75,7.9c-0.4,0.5-2.7,9.4,2.6,11.2c3.8,1.3,10.5-9,9.6-13.3"/> <path d="M100.9,5.8c-9.1,0.7-17.8,14.4-0.4,13.2"/> <path d="M106.5,6.2c0.6,0.3,14.7-2.4,16.3-1.8"/> <path d="M113.9,4.9c1.6,2.4-5.9,12.8-2.3,15.9"/> <path d="M124.1,4.7c-0.4,0.5-2.5,11.2-1.2,14.6"/> <path d="M131.8,5.7c0.6,0.7,0.5,13.8,1.9,14.1c0.3,0.1,4.6-11.5,9.6-14.8"/> <path d="M150.1,4.7c-0.4,0.5-2.5,11.2-1.2,14.6"/> <path d="M155.5,6.2c0.6,0.3,14.7-2.4,16.3-1.8"/> <path d="M162.9,4.9c1.6,2.4-5.9,12.8-2.3,15.9"/> <path d="M176.8,14c-2.6-0.7-4.3-7.4-4.1-8.1"/> <path d="M182.5,5.4c-1.8,1-9.8,15.6-9.8,15.6"/> </g> <g> <text transform="matrix(1 0 0 1 309.5431 250.7521)" fill="#010101" font-family="'PermanentMarker'" font-size="31">all the people in the world</text> <path d="M311.8,248.9c0,0,4.3-11.2,8.8-13.6c0,0,5.6,12.6,2,14.5"/> <path d="M317.3,245.6c0,0,4.9-0.1,9-2.1"/> <path d="M334.3,235.9c0.5,1.3-4.7,12.2-3.8,13.8c0.9,1.5,9.1-1.7,11.4,0"/> <path d="M350.3,235.9c0.5,1.3-4.7,12.2-3.8,13.8c0.9,1.5,9.1-1.7,11.4,0"/> <path d="M374.5,236.2c0.6,0.3,14.7-2.4,16.3-1.8"/> <path d="M381.9,234.9c1.6,2.4-5.9,12.8-2.3,15.9"/> <path d="M392.7,235.4c0.2,0.7-2.3,13.6-2.3,13.6"/> <path d="M390.4,249c0,0,1.1-4.8,6.4-5.4c4.1-0.4,5.2-2,5.3-2.6c0.1-0.6,1.1-7,1.1-7"/> <path d="M401,248.6c0,0,2.4-13.8,2.3-14.5"/> <path d="M419.7,247.2c0,0-9.3,3.2-10.4,0.3c-1.1-2.9,3.6-9.2,2.8-10.6"/> <path d="M421.3,233.7c0,0-10.8,1.4-11,2.6"/> <path d="M410.7,241.2c0,0,6.6,0.2,7.3-0.4"/> <path d="M436.2,249.2c0.5-1.2,2.4-13.5,3.9-14.6c2.3-1.6,12.6,1.3,6,5.8c-5,3.3-10.5,0.2-10.5,0.2"/> <path d="M462.7,247.2c0,0-9.3,3.2-10.4,0.3c-1.1-2.9,3.6-9.2,2.8-10.6"/> <path d="M464.3,233.7c0,0-10.8,1.4-11,2.6"/> <path d="M453.7,241.2c0,0,6.6,0.2,7.3-0.4"/> <path d="M478,234.1c0,0-14.7,9-9.7,13.2c4.6,3.9,12.7-1.2,12.9-3.1c0.2-1.9-1.8-6.8-4.3-8.9"/> <path d="M487.2,249.2c0.5-1.2,2.4-13.5,3.9-14.6c2.3-1.6,12.6,1.3,6,5.8c-5,3.3-10.5,0.2-10.5,0.2"/> <path d="M506.3,233.9c0.5,1.3-4.7,12.2-3.8,13.8c0.9,1.5,9.1-1.7,11.4,0"/> <path d="M529.7,247.2c0,0-9.3,3.2-10.4,0.3c-1.1-2.9,3.6-9.2,2.8-10.6"/> <path d="M531.3,233.7c0,0-10.8,1.4-11,2.6"/> <path d="M520.7,241.2c0,0,6.6,0.2,7.3-0.4"/> <path d="M551.1,234.7c-0.4,0.5-2.5,11.2-1.2,14.6"/> <path d="M556.8,248c-0.2-0.9,5.3-13.4,5.3-13.4"/> <path d="M562.1,234.6c-0.8,2,0,14.6,3.8,12.9c3.5-1.6,3.5-12.4,4.5-13"/> <path d="M585.5,235.2c0.6,0.3,14.7-2.4,16.3-1.8"/> <path d="M592.9,233.9c1.6,2.4-5.9,12.8-2.3,15.9"/> <path d="M603.7,235.4c0.2,0.7-2.3,13.6-2.3,13.6"/> <path d="M601.4,249c0,0,1.1-4.8,6.4-5.4c4.1-0.4,5.2-2,5.3-2.6c0.1-0.6,1.1-7,1.1-7"/> <path d="M612,248.6c0,0,2.4-13.8,2.3-14.5"/> <path d="M630.7,247.2c0,0-9.3,3.2-10.4,0.3c-1.1-2.9,3.6-9.2,2.8-10.6"/> <path d="M632.3,233.7c0,0-10.8,1.4-11,2.6"/> <path d="M621.7,241.2c0,0,6.6,0.2,7.3-0.4"/> <path d="M659.9,236.9c-3.8,9.8-11.1,12.8-11.7,11.2c-0.6-1.6,2-12.2,2.7-12.7"/> <path d="M659.9,236.9c-0.9,3.3-0.7,12.4,2.5,11.6c3.8-0.9,6.1-11.9,7.5-12.8"/> <path d="M683,234.1c0,0-14.7,9-9.7,13.2c4.6,3.9,12.7-1.2,12.9-3.1c0.2-1.9-1.8-6.8-4.3-8.9"/> <path d="M693.6,238.4c0.1,0.6-1.8,10-1.8,10"/> <path d="M704.3,249c-5.9,0.2-9.5-5.3-9.5-5.3s6.9-2.1,7.7-3.6c0.9-1.7-1.5-5.5-2.9-5.9c-1.4-0.4-5.2,5.3-5.2,5.3"/> <path d="M712.3,234.9c0.5,1.3-4.7,12.2-3.8,13.8c0.9,1.5,9.1-1.7,11.4,0"/> <path d="M725.9,237c1,3.6,0.7,6.5-0.6,12.1"/> <path d="M725.3,249c16.1-5.5,11.7-10.9,0.6-14.9"/> </g> <path data-type="main" stroke="#488EB1" stroke-width="7" d="M49.3,103.9c48.4,3.4, 96.4,1.4,144.8-1c3.6-0.1,5.7-0.1,5.7-0.1s-3.7,0.1,0,0c-0.3,3.7-0.4,7.3-0.5,10.9c-1.6,54.5,12.4,107,25.5, 159.5c-2.8-45.8-3.2-12.1,0,0c-3-56,6-110,19-167c0,0,1-1,2-1c14,3,28,8,42,7c8-1,16-5,24-6c36-3,71-4,107-4c8,0,16,2,24,3c4,1,9,2,13,3c19,2,37-5,56-9c13-2,24-2,37,1c6,1,13,1,19-2c22-13,47-19,69.7-9.1"/> <g> <text transform="matrix(1 0 0 1 122.9787 258.1629)" fill="#010101" font-family="'PermanentMarker'" font-size="30.7418">me</text> <path stroke-width="7" d="M169.1,263c11.1,9.9,27,14,41.5,10.8"/> <path d="M124.3,255.9c-0.2-1.2,4.8-15.5,6.6-14.9c2.2,0.7-0.6,7.8,3.4,8.2c3.9,0.4,8.6-7.7,9.8-7.4c1.6,0.4-1.2,12.3-1.8,13.7"/> <path d="M160.7,254.2c0,0-9.3,3.2-10.4,0.3c-1.1-2.9,3.6-9.2,2.8-10.6"/> <path d="M162.3,240.7c0,0-10.8,1.4-11,2.6"/> <path d="M151.7,248.2c0,0,6.6,0.2,7.3-0.4"/> </g> <path data-type="erase" stroke="transparent" stroke-width="120" stroke-linecap="square" stroke-linejoin="bevel" d="M37-5.7C4,56.8,2.5,130.7,1.9,201.4c9.5,4.4,20.2-2.7,27.9-9.7c28.1-25.6,50.8-56.9,66.3-91.6c20.3-45.2,29.5-97.6,64.6-132.6c16.2,62.9-8.3,129.3-40.9,185.4s-74.2,107.8-97,168.6c39-3.8,73.2-29,98-59.3c24.9-30.3,42.2-65.9,62.3-99.6c18.4-30.8,42.3-62.4,77.2-70.8c-1,39.9-11.4,79.5-30,114.8c-5.5,10.5-11.9,20.9-14.4,32.5s-0.3,25.1,8.9,32.7c11.2,9.2,28.4,6.1,40.6-1.6c12.3-7.7,21.6-19.3,33.3-27.9c34-25,80.5-21,122.6-18c72.3,5.3,145.1,4.5,217.3-2.3c13.3-1.2,26.5-2.7,39.6-5.2c7.9-1.5,16.1-3.5,22.1-8.9c9.2-8.2,10.9-21.7,11-34c0.1-11.8-0.9-23.8-6-34.5c-9.3-19.5-30.5-30.4-51.3-36.2C613,91.8,569.4,94.8,526.9,98c-81.7,6-163.4,12.1-245.2,18.1"/> </svg>