<svg version="1.1" id="Layer_1" xmlns="http://www.w3.org/2000/svg" xmlns:xlink="http://www.w3.org/1999/xlink" x="0px" y="0px" viewBox="0 0 629 409" enable-background="new 0 0 629 409" xml:space="preserve"> <g> <line stroke-width="7" x1="476" y1="348.5" x2="10.5" y2="348.5"/> <line stroke-width="7" x1="33" y1="36.9" x2="33" y2="371"/> </g> <g> <polyline stroke-width="7" points="454,326 476,348.5 454,371 	"/> <polyline stroke-width="7" points="10.5,58.9 33,36.9 55.5,58.9 	"/> </g> <g> <text transform="matrix(1 0 0 1 3.4993 21.9536)" fill="#010101" font-family="'PermanentMarker'" font-size="31">total happiness</text> <path stroke-linejoin="bevel" d="M6.5,6.8C7.7,7.1,19.7,5,21.3,5.4"/> <path stroke-linejoin="bevel" d="M13.9,5.7c0.3,1.1-4.7,11.8-4.7,13.1s1.1,2.4,1.1,2.4"/> <path stroke-linejoin="bevel" d="M29.9,5.6c-1.8,0.9-13,9.7-9.6,13.2s13.4-0.1,13.6-3.5s-4.5-8.6-4.5-8.6"/> <path stroke-linejoin="bevel" d="M37.5,6.8C38.7,7.1,50.7,5,52.3,5.4"/> <path stroke-linejoin="bevel" d="M44.9,5.7c0.3,1.1-4.7,11.8-4.7,13.1s1.1,2.4,1.1,2.4"/> <path stroke-linejoin="bevel" d="M50.3,20.1c0-1.4,5.2-12.7,8.5-13.8c0,0,5.3,11.5,2.3,14.2"/> <path stroke-linejoin="bevel" d="M55.1,16.7c1.4,0,8.3-1.9,9.6-2.8"/> <path stroke-linejoin="bevel" d="M72.3,5.6c0.1,1.4-4.5,11.3-3.8,13.7s7.5-1.5,11,0.3"/> <path stroke-linejoin="bevel" d="M99.2,6.9c0.4,1.4-2.4,13.4-2.4,13.4"/> <path stroke-linejoin="bevel" d="M109.4,6.1c1,1.9-2.2,11.8-1.9,14.1"/> <path stroke-linejoin="bevel" d="M98,17.4c1-1,10.6-3.6,10.6-3.6"/> <path stroke-linejoin="bevel" d="M114.3,20.1c0-1.4,5.2-12.7,8.5-13.8c0,0,5.3,11.5,2.3,14.2"/> <path stroke-linejoin="bevel" d="M119.1,16.7c1.4,0,8.3-1.9,9.6-2.8"/> <path stroke-linejoin="bevel" d="M133.5,20.2c0.4-0.6,1.5-11.7,4.2-13.7c2.7-2.1,8.7,0.6,7.7,3.4s-7.1,4.6-11.5,3.6"/> <path stroke-linejoin="bevel" d="M149.5,20.2c0.4-0.6,1.5-11.7,4.2-13.7c2.7-2.1,8.7,0.6,7.7,3.4s-7.1,4.6-11.5,3.6"/> <path stroke-linejoin="bevel" d="M169.8,6.6c-1.1,1.4-2.5,12.2-2.1,13.7"/> <path stroke-linejoin="bevel" d="M175,18.8c0-1.5,5.8-12.1,5.8-12.1"/> <path stroke-linejoin="bevel" d="M180,9.1c0,1.4,0.3,9.9,3.5,10.1s5.1-13,5.1-13"/> <path stroke-linejoin="bevel" d="M195.3,7.5c0.9,2-2.8,10-2.4,11.1c0.4,1.1,7.7,2,11.2,0.4"/> <path stroke-linejoin="bevel" d="M194.9,7.8c0.4-0.3,10.2-1.8,10.8-2.4"/> <path stroke-linejoin="bevel" d="M194.9,12.3c0.7,0.2,6.3,0.8,7,0"/> <path stroke-linejoin="bevel" d="M220.6,5.4c-1.2-0.4-11,1.9-11.6,3.5s7.7,2.6,8.1,5.6s-6.9,6.2-7.9,5.8"/> <path stroke-linejoin="bevel" d="M234.6,5.4c-1.2-0.4-11,1.9-11.6,3.5s7.7,2.6,8.1,5.6s-6.9,6.2-7.9,5.8"/> </g> <g> <text transform="matrix(1 0 0 1 251.1235 401.4307)" fill="#010101" font-family="'PermanentMarker'" font-size="31">number of kids</text> <path stroke-linejoin="bevel" d="M253.5,398.3c0-1.5,5.8-12.1,5.8-12.1"/> <path stroke-linejoin="bevel" d="M258.5,388.6c0,1.4,0.3,9.9,3.5,10.1s5.1-13,5.1-13"/> <path stroke-linejoin="bevel" d="M273.7,387.9c-0.7,2-2,8.4,1.2,10.6s11.4-7.7,10.9-12.1"/> <path stroke-linejoin="bevel" d="M289.6,398.4c0-1.6,5.4-12.9,5.8-12.1s0.9,6.9,3.1,7.1s8.9-6.5,10.5-7.1c1.6-0.6-1.8,10.9-1.3,12.8"/> <path stroke-linejoin="bevel" d="M318.1,389c0.2,1.2-2.2,9.6-2.7,10.7"/> <path stroke-linejoin="bevel" d="M314.2,386.7c1.1-1.2,9.8-3.4,11.4-1.2s-5.7,6.2-5.7,6.2s9.3,1.4,7.3,4.3c-2,2.9-9.2,3.7-9.2,3.7"/> <path stroke-linejoin="bevel" d="M334.8,387c0.9,2-2.8,10-2.4,11.1c0.4,1.1,7.7,2,11.2,0.4"/> <path stroke-linejoin="bevel" d="M334.3,387.3c0.4-0.3,10.2-1.8,10.8-2.4"/> <path stroke-linejoin="bevel" d="M334.3,391.8c0.7,0.2,6.3,0.8,7,0"/> <path stroke-linejoin="bevel" d="M350.1,389.3c0.1,0.6-1.7,9.9-1.7,9.9"/> <path stroke-linejoin="bevel" d="M351.2,390.8c0-1.1,4-5.6,4.7-5.7s5.4,4.2,3.9,5.7s-8.6,3.1-8.6,3.1s1.8,5.4,9.4,6.2"/> <path stroke-linejoin="bevel" d="M386.7,385.3c-1.8,0.9-13,9.7-9.6,13.2s13.4-0.1,13.6-3.5s-4.5-8.6-4.5-8.6"/> <path stroke-linejoin="bevel" d="M400.4,385.8c0.4,1.1-4.1,11-3.9,12.8s0.4,1.2,0.4,1.2"/> <path stroke-linejoin="bevel" d="M397.2,387.5c0.4-0.2,10.7-4,12.9-2.9"/> <path stroke-linejoin="bevel" d="M395.9,393.9c0.9,0.5,10.5-0.7,10.5-0.7"/> <path stroke-linejoin="bevel" d="M426.3,385.3c-1.1,1.1-5.1,12.8-4.5,13.9s7.6-9.8,14.2-12.2"/> <path stroke-linejoin="bevel" d="M427.9,393.9c0.8,2.1,5.1,5.6,9.3,4.8"/> <path stroke-linejoin="bevel" d="M445.1,386.1c-1.1,1.4-2.5,12.2-2.1,13.7"/> <path stroke-linejoin="bevel" d="M452.1,388.7c0.3,1.8,0.9,7.7,0,11.2"/> <path stroke-linejoin="bevel" d="M452.9,385.9c2.2,0.3,9.2,4.1,9.8,6.2c0.6,2.2-7.2,7.4-8.7,7.8"/> <path stroke-linejoin="bevel" d="M478.4,384.9c-1.2-0.4-11,1.9-11.6,3.5s7.7,2.6,8.1,5.6s-6.9,6.2-7.9,5.8"/> </g> <path data-type="main" stroke="#7FC347" stroke-width="7" d="M45.3,341c20.3-49.7,53-88.6,87.7-121.4s72.2-60.4,106.6-93.8c33.5-32.6,63.9-70.5,93-109.9"/> <g> <text transform="matrix(1 0 0 1 162.3635 203.8628)"><tspan x="0" y="0" fill="#010101" font-family="'PermanentMarker'" font-size="31"> individual happiness</tspan><tspan x="0" y="37.2" fill="#010101" font-family="'PermanentMarker'" font-size="21"> x</tspan><tspan x="18.4" y="37.2" fill="#010101" font-family="'PermanentMarker'" font-size="31"> population</tspan><tspan x="0" y="74.4" fill="#010101" font-family="'PermanentMarker'" font-size="31">= why kids make you happiness</tspan></text> <path stroke-linejoin="bevel" d="M202.8,188.6c-1.1,1.4-2.5,12.2-2.1,13.7"/> <path stroke-linejoin="bevel" d="M208,200.8c0-1.5,5.8-12.1,5.8-12.1"/> <path stroke-linejoin="bevel" d="M213,191.1c0,1.4,0.3,9.9,3.5,10.1s5.1-13,5.1-13"/> <path stroke-linejoin="bevel" d="M227.4,190.5c0.3,1.8,0.9,7.7,0,11.2"/> <path stroke-linejoin="bevel" d="M228.2,187.8c2.2,0.3,9.2,4.1,9.8,6.2c0.6,2.2-7.2,7.4-8.7,7.8"/> <path stroke-linejoin="bevel" d="M245.8,188.6c-1.1,1.4-2.5,12.2-2.1,13.7"/> <path stroke-linejoin="bevel" d="M253.1,188.8c0.5,1,2.1,13,2.1,13"/> <path stroke-linejoin="bevel" d="M255.4,200.9c0,0,6.6-12.1,8.9-12.9"/> <path stroke-linejoin="bevel" d="M270.8,188.6c-1.1,1.4-2.5,12.2-2.1,13.7"/> <path stroke-linejoin="bevel" d="M277.4,190.5c0.3,1.8,0.9,7.7,0,11.2"/> <path stroke-linejoin="bevel" d="M278.2,187.8c2.2,0.3,9.2,4.1,9.8,6.2c0.6,2.2-7.2,7.4-8.7,7.8"/> <path stroke-linejoin="bevel" d="M294.5,190.7c-0.7,2-2,8.4,1.2,10.6s11.4-7.7,10.9-12.1"/> <path stroke-linejoin="bevel" d="M309.3,202.1c0-1.4,5.2-12.7,8.5-13.8c0,0,5.3,11.5,2.3,14.2"/> <path stroke-linejoin="bevel" d="M314.1,198.7c1.4,0,8.3-1.9,9.6-2.8"/> <path stroke-linejoin="bevel" d="M331.3,187.6c0.1,1.4-4.5,11.3-3.8,13.7c0.7,2.3,7.5-1.5,11,0.3"/> <path stroke-linejoin="bevel" d="M358.2,188.9c0.4,1.4-2.4,13.4-2.4,13.4"/> <path stroke-linejoin="bevel" d="M368.4,188.1c1,1.9-2.2,11.8-1.9,14.1"/> <path stroke-linejoin="bevel" d="M357,199.4c1-1,10.6-3.6,10.6-3.6"/> <path stroke-linejoin="bevel" d="M373.3,202.1c0-1.4,5.2-12.7,8.5-13.8c0,0,5.3,11.5,2.3,14.2"/> <path stroke-linejoin="bevel" d="M378.1,198.7c1.4,0,8.3-1.9,9.6-2.8"/> <path stroke-linejoin="bevel" d="M392.5,202.2c0.4-0.6,1.5-11.7,4.2-13.7s8.7,0.6,7.7,3.4s-7.1,4.6-11.5,3.6"/> <path stroke-linejoin="bevel" d="M408.5,202.2c0.4-0.6,1.5-11.7,4.2-13.7s8.7,0.6,7.7,3.4s-7.1,4.6-11.5,3.6"/> <path stroke-linejoin="bevel" d="M428.8,188.6c-1.1,1.4-2.5,12.2-2.1,13.7"/> <path stroke-linejoin="bevel" d="M434,200.8c0-1.5,5.8-12.1,5.8-12.1"/> <path stroke-linejoin="bevel" d="M439,191.1c0,1.4,0.3,9.9,3.5,10.1s5.1-13,5.1-13"/> <path stroke-linejoin="bevel" d="M454.3,189.5c0.9,2-2.8,10-2.4,11.1c0.4,1.1,7.7,2,11.2,0.4"/> <path stroke-linejoin="bevel" d="M453.9,189.8c0.4-0.3,10.2-1.8,10.8-2.4"/> <path stroke-linejoin="bevel" d="M453.9,194.3c0.7,0.2,6.3,0.8,7,0"/> <path stroke-linejoin="bevel" d="M479.6,187.4c-1.2-0.4-11,1.9-11.6,3.5s7.7,2.6,8.1,5.6s-6.9,6.2-7.9,5.8"/> <path stroke-linejoin="bevel" d="M493.6,187.4c-1.2-0.4-11,1.9-11.6,3.5s7.7,2.6,8.1,5.6s-6.9,6.2-7.9,5.8"/> <path stroke-linejoin="bevel" d="M180.6,230.6c-2.1,0.8-3.9,2.2-5.4,3.9c-1.5,1.7-2.7,3.6-3.9,5.4"/> <path stroke-linejoin="bevel" d="M172.2,229.9c2.6,3.3,5.1,6.8,7.5,10.3"/> <path stroke-linejoin="bevel" d="M194.8,239.3c0.4-0.6,1.5-11.7,4.2-13.7c2.7-2.1,8.7,0.6,7.7,3.4s-7.1,4.6-11.5,3.6"/> <path stroke-linejoin="bevel" d="M222.2,224.7c-1.8,0.9-13,9.7-9.6,13.2s13.4-0.1,13.6-3.5s-4.5-8.6-4.5-8.6"/> <path stroke-linejoin="bevel" d="M229.8,240.3c0.4-0.6,1.5-11.7,4.2-13.7c2.7-2.1,8.7,0.6,7.7,3.4s-7.1,4.6-11.5,3.6"/> <path stroke-linejoin="bevel" d="M247.9,228.8c-0.7,2-2,8.4,1.2,10.6s11.4-7.7,10.9-12.1"/> <path stroke-linejoin="bevel" d="M269.7,224.7c0.1,1.4-4.5,11.3-3.8,13.7c0.7,2.3,7.5-1.5,11,0.3"/> <path stroke-linejoin="bevel" d="M279.7,240.2c0-1.4,5.2-12.7,8.5-13.8c0,0,5.3,11.5,2.3,14.2"/> <path stroke-linejoin="bevel" d="M284.4,236.8c1.4,0,8.3-1.9,9.6-2.8"/> <path stroke-linejoin="bevel" d="M296.9,226.9c1.2,0.3,13.1-1.8,14.8-1.4"/> <path stroke-linejoin="bevel" d="M304.3,225.8c0.3,1.1-4.7,11.8-4.7,13.1s1.1,2.4,1.1,2.4"/> <path stroke-linejoin="bevel" d="M315.2,226.6c-1.1,1.4-2.5,12.2-2.1,13.7"/> <path stroke-linejoin="bevel" d="M331.2,225.7c-1.8,0.9-13,9.7-9.6,13.2s13.4-0.1,13.6-3.5s-4.5-8.6-4.5-8.6"/> <path stroke-linejoin="bevel" d="M340.3,237.9c0-1.5,5.8-12.1,5.8-12.1"/> <path stroke-linejoin="bevel" d="M345.4,228.2c0,1.4,0.3,9.9,3.5,10.1s5.1-13,5.1-13"/> <path stroke-linejoin="bevel" d="M165.8,267c3.9,0.2,7.8,0,11.6-0.6"/> <path stroke-linejoin="bevel" d="M164.7,273.4c4-0.2,8.1-0.4,12.1-0.6"/> <path stroke-linejoin="bevel" d="M198,262.6c0.1,3.2-4.4,9.4-1.9,12.9s11.2-11.6,11.5-11.2s-1.6,11.2,2.2,11.5s4.6-8.9,7.2-13.6"/> <path stroke-linejoin="bevel" d="M222.5,262.8c0.4,1.4-2.4,13.4-2.4,13.4"/> <path stroke-linejoin="bevel" d="M232.7,262c1,1.9-2.2,11.8-1.9,14.1"/> <path stroke-linejoin="bevel" d="M221.3,273.3c1-1,10.6-3.6,10.6-3.6"/> <path stroke-linejoin="bevel" d="M239.3,262.2c0,1.6,1.3,7.8,3.6,8.8"/> <path stroke-linejoin="bevel" d="M248.5,262.2c-0.9,0.4-9.8,12.3-9.4,15.1"/> <path stroke-linejoin="bevel" d="M266.7,262.1c-1.1,1.1-5.1,12.8-4.5,13.9s7.6-9.8,14.2-12.2"/> <path stroke-linejoin="bevel" d="M268.3,270.7c0.8,2.1,5.1,5.6,9.3,4.8"/> <path stroke-linejoin="bevel" d="M285.5,262.9c-1.1,1.4-2.5,12.2-2.1,13.7"/> <path stroke-linejoin="bevel" d="M292.5,265.5c0.3,1.8,0.9,7.7,0,11.2"/> <path stroke-linejoin="bevel" d="M293.4,262.7c2.2,0.3,9.2,4.1,9.8,6.2c0.6,2.2-7.2,7.4-8.7,7.8"/> <path stroke-linejoin="bevel" d="M318.9,261.6c-1.2-0.4-11,1.9-11.6,3.5s7.7,2.6,8.1,5.6s-6.9,6.2-7.9,5.8"/> <path stroke-linejoin="bevel" d="M332.7,274.9c0-1.6,5.4-12.9,5.8-12.1s0.9,6.9,3.1,7.1s8.9-6.5,10.5-7.1s-1.8,10.9-1.3,12.8"/> <path stroke-linejoin="bevel" d="M357.9,276c0-1.4,5.2-12.7,8.5-13.8c0,0,5.3,11.5,2.3,14.2"/> <path stroke-linejoin="bevel" d="M362.7,272.7c1.4,0,8.3-1.9,9.6-2.8"/> <path stroke-linejoin="bevel" d="M381,262.1c-1.1,1.1-5.1,12.8-4.5,13.9s7.6-9.8,14.2-12.2"/> <path stroke-linejoin="bevel" d="M382.6,270.7c0.8,2.1,5.1,5.6,9.3,4.8"/> <path stroke-linejoin="bevel" d="M398.1,264.2c0.9,2-2.8,10-2.4,11.1c0.4,1.1,7.7,2,11.2,0.4"/> <path stroke-linejoin="bevel" d="M397.6,264.4c0.4-0.3,10.2-1.8,10.8-2.4"/> <path stroke-linejoin="bevel" d="M397.6,268.9c0.7,0.2,6.3,0.8,7,0"/> <path stroke-linejoin="bevel" d="M425.2,261.7c0,1.6,1.3,7.8,3.6,8.8"/> <path stroke-linejoin="bevel" d="M434.3,261.7c-0.9,0.4-9.8,12.3-9.4,15.1"/> <path stroke-linejoin="bevel" d="M445.9,261.6c-1.8,0.9-13,9.7-9.6,13.2s13.4-0.1,13.6-3.5s-4.5-8.6-4.5-8.6"/> <path stroke-linejoin="bevel" d="M455.5,264.7c-0.7,2-2,8.4,1.2,10.6s11.4-7.7,10.9-12.1"/> <path stroke-linejoin="bevel" d="M486.2,263.9c0.4,1.4-2.4,13.4-2.4,13.4"/> <path stroke-linejoin="bevel" d="M496.4,263.1c1,1.9-2.2,11.8-1.9,14.1"/> <path stroke-linejoin="bevel" d="M485,274.4c1-1,10.6-3.6,10.6-3.6"/> <path stroke-linejoin="bevel" d="M501.3,277.1c0-1.4,5.2-12.7,8.5-13.8c0,0,5.3,11.5,2.3,14.2"/> <path stroke-linejoin="bevel" d="M506.1,273.7c1.4,0,8.3-1.9,9.6-2.8"/> <path stroke-linejoin="bevel" d="M520.5,277.2c0.4-0.6,1.5-11.7,4.2-13.7c2.7-2.1,8.7,0.6,7.7,3.4s-7.1,4.6-11.5,3.6"/> <path stroke-linejoin="bevel" d="M536.5,277.2c0.4-0.6,1.5-11.7,4.2-13.7c2.7-2.1,8.7,0.6,7.7,3.4s-7.1,4.6-11.5,3.6"/> </g> <path stroke="#C1282D" stroke-width="7" d="M420.7,282.9c17.9-9.6,35.9-19.2,53.8-28.8"/> <g> <path stroke-linejoin="bevel" d="M556.8,263.6c-1.1,1.4-2.5,12.2-2.1,13.7"/> <path stroke-linejoin="bevel" d="M562,275.8c0-1.5,5.8-12.1,5.8-12.1"/> <path stroke-linejoin="bevel" d="M567,266.1c0,1.4,0.3,9.9,3.5,10.1s5.1-13,5.1-13"/> <path stroke-linejoin="bevel" d="M582.3,264.5c0.9,2-2.8,10-2.4,11.1c0.4,1.1,7.7,2,11.2,0.4"/> <path stroke-linejoin="bevel" d="M581.9,264.8c0.4-0.3,10.2-1.8,10.8-2.4"/> <path stroke-linejoin="bevel" d="M581.9,269.3c0.7,0.2,6.3,0.8,7,0"/> <path stroke-linejoin="bevel" d="M607.6,262.4c-1.2-0.4-11,1.9-11.6,3.5s7.7,2.6,8.1,5.6s-6.9,6.2-7.9,5.8"/> <path stroke-linejoin="bevel" d="M621.6,262.4c-1.2-0.4-11,1.9-11.6,3.5s7.7,2.6,8.1,5.6s-6.9,6.2-7.9,5.8"/> </g> <path data-type="erase" stroke="transparent" stroke-width="120" stroke-linejoin="bevel" d="M23.2-11.1C23,0,13.6,8.3,6.2,16.5S-7.6,37.1-1.3,46.2c7.8,11.5,25.6,5.7,37.7-1.2C68,26.8,99.6,8.7,131.3-9.4C116,53.3,25.2,74.7,11.9,137.9c36.6-17.8,63.5-50.2,91.7-79.6S186.1,3,226.5-2.1C166,54.4,83.9,109.2,38.7,178.6C21.3,205.3,6.3,234-1.6,265S-10,329.4,1,359.3c2.1,5.6,5.2,11.7,11,13.2c7.8,2.1,14.6-5.3,19.4-11.8c87.8-120.2,186.6-232.2,295-334.1c5.7,6.5,6.3,16.4,3.7,24.6c-2.7,8.3-8.1,15.3-13.5,22.1c-64,80.3-140.7,151.2-192.3,239.9c-5.5,9.4-10.8,19.4-11.5,30.2c-0.7,10.9,4.3,22.8,14.4,26.9c14.6,5.9,29.8-6.7,39.1-19.3c20.6-28.1,32.7-61.3,49.9-91.6c17.2-30.3,41.8-59.2,75.4-68.2c-18.6,26-30.7,56.6-34.9,88.3c52.4-11.6,68.1-86,118.7-104c-10.1,33.7-20.1,67.4-30.2,101.1c16.8,5.9,35.3-5.3,45.5-19.9c10.2-14.6,15-32.2,23.5-47.9s23.1-30.2,41-30.1c-4.7,36.8-9.4,73.6-14.1,110.4c20.5-16.9,33.7-42.2,36-68.6c0.9-10.9,2.6-25.1,13.3-27.1c6-1.1,11.9,3,15.3,8c8.2,12.1,5.6,28.1,4.6,42.7c-1.1,14.6,1.4,32.1,14.4,38.7c12.7,6.5,27.6-1.1,40.3-7.6s29.5-11.6,39.9-1.8c7.2,6.8,7.7,18.8,3.3,27.7c-4.4,8.9-12.6,15.4-21,20.6c-40,24.9-89.2,29.1-136.3,30.6c-65.8,2.1-131.7,0.2-197.3-5.6c-11-1-22.4-2-32.9,1.3c-10.6,3.3-20.2,12.2-20.7,23.3c-0.6,13,11.6,23.6,24.3,26.1c12.7,2.5,25.8-1,38.4-4.1c80-19.8,163.4-25.6,245.3-17"/> </svg> 