<?xml version="1.0" encoding="utf-8"?>
<!-- Generator: Adobe Illustrator 19.2.0, SVG Export Plug-In . SVG Version: 6.00 Build 0)  -->
<svg version="1.1" id="Layer_1" xmlns="http://www.w3.org/2000/svg" xmlns:xlink="http://www.w3.org/1999/xlink" x="0px" y="0px"
	 width="557.43px" height="352.06px" viewBox="0 0 557.43 352.06" enable-background="new 0 0 557.43 352.06" xml:space="preserve">
<path fill="none" stroke="#FFFFFF" stroke-width="120" stroke-linejoin="bevel" stroke-miterlimit="10" d="M96.14,24.25
	c92.17,0.03,184.34,0.06,276.5,0.08c10.98,0,24.35,1.46,28.85,11.47c3.31,7.37-0.3,16.38-6.4,21.68s-14.13,7.68-21.95,9.73
	c-66.54,17.51-136.62,21.47-204.72,11.57c-27.3-3.97-55.65-10.08-81.98-1.83c-27.4,8.59-48.02,31.56-62.6,56.3
	C7.79,160.52-2.66,191.08-6.65,222.47c-1.14,8.99-1.72,18.35,1.3,26.89s10.46,16.09,19.5,16.68c14.05,0.91,23.42-13.62,30.37-25.86
	c37.01-65.2,94.84-118.36,162.92-149.76c-30.89,61.46-73.51,116.99-124.9,162.71c-9.18,8.17-18.93,16.4-24.01,27.59
	c-5.08,11.19-3.86,26.35,6.22,33.38c9.54,6.66,23.34,3.43,32.14-4.18s13.84-18.57,18.79-29.11
	c26.02-55.35,56.88-108.43,92.11-158.42c6.69-9.5,13.9-19.2,24.13-24.7c10.24-5.5,24.38-5.51,32.2,3.08
	c7.35,8.07,6.75,21,1.71,30.67s-13.64,16.9-21.8,24.15c-43.61,38.77-80.32,85.28-107.92,136.7c-6.51,12.14-12.65,25.05-12.91,38.82
	c-0.25,13.77,6.94,28.58,19.96,33.08c11.56,4,24.69-1.1,33.53-9.54c8.84-8.44,14.29-19.74,19.58-30.76
	c24.94-51.9,50.97-103.76,86.13-149.36s80.34-85.01,134.38-104.89c20.78-7.65,44.45-12.18,64.67-3.15
	c25.55,11.4,37.59,40.23,47.3,66.47c13.33,36.02,26.84,74.89,17.02,112.03c-8.79,33.26-35.1,59.19-63.81,78.14
	c-29.07,19.19-62.4,33.18-97.2,34.81s-71.09-10.26-94.51-36.04s-31.43-66.11-15.17-96.92c12.46-23.61,36.93-39.03,62.56-46.49
	c25.63-7.46,52.7-7.94,79.39-8.37c9.95-0.16,20.15-0.28,29.51,3.09c9.36,3.36,17.85,11.01,19.28,20.86
	c2.39,16.52-14.68,28.89-30.13,35.22c-15.99,6.55-32.76,11.2-49.84,13.82c-16,2.45-36.75,0.34-41.98-14.98
	c-4.15-12.18,5.51-25.58,17.52-30.22c12.01-4.64,25.41-2.89,38.16-1.08"/>
<path fill="none" stroke="#000000" stroke-width="7" stroke-linecap="round" stroke-linejoin="round" stroke-miterlimit="10" d="
	M109.09,50.7c-36.24,14.57-66.44,43.6-82.43,79.24s-17.6,77.49-4.39,114.26c21.69,60.35,85.95,103.41,149.81,97.52
	c49.61-4.58,95.53-37.85,115.34-83.55s12.69-101.97-17.88-141.3s-83.34-60.11-132.52-52.18"/>
<g>
	<text transform="matrix(1 0 0 1 89.354 180.2806)"><tspan x="0" y="0" font-family="'PermanentMarker'" font-size="30.74px">thin</tspan><tspan x="59.83" y="0" font-family="'PermanentMarker'" font-size="30.74px">g</tspan><tspan x="78.95" y="0" font-family="'PermanentMarker'" font-size="30.74px">s</tspan><tspan x="-16.2" y="30" font-family="'PermanentMarker'" font-size="30.74px">th</tspan><tspan x="16.44" y="30" font-family="'PermanentMarker'" font-size="30.74px" letter-spacing="-1">a</tspan><tspan x="32.77" y="30" font-family="'PermanentMarker'" font-size="30.74px">t are</tspan><tspan x="-7.76" y="60" font-family="'PermanentMarker'" font-size="30.74px">p</tspan><tspan x="8.36" y="60" font-family="'PermanentMarker'" font-size="30.74px">e</tspan><tspan x="24.09" y="60" font-family="'PermanentMarker'" font-size="30.74px">rf</tspan><tspan x="54.71" y="60" font-family="'PermanentMarker'" font-size="30.74px">e</tspan><tspan x="70.44" y="60" font-family="'PermanentMarker'" font-size="30.74px">ct</tspan></text>
</g>
<path fill="none" stroke="#000000" stroke-width="7" stroke-linecap="round" stroke-linejoin="round" stroke-miterlimit="10" d="
	M432.43,69.03c-58.2-28.14-135.34-8.45-172.94,44.14s-31.28,131.95,14.17,177.92c25.44,25.73,60.67,40.73,96.64,44.64
	c48.89,5.32,100.66-10.3,135.22-45.28s49.48-89.59,33.16-135.99c-16.32-46.39-65.25-80.43-114.17-75.38"/>
<text transform="matrix(1 0 0 1 352.7631 188.2806)"><tspan x="0" y="0" font-family="'PermanentMarker'" font-size="30.74px">human</tspan><tspan x="-24.56" y="30" font-family="'PermanentMarker'" font-size="30.74px">en</tspan><tspan x="8.83" y="30" font-family="'PermanentMarker'" font-size="30.74px">d</tspan><tspan x="23.81" y="30" font-family="'PermanentMarker'" font-size="30.74px">e</tspan><tspan x="39.84" y="30" font-family="'PermanentMarker'" font-size="30.74px" letter-spacing="-1">a</tspan><tspan x="56.47" y="30" font-family="'PermanentMarker'" font-size="30.74px">v</tspan><tspan x="70.46" y="30" font-family="'PermanentMarker'" font-size="30.74px">ors</tspan></text>
<path fill="none" stroke="#ED1C24" stroke-width="7" stroke-linecap="round" stroke-linejoin="round" stroke-miterlimit="10" d="
	M263.47,117.88c-1.07,1.67-2.15,3.35-3.22,5.02c4.43-0.69,8.86-1.37,13.3-2.06c-6.05,2.35-12.1,4.7-18.14,7.04
	c4.66,0.97,9.32,1.95,13.99,2.92c-4.32,1.66-8.65,3.33-12.97,4.99c6.02,0.18,12.04,0.36,18.06,0.54
	c-8.68,1.26-17.35,2.53-26.03,3.79c11.33,1.78,22.66,3.56,34,5.33c-11.11,0.03-22.22,0.06-33.33,0.09c10.48,2.9,20.97,5.8,31.45,8.7
	c-10.94-1.09-21.88-2.18-32.82-3.26c13.72,3.49,27.45,6.98,41.17,10.47c-15.68,0.15-31.37,0.31-47.05,0.46
	c14.63-7.99,33.54-5.07,45.63,7.04c-15.38-4.07-31.7-3.66-46.9,1.18c14.51,1.07,29.02,2.13,43.53,3.2
	c-13.94,5.74-28.89,8.47-43.76,7.98c17.85,1.1,35.7,2.21,53.54,3.31c-18.56,2.45-37.12,4.9-55.68,7.35
	c17.02,1.14,34.05,2.29,51.07,3.43c-18.33,0.66-36.66,1.33-54.99,1.99c15.93,4.53,32.52,6.22,48.93,4.98c-13,0.84-26,1.68-39,2.52
	c14.43-1.47,28.85-2.95,43.28-4.42c-16.21,2.76-32.43,5.52-48.64,8.28c16.96,3.48,34.45,3.84,51.52,1.05
	c-15.2,3.35-30.39,6.7-45.59,10.05c14.03,1.83,28.06,3.66,42.09,5.49c-13.18,2.5-26.75,2.52-39.94,0.04
	c14.81-2.29,29.61-4.59,44.42-6.88c-9.51,16.64-30.37,24-46.83,16.52c12.59-4.38,26.57-3.68,38.76,1.95
	c-11.96,2.74-23.92,5.49-35.88,8.23c14.51-0.62,29.02-1.24,43.54-1.86c-11.45,3.73-22.9,7.45-34.34,11.18
	c6.97,0.07,13.93,0.14,20.9,0.21c-6.67,2.62-13.34,5.25-20.01,7.87c6.06-0.52,12.12-1.05,18.18-1.57c-3.14,1.1-6.28,2.21-9.42,3.31
	c2.87-0.86,5.73-1.72,8.6-2.58c-2.54,2.27-5.07,4.55-7.61,6.82c1.69-0.6,3.39-1.2,5.08-1.8c-1.24,1.89-2.48,3.78-3.72,5.67
	c1.12,0.39,2.25,0.77,3.37,1.16c-1.02,1.12-2.04,2.25-3.06,3.37"/>
<g>
	<text transform="matrix(1 0 0 1 96.5738 30.915)"><tspan x="0" y="0" fill="#ED1C24" font-family="'PermanentMarker'" font-size="30.74px">pure c</tspan><tspan x="93.93" y="0" fill="#ED1C24" font-family="'PermanentMarker'" font-size="30.74px" letter-spacing="-1">o</tspan><tspan x="112.03" y="0" fill="#ED1C24" font-family="'PermanentMarker'" font-size="30.74px">inci</tspan><tspan x="164.87" y="0" fill="#ED1C24" font-family="'PermanentMarker'" font-size="30.74px">d</tspan><tspan x="179.85" y="0" fill="#ED1C24" font-family="'PermanentMarker'" font-size="30.74px">en</tspan><tspan x="213.23" y="0" fill="#ED1C24" font-family="'PermanentMarker'" font-size="30.74px">c</tspan><tspan x="228.72" y="0" fill="#ED1C24" font-family="'PermanentMarker'" font-size="30.74px">es on</tspan><tspan x="307.07" y="0" fill="#ED1C24" font-family="'PermanentMarker'" font-size="30.74px">l</tspan><tspan x="322.53" y="0" fill="#ED1C24" font-family="'PermanentMarker'" font-size="30.74px">y</tspan></text>
</g>
</svg>
