<?xml version="1.0" encoding="utf-8"?> <!-- Generator: Adobe Illustrator 18.0.0, SVG Export Plug-In . SVG Version: 6.00 Build 0) --> <!DOCTYPE svg PUBLIC "-//W3C//DTD SVG 1.1//EN" "http://www.w3.org/Graphics/SVG/1.1/DTD/svg11.dtd"> <svg version="1.1" id="Layer_1" xmlns="http://www.w3.org/2000/svg" xmlns:xlink="http://www.w3.org/1999/xlink" x="0px" y="0px" viewBox="0 0 754.9 328.7" enable-background="new 0 0 754.9 328.7" xml:space="preserve"> <path stroke="#FFFFFF" stroke-width="120" stroke-linecap="square" d=" M42.3,1.4C9.3,64,7.8,137.8,7.2,208.5c9.5,4.4,20.2-2.7,27.9-9.7c28.1-25.6,50.8-56.9,66.3-91.6C121.6,62,130.9,9.7,166-25.3 c16.2,62.9-8.3,129.3-40.9,185.4S50.9,267.9,28,328.7c39-3.8,73.2-29,98-59.3s42.2-65.9,62.3-99.6c18.4-30.8,42.3-62.4,77.2-70.8 c-1,39.9-11.4,79.5-30,114.8c-5.5,10.5-11.9,20.9-14.4,32.5c-2.5,11.6-0.3,25.1,8.9,32.7c11.2,9.2,28.4,6.1,40.6-1.6 c12.3-7.7,21.6-19.3,33.3-27.9c34-25,80.5-21,122.6-18c72.3,5.3,145.1,4.5,217.3-2.3c13.3-1.2,26.5-2.7,39.6-5.2 c7.9-1.5,16.1-3.5,22.1-8.9c9.2-8.2,10.9-21.7,11-34c0.1-11.8-0.9-23.8-6-34.5c-9.3-19.5-30.5-30.4-51.3-36.2 c-41.1-11.5-84.6-8.4-127.1-5.3c-81.7,6-163.4,12.1-245.2,18.1"/> <g> <line stroke-width="7" x1="11" y1="203.5" x2="743" y2="203.5"/> <line stroke-width="7" x1="34.5" y1="319" x2="34.5" y2="45"/> <polyline stroke-width="7" points=" 12,66.4 34.5,44.4 57,66.4 	"/> <polyline stroke-width="7" points=" 721,180.4 743,202.9 721,225.4 	"/> </g> <g> <text transform="matrix(1 0 0 1 8.0259 28.6299)" font-family="'PermanentMarker'" font-size="31">productivity</text> <path d=" M11.5,27.3c0.5-1.2,2.4-13.5,3.9-14.6c2.3-1.6,12.6,1.3,6,5.8c-5,3.3-10.5,0.2-10.5,0.2"/> <path d=" M28.9,16.5c0.1,0.6-1.8,10-1.8,10 M39.6,27.1c-5.9,0.2-9.5-5.3-9.5-5.3s6.9-2.1,7.7-3.6c0.9-1.7-1.5-5.5-2.9-5.9 c-1.4-0.4-5.2,5.3-5.2,5.3"/> <path d=" M53.3,12.3c0,0-14.7,9-9.7,13.2c4.6,3.9,12.7-1.2,12.9-3.1c0.2-1.9-1.8-6.8-4.3-8.9"/> <path d=" M63.2,15.1c1,3.6,0.7,6.5-0.6,12.1 M62.6,27.2c16.1-5.5,11.7-10.9,0.6-14.9"/> <path d=" M80.3,15c-0.4,0.5-2.7,9.4,2.6,11.2c3.8,1.3,10.5-9,9.6-13.3"/> <path d=" M106.2,13c-9.1,0.7-17.8,14.4-0.4,13.2"/> <path d=" M111.8,13.3c0.6,0.3,14.7-2.4,16.3-1.8 M119.2,12c1.6,2.4-5.9,12.8-2.3,15.9"/> <path d=" M129.4,11.8c-0.4,0.5-2.5,11.2-1.2,14.6"/> <path d=" M137.1,12.8c0.6,0.7,0.5,13.8,1.9,14.1c0.3,0.1,4.6-11.5,9.6-14.8"/> <path d=" M155.4,11.8c-0.4,0.5-2.5,11.2-1.2,14.6"/> <path d=" M160.8,13.3c0.6,0.3,14.7-2.4,16.3-1.8 M168.2,12c1.6,2.4-5.9,12.8-2.3,15.9"/> <path d=" M182.1,21.1c-2.6-0.7-4.3-7.4-4.1-8.1 M187.8,12.5c-1.8,1-9.8,15.6-9.8,15.6"/> </g> <g> <text transform="matrix(1 0 0 1 314.8433 257.8701)" font-family="'PermanentMarker'" font-size="31">all the people in the world</text> <path d=" M317.1,256c0,0,4.3-11.2,8.8-13.6c0,0,5.6,12.6,2,14.5 M322.6,252.7c0,0,4.9-0.1,9-2.1"/> <path d=" M339.6,243c0.5,1.3-4.7,12.2-3.8,13.8c0.9,1.5,9.1-1.7,11.4,0"/> <path d=" M355.6,243c0.5,1.3-4.7,12.2-3.8,13.8c0.9,1.5,9.1-1.7,11.4,0"/> <path d=" M379.8,243.3c0.6,0.3,14.7-2.4,16.3-1.8 M387.2,242c1.6,2.4-5.9,12.8-2.3,15.9"/> <path d=" M398,242.6c0.2,0.7-2.3,13.6-2.3,13.6 M395.7,256.2c0,0,1.1-4.8,6.4-5.4c4.1-0.4,5.2-2,5.3-2.6c0.1-0.6,1.1-7,1.1-7 M406.3,255.7 c0,0,2.4-13.8,2.3-14.5"/> <path d=" M425,254.3c0,0-9.3,3.2-10.4,0.3c-1.1-2.9,3.6-9.2,2.8-10.6 M426.6,240.8c0,0-10.8,1.4-11,2.6 M416,248.3c0,0,6.6,0.2,7.3-0.4"/> <path d=" M441.5,256.3c0.5-1.2,2.4-13.5,3.9-14.6c2.3-1.6,12.6,1.3,6,5.8c-5,3.3-10.5,0.2-10.5,0.2"/> <path d=" M468,254.3c0,0-9.3,3.2-10.4,0.3c-1.1-2.9,3.6-9.2,2.8-10.6 M469.6,240.8c0,0-10.8,1.4-11,2.6 M459,248.3c0,0,6.6,0.2,7.3-0.4"/> <path d=" M483.3,241.3c0,0-14.7,9-9.7,13.2c4.6,3.9,12.7-1.2,12.9-3.1c0.2-1.9-1.8-6.8-4.3-8.9"/> <path d=" M492.5,256.3c0.5-1.2,2.4-13.5,3.9-14.6c2.3-1.6,12.6,1.3,6,5.8c-5,3.3-10.5,0.2-10.5,0.2"/> <path d=" M511.6,241c0.5,1.3-4.7,12.2-3.8,13.8c0.9,1.5,9.1-1.7,11.4,0"/> <path d=" M535,254.3c0,0-9.3,3.2-10.4,0.3c-1.1-2.9,3.6-9.2,2.8-10.6 M536.6,240.8c0,0-10.8,1.4-11,2.6 M526,248.3c0,0,6.6,0.2,7.3-0.4"/> <path d=" M556.4,241.8c-0.4,0.5-2.5,11.2-1.2,14.6"/> <path d=" M562.1,255.1c-0.2-0.9,5.3-13.4,5.3-13.4 M567.4,241.7c-0.8,2,0,14.6,3.8,12.9c3.5-1.6,3.5-12.4,4.5-13"/> <path d=" M590.8,242.3c0.6,0.3,14.7-2.4,16.3-1.8 M598.2,241c1.6,2.4-5.9,12.8-2.3,15.9"/> <path d=" M609,242.6c0.2,0.7-2.3,13.6-2.3,13.6 M606.7,256.2c0,0,1.1-4.8,6.4-5.4c4.1-0.4,5.2-2,5.3-2.6c0.1-0.6,1.1-7,1.1-7 M617.3,255.7 c0,0,2.4-13.8,2.3-14.5"/> <path d=" M636,254.3c0,0-9.3,3.2-10.4,0.3c-1.1-2.9,3.6-9.2,2.8-10.6 M637.6,240.8c0,0-10.8,1.4-11,2.6 M627,248.3c0,0,6.6,0.2,7.3-0.4"/> <path d=" M665.2,244c-3.8,9.8-11.1,12.8-11.7,11.2c-0.6-1.6,2-12.2,2.7-12.7 M665.2,244c-0.9,3.3-0.7,12.4,2.5,11.6 c3.8-0.9,6.1-11.9,7.5-12.8"/> <path d=" M688.3,241.3c0,0-14.7,9-9.7,13.2c4.6,3.9,12.7-1.2,12.9-3.1c0.2-1.9-1.8-6.8-4.3-8.9"/> <path d=" M698.9,245.5c0.1,0.6-1.8,10-1.8,10 M709.6,256.1c-5.9,0.2-9.5-5.3-9.5-5.3s6.9-2.1,7.7-3.6c0.9-1.7-1.5-5.5-2.9-5.9 c-1.4-0.4-5.2,5.3-5.2,5.3"/> <path d=" M717.6,242c0.5,1.3-4.7,12.2-3.8,13.8c0.9,1.5,9.1-1.7,11.4,0"/> <path d=" M731.2,244.1c1,3.6,0.7,6.5-0.6,12.1 M730.6,256.2c16.1-5.5,11.7-10.9,0.6-14.9"/> </g> <g> <text transform="matrix(1 0 0 1 128.2784 265.2808)" font-family="'PermanentMarker'" font-size="30.7418">me</text> <path stroke-width="7" d="M174.4,270.2 c11.1,9.9,27,14,41.5,10.8"/> <path d=" M129.6,263c-0.2-1.2,4.8-15.5,6.6-14.9c2.2,0.7-0.6,7.8,3.4,8.2c3.9,0.4,8.6-7.7,9.8-7.4c1.6,0.4-1.2,12.3-1.8,13.7"/> <path d=" M166,261.3c0,0-9.3,3.2-10.4,0.3c-1.1-2.9,3.6-9.2,2.8-10.6 M167.6,247.8c0,0-10.8,1.4-11,2.6 M157,255.3c0,0,6.6,0.2,7.3-0.4"/> </g> <path stroke="#478EB0" stroke-width="7" d=" M54.6,111c48.4,3.4,96.4,1.4,144.8-1c3.6-0.1,5.7-0.1,5.7-0.1s-3.7,0.1,0,0c-0.3,3.7-0.4,7.3-0.5,10.9 c-1.6,54.5,12.4,107,25.5,159.5c-2.8-45.8-3.2-12.1,0,0c-3-56,6-110,19-167c0,0,1-1,2-1c14,3,28,8,42,7c8-1,16-5,24-6 c36-3,71-4,107-4c8,0,16,2,24,3c4,1,9,2,13,3c19,2,37-5,56-9c13-2,24-2,37,1c6,1,13,1,19-2c22-13,47-19,69.7-9.1"/> </svg> 