<?xml version="1.0" encoding="utf-8"?>
<!-- Generator: Adobe Illustrator 19.2.0, SVG Export Plug-In . SVG Version: 6.00 Build 0)  -->
<svg version="1.1" id="Layer_1" xmlns="http://www.w3.org/2000/svg" xmlns:xlink="http://www.w3.org/1999/xlink" x="0px" y="0px"
	 width="533.32px" height="219.69px" viewBox="0 0 533.32 219.69" enable-background="new 0 0 533.32 219.69" xml:space="preserve">
<path fill="none" stroke="#FFFFFF" stroke-width="120" stroke-linejoin="bevel" stroke-miterlimit="10" d="M17.24,22.58
	C85.31,8.64,155.32,8.2,224.8,7.8c35.14-0.2,70.28-0.4,105.42-0.6c69.61-0.4,139.56-0.77,208.39,9.65
	c-77.59,10.07-156.86-9.31-234.33,1.59c-32.32,4.55-63.65,14.29-94.81,23.99c-36.66,11.42-73.72,23.01-106.65,42.76
	c-41.33,24.79-74.4,61.46-101.75,101.13c41.64-8.19,77.21-34.75,108.55-63.36s60.43-60.32,96.5-82.69
	C141.48,108.35,76.85,176.42,12.22,244.49C78.45,172.44,145.6,99.6,227.48,45.99c-28.81,56.75-57.62,113.51-86.44,170.26
	c46.86-65.8,93.73-131.6,140.59-197.4c-20.25,64.39-40.49,128.78-60.74,193.17c17.62-49.8,45.28-96.02,80.83-135.09
	c-15.73,52.58-31.47,105.16-47.2,157.74c23.86-66.21,58.82-128.41,102.98-183.22c-27.29,57.69-46.41,119.23-56.62,182.23
	c37.51-73.39,75.01-146.78,112.52-220.17c-13.03,70.47-26.06,140.94-39.09,211.42c22.65-31.76,45.3-63.53,67.95-95.29
	c-7.06,27.56-14.11,55.11-21.17,82.67c16.13-22.75,32.26-45.5,48.39-68.24c-3.4,20.37-6.79,40.75-10.19,61.12
	c10.43-12.15,20.87-24.31,31.3-36.46c0.44,12.21,0.88,24.42,1.32,36.63"/>
<text transform="matrix(1 0 0 1 35.0265 28.1541)"><tspan x="0" y="0" font-family="'PermanentMarker'" font-size="30.74px">when </tspan><tspan x="88.02" y="0" font-family="'PermanentMarker'" font-size="30.74px">y</tspan><tspan x="99.39" y="0" font-family="'PermanentMarker'" font-size="30.74px">o</tspan><tspan x="118.13" y="0" font-family="'PermanentMarker'" font-size="30.74px">u forget </tspan><tspan x="259.64" y="0" font-family="'PermanentMarker'" font-size="30.74px">s</tspan><tspan x="273.3" y="0" font-family="'PermanentMarker'" font-size="30.74px">om</tspan><tspan x="317.67" y="0" font-family="'PermanentMarker'" font-size="30.74px">e</tspan><tspan x="333.4" y="0" font-family="'PermanentMarker'" font-size="30.74px">one’s name</tspan></text>
<path fill="none" stroke="#000000" stroke-width="7.8294" stroke-linecap="round" stroke-linejoin="round" stroke-miterlimit="10" d="
	M302.54,46.27c-0.22,55.16,0.71,110.32,2.8,165.42"/>
<text transform="matrix(1 0 0 1 130.1861 80.033)"><tspan x="0" y="0" font-family="'PermanentMarker'" font-size="30.74px">be honest</tspan><tspan x="-21.61" y="30" font-family="'PermanentMarker'" font-size="30.74px">&amp; </tspan><tspan x="8.2" y="30" font-family="'PermanentMarker'" font-size="30.74px">a</tspan><tspan x="25.46" y="30" font-family="'PermanentMarker'" font-size="30.74px">sk them</tspan></text>
<path fill="none" stroke="#ED1C24" stroke-width="7" stroke-linecap="round" stroke-linejoin="round" stroke-miterlimit="10" d="
	M303.6,83.53c-0.18-3.72,0.76-7.49,2.65-10.7c0.53,7.17,1.06,14.34,1.59,21.51c1.58-7.41,3.16-14.81,4.74-22.22
	c0.15,7.41,0.29,14.83,0.44,22.24c1.26-6.37,2.52-12.74,3.79-19.11c-0.59,6.92-0.05,13.93,1.6,20.68c1.01-6.88,2.1-13.75,3.25-20.61
	c1.33,6.64,2.2,13.37,2.61,20.13c0.48-8.46,1.66-16.87,3.51-25.14c0.61,9.71,1.23,19.42,1.84,29.12c1.15-9.91,2.29-19.81,3.44-29.72
	c1.29,9.01,2.58,18.01,3.86,27.02c0.49-8.85,0.98-17.69,1.46-26.54c0.41,8.44,0.83,16.89,1.24,25.33c1.73-8.59,3.47-17.19,5.2-25.78
	c0.38,9.59,0.75,19.19,1.13,28.78c1.3-9.44,2.61-18.88,3.91-28.32c-0.23,8.57,0.44,17.15,1.98,25.58
	c1.17-8.45,2.06-16.94,2.67-25.45c0.55,8.49,1.47,16.96,2.77,25.37c1.76-8.59,3.13-17.27,4.11-25.98
	c1.07,11.73,1.42,15.48,2.49,27.2c0.61-10.09,1.94-12.2,2.55-22.29c0.68,6.42,1.35,12.84,2.03,19.27
	c1.16-9.09,2.33-18.18,3.49-27.27c0.69,9.44,1.37,18.89,2.06,28.33c0.79-8.71,1.57-17.42,2.36-26.14
	c0.93,8.77,1.45,17.59,1.57,26.41c1.87-9,3.51-18.06,4.93-27.14c0.38,7.44,0.77,14.88,1.15,22.32"/>
<text transform="matrix(1 0 0 1 8.127 163.0262)"><tspan x="0" y="0" font-family="'PermanentMarker'" font-size="30.74px">w</tspan><tspan x="25.07" y="0" font-family="'PermanentMarker'" font-size="30.74px">ait for </tspan><tspan x="140.22" y="0" font-family="'PermanentMarker'" font-size="30.74px">s</tspan><tspan x="153.88" y="0" font-family="'PermanentMarker'" font-size="30.74px">om</tspan><tspan x="198.25" y="0" font-family="'PermanentMarker'" font-size="30.74px">e</tspan><tspan x="213.98" y="0" font-family="'PermanentMarker'" font-size="30.74px">one</tspan><tspan x="-2.49" y="30" font-family="'PermanentMarker'" font-size="30.74px">e</tspan><tspan x="13.54" y="30" font-family="'PermanentMarker'" font-size="30.74px">l</tspan><tspan x="29" y="30" font-family="'PermanentMarker'" font-size="30.74px">se </tspan><tspan x="70.67" y="30" font-family="'PermanentMarker'" font-size="30.74px">t</tspan><tspan x="84.48" y="30" font-family="'PermanentMarker'" font-size="30.74px">o call them</tspan></text>
<path fill="none" stroke="#ED1C24" stroke-width="7" stroke-linecap="round" stroke-linejoin="round" stroke-miterlimit="10" d="
	M305.34,172.55c0.4-4.8,0.8-9.59,1.19-14.39c1.27,6.57,2.54,13.14,3.81,19.7c0.18-7.53,0.83-15.04,1.96-22.48
	c0.14,8.96,0.28,17.91,0.42,26.87c2.19-7.56,4.38-15.13,6.58-22.69c-0.13,6.96-0.25,13.92-0.38,20.87c1.93-10,3.86-20.01,5.78-30.01
	c-0.73,8.84-0.57,17.76,0.47,26.58c1.85-9,2.91-18.15,3.19-27.33c0.34,10.28,0.67,20.55,1.01,30.83c1.25-8.78,2.5-17.55,3.75-26.33
	c-0.55,9.67-0.1,19.4,1.34,28.98c2-1.89,2.38-4.89,2.64-7.63c0.71-7.33,1.42-14.67,2.13-22c0.02,7.97,0.04,15.93,0.06,23.9
	c1.13-8.3,2.27-16.59,3.4-24.89c0.4,10.65,0.8,21.3,1.2,31.96c1.19-7.31,2.39-14.61,3.58-21.92c0.27,4.88,0.54,9.77,0.81,14.65
	c1.24-8,1.86-16.1,1.84-24.19c0.66,7.98,1.32,15.96,1.98,23.94c1.55-8.03,2.34-16.2,2.37-24.37c0.12,7.77,0.24,15.53,0.35,23.3
	c1.66-4.38,2.78-8.95,3.35-13.6c-1.02,7.39-0.74,14.95,0.81,22.24c1.28-9.3,2.55-18.6,3.83-27.9c-0.17,7.32,0.13,14.66,0.9,21.94
	c0.72-7.34,1.44-14.68,2.16-22.02c0.51,8.45,1.03,16.89,1.54,25.34c1.79-7.41,2.89-14.99,3.29-22.6c0.22,6.68,0.43,13.37,0.65,20.05
	c0.5-9.3,0.99-18.59,1.49-27.89c1.09,9.29,2.17,18.58,3.26,27.87c0.7-4.83,1.4-9.65,2.1-14.48c-0.15,4.79-0.31,9.58-0.46,14.37
	c1.97-6.34,3.38-12.86,4.21-19.45c1.1,6.32,2.2,12.65,3.3,18.97c0.91-8.25,1.08-16.58,0.49-24.86c-1.02,7.59-0.61,15.37,1.2,22.81
	c1.38-7.29,2.76-14.57,4.14-21.86c0.53,7.23,1.06,14.47,1.59,21.7c0.91-10.65,1.19-13.95,2.1-24.6c0.67,10.94,2.61,14.49,4.56,25.27
	c2.84-6.61,4.65-13.66,5.34-20.81c-0.74,8.16-0.73,16.39,0.05,24.54c0.99-7.74,1.97-15.48,2.96-23.22
	c-0.07,7.07-0.14,14.14-0.2,21.21c1.04-5.28,2.09-10.55,3.13-15.83c-0.22,5.25-0.13,10.51,0.24,15.75
	c2.62-5.69,3.83-12.04,3.48-18.3c-0.14,5.49,0.33,11,1.4,16.39c1.49-7.77,2.45-15.64,2.86-23.54c0.61,7.59,1.23,15.18,1.84,22.77
	c1.33-8.61,1.95-17.34,1.84-26.05c0.3,7.71,0.61,15.43,0.91,23.14c0.19-7.13,1.14-14.25,2.85-21.18c1.15,7.22,2.29,14.44,3.44,21.66
	c1.15-4.52,1.78-9.18,1.87-13.85c0.21,5.46,0.78,10.9,1.7,16.28c0.68-7.25,1.37-14.5,2.05-21.76c1.04,7.15,1.8,14.34,2.28,21.54
	c1.52-8.69,3.04-17.39,4.55-26.08c0.1,7.2,0.62,14.4,1.57,21.54c1.09-6.15,2.18-12.3,3.26-18.46c0.24,5.51,0.48,11.02,0.73,16.53
	c1.01-7.33,2.02-14.66,3.03-21.99c0.63,10.56,1.26,21.11,1.89,31.67c0.46-7.79,0.92-15.57,1.38-23.36
	c0.33,7.16,0.66,14.32,0.99,21.49c0.8-9.33,1.61-18.67,2.41-28c1.01,8.63,2.03,17.27,3.04,25.9c1.52-6.48,3.03-12.96,4.55-19.44
	c0.74,5.96,1.48,11.93,2.23,17.89c1.37-3.81,2.03-7.87,1.93-11.92c-0.02,5.28,0.54,10.57,1.67,15.73
	c0.39-7.21,0.46-14.45,0.23-21.67c0.05,5.93,0.51,11.85,1.38,17.72c0.58-5.25,1.17-10.5,1.75-15.74c1.05,4.81,1.68,9.71,1.88,14.63
	c0.12-7.49,0.24-14.99,0.35-22.48c-0.39,7.28,0.32,14.62,2.11,21.69c0.58-7.75,1.15-15.5,1.73-23.25c1.48,6.19,2.57,12.48,3.26,18.8
	c0.16-4.6,0.32-9.2,0.48-13.81c0.41,5.92,0.83,11.85,1.24,17.77c1.17-5.43,1.74-10.99,1.67-16.54c-0.42,4.28-0.1,8.63,0.93,12.8"/>
</svg>
