<?xml version="1.0" encoding="utf-8"?>
<!-- Generator: Adobe Illustrator 19.2.0, SVG Export Plug-In . SVG Version: 6.00 Build 0)  -->
<svg version="1.1" id="Layer_1" xmlns="http://www.w3.org/2000/svg" xmlns:xlink="http://www.w3.org/1999/xlink" x="0px" y="0px"
	 width="529.91px" height="339.91px" viewBox="0 0 529.91 339.91" enable-background="new 0 0 529.91 339.91" xml:space="preserve">
<path fill="none" stroke="#FFFFFF" stroke-width="120" stroke-linejoin="bevel" stroke-miterlimit="10" d="M49.34-7.63
	C37.85,11.12,26.37,29.88,14.89,48.63c48.47-10.88,96.93-21.75,145.4-32.63c1.26,11.02,2.53,22.04,3.79,33.06
	c47.95-24.05,95.9-48.11,143.86-72.16c-2.74,32.66-5.49,65.32-8.23,97.97c36.67-14.67,68.06-42.15,87.46-76.55
	C311,43.58,222.23,67.38,133.64,66.28c-23.39-0.29-47.2-2.23-69.84,3.65s-44.51,21.62-49.82,44.4c32.14-5.75,64.28-11.5,96.42-17.26
	C76.52,148.04,42.64,199.01,8.76,249.98c35.68-11.64,71.37-23.29,107.05-34.93c-25.06,35.31-50.13,70.62-75.19,105.93
	c37.81-75.83,88.44-145.24,149.1-204.4c0.18,10.63,0.43,21.56,4.53,31.37s13.03,18.36,23.66,18.76c18.55,0.7,28.5-20.61,37.5-36.84
	c15-27.06,40.33-48.22,69.63-58.17c-2.39,7.11-4.81,14.48-4.12,21.94s5.34,15.12,12.64,16.85c7.28,1.73,14.46-2.68,20.65-6.88
	c24.14-16.39,48.29-32.77,72.43-49.16C297.84,141.33,167.5,229.53,64.83,346.13c65.94-43.86,137.39-79.44,212.14-105.62
	c-10.86,20.57-21.73,41.14-32.59,61.71c22.86-25.94,45.72-51.87,68.58-77.81c-12.71,24.17-25.41,48.34-38.12,72.5
	c37.3-20.95,74.6-41.91,111.9-62.86c-20.85,36.66-41.69,73.33-62.54,109.99c28.25-27.24,56.51-54.48,84.76-81.72
	c-10.99,21.69-21.98,43.38-32.97,65.07c21.68-26.65,43.36-53.3,65.04-79.95c-8.91,33.06-17.83,66.12-26.74,99.17
	c20.65-28.25,41.31-56.5,61.96-84.75c-2.72,21.54-5.44,43.07-8.16,64.61c12.15-7.21,24.3-14.42,36.45-21.62
	c-1.86,15.58-3.72,31.17-5.58,46.75c5.76-4.37,11.51-8.75,17.27-13.12"/>
<g>
	
		<line fill="none" stroke="#000000" stroke-width="7" stroke-linecap="round" stroke-linejoin="round" stroke-miterlimit="10" x1="48.17" y1="63.18" x2="48.17" y2="293.42"/>
	
		<polyline fill="none" stroke="#000000" stroke-width="7" stroke-linecap="round" stroke-linejoin="round" stroke-miterlimit="10" points="
		25.67,85.18 48.17,63.18 70.67,85.18 	"/>
</g>
<g>
	
		<line fill="none" stroke="#000000" stroke-width="7" stroke-linecap="round" stroke-linejoin="round" stroke-miterlimit="10" x1="22.69" y1="270.43" x2="462.71" y2="270.43"/>
	
		<polyline fill="none" stroke="#000000" stroke-width="7" stroke-linecap="round" stroke-linejoin="round" stroke-miterlimit="10" points="
		440.71,247.93 462.71,270.43 440.71,292.93 	"/>
</g>
<text transform="matrix(1 0 0 1 395.4238 332.4529)" font-family="'PermanentMarker'" font-size="30.74px">intimacy</text>
<text transform="matrix(1 0 0 1 16.8691 33.9768)"><tspan x="0" y="0" font-family="'PermanentMarker'" font-size="30.74px"># of barri</tspan><tspan x="156.28" y="0" font-family="'PermanentMarker'" font-size="30.74px">e</tspan><tspan x="172.01" y="0" font-family="'PermanentMarker'" font-size="30.74px">rs unc</tspan><tspan x="265.4" y="0" font-family="'PermanentMarker'" font-size="30.74px">o</tspan><tspan x="283.8" y="0" font-family="'PermanentMarker'" font-size="30.74px">v</tspan><tspan x="298.72" y="0" font-family="'PermanentMarker'" font-size="30.74px">e</tspan><tspan x="314.45" y="0" font-family="'PermanentMarker'" font-size="30.74px">red</tspan></text>
<path fill="none" stroke="#86328C" stroke-width="7" stroke-linecap="round" stroke-linejoin="round" stroke-miterlimit="10" d="
	M72.02,254.65C146.26,145.93,278.5,79.46,410.04,84.75"/>
</svg>
