<?xml version="1.0" encoding="utf-8"?>
<!-- Generator: Adobe Illustrator 18.0.0, SVG Export Plug-In . SVG Version: 6.00 Build 0)  -->
<!DOCTYPE svg PUBLIC "-//W3C//DTD SVG 1.1//EN" "http://www.w3.org/Graphics/SVG/1.1/DTD/svg11.dtd">
<svg version="1.1" id="Layer_1" xmlns="http://www.w3.org/2000/svg" xmlns:xlink="http://www.w3.org/1999/xlink" x="0px" y="0px"
	 viewBox="0 0 559.5 390" enable-background="new 0 0 559.5 390" xml:space="preserve">
<path fill="none" stroke="#FFFFFF" stroke-width="120" stroke-linejoin="bevel" stroke-miterlimit="10" d="M35.5,4.4
	c-10.8,11-22.2,23.2-24,38.5s11.9,32.9,26.7,28.5c13.2-3.9,16.9-20.4,25-31.6c14.1-19.4,41.4-22.1,65.4-23
	c95.6-3.7,191.3-7.3,286.9-11c11-0.4,22.5-0.8,32.7,3.4s18.9,14.3,17.8,25.3c-1,10.4-10,18.1-19.1,23.4C402,84,342,78,301.5,110.6
	c-23.4,18.8-36.3,47.8-45.3,76.5c-8.9,28.7-14.9,58.6-28.4,85.5c-15.7,31.3-42.9,58.2-76.8,67c-33.9,8.8-74.1-4-91.6-34.4
	c-10-17.4-12-38.2-13.7-58.2c-4.9-57.8-9.9-115.6-14.8-173.4c-15.5,12.5-19.2,34.3-20.8,54.2c-6.2,75.7,2.5,151.7,11.2,227.1
	c2.4,20.9,7.6,45.6,27.1,53.3c16.2,6.5,34.1-2.4,49.5-10.7c58.5-31.8,123.6-59.9,189.6-50.8c25.7,3.5,50.2,12.6,75.3,19.4
	c25.1,6.7,51.6,11.1,76.8,5s48.8-24.6,54.3-50c-67.6-1.1-135.1-2.2-202.7-3.2c-7.1-73.1,33.2-148.6,98-183.3c1.7,21,3.4,42,5.1,63
	c0.3,4.1,0.8,8.5,3.3,11.8c5.7,7.4,18.3,4.2,24.1-3.2c5.8-7.3,7.3-17.1,10.9-25.7c9-21.5,32.6-35.8,55.8-33.8
	c23.2,2,65.9,22.1,71.1,44.8"/>
<g>
	
		<line fill="none" stroke="#000000" stroke-width="7" stroke-linecap="round" stroke-linejoin="round" stroke-miterlimit="10" x1="484.9" y1="359.8" x2="19.4" y2="359.8"/>
	
		<line fill="none" stroke="#000000" stroke-width="7" stroke-linecap="round" stroke-linejoin="round" stroke-miterlimit="10" x1="41.9" y1="48.2" x2="41.9" y2="382.3"/>
</g>
<g>
	
		<polyline fill="none" stroke="#000000" stroke-width="7" stroke-linecap="round" stroke-linejoin="round" stroke-miterlimit="10" points="
		462.9,337.3 484.9,359.8 462.9,382.3 	"/>
	<text transform="matrix(1 0 0 1 293.6646 325.2773)" font-family="'PermanentMarker'" font-size="30.7418">beard length</text>
</g>
<g>
	
		<polyline fill="none" stroke="#000000" stroke-width="7" stroke-linecap="round" stroke-linejoin="round" stroke-miterlimit="10" points="
		19.4,70.2 41.9,48.2 64.4,70.2 	"/>
	<text transform="matrix(1 0 0 1 14.4351 31.2734)" font-family="'PermanentMarker'" font-size="30.7418">efforts required for shaving</text>
</g>
<path fill="none" stroke="#7AC943" stroke-width="7" stroke-linecap="round" stroke-linejoin="round" stroke-miterlimit="10" d="
	M51.2,349.8c40.7-1.4,81.2-6.6,120.9-15.5c18.2-4.1,36.9-9.3,51.4-21.1c20.6-16.8,29.3-44.5,31.4-71c2.1-26.5-1.4-53.2,0-79.8
	c0.9-17,4-34.4,13.4-48.5c12.4-18.5,33.8-28.9,55.1-35.4c49.7-15.3,98.8-21.3,153.5-21.3"/>
<g>
	<path fill="none" stroke="#000000" stroke-width="7" stroke-linecap="round" stroke-linejoin="round" stroke-miterlimit="10" d="
		M249.6,191.3c3.1,4.4,6.2,8.7,9.4,13.1"/>
	<path fill="none" stroke="#000000" stroke-width="7" stroke-linecap="round" stroke-linejoin="round" stroke-miterlimit="10" d="
		M247.7,205.8c3.3-6.1,7.9-11.4,13.5-15.5"/>
	<text transform="matrix(1 0 0 1 287.6658 166.7734)"><tspan x="0" y="0" font-family="'PermanentMarker'" font-size="30.7418">inflection point</tspan><tspan x="0" y="24" font-family="'PermanentMarker'" font-size="30.7418">lazy people know</tspan><tspan x="0" y="48" font-family="'PermanentMarker'" font-size="30.7418">very well</tspan></text>
</g>
</svg>
