<?xml version="1.0" encoding="utf-8"?>
<!-- Generator: Adobe Illustrator 19.2.0, SVG Export Plug-In . SVG Version: 6.00 Build 0)  -->
<svg version="1.1" id="Layer_1" xmlns="http://www.w3.org/2000/svg" xmlns:xlink="http://www.w3.org/1999/xlink" x="0px" y="0px"
	 width="451.8px" height="302.1px" viewBox="0 0 451.8 302.1" enable-background="new 0 0 451.8 302.1" xml:space="preserve">
<symbol  id="Arrow_right_1_" viewBox="-25.5 -26 29 52">
	
		<polyline fill="none" stroke="#231F20" stroke-width="7" stroke-linecap="round" stroke-linejoin="round" stroke-miterlimit="10" points="
		-22,22.5 0,0 -22,-22.5 	"/>
</symbol>
<symbol  id="Arrow_up" viewBox="-26 -25.5 52 29">
	
		<polyline fill="none" stroke="#231F20" stroke-width="7" stroke-linecap="round" stroke-linejoin="round" stroke-miterlimit="10" points="
		-22.5,-22 0,0 22.5,-22 	"/>
</symbol>
<path fill="none" stroke="#FFFFFF" stroke-width="120" stroke-linejoin="bevel" stroke-miterlimit="10" d="M162.6,16.7
	c-40.1-0.7-80.2-1.4-120.3-2.1c-10.1-0.2-22,0.5-27.6,8.9C7.6,34.2,17.5,49.6,30,52.8c12.5,3.2,25.4-1.7,37.4-6.5
	c-1,8.3-10.4,12.3-18.3,15.1c-7.9,2.8-17.1,8.2-16.4,16.5c0.4,5.2,4.9,9.3,9.8,10.9c4.9,1.6,10.2,1.3,15.4,0.9
	c-8.5,17.4-17,34.8-25.5,52.2c6.7,0.3,13.5,0.5,20.2,0.8c-5.7,15.1-11.3,30.1-17,45.2c4.4,0.2,8.8,0.4,13.1,0.5
	c-4.3,11.7-8.7,23.3-13,35c-9.2-1.1-18.4-2.2-27.6-3.3c7.2,13,19.4,23.1,33.5,27.9c6,2,12.8,3,18.3,0.1s8.5-11.1,4.3-15.8
	c-2.3,3.3,1.1,8.7,5.1,8.1c3.2-6.4,6.5-12.8,9.7-19.3c8.6,15.5,29.8,22.5,45.9,15.2c-1.3,21.3-2.6,42.6-3.8,63.8
	c18.9-21.5,33.8-46.5,43.7-73.3c-4.2,32.3-8.4,64.6-12.6,96.8c17.6-36.5,35.1-72.9,52.7-109.4c-1,27-2,54-3,81
	c11-26.2,22-52.4,33-78.6c0,28.1-0.1,56.3-0.1,84.4c8.8-26.7,17.6-53.4,26.4-80.1c-2.8,28.9,2.8,58.5,15.9,84.4
	c3.8-30.9,7.5-61.9,11.3-92.8c7.1,30.5,16.5,64.3,43.4,80.2c6.7-12.6,7.7-28.1,2.5-41.4c-5.2-13.3-16.5-24-29.9-28.7
	c27.2,2.1,54.3,4.2,81.5,6.2c8.1,0.6,16.4,1.2,24.1-1.1c7.8-2.3,15.1-8.1,16.7-16c-4.8-1.1-9.5-2.2-14.3-3.3
	c10.1,5,17.3,15.4,18.4,26.7c1.1,11.2-4,22.8-13,29.7c4.8-24.6-0.8-50.4-11.2-73.2c-10.4-22.8-25.5-43.2-40.4-63.4
	c-18,15.3-45.6,18.1-66.3,6.7c-23.1-12.8-36.9-40.8-62.4-47.8c-11.4-3.1-23.5-1.4-35.4-1.6c-11.8-0.2-24.8-3-32-12.3
	c-3.7-4.8-5.7-11.1-10.6-14.8c-7.1-5.3-17.3-2.9-24.9,1.4c-24,13.7-34.8,42-43.9,68.1c-2.9,8.2-5.7,16.4-8.6,24.7
	c-8.1,23.2-16.2,46.5-22.5,70.3"/>
<g id="Arrow_right">
</g>
<g>
	
		<line fill="none" stroke="#231F20" stroke-width="7" stroke-linecap="round" stroke-linejoin="round" stroke-miterlimit="10" x1="42.9" y1="39.1" x2="42.9" y2="249.4"/>
	
		<line fill="none" stroke="#231F20" stroke-width="7" stroke-linecap="round" stroke-linejoin="round" stroke-miterlimit="10" x1="20.4" y1="226.9" x2="434" y2="226.9"/>
	
		<use xlink:href="#Arrow_right_1_"  width="29" height="52" x="-25.5" y="-26" transform="matrix(1 0 0 -1 434.0198 226.8902)" overflow="visible"/>
	
		<use xlink:href="#Arrow_up"  width="52" height="29" x="-26" y="-25.5" transform="matrix(1 0 0 -1 42.9275 39.0534)" overflow="visible"/>
</g>
<text transform="matrix(1 0 0 1 15.9476 26.4951)" fill="#231F20" font-family="'PermanentMarker'" font-size="30.74px">happiness</text>
<text transform="matrix(1 0 0 1 133.9085 263.4918)"><tspan x="0" y="0" fill="#231F20" font-family="'PermanentMarker'" font-size="30.74px"># of choices</tspan><tspan x="-32.3" y="30" fill="#231F20" font-family="'PermanentMarker'" font-size="30.74px">available to you</tspan></text>
<path fill="none" stroke="#BE1E2D" stroke-width="7" stroke-linecap="round" stroke-linejoin="round" stroke-miterlimit="10" d="
	M56.2,212c11.3-28.6,22.5-57.1,33.8-85.7c5.3-13.4,10-27.3,16.5-40.2c5.6-11.2,13.4-21.8,24.9-27.4c13-6.3,25.6-1.7,38,3.5
	c14.1,5.9,28.1,11.8,42.2,17.6c28.3,11.9,56.7,23.7,85,35.6c28.3,11.9,56.7,23.7,85,35.6c3.4,1.4,6.9,2.9,10.3,4.3"/>
</svg>
