<?xml version="1.0" encoding="utf-8"?>
<!-- Generator: Adobe Illustrator 19.2.0, SVG Export Plug-In . SVG Version: 6.00 Build 0)  -->
<svg version="1.1" id="Layer_1" xmlns="http://www.w3.org/2000/svg" xmlns:xlink="http://www.w3.org/1999/xlink" x="0px" y="0px"
	 width="577.9px" height="298.5px" viewBox="0 0 577.9 298.5" enable-background="new 0 0 577.9 298.5" xml:space="preserve">
<path fill="none" stroke="#FFFFFF" stroke-width="120" stroke-linejoin="bevel" stroke-miterlimit="10" d="M174.7,31.3
	c-46.1-0.3-92.2-0.5-138.3-0.8C23,30.5,6.6,32.3,1.3,44.6c-5.9,13.7,9.3,29,24.2,29.2s28.1-9.1,40.1-18C52.8,82.9,40,110,27.2,137.1
	c6,1.1,12.1,2.2,18.1,3.4c-5.8,10.3-7.5,22.9-4.5,34.4c-6.2,22.2-12.5,44.4-18.7,66.6c8.5-2.3,17-4.5,25.5-6.8
	c-2.4,10.8-4.7,21.7-7.1,32.5c16.8-6.8,25.4-28.8,17.8-45.2c3.8,12.3,7.7,24.6,11.5,36.9c0.7,2.4,1.5,4.7,2.5,7
	c7,14.8,28.9,19.7,41.6,9.4c12.6-10.4,12.1-32.9-1.1-42.6c6.5,23,12.9,46.1,19.4,69.1c13.8-25.8,27.6-51.6,41.3-77.4
	c4.4,25.8,8.8,51.5,13.2,77.3c8.1-24.2,16.1-48.5,24.2-72.7c7.9,21.6,15.8,43.2,23.7,64.8c6.7-19.7,13.4-39.5,20.2-59.2
	c9.7,10.4,19.4,20.8,29.1,31.2c8.4-17.7-4.1-39.5-21.5-48.4s-38-8.2-57.5-7.3s-40,1.7-57.5-7c-37.8-18.9-45.2-72.4-80-96.4
	c39.7,8.7,82.7,1.8,117.7-19c13.2-7.8,27.4-18,42.3-14.3c7.6,1.9,14.7,7.4,22.5,6.2c12.5-1.8,17.1-18.7,28.9-23.3
	c9.1-3.5,19.6,1.9,25.2,9.9c5.6,8,7.3,17.9,8.9,27.5c18.9-18.5,41.6-38.5,67.9-35.6c18.5,2,33.8,15.1,51.6,20.4
	c14,4.2,28.9,3.4,43.5,3s29.7-0.1,43,5.8c13.3,6,24.5,19.1,23.7,33.7c-14.2,4.2-30.9-4.2-36.1-18.1c9.6-6.3,19.4-12.7,30.5-15.7
	c11.1-3,23.9-2,32.7,5.4c8.8,7.4,11.7,22,4.1,30.6c-9.3,10.5-26.2,6.9-39.5,2.5c-27-9-54-18.1-81-27.1c-12.5-4.2-25.4-8.4-38.5-6.7
	c-13,1.7-26,11.2-27.2,24.3c4.7-10.1-6.2-21.7-17.3-22.2c-11.1-0.5-21.1,6.1-30.2,12.4c-5.9,4.1-11.8,8.2-17.7,12.3
	c-8.1,5.6-16.2,11.2-23,18.3c-10.1,10.6-19.6,25.6-34.2,25.1c-11.7-0.4-20.7-11.7-22.6-23.2c-1.9-11.6,1.5-23.3,5-34.5
	c1.7,36-12.1,72.6-37.2,98.5c-17.5,18.1-42.9,31.5-67.3,25.6c-17.7-4.3-32-18.2-40.5-34.4s-11.8-34.5-14-52.6"/>
<g id="Arrow_right">
</g>
<g>
	
		<line fill="none" stroke="#000000" stroke-width="7" stroke-linecap="round" stroke-linejoin="round" stroke-miterlimit="10" x1="45.2" y1="54.4" x2="45.2" y2="258.6"/>
	
		<line fill="none" stroke="#000000" stroke-width="7" stroke-linecap="round" stroke-linejoin="round" stroke-miterlimit="10" x1="24.1" y1="236.1" x2="285.2" y2="236.1"/>
	<g>
		
			<polyline fill="none" stroke="#000000" stroke-width="7" stroke-linecap="round" stroke-linejoin="round" stroke-miterlimit="10" points="
			22.7,76.4 45.2,54.4 67.7,76.4 		"/>
	</g>
	<g>
		
			<polyline fill="none" stroke="#000000" stroke-width="7" stroke-linecap="round" stroke-linejoin="round" stroke-miterlimit="10" points="
			263.2,213.6 285.2,236.1 263.2,258.6 		"/>
	</g>
</g>
<text transform="matrix(1 0 0 1 54.0708 279.4256)" font-family="'PermanentMarker'" font-size="30.74px">activity level</text>
<text transform="matrix(1 0 0 1 18.6617 43.9059)" font-family="'PermanentMarker'" font-size="30.74px">body odor</text>
<path fill="none" stroke="#BE1E2D" stroke-width="7" stroke-linecap="round" stroke-linejoin="round" stroke-miterlimit="10" d="
	M85.1,107.7c4.9,45.6,20.9,103.6,73.9,114.6c11,2,22,0,32-5c39-20,47-69,51.4-109"/>
<g>
	<path fill="none" stroke="#000000" stroke-width="7" stroke-linecap="round" stroke-linejoin="round" stroke-miterlimit="10" d="
		M233.4,139.4c3,1.8,6,3.5,9,5.3"/>
	<path fill="none" stroke="#000000" stroke-width="7" stroke-linecap="round" stroke-linejoin="round" stroke-miterlimit="10" d="
		M232.8,147c3.3-3.1,6.5-6.2,9.8-9.3"/>
	<path fill="none" stroke="#000000" stroke-width="7" stroke-linecap="round" stroke-linejoin="round" stroke-miterlimit="10" d="
		M254.9,140.1c8.6-0.2,14.8,9.1,23.4,10.1c5.5,0.7,11-2.3,14.9-6.3c3.9-4,6.7-8.9,10-13.4c3.3-4.5,7.4-8.8,12.7-10.6"/>
	<text transform="matrix(1 0 0 1 330.7511 117.8224)" font-family="'PermanentMarker'" font-size="30.74px">half-marathon</text>
</g>
<g>
	<path fill="none" stroke="#000000" stroke-width="7" stroke-linecap="round" stroke-linejoin="round" stroke-miterlimit="10" d="
		M92.7,122.7c-1.5,4.2-4.8,7.8-8.8,9.8"/>
	<path fill="none" stroke="#000000" stroke-width="7" stroke-linecap="round" stroke-linejoin="round" stroke-miterlimit="10" d="
		M84.3,124.2c3.1,2.2,6.2,4.4,9.3,6.6"/>
	<path fill="none" stroke="#000000" stroke-width="7" stroke-linecap="round" stroke-linejoin="round" stroke-miterlimit="10" d="
		M103.3,122.3c12.8,4.5,27.5,3.1,39.2-3.7c8.3-4.9,14.9-12.1,22-18.7c7-6.6,15.1-12.8,24.5-14.6"/>
	<text transform="matrix(1 0 0 1 201.5184 81.8069)" font-family="'PermanentMarker'" font-size="30.74px">netflix marathon</text>
</g>
<g id="Arrow_up">
</g>
</svg>
