<?xml version="1.0" encoding="utf-8"?>
<!-- Generator: Adobe Illustrator 18.0.0, SVG Export Plug-In . SVG Version: 6.00 Build 0)  -->
<!DOCTYPE svg PUBLIC "-//W3C//DTD SVG 1.1//EN" "http://www.w3.org/Graphics/SVG/1.1/DTD/svg11.dtd">
<svg version="1.1" id="Layer_1" xmlns="http://www.w3.org/2000/svg" xmlns:xlink="http://www.w3.org/1999/xlink" x="0px" y="0px"
	 viewBox="0 0 648.8 447" enable-background="new 0 0 648.8 447" xml:space="preserve">
<path fill="none" stroke="#FFFFFF" stroke-width="120" stroke-linejoin="bevel" stroke-miterlimit="10" d="M13.8,49.3
	c22-19.3,49.9-31.8,79-35.5C99.9,31.6,84,49.6,70,62.6s-28.6,32.9-19.1,49.5c28.8-33.8,60.2-65.3,93.7-94.3
	c8.8,17.5,3.6,39.2-7.4,55.3s-27.3,27.8-42.7,39.8s-30.9,25-39.6,42.5c-17.2,34.7-3.5,76.3-7.4,114.9C45,294.9,35.1,318.4,33.3,343
	c-1.9,24.7,7.2,53.2,30.2,62.3c15.1-73.2,29.4-146.5,43-220c-12.5,9.7-13.3,28.6-8.1,43.6s15,27.8,20.6,42.6
	c6.3,16.6,7.1,34.6,7.9,52.3c0.7,17.5,1.4,35,2.1,52.4c10.3-36.9,20.6-73.8,30.9-110.8c1.4-5.1,4-11.2,9.3-11.4
	c5.4-0.3,8.6,6,10.3,11.1c12.6,37.9,25.1,75.8,37.7,113.7c17-19.8,30.4-42.6,39.2-67.2c8.4-8.1,23.4-1.2,28.7,9.2
	c5.3,10.4,4.8,22.7,7.3,34.1s10.5,23.5,22.2,23.6c-2.9-63.5-5.7-126.9-8.6-190.4c56,47.9,81.3,128.8,62.7,200.1
	c-1.6,6.1-3.5,12.2-2.9,18.5c0.5,6.2,4.2,12.7,10.3,14.3c11.7,3.2,19.4-11.8,22.6-23.5c12.7-46.5,31.8-91.3,56.8-132.5
	c13.4,23.8,6.5,53.6-3,79.2c-9.5,25.6-21.7,51.9-18,78.9c45,2.1,90.2-1.2,134.4-9.9c10.4-2,21-4.5,29.6-10.6
	c8.6-6.1,14.9-16.7,12.8-27.1c-36.6-10.5-75.8-12.3-113.2-5.2c-9.6,1.8-20.6,3.9-28.3-2.1c-11.2-8.8-5.2-28.4,7.1-35.8
	s27.5-6.8,41.7-8.1c36.6-3.4,71.7-21.3,96-48.9c-41.5-1.3-82.9-2.6-124.4-3.9c-8.4-47.5-7.9-96.5,1.6-143.7
	c3.4-16.8,7.9-34.2,3.9-50.9c-5.9-24.7-29.5-42-54.1-48.2c-24.6-6.2-50.5-3.6-75.8-1.6c-61,4.7-122.3,5.1-183.3,1.3"/>
<g>
	
		<polyline fill="none" stroke="#000000" stroke-width="7" stroke-linecap="round" stroke-linejoin="round" stroke-miterlimit="10" points="
		589.3,352.9 611.3,375.4 589.3,397.9 	"/>
	
		<line fill="none" stroke="#000000" stroke-width="7" stroke-linecap="round" stroke-linejoin="round" stroke-miterlimit="10" x1="27.9" y1="375.4" x2="611.3" y2="375.4"/>
	
		<line fill="none" stroke="#000000" stroke-width="7" stroke-linecap="round" stroke-linejoin="round" stroke-miterlimit="10" x1="50.4" y1="48.7" x2="50.4" y2="397.4"/>
	
		<polyline fill="none" stroke="#000000" stroke-width="7" stroke-linecap="round" stroke-linejoin="round" stroke-miterlimit="10" points="
		27.9,70.7 50.4,48.7 72.9,70.7 	"/>
</g>
<g>
	<text transform="matrix(1 0 0 1 27.856 36.1778)" font-family="'PermanentMarker'" font-size="31">specialness of each individual</text>
</g>
<text transform="matrix(1 0 0 1 339.521 426.7423)" font-family="'PermanentMarker'" font-size="31">world population</text>
<path fill="none" stroke="#FF7BAC" stroke-width="7" stroke-linecap="round" stroke-linejoin="round" stroke-miterlimit="10" d="
	M55.7,72.9c-7.5,55.9,21.7,110.9,60.1,152.2c9.1,9.8,18.8,19.1,29.1,27.9c11.8,10.1,24.3,19.4,37.2,28.1
	c51.6,34.5,110.4,57.9,171.6,68.3c9.8,1.7,19.7,3,29.6,4.4c6.2,0.8,12.5,1.7,18.7,2.5c62,8.4,125,12.2,187.4,12.2"/>
<g>
	<path fill="none" stroke="#000000" stroke-width="7" stroke-linecap="round" stroke-linejoin="round" stroke-miterlimit="10" d="
		M410.2,350.1c-3.2,3.7-6.3,7.4-9.5,11.1"/>
	<path fill="none" stroke="#000000" stroke-width="7" stroke-linecap="round" stroke-linejoin="round" stroke-miterlimit="10" d="
		M401.7,350.5c1.5,2.9,3,5.9,4.5,8.8c0.8,1.7,2.1,3.6,3.9,3.4"/>
	<path fill="none" stroke="#000000" stroke-width="7" stroke-linecap="round" stroke-linejoin="round" stroke-miterlimit="10" d="
		M404.2,341.2c-5.4-21-11.9-43.4-28.4-57.4c-10.2-8.6-23.1-13.2-33.8-21.2c-16-11.9-26.1-31.5-26.5-51.4"/>
	<text transform="matrix(1 0 0 1 290.4805 203.7433)" font-family="'PermanentMarker'" font-size="31">you</text>
</g>
<g>
	<path fill="none" stroke="#000000" stroke-width="7" stroke-linecap="round" stroke-linejoin="round" stroke-miterlimit="10" d="
		M438.3,354.6c-2.8,3.8-5.4,7.6-7.9,11.6"/>
	<path fill="none" stroke="#000000" stroke-width="7" stroke-linecap="round" stroke-linejoin="round" stroke-miterlimit="10" d="
		M429.1,354.1c2.4,0,4.6,1.6,6,3.6s2.5,4.1,4.2,6"/>
	<path fill="none" stroke="#000000" stroke-width="7" stroke-linecap="round" stroke-linejoin="round" stroke-miterlimit="10" d="
		M435.1,342.4c-1-20.6,5.8-41.5,18.8-57.4"/>
	<text transform="matrix(1 0 0 1 420.3706 274.7404)" font-family="'PermanentMarker'" font-size="31">you next year</text>
</g>
</svg>
