<?xml version="1.0" encoding="utf-8"?>
<!-- Generator: Adobe Illustrator 19.2.0, SVG Export Plug-In . SVG Version: 6.00 Build 0)  -->
<svg version="1.1" id="Layer_1" xmlns="http://www.w3.org/2000/svg" xmlns:xlink="http://www.w3.org/1999/xlink" x="0px" y="0px"
	 width="504.5px" height="271.1px" viewBox="0 0 504.5 271.1" enable-background="new 0 0 504.5 271.1" xml:space="preserve">
<path fill="none" stroke="#FFFFFF" stroke-width="120" stroke-linejoin="bevel" stroke-miterlimit="10" d="M22.7,8.3
	c-0.4,16.2-0.8,32.3-1.2,48.5c26-18.9,52-37.9,78-56.8c5.7,10.9-1.4,24.5-11.1,31.9s-21.9,11.2-32,18.1S38.2,69.6,42.2,81.1
	c23.1-18.9,46.3-37.7,69.4-56.6c4.4-3.6,9.5-7.4,15.2-6.6c5.6,0.8,9.5,9.3,4.6,12.2c-26.6,14.6-54.2,30-70.9,55.3
	c-10.1,15.2-15.5,33-20.7,50.6c-5.2,17.4-10.4,34.7-15.6,52.1c-1.7,5.8-3.4,12.2-0.7,17.6c4.6,9.1,19.2,7.9,25.9,0.3
	c6.8-7.6,8-18.5,8.8-28.6c-0.8,7-1.5,14.4,0.9,21.1c2.4,6.7,8.8,12.5,15.8,11.7c6-0.7,10.7-5.9,12.6-11.7c1.9-5.8,1.5-12,1.1-18
	c-1.8-26.6-3.6-53.1-5.4-79.7c10.2,44.2,31.4,85.9,61.2,120.1C128.2,169.3,112,117.6,95.7,65.9c27.9,47.1,55.8,94.2,83.6,141.2
	c-3.2-49.5-19.1-98.1-45.9-139.9c28,44.1,56,88.2,84,132.3c-15.8-39.6-31.6-79.2-47.4-118.8c-1.3-3.3-2.6-6.8-1.7-10.2
	c1.9-6.7,11.8-7.7,17.3-3.5c5.5,4.2,7.7,11.4,9.7,18c13.6,45.2,33.2,88.5,58.1,128.6c-15-53.8-30.1-107.5-45.1-161.3
	c12.3,29.6,24.6,59.2,36.9,88.8c11.1,26.6,22.9,54.3,44.9,72.8c-16.5-49.4-33-98.7-49.5-148.1c7.2-1.2,14.5,3,19,8.8
	s6.6,13.1,8.3,20.2c4.9,20.8,7.1,42.4,14.7,62.4c7.6,20,22,39,42.5,45c-10.3-23.4-20.7-46.8-31-70.2c-11.1-25.2-22.5-52.7-16.1-79.5
	c26,30.5,43.4,68.2,49.7,107.8c0.7,4.5,1.3,9.1,3.6,13c2.3,3.9,6.7,6.9,11.1,6.1c4.7-0.9,7.7-5.8,8-10.6c0.3-4.7-1.5-9.3-3.2-13.8
	c-13.1-33.3-26.3-66.6-39.4-100c26.9-20.3,61.1-30.7,94.8-28.5C383.7,44,371,68,367.4,93.5c25.2-25.3,51.3-51.1,84.4-64.5
	c-18,25.9-36,51.8-54,77.7c17.9-13.9,35.7-27.9,53.6-41.8C461.5,56.9,476,48.9,486,57c5.9,4.8,7.1,13.7,4.4,20.7
	c-2.7,7.1-8.4,12.5-14.6,16.9c-21.9,15.5-51.4,19.9-76.9,11.4c-6.8-2.3-13.4-5.4-20.5-6.6c-7.1-1.2-15.1,0-20.1,5.2
	c-5.9,6.2-5.6,16.4-1.7,24c3.9,7.6,10.7,13.2,17.3,18.7c18.6-19.9,37.3-39.7,55.9-59.6c-21.3,54.8-68.8,94.4-114.3,131.6
	c26-13.3,52-26.5,78-39.8c-5.9,17.4-11.7,34.7-17.6,52.1c-3.2,9.5-6.7,19.5-14.1,26.4c-7.4,6.9-19.9,9.3-27.4,2.6
	c-5.5-5-6.8-13.2-11.3-19c-8.7-11.2-29.6-8.1-34.8,5.1"/>
<g id="Arrow_right">
</g>
<g>
	
		<line fill="none" stroke="#000000" stroke-width="7" stroke-linecap="round" stroke-linejoin="round" stroke-miterlimit="10" x1="48" y1="46" x2="48" y2="220.2"/>
	<g>
		
			<polyline fill="none" stroke="#000000" stroke-width="7" stroke-linecap="round" stroke-linejoin="round" stroke-miterlimit="10" points="
			25.5,68 48,46 70.5,68 		"/>
	</g>
	
		<line fill="none" stroke="#000000" stroke-width="7" stroke-linecap="round" stroke-linejoin="round" stroke-miterlimit="10" x1="25.5" y1="197.7" x2="377.8" y2="197.7"/>
	<g>
		
			<polyline fill="none" stroke="#000000" stroke-width="7" stroke-linecap="round" stroke-linejoin="round" stroke-miterlimit="10" points="
			355.8,175.2 377.8,197.7 355.8,220.2 		"/>
	</g>
</g>
<text transform="matrix(1 0 0 1 286.097 251.034)" font-family="'PermanentMarker'" font-size="30.74px">effort</text>
<text transform="matrix(1 0 0 1 21.1517 36.5074)" font-family="'PermanentMarker'" font-size="30.74px">success</text>
<path fill="none" stroke="#ED7C31" stroke-width="7" stroke-linecap="round" stroke-linejoin="round" stroke-miterlimit="10" d="
	M68.8,177.7c55.1-21.5,110.5-42.2,165.9-62.8c34.5-12.9,69-25.7,103.5-38.6"/>
<text transform="matrix(1 0 0 1 355.8084 59.2763)"><tspan x="0" y="0" fill="#ED7C31" font-family="'PermanentMarker'" font-size="30.74px">expected</tspan><tspan x="0" y="30" fill="#ED7C31" font-family="'PermanentMarker'" font-size="30.74px">outcome</tspan></text>
<g>
	<path fill="none" stroke="#F4BB3A" stroke-width="7" stroke-linecap="round" stroke-linejoin="round" stroke-miterlimit="10" d="
		M76,158.4c0.2,0.9,1.4,1.3,2.1,0.8c-0.1-0.7-0.2-1.5-0.3-2.2"/>
	<path fill="none" stroke="#F4BB3A" stroke-width="7" stroke-linecap="round" stroke-linejoin="round" stroke-miterlimit="10" d="
		M106.5,151.8c0.1-0.5,0.3-1,0.4-1.4"/>
	<path fill="none" stroke="#F4BB3A" stroke-width="7" stroke-linecap="round" stroke-linejoin="round" stroke-miterlimit="10" d="
		M97.4,179.1c0.5-1.3-0.1-2.9-1.4-3.4"/>
	<path fill="none" stroke="#F4BB3A" stroke-width="7" stroke-linecap="round" stroke-linejoin="round" stroke-miterlimit="10" d="
		M118.2,169.2c1.1,0,2.1-0.1,3.2-0.1c0.5-0.5,0.4-1.4-0.2-1.8c-0.6-0.4-1.5-0.2-1.8,0.4"/>
	<path fill="none" stroke="#F4BB3A" stroke-width="7" stroke-linecap="round" stroke-linejoin="round" stroke-miterlimit="10" d="
		M112.4,133.4c0.6,0,1.2-0.1,1.8-0.1c0.4-1,0.1-2.2-0.8-2.8"/>
	<path fill="none" stroke="#F4BB3A" stroke-width="7" stroke-linecap="round" stroke-linejoin="round" stroke-miterlimit="10" d="
		M142.7,125.4c0.6,0.4,1.6,0.2,2-0.5c0.4-0.7,0.1-1.6-0.5-2"/>
	<path fill="none" stroke="#F4BB3A" stroke-width="7" stroke-linecap="round" stroke-linejoin="round" stroke-miterlimit="10" d="
		M83.7,118.9c-0.8,0.6-0.9,1.8-0.3,2.6c0.6,0.7,1.9,0.8,2.6,0.1"/>
	<path fill="none" stroke="#F4BB3A" stroke-width="7" stroke-linecap="round" stroke-linejoin="round" stroke-miterlimit="10" d="
		M88.9,89.2c0.8-0.5,1.2-1.7,0.7-2.6"/>
	<path fill="none" stroke="#F4BB3A" stroke-width="7" stroke-linecap="round" stroke-linejoin="round" stroke-miterlimit="10" d="
		M165,152.9c0.4,0.1,0.9,0.1,1.3,0.2c0.2-0.8,0.3-1.6,0.5-2.4"/>
	<path fill="none" stroke="#F4BB3A" stroke-width="7" stroke-linecap="round" stroke-linejoin="round" stroke-miterlimit="10" d="
		M153.9,173.9c-0.1,1.2-0.2,2.5-0.3,3.7c0.6,0,1.2,0,1.8,0c0-0.6,0-1.2,0.1-1.8"/>
	<path fill="none" stroke="#F4BB3A" stroke-width="7" stroke-linecap="round" stroke-linejoin="round" stroke-miterlimit="10" d="
		M114.4,106.3c0.4,1.1,2.2,1.4,2.9,0.4"/>
	<path fill="none" stroke="#F4BB3A" stroke-width="7" stroke-linecap="round" stroke-linejoin="round" stroke-miterlimit="10" d="
		M129,81.3c-0.9,0.7-0.3,2.5,0.9,2.4c1.1,0,1.7-1.8,0.8-2.5"/>
	<path fill="none" stroke="#F4BB3A" stroke-width="7" stroke-linecap="round" stroke-linejoin="round" stroke-miterlimit="10" d="
		M152.5,100.7c0.2,0.9,1.4,1.3,2.1,0.7c-0.1-0.4-0.2-0.9-0.2-1.3"/>
	<path fill="none" stroke="#F4BB3A" stroke-width="7" stroke-linecap="round" stroke-linejoin="round" stroke-miterlimit="10" d="
		M177.3,117.6c0.2,0.5,1.2,0,0.9-0.4"/>
	<path fill="none" stroke="#F4BB3A" stroke-width="7" stroke-linecap="round" stroke-linejoin="round" stroke-miterlimit="10" d="
		M182.1,165.4c0-0.6,0-1.3,0-1.9"/>
	<path fill="none" stroke="#F4BB3A" stroke-width="7" stroke-linecap="round" stroke-linejoin="round" stroke-miterlimit="10" d="
		M208.9,175.9c0.6,0.3,1.4,0.1,1.8-0.5c0.3-0.6,0.2-1.4-0.4-1.8"/>
	<path fill="none" stroke="#F4BB3A" stroke-width="7" stroke-linecap="round" stroke-linejoin="round" stroke-miterlimit="10" d="
		M136.2,147.6c0.8,0.3,1.6,0.5,2.4,0.8c-0.1-0.4-0.3-0.7-0.4-1.1"/>
	<path fill="none" stroke="#F4BB3A" stroke-width="7" stroke-linecap="round" stroke-linejoin="round" stroke-miterlimit="10" d="
		M185.7,133.8c-0.7,0.7,0.7,2.1,1.4,1.4"/>
	<path fill="none" stroke="#F4BB3A" stroke-width="7" stroke-linecap="round" stroke-linejoin="round" stroke-miterlimit="10" d="
		M202.4,99.5c-0.1,0.5-0.1,0.9-0.2,1.4c0.5,0,0.9,0,1.4,0c0-0.8,0-1.5,0.1-2.3"/>
	<path fill="none" stroke="#F4BB3A" stroke-width="7" stroke-linecap="round" stroke-linejoin="round" stroke-miterlimit="10" d="
		M178.7,88.8c0,0.8,0,1.6,0.1,2.3c0.8-0.1,1.5-0.1,2.3-0.2"/>
	<path fill="none" stroke="#F4BB3A" stroke-width="7" stroke-linecap="round" stroke-linejoin="round" stroke-miterlimit="10" d="
		M160.6,71.4c0.9,0,1.4-1.2,0.8-1.8"/>
	<path fill="none" stroke="#F4BB3A" stroke-width="7" stroke-linecap="round" stroke-linejoin="round" stroke-miterlimit="10" d="
		M213.4,125.7c0,0.6,0.1,1.2,0.1,1.8c0.7-0.2,1.1-1.1,0.8-1.8"/>
	<path fill="none" stroke="#F4BB3A" stroke-width="7" stroke-linecap="round" stroke-linejoin="round" stroke-miterlimit="10" d="
		M210.5,152.7c0.2,0.5,0.9,0.7,1.4,0.4c0.4-0.3,0.5-1,0.1-1.4"/>
	<path fill="none" stroke="#F4BB3A" stroke-width="7" stroke-linecap="round" stroke-linejoin="round" stroke-miterlimit="10" d="
		M242,171.5c0.9,0.4,2-0.4,1.9-1.4"/>
	<path fill="none" stroke="#F4BB3A" stroke-width="7" stroke-linecap="round" stroke-linejoin="round" stroke-miterlimit="10" d="
		M238.9,143.5c-0.3,0.2-0.4,0.7-0.2,0.9c0.3,0.3,0.8,0.2,1-0.1c0.5-0.9,0.2-2.2-0.7-2.7"/>
	<path fill="none" stroke="#F4BB3A" stroke-width="7" stroke-linecap="round" stroke-linejoin="round" stroke-miterlimit="10" d="
		M237.7,106.6c0.5,0.1,1,0.1,1.5,0.2c-0.1-0.6-0.3-1.3-0.4-1.9"/>
	<path fill="none" stroke="#F4BB3A" stroke-width="7" stroke-linecap="round" stroke-linejoin="round" stroke-miterlimit="10" d="
		M220.8,86.1c0.6,0,1.2,0,1.8-0.1c0-0.8,0-1.5,0.1-2.3"/>
	<path fill="none" stroke="#F4BB3A" stroke-width="7" stroke-linecap="round" stroke-linejoin="round" stroke-miterlimit="10" d="
		M202.7,71.7c1-0.2,1.5-1.6,0.8-2.4"/>
	<path fill="none" stroke="#F4BB3A" stroke-width="7" stroke-linecap="round" stroke-linejoin="round" stroke-miterlimit="10" d="
		M251.5,71.9c-0.2,0.4,0.3,0.9,0.7,0.7c0.4-0.2,0.2-0.9-0.3-0.9"/>
	<path fill="none" stroke="#F4BB3A" stroke-width="7" stroke-linecap="round" stroke-linejoin="round" stroke-miterlimit="10" d="
		M259.5,96.9c0.2,0.5,1.2,0,0.9-0.4"/>
	<path fill="none" stroke="#F4BB3A" stroke-width="7" stroke-linecap="round" stroke-linejoin="round" stroke-miterlimit="10" d="
		M256.2,121.2c0.3-0.5,0.6-1,0.9-1.4"/>
	<path fill="none" stroke="#F4BB3A" stroke-width="7" stroke-linecap="round" stroke-linejoin="round" stroke-miterlimit="10" d="
		M278,143c0.5,0.3,1.3,0.1,1.5-0.5c0.3-0.6-0.1-1.3-0.7-1.5"/>
	<path fill="none" stroke="#F4BB3A" stroke-width="7" stroke-linecap="round" stroke-linejoin="round" stroke-miterlimit="10" d="
		M261.1,159.3c0.2-0.5,0.5-1,0.7-1.5"/>
	<path fill="none" stroke="#F4BB3A" stroke-width="7" stroke-linecap="round" stroke-linejoin="round" stroke-miterlimit="10" d="
		M284.5,175.3c-0.2,0.7,0.8,1.3,1.4,0.9c0-0.4,0.1-0.9,0.1-1.3"/>
	<path fill="none" stroke="#F4BB3A" stroke-width="7" stroke-linecap="round" stroke-linejoin="round" stroke-miterlimit="10" d="
		M304.1,134.7c-0.1,1.2,1.9,1.8,2.4,0.7s-1.1-2.3-2-1.6"/>
	<path fill="none" stroke="#F4BB3A" stroke-width="7" stroke-linecap="round" stroke-linejoin="round" stroke-miterlimit="10" d="
		M284.3,117.2C284.7,117.2,284.7,117.2,284.3,117.2"/>
	<path fill="none" stroke="#F4BB3A" stroke-width="7" stroke-linecap="round" stroke-linejoin="round" stroke-miterlimit="10" d="
		M287.4,95.6c0.6-0.2,1.3-0.3,1.9-0.5"/>
	<path fill="none" stroke="#F4BB3A" stroke-width="7" stroke-linecap="round" stroke-linejoin="round" stroke-miterlimit="10" d="
		M276.4,74.6c-0.3,0.6,0,1.4,0.7,1.6c0.6,0.2,1.4-0.4,1.4-1.1"/>
	<path fill="none" stroke="#F4BB3A" stroke-width="7" stroke-linecap="round" stroke-linejoin="round" stroke-miterlimit="10" d="
		M306.8,68.1c0.5,0,0.9-0.1,1.4-0.1c-0.1-0.5-0.1-0.9-0.2-1.4"/>
	<path fill="none" stroke="#F4BB3A" stroke-width="7" stroke-linecap="round" stroke-linejoin="round" stroke-miterlimit="10" d="
		M303.7,82.1c0.2,0.4,0.8,0.6,1.2,0.3s0.4-0.9,0-1.2"/>
	<path fill="none" stroke="#F4BB3A" stroke-width="7" stroke-linecap="round" stroke-linejoin="round" stroke-miterlimit="10" d="
		M315.7,100.3c0.6,0.6,1.8-0.2,1.4-1"/>
	<path fill="none" stroke="#F4BB3A" stroke-width="7" stroke-linecap="round" stroke-linejoin="round" stroke-miterlimit="10" d="
		M331.1,118.2c0.1-0.6,0.2-1.3,0.2-1.9"/>
	<path fill="none" stroke="#F4BB3A" stroke-width="7" stroke-linecap="round" stroke-linejoin="round" stroke-miterlimit="10" d="
		M331.3,152.6c0.2-0.2,0.3-0.3,0.5-0.5"/>
	<path fill="none" stroke="#F4BB3A" stroke-width="7" stroke-linecap="round" stroke-linejoin="round" stroke-miterlimit="10" d="
		M314.3,171.5c1.1,0,2.2,0,3.3-0.1c0-0.6-0.1-1.2-0.1-1.8"/>
</g>
<text transform="matrix(1 0 0 1 355.8084 119.7052)"><tspan x="0" y="0" fill="#F4BB3A" font-family="'PermanentMarker'" font-size="30.74px">actual</tspan><tspan x="0" y="30" fill="#F4BB3A" font-family="'PermanentMarker'" font-size="30.74px">data</tspan></text>
<g id="Arrow_up">
</g>
</svg>
