<?xml version="1.0" encoding="utf-8"?>
<!-- Generator: Adobe Illustrator 18.0.0, SVG Export Plug-In . SVG Version: 6.00 Build 0)  -->
<!DOCTYPE svg PUBLIC "-//W3C//DTD SVG 1.1//EN" "http://www.w3.org/Graphics/SVG/1.1/DTD/svg11.dtd">
<svg version="1.1" id="Layer_1" xmlns="http://www.w3.org/2000/svg" xmlns:xlink="http://www.w3.org/1999/xlink" x="0px" y="0px"
	 viewBox="0 0 970.6 771.7" enable-background="new 0 0 970.6 771.7" xml:space="preserve">
<path fill="none" stroke="#FFFFFF" stroke-width="120" stroke-linejoin="bevel" stroke-miterlimit="10" d="M-161.7,14.3
	C-58.3,11.3,45,8.2,148.4,5.2c22.8-0.7,46.9-1,66.5,10.5s31.4,39.5,17.8,57.8c-72.2-2.6-143.9-20.1-209.2-51
	c15.8,55.1,31.6,110.2,47.4,165.3c-26.9-30.3-70.3-42-110.8-39c-40.5,3-78.8,18.8-115.6,35.8c-70.2,32.5-137.9,70.5-202.3,113.5
	c85.2,16.4,170.5,32.8,255.7,49.2c44.5,8.6,100.2,12.8,125.3-24.9c18-27.1,10.5-62.8,7.5-95.3s4.6-72.7,35.5-83.1
	c30.8-10.4,60.6,16.5,81.7,41.2c21.1,24.7,49.2,52.6,80.7,44.6c6.8,34.8,13.5,69.5,20.3,104.3c-50.2,4.2-100.5,8.5-150.7,12.7
	c19.8,27.6,39.5,55.2,59.3,82.8c-41,18.1-86.1,36.5-129.4,24.9C-15.2,443-47,385.5-17.5,351.7c11.8,34.1,1.4,72.7-18.6,102.7
	c-20,30-48.6,53.1-76.8,75.6c-88.9,71.3-177.8,142.6-266.8,213.8c139.6-39,284.5-58.7,429.4-58.4c14.2-84.1,95.8-191,152.5-254.7
	C172.6,493.6,99.5,583.4,69.9,646.3c44.9,8.6,93.8-7.6,124.6-41.4s42.4-84,29.7-127.9c-19,59.2-8.2,127.3,28.4,177.6
	c16.4,22.6,38.4,43.5,42.6,71.1s-69,44.5-92.8,29.9c22.8,8.3,89.6,32.2,112.5,40.5c-19.8,23.4-39.9,47.5-49.6,76.5
	c-9.7,29-54.6,285.4-32.2,306.3c27.9,26,121.7-201.1,155.3-219.3s61.2-46.2,95.7-62.7c34.5-16.4,81.6-17.4,105.1,12.7
	c-16.3-45.1-66.5-67-112.4-81c-45.9-14-96.7-28-123.5-67.8c-22.5-33.3-21.9-78.1-8.5-115.9c13.5-37.9,38.3-70.5,62.7-102.4
	C348.6,554.7,289.8,567,231,579.2c44.5-39.3,103.1-62.3,162.5-63.5c-24-32.1-69.6-45.9-107.3-32.5c-13.2-23.5-10.8-54.9,5.7-76.2
	s46.2-31.5,72.3-24.6c-14.5-36.3-53-61.6-92-60.3c34.3,15.8,68.7,31.6,103,47.3c-7.3-60-42.1-116-92.7-149.1
	c58.2,20.7,129.8-8.7,156.5-64.4c-67,7.6-134,15.1-201,22.7c19.5-61.8,38.9-123.7,58.4-185.5c16.4-52.2,33.7-105.9,69.5-147.2
	c33.3-38.5,79.8-62.7,125-86c24.3,76.4,88.1,139.1,165,161.9c22,6.5,45.3,10.1,65.1,21.8c19.8,11.6,35.6,34.5,30,56.7
	c-4.9,19.4-23.5,31.6-40.7,41.8c-40.4,24.1-80.8,48.2-121.2,72.3c-43.8,26.1-90.1,53-141.1,54.5c-51,1.5-83.5-95.5-87.3-146.4
	c45.6,56.9,91.4,153.2,161.3,173.9c99.9,29.6,206.1,37.7,309.2,23.4c10.1-25.1-10.1-51.8-30.6-69.3c-20.6-17.6-45.1-36.3-46.9-63.3
	c-2.6-38.9,41.8-61.7,78.8-74.2c126.8-42.7,355.7-87.2,482.4-129.9c-27.6,36.4-162.3,70.6-194.8,102.8
	c-43.6,43.4-87.2,86.7-130.8,130.1c-50,49.7-109.3,103-179.6,97.9c131.6-3.4,442.4-66.1,573.9-69.5
	c-74.6,94.1-396.4,203.5-515.7,217.7c111.2,38.2,446.8,106,558,144.3c-73.8,16.9-343.5,17.7-407.8,57.6S901.4,671,899.5,746.7
	c-2.5,99.5,77.8,179.1,152.1,245.3C968.3,892.9,834.8,838.4,706,850.8c-50.8,4.9-101.9,19.5-152.2,10.6s-100-53.5-90.4-103.7
	c5.5-29.1,29.7-51.8,56.8-63.6c27.1-11.8,57.2-14.5,86.7-17c75.6-6.5,179.4,13.6,255.1,7.1C808.7,653.6,745.3,567,744.4,505.5
	c-1-65.3,42.4-133.2,106.5-145.7c-31.7-25-77.4-8.8-115.9,3.4c-38.5,12.2-92,12.4-106.6-25.3c-9.8-25.4,6.5-54.8,29.7-69
	c23.2-14.2,51.4-16.9,78.5-19.2c-28.6,44.9-67.1,95.2-120.3,92.9c-32.4-1.4-61-23.7-78.5-51s-25.8-59.3-33.9-90.7
	c-45.3,57.9-92.5,120.5-97.6,193.9C399.2,502,482.6,591.5,560,666.1c53.6-53.5,107.2-107.1,160.7-160.6c-76-2.6-152-5.2-228.1-7.8
	c36.6,11.5,74.8,23.1,112.7,17.5c38-5.7,75.4-34.2,77.9-72.5c2.5-38.3-45.5-73.5-76.6-51c-16.6,12-22.2,33.8-34,50.6
	c-26.6,37.9-89.4,42.3-121,8.5s-23.2-96.1,16.3-120.2c39.5-24.1,98.8-3.2,114.4,40.4"/>
<text transform="matrix(1 0 0 1 371.4388 393.321)" fill="#BE1E2D" font-family="'PermanentMarker'" font-size="31">fear</text>
<path fill="none" stroke="#BE1E2D" stroke-width="7" stroke-linecap="round" stroke-linejoin="round" stroke-miterlimit="10" d="
	M422.8,358.9c17.2-24.9,46-41.5,76.2-43.8c30.2-2.3,61.2,9.7,81.9,31.7"/>
<path fill="none" stroke="#BE1E2D" stroke-width="7" stroke-linecap="round" stroke-linejoin="round" stroke-miterlimit="10" d="
	M563.1,344.7c8.8,3.4,17.6,6.8,26.3,10.3c-1.6-5.4-3.2-10.8-4.9-16.2"/>
<g>
	<text transform="matrix(1 0 0 1 558.9245 390.8628)" fill="#BE1E2D" font-family="'PermanentMarker'" font-size="31">hate</text>
</g>
<path fill="none" stroke="#BE1E2D" stroke-width="7" stroke-linecap="round" stroke-linejoin="round" stroke-miterlimit="10" d="
	M607.6,399.3c2.3,19.4-2.4,39.6-13,56c-10.7,16.4-27.2,28.9-45.9,34.7"/>
<path fill="none" stroke="#BE1E2D" stroke-width="7" stroke-linecap="round" stroke-linejoin="round" stroke-miterlimit="10" d="
	M553.4,479.4c-4.4,3.5-8.9,7-13.3,10.4c5,3.5,9.9,7,14.9,10.5"/>
<text transform="matrix(1 0 0 1 392.7451 501.3106)" fill="#BE1E2D" font-family="'PermanentMarker'" font-size="31">violence</text>
<path fill="none" stroke="#BE1E2D" stroke-width="7" stroke-linecap="round" stroke-linejoin="round" stroke-miterlimit="10" d="
	M432.1,472.2c-4.8-1.9-8.5-5.8-11.6-9.9c-12.1-15.8-17.5-36.6-14.5-56.3"/>
<path fill="none" stroke="#BE1E2D" stroke-width="7" stroke-linecap="round" stroke-linejoin="round" stroke-miterlimit="10" d="
	M395.2,416.5c1.6-6.4,5.2-12.3,10.3-16.6c3.5,4.7,7,9.3,10.5,14"/>
<path fill="none" stroke="#000000" stroke-width="7" stroke-linecap="round" stroke-linejoin="round" stroke-miterlimit="10" d="
	M407.4,366.2c-1.2-20.8,9.6-40.6,23.4-56.2c13.8-15.6,30.6-28.3,44.9-43.5c14.3-15.1,26.5-33.8,27.6-54.6"/>
<path fill="none" stroke="#000000" stroke-width="7" stroke-linecap="round" stroke-linejoin="round" stroke-miterlimit="10" d="
	M610.8,366.5c0.1-23-17.5-42.2-36.1-55.5s-40.1-23.9-54.4-41.8c-12.8-16.1-18.8-37.4-16.2-57.8"/>
<text transform="matrix(1 0 0 1 435.5493 196.6547)" font-family="'PermanentMarker'" font-size="31">suspicion</text>
<path fill="none" stroke="#000000" stroke-width="7" stroke-linecap="round" stroke-linejoin="round" stroke-miterlimit="10" d="
	M360.7,384.1c-21.2-4.2-31.7,21.4-42.8,34.2c-11.2,12.9-27.4,21-44.3,23.1c-3,0.4-6.1,0.6-9.2,0.6"/>
<path fill="none" stroke="#000000" stroke-width="7" stroke-linecap="round" stroke-linejoin="round" stroke-miterlimit="10" d="
	M386.1,494c-21.5,3.6-38.1-14.4-52.9-27c-14.9-12.7-32.6-21.3-51.9-24.7c-5.5-0.9-11-1.5-16.6-1.6"/>
<text transform="matrix(1 0 0 1 121.8253 449.3214)" font-family="'PermanentMarker'" font-size="31">loathing</text>
<path fill="none" stroke="#000000" stroke-width="7" stroke-linecap="round" stroke-linejoin="round" stroke-miterlimit="10" d="
	M632.4,382.5c9.5,1.1,16.3,10.4,18.4,19.7c2.1,9.3,0.9,19.1,1.4,28.7c1.1,25.4,14.5,50.1,35.2,64.9"/>
<path fill="none" stroke="#000000" stroke-width="7" stroke-linecap="round" stroke-linejoin="round" stroke-miterlimit="10" d="
	M516.3,507.8c26.5,9,56.4,7.7,82.1-3.4c14.4-6.2,27.6-15.5,42.7-19.7c15.1-4.3,33.7-2,42.8,10.8"/>
<text transform="matrix(1 0 0 1 675.5364 523.9879)" font-family="'PermanentMarker'" font-size="31">cruelty</text>
<path fill="none" stroke="#000000" stroke-width="7" stroke-linecap="round" stroke-linejoin="round" stroke-miterlimit="10" d="
	M376.1,366.5c-3.7-53.1-41.5-102.2-91.9-119.3"/>
<path fill="none" stroke="#000000" stroke-width="7" stroke-linecap="round" stroke-linejoin="round" stroke-miterlimit="10" d="
	M431.2,191.3c-19.3,0-34.3,15.5-49.7,27.1c-27.7,20.9-63.2,31.3-97.8,28.5"/>
<text transform="matrix(1 0 0 1 186.9054 254.3214)" font-family="'PermanentMarker'" font-size="31">dread</text>
<path fill="none" stroke="#000000" stroke-width="7" stroke-linecap="round" stroke-linejoin="round" stroke-miterlimit="10" d="
	M170.8,419.8c-17.6-39.7-54.3-70.4-96.5-80.7"/>
<path fill="none" stroke="#000000" stroke-width="7" stroke-linecap="round" stroke-linejoin="round" stroke-miterlimit="10" d="
	M357,371.9c-16.2-24.4-44.4-39-73.3-44.1c-28.9-5.1-58.5-1.7-87.4,3.5s-57.5,12.2-86.7,14.4c-12,0.9-21.6-2.3-34.9-6.4"/>
<text transform="matrix(1 0 0 1 -7.0084 339.1571)" font-family="'PermanentMarker'" font-size="31">spite</text>
<path fill="none" stroke="#000000" stroke-width="7" stroke-linecap="round" stroke-linejoin="round" stroke-miterlimit="10" d="
	M210,462.3c13.2,15.6,20.8,36,20.8,56.4s-7.2,40.9-20.3,56.6"/>
<path fill="none" stroke="#000000" stroke-width="7" stroke-linecap="round" stroke-linejoin="round" stroke-miterlimit="10" d="
	M409.8,506.4c-7.6,15.1-23,25.2-39.2,30c-16.2,4.8-33.4,5-50.4,4.7c-16.9-0.3-34-1.1-50.7,1.9c-22.1,4-42.9,14.7-58.9,30.3"/>
<text transform="matrix(1 0 0 1 158.4113 605.6545)" font-family="'PermanentMarker'" font-size="31">fury</text>
<path fill="none" stroke="#000000" stroke-width="7" stroke-linecap="round" stroke-linejoin="round" stroke-miterlimit="10" d="
	M464.6,521c-3.7,10.8,1.4,22.8,9.1,31.2c7.7,8.4,17.7,14.2,26.6,21.3c25,20.3,40,52.3,39.5,84.4"/>
<path fill="none" stroke="#000000" stroke-width="7" stroke-linecap="round" stroke-linejoin="round" stroke-miterlimit="10" d="
	M691,533.6c-5.1,22.2-24.6,38.3-45.2,48c-20.6,9.7-43.2,14.9-63.4,25.2c-20.3,10.3-39,27.9-42,50.4"/>
<text transform="matrix(1 0 0 1 470.1587 692.9877)" font-family="'PermanentMarker'" font-size="31">brutality</text>
<path fill="none" stroke="#000000" stroke-width="7" stroke-linecap="round" stroke-linejoin="round" stroke-miterlimit="10" d="
	M740.3,487.7c3.2-27.4,15.3-53.7,34.1-74c18.7-20.3,43.9-34.5,71-39.9"/>
<path fill="none" stroke="#000000" stroke-width="7" stroke-linecap="round" stroke-linejoin="round" stroke-miterlimit="10" d="
	M629.8,367.6c25.6-18.1,58.7-25.1,89.4-19c21.5,4.2,41.2,14.4,61.9,21.6s43.8,11.3,64.2,3.2"/>
<text transform="matrix(1 0 0 1 857.5653 370.9879)" font-family="'PermanentMarker'" font-size="31">hostility</text>
<path fill="none" stroke="#000000" stroke-width="7" stroke-linecap="round" stroke-linejoin="round" stroke-miterlimit="10" d="
	M617.1,360.8c35.5-60.9,92.5-109.1,158.5-133.9"/>
<path fill="none" stroke="#000000" stroke-width="7" stroke-linecap="round" stroke-linejoin="round" stroke-miterlimit="10" d="
	M577.3,193.4c20.1-4,41.5-1.7,60.2,6.7c12.4,5.5,23.5,13.5,35.6,19.6c31.4,15.8,69.3,17.9,102.3,5.8"/>
<text transform="matrix(1 0 0 1 790.8591 219.6544)" font-family="'PermanentMarker'" font-size="31">menace</text>
<path fill="none" stroke="#000000" stroke-width="7" stroke-linecap="round" stroke-linejoin="round" stroke-miterlimit="10" d="
	M442.1,170.5c-12.5-23.3-34.7-41.3-60.1-48.7c-12.8-3.7-26.5-4.9-38.6-10.7c-20.9-9.9-34.3-33.8-31.7-56.8"/>
<path fill="none" stroke="#000000" stroke-width="7" stroke-linecap="round" stroke-linejoin="round" stroke-miterlimit="10" d="
	M252.1,225.3c-6.7-19.7-2-41.8,7-60.6c9-18.8,21.9-35.4,32.8-53.2c10.9-17.8,19.9-37.6,19.6-58.5"/>
<text transform="matrix(1 0 0 1 240.8921 38.9884)" font-family="'PermanentMarker'" font-size="31">confusion</text>
<path fill="none" stroke="#000000" stroke-width="7" stroke-linecap="round" stroke-linejoin="round" stroke-miterlimit="10" d="
	M182.5,228.9c-10.6-13.6-27.5-20.8-44.3-25c-16.7-4.2-34.1-6.1-50.3-12.2S56.4,174.4,50.9,158"/>
<path fill="none" stroke="#000000" stroke-width="7" stroke-linecap="round" stroke-linejoin="round" stroke-miterlimit="10" d="
	M30.4,312c-5.4-16.8-2.4-35.1,3.1-51.8s13.5-32.6,18.4-49.5s6.6-35.6-0.6-51.7"/>
<text transform="matrix(1 0 0 1 -4.8409 149.3214)" font-family="'PermanentMarker'" font-size="31">anxiety</text>
<path fill="none" stroke="#000000" stroke-width="7" stroke-linecap="round" stroke-linejoin="round" stroke-miterlimit="10" d="
	M19.6,355.3C9.1,367,4,382.5,0.5,397.8c-3.4,15.3-5.4,31-10.9,45.7s-15.2,28.7-29.5,35.1"/>
<path fill="none" stroke="#000000" stroke-width="7" stroke-linecap="round" stroke-linejoin="round" stroke-miterlimit="10" d="
	M113.1,444.4c-53-2.7-106.7,9.7-153,35.4"/>
<text transform="matrix(1 0 0 1 -136.0319 506.3973)" font-family="'PermanentMarker'" font-size="31">angst</text>
<path fill="none" stroke="#000000" stroke-width="7" stroke-linecap="round" stroke-linejoin="round" stroke-miterlimit="10" d="
	M147.8,599.2c-41.9,0.8-81.9,29.7-95.9,69.3"/>
<path fill="none" stroke="#000000" stroke-width="7" stroke-linecap="round" stroke-linejoin="round" stroke-miterlimit="10" d="
	M131.9,457.4c0.2,35.1-6.7,70.3-20.2,102.7c-11.3,27.3-27.2,52.4-42.9,77.4c-6.5,10.3-13,20.6-19.4,30.8"/>
<text transform="matrix(1 0 0 1 -30.2646 697.3215)" font-family="'PermanentMarker'" font-size="31">uproar</text>
<path fill="none" stroke="#000000" stroke-width="7" stroke-linecap="round" stroke-linejoin="round" stroke-miterlimit="10" d="
	M421.5,514.9c11.1,25.8-3.2,56-22.8,76.1c-19.6,20.1-44.6,34.7-62.6,56.3c-19.9,23.8-29.9,55.6-27.4,86.6"/>
<path fill="none" stroke="#000000" stroke-width="7" stroke-linecap="round" stroke-linejoin="round" stroke-miterlimit="10" d="
	M205.3,619.1c-5.9,10-2.6,23.5,5.1,32.3c7.7,8.8,18.8,13.7,29.9,17.3c11.1,3.6,22.6,6.3,32.8,11.9c19.4,10.5,32.7,31.5,33.9,53.6"/>
<text transform="matrix(1 0 0 1 208.1519 771.655)" font-family="'PermanentMarker'" font-size="31">intimidation</text>
<path fill="none" stroke="#000000" stroke-width="7" stroke-linecap="round" stroke-linejoin="round" stroke-miterlimit="10" d="
	M329.6,783.6c4,14.5,18.2,24.1,32.8,27.7c14.5,3.7,29.8,2.7,44.8,3.6c45.4,2.6,89.7,22.4,121.8,54.6"/>
<path fill="none" stroke="#000000" stroke-width="7" stroke-linecap="round" stroke-linejoin="round" stroke-miterlimit="10" d="
	M515.5,703.4c-9.6,14.6-19.3,29.4-24.6,46c-13.8,43.1,5.7,92.2,40,121.7"/>
<text transform="matrix(1 0 0 1 519.439 901.3214)" font-family="'PermanentMarker'" font-size="31">revenge</text>
<path fill="none" stroke="#000000" stroke-width="7" stroke-linecap="round" stroke-linejoin="round" stroke-miterlimit="10" d="
	M623.6,686.3c36.7,8.7,74.6-4.6,110.4-16.6c35.8-12,75-23,110.5-10.1"/>
<path fill="none" stroke="#000000" stroke-width="7" stroke-linecap="round" stroke-linejoin="round" stroke-miterlimit="10" d="
	M758.7,539c1.8,23.7-5.8,48.7,3.1,70.8c6.1,15.2,19.3,26.6,33.9,33.9s30.8,10.9,46.7,14.4"/>
<text transform="matrix(1 0 0 1 846.3544 689.0754)" font-family="'PermanentMarker'" font-size="31">coercion</text>
<path fill="none" stroke="#000000" stroke-width="7" stroke-linecap="round" stroke-linejoin="round" stroke-miterlimit="10" d="
	M532.9,158.2c6-30.9,31.9-54.7,60.6-67.6c28.7-13,60.3-17.2,91.2-23.4c30.8-6.2,62.3-15.2,86.2-35.6"/>
<path fill="none" stroke="#000000" stroke-width="7" stroke-linecap="round" stroke-linejoin="round" stroke-miterlimit="10" d="
	M828.6,182.7c-7-6.4-14-12.9-21.1-19.3c-13.1-12-26.3-24.2-36.7-38.7c-10.3-14.5-17.7-31.7-17.5-49.5c0.1-17.3,7.7-34.4,20.4-46.2"
	/>
<text transform="matrix(1 0 0 1 699.6752 22.5728)" font-family="'PermanentMarker'" font-size="31">resentment</text>
<path fill="none" stroke="#000000" stroke-width="7" stroke-linecap="round" stroke-linejoin="round" stroke-miterlimit="10" d="
	M65.8,117.3c-3.5-13.7-8.5-26.9-14.9-39.5c-7.8-15.5-18-30.2-31.8-40.7s-31.6-16.6-48.7-13.9"/>
<path fill="none" stroke="#000000" stroke-width="7" stroke-linecap="round" stroke-linejoin="round" stroke-miterlimit="10" d="
	M226.2,28.5C213.6-0.2,182-17.2,150.8-20.4S88.3-15,58.6-4.8S-0.5,17.5-31.6,21.9"/>
<text transform="matrix(1 0 0 1 -151.9232 28.5077)" font-family="'PermanentMarker'" font-size="31">despair</text>
<path fill="none" stroke="#000000" stroke-width="7" stroke-linecap="round" stroke-linejoin="round" stroke-miterlimit="10" d="
	M908.1,202.4c31-8.7,47.3-41.4,62.9-69.5c67.9-122.7,188.9-214.9,325.2-247.8"/>
<path fill="none" stroke="#000000" stroke-width="7" stroke-linecap="round" stroke-linejoin="round" stroke-miterlimit="10" d="
	M885.1,1.1C952-37.6,1028.8-54.5,1104.3-71c70.2-15.3,140.4-30.6,210.7-45.9"/>
<path fill="none" stroke="#000000" stroke-width="7" stroke-linecap="round" stroke-linejoin="round" stroke-miterlimit="10" d="
	M1012,363.7c18.2-17.7,36.5-35.4,54.7-53.1c31.1-30.2,62.3-60.4,97.9-85.2c61.9-43.2,136.2-68.5,211.6-72"/>
<path fill="none" stroke="#000000" stroke-width="7" stroke-linecap="round" stroke-linejoin="round" stroke-miterlimit="10" d="
	M911.4,208.3c74.6,32,160.3,25.8,239.1,6.3c78.8-19.5,154.1-51.4,233.1-70.2"/>
<path fill="none" stroke="#000000" stroke-width="7" stroke-linecap="round" stroke-linejoin="round" stroke-miterlimit="10" d="
	M939.8,650.2c38.3-75.1,118.3-121.8,200.5-140.3c82.2-18.5,167.7-12.6,251.8-6.7"/>
<path fill="none" stroke="#000000" stroke-width="7" stroke-linecap="round" stroke-linejoin="round" stroke-miterlimit="10" d="
	M960.2,382.1c17.3,43.2,65.1,64.9,109.6,78.6c82.8,25.4,169.7,37.2,256.2,34.8"/>
<path fill="none" stroke="#000000" stroke-width="7" stroke-linecap="round" stroke-linejoin="round" stroke-miterlimit="10" d="
	M597.4,867.9c66.9-51.7,161.9-53.7,241.9-26.2c80,27.4,148.3,80.2,215.1,132"/>
<path fill="none" stroke="#000000" stroke-width="7" stroke-linecap="round" stroke-linejoin="round" stroke-miterlimit="10" d="
	M906,707.9c-18.2,35.3-12.2,79.3,5.9,114.7c18.1,35.4,46.7,64.1,74.9,92.2c19.8,19.8,39.7,39.5,59.5,59.3"/>
<path fill="none" stroke="#000000" stroke-width="7" stroke-linecap="round" stroke-linejoin="round" stroke-miterlimit="10" d="
	M288.3,791.7c-28.6,36.7-29,88.1-20.3,133.9c8.7,45.7,25.3,90.4,26.2,136.9c1,46.5-18.6,98-61.3,116.4"/>
<path fill="none" stroke="#000000" stroke-width="7" stroke-linecap="round" stroke-linejoin="round" stroke-miterlimit="10" d="
	M497.6,890.6c-39.4,9.4-73.7,34.2-101,64c-27.3,29.8-48.4,64.7-69.4,99.3c-25.9,42.9-51.8,85.7-77.7,128.6"/>
<path fill="none" stroke="#000000" stroke-width="7" stroke-linecap="round" stroke-linejoin="round" stroke-miterlimit="10" d="
	M754.5-22.5C730.6-56.9,691.2-77,652.3-92.6s-79.8-28.5-113.2-53.9s-58.5-67-50.4-108.1"/>
<path fill="none" stroke="#000000" stroke-width="7" stroke-linecap="round" stroke-linejoin="round" stroke-miterlimit="10" d="
	M313.8,0c4.6-36.6,27.5-68.4,53.5-94.5c26-26.2,55.8-48.5,80-76.4c24.1-27.9,42.7-63.4,39.8-100.1"/>
<path fill="none" stroke="#000000" stroke-width="7" stroke-linecap="round" stroke-linejoin="round" stroke-miterlimit="10" d="
	M-40.5,145c-25.4-7-52.8,3.7-73.8,19.7s-37.6,37-56.9,55c-53.1,49.3-128.3,74-200.4,65.6"/>
<path fill="none" stroke="#000000" stroke-width="7" stroke-linecap="round" stroke-linejoin="round" stroke-miterlimit="10" d="
	M-31.3,334.9c-109.5-43.2-229.4-59.6-346.5-47.4"/>
<path fill="none" stroke="#000000" stroke-width="7" stroke-linecap="round" stroke-linejoin="round" stroke-miterlimit="10" d="
	M-161.2,510.7c-15.7,21.9-26.7,46.8-40.5,70c-42.1,70.5-111.9,123.9-191,146"/>
<path fill="none" stroke="#000000" stroke-width="7" stroke-linecap="round" stroke-linejoin="round" stroke-miterlimit="10" d="
	M-50.3,699.1c-111.8-26.3-231.6-17.4-338.3,25"/>
</svg>
