<?xml version="1.0" encoding="utf-8"?>
<!-- Generator: Adobe Illustrator 19.2.0, SVG Export Plug-In . SVG Version: 6.00 Build 0)  -->
<svg version="1.1" id="Layer_1" xmlns="http://www.w3.org/2000/svg" xmlns:xlink="http://www.w3.org/1999/xlink" x="0px" y="0px"
	 width="559.5px" height="424.6px" viewBox="0 0 559.5 424.6" enable-background="new 0 0 559.5 424.6" xml:space="preserve">
<symbol  id="Arrow_right_1_" viewBox="-25.5 -26 29 52">
	
		<polyline fill="none" stroke="#231F20" stroke-width="7" stroke-linecap="round" stroke-linejoin="round" stroke-miterlimit="10" points="
		-22,22.5 0,0 -22,-22.5 	"/>
</symbol>
<symbol  id="Arrow_up" viewBox="-26 -25.5 52 29">
	
		<polyline fill="none" stroke="#231F20" stroke-width="7" stroke-linecap="round" stroke-linejoin="round" stroke-miterlimit="10" points="
		-22.5,-22 0,0 22.5,-22 	"/>
</symbol>
<path fill="none" stroke="#FFFFFF" stroke-width="120" stroke-linejoin="bevel" stroke-miterlimit="10" d="M508,28
	C379,38,249.2,35.6,120.7,20.9c-9.3-1.1-19-2.1-27.7,1.2S77.1,34.8,79.6,43.8c2.3,8.2,11.1,12.6,19.2,15.1
	c22.3,6.9,46.6,7.5,69.2,1.5c-18.1,12.2-36.2,24.4-54.3,36.5c23.2,9.3,51.4,4.2,69.9-12.6c-1.3,10.1-2.5,20.3-3.8,30.4
	c17.5-10.7,34.9-21.5,52.4-32.2c8.6-5.3,17.7-10.7,27.7-11.1s21.2,6.2,22,16.3c0.7,8.6-6.5,16.2-14.6,19.1s-17,2-25.6,1.2
	c-41.8-4.2-83.5-8.3-125.3-12.5c23.8,38.6,26.3,89.5,6.3,130.2c-5.6-13.7-11.3-27.5-20.6-39s-22.8-20.4-37.6-20.6
	c-24.2-0.4-42.6,21.5-54,42.8c14-13.4,27.9-26.7,41.9-40.1c-2.1,14.6-4.1,29.1-6.2,43.7c15.6-11,31.2-22.1,46.8-33.1
	c-9.2,7.9-1.3,23.3,8.8,29.9c10.1,6.6,23.3,11.3,27.3,22.7c1.7,4.7,1.4,9.9,1.1,14.9c-2.5,42.9-5.1,85.9-7.6,128.8
	c-7.9-12.2-15.7-24.4-23.6-36.6c13.7,28,27.5,56.1,41.2,84.1c3.5-22.9,7-45.9,10.5-68.8c9.5,23.4,19,46.8,28.6,70.2
	c21.6-16.5,50.6-18.5,77.8-19.8c51.2-2.4,102.3-4.9,153.5-7.3c18.9-0.9,39.1-2.2,54.2-13.6s21.1-36.7,6.7-49
	c-10-8.5-27.2-6.3-34.5,4.6c-7.3,10.9-2.6,27.9,9.3,33.2c-73.7-17-149-34.1-224.2-26.1c-22.1,2.3-44.1,6.8-66.4,6.3
	c-7.1-0.2-15.3-1.6-18.5-7.9c-3.4-6.8,1.1-14.7,5.5-21c30.9-44.1,61.8-88.3,92.8-132.4c0.4,23.6,0.8,47.2,1.2,70.8
	c21.8-13.5,43.6-27,65.5-40.5c3.5,14.1,7,28.2,10.5,42.3c9-10.8,18-21.6,27-32.4c3.2,5,6.4,10.1,9.5,15.1
	c-27.9-28.3-70.9-40.8-109.7-31.8c-2-14.5,4.7-29.1,14.4-40c9.7-10.9,22.4-18.8,34.8-26.4c36.6-22.6,73.2-45.3,109.8-67.9
	c-11.3,34.4-22.6,68.8-33.8,103.2c29.5-39.4,59-78.8,88.5-118.2c-28,57.6-56.1,115.1-84.1,172.7c38.5-40.2,77.1-80.3,115.6-120.5
	c-14,29.7-27.9,59.4-41.9,89c26.4-24.4,52.7-48.7,79.1-73.1c-6.9,7.3-13.9,14.9-17.3,24.3c-3.4,9.4-2.3,21.2,5.4,27.7
	c5.8,4.9,13.9,5.7,21.2,7.8s15.1,6.9,15.8,14.5"/>
<g id="Arrow_right">
</g>
<g>
	
		<line fill="none" stroke="#231F20" stroke-width="7" stroke-linecap="round" stroke-linejoin="round" stroke-miterlimit="10" x1="130.2" y1="55.8" x2="130.2" y2="374"/>
	
		<line fill="none" stroke="#231F20" stroke-width="7" stroke-linecap="round" stroke-linejoin="round" stroke-miterlimit="10" x1="107.7" y1="351.5" x2="465.9" y2="351.5"/>
	
		<use xlink:href="#Arrow_up"  width="52" height="29" x="-26" y="-25.5" transform="matrix(1 0 0 -1 130.1821 55.7447)" overflow="visible"/>
	
		<use xlink:href="#Arrow_right_1_"  width="29" height="52" x="-25.5" y="-26" transform="matrix(1 0 0 -1 465.9078 351.4973)" overflow="visible"/>
</g>
<text transform="matrix(1 0 0 1 118.7311 405.386)" fill="#231F20" font-family="'PermanentMarker'" font-size="30.74px">how much you get paid</text>
<text transform="matrix(1 0 0 1 89.4018 38.9593)" fill="#231F20" font-family="'PermanentMarker'" font-size="30.74px">how much work you put in</text>
<path fill="none" stroke="#BE1E2D" stroke-width="7" stroke-linecap="round" stroke-linejoin="round" stroke-miterlimit="10" d="
	M143.4,339c26.4-48.3,57.1-93,91.4-133.3c30.7-36.1,64.9-69.1,104.9-87s86.6-19,123.7,6.5"/>
<g>
	<path fill="none" stroke="#231F20" stroke-width="7" stroke-linecap="round" stroke-linejoin="round" stroke-miterlimit="10" d="
		M211.1,227c1.6,2.9,3.3,5.8,4.9,8.7"/>
	<path fill="none" stroke="#231F20" stroke-width="7" stroke-linecap="round" stroke-linejoin="round" stroke-miterlimit="10" d="
		M208.7,233.9c3.6-1.5,6.9-3.5,9.7-5.9"/>
	<text transform="matrix(1 0 0 1 229.1632 247.2223)" fill="#231F20" font-family="'PermanentMarker'" font-size="30.74px">librarian</text>
</g>
<g>
	
		<path fill="#231F20" stroke="#231F20" stroke-width="7" stroke-linecap="round" stroke-linejoin="round" stroke-miterlimit="10" d="
		M488.1,151c10.1,11.3,17.3,25.1,20.7,39.9"/>
	<path fill="none" stroke="#231F20" stroke-width="7" stroke-linecap="round" stroke-linejoin="round" stroke-miterlimit="10" d="
		M502.9,192.2c2.3,1.8,4.6,3.6,6.9,5.5c1.3-2.5,2.5-5,3.8-7.5"/>
	<text transform="matrix(1 0 0 1 361.0919 181.7627)" fill="#231F20" font-family="'PermanentMarker'" font-size="30.74px">investor</text>
</g>
<g>
	<path fill="none" stroke="#231F20" stroke-width="7" stroke-linecap="round" stroke-linejoin="round" stroke-miterlimit="10" d="
		M159.8,99.6c-3.5,2.8-6.9,5.6-10.4,8.4"/>
	<path fill="none" stroke="#231F20" stroke-width="7" stroke-linecap="round" stroke-linejoin="round" stroke-miterlimit="10" d="
		M150.9,100.2c2.8,2.4,5.6,4.7,8.4,7.1"/>
	<text transform="matrix(1 0 0 1 174.9627 111.1049)" fill="#231F20" font-family="'PermanentMarker'" font-size="30.74px">slavery</text>
</g>
<g>
	<path fill="none" stroke="#231F20" stroke-width="7" stroke-linecap="round" stroke-linejoin="round" stroke-miterlimit="10" d="
		M49,205c-3.1,2.6-6.2,5.2-9.3,7.9"/>
	<path fill="none" stroke="#231F20" stroke-width="7" stroke-linecap="round" stroke-linejoin="round" stroke-miterlimit="10" d="
		M38.8,205.7c3.2,1.9,6.5,3.7,9.7,5.6"/>
	<text transform="matrix(1 0 0 1 14.9272 193.4715)" fill="#231F20" font-family="'PermanentMarker'" font-size="30.74px">gym</text>
</g>
</svg>
