<?xml version="1.0" encoding="utf-8"?>
<!-- Generator: Adobe Illustrator 18.0.0, SVG Export Plug-In . SVG Version: 6.00 Build 0)  -->
<!DOCTYPE svg PUBLIC "-//W3C//DTD SVG 1.1//EN" "http://www.w3.org/Graphics/SVG/1.1/DTD/svg11.dtd">
<svg version="1.1" id="Layer_1" xmlns="http://www.w3.org/2000/svg" xmlns:xlink="http://www.w3.org/1999/xlink" x="0px" y="0px"
	 viewBox="0 0 357 291" enable-background="new 0 0 357 291" xml:space="preserve">
<path fill="none" stroke="#FFFFFF" stroke-width="120" stroke-linejoin="bevel" stroke-miterlimit="10" d="M22.9,7.2
	c-5.9,19-11.9,38-17.8,57c16.1,4.2,33.3-3.3,45.9-14.1s22-25,33-37.5s24.5-24.1,41-26.9s35.7,5.8,39.8,22c2.4,9.7-0.6,20.8,4.8,29.2
	c6.8,10.6,23.6,9.9,33.3,1.8s13.9-20.7,17.8-32.7c10.5,73.3-16.3,150.9-69.6,202.1c-12.8,12.3-28.6,23.6-46.3,23.1
	c-16.7-0.6-31.5-12-40.5-26.1C55.2,190.7,51,174.2,47,158c-3.7-14.7-7.3-29.6-7-44.7s5.2-30.8,16.3-41.1
	c15.4-14.3,38.5-15.3,59.5-15.5c19.4-0.1,42.6,2,51.8,19c6.4,11.7,3.1,26.8-4.6,37.7s-19,18.6-30.1,26
	c-26.1,17.4-52.1,34.7-78.2,52.1c-12,8-25.8,20.6-20.9,34.2c4.9,13.8,23.8,14.7,38.4,13.1c70.5-7.8,141.1-15.6,211.6-23.4
	c13.5-1.5,27.4-2.9,40.3,1.4c12.8,4.4,24.1,16.3,23.1,29.8c-45.6,16-97.1,14.7-141.8-3.6c0.5-46,9.2-92,25.5-135.1"/>
<g>
	
		<line fill="none" stroke="#000000" stroke-width="7" stroke-linecap="round" stroke-linejoin="round" stroke-miterlimit="10" x1="37.3" y1="40.1" x2="37.3" y2="252.1"/>
	
		<line fill="none" stroke="#000000" stroke-width="7" stroke-linecap="round" stroke-linejoin="round" stroke-miterlimit="10" x1="14.8" y1="229.6" x2="342.4" y2="229.6"/>
	
		<polyline fill="none" stroke="#000000" stroke-width="7" stroke-linecap="round" stroke-linejoin="round" stroke-miterlimit="10" points="
		14.8,62.1 37.3,40.1 59.8,62.1 	"/>
	
		<polyline fill="none" stroke="#000000" stroke-width="7" stroke-linecap="round" stroke-linejoin="round" stroke-miterlimit="10" points="
		321.2,207.1 343.2,229.6 321.2,252.1 	"/>
</g>
<text transform="matrix(1 0 0 1 162.2517 281.215)" font-family="'PermanentMarker'" font-size="31">love of self</text>
<text transform="matrix(1 0 0 1 9.7617 27.5436)" font-family="'PermanentMarker'" font-size="31">love of others</text>
<path fill="none" stroke="#CF4B89" stroke-width="7" stroke-linecap="round" stroke-linejoin="round" stroke-miterlimit="10" d="
	M52.6,213.3c26.1,0.1,47.3-21.9,58.7-45.3s16.3-49.8,28.6-72.7c8.2-15.3,23.2-30.3,40.3-27.3c14.5,2.5,23.7,16.8,28.6,30.7
	c5.5,15.5,7.9,31.9,11.7,47.9c3.8,16,9.5,32,20.3,44.4c10.8,12.4,27.8,20.4,43.8,16.9"/>
</svg>
