<?xml version="1.0" encoding="utf-8"?> <!-- Generator: Adobe Illustrator 18.0.0, SVG Export Plug-In . SVG Version: 6.00 Build 0) --> <!DOCTYPE svg PUBLIC "-//W3C//DTD SVG 1.1//EN" "http://www.w3.org/Graphics/SVG/1.1/DTD/svg11.dtd"> <svg version="1.1" id="Layer_1" xmlns="http://www.w3.org/2000/svg" xmlns:xlink="http://www.w3.org/1999/xlink" x="0px" y="0px" viewBox="0 0 691.5 436.8" enable-background="new 0 0 691.5 436.8" xml:space="preserve"> <path stroke="#FFFFFF" stroke-width="120" stroke-linejoin="bevel" d="M277.3,0 c-34.4,28.6-58.6,69.1-67.4,113c52.5-12.6,84.9-64,129.1-95c4.7-3.3,10.2-6.6,16-5.8c0.8,24.7-14.2,46.8-28.6,66.9 c-19.4,27.1-38.8,54.2-58.2,81.4c-10.9,15.3-21.9,30.7-29.6,47.8c-11.4,25.7-14.8,54.3-17.2,82.3c-1.9,21.7-3.4,43.4-4.4,65.1 c-0.5,11.1,0.5,24.8,10.5,29.7c6.9,3.4,15.5,0.6,21.2-4.5s9.1-12.3,12.5-19.1c26.9-54.7,59.2-106.8,96.3-155.3 c8.5-11.1,18.3-22.7,31.8-26.2c4.1-1,9-1.1,11.9,2c2.1,2.2,2.7,5.5,2.9,8.5c0.9,16.8-7,33-17.3,46.3s-23.3,24.3-34.6,36.7 c-26.4,28.9-44.1,65.6-50.3,104.3c21.7,5.2,42.4-10.9,57.5-27.3c40.4-44.1,72.4-101.5,128.7-121.7c0.9,35.1-20.7,66.5-43.3,93.4 c-22.6,26.9-47.9,53.6-56.8,87.6c15.1,6.2,31.9,6.7,48.2,7.1c70.5,1.5,141.1,0.4,211.6-3.2c3.9-0.2,7.9-0.5,11.2-2.5 c6.4-3.9,7.6-13.3,4.2-19.9c-3.5-6.6-10.4-10.8-17.4-13.3c-28.9-10.4-62.7,1-90.7-11.5c-27.6-12.4-40.6-43.6-51-72 c24.9-6.6,51-8.7,76.7-6.1c5.7,0.6,11.7,1.3,17.2-0.3c9.3-2.8,15.2-11.7,19-20.6c20.2-47.4-1.4-101.5-0.4-153 c0.4-19.2,2.9-41.5-11-54.7c-7.7-7.4-18.7-9.9-29.2-11.8c-50.3-8.9-102-9.2-152.4-0.7c-2.7,0.5-5.6,1-7.8,2.8c-1.9,1.6-3,4-3.9,6.4 c-3.5,9.2-5.7,19-6.4,28.9c-0.8,11.4,0.3,23-1.8,34.2c-2.1,11.2-8.3,22.6-19,26.7c-7.9-24.3-15.9-48.6-23.8-72.9 c-3-9.3-6.1-18.6-11.2-26.9c-12.9-20.8-37.6-32.1-61.9-35.1c-24.3-3-48.9,1-73.2,4.2c-65.7,8.8-139.5,1.3-205.7-0.8"/> <g> <polyline stroke-width="7" points=" 217.2,69.3 239.7,47.3 262.2,69.3 	"/> <line stroke-width="7" x1="239.7" y1="47.3" x2="239.7" y2="396"/> <text transform="matrix(1 0 0 1 9.062 29.6613)" font-family="'PermanentMarker'" font-size="31">things you know about</text> <path d=" M11.9,14.2c0.6,0.3,14.7-2.4,16.3-1.8 M19.2,12.9c1.6,2.4-5.9,12.8-2.3,15.9"/> <path d=" M29,14.4c0.2,0.7-2.3,13.6-2.3,13.6 M26.8,28c0,0,1.1-4.8,6.4-5.4c4.1-0.4,5.2-2,5.3-2.6c0.1-0.6,1.1-7,1.1-7 M37.3,27.6 c0,0,2.4-13.8,2.3-14.5"/> <path d=" M47.5,13.7c-0.4,0.5-2.5,11.2-1.2,14.6"/> <path d=" M53.2,27c-0.2-0.9,5.3-13.4,5.3-13.4 M58.4,13.6c-0.8,2,0,14.6,3.8,12.9c3.5-1.6,3.5-12.4,4.5-13"/> <path d=" M82.1,13c-1.4-0.5-14.3,9.2-11.4,12.7c2.9,3.5,17.8-0.9,16.4-2.4c-1-1.1-3.8-3.9-4.6-3.2"/> <path d=" M103.4,13.1c-1.6-1-12.1,1.8-12.2,3.4c-0.1,1.6,8.4,1.7,9,5.2c0.5,2.9-6.9,6.4-8.3,5.7"/> <path d=" M121.2,22c-2.6-0.7-4.3-7.4-4.1-8.1 M126.9,13.4c-1.8,1-9.8,15.6-9.8,15.6"/> <path d=" M139.3,14.1c0,0-14.7,9-9.7,13.2c4.6,3.9,12.7-1.2,12.9-3.1c0.2-1.9-1.8-6.8-4.3-8.9"/> <path d=" M149.3,16.9c-0.4,0.5-2.7,9.4,2.6,11.2c3.8,1.3,10.5-9,9.6-13.3"/> <path d=" M177.9,27.9c0,0,3.6-14.1,4.3-14.6 M192.1,14.5c-7.7,3.6-14.2,13.4-14.2,13.4 M184,20.9c0,0,2.5,5.8,10.2,5"/> <path d=" M197.2,28c-0.2-0.9,5.3-13.4,5.3-13.4 M202.4,14.6c-0.8,2,0,14.6,3.8,12.9c3.5-1.6,3.5-12.4,4.5-13"/> <path d=" M225.3,14.1c0,0-14.7,9-9.7,13.2c4.6,3.9,12.7-1.2,12.9-3.1c0.2-1.9-1.8-6.8-4.3-8.9"/> <path d=" M247.2,15.9c-3.8,9.8-11.1,12.8-11.7,11.2c-0.6-1.6,2-12.2,2.7-12.7 M247.2,15.9c-0.9,3.3-0.7,12.4,2.5,11.6 c3.8-0.9,6.1-11.9,7.5-12.8"/> <path d=" M270.2,26.9c0,0,4.3-11.2,8.8-13.6c0,0,5.6,12.6,2,14.5 M275.6,23.6c0,0,4.9-0.1,9-2.1"/> <path d=" M292.4,17.6c-0.2,3.9-2.6,10.2-2.6,10.2 M292.4,27.8c0,0,8.4-0.3,9.3-4.4c0.7-3.6-7.7-3.4-7.7-3.4s6.8-2,6.2-5.9 c-0.6-3.9-11.2,0.1-11.8,0.5"/> <path d=" M316.3,13.1c0,0-14.7,9-9.7,13.2c4.6,3.9,12.7-1.2,12.9-3.1c0.2-1.9-1.8-6.8-4.3-8.9"/> <path d=" M326.3,15.9c-0.4,0.5-2.7,9.4,2.6,11.2c3.8,1.3,10.5-9,9.6-13.3"/> <path d=" M341.9,14.2c0.6,0.3,14.7-2.4,16.3-1.8 M349.2,12.9c1.6,2.4-5.9,12.8-2.3,15.9"/> </g> <g> <polyline stroke-width="7" points=" 543.4,351.2 565.4,373.7 543.4,396.2 	"/> <line stroke-width="7" x1="565.4" y1="373.7" x2="216.7" y2="373.7"/> <text transform="matrix(1 0 0 1 376.0322 427.6594)" font-family="'PermanentMarker'" font-size="31">how much you know</text> <path d=" M382.5,412.4c0.2,0.7-2.3,13.6-2.3,13.6 M380.3,426c0,0,1.1-4.8,6.4-5.4c4.1-0.4,5.2-2,5.3-2.6c0.1-0.6,1.1-7,1.1-7 M390.8,425.6 c0,0,2.4-13.8,2.3-14.5"/> <path d=" M407.8,411.1c0,0-14.7,9-9.7,13.2c4.6,3.9,12.7-1.2,12.9-3.1c0.2-1.9-1.8-6.8-4.3-8.9"/> <path d=" M429.7,413.9c-3.8,9.8-11.1,12.8-11.7,11.2c-0.6-1.6,2-12.2,2.7-12.7 M429.7,413.9c-0.9,3.3-0.7,12.4,2.5,11.6 c3.8-0.9,6.1-11.9,7.5-12.8"/> <path d=" M453.7,426.9c-0.2-1.2,4.8-15.5,6.6-14.9c2.2,0.7-0.6,7.8,3.4,8.2c3.9,0.4,8.6-7.7,9.8-7.4c1.6,0.4-1.2,12.3-1.8,13.7"/> <path d=" M481.3,413.9c-0.4,0.5-2.7,9.4,2.6,11.2c3.8,1.3,10.5-9,9.6-13.3"/> <path d=" M507.3,411.8c-9.1,0.7-17.8,14.4-0.4,13.2"/> <path d=" M515,412.4c0.2,0.7-2.3,13.6-2.3,13.6 M512.8,426c0,0,1.1-4.8,6.4-5.4c4.1-0.4,5.2-2,5.3-2.6c0.1-0.6,1.1-7,1.1-7 M523.3,425.6 c0,0,2.4-13.8,2.3-14.5"/> <path d=" M547.2,419c-2.6-0.7-4.3-7.4-4.1-8.1 M552.9,410.4c-1.8,1-9.8,15.6-9.8,15.6"/> <path d=" M565.3,411.1c0,0-14.7,9-9.7,13.2c4.6,3.9,12.7-1.2,12.9-3.1c0.2-1.9-1.8-6.8-4.3-8.9"/> <path d=" M575.3,413.9c-0.4,0.5-2.7,9.4,2.6,11.2c3.8,1.3,10.5-9,9.6-13.3"/> <path d=" M603.9,424.9c0,0,3.6-14.1,4.3-14.6 M618.1,411.5c-7.7,3.6-14.2,13.4-14.2,13.4 M610,417.9c0,0,2.5,5.8,10.2,5"/> <path d=" M623.2,425c-0.2-0.9,5.3-13.4,5.3-13.4 M628.4,411.6c-0.8,2,0,14.6,3.8,12.9c3.5-1.6,3.5-12.4,4.5-13"/> <path d=" M651.3,411.1c0,0-14.7,9-9.7,13.2c4.6,3.9,12.7-1.2,12.9-3.1c0.2-1.9-1.8-6.8-4.3-8.9"/> <path d=" M673.2,412.9c-3.8,9.8-11.1,12.8-11.7,11.2c-0.6-1.6,2-12.2,2.7-12.7 M673.2,412.9c-0.9,3.3-0.7,12.4,2.5,11.6 c3.8-0.9,6.1-11.9,7.5-12.8"/> </g> <g> <path stroke="#4C715C" stroke-width="7" d="M271.6,359.5 c2.1-46.7,24.2-92.2,59.6-122.7c14.6-12.6,31.4-22.7,44.7-36.7c19.2-20.1,29.9-47.1,35-74.4c5.1-27.3,4.8-55.4,4.5-83.2"/> <text transform="matrix(1 0 0 1 435.8058 58.3264)" fill="#4C715C" font-family="'PermanentMarker'" font-size="30.7418">normal life</text> <path stroke="#4C715C" d=" M437.2,56c-0.2-0.9,5.3-13.4,5.3-13.4 M442.4,42.6c-0.8,2,0,14.6,3.8,12.9c3.5-1.6,3.5-12.4,4.5-13"/> <path stroke="#4C715C" d=" M465.3,42.1c0,0-14.7,9-9.7,13.2c4.6,3.9,12.7-1.2,12.9-3.1c0.2-1.9-1.8-6.8-4.3-8.9"/> <path stroke="#4C715C" d=" M476.9,46.4c0.1,0.6-1.8,10-1.8,10 M487.6,57c-5.9,0.2-9.5-5.3-9.5-5.3s6.9-2.1,7.7-3.6c0.9-1.7-1.5-5.5-2.9-5.9 c-1.4-0.4-5.2,5.3-5.2,5.3"/> <path stroke="#4C715C" d=" M490.7,56.9c-0.2-1.2,4.8-15.5,6.6-14.9c2.2,0.7-0.6,7.8,3.4,8.2c3.9,0.4,8.6-7.7,9.8-7.4c1.6,0.4-1.2,12.3-1.8,13.7"/> <path stroke="#4C715C" d=" M515.2,55.9c0,0,4.3-11.2,8.8-13.6c0,0,5.6,12.6,2,14.5 M520.6,52.6c0,0,4.9-0.1,9-2.1"/> </g> <path stroke="#4C715C" d=" M537.6,41.9c0.5,1.3-4.7,12.2-3.8,13.8c0.9,1.5,9.1-1.7,11.4,0"/> <path stroke="#4C715C" d=" M565.6,41.9c0.5,1.3-4.7,12.2-3.8,13.8c0.9,1.5,9.1-1.7,11.4,0"/> <path stroke="#4C715C" d=" M581.5,41.7c-0.4,0.5-2.5,11.2-1.2,14.6"/> <path stroke="#4C715C" d=" M588.9,57.7c-0.9-0.9,2.8-14.1,2.8-14.1 M601.9,41.7c-2.7-0.9-13.1,2.6-13.1,2.6 M586.3,50.6c0.4,0.6,11.6-0.3,11.6-0.3"/> <path stroke="#4C715C" d=" M612,55.2c0,0-9.3,3.2-10.4,0.3c-1.1-2.9,3.6-9.2,2.8-10.6 M613.6,41.7c0,0-10.8,1.4-11,2.6 M603.1,49.2c0,0,6.6,0.2,7.3-0.4"/> <g> <path stroke="#A35563" stroke-width="7" d="M253.7,354.1 c4.8-67.6,37.1-132.8,88-177.6c9.4-8.3,20-16.2,32.4-18.1c21.1-3.4,40.8,11,55.3,26.6c41.9,44.9,63.4,104.7,83.7,162.6"/> <text transform="matrix(1 0 0 1 511.9759 296.1555)" fill="#A35563" font-family="'PermanentMarker'" font-size="30.7418">academia</text> <path stroke="#A35563" d=" M514.2,293.9c0,0,4.3-11.2,8.8-13.6c0,0,5.6,12.6,2,14.5 M519.6,290.6c0,0,4.9-0.1,9-2.1"/> <path stroke="#A35563" d=" M542.3,279.8c-9.1,0.7-17.8,14.4-0.4,13.2"/> <path stroke="#A35563" d=" M547.2,293.9c0,0,4.3-11.2,8.8-13.6c0,0,5.6,12.6,2,14.5 M552.6,290.6c0,0,4.9-0.1,9-2.1"/> <path stroke="#A35563" d=" M591,293.2c0,0-9.3,3.2-10.4,0.3c-1.1-2.9,3.6-9.2,2.8-10.6 M592.6,279.7c0,0-10.8,1.4-11,2.6 M582.1,287.2c0,0,6.6,0.2,7.3-0.4"/> <path stroke="#A35563" d=" M567.2,283c1,3.6,0.7,6.5-0.6,12.1 M566.6,295c16.1-5.5,11.7-10.9,0.6-14.9"/> <path stroke="#A35563" d=" M595.7,294.9c-0.2-1.2,4.8-15.5,6.6-14.9c2.2,0.7-0.6,7.8,3.4,8.2c3.9,0.4,8.6-7.7,9.8-7.4c1.6,0.4-1.2,12.3-1.8,13.7"/> <path stroke="#A35563" d=" M625.5,279.7c-0.4,0.5-2.5,11.2-1.2,14.6"/> <path stroke="#A35563" d=" M631.2,293.9c0,0,4.3-11.2,8.8-13.6c0,0,5.6,12.6,2,14.5 M636.6,290.6c0,0,4.9-0.1,9-2.1"/> </g> </svg> 