<?xml version="1.0" encoding="utf-8"?>
<!-- Generator: Adobe Illustrator 19.2.0, SVG Export Plug-In . SVG Version: 6.00 Build 0)  -->
<svg version="1.1" id="Layer_1" xmlns="http://www.w3.org/2000/svg" xmlns:xlink="http://www.w3.org/1999/xlink" x="0px" y="0px"
	 width="613.25px" height="383.02px" viewBox="0 0 613.25 383.02" enable-background="new 0 0 613.25 383.02" xml:space="preserve">
<path fill="none" stroke="#FFFFFF" stroke-width="120" stroke-linejoin="bevel" stroke-miterlimit="10" d="M27.83,23.91
	c-2.12,22.81-4.24,45.63-6.37,68.44C73.89,78.6,122.88,51.94,162.9,15.38c5.43,24.02-6.9,48.89-23.73,66.87s-38.07,31.2-56.28,47.78
	C27.5,180.47,4.26,263.5,25.42,335.36c2.51,8.53,6.54,17.89,14.91,20.89c9.22,3.3,19.57-3.17,24.24-11.77
	c4.67-8.6,5.18-18.75,6.09-28.5c10.02-107.5,85.65-206.19,186.85-243.82c32.64-12.14,67.16-18.26,101.45-24.33
	c74.04-13.1,148.08-26.19,222.12-39.29c12.41-2.19,28.11-2.99,34.51,7.86c4.06,6.89,2.15,16.08-2.65,22.49
	c-4.79,6.41-11.93,10.59-19.01,14.32c-42.74,22.5-90.86,34.71-139.15,35.3c-31.05,0.38-62.21-3.95-93.06-0.44
	c-30.85,3.51-62.76,16.61-78.9,43.13c74.24,10.15,151.02,1.22,220.95-25.7c14.24-5.48,28.73-11.8,43.99-11.54
	c15.26,0.26,31.66,9.37,34.61,24.34c2.45,12.45-4.75,24.6-12.18,34.89c-49.49,68.59-123.57,119.05-205.53,139.99
	c-58.32,14.9-123.59,14.17-174.91-17.29c-12.05-7.39-24.23-16.69-38.36-16.48c-19.75,0.28-33.82,18.54-44.75,34.99
	c-7.72,11.62-15.58,23.53-19.05,37.05s-1.8,29.19,7.75,39.36c8.25,8.78,21.03,12.1,33.07,11.58s23.65-4.38,35.14-8.01
	c150.04-47.43,310.77-60.71,466.56-38.55"/>
<polyline fill="none" stroke="#000000" stroke-width="7" stroke-linecap="round" stroke-linejoin="round" stroke-miterlimit="10" points="
	10.02,91.44 32.52,69.44 55.02,91.44 "/>
<line fill="none" stroke="#000000" stroke-width="7" stroke-linecap="round" stroke-linejoin="round" stroke-miterlimit="10" x1="32.52" y1="69.44" x2="32.52" y2="356.81"/>
<line fill="none" stroke="#000000" stroke-width="7" stroke-linecap="round" stroke-linejoin="round" stroke-miterlimit="10" x1="10.02" y1="334.81" x2="593.41" y2="334.81"/>
<polyline fill="none" stroke="#000000" stroke-width="7" stroke-linecap="round" stroke-linejoin="round" stroke-miterlimit="10" points="
	571.42,312.31 593.42,334.81 571.42,357.31 "/>
<text transform="matrix(1 0 0 1 89.4321 373.8263)"><tspan x="0" y="0" font-family="'PermanentMarker'" font-size="30.74px">d</tspan><tspan x="14.98" y="0" font-family="'PermanentMarker'" font-size="30.74px">ur</tspan><tspan x="49.59" y="0" font-family="'PermanentMarker'" font-size="30.74px" letter-spacing="-1">a</tspan><tspan x="65.92" y="0" font-family="'PermanentMarker'" font-size="30.74px">t</tspan><tspan x="80.66" y="0" font-family="'PermanentMarker'" font-size="30.74px">i</tspan><tspan x="89.91" y="0" font-family="'PermanentMarker'" font-size="30.74px">on of amazon </tspan><tspan x="308.33" y="0" font-family="'PermanentMarker'" font-size="30.74px">d</tspan><tspan x="323.31" y="0" font-family="'PermanentMarker'" font-size="30.74px">eliv</tspan><tspan x="380.5" y="0" font-family="'PermanentMarker'" font-size="30.74px">e</tspan><tspan x="396.23" y="0" font-family="'PermanentMarker'" font-size="30.74px">r</tspan><tspan x="412.26" y="0" font-family="'PermanentMarker'" font-size="30.74px">y</tspan></text>
<text transform="matrix(1 0 0 1 10.0155 52.5944)"><tspan x="0" y="0" font-family="'PermanentMarker'" font-size="30.74px">excitement upon r</tspan><tspan x="271.35" y="0" font-family="'PermanentMarker'" font-size="30.74px">ec</tspan><tspan x="302.57" y="0" font-family="'PermanentMarker'" font-size="30.74px">ept</tspan><tspan x="349.46" y="0" font-family="'PermanentMarker'" font-size="30.74px">i</tspan><tspan x="358.7" y="0" font-family="'PermanentMarker'" font-size="30.74px">on</tspan></text>
<path fill="none" stroke="#00A651" stroke-width="7" stroke-linecap="round" stroke-linejoin="round" stroke-miterlimit="10" d="
	M64.73,122.02c33.4,46.59,69.26,92.38,114.88,127.09s102.44,57.68,159.58,52.97c68.07-5.62,128.22-49.86,168.99-104.66
	s65.14-119.77,88.99-183.77"/>
<path fill="none" stroke="#702C8D" stroke-width="7" stroke-linecap="round" stroke-linejoin="round" stroke-miterlimit="10" d="
	M580.88,31.44c4.53,4.33,9.05,8.67,13.58,13"/>
<path fill="none" stroke="#702C8D" stroke-width="7" stroke-linecap="round" stroke-linejoin="round" stroke-miterlimit="10" d="
	M577.48,42.45c6.51-3.18,13.03-6.35,19.54-9.53"/>
<path fill="none" stroke="#702C8D" stroke-width="7" stroke-linecap="round" stroke-linejoin="round" stroke-miterlimit="10" d="
	M565.84,31.35c-12.63-8.79-28.49-12.84-43.79-11.19c-5.1,0.55-10.84,2.25-12.96,6.93c-2.64,5.84,1.86,12.16,4.31,18.08
	c3.77,9.07,2.52,20.04-3.19,28.04c-5.71,7.99-15.68,12.74-25.48,12.12"/>
<text transform="matrix(1 0 0 1 218.6325 100.5148)"><tspan x="0" y="0" fill="#702C8D" font-family="'PermanentMarker'" font-size="30.74px">a </tspan><tspan x="29.24" y="0" fill="#702C8D" font-family="'PermanentMarker'" font-size="30.74px" letter-spacing="-1">g</tspan><tspan x="47.76" y="0" fill="#702C8D" font-family="'PermanentMarker'" font-size="30.74px">ift from </tspan><tspan x="184.08" y="0" fill="#702C8D" font-family="'PermanentMarker'" font-size="30.74px">y</tspan><tspan x="195.46" y="0" fill="#702C8D" font-family="'PermanentMarker'" font-size="30.74px">o</tspan><tspan x="214.19" y="0" fill="#702C8D" font-family="'PermanentMarker'" font-size="30.74px">ur</tspan><tspan x="53.48" y="30" fill="#702C8D" font-family="'PermanentMarker'" font-size="30.74px">pa</tspan><tspan x="86.26" y="30" fill="#702C8D" font-family="'PermanentMarker'" font-size="30.74px">st self!</tspan></text>
</svg>
