<?xml version="1.0" encoding="utf-8"?>
<!-- Generator: Adobe Illustrator 18.0.0, SVG Export Plug-In . SVG Version: 6.00 Build 0)  -->
<!DOCTYPE svg PUBLIC "-//W3C//DTD SVG 1.1//EN" "http://www.w3.org/Graphics/SVG/1.1/DTD/svg11.dtd">
<svg version="1.1" id="Layer_1" xmlns="http://www.w3.org/2000/svg" xmlns:xlink="http://www.w3.org/1999/xlink" x="0px" y="0px"
	 viewBox="0 0 396.4 428.3" enable-background="new 0 0 396.4 428.3" xml:space="preserve">
<path fill="none" stroke="#FFFFFF" stroke-width="120" stroke-linejoin="bevel" stroke-miterlimit="10" d="M56.1-20
	C28.7-4.5,8.1,22.6,0.4,53.2c13.7,4.8,29.1-0.8,40.5-9.7s20.1-20.8,30.2-31.2c23.9-24.5,56.5-40.4,90.5-44.1
	c-4.6,30-26.7,54.2-49.4,74.4s-47.7,39.3-61.9,66.2c-12.5,23.5-15.4,50.8-18.1,77.2c-4.4,42.9-8.8,85.8-13.2,128.6
	c-1.1,10.8-2.2,21.9,0.5,32.4c2.7,10.5,9.9,20.6,20.3,23.6c24.6,7,44.6-26.7,70.2-25.2c7,19.5,14,38.9,20.9,58.4
	c2.7-17.4,5.4-35.1,12.7-51.2c7.3-16,19.9-30.5,36.6-36.1s37.6,0,46.3,15.4c6.9,12.2,5.2,27.2,4.8,41.2s1.8,30,13.2,38
	c8.4,5.9,19.4,5.8,29.6,5.6c73.9-2,73.9-2,147.8-4c10.4-0.3,21.1-0.6,30.6-4.9s17.5-13.5,17-23.9c-0.7-15.2-17.6-23.9-32.5-27.3
	c-32.7-7.5,7.3-7.1-26.1-4.6s-67.4,4.8-100.1-2.8c-32.6-7.6-64.3-26.8-78.6-57.1c-7-14.8-8.8-34.3,2.5-46.1c8.3-8.8,21.6-11,33.6-10
	c12.1,1,23.7,4.8,35.8,5.9c10.9,1.1,22.7-0.3,31.4-7c8.7-6.7,12.9-19.9,7-29.2c-6.9-10.8-22.4-11-35.2-10.4s-28.6-0.9-33.9-12.6
	c-3.7-8-0.4-17.7,5.3-24.3c5.7-6.6,13.6-11,20.9-15.9c26.1-17.3,47.1-42.1,60-70.6c10.7-23.9,14.3-55.4-4.7-73.5
	c-16.6-15.8-42.9-14.4-65.2-8.8S213.2,3.7,190.8-1"/>
<g>
	
		<line fill="none" stroke="#000000" stroke-width="7" stroke-linecap="round" stroke-linejoin="round" stroke-miterlimit="10" x1="45.7" y1="36.3" x2="45.7" y2="384.9"/>
	
		<line fill="none" stroke="#000000" stroke-width="7" stroke-linecap="round" stroke-linejoin="round" stroke-miterlimit="10" x1="371.3" y1="362.6" x2="22.7" y2="362.6"/>
</g>
<g>
	
		<polyline fill="none" stroke="#000000" stroke-width="7" stroke-linecap="round" stroke-linejoin="round" stroke-miterlimit="10" points="
		349.3,340.1 371.3,362.6 349.3,385.1 	"/>
	<text transform="matrix(1 0 0 1 19.8022 416.5987)" font-family="'PermanentMarker'" font-size="31">how much money i have</text>
</g>
<g>
	
		<polyline fill="none" stroke="#000000" stroke-width="7" stroke-linecap="round" stroke-linejoin="round" stroke-miterlimit="10" points="
		23.2,58.3 45.7,36.3 68.2,58.3 	"/>
	<text transform="matrix(1 0 0 1 19.6485 25.2773)" fill="#AC4A9C" font-family="'PermanentMarker'" font-size="30.7418">how much money i desire</text>
</g>
<path fill="none" stroke="#AC4A9C" stroke-width="7" stroke-linecap="round" stroke-miterlimit="10" d="M58.1,350.8
	c41.7-7.4,83.6-15,123.5-29.2s78.1-35.3,106.8-66.4c50.5-54.6,66-132.1,79.4-205.2"/>
</svg>
