 
 
 
<svg version="1.1" id="Layer_1" xmlns="http://www.w3.org/2000/svg" xmlns:xlink="http://www.w3.org/1999/xlink" x="0px" y="0px"
	 viewBox="0 0 842 398.8" enable-background="new 0 0 842 398.8" xml:space="preserve">
<path stroke="#FFFFFF" stroke-width="120" stroke-linecap="square" d="
	M44.4,5C33.8,51.7,21.9,98.2,8.8,144.3c22.1-1.3,37.7-21.5,50.1-39.8C85.6,65.1,113.2,24.2,154.1,0c-2.1,52.6-45.4,92.8-70.8,139
	c-15.5,28.1-24.5,59.3-32.3,90.5C38.2,280.3,28.4,332,21.4,384c14.1,1.3,25.1-11.5,32.5-23.5c37.3-60.2,52.6-136.2,106.4-182.3
	c-2,11.1-4,22.7-1.1,33.6c2.9,10.9,12,21.1,23.3,21.3c13.7,0.2,23.4-13.4,27.7-26.3c4.3-13,6-27.4,14.8-37.8c3.8-4.4,9.8-8,15.2-6
	c3.4,1.3,5.6,4.4,7.4,7.4c6.6,11.3,9.3,24.8,17.4,35.1s25.4,15.5,33.8,5.5c4-4.8,4.7-11.4,5.3-17.6c3.5-39.8,4.3-86.5-26.5-111.9
	C267.5,73,255,68.1,242.8,63.3c-22.7-8.9-45.4-17.8-68.1-26.7c6.5-14.6,25.8-18.7,41.4-15.4s29.6,11.9,45.1,15.6
	c27.8,6.6,56.5-3,84.9-6.1c31.5-3.5,63.4,1.2,95.1-0.8c11.3,7.3,5,26.1-6.5,33.2c-11.4,7.1-25.9,8.5-36.8,16.4
	c-17.5,12.8-20.1,37.5-21.1,59.2c-0.3,7.7-0.4,16.2,4.5,22.1c5.7,6.8,16.3,7.5,24.3,3.9c8-3.6,14-10.6,19.5-17.5
	c15.3-19.7,28.2-41.4,45.6-59.2s40.7-32,65.6-31.1c-5.9,23.9-29.5,38-49.1,52.8c-21.1,15.9-39.6,35.4-54.4,57.4
	c-12.7,19-22.9,40.5-23.9,63.3c-1.1,24.8,9.4,49.9,27.8,66.6c29.5-42.4,54.1-88.1,73.5-136c6.6-16.3,12.9-33.4,25.1-46.1
	c12.2-12.7,32.3-19.8,47.8-11.4c0.1,34.2-13.9,66.5-25.3,98.7c-15.4,43.4-26.6,88.3-33.3,133.8c27.6-7.4,44.5-34.5,57.5-60
	c20.2-39.5,37.8-80.4,52.7-122.2c2.7-7.7,5.6-15.7,11.6-21.1s16.4-7,22-1.2c3.4,3.5,4.3,8.7,4.8,13.5c8.5,80.5-40.6,158.4-33.7,239
	c0.2,2.7,0.5,5.4,1.9,7.7c1.7,2.9,4.7,4.7,7.9,5.8c12.9,4.5,27.6-2.5,36.2-13.1s12.6-24.2,16.3-37.4c13.2-46.7,26.5-93.7,33.1-141.8
	c2.6-19.2,4.6-39.5,16.2-55s36.8-22.6,50.3-8.7c7.9,8.2,9.2,20.7,9.3,32.2c0.5,40.4-7.9,80.8-24.3,117.7
	c-12.3,27.6-29.3,54.3-30.8,84.4c17.8,7,36.8,11,55.9,11.7"/>
<g>
	
		<line stroke-width="7" x1="37.5" y1="387.6" x2="37.5" y2="57.6"/>
	<text transform="matrix(1 0 0 1 14.1729 42.8136)" font-family="'PermanentMarker'" font-size="31">how much i care how i look</text>
	<path d="
		M19,28c0.2,0.7-2.3,13.6-2.3,13.6 M16.7,41.6c0,0,1.1-4.8,6.4-5.4c4.1-0.4,5.2-2,5.3-2.6c0.1-0.6,1.1-7,1.1-7 M27.2,41.1
		c0,0,2.4-13.8,2.3-14.5"/>
	<path d="
		M45.2,26.7c0,0-14.7,9-9.7,13.2c4.6,3.9,12.7-1.2,12.9-3.1c0.2-1.9-1.8-6.8-4.3-8.9"/>
	<path d="
		M66.1,29.4C62.4,39.2,55,42.2,54.4,40.6c-0.6-1.6,2-12.2,2.7-12.7 M66.1,29.4c-0.9,3.3-0.7,12.4,2.5,11.6
		c3.8-0.9,6.1-11.9,7.5-12.8"/>
	<path d="
		M90.6,41.4c-0.2-1.2,4.8-15.5,6.6-14.9c2.2,0.7-0.6,7.8,3.4,8.2c3.9,0.4,8.6-7.7,9.8-7.4c1.6,0.4-1.2,12.3-1.8,13.7"/>
	<path d="
		M118.3,29.4c-0.4,0.5-2.7,9.4,2.6,11.2c3.8,1.3,10.5-9,9.6-13.3"/>
	<path d="
		M145.2,27.4c-9.1,0.7-17.8,14.4-0.4,13.2"/>
	<path d="
		M153,28c0.2,0.7-2.3,13.6-2.3,13.6 M150.7,41.6c0,0,1.1-4.8,6.4-5.4c4.1-0.4,5.2-2,5.3-2.6c0.1-0.6,1.1-7,1.1-7 M161.2,41.1
		c0,0,2.4-13.8,2.3-14.5"/>
	<path d="
		M183.4,27.3c-0.4,0.5-2.5,11.2-1.2,14.6"/>
	<path d="
		M211.2,27.4c-9.1,0.7-17.8,14.4-0.4,13.2"/>
	<path d="
		M216.1,40.4c0,0,4.3-11.2,8.8-13.6c0,0,5.6,12.6,2,14.5 M221.6,37.2c0,0,4.9-0.1,9-2.1"/>
	<path d="
		M236.9,30.9c0.1,0.6-1.8,10-1.8,10 M247.5,41.5c-5.9,0.2-9.5-5.3-9.5-5.3s6.9-2.1,7.7-3.6c0.9-1.7-1.5-5.5-2.9-5.9
		c-1.4-0.4-5.2,5.3-5.2,5.3"/>
	<path d="
		M261.9,39.8c0,0-9.3,3.2-10.4,0.3c-1.1-2.9,3.6-9.2,2.8-10.6 M263.6,26.2c0,0-10.8,1.4-11,2.6 M253,33.7c0,0,6.6,0.2,7.3-0.4"/>
	<path d="
		M282,28c0.2,0.7-2.3,13.6-2.3,13.6 M279.7,41.6c0,0,1.1-4.8,6.4-5.4c4.1-0.4,5.2-2,5.3-2.6c0.1-0.6,1.1-7,1.1-7 M290.2,41.1
		c0,0,2.4-13.8,2.3-14.5"/>
	<path d="
		M308.2,26.7c0,0-14.7,9-9.7,13.2c4.6,3.9,12.7-1.2,12.9-3.1c0.2-1.9-1.8-6.8-4.3-8.9"/>
	<path d="
		M330.1,28.4c-3.8,9.8-11.1,12.8-11.7,11.2c-0.6-1.6,2-12.2,2.7-12.7 M330.1,28.4c-0.9,3.3-0.7,12.4,2.5,11.6
		c3.8-0.9,6.1-11.9,7.5-12.8"/>
	<path d="
		M358.4,27.3c-0.4,0.5-2.5,11.2-1.2,14.6"/>
	<path d="
		M379.5,26.5c0.5,1.3-4.7,12.2-3.8,13.8c0.9,1.5,9.1-1.7,11.4,0"/>
	<path d="
		M403.2,25.7c0,0-14.7,9-9.7,13.2c4.6,3.9,12.7-1.2,12.9-3.1c0.2-1.9-1.8-6.8-4.3-8.9"/>
	<path d="
		M422.2,26.7c0,0-14.7,9-9.7,13.2c4.6,3.9,12.7-1.2,12.9-3.1c0.2-1.9-1.8-6.8-4.3-8.9"/>
	<path d="
		M431.8,41.4c0,0,3.6-14.1,4.3-14.6 M446,28c-7.7,3.6-14.2,13.4-14.2,13.4 M438,34.5c0,0,2.5,5.8,10.2,5"/>
	
		<polyline stroke-width="7" points="
		15,78.9 37.5,56.9 60,78.9 	"/>
</g>
<g>
	<text transform="matrix(1 0 0 1 502.9775 87.8781)" font-family="'PermanentMarker'" font-size="31">fuck it</text>
	<path d="
		M505.9,87.2c-0.9-0.9,2.8-14.1,2.8-14.1 M518.8,71.2c-2.7-0.9-13.1,2.6-13.1,2.6 M503.2,80.2c0.4,0.6,11.6-0.3,11.6-0.3"/>
	<path d="
		M521.3,74.4c-0.4,0.5-2.7,9.4,2.6,11.2c3.8,1.3,10.5-9,9.6-13.3"/>
	<path d="
		M547.2,72.4c-9.1,0.7-17.8,14.4-0.4,13.2"/>
	<path d="
		M553.8,86.4c0,0,3.6-14.1,4.3-14.6 M568,73c-7.7,3.6-14.2,13.4-14.2,13.4 M560,79.5c0,0,2.5,5.8,10.2,5"/>
	<path d="
		M588.4,71.3c-0.4,0.5-2.5,11.2-1.2,14.6"/>
	<path d="
		M593.8,71.8c0.6,0.3,14.7-2.4,16.3-1.8 M601.1,70.4c1.6,2.4-5.9,12.8-2.3,15.9"/>
	<path stroke-width="7" d="M367.6,63.8
		c6.7-1.9,13.9-0.6,20.4,2c6.5,2.6,12.4,6.3,18.5,9.6c25.6,13.6,55.7,18.5,84.2,13.5"/>
</g>
<g>
	
		<line stroke-width="7" x1="14" y1="222.1" x2="823" y2="222.1"/>
	<text transform="matrix(1 0 0 1 512.0391 180.884)" font-family="'PermanentMarker'" font-size="31">how fat i think i am</text>
	
		<polyline stroke-width="7" points="
		801.1,198.9 823.1,221.4 801.1,243.9 	"/>
	<path d="
		M519,166c0.2,0.7-2.3,13.6-2.3,13.6 M516.7,179.6c0,0,1.1-4.8,6.4-5.4c4.1-0.4,5.2-2,5.3-2.6c0.1-0.6,1.1-7,1.1-7 M527.2,179.1
		c0,0,2.4-13.8,2.3-14.5"/>
	<path d="
		M544.2,164.7c0,0-14.7,9-9.7,13.2c4.6,3.9,12.7-1.2,12.9-3.1c0.2-1.9-1.8-6.8-4.3-8.9"/>
	<path d="
		M566.1,167.4c-3.8,9.8-11.1,12.8-11.7,11.2c-0.6-1.6,2-12.2,2.7-12.7 M566.1,167.4c-0.9,3.3-0.7,12.4,2.5,11.6
		c3.8-0.9,6.1-11.9,7.5-12.8"/>
	<path d="
		M591.9,180.2c-0.9-0.9,2.8-14.1,2.8-14.1 M604.8,164.2c-2.7-0.9-13.1,2.6-13.1,2.6 M589.2,173.2c0.4,0.6,11.6-0.3,11.6-0.3"/>
	<path d="
		M604.1,178.4c0,0,4.3-11.2,8.8-13.6c0,0,5.6,12.6,2,14.5 M609.6,175.2c0,0,4.9-0.1,9-2.1"/>
	<path d="
		M620.8,165.8c0.6,0.3,14.7-2.4,16.3-1.8 M628.1,164.4c1.6,2.4-5.9,12.8-2.3,15.9"/>
	<path d="
		M650.4,165.3c-0.4,0.5-2.5,11.2-1.2,14.6"/>
	<path d="
		M668.8,165.8c0.6,0.3,14.7-2.4,16.3-1.8 M676.1,164.4c1.6,2.4-5.9,12.8-2.3,15.9"/>
	<path d="
		M686,166c0.2,0.7-2.3,13.6-2.3,13.6 M683.7,179.6c0,0,1.1-4.8,6.4-5.4c4.1-0.4,5.2-2,5.3-2.6c0.1-0.6,1.1-7,1.1-7 M694.2,179.1
		c0,0,2.4-13.8,2.3-14.5"/>
	<path d="
		M705.4,164.3c-0.4,0.5-2.5,11.2-1.2,14.6"/>
	<path d="
		M711.1,178.5c-0.2-0.9,5.3-13.4,5.3-13.4 M716.3,165.1c-0.8,2,0,14.6,3.8,12.9c3.5-1.6,3.5-12.4,4.5-13"/>
	<path d="
		M728.8,178.4c0,0,3.6-14.1,4.3-14.6 M743,165c-7.7,3.6-14.2,13.4-14.2,13.4 M735,171.5c0,0,2.5,5.8,10.2,5"/>
	<path d="
		M763.4,165.3c-0.4,0.5-2.5,11.2-1.2,14.6"/>
	<path d="
		M782.1,178.4c0,0,4.3-11.2,8.8-13.6c0,0,5.6,12.6,2,14.5 M787.6,175.2c0,0,4.9-0.1,9-2.1"/>
	<path d="
		M798.6,179.4c-0.2-1.2,4.8-15.5,6.6-14.9c2.2,0.7-0.6,7.8,3.4,8.2c3.9,0.4,8.6-7.7,9.8-7.4c1.6,0.4-1.2,12.3-1.8,13.7"/>
</g>
<path stroke="#006837" stroke-width="7" d="M40.5,176.9
	c34.5-3,54,3,84,16.5c25.5,12,66,19.5,93,7.5c28.5-13.5,55.5-43.5,75-66c21-24,34.5-58.5,58.5-78c46.5,69,36,172.5,105,229.5
	c36,30,91.5,42,136.5,52.5c64.5,15,127.5,37.5,192,51c12,1.5,22.5,6,34.5,6"/>
</svg>
