<?xml version="1.0" encoding="utf-8"?> <!-- Generator: Adobe Illustrator 18.0.0, SVG Export Plug-In . SVG Version: 6.00 Build 0) --> <!DOCTYPE svg PUBLIC "-//W3C//DTD SVG 1.1//EN" "http://www.w3.org/Graphics/SVG/1.1/DTD/svg11.dtd"> <svg version="1.1" id="Layer_1" xmlns="http://www.w3.org/2000/svg" xmlns:xlink="http://www.w3.org/1999/xlink" x="0px" y="0px" viewBox="0 0 904.5 357.5" enable-background="new 0 0 904.5 357.5" xml:space="preserve"> <path stroke="#FFFFFF" stroke-width="120" stroke-linejoin="bevel" d="M868.4,35.1 c-54.5-4.3-109.1-8.5-163.6-12.8c-17.6-1.4-35.3-2.7-52.9-2c-23,1-45.8,5.7-68.6,8.6c-62,8-124.8,3.6-187.3,3 c-21.1-0.2-42.4,0-63.3,3.1c-19.2,2.8-37.9,8-56.6,13C200.1,68.2,121.7,85.9,43.5,78.1c87.6,0.7,175.2,1.4,262.7,2.1 c-4.1,24,0.3,48.4,1.6,72.7s-1.3,50.5-16.7,69.2C348,146.1,435.9,93.9,529.9,80.3c-40.5,59.7-129.2,69.8-171.5,128.2 c-6.3,8.7-11.5,18.3-19.8,25.1c-6.8,5.5-15.1,8.6-22.1,13.8c-16.6,12.4-23.2,35-39.8,47.4c-19.1,14.3-45.5,11.3-69.3,12 c-28.3,0.8-56.2,7.7-84.4,9.8c-25.6,1.9-89.9-2.1-114.8-8.1c63.4-2.3,165.5,0.3,228.9,4c24.4,1.4,49.9,3.7,70.4,17 c1.1-15.3,9.3-29.3,18.8-41.3c27.5-34.6,67-57.1,105.5-78.9c36.9-20.8,73.8-41.7,110.7-62.5c-24.8,28.9-45.5,61.4-61.2,96.1 c54.2,0.3,100.4-46.4,154.6-45.4c-41.3,34.6-80,72.3-115.5,112.9c59.2-19.2,114.6-50.1,161.9-90.5c19.2-16.4,38.3-34.9,62.8-40.9 c-16.5,34.7-37.6,67.3-62.6,96.5c56.7-17.1,92.6-75.6,148.5-95.1c-9.6,17.4-17.6,35.7-24,54.6c11.8,5.8,24.6-6.6,29.8-18.7 c5.2-12.1,9-26.8,21-32.3"/> <g> <line stroke-width="7" x1="273.6" y1="198.1" x2="857" y2="198.1"/> <polyline stroke-width="7" points=" 835,175.6 857,198.1 835,220.6 	"/> <line stroke-width="7" x1="372.5" y1="190.5" x2="372.5" y2="206.5"/> <line stroke-width="7" x1="449.5" y1="190.5" x2="449.5" y2="206.5"/> <line stroke-width="7" x1="526.5" y1="190.5" x2="526.5" y2="206.5"/> <line stroke-width="7" x1="603.5" y1="190.5" x2="603.5" y2="206.5"/> <line stroke-width="7" x1="680.5" y1="190.5" x2="680.5" y2="206.5"/> <line stroke-width="7" x1="757.5" y1="190.5" x2="757.5" y2="206.5"/> </g> <text transform="matrix(1 0 0 1 273.5581 41.569)" font-family="'PermanentMarker'" font-size="31">going out drinking on a wednesday is...</text> <g> <text transform="matrix(1 0 0 1 39.3198 86.4499)" font-family="'PermanentMarker'" font-size="31">a great idea !!!</text> <text transform="matrix(1 0 0 1 13.9956 313.1345)" font-family="'PermanentMarker'" font-size="31">a really bad idea</text> <path d=" M42.5,83.7c0,0,4.3-11.2,8.8-13.6c0,0,5.6,12.6,2,14.5 M48,80.4c0,0,4.9-0.1,9-2.1"/> <path d=" M83.5,70.8c-1.4-0.5-14.3,9.2-11.4,12.7c2.9,3.5,17.8-0.9,16.4-2.4c-1-1.1-3.8-3.9-4.6-3.2"/> <path d=" M95.3,74.2c0.1,0.6-1.8,10-1.8,10 M105.9,84.8c-5.9,0.2-9.5-5.3-9.5-5.3s6.9-2.1,7.7-3.6c0.9-1.7-1.5-5.5-2.9-5.9 c-1.4-0.4-5.2,5.3-5.2,5.3"/> <path d=" M121.3,83c0,0-9.3,3.2-10.4,0.3c-1.1-2.9,3.6-9.2,2.8-10.6 M123,69.5c0,0-10.8,1.4-11,2.6 M112.4,77c0,0,6.6,0.2,7.3-0.4"/> <path d=" M125.5,83.7c0,0,4.3-11.2,8.8-13.6c0,0,5.6,12.6,2,14.5 M131,80.4c0,0,4.9-0.1,9-2.1"/> <path d=" M142.2,71c0.6,0.3,14.7-2.4,16.3-1.8 M149.5,69.7c1.6,2.4-5.9,12.8-2.3,15.9"/> <path d=" M172.8,70.5c-0.4,0.5-2.5,11.2-1.2,14.6"/> <path d=" M179.5,72.8c1,3.6,0.7,6.5-0.6,12.1 M179,84.8c16.1-5.5,11.7-10.9,0.6-14.9"/> <path d=" M204.3,83c0,0-9.3,3.2-10.4,0.3c-1.1-2.9,3.6-9.2,2.8-10.6 M206,69.5c0,0-10.8,1.4-11,2.6 M195.4,77c0,0,6.6,0.2,7.3-0.4"/> <path d=" M209.5,83.7c0,0,4.3-11.2,8.8-13.6c0,0,5.6,12.6,2,14.5 M215,80.4c0,0,4.9-0.1,9-2.1"/> <path d=" M243.8,67.6c0,0-1.4,10.5-2.1,11.5 M239.5,86c2,0.8-0.5-1.1,0-1.3"/> <path d=" M251.8,65.6c0,0-1.4,10.5-2.1,11.5 M247.5,84c2,0.8-0.5-1.1,0-1.3"/> <path d=" M259.8,65.6c0,0-1.4,10.5-2.1,11.5 M255.5,84c2,0.8-0.5-1.1,0-1.3"/> <path d=" M17.5,310.7c0,0,4.3-11.2,8.8-13.6c0,0,5.6,12.6,2,14.5 M23,307.4c0,0,4.9-0.1,9-2.1"/> <path d=" M49.3,301.2c0.1,0.6-1.8,10-1.8,10 M59.9,311.8c-5.9,0.2-9.5-5.3-9.5-5.3s6.9-2.1,7.7-3.6c0.9-1.7-1.5-5.5-2.9-5.9 c-1.4-0.4-5.2,5.3-5.2,5.3"/> <path d=" M74.3,310c0,0-9.3,3.2-10.4,0.3c-1.1-2.9,3.6-9.2,2.8-10.6 M76,296.5c0,0-10.8,1.4-11,2.6 M65.4,304c0,0,6.6,0.2,7.3-0.4"/> <path d=" M78.5,310.7c0,0,4.3-11.2,8.8-13.6c0,0,5.6,12.6,2,14.5 M84,307.4c0,0,4.9-0.1,9-2.1"/> <path d=" M101.9,297.7c0.5,1.3-4.7,12.2-3.8,13.8c0.9,1.5,9.1-1.7,11.4,0"/> <path d=" M117.9,297.7c0.5,1.3-4.7,12.2-3.8,13.8c0.9,1.5,9.1-1.7,11.4,0"/> <path d=" M135.5,305.8c-2.6-0.7-4.3-7.4-4.1-8.1 M141.2,297.2c-1.8,1-9.8,15.6-9.8,15.6"/> <path d=" M157.7,301.4c-0.2,3.9-2.6,10.2-2.6,10.2 M157.7,311.6c0,0,8.4-0.3,9.3-4.4c0.7-3.6-7.7-3.4-7.7-3.4s6.8-2,6.2-5.9 c-0.6-3.9-11.2,0.1-11.8,0.5"/> <path d=" M171.5,310.7c0,0,4.3-11.2,8.8-13.6c0,0,5.6,12.6,2,14.5 M177,307.4c0,0,4.9-0.1,9-2.1"/> <path d=" M190.5,299.8c1,3.6,0.7,6.5-0.6,12.1 M190,311.8c16.1-5.5,11.7-10.9,0.6-14.9"/> <path d=" M219.8,297.5c-0.4,0.5-2.5,11.2-1.2,14.6"/> <path d=" M226.5,299.8c1,3.6,0.7,6.5-0.6,12.1 M226,311.8c16.1-5.5,11.7-10.9,0.6-14.9"/> <path d=" M251.3,310c0,0-9.3,3.2-10.4,0.3c-1.1-2.9,3.6-9.2,2.8-10.6 M253,296.5c0,0-10.8,1.4-11,2.6 M242.4,304c0,0,6.6,0.2,7.3-0.4"/> <path d=" M256.5,310.7c0,0,4.3-11.2,8.8-13.6c0,0,5.6,12.6,2,14.5 M262,307.4c0,0,4.9-0.1,9-2.1"/> </g> <g> <text transform="matrix(1 0 0 1 319.9399 237.6364)" font-family="'PermanentMarker'" font-size="31">m</text> <text transform="matrix(1 0 0 1 400.1333 237.6364)" font-family="'PermanentMarker'" font-size="31">t</text> <text transform="matrix(1 0 0 1 474.2979 237.6364)" font-family="'PermanentMarker'" font-size="31">w</text> <text transform="matrix(1 0 0 1 555.4287 237.6364)" font-family="'PermanentMarker'" font-size="31">t</text> <text transform="matrix(1 0 0 1 634.3052 237.6364)" font-family="'PermanentMarker'" font-size="31">f</text> <text transform="matrix(1 0 0 1 711.9033 237.6364)" font-family="'PermanentMarker'" font-size="31">s</text> <text transform="matrix(1 0 0 1 789.5518 237.6364)" font-family="'PermanentMarker'" font-size="31">s</text> <path d=" M322,235.7c-0.2-1.2,4.8-15.5,6.6-14.9c2.2,0.7-0.6,7.8,3.4,8.2c3.9,0.4,8.6-7.7,9.8-7.4c1.6,0.4-1.2,12.3-1.8,13.7"/> <path d=" M402.2,222c0.6,0.3,14.7-2.4,16.3-1.8 M409.5,220.7c1.6,2.4-5.9,12.8-2.3,15.9"/> <path d=" M489.5,223.7c-3.8,9.8-11.1,12.8-11.7,11.2c-0.6-1.6,2-12.2,2.7-12.7 M489.5,223.7c-0.9,3.3-0.7,12.4,2.5,11.6 c3.8-0.9,6.1-11.9,7.5-12.8"/> <path d=" M557.2,222c0.6,0.3,14.7-2.4,16.3-1.8 M564.5,220.7c1.6,2.4-5.9,12.8-2.3,15.9"/> <path d=" M637.3,236.5c-0.9-0.9,2.8-14.1,2.8-14.1 M650.2,220.5c-2.7-0.9-13.1,2.6-13.1,2.6 M634.6,229.4c0.4,0.6,11.6-0.3,11.6-0.3"/> <path d=" M726.7,220.9c-1.6-1-12.1,1.8-12.2,3.4c-0.1,1.6,8.4,1.7,9,5.2c0.5,2.9-6.9,6.4-8.3,5.7"/> <path d=" M803.7,220.9c-1.6-1-12.1,1.8-12.2,3.4c-0.1,1.6,8.4,1.7,9,5.2c0.5,2.9-6.9,6.4-8.3,5.7"/> </g> <g> <polyline stroke-width="7" points=" 273.6,76.5 296.1,54.5 318.6,76.5 	"/> <line stroke-width="7" x1="296.1" y1="54.5" x2="296.1" y2="341.8"/> <path d=" M287.5,25.8c-1.4-0.5-14.3,9.2-11.4,12.7c2.9,3.5,17.8-0.9,16.4-2.4c-1-1.1-3.8-3.9-4.6-3.2"/> <path d=" M306.6,26c0,0-14.7,9-9.7,13.2c4.6,3.9,12.7-1.2,12.9-3.1c0.2-1.9-1.8-6.8-4.3-8.9"/> <path d=" M317.8,25.5c-0.4,0.5-2.5,11.2-1.2,14.6"/> <path d=" M323.5,39.8c-0.2-0.9,5.3-13.4,5.3-13.4 M328.7,26.4c-0.8,2,0,14.6,3.8,12.9c3.5-1.6,3.5-12.4,4.5-13"/> <path d=" M353.5,25.8c-1.4-0.5-14.3,9.2-11.4,12.7c2.9,3.5,17.8-0.9,16.4-2.4c-1-1.1-3.8-3.9-4.6-3.2"/> <path d=" M383.6,26c0,0-14.7,9-9.7,13.2c4.6,3.9,12.7-1.2,12.9-3.1c0.2-1.9-1.8-6.8-4.3-8.9"/> <path d=" M393.7,28.7c-0.4,0.5-2.7,9.4,2.6,11.2c3.8,1.3,10.5-9,9.6-13.3"/> <path d=" M410.2,26c0.6,0.3,14.7-2.4,16.3-1.8 M417.5,24.7c1.6,2.4-5.9,12.8-2.3,15.9"/> <path d=" M437.5,28.8c1,3.6,0.7,6.5-0.6,12.1 M437,40.8c16.1-5.5,11.7-10.9,0.6-14.9"/> <path d=" M454.3,30.2c0.1,0.6-1.8,10-1.8,10 M464.9,40.8c-5.9,0.2-9.5-5.3-9.5-5.3s6.9-2.1,7.7-3.6c0.9-1.7-1.5-5.5-2.9-5.9 c-1.4-0.4-5.2,5.3-5.2,5.3"/> <path d=" M471.8,26.5c-0.4,0.5-2.5,11.2-1.2,14.6"/> <path d=" M477.5,39.8c-0.2-0.9,5.3-13.4,5.3-13.4 M482.7,26.4c-0.8,2,0,14.6,3.8,12.9c3.5-1.6,3.5-12.4,4.5-13"/> <path d=" M496.2,39.7c0,0,3.6-14.1,4.3-14.6 M510.4,26.3c-7.7,3.6-14.2,13.4-14.2,13.4 M502.4,32.7c0,0,2.5,5.8,10.2,5"/> <path d=" M519.8,26.5c-0.4,0.5-2.5,11.2-1.2,14.6"/> <path d=" M525.5,38.8c-0.2-0.9,5.3-13.4,5.3-13.4 M530.7,25.4c-0.8,2,0,14.6,3.8,12.9c3.5-1.6,3.5-12.4,4.5-13"/> <path d=" M554.5,24.8c-1.4-0.5-14.3,9.2-11.4,12.7c2.9,3.5,17.8-0.9,16.4-2.4c-1-1.1-3.8-3.9-4.6-3.2"/> <path d=" M585.6,25c0,0-14.7,9-9.7,13.2c4.6,3.9,12.7-1.2,12.9-3.1c0.2-1.9-1.8-6.8-4.3-8.9"/> <path d=" M594.5,38.8c-0.2-0.9,5.3-13.4,5.3-13.4 M599.7,25.4c-0.8,2,0,14.6,3.8,12.9c3.5-1.6,3.5-12.4,4.5-13"/> <path d=" M623.5,38.7c0,0,4.3-11.2,8.8-13.6c0,0,5.6,12.6,2,14.5 M629,35.4c0,0,4.9-0.1,9-2.1"/> <path d=" M666.5,27.7c-3.8,9.8-11.1,12.8-11.7,11.2c-0.6-1.6,2-12.2,2.7-12.7 M666.5,27.7c-0.9,3.3-0.7,12.4,2.5,11.6 c3.8-0.9,6.1-11.9,7.5-12.8"/> <path d=" M690.3,38c0,0-9.3,3.2-10.4,0.3c-1.1-2.9,3.6-9.2,2.8-10.6 M692,24.5c0,0-10.8,1.4-11,2.6 M681.4,32c0,0,6.6,0.2,7.3-0.4"/> <path d=" M696.5,27.8c1,3.6,0.7,6.5-0.6,12.1 M696,39.8c16.1-5.5,11.7-10.9,0.6-14.9"/> <path d=" M709.5,38.8c-0.2-0.9,5.3-13.4,5.3-13.4 M714.7,25.4c-0.8,2,0,14.6,3.8,12.9c3.5-1.6,3.5-12.4,4.5-13"/> <path d=" M738.3,38c0,0-9.3,3.2-10.4,0.3c-1.1-2.9,3.6-9.2,2.8-10.6 M740,24.5c0,0-10.8,1.4-11,2.6 M729.4,32c0,0,6.6,0.2,7.3-0.4"/> <path d=" M755.7,24.9c-1.6-1-12.1,1.8-12.2,3.4c-0.1,1.6,8.4,1.7,9,5.2c0.5,2.9-6.9,6.4-8.3,5.7"/> <path d=" M759.5,27.8c1,3.6,0.7,6.5-0.6,12.1 M759,39.8c16.1-5.5,11.7-10.9,0.6-14.9"/> <path d=" M773.5,38.7c0,0,4.3-11.2,8.8-13.6c0,0,5.6,12.6,2,14.5 M779,35.4c0,0,4.9-0.1,9-2.1"/> <path d=" M795.5,33.8c-2.6-0.7-4.3-7.4-4.1-8.1 M801.2,25.2c-1.8,1-9.8,15.6-9.8,15.6"/> <path d=" M819.8,25.5c-0.4,0.5-2.5,11.2-1.2,14.6"/> <path d=" M836.7,24.9c-1.6-1-12.1,1.8-12.2,3.4c-0.1,1.6,8.4,1.7,9,5.2c0.5,2.9-6.9,6.4-8.3,5.7"/> <path d=" M837.5,38.7c0.9-0.5,2.9,1,2.3,1.3c-0.6,0.3-2.3,0.6-2.3,0.6"/> <path d=" M845.5,38.7c0.9-0.5,2.9,1,2.3,1.3c-0.6,0.3-2.3,0.6-2.3,0.6"/> <path d=" M852.5,38.7c0.9-0.5,2.9,1,2.3,1.3c-0.6,0.3-2.3,0.6-2.3,0.6"/> </g> <polyline stroke="#F68D3D" stroke-width="7" points=" 296.2,198.6 526.5,76.5 526.5,313.1 834.6,198.1 "/> <text transform="matrix(1 0 0 1 749.0063 345.9777)" font-family="'RobotoSlab-Regular'" font-size="12">whiteboard-comics.com</text> </svg> 