<?xml version="1.0" encoding="utf-8"?>
<!-- Generator: Adobe Illustrator 18.0.0, SVG Export Plug-In . SVG Version: 6.00 Build 0)  -->
<!DOCTYPE svg PUBLIC "-//W3C//DTD SVG 1.1//EN" "http://www.w3.org/Graphics/SVG/1.1/DTD/svg11.dtd">
<svg version="1.1" id="Layer_1" xmlns="http://www.w3.org/2000/svg" xmlns:xlink="http://www.w3.org/1999/xlink" x="0px" y="0px"
	 viewBox="0 0 723 373.2" enable-background="new 0 0 723 373.2" xml:space="preserve">
<path fill="none" stroke="#FFFFFF" stroke-width="120" stroke-linejoin="bevel" stroke-miterlimit="10" d="M7,35.6
	c224.5-1.3,449.1-1.8,673.6-1.2c6.2,0,12.7,0.1,18.1,3.1s9.2,9.9,6.6,15.5c-2.2,4.6-7.6,6.6-12.5,8.1
	c-42.9,13.3-85.9,26.5-128.8,39.8c-62.7,19.4-125.9,38.8-191.1,46.8c-65.2,8-133.2,3.8-193.4-22.5c-23.3-10.2-45.4-23.7-69.9-30.2
	c-24.6-6.6-53.4-4.9-72,12.4C18.8,124.7,15,152.6,14.4,178c-1.2,52.6,6.3,105.5,22.3,155.6c30.1-14.5,60.2-29.1,90.3-43.6
	c14.6-7,31.2-14.2,46.3-8.4c20,7.7,28.8,35.3,49.9,38.6c15.4,2.4,72.5-6.7,78.9-21c6.4-14.3-35.4-34-30.7-48.9
	c4.7-14.9,14.8-29.9,30.1-32.9c12.1-2.4,24.5,3.5,33.3,12c8.8,8.5,14.8,19.5,21.2,30c14.4,24.1,31.6,47,53.9,64s50.3,27.7,78.3,25.3
	c27.9-2.5,55.2-19.7,65.6-45.7c-25.5-10.7-54.2-8.8-81.6-12.2c-27.4-3.4-57.4-15.4-67.2-41.2c-9.5-24.9,3.3-52.8,19.9-73.6
	c24.3-30.6,57.2-54.2,94-67.3"/>
<g>
	
		<line fill="none" stroke="#000000" stroke-width="7" stroke-linecap="round" stroke-linejoin="round" stroke-miterlimit="10" x1="14.9" y1="312.8" x2="560.9" y2="312.8"/>
	
		<line fill="none" stroke="#000000" stroke-width="7" stroke-linecap="round" stroke-linejoin="round" stroke-miterlimit="10" x1="36.9" y1="335.3" x2="36.9" y2="86.3"/>
	
		<polyline fill="none" stroke="#000000" stroke-width="7" stroke-linecap="round" stroke-linejoin="round" stroke-miterlimit="10" points="
		538.9,290.3 560.9,312.8 538.9,335.3 	"/>
	
		<polyline fill="none" stroke="#000000" stroke-width="7" stroke-linecap="round" stroke-linejoin="round" stroke-miterlimit="10" points="
		14.4,108.4 36.9,86.4 59.4,108.4 	"/>
</g>
<g>
	<g>
		<text transform="matrix(1 0 0 1 6.4189 65.4738)" fill="#6DC065" font-family="'PermanentMarker'" font-size="30.74">how i thought my financial situation would go</text>
	</g>
	<path fill="none" stroke="#6DC065" stroke-width="7" stroke-linecap="round" stroke-linejoin="round" stroke-miterlimit="10" d="
		M46.8,311.1c15.4-12.1,31.5-24.6,50.8-28.2c44.1-8.2,85.9,33.1,130.2,26.2c48.9-7.6,73.1-68.4,120.4-83.2
		c16.6-5.2,34.7-4.1,51.5-8.5c38.5-10,64.1-46.1,81.8-81.7c23.3-46.9,38.8-97.6,45.9-149.4"/>
</g>
<g>
	<g>
		<text transform="matrix(1 0 0 1 6.4189 27.739)" fill="#FBB03B" font-family="'PermanentMarker'" font-size="30.74">how my financial situation is going</text>
	</g>
	<path fill="none" stroke="#FBB03B" stroke-width="7" stroke-linecap="round" stroke-linejoin="round" stroke-miterlimit="10" d="
		M42.2,312.9c15.3-19.9,44.4-27.8,67.6-18.4c12.8,5.2,24.4,15,38.2,14.6c24.3-0.6,40-32.5,64.3-31.2c19.6,1.1,32.1,23.5,51.4,27
		c15.3,2.8,30.2-7.3,39.8-19.5s15.7-26.9,25.3-39c9.6-12.2,24.7-22.1,39.9-19.1c18.2,3.6,28.2,23.4,32.7,41.4
		c4.9,19.3,6.7,39.4,13.7,58.1c7,18.7,20.4,36.4,39.6,41.6c17.6,4.7,36.6-2.1,50.8-13.5c14.2-11.4,24.4-26.9,34.4-42.1"/>
</g>
</svg>
