<?xml version="1.0" encoding="utf-8"?>
<!-- Generator: Adobe Illustrator 19.2.0, SVG Export Plug-In . SVG Version: 6.00 Build 0)  -->
<svg version="1.1" id="Layer_1" xmlns="http://www.w3.org/2000/svg" xmlns:xlink="http://www.w3.org/1999/xlink" x="0px" y="0px"
	 width="735.4px" height="518.9px" viewBox="0 0 735.4 518.9" enable-background="new 0 0 735.4 518.9" xml:space="preserve">
<symbol  id="Arrow_right_1_" viewBox="-25.5 -26 29 52">
	
		<polyline fill="none" stroke="#231F20" stroke-width="7" stroke-linecap="round" stroke-linejoin="round" stroke-miterlimit="10" points="
		-22,22.5 0,0 -22,-22.5 	"/>
</symbol>
<symbol  id="Arrow_up" viewBox="-26 -25.5 52 29">
	
		<polyline fill="none" stroke="#231F20" stroke-width="7" stroke-linecap="round" stroke-linejoin="round" stroke-miterlimit="10" points="
		-22.5,-22 0,0 22.5,-22 	"/>
</symbol>
<path fill="none" stroke="#FFFFFF" stroke-width="120" stroke-linejoin="bevel" stroke-miterlimit="10" d="M102.7,23
	c-7.7,5.4-15.8,11.1-20,19.5s-3.2,20.3,4.9,25.3c12.4,7.6,27.2-6.6,32.7-20.1s10.6-30.4,24.7-34c-5.2,20-10.5,40-15.7,60.1
	c18.5-18.5,36.9-37.1,55.4-55.6c-3.2,20.9-6.5,41.8-9.7,62.7C192,62.6,209.1,44.3,226.1,26c-2.2,16.5-4.4,33-6.6,49.6
	c18.7-21.2,37.3-42.3,56-63.5c-0.2,16.7-0.4,33.5-0.6,50.2c4.7-9.7,9.7-19.8,18-26.7s21.2-9.6,30-3.3c11.9,8.4,9.9,27.1,2.2,39.5
	s-19.6,21.9-25.7,35.1s-2.6,32.9,11.5,36.3c21.8-28.8,43.6-57.6,65.5-86.4c-6.5,22-12.9,44-19.4,66c22.7-20.7,45.5-41.5,68.2-62.2
	c-4.2,20-8.4,40-12.6,60.1c18.1-18.4,36.2-36.7,54.3-55.1c-5.5,6.8-11.3,14-12.7,22.6c-1.4,8.6,3.3,18.9,11.9,20.4
	c8.3,1.4,15.5-5.4,21.1-11.6c11.4-12.6,22.8-25.2,34.2-37.8c-2.9,22-5.9,43.9-8.8,65.9c24-24.1,47.9-48.2,71.9-72.4
	c-6,23.9-12.1,47.9-18.1,71.8c17.3-25,34.6-50.1,51.9-75.1c8.9,19.7-1.7,43.9-18.9,57c-17.2,13.1-39.4,17.4-60.8,20.4
	c-21.4,3-43.5,5.2-62.8,14.9c-32,16.1-51.9,53.6-47.2,89.2c28.1-39.5,56.1-79,84.2-118.6c-14.4,40.1-28.7,80.2-43.1,120.3
	c20.9-32.1,41.8-64.1,62.7-96.2c-7.1,34.9-14.3,69.9-21.4,104.8c21.5-34.1,43-68.3,64.5-102.4c-3.6,25.4-7.1,50.8-10.7,76.3
	c16.1-31.1,32.1-62.3,48.2-93.4c-5.6,33.8-11.2,67.6-16.8,101.4c14.2-27.9,28.4-55.9,42.6-83.8c0.9,30.5,1.9,61.1,2.8,91.6
	c9.1-30.9,18.2-61.9,27.3-92.8c1.2,31.1,2.4,62.2,3.6,93.3c8.6-1.4,17.5-3,24.4-8.2c6.9-5.2,11-15.3,6.6-22.8
	c-5.9-10.1-20.8-8.5-32.1-5.4c-57.9,15.5-115.8,31-173.7,46.5c4.5,5,8.9,10,13.4,15c-3.5,13.6-18.9,20.3-32.9,22
	c-13.9,1.7-28.6,0.3-41.4,6.1c-12.8,5.8-22,22.9-13.4,34c14,1.2,28,2.4,42,3.6c-53.9,24.2-94.8,75.5-106.4,133.5
	c3.1-14.2,6.2-28.4,9.3-42.6c-9.8,0.8-19.6,1.6-29.5,2.4c-8.1,1.2-10.3,13.7-4.3,19.3c6,5.6,16.1,4.5,22.8-0.2
	c6.7-4.7,11-12.1,15-19.3c19.3-34.5,38.6-68.9,57.9-103.4c-19.6,48.8-39.1,97.6-58.7,146.3c35.3-56.8,70.7-113.5,106-170.3
	c-25.2,54.5-50.4,109.1-75.5,163.6c33.2-52.3,66.3-104.7,99.5-157c-28.9,58.3-57.8,116.7-86.6,175c36.4-51.7,72.9-103.4,109.3-155
	c-17,46.2-34,92.3-50.9,138.5c24.8-52.3,49.6-104.5,74.3-156.8c-14.2,56.7-28.4,113.4-42.7,170c15.5-31.3,30.9-62.6,46.4-93.9
	c-3,24.4-6,48.8-9,73.2c14-22.9,28-45.7,41.9-68.6c-4.1,26.4-8.2,52.9-12.3,79.3c14.3-29.6,28.6-59.3,42.9-88.9
	c0.8,27.3,1.7,54.6,2.5,81.9c9.5-37.4,18.9-74.9,28.4-112.3c-4.1,43-8.2,85.9-12.3,128.9c16.9-24.1,33.9-48.1,50.8-72.2
	c-6.2,22.7,0.4,48.5,16.8,65.5c5.1-14.4,10.2-28.8,15.4-43.2c-1.2,6.1-2.4,12.2-3.6,18.3c-30.3-30.9-62.3-61.5-101.9-79
	c-48-21.3-102.4-21.3-154.9-20.9c-89.9,0.6-179.8,1.2-269.7,1.8c-37.2,0.3-75.5,0.7-109.8,15s-64.2,46-64.6,83.2
	c14.4-6.3,28.7-12.5,43.1-18.8c-0.1,9.4-0.1,18.7-0.2,28.1c12-5.1,24-10.3,36-15.4c-15.4,30.2-30.7,60.4-46.1,90.7
	c27.9-36.8,55.8-73.5,83.7-110.3c-18.1,34.2-36.2,68.4-54.2,102.5c24.7-32.4,49.4-64.7,74.1-97.1c-16.7,32.3-33.5,64.6-50.2,96.9
	c23.9-34.5,47.9-68.9,71.8-103.4c-13.9,31.5-27.8,63-41.7,94.6c19.8-23.2,39.7-46.3,59.5-69.5c4.6-12.1,9.3-24.2,13.9-36.3
	c-19.3,26.5-28.6,60.2-25.4,92.9c-2.4,9.7-4.8,19.4-7.2,29.1c12.5-41.1,45.6-75.4,86.2-89.5c-12.9-5.6-29.2-1.5-37.9,9.5
	c-8.7,11-8.9,27.9-0.5,39.1c3.1,4.1,7.1,7.4,11.7,9.6c12.5,6,28.8,2.6,37.7-8c9-10.5,9.8-27.2,1.9-38.5c-33.4-8.5-66.5-18.5-99-30.1
	c-7.8-2.8-15.9-5.9-20.9-12.5c-6-8-5.8-18.9-5.3-28.9c0.7-14.3,1.4-28.8,5.6-42.5c5.4-17.9,16.5-33.4,27.3-48.7
	c25.3-35.4,50.5-70.9,75.8-106.3c8.4-11.8,17-23.7,28.5-32.5c11.5-8.7,26.6-13.9,40.6-10.2c17.4,4.6,28.6,21.2,37.9,36.6
	c30.6,51.1,58,104,82.2,158.4c-76.9,2.7-153.7,5.4-230.6,8.1c-34.5,1.2-69.4,2.5-102.9,11c2-70.5,3.9-141.1,5.9-211.6
	c0.2-6.8,0.3-14-2.7-20.1c-3-6.1-10.3-10.8-16.7-8.5c10.4-11.9,32-10.8,41.2,2.1"/>
<g id="Arrow_right">
</g>
<g>
	
		<line fill="none" stroke="#231F20" stroke-width="7" stroke-linecap="round" stroke-linejoin="round" stroke-miterlimit="10" x1="115.7" y1="88.4" x2="115.7" y2="363.3"/>
	
		<line fill="none" stroke="#231F20" stroke-width="7" stroke-linecap="round" stroke-linejoin="round" stroke-miterlimit="10" x1="93.2" y1="340.8" x2="535.1" y2="340.8"/>
	
		<use xlink:href="#Arrow_up"  width="52" height="29" x="-26" y="-25.5" transform="matrix(1 0 0 -1 115.66 88.445)" overflow="visible"/>
	
		<use xlink:href="#Arrow_right_1_"  width="29" height="52" x="-25.5" y="-26" transform="matrix(1 0 0 -1 535.0865 340.7914)" overflow="visible"/>
</g>
<g>
	<text transform="matrix(1 0 0 1 89.16 44.1944)"><tspan x="0" y="0" fill="#231F20" font-family="'PermanentMarker'" font-size="30.74px">how much people</tspan><tspan x="0" y="30" fill="#231F20" font-family="'PermanentMarker'" font-size="30.74px">believe you</tspan></text>
</g>
<text transform="matrix(1 0 0 1 391.7435 389.1654)"><tspan x="0" y="0" fill="#231F20" font-family="'PermanentMarker'" font-size="30.74px">how big of a thing</tspan><tspan x="-48.2" y="30" fill="#231F20" font-family="'PermanentMarker'" font-size="30.74px">you’re trying to get away</tspan><tspan x="-28.1" y="60" fill="#231F20" font-family="'PermanentMarker'" font-size="30.74px">with during depression</tspan></text>
<path fill="none" stroke="#BE1E2D" stroke-width="7" stroke-linecap="round" stroke-linejoin="round" stroke-miterlimit="10" d="
	M138.2,322.9c93.3-9.8,83.2-202.7,180.1-194.5c92.7,7.8,55.9,192,161.9,194"/>
<g>
	<path fill="none" stroke="#231F20" stroke-width="7" stroke-linecap="round" stroke-linejoin="round" stroke-miterlimit="10" d="
		M145.9,314.8c3.4,2.8,6.7,5.5,10.1,8.3"/>
	<path fill="none" stroke="#231F20" stroke-width="7" stroke-linecap="round" stroke-linejoin="round" stroke-miterlimit="10" d="
		M152.4,313.9c-1.2,3.4-2.5,6.7-3.7,10.1"/>
	<text transform="matrix(1 0 0 1 8.6553 438.0981)"><tspan x="0" y="0" fill="#231F20" font-family="'PermanentMarker'" font-size="30.74px">“i’m gonna be late,</tspan><tspan x="65.7" y="30" fill="#231F20" font-family="'PermanentMarker'" font-size="30.74px">i can’t put</tspan><tspan x="42.1" y="60" fill="#231F20" font-family="'PermanentMarker'" font-size="30.74px">my socks on.”</tspan></text>
	<path fill="none" stroke="#231F20" stroke-width="7" stroke-linecap="round" stroke-linejoin="round" stroke-miterlimit="10" d="
		M152.1,331.9c-2,4.9-1.9,10.6,0.2,15.4c1.4,3.2,3.6,6.1,4.7,9.4c1.7,5.5,0,11.3-1.7,16.8c-2.4,7.6-4.8,15.2-7.1,22.8"/>
</g>
<g>
	<path fill="none" stroke="#231F20" stroke-width="7" stroke-linecap="round" stroke-linejoin="round" stroke-miterlimit="10" d="
		M309.2,122.2c2.4,3.7,4.9,7.4,7.3,11.1"/>
	<path fill="none" stroke="#231F20" stroke-width="7" stroke-linecap="round" stroke-linejoin="round" stroke-miterlimit="10" d="
		M318,122.9c-4,3.1-7.9,6.2-11.9,9.3"/>
	<text transform="matrix(1 0 0 1 341.5682 86.2136)"><tspan x="0" y="0" fill="#231F20" font-family="'PermanentMarker'" font-size="30.74px">“sorry, i just can’t</tspan><tspan x="14.5" y="30" fill="#231F20" font-family="'PermanentMarker'" font-size="30.74px">go out tonight.”</tspan></text>
	<path fill="none" stroke="#231F20" stroke-width="7" stroke-linecap="round" stroke-linejoin="round" stroke-miterlimit="10" d="
		M314.7,112.3c1.6-2.9,1-6.9-1.4-9.2c-2.2-2.1-5.6-3.2-6.6-6c-0.8-2.4,0.7-5.1,2.9-6.4c2.1-1.4,4.7-1.7,7.2-2
		c6.1-0.8,12.3-1.6,18.4-2.4"/>
</g>
<g>
	<path fill="none" stroke="#231F20" stroke-width="7" stroke-linecap="round" stroke-linejoin="round" stroke-miterlimit="10" d="
		M438.8,308.1c2.6,2.3,5.1,4.6,7.7,6.9"/>
	<path fill="none" stroke="#231F20" stroke-width="7" stroke-linecap="round" stroke-linejoin="round" stroke-miterlimit="10" d="
		M446.9,306.3c-3,3.9-6,7.7-9,11.6"/>
	<text transform="matrix(1 0 0 1 458.8953 165.547)"><tspan x="0" y="0" fill="#231F20" font-family="'PermanentMarker'" font-size="30.74px">“i order you to</tspan><tspan x="-37.1" y="30" fill="#231F20" font-family="'PermanentMarker'" font-size="30.74px">bring me chocolate</tspan><tspan x="-21.6" y="60" fill="#231F20" font-family="'PermanentMarker'" font-size="30.74px">fudge right now.”</tspan></text>
	<path fill="none" stroke="#231F20" stroke-width="7" stroke-linecap="round" stroke-linejoin="round" stroke-miterlimit="10" d="
		M452.7,295.6c-3.4-4.4-1.9-11.3,2.2-15.1c4.1-3.8,10-5.1,15.6-5.1c5.6,0,11.1,1.1,16.7,1.2c5.6,0.1,11.5-0.9,15.8-4.5
		c4.3-3.6,6.4-9.2,6.8-14.8c0.4-5.6-0.7-11.1-1.7-16.6"/>
</g>
</svg>
