<?xml version="1.0" encoding="utf-8"?>
<!-- Generator: Adobe Illustrator 18.0.0, SVG Export Plug-In . SVG Version: 6.00 Build 0)  -->
<!DOCTYPE svg PUBLIC "-//W3C//DTD SVG 1.1//EN" "http://www.w3.org/Graphics/SVG/1.1/DTD/svg11.dtd">
<svg version="1.1" id="Layer_1" xmlns="http://www.w3.org/2000/svg" xmlns:xlink="http://www.w3.org/1999/xlink" x="0px" y="0px"
	 viewBox="0 0 570.7 350.1" enable-background="new 0 0 570.7 350.1" xml:space="preserve">
<path fill="none" stroke="#FFFFFF" stroke-width="120" stroke-linejoin="bevel" stroke-miterlimit="10" d="M173.1,15.3
	C123,15,72.9,14.7,22.8,14.4c-5.5,85.4-11,170.8-16.5,256.2c-1.1,17.1-1.3,36.5,11,48.3c11.2,10.7,28.5,11,44,10.7
	c132.9-3.1,265.8-6.3,398.7-9.4c16.2-0.4,33.3-1,47.3-9.1c18.1-10.5,27.5-31,35.7-50.3c5.5-12.9,11.1-26.2,12.1-40.2
	c1-14-3.5-29.3-14.8-37.7c-12.1-9-29.6-8.2-42.8-0.9s-22.7,19.8-29.9,33.1c-7.8,14.4-17.2,32.6-33.6,32.2
	c-13.4-0.3-22.8-13.9-26.2-26.9c-3.4-13-3.5-27.1-9.8-39c-9.6-17.8-32.1-26.1-52.1-22.7c-19.9,3.5-37.1,16.8-49.3,32.9
	c-12.2,16.1-20.2,35-28.1,53.6c-3.7-18.8-8.6-39.4-24.3-50.3c-20.3-14-49.3-4.2-66.9,13.1s-28,40.4-43.1,60
	c-15.1,19.5-38.5,36.3-62.7,31.6c-4.5-14.4-0.8-30.4,6.7-43.6c7.4-13.2,18.2-24,28.9-34.7c48.5-48.6,97.1-97.2,145.6-145.9
	c18.6-18.6,37.6-37.5,61.1-49.3c41-20.5,89.5-16.5,135.1-12c9.1,0.9,18.4,1.9,26.6,6c8.1,4.2,14.9,12.3,14.6,21.5
	c-0.4,14.7-16.9,22.8-30.9,27.6C379,96.9,298.8,124.5,218.6,152"/>
<g>
	
		<line fill="none" stroke="#010101" stroke-width="7" stroke-linecap="round" stroke-linejoin="round" stroke-miterlimit="10" x1="8.2" y1="320.3" x2="327.7" y2="320.3"/>
	
		<line fill="none" stroke="#010101" stroke-width="7" stroke-linecap="round" stroke-linejoin="round" stroke-miterlimit="10" x1="30.7" y1="342.8" x2="30.7" y2="35.2"/>
</g>
<g>
	
		<polyline fill="none" stroke="#010101" stroke-width="7" stroke-linecap="round" stroke-linejoin="round" stroke-miterlimit="10" points="
		305.7,297.8 327.7,320.3 305.7,342.8 	"/>
	<text transform="matrix(1 0 0 1 344.1667 326.3372)" font-family="'PermanentMarker'" font-size="31">bad behavior</text>
</g>
<g>
	
		<polyline fill="none" stroke="#010101" stroke-width="7" stroke-linecap="round" stroke-linejoin="round" stroke-miterlimit="10" points="
		8.2,57.2 30.7,35.2 53.2,57.2 	"/>
	<text transform="matrix(1 0 0 1 3.6666 22.3308)" font-family="'PermanentMarker'" font-size="31">good deeds</text>
</g>
<path fill="none" stroke="#00A79D" stroke-width="7" stroke-linecap="round" stroke-linejoin="round" stroke-miterlimit="10" d="
	M43.6,308.4c95.2-84.2,184.1-175.6,265.6-273.1"/>
<text transform="matrix(1 0 0 1 317.4549 22.3308)" fill="#00A79D" font-family="'PermanentMarker'" font-size="31">moral offset</text>
<g>
	<path fill="none" stroke="#010101" stroke-width="7" stroke-linecap="round" stroke-linejoin="round" stroke-miterlimit="10" d="
		M82.9,275.3c1.1,0,2.1,0,3.2,0c0.6-0.8,1.2-1.7,1.8-2.5c-1.2-1-2.5-2-3.7-3C83.8,271.6,83.4,273.4,82.9,275.3z"/>
	<path fill="none" stroke="#010101" stroke-width="7" stroke-linecap="round" stroke-linejoin="round" stroke-miterlimit="10" d="
		M96,278.9c11.9,7.4,28,2,38.3-7.4s16.9-22.2,25.6-33c8.8-10.9,21.4-20.4,35.3-19.1"/>
</g>
<g>
	<path fill="none" stroke="#010101" stroke-width="7" stroke-linecap="round" stroke-linejoin="round" stroke-miterlimit="10" d="
		M284.5,70.3c0.8-1.3,0.6-3.2-0.6-4.2c-1.1-1-3-1.1-4.2-0.1c-1.3,1-1.6,2.8-1.5,4.4C280.4,70.3,282.5,70.3,284.5,70.3z"/>
	<path fill="none" stroke="#010101" stroke-width="7" stroke-linecap="round" stroke-linejoin="round" stroke-miterlimit="10" d="
		M288.9,78.7c9.6,9.5,20,21.2,17.9,34.5c-1.6,10.1-10.3,17.7-19.5,22.1c-9.3,4.4-19.5,6.3-28.9,10.3c-9.4,4-18.5,10.8-21.3,20.7"/>
</g>
<text transform="matrix(1 0 0 1 207.1672 194.3333)"><tspan x="0" y="0" font-family="'PermanentMarker'" font-size="31">are these two positions</tspan><tspan x="0" y="30" font-family="'PermanentMarker'" font-size="31">ethically equivalent ?</tspan></text>
</svg>
