<?xml version="1.0" encoding="utf-8"?>
<!-- Generator: Adobe Illustrator 18.0.0, SVG Export Plug-In . SVG Version: 6.00 Build 0)  -->
<!DOCTYPE svg PUBLIC "-//W3C//DTD SVG 1.1//EN" "http://www.w3.org/Graphics/SVG/1.1/DTD/svg11.dtd">
<svg version="1.1" id="Layer_1" xmlns="http://www.w3.org/2000/svg" xmlns:xlink="http://www.w3.org/1999/xlink" x="0px" y="0px"
	 viewBox="0 0 807 438" enable-background="new 0 0 807 438" xml:space="preserve">
<path fill="none" stroke="#FFFFFF" stroke-width="120" stroke-linejoin="bevel" stroke-miterlimit="10" d="M491,21.7
	c-43.1,5-86.6,0-129.9-0.2s-88.4,4.9-125.3,27.8c-23,14.3-41.5,34.7-59.7,54.8c-33.6,37.3-67.2,74.5-100.8,111.8
	C57.5,235.7,39,256.7,33,282.7c24.4,3.4,44.6-17.8,60.1-37c40.5-49.8,82.4-99.3,133.7-137.8s113.5-65.5,177.6-64.4
	c8.6,0.2,18.8,1.9,22.4,9.7c5.2,11.1-7.5,21.9-18.2,27.9c-99.1,54.6-192.9,118.7-279.9,191.1c-13.4,11.2-28,28.3-20,43.8
	c5.4,10.5,19.5,14,30.9,11c11.4-3,20.9-10.9,30-18.4c72.1-59.6,150.7-111.2,233.9-153.8c-43.1,78.9-125.7,126-195.6,182.7
	c-9.4,7.7-19,16-23.5,27.3c-4.5,11.3-2.1,26.3,8.5,32.3c14.2,8.1,31.2-3.9,43.1-15.2c89.1-84.4,178.2-168.8,267.4-253.1
	c14.1,31.9-5.8,68.4-28.8,94.6c-23,26.2-51.2,51.5-57,85.9c27.5,3.9,54-13.4,71.4-35.1c17.4-21.6,28.2-47.7,43.6-70.8
	c15.3-23.1,37.4-44.4,64.9-47.9c-27.5,41.8-55.7,85.6-61.3,135.3c79.5-29.9,166.5-39.4,250.6-27.5c4.5,0.6,9.5,1.7,11.8,5.5
	c2.8,4.4,0.3,10.6-3.9,13.7s-9.6,3.9-14.8,4.6c-24.8,3.4-49.6,6.7-74.5,10.1c-17.1,2.3-35.7,4.4-50.7-4.2
	c-15-8.6-21.7-32.6-7.9-43.1"/>
<path fill="none" stroke="#000000" stroke-width="7" stroke-linecap="round" stroke-miterlimit="10" d="M221.7,391.2"/>
<g>
	
		<line fill="none" stroke="#000000" stroke-width="7" stroke-linecap="round" stroke-linejoin="round" stroke-miterlimit="10" x1="219.5" y1="415" x2="219.5" y2="82"/>
	
		<line fill="none" stroke="#000000" stroke-width="7" stroke-linecap="round" stroke-linejoin="round" stroke-miterlimit="10" x1="44" y1="267.5" x2="412" y2="267.5"/>
	
		<polyline fill="none" stroke="#000000" stroke-width="7" stroke-linecap="round" stroke-linejoin="round" stroke-miterlimit="10" points="
		197,104 219.5,82 242,104 	"/>
	
		<polyline fill="none" stroke="#000000" stroke-width="7" stroke-linecap="round" stroke-linejoin="round" stroke-miterlimit="10" points="
		390,245 412,267.5 390,290 	"/>
</g>
<g>
	<text transform="matrix(1 0 0 1 197.0029 32.1328)"><tspan x="0" y="0" font-family="'PermanentMarker'" font-size="31">how good i think </tspan><tspan x="0" y="37.2" font-family="'PermanentMarker'" font-size="31">i am at something</tspan></text>
</g>
<g>
	<text transform="matrix(1 0 0 1 422.0029 256.5415)"><tspan x="0" y="0" font-family="'PermanentMarker'" font-size="31">how good i think</tspan><tspan x="0" y="37.2" font-family="'PermanentMarker'" font-size="31">people are at something</tspan></text>
</g>
<g>
	<text transform="matrix(1 0 0 1 344.0864 156.7456)" fill="#0071BC" font-family="'PermanentMarker'" font-size="31">how good i actually am</text>
</g>
<path fill="none" stroke="#0071BC" stroke-width="7" stroke-linecap="round" stroke-miterlimit="10" d="M220,266
	c13.3-4.8,28.1-20.9,24.9-36c-2.7-12.9-14.6-21.4-27.4-18.1c-23,5.9-41.2,32.3-38,55.8c2.9,21.6,23.3,34.3,43.4,36.8
	c22.7,2.8,46-6.5,58.1-26.5c8.2-13.6,12-29.7,5.8-44.8c-5.9-14.3-18.8-24.7-32.2-31.6c-13.8-7.2-29.4-12.1-44.8-14.3
	c-14.6-2.1-31.7-1.7-43.8,8c-11.9,9.6-16.9,26.1-19.5,40.6c-2.7,14.8-4.4,31.6-0.5,46.3c8.6,32.5,40.4,55.5,71.7,63.2
	c30.3,7.5,60.1-2.7,83-23.2c22.9-20.6,39-49.5,45-79.7c5.4-27.1,0.9-53.5-15.9-75.8c-16.5-21.9-40.9-37.2-66-47.6
	c-25.1-10.3-52.6-16.5-79.8-16.1c-26.5,0.4-50.4,9.8-66.3,31.7c-15.7,21.6-21.9,49-24.6,75.1c-1.4,13.3-1.8,26.7-1.5,40
	c0.3,15.2,1.8,30,7.1,44.3c10.8,29.4,34.2,52.3,62,66c29.7,14.6,63.8,18.9,96.3,12.5c29.6-5.8,57.2-20.1,79.7-40.2"/>
<path fill="none" stroke="#0071BC" stroke-width="7" stroke-linecap="round" stroke-linejoin="round" stroke-miterlimit="10" d="
	M322.6,332c6.1-1.4,12.1-2.7,18.2-4.1c0.6,5.6,1.2,11.2,1.8,16.8"/>
</svg>
