<?xml version="1.0" encoding="utf-8"?>
<!-- Generator: Adobe Illustrator 18.0.0, SVG Export Plug-In . SVG Version: 6.00 Build 0)  -->
<!DOCTYPE svg PUBLIC "-//W3C//DTD SVG 1.1//EN" "http://www.w3.org/Graphics/SVG/1.1/DTD/svg11.dtd">
<svg version="1.1" id="Layer_1" xmlns="http://www.w3.org/2000/svg" xmlns:xlink="http://www.w3.org/1999/xlink" x="0px" y="0px"
	 viewBox="0 0 317.3 337.3" enable-background="new 0 0 317.3 337.3" xml:space="preserve">
<path fill="none" stroke="#FFFFFF" stroke-width="120" stroke-linejoin="bevel" stroke-miterlimit="10" d="M26.8,5.9
	C19.6,40.5,12.3,75.1,5.1,109.6C41.4,77.4,102.4,32.2,138.7,0C110.6,45.2,57.9,103.4,29.8,148.6c20.3-0.8,40.2-8.5,55.8-21.4
	c-29,28.4-50,65-59.7,104.4c31.5-14.8,57.6-40.6,72.8-71.9C61.7,219,35.3,285,21.1,353.5c72.2-9.6,144.3-19.2,216.5-28.9
	c32.5-4.3,68.9-10.9,87.5-38c-53.4-14.4-111.7-10.5-162.6,11.1c-10.2,4.3-20.2,9.3-31.2,10.8c-10.9,1.5-23.2-1.4-29.8-10.2
	c-7.2-9.6-5.4-23.9,1.8-33.5c7.2-9.6,18.6-15.2,30.2-18.3c18-4.8,36.9-4.5,55.3-6.9s37.6-8.3,49.8-22.4c10.3-12,14.1-28.1,17.5-43.6
	c8.1-36.4,30.4-79.2,38.5-115.7"/>
<g>
	
		<line fill="none" stroke="#010101" stroke-width="7" stroke-linecap="round" stroke-linejoin="round" stroke-miterlimit="10" x1="30.4" y1="33" x2="30.4" y2="301.5"/>
	
		<line fill="none" stroke="#010101" stroke-width="7" stroke-linecap="round" stroke-linejoin="round" stroke-miterlimit="10" x1="7.9" y1="279" x2="309.4" y2="279"/>
	
		<polyline fill="none" stroke="#010101" stroke-width="7" stroke-linecap="round" stroke-linejoin="round" stroke-miterlimit="10" points="
		7.9,55 30.4,33 52.9,55 	"/>
	
		<polyline fill="none" stroke="#010101" stroke-width="7" stroke-linecap="round" stroke-linejoin="round" stroke-miterlimit="10" points="
		287.4,256.5 309.4,279 287.4,301.5 	"/>
</g>
<text transform="matrix(1 0 0 1 3.4425 25.6587)" font-family="'PermanentMarker'" font-size="30.74">pain felt</text>
<text transform="matrix(1 0 0 1 14.9289 334.6669)" font-family="'PermanentMarker'" font-size="30.74">emotions expressed</text>
<path fill="none" stroke="#C57436" stroke-width="7" stroke-linecap="round" stroke-linejoin="round" stroke-miterlimit="10" d="
	M52.9,68.5c17.8,60.7,32.4,185.8,109.7,196.6C237.3,275.5,277,121.5,294.5,66.7"/>
</svg>
