<?xml version="1.0" encoding="utf-8"?>
<!-- Generator: Adobe Illustrator 18.0.0, SVG Export Plug-In . SVG Version: 6.00 Build 0)  -->
<!DOCTYPE svg PUBLIC "-//W3C//DTD SVG 1.1//EN" "http://www.w3.org/Graphics/SVG/1.1/DTD/svg11.dtd">
<svg version="1.1" id="Layer_1" xmlns="http://www.w3.org/2000/svg" xmlns:xlink="http://www.w3.org/1999/xlink" x="0px" y="0px"
	 viewBox="0 0 648 396" enable-background="new 0 0 648 396" xml:space="preserve">
<path fill="none" stroke="#FFFFFF" stroke-width="120" stroke-linejoin="bevel" stroke-miterlimit="10" d="M28.8,8.7
	C25.4,21.8,22,34.8,18.7,47.9c31.7-16.2,63.5-32.4,95.2-48.5C85.8,34.2,57.7,69.1,29.6,103.9c-5.4,6.7-11.2,15-8.6,23.3
	c2.4,7.8,11.8,11.7,19.8,10.4s14.9-6.4,21-11.8C82,107.8,97.5,85.3,116,65.7s41.6-37.1,68.4-40.2c-35.4,36.6-71,73.3-99.9,115.2
	s-51.2,89.4-57,139.9c75.2-73.1,138.6-158.3,187.1-251.3c7.8-15,18.7-32.5,35.7-32.3C199.1,108.8,133.7,214,56.2,309.3
	c-7.5,9.3-15.4,18.8-18.9,30.2c-3.6,11.4-1.8,25.4,7.4,33c8.6,7,21.4,6.7,31.5,2.1c10.1-4.6,18-12.8,25.5-20.9
	c78.8-85.1,141.2-184,196-286.2c11.3-21,23.2-43.3,43.8-55.2c8,22.7,2.1,48.4-9.6,69.4c-11.7,21-28.7,38.6-44.4,56.8
	c-55.9,65-97.5,141.4-128,221.6c20.5,7.5,45.4,14.3,62.5,0.8c7.5-5.9,12-14.8,16.3-23.4C283,248.4,332.7,162.1,387.3,79
	c14.9-22.7,30.8-45.8,53.4-60.8c11,29.7-4.5,62-19.2,90c-46,87.9-88,178-125.6,269.8c25.8,9.4,55.6-1,75.6-19.8
	c19.9-18.8,31.6-44.7,40.6-70.6s15.9-52.7,28.5-77.1c11.4-22,27.4-41.6,36.8-64.5c7.7-18.9,10.8-39.3,15.6-59.1s11.7-39.9,25.6-54.8
	c13.9-14.9,36.2-23.5,55.3-16.4c8.3,3.1,15.7,9.3,18.5,17.7c3,8.9,0.3,18.7-2.8,27.6c-36.7,104.1-135.6,181.2-155.5,289.8
	c14.1,4.5,29.6-3.9,38.5-15.7s12.9-26.5,17.7-40.5c15.8-45.8,42.8-87.8,77.9-121.2c10.7,27,3.5,57.9-8.7,84.2
	c-12.1,26.4-29,50.6-38.7,77.9c-2.8,7.9-5,16.4-3.4,24.6s8,16,16.4,16.7c8.4,0.7,15.7-5.6,20.4-12.5c4.7-7,7.8-15,13.6-21.1
	c13.2-14.2,48.3-5.5,59.5,10.3"/>
<g>
	
		<line fill="none" stroke="#000000" stroke-width="7" stroke-linecap="round" stroke-linejoin="round" stroke-miterlimit="10" x1="54.7" y1="77.3" x2="54.7" y2="364.7"/>
	
		<line fill="none" stroke="#000000" stroke-width="7" stroke-linecap="round" stroke-linejoin="round" stroke-miterlimit="10" x1="32.2" y1="342.7" x2="615.6" y2="342.7"/>
</g>
<g>
	
		<polyline fill="none" stroke="#000000" stroke-width="7" stroke-linecap="round" stroke-linejoin="round" stroke-miterlimit="10" points="
		32.2,99.3 54.7,77.3 77.2,99.3 	"/>
	
		<polyline fill="none" stroke="#000000" stroke-width="7" stroke-linecap="round" stroke-linejoin="round" stroke-miterlimit="10" points="
		593.6,320.2 615.6,342.7 593.6,365.2 	"/>
</g>
<g>
	
		<line fill="none" stroke="#000000" stroke-width="7" stroke-linecap="round" stroke-miterlimit="10" x1="420.5" y1="335" x2="420.5" y2="351"/>
	<text transform="matrix(1 0 0 1 111.1963 377.4346)" font-family="'PermanentMarker'" font-size="31">saturday evening</text>
	<text transform="matrix(1 0 0 1 458.2715 377.4346)" font-family="'PermanentMarker'" font-size="31">sunday</text>
</g>
<g>
	<text transform="matrix(1 0 0 1 32.1943 33.4346)" fill="#F6B319" font-family="'PermanentMarker'" font-size="31">how much i think is left in my wallet</text>
</g>
<path fill="none" stroke="#F6B319" stroke-width="7" stroke-linecap="round" stroke-linejoin="round" stroke-miterlimit="10" d="
	M77.2,117.4c167.5,0,218.2,46.1,345.8,46.1c55,0,153,0,153,0"/>
<g>
	<text transform="matrix(1 0 0 1 32.1943 64.4346)" fill="#CA4D46" font-family="'PermanentMarker'" font-size="31">how much is actually left</text>
</g>
<path fill="none" stroke="#CA4D46" stroke-width="7" stroke-linecap="round" stroke-linejoin="round" stroke-miterlimit="10" d="
	M77.2,131.5c136.2,0,191,189,345.8,189c74.3,0,153,0,153,0"/>
<g>
	
		<polyline fill="none" stroke="#000000" stroke-width="7" stroke-linecap="round" stroke-linejoin="round" stroke-miterlimit="10" points="
		494.9,300 506.2,311 517.4,300 	"/>
	
		<polyline fill="none" stroke="#000000" stroke-width="7" stroke-linecap="round" stroke-linejoin="round" stroke-miterlimit="10" points="
		494.9,182.6 506.2,171.6 517.4,182.6 	"/>
	
		<line fill="none" stroke="#000000" stroke-width="7" stroke-linecap="round" stroke-linejoin="round" stroke-miterlimit="10" x1="506.2" y1="171.6" x2="506.2" y2="311"/>
	<path fill="none" stroke="#FFFFFF" stroke-width="40" stroke-linejoin="round" stroke-miterlimit="10" d="M477,241.6
		c28.7-0.7,57.4-3.8,85.6-9.2"/>
</g>
<g>
	<text transform="matrix(1 0 0 1 443.6943 249.4351)" font-family="'PermanentMarker'" font-size="31">remorse</text>
</g>
</svg>
