<?xml version="1.0" encoding="utf-8"?>
<!-- Generator: Adobe Illustrator 19.2.0, SVG Export Plug-In . SVG Version: 6.00 Build 0)  -->
<svg version="1.1" id="Layer_1" xmlns="http://www.w3.org/2000/svg" xmlns:xlink="http://www.w3.org/1999/xlink" x="0px" y="0px"
	 width="572.19px" height="305.28px" viewBox="0 0 572.19 305.28" enable-background="new 0 0 572.19 305.28" xml:space="preserve">
<path fill="none" stroke="#FFFFFF" stroke-width="120" stroke-linejoin="bevel" stroke-miterlimit="10" d="M60.67,12.79
	c-15.04,35.4-30.08,70.79-45.12,106.19C62.85,76.86,110.16,34.74,157.47-7.39c-0.94,42.65-33.56,77.04-64.1,106.83
	s-63.19,64.13-64.22,106.78C90.91,136.1,152.66,65.98,214.42-4.13c3.05,53-27.42,101.44-56.71,145.72
	c-20.41,30.86-40.82,61.72-61.23,92.58c54.71-64.36,109.43-128.71,164.14-193.07c-12.44,55.96-24.89,111.91-37.33,167.87
	c35.47-24.58,52.53-67.27,72.39-105.58s49.33-77.73,92.06-83.75c-8.7,30.77-17.39,61.53-26.09,92.3
	c36.45-5.73,69.62-29.44,86.84-62.07c3.93-7.45,7.3-15.61,13.9-20.84c6.6-5.23,17.81-5.87,22.38,1.21
	c4.17,6.46,0.66,15.03-3.47,21.51c-22.84,35.84-61.85,57.38-98.42,79.02s-74.25,47.12-90.82,86.25
	c47.26-14.11,88.92-46.18,114.63-88.27c-4.97,34.84-9.94,69.67-14.91,104.51c-0.8,5.61-1.39,12.01,2.34,16.29
	c4.7,5.4,14,3.98,19.14-1c5.14-4.98,7.18-12.26,9.01-19.17c8.19-30.86,16.38-61.72,24.56-92.58c4.02-15.15,8.38-30.95,19.01-42.48
	s29.57-17.01,42.24-7.78c13.69,9.97,12.99,31.7,3.67,45.84c-9.32,14.14-24.6,22.93-38.48,32.63
	c-47.16,32.94-82.91,81.91-99.93,136.86c37.24-18,69.78-45.64,93.58-79.47c-0.18,20.9-0.35,41.8-0.53,62.7
	c8.84,4.26,18.29-5.05,22.17-14.07c3.87-9.02,6.84-20,15.88-23.81c12.83-5.41,25.53,8.09,31.51,20.67
	c5.98,12.57,12.56,27.95,26.32,30.1"/>
<g>
	<path fill="none" stroke="#FFF200" stroke-width="7" stroke-linecap="round" stroke-linejoin="round" stroke-miterlimit="10" d="
		M91.53,21.33C50.04,34.9,25.17,79.67,29.52,120.4s36.8,77.59,78.68,89.37c41.88,11.78,90.66-2.23,118.27-33.98
		c31.67-36.41,31.66-94.43-1.83-129.38S123.32,2.35,84.94,32.58"/>
	<text transform="matrix(1 0 0 1 91.7369 105.2359)"><tspan x="0" y="0" font-family="'PermanentMarker'" font-size="30.74px">wh</tspan><tspan x="43.26" y="0" font-family="'PermanentMarker'" font-size="30.74px" letter-spacing="-1">a</tspan><tspan x="59.59" y="0" font-family="'PermanentMarker'" font-size="30.74px">t i</tspan><tspan x="10.27" y="30" font-family="'PermanentMarker'" font-size="30.74px">w</tspan><tspan x="35.33" y="30" font-family="'PermanentMarker'" font-size="30.74px">ant</tspan></text>
</g>
<g>
	<path fill="none" stroke="#C1172C" stroke-width="7" stroke-linecap="round" stroke-linejoin="round" stroke-miterlimit="10" d="
		M382.42,15.73c-37.75,3.74-74.09,25.81-91.53,59.5c-17.44,33.69-13.51,78.29,12.29,106.1c20.63,22.25,52.3,31.96,82.63,31.11
		c36.27-1.02,72.75-16.95,94.87-45.72s27.71-70.54,10.29-102.37c-17.42-31.83-61.59-55.92-102.89-48.62"/>
	<text transform="matrix(1 0 0 1 342.9576 65.341)"><tspan x="0" y="0" font-family="'PermanentMarker'" font-size="30.74px">wh</tspan><tspan x="43.26" y="0" font-family="'PermanentMarker'" font-size="30.74px" letter-spacing="-1">a</tspan><tspan x="59.59" y="0" font-family="'PermanentMarker'" font-size="30.74px">t i</tspan><tspan x="15.04" y="30" font-family="'PermanentMarker'" font-size="30.74px">h</tspan><tspan x="32.93" y="30" font-family="'PermanentMarker'" font-size="30.74px" letter-spacing="-1">a</tspan><tspan x="49.56" y="30" font-family="'PermanentMarker'" font-size="30.74px">ve</tspan></text>
</g>
<g>
	<path fill="none" stroke="#009542" stroke-width="7" stroke-linecap="round" stroke-linejoin="round" stroke-miterlimit="10" d="
		M392.25,134.13c-10.11-0.54-20.3,5.23-25.04,14.18s-3.79,20.61,2.33,28.68c6.12,8.07,17.1,12.11,27,9.95
		c6.59-1.44,12.58-5.48,16.36-11.07c4.45-6.59,5.69-15.24,3.28-22.81s-8.44-13.91-15.88-16.7"/>
	<g>
		<path fill="none" stroke="#000000" stroke-width="7" stroke-linecap="round" stroke-linejoin="round" stroke-miterlimit="10" d="
			M392.72,169.11c-11.82,23.38-8.77,53.49,7.48,74.03"/>
		<path fill="none" stroke="#000000" stroke-width="7" stroke-linecap="round" stroke-linejoin="round" stroke-miterlimit="10" d="
			M384.96,169.47c3.38-1.36,6.76-2.71,10.14-4.07c0.59,3.49,1.17,6.99,1.76,10.48"/>
	</g>
	<text transform="matrix(1 0 0 1 416.105 254.2359)"><tspan x="0" y="0" fill="#009542" font-family="'PermanentMarker'" font-size="30.74px">wh</tspan><tspan x="43.26" y="0" fill="#009542" font-family="'PermanentMarker'" font-size="30.74px" letter-spacing="-1">a</tspan><tspan x="59.59" y="0" fill="#009542" font-family="'PermanentMarker'" font-size="30.74px">t i</tspan><tspan x="-49.46" y="30" fill="#009542" font-family="'PermanentMarker'" font-size="30.74px">used </tspan><tspan x="25.47" y="30" fill="#009542" font-family="'PermanentMarker'" font-size="30.74px">t</tspan><tspan x="39.28" y="30" fill="#009542" font-family="'PermanentMarker'" font-size="30.74px">o </tspan><tspan x="69.99" y="30" fill="#009542" font-family="'PermanentMarker'" font-size="30.74px">w</tspan><tspan x="95.06" y="30" fill="#009542" font-family="'PermanentMarker'" font-size="30.74px">ant</tspan></text>
</g>
</svg>
