<?xml version="1.0" encoding="utf-8"?>
<!-- Generator: Adobe Illustrator 18.0.0, SVG Export Plug-In . SVG Version: 6.00 Build 0)  -->
<!DOCTYPE svg PUBLIC "-//W3C//DTD SVG 1.1//EN" "http://www.w3.org/Graphics/SVG/1.1/DTD/svg11.dtd">
<svg version="1.1" id="Layer_1" xmlns="http://www.w3.org/2000/svg" xmlns:xlink="http://www.w3.org/1999/xlink" x="0px" y="0px"
	 viewBox="0 0 402 497.2" enable-background="new 0 0 402 497.2" xml:space="preserve">
<path fill="none" stroke="#FFFFFF" stroke-width="120" stroke-linejoin="bevel" stroke-miterlimit="10" d="M309,24.8
	c-84.2,0.7-168.4,1.3-252.6,2c-6.6,0.1-14.1,0.4-18.5,5.3c-4.3,4.7-4.3,11.8-4,18.1c3.8,87.2,7.6,174.4,11.5,261.6
	c2.4,54.7,3.7,113.6-26.9,159C107.1,481,196.9,483,286.1,477c29.6-2,62-6.4,81.7-28.5c6.3-7,10.9-15.9,11.3-25.3
	c0.4-9.4-4-19.3-12.2-23.9c-15-8.5-33.4,3.2-45.2,15.8c-11.8,12.6-24.1,28.1-41.3,28.6c-28.2,0.9-44.9-38.4-73.2-38.4
	c-16.2,0-28.9,13.2-42.9,21.3c-16.6,9.6-37.3,12.5-55.4,6.3c-18.1-6.2-33.1-21.8-37.1-40.6c-3.4-16.1,1.1-32.9,8.5-47.6
	c7.4-14.7,17.6-27.7,26.6-41.5c18.7-28.6,32.4-60.7,54.5-86.8c23.4-27.6,55-46.9,85.9-65.7c21.5-13.1,43-26.1,64.5-39.2
	c5.4-3.3,11-6.6,17.2-7c6.3-0.4,13.2,3.3,14.3,9.5c0.9,5.2-2.4,10.1-5.6,14.2c-54.5,71.4-117.4,136.4-187,193.1"/>
<path fill="none" stroke="#FFFFFF" stroke-width="120" stroke-linejoin="bevel" stroke-miterlimit="10" d="M552-136.3
	c-28,0.2-69.6,6.3-92.3,22.6c-32.8,23.5-65.7,47-98.5,70.4c-4.8-27.8,12.9-53.8,28.9-77s32-51.1,23.6-78
	c-11.2-8.4-28.1-2.6-37.3,7.9c-9.2,10.6-13.1,24.5-18.7,37.3c-23.1,53.1-80.6,89.1-138.4,86.8c-5.6-13.4-2.6-29.2,4.8-41.8
	c7.3-12.6,18.5-22.4,29.8-31.6c12-9.7,25.8-23.8,19.9-38.1c-5.3-12.7-23.8-14.4-35.5-7.2c-11.7,7.2-18.5,20-25.8,31.7
	c-29.7,47.2-77.1,82.9-130.6,98.4c-11-20-7.4-45.4,3.5-65.4s28.2-35.7,45.2-50.7c6.5-5.7,13.6-13.9,10.2-21.8
	c-2.4-5.5-9.3-7.9-15.1-6.7c-5.8,1.2-10.7,5.2-14.9,9.5c-17.5,18.2-25.4,43.2-38.2,64.9S37.6-83,12.6-86.2
	C-9-89-25-109.1-30.5-130.1s-3-43.2-1.6-65c3.9-59.1-0.9-118.7-14.1-176.5c-2.7-12-5.7-25.1-0.4-36.2c8.3-17.1,31-20,50-20.6
	c149-4.6,297.9-9.2,446.9-13.9c8-0.2,16.9-0.2,22.7,5.4c10.5,10.1,2,27.6-7.3,38.7C407.9-329,325.6-281,237-264.7
	c-64.1,11.8-131.2,7.6-193.5,27c-7.1,2.2-14.8,5.3-18.3,11.9c-4.1,7.8-0.3,18.1,6.7,23.5c7,5.5,16.2,7.1,25,7.3
	c31.2,0.9,60.8-12.4,90.9-20.6c106.1-28.9,252.2,3.9,358.7-23.6"/>
<g>
	
		<line fill="none" stroke="#000000" stroke-width="7" stroke-linecap="round" stroke-linejoin="round" stroke-miterlimit="10" x1="45" y1="69.8" x2="45" y2="418.4"/>
	
		<line fill="none" stroke="#000000" stroke-width="7" stroke-linecap="round" stroke-linejoin="round" stroke-miterlimit="10" x1="370.7" y1="396.1" x2="22" y2="396.1"/>
</g>
<g>
	
		<polyline fill="none" stroke="#000000" stroke-width="7" stroke-linecap="round" stroke-linejoin="round" stroke-miterlimit="10" points="
		22.5,91.8 45,69.8 67.5,91.8 	"/>
	<text transform="matrix(1 0 0 1 22.0061 39.75)" font-family="'PermanentMarker'" font-size="30.7418"># of pizzas eaten</text>
</g>
<g>
	
		<polyline fill="none" stroke="#000000" stroke-width="7" stroke-linecap="round" stroke-linejoin="round" stroke-miterlimit="10" points="
		348.7,373.6 370.7,396.1 348.7,418.6 	"/>
	<text transform="matrix(1 0 0 1 74.1806 450.083)" fill="#0071BC" font-family="'PermanentMarker'" font-size="31">time spent exercising</text>
</g>
<g>
	<path fill="none" stroke="#0071BC" stroke-width="7" stroke-linecap="round" stroke-miterlimit="10" d="M51.3,379.1
		c91.4-98.2,186.9-192.6,286-282.9"/>
	<g>
		
			<text transform="matrix(0.7071 -0.7071 0.7071 0.7071 123.1572 287.4547)" fill="#0071BC" font-family="'PermanentMarker'" font-size="31">“i earned it”</text>
	</g>
</g>
<g>
	<path fill="none" stroke="#9E005D" stroke-width="7" stroke-linecap="round" stroke-miterlimit="10" d="M58.4,388.7
		C157.6,294.3,255,197.9,350.6,99.6"/>
	<g>
		<text transform="matrix(1 0 0 1 7.5942 486.7476)" fill="#9E005D" font-family="'PermanentMarker'" font-size="31">time sitting on the couch</text>
	</g>
	<g>
		
			<text transform="matrix(0.7071 -0.7071 0.7071 0.7071 165.4827 334.5252)" fill="#9E005D" font-family="'PermanentMarker'" font-size="31">“oh screw it”</text>
	</g>
</g>
</svg>
