<?xml version="1.0" encoding="utf-8"?> <!-- Generator: Adobe Illustrator 18.0.0, SVG Export Plug-In . SVG Version: 6.00 Build 0) --> <!DOCTYPE svg PUBLIC "-//W3C//DTD SVG 1.1//EN" "http://www.w3.org/Graphics/SVG/1.1/DTD/svg11.dtd"> <svg version="1.1" id="Layer_1" xmlns="http://www.w3.org/2000/svg" xmlns:xlink="http://www.w3.org/1999/xlink" x="0px" y="0px" viewBox="0 0 640.5 432.9" enable-background="new 0 0 640.5 432.9" xml:space="preserve"> <path stroke="#FFFFFF" stroke-width="120" stroke-linejoin="bevel" d="M29.2,6.9 C29,18,19.7,26.3,12.2,34.5S-1.6,55.1,4.7,64.2c7.8,11.5,25.6,5.7,37.7-1.2C74,44.8,105.6,26.7,137.3,8.6 C122.1,71.3,31.2,92.7,17.9,155.9c36.6-17.8,63.5-50.2,91.7-79.6S192.1,21,232.5,15.9C172,72.4,89.9,127.2,44.7,196.6 C27.3,223.3,12.3,252,4.4,283s-8.4,64.4,2.7,94.3c2.1,5.6,5.2,11.7,11,13.2c7.8,2.1,14.6-5.3,19.4-11.8 c87.8-120.2,186.6-232.2,295-334.1c5.7,6.5,6.3,16.4,3.7,24.6s-8.1,15.3-13.5,22.1c-64,80.3-140.7,151.2-192.3,239.9 c-5.5,9.4-10.8,19.4-11.5,30.2c-0.7,10.9,4.3,22.8,14.4,26.9c14.6,5.9,29.8-6.7,39.1-19.3c20.6-28.1,32.7-61.3,49.9-91.6 s41.8-59.2,75.4-68.2c-18.6,26-30.7,56.6-34.9,88.3c52.4-11.6,68.1-86,118.7-104c-10.1,33.7-20.1,67.4-30.2,101.1 c16.8,5.9,35.3-5.3,45.5-19.9s15-32.2,23.5-47.9s23.1-30.2,41-30.1c-4.7,36.8-9.4,73.6-14.1,110.4c20.5-16.9,33.7-42.2,36-68.6 c0.9-10.9,2.6-25.1,13.3-27.1c6-1.1,11.9,3,15.3,8c8.2,12.1,5.6,28.1,4.6,42.7c-1.1,14.6,1.4,32.1,14.4,38.7 c12.7,6.5,27.6-1.1,40.3-7.6c12.7-6.5,29.5-11.6,39.9-1.8c7.2,6.8,7.7,18.8,3.3,27.7s-12.6,15.4-21,20.6 c-40,24.9-89.2,29.1-136.3,30.6c-65.8,2.1-131.7,0.2-197.3-5.6c-11-1-22.4-2-32.9,1.3c-10.6,3.3-20.2,12.2-20.7,23.3 c-0.6,13,11.6,23.6,24.3,26.1c12.7,2.5,25.8-1,38.4-4.1c80-19.8,163.4-25.6,245.3-17"/> <g> <line stroke-width="7" x1="482" y1="366.5" x2="16.5" y2="366.5"/> <line stroke-width="7" x1="39" y1="54.9" x2="39" y2="389"/> </g> <g> <polyline stroke-width="7" points=" 460,344 482,366.5 460,389 	"/> <polyline stroke-width="7" points=" 16.5,76.9 39,54.9 61.5,76.9 	"/> </g> <g> <text transform="matrix(1 0 0 1 9.5149 39.9536)" font-family="'PermanentMarker'" font-size="31">total happiness</text> <path stroke-linejoin="bevel" d=" M12.5,24.8c1.2,0.3,13.1-1.8,14.8-1.4"/> <path stroke-linejoin="bevel" d=" M20,23.7c0.3,1.1-4.7,11.8-4.7,13.1s1.1,2.4,1.1,2.4"/> <path stroke-linejoin="bevel" d=" M35.9,23.6c-1.8,0.9-13,9.7-9.6,13.2s13.4-0.1,13.6-3.5s-4.5-8.6-4.5-8.6"/> <path stroke-linejoin="bevel" d=" M43.5,24.8c1.2,0.3,13.1-1.8,14.8-1.4"/> <path stroke-linejoin="bevel" d=" M51,23.7c0.3,1.1-4.7,11.8-4.7,13.1s1.1,2.4,1.1,2.4"/> <path stroke-linejoin="bevel" d=" M56.3,38.1c0-1.4,5.2-12.7,8.5-13.8c0,0,5.3,11.5,2.3,14.2"/> <path stroke-linejoin="bevel" d=" M61.1,34.7c1.4,0,8.3-1.9,9.6-2.8"/> <path stroke-linejoin="bevel" d=" M78.4,23.6c0.1,1.4-4.5,11.3-3.8,13.7s7.5-1.5,11,0.3"/> <path stroke-linejoin="bevel" d=" M105.2,24.9c0.4,1.4-2.4,13.4-2.4,13.4"/> <path stroke-linejoin="bevel" d=" M115.4,24.1c1,1.9-2.2,11.8-1.9,14.1"/> <path stroke-linejoin="bevel" d=" M104,35.4c1-1,10.6-3.6,10.6-3.6"/> <path stroke-linejoin="bevel" d=" M120.3,38.1c0-1.4,5.2-12.7,8.5-13.8c0,0,5.3,11.5,2.3,14.2"/> <path stroke-linejoin="bevel" d=" M125.1,34.7c1.4,0,8.3-1.9,9.6-2.8"/> <path stroke-linejoin="bevel" d=" M139.5,38.2c0.4-0.6,1.5-11.7,4.2-13.7c2.7-2.1,8.7,0.6,7.7,3.4s-7.1,4.6-11.5,3.6"/> <path stroke-linejoin="bevel" d=" M155.5,38.2c0.4-0.6,1.5-11.7,4.2-13.7c2.7-2.1,8.7,0.6,7.7,3.4s-7.1,4.6-11.5,3.6"/> <path stroke-linejoin="bevel" d=" M175.9,24.6c-1.1,1.4-2.5,12.2-2.1,13.7"/> <path stroke-linejoin="bevel" d=" M181,36.8c0-1.5,5.8-12.1,5.8-12.1"/> <path stroke-linejoin="bevel" d=" M186,27.1c0,1.4,0.3,9.9,3.5,10.1s5.1-13,5.1-13"/> <path stroke-linejoin="bevel" d=" M201.3,25.5c0.9,2-2.8,10-2.4,11.1c0.4,1.1,7.7,2,11.2,0.4"/> <path stroke-linejoin="bevel" d=" M200.9,25.8c0.4-0.3,10.2-1.8,10.8-2.4"/> <path stroke-linejoin="bevel" d=" M200.9,30.3c0.7,0.2,6.3,0.8,7,0"/> <path stroke-linejoin="bevel" d=" M226.6,23.4c-1.2-0.4-11,1.9-11.6,3.5s7.7,2.6,8.1,5.6s-6.9,6.2-7.9,5.8"/> <path stroke-linejoin="bevel" d=" M240.6,23.4c-1.2-0.4-11,1.9-11.6,3.5s7.7,2.6,8.1,5.6s-6.9,6.2-7.9,5.8"/> </g> <g> <text transform="matrix(1 0 0 1 257.1391 419.4306)" font-family="'PermanentMarker'" font-size="31">number of kids</text> <path stroke-linejoin="bevel" d=" M259.5,416.3c0-1.5,5.8-12.1,5.8-12.1"/> <path stroke-linejoin="bevel" d=" M264.6,406.6c0,1.4,0.3,9.9,3.5,10.1s5.1-13,5.1-13"/> <path stroke-linejoin="bevel" d=" M279.7,405.9c-0.7,2-2,8.4,1.2,10.6s11.4-7.7,10.9-12.1"/> <path stroke-linejoin="bevel" d=" M295.6,416.4c0-1.6,5.4-12.9,5.8-12.1s0.9,6.9,3.1,7.1s8.9-6.5,10.5-7.1s-1.8,10.9-1.3,12.8"/> <path stroke-linejoin="bevel" d=" M324.1,407c0.2,1.2-2.2,9.6-2.7,10.7"/> <path stroke-linejoin="bevel" d=" M320.2,404.7c1.1-1.2,9.8-3.4,11.4-1.2c1.6,2.2-5.7,6.2-5.7,6.2s9.3,1.4,7.3,4.3c-2,2.9-9.2,3.7-9.2,3.7"/> <path stroke-linejoin="bevel" d=" M340.8,405c0.9,2-2.8,10-2.4,11.1c0.4,1.1,7.7,2,11.2,0.4"/> <path stroke-linejoin="bevel" d=" M340.4,405.3c0.4-0.3,10.2-1.8,10.8-2.4"/> <path stroke-linejoin="bevel" d=" M340.4,409.8c0.7,0.2,6.3,0.8,7,0"/> <path stroke-linejoin="bevel" d=" M356.1,407.3c0.1,0.6-1.7,9.9-1.7,9.9"/> <path stroke-linejoin="bevel" d=" M357.2,408.8c0-1.1,4-5.6,4.7-5.7s5.4,4.2,3.9,5.7s-8.6,3.1-8.6,3.1s1.8,5.4,9.4,6.2"/> <path stroke-linejoin="bevel" d=" M392.7,403.3c-1.8,0.9-13,9.7-9.6,13.2s13.4-0.1,13.6-3.5s-4.5-8.6-4.5-8.6"/> <path stroke-linejoin="bevel" d=" M406.4,403.8c0.4,1.1-4.1,11-3.9,12.8s0.4,1.2,0.4,1.2"/> <path stroke-linejoin="bevel" d=" M403.2,405.5c0.4-0.2,10.7-4,12.9-2.9"/> <path stroke-linejoin="bevel" d=" M401.9,411.9c0.9,0.5,10.5-0.7,10.5-0.7"/> <path stroke-linejoin="bevel" d=" M432.3,403.3c-1.1,1.1-5.1,12.8-4.5,13.9s7.6-9.8,14.2-12.2"/> <path stroke-linejoin="bevel" d=" M433.9,411.9c0.8,2.1,5.1,5.6,9.3,4.8"/> <path stroke-linejoin="bevel" d=" M451.1,404.1c-1.1,1.4-2.5,12.2-2.1,13.7"/> <path stroke-linejoin="bevel" d=" M458.1,406.7c0.3,1.8,0.9,7.7,0,11.2"/> <path stroke-linejoin="bevel" d=" M458.9,403.9c2.2,0.3,9.2,4.1,9.8,6.2c0.6,2.2-7.2,7.4-8.7,7.8"/> <path stroke-linejoin="bevel" d=" M484.4,402.9c-1.2-0.4-11,1.9-11.6,3.5s7.7,2.6,8.1,5.6s-6.9,6.2-7.9,5.8"/> </g> <path stroke="#7AC943" stroke-width="7" d=" M51.3,359c20.3-49.7,53-88.6,87.7-121.4s72.2-60.4,106.6-93.8c33.5-32.6,63.9-70.5,93-109.9"/> <g> <text transform="matrix(1 0 0 1 168.3791 221.8628)"><tspan x="0" y="0" font-family="'PermanentMarker'" font-size="31"> individual happiness</tspan><tspan x="0" y="37.2" font-family="'PermanentMarker'" font-size="21"> x</tspan><tspan x="18.4" y="37.2" font-family="'PermanentMarker'" font-size="31"> population</tspan><tspan x="0" y="74.4" font-family="'PermanentMarker'" font-size="31">= why kids make you happiness</tspan></text> <path stroke-linejoin="bevel" d=" M208.9,206.6c-1.1,1.4-2.5,12.2-2.1,13.7"/> <path stroke-linejoin="bevel" d=" M214,218.8c0-1.5,5.8-12.1,5.8-12.1"/> <path stroke-linejoin="bevel" d=" M219,209.1c0,1.4,0.3,9.9,3.5,10.1s5.1-13,5.1-13"/> <path stroke-linejoin="bevel" d=" M233.4,208.5c0.3,1.8,0.9,7.7,0,11.2"/> <path stroke-linejoin="bevel" d=" M234.2,205.8c2.2,0.3,9.2,4.1,9.8,6.2s-7.2,7.4-8.7,7.8"/> <path stroke-linejoin="bevel" d=" M251.9,206.6c-1.1,1.4-2.5,12.2-2.1,13.7"/> <path stroke-linejoin="bevel" d=" M259.1,206.8c0.5,1,2.1,13,2.1,13"/> <path stroke-linejoin="bevel" d=" M261.4,218.9c0,0,6.6-12.1,8.9-12.9"/> <path stroke-linejoin="bevel" d=" M276.9,206.6c-1.1,1.4-2.5,12.2-2.1,13.7"/> <path stroke-linejoin="bevel" d=" M283.4,208.5c0.3,1.8,0.9,7.7,0,11.2"/> <path stroke-linejoin="bevel" d=" M284.2,205.8c2.2,0.3,9.2,4.1,9.8,6.2s-7.2,7.4-8.7,7.8"/> <path stroke-linejoin="bevel" d=" M300.5,208.7c-0.7,2-2,8.4,1.2,10.6s11.4-7.7,10.9-12.1"/> <path stroke-linejoin="bevel" d=" M315.3,220.1c0-1.4,5.2-12.7,8.5-13.8c0,0,5.3,11.5,2.3,14.2"/> <path stroke-linejoin="bevel" d=" M320.1,216.7c1.4,0,8.3-1.9,9.6-2.8"/> <path stroke-linejoin="bevel" d=" M337.4,205.6c0.1,1.4-4.5,11.3-3.8,13.7c0.7,2.3,7.5-1.5,11,0.3"/> <path stroke-linejoin="bevel" d=" M364.2,206.9c0.4,1.4-2.4,13.4-2.4,13.4"/> <path stroke-linejoin="bevel" d=" M374.4,206.1c1,1.9-2.2,11.8-1.9,14.1"/> <path stroke-linejoin="bevel" d=" M363,217.4c1-1,10.6-3.6,10.6-3.6"/> <path stroke-linejoin="bevel" d=" M379.3,220.1c0-1.4,5.2-12.7,8.5-13.8c0,0,5.3,11.5,2.3,14.2"/> <path stroke-linejoin="bevel" d=" M384.1,216.7c1.4,0,8.3-1.9,9.6-2.8"/> <path stroke-linejoin="bevel" d=" M398.5,220.2c0.4-0.6,1.5-11.7,4.2-13.7s8.7,0.6,7.7,3.4s-7.1,4.6-11.5,3.6"/> <path stroke-linejoin="bevel" d=" M414.5,220.2c0.4-0.6,1.5-11.7,4.2-13.7s8.7,0.6,7.7,3.4s-7.1,4.6-11.5,3.6"/> <path stroke-linejoin="bevel" d=" M434.9,206.6c-1.1,1.4-2.5,12.2-2.1,13.7"/> <path stroke-linejoin="bevel" d=" M440,218.8c0-1.5,5.8-12.1,5.8-12.1"/> <path stroke-linejoin="bevel" d=" M445,209.1c0,1.4,0.3,9.9,3.5,10.1s5.1-13,5.1-13"/> <path stroke-linejoin="bevel" d=" M460.3,207.5c0.9,2-2.8,10-2.4,11.1c0.4,1.1,7.7,2,11.2,0.4"/> <path stroke-linejoin="bevel" d=" M459.9,207.8c0.4-0.3,10.2-1.8,10.8-2.4"/> <path stroke-linejoin="bevel" d=" M459.9,212.3c0.7,0.2,6.3,0.8,7,0"/> <path stroke-linejoin="bevel" d=" M485.6,205.4c-1.2-0.4-11,1.9-11.6,3.5s7.7,2.6,8.1,5.6s-6.9,6.2-7.9,5.8"/> <path stroke-linejoin="bevel" d=" M499.6,205.4c-1.2-0.4-11,1.9-11.6,3.5s7.7,2.6,8.1,5.6s-6.9,6.2-7.9,5.8"/> <path stroke-linejoin="bevel" d=" M186.6,248.6c-2.1,0.8-3.9,2.2-5.4,3.9c-1.5,1.7-2.7,3.6-3.9,5.4"/> <path stroke-linejoin="bevel" d=" M178.2,247.9c2.6,3.3,5.1,6.8,7.5,10.3"/> <path stroke-linejoin="bevel" d=" M200.8,257.3c0.4-0.6,1.5-11.7,4.2-13.7c2.7-2.1,8.7,0.6,7.7,3.4s-7.1,4.6-11.5,3.6"/> <path stroke-linejoin="bevel" d=" M228.2,242.7c-1.8,0.9-13,9.7-9.6,13.2c3.4,3.5,13.4-0.1,13.6-3.5s-4.5-8.6-4.5-8.6"/> <path stroke-linejoin="bevel" d=" M235.8,258.3c0.4-0.6,1.5-11.7,4.2-13.7c2.7-2.1,8.7,0.6,7.7,3.4s-7.1,4.6-11.5,3.6"/> <path stroke-linejoin="bevel" d=" M253.9,246.8c-0.7,2-2,8.4,1.2,10.6s11.4-7.7,10.9-12.1"/> <path stroke-linejoin="bevel" d=" M275.7,242.7c0.1,1.4-4.5,11.3-3.8,13.7c0.7,2.3,7.5-1.5,11,0.3"/> <path stroke-linejoin="bevel" d=" M285.7,258.2c0-1.4,5.2-12.7,8.5-13.8c0,0,5.3,11.5,2.3,14.2"/> <path stroke-linejoin="bevel" d=" M290.5,254.8c1.4,0,8.3-1.9,9.6-2.8"/> <path stroke-linejoin="bevel" d=" M302.9,244.9c1.2,0.3,13.1-1.8,14.8-1.4"/> <path stroke-linejoin="bevel" d=" M310.3,243.7c0.3,1.1-4.7,11.8-4.7,13.1s1.1,2.4,1.1,2.4"/> <path stroke-linejoin="bevel" d=" M321.2,244.6c-1.1,1.4-2.5,12.2-2.1,13.7"/> <path stroke-linejoin="bevel" d=" M337.2,243.7c-1.8,0.9-13,9.7-9.6,13.2c3.4,3.5,13.4-0.1,13.6-3.5s-4.5-8.6-4.5-8.6"/> <path stroke-linejoin="bevel" d=" M346.3,255.9c0-1.5,5.8-12.1,5.8-12.1"/> <path stroke-linejoin="bevel" d=" M351.4,246.2c0,1.4,0.3,9.9,3.5,10.1s5.1-13,5.1-13"/> <path stroke-linejoin="bevel" d=" M171.9,285c3.9,0.2,7.8,0,11.6-0.6"/> <path stroke-linejoin="bevel" d=" M170.7,291.4c4-0.2,8.1-0.4,12.1-0.6"/> <path stroke-linejoin="bevel" d=" M204,280.6c0.1,3.2-4.4,9.4-1.9,12.9s11.2-11.6,11.5-11.2s-1.6,11.2,2.2,11.5s4.6-8.9,7.2-13.6"/> <path stroke-linejoin="bevel" d=" M228.5,280.8c0.4,1.4-2.4,13.4-2.4,13.4"/> <path stroke-linejoin="bevel" d=" M238.7,280c1,1.9-2.2,11.8-1.9,14.1"/> <path stroke-linejoin="bevel" d=" M227.3,291.3c1-1,10.6-3.6,10.6-3.6"/> <path stroke-linejoin="bevel" d=" M245.3,280.2c0,1.6,1.3,7.8,3.6,8.8"/> <path stroke-linejoin="bevel" d=" M254.5,280.2c-0.9,0.4-9.8,12.3-9.4,15.1"/> <path stroke-linejoin="bevel" d=" M272.7,280.1c-1.1,1.1-5.1,12.8-4.5,13.9s7.6-9.8,14.2-12.2"/> <path stroke-linejoin="bevel" d=" M274.4,288.7c0.8,2.1,5.1,5.6,9.3,4.8"/> <path stroke-linejoin="bevel" d=" M291.5,280.9c-1.1,1.4-2.5,12.2-2.1,13.7"/> <path stroke-linejoin="bevel" d=" M298.5,283.5c0.3,1.8,0.9,7.7,0,11.2"/> <path stroke-linejoin="bevel" d=" M299.4,280.7c2.2,0.3,9.2,4.1,9.8,6.2c0.6,2.2-7.2,7.4-8.7,7.8"/> <path stroke-linejoin="bevel" d=" M324.9,279.6c-1.2-0.4-11,1.9-11.6,3.5s7.7,2.6,8.1,5.6s-6.9,6.2-7.9,5.8"/> <path stroke-linejoin="bevel" d=" M338.7,292.9c0-1.6,5.4-12.9,5.8-12.1s0.9,6.9,3.1,7.1s8.9-6.5,10.5-7.1s-1.8,10.9-1.3,12.8"/> <path stroke-linejoin="bevel" d=" M363.9,294c0-1.4,5.2-12.7,8.5-13.8c0,0,5.3,11.5,2.3,14.2"/> <path stroke-linejoin="bevel" d=" M368.7,290.7c1.4,0,8.3-1.9,9.6-2.8"/> <path stroke-linejoin="bevel" d=" M387,280.1c-1.1,1.1-5.1,12.8-4.5,13.9s7.6-9.8,14.2-12.2"/> <path stroke-linejoin="bevel" d=" M388.6,288.7c0.8,2.1,5.1,5.6,9.3,4.8"/> <path stroke-linejoin="bevel" d=" M404.1,282.2c0.9,2-2.8,10-2.4,11.1c0.4,1.1,7.7,2,11.2,0.4"/> <path stroke-linejoin="bevel" d=" M403.7,282.4c0.4-0.3,10.2-1.8,10.8-2.4"/> <path stroke-linejoin="bevel" d=" M403.7,286.9c0.7,0.2,6.3,0.8,7,0"/> <path stroke-linejoin="bevel" d=" M431.2,279.7c0,1.6,1.3,7.8,3.6,8.8"/> <path stroke-linejoin="bevel" d=" M440.4,279.7c-0.9,0.4-9.8,12.3-9.4,15.1"/> <path stroke-linejoin="bevel" d=" M451.9,279.6c-1.8,0.9-13,9.7-9.6,13.2c3.4,3.5,13.4-0.1,13.6-3.5s-4.5-8.6-4.5-8.6"/> <path stroke-linejoin="bevel" d=" M461.5,282.7c-0.7,2-2,8.4,1.2,10.6s11.4-7.7,10.9-12.1"/> <path stroke-linejoin="bevel" d=" M492.2,281.9c0.4,1.4-2.4,13.4-2.4,13.4"/> <path stroke-linejoin="bevel" d=" M502.4,281.1c1,1.9-2.2,11.8-1.9,14.1"/> <path stroke-linejoin="bevel" d=" M491,292.4c1-1,10.6-3.6,10.6-3.6"/> <path stroke-linejoin="bevel" d=" M507.3,295.1c0-1.4,5.2-12.7,8.5-13.8c0,0,5.3,11.5,2.3,14.2"/> <path stroke-linejoin="bevel" d=" M512.1,291.7c1.4,0,8.3-1.9,9.6-2.8"/> <path stroke-linejoin="bevel" d=" M526.5,295.2c0.4-0.6,1.5-11.7,4.2-13.7s8.7,0.6,7.7,3.4s-7.1,4.6-11.5,3.6"/> <path stroke-linejoin="bevel" d=" M542.5,295.2c0.4-0.6,1.5-11.7,4.2-13.7s8.7,0.6,7.7,3.4s-7.1,4.6-11.5,3.6"/> </g> <path stroke="#C1272D" stroke-width="7" d=" M426.7,300.9c17.9-9.6,35.9-19.2,53.8-28.8"/> <g> <path stroke-linejoin="bevel" d=" M562.9,281.6c-1.1,1.4-2.5,12.2-2.1,13.7"/> <path stroke-linejoin="bevel" d=" M568,293.8c0-1.5,5.8-12.1,5.8-12.1"/> <path stroke-linejoin="bevel" d=" M573,284.1c0,1.4,0.3,9.9,3.5,10.1s5.1-13,5.1-13"/> <path stroke-linejoin="bevel" d=" M588.3,282.5c0.9,2-2.8,10-2.4,11.1c0.4,1.1,7.7,2,11.2,0.4"/> <path stroke-linejoin="bevel" d=" M587.9,282.8c0.4-0.3,10.2-1.8,10.8-2.4"/> <path stroke-linejoin="bevel" d=" M587.9,287.3c0.7,0.2,6.3,0.8,7,0"/> <path stroke-linejoin="bevel" d=" M613.6,280.4c-1.2-0.4-11,1.9-11.6,3.5s7.7,2.6,8.1,5.6s-6.9,6.2-7.9,5.8"/> <path stroke-linejoin="bevel" d=" M627.6,280.4c-1.2-0.4-11,1.9-11.6,3.5s7.7,2.6,8.1,5.6s-6.9,6.2-7.9,5.8"/> </g> </svg> 