<?xml version="1.0" encoding="utf-8"?>
<!-- Generator: Adobe Illustrator 18.0.0, SVG Export Plug-In . SVG Version: 6.00 Build 0)  -->
<!DOCTYPE svg PUBLIC "-//W3C//DTD SVG 1.1//EN" "http://www.w3.org/Graphics/SVG/1.1/DTD/svg11.dtd">
<svg version="1.1" id="Layer_1" xmlns="http://www.w3.org/2000/svg" xmlns:xlink="http://www.w3.org/1999/xlink" x="0px" y="0px"
	 viewBox="0 0 821.2 388" enable-background="new 0 0 821.2 388" xml:space="preserve">
<path fill="none" stroke="#FFFFFF" stroke-width="120" stroke-linecap="square" stroke-linejoin="bevel" stroke-miterlimit="10" d="
	M35.7-11.6C25,35.1,13.1,81.5,0,127.6c22.1-1.3,37.7-21.5,50.1-39.8c26.6-39.3,54.3-80.2,95.2-104.5c-2.1,52.6-45.4,92.8-70.8,139
	C59,150.5,50,181.7,42.2,212.8c-12.7,50.9-22.6,102.5-29.6,154.5c14.1,1.3,25.1-11.5,32.5-23.5c37.3-60.2,52.6-136.2,106.4-182.3
	c-2,11.1-4,22.7-1.1,33.6s12,21.1,23.3,21.3c13.7,0.2,23.4-13.4,27.7-26.3c4.3-13,6-27.4,14.8-37.8c3.8-4.4,9.8-8,15.2-6
	c3.4,1.3,5.6,4.4,7.4,7.4c6.6,11.3,9.3,24.8,17.4,35.1s25.4,15.5,33.8,5.5c4-4.8,4.7-11.4,5.3-17.6c3.5-39.8,4.3-86.5-26.5-111.9
	c-10.1-8.4-22.5-13.3-34.7-18.1c-22.7-8.9-45.4-17.8-68.1-26.7c6.5-14.6,25.8-18.7,41.4-15.4s29.6,11.9,45.1,15.6
	c27.8,6.6,56.5-3,84.9-6.1c31.5-3.5,63.4,1.2,95.1-0.8c11.3,7.3,5,26.1-6.5,33.2s-25.9,8.5-36.8,16.4
	c-17.5,12.8-20.1,37.5-21.1,59.2c-0.3,7.7-0.4,16.2,4.5,22.1c5.7,6.8,16.3,7.5,24.3,3.9c8.1-3.6,14-10.6,19.5-17.5
	c15.3-19.7,28.2-41.4,45.6-59.2c17.4-17.9,40.7-32,65.6-31.1c-5.9,23.9-29.5,38-49.1,52.8c-21.1,15.9-39.6,35.4-54.4,57.4
	c-12.7,19-22.9,40.5-23.9,63.3c-1.1,24.8,9.4,49.9,27.8,66.6c29.5-42.4,54.1-88.1,73.5-136c6.6-16.3,12.9-33.4,25.1-46.1
	c12.2-12.7,32.3-19.8,47.8-11.4c0.1,34.2-13.9,66.5-25.3,98.7c-15.4,43.4-26.6,88.3-33.3,133.8c27.6-7.4,44.5-34.5,57.5-60
	c20.2-39.5,37.8-80.4,52.7-122.2c2.7-7.7,5.6-15.7,11.6-21.1c6-5.4,16.4-7,22-1.2c3.4,3.5,4.3,8.7,4.8,13.5
	c8.5,80.5-40.6,158.4-33.7,239c0.2,2.7,0.5,5.4,1.9,7.7c1.7,2.9,4.7,4.7,7.9,5.8c12.9,4.5,27.6-2.5,36.2-13.1
	c8.6-10.6,12.6-24.2,16.3-37.4c13.2-46.7,26.5-93.7,33.1-141.8c2.6-19.2,4.6-39.5,16.2-55s36.8-22.6,50.3-8.7
	c7.9,8.2,9.2,20.7,9.3,32.2c0.5,40.4-7.9,80.8-24.3,117.7c-12.3,27.6-29.3,54.3-30.8,84.4c17.8,7,36.8,11,55.9,11.7"/>
<g>
	
		<line fill="none" stroke="#000000" stroke-width="7" stroke-linecap="round" stroke-miterlimit="10" x1="28.7" y1="371" x2="28.7" y2="41"/>
	
		<polyline fill="none" stroke="#000000" stroke-width="7" stroke-linecap="round" stroke-linejoin="round" stroke-miterlimit="10" points="
		6.2,63 28.7,41 51.2,63 	"/>
	<text transform="matrix(1 0 0 1 5.407 26.1953)" font-family="'PermanentMarker'" font-size="31">how much i care how i look</text>
</g>
<g>
	
		<line fill="none" stroke="#000000" stroke-width="7" stroke-linecap="round" stroke-miterlimit="10" x1="5.2" y1="205.5" x2="814.2" y2="205.5"/>
	
		<polyline fill="none" stroke="#000000" stroke-width="7" stroke-linecap="round" stroke-linejoin="round" stroke-miterlimit="10" points="
		792.2,183 814.2,205.5 792.2,228 	"/>
	<text transform="matrix(1 0 0 1 503.2733 164.2656)" font-family="'PermanentMarker'" font-size="31">how fat i think i am</text>
</g>
<path fill="none" stroke="#006837" stroke-width="7" stroke-linecap="round" stroke-linejoin="round" stroke-miterlimit="10" d="
	M31.7,160.3c34.5-3,54,3,84,16.5c25.5,12,66,19.5,93,7.5c28.5-13.5,55.5-43.5,75-66c21-24,34.5-58.5,58.5-78
	c46.5,69,36,172.5,105,229.5c36,30,91.5,42,136.5,52.5c64.5,15,127.5,37.5,192,51c12,1.5,22.5,6,34.5,6"/>
<g>
	<path fill="none" stroke="#000000" stroke-width="7" stroke-linecap="round" stroke-miterlimit="10" d="M358.9,47.2
		c6.7-1.9,13.9-0.6,20.4,2c6.5,2.6,12.4,6.3,18.5,9.6c25.6,13.6,55.7,18.5,84.2,13.5"/>
	<text transform="matrix(1 0 0 1 494.2117 71.2598)" font-family="'PermanentMarker'" font-size="31">f*ck it</text>
</g>
</svg>
