<?xml version="1.0" encoding="utf-8"?>
<!-- Generator: Adobe Illustrator 19.2.0, SVG Export Plug-In . SVG Version: 6.00 Build 0)  -->
<svg version="1.1" id="Layer_1" xmlns="http://www.w3.org/2000/svg" xmlns:xlink="http://www.w3.org/1999/xlink" x="0px" y="0px"
	 width="787.5px" height="469.8px" viewBox="0 0 787.5 469.8" enable-background="new 0 0 787.5 469.8" xml:space="preserve">
<symbol  id="Arrow_right_1_" viewBox="-25.5 -26 29 52">
	
		<polyline fill="none" stroke="#231F20" stroke-width="7" stroke-linecap="round" stroke-linejoin="round" stroke-miterlimit="10" points="
		-22,22.5 0,0 -22,-22.5 	"/>
</symbol>
<symbol  id="Arrow_up" viewBox="-26 -25.5 52 29">
	
		<polyline fill="none" stroke="#231F20" stroke-width="7" stroke-linecap="round" stroke-linejoin="round" stroke-miterlimit="10" points="
		-22.5,-22 0,0 22.5,-22 	"/>
</symbol>
<path fill="none" stroke="#FFFFFF" stroke-width="120" stroke-linejoin="bevel" stroke-miterlimit="10" d="M13.5,164.5
	c-3.2,18.6-6.3,37.2-9.5,55.8c23.7-21.5,47.3-42.9,71-64.4c-19.7,28.2-39.3,56.3-59,84.5c27.9-23.3,66.3-48.5,94.2-71.7
	C68.9,206.5,28.1,258,13.2,312c22.6-18.2,45.3-36.3,67.9-54.5C72,302.5,49.8,344.9,18,378.2c40-46.3,79.9-92.6,119.9-138.9
	C92,295.7,46,352.1,0,408.5C56.5,356.3,113.1,304.2,169.6,252c-39.3,49.3-78.6,98.5-118,147.8c45-52.8,90-105.7,134.9-158.5
	c-12,52-35.1,101.4-67.2,144c26-46.2,51.9-92.5,77.9-138.7c13.2,53.4-19.6,114.2-71.6,132.3c-17.2,6-35.8,7.8-52.2,15.7
	c-30.5,14.7-48.6,51.5-41.6,84.6c19.3-24.3,38.6-48.6,57.9-72.9c4,22.9,8,45.7,11.9,68.6c15.8-17.9,31.5-35.8,47.3-53.7
	c3.1,14.1,6.2,28.2,9.3,42.2c14.5-11.9,54.9-33.3,69.4-45.2c-5.7,11.3-26.5,36.3-15.2,42.1s26.8,1,32.8-10.2
	c4.6-8.6,6.5-21.8,16.2-22.3c16.2-0.9,10.8,33.3,26.7,36.3c9.4,1.8,15.5-9.6,17.2-19c1.7-9.4,3.5-20.9,12.5-24.1
	c11.7-4.2,21.1,9.8,26.4,21s18,23.7,28,16.2c-12.9-27.1-54.9-65.5-67.8-92.6c35,17,88.4,65.2,90.5,104.1c9.2-15.4,7.8-35.4,0.7-51.9
	s-19.2-30.3-31.1-43.7c44.3,16.9,77.2,60.3,81.4,107.5c9.1-34.8-1.2-74.1-26.2-99.9c34.3,16,60.5,48.6,68.6,85.6
	c-14.6-35.3-29.1-70.5-43.7-105.8c22,24.6,44,49.2,66,73.9c4.7,5.3,10.6,11,17.6,10.1c6.7-0.8,11.3-7.9,11.7-14.7
	c0.4-6.8-2.4-13.3-5.1-19.5c7.1,20.3,14.3,40.7,21.4,61c23.5-13.5,42.8-34.2,54.8-58.5c-1,16.1-0.2,35.9,14.1,43.5
	c11.3,6,26,0.3,34.2-9.6c8.2-9.9,11.4-22.8,14.5-35.3c6.6,21.8,13.2,43.5,19.7,65.3c13.9-28.9,38.1-51.4,56.6-77.6
	c18.5-26.2,31.5-60.6,19-90.1c-21.3,31.4-42.5,62.8-63.8,94.2c11.3-44.2,22.5-88.5,33.8-132.7c-41.3,32.2-71.3,78.8-83.5,129.7
	c13.6-47.5,27.3-95.1,40.9-142.6c-26-5.3-49,18.2-60.9,41.9c-11.9,23.7-19.8,51.3-40.9,67.3c-24.8,18.8-59.3,15.6-90.2,11.4
	c-38.8-5.2-77.6-10.5-116.4-15.7c-1.2-113.1,1.1-226.2,7-339.2c-16.9,48.8-33.9,97.5-50.8,146.3c-11,31.7-22.2,63.8-40.8,91.7
	c-23.6,35.6-59,63.3-99.2,77.7c-9.6,3.4-21,5.9-29.4,0.1c-10.7-7.4-9.5-24.9-0.8-34.6s22.2-13.5,34.9-16.2
	c64.7-13.9,132.5-13.1,196.9,2.4c-15.3-83.8-11.9-171.1,10.1-253.4c-11.9,70.6,9.4,146.1,56.5,200.1c5.4,6.2,11.4,12.6,12.8,20.7
	c2.5,14.6-11.7,27.7-26.3,29.7s-29.1-3.9-42.7-9.7c26.2-0.6,52.4-1.1,78.6-1.7c70.6-1.5,142.4-3,210.5,15.5
	c-59.4-3.3-118.8-6.6-178.2-9.9c-8.9-0.5-20.3,0.5-23.3,9c-3.7,10.5,9.6,18.6,20.2,21.9c60.2,18.8,120.4,37.6,180.5,56.3"/>
<g id="Arrow_right">
</g>
<g>
	
		<line fill="none" stroke="#231F20" stroke-width="7" stroke-linecap="round" stroke-linejoin="round" stroke-miterlimit="10" x1="34.5" y1="199.3" x2="34.5" y2="396.6"/>
	
		<line fill="none" stroke="#231F20" stroke-width="7" stroke-linecap="round" stroke-linejoin="round" stroke-miterlimit="10" x1="12" y1="371.2" x2="766.2" y2="371.2"/>
	
		<use xlink:href="#Arrow_up"  width="52" height="29" x="-26" y="-25.5" transform="matrix(1 0 0 -1 34.4703 199.2728)" overflow="visible"/>
	
		<use xlink:href="#Arrow_right_1_"  width="29" height="52" x="-25.5" y="-26" transform="matrix(1.1793 0 0 -1 766.2072 371.2044)" overflow="visible"/>
</g>
<text transform="matrix(1 0 0 1 704.5545 339.7856)" fill="#231F20" font-family="'PermanentMarker'" font-size="30.74px">time</text>
<text transform="matrix(1 0 0 1 8.9703 188.4312)" fill="#231F20" font-family="'PermanentMarker'" font-size="30.74px">utility</text>
<path fill="none" stroke="#BE1E2D" stroke-width="7" stroke-linecap="round" stroke-linejoin="round" stroke-miterlimit="10" d="
	M46.5,283c227.9,0.3,454.9,0.3,682.8,0"/>
<text transform="matrix(1 0 0 1 44.7907 271.5626)" fill="#BE1E2D" font-family="'PermanentMarker'" font-size="30.74px">socializing</text>
<text transform="matrix(1 0 0 1 44.7911 325.7184)" fill="#F7941E" font-family="'PermanentMarker'" font-size="30.74px">working</text>
<path fill="none" stroke="#F7941E" stroke-width="7" stroke-linecap="round" stroke-linejoin="round" stroke-miterlimit="10" d="
	M45.5,339c37.2-0.1,74.8-0.2,111.8-3.7c33.5-3.2,67.1-11.5,95.8-29.6c26.4-16.7,47.3-40.7,64-66.8c18.7-29.3,33.3-61.2,44.8-94
	c12-33.9,20.4-69.1,25.1-104.8c0.6-4.4,1.1-8.9,1.6-13.3"/>
<g>
	<path fill="none" stroke="#231F20" stroke-width="7" stroke-linecap="round" stroke-linejoin="round" stroke-miterlimit="10" d="
		M400,365.7c0.1,3,0.1,6,0,9.4"/>
	<path fill="none" stroke="#231F20" stroke-width="7" stroke-linecap="round" stroke-linejoin="round" stroke-miterlimit="10" d="
		M400,345.4c0,2.8,0,5.6,0,8.4"/>
	<path fill="none" stroke="#231F20" stroke-width="7" stroke-linecap="round" stroke-linejoin="round" stroke-miterlimit="10" d="
		M400,323.9c0,3.2,0,6.5,0,9.7"/>
	<path fill="none" stroke="#231F20" stroke-width="7" stroke-linecap="round" stroke-linejoin="round" stroke-miterlimit="10" d="
		M400,302.4c0,3,0,6,0,9.1"/>
	<path fill="none" stroke="#231F20" stroke-width="7" stroke-linecap="round" stroke-linejoin="round" stroke-miterlimit="10" d="
		M400,280c0,3.3,0,6.5,0,9.8"/>
	<path fill="none" stroke="#231F20" stroke-width="7" stroke-linecap="round" stroke-linejoin="round" stroke-miterlimit="10" d="
		M400,258.5c0,3,0,6,0,8.9"/>
	<path fill="none" stroke="#231F20" stroke-width="7" stroke-linecap="round" stroke-linejoin="round" stroke-miterlimit="10" d="
		M400,237.7c0,2.8,0,5.6,0,8.4"/>
	<path fill="none" stroke="#231F20" stroke-width="7" stroke-linecap="round" stroke-linejoin="round" stroke-miterlimit="10" d="
		M400,216.8c0,2.8,0,5.6,0,8.4"/>
	<path fill="none" stroke="#231F20" stroke-width="7" stroke-linecap="round" stroke-linejoin="round" stroke-miterlimit="10" d="
		M400,196c0,2.7,0,5.5,0,8.2"/>
	<path fill="none" stroke="#231F20" stroke-width="7" stroke-linecap="round" stroke-linejoin="round" stroke-miterlimit="10" d="
		M400,176.9c0,2.3,0,4.6,0,6.9"/>
	<path fill="none" stroke="#231F20" stroke-width="7" stroke-linecap="round" stroke-linejoin="round" stroke-miterlimit="10" d="
		M400,153.4c0,3.7,0,7.4,0,11.1"/>
	<path fill="none" stroke="#231F20" stroke-width="7" stroke-linecap="round" stroke-linejoin="round" stroke-miterlimit="10" d="
		M400,134.1c0,2.5,0,5,0,7.5"/>
	<path fill="none" stroke="#231F20" stroke-width="7" stroke-linecap="round" stroke-linejoin="round" stroke-miterlimit="10" d="
		M400,115.7c0,1.8,0,3.7,0,5.5"/>
	<path fill="none" stroke="#231F20" stroke-width="7" stroke-linecap="round" stroke-linejoin="round" stroke-miterlimit="10" d="
		M400,92.1c0,3.7,0,7.5,0,11.2"/>
	<path fill="none" stroke="#231F20" stroke-width="7" stroke-linecap="round" stroke-linejoin="round" stroke-miterlimit="10" d="
		M400,67.7c0,4,0,7.9,0,11.9"/>
	<path fill="none" stroke="#231F20" stroke-width="7" stroke-linecap="round" stroke-linejoin="round" stroke-miterlimit="10" d="
		M400,50.2c0,1.6,0,3.3,0,4.9"/>
	<path fill="none" stroke="#231F20" stroke-width="7" stroke-linecap="round" stroke-linejoin="round" stroke-miterlimit="10" d="
		M400,25.7c0,4,0,7.9,0,11.9"/>
	<text transform="matrix(1 0 0 1 337.9393 400.4232)" fill="#231F20" font-family="'PermanentMarker'" font-size="30.74px">deadline</text>
</g>
<path fill="none" stroke="#F7941E" stroke-width="7" stroke-linecap="round" stroke-linejoin="round" stroke-miterlimit="10" d="
	M410.1,27.3c6.2,69.6,25,138.6,55.9,205.3c11.1,23.8,23.9,47.7,46.1,68c47.3,43.3,150.3,55.8,217.3,55.8"/>
<g>
	
		<line fill="none" stroke="#231F20" stroke-width="7" stroke-linecap="round" stroke-linejoin="round" stroke-miterlimit="10" x1="44.3" y1="426" x2="251.8" y2="426"/>
	<path fill="none" stroke="#231F20" stroke-width="7" stroke-linecap="round" stroke-linejoin="round" stroke-miterlimit="10" d="
		M247.2,420.5c3.2,1.1,6.1,2.9,8.5,5.3c-2.3,1.7-4.7,3.3-7,5"/>
	<path fill="none" stroke="#231F20" stroke-width="7" stroke-linecap="round" stroke-linejoin="round" stroke-miterlimit="10" d="
		M45.5,421.2c-2,1.4-4.1,2.9-6.1,4.3c1.9,1.3,3.8,2.5,5.7,3.8"/>
</g>
<text transform="matrix(1 0 0 1 29.1888 459.1168)" fill="#1C75BC" font-family="'PermanentMarker'" font-size="30.74px">procrastination</text>
<g>
	<path fill="none" stroke="#231F20" stroke-width="7" stroke-linecap="round" stroke-linejoin="round" stroke-miterlimit="10" d="
		M274.4,422.2c-1.6,2-3.2,4-4.8,6c2,0.9,4.1,1.8,6.1,2.8"/>
	<path fill="none" stroke="#231F20" stroke-width="7" stroke-linecap="round" stroke-linejoin="round" stroke-miterlimit="10" d="
		M272.1,427.1c5.6,0,11.2,0,16.7,0h100.5"/>
	<path fill="none" stroke="#231F20" stroke-width="7" stroke-linecap="round" stroke-linejoin="round" stroke-miterlimit="10" d="
		M388.6,422.7c1.9,1.1,3.8,2.2,5.7,3.4c-1.8,1.7-3.6,3.4-5.4,5.1"/>
</g>
<text transform="matrix(1 0 0 1 272.612 459.1166)" fill="#27AAE1" font-family="'PermanentMarker'" font-size="30.74px">urgency</text>
<g>
	<path fill="none" stroke="#231F20" stroke-width="7" stroke-linecap="round" stroke-linejoin="round" stroke-miterlimit="10" d="
		M414.1,421.6c-2.1,1.2-4.2,2.4-6.3,3.5c1.4,1.4,2.8,2.9,4.3,4.3"/>
	
		<line fill="none" stroke="#231F20" stroke-width="7" stroke-linecap="round" stroke-linejoin="round" stroke-miterlimit="10" x1="408.7" y1="425.5" x2="498.8" y2="425.5"/>
	<path fill="none" stroke="#231F20" stroke-width="7" stroke-linecap="round" stroke-linejoin="round" stroke-miterlimit="10" d="
		M497.4,421.5c2,1.1,4.1,2.2,6.1,3.4c-1.7,1.5-3.5,3-5.2,4.5"/>
</g>
<text transform="matrix(1 0 0 1 401.9367 459.1166)" fill="#00A79D" font-family="'PermanentMarker'" font-size="30.74px">anxiety</text>
<g>
	<path fill="none" stroke="#231F20" stroke-width="7" stroke-linecap="round" stroke-linejoin="round" stroke-miterlimit="10" d="
		M516.9,421.6c-1.3,0.9-2.6,1.9-3.8,2.8c1.6,1.2,3.2,2.3,4.8,3.5"/>
	
		<line fill="none" stroke="#231F20" stroke-width="7" stroke-linecap="round" stroke-linejoin="round" stroke-miterlimit="10" x1="514.5" y1="424.5" x2="726.9" y2="424.5"/>
	<path fill="none" stroke="#231F20" stroke-width="7" stroke-linecap="round" stroke-linejoin="round" stroke-miterlimit="10" d="
		M726.9,420.7c1.9,0.7,3.6,1.8,5,3.2c-1.5,1.5-2.9,3-4.4,4.5"/>
</g>
<text transform="matrix(1 0 0 1 559.3497 459.1164)" fill="#2BB673" font-family="'PermanentMarker'" font-size="30.74px">abandon</text>
</svg>
