<?xml version="1.0" encoding="utf-8"?>
<!-- Generator: Adobe Illustrator 18.0.0, SVG Export Plug-In . SVG Version: 6.00 Build 0)  -->
<!DOCTYPE svg PUBLIC "-//W3C//DTD SVG 1.1//EN" "http://www.w3.org/Graphics/SVG/1.1/DTD/svg11.dtd">
<svg version="1.1" id="Layer_1" xmlns="http://www.w3.org/2000/svg" xmlns:xlink="http://www.w3.org/1999/xlink" x="0px" y="0px"
	 viewBox="0 0 652.5 531" enable-background="new 0 0 652.5 531" xml:space="preserve">
<path fill="none" stroke="#FFFFFF" stroke-width="120" stroke-linejoin="bevel" stroke-miterlimit="10" d="M39-2
	c-3.9,15.2-13.3,28.4-21.5,41.8S1.9,68.2,3,83.9s13.3,31.6,29.1,31.4c14.2-0.2,24.9-12.4,33.7-23.6C88.9,62.1,112,32.5,135.2,2.8
	c-8.7,55.2-17.3,110.5-26,165.7c15.1,2.4,27.4-11.4,36.4-23.7c23.7-32.3,47.4-64.6,71.1-96.9c3.2,29.3,6.4,58.5,9.6,87.8
	c1.2,11.2,4.9,25.2,16.1,26.9c7.2,1.1,14.1-4.2,17.3-10.6c3.2-6.5,3.6-14,3.9-21.2c1.1-27.8,2.2-55.5,3.4-83.3
	c66.2-3.8,131.8-18.1,193.7-42c-29.6,57.4-59.2,114.7-88.8,172.1c36.5-14.2,67-41.2,91.2-72s42.7-65.6,61.1-100.2
	c-6.5,32.2-13,64.5-19.5,96.7c-2.1,10.6-3.3,23.9,5.7,30c11.8,8,26.3-5,34.6-16.6c17.2-24.2,34.4-48.3,51.5-72.5
	c6.3,12,5.3,26.5,4.2,40s-1.9,28,4.9,39.9s23.9,18.6,34.4,9.9c-43.2,26.3-92.7,42-143.2,45.6c-63.9,4.4-129.3-10.3-191.4,5.3
	c-44.1,11.1-83.4,37.1-116.5,68.4s-60.5,67.9-87.8,104.3c82.6-64.9,165.2-129.8,247.8-194.7C305.3,269,224,356,144.5,440.5
	c88-74.9,175.9-149.9,263.9-224.8c-57.3,89.9-115.6,182.2-139,286.2c62.5-76.6,124.9-153.3,187.4-229.9
	c-55.6,89.9-111.2,179.9-166.8,269.8c46.6-26.5,84.7-66.2,115.7-109.9s55.6-91.6,80.1-139.4"/>
<path fill="none" stroke="#FFFFFF" stroke-width="120" stroke-linejoin="bevel" stroke-miterlimit="10" d="M6.9,587.1
	c-11.6,35.6-23.2,71.2-34.8,106.8c71.4-32.5,112.7-63,176.2-109.9c-27.6,46.8-32.6,76.9-60.1,123.7C52,769,14.5,835.6,19.7,907.2
	c25.1-42.1,50.1-84.2,75.2-126.3C151,686.7,158.1,660.2,235.7,584c-60.1,114.5-69.6,160.4-128.3,275.7
	c-39.8,78.2-93.8,209.3-80.7,296.6C118.1,974.5,234,752.9,347.1,584.5c-44.5,220.3-143.3,389.2-210.5,603.3
	c72.7-105.6,100.6-194.4,152.4-312.3S356.4,675.3,445.3,584c-2.7,46.6,0.7,40.9-16.8,83.9c-65.1,159.2-117.8,323.8-157.5,491.6
	c11.6,9.5,29.6,5.4,40.6-4.9s16.5-25.2,21.7-39.5c57.3-157.3,114.7-314.6,172-471.9c5.1-14.1,10.4-28.5,19.6-40.2s23-20.6,37.6-19.8
	C522.6,708.6,482.9,834,443.1,959.5c-23.4,74-46.8,155.1-19.7,227.7c25.2-101.5,50.5-203,75.7-304.6
	c25.6-102.8,52.2-208.2,111.6-294.9c-23,104.8-45.9,209.7-63.1,315.7c-12.2,75.2-21.4,151.4-17.4,227.4c0.4,7.8,1.3,16.3,6.6,21.9
	c8.3,8.8,23.8,5.1,31.6-4.2s10-22.1,11.9-34.3c25.7-164.6,64.7-365.8,90.4-530.3c-2.8,170.1-18.7,376.7-21.5,546.8"/>
<g>
	
		<line fill="none" stroke="#000000" stroke-width="7" stroke-linecap="round" stroke-linejoin="round" stroke-miterlimit="10" x1="36.3" y1="170.9" x2="36.3" y2="46.5"/>
	
		<polyline fill="none" stroke="#000000" stroke-width="7" stroke-linecap="round" stroke-linejoin="round" stroke-miterlimit="10" points="
		13.8,68.6 36.3,46.6 58.8,68.6 	"/>
	
		<line fill="none" stroke="#000000" stroke-width="7" stroke-linecap="round" stroke-linejoin="round" stroke-miterlimit="10" x1="14.3" y1="108.7" x2="269.3" y2="108.7"/>
	
		<polyline fill="none" stroke="#000000" stroke-width="7" stroke-linecap="round" stroke-linejoin="round" stroke-miterlimit="10" points="
		247.5,86.2 269.5,108.7 247.5,131.2 	"/>
	<text transform="matrix(1 0 0 1 225.693 72.5225)" font-family="'PermanentMarker'" font-size="30.74">time</text>
</g>
<g>
	<text transform="matrix(1 0 0 1 10.3214 29.4041)" fill="#009245" font-family="'PermanentMarker'" font-size="30.74">happiness</text>
	<path fill="none" stroke="#009245" stroke-width="7" stroke-linecap="round" stroke-miterlimit="10" d="M36.7,110
		c3.9-10.4,8.1-21.2,15.4-28.6s18.8-10.2,26.4-3.3c4.4,3.9,6.7,10.2,8.9,16.2c3.3,8.9,6.8,17.8,10.4,26.5
		c2.9,7.1,6.3,14.7,12.3,18.2c7.4,4.4,16.7,1.2,22.8-5.5c6.1-6.7,9.5-16.1,12.1-25.5c2.3-7.9,4.2-16.1,8-23.1
		c3.9-7,10.2-12.7,17.2-12.5c7.4,0.2,13.7,6.8,17.4,14.4c3.7,7.7,5.3,16.4,7.8,24.7s6.1,16.7,12.3,21.4c7,5.3,16.4,4.8,23.8,0.3
		s12.9-12.6,16.6-21.5"/>
</g>
<g>
	
		<polyline fill="none" stroke="#000000" stroke-width="7" stroke-linecap="round" stroke-linejoin="round" stroke-miterlimit="10" points="
		368.8,69.6 391.3,47.6 413.8,69.6 	"/>
	
		<line fill="none" stroke="#000000" stroke-width="7" stroke-linecap="round" stroke-linejoin="round" stroke-miterlimit="10" x1="391.3" y1="171.9" x2="391.3" y2="47.5"/>
	
		<line fill="none" stroke="#000000" stroke-width="7" stroke-linecap="round" stroke-linejoin="round" stroke-miterlimit="10" x1="369.3" y1="109.7" x2="624.3" y2="109.7"/>
	
		<polyline fill="none" stroke="#000000" stroke-width="7" stroke-linecap="round" stroke-linejoin="round" stroke-miterlimit="10" points="
		602.5,87.2 624.5,109.7 602.5,132.2 	"/>
	<text transform="matrix(1 0 0 1 580.6927 75.5225)" font-family="'PermanentMarker'" font-size="30.74">time</text>
</g>
<g>
	<text transform="matrix(1 0 0 1 368.6659 31.4041)" fill="#0071BC" font-family="'PermanentMarker'" font-size="30.74">expectations</text>
	<path fill="none" stroke="#0071BC" stroke-width="7" stroke-linecap="round" stroke-miterlimit="10" d="M392.3,141.8
		c3.5,1.2,7.4-0.2,10.2-2.6s4.5-5.7,6.1-9c5.3-10.9,9.3-18.4,11.9-30.3c1.8-8.2,3-16.8,7.6-23.7s14.1-11.6,21.5-7.9
		c5.8,2.9,8.4,9.6,10.5,15.7c3.9,11.2,7.7,22.3,11.6,33.5c2.4,7,5.2,14.5,11.5,18.4c8.3,5.2,19.9,1.9,26.6-5.2
		c6.8-7.1,9.7-17,11.7-26.6s3.4-19.5,7.9-28.2c4.1-8,12.8-15.3,21.4-12.7c6.8,2,10.7,9.2,12.7,16.1c3.7,13,3.2,16.9,6.7,29.9
		s12.6,26.3,26,27.8"/>
</g>
<g>
	
		<line fill="none" stroke="#0071BC" stroke-width="7" stroke-linecap="round" stroke-linejoin="round" stroke-miterlimit="10" x1="130.8" y1="337.5" x2="498.8" y2="337.5"/>
	
		<polyline fill="none" stroke="#0071BC" stroke-width="7" stroke-linecap="round" stroke-linejoin="round" stroke-miterlimit="10" points="
		476.8,315 498.8,337.5 476.8,360 	"/>
</g>
<g>
	
		<polyline fill="none" stroke="#009245" stroke-width="7" stroke-linecap="round" stroke-linejoin="round" stroke-miterlimit="10" points="
		292.3,175.6 314.8,153.6 337.3,175.6 	"/>
	
		<line fill="none" stroke="#009245" stroke-width="7" stroke-linecap="round" stroke-linejoin="round" stroke-miterlimit="10" x1="314.8" y1="521.5" x2="314.8" y2="153.5"/>
</g>
<g>
	<path fill="none" stroke="#000000" stroke-width="7" stroke-linecap="round" stroke-linejoin="round" stroke-miterlimit="10" d="
		M242,238.8c21.4-14.8,47.9-21,74-21.9c26.3-0.8,53.8,4,74.9,19.8c21.6,16.1,34,41.8,41.1,67.8c8.6,31.6,10.4,65.8,0.2,97
		c-10.2,31.1-33.5,58.8-64.3,69.9c-38.1,13.7-81.9,0.5-113.9-24.4c-31.9-24.9-55-62-58.7-102.3S208.7,261.8,242,238.8z"/>
	<path fill="none" stroke="#000000" stroke-width="7" stroke-linecap="round" stroke-linejoin="round" stroke-miterlimit="10" d="
		M182.5,360.1c4.2-7.7,8.4-15.3,12.6-23c6.6,6.2,13.2,12.5,19.8,18.7"/>
</g>
<text transform="matrix(1 0 0 1 119.3214 402.0203)" font-family="'PermanentMarker'" font-size="30.74">time</text>
</svg>
