<?xml version="1.0" encoding="utf-8"?>
<!-- Generator: Adobe Illustrator 19.2.0, SVG Export Plug-In . SVG Version: 6.00 Build 0)  -->
<svg version="1.1" id="Layer_1" xmlns="http://www.w3.org/2000/svg" xmlns:xlink="http://www.w3.org/1999/xlink" x="0px" y="0px"
	 width="436.4px" height="314.2px" viewBox="0 0 436.4 314.2" enable-background="new 0 0 436.4 314.2" xml:space="preserve">
<path fill="none" stroke="#FFFFFF" stroke-width="120" stroke-linejoin="bevel" stroke-miterlimit="10" d="M117.3,8.7
	c-0.8,9.4-1.6,18.8-2.3,28.2c16.6-3.8,31.7-13.7,41.9-27.3c-0.5,12.7-1,25.4-1.5,38.1c12.7-14.6,25.4-29.3,38.1-43.9
	c-4.1,20.2-8.1,40.4-12.2,60.5c16.2-23.6,32.4-47.2,48.5-70.7c-4.5,18.1-9,36.2-13.5,54.3c-1.6,6.4-2,15.1,4.1,17.5
	c5.5,2.1,10.9-3.3,14.4-8c10.8-14.7,21.6-29.4,32.3-44.1c-2.5,15.6-4.9,31.2-7.4,46.7c-0.6,4-0.8,8.9,2.6,11
	c4.9,3,10.2-3.2,12.7-8.4c7.1-15,14.2-30,21.3-45c0.4,16.5,0.8,32.9,1.3,49.4c8.8-1.2,12.6-11.6,14.3-20.3s4-19.1,12.2-22.2
	c6.8-2.6,14.1,1.2,21,3.5s16.3,2.3,19.3-4.3C254.5,76.7,130.2,90,8.8,102.4c-1.7,8.7,5.1,17.6,13.6,20.1c8.5,2.5,17.9-0.2,25.3-5.2
	c7.4-5,13.1-12,18.6-18.9c32,22.4,78.1,22.4,110.1,0c2.2,9.3,4.3,18.5,6.5,27.8c13.5-9.1,24.6-21.6,32-36.1
	c7.3,13.5,14.5,27,21.8,40.6c4-17,8.1-34,12.1-51c8.6,15.7,12.5,34,11,51.8c9.1-9,12.7-23.1,9-35.4c10.4,15.3,3.4,39.3-13.6,46.7
	c-0.4,16.6-9.4,32.8-23.4,41.8c-13,8.4-29.1,10.5-44.6,10.6c-20.7,0.2-41.4-2.7-61.3-8.5c-11.9-3.5-24.3-8-36.3-5.1
	c-17.4,4.2-27.4,21.8-35.4,37.8c10-24.6,28.7-45.6,52.1-58.3c0.1,16.4,0.2,32.8,0.4,49.1c14.6-17.7,29.3-35.4,43.9-53.1
	c0.1,24.2,0.1,48.4,0.2,72.7c19.7-19.1,36.5-41.1,49.8-65.1c-0.7,16.9,0.6,37.5,15.6,45.2c7.5,3.8,17.1,2.9,23.7-2.2
	c6.6-5.1,9.9-14.2,8.1-22.4c1.5,13.2,3,26.4,4.5,39.6c7.4-16,14.9-31.9,22.3-47.9c4.9,10.5,9.8,21,14.6,31.5
	c4.2-14.3,8.3-28.5,12.5-42.8c5.3,13.2,10.6,26.4,15.9,39.6c2.5-11.2,5-22.4,7.6-33.6c2.7,7.4,5.4,14.9,8.1,22.3
	c-82,16.8-164.1,33.6-246.1,50.5c-13.7,2.8-27.6,5.7-39.8,12.6c-14.9,8.5-26.8,25.9-21.7,42.3c13.1-18,26.2-36.1,39.2-54.1
	c-1.7,22.3-3.4,44.7-5.2,67c11.6-16.9,23.2-33.9,34.8-50.8c-4.1,13.1-0.1,28.5,9.8,38c7.9-13.5,15.8-27,23.6-40.4
	c-0.1,8.5-0.2,17-0.3,25.4c-2.2-12,0.4-24.9,7.1-35.1c6.8,11.7,13.7,23.5,20.5,35.2c1.3,2.2,2.6,4.5,4.5,6.1
	c8.1,7.1,21.9-0.5,24.6-10.9c2.7-10.4-1.8-21.2-6.2-31c5.2,28.5,14.1,56.3,26.3,82.5c6-29.3,12-58.5,18-87.8
	c3.3,16.3,6.6,32.5,9.8,48.8c9.3-31.5,12.6-64.8,9.9-97.5c4.5,30.1,9,60.3,13.6,90.4c2.7-10.5,5.5-20.9,8.2-31.4
	c-0.8,12.6,5.2,25.4,15.3,32.9c6.4-8.8,12.9-17.6,19.3-26.4c0.6,11.8,7.5,23.1,17.8,29c5-9.7,10-19.4,15-29
	c6.3,10.1,12.7,20.3,19,30.4c7.9-2.4,14.2-31.3,16.1-39.3c1,5.3,5.9,31.8,11.4,32c6.6-11,13.3-22.1,19.9-33.1
	c-3.3,12.9,8.6,27.3,22,26.4"/>
<g id="Arrow_right">
</g>
<text transform="matrix(1 0 0 1 111.5895 33.161)"><tspan x="0" y="0" fill="#231F20" font-family="'PermanentMarker'" font-size="30.74px">the smoke alarm</tspan><tspan x="56.5" y="30" fill="#231F20" font-family="'PermanentMarker'" font-size="30.74px">is ringing</tspan></text>
<path fill="none" stroke="#231F20" stroke-width="7" stroke-linecap="round" stroke-linejoin="round" stroke-miterlimit="10" d="
	M241.4,82.1c3.2,69.2,3.6,141.6,1,211.5"/>
<text transform="matrix(1 0 0 1 9.4362 118.3239)" fill="#231F20" font-family="'PermanentMarker'" font-size="30.74px">there is a fire</text>
<path fill="none" stroke="#BE1E2D" stroke-width="7" stroke-linecap="round" stroke-linejoin="round" stroke-miterlimit="10" d="
	M247.3,95.6c0.6,11.4,1.1,22.8,1.7,34.2c1.5-11.5,3-22.9,4.5-34.4c0.8,12,1.6,22.7,2.4,34.7c0.1-13.8,0.3-22.3,0.4-36.1
	c1.2,12.6,2.4,21.2,3.6,33.8c0.6-10.8,1.2-21.7,1.8-32.5c0.7,10.5,1.7,23.1,2.4,33.6c0.5-11.1,0.7-24.2,1.1-35.3
	c0.9,11,1.8,24,2.7,35c0-12.1,0-22.7,0-34.7c2,13.2,4,21.4,6,34.6c-0.3-11.6-0.7-21.7-1-33.3"/>
<text transform="matrix(1 0 0 1 93.9948 184.1019)"><tspan x="0" y="0" fill="#231F20" font-family="'PermanentMarker'" font-size="30.74px">you suck</tspan><tspan x="-36.7" y="30" fill="#231F20" font-family="'PermanentMarker'" font-size="30.74px">at cooking</tspan></text>
<path fill="none" stroke="#BE1E2D" stroke-width="7" stroke-linecap="round" stroke-linejoin="round" stroke-miterlimit="10" d="
	M250.2,172.4c-0.1,11.7,0.1,20.9,0,32.6c0.9-10.9,1.9-21.8,2.8-32.7c0.5,7.2,1.4,18.1,2.5,32.6c0.2-15.6,0.3-26.5,0.4-32.6
	c0.4,6.6,1.2,17.8,2.3,33.8c1.5-14.2,2.6-25.9,3.3-32.8c0.2,7,0.5,18.6,0.8,32.9c1.3-15.5,2.2-26.2,2.7-32.4c0,6.3,0,17.3-0.1,32.9
	c1.7-15.7,2.8-26.8,3.5-33.2c0.4,6.1,1.2,16.9,2.4,32.3c-0.2-14.1-0.4-25.5-0.5-32.3c1,7.2,2.7,17.1,4.8,31.5
	c0.9-14.4,1.5-24.4,2-31.5c-0.2,6.9-0.5,18.5-0.8,32.7c3.8-10.2,5-26.1,4.4-34.2c1,8.8,2.1,22.3,3.4,33.2c0.8-10.5,1.5-23.6,2.1-32
	c0.6,8.4,1.2,21.5,1.9,32c1.7-13.8,2.9-25,3.7-31.6c0.2,6.3,0.6,17.4,1.2,31.1c1.6-10.4,3-23.4,4.2-31.8c-0.1,8.1-0.2,20.8-0.4,31
	c1.8-13.4,3.1-24.1,4-30.3c0.1,6.7,1.5,16.9,1.7,30.9c1.2-13.9,0.7-23.9,1.3-30.5c1.1,6.3,2.7,17.1,5,30.6
	c0.6-10.4,1.1-23.4,1.6-31.7c1.4,7.9,3.1,20.4,4.9,30.2c0.4-10.3,0.8-23.2,1.2-31.4c0.3,8.6,0.6,22,0.9,32.7
	c2.1-13.6,3.7-24.6,4.7-31.1c-0.1,6.3-0.2,17.3-0.4,30.9c1.1-10.2,2.1-23.1,3-31.3c0.1,8.1,0.3,20.9,0.5,31.1
	c0.7-14.7,1.2-24.7,1.5-30.1c0.4,5.6,1.2,15.8,2.3,30.8c0.6-10.8,1.1-24.2,1.6-33"/>
<text transform="matrix(1 0 0 1 49.5543 264.88)"><tspan x="0" y="0" fill="#231F20" font-family="'PermanentMarker'" font-size="30.74px">you need to</tspan><tspan x="-25.9" y="30" fill="#231F20" font-family="'PermanentMarker'" font-size="30.74px">buy batteries</tspan></text>
<path fill="none" stroke="#BE1E2D" stroke-width="7" stroke-linecap="round" stroke-linejoin="round" stroke-miterlimit="10" d="
	M249.1,250.5c0.3,14.2-0.2,23.6,0,32.1c0.4-8.7,1.6-18.1,2.2-32.3c1.2,17.3,1.9,27.9,2.3,32.4c0.3-6.6,0.8-16.9,1.5-31.8
	c1,14.8,1.7,25,2.1,31.2c0.2-6.4,0.5-16.6,1-31.2c0.9,9.9,1.7,20.2,2.7,31.4c0.7-11.2,1.4-21.1,2-30.5c0.2,9.3,0.4,19.1,0.7,29.9
	c1.1-12.4,2.4-23.9,3-31.3c-0.1,4.2-0.4,17.1-0.9,32.1c1.7-14.8,2.7-27.3,3.2-31.6c0,2.8-0.4,16.8-0.2,31.6
	c1.5-13.1,2.6-28.5,3.1-32.8c0.1,9.2,0.2,22.8,0.3,33.6c1.3-9.7,2.8-22.4,4.1-32.5c0.1,6.5,0.2,19.9,0.3,31.3
	c1.2-11.3,1.7-26.2,2.3-32.5c0.2,5.7-0.4,21,0.1,32.9c1-11.5,2.6-26,3-31c0.3,4.9,0.7,21,1.4,31.9c0.8-15.4,1.8-29.9,2-33.3
	c0.8,7.8,1.5,19.7,2.8,32.2c-0.1-8.6-0.4-22.3-0.5-31.7c0.2,1.7,1.5,18.5,3.1,31.8c0.4-13.6,0.2-30.7,0.2-32.3
	c0.1,1.6,0.9,18.7,1.8,32.2c1.3-14,2-29.9,2.2-31.8c0.4,5.8,0.4,21.1,1.2,32.9c1.8-18.5,2.8-31.4,3-33.7c0,2.3-1.1,14.1-1.3,32.7
	c0.8-12.1,2.3-27.3,2.7-32.9c0.4,5.6,0.2,20.7,1,32.3c0.4-8.8,2.1-25.1,2.4-31.7c0.4,11,0.3,26.5,0.5,32.4c0.4-9.2,0.7-23.5,1-33.3
	c0.8,6.6,2.4,21.5,3.9,32.9c0-12.9-0.4-26.9-0.4-32.5c0.4,4.7,0.9,20.6,2,33.6c0.8-11.6,1.4-28,1.7-33.2c0.3,4.8,0.8,20.9,1.5,31.7
	c1.2-17.5,1.9-29.1,2.1-30.8c0.2,5.5,0.6,15.7,1.2,30.6c1.3-15.7,2.2-26.2,2.7-32.3c0-1.7,0.3,12.5,0.4,33.1
	c0.8-13.4,0.9-30.3,1-31.7c0.5,5,1.1,21.1,2.2,31.9c0-11.3,0.1-27.7,0.1-32.8c0.6,5.6,0.6,20.6,1.9,32c0.9-12.2,2.8-25.8,3.2-31.5
	c0.3,5.7,0.4,21,1.1,32.8c0.8-15.2,1.9-29.2,2-32.5c0.1,2.7-0.2,16.6,0.4,31.3c0.9-12.9,1.6-28.2,1.9-32.3
	c0.2,4.3,0.5,19.6,1.1,32.2c0.9-11.5,1.9-26.2,2.3-31.2c0,5.6-0.4,20.9-0.4,32.7c1.4-15.4,2.7-29.6,3-33.1c0,2.7-0.5,16.5-0.5,31.2
	c1-11.3,1.8-27.4,2.2-32.2c0.3,5.3,0.6,21.9,1.2,33.2c0.6-11.4,1.1-27.7,1.3-32.7c0.5,5.1,1.3,21.2,2.4,32.1
	c0.1-11,0.3-27.1,0.4-31.8c0.5,5.1,1.2,21.2,2.3,32.1c1.2-11.3,2.1-27.3,2.6-32c0,0.8,0.9,18.9,0.6,31.7c1.4-13.1,1.1-31.5,1.2-32.6
	c0.1,1.4,1.5,20,2,33.3c1.2-13.5,1-30.7,1.1-32.1c0,1.9-0.1,17.7-0.1,31.7c1.8-13.3,2.4-30.2,2.5-31.5c0.4,4.7,1,20.5,2,31
	c1.3-8.3,2.8-25.5,3.7-31.5c0,2.6,0.7,22.7,0.8,33.1c1.5-19.7,1.1-34.8,0.9-32.2c0,1.4,0.1,13.2,0.6,30.4
	c0.5-17.8,0.9-30.2,0.9-31.9c0.1,1.6,0.5,14,1.7,31.5c0.9-11.3,1.6-27.5,2-32.3c0.8,5.9,0.9,21.2,2.4,32.9
	c-0.5-11.4,0.1-26.2-0.1-31.5c0.1,0.9,1.8,18.5,3,31c0.7-13,0-31.3,0-32.3c0,1.5,1.1,20.3,0.9,33.8c1.6-13.5,1.3-32.4,1.5-33.9
	c0.1,1.3,1.5,19.9,2,33.1c1.3-13,0.9-31.4,1-32.4c0,1.1,1.4,19.3,1.7,32.3c1.6-16.7,1.6-33.2,1.5-32.1c-0.1-0.7,1.2,16.1,2.5,33.3
	c1.4-13.8,1.5-31.2,1.6-33c0,1.5,0.9,18.7,1.1,32.2c2.8-16.7,3.4-33.3,3.3-32.4c0-1.8,0.7,13.9,0.6,30.1c2.1-14,2-30.9,2-30.7
	c0,0.5,1.2,17.9,1.3,32.6c3.1-16.2,3.9-32.2,3.6-31c0.1-1.6,0.2,14.3-1,30.6c3-13,3.9-29.8,4.2-31.3c0,1.9,0.1,17.7,0.2,31.6
	c1.6-17,2.5-31.8,2.4-31c-0.1-1.1,1,15.3,2,32.1c1.7-16.7,1.8-33.1,1.7-32c-0.2-1.6,1.2,14.3,2.8,30.6"/>
</svg>
