<?xml version="1.0" encoding="utf-8"?>
<!-- Generator: Adobe Illustrator 19.2.0, SVG Export Plug-In . SVG Version: 6.00 Build 0)  -->
<svg version="1.1" id="Layer_1" xmlns="http://www.w3.org/2000/svg" xmlns:xlink="http://www.w3.org/1999/xlink" x="0px" y="0px"
	 width="427.9px" height="297.6px" viewBox="0 0 427.9 297.6" enable-background="new 0 0 427.9 297.6" xml:space="preserve">
<path fill="none" stroke="#FFFFFF" stroke-width="120" stroke-linejoin="bevel" stroke-miterlimit="10" d="M14.3,74.2
	c9.7-15.9,23.2-29.6,39-39.5c-1.5,14.2-3,28.5-4.5,42.7c18.6-22,37.2-44.1,55.8-66.1C98.3,32.2,92.2,53.2,86,74.1
	c22.5-21.6,45-43.3,67.5-64.9c-5.7,21.9-11.3,43.7-17,65.6c26.7-16.5,48.1-41.4,60.5-70.3c2.9,24.1-3.2,49.2-16.9,69.3
	c21.7-24.6,43.3-49.2,65-73.8c-5.9,22.2-11.8,44.5-17.6,66.7c15-17.3,30-34.5,45-51.8c-5,22.7-9.9,45.4-14.9,68.2
	c19-22.4,38-44.7,57-67.1c-0.4,19.8-0.9,39.7-1.3,59.5c8.4-18.6,16.9-37.2,25.3-55.8c4.1,25.3,8.2,50.5,12.4,75.8
	c13.6-20.8,34.2-37,57.7-45.3c-9.3,12.7-26.5,17.4-42.3,17c-15.8-0.4-31.2-5.1-46.8-7c-29.2-3.6-58.6,2-87.4,7.7
	c-39.1,7.6-78.2,15.3-117.3,22.9c-11,2.1-22.1,4.4-32,9.5s-18.6,13.9-21,24.8c7.4-7.1,14.8-14.3,22.1-21.4
	c-20.7-4-43.2,10.8-47.7,31.4c35.5-2.6,70.3-14.5,99.8-34.3c-7.3,8.2-11.4,19.1-11.4,30c23.8-13.1,44.5-31.7,60-54
	c-4.6,22.1-9.2,44.2-13.8,66.3c13-14.8,26.1-29.5,39.1-44.3c-0.1,9.5-0.3,19-0.4,28.5c7.4-7.2,14.9-14.3,22.3-21.5
	c-7,26.2-30.1,47.4-56.9,52.1c-15.1,2.7-30.7,0.4-46-1s-31.3-2-45.5,3.8c-14.2,5.8-26.3,19.5-25.7,34.9
	c17.1-1.3,33.3-11.7,41.6-26.7c-2.9,6.9,1.6,15.3,8.4,18.4c6.8,3.1,14.9,1.6,21.5-1.9s11.8-9.1,16.9-14.5c0.5,7,0.9,13.9,1.4,20.9
	c13.9-4.5,25.7-15.3,31.2-28.8c-2.6,6-5.2,12.1-5.6,18.6c-0.5,6.5,1.6,13.5,6.9,17.3c7.9,5.7,19.7,1.9,25.9-5.7
	c6.2-7.5,8.1-17.6,9.8-27.1c-1.9,7.4-3.8,15-2.3,22.5s7.4,14.6,15,14.8c6.6,0.2,12.5-4.9,15.2-11c2.7-6,3-12.9,3.3-19.5
	c2.7,13.4,10.4,25.8,21.3,34.1c-70.9,19.2-143.5,32.1-216.6,38.4c3.5,11.9,15.5,20.8,27.9,20.8c12.4,0,24.4-8.9,27.9-20.8
	c-5.7,6.5-1.6,17.9,6.3,21.5c7.9,3.5,17.5,0.5,24.1-5.1c6.6-5.6,10.9-13.4,15-21.1c-1.2,9.3-2.3,18.7-3.5,28
	c10.3-14.1,20.7-28.1,31-42.2c-0.6,16.9-1.2,33.7-1.8,50.6c14.1-11.3,25.6-26,33.1-42.4c0.3,14.4,0.7,28.7,1,43.1
	c12-14.6,23.9-29.3,35.9-43.9c1.6,15.6,3.2,31.2,4.8,46.8c13-16.6,26-33.3,39-49.9c5.4,16.2,10.7,32.3,16.1,48.5
	c11-17.1,17.9-36.9,19.9-57.1c11.5,16,23,31.9,34.5,47.9c9.2-10.3,18.3-20.7,27.5-31"/>
<g id="Arrow_right">
</g>
<text transform="matrix(1 0 0 1 81.7564 38.5945)"><tspan x="0" y="0" font-family="'PermanentMarker'" font-size="30.74px">deadliest poisons</tspan><tspan x="-65" y="30" font-family="'PermanentMarker'" font-size="30.74px">according to the internet</tspan></text>
<path fill="none" stroke="#000000" stroke-width="7" stroke-linecap="round" stroke-linejoin="round" stroke-miterlimit="10" d="
	M172.7,94.6c5,63.3,4.7,127.3-0.7,190.2"/>
<text transform="matrix(1 0 0 1 50.5344 123.8072)" font-family="'PermanentMarker'" font-size="30.74px">arsenic</text>
<path fill="none" stroke="#821E70" stroke-width="7" stroke-linecap="round" stroke-linejoin="round" stroke-miterlimit="10" d="
	M179.1,98.1l2.1,37.7c0,0,2.3-26.1,2.5-39.4c1.7,11.7,1.6,26,3.4,37.7c1.3-11.3,2.6-25.6,3.8-37c0.2,12.9,0.5,25.7,0.7,38.6
	c1.2-11.9,2.5-24.7,3.7-36.6c1.4,11.9,2.6,24.9,3.9,36.8c0.5-11.7,0.9-25.4,1.4-37.2c1.5,11.4,3.1,24.7,4.6,36.2
	c0.3-12.3,0.7-24.6,1-36.8c1.4,13.2,2.5,24.2,3.9,37.4c0.8-12.1,0.7-24.6,1.5-36.6c0.8,12.2,2.9,24.4,3.7,36.6
	c0.5-13,0.9-23.4,1.4-36.4"/>
<text transform="matrix(1 0 0 1 53.8371 190.4977)" font-family="'PermanentMarker'" font-size="30.74px">cyanide</text>
<path fill="none" stroke="#821E70" stroke-width="7" stroke-linecap="round" stroke-linejoin="round" stroke-miterlimit="10" d="
	M182.1,166c0,11.5,0,26.4,0,37.9c2-11.2,4-25.7,6-36.9c0.5,10.5,0.9,24.4,1.4,34.8c0.5-10.9,1.1-25.3,1.7-36.2
	c2,16.4,3.2,26.8,4.4,36.5c0.3-10.2,1-19.4,1.6-36.4c0.9,12,1.9,25.5,2.8,37.5c2.2-10.6,3-25,2.1-35.8c1.2,15.6,2.1,27.9,2.8,36.8
	c0.6-8.9,1.4-21.2,2.5-36.8c0.3,15.4,0.6,27.4,0.8,36c0.6-8.6,1.3-20.6,2.3-36c0.9,11.5,1.8,26.4,2.8,37.8c0.4-12.4,1-25.2,1.4-37.6
	c1.4,17.3,2.4,26.4,3.3,37.1c0.5-9.8,0.9-21.2,1.7-37.8c1.2,16.8,2.4,28.4,3.1,38.5c1.1-9.1-0.1-22.3,1.8-38
	c0.8,14.7,3.8,28.6,4.2,36.6c0-8.9-0.1-21.3-0.2-37c1.6,16.1,2.8,28.9,3.8,38.4c0.3-9,0.6-21.3,1.1-37.1c1.4,15.2,2.5,27,3.2,35.4
	c0.8-8.4,1.9-20,3.3-35.1c0.1,10.9,0.2,25.1,0.3,36c2.7-10.7,3.8-25.3,3.3-36.3c2,15.2,3.5,27,4.6,35.6c0.6-8.3,1.4-19.9,2.4-34.9
	c1.3,14.8,2.4,26.2,3.1,34.2"/>
<text transform="matrix(1 0 0 1 54.9768 262.3854)" font-family="'PermanentMarker'" font-size="30.74px">gluten</text>
<path fill="none" stroke="#821E70" stroke-width="7" stroke-linecap="round" stroke-linejoin="round" stroke-miterlimit="10" d="
	M180.6,237c-0.3,17.6-0.4,30.8-0.5,35c1.2-8.2,3-20.4,5.5-37.1c0.7,17.6,1.2,30.8,1.6,39.6c0.4-9.7,0.9-21.4,1.6-39.9
	c2.4,17.6,4.3,28.4,5.5,37.5c0.5-7.2-0.5-21.6,0.6-37.5c-0.1,16,1.6,30.5,1.5,37.8c1-8.8,2.5-19.1,4.4-36.6
	c1.8,17.2,3.2,27.3,4.1,35.9c0.4-7.6,1-19.5,1.8-35.8c0.5,17.5,0.4,28.4,0.7,37.2c0.9-9,2.7-19.9,4.5-37.6
	c0.3,16.7,0.6,29.1,0.7,37.1c0.5-8,1.4-20.2,2.5-36.9c1.6,16.9,2.8,29.4,3.6,37.7c0.4-7.8,0.9-20,1.7-36.6
	c0.4,16.6,0.6,28.8,0.8,36.6c0.5-7.9,1.2-20.1,2.2-36.7c2.3,16.3,4,28.2,5.1,36c0.1-8.4,0.3-18.5,0.6-35.6
	c0.9,18.3,1.2,27.3,1.7,36.9c0.7-8.9,2.1-19.9,3.4-37.5c1.1,17,2,29.5,2.5,37.7c0.4-7.8,1.1-19.9,2-36.4c0.7,16.4,1.3,28.4,1.6,36
	c0.5-8.6,1.2-21.5,2.1-38.8c0.5,16.8,0.9,29.3,1.2,37.3c0.5-7.5,1.3-19.4,2.4-35.6c2.4,16.2,4.1,28,5.2,35.6
	c-0.1-7.8-0.1-20.1-0.3-36.7c2,16.9,3.5,29.4,4.5,37.7c0.6-7.9,1.5-20,2.8-36.6c0.2,17,0.4,29.5,0.5,37.7c0.4-8.6,0.9-21.5,1.7-38.9
	c1.6,18.1,2.3,29.5,3.2,38.9c0.6-8.9,2-19.9,3.2-37.5c0.7,18.1,0.8,29.5,1.1,38.8c0.7-9.7,2.1-21.5,3.4-39.9
	c0.6,16.3,1.1,28.2,1.3,35.8c1-8.3,2.5-18,4.5-34.9c0.1,17.8,0.1,28.4,0.2,37.4c0.9-7.8,2.4-19.7,4.4-36.1c0,7.7,0.1,24.4,0.1,36.7
	c1.3-13.6,2.5-28.8,3.3-37.8c0.5,16.5,0.9,25.9,1.1,33.6c0.9-6.8,2.3-17.8,4.3-33.2c0.5,16.4,0.9,28.5,1.1,36.2
	c0.3-5,1.2-19,2.4-37.4c1.5,17.4,2.4,30.5,2.8,34.6c0-6.6,0-17.5,0-32.9c1.5,7.6,3.4,24.1,5.7,36.1c0-14.1,0-27.6-0.1-37
	c0.3,18.4,0.5,27.4,0.7,37c0.4-4.8,1.5-18.5,3.1-36.7c0.6,17.9,0.9,31.5,1.1,36c0.6-4.9,2-18.6,4.1-36.7c0.6,9.9,1.2,28.9,1.7,38.9
	c0.6-13.4,1-31.2,1.4-40c0.5,8.7,1.2,26.5,2,39.9c0.7-9.8,1.4-28.6,2.2-38.4c1.2,17.3,1.9,30.2,2.2,34.1c0.3-6.9,0.7-18.2,1.3-33.8
	c1.8,16.1,3.1,27.7,4,35.1c0.1-7.5,0.2-19.5,0.3-35.8c1.6,8.8,3.5,26.5,5.9,39.8c-0.4-10.2-0.8-29.4-1.1-39.5
	c1.1,9.4,2.2,27.9,3.3,37.3c1.8-13.1,3.3-30.6,4.5-39.1c-0.2,8.4-0.6,25.9-1,39c2.2-12.3,3.9-29.1,5.3-36.9c-0.3,7.5-0.6,24-1,36.1
	c1.1-12.3,2-29.1,2.7-36.8c0.3,8,0.8,25,1.3,37.6c1.4-13.1,2.5-30.5,3.4-39c0.2,9.3,0.5,27.6,0.8,41.6c0.7-9.9,1.4-28.9,2.1-38.8
	c0.4,9,0.7,27.1,1.1,36.2c1.1-14.1,1.9-29.9,2.6-39.5c0.2,9.6,0.4,25.5,0.7,39.8c0.9-12.7,1.7-29.8,2.3-37.8c1,7.2,2.3,23.3,4,35.1
	c0.3-13.6,0.6-28.9,0.8-37.9c0.5,9.9,1.1,26.2,1.9,40.8c0.3-13.8,0.5-29.3,0.7-38.4c1,8.7,2.2,23.7,3.6,37c0.5-12,0.9-28.4,1.2-35.7
	c-0.1,6.7-0.3,22.6-0.4,34"/>
<g id="Arrow_up">
</g>
</svg>
