 
 
 
<svg version="1.1" id="Layer_1" xmlns="http://www.w3.org/2000/svg" xmlns:xlink="http://www.w3.org/1999/xlink" x="0px" y="0px"
	 viewBox="0 0 648.8 447" enable-background="new 0 0 648.8 447" xml:space="preserve">
<path stroke="#FFFFFF" stroke-width="120" d="M13.8,49.3
	c22-19.3,49.9-31.8,79-35.5C99.9,31.6,84,49.6,70,62.6s-28.6,32.9-19.1,49.5c28.8-33.8,60.2-65.3,93.7-94.3
	c8.8,17.5,3.6,39.2-7.4,55.3s-27.3,27.8-42.7,39.8s-30.9,25-39.6,42.5c-17.2,34.7-3.5,76.3-7.4,114.9C45,294.9,35.1,318.4,33.3,343
	c-1.9,24.7,7.2,53.2,30.2,62.3c15.1-73.2,29.4-146.5,43-220c-12.5,9.7-13.3,28.6-8.1,43.6c5.2,14.9,15,27.8,20.6,42.6
	c6.3,16.6,7.1,34.6,7.9,52.3c0.7,17.5,1.4,35,2.1,52.4c10.3-36.9,20.6-73.8,30.9-110.8c1.4-5.1,4-11.2,9.3-11.4
	c5.4-0.3,8.6,6,10.3,11.1c12.6,37.9,25.1,75.8,37.7,113.7c17-19.8,30.4-42.6,39.2-67.2c8.4-8.1,23.4-1.2,28.7,9.2
	c5.3,10.4,4.8,22.7,7.3,34.1s10.5,23.5,22.2,23.6c-2.9-63.5-5.7-126.9-8.6-190.4c56,47.9,81.3,128.8,62.7,200.1
	c-1.6,6.1-3.5,12.2-2.9,18.5s4.2,12.7,10.3,14.3c11.7,3.2,19.4-11.8,22.6-23.5c12.7-46.5,31.8-91.3,56.8-132.5
	c13.4,23.8,6.5,53.6-3,79.2c-9.5,25.6-21.7,51.9-18,78.9c45,2.1,90.2-1.2,134.4-9.9c10.4-2,21-4.5,29.6-10.6
	c8.6-6.1,14.9-16.7,12.8-27.1c-36.6-10.5-75.8-12.3-113.2-5.2c-9.6,1.8-20.6,3.9-28.3-2.1c-11.2-8.8-5.2-28.4,7.1-35.8
	s27.5-6.8,41.7-8.1c36.6-3.4,71.7-21.3,96-48.9c-41.5-1.3-82.9-2.6-124.4-3.9c-8.4-47.5-7.9-96.5,1.6-143.7
	c3.4-16.8,7.9-34.2,3.9-50.9c-5.9-24.7-29.5-42-54.1-48.2c-24.6-6.2-50.5-3.6-75.8-1.6c-61,4.7-122.3,5.1-183.3,1.3"/>
<g>
	
		<polyline stroke-width="7" points="
		589.3,352.9 611.3,375.4 589.3,397.9 	"/>
	
		<line stroke-width="7" x1="27.9" y1="375.4" x2="611.3" y2="375.4"/>
	
		<line stroke-width="7" x1="50.4" y1="48.7" x2="50.4" y2="397.4"/>
	
		<polyline stroke-width="7" points="
		27.9,70.7 50.4,48.7 72.9,70.7 	"/>
</g>
<path stroke="#B25538" stroke-width="7" d="
	M55.7,72.9c-7.5,55.9,21.7,110.9,60.1,152.2c9.1,9.8,18.8,19.1,29.1,27.9c11.8,10.1,24.3,19.4,37.2,28.1
	c51.6,34.5,110.4,57.9,171.6,68.3c9.8,1.7,19.7,3,29.6,4.4c6.2,0.8,12.5,1.7,18.7,2.5c62,8.4,125,12.2,187.4,12.2"/>
<g>
	<text transform="matrix(1 0 0 1 27.8558 36.1777)" font-family="'PermanentMarker'" font-size="31">specialness of each individual</text>
	<path d="
		M42,19.5c-1.2-0.4-11,1.9-11.6,3.5s7.7,2.6,8.1,5.6s-6.9,6.2-7.9,5.8"/>
	<path d="
		M44.8,34.3c0.4-0.6,1.5-11.7,4.2-13.7s8.7,0.6,7.7,3.4s-7.1,4.6-11.5,3.6"/>
	<path d="
		M62.7,21.6c0.9,2-2.8,10-2.4,11.1c0.4,1.1,7.7,2,11.2,0.4"/>
	<path d="
		M62.2,21.9c0.4-0.3,10.2-1.8,10.8-2.4"/>
	<path d="
		M62.2,26.4c0.7,0.2,6.3,0.8,7,0"/>
	<path d="
		M86.4,21.2c-3.5,0.7-12.2,5.9-10.2,10.6s10.2,3.1,10.2,3.1"/>
	<path d="
		M95.2,19.6c-1.1,1.4-2.5,12.2-2.1,13.7"/>
	<path d="
		M100.7,34.2c0-1.4,5.2-12.7,8.5-13.8c0,0,5.3,11.5,2.3,14.2"/>
	<path d="
		M105.5,30.8c1.4,0,8.3-1.9,9.6-2.8"/>
	<path d="
		M123.7,19.7c0.1,1.4-4.5,11.3-3.8,13.7c0.7,2.3,7.5-1.5,11,0.3"/>
	<path d="
		M136.3,33.9c0-1.5,5.8-12.1,5.8-12.1"/>
	<path d="
		M141.4,24.2c0,1.4,0.3,9.9,3.5,10.1s5.1-13,5.1-13"/>
	<path d="
		M156.7,21.6c0.9,2-2.8,10-2.4,11.1c0.4,1.1,7.7,2,11.2,0.4"/>
	<path d="
		M156.2,21.9c0.4-0.3,10.2-1.8,10.8-2.4"/>
	<path d="
		M156.2,26.4c0.7,0.2,6.3,0.8,7,0"/>
	<path d="
		M183,19.5c-1.2-0.4-11,1.9-11.6,3.5s7.7,2.6,8.1,5.6s-6.9,6.2-7.9,5.8"/>
	<path d="
		M197,19.5c-1.2-0.4-11,1.9-11.6,3.5s7.7,2.6,8.1,5.6s-6.9,6.2-7.9,5.8"/>
	<path d="
		M220.2,19.7c-1.8,0.9-13,9.7-9.6,13.2s13.4-0.1,13.6-3.5s-4.5-8.6-4.5-8.6"/>
	<path d="
		M234.2,20.7c0.4,1.1-4.1,11-3.9,12.8s0.4,1.2,0.4,1.2"/>
	<path d="
		M231,22.3c0.4-0.2,10.7-4,12.9-2.9"/>
	<path d="
		M229.7,28.8c0.9,0.5,10.5-0.7,10.5-0.7"/>
	<path d="
		M258.7,21.6c0.9,2-2.8,10-2.4,11.1c0.4,1.1,7.7,2,11.2,0.4"/>
	<path d="
		M258.2,21.9c0.4-0.3,10.2-1.8,10.8-2.4"/>
	<path d="
		M258.2,26.4c0.7,0.2,6.3,0.8,7,0"/>
	<path d="
		M271.7,34.2c0-1.4,5.2-12.7,8.5-13.8c0,0,5.3,11.5,2.3,14.2"/>
	<path d="
		M276.5,30.8c1.4,0,8.3-1.9,9.6-2.8"/>
	<path d="
		M300.4,21.2c-3.5,0.7-12.2,5.9-10.2,10.6c2.1,4.7,10.2,3.1,10.2,3.1"/>
	<path d="
		M308.5,20.9c0.4,1.4-2.4,13.4-2.4,13.4"/>
	<path d="
		M318.8,20.2c1,1.9-2.2,11.8-1.9,14.1"/>
	<path d="
		M307.3,31.4c1-1,10.6-3.6,10.6-3.6"/>
	<path d="
		M339.2,20.6c-1.1,1.4-2.5,12.2-2.1,13.7"/>
	<path d="
		M344.3,32.9c0-1.5,5.8-12.1,5.8-12.1"/>
	<path d="
		M349.4,23.2c0,1.4,0.3,9.9,3.5,10.1s5.1-13,5.1-13"/>
	<path d="
		M363.7,22.6c0.3,1.8,0.9,7.7,0,11.2"/>
	<path d="
		M364.6,19.8c2.2,0.3,9.2,4.1,9.8,6.2s-7.2,7.4-8.7,7.7"/>
	<path d="
		M382.2,20.6c-1.1,1.4-2.5,12.2-2.1,13.7"/>
	<path d="
		M388.5,20.9c0.5,1,2.1,13,2.1,13"/>
	<path d="
		M390.8,33c0,0,6.6-12.1,8.9-12.9"/>
	<path d="
		M407.2,21.6c-1.1,1.4-2.5,12.2-2.1,13.7"/>
	<path d="
		M412.7,23.6c0.3,1.8,0.9,7.7,0,11.2"/>
	<path d="
		M413.6,20.8c2.2,0.3,9.2,4.1,9.8,6.2s-7.2,7.4-8.7,7.7"/>
	<path d="
		M429.9,23.8c-0.7,2-2,8.4,1.2,10.6s11.4-7.7,10.9-12.1"/>
	<path d="
		M445.7,33.2c0-1.4,5.2-12.7,8.5-13.8c0,0,5.3,11.5,2.3,14.2"/>
	<path d="
		M450.5,29.8c1.4,0,8.3-1.9,9.6-2.8"/>
	<path d="
		M467.7,19.7c0.1,1.4-4.5,11.3-3.8,13.7c0.7,2.3,7.5-1.5,11,0.3"/>
</g>
<text transform="matrix(1 0 0 1 339.5208 426.7423)" font-family="'PermanentMarker'" font-size="31">world population</text>
<path d="
	M348.3,410.4c0.1,3.2-4.4,9.4-1.9,12.9s11.2-11.6,11.5-11.2s-1.6,11.2,2.2,11.5s4.6-8.9,7.2-13.6"/>
<path d="
	M379.2,409.7c-1.8,0.9-13,9.7-9.6,13.2s13.4-0.1,13.6-3.5s-4.5-8.6-4.5-8.6"/>
<path d="
	M392.1,414.1c0.1,0.6-1.7,9.9-1.7,9.9"/>
<path d="
	M393.2,415.6c0-1.1,4-5.6,4.7-5.7s5.4,4.2,3.9,5.7s-8.6,3.1-8.6,3.1s1.8,5.4,9.4,6.2"/>
<path d="
	M409.7,409.7c0.1,1.4-4.5,11.3-3.8,13.7s7.5-1.5,11,0.3"/>
<path d="
	M423.7,413.6c0.3,1.8,0.9,7.7,0,11.2"/>
<path d="
	M424.6,410.8c2.2,0.3,9.2,4.1,9.8,6.2c0.6,2.2-7.2,7.4-8.7,7.8"/>
<path d="
	M449.8,424.3c0.4-0.6,1.5-11.7,4.2-13.7s8.7,0.6,7.7,3.4s-7.1,4.6-11.5,3.6"/>
<path d="
	M477.2,409.7c-1.8,0.9-13,9.7-9.6,13.2s13.4-0.1,13.6-3.5s-4.5-8.6-4.5-8.6"/>
<path d="
	M484.8,425.3c0.4-0.6,1.5-11.7,4.2-13.7s8.7,0.6,7.7,3.4s-7.1,4.6-11.5,3.6"/>
<path d="
	M502.9,413.8c-0.7,2-2,8.4,1.2,10.6s11.4-7.7,10.9-12.1"/>
<path d="
	M524.7,409.7c0.1,1.4-4.5,11.3-3.8,13.7s7.5-1.5,11,0.3"/>
<path d="
	M534.7,425.2c0-1.4,5.2-12.7,8.5-13.8c0,0,5.3,11.5,2.3,14.2"/>
<path d="
	M539.5,421.8c1.4,0,8.3-1.9,9.6-2.8"/>
<path d="
	M551.9,411.9c1.2,0.3,13.1-1.8,14.8-1.4"/>
<path d="
	M559.3,410.8c0.3,1.1-4.7,11.8-4.7,13.1s1.1,2.4,1.1,2.4"/>
<path d="
	M570.2,411.6c-1.1,1.4-2.5,12.2-2.1,13.7"/>
<path d="
	M586.2,410.7c-1.8,0.9-13,9.7-9.6,13.2s13.4-0.1,13.6-3.5s-4.5-8.6-4.5-8.6"/>
<path d="
	M595.3,422.9c0-1.5,5.8-12.1,5.8-12.1"/>
<path d="
	M600.4,413.2c0,1.4,0.3,9.9,3.5,10.1s5.1-13,5.1-13"/>
<g>
	<path stroke-width="7" d="
		M410.2,350.1c-3.2,3.7-6.3,7.4-9.5,11.1"/>
	<path stroke-width="7" d="
		M401.7,350.5c1.5,2.9,3,5.9,4.5,8.8c0.8,1.7,2.1,3.6,3.9,3.4"/>
	<path stroke-width="7" d="
		M404.2,341.2c-5.4-21-11.9-43.4-28.4-57.4c-10.2-8.6-23.1-13.2-33.8-21.2c-16-11.9-26.1-31.5-26.5-51.4"/>
	<text transform="matrix(1 0 0 1 290.4803 203.7432)" font-family="'PermanentMarker'" font-size="31">you</text>
	<path d="
		M294.5,187.8c0,1.6,1.3,7.8,3.6,8.8"/>
	<path d="
		M303.7,187.8c-0.9,0.4-9.8,12.3-9.4,15.1"/>
	<path d="
		M315.2,187.7c-1.8,0.9-13,9.7-9.6,13.2s13.4-0.1,13.6-3.5s-4.5-8.6-4.5-8.6"/>
	<path d="
		M324.9,190.8c-0.7,2-2,8.4,1.2,10.6s11.4-7.7,10.9-12.1"/>
</g>
<g>
	<path stroke-width="7" d="
		M438.3,354.6c-2.8,3.8-5.4,7.6-7.9,11.6"/>
	<path stroke-width="7" d="
		M429.1,354.1c2.4,0,4.6,1.6,6,3.6c1.5,1.9,2.5,4.1,4.2,6"/>
	<path stroke-width="7" d="
		M435.1,342.4c-1-20.6,5.8-41.5,18.8-57.4"/>
	<text transform="matrix(1 0 0 1 420.3704 274.7402)" font-family="'PermanentMarker'" font-size="31">you next year</text>
	<path d="
		M424.5,257.8c0,1.6,1.3,7.8,3.6,8.8"/>
	<path d="
		M433.7,257.8c-0.9,0.4-9.8,12.3-9.4,15.1"/>
	<path d="
		M445.2,257.7c-1.8,0.9-13,9.7-9.6,13.2s13.4-0.1,13.6-3.5s-4.5-8.6-4.5-8.6"/>
	<path d="
		M455.9,261.8c-0.7,2-2,8.4,1.2,10.6s11.4-7.7,10.9-12.1"/>
	<path d="
		M483.3,270.9c0-1.5,5.8-12.1,5.8-12.1"/>
	<path d="
		M488.4,261.2c0,1.4,0.3,9.9,3.5,10.1s5.1-13,5.1-13"/>
	<path d="
		M502.7,259.6c0.9,2-2.8,10-2.4,11.1c0.4,1.1,7.7,2,11.2,0.4"/>
	<path d="
		M502.2,259.9c0.4-0.3,10.2-1.8,10.8-2.4"/>
	<path d="
		M502.2,264.4c0.7,0.2,6.3,0.8,7,0"/>
	<path d="
		M518.1,258.4c0.9,0.4,8.2,11.7,8.2,13.7"/>
	<path d="
		M529.3,258.4c-1.3,0.3-15,11.5-14,14.4"/>
	<path d="
		M532.9,258.9c1.2,0.3,13.1-1.8,14.8-1.4"/>
	<path d="
		M540.3,257.8c0.3,1.1-4.7,11.8-4.7,13.1s1.1,2.4,1.1,2.4"/>
	<path d="
		M560.5,257.8c0,1.6,1.3,7.8,3.6,8.8"/>
	<path d="
		M569.7,257.8c-0.9,0.4-9.8,12.3-9.4,15.1"/>
	<path d="
		M573.7,260.6c0.9,2-2.8,10-2.4,11.1c0.4,1.1,7.7,2,11.2,0.4"/>
	<path d="
		M573.2,260.9c0.4-0.3,10.2-1.8,10.8-2.4"/>
	<path d="
		M573.2,265.4c0.7,0.2,6.3,0.8,7,0"/>
	<path d="
		M586.7,272.2c0-1.4,5.2-12.7,8.5-13.8c0,0,5.3,11.5,2.3,14.2"/>
	<path d="
		M591.5,268.8c1.4,0,8.3-1.9,9.6-2.8"/>
	<path d="
		M607.1,262.1c0.1,0.6-1.7,9.9-1.7,9.9"/>
	<path d="
		M608.2,263.6c0-1.1,4-5.6,4.7-5.7s5.4,4.2,3.9,5.7s-8.6,3.1-8.6,3.1s1.8,5.4,9.4,6.2"/>
</g>
</svg>
