<?xml version="1.0" encoding="utf-8"?>
<!-- Generator: Adobe Illustrator 18.0.0, SVG Export Plug-In . SVG Version: 6.00 Build 0)  -->
<!DOCTYPE svg PUBLIC "-//W3C//DTD SVG 1.1//EN" "http://www.w3.org/Graphics/SVG/1.1/DTD/svg11.dtd">
<svg version="1.1" id="Layer_1" xmlns="http://www.w3.org/2000/svg" xmlns:xlink="http://www.w3.org/1999/xlink" x="0px" y="0px"
	 viewBox="0 0 904.5 436.5" enable-background="new 0 0 904.5 436.5" xml:space="preserve">
<path fill="none" stroke="#FFFFFF" stroke-width="120" stroke-linejoin="bevel" stroke-miterlimit="10" d="M20,96.5
	c-2.1,25.7-4.3,51.4-6.4,77.1c22-28.2,44-56.4,66.1-84.5c-31.6,57.7-63.2,115.4-94.8,173.1c64.6-50.9,122.8-110,172.8-175.4
	c-19.4,38.4-38.9,76.8-58.3,115.2c38.1-4.3,73.1-29.6,89.1-64.4c5.9-12.9,9.5-27.1,18.4-38.1c8.9-11,25.8-17.6,37.3-9.4
	c13.4,9.4,10.3,29.7,5.9,45.4c-6.4,22.4-12.7,44.9-19.1,67.3c8.3-0.2,16.5-0.5,24.8-0.7c-60.5,16.4-122.5,33.4-172.9,70.6
	S-4.4,372,6.6,433.6C43.4,383.4,80.3,333.2,117.1,283c-12.3,45.7-24.5,91.3-36.8,137c34.5-8.1,51.3-46.4,62.2-80.1
	s25-72.2,58.5-83.9c-2.6,44.7,12,90.1,40,125c14.3-103,28.7-206.1,43-309.1c-13.9,8.1-33.6-3.2-36.8-18.9s7.3-32.1,21.7-39.3
	c14.4-7.2,31.6-6.8,47.2-2.9s30.2,10.9,45.3,16.6c60.9,22.9,130.3,22.3,190.9-1.6c18.4-7.3,36.1-16.6,55.4-20.9
	c19.3-4.3,41.2-2.8,56.4,9.8c15.2,12.6,19.7,38.5,5.6,52.3c-10.2,10-25.8,11-40,11.5c-93.8,3.3-187.6,6.7-281.5,10
	c-0.8,69.2-1.6,138.3-2.4,207.5c-0.1,11.2,0.7,24.4,10,30.7c9.2,6.2,21.5,2.2,31.8-1.9C459.4,295.8,534,265,584.3,206.2
	c18.5-21.7,33.1-46.5,51.9-68s43-40.2,71.3-43.6c-46.1,84.7-92.2,169.4-138.2,254.1c55.8-46.7,102.5-104.3,136.6-168.6
	c9.9-18.7,19-38.2,32.7-54.4s33.3-28.8,54.5-28.7c-29.6,73.5-59.2,146.9-88.9,220.4c2.4-4.2,4.8-8.5,7.1-12.7
	c51.3-25.7,102.7-51.3,154-77c-10.5,36-21,71.9-31.6,107.9c-2.1,7-4,15.1,0,21.3c4.5,6.9,14.8,7.8,22.2,4.3
	c7.4-3.6,12.6-10.4,17.5-17c-3.3,25.9,3.3,66.3,0,92.2"/>
<g>
	<g>
		
			<line fill="none" stroke="#000000" stroke-width="7" stroke-linecap="round" stroke-linejoin="round" stroke-miterlimit="10" x1="9.4" y1="186.2" x2="264.3" y2="186.2"/>
		
			<line fill="none" stroke="#000000" stroke-width="7" stroke-linecap="round" stroke-linejoin="round" stroke-miterlimit="10" x1="31.4" y1="248.4" x2="31.4" y2="124"/>
		
			<polyline fill="none" stroke="#000000" stroke-width="7" stroke-linecap="round" stroke-linejoin="round" stroke-miterlimit="10" points="
			242.6,163.7 264.6,186.2 242.6,208.7 		"/>
		
			<polyline fill="none" stroke="#000000" stroke-width="7" stroke-linecap="round" stroke-linejoin="round" stroke-miterlimit="10" points="
			8.9,146.1 31.4,124.1 53.9,146.1 		"/>
	</g>
	<g>
		<text transform="matrix(1 0 0 1 8.8745 111.9274)" fill="#00A99D" font-family="'PermanentMarker'" font-size="30.74">power over things</text>
		<text transform="matrix(1 0 0 1 220.572 147.3654)" font-family="'PermanentMarker'" font-size="30.74">age</text>
		<path fill="none" stroke="#00A99D" stroke-width="7" stroke-linecap="round" stroke-miterlimit="10" d="M35,183.2
			c17.4,1.6,35,3.3,52.3,1s34.6-8.8,46.8-21.4c7.6-7.9,12.9-17.8,20.1-26.1c7.2-8.3,17.6-15.2,28.5-13.9c9,1.1,16.6,7.7,21.3,15.5
			s6.7,16.8,8.8,25.7c4.8,20.7,9.5,41.3,14.3,62"/>
	</g>
</g>
<g>
	<g>
		
			<line fill="none" stroke="#000000" stroke-width="7" stroke-linecap="round" stroke-linejoin="round" stroke-miterlimit="10" x1="9.4" y1="367.2" x2="264.3" y2="367.2"/>
		
			<line fill="none" stroke="#000000" stroke-width="7" stroke-linecap="round" stroke-linejoin="round" stroke-miterlimit="10" x1="31.4" y1="429.4" x2="31.4" y2="305"/>
		
			<polyline fill="none" stroke="#000000" stroke-width="7" stroke-linecap="round" stroke-linejoin="round" stroke-miterlimit="10" points="
			242.6,344.7 264.6,367.2 242.6,389.7 		"/>
		
			<polyline fill="none" stroke="#000000" stroke-width="7" stroke-linecap="round" stroke-linejoin="round" stroke-miterlimit="10" points="
			8.9,327.1 31.4,305.1 53.9,327.1 		"/>
	</g>
	<g>
		<text transform="matrix(1 0 0 1 9.3745 292.0783)" fill="#D4145A" font-family="'PermanentMarker'" font-size="30.74">responsibilities</text>
		<text transform="matrix(1 0 0 1 220.572 328.3654)" font-family="'PermanentMarker'" font-size="30.74">age</text>
		<path fill="none" stroke="#D4145A" stroke-width="7" stroke-linecap="round" stroke-miterlimit="10" d="M34.2,366.1
			c5.2,2.1,11.4,0.5,15.9-2.8s7.7-8.2,10.4-13.1c6-10.9,10.3-22.7,18.3-32.2s21-16.2,32.7-12.2c8,2.7,13.5,9.7,19.3,15.8
			c29,31.1,72.3,48.4,114.7,45.6"/>
	</g>
</g>
<g>
	<text transform="matrix(1 0 0 1 235.4502 45.0783)" font-family="'PermanentMarker'" font-size="30.74">life satisfaction =</text>
	<g>
		<text transform="matrix(1 0 0 1 547.6421 23.476)" fill="#00A99D" font-family="'PermanentMarker'" font-size="30.74">power</text>
	</g>
	<path fill="none" stroke="#000000" stroke-width="7" stroke-linecap="round" stroke-linejoin="round" stroke-miterlimit="10" d="
		M527.4,37.4c44.7-0.6,89.3-1.2,134-1.8"/>
	<g>
		<text transform="matrix(1 0 0 1 478.1768 74.3739)" fill="#D4145A" font-family="'PermanentMarker'" font-size="30.74">responsibilities</text>
	</g>
</g>
<g>
	
		<line fill="none" stroke="#000000" stroke-width="7" stroke-linecap="round" stroke-linejoin="round" stroke-miterlimit="10" x1="359.3" y1="318.5" x2="359.3" y2="69.5"/>
	
		<line fill="none" stroke="#000000" stroke-width="7" stroke-linecap="round" stroke-linejoin="round" stroke-miterlimit="10" x1="336.8" y1="296" x2="891.6" y2="296"/>
	
		<polyline fill="none" stroke="#000000" stroke-width="7" stroke-linecap="round" stroke-linejoin="round" stroke-miterlimit="10" points="
		336.8,90 359.3,68 381.8,90 	"/>
	
		<polyline fill="none" stroke="#000000" stroke-width="7" stroke-linecap="round" stroke-linejoin="round" stroke-miterlimit="10" points="
		869.5,273.5 891.5,296 869.5,318.5 	"/>
	<text transform="matrix(1 0 0 1 847.1245 263.028)" font-family="'PermanentMarker'" font-size="30.74">age</text>
</g>
<path fill="none" stroke="#D4145A" stroke-width="7" stroke-linecap="round" stroke-miterlimit="10" d="M364.4,111
	c14.4,73,65.9,138.4,135.3,172c22.9,11.1,49.6,18.9,74.1,11.4c29.2-9,46.8-37.1,58.5-64.1c11.4-26.3,20-54.2,37.3-77.4
	s46.2-41.4,75.7-36.8c18.5,2.8,34.7,14.3,46.2,28.4c11.5,14.1,18.9,30.9,25.6,47.6c28.2,71.1,44.9,146.3,49.3,222.2"/>
<g>
	<path fill="none" stroke="#000000" stroke-width="7" stroke-linecap="round" stroke-miterlimit="10" d="M423.8,284.8
		c-0.8,6.5-1.6,12.9-2.4,19.4"/>
	
		<line fill="none" stroke="#000000" stroke-width="7" stroke-linecap="round" stroke-miterlimit="10" x1="550.5" y1="287.5" x2="550.5" y2="303.5"/>
	<path fill="none" stroke="#000000" stroke-width="7" stroke-linecap="round" stroke-miterlimit="10" d="M662,286.5
		c0.7,5.8,1.4,11.6,2,17.3"/>
	<path fill="none" stroke="#000000" stroke-width="7" stroke-linecap="round" stroke-miterlimit="10" d="M777.1,286.5
		c-0.2,5.8-0.4,11.6-0.6,17.3"/>
	<text transform="matrix(1 0 0 1 401.8647 333.978)" font-family="'PermanentMarker'" font-size="31">20</text>
	<text transform="matrix(1 0 0 1 531.1553 333.978)" font-family="'PermanentMarker'" font-size="31">30</text>
	<text transform="matrix(1 0 0 1 643.3647 333.978)" font-family="'PermanentMarker'" font-size="31">40</text>
	<text transform="matrix(1 0 0 1 756.9424 333.978)" font-family="'PermanentMarker'" font-size="31">50</text>
</g>
</svg>
