<?xml version="1.0" encoding="utf-8"?>
<!-- Generator: Adobe Illustrator 18.0.0, SVG Export Plug-In . SVG Version: 6.00 Build 0)  -->
<!DOCTYPE svg PUBLIC "-//W3C//DTD SVG 1.1//EN" "http://www.w3.org/Graphics/SVG/1.1/DTD/svg11.dtd">
<svg version="1.1" id="Layer_1" xmlns="http://www.w3.org/2000/svg" xmlns:xlink="http://www.w3.org/1999/xlink" x="0px" y="0px"
	 viewBox="0 0 942 332" enable-background="new 0 0 942 332" xml:space="preserve">
<path fill="none" stroke="#FFFFFF" stroke-width="120" stroke-linejoin="bevel" stroke-miterlimit="10" d="M-1.1,150.6
	c59.2,15.1,126.1-5.4,166.7-51c18.1-20.3,31-44.7,48.5-65.6s41.7-38.8,68.9-38.6c5.1,17.9-0.3,37.4-9.7,53.5
	c-9.4,16.1-22.5,29.6-34.2,44c-41.3,50.5-67.2,113.5-73.2,178.5c8.1,7.9,22.2,5.9,30.9-1.3c8.7-7.1,13.4-18,17.8-28.4
	c21.1-50.1,42.2-100.2,63.4-150.3c9.7-23,19.6-46.4,35.4-65.7s38.5-34.5,63.5-35.3c-51.2,89.7-99.3,181.1-144.3,274.1
	c-6.3,13-12.6,26.6-11.9,41c0.7,14.4,11,29.4,25.4,30c15.5,0.7,26.7-14.2,34.8-27.5c74.3-122.1,107-155.3,166-285.5
	c5.7,67.6,18,41-8.3,103.6C412,188.8,380.7,250,366,316.2c15.5,8.6,35.8,3.5,49.2-8c13.4-11.5,21.3-28.2,27.6-44.8
	c14.7-38.7,23.1-79.4,36.3-118.6s31.8-77.9,62.6-105.5c11.6-10.3,28.1-19.2,42-12.4c18.8,9.2,15.9,36.6,9.1,56.4
	c-19.5,56.5-47.6,110-83.1,158.1c-9.3,12.5-19.3,25.3-22.4,40.6c-3.1,15.3,3.5,33.8,18.4,38.4c20.3,6.3,37.6-15.2,47.9-33.8
	c27.5-50,53.3-100.9,77.4-152.6c4-8.5,9.1-18.1,18.3-20.2c10.5-2.3,20.6,7.3,22.9,17.8c2.3,10.5-1.1,21.3-4.4,31.5
	c-16,49.6-32,99.2-48,148.8c11.4,14.3,35.1,3.6,46-11.1c31.1-41.9,24.6-105.3,61.4-142.3c23.6-23.7,59.5-30.2,92.9-30.1
	c33.4,0.1,95.6,7.2,128.7,2.3"/>
<g>
	<g>
		<path fill="none" stroke="#478EB0" stroke-width="7" stroke-linecap="round" stroke-linejoin="round" stroke-miterlimit="10" d="
			M462.1,41.9c27.7,16.4,44.3,49.9,40.4,81.9"/>
		<path fill="none" stroke="#478EB0" stroke-width="7" stroke-linecap="round" stroke-linejoin="round" stroke-miterlimit="10" d="
			M496.5,119.5c3,3.2,5.2,7.1,6.4,11.3c2.3-3.6,5.1-6.8,8.4-9.6"/>
	</g>
	<g>
		<path fill="none" stroke="#478EB0" stroke-width="7" stroke-linecap="round" stroke-linejoin="round" stroke-miterlimit="10" d="
			M518.7,172.1c-3.7,41.5-29.8,80.4-66.9,99.4"/>
		<path fill="none" stroke="#478EB0" stroke-width="7" stroke-linecap="round" stroke-linejoin="round" stroke-miterlimit="10" d="
			M452,261.3c-1,4.3-2.9,8.3-5.4,11.9c8.4,0.8,16.7,2.2,24.8,4.2"/>
	</g>
	<g>
		<path fill="none" stroke="#478EB0" stroke-width="7" stroke-linecap="round" stroke-linejoin="round" stroke-miterlimit="10" d="
			M302.5,271.7c-19.5-2-36.6-15-48.1-30.9c-11.5-15.9-18.2-34.7-24.8-53.2"/>
		<path fill="none" stroke="#478EB0" stroke-width="7" stroke-linecap="round" stroke-linejoin="round" stroke-miterlimit="10" d="
			M222.1,193.5c2.5-3.1,5.1-6.3,7.6-9.4c3.1,2.5,6.2,5,9.4,7.6"/>
	</g>
	<g>
		<path fill="none" stroke="#478EB0" stroke-width="7" stroke-linecap="round" stroke-linejoin="round" stroke-miterlimit="10" d="
			M242.8,125.8c-3.5-14.1-1.3-29.5,5.8-42.2c3.1-5.5,7-10.4,10.9-15.3c6.4-8,13.1-16.2,22.3-20.7"/>
		<path fill="none" stroke="#478EB0" stroke-width="7" stroke-linecap="round" stroke-linejoin="round" stroke-miterlimit="10" d="
			M271,44.5c0,0,10.1,0,15,0c0.4,4-1.3,8-4.2,10.7"/>
	</g>
</g>
<g>
	<text transform="matrix(1 0 0 1 222.1165 32)" font-family="'PermanentMarker'" font-size="30.7418">not a very efficient day</text>
	<g>
		<path fill="none" stroke="#478EB0" stroke-width="7" stroke-linecap="round" stroke-linejoin="round" stroke-miterlimit="10" d="
			M581.5,22.7C614,47.7,635.1,87,638,128"/>
		<path fill="none" stroke="#478EB0" stroke-width="7" stroke-linecap="round" stroke-linejoin="round" stroke-miterlimit="10" d="
			M628.7,121.9c3.3,2.1,6.2,4.9,8.5,8.1c2.5-4.2,5.1-8.4,7.6-12.5"/>
	</g>
</g>
<g>
	<text transform="matrix(1 0 0 1 464.3635 160)" font-family="'PermanentMarker'" font-size="30.7418">i’m a little behind on schedule</text>
	<g>
		<path fill="none" stroke="#478EB0" stroke-width="7" stroke-linecap="round" stroke-linejoin="round" stroke-miterlimit="10" d="
			M636.2,182c-0.3,38.3-15.9,76.2-42.6,103.6"/>
		<path fill="none" stroke="#478EB0" stroke-width="7" stroke-linecap="round" stroke-linejoin="round" stroke-miterlimit="10" d="
			M591.9,276c0.6,3.5,0.2,7.2-1.1,10.5c5.3,0.4,10.6,1.2,15.8,2.5"/>
	</g>
</g>
<g>
	<text transform="matrix(1 0 0 1 177.7278 314)" font-family="'PermanentMarker'" font-size="30.7418">and a little more stressed</text>
	<g>
		<path fill="none" stroke="#478EB0" stroke-width="7" stroke-linecap="round" stroke-linejoin="round" stroke-miterlimit="10" d="
			M210,275c-13.3-1.3-22.1-14.1-28.9-25.7c-13-22.1-26.4-45.7-25.6-71.3"/>
		<path fill="none" stroke="#478EB0" stroke-width="7" stroke-linecap="round" stroke-linejoin="round" stroke-miterlimit="10" d="
			M145.9,189.9c1.5-3.6,3.1-7.5,6.2-9.9c1.2-0.9,2.5-1.5,3.9-1.9c3.7,3.6,7.4,7.1,11.2,10.7"/>
	</g>
</g>
<g>
	<text transform="matrix(1 0 0 1 6.6001 159.9995)" font-family="'PermanentMarker'" font-size="30.7418">slept a little less</text>
	<g>
		<path fill="none" stroke="#478EB0" stroke-width="7" stroke-linecap="round" stroke-linejoin="round" stroke-miterlimit="10" d="
			M155.6,120.1c-5-34.4,15.1-70.9,46.8-85.1"/>
		<path fill="none" stroke="#478EB0" stroke-width="7" stroke-linecap="round" stroke-linejoin="round" stroke-miterlimit="10" d="
			M191.3,30c5.2-0.2,10.4-0.1,15.6,0.2c1.3,0.1,3.1,1.3,2.2,2.2c-3,2.8-5.7,6.1-7.9,9.6"/>
	</g>
</g>
<path fill="none" stroke="#478EB0" stroke-width="7" stroke-linecap="round" stroke-linejoin="round" stroke-miterlimit="10" d="
	M368.6,49.2c11.2-5.2,24.8-1.9,34.9,5.2c10.1,7.1,17.4,17.4,24.4,27.5c2.7,3.9,5.4,7.8,6.8,12.3c1.2,3.9,1.3,8,1.3,12.1
	c0.2,8.8,0.3,17.5,0.5,26.3c0.2,11.8,0.4,24-3.9,35.1c-5.4,13.8-17.5,24.3-31.3,29.8c-13.8,5.5-29,6.3-43.7,4.6
	c-8.2-1-16.6-2.8-23.5-7.4c-9.1-6.1-14.5-16.4-18.1-26.7c-6.7-18.8-7.6-42.5,7.2-56c11.2-10.2,27.9-11.2,43.1-10.7
	c8.3,0.3,17,1,23.9,5.6c8.9,5.9,12.9,17.3,12.5,27.9s-4.5,20.8-9,30.4c-4.4,1.7-8.9,3.4-13.5,4.5c-9.1,2.2-19.3,2.1-27-3.2
	c-7.7-5.3-11.5-16.7-6.2-24.4c2.1-0.7,4.3-1.5,6.4-2.2c5.5-1.9,11.9-3.8,17-1c5.1,2.8,5.2,12.6-0.6,13.2"/>
</svg>
