<?xml version="1.0" encoding="utf-8"?>
<!-- Generator: Adobe Illustrator 18.0.0, SVG Export Plug-In . SVG Version: 6.00 Build 0)  -->
<!DOCTYPE svg PUBLIC "-//W3C//DTD SVG 1.1//EN" "http://www.w3.org/Graphics/SVG/1.1/DTD/svg11.dtd">
<svg version="1.1" id="Layer_1" xmlns="http://www.w3.org/2000/svg" xmlns:xlink="http://www.w3.org/1999/xlink" x="0px" y="0px"
	 viewBox="0 0 399.3 300" enable-background="new 0 0 399.3 300" xml:space="preserve">
<path fill="none" stroke="#FFFFFF" stroke-width="120" stroke-linejoin="bevel" stroke-miterlimit="10" d="M57.2-7.8
	c-9.1,65.1-22.7,134.9-31.8,200c-1.9,13.8-3.8,28-1.1,41.6c2.8,13.7,11.2,27,24.3,31.9c15.1,5.6,32.8-1.9,42.7-14.6
	s13.2-29.4,13.4-45.5c0.1-9.6-0.8-19.3,1.2-28.8s7.4-18.8,16.4-22.3c16.2-6.3,32.9,9.5,39.2,25.7c6.3,16.2,7.9,34.9,19.3,48.2
	c13.8,16.1,39.1,18.7,58.6,10.4c19.5-8.4,34-25.6,44.6-43.9s18.2-38.4,28.6-56.9c18-32.1,44.3-59.5,75.8-78.6
	c11.8,47.1,12.7,96.9,2.8,144.4c-3.9,18.4-10,37.4-24,50c-22.8,20.4-57.6,16.9-87.8,12.1"/>
<g>
	
		<line fill="none" stroke="#010101" stroke-width="7" stroke-linecap="round" stroke-linejoin="round" stroke-miterlimit="10" x1="34.3" y1="33.2" x2="34.3" y2="263.8"/>
	
		<line fill="none" stroke="#010101" stroke-width="7" stroke-linecap="round" stroke-linejoin="round" stroke-miterlimit="10" x1="388.7" y1="241.3" x2="11.8" y2="241.3"/>
	
		<polyline fill="none" stroke="#010101" stroke-width="7" stroke-linecap="round" stroke-linejoin="round" stroke-miterlimit="10" points="
		12.2,55.2 34.7,33.2 57.2,55.2 	"/>
	
		<polyline fill="none" stroke="#010101" stroke-width="7" stroke-linecap="round" stroke-linejoin="round" stroke-miterlimit="10" points="
		366.7,218.8 388.7,241.3 366.7,263.8 	"/>
</g>
<text transform="matrix(1 0 0 1 280.8105 295.1169)" fill="#010101" font-family="'PermanentMarker'" font-size="31">honesty</text>
<text transform="matrix(1 0 0 1 3.8018 22.4512)" fill="#231F20" font-family="'PermanentMarker'" font-size="31">cruelty</text>
<path fill="none" stroke="#354896" stroke-width="7" stroke-linecap="round" stroke-linejoin="round" stroke-miterlimit="10" d="
	M44.7,62.5c10.8,34.7,22,70.2,44.5,100.8c20.6,27.9,50.4,49.7,87.9,58.1c35.7,7.9,73.3,2.8,105-13.3c30.1-15.3,54.1-39,69.9-65.8
	c15-25.5,23-53.8,26.5-82.1"/>
</svg>
