<?xml version="1.0" encoding="utf-8"?>
<!-- Generator: Adobe Illustrator 18.0.0, SVG Export Plug-In . SVG Version: 6.00 Build 0)  -->
<!DOCTYPE svg PUBLIC "-//W3C//DTD SVG 1.1//EN" "http://www.w3.org/Graphics/SVG/1.1/DTD/svg11.dtd">
<svg version="1.1" id="Layer_1" xmlns="http://www.w3.org/2000/svg" xmlns:xlink="http://www.w3.org/1999/xlink" x="0px" y="0px"
	 viewBox="0 0 497.3 394" enable-background="new 0 0 497.3 394" xml:space="preserve">
<path fill="none" stroke="#FFFFFF" stroke-width="120" stroke-linejoin="bevel" stroke-miterlimit="10" d="M41.4-0.8
	C19.8,18.4,5.1,45,0.5,73.5C48.2,40.3,95.9,7.1,143.6-26C99.8,26.3,56,78.7,12.2,131.1c34.5,8.1,68.9-14.9,92-41.8
	s40.7-59.2,69-80.5c7.5-5.6,16-10.5,25.3-11.7s19.6,1.9,25.1,9.5c7.6,10.7,3.2,26.3-6,35.6c-9.2,9.3-21.8,14.1-33.8,19.5
	C89,104.2,21.3,201.5,14.4,305.1c30.6-4.7,60-17.3,84.5-36.3c-2.2,11,10.2,20.7,21.4,19.9s20.7-8.4,29-16s16.7-16,27.6-19
	c0.9,17.9,18.9,31.3,36.8,32.5s35.1-6.9,50.2-16.5c15.1-9.7,29.2-21.2,45.7-28.1s36.6-8.5,51.6,1.4c7.5,11.6,1.2,27.8-9.4,36.6
	c-10.6,8.8-24.5,12.4-37.4,17.3c-39.9,15.2-73.8,45.3-93.5,83.2c49.6-15.8,94.6-45.8,128.2-85.5c-4.8,36.5-18.5,71.8-39.8,101.9
	c39.5-15.6,75.4-40.2,104.2-71.4c2.1,18.6,4.1,37.2,6.2,55.8c19.5-1.5,38.2-11,50.9-25.8c4,5.5,22.7,11.1,26.7,16.6"/>
<g>
	
		<line fill="none" stroke="#000000" stroke-width="7" stroke-linecap="round" stroke-linejoin="round" stroke-miterlimit="10" x1="35.4" y1="38.7" x2="35.4" y2="316.4"/>
	
		<line fill="none" stroke="#000000" stroke-width="7" stroke-linecap="round" stroke-linejoin="round" stroke-miterlimit="10" x1="361" y1="294" x2="12.3" y2="294"/>
</g>
<g>
	
		<polyline fill="none" stroke="#000000" stroke-width="7" stroke-linecap="round" stroke-linejoin="round" stroke-miterlimit="10" points="
		12.9,60.7 35.4,38.7 57.9,60.7 	"/>
</g>
<g>
	<g>
		
			<polyline fill="none" stroke="#000000" stroke-width="7" stroke-linecap="round" stroke-linejoin="round" stroke-miterlimit="10" points="
			339,271.5 361,294 339,316.5 		"/>
	</g>
	<text transform="matrix(1 0 0 1 323.0267 262.0243)" font-family="'PermanentMarker'" font-size="30.74">age</text>
</g>
<text transform="matrix(1 0 0 1 5.6668 25.6667)" font-family="'PermanentMarker'" font-size="30.74">how adult i feel</text>
<text transform="matrix(1 0 0 1 206.4017 350.6667)"><tspan x="0" y="0" font-family="'PermanentMarker'" font-size="30.74">(how much my age </tspan><tspan x="-3.5" y="36.9" font-family="'PermanentMarker'" font-size="30.74">means i’m an adult)</tspan></text>
<path fill="none" stroke="#39B54A" stroke-width="7" stroke-linecap="round" stroke-miterlimit="10" d="M40.7,294
	c19.3,0,44.9-2.6,55.7-8.7c10.8-6.2,22.2-13.7,34.5-11.7c15,2.5,26.4,19,41.5,17.3c15.7-1.8,26.4-22.8,41.9-19.4
	c13.9,3,19.9,24.6,34.1,23.4c12.3-1,16.2-18.3,27.3-23.7c11.4-5.6,24.3,3.3,34.2,11.2s24.3,15.4,34.4,7.7"/>
</svg>
