<?xml version="1.0" encoding="utf-8"?>
<!-- Generator: Adobe Illustrator 19.2.0, SVG Export Plug-In . SVG Version: 6.00 Build 0)  -->
<svg version="1.1" id="Layer_1" xmlns="http://www.w3.org/2000/svg" xmlns:xlink="http://www.w3.org/1999/xlink" x="0px" y="0px"
	 width="844.47px" height="422.57px" viewBox="0 0 844.47 422.57" enable-background="new 0 0 844.47 422.57" xml:space="preserve">
<path fill="none" stroke="#FFFFFF" stroke-width="120" stroke-linejoin="bevel" stroke-miterlimit="10" d="M37.44,19.13
	c-12.4,28.5-24.8,57.01-37.21,85.51c27.81-27.26,55.62-54.52,83.43-81.78c-24.19,42.39-48.38,84.78-72.57,127.16
	C49.31,111.56,87.54,73.1,125.76,34.65c-16.78,37.41-33.56,74.83-50.35,112.24c33.84-33.8,67.68-67.61,101.52-101.41
	c-10.19,35.95-20.38,71.89-30.57,107.84c36.11-36.63,65.07-80.29,84.76-127.81c-5.76,39.24-11.51,78.49-17.27,117.73
	c31.78-31.55,63.57-63.09,95.35-94.64c-10.64,14.43-21.8,30.57-20.44,48.45s23.07,33.97,37.45,23.27c4.33-3.23,7.06-8.12,9.66-12.86
	c9.61-17.53,19.23-35.07,28.84-52.6c2.64,21.82,5.28,43.64,7.92,65.46c17.3-24.36,34.61-48.71,51.91-73.07
	c2.44,20.65,4.89,41.31,7.33,61.96c9.43-19.52,18.86-39.04,28.28-58.57c4.3,17.35,8.61,34.69,12.91,52.04
	c3.57-22.64,7.13-45.29,10.7-67.93c-9.89,20.02,0.6,47.41,21.33,55.71c20.73,8.3,47.22-4.3,53.87-25.62
	c-7.29,4.6-10.41,14.82-6.92,22.71S565.2,100,573.52,97.7c7.86-2.17,13.25-9.21,18.04-15.81c21.31-29.38,42.61-58.76,63.92-88.15
	c-9.88,27.71-19.77,55.42-29.65,83.14c29.33-24.34,58.66-48.68,87.99-73.02c-24,45.93-47.99,91.87-71.99,137.8
	C697.4,77.09,752.99,12.51,808.58-52.06C796.5-27.31,784.43-2.56,772.35,22.2c-3.51,7.19-7.11,14.92-6,22.84
	c2.46,17.68,27.6,23.66,42.81,14.32s22.45-27.25,28.72-43.96c-22.61,36.15-45.22,72.3-67.83,108.45
	c9.68-17.47,19.37-34.94,29.05-52.41c-76.85,41.23-153.69,82.46-230.54,123.68c22.94-15.62,45.88-31.23,68.82-46.85
	c-21.33,33.09-42.66,66.18-63.99,99.27c28.17-25.56,56.34-51.12,84.5-76.68c-11.63,21.74-23.26,43.48-34.9,65.23
	c31.29-8.72,59.44-28.34,78.46-54.67c-12.17,39.54-24.34,79.09-36.51,118.63c31.87-11.75,70.14-22.75,97.53-2.67
	c35.16,25.77,25.81,82.38,51.1,117.89c-31.68-37.81-63.36-75.61-95.03-113.42c1.52,26.83,3.05,53.66,4.57,80.49
	c-17.85-25.23-35.7-50.45-53.55-75.68c-5.66,32.9-0.09,67.63,15.57,97.11c-18.33-48.77-36.66-97.53-54.99-146.3
	c0.5,26.53,0.88,53.74-8.03,78.73c-8.92,24.99-29.29,47.67-55.55,51.48c-30.23,4.38-61.34-21.2-62.89-51.7
	c-8.01,14.2-16.01,28.39-24.02,42.59c-2.79,4.95-5.62,9.96-9.46,14.15c-16.26,17.74-50.06,13.07-60.9-8.41s5.49-51.44,29.42-53.98
	c-14.79,21.04-29.58,42.07-44.38,63.11c-1.12-19.98-2.25-39.96-3.37-59.95c-14.15,16.97-18.6,41.52-11.28,62.37
	c-18.27-3.76-34.2-14.55-49.58-25.11c-33.88-23.25-67.76-46.5-101.64-69.75c-24.81,34.02-49.61,68.04-74.42,102.06
	c14.7-5.41,25.45-20.17,26.11-35.82c0.65-15.65-8.83-31.25-23.02-37.87c-6.74-3.14-14.28-4.35-21.72-4.18
	c-33.64,0.77-63.06,33.46-60.3,66.99c6.11-37.05,12.22-74.1,18.33-111.14c-34.82,28.18-57.96,70.38-62.99,114.89
	c12.19,6.94,28.15,3.55,39.57-4.59s19.3-20.23,26.9-32.02c30.35-47.08,60.69-94.17,91.04-141.25c-2.79,24.07-5.57,48.15-8.36,72.22
	c22.12-53.87,44.24-107.74,66.35-161.61c-2.08,47.47-4.15,94.95-6.23,142.42c6.4-21.71,12.8-43.42,19.2-65.12
	c10.46,21.27,20.92,42.55,31.38,63.82c2.99-27.32,5.97-54.64,8.96-81.96c-2.04,34.29,10.02,69.2,32.78,94.93
	c3.22-91.23-57.75-181.15-143.69-211.92"/>
<text transform="matrix(1 0 0 1 407.2555 69.0916)"><tspan x="0" y="0" font-family="'PermanentMarker'" font-size="30.74px">i feel</tspan><tspan x="-20.89" y="30" font-family="'PermanentMarker'" font-size="30.74px">s</tspan><tspan x="-7.23" y="30" font-family="'PermanentMarker'" font-size="30.74px">o </tspan><tspan x="23.48" y="30" font-family="'PermanentMarker'" font-size="30.74px" letter-spacing="-1">l</tspan><tspan x="38.64" y="30" font-family="'PermanentMarker'" font-size="30.74px">ucky</tspan></text>
<text transform="matrix(1 0 0 1 646.7932 30.5928)"><tspan x="0" y="0" font-family="'PermanentMarker'" font-size="30.74px">“s</tspan><tspan x="26.87" y="0" font-family="'PermanentMarker'" font-size="30.74px">t</tspan><tspan x="40.68" y="0" font-family="'PermanentMarker'" font-size="30.74px">o</tspan><tspan x="59.41" y="0" font-family="'PermanentMarker'" font-size="30.74px">p it with</tspan><tspan x="0" y="30" font-family="'PermanentMarker'" font-size="30.74px">y</tspan><tspan x="11.38" y="30" font-family="'PermanentMarker'" font-size="30.74px">o</tspan><tspan x="30.11" y="30" font-family="'PermanentMarker'" font-size="30.74px">ur </tspan><tspan x="76.1" y="30" font-family="'PermanentMarker'" font-size="30.74px">f</tspan><tspan x="89.79" y="30" font-family="'PermanentMarker'" font-size="30.74px">ake</tspan><tspan x="0" y="60" font-family="'PermanentMarker'" font-size="30.74px">mo</tspan><tspan x="44.37" y="60" font-family="'PermanentMarker'" font-size="30.74px">d</tspan><tspan x="59.35" y="60" font-family="'PermanentMarker'" font-size="30.74px">est</tspan><tspan x="104.38" y="60" font-family="'PermanentMarker'" font-size="30.74px">y</tspan><tspan x="116.09" y="60" font-family="'PermanentMarker'" font-size="30.74px">.”</tspan></text>
<g>
	<path fill="none" stroke="#A967AA" stroke-width="7" stroke-linecap="round" stroke-linejoin="round" stroke-miterlimit="10" d="
		M543.58,76.02c25.37-4.82,52.77,2.4,72.47,19.11s31.3,42.55,30.69,68.37"/>
	<path fill="none" stroke="#A967AA" stroke-width="7" stroke-linecap="round" stroke-linejoin="round" stroke-miterlimit="10" d="
		M637.19,159.38c2.96,2.51,5.92,5.02,8.88,7.54c3.44-2.51,6.88-5.02,10.33-7.54"/>
</g>
<text transform="matrix(1 0 0 1 570.4348 208.3567)"><tspan x="0" y="0" font-family="'PermanentMarker'" font-size="30.74px">i make my</tspan><tspan x="3.26" y="30" font-family="'PermanentMarker'" font-size="30.74px">own </tspan><tspan x="76.69" y="30" font-family="'PermanentMarker'" font-size="30.74px" letter-spacing="-1">l</tspan><tspan x="91.84" y="30" font-family="'PermanentMarker'" font-size="30.74px">uck</tspan></text>
<text transform="matrix(1 0 0 1 666.8786 331.2681)"><tspan x="0" y="0" font-family="'PermanentMarker'" font-size="30.74px">“don’t be</tspan><tspan x="0" y="30" font-family="'PermanentMarker'" font-size="30.74px">s</tspan><tspan x="13.66" y="30" font-family="'PermanentMarker'" font-size="30.74px">o full of</tspan><tspan x="0" y="60" font-family="'PermanentMarker'" font-size="30.74px">y</tspan><tspan x="11.38" y="60" font-family="'PermanentMarker'" font-size="30.74px">o</tspan><tspan x="30.11" y="60" font-family="'PermanentMarker'" font-size="30.74px">urself.”</tspan></text>
<g>
	<path fill="none" stroke="#F4783B" stroke-width="7" stroke-linecap="round" stroke-linejoin="round" stroke-miterlimit="10" d="
		M650.1,256.34c1.42,27.02-8.61,54.45-27.12,74.18c-18.51,19.73-45.24,31.49-72.3,31.8"/>
	<path fill="none" stroke="#F4783B" stroke-width="7" stroke-linecap="round" stroke-linejoin="round" stroke-miterlimit="10" d="
		M553.57,355.31c-3.09,2.24-6.17,4.48-9.26,6.72c4.89,1.35,9.09,4.98,11.13,9.62"/>
</g>
<text transform="matrix(1 0 0 1 374.3542 341.8307)"><tspan x="0" y="0" font-family="'PermanentMarker'" font-size="30.74px">th</tspan><tspan x="32.63" y="0" font-family="'PermanentMarker'" font-size="30.74px">e</tspan><tspan x="48.36" y="0" font-family="'PermanentMarker'" font-size="30.74px">re’s no</tspan><tspan x="-3.86" y="30" font-family="'PermanentMarker'" font-size="30.74px">such thing</tspan><tspan x="-0.45" y="60" font-family="'PermanentMarker'" font-size="30.74px">a</tspan><tspan x="16.81" y="60" font-family="'PermanentMarker'" font-size="30.74px">s su</tspan><tspan x="74.69" y="60" font-family="'PermanentMarker'" font-size="30.74px">c</tspan><tspan x="89.88" y="60" font-family="'PermanentMarker'" font-size="30.74px">c</tspan><tspan x="105.37" y="60" font-family="'PermanentMarker'" font-size="30.74px">ess</tspan></text>
<text transform="matrix(1 0 0 1 47.5213 325.6648)"><tspan x="0" y="0" font-family="'PermanentMarker'" font-size="30.74px">“don’t </tspan><tspan x="96.81" y="0" font-family="'PermanentMarker'" font-size="30.74px">y</tspan><tspan x="108.19" y="0" font-family="'PermanentMarker'" font-size="30.74px">o</tspan><tspan x="126.92" y="0" font-family="'PermanentMarker'" font-size="30.74px">u</tspan><tspan x="0" y="30" font-family="'PermanentMarker'" font-size="30.74px">care </tspan><tspan x="77.69" y="30" font-family="'PermanentMarker'" font-size="30.74px">a</tspan><tspan x="94.95" y="30" font-family="'PermanentMarker'" font-size="30.74px">b</tspan><tspan x="112.57" y="30" font-family="'PermanentMarker'" font-size="30.74px">o</tspan><tspan x="131.31" y="30" font-family="'PermanentMarker'" font-size="30.74px">ut</tspan><tspan x="0" y="60" font-family="'PermanentMarker'" font-size="30.74px">anything?”</tspan></text>
<g>
	<path fill="none" stroke="#6DC065" stroke-width="7" stroke-linecap="round" stroke-linejoin="round" stroke-miterlimit="10" d="
		M349.36,363.98c-24.45,8.4-53.02,3.58-73.36-12.38c-20.34-15.96-31.81-42.57-29.46-68.31"/>
	<path fill="none" stroke="#6DC065" stroke-width="7" stroke-linecap="round" stroke-linejoin="round" stroke-miterlimit="10" d="
		M238.9,291.23c2.44-4.93,4.89-9.86,7.33-14.79c2.16,3.39,4.32,6.79,6.48,10.18"/>
</g>
<text transform="matrix(1 0 0 1 191.9972 222.5921)"><tspan x="0" y="0" font-family="'PermanentMarker'" font-size="30.74px">i am </tspan><tspan x="75.5" y="0" font-family="'PermanentMarker'" font-size="30.74px">s</tspan><tspan x="89.16" y="0" font-family="'PermanentMarker'" font-size="30.74px">o</tspan><tspan x="-15.57" y="30" font-family="'PermanentMarker'" font-size="30.74px">d</tspan><tspan x="-0.59" y="30" font-family="'PermanentMarker'" font-size="30.74px">epressed</tspan></text>
<text transform="matrix(1 0 0 1 6.2309 59.7342)"><tspan x="0" y="0" font-family="'PermanentMarker'" font-size="30.74px">“</tspan><tspan x="12.61" y="0" font-family="'PermanentMarker'" font-size="30.74px">y</tspan><tspan x="23.99" y="0" font-family="'PermanentMarker'" font-size="30.74px">o</tspan><tspan x="42.72" y="0" font-family="'PermanentMarker'" font-size="30.74px">u sh</tspan><tspan x="104.23" y="0" font-family="'PermanentMarker'" font-size="30.74px">o</tspan><tspan x="122.96" y="0" font-family="'PermanentMarker'" font-size="30.74px">uld just</tspan><tspan x="0" y="30" font-family="'PermanentMarker'" font-size="30.74px">appr</tspan><tspan x="66.73" y="30" font-family="'PermanentMarker'" font-size="30.74px">e</tspan><tspan x="82.46" y="30" font-family="'PermanentMarker'" font-size="30.74px">ci</tspan><tspan x="108.1" y="30" font-family="'PermanentMarker'" font-size="30.74px" letter-spacing="-1">a</tspan><tspan x="124.43" y="30" font-family="'PermanentMarker'" font-size="30.74px">te how</tspan><tspan x="0" y="60" font-family="'PermanentMarker'" font-size="30.74px" letter-spacing="-1">l</tspan><tspan x="15.16" y="60" font-family="'PermanentMarker'" font-size="30.74px">ucky </tspan><tspan x="92.46" y="60" font-family="'PermanentMarker'" font-size="30.74px">y</tspan><tspan x="103.84" y="60" font-family="'PermanentMarker'" font-size="30.74px">o</tspan><tspan x="122.57" y="60" font-family="'PermanentMarker'" font-size="30.74px">u are.”</tspan></text>
<g>
	<path fill="none" stroke="#FBC9C3" stroke-width="7" stroke-linecap="round" stroke-linejoin="round" stroke-miterlimit="10" d="
		M235.22,190.13c0.26-28.16,12.01-56.05,31.97-75.91c19.97-19.86,47.92-31.45,76.08-31.55"/>
	<path fill="none" stroke="#FBC9C3" stroke-width="7" stroke-linecap="round" stroke-linejoin="round" stroke-miterlimit="10" d="
		M337.86,74.21c3.97,2.13,7.95,4.25,11.92,6.38c-4.17,3.8-8.33,7.61-12.5,11.41"/>
</g>
</svg>
