<?xml version="1.0" encoding="utf-8"?> <!-- Generator: Adobe Illustrator 18.0.0, SVG Export Plug-In . SVG Version: 6.00 Build 0) --> <!DOCTYPE svg PUBLIC "-//W3C//DTD SVG 1.1//EN" "http://www.w3.org/Graphics/SVG/1.1/DTD/svg11.dtd"> <svg version="1.1" id="Layer_1" xmlns="http://www.w3.org/2000/svg" xmlns:xlink="http://www.w3.org/1999/xlink" x="0px" y="0px" viewBox="0 0 717.4 378.8" enable-background="new 0 0 717.4 378.8" xml:space="preserve"> <path stroke="#FFFFFF" stroke-width="120" stroke-linejoin="bevel" d="M122.3-45.6 c-43.1,35-94.4,59-136.3,95.3s-74.9,91.3-62.8,145.5C42.1,127.4,157.1,52.6,267.4-28.4C185.3,106.1,59.5,212.8-5.3,356.5 C144.3,238.8,255,73.9,417.1-25.9c16.7-10.3,34.8-20,54.3-20.2c-11.5,41.7-46.6,71.7-78.5,100.9C257.2,179.1,150.2,334.4,82.4,505.4 c41.1-24.9,74.5-60.5,106.4-96.6C321.9,258.1,437.1,91.6,578.9-51c-5.1,36.4-27.1,67.7-46.8,98.8C455.6,168.4,406,309.3,410.4,452.1 c0.2,6.9,0.9,14.5,5.9,19.2c6,5.5,15.9,4.4,22.5-0.5c6.6-4.8,10.5-12.3,14.1-19.6C526.2,302.6,553.2,131.5,647.5-4.6 c9.7-13.9,24-29,40.5-25.2c-32.1,107.1-64,215.4-71.2,327c-1.9,29.6-1.9,60,7.2,88.2s28.8,54.4,56.5,64.9 c13.9-84,8.6-169.7,11.5-254.8c2.9-85,14.9-172.7,59.2-245.4"/> <g> <path d=" M16.2,29.7c0.5-1.2,2.4-13.5,3.9-14.6c2.3-1.6,12.6,1.3,6,5.8c-5,3.3-10.5,0.2-10.5,0.2"/> <path d=" M33.6,18.9c0.1,0.6-1.8,10-1.8,10 M44.3,29.5c-5.9,0.2-9.5-5.3-9.5-5.3s6.9-2.1,7.7-3.6c0.9-1.7-1.5-5.5-2.9-5.9 c-1.4-0.4-5.2,5.3-5.2,5.3"/> <path d=" M59,14.6c0,0-14.7,9-9.7,13.2c4.6,3.9,12.7-1.2,12.9-3.1c0.2-1.9-1.8-6.8-4.3-8.9"/> <path d=" M67.9,17.5c1,3.6,0.7,6.5-0.6,12.1 M67.3,29.5c16.1-5.5,11.7-10.9,0.6-14.9"/> <path d=" M84,17.4c-0.4,0.5-2.7,9.4,2.6,11.2c3.8,1.3,10.5-9,9.6-13.3"/> <path d=" M111,15.3c-9.1,0.7-17.8,14.4-0.4,13.2"/> <path d=" M116.6,15.7c0.6,0.3,14.7-2.4,16.3-1.8 M123.9,14.4c1.6,2.4-5.9,12.8-2.3,15.9"/> <path d=" M135.2,15.2c-0.4,0.5-2.5,11.2-1.2,14.6"/> <path d=" M143.8,15.2c0.6,0.7,0.5,13.8,1.9,14.1c0.3,0.1,4.6-11.5,9.6-14.8"/> <path d=" M160.2,14.2c-0.4,0.5-2.5,11.2-1.2,14.6"/> <path d=" M165.6,15.7c0.6,0.3,14.7-2.4,16.3-1.8 M172.9,14.4c1.6,2.4-5.9,12.8-2.3,15.9"/> <path d=" M185.9,23.5c-2.6-0.7-4.3-7.4-4.1-8.1 M191.6,14.9c-1.8,1-9.8,15.6-9.8,15.6"/> <line stroke-width="7" x1="35.5" y1="378.8" x2="35.5" y2="53.8"/> <polyline stroke-width="7" points=" 13.8,75.8 36.3,53.8 58.8,75.8 	"/> </g> <g> <line stroke-width="7" x1="12" y1="239.3" x2="703" y2="239.3"/> <polyline stroke-width="7" points=" 681.8,216.8 703.8,239.3 681.8,261.8 	"/> <g> <path d=" M639.6,183.7c0.6,0.3,14.7-2.4,16.3-1.8 M646.9,182.4c1.6,2.4-5.9,12.8-2.3,15.9"/> <path d=" M658.2,183.2c-0.4,0.5-2.5,11.2-1.2,14.6"/> <path d=" M663.4,198.4c-0.2-1.2,4.8-15.5,6.6-14.9c2.2,0.7-0.6,7.8,3.4,8.2c3.9,0.4,8.6-7.7,9.8-7.4c1.6,0.4-1.2,12.3-1.8,13.7"/> <path d=" M700.7,196.7c0,0-9.3,3.2-10.4,0.3c-1.1-2.9,3.6-9.2,2.8-10.6 M702.3,183.2c0,0-10.8,1.4-11,2.6 M691.8,190.7c0,0,6.6,0.2,7.3-0.4 "/> </g> </g> <g> <line stroke-width="7" x1="184.5" y1="231.8" x2="184.5" y2="247.8"/> <path stroke-linejoin="bevel" d=" M165.9,261.1c0.1-0.8-1.1-4.1-3.7-3.6s-4.9,3.9-0.7,9.4s5.6,10.6-1.6,7.8s8.9-10.5,10.8-12.9s-1.4-4.3-1.4-4.3"/> <path d=" M173.8,275.4c0,0,4.3-11.2,8.8-13.6c0,0,5.6,12.6,2,14.5 M179.3,272.1c0,0,4.9-0.1,9-2.1"/> <path d=" M191.4,276.4c-0.2-1.2,4.8-15.5,6.6-14.9c2.2,0.7-0.6,7.8,3.4,8.2c3.9,0.4,8.6-7.7,9.8-7.4c1.6,0.4-1.2,12.3-1.8,13.7"/> </g> <g> <line stroke-width="7" x1="357.5" y1="231.8" x2="357.5" y2="247.8"/> <path stroke-linejoin="bevel" d=" M328.4,259c0,0,2.5,4.8-1.8,16.2"/> <path stroke-linejoin="bevel" d=" M337.1,259.3c1-0.4,9.8-1.9,11.4,1.4s-16.4,10.2-11.8,13.5s14.9-0.9,14.9-0.9"/> <path d=" M356.2,276.7c0.5-1.2,2.4-13.5,3.9-14.6c2.3-1.6,12.6,1.3,6,5.8c-5,3.3-10.5,0.2-10.5,0.2"/> <path d=" M370.4,277.4c-0.2-1.2,4.8-15.5,6.6-14.9c2.2,0.7-0.6,7.8,3.4,8.2c3.9,0.4,8.6-7.7,9.8-7.4c1.6,0.4-1.2,12.3-1.8,13.7"/> </g> <g> <line stroke-width="7" x1="530.5" y1="231.8" x2="530.5" y2="247.8"/> <path stroke-linejoin="bevel" d=" M512.9,261.1c0.1-0.8-1.1-4.1-3.7-3.6s-4.9,3.9-0.7,9.4s5.6,10.6-1.6,7.8s8.9-10.5,10.8-12.9s-1.4-4.3-1.4-4.3"/> <path d=" M522.2,276.7c0.5-1.2,2.4-13.5,3.9-14.6c2.3-1.6,12.6,1.3,6,5.8c-5,3.3-10.5,0.2-10.5,0.2"/> <path d=" M536.4,277.4c-0.2-1.2,4.8-15.5,6.6-14.9c2.2,0.7-0.6,7.8,3.4,8.2c3.9,0.4,8.6-7.7,9.8-7.4c1.6,0.4-1.2,12.3-1.8,13.7"/> </g> <path stroke="#C1272D" stroke-width="7" d="M35.8,239.8c0-9,5-15,12-10 c4,2,1,13,4,17c19,17,18-19,32-19c12,0,10,35,27,22c10-8,6-38,26-26c4,3,5,13,9,16c8,5,18,2,27,1c11-1,22-2,33-2c23,1,44,2,67,1 c30-2,49,4,72-18c18-18,36-46,65-30s33,61,70,63c47,2,53-55,65-91c9-29,23-86,65-77c40,9,49,49,64,80"/> <g> <g> <g> <path d="M144.2,111.7c-14.4,7.7-13.5,25.8-8.4,39.1c5.6,14.9,17.1,24.6,31.4,30.7c28.3,12,68.2,10.1,83.7,41.4c2,4,8,0.5,6-3.5 c-14.3-28.8-47.4-31.9-75-40c-13.8-4.1-27.9-10.3-35.8-22.9c-6.6-10.7-12.5-31.2,1.5-38.7C151.7,115.7,148.2,109.6,144.2,111.7 L144.2,111.7z"/> </g> </g> <path d=" M164.6,108.7c0.6,0.3,14.7-2.4,16.3-1.8 M171.9,107.4c1.6,2.4-5.9,12.8-2.3,15.9"/> <path d=" M181.7,108.9c0.2,0.7-2.3,13.6-2.3,13.6 M179.5,122.5c0,0,1.1-4.8,6.4-5.4c4.1-0.4,5.2-2,5.3-2.6c0.1-0.6,1.1-7,1.1-7 M190,122.1 c0,0,2.4-13.8,2.3-14.5"/> <path d=" M201.2,108.2c-0.4,0.5-2.5,11.2-1.2,14.6"/> <path d=" M219.1,107.6c-1.6-1-12.1,1.8-12.2,3.4c-0.1,1.6,8.4,1.7,9,5.2c0.5,2.9-6.9,6.4-8.3,5.7"/> </g> <g> <g> <g> <path d="M455.2,90.8c28.9-14.2,66.8-19.1,94,1.5c3.6,2.7,7.1-3.4,3.5-6c-29.1-22.1-70.1-16.7-101-1.5 C447.6,86.7,451.2,92.8,455.2,90.8L455.2,90.8z"/> </g> </g> <path d=" M237.1,112.1c-0.2,3.9-2.6,10.2-2.6,10.2 M237.1,122.3c0,0,8.4-0.3,9.3-4.4c0.7-3.6-7.7-3.4-7.7-3.4s6.8-2,6.2-5.9 c-0.6-3.9-11.2,0.1-11.8,0.5"/> <path d=" M261.7,120.7c0,0-9.3,3.2-10.4,0.3c-1.1-2.9,3.6-9.2,2.8-10.6 M263.3,107.2c0,0-10.8,1.4-11,2.6 M252.8,114.7c0,0,6.6,0.2,7.3-0.4" /> <path d=" M277,108.3c-9.1,0.7-17.8,14.4-0.4,13.2"/> <path d=" M281.8,121.4c0,0,4.3-11.2,8.8-13.6c0,0,5.6,12.6,2,14.5 M287.3,118.1c0,0,4.9-0.1,9-2.1"/> <path d=" M302,110.4c-0.4,0.5-2.7,9.4,2.6,11.2c3.8,1.3,10.5-9,9.6-13.3"/> <path d=" M330.1,107.6c-1.6-1-12.1,1.8-12.2,3.4c-0.1,1.6,8.4,1.7,9,5.2c0.5,2.9-6.9,6.4-8.3,5.7"/> <path d=" M343.7,120.7c0,0-9.3,3.2-10.4,0.3c-1.1-2.9,3.6-9.2,2.8-10.6 M345.3,107.2c0,0-10.8,1.4-11,2.6 M334.8,114.7c0,0,6.6,0.2,7.3-0.4" /> <path d=" M371,107.6c0,0-14.7,9-9.7,13.2c4.6,3.9,12.7-1.2,12.9-3.1c0.2-1.9-1.8-6.8-4.3-8.9"/> <path d=" M380.6,123.2c-0.9-0.9,2.8-14.1,2.8-14.1 M393.6,107.2c-2.7-0.9-13.1,2.6-13.1,2.6 M378,116.1c0.4,0.6,11.6-0.3,11.6-0.3"/> <path d=" M404.6,108.7c0.6,0.3,14.7-2.4,16.3-1.8 M411.9,107.4c1.6,2.4-5.9,12.8-2.3,15.9"/> <path d=" M422.7,108.9c0.2,0.7-2.3,13.6-2.3,13.6 M420.5,122.5c0,0,1.1-4.8,6.4-5.4c4.1-0.4,5.2-2,5.3-2.6c0.1-0.6,1.1-7,1.1-7 M431,122.1 c0,0,2.4-13.8,2.3-14.5"/> <path d=" M436.8,121.4c0,0,4.3-11.2,8.8-13.6c0,0,5.6,12.6,2,14.5 M442.3,118.1c0,0,4.9-0.1,9-2.1"/> <path d=" M453.6,108.7c0.6,0.3,14.7-2.4,16.3-1.8 M460.9,107.4c1.6,2.4-5.9,12.8-2.3,15.9"/> </g> </svg> 