 
 
 
<svg version="1.1" id="Layer_1" xmlns="http://www.w3.org/2000/svg" xmlns:xlink="http://www.w3.org/1999/xlink" x="0px" y="0px"
	 viewBox="0 0 359 292" enable-background="new 0 0 359 292" xml:space="preserve">
<path stroke="#FFFFFF" stroke-width="120" d="M70.7,16.7
	c-10.5,21.6-21,43.2-31.6,64.8c-1.3,2.7-2.7,5.6-2.4,8.6c0.6,5.8,7.5,9.3,13.3,8.4s10.6-4.8,15.1-8.6c25.1-21,50.1-42.1,75.2-63.1
	c-2.6,20.4-17.6,36.7-31.2,52.2c-31.8,36.3-59.5,76.2-82.5,118.6C88,149.1,125.2,75.9,184.3,24.9C147,99.8,80.6,157.6,46.1,233.8
	c-2,4.5-4,9.3-3.3,14.1s5,9.6,9.8,8.9c3.3-0.5,5.8-3.1,7.9-5.6c24-27.1,47.9-54.1,71.9-81.2c-7.7,24.2-15.5,48.5-23.2,72.7
	c-1.2,3.8-2.4,7.7-1.7,11.6c0.8,3.9,4.2,7.5,8.1,7c2.7-0.3,4.8-2.4,6.6-4.3c8.1-8.5,16.2-16.9,24.3-25.4
	c-1.9,11.8-3.7,23.5-5.6,35.3c13.3-12,26.6-24.1,39.8-36.1c2.5,9.7,5,19.4,7.5,29.1c0.4,1.7,1,3.7,2.6,4.6c2.5,1.4,5.4-0.6,7.6-2.5
	c18.4-15.4,42.6-22.6,66.5-24.4c23.9-1.9,48,1.2,71.8,4.2c-1.4-7.2-6.9-13-13.5-16.3s-13.9-4.4-21.2-5c-21.5-1.7-43,0.9-64.5,1.6
	c-21.5,0.6-43.7-0.9-63.1-10.2c12.3-21.9,29.2-41.2,49.4-56.3c-24.4-6.5-50.4-7.2-75.1-1.8c23.4-25.2,62.2-50.5,94.1-63.1
	c-34.1-1.5-82.6-1.9-116.7,0c28.9-25.3,61.4-46.5,96.1-62.8c11.3-5.3,41.8-0.2,51.5,7.6"/>
<g>
	<g>
		<text transform="matrix(1 0 0 1 117.5186 40.9805)" font-family="'PermanentMarker'" font-size="31">time cost</text>
	</g>
</g>
<g>
	
		<line stroke-width="7" x1="188.7" y1="56" x2="188.7" y2="285"/>
</g>
<g>
	<text transform="matrix(1 0 0 1 17.4102 101.0054)" font-family="'PermanentMarker'" font-size="31">strategy a</text>
</g>
<g>
	<text transform="matrix(1 0 0 1 17.5312 170.5)" font-family="'PermanentMarker'" font-size="31">strategy b</text>
</g>
<g>
	<text transform="matrix(1 0 0 1 44.0107 244.5649)"><tspan x="0" y="0" font-family="'PermanentMarker'" font-size="31">choosing</tspan><tspan x="-22.2" y="24" font-family="'PermanentMarker'" font-size="31">a strategy</tspan></text>
</g>
<path stroke="#C1272D" stroke-width="5.6728" d="
	M191.1,95.4c2.1-2,4.2-4,6.4-6c-0.3,3.9-1.2,7.8-2.7,11.5c2.7-4.9,5.5-9.8,8.2-14.6c-0.6,3.8-1.6,7.6-2.9,11.3
	c2.7-3.6,5.4-7.2,8.1-10.9c-1.2,3.1-2.2,6.3-2.7,9.6c1.9-3.5,4.1-6.9,6.6-10c-0.9,3.4-1.8,6.8-2.7,10.1c2.5-1.9,4.8-4.2,6.6-6.8
	c-0.1,2.2-0.5,4.3-1.4,6.4c1.5-2.4,3.3-4.5,5.4-6.4c-0.5,2.7-1.3,5.3-2.4,7.7c3.4-3.6,6.7-7.2,10.1-10.8c-1.3,3.3-2.5,6.5-3.8,9.8
	c3.1-2.7,5.9-5.8,8.5-9c-1.2,3.3-2.7,6.6-4.4,9.7c2.2-2.9,4.5-5.8,6.7-8.7c-0.6,2.7-1.3,5.5-2.3,8.1c2.8-2.5,5.5-5.1,8-7.8
	c-1,2.7-1.9,5.3-2.9,8c1.8-2,3.6-4,5.5-6"/>
<path stroke="#C1272D" stroke-width="5.6728" d="
	M191,156c1.7-1.2,3.4-2.4,5.1-3.7c-1.2,5.3-3.3,10.4-6,15.2c3-6.6,6.8-12.9,11.3-18.6c-1.8,4.2-3.6,8.4-5.4,12.7
	c2.5-3.7,5.3-7.3,8.3-10.7c-1.9,4.3-4,8.6-6.3,12.7c3.2-5,6.5-9.9,10.1-14.7c-1,3-2.1,5.9-3.5,8.7c2.1-2.1,4.1-4.2,6.2-6.3
	c-1.2,4-2.5,8-4,12c2-2.9,4-5.8,6-8.7c-0.6,2.9-1.4,5.8-2.5,8.6c2.1-3.4,4.5-6.6,7.1-9.6c-0.5,2.6-1.3,5.2-2.4,7.6
	c2.5-2.9,4.7-6,6.8-9.3c-0.7,3.8-2.3,7.4-4.5,10.6c2.9-4.5,5.9-8.9,8.8-13.4c-1,3.4-2.2,6.7-3.7,9.9c2.4-2.1,4.8-4.3,7.2-6.4
	c-1.9,4.1-3.4,8.3-4.6,12.6c2.3-3.4,4.6-6.9,6.9-10.3c-0.6,2.6-1.6,5.2-2.8,7.6c1.7-2.9,3.5-5.8,5.4-8.6c-0.6,2.8-1.7,5.5-3.1,8
	c1.9-4.1,4.2-8,6.8-11.6c-0.9,2.6-1.9,5.3-2.8,7.9c1.7-2,3.4-4,5.2-6c-1.6,3.8-3.2,7.6-4.8,11.4c1.8-3.4,3.9-6.6,6.3-9.5
	c-0.5,1.6-1.1,3.3-1.6,4.9c1.6-2.1,3.2-4.2,4.8-6.3c-1.2,3.1-2.4,6.2-3.6,9.2c1.5-2.8,3.1-5.6,4.6-8.4"/>
<path stroke="#C1272D" stroke-width="5.6728" d="
	M190.7,247.3c0.4-1.8,0.9-3.6,1.3-5.3c0.3,3.9-0.7,8-2.8,11.3c1.5-4.6,4.8-8.7,9-11.1c-0.3,1.7-0.5,3.4-0.8,5.1
	c0.5-1.8,1.8-3.3,3.6-3.9c-1.5,3.5-3,7-4.4,10.5c1.3-3.7,3.9-6.9,7.3-9.1c2.7-2.1,5.5-4.2,8.2-6.2c-0.1,4.8-1.8,9.5-4.7,13.3
	c1.9-2.9,4.4-5.4,7.3-7.3c-0.4,3.3-2.1,6.5-4.6,8.7c1.6-1.6,3.1-3.1,4.7-4.7c-0.4,1.1-0.9,2.2-1.3,3.3c2-2.2,4-4.4,6-6.7
	c-0.7,2-1.4,4-2,6c1.1-2,2.2-4,3.3-6c0.4,2.2,0.1,4.5-0.6,6.7c1.7-2.9,3.8-5.5,6.2-7.9c-0.5,3-1.5,5.9-3,8.5
	c3.9-4.4,7.8-8.8,11.7-13.3c-0.5,4.9-2.5,9.6-5.5,13.4c3.8-2.8,7.2-6.2,10.1-10c-0.3,2.8-1.3,5.6-2.8,7.9c1.3-2.2,2.7-4.5,4-6.7
	c0.5,3.3-0.5,6.8-2.7,9.3c2.3-2.9,4.5-5.7,6.8-8.6c-0.2,2-0.5,4-0.7,6c1.3-1.8,2.7-3.6,4-5.3c-0.4,1.8-0.9,3.6-1.3,5.3
	c2.7-2.7,5.3-5.3,8-8c-0.7,3-1.8,5.9-3.3,8.7c2.5-2.7,5-5.3,7.4-8c-0.7,3.6-2,7.1-3.9,10.2c3.1-3.4,6.3-6.7,9.4-10.1
	c-1.2,3.7-2.5,7.4-3.7,11.1c2.2-2.4,4.5-4.9,6.7-7.3c0.3,2.3-0.2,4.7-1.4,6.7c1.6-3.9,3.9-7.5,6.8-10.6c-1,2.6-1.9,5.2-2.9,7.9
	c2.5-3.5,5.1-7,7.6-10.6c-0.8,3.6-2.1,7.1-3.8,10.3c3-3.9,6.1-7.7,9.1-11.6c-0.2,4.5-1.6,8.9-4.1,12.7c2.7-4,5.3-8,8-12
	c-0.6,3.8-1.9,7.4-3.9,10.7c2-2.9,3.9-5.8,5.9-8.7c0.2,2.7-0.3,5.5-1.4,8c2.7-2.7,5.3-5.5,8-8.2c-0.4,3.4-1.6,6.6-3.4,9.5
	c2.3-3.3,4.5-6.6,6.8-9.9c-0.4,1.8-0.8,3.7-1.2,5.5c2.9-3,5.7-6,8.6-9c-1,4.3-2.6,8.4-4.8,12.3c2.5-2.9,5-5.9,7.5-8.8
	c1.5,3.1,1.4,7-0.3,10c0.4-4.1,2.5-7.9,5.6-10.6c-2,4.9-4.1,9.8-6.1,14.7c3.8-5.2,8-10,12.6-14.5c-1.6,5.9-3.8,11.7-6.7,17.1
	c3.5-5.2,7-10.3,10.5-15.5c-2.2,3.4-4.3,6.8-6.5,10.2c3.6-3.8,7.1-7.5,10.7-11.3c-0.5,2-0.9,4-1.4,5.9c2-2,4-4,6.1-6
	c-0.6,3.7-1.8,7.3-3.5,10.6c1.6-3.5,3.9-6.7,6.6-9.4c-0.9,2.6-1.8,5.3-2.7,7.9c3.2-2.4,6.3-4.8,9.5-7.3c-0.3,2.4-1.2,4.8-2.7,6.7
	c1.3-2.2,2.7-4.4,4-6.6c-0.9,2-1.9,3.9-2.8,5.9c1.6-2.7,3.8-5.1,6.4-6.9"/>
</svg>
