<?xml version="1.0" encoding="utf-8"?>
<!-- Generator: Adobe Illustrator 19.2.0, SVG Export Plug-In . SVG Version: 6.00 Build 0)  -->
<svg version="1.1" id="Layer_1" xmlns="http://www.w3.org/2000/svg" xmlns:xlink="http://www.w3.org/1999/xlink" x="0px" y="0px"
	 width="702.63px" height="379.69px" viewBox="0 0 702.63 379.69" enable-background="new 0 0 702.63 379.69" xml:space="preserve">
<path fill="none" stroke="#FFFFFF" stroke-width="120" stroke-linejoin="bevel" stroke-miterlimit="10" d="M28.93,15.54
	c-5.72,28.67-11.45,57.34-17.17,86.01C54.8,60.77,97.85,20,140.89-20.78C112,26.01,83.1,72.79,54.21,119.58
	C95.3,69.89,145.31,27.59,201.13-4.69c-9.85,27.2-19.69,54.4-29.54,81.59c17.96-15.1,35.92-30.19,53.87-45.29
	c-4.54,14.33-9.08,28.66-13.62,42.99c22.82-10.21,45.65-20.42,68.47-30.63c-6.52,17.87-13.05,35.74-19.57,53.61
	c17.18-13.25,34.36-26.49,51.55-39.74c-59.94,45.9-142.73,60.27-214.62,37.23c-12.52-4.01-27.83-8.55-37.49,0.37
	c-5.92,5.47-7.29,14.17-8.17,22.19c-9.19,83.03-4.07,167.63,15.06,248.95c-3.59-27.98-7.19-56.25-4.51-84.33
	c2.68-28.09,12.2-56.38,31.7-76.78c-5.28,5.43-1.52,15.35,5.19,18.87s14.78,2.57,22.28,1.53c61.17-8.47,124.37-17.64,176.85-50.19
	C361.56,136.62,400.62,69.36,452.77,16.7c-0.54,79.28-1.07,158.56-1.61,237.84c23.84-23.32,47.69-46.64,71.53-69.96
	c-6.48,24.37-12.97,48.75-19.45,73.12c19.83-19,39.65-38,59.48-57c-4.63,8.12-9.39,16.77-9.15,26.12
	c0.24,9.34,7.65,19.17,16.96,18.4c5.69-0.47,10.34-4.56,14.53-8.44c10.73-9.93,21.46-19.86,32.19-29.79
	c0.68,16.59,1.37,33.18,2.05,49.77c10.12-16.69,20.25-33.37,30.37-50.06c4.29,15.78,8.58,31.56,12.88,47.33
	c-122.22-12.96-245.43-16.61-368.21-10.89c-56.43,2.63-114.19,7.08-168.37-8.91c-12.12-3.58-24.91-8.19-37.05-4.7
	c-12.14,3.49-21.06,19.76-12.55,29.1c37.31-14.85,74.62-29.69,111.93-44.54c-4.33,24.39-8.66,48.77-12.99,73.16
	c23.03-14.56,46.06-29.12,69.08-43.68c-4.7,22.65-9.41,45.31-14.11,67.96c22.66-10.64,45.33-21.28,67.99-31.92
	c6.09-2.86,12.58-5.79,19.26-5.02c13.64,1.56,21.03,18.4,17.82,31.75c-3.21,13.35-13.5,23.66-23.35,33.22
	c17.81-12.5,35.61-25,53.42-37.5c-10.39,22.14-20.79,44.29-31.18,66.43c21.84-2.59,42.45-14.36,55.78-31.86
	c-4.33,17.97-8.66,35.94-12.98,53.91c12.61-10.33,25.22-20.66,37.83-30.99c1.54,15.73,3.09,31.47,4.63,47.2"/>
<line fill="none" stroke="#000000" stroke-width="7" stroke-linecap="round" stroke-linejoin="round" stroke-miterlimit="10" x1="40.04" y1="230.3" x2="470.74" y2="230.3"/>
<polyline fill="none" stroke="#000000" stroke-width="7" stroke-linecap="round" stroke-linejoin="round" stroke-miterlimit="10" points="
	448.74,207.8 470.74,230.3 448.74,252.8 "/>
<text transform="matrix(1 0 0 1 483.4746 224.3011)"><tspan x="0" y="0" font-family="'PermanentMarker'" font-size="30.74px">knowledge</tspan><tspan x="0" y="30" font-family="'PermanentMarker'" font-size="30.74px">of the world</tspan></text>
<line fill="none" stroke="#000000" stroke-width="7" stroke-linecap="round" stroke-linejoin="round" stroke-miterlimit="10" x1="62.54" y1="96.1" x2="62.54" y2="352.51"/>
<polyline fill="none" stroke="#000000" stroke-width="7" stroke-linecap="round" stroke-linejoin="round" stroke-miterlimit="10" points="
	40.04,118.1 62.54,96.1 85.04,118.1 "/>
<text transform="matrix(1 0 0 1 31.9717 77.2096)"><tspan x="0" y="0" fill="#91BE4A" font-family="'PermanentMarker'" font-size="30.74px">l</tspan><tspan x="16.39" y="0" fill="#91BE4A" font-family="'PermanentMarker'" font-size="30.74px">o</tspan><tspan x="34.79" y="0" fill="#91BE4A" font-family="'PermanentMarker'" font-size="30.74px">ve for the world</tspan></text>
<path fill="none" stroke="#91BE4A" stroke-width="7" stroke-linecap="round" stroke-linejoin="round" stroke-miterlimit="10" d="
	M78.56,218.96c82.66-2.43,168.65-5.7,241.77-44.34c58.13-30.72,104.37-83.28,127.44-144.84"/>
<text transform="matrix(1 0 0 1 32.9717 44.5431)"><tspan x="0" y="0" fill="#00A055" font-family="'PermanentMarker'" font-size="30.74px">l</tspan><tspan x="16.39" y="0" fill="#00A055" font-family="'PermanentMarker'" font-size="30.74px">o</tspan><tspan x="34.79" y="0" fill="#00A055" font-family="'PermanentMarker'" font-size="30.74px">ve for </tspan><tspan x="138.45" y="0" fill="#00A055" font-family="'PermanentMarker'" font-size="30.74px">s</tspan><tspan x="152.11" y="0" fill="#00A055" font-family="'PermanentMarker'" font-size="30.74px">ociety</tspan></text>
<path fill="none" stroke="#00A055" stroke-width="7" stroke-linecap="round" stroke-linejoin="round" stroke-miterlimit="10" d="
	M84.2,241.77c46.09,0.07,92.5,3.02,137.17,14.38c44.67,11.36,87.75,31.51,121.59,62.81c29.68,27.45,51.24,62.36,72.42,96.8"/>
</svg>
