<?xml version="1.0" encoding="utf-8"?>
<!-- Generator: Adobe Illustrator 19.2.0, SVG Export Plug-In . SVG Version: 6.00 Build 0)  -->
<svg version="1.1" id="Layer_1" xmlns="http://www.w3.org/2000/svg" xmlns:xlink="http://www.w3.org/1999/xlink" x="0px" y="0px"
	 width="394.93px" height="446.84px" viewBox="0 0 394.93 446.84" enable-background="new 0 0 394.93 446.84" xml:space="preserve">
<path fill="none" stroke="#FFFFFF" stroke-width="120" stroke-linejoin="bevel" stroke-miterlimit="10" d="M55.41,2.2
	C29.13,20.08,10.32,48.61,4.25,79.82c38-23.83,76-47.66,114-71.49c-7.64,16.71-15.28,33.42-22.92,50.13
	c23-13.54,71.3-32.29,94.31-45.82c-58.68,31.15-145.56,70.2-179.5,127.32c32.08-15.37,64.16-30.74,96.24-46.12
	c-0.19,15.63-0.38,31.26-0.57,46.89c18.04-5.72,36.08-11.44,54.12-17.15c-0.63,17.11-1.27,34.23-1.9,51.34
	c13.87,0.28,27.75,0.55,41.62,0.83c-9.73,19.86-19.47,39.71-29.2,59.57c10.81-6.25,21.62-12.49,32.43-18.74
	c-1.75,22.75-3.51,45.5-5.26,68.25c28.32-6.03,56.64-12.06,84.96-18.09c-3.28,14.75-6.56,29.49-9.84,44.24
	c13.66-5.14,27.31-10.28,40.97-15.42c-1.01,12.79-2.03,25.59-3.04,38.38c3.49-0.71,6.98-1.43,10.47-2.14
	c-23.26,29.12-64.39,41.14-100.82,33.27c-36.43-7.87-67.6-33.75-86.17-66.07s-25.31-70.52-23.75-107.76
	c0.41-9.82,1.36-19.81-1.03-29.34c-2.39-9.53-8.95-18.74-18.5-21.06c-12.77-3.11-24.92,6.72-33.4,16.76
	c-16.44,19.47-28.49,42.63-34.99,67.27c10.49-0.69,20.98-1.38,31.47-2.07c-13.33,29.29-26.65,58.58-39.98,87.87
	c6.75-5.03,13.5-10.06,20.26-15.09c-4.79,18.69-9.57,37.38-14.36,56.07c15.91-7.9,31.82-15.8,47.74-23.71
	c-4.69,15.83-9.38,31.65-14.07,47.48c14.73-14.81,29.46-29.63,44.19-44.44c-0.84,13.11-1.67,26.23-2.51,39.34
	c39.33-5.62,77.2-21.18,109.12-44.83c-7.39,20.5-14.78,41-22.17,61.51c20.75-19.61,41.5-39.23,62.25-58.84
	c-15.93,31.12-31.87,62.25-47.8,93.37c34.61-29.97,69.21-59.95,103.82-89.92c2.63,33.27-6.56,67.36-25.57,94.79
	c24.8-36.54,49.6-73.08,74.4-109.63c-19.15,41.12-38.29,82.23-57.44,123.35c23.86-29.39,47.73-58.77,71.59-88.16
	c-5.39,25.63-10.77,51.25-16.16,76.88c13.43-22.78,26.86-45.56,40.29-68.34c-3.17,25.64-6.35,51.29-9.52,76.93"/>
<g>
	
		<line fill="none" stroke="#000000" stroke-width="7" stroke-linecap="round" stroke-linejoin="round" stroke-miterlimit="10" x1="43.06" y1="49.82" x2="43.06" y2="375.75"/>
	
		<polyline fill="none" stroke="#000000" stroke-width="7" stroke-linecap="round" stroke-linejoin="round" stroke-miterlimit="10" points="
		20.56,71.82 43.06,49.82 65.56,71.82 	"/>
</g>
<g>
	
		<line fill="none" stroke="#000000" stroke-width="7" stroke-linecap="round" stroke-linejoin="round" stroke-miterlimit="10" x1="20.56" y1="353.25" x2="383.26" y2="353.25"/>
	
		<polyline fill="none" stroke="#000000" stroke-width="7" stroke-linecap="round" stroke-linejoin="round" stroke-miterlimit="10" points="
		361.26,330.75 383.26,353.25 361.26,375.75 	"/>
</g>
<text transform="matrix(1 0 0 1 215.5318 410.4583)"><tspan x="0" y="0" font-family="'PermanentMarker'" font-size="30.74px" letter-spacing="-1">a</tspan><tspan x="16.63" y="0" font-family="'PermanentMarker'" font-size="30.74px">v</tspan><tspan x="30.62" y="0" font-family="'PermanentMarker'" font-size="30.74px">ail</tspan><tspan x="74.72" y="0" font-family="'PermanentMarker'" font-size="30.74px">a</tspan><tspan x="91.98" y="0" font-family="'PermanentMarker'" font-size="30.74px">bility</tspan><tspan x="58.6" y="30" font-family="'PermanentMarker'" font-size="30.74px">of porn</tspan></text>
<text transform="matrix(1 0 0 1 11.8389 39.1116)" font-family="'PermanentMarker'" font-size="30.74px"># of rapes</text>
<path fill="none" stroke="#ED1C24" stroke-width="7" stroke-linecap="round" stroke-linejoin="round" stroke-miterlimit="10" d="
	M66.54,107.07c31.88-6.09,66.71,7.8,85.65,34.15c20.02,27.85,21.65,64.72,35.61,96.05c23.73,53.25,86.62,85.84,143.81,74.53"/>
</svg>
