<?xml version="1.0" encoding="utf-8"?>
<!-- Generator: Adobe Illustrator 19.2.0, SVG Export Plug-In . SVG Version: 6.00 Build 0)  -->
<svg version="1.1" id="Layer_1" xmlns="http://www.w3.org/2000/svg" xmlns:xlink="http://www.w3.org/1999/xlink" x="0px" y="0px"
	 width="511.5px" height="325.2px" viewBox="0 0 511.5 325.2" enable-background="new 0 0 511.5 325.2" xml:space="preserve">
<symbol  id="Arrow_right_1_" viewBox="-25.5 -26 29 52">
	
		<polyline fill="none" stroke="#231F20" stroke-width="7" stroke-linecap="round" stroke-linejoin="round" stroke-miterlimit="10" points="
		-22,22.5 0,0 -22,-22.5 	"/>
</symbol>
<symbol  id="Arrow_up" viewBox="-26 -25.5 52 29">
	
		<polyline fill="none" stroke="#231F20" stroke-width="7" stroke-linecap="round" stroke-linejoin="round" stroke-miterlimit="10" points="
		-22.5,-22 0,0 22.5,-22 	"/>
</symbol>
<path fill="none" stroke="#FFFFFF" stroke-width="120" stroke-linejoin="bevel" stroke-miterlimit="10" d="M196.8,12.7
	c-6.9,15.5-21.6,27.2-38.3,30.3s-34.7-2.3-46.8-14.1c-5.8-5.6-10.2-12.5-16.1-18c-6-5.4-14.3-9.3-22-7.1
	c-11,3.2-15.5,16.7-25.3,22.6c-4.9,3-10.7,3.8-15.9,6.2C17,39.8,11.2,62.1,21.1,75.9c14.7-3.7,29.3-7.4,44-11.1
	C54.8,87.2,44.6,109.6,34.3,132c8.7,0.8,17.4,1.7,26.1,2.5c-7.3,25.9-14.6,51.9-21.9,77.8c5.2,1,10.4,1.9,15.6,2.9
	c-10.9,6-22.4,12.6-28.3,23.5c-5.9,11-3,27.6,8.8,31.7c7.5,2.6,15.8-0.6,22.4-4.9c29.4-19,39.1-62.9,20.4-92.6
	c9.7,18.2,19.8,36.9,35.2,50.6s37.8,21.6,57.2,14.6c-22.3-25.5-39-56-48.4-88.5c15.1-1.9,29,8.9,37.6,21.5
	c8.5,12.6,13.6,27.3,22.3,39.7c8.7,12.4,23.1,22.9,38.1,20.4c-15.4-34.1-30.9-68.2-46.3-102.3c-2.5-5.5-5-11.1-5.2-17.1
	c-0.2-6,2.3-12.5,7.7-15.2c6.8-3.3,15.3,0.7,19.5,7c4.2,6.2,5.3,14,6.6,21.5c5.3,32.2,15,63.7,28.8,93.2c5.1,10.8,11,21.8,20.8,28.5
	s24.5,7.8,32.9-0.6c-13.9-27.4-27.8-54.7-41.7-82.1c-19.6-38.7-39.6-78.3-44.9-121.4c3.5-0.8,6.9-1.5,10.4-2.3
	c24.7,46.4,49.4,92.7,74.1,139.1c4.8,9.1,9.9,18.5,18,24.8s20.1,8.9,28.7,3.3c-24.5-47.7-48.9-95.4-73.4-143.2
	c-3.5-6.8-5.2-17.7,2.2-19.5c4.9-1.2,9.1,3.5,12,7.7c25,36.3,50.1,72.7,75.1,109c4.5-55.5-6.7-112.2-32.1-161.9
	c-4.3,25.4-3.2,51.6,3.2,76.5c2.5,9.9,7.4,21,17.4,23.2c6.8,1.5,13.9-1.9,18.8-6.9c4.9-5,8.1-11.3,11.6-17.3
	c14.3-24.6,37.2-46.4,65.4-49.9c10.9-1.4,22,0.1,33-0.7c11-0.7,22.6-4.2,29.3-12.9c-8.8,16.7-29.6,22.7-48.3,25
	c-35,4.4-70.8,1.8-104.8-7.5c-5.9-1.6-11.9-3.4-18-2.6c-6,0.8-12.1,5.2-12.7,11.3c-0.7,7.3,6.3,12.8,12.7,16.3
	c23.8,13.2,51.1,19.7,78.3,18.8c-2.3,10.3-4.6,20.7-6.9,31c-16.1-5.3-33.3-10.7-49.8-6.7c-16.5,4-31,21.3-25.5,37.4
	c5.4,15.6,25.3,20.7,41.8,19.2s33.1-7.3,49.2-3.6c16.3,50.7,21.2,105.1,14.3,157.9C405.6,282.2,398,251,400,220.3
	c-19.9,13.2-33.3,35.9-35.2,59.8c-0.5,6.7-0.2,13.6-2.3,20s-7.1,12.5-13.8,13.1c-9.2,0.8-16.2-9.1-16.8-18.4s3-18.2,4.4-27.4
	s-0.1-20.1-8-25c-7.3-4.6-17.3-2-23.7,3.7c-6.4,5.7-10.1,13.8-13.6,21.6c-8.3,18.6-16.6,37.1-24.8,55.7
	c-7.4-37.9-9.4-76.8-5.9-115.2c-28,27-44.6,65.4-45.2,104.2c-19.9-12.2-12.1-48.1-32.3-59.8c-8.6-5-19.4-3.5-29.2-1.9
	c-38.5,6.4-77,12.8-115.4,19.1"/>
<g id="Arrow_right">
</g>
<g>
	
		<line fill="none" stroke="#231F20" stroke-width="7" stroke-linecap="round" stroke-linejoin="round" stroke-miterlimit="10" x1="52.2" y1="46.2" x2="52.2" y2="273"/>
	
		<line fill="none" stroke="#231F20" stroke-width="7" stroke-linecap="round" stroke-linejoin="round" stroke-miterlimit="10" x1="31.8" y1="250.5" x2="415.7" y2="250.5"/>
	
		<use xlink:href="#Arrow_right_1_"  width="29" height="52" x="-25.5" y="-26" transform="matrix(1 0 0 -1 415.6959 250.5114)" overflow="visible"/>
	
		<use xlink:href="#Arrow_up"  width="52" height="29" x="-26" y="-25.5" transform="matrix(1 0 0 -1 52.2474 46.249)" overflow="visible"/>
</g>
<text transform="matrix(1 0 0 1 211.8404 302.7951)" fill="#231F20" font-family="'PermanentMarker'" font-size="30.74px">getting older</text>
<text transform="matrix(1 0 0 1 25.7474 33.5926)" fill="#231F20" font-family="'PermanentMarker'" font-size="30.74px">growing up</text>
<path fill="none" stroke="#BE1E2D" stroke-width="7" stroke-linecap="round" stroke-linejoin="round" stroke-miterlimit="10" d="
	M70,238.2C179.1,180.4,285.4,117,388.2,48.3"/>
<text transform="matrix(1 0 0 1 404.6959 33.5926)" fill="#BE1E2D" font-family="'PermanentMarker'" font-size="30.74px">theory</text>
<g>
	<path fill="none" stroke="#009444" stroke-width="7" stroke-linecap="round" stroke-linejoin="round" stroke-miterlimit="10" d="
		M77.1,217.7c1.1,1.4,3.5,1.3,4.5-0.2c-1-0.2-2-0.3-3-0.5"/>
	<path fill="none" stroke="#009444" stroke-width="7" stroke-linecap="round" stroke-linejoin="round" stroke-miterlimit="10" d="
		M101.2,230.1c-0.5,0.6,0,1.8,0.8,1.8c0.8,0,1.4-1.1,0.9-1.8"/>
	<path fill="none" stroke="#009444" stroke-width="7" stroke-linecap="round" stroke-linejoin="round" stroke-miterlimit="10" d="
		M90.1,199.3c0.8,0,1.6,0.1,2.4,0.1c0.3-1-0.4-2.1-1.4-2.4"/>
	<path fill="none" stroke="#009444" stroke-width="7" stroke-linecap="round" stroke-linejoin="round" stroke-miterlimit="10" d="
		M110.5,209.5c-0.1,1,1.2,1.7,2,1.2c0.8-0.5,0.5-2-0.4-2.3"/>
	<path fill="none" stroke="#009444" stroke-width="7" stroke-linecap="round" stroke-linejoin="round" stroke-miterlimit="10" d="
		M128.8,221.4c1.2,0.4,2.5-1.3,1.7-2.3c-0.6,0-1.1,0-1.7,0"/>
	<path fill="none" stroke="#009444" stroke-width="7" stroke-linecap="round" stroke-linejoin="round" stroke-miterlimit="10" d="
		M126.3,188.5c0.2,0.5,0.8,0.6,1.2,0.4c0.4-0.3,0.4-1,0-1.3c-0.4,0-0.8,0-1.2-0.1"/>
	<path fill="none" stroke="#009444" stroke-width="7" stroke-linecap="round" stroke-linejoin="round" stroke-miterlimit="10" d="
		M98.3,169.4c-0.7,1.8,1.5,3.9,3.3,3.2c0.1-1.3-1.1-2.6-2.4-2.6"/>
	<path fill="none" stroke="#009444" stroke-width="7" stroke-linecap="round" stroke-linejoin="round" stroke-miterlimit="10" d="
		M157.6,232.1c0.7,0.8,2,1.1,3,0.7c0-0.9,0-1.8,0-2.7c-0.6,0.1-1.2,0.2-1.9,0.3"/>
	<path fill="none" stroke="#009444" stroke-width="7" stroke-linecap="round" stroke-linejoin="round" stroke-miterlimit="10" d="
		M152.2,203.8c0,0.6,0.7,1.1,1.3,0.9c0.5-0.5-0.1-1.6-0.8-1.4"/>
	<path fill="none" stroke="#009444" stroke-width="7" stroke-linecap="round" stroke-linejoin="round" stroke-miterlimit="10" d="
		M144.2,177.8c0.5,0.5,1.5,0.2,1.7-0.5c0.2-0.7-0.6-1.4-1.3-1.2"/>
	<path fill="none" stroke="#009444" stroke-width="7" stroke-linecap="round" stroke-linejoin="round" stroke-miterlimit="10" d="
		M158.3,182.9c0.4,0.3,1,0.2,1.3-0.2c0.3-0.4,0.1-1.1-0.3-1.3"/>
	<path fill="none" stroke="#009444" stroke-width="7" stroke-linecap="round" stroke-linejoin="round" stroke-miterlimit="10" d="
		M176.5,201.4c0.5,0,0.9,0,1.4-0.1c0-0.4,0-0.9,0-1.3c-0.7-0.3-1.7,0.1-1.9,0.9"/>
	<path fill="none" stroke="#009444" stroke-width="7" stroke-linecap="round" stroke-linejoin="round" stroke-miterlimit="10" d="
		M195.6,208.2c0.6-0.1,1.2-0.3,1.7-0.4c-0.6-0.1-1.2-0.1-1.8-0.2"/>
	<path fill="none" stroke="#009444" stroke-width="7" stroke-linecap="round" stroke-linejoin="round" stroke-miterlimit="10" d="
		M191,182.8c0.1-0.5,0.3-1,0.4-1.5"/>
	<path fill="none" stroke="#009444" stroke-width="7" stroke-linecap="round" stroke-linejoin="round" stroke-miterlimit="10" d="
		M177,165.7c0.5-0.1,1-0.3,1.4-0.4"/>
	<path fill="none" stroke="#009444" stroke-width="7" stroke-linecap="round" stroke-linejoin="round" stroke-miterlimit="10" d="
		M151,142.3c0.2,0.3,0.4,0.6,0.6,0.9c0.6-0.6,1.3-1.1,1.9-1.7c-0.5-0.1-0.9-0.3-1.4-0.4"/>
	<path fill="none" stroke="#009444" stroke-width="7" stroke-linecap="round" stroke-linejoin="round" stroke-miterlimit="10" d="
		M196.2,143.6c0.1-0.5,0.2-1,0.3-1.5c-0.3,0.3-0.7,0.6-1,0.9"/>
	<path fill="none" stroke="#009444" stroke-width="7" stroke-linecap="round" stroke-linejoin="round" stroke-miterlimit="10" d="
		M210.3,155.1c0.1,0.7,0.3,1.3,0.4,2c0.7-0.1,0.9-1.3,0.2-1.5"/>
	<path fill="none" stroke="#009444" stroke-width="7" stroke-linecap="round" stroke-linejoin="round" stroke-miterlimit="10" d="
		M208.9,178.3c1.1,0.2,2.3-0.7,2.4-1.8c-0.2-0.6-1.3-0.6-1.4,0"/>
	<path fill="none" stroke="#009444" stroke-width="7" stroke-linecap="round" stroke-linejoin="round" stroke-miterlimit="10" d="
		M228.5,196.6c0.4,0,0.9-0.1,1.3-0.1c0.4-0.5-0.2-1.5-0.9-1.4"/>
	<path fill="none" stroke="#009444" stroke-width="7" stroke-linecap="round" stroke-linejoin="round" stroke-miterlimit="10" d="
		M246.3,231.8c1,0.7,2.7-0.5,2.2-1.7c-0.6,0-1.2,0-1.9-0.1"/>
	<path fill="none" stroke="#009444" stroke-width="7" stroke-linecap="round" stroke-linejoin="round" stroke-miterlimit="10" d="
		M238.5,170.4c0.1,0.6,1.3,0.1,0.9-0.4"/>
	<path fill="none" stroke="#009444" stroke-width="7" stroke-linecap="round" stroke-linejoin="round" stroke-miterlimit="10" d="
		M228.5,154.2c0.1,0.5,1.1,0.4,1.1-0.2c-0.3-0.1-0.7-0.3-1-0.4"/>
	<path fill="none" stroke="#009444" stroke-width="7" stroke-linecap="round" stroke-linejoin="round" stroke-miterlimit="10" d="
		M228.5,131.7c-0.3,0.5,0.4,1.1,0.8,0.8C229.7,132.1,229,131.5,228.5,131.7"/>
	<path fill="none" stroke="#009444" stroke-width="7" stroke-linecap="round" stroke-linejoin="round" stroke-miterlimit="10" d="
		M168.9,94.9c-0.2,0.2,0,0.5,0.2,0.5c0.2,0,0.3-0.4,0.1-0.5c0-0.3-0.4-0.4-0.6-0.2c-0.2,0.2,0,0.6,0.3,0.6"/>
	<path fill="none" stroke="#009444" stroke-width="7" stroke-linecap="round" stroke-linejoin="round" stroke-miterlimit="10" d="
		M215.2,107.5c0.9-0.1,1.4-1.4,0.7-2c-0.4,0-0.8,0-1.2-0.1"/>
	<path fill="none" stroke="#009444" stroke-width="7" stroke-linecap="round" stroke-linejoin="round" stroke-miterlimit="10" d="
		M243.8,121.4c0.8-0.2,1.6-0.4,2.4-0.6c-0.9-0.4-1.9-0.9-2.8-1.3"/>
	<path fill="none" stroke="#009444" stroke-width="7" stroke-linecap="round" stroke-linejoin="round" stroke-miterlimit="10" d="
		M277.7,144.2c1.1,0,1.9-1.5,1.2-2.4c-0.6,0-1.1,0-1.7,0"/>
	<path fill="none" stroke="#009444" stroke-width="7" stroke-linecap="round" stroke-linejoin="round" stroke-miterlimit="10" d="
		M254.3,156c1.1,0.3,2.4-0.8,2.3-1.9c-0.6,0.3-1.2,0.6-1.8,0.9"/>
	<path fill="none" stroke="#009444" stroke-width="7" stroke-linecap="round" stroke-linejoin="round" stroke-miterlimit="10" d="
		M283,175.3c0.9-0.1,1.3-1.4,0.7-2c-0.4,0.4-0.8,0.9-1.3,1.3"/>
	<path fill="none" stroke="#009444" stroke-width="7" stroke-linecap="round" stroke-linejoin="round" stroke-miterlimit="10" d="
		M317.3,210.5c0.6,0.3,1.2,0.5,1.9,0.8c-0.6-0.5-1.2-0.9-1.8-1.4"/>
	<path fill="none" stroke="#009444" stroke-width="7" stroke-linecap="round" stroke-linejoin="round" stroke-miterlimit="10" d="
		M302.5,142.2c0.8-0.2,1.2-1.2,0.8-1.9c-0.3,0.3-0.6,0.6-0.9,0.9"/>
	<path fill="none" stroke="#009444" stroke-width="7" stroke-linecap="round" stroke-linejoin="round" stroke-miterlimit="10" d="
		M281.5,124.5c0.5,0,0.9-0.1,1.4-0.1c0.3-0.5-0.4-1.1-0.9-0.8"/>
	<path fill="none" stroke="#009444" stroke-width="7" stroke-linecap="round" stroke-linejoin="round" stroke-miterlimit="10" d="
		M265.4,113.1c-0.3,0.5,0.2,1.1,0.7,1c0.5-0.1,0.7-0.9,0.2-1.2"/>
	<path fill="none" stroke="#009444" stroke-width="7" stroke-linecap="round" stroke-linejoin="round" stroke-miterlimit="10" d="
		M272.4,95.2c0.3,0.1,0.6,0.1,1,0.2c-0.6-0.5-1.2-0.9-1.9-1.4"/>
	<path fill="none" stroke="#009444" stroke-width="7" stroke-linecap="round" stroke-linejoin="round" stroke-miterlimit="10" d="
		M295.8,101.6c0.6,0,1.3,0,1.9-0.1c0.1-1.1-1.4-1.9-2.2-1.2"/>
	<path fill="none" stroke="#009444" stroke-width="7" stroke-linecap="round" stroke-linejoin="round" stroke-miterlimit="10" d="
		M303.1,115.7c0.8-0.6,1.2-1.8,0.8-2.7c-0.3,0.2-0.6,0.3-0.9,0.5"/>
	<path fill="none" stroke="#009444" stroke-width="7" stroke-linecap="round" stroke-linejoin="round" stroke-miterlimit="10" d="
		M333.6,119.4c1-0.2,2-0.3,3-0.5c-0.6-1.2-2.5-1.6-3.4-0.6"/>
	<path fill="none" stroke="#009444" stroke-width="7" stroke-linecap="round" stroke-linejoin="round" stroke-miterlimit="10" d="
		M328.2,92.1c0.5,0.3,0.9,0.6,1.4,0.9c0.2-0.6-0.2-1.3-0.8-1.4"/>
	<path fill="none" stroke="#009444" stroke-width="7" stroke-linecap="round" stroke-linejoin="round" stroke-miterlimit="10" d="
		M257.6,43.9c-0.1,0.6,0.5,1.3,1.1,1.3c0.7,0,1.2-0.6,1.2-1.3c-0.4-0.2-0.8-0.4-1.2-0.7"/>
	<path fill="none" stroke="#009444" stroke-width="7" stroke-linecap="round" stroke-linejoin="round" stroke-miterlimit="10" d="
		M329.9,152.9c-0.8,1.1,0.3,2.9,1.6,2.7c0.5-0.7,0-1.9-0.8-2.1"/>
	<path fill="none" stroke="#009444" stroke-width="7" stroke-linecap="round" stroke-linejoin="round" stroke-miterlimit="10" d="
		M356,102.7c1-0.2,2-0.3,3-0.5c-0.7-0.8-2.2-0.8-2.9,0"/>
	<path fill="none" stroke="#009444" stroke-width="7" stroke-linecap="round" stroke-linejoin="round" stroke-miterlimit="10" d="
		M344,86.2c0.7-0.3,0.6-1.4-0.1-1.7c-0.7-0.2-1.4,0.6-1.1,1.2"/>
	<path fill="none" stroke="#009444" stroke-width="7" stroke-linecap="round" stroke-linejoin="round" stroke-miterlimit="10" d="
		M329.8,75.9c-0.2,0.6,0.7,1.2,1.2,0.9c0.5-0.4,0.3-1.4-0.4-1.4"/>
	<path fill="none" stroke="#009444" stroke-width="7" stroke-linecap="round" stroke-linejoin="round" stroke-miterlimit="10" d="
		M301.2,67.2c0,0.4,0.6,0.5,0.8,0.2c0.2-0.3-0.1-0.8-0.5-0.8"/>
	<path fill="none" stroke="#009444" stroke-width="7" stroke-linecap="round" stroke-linejoin="round" stroke-miterlimit="10" d="
		M348.8,53.9c0.6,0,1.2,0,1.9-0.1c0.3-1-0.9-2.1-1.8-1.7"/>
	<path fill="none" stroke="#009444" stroke-width="7" stroke-linecap="round" stroke-linejoin="round" stroke-miterlimit="10" d="
		M332.9,32.5c0.4,0.3,1.2-0.1,1.1-0.6c-0.1-0.4-0.8-0.3-0.8,0"/>
	<path fill="none" stroke="#009444" stroke-width="7" stroke-linecap="round" stroke-linejoin="round" stroke-miterlimit="10" d="
		M393.2,86.8c0.6,0,1.2,0,1.9-0.1c0.2-0.7,0.3-1.4,0.5-2c-0.8-1.3-3.2-0.3-2.9,1.2"/>
	<path fill="none" stroke="#009444" stroke-width="7" stroke-linecap="round" stroke-linejoin="round" stroke-miterlimit="10" d="
		M379.8,61.1c0.9,0.2,1.8-1.1,1.2-1.9c-0.6,0-1.1,0-1.7,0"/>
	<path fill="none" stroke="#009444" stroke-width="7" stroke-linecap="round" stroke-linejoin="round" stroke-miterlimit="10" d="
		M366.5,78.7c0.6,0.7,1.9,0.6,2.4-0.2c-0.5-0.4-0.9-0.9-1.4-1.3"/>
	<path fill="none" stroke="#009444" stroke-width="7" stroke-linecap="round" stroke-linejoin="round" stroke-miterlimit="10" d="
		M367,35.8c0.4-0.3,0.3-1,0-1.2c-0.4-0.3-1-0.1-1.2,0.3"/>
	<path fill="none" stroke="#009444" stroke-width="7" stroke-linecap="round" stroke-linejoin="round" stroke-miterlimit="10" d="
		M386,40.1c0.5,0.1,0.9,0.3,1.4,0.4c0.1-0.9-0.5-1.7-1.4-1.9"/>
	<path fill="none" stroke="#009444" stroke-width="7" stroke-linecap="round" stroke-linejoin="round" stroke-miterlimit="10" d="
		M390.8,55.3c0.4,0.1,0.9-0.3,0.7-0.7c-0.1-0.4-0.8-0.5-1-0.1"/>
</g>
<text transform="matrix(1 0 0 1 359.0025 158.8114)" fill="#009444" font-family="'PermanentMarker'" font-size="30.74px">data</text>
</svg>
