<?xml version="1.0" encoding="utf-8"?>
<!-- Generator: Adobe Illustrator 19.2.0, SVG Export Plug-In . SVG Version: 6.00 Build 0)  -->
<svg version="1.1" id="Layer_1" xmlns="http://www.w3.org/2000/svg" xmlns:xlink="http://www.w3.org/1999/xlink" x="0px" y="0px"
	 width="648.1px" height="304.9px" viewBox="0 0 648.1 304.9" enable-background="new 0 0 648.1 304.9" xml:space="preserve">
<symbol  id="Arrow_up" viewBox="-26 -25.5 52 29">
	
		<polyline fill="none" stroke="#231F20" stroke-width="7" stroke-linecap="round" stroke-linejoin="round" stroke-miterlimit="10" points="
		-22.5,-22 0,0 22.5,-22 	"/>
</symbol>
<path fill="none" stroke="#FFFFFF" stroke-width="120" stroke-linejoin="bevel" stroke-miterlimit="10" d="M24.1,29.2
	c-9.4,8.5-9.1,25.1,0,34s24.7,9.4,35.1,2c10.5-7.5,15-20.7,22.9-31s24.1-17.2,33.2-8c6.1,6.2,5.6,16.7,11.3,23.4
	c6.3,7.4,18.3,7.1,26.9,2.7c8.7-4.4,15.2-12,22.7-18.3s16.9-11.5,26.5-9.8c9.6,1.8,17.2,13.6,11.7,21.7c5.5,7.7,17.4,7.7,25.8,3.4
	c8.4-4.4,14.7-11.9,22.2-17.7c7.5-5.8,17.6-10,26.3-6.2c7.8,3.4,11.7,11.8,16.5,18.8c4.7,7,12.9,13.7,20.9,10.8
	c5-1.8,8-6.7,10.8-11.2c2.8-4.5,6.3-9.2,11.5-10.1c5.2-0.9,11.1,5,8.2,9.4c-63.7,29.9-137.2,38.4-206.1,23.6
	c-21-4.5-42.1-11.1-63.5-9.2c-35.9,3.2-67.7,33.3-72.8,69c36-12.3,71.9-24.7,107.9-37c-1.1,14.7-2.1,29.5-3.2,44.2
	c15.9-15.1,31.8-30.2,47.7-45.3c5.8-5.5,13.8-11.4,20.9-7.9c5.7,2.7,7.4,10.5,5.2,16.3c-2.2,5.9-7.4,10.1-12.7,13.4
	c-18.5,11.6-40.8,15.3-62.5,17.7c-21.7,2.3-43.9,3.6-64.4,11.1s-39.7,22.5-45.8,43.4c16.2,1.3,32.4,2.5,48.6,3.8
	c-13.5,20.8-27.1,41.5-40.6,62.3c9.3-1.2,18.7-2.5,28-3.7c-4.8,13.4-9.7,26.9-14.5,40.3c4.9,0.9,9.9,1.8,14.8,2.8
	c-0.8-16.8-1.7-33.6-2.5-50.4c-0.2-3.8-0.4-7.8,1.2-11.3c4.2-9.1,18.4-9.1,25.7-2.2c7.3,6.9,9.4,17.6,10.6,27.5
	c1.2,10,2.3,20.5,8.3,28.6c6,8,19.1,11.7,26.1,4.6c-1.1-26.8-2.1-53.6-3.2-80.4c11.4,33.4,28.4,64.9,50.2,92.7
	c16.5-29.3,5.7-66.3-9.9-96s-36.3-58.5-39.5-91.9c-6.3,9.2-12.6,18.5-15.6,29.2s-2.2,23.1,4.8,31.6c7.1,8.6,21.3,11.3,29.5,4
	c-6.9,11.5-2.8,28.1,8.3,35.7s27.5,5.7,37.1-3.7c9.6-9.4,12-25.1,6.3-37.3c11.1-3,19,10.8,21.3,22.1s6.4,25.5,17.8,26.7
	c10.5,1.1,18-10.8,18.3-21.3c0.3-10.5-3.7-20.8-3.3-31.3s8.1-22.4,18.5-21.1c11.8,1.5,15.2,16.7,15.9,28.6
	c0.6,11.9,4.4,27.2,16.3,28.2c8.1,0.7,15-6.7,17-14.5c2-7.9,0.5-16.1-0.3-24.2c-2.6-26.5,3-53.7,15.8-77c-0.4,34.7,1,73.6,26.2,97.4
	c3.6-36.6,7.2-73.3,10.8-109.9c7.8,31.3,15.5,62.5,23.3,93.8c2.6,10.3,7.9,22.9,18.5,22.8c6.4-0.1,11.8-5.4,14-11.5
	c2.2-6,1.9-12.7,1.5-19.1c-2-35.3-4-70.5-6-105.8c18.7,14.3,29,38.8,26,62.2c-1.1,8.4-3.7,17.1-1.4,25.3c2.3,8.2,12.7,14.8,19.4,9.5
	c4.5-3.6,4.8-10.2,4.7-16c-0.8-37.4-1.5-74.9-2.3-112.3c4.2-0.6,8.4-1.1,12.6-1.7c-2.6,29.3-5.1,58.6-7.7,87.9
	c-0.6,7.2-1.2,14.7,1.7,21.3s10.5,11.7,17.3,9.3c-0.3-20.9,7.9-42,23.3-56.1c17.3-15.8,41.2-21.4,64-26.4
	c14.2-3.1,28.9-6.3,43.2-3.3c14.2,3,27.9,14,29.1,28.5c1,12-6.9,23.6-17.4,29.4c-10.5,5.8-23.2,6.8-35.1,5.4
	c-15.2-1.8-29.9-7.1-45-9.6s-31.7-2.1-44.4,6.5c-8.1,5.5-13.9,13.9-19.4,22c-10.3,15.2-20.7,30.4-31,45.6c-5,7.3-10.2,16.1-7.4,24.6
	c3.1,9.2,15,13,24.4,10.4c9.4-2.6,16.8-9.6,23.8-16.4c-8.7,31.3-17.3,62.7-26,94c0.9-16.7-11.5-33.1-27.8-36.8
	c-16.3-3.7-34.5,5.8-40.9,21.2c-5.1-10.6-10.3-21.4-18.5-29.8s-20.3-14-31.8-11.5c-22.5,4.8-35.4,37.2-58.1,33.4
	c-11.8-2-19.3-13.4-26.7-22.8c-7.4-9.5-19.2-18.6-30.3-14.2c-12.3,4.9-13.6,22.2-23,31.6c-8.7,8.7-23.2,8.9-34.3,3.8
	c-11.2-5-19.8-14.3-28.1-23.3"/>
<g>
	
		<polyline fill="none" stroke="#231F20" stroke-width="7" stroke-linecap="round" stroke-linejoin="round" stroke-miterlimit="10" points="
		457.5,233 479.5,255.5 457.5,278 	"/>
	
		<line fill="none" stroke="#231F20" stroke-width="7" stroke-linecap="round" stroke-linejoin="round" stroke-miterlimit="10" x1="20.5" y1="255.5" x2="479.5" y2="255.5"/>
	
		<line fill="none" stroke="#231F20" stroke-width="7" stroke-linecap="round" stroke-linejoin="round" stroke-miterlimit="10" x1="43" y1="278" x2="43" y2="63.7"/>
	
		<use xlink:href="#Arrow_up"  width="52" height="29" x="-26" y="-25.5" transform="matrix(1 0 0 -1 42.9582 62.2152)" overflow="visible"/>
</g>
<g id="Arrow_right">
</g>
<text transform="matrix(1 0 0 1 421.1272 219.8659)" fill="#231F20" font-family="'PermanentMarker'" font-size="30.74px">time</text>
<text transform="matrix(1 0 0 1 12.1718 48.7433)" fill="#231F20" font-family="'PermanentMarker'" font-size="30.74px">% of life figured out</text>
<path fill="none" stroke="#BE1E2D" stroke-width="7" stroke-linecap="round" stroke-linejoin="round" stroke-miterlimit="10" d="
	M43.4,254.7c24.1-7.3,48.1-14.7,72.2-22c6.9-2.1,13.8-4.2,20.7-6.3"/>
<path fill="none" stroke="#231F20" stroke-width="7" stroke-linecap="round" stroke-linejoin="round" stroke-miterlimit="10" d="
	M135.9,248.8c-0.1,4.4-0.2,8.7-0.3,13.1"/>
<text transform="matrix(1 0 0 1 104.6191 289.4854)" fill="#231F20" font-family="'PermanentMarker'" font-size="30.74px">now</text>
<text transform="matrix(0.9572 -0.2895 0.2895 0.9572 156.931 229.5445)" fill="#BE1E2D" font-family="'PermanentMarker'" font-size="30.74px">me</text>
<path fill="none" stroke="#009444" stroke-width="7" stroke-linecap="round" stroke-linejoin="round" stroke-miterlimit="10" d="
	M42.3,253.9c31.2-14.8,62.2-30.8,93.7-45.5"/>
<text transform="matrix(0.8976 -0.4407 0.4407 0.8976 150.8596 209.9556)" fill="#009444" font-family="'PermanentMarker'" font-size="30.74px">others</text>
<g>
	<path fill="none" stroke="#231F20" stroke-width="7" stroke-linecap="round" stroke-linejoin="round" stroke-miterlimit="10" d="
		M127.8,190.9c1.9,2,3.8,4,5.7,5.9c1.9-3,3.9-6.1,5.8-9.1"/>
	<path fill="none" stroke="#231F20" stroke-width="7" stroke-linecap="round" stroke-linejoin="round" stroke-miterlimit="10" d="
		M133,195c2.4-9.8-2.9-19.8-8.6-28.1c-5.7-8.3-12.4-16.8-13.2-26.8c-0.7-7.6,2.3-15.4,7.9-20.6"/>
	<text transform="matrix(1 0 0 1 92.0665 108.6607)" fill="#231F20" font-family="'PermanentMarker'" font-size="30.74px">tiny gap</text>
</g>
<g>
	<path fill="none" stroke="#BE1E2D" stroke-width="7" stroke-linecap="round" stroke-linejoin="round" stroke-miterlimit="10" d="
		M440.7,133.7c3.1-0.9,6.2-1.8,9.3-2.8"/>
	<path fill="none" stroke="#BE1E2D" stroke-width="7" stroke-linecap="round" stroke-linejoin="round" stroke-miterlimit="10" d="
		M413,142.1c2.2-0.7,4.4-1.4,6.6-2"/>
	<path fill="none" stroke="#BE1E2D" stroke-width="7" stroke-linecap="round" stroke-linejoin="round" stroke-miterlimit="10" d="
		M384,151.1c2.4-0.8,4.8-1.5,7.2-2.3"/>
	<path fill="none" stroke="#BE1E2D" stroke-width="7" stroke-linecap="round" stroke-linejoin="round" stroke-miterlimit="10" d="
		M356.1,159.9c2.2-0.7,4.4-1.4,6.6-2.1"/>
	<path fill="none" stroke="#BE1E2D" stroke-width="7" stroke-linecap="round" stroke-linejoin="round" stroke-miterlimit="10" d="
		M325.7,169.3c3.1-0.9,6.2-1.9,9.3-2.8"/>
	<path fill="none" stroke="#BE1E2D" stroke-width="7" stroke-linecap="round" stroke-linejoin="round" stroke-miterlimit="10" d="
		M297,177.9c3.3-1,6.5-1.9,9.8-2.9"/>
	<path fill="none" stroke="#BE1E2D" stroke-width="7" stroke-linecap="round" stroke-linejoin="round" stroke-miterlimit="10" d="
		M269.3,185.9c2.9-0.8,5.7-1.6,8.6-2.4"/>
	<path fill="none" stroke="#BE1E2D" stroke-width="7" stroke-linecap="round" stroke-linejoin="round" stroke-miterlimit="10" d="
		M242.3,193.6c2.4-0.7,4.9-1.4,7.3-2.1"/>
	<path fill="none" stroke="#BE1E2D" stroke-width="7" stroke-linecap="round" stroke-linejoin="round" stroke-miterlimit="10" d="
		M214.6,202.2c2.9-0.9,5.7-1.8,8.6-2.6"/>
</g>
<g>
	<path fill="none" stroke="#009444" stroke-width="7" stroke-linecap="round" stroke-linejoin="round" stroke-miterlimit="10" d="
		M445.6,57.8c1.5-0.7,2.9-1.3,4.4-2"/>
	<path fill="none" stroke="#009444" stroke-width="7" stroke-linecap="round" stroke-linejoin="round" stroke-miterlimit="10" d="
		M425.7,67.2c1.6-0.8,3.3-1.6,5-2.4"/>
	<path fill="none" stroke="#009444" stroke-width="7" stroke-linecap="round" stroke-linejoin="round" stroke-miterlimit="10" d="
		M400.4,79.5c2.5-1.2,4.9-2.4,7.4-3.6"/>
	<path fill="none" stroke="#009444" stroke-width="7" stroke-linecap="round" stroke-linejoin="round" stroke-miterlimit="10" d="
		M374.6,92.3c2.9-1.4,5.7-2.9,8.6-4.3"/>
	<path fill="none" stroke="#009444" stroke-width="7" stroke-linecap="round" stroke-linejoin="round" stroke-miterlimit="10" d="
		M350.8,104.1c2-1,4.1-2,6.1-3"/>
	<path fill="none" stroke="#009444" stroke-width="7" stroke-linecap="round" stroke-linejoin="round" stroke-miterlimit="10" d="
		M325.1,117c2.9-1.4,5.7-2.9,8.6-4.3"/>
	<path fill="none" stroke="#009444" stroke-width="7" stroke-linecap="round" stroke-linejoin="round" stroke-miterlimit="10" d="
		M299.6,129.4c2.9-1.4,5.8-2.8,8.7-4.2"/>
	<path fill="none" stroke="#009444" stroke-width="7" stroke-linecap="round" stroke-linejoin="round" stroke-miterlimit="10" d="
		M273.7,141.4c2.7-1.2,5.4-2.4,8-3.7"/>
	<path fill="none" stroke="#009444" stroke-width="7" stroke-linecap="round" stroke-linejoin="round" stroke-miterlimit="10" d="
		M249.3,153.3c2.3-1.1,4.6-2.2,6.9-3.3"/>
</g>
<g>
	<path fill="none" stroke="#231F20" stroke-width="7" stroke-linecap="round" stroke-linejoin="round" stroke-miterlimit="10" d="
		M461.6,55.8c1.3-0.5,2.8,0.5,3.5,1.7c0.7,1.3,0.7,2.7,0.7,4.2c0,6.7,0,13.5,0,20.2c0,2.4,0,4.8,1.2,6.9c0.6,1.1,1.5,2,2.7,2.6
		c-3.1,2.7-3.2,7.4-3,11.5c0.2,4.7,0.3,9.4,0.5,14.1c0.1,2,0.1,4-0.5,5.9c-0.6,1.9-2,3.7-4,4.1"/>
	<text transform="matrix(1 0 0 1 488.8467 84.9995)"><tspan x="0" y="0" fill="#231F20" font-family="'PermanentMarker'" font-size="30.74px">projected</tspan><tspan x="0" y="30" fill="#231F20" font-family="'PermanentMarker'" font-size="30.74px">gap</tspan></text>
</g>
</svg>
