<?xml version="1.0" encoding="utf-8"?>
<!-- Generator: Adobe Illustrator 19.2.0, SVG Export Plug-In . SVG Version: 6.00 Build 0)  -->
<svg version="1.1" id="Layer_1" xmlns="http://www.w3.org/2000/svg" xmlns:xlink="http://www.w3.org/1999/xlink" x="0px" y="0px"
	 width="329.2px" height="389.4px" viewBox="0 0 329.2 389.4" enable-background="new 0 0 329.2 389.4" xml:space="preserve">
<path fill="none" stroke="#FFFFFF" stroke-width="120" stroke-linejoin="bevel" stroke-miterlimit="10" d="M-14.4,61.1
	c29.6-19.7,59.3-39.3,88.9-59C50.4,35.8,26.3,69.4,2.2,103C54.2,60.4,106.3,17.7,158.4-24.9C122.8,11.9,87.1,48.6,51.5,85.4
	C26.4,111.3,0.1,139.4-6.1,175c28-36.4,56.2-72.9,89.7-104.3S156.5,13,200.7,0.8C129.3,55.1,65.5,119.3,11.6,191.1
	c47.8-23.4,82.6-66.1,118.7-105.2S208.5,8.5,260.9-0.7c-34.7,53.5-88.7,90.8-139.3,129.5S20.6,212-1.3,271.9
	c61-35.1,105.5-92.1,151.1-145.7S246.6,19.5,313.2-3.1c-35,73.6-101.7,126.1-164.9,177.5S20.6,282.6-6.5,359.5
	c97-51,143.4-172.9,244-216.3c-17.7,43.4-43,83.7-74.4,118.5c-16.6,18.4-34.9,35.4-49.3,55.7S89.2,362,91.7,386.7
	c55.5-78.8,119-152.1,189.1-218.3c-45.3,73.4-90.7,146.9-136,220.3c23.4,0.4,38-24.3,47.6-45.6c20.3-45.3,40.6-90.5,60.9-135.8
	c4-8.9,8.4-18.2,16.5-23.5s21.2-4.4,25.4,4.4c3.3,6.9-0.1,15-3.4,21.9c-28.9,59.8-57.8,119.5-86.7,179.3
	c38.1-29.9,70.2-67.3,93.9-109.5c-2.4,34.5-4.7,69-7.1,103.6c19-8.1,23-35.9,11.4-53s-33.2-24.7-53.7-26.2
	c-40.5-2.9-79.8,13.3-115.6,32.3c-35.8,19-70.4,41.4-109.4,52.6"/>
<g>
	
		<line fill="none" stroke="#000000" stroke-width="7" stroke-linecap="round" stroke-linejoin="round" stroke-miterlimit="10" x1="39.6" y1="52.5" x2="39.6" y2="335.8"/>
	
		<line fill="none" stroke="#000000" stroke-width="7" stroke-linecap="round" stroke-linejoin="round" stroke-miterlimit="10" x1="17.1" y1="313.3" x2="300.1" y2="313.3"/>
	<g>
		
			<polyline fill="none" stroke="#000000" stroke-width="7" stroke-linecap="round" stroke-linejoin="round" stroke-miterlimit="10" points="
			17.1,74.5 39.6,52.5 62.1,74.5 		"/>
	</g>
	<g>
		
			<polyline fill="none" stroke="#000000" stroke-width="7" stroke-linecap="round" stroke-linejoin="round" stroke-miterlimit="10" points="
			278.1,290.8 300.1,313.3 278.1,335.8 		"/>
	</g>
</g>
<g id="Arrow_right">
</g>
<text transform="matrix(1 0 0 1 64.2997 374.3752)" font-family="'PermanentMarker'" font-size="30.74px">easy to get into</text>
<text transform="matrix(1 0 0 1 11.6443 34.6465)" font-family="'PermanentMarker'" font-size="30.74px">hard to get out of</text>
<path fill="none" stroke="#CE3045" stroke-width="7" stroke-linecap="round" stroke-linejoin="round" stroke-miterlimit="10" d="
	M68.6,283.5c38.2-82.2,101.3-152.6,178.8-199.6"/>
<g>
	<text transform="matrix(1 0 0 1 163.7173 273.7433)" font-family="'PermanentMarker'" font-size="30.74px">running</text>
	<path fill="none" stroke="#000000" stroke-width="7" stroke-linecap="round" stroke-linejoin="round" stroke-miterlimit="10" d="
		M73.4,261.8c2.7,2.7,5.3,5.4,8,8.1"/>
	<path fill="none" stroke="#000000" stroke-width="7" stroke-linecap="round" stroke-linejoin="round" stroke-miterlimit="10" d="
		M85.2,262.4c-5.2,1.6-10,4.3-14.1,7.8"/>
	<path fill="none" stroke="#000000" stroke-width="7" stroke-linecap="round" stroke-linejoin="round" stroke-miterlimit="10" d="
		M91,275.1c-0.2,5,4.3,9.3,9.2,10.1c4.9,0.8,9.9-1.3,13.8-4.4c3.9-3.1,6.9-7.2,10-11.1s6.4-7.7,10.8-10.2c6.4-3.6,14.7-3.6,21.1,0.1
		"/>
</g>
<g>
	<path fill="none" stroke="#000000" stroke-width="7" stroke-linecap="round" stroke-linejoin="round" stroke-miterlimit="10" d="
		M163.9,140.6c3.8,2.6,7.7,5.1,11.5,7.7"/>
	<path fill="none" stroke="#000000" stroke-width="7" stroke-linecap="round" stroke-linejoin="round" stroke-miterlimit="10" d="
		M173.7,137.4c-0.8,1.2-1.6,2.5-2.3,3.7c-2.1,3.3-4.2,6.9-4,10.8"/>
	<path fill="none" stroke="#000000" stroke-width="7" stroke-linecap="round" stroke-linejoin="round" stroke-miterlimit="10" d="
		M182.5,160.1c1.2,3.5,2.3,6.9,3.5,10.4c1.7,5,3.4,10.1,6.5,14.4c5.2,7,14.4,11,23.1,9.9"/>
	<text transform="matrix(1 0 0 1 227.8724 201.4814)" font-family="'PermanentMarker'" font-size="30.74px">ikea</text>
</g>
<g>
	<path fill="none" stroke="#000000" stroke-width="7" stroke-linecap="round" stroke-linejoin="round" stroke-miterlimit="10" d="
		M232.9,85.3c4,2.5,8,5,12,7.4"/>
	<path fill="none" stroke="#000000" stroke-width="7" stroke-linecap="round" stroke-linejoin="round" stroke-miterlimit="10" d="
		M240.6,82c-1.1,5-2.2,10.1-3.3,15.1"/>
	<path fill="none" stroke="#000000" stroke-width="7" stroke-linecap="round" stroke-linejoin="round" stroke-miterlimit="10" d="
		M221.2,77.8c-3.9-2.5-7.9-4.9-12.4-6.3s-9.4-1.4-13.5,0.9c-3.7,2-6.1,5.7-8.2,9.3c-2.1,3.6-4.1,7.4-7.2,10.2
		c-3.1,2.8-7.7,4.4-11.5,2.7"/>
	<text transform="matrix(1 0 0 1 63.047 101.4318)" font-family="'PermanentMarker'" font-size="30.74px">heroin</text>
</g>
<g id="Arrow_up">
</g>
</svg>
