 
 
 
<svg version="1.1" id="Layer_1" xmlns="http://www.w3.org/2000/svg" xmlns:xlink="http://www.w3.org/1999/xlink" x="0px" y="0px"
	 viewBox="0 0 868 494" enable-background="new 0 0 868 494" xml:space="preserve">
<path stroke="#FFFFFF" stroke-width="120" d="M13.6,145.6
	c59.3-13,126.8,18.6,179.2-11.9c22.4-13.1,37.5-35.3,54.7-54.7s40-37.3,65.9-36.4c-35.2,50-54.9,110.8-55.7,172
	c-0.4,29,3.1,59.3-8.5,85.8c-11.5,26.3-36,44.4-60.8,58.7C136.3,389.3,78,408.7,18.2,415.8c52.6-12.8,107.1-17.4,161.1-13.5
	c18.2,1.3,37.3,3.4,54-3.8s29.3-27.9,20.8-44c2.4,34.3,9.8,68.3,21.8,100.5c13.1,10.6,32.9,1.5,45-10.3s23.3-27,40-29.5
	c22.9-3.4,40.6,18.3,60.1,30.8c25.8,16.6,60.9,17.2,87.3,1.6c12.5-7.4,22.9-18,35.7-24.7c12.8-6.7,30-8.6,40.8,1
	c6,5.3,9.1,13.4,15.6,18.1c10.3,7.6,24.7,4.2,36.9,0.5c49.4-15,98.7-29.9,148.1-44.9c2.6,22.6-1.6,46-11.8,66.3
	c20.4,0.8,41.4-10.1,50.3-28.4c8.9-18.3,3.3-43.2-13.9-54.1c-23-14.6-52.5-1.4-79.1,4.3c-49.5,10.6-100-6.6-148.9-19.6
	c-48.9-13-109.6-7.2-152.9,18.9c151.9-77.8,259.9-249,416.6-316.5C767.3,117,645.7,51.6,566.1,98.4c2.7-25.8-24.3-48.8-50-45.8
	s-46,27.1-48.9,52.9C444.1,86.7,421.1,67.9,398,49c-11.4-9.3-26-19.1-39.6-13.6C348,39.6,342.9,51,338.8,61.3
	c-8.1,20.5-16.3,43.3-8.6,64c5.2,13.9,16.7,24.3,27.8,34.1c48.4,42.8,96.8,85.5,145.2,128.3"/>
<g>
	
		<line stroke-width="7" x1="236.2" y1="424.7" x2="819.6" y2="424.7"/>
	
		<polyline stroke-width="7" points="
		797.6,402.2 819.6,424.7 797.6,447.2 	"/>
	<text transform="matrix(1 0 0 1 765.187 382.1011)" font-family="'PermanentMarker'" font-size="31">age</text>
	<path d="
		M766.8,380.2c0-1.4,5.2-12.7,8.5-13.8c0,0,5.3,11.5,2.3,14.2"/>
	<path d="
		M771.6,376.8c1.4,0,8.3-1.9,9.6-2.8"/>
	<path d="
		M795.8,366.2c-3.9,1.2-12.4,9-10.4,12.2s14.9-0.8,15.5-2.1s-4-2.7-4-2.7"/>
	<path d="
		M807.8,367.6c0.9,2-2.8,10-2.4,11.1c0.4,1.1,7.7,2,11.2,0.4"/>
	<path d="
		M807.4,367.9c0.4-0.3,10.2-1.8,10.8-2.4"/>
	<path d="
		M807.4,372.4c0.7,0.2,6.3,0.8,7,0"/>
	<text transform="matrix(1 0 0 1 272.1157 461.502)" font-family="'PermanentMarker'" font-size="31">20</text>
	<path d="
		M277.4,442.4c1-0.4,9.8-1.9,11.4,1.4s-16.4,10.2-11.8,13.5s14.9-0.9,14.9-0.9"/>
	<path d="
		M305,440.7c-4.5,2.1-13,13.2-10.3,16.5c2.7,3.3,13.5,0.7,14.3-2.8s-4.5-10.8-4.5-10.8"/>
	<text transform="matrix(1 0 0 1 430.1104 461.502)" font-family="'PermanentMarker'" font-size="31">25</text>
	<path d="
		M435.4,442.4c1-0.4,9.8-1.9,11.4,1.4s-16.4,10.2-11.8,13.5s14.9-0.9,14.9-0.9"/>
	<path d="
		M459.8,442.1c-0.9,0.4-7.2,3.1-4.9,5.4s10.2,5.3,9.2,7.9s-7.3,2.8-10.1,2.4 M455.8,444.8l12.7-1.7"/>
	<text transform="matrix(1 0 0 1 588.8555 461.502)" font-family="'PermanentMarker'" font-size="31">30</text>
	<path d="
		M589.8,443.8c0,0,8.6-3,11.9-2s-8.8,5.5-8.4,6.9s9.1,0.9,9,5.1s-12.2,4.5-12.2,4.5"/>
	<path d="
		M619,440.7c-4.5,2.1-13,13.2-10.3,16.5c2.7,3.3,13.5,0.7,14.3-2.8s-4.5-10.8-4.5-10.8"/>
	<text transform="matrix(1 0 0 1 746.8501 461.502)" font-family="'PermanentMarker'" font-size="31">35</text>
	<path d="
		M748.8,443.8c0,0,8.6-3,11.9-2s-8.8,5.5-8.4,6.9s9.1,0.9,9,5.1s-12.2,4.5-12.2,4.5"/>
	<path d="
		M773.8,442.1c-0.9,0.4-7.2,3.1-4.9,5.4s10.2,5.3,9.2,7.9s-7.3,2.8-10.1,2.4 M769.8,444.8l12.7-1.7"/>
</g>
<g>
	
		<polyline stroke-width="7" points="
		236.2,120 258.7,98 281.2,120 	"/>
	
		<line stroke-width="7" x1="258.7" y1="98" x2="258.7" y2="446.7"/>
</g>
<g>
	<text transform="matrix(1 0 0 1 15.6348 158.3125)" font-family="'PermanentMarker'" font-size="31">sounds great !</text>
	<path d="
		M33.1,141.5c-1.2-0.4-11,1.9-11.6,3.5s7.7,2.6,8.1,5.6s-6.9,6.2-7.9,5.8"/>
	<path d="
		M45.4,141.7c-1.8,0.9-13,9.7-9.6,13.2s13.4-0.1,13.6-3.5s-4.5-8.6-4.5-8.6"/>
	<path d="
		M55.1,144.8c-0.7,2-2,8.4,1.2,10.6s11.4-7.7,10.9-12.1"/>
	<path d="
		M70.5,154.9c0-1.5,5.8-12.1,5.8-12.1"/>
	<path d="
		M75.6,145.2c0,1.4,0.3,9.9,3.5,10.1s5.1-13,5.1-13"/>
	<path d="
		M89.9,144.6c0.3,1.8,0.9,7.7,0,11.2"/>
	<path d="
		M90.8,141.8c2.2,0.3,9.2,4.1,9.8,6.2c0.6,2.2-7.2,7.4-8.7,7.8"/>
	<path d="
		M117.1,142.5c-1.2-0.4-11,1.9-11.6,3.5s7.7,2.6,8.1,5.6s-6.9,6.2-7.9,5.8"/>
	<path d="
		M140.8,143.2c-3.9,1.2-12.4,9-10.4,12.2s14.9-0.8,15.5-2.1s-4-2.7-4-2.7"/>
	<path d="
		M152.3,147.1c0.1,0.6-1.7,9.9-1.7,9.9"/>
	<path d="
		M153.4,148.6c0-1.1,4-5.6,4.7-5.7s5.4,4.2,3.9,5.7s-8.6,3.1-8.6,3.1s1.8,5.4,9.4,6.2"/>
	<path d="
		M169.8,143.6c0.9,2-2.8,10-2.4,11.1c0.4,1.1,7.7,2,11.2,0.4"/>
	<path d="
		M169.4,143.9c0.4-0.3,10.2-1.8,10.8-2.4"/>
	<path d="
		M169.4,148.4c0.7,0.2,6.3,0.8,7,0"/>
	<path d="
		M182.8,155.2c0-1.4,5.2-12.7,8.5-13.8c0,0,5.3,11.5,2.3,14.2"/>
	<path d="
		M187.6,151.8c1.4,0,8.3-1.9,9.6-2.8"/>
	<path d="
		M200.1,142.9c1.2,0.3,13.1-1.8,14.8-1.4"/>
	<path d="
		M207.5,141.8c0.3,1.1-4.7,11.8-4.7,13.1s1.1,2.4,1.1,2.4"/>
	<path d="
		M230.4,138.5c0,0-1.4,10.5-2.1,11.5 M226.1,156.8c2,0.8-0.5-1.1,0-1.3"/>
</g>
<g>
	<text transform="matrix(1 0 0 1 236.1895 54.4346)" fill="#B25538" font-family="'PermanentMarker'" font-size="31">going out partying</text>
	<path stroke="#B25538" d="
		M249.8,38.2c-3.9,1.2-12.4,9-10.4,12.2s14.9-0.8,15.5-2.1s-4-2.7-4-2.7"/>
	<path stroke="#B25538" d="
		M268.4,38.7c-1.8,0.9-13,9.7-9.6,13.2s13.4-0.1,13.6-3.5s-4.5-8.6-4.5-8.6"/>
	<path stroke="#B25538" d="
		M280.4,39.6c-1.1,1.4-2.5,12.2-2.1,13.7"/>
	<path stroke="#B25538" d="
		M286.5,51.9c0-1.5,5.8-12.1,5.8-12.1"/>
	<path stroke="#B25538" d="
		M291.6,42.2c0,1.4,0.3,9.9,3.5,10.1s5.1-13,5.1-13"/>
	<path stroke="#B25538" d="
		M314.8,38.2c-3.9,1.2-12.4,9-10.4,12.2s14.9-0.8,15.5-2.1s-4-2.7-4-2.7"/>
	<path stroke="#B25538" d="
		M346.4,38.7c-1.8,0.9-13,9.7-9.6,13.2s13.4-0.1,13.6-3.5s-4.5-8.6-4.5-8.6"/>
	<path stroke="#B25538" d="
		M357.1,40.8c-0.7,2-2,8.4,1.2,10.6s11.4-7.7,10.9-12.1"/>
	<path stroke="#B25538" d="
		M373.1,39.9c1.2,0.3,13.1-1.8,14.8-1.4"/>
	<path stroke="#B25538" d="
		M380.5,38.8c0.3,1.1-4.7,11.8-4.7,13.1s1.1,2.4,1.1,2.4"/>
	<path stroke="#B25538" d="
		M400,52.3c0.4-0.6,1.5-11.7,4.2-13.7s8.7,0.6,7.7,3.4s-7.1,4.6-11.5,3.6"/>
	<path stroke="#B25538" d="
		M414.8,52.2c0-1.4,5.2-12.7,8.5-13.8c0,0,5.3,11.5,2.3,14.2"/>
	<path stroke="#B25538" d="
		M419.6,48.8c1.4,0,8.3-1.9,9.6-2.8"/>
	<path stroke="#B25538" d="
		M435.3,42.1c0.1,0.6-1.7,9.9-1.7,9.9"/>
	<path stroke="#B25538" d="
		M436.4,43.6c0-1.1,4-5.6,4.7-5.7s5.4,4.2,3.9,5.7s-8.6,3.1-8.6,3.1s1.8,5.4,9.4,6.2"/>
	<path stroke="#B25538" d="
		M449.1,38.9c1.2,0.3,13.1-1.8,14.8-1.4"/>
	<path stroke="#B25538" d="
		M456.5,37.8c0.3,1.1-4.7,11.8-4.7,13.1s1.1,2.4,1.1,2.4"/>
	<path stroke="#B25538" d="
		M464.7,38.8c0,1.6,1.3,7.8,3.6,8.8"/>
	<path stroke="#B25538" d="
		M473.9,38.8c-0.9,0.4-9.8,12.3-9.4,15.1"/>
	<path stroke="#B25538" d="
		M479.4,39.6c-1.1,1.4-2.5,12.2-2.1,13.7"/>
	<path stroke="#B25538" d="
		M485.5,51.9c0-1.5,5.8-12.1,5.8-12.1"/>
	<path stroke="#B25538" d="
		M490.6,42.2c0,1.4,0.3,9.9,3.5,10.1s5.1-13,5.1-13"/>
	<path stroke="#B25538" d="
		M513.8,39.2c-3.9,1.2-12.4,9-10.4,12.2s14.9-0.8,15.5-2.1s-4-2.7-4-2.7"/>
</g>
<path stroke="#B25538" stroke-width="7" d="
	M292.8,120c161.4,0,165.3,285,471.7,285"/>
<g>
	<text transform="matrix(1 0 0 1 25.2617 404.9971)" font-family="'PermanentMarker'" font-size="31">you kidding ?!</text>
	<path d="
		M30.7,387.8c0,1.6,1.3,7.8,3.6,8.8"/>
	<path d="
		M39.9,387.8c-0.9,0.4-9.8,12.3-9.4,15.1"/>
	<path d="
		M50.4,387.7c-1.8,0.9-13,9.7-9.6,13.2s13.4-0.1,13.6-3.5s-4.5-8.6-4.5-8.6"/>
	<path d="
		M62.1,391.8c-0.7,2-2,8.4,1.2,10.6s11.4-7.7,10.9-12.1"/>
	<path d="
		M93.9,388.3c-1.1,1.1-5.1,12.8-4.5,13.9s7.6-9.8,14.2-12.2"/>
	<path d="
		M95.6,396.9c0.8,2.1,5.1,5.6,9.3,4.8"/>
	<path d="
		M113.4,389.6c-1.1,1.4-2.5,12.2-2.1,13.7"/>
	<path d="
		M119.9,390.6c0.3,1.8,0.9,7.7,0,11.2"/>
	<path d="
		M120.8,387.8c2.2,0.3,9.2,4.1,9.8,6.2c0.6,2.2-7.2,7.4-8.7,7.8"/>
	<path d="
		M134.9,391.6c0.3,1.8,0.9,7.7,0,11.2"/>
	<path d="
		M135.8,388.8c2.2,0.3,9.2,4.1,9.8,6.2c0.6,2.2-7.2,7.4-8.7,7.8"/>
	<path d="
		M153.4,390.6c-1.1,1.4-2.5,12.2-2.1,13.7"/>
	<path d="
		M159.5,400.9c0-1.5,5.8-12.1,5.8-12.1"/>
	<path d="
		M164.6,391.2c0,1.4,0.3,9.9,3.5,10.1s5.1-13,5.1-13"/>
	<path d="
		M187.8,389.2c-3.9,1.2-12.4,9-10.4,12.2s14.9-0.8,15.5-2.1s-4-2.7-4-2.7"/>
	<path d="
		M211.1,386.6c0.9-2.3,12.9-1.9,12.9-0.5c0.1,3.8-10.7,8-11.2,10.7 M210.6,402.1c-0.3,0.4,0.4,1.6,0.5,1.4"/>
	<path d="
		M229.4,384.5c0,0-1.4,10.5-2.1,11.5 M225.1,402.8c2,0.8-0.5-1.1,0-1.3"/>
</g>
<g>
	<text transform="matrix(1 0 0 1 236.1895 85.4346)" fill="#507282" font-family="'PermanentMarker'" font-size="31">gettin up nice and early for the market</text>
	<path stroke="#507282" d="
		M249.8,69.2c-3.9,1.2-12.4,9-10.4,12.2s14.9-0.8,15.5-2.1s-4-2.7-4-2.7"/>
	<path stroke="#507282" d="
		M260.8,70.6c0.9,2-2.8,10-2.4,11.1c0.4,1.1,7.7,2,11.2,0.4"/>
	<path stroke="#507282" d="
		M260.4,70.9c0.4-0.3,10.2-1.8,10.8-2.4"/>
	<path stroke="#507282" d="
		M260.4,75.4c0.7,0.2,6.3,0.8,7,0"/>
	<path stroke="#507282" d="
		M274.1,69.9c1.2,0.3,13.1-1.8,14.8-1.4"/>
	<path stroke="#507282" d="
		M281.5,68.8c0.3,1.1-4.7,11.8-4.7,13.1s1.1,2.4,1.1,2.4"/>
	<path stroke="#507282" d="
		M289.1,69.9c1.2,0.3,13.1-1.8,14.8-1.4"/>
	<path stroke="#507282" d="
		M296.5,68.8c0.3,1.1-4.7,11.8-4.7,13.1s1.1,2.4,1.1,2.4"/>
	<path stroke="#507282" d="
		M308.4,69.6c-1.1,1.4-2.5,12.2-2.1,13.7"/>
	<path stroke="#507282" d="
		M314.5,81.9c0-1.5,5.8-12.1,5.8-12.1"/>
	<path stroke="#507282" d="
		M319.6,72.2c0,1.4,0.3,9.9,3.5,10.1s5.1-13,5.1-13"/>
	<path stroke="#507282" d="
		M346.1,72.8c-0.7,2-2,8.4,1.2,10.6s11.4-7.7,10.9-12.1"/>
	<path stroke="#507282" d="
		M363,83.3c0.4-0.6,1.5-11.7,4.2-13.7s8.7,0.6,7.7,3.4s-7.1,4.6-11.5,3.6"/>
	<path stroke="#507282" d="
		M388.5,81.9c0-1.5,5.8-12.1,5.8-12.1"/>
	<path stroke="#507282" d="
		M393.6,72.2c0,1.4,0.3,9.9,3.5,10.1s5.1-13,5.1-13"/>
	<path stroke="#507282" d="
		M410.4,69.6c-1.1,1.4-2.5,12.2-2.1,13.7"/>
	<path stroke="#507282" d="
		M426.6,69.2c-3.5,0.7-12.2,5.9-10.2,10.6c2.1,4.7,10.2,3.1,10.2,3.1"/>
	<path stroke="#507282" d="
		M434.8,70.6c0.9,2-2.8,10-2.4,11.1c0.4,1.1,7.7,2,11.2,0.4"/>
	<path stroke="#507282" d="
		M434.4,70.9c0.4-0.3,10.2-1.8,10.8-2.4"/>
	<path stroke="#507282" d="
		M434.4,75.4c0.7,0.2,6.3,0.8,7,0"/>
	<path stroke="#507282" d="
		M458.8,83.2c0-1.4,5.2-12.7,8.5-13.8c0,0,5.3,11.5,2.3,14.2"/>
	<path stroke="#507282" d="
		M463.6,79.8c1.4,0,8.3-1.9,9.6-2.8"/>
	<path stroke="#507282" d="
		M477.5,81.9c0-1.5,5.8-12.1,5.8-12.1"/>
	<path stroke="#507282" d="
		M482.6,72.2c0,1.4,0.3,9.9,3.5,10.1s5.1-13,5.1-13"/>
	<path stroke="#507282" d="
		M495.9,71.6c0.3,1.8,0.9,7.7,0,11.2"/>
	<path stroke="#507282" d="
		M496.8,68.8c2.2,0.3,9.2,4.1,9.8,6.2c0.6,2.2-7.2,7.4-8.7,7.8"/>
	<path stroke="#507282" d="
		M524.8,71.6c0.9,2-2.8,10-2.4,11.1c0.4,1.1,7.7,2,11.2,0.4"/>
	<path stroke="#507282" d="
		M524.4,71.9c0.4-0.3,10.2-1.8,10.8-2.4"/>
	<path stroke="#507282" d="
		M524.4,76.4c0.7,0.2,6.3,0.8,7,0"/>
	<path stroke="#507282" d="
		M537.8,83.2c0-1.4,5.2-12.7,8.5-13.8c0,0,5.3,11.5,2.3,14.2"/>
	<path stroke="#507282" d="
		M542.6,79.8c1.4,0,8.3-1.9,9.6-2.8"/>
	<path stroke="#507282" d="
		M558.3,73.1c0.1,0.6-1.7,9.9-1.7,9.9"/>
	<path stroke="#507282" d="
		M559.4,74.6c0-1.1,4-5.6,4.7-5.7s5.4,4.2,3.9,5.7s-8.6,3.1-8.6,3.1s1.8,5.4,9.4,6.2"/>
	<path stroke="#507282" d="
		M577.9,69.7c0.1,1.4-4.5,11.3-3.8,13.7s7.5-1.5,11,0.3"/>
	<path stroke="#507282" d="
		M590.7,68.8c0,1.6,1.3,7.8,3.6,8.8"/>
	<path stroke="#507282" d="
		M599.9,68.8c-0.9,0.4-9.8,12.3-9.4,15.1"/>
	<path stroke="#507282" d="
		M617.4,69.7c0.4,1.1-4.1,11-3.9,12.8s0.4,1.2,0.4,1.2"/>
	<path stroke="#507282" d="
		M614.1,71.3c0.4-0.2,10.7-4,12.9-2.9"/>
	<path stroke="#507282" d="
		M612.9,77.8c0.9,0.5,10.5-0.7,10.5-0.7"/>
	<path stroke="#507282" d="
		M637.4,69.7c-1.8,0.9-13,9.7-9.6,13.2c3.4,3.5,13.4-0.1,13.6-3.5s-4.5-8.6-4.5-8.6"/>
	<path stroke="#507282" d="
		M648.3,73.1c0.1,0.6-1.7,9.9-1.7,9.9"/>
	<path stroke="#507282" d="
		M649.4,74.6c0-1.1,4-5.6,4.7-5.7s5.4,4.2,3.9,5.7s-8.6,3.1-8.6,3.1s1.8,5.4,9.4,6.2"/>
	<path stroke="#507282" d="
		M675.1,69.9c1.2,0.3,13.1-1.8,14.8-1.4"/>
	<path stroke="#507282" d="
		M682.5,68.8c0.3,1.1-4.7,11.8-4.7,13.1s1.1,2.4,1.1,2.4"/>
	<path stroke="#507282" d="
		M692.7,69.9c0.4,1.4-2.4,13.4-2.4,13.4"/>
	<path stroke="#507282" d="
		M702.9,69.2c1,1.9-2.2,11.8-1.9,14.1"/>
	<path stroke="#507282" d="
		M691.5,80.4c1-1,10.6-3.6,10.6-3.6"/>
	<path stroke="#507282" d="
		M709.8,71.6c0.9,2-2.8,10-2.4,11.1c0.4,1.1,7.7,2,11.2,0.4"/>
	<path stroke="#507282" d="
		M709.4,71.9c0.4-0.3,10.2-1.8,10.8-2.4"/>
	<path stroke="#507282" d="
		M709.4,76.4c0.7,0.2,6.3,0.8,7,0"/>
	<path stroke="#507282" d="
		M735.4,82c0-1.6,5.4-12.9,5.8-12.1s0.9,6.9,3.1,7.1s8.9-6.5,10.5-7.1s-1.8,10.9-1.3,12.8"/>
	<path stroke="#507282" d="
		M759.8,83.2c0-1.4,5.2-12.7,8.5-13.8c0,0,5.3,11.5,2.3,14.2"/>
	<path stroke="#507282" d="
		M764.6,79.8c1.4,0,8.3-1.9,9.6-2.8"/>
	<path stroke="#507282" d="
		M780.3,73.1c0.1,0.6-1.7,9.9-1.7,9.9"/>
	<path stroke="#507282" d="
		M781.4,74.6c0-1.1,4-5.6,4.7-5.7s5.4,4.2,3.9,5.7s-8.6,3.1-8.6,3.1s1.8,5.4,9.4,6.2"/>
	<path stroke="#507282" d="
		M799.9,68.3c-1.1,1.1-5.1,12.8-4.5,13.9s7.6-9.8,14.2-12.2"/>
	<path stroke="#507282" d="
		M801.6,76.9c0.8,2.1,5.1,5.6,9.3,4.8"/>
	<path stroke="#507282" d="
		M817.8,71.6c0.9,2-2.8,10-2.4,11.1c0.4,1.1,7.7,2,11.2,0.4"/>
	<path stroke="#507282" d="
		M817.4,71.9c0.4-0.3,10.2-1.8,10.8-2.4"/>
	<path stroke="#507282" d="
		M817.4,76.4c0.7,0.2,6.3,0.8,7,0"/>
	<path stroke="#507282" d="
		M831.1,69.9c1.2,0.3,13.1-1.8,14.8-1.4"/>
	<path stroke="#507282" d="
		M838.5,68.8c0.3,1.1-4.7,11.8-4.7,13.1s1.1,2.4,1.1,2.4"/>
</g>
<path stroke="#507282" stroke-width="7" d="
	M292.8,405c321.1,0,315.3-285,471.7-285"/>
</svg>
