<?xml version="1.0" encoding="utf-8"?> <!-- Generator: Adobe Illustrator 18.0.0, SVG Export Plug-In . SVG Version: 6.00 Build 0) --> <!DOCTYPE svg PUBLIC "-//W3C//DTD SVG 1.1//EN" "http://www.w3.org/Graphics/SVG/1.1/DTD/svg11.dtd"> <svg version="1.1" id="Layer_1" xmlns="http://www.w3.org/2000/svg" xmlns:xlink="http://www.w3.org/1999/xlink" x="0px" y="0px" viewBox="0 0 648 396" enable-background="new 0 0 648 396" xml:space="preserve"> <path stroke="#FFFFFF" stroke-width="120" d="M28.8,8.7 C25.4,21.8,22,34.8,18.7,47.9c31.7-16.2,63.5-32.4,95.2-48.5C85.8,34.2,57.7,69.1,29.6,103.9c-5.4,6.7-11.2,15-8.6,23.3 c2.4,7.8,11.8,11.7,19.8,10.4s14.9-6.4,21-11.8C82,107.8,97.5,85.3,116,65.7s41.6-37.1,68.4-40.2c-35.4,36.6-71,73.3-99.9,115.2 s-51.2,89.4-57,139.9c75.2-73.1,138.6-158.3,187.1-251.3c7.8-15,18.7-32.5,35.7-32.3C199.1,108.8,133.7,214,56.2,309.3 c-7.5,9.3-15.4,18.8-18.9,30.2c-3.6,11.4-1.8,25.4,7.4,33c8.6,7,21.4,6.7,31.5,2.1c10.1-4.6,18-12.8,25.5-20.9 c78.8-85.1,141.2-184,196-286.2c11.3-21,23.2-43.3,43.8-55.2c8,22.7,2.1,48.4-9.6,69.4c-11.7,21-28.7,38.6-44.4,56.8 c-55.9,65-97.5,141.4-128,221.6c20.5,7.5,45.4,14.3,62.5,0.8c7.5-5.9,12-14.8,16.3-23.4C283,248.4,332.7,162.1,387.3,79 c14.9-22.7,30.8-45.8,53.4-60.8c11,29.7-4.5,62-19.2,90c-46,87.9-88,178-125.6,269.8c25.8,9.4,55.6-1,75.6-19.8 c19.9-18.8,31.6-44.7,40.6-70.6s15.9-52.7,28.5-77.1c11.4-22,27.4-41.6,36.8-64.5c7.7-18.9,10.8-39.3,15.6-59.1s11.7-39.9,25.6-54.8 c13.9-14.9,36.2-23.5,55.3-16.4c8.3,3.1,15.7,9.3,18.5,17.7c3,8.9,0.3,18.7-2.8,27.6c-36.7,104.1-135.6,181.2-155.5,289.8 c14.1,4.5,29.6-3.9,38.5-15.7s12.9-26.5,17.7-40.5c15.8-45.8,42.8-87.8,77.9-121.2c10.7,27,3.5,57.9-8.7,84.2 c-12.1,26.4-29,50.6-38.7,77.9c-2.8,7.9-5,16.4-3.4,24.6s8,16,16.4,16.7c8.4,0.7,15.7-5.6,20.4-12.5c4.7-7,7.8-15,13.6-21.1 c13.2-14.2,48.3-5.5,59.5,10.3"/> <g> <line stroke-width="7" x1="54.7" y1="77.3" x2="54.7" y2="364.7"/> <line stroke-width="7" x1="32.2" y1="342.7" x2="615.6" y2="342.7"/> </g> <g> <polyline stroke-width="7" points=" 32.2,99.3 54.7,77.3 77.2,99.3 	"/> <polyline stroke-width="7" points=" 593.6,320.2 615.6,342.7 593.6,365.2 	"/> </g> <g> <line stroke-width="7" x1="420.5" y1="335" x2="420.5" y2="351"/> <text transform="matrix(1 0 0 1 111.1963 377.4346)" font-family="'PermanentMarker'" font-size="31">saturday evening</text> <text transform="matrix(1 0 0 1 458.2715 377.4346)" font-family="'PermanentMarker'" font-size="31">sunday</text> <path d=" M127.1,360.5c-1.2-0.4-11,1.9-11.6,3.5s7.7,2.6,8.1,5.6s-6.9,6.2-7.9,5.8"/> <path d=" M128.8,375.2c0-1.4,5.2-12.7,8.5-13.8c0,0,5.3,11.5,2.3,14.2"/> <path d=" M133.6,371.8c1.4,0,8.3-1.9,9.6-2.8"/> <path d=" M146.1,361.9c1.2,0.3,13.1-1.8,14.8-1.4"/> <path d=" M153.5,360.8c0.3,1.1-4.7,11.8-4.7,13.1s1.1,2.4,1.1,2.4"/> <path d=" M163.1,363.8c-0.7,2-2,8.4,1.2,10.6s11.4-7.7,10.9-12.1"/> <path d=" M180.3,365.1c0.1,0.6-1.7,9.9-1.7,9.9"/> <path d=" M181.4,366.6c0-1.1,4-5.6,4.7-5.7s5.4,4.2,3.9,5.7s-8.6,3.1-8.6,3.1s1.8,5.4,9.4,6.2"/> <path d=" M195.9,364.6c0.3,1.8,0.9,7.7,0,11.2"/> <path d=" M196.8,361.8c2.2,0.3,9.2,4.1,9.8,6.2c0.6,2.2-7.2,7.4-8.7,7.8"/> <path d=" M210.8,375.2c0-1.4,5.2-12.7,8.5-13.8c0,0,5.3,11.5,2.3,14.2"/> <path d=" M215.6,371.8c1.4,0,8.3-1.9,9.6-2.8"/> <path d=" M229.7,361.8c0,1.6,1.3,7.8,3.6,8.8"/> <path d=" M238.9,361.8c-0.9,0.4-9.8,12.3-9.4,15.1"/> <path d=" M253.8,363.6c0.9,2-2.8,10-2.4,11.1c0.4,1.1,7.7,2,11.2,0.4"/> <path d=" M253.4,363.9c0.4-0.3,10.2-1.8,10.7-2.4"/> <path d=" M253.4,368.4c0.7,0.2,6.3,0.8,7,0"/> <path d=" M269.6,361.9c0.5,1,2.1,13,2.1,13"/> <path d=" M271.9,374c0,0,6.6-12.1,8.9-12.9"/> <path d=" M284.8,363.6c0.9,2-2.8,10-2.4,11.1c0.4,1.1,7.7,2,11.2,0.4"/> <path d=" M284.4,363.9c0.4-0.3,10.2-1.8,10.8-2.4"/> <path d=" M284.4,368.4c0.7,0.2,6.3,0.8,7,0"/> <path d=" M298.5,374.9c0-1.5,5.8-12.1,5.8-12.1"/> <path d=" M303.6,365.2c0,1.4,0.3,9.9,3.5,10.1s5.1-13,5.1-13"/> <path d=" M320.4,361.6c-1.1,1.4-2.5,12.2-2.1,13.7"/> <path d=" M325.5,374.9c0-1.5,5.8-12.1,5.8-12.1"/> <path d=" M330.6,365.2c0,1.4,0.3,9.9,3.5,10.1s5.1-13,5.1-13"/> <path d=" M354.8,362.2c-3.9,1.2-12.4,9-10.4,12.2s14.9-0.8,15.5-2.1s-4-2.7-4-2.7"/> <path d=" M473.1,360.5c-1.2-0.4-11,1.9-11.6,3.5s7.7,2.6,8.1,5.6s-6.9,6.2-7.9,5.8"/> <path d=" M478.1,363.8c-0.7,2-2,8.4,1.2,10.6s11.4-7.7,10.9-12.1"/> <path d=" M493.5,373.9c0-1.5,5.8-12.1,5.8-12.1"/> <path d=" M498.6,364.2c0,1.4,0.3,9.9,3.5,10.1s5.1-13,5.1-13"/> <path d=" M511.9,363.6c0.3,1.8,0.9,7.7,0,11.2"/> <path d=" M512.8,360.8c2.2,0.3,9.2,4.1,9.8,6.2c0.6,2.2-7.2,7.4-8.7,7.8"/> <path d=" M525.8,375.2c0-1.4,5.2-12.7,8.5-13.8c0,0,5.3,11.5,2.3,14.2"/> <path d=" M530.6,371.8c1.4,0,8.3-1.9,9.6-2.8"/> <path d=" M544.7,360.8c0,1.6,1.3,7.8,3.6,8.8"/> <path d=" M553.9,360.8c-0.9,0.4-9.8,12.3-9.4,15.1"/> </g> <g> <text transform="matrix(1 0 0 1 32.1943 33.4346)" fill="#F6B319" font-family="'PermanentMarker'" font-size="31">how much i think is left in my wallet</text> <path stroke="#F6B319" d=" M37.7,17.9c0.4,1.4-2.4,13.4-2.4,13.4"/> <path stroke="#F6B319" d=" M47.9,17.2c1,1.9-2.2,11.8-1.9,14.1"/> <path stroke="#F6B319" d=" M36.5,28.4c1-1,10.6-3.6,10.6-3.6"/> <path stroke="#F6B319" d=" M62.4,17.7c-1.8,0.9-13,9.7-9.6,13.2s13.4-0.1,13.6-3.5s-4.5-8.6-4.5-8.6"/> <path stroke="#F6B319" d=" M75.4,17.4c0.1,3.2-4.4,9.4-1.9,12.9s11.2-11.6,11.5-11.2s-1.6,11.2,2.2,11.5s4.6-8.9,7.2-13.6"/> <path stroke="#F6B319" d=" M109.4,30c0-1.6,5.4-12.9,5.8-12.1s0.9,6.9,3.1,7.1s8.9-6.5,10.5-7.1s-1.8,10.9-1.3,12.8"/> <path stroke="#F6B319" d=" M137.1,19.8c-0.7,2-2,8.4,1.2,10.6s11.4-7.7,10.9-12.1"/> <path stroke="#F6B319" d=" M163.6,17.2c-3.5,0.7-12.2,5.9-10.2,10.6c2.1,4.7,10.2,3.1,10.2,3.1"/> <path stroke="#F6B319" d=" M170.7,18.9c0.4,1.4-2.4,13.4-2.4,13.4"/> <path stroke="#F6B319" d=" M180.9,18.2c1,1.9-2.2,11.8-1.9,14.1"/> <path stroke="#F6B319" d=" M169.5,29.4c1-1,10.6-3.6,10.6-3.6"/> <path stroke="#F6B319" d=" M201.4,17.6c-1.1,1.4-2.5,12.2-2.1,13.7"/> <path stroke="#F6B319" d=" M220.1,17.9c1.2,0.3,13.1-1.8,14.8-1.4"/> <path stroke="#F6B319" d=" M227.5,16.8c0.3,1.1-4.7,11.8-4.7,13.1c0,1.3,1.1,2.4,1.1,2.4"/> <path stroke="#F6B319" d=" M236.7,18.9c0.4,1.4-2.4,13.4-2.4,13.4"/> <path stroke="#F6B319" d=" M246.9,18.2c1,1.9-2.2,11.8-1.9,14.1"/> <path stroke="#F6B319" d=" M235.5,29.4c1-1,10.6-3.6,10.6-3.6"/> <path stroke="#F6B319" d=" M256.4,17.6c-1.1,1.4-2.5,12.2-2.1,13.7"/> <path stroke="#F6B319" d=" M261.5,29.9c0-1.5,5.8-12.1,5.8-12.1"/> <path stroke="#F6B319" d=" M266.6,20.2c0,1.4,0.3,9.9,3.5,10.1c3.2,0.2,5.1-13,5.1-13"/> <path stroke="#F6B319" d=" M284.9,16.3c-1.1,1.1-5.1,12.8-4.5,13.9c0.6,1.2,7.6-9.8,14.2-12.2"/> <path stroke="#F6B319" d=" M286.6,24.9c0.8,2.1,5.1,5.6,9.3,4.8"/> <path stroke="#F6B319" d=" M314.4,18.6c-1.1,1.4-2.5,12.2-2.1,13.7"/> <path stroke="#F6B319" d=" M333.1,16.5c-1.2-0.4-11,1.9-11.6,3.5s7.7,2.6,8.1,5.6s-6.9,6.2-7.9,5.8"/> <path stroke="#F6B319" d=" M350.9,17.7c0.1,1.4-4.5,11.3-3.8,13.7s7.5-1.5,11,0.3"/> <path stroke="#F6B319" d=" M365.8,19.6c0.9,2-2.8,10-2.4,11.1c0.4,1.1,7.7,2,11.2,0.4"/> <path stroke="#F6B319" d=" M365.4,19.9c0.4-0.3,10.2-1.8,10.8-2.4"/> <path stroke="#F6B319" d=" M365.4,24.4c0.7,0.2,6.3,0.8,7,0"/> <path stroke="#F6B319" d=" M383.4,17.7c0.4,1.1-4.1,11-3.9,12.8s0.4,1.2,0.4,1.2"/> <path stroke="#F6B319" d=" M380.1,19.3c0.4-0.2,10.7-4,12.9-2.9"/> <path stroke="#F6B319" d=" M378.9,25.8c0.9,0.5,10.5-0.7,10.5-0.7"/> <path stroke="#F6B319" d=" M394.1,17.9c1.2,0.3,13.1-1.8,14.8-1.4"/> <path stroke="#F6B319" d=" M401.5,16.8c0.3,1.1-4.7,11.8-4.7,13.1s1.1,2.4,1.1,2.4"/> <path stroke="#F6B319" d=" M424.4,17.6c-1.1,1.4-2.5,12.2-2.1,13.7"/> <path stroke="#F6B319" d=" M429.5,30.9c0-1.5,5.8-12.1,5.8-12.1"/> <path stroke="#F6B319" d=" M434.6,21.2c0,1.4,0.3,9.9,3.5,10.1s5.1-13,5.1-13"/> <path stroke="#F6B319" d=" M459.4,31c0-1.6,5.4-12.9,5.8-12.1s0.9,6.9,3.1,7.1s8.9-6.5,10.5-7.1s-1.8,10.9-1.3,12.8"/> <path stroke="#F6B319" d=" M485.7,16.8c0,1.6,1.3,7.8,3.6,8.8"/> <path stroke="#F6B319" d=" M494.9,16.8c-0.9,0.4-9.8,12.3-9.4,15.1"/> <path stroke="#F6B319" d=" M511.4,18.4c0.1,3.2-4.4,9.4-1.9,12.9c2.6,3.5,11.2-11.6,11.5-11.2s-1.6,11.2,2.2,11.5s4.6-8.9,7.2-13.6"/> <path stroke="#F6B319" d=" M532.8,31.2c0-1.4,5.2-12.7,8.5-13.8c0,0,5.3,11.5,2.3,14.2"/> <path stroke="#F6B319" d=" M537.6,27.8c1.4,0,8.3-1.9,9.6-2.8"/> <path stroke="#F6B319" d=" M555.9,16.7c0.1,1.4-4.5,11.3-3.8,13.7s7.5-1.5,11,0.3"/> <path stroke="#F6B319" d=" M571.9,16.7c0.1,1.4-4.5,11.3-3.8,13.7s7.5-1.5,11,0.3"/> <path stroke="#F6B319" d=" M586.8,18.6c0.9,2-2.8,10-2.4,11.1c0.4,1.1,7.7,2,11.2,0.4"/> <path stroke="#F6B319" d=" M586.4,18.9c0.4-0.3,10.2-1.8,10.8-2.4"/> <path stroke="#F6B319" d=" M586.4,23.4c0.7,0.2,6.3,0.8,7,0"/> <path stroke="#F6B319" d=" M601.1,17.9c1.2,0.3,13.1-1.8,14.8-1.4"/> <path stroke="#F6B319" d=" M608.5,16.8c0.3,1.1-4.7,11.8-4.7,13.1s1.1,2.4,1.1,2.4"/> </g> <path stroke="#F6B319" stroke-width="7" d=" M77.2,117.4c167.5,0,218.2,46.1,345.8,46.1c55,0,153,0,153,0"/> <g> <text transform="matrix(1 0 0 1 32.1943 64.4346)" fill="#CA4D46" font-family="'PermanentMarker'" font-size="31">how much is actually left</text> <path stroke="#CA4D46" d=" M36.7,48.9c0.4,1.4-2.4,13.4-2.4,13.4"/> <path stroke="#CA4D46" d=" M46.9,48.2c1,1.9-2.2,11.8-1.9,14.1"/> <path stroke="#CA4D46" d=" M35.5,59.4c1-1,10.6-3.6,10.6-3.6"/> <path stroke="#CA4D46" d=" M61.4,48.7c-1.8,0.9-13,9.7-9.6,13.2s13.4-0.1,13.6-3.5s-4.5-8.6-4.5-8.6"/> <path stroke="#CA4D46" d=" M74.4,48.4c0.1,3.2-4.4,9.4-1.9,12.9s11.2-11.6,11.5-11.2s-1.6,11.2,2.2,11.5s4.6-8.9,7.2-13.6"/> <path stroke="#CA4D46" d=" M108.4,61c0-1.6,5.4-12.9,5.8-12.1s0.9,6.9,3.1,7.1s8.9-6.5,10.5-7.1s-1.8,10.9-1.3,12.8"/> <path stroke="#CA4D46" d=" M136.1,50.8c-0.7,2-2,8.4,1.2,10.6s11.4-7.7,10.9-12.1"/> <path stroke="#CA4D46" d=" M162.6,48.2c-3.5,0.7-12.2,5.9-10.2,10.6c2.1,4.7,10.2,3.1,10.2,3.1"/> <path stroke="#CA4D46" d=" M169.7,49.9c0.4,1.4-2.4,13.4-2.4,13.4"/> <path stroke="#CA4D46" d=" M179.9,49.2c1,1.9-2.2,11.8-1.9,14.1"/> <path stroke="#CA4D46" d=" M168.5,60.4c1-1,10.6-3.6,10.6-3.6"/> <path stroke="#CA4D46" d=" M201.4,49.6c-1.1,1.4-2.5,12.2-2.1,13.7"/> <path stroke="#CA4D46" d=" M220.1,48.5c-1.2-0.4-11,1.9-11.6,3.5s7.7,2.6,8.1,5.6s-6.9,6.2-7.9,5.8"/> <path stroke="#CA4D46" d=" M232.3,62.1c0,0,4.3-11.2,8.8-13.6c0,0,5.6,12.6,2,14.5 M237.8,58.8c0,0,4.9-0.1,9-2.1"/> <path stroke="#CA4D46" d=" M262.4,49c-9.1,0.7-17.8,14.4-0.4,13.2"/> <path stroke="#CA4D46" d=" M267,49.4c0.6,0.3,14.7-2.4,16.3-1.8"/> <path stroke="#CA4D46" d=" M274.3,48.1c1.6,2.4-5.9,12.8-2.3,15.9"/> <path stroke="#CA4D46" d=" M284.5,51c-0.4,0.5-2.7,9.4,2.6,11.2c3.8,1.3,10.5-9,9.6-13.3"/> <path stroke="#CA4D46" d=" M298.3,63.1c0,0,4.3-11.2,8.8-13.6c0,0,5.6,12.6,2,14.5 M303.8,59.8c0,0,4.9-0.1,9-2.1"/> <path stroke="#CA4D46" d=" M321.7,48.1c0.5,1.3-4.7,12.2-3.8,13.8c0.9,1.5,9.1-1.7,11.4,0"/> <path stroke="#CA4D46" d=" M337.7,48.1c0.5,1.3-4.7,12.2-3.8,13.8c0.9,1.5,9.1-1.7,11.4,0"/> <path stroke="#CA4D46" d=" M350.2,48.1c-0.1,0.8,1.5,7.4,4.1,8.1"/> <path stroke="#CA4D46" d=" M360,47.6c-1.8,1-9.8,15.6-9.8,15.6"/> <path stroke="#CA4D46" d=" M377.9,48.7c0.1,1.4-4.5,11.3-3.8,13.7c0.7,2.3,7.5-1.5,11,0.3"/> <path stroke="#CA4D46" d=" M392.8,50.6c0.9,2-2.8,10-2.4,11.1c0.4,1.1,7.7,2,11.2,0.4"/> <path stroke="#CA4D46" d=" M392.4,50.9c0.4-0.3,10.2-1.8,10.8-2.4"/> <path stroke="#CA4D46" d=" M392.4,55.4c0.7,0.2,6.3,0.8,7,0"/> <path stroke="#CA4D46" d=" M410.4,48.7c0.4,1.1-4.1,11-3.9,12.8s0.4,1.2,0.4,1.2"/> <path stroke="#CA4D46" d=" M407.1,50.3c0.4-0.2,10.7-4,12.9-2.9"/> <path stroke="#CA4D46" d=" M405.9,56.8c0.9,0.5,10.5-0.7,10.5-0.7"/> <path stroke="#CA4D46" d=" M421.1,48.9c1.2,0.3,13.1-1.8,14.8-1.4"/> <path stroke="#CA4D46" d=" M428.5,47.8c0.3,1.1-4.7,11.8-4.7,13.1s1.1,2.4,1.1,2.4"/> </g> <path stroke="#CA4D46" stroke-width="7" d=" M77.2,131.5c136.2,0,191,189,345.8,189c74.3,0,153,0,153,0"/> <g> <polyline stroke-width="7" points=" 494.9,300 506.2,311 517.4,300 	"/> <polyline stroke-width="7" points=" 494.9,182.6 506.2,171.6 517.4,182.6 	"/> <line stroke-width="7" x1="506.2" y1="171.6" x2="506.2" y2="222.2"/> <line stroke-width="7" x1="506.2" y1="260.3" x2="506.2" y2="311"/> </g> <g> <text transform="matrix(1 0 0 1 443.6943 249.4351)" font-family="'PermanentMarker'" font-size="31">remorse</text> <path d=" M447.3,237.1c0.1,0.6-1.7,9.9-1.7,9.9"/> <path d=" M448.4,238.6c0-1.1,4-5.6,4.7-5.7s5.4,4.2,3.9,5.7s-8.6,3.1-8.6,3.1s1.8,5.4,9.4,6.2"/> <path d=" M464.8,235.6c0.9,2-2.8,10-2.4,11.1c0.4,1.1,7.7,2,11.2,0.4"/> <path d=" M464.4,235.9c0.4-0.3,10.2-1.8,10.8-2.4"/> <path d=" M464.4,240.4c0.7,0.2,6.3,0.8,7,0"/> <path d=" M479.4,247c0-1.6,5.4-12.9,5.8-12.1s0.9,6.9,3.1,7.1s8.9-6.5,10.5-7.1c1.6-0.6-1.8,10.9-1.3,12.8"/> <path d=" M514.4,233.7c-1.8,0.9-13,9.7-9.6,13.2s13.4-0.1,13.6-3.5s-4.5-8.6-4.5-8.6"/> <path d=" M525.3,238.1c0.1,0.6-1.7,9.9-1.7,9.9"/> <path d=" M526.4,239.6c0-1.1,4-5.6,4.7-5.7s5.4,4.2,3.9,5.7s-8.6,3.1-8.6,3.1s1.8,5.4,9.4,6.2"/> <path d=" M552.1,233.5c-1.2-0.4-11,1.9-11.6,3.5s7.7,2.6,8.1,5.6s-6.9,6.2-7.9,5.8"/> <path d=" M556.8,235.6c0.9,2-2.8,10-2.4,11.1c0.4,1.1,7.7,2,11.2,0.4"/> <path d=" M556.4,235.9c0.4-0.3,10.2-1.8,10.8-2.4"/> <path d=" M556.4,240.4c0.7,0.2,6.3,0.8,7,0"/> </g> </svg> 