<?xml version="1.0" encoding="utf-8"?>
<!-- Generator: Adobe Illustrator 19.2.0, SVG Export Plug-In . SVG Version: 6.00 Build 0)  -->
<svg version="1.1" id="Layer_1" xmlns="http://www.w3.org/2000/svg" xmlns:xlink="http://www.w3.org/1999/xlink" x="0px" y="0px"
	 width="416.8px" height="259.2px" viewBox="0 0 416.8 259.2" enable-background="new 0 0 416.8 259.2" xml:space="preserve">
<path fill="none" stroke="#FFFFFF" stroke-width="120" stroke-linejoin="bevel" stroke-miterlimit="10" d="M369.2,43.2
	c-53.1,4.3-106-7.7-159.3-8.9c-23.5-0.5-47.1,1.1-70.4,4.7c-23.1,3.7-46.4,9.6-65.5,23c-26.4,18.5-42.2,50.4-42.9,82.6
	c28.3-15.7,53.4-37,73.6-62.3c-4.2,19.9-8.4,39.9-12.7,59.8c-0.7,3.2-1.1,7.1,1.4,9.2c3.8,3.1,9.1-1.5,11.8-5.6
	c15.7-23.6,31.4-47.2,47.1-70.8c0.8,17.3,1.7,34.7,2.5,52c0.2,4.1,0.7,8.7,3.9,11.1c3.3,2.5,8.3,1.4,11.5-1.4
	c3.1-2.7,4.8-6.7,6.5-10.6c5.9-14.1,11.9-28.2,17.8-42.4c5.2,16,10.5,31.9,15.7,47.9c2.1,6.5,5.1,13.9,11.6,16
	c7.1,2.3,14.6-3.3,17.9-10c3.3-6.7,3.8-14.4,6-21.5c2.2-7.1,7-14.4,14.3-15.7c10.3-1.8,19,10.8,16.2,20.9
	c-2.8,10.1-13.3,16.5-23.6,18s-20.9-0.7-31.3-2.2c-36.1-5.3-73.5-1.9-108.1,9.8C88.9,155,64,169.3,54.8,193.4
	c-2.7,7.1-3.9,15-1.5,22.2c2.4,7.2,9,13.3,16.6,13.4c9.6,0.2,17.2-8.7,20.2-17.8c3.1-9.1,3.2-19,6.3-28.1
	c2.3-6.6,7.8-13.6,14.7-12.5c7.4,1.1,10.4,10.4,10,17.9c-0.4,7.5-2.6,14.8-2.2,22.3c0.4,7.5,4.2,15.6,11.5,17.6
	c9.5,2.6,18.4-7.1,20.4-16.8s-0.3-19.8,1-29.6c1.1-8.2,6.5-17.3,14.7-17c9.8,0.4,13.6,12.7,14.3,22.5c0.7,8.6,1.1,17.8,5.7,25.1
	s15,11.9,22.2,7c5.6-3.8,7-11.5,6.6-18.3c-0.4-6.8-1.9-13.7-0.2-20.3c1.7-6.6,8.5-12.6,14.9-10.3c7.9,2.7,7.8,13.7,6.3,21.9
	c-1.7,9-3.4,18-5.1,27c-1.3,6.9-1.7,15.9,4.5,19.2c7.6,4,15.5-4.8,19.7-12.4c11.7-21.3,23.3-42.7,35-64c2.1,13.3,4.3,26.6,6.4,39.9
	c1.5,9.2,3.1,18.8,8.7,26.2c5.6,7.4,16.6,11.7,24.5,6.8c6.7-4.1,8.9-12.9,9.2-20.8c0.3-7.9-0.4-16.1,2.9-23.3
	c3.3-7.2,12.8-12.3,19.2-7.7c7.2,5.1,4.4,16.1,4.9,24.9c0.7,11.9,9.6,22.9,21.1,25.9c5.2-23.3,5.6-47.6,1.2-71"/>
<g id="Arrow_right">
</g>
<text transform="matrix(1 0 0 1 82.6418 50.6908)" font-family="'PermanentMarker'" font-size="30.74px">how difficult it is</text>
<path fill="none" stroke="#000000" stroke-width="7" stroke-linecap="round" stroke-linejoin="round" stroke-miterlimit="10" d="
	M214.1,80.4c-2.1,51.6-2.3,103.4-0.5,155"/>
<text transform="matrix(1 0 0 1 96.6119 109.9116)"><tspan x="0" y="0" font-family="'PermanentMarker'" font-size="30.74px">to get</tspan><tspan x="-78.8" y="30" font-family="'PermanentMarker'" font-size="30.74px">good advice</tspan></text>
<path fill="none" stroke="#AD123C" stroke-width="7" stroke-linecap="round" stroke-linejoin="round" stroke-miterlimit="10" d="
	M219.5,97.2c-0.1,12.8-0.2,25.5-0.4,38.3c7.4-10.8-0.2-26.4,5.4-38.2c-0.6,12.2,0,24.4,1.7,36.5c0.9-11.8,1.7-23.7,2.6-35.5
	c0.5,12.7,1.1,25.3,1.6,38c1.5-13.5,3-27,4.5-40.5c1.3,13.4,1.5,26.9,0.7,40.4c0.2-12.3,1.1-24.6,2.9-36.7c0.7,12.5,1.4,25,2,37.6
	c0.4-13.5,0.9-27.1,1.3-40.6c0,13.3,0.9,26.6,2.9,39.8c2.1-6.5,0.8-13.6,0-20.4c-0.8-6.8-0.9-14.3,3.2-19.8c0.3,13,0.7,26.1,1,39.1
	c1.5-12.2,3-24.4,4.5-36.6c1.2,12.6,2.4,25.1,3.5,37.7c0.5-12.6,1.1-25.1,1.6-37.7c1.5,12.4,3,24.9,4.5,37.3
	c2.2-11.8,3.1-23.8,2.7-35.7c2.5,10.8,4.2,21.9,4.9,33"/>
<text transform="matrix(1 0 0 1 78.96 192.3853)"><tspan x="0" y="0" font-family="'PermanentMarker'" font-size="30.74px">to take</tspan><tspan x="-35.8" y="30" font-family="'PermanentMarker'" font-size="30.74px">the advice</tspan></text>
<path fill="none" stroke="#AD123C" stroke-width="7" stroke-linecap="round" stroke-linejoin="round" stroke-miterlimit="10" d="
	M218.6,182.6c-1,11.7-0.4,23.6,1.7,35.2c-0.1-11.2,1-22.5,3.3-33.5c0.9,11.1,1.7,22.3,2.6,33.4c0.2-11.7,1.6-23.4,4.1-34.9
	c0.1,12.3,0.2,24.6,0.3,36.9c0.8-11.4,1.7-22.9,2.5-34.3c2.4,10.9,3.8,22.1,4,33.2c1.8-12.9,2.5-21.7,1.8-34.7
	c1.7,14.1,3,21.7,4.7,35.8c-1.1-13,0-24,2.7-36.7c0.3,11.6,0.5,23.2,0.8,34.8c1.3-11.6,2.5-23.1,3.8-34.7c1,12.2,2,24.4,3,36.5
	c1.9-11.4,2.9-25,4.8-36.4c1.1,10.5,1.8,26,2.9,36.5c0.1-10,3-25.9,3.1-35.8c1.8,11.7,2.2,26.7,4,38.5c0.7-12.3,1.5-24.6,2.2-36.8
	c1.3,12.1,2.5,24.1,3.8,36.2c-0.7-10.9-0.6-24.7,1.6-35.3c0,9.7,0.7,22.2,0.8,31.8c0.9-12.6,1.5-22.1,2.4-34.7
	c1.2,14,1.5,24.9,0.6,38.8c0.6-12.3,1.1-24.5,1.7-36.8c3.7,11.3,5.1,23.3,4.3,35.2c-0.1-10.5,0.5-24.9,2.6-35.2
	c0.3,9.3,2.6,25,2.9,34.3c-0.2-12-0.7-26.5,1.7-38.2c1.6,11.9,3.1,23.8,4.7,35.7c0.8-11.4,1.7-22.8,2.5-34.2
	c0.3,13.5,1.2,24.1,1.5,37.6c2.8-12,6-22.3,5.7-34.6c2.5,12.2,2,23.1,4.4,35.3c0.7-12.1,1.5-24.3,2.3-36.4
	c3.3,10.4,5.4,23.5,5.3,34.4c-1.2-10.5-1.6-25.6,0.3-36c0.6,11.2,2,26.9,2.6,38c2-11.4,3-23,2.8-34.6c-0.3,9.9,0.4,23.5,2.8,33.1
	c0.9-9.4,4.1-26.5,2.9-35.8c3.6,10.3,3.2,25,4.8,35.8c1.2-11.7,2.4-23.4,3.6-35.2c0.7,10.8,1.5,21.5,2.2,32.3
	c2-10.2,2.9-20.7,2.7-31.2c0.4,11.4,0.8,22.7,1.1,34.1c0.4-12.3,0.8-24.6,1.2-36.9c4.3,12.5,6.1,25.9,5.5,39.1
	c0.3-12.1,0.7-24.1,1-36.2c2.2,9.8,5.9,24.1,5,34.1c1.4-10.3-0.2-24.8,1.2-35.2c1,11.2,4.2,24,5.3,35.2c2.6-12.3,1.3-26.4,0.5-38.9
	c3.7,12,6.3,24.4,7.7,36.9c0.1-11.3,0.1-22.6,0.2-33.8c1.9,11.2,3.8,22.3,5.8,33.5c1.7-11.4,2-23,0.8-34.4
	c1.3,11.8,2.5,23.6,3.8,35.4c0.4-12,0.8-23.9,1.2-35.9c1,11.3,2,22.6,2.9,33.9c0.1-11.6,0.2-23.2,0.3-34.9
	c-0.7,12.7,0,25.4,2.1,37.9c0.4-12.6,0.7-25.2,1.1-37.8"/>
<g id="Arrow_up">
</g>
</svg>
