<?xml version="1.0" encoding="utf-8"?>
<!-- Generator: Adobe Illustrator 18.0.0, SVG Export Plug-In . SVG Version: 6.00 Build 0)  -->
<!DOCTYPE svg PUBLIC "-//W3C//DTD SVG 1.1//EN" "http://www.w3.org/Graphics/SVG/1.1/DTD/svg11.dtd">
<svg version="1.1" id="Layer_1" xmlns="http://www.w3.org/2000/svg" xmlns:xlink="http://www.w3.org/1999/xlink" x="0px" y="0px"
	 viewBox="0 0 800 778" enable-background="new 0 0 800 778" xml:space="preserve">
<path fill="none" stroke="#FFFFFF" stroke-width="120" stroke-linejoin="bevel" stroke-miterlimit="10" d="M318.1,13.5
	c-1.6,30.6-3.1,61.3-4.7,91.9C334.8,76,373,31.4,394.3,1.9c-18.6,53.2-60.5,169.3-79.1,222.5C349.7,186.3,390.5,100.2,425,62
	c-10.5,42.2-25.1,133.1-35.6,175.2c26.3,1.8,57.3-54.9,78.3-70.7c-6.6,21.6-13.2,43.3-19.8,64.9c18.7,14.3,47.5-2.9,54.6-25.3
	s0.6-46.5-2.8-69.8c-3.5-23.3-2.4-50.3,15.3-65.8c24.8-21.7,64.9-6,87.2,18.3s36.5,56.1,63.2,75.5c-31.4,38.6-62.7,77.1-94.1,115.7
	c55.2-22.1,110.3-44.3,165.5-66.4c-28.1,33.2-56.2,66.4-84.4,99.6c30.3-28.3,102.9-82.9,133.2-111.2
	C735,237.2,636.2,344.5,607,398.8c42.4-5.7,99.2-45,141.6-50.7c-18.3,27.1-36.6,54.2-54.9,81.3c30.6,3.7,72.1-18.7,94-40.4
	c-21.8,34.4-4.9,90.5-8.4,131c-2.3,26.7-17.6,50.3-32.5,72.7c-39,58.7-78,117.4-117,176.1c-3.7-81.9-7.3-163.8-11-245.7
	c-19.8-6.4-41.8,5.7-53.3,23.1c-11.5,17.3-14.8,38.7-17.4,59.3c-7,53.8-11.7,107.9-14.2,162.1c-8.4-86.7-16.9-173.5-25.3-260.2
	c-0.7-6.9-2.3-15.2-8.7-17.8c-6.2-2.5-13.4,2.2-15.9,8.4c-2.6,6.2-1.8,13.1-1,19.7c9.4,75.1-14.3,176.2-4.9,251.2
	c-16.9-43,18.4-116.7,18.7-162.9c0.2-46.2-2.4-94.8-27.2-133.8c-24.7-39-78.7-63-118.8-40.2c-29.1,16.6-43.1,52-71.3,70.1
	c-20.9,13.4-46.8,15.5-70.8,22.2c-23.9,6.7-49.1,21.3-54,45.7c34-25.3,68-50.6,102.1-75.9c-23.2,42-46.5,84-69.7,126.1
	c22.7-17.3,45.4-34.7,68.1-52c-22,42.7-56.3,107.6-78.3,150.4C222.9,698,295,625.9,323.3,584C299.9,625,204.3,723.1,181,764.2
	c20.3-20.6,93.4-81.9,113.7-102.5c-14,30.8-28,61.6-42.1,92.3c20.2-6.8,41.6-13.7,62.6-9.6c21,4,40.6,23.3,37.1,44.4
	c10.8-41.3-19.4-81.8-51.5-110C237.8,623.4,159.3,586,76.6,572c-17.3-2.9-35.2-5-51.1-12.4s-30.1-21.5-32.1-39
	c-2.2-19.8,12.1-38.6,29.8-47.8s38.2-11.1,58.1-12.8c31.4-2.6,62.9-5.2,94.3-7.8c15.4-1.3,34.9-6.4,36.5-21.7
	c1.1-10.4-8.1-19.7-18.2-22.4c-10.1-2.7-20.8-0.6-31.1,1.5c-44.2,9.2-88.4,18.3-132.5,27.5c51-39.7,111.2-114.1,162.2-153.8
	c-70.4,21-145.2,93-199,143.1c41-54.5,81.9-109,122.9-163.6c-37.1,13.5-74.2,27.1-111.2,40.6c-2.6-50.5,46.3-97.2,96.6-92.4
	c10.3-18.4,1-44.9-18.5-52.9c1.4-41.8,40.2-74.7,81.1-83.7s83.3,0.4,124,9.7"/>
<g>
	
		<line fill="none" stroke="#010101" stroke-width="7" stroke-linecap="round" stroke-linejoin="round" stroke-miterlimit="10" x1="333.6" y1="39.9" x2="333.6" y2="225"/>
	
		<line fill="none" stroke="#010101" stroke-width="7" stroke-linecap="round" stroke-linejoin="round" stroke-miterlimit="10" x1="496.1" y1="201.9" x2="311.1" y2="201.9"/>
	
		<polyline fill="none" stroke="#010101" stroke-width="7" stroke-linecap="round" stroke-linejoin="round" stroke-miterlimit="10" points="
		311.1,62.4 333.6,40.4 356.1,62.4 	"/>
	
		<polyline fill="none" stroke="#010101" stroke-width="7" stroke-linecap="round" stroke-linejoin="round" stroke-miterlimit="10" points="
		474.1,179.4 496.1,201.9 474.1,224.4 	"/>
	<g>
		<text transform="matrix(1 0 0 1 388.0653 252.395)" font-family="'PermanentMarker'" font-size="31">poverty</text>
	</g>
	<text transform="matrix(1 0 0 1 304.8848 27.6052)" font-family="'PermanentMarker'" font-size="31">crime</text>
	<path fill="none" stroke="#A73D37" stroke-width="7" stroke-linecap="round" stroke-linejoin="round" stroke-miterlimit="10" d="
		M342,189.7c9.2-25.9,33.6-42.9,56.8-57.8c23.2-14.8,47.9-30.8,58.9-56.1"/>
</g>
<g>
	<path fill="none" stroke="#597F5C" stroke-width="7" stroke-linecap="round" stroke-linejoin="round" stroke-miterlimit="10" d="
		M527.4,67.4c51.4-3.7,103.8,24.9,128.4,70.3c1.7,4.9,3.5,9.7,5.2,14.6"/>
	<path fill="none" stroke="#597F5C" stroke-width="7" stroke-linecap="round" stroke-linejoin="round" stroke-miterlimit="10" d="
		M638.1,144.3c9,3.8,17.3,9.1,24.5,15.6c3.9-9.3,10.5-17.4,18.8-23.2"/>
</g>
<g>
	
		<line fill="none" stroke="#010101" stroke-width="7" stroke-linecap="round" stroke-linejoin="round" stroke-miterlimit="10" x1="625.1" y1="236.8" x2="625.1" y2="421.8"/>
	
		<line fill="none" stroke="#010101" stroke-width="7" stroke-linecap="round" stroke-linejoin="round" stroke-miterlimit="10" x1="787.6" y1="398.8" x2="602.6" y2="398.8"/>
	
		<polyline fill="none" stroke="#010101" stroke-width="7" stroke-linecap="round" stroke-linejoin="round" stroke-miterlimit="10" points="
		602.6,259.3 625.1,237.3 647.6,259.3 	"/>
	
		<polyline fill="none" stroke="#010101" stroke-width="7" stroke-linecap="round" stroke-linejoin="round" stroke-miterlimit="10" points="
		765.6,376.3 787.6,398.8 765.6,421.3 	"/>
	<g>
		<text transform="matrix(1 0 0 1 706.5524 449.2278)" font-family="'PermanentMarker'" font-size="31">crime</text>
	</g>
	<text transform="matrix(1 0 0 1 596.3983 224.438)" font-family="'PermanentMarker'" font-size="31">house values</text>
	<path fill="none" stroke="#A73D37" stroke-width="7" stroke-linecap="round" stroke-linejoin="round" stroke-miterlimit="10" d="
		M640.7,279.8c29.9,42.2,66.5,79.5,108.1,110.3"/>
</g>
<g>
	<path fill="none" stroke="#597F5C" stroke-width="7" stroke-linecap="round" stroke-linejoin="round" stroke-miterlimit="10" d="
		M766.5,471c18,20.4,24,50.6,15,76.3c-8.9,25.7-32.4,45.7-59.1,50.5"/>
	<path fill="none" stroke="#597F5C" stroke-width="7" stroke-linecap="round" stroke-linejoin="round" stroke-miterlimit="10" d="
		M726,584c-4.1,4.5-8.3,9.1-12.4,13.6c6.3,4.2,12.7,8.4,19,12.6"/>
</g>
<g>
	
		<line fill="none" stroke="#010101" stroke-width="7" stroke-linecap="round" stroke-linejoin="round" stroke-miterlimit="10" x1="489" y1="556.4" x2="489" y2="741.4"/>
	
		<line fill="none" stroke="#010101" stroke-width="7" stroke-linecap="round" stroke-linejoin="round" stroke-miterlimit="10" x1="651.5" y1="718.4" x2="466.5" y2="718.4"/>
	
		<polyline fill="none" stroke="#010101" stroke-width="7" stroke-linecap="round" stroke-linejoin="round" stroke-miterlimit="10" points="
		466.5,578.9 489,556.9 511.5,578.9 	"/>
	
		<polyline fill="none" stroke="#010101" stroke-width="7" stroke-linecap="round" stroke-linejoin="round" stroke-miterlimit="10" points="
		629.5,695.9 651.5,718.4 629.5,740.9 	"/>
	<g>
		<text transform="matrix(1 0 0 1 458.5367 768.8357)" font-family="'PermanentMarker'" font-size="31">house values</text>
	</g>
	<text transform="matrix(1 0 0 1 460.3036 544.0459)" font-family="'PermanentMarker'" font-size="31">property tax</text>
	<path fill="none" stroke="#A73D37" stroke-width="7" stroke-linecap="round" stroke-linejoin="round" stroke-miterlimit="10" d="
		M504.5,702.7c40.9-38.4,81.8-76.8,122.7-115.2"/>
</g>
<g>
	<path fill="none" stroke="#597F5C" stroke-width="7" stroke-linecap="round" stroke-linejoin="round" stroke-miterlimit="10" d="
		M474.3,472.9c-5.8-17-14.9-33.6-29.6-44c-20.8-14.7-49.7-14.1-72.9-3.7c-23.3,10.4-41.7,29.3-57.3,49.4"/>
	<path fill="none" stroke="#597F5C" stroke-width="7" stroke-linecap="round" stroke-linejoin="round" stroke-miterlimit="10" d="
		M310.7,458c0,6.7,0,13.3,0,20c7.3,0,14.7,0,22,0"/>
</g>
<g>
	
		<line fill="none" stroke="#010101" stroke-width="7" stroke-linecap="round" stroke-linejoin="round" stroke-miterlimit="10" x1="199.1" y1="556.4" x2="199.1" y2="741.4"/>
	
		<line fill="none" stroke="#010101" stroke-width="7" stroke-linecap="round" stroke-linejoin="round" stroke-miterlimit="10" x1="361.6" y1="718.4" x2="176.6" y2="718.4"/>
	
		<polyline fill="none" stroke="#010101" stroke-width="7" stroke-linecap="round" stroke-linejoin="round" stroke-miterlimit="10" points="
		176.6,578.9 199.1,556.9 221.6,578.9 	"/>
	
		<polyline fill="none" stroke="#010101" stroke-width="7" stroke-linecap="round" stroke-linejoin="round" stroke-miterlimit="10" points="
		339.6,695.9 361.6,718.4 339.6,740.9 	"/>
	<g>
		<text transform="matrix(1 0 0 1 175.5815 768.8355)" font-family="'PermanentMarker'" font-size="31">property tax</text>
	</g>
	<text transform="matrix(1 0 0 1 170.4461 516.0457)"><tspan x="0" y="0" font-family="'PermanentMarker'" font-size="31">education </tspan><tspan x="0" y="30" font-family="'PermanentMarker'" font-size="31">funding</tspan></text>
	<path fill="none" stroke="#A73D37" stroke-width="7" stroke-linecap="round" stroke-linejoin="round" stroke-miterlimit="10" d="
		M212.2,701.2c31.3-54.1,76.2-100.1,129.5-132.8"/>
</g>
<g>
	<path fill="none" stroke="#597F5C" stroke-width="7" stroke-linecap="round" stroke-linejoin="round" stroke-miterlimit="10" d="
		M129.5,580.8c-27.8-0.2-56.6-6-78.3-23.3S16.9,509.4,27,483.6"/>
	<path fill="none" stroke="#597F5C" stroke-width="7" stroke-linecap="round" stroke-linejoin="round" stroke-miterlimit="10" d="
		M11.2,492.7c5.2-4.1,10.4-8.1,15.7-12.2c4.3,5.9,8.7,11.7,13,17.6"/>
</g>
<g>
	
		<line fill="none" stroke="#010101" stroke-width="7" stroke-linecap="round" stroke-linejoin="round" stroke-miterlimit="10" x1="52" y1="236.8" x2="52" y2="421.8"/>
	
		<line fill="none" stroke="#010101" stroke-width="7" stroke-linecap="round" stroke-linejoin="round" stroke-miterlimit="10" x1="214.5" y1="398.8" x2="29.5" y2="398.8"/>
	
		<polyline fill="none" stroke="#010101" stroke-width="7" stroke-linecap="round" stroke-linejoin="round" stroke-miterlimit="10" points="
		29.5,259.3 52,237.3 74.5,259.3 	"/>
	
		<polyline fill="none" stroke="#010101" stroke-width="7" stroke-linecap="round" stroke-linejoin="round" stroke-miterlimit="10" points="
		192.5,376.3 214.5,398.8 192.5,421.3 	"/>
	<g>
		<text transform="matrix(1 0 0 1 72.066 449.2273)" font-family="'PermanentMarker'" font-size="31">education</text>
	</g>
	<text transform="matrix(1 0 0 1 23.3063 224.4375)" font-family="'PermanentMarker'" font-size="31">poverty</text>
	<path fill="none" stroke="#A73D37" stroke-width="7" stroke-linecap="round" stroke-linejoin="round" stroke-miterlimit="10" d="
		M67,280.9c11.2,26.7,26.3,51.8,44.6,74.2c7.6,9.3,15.9,18.3,26,24.7c10.1,6.4,22.4,10.1,34.3,8.1"/>
</g>
<g>
	<path fill="none" stroke="#597F5C" stroke-width="7" stroke-linecap="round" stroke-linejoin="round" stroke-miterlimit="10" d="
		M84.5,166.2c0.1-26.7,19.7-50.2,43.2-62.7s50.6-16.1,77.1-19.5"/>
	<path fill="none" stroke="#597F5C" stroke-width="7" stroke-linecap="round" stroke-linejoin="round" stroke-miterlimit="10" d="
		M193.4,71.3c6,4.2,12,8.5,18,12.7c-3.8,6.1-7.6,12.3-11.4,18.4"/>
</g>
</svg>
