<?xml version="1.0" encoding="utf-8"?>
<!-- Generator: Adobe Illustrator 19.2.0, SVG Export Plug-In . SVG Version: 6.00 Build 0)  -->
<svg version="1.1" id="Layer_1" xmlns="http://www.w3.org/2000/svg" xmlns:xlink="http://www.w3.org/1999/xlink" x="0px" y="0px"
	 width="743.33px" height="450.38px" viewBox="0 0 743.33 450.38" enable-background="new 0 0 743.33 450.38" xml:space="preserve">
<path fill="none" stroke="#FFFFFF" stroke-width="120" stroke-linejoin="bevel" stroke-miterlimit="10" d="M48.02,6.27
	C32.17,46.24,16.33,86.22,0.48,126.19C45.89,82.28,91.31,38.38,136.72-5.53c-25.96,49.25-51.92,98.5-77.88,147.76
	c46.59-52.91,100.02-99.79,158.53-139.1c-17.98,34.88-35.97,69.76-53.95,104.64c27.47-32.17,54.93-64.35,82.4-96.52
	C231.91,48.98,218,86.71,204.1,124.44c28.03-45.41,56.07-90.82,84.1-136.23c-4.7,45-9.4,90.01-14.1,135.01
	c152.36-5.59,304.37-21.03,454.74-46.18C515.89,77.69,303.01,99.08,94.18,140.8c-14.82,2.96-30.96,6.84-40.03,18.93
	c25.51-1.59,51.02-3.17,76.53-4.76c-23.47,29.92-46.93,59.83-70.4,89.75c14.44-6.04,28.87-12.08,43.31-18.12
	c-17.42,32.21-34.83,64.42-52.25,96.63c25.51-9.13,51.02-18.27,76.53-27.4c-19.79,36.14-39.59,72.28-59.38,108.42
	c20.57-21.27,41.15-42.55,61.72-63.82c-15.6,27.98-31.21,55.96-46.81,83.94c15.28-9.47,30.56-18.95,45.84-28.42
	c-11.25,17.61-22.5,35.23-33.75,52.84c28.75-39.86,57.5-79.73,86.26-119.59c5.81,12.59,1.24,27.41-4.48,40.05
	c-5.72,12.64-12.73,25.62-11.58,39.45c1.14,13.82,15.09,27.49,27.95,22.29c11.28-4.56,13.75-19.14,14.56-31.27
	c1.8-27.04,3.6-54.09,5.4-81.13c-7.89,32.34,3.84,68.66,29.16,90.27c4.61-27.8,9.22-55.6,13.82-83.4
	c16.8,35.19,33.6,70.37,50.39,105.56c-10.39-56.77-20.78-113.55-31.17-170.32c22.75,44.28,45.5,88.56,68.25,132.84
	c-19.27-67.95-38.54-135.89-57.81-203.84c40.63,17.34,76.48,45.72,102.69,81.28c-0.04-44.45-0.08-88.9-0.12-133.35
	c-3.29,85.17-6.33,172.31,19.1,253.67c-5.86-87.99,2.9-176.93,25.82-262.08c18.99,82.26,37.97,164.51,56.96,246.77
	c-13.7-74.53-15.75-151.2-6.05-226.36c21.91,69.24,43.82,138.47,65.73,207.71c-10.64-97.95-21.28-195.91-31.91-293.86
	c9.7,44.05,19.39,88.1,29.09,132.16c11.8,53.62,24.22,108.69,55.08,154.09c2.07-82.12,4.14-164.25,6.2-246.37
	c4.87,77.3,17.96,154.09,38.98,228.64c-5.95-100.07-10.75-205.82,35.58-294.72c-5.84,86.34-11.68,172.67-17.53,259.01
	c-0.88,13.03-1.73,26.36,1.79,38.94s12.35,24.46,24.92,28c7.89-26.13,15.77-52.26,23.66-78.4c16.89,52.95,17.38,111,1.4,164.23
	c-17.75-45.88-35.5-91.77-53.26-137.65c-21.68,40.98-43.35,81.96-65.03,122.94c-4.77-20.22-14.15-44.68-34.84-46.47
	c-11.42-0.99-22.32,6.16-28.98,15.5c-6.66,9.33-9.88,20.62-12.98,31.66c3.68-20.02-19.02-37.17-39.26-35.01s-36.65,17.2-49.43,33.04
	c-3.18-16.6-18.07-30.24-34.88-31.97c-16.81-1.73-34.16,8.61-40.65,24.21c-0.4-9.72-9.64-18.18-19.36-17.72
	c-9.71,0.46-18.12,9.76-17.6,19.47"/>
<g>
	
		<line fill="none" stroke="#000000" stroke-width="7" stroke-linecap="round" stroke-linejoin="round" stroke-miterlimit="10" x1="71.08" y1="416.63" x2="720.53" y2="416.63"/>
	
		<polyline fill="none" stroke="#000000" stroke-width="7" stroke-linecap="round" stroke-linejoin="round" stroke-miterlimit="10" points="
		698.9,394.13 720.9,416.63 698.9,439.13 	"/>
</g>
<g>
	<text transform="matrix(1 0 0 1 663.2504 385.0809)" font-family="'PermanentMarker'" font-size="30.74px">time</text>
</g>
<g>
	
		<line fill="none" stroke="#000000" stroke-width="7" stroke-linecap="round" stroke-linejoin="round" stroke-miterlimit="10" x1="93.58" y1="439.13" x2="93.58" y2="62.76"/>
	
		<polyline fill="none" stroke="#000000" stroke-width="7" stroke-linecap="round" stroke-linejoin="round" stroke-miterlimit="10" points="
		71.08,84.76 93.58,62.76 116.08,84.76 	"/>
</g>
<text transform="matrix(1 0 0 1 62.6677 28.0467)"><tspan x="0" y="0" font-family="'PermanentMarker'" font-size="30.74px">un</tspan><tspan x="35.33" y="0" font-family="'PermanentMarker'" font-size="30.74px">de</tspan><tspan x="66.04" y="0" font-family="'PermanentMarker'" font-size="30.74px">rs</tspan><tspan x="96.93" y="0" font-family="'PermanentMarker'" font-size="30.74px" letter-spacing="-1">t</tspan><tspan x="110.14" y="0" font-family="'PermanentMarker'" font-size="30.74px">anding</tspan><tspan x="0" y="30" font-family="'PermanentMarker'" font-size="30.74px">of a con</tspan><tspan x="126.41" y="30" font-family="'PermanentMarker'" font-size="30.74px">c</tspan><tspan x="141.9" y="30" font-family="'PermanentMarker'" font-size="30.74px">ept</tspan></text>
<path fill="none" stroke="#F15A22" stroke-width="7" stroke-linecap="round" stroke-linejoin="round" stroke-miterlimit="10" d="
	M107.1,405.66c118.91,4.21,238.18-51.67,299.58-140.35c17.32-25.01,30.43-52.46,51.89-74.91c27.44-28.69,66.89-47.21,108.01-57.87
	c41.12-10.66,84.2-14.04,126.98-16.84"/>
<text transform="matrix(1 0 0 1 7.2404 115.6801)" font-family="'PermanentMarker'" font-size="30.74px">100%</text>
<g>
	<path fill="none" stroke="#000000" stroke-width="7" stroke-linecap="round" stroke-linejoin="round" stroke-miterlimit="10" d="
		M89.22,105.39c3.1,0,6.19,0,9.29,0"/>
	<path fill="none" stroke="#000000" stroke-width="7" stroke-linecap="round" stroke-linejoin="round" stroke-miterlimit="10" d="
		M113.11,105.39c3.1,0,6.19,0,9.29,0"/>
	<path fill="none" stroke="#000000" stroke-width="7" stroke-linecap="round" stroke-linejoin="round" stroke-miterlimit="10" d="
		M138.33,105.39c3.54,0,7.08,0,10.62,0"/>
	<path fill="none" stroke="#000000" stroke-width="7" stroke-linecap="round" stroke-linejoin="round" stroke-miterlimit="10" d="
		M163.56,105.39c3.1,0,6.19,0,9.29,0"/>
	<path fill="none" stroke="#000000" stroke-width="7" stroke-linecap="round" stroke-linejoin="round" stroke-miterlimit="10" d="
		M191.43,105.39c3.1,0,6.19,0,9.29,0"/>
	<path fill="none" stroke="#000000" stroke-width="7" stroke-linecap="round" stroke-linejoin="round" stroke-miterlimit="10" d="
		M219.31,105.39c3.98,0,7.96,0,11.95,0"/>
	<path fill="none" stroke="#000000" stroke-width="7" stroke-linecap="round" stroke-linejoin="round" stroke-miterlimit="10" d="
		M247.19,105.39c3.98,0,7.96,0,11.95,0"/>
	<path fill="none" stroke="#000000" stroke-width="7" stroke-linecap="round" stroke-linejoin="round" stroke-miterlimit="10" d="
		M273.73,105.39c2.65,0,5.31,0,7.96,0"/>
	<path fill="none" stroke="#000000" stroke-width="7" stroke-linecap="round" stroke-linejoin="round" stroke-miterlimit="10" d="
		M296.3,105.39c3.98,0,7.96,0,11.95,0"/>
	<path fill="none" stroke="#000000" stroke-width="7" stroke-linecap="round" stroke-linejoin="round" stroke-miterlimit="10" d="
		M328.16,105.39c3.54,0,7.08,0,10.62,0"/>
	<path fill="none" stroke="#000000" stroke-width="7" stroke-linecap="round" stroke-linejoin="round" stroke-miterlimit="10" d="
		M356.04,105.39c4.87,0,9.73,0,14.6,0"/>
	<path fill="none" stroke="#000000" stroke-width="7" stroke-linecap="round" stroke-linejoin="round" stroke-miterlimit="10" d="
		M385.24,105.39c3.1,0,6.19,0,9.29,0"/>
	<path fill="none" stroke="#000000" stroke-width="7" stroke-linecap="round" stroke-linejoin="round" stroke-miterlimit="10" d="
		M413.12,105.39c3.54,0,7.08,0,10.62,0"/>
	<path fill="none" stroke="#000000" stroke-width="7" stroke-linecap="round" stroke-linejoin="round" stroke-miterlimit="10" d="
		M442.32,105.39c4.42,0,8.85,0,13.27,0"/>
	<path fill="none" stroke="#000000" stroke-width="7" stroke-linecap="round" stroke-linejoin="round" stroke-miterlimit="10" d="
		M472.85,105.39c3.98,0,7.96,0,11.95,0"/>
	<path fill="none" stroke="#000000" stroke-width="7" stroke-linecap="round" stroke-linejoin="round" stroke-miterlimit="10" d="
		M503.39,105.39c5.31,0,10.62,0,15.93,0"/>
	<path fill="none" stroke="#000000" stroke-width="7" stroke-linecap="round" stroke-linejoin="round" stroke-miterlimit="10" d="
		M537.9,105.39c3.98,0,7.96,0,11.95,0"/>
	<path fill="none" stroke="#000000" stroke-width="7" stroke-linecap="round" stroke-linejoin="round" stroke-miterlimit="10" d="
		M567.1,105.39c5.31,0,10.62,0,15.93,0"/>
	<path fill="none" stroke="#000000" stroke-width="7" stroke-linecap="round" stroke-linejoin="round" stroke-miterlimit="10" d="
		M595.98,105.39c5.75,0,11.5,0,17.26,0"/>
	<path fill="none" stroke="#000000" stroke-width="7" stroke-linecap="round" stroke-linejoin="round" stroke-miterlimit="10" d="
		M626.84,105.39c3.1,0,6.19,0,9.29,0"/>
	<path fill="none" stroke="#000000" stroke-width="7" stroke-linecap="round" stroke-linejoin="round" stroke-miterlimit="10" d="
		M654.72,105.39c5.31,0,10.62,0,15.93,0"/>
	<path fill="none" stroke="#000000" stroke-width="7" stroke-linecap="round" stroke-linejoin="round" stroke-miterlimit="10" d="
		M683.92,105.39c4.42,0,8.85,0,13.27,0"/>
</g>
<text transform="matrix(1 0 0 1 449.8964 96.0406)" fill="#F15A22" font-family="'PermanentMarker'" font-size="30.74px">regular progress</text>
<path fill="none" stroke="#39B54A" stroke-width="7" stroke-linecap="round" stroke-linejoin="round" stroke-miterlimit="10" d="
	M107.85,398.01c71.77-1.05,143.13-22.19,203.89-60.4"/>
<g>
	<path fill="none" stroke="#000000" stroke-width="7" stroke-linecap="round" stroke-linejoin="round" stroke-miterlimit="10" d="
		M319.04,321.15c-0.01,2.69-0.01,5.39-0.02,8.08c3.66-1.29,7.31-2.58,10.97-3.88"/>
	<path fill="none" stroke="#000000" stroke-width="7" stroke-linecap="round" stroke-linejoin="round" stroke-miterlimit="10" d="
		M323.63,325.07c4.23-14.21,18.85-23.45,33.56-25.3c14.71-1.86,29.49,2.35,43.39,7.52c13.9,5.16,27.58,11.37,42.21,13.76
		c14.63,2.39,30.81,0.42,42.09-9.2"/>
	<text transform="matrix(1 0 0 1 517.2895 293.3421)"><tspan x="0" y="0" font-family="'PermanentMarker'" font-size="30.74px">s</tspan><tspan x="13.66" y="0" font-family="'PermanentMarker'" font-size="30.74px">om</tspan><tspan x="58.03" y="0" font-family="'PermanentMarker'" font-size="30.74px">e</tspan><tspan x="73.76" y="0" font-family="'PermanentMarker'" font-size="30.74px">one </tspan><tspan x="137.85" y="0" font-family="'PermanentMarker'" font-size="30.74px" letter-spacing="-1">g</tspan><tspan x="156.37" y="0" font-family="'PermanentMarker'" font-size="30.74px">ives</tspan><tspan x="0" y="30" font-family="'PermanentMarker'" font-size="30.74px">a name </tspan><tspan x="116.9" y="30" font-family="'PermanentMarker'" font-size="30.74px">t</tspan><tspan x="130.71" y="30" font-family="'PermanentMarker'" font-size="30.74px">o it</tspan></text>
</g>
<path fill="none" stroke="#39B54A" stroke-width="7" stroke-linecap="round" stroke-linejoin="round" stroke-miterlimit="10" d="
	M311.35,335.32V181.86l1.66-0.34c52.26-0.56,104.53-0.76,156.79-1.32h221.94"/>
</svg>
