<?xml version="1.0" encoding="utf-8"?>
<!-- Generator: Adobe Illustrator 18.0.0, SVG Export Plug-In . SVG Version: 6.00 Build 0)  -->
<!DOCTYPE svg PUBLIC "-//W3C//DTD SVG 1.1//EN" "http://www.w3.org/Graphics/SVG/1.1/DTD/svg11.dtd">
<svg version="1.1" id="Layer_1" xmlns="http://www.w3.org/2000/svg" xmlns:xlink="http://www.w3.org/1999/xlink" x="0px" y="0px"
	 viewBox="0 0 289.2 328.5" enable-background="new 0 0 289.2 328.5" xml:space="preserve">
<path fill="none" stroke="#FFFFFF" stroke-width="120" stroke-linejoin="bevel" stroke-miterlimit="10" d="M281,11
	C208.8,30.1,133.1,30.7,58.3,31.2C39,31.3,19.7,31.4,0.4,31.6c24.2,30.4,32.2,70.8,32,109.7c-0.2,38.8-7.7,77.2-11.2,115.9
	c-0.8,8.6,0.1,19.6,8.2,22.6c7.4,2.7,14.8-3.6,19.8-9.6c19.5-23.6,33.2-52,39.4-81.9c3.7-17.9,5-36.8,13.6-53s27.5-29.1,44.9-23.1
	c15.8,5.4,23.1,23,29.8,38.3c14.8,33.3,35.7,63.9,61.4,89.8c8.1,8.1,16.8,16,22.3,26c5.5,10,7.4,23,1.3,32.8
	c-8.5,13.6-27.3,15.1-43.4,15.1c-43.3,0-86.7-0.1-130-0.1c-7.9,0-16,0-23.5-2.8c-7.4-2.8-14.1-9-15.1-16.8
	c-1.2-9,5.4-17.5,13.5-21.6s17.4-4.6,26.5-5.1c44.6-2.3,89.2-4.6,133.8-7"/>
<g>
	
		<line fill="none" stroke="#010101" stroke-width="7" stroke-linecap="round" stroke-linejoin="round" stroke-miterlimit="10" x1="35.5" y1="65.2" x2="35.5" y2="288.2"/>
	
		<line fill="none" stroke="#010101" stroke-width="7" stroke-linecap="round" stroke-linejoin="round" stroke-miterlimit="10" x1="13" y1="265.7" x2="262.4" y2="265.7"/>
	
		<polyline fill="none" stroke="#010101" stroke-width="7" stroke-linecap="round" stroke-linejoin="round" stroke-miterlimit="10" points="
		13,87.2 35.5,65.2 58,87.2 	"/>
	
		<polyline fill="none" stroke="#010101" stroke-width="7" stroke-linecap="round" stroke-linejoin="round" stroke-miterlimit="10" points="
		240.4,243.2 262.4,265.7 240.4,288.2 	"/>
</g>
<text transform="matrix(1 0 0 1 80.7435 321.1985)" font-family="'PermanentMarker'" font-size="30.74"># of choices</text>
<text transform="matrix(1 0 0 1 8.0379 22.196)"><tspan x="0" y="0" font-family="'PermanentMarker'" font-size="30.74">chance of getting</tspan><tspan x="0" y="30" font-family="'PermanentMarker'" font-size="30.74">anything done</tspan></text>
<path fill="none" stroke="#BE1E2D" stroke-width="7" stroke-linecap="round" stroke-linejoin="round" stroke-miterlimit="10" d="
	M48.5,254.9c9.2-25,18.4-50,27.7-75c6.3-17.1,12.9-34.7,24.8-48.5s30.6-23.3,48.5-19.3c12.7,2.9,23.2,12.2,30.3,23.1
	s11.3,23.4,15.4,35.8c8.3,25.1,16.6,50.2,24.9,75.2"/>
</svg>
