<?xml version="1.0" encoding="utf-8"?>
<!-- Generator: Adobe Illustrator 18.0.0, SVG Export Plug-In . SVG Version: 6.00 Build 0)  -->
<!DOCTYPE svg PUBLIC "-//W3C//DTD SVG 1.1//EN" "http://www.w3.org/Graphics/SVG/1.1/DTD/svg11.dtd">
<svg version="1.1" id="Layer_1" xmlns="http://www.w3.org/2000/svg" xmlns:xlink="http://www.w3.org/1999/xlink" x="0px" y="0px"
	 viewBox="0 0 454 326" enable-background="new 0 0 454 326" xml:space="preserve">
<path fill="none" stroke="#FFFFFF" stroke-width="120" stroke-linejoin="bevel" stroke-miterlimit="10" d="M26.2,0.4
	C17.3,28,8.3,55.5-0.7,83c33.2-7.1,60.3-30,86.8-51.1s56.1-42,90-43.6C137.2,69.5,52.5,122.9,18.7,206.5c27-3.6,48.1-24.2,67.1-43.6
	c34-34.6,67.9-69.3,101.9-103.9C219,27.1,254.5-6.9,299-9.7c-70.8,115-158.6,219.6-259.6,309.2c16.4,16.4,42.3,20.8,64.8,15.1
	s41.9-20.1,58.1-36.7c6.6-6.8,12.9-14.1,21.2-18.6c8.3-4.5,19.3-5.6,26.8,0.2c9.6,7.4,9.3,21.7,7.8,33.7c-1.5,12-2.8,25.9,5.8,34.4
	c11.1,10.9,30.9,4.1,40.8-8c9.9-12.1,14.2-27.8,23.3-40.5c9.1-12.7,27.1-21.9,40.2-13.3c12.9,8.5,12,27.8,20.3,40.8
	c6.7,10.4,19.2,16,31.5,17.4s24.7-0.9,36.9-3.2c7.8-1.5,15.8-3,22.4-7.4c6.6-4.4,11.5-12.4,9.7-20.2c-1.7-7.7-9.1-12.6-15.5-17.3
	c-35.9-26.1-57.4-66.9-80.1-105c-22.7-38.1-50.1-76.9-91.1-93.7"/>
<g>
	
		<line fill="none" stroke="#000000" stroke-width="7" stroke-linecap="round" stroke-linejoin="round" stroke-miterlimit="10" x1="33.9" y1="35.8" x2="33.9" y2="296.6"/>
	
		<line fill="none" stroke="#000000" stroke-width="7" stroke-linecap="round" stroke-linejoin="round" stroke-miterlimit="10" x1="444.3" y1="265.9" x2="11.4" y2="265.9"/>
	
		<polyline fill="none" stroke="#000000" stroke-width="7" stroke-linecap="round" stroke-linejoin="round" stroke-miterlimit="10" points="
		11.4,57.8 33.9,35.8 56.4,57.8 	"/>
	
		<polyline fill="none" stroke="#000000" stroke-width="7" stroke-linecap="round" stroke-linejoin="round" stroke-miterlimit="10" points="
		422.3,243.4 444.3,265.9 422.3,288.4 	"/>
</g>
<text transform="matrix(1 0 0 1 72.1553 319.7656)" font-family="'PermanentMarker'" font-size="31">how far i am from home</text>
<text transform="matrix(1 0 0 1 5.4355 24.1001)" fill="#231F20" font-family="'PermanentMarker'" font-size="31">how far i want to be</text>
<path fill="none" stroke="#29B473" stroke-width="7" stroke-linecap="round" stroke-linejoin="round" stroke-miterlimit="10" d="
	M43.3,76.1c49.8-4.5,100-9,149.7-3.9c49.7,5.1,99.6,20.4,138.6,51.7s65.7,80.1,62.6,130"/>
</svg>
