<?xml version="1.0" encoding="utf-8"?>
<!-- Generator: Adobe Illustrator 19.2.0, SVG Export Plug-In . SVG Version: 6.00 Build 0)  -->
<svg version="1.1" id="Layer_1" xmlns="http://www.w3.org/2000/svg" xmlns:xlink="http://www.w3.org/1999/xlink" x="0px" y="0px"
	 width="889.02px" height="491.85px" viewBox="0 0 889.02 491.85" enable-background="new 0 0 889.02 491.85" xml:space="preserve">
<path fill="none" stroke="#FFFFFF" stroke-width="120" stroke-linejoin="bevel" stroke-miterlimit="10" d="M139.43,16.73
	c8.54,0.19,17.07,0.37,25.61,0.56c-14.62,24.46-29.24,48.92-43.87,73.38c36.33-27.06,72.66-54.12,108.99-81.18
	c-11.7,20.47-23.39,40.93-35.09,61.4c28.29-26.19,56.59-52.39,84.88-78.58c-10.91,30.09-21.81,60.17-32.72,90.26
	c30.2-15.27,60.4-30.53,90.6-45.8C326.63,56.18,315.42,75.59,304.21,95c33.97-37.24,67.95-74.48,101.92-111.72
	c-14.67,40.54-29.34,81.07-44.02,121.61c45.83-15.82,86.77-45.51,116.04-84.16c-8.25,22.2-16.5,44.4-24.75,66.6
	c28.86-23.72,57.71-47.44,86.57-71.16c-9.09,17.08-18.18,34.17-27.27,51.25c21.09-22.93,42.18-45.85,63.28-68.78
	c-4.46,23.9-8.92,47.81-13.38,71.71c-134.19-18.27-273.99,7.27-393.06,71.79c31.3-4.2,62.6-8.41,93.9-12.61
	c-18.5,28.68-37,57.36-55.49,86.04c11.05-8.75,22.11-17.49,33.16-26.24c-10.17,12.59-20.34,25.19-30.51,37.78
	c13.56-5.99,27.12-11.98,40.68-17.97c-16.76,31.42-33.51,62.84-50.27,94.26c13.35-32.97,26.69-65.95,40.04-98.92
	c-11.37,49.79-22.74,99.57-34.11,149.36c32.88-49.67,65.76-99.34,98.65-149.02c-13.61,34.56-27.21,69.11-40.82,103.67
	c33.23-41.82,66.47-83.63,99.7-125.45c-22.9,56-45.81,112-68.71,168.01c33.37-44.53,66.73-89.05,100.1-133.58
	c-8.5,44.13-17,88.26-25.5,132.39c12.23-61.37,32.92-121.05,61.3-176.82c-0.24,60.62-0.47,121.24-0.71,181.86
	c5.41-55.98,20.09-111.05,43.26-162.3c4.44,46.59,8.88,93.17,13.33,139.76c28.28-58.98,56.57-117.96,84.85-176.93
	c-18.99,56.09-27.9,115.58-26.15,174.77c25.71-52.3,51.42-104.6,77.14-156.9c-0.81,51.88-1.62,103.77-2.43,155.65
	c5.42-40.6,10.94-81.58,24.99-120.05c14.05-38.48,37.54-74.78,72.07-96.83c31.17-19.91,70.34-26.86,106.45-18.91
	c-73.29,35.18-138.36,87.36-188.62,151.25c23.69-8.54,47.38-17.08,71.08-25.62c-29.75,31.6-59.5,63.2-89.26,94.8
	c18.8-9.16,37.61-18.32,56.41-27.47c-12.15,22.65-24.29,45.29-36.44,67.94c22.84-16.27,45.68-32.54,68.53-48.81
	c-14.34,21.27-28.68,42.53-43.02,63.8c15.24-6.27,30.49-12.54,45.73-18.81c-21.04,32.09-42.07,64.17-63.11,96.26
	c24.22-4.16,48.44-8.33,72.66-12.49c-12.22,22.4-24.44,44.79-36.65,67.19c38.67-38.29,77.33-76.58,116-114.87
	c-17.33,8.9-25.41,32.33-17.26,50.02s31.22,26.76,49.24,19.37c3.06-1.26,5.96-2.91,8.64-4.85c24.43-17.6,24.12-59.99-0.56-77.23
	c14.45,43.81,28.89,87.62,43.34,131.43c-10.77-41.52-51.23-73.39-94.11-74.14c-42.88-0.75-84.43,29.69-96.65,70.81
	c-3.59-20.69-23.48-37.28-44.47-37.1c-20.99,0.18-40.6,17.11-43.83,37.86c-3.26-13.62-6.72-27.67-15.22-38.79
	c-8.5-11.12-23.51-18.55-36.73-13.95c-20.84,7.26-28.89,39.78-50.95,39.06c-25.44-0.83-29.6-44.55-54.68-48.92
	c-25.83-4.5-38.19,36.06-64,40.66c-35.42,6.31-52.06-56.68-87.92-53.77c-12.11,0.98-21.99,9.69-30.89,17.96
	c-21.85,20.28-43.7,40.56-65.55,60.84c-12.44-37.23,6.48-82.26,41.79-99.42c-17.83-10.65-35.66-21.29-53.5-31.94
	c19.05-21.8,38.3-43.87,51.58-69.6c13.28-25.73,20.2-55.88,13.08-83.94c-7.13-28.06-30.47-52.92-59.24-56.19
	c-12.33,20.48-24.65,40.96-36.98,61.44c-19.05-30.72-38.11-61.45-57.16-92.17c-18.77,7.06-23.47,30.66-28.94,49.95
	c-5.47,19.29-22.11,41.16-40.93,34.22c-9.92-3.66-15.58-14.64-16.18-25.2c-0.59-10.55,2.89-20.86,6.33-30.85"/>
<g>
	
		<line fill="none" stroke="#000000" stroke-width="7" stroke-linecap="round" stroke-linejoin="round" stroke-miterlimit="10" x1="196.37" y1="464.39" x2="862.07" y2="464.39"/>
	
		<polyline fill="none" stroke="#000000" stroke-width="7" stroke-linecap="round" stroke-linejoin="round" stroke-miterlimit="10" points="
		842.69,441.89 864.69,464.39 842.69,486.89 	"/>
</g>
<text transform="matrix(1 0 0 1 804.0357 424.862)" font-family="'PermanentMarker'" font-size="30.74px">time</text>
<g>
	
		<line fill="none" stroke="#000000" stroke-width="7" stroke-linecap="round" stroke-linejoin="round" stroke-miterlimit="10" x1="215.52" y1="96.7" x2="215.52" y2="486.89"/>
	
		<polyline fill="none" stroke="#000000" stroke-width="7" stroke-linecap="round" stroke-linejoin="round" stroke-miterlimit="10" points="
		193.02,118.82 215.52,96.82 238.02,118.82 	"/>
</g>
<text transform="matrix(1 0 0 1 141.0242 40.4848)"><tspan x="0" y="0" font-family="'PermanentMarker'" font-size="30.74px">how much i agree with one of</tspan><tspan x="0" y="30" font-family="'PermanentMarker'" font-size="30.74px">a </tspan><tspan x="29.24" y="30" font-family="'PermanentMarker'" font-size="30.74px">b</tspan><tspan x="46.26" y="30" font-family="'PermanentMarker'" font-size="30.74px">unch of competing i</tspan><tspan x="346.88" y="30" font-family="'PermanentMarker'" font-size="30.74px">d</tspan><tspan x="361.86" y="30" font-family="'PermanentMarker'" font-size="30.74px">e</tspan><tspan x="377.89" y="30" font-family="'PermanentMarker'" font-size="30.74px">a</tspan><tspan x="395.15" y="30" font-family="'PermanentMarker'" font-size="30.74px">s</tspan></text>
<path fill="none" stroke="#702C8D" stroke-width="7" stroke-linecap="round" stroke-linejoin="round" stroke-miterlimit="10" d="
	M217.81,243.89c24.21,17.16,32.38,64.44,53.68,75.93c27.76,14.97,39.08-22.41,60.37-32.3"/>
<path fill="none" stroke="#00A651" stroke-width="7" stroke-linecap="round" stroke-linejoin="round" stroke-miterlimit="10" d="
	M219.43,302.05c14.51,15.29,38.91,12.92,52.3-2.27c13.21-14.98,19.58-41.2,41.59-46.2c22.34-5.08,34.85,19.68,44.83,34.91"/>
<path fill="none" stroke="#EC008C" stroke-width="7" stroke-linecap="round" stroke-linejoin="round" stroke-miterlimit="10" d="
	M217.81,290.19c3.82-17.69,18.7-32.47,36.49-35.98c18.94-3.74,38.49,5.1,48.91,21.12c9.78,15.02,17.56,41.87,40.33,39.81"/>
<path fill="none" stroke="#702C8D" stroke-width="7" stroke-linecap="round" stroke-linejoin="round" stroke-miterlimit="10" d="
	M331.85,287.52c57.16-26.54,75.69,53.03,120,34c48.67-20.91,41.75-103.26,98.62-30.54"/>
<path fill="none" stroke="#00A651" stroke-width="7" stroke-linecap="round" stroke-linejoin="round" stroke-miterlimit="10" d="
	M358.15,288.48c5.38,8.21,11.87,16.6,21.19,20.51c9.79,4.11,20.48,1.83,29.16-3.8c20.6-13.37,24.6-38.84,33.46-59.87
	c3.58-8.49,9.52-19.05,19.79-19.99c9.97-0.91,16.81,8.02,21.05,15.83c6.01,11.07,10.39,23.23,15.38,34.79"/>
<path fill="none" stroke="#EC008C" stroke-width="7" stroke-linecap="round" stroke-linejoin="round" stroke-miterlimit="10" d="
	M303.2,275.33c9.78,15.02,17.56,41.87,40.33,39.81c22.27-2.02,30.91-26.43,37.77-44.01c6.46-16.56,19.05-38.98,40.36-35.64
	c20.22,3.17,27.83,26.15,31.95,43.16c4.45,18.36,10.35,41.01,31.49,46.23"/>
<path fill="none" stroke="#702C8D" stroke-width="7" stroke-linecap="round" stroke-linejoin="round" stroke-miterlimit="10" d="
	M550.47,290.98c62.12,79.43,71.69-27.08,136.38-22.46"/>
<path fill="none" stroke="#00A651" stroke-width="7" stroke-linecap="round" stroke-linejoin="round" stroke-miterlimit="10" d="
	M482.8,241.15c6.01,11.07,10.39,23.23,15.38,34.79c4.62,10.67,8.29,23.38,15.52,32.65c6.88,8.84,17.91,9.57,26.79,3.06
	c9.36-6.86,13.2-18.96,17.91-29.04c8.98-19.22,25.46-43.38,50.24-38.34c22.26,4.53,33.09,29.48,55.02,35.23
	c5.06,1.33,10.43,1.34,15.29-0.73"/>
<path fill="none" stroke="#EC008C" stroke-width="7" stroke-linecap="round" stroke-linejoin="round" stroke-miterlimit="10" d="
	M453.61,278.64c4.45,18.36,10.35,41.01,31.49,46.23c16.77,4.14,25.69-10.35,31.13-23.59c4.77-11.62,9.59-27.53,24.07-29.65
	c9.06-1.33,17.34,3.95,24.49,8.82c7.78,5.3,15.3,11.07,24.58,13.43c17.85,4.54,36.97-2.28,50.99-13.42
	c15.79-12.55,25.18-31.36,31.8-50c3.49-9.82,6.28-19.88,8.92-29.96"/>
<g>
	<path fill="none" stroke="#000000" stroke-width="7" stroke-linecap="round" stroke-linejoin="round" stroke-miterlimit="10" d="
		M206.55,203.11c5.44,0,10.88,0,16.31,0"/>
	<path fill="none" stroke="#000000" stroke-width="7" stroke-linecap="round" stroke-linejoin="round" stroke-miterlimit="10" d="
		M236.9,203.11c6.25,0,12.5,0,18.75,0"/>
	<path fill="none" stroke="#000000" stroke-width="7" stroke-linecap="round" stroke-linejoin="round" stroke-miterlimit="10" d="
		M271.92,203.11c6.25,0,12.5,0,18.75,0"/>
	<path fill="none" stroke="#000000" stroke-width="7" stroke-linecap="round" stroke-linejoin="round" stroke-miterlimit="10" d="
		M307.23,203.11c4.41,0,8.83,0,13.24,0"/>
	<path fill="none" stroke="#000000" stroke-width="7" stroke-linecap="round" stroke-linejoin="round" stroke-miterlimit="10" d="
		M337.01,203.11c4.05,0,8.09,0,12.14,0"/>
	<path fill="none" stroke="#000000" stroke-width="7" stroke-linecap="round" stroke-linejoin="round" stroke-miterlimit="10" d="
		M367.9,203.11c4.78,0,9.56,0,14.34,0"/>
	<path fill="none" stroke="#000000" stroke-width="7" stroke-linecap="round" stroke-linejoin="round" stroke-miterlimit="10" d="
		M397.69,203.11c4.05,0,8.09,0,12.14,0"/>
	<path fill="none" stroke="#000000" stroke-width="7" stroke-linecap="round" stroke-linejoin="round" stroke-miterlimit="10" d="
		M424.17,203.11c4.78,0,9.56,0,14.34,0"/>
	<path fill="none" stroke="#000000" stroke-width="7" stroke-linecap="round" stroke-linejoin="round" stroke-miterlimit="10" d="
		M450.64,203.11c4.05,0,8.09,0,12.14,0"/>
	<path fill="none" stroke="#000000" stroke-width="7" stroke-linecap="round" stroke-linejoin="round" stroke-miterlimit="10" d="
		M479.33,203.11c4.41,0,8.83,0,13.24,0"/>
	<path fill="none" stroke="#000000" stroke-width="7" stroke-linecap="round" stroke-linejoin="round" stroke-miterlimit="10" d="
		M508.01,203.11c6.25,0,12.5,0,18.75,0"/>
	<path fill="none" stroke="#000000" stroke-width="7" stroke-linecap="round" stroke-linejoin="round" stroke-miterlimit="10" d="
		M540,203.11c5.52,0,11.03,0,16.55,0"/>
	<path fill="none" stroke="#000000" stroke-width="7" stroke-linecap="round" stroke-linejoin="round" stroke-miterlimit="10" d="
		M570.89,203.11c5.88,0,11.77,0,17.65,0"/>
	<path fill="none" stroke="#000000" stroke-width="7" stroke-linecap="round" stroke-linejoin="round" stroke-miterlimit="10" d="
		M605.37,203.11c5.88,0,11.77,0,17.65,0"/>
	<path fill="none" stroke="#000000" stroke-width="7" stroke-linecap="round" stroke-linejoin="round" stroke-miterlimit="10" d="
		M637.36,203.11c5.88,0,11.77,0,17.65,0"/>
	<path fill="none" stroke="#000000" stroke-width="7" stroke-linecap="round" stroke-linejoin="round" stroke-miterlimit="10" d="
		M672.67,203.11c4.78,0,9.56,0,14.34,0"/>
</g>
<text transform="matrix(1 0 0 1 0.7762 191.7951)"><tspan x="0" y="0" font-family="'PermanentMarker'" font-size="30.74px">stubbornness</tspan><tspan x="48.99" y="30" font-family="'PermanentMarker'" font-size="30.74px">threshold</tspan></text>
<path fill="none" stroke="#EC008C" stroke-width="7" stroke-linecap="round" stroke-linejoin="round" stroke-miterlimit="10" d="
	M672.16,230.44c3.49-9.82,6.28-19.88,8.92-29.96c0.63-2.42,0.72-4.08,0.72-6.54c0-9.31,0-18.62,0-27.93c0-12.17,0-24.35,0-36.52
	c0-4.87-0.21-24.06,0.34-24.45c1.38-0.98,131.55-0.21,137.07-0.21"/>
<path fill="none" stroke="#702C8D" stroke-width="7" stroke-linecap="round" stroke-linejoin="round" stroke-miterlimit="10" d="
	M686.85,268.52c0,58.25,0,116.49-0.01,174.74c1.63-0.36,1.63-0.36,0,0c46.44,0.26,92.89,0.26,139.33-0.06"/>
<path fill="none" stroke="#00A651" stroke-width="7" stroke-linecap="round" stroke-linejoin="round" stroke-miterlimit="10" d="
	M678.96,278.77c0,5.71,0,11.42,0,17.13c-0.11,51.62-0.11,102.62,0,154.44c4.06,0,0-0.07,0,0c46.89,0.18,92.89,0.18,140.34-0.01"/>
</svg>
