<?xml version="1.0" encoding="utf-8"?>
<!-- Generator: Adobe Illustrator 19.2.0, SVG Export Plug-In . SVG Version: 6.00 Build 0)  -->
<svg version="1.1" id="Layer_1" xmlns="http://www.w3.org/2000/svg" xmlns:xlink="http://www.w3.org/1999/xlink" x="0px" y="0px"
	 width="400.59px" height="378.7px" viewBox="0 0 400.59 378.7" enable-background="new 0 0 400.59 378.7" xml:space="preserve">
<path fill="none" stroke="#FFFFFF" stroke-width="120" stroke-linejoin="bevel" stroke-miterlimit="10" d="M231.87,19.06
	C172.92,19.77,113.96,20.49,55,21.2c-12.39,0.15-25.18,0.38-36.49,5.45S-2.3,42.96-1.33,55.31c1.2,15.32,18.05,25.5,33.42,25.04
	S61.4,71.78,74.59,63.9C53.58,90.95,32.57,118,11.56,145.05c14.27-4.76,28.55-9.51,42.82-14.27c-10.54,21.87-21.09,43.74-31.63,65.6
	c15.98-7.75,31.95-15.5,47.93-23.24c-14.46,27.34-28.92,54.68-43.37,82.01c11.82-6.71,23.64-13.42,35.46-20.12
	c-9.37,22.81-18.75,45.63-28.12,68.44c9.78-12.93,19.56-25.86,29.33-38.79c-10.55,18.83-21.09,37.66-31.64,56.48
	c14.36-6.36,28.71-12.72,43.07-19.08c-10.07-0.05-19.65,7.63-21.8,17.46c-2.15,9.84,3.34,20.81,12.51,24.98
	c4.46,2.03,9.47,2.53,14.37,2.4c27.33-0.7,52.7-22.29,57.77-49.16c-2.96,13.84-5.92,28.16-3.06,42.01s13.18,27.22,27.22,28.97
	c12.31,1.54,24.3-6.23,31.35-16.43c7.06-10.21,10.15-22.56,13.12-34.61c2.37,21.67,4.73,43.34,7.1,65.01
	c3.11-10.24,6.39-20.79,13.32-28.95c6.93-8.15,18.56-13.32,28.56-9.52c9.8,3.72,14.88,14.27,19.02,23.9
	c7.08,16.46,14.16,32.91,21.24,49.37c4.68-38.75,9.36-77.5,14.04-116.25c7.34,19.75,14.68,39.5,22.02,59.25
	c3.37,9.06,8.09,19.38,17.52,21.55c10.29,2.37,20.18-7.34,22.05-17.73c1.87-10.39-1.92-20.87-5.65-30.74
	c7.3,17.32,14.59,34.65,21.89,51.97c-3.07-28.97-6.15-57.93-9.22-86.9c-1.64-15.46-4.1-32.52-16.01-42.51
	c-13.13-11.01-32.41-9.09-49.36-6.57c-56.02,8.35-112.03,16.69-168.05,25.04c-19.75,2.94-43.4,4.5-56.08-10.94
	c-9.13-11.12-8.8-27.03-7.47-41.36c4.48-48.35,15.04-96.14,31.35-141.87c-8.89,36.73-17.78,73.45-26.66,110.18
	c23.74-30.46,47.48-60.91,71.23-91.37c-5.6,22.74-11.21,45.49-16.81,68.23c16.95-13.03,33.91-26.05,50.86-39.08
	c-13.51,34.68-27.02,69.36-40.53,104.03c31.31-36.62,62.62-73.25,93.92-109.87c-16.74,39.58-33.48,79.17-50.22,118.75
	c38.78-41.51,77.57-83.03,116.35-124.54c-14.46,37.73-28.92,75.45-43.37,113.18c35.86-46.25,71.73-92.5,107.59-138.75
	c-15.57,36.54-31.15,73.07-46.72,109.61c-5.53,12.97-9.51,31.29,2.65,38.43c6.47,3.8,15.04,2.04,21.15-2.32
	c6.11-4.35,10.3-10.84,14.33-17.16c21.43-33.57,42.85-67.14,64.28-100.71"/>
<g>
	
		<line fill="none" stroke="#000000" stroke-width="7" stroke-linecap="round" stroke-linejoin="round" stroke-miterlimit="10" x1="49.92" y1="39.75" x2="49.92" y2="343.8"/>
	
		<line fill="none" stroke="#000000" stroke-width="7" stroke-linecap="round" stroke-linejoin="round" stroke-miterlimit="10" x1="27.42" y1="321.3" x2="367.82" y2="321.3"/>
</g>
<g>
	
		<polyline fill="none" stroke="#000000" stroke-width="7" stroke-linecap="round" stroke-linejoin="round" stroke-miterlimit="10" points="
		345.82,298.8 367.82,321.3 345.82,343.8 	"/>
	<text transform="matrix(1 0 0 1 189.6228 372.0441)"><tspan x="0" y="0" font-family="'PermanentMarker'" font-size="30.74px">tight</tspan><tspan x="77.27" y="0" font-family="'PermanentMarker'" font-size="30.74px">l</tspan><tspan x="92.73" y="0" font-family="'PermanentMarker'" font-size="30.74px">y knit</tspan></text>
</g>
<g>
	
		<polyline fill="none" stroke="#000000" stroke-width="7" stroke-linecap="round" stroke-linejoin="round" stroke-miterlimit="10" points="
		27.42,61.75 49.92,39.75 72.42,61.75 	"/>
	<text transform="matrix(1 0 0 1 19.4198 29.6773)" font-family="'PermanentMarker'" font-size="30.74px">cold feeling</text>
</g>
<path fill="none" stroke="#B2D235" stroke-width="7" stroke-linecap="round" stroke-linejoin="round" stroke-miterlimit="10" d="
	M88.05,86.1c28.07,26.47,56.14,52.94,84.2,79.41c45,42.44,90.14,85,139.9,121.75"/>
<g>
	<path fill="none" stroke="#000000" stroke-width="7" stroke-linecap="round" stroke-linejoin="round" stroke-miterlimit="10" d="
		M222.74,201.02c-0.62,7.61-1.24,15.23-1.86,22.84"/>
	<path fill="none" stroke="#000000" stroke-width="7" stroke-linecap="round" stroke-linejoin="round" stroke-miterlimit="10" d="
		M212.19,215.29c6.34-2.22,12.69-4.44,19.03-6.66"/>
</g>
<path fill="none" stroke="#000000" stroke-width="7" stroke-linecap="round" stroke-linejoin="round" stroke-miterlimit="10" d="
	M211.44,227.55c-7.03,1.7-11.95,9.51-10.45,16.59c1.55,7.29,8.47,12.16,11.65,18.91c4.11,8.73,0.97,19.89-6.34,26.2
	c-7.31,6.3-17.96,7.95-27.28,5.44c-9.32-2.5-17.33-8.76-23.25-16.39"/>
<text transform="matrix(1 0 0 1 59.9456 268.9034)"><tspan x="0" y="0" font-family="'PermanentMarker'" font-size="30.74px">swe</tspan><tspan x="55.66" y="0" font-family="'PermanentMarker'" font-size="30.74px" letter-spacing="-1">a</tspan><tspan x="71.99" y="0" font-family="'PermanentMarker'" font-size="30.74px">t</tspan><tspan x="86.73" y="0" font-family="'PermanentMarker'" font-size="30.74px">e</tspan><tspan x="102.46" y="0" font-family="'PermanentMarker'" font-size="30.74px">rs</tspan></text>
<g>
	<path fill="none" stroke="#000000" stroke-width="7" stroke-linecap="round" stroke-linejoin="round" stroke-miterlimit="10" d="
		M288.47,259.06c-0.37,6.66-0.73,13.32-1.1,19.97"/>
	<path fill="none" stroke="#000000" stroke-width="7" stroke-linecap="round" stroke-linejoin="round" stroke-miterlimit="10" d="
		M278.89,273.38c6.34-3.17,12.69-6.34,19.03-9.52"/>
</g>
<path fill="none" stroke="#000000" stroke-width="7" stroke-linecap="round" stroke-linejoin="round" stroke-miterlimit="10" d="
	M297.45,251.6c6.97-3.37,10.96-11.97,9.02-19.47c-1.75-6.77-7.44-11.76-13.3-15.58c-5.86-3.82-12.28-7.01-16.99-12.18
	c-6.92-7.61-9.09-19.21-5.38-28.8"/>
<text transform="matrix(1 0 0 1 200.1034 162.9522)" font-family="'PermanentMarker'" font-size="30.74px">communities</text>
</svg>
