<?xml version="1.0" encoding="utf-8"?>
<!-- Generator: Adobe Illustrator 18.0.0, SVG Export Plug-In . SVG Version: 6.00 Build 0)  -->
<!DOCTYPE svg PUBLIC "-//W3C//DTD SVG 1.1//EN" "http://www.w3.org/Graphics/SVG/1.1/DTD/svg11.dtd">
<svg version="1.1" id="Layer_1" xmlns="http://www.w3.org/2000/svg" xmlns:xlink="http://www.w3.org/1999/xlink" x="0px" y="0px"
	 viewBox="0 0 454.7 324" enable-background="new 0 0 454.7 324" xml:space="preserve">
<path fill="none" stroke="#FFFFFF" stroke-width="120" stroke-linejoin="bevel" stroke-miterlimit="10" d="M26.9-0.6
	C17.9,27,9,54.5,0,82c33.2-7.1,60.3-30,86.8-51.1s56.1-42,90-43.6C137.8,68.5,53.1,121.9,19.4,205.5c27-3.6,48.1-24.2,67.1-43.6
	c34-34.6,67.9-69.3,101.9-103.9c31.2-31.9,66.7-65.8,111.3-68.6c-70.8,115-158.6,219.6-259.6,309.2c16.4,16.4,42.3,20.8,64.8,15.1
	c22.5-5.7,41.9-20.1,58.1-36.7c6.6-6.8,12.9-14.1,21.2-18.6c8.3-4.5,19.3-5.6,26.8,0.2c9.6,7.4,9.3,21.7,7.8,33.7
	c-1.5,12-2.8,25.9,5.8,34.4c11.1,10.9,30.9,4.1,40.8-8c9.9-12.1,14.2-27.8,23.3-40.5s27.1-21.9,40.2-13.3
	c12.9,8.5,12,27.8,20.3,40.8c6.7,10.4,19.2,16,31.5,17.4c12.3,1.4,24.7-0.9,36.9-3.2c7.8-1.5,15.8-3,22.4-7.4
	c6.6-4.4,11.5-12.4,9.7-20.2c-1.7-7.7-9.1-12.6-15.5-17.3c-35.9-26.1-57.4-66.9-80.1-105S304.1,93,263,76.3"/>
<g>
	
		<line fill="none" stroke="#010101" stroke-width="7" stroke-linecap="round" stroke-linejoin="round" stroke-miterlimit="10" x1="34.6" y1="34.8" x2="34.6" y2="287.4"/>
	
		<line fill="none" stroke="#010101" stroke-width="7" stroke-linecap="round" stroke-linejoin="round" stroke-miterlimit="10" x1="445" y1="264.9" x2="12.1" y2="264.9"/>
	
		<polyline fill="none" stroke="#010101" stroke-width="7" stroke-linecap="round" stroke-linejoin="round" stroke-miterlimit="10" points="
		12.1,56.8 34.6,34.8 57.1,56.8 	"/>
	
		<polyline fill="none" stroke="#010101" stroke-width="7" stroke-linecap="round" stroke-linejoin="round" stroke-miterlimit="10" points="
		423,242.4 445,264.9 423,287.4 	"/>
</g>
<text transform="matrix(1 0 0 1 72.8243 318.7657)" fill="#010101" font-family="'PermanentMarker'" font-size="31">how far i am from home</text>
<text transform="matrix(1 0 0 1 6.1046 23.1001)" fill="#231F20" font-family="'PermanentMarker'" font-size="31">how far i want to be</text>
<path fill="none" stroke="#A73D37" stroke-width="7" stroke-linecap="round" stroke-linejoin="round" stroke-miterlimit="10" d="
	M44,75.1c49.8-4.5,100-9,149.7-3.9c49.7,5.1,99.6,20.4,138.6,51.7s65.7,80.1,62.6,130"/>
</svg>
