<?xml version="1.0" encoding="utf-8"?>
<!-- Generator: Adobe Illustrator 19.2.0, SVG Export Plug-In . SVG Version: 6.00 Build 0)  -->
<svg version="1.1" id="Layer_1" xmlns="http://www.w3.org/2000/svg" xmlns:xlink="http://www.w3.org/1999/xlink" x="0px" y="0px"
	 width="613.4px" height="321.3px" viewBox="0 0 613.4 321.3" enable-background="new 0 0 613.4 321.3" xml:space="preserve">
<symbol  id="Arrow_right_1_" viewBox="-25.5 -26 29 52">
	
		<polyline fill="none" stroke="#231F20" stroke-width="7" stroke-linecap="round" stroke-linejoin="round" stroke-miterlimit="10" points="
		-22,22.5 0,0 -22,-22.5 	"/>
</symbol>
<symbol  id="Arrow_up" viewBox="-26 -25.5 52 29">
	
		<polyline fill="none" stroke="#231F20" stroke-width="7" stroke-linecap="round" stroke-linejoin="round" stroke-miterlimit="10" points="
		-22.5,-22 0,0 22.5,-22 	"/>
</symbol>
<path fill="none" stroke="#FFFFFF" stroke-width="120" stroke-linejoin="bevel" stroke-miterlimit="10" d="M7.7,63.8
	C34.6,45.7,61.4,27.6,88.3,9.5C82,27.8,75.8,46.2,69.5,64.5c24-28.7,48-57.3,72-86c-9.6,25.6-19.3,51.1-28.9,76.7
	c19.2-12.7,38.4-25.3,57.5-38c-4,20.5-8,41-12.1,61.5C173.7,64,189.4,49.1,205,34.3c3.8-3.6,7.8-7.3,12.8-9s11.3-0.6,14.1,3.8
	c6.9,10.6-11,27.2-1.7,35.7c11.4,10.4,29.7-20.1,41-9.6c4.1,3.8,2.9,11-1,14.9s-9.7,5.4-15.1,6.4c-66.2,11.8-135.4-24.3-200.4-6.7
	c-10.8,2.9-23.1,10-22.7,21.2c0.3,8.3,8.1,14.8,16.2,16.5c8.2,1.6,16.5-0.4,24.6-2.4c-12,21.7-24,43.5-36,65.2
	c11.1,2,22.2,3.9,33.2,5.9c-10.9,17.7-21.8,35.5-32.6,53.2c8.8,0.6,17.5,1.3,26.3,1.9c-12.6,18.4-25.3,36.7-37.9,55.1
	c4.7,10.7,20.1,12.9,30.5,7.5s17-16,23-26.1c1,17.5,19.5,31.8,36.7,28.4c10.2-2,18.9-9,29-11.5c17.3-4.3,34.6,5.2,51.7,10.2
	c17.1,5.1,40.4,2.7,46.1-14.2c5.3-15.6-9.9-31.8-26.1-35c-16.2-3.2-32.6,2.2-48.8,5.3c-21.2,4-43.1,4-64.2,0.1
	c-8.4-1.6-17.4-4.2-22.3-11.1c-7.2-10-2.3-25,7.3-32.8c9.5-7.8,22.2-10.4,34.4-12.7c-3.2,15.6,3.6,32.9,16.6,42.1
	c1.9-26.3,3.9-52.6,5.8-79c14.1,26.4,28.1,52.9,42.2,79.3c-4.4-41.8-8.9-83.7-13.3-125.5c7.3,31.5,14.7,62.9,22,94.4
	c1.7,7.3,6.3,16.6,13.6,15c7-1.6,7.6-11.2,6.7-18.3c-3.9-28.6-7.8-57.3-11.7-85.9c28.2-12.4,61.1-4.5,89.8,6.8s57,26.1,87.8,27.3
	c17.1,0.7,37.9-6.2,41-23.1c2.8-14.7-10.5-28.5-25.1-31.8s-29.7,0.9-44,5.2c19.3-29.6,55.7-47,90.8-43.4c-2-12.3-4.1-25-11.1-35.2
	S413.6,5,402,9.4c-9.1,3.4-14.8,12.8-16.3,22.4c-1.5,10.2,1.5,21.2,9,28.2s19.7,9,28.4,3.5c15.1-9.4,14.9-35.1,31.4-41.6
	c11.4-4.4,24.5,4,29.6,15.1c5.1,11.1,4.3,23.9,3.4,36c13-25.5,26-51,39-76.6c13.4,12,10.2,35.3-2.3,48.3c-12.5,13-30.9,18-48.6,21.4
	c-17.7,3.3-36.1,5.8-51.5,15.2c-24.7,15.2-36,48.9-25.6,76c7.7-5.8,15.5-11.6,23.2-17.4c-25.8,5.9-49,22.8-62.4,45.6
	c28.7-13.6,57.3-27.1,86-40.7c-5.4,10.8-10.7,21.6-16.1,32.4c20-12.8,40-25.5,60-38.3c-11.8,25.3-23.7,50.6-35.5,75.9
	c5.1-7.7,10.6-15.7,18.9-19.7s20.3-1.8,23.7,6.7c2.6,6.4-0.3,13.7-3.2,20c-8.1,17.7-16.3,35.3-24.4,53c32.7-13,62.8-32.7,87.7-57.6
	c1,14.4,1.9,28.8,2.9,43.2c6.1-12.4,23.9-17.2,35.4-9.5c11.5,7.7,14,25.9,4.9,36.4c-9.6,11-26.3,11.3-40.9,10.6
	c-65.3-2.8-130.6-5.6-195.9-8.3c-10.9-0.5-22.4-1.1-31.7-6.8c-9.3-5.8-15.3-18.5-9.9-28c5.4-9.5,19.3-11,29.1-6.2
	c9.8,4.8,16.6,14,23.4,22.6s14.4,17.4,24.8,20.6c-0.8-16.3-1.7-32.6-2.5-48.9c19.6,9.9,39.3,19.7,58.9,29.6
	c1.8-14.5,3.6-28.9,5.4-43.4c-13.9,21.8-46.3,29.1-68.2,15.3c-21.9-13.8-29.3-46.2-15.5-68.1c13.5,25,3.3,60-21.5,73.8
	c-12.5,7-29,8.5-40.7,0.3s-15.3-27.4-4.8-37.1c-21.1,2.7-40.6,15.9-50.9,34.5c0-9.3,0-18.8-3-27.6c-3-8.8-9.6-16.9-18.6-19.2
	c-9-2.3-18.7,1.6-25.5,7.9c-6.9,6.3-11.5,14.6-15.9,22.7"/>
<g id="Arrow_right">
</g>
<g>
	<g>
		
			<line fill="none" stroke="#231F20" stroke-width="7" stroke-linecap="round" stroke-linejoin="round" stroke-miterlimit="10" x1="54.6" y1="76.7" x2="54.6" y2="265.4"/>
		
			<line fill="none" stroke="#231F20" stroke-width="7" stroke-linecap="round" stroke-linejoin="round" stroke-miterlimit="10" x1="34.2" y1="242.9" x2="235" y2="242.9"/>
		
			<use xlink:href="#Arrow_up"  width="52" height="29" x="-26" y="-25.5" transform="matrix(1 0 0 -1 54.5982 76.6548)" overflow="visible"/>
		
			<use xlink:href="#Arrow_right_1_"  width="29" height="52" x="-25.5" y="-26" transform="matrix(1 0 0 -1 235.0354 242.9014)" overflow="visible"/>
	</g>
	<text transform="matrix(1 0 0 1 27.564 295.8537)" fill="#231F20" font-family="'PermanentMarker'" font-size="30.74px">past happiness</text>
	<text transform="matrix(1 0 0 1 71.8127 31.9547)"><tspan x="0" y="0" fill="#231F20" font-family="'PermanentMarker'" font-size="30.74px">expected</tspan><tspan x="-61.4" y="30" fill="#231F20" font-family="'PermanentMarker'" font-size="30.74px">future happiness</tspan></text>
	<path fill="none" stroke="#009444" stroke-width="7" stroke-linecap="round" stroke-linejoin="round" stroke-miterlimit="10" d="
		M80.8,222.2c25.4-2.8,49.7-15.3,66.6-34.5s26.4-44.8,26-70.4"/>
</g>
<g>
	<g>
		
			<line fill="none" stroke="#231F20" stroke-width="7" stroke-linecap="round" stroke-linejoin="round" stroke-miterlimit="10" x1="384.2" y1="76.7" x2="384.2" y2="265.4"/>
		
			<line fill="none" stroke="#231F20" stroke-width="7" stroke-linecap="round" stroke-linejoin="round" stroke-miterlimit="10" x1="363.8" y1="242.9" x2="564.6" y2="242.9"/>
		
			<use xlink:href="#Arrow_up"  width="52" height="29" x="-26" y="-25.5" transform="matrix(1 0 0 -1 384.1687 76.6548)" overflow="visible"/>
		
			<use xlink:href="#Arrow_right_1_"  width="29" height="52" x="-25.5" y="-26" transform="matrix(1 0 0 -1 564.6058 242.9014)" overflow="visible"/>
	</g>
	<text transform="matrix(1 0 0 1 325.8239 295.8537)" fill="#231F20" font-family="'PermanentMarker'" font-size="30.74px">expected happiness</text>
	<text transform="matrix(1 0 0 1 395.8446 31.9547)"><tspan x="0" y="0" fill="#231F20" font-family="'PermanentMarker'" font-size="30.74px">perceived</tspan><tspan x="-1.5" y="30" fill="#231F20" font-family="'PermanentMarker'" font-size="30.74px">happiness</tspan></text>
	<path fill="none" stroke="#009444" stroke-width="7" stroke-linecap="round" stroke-linejoin="round" stroke-miterlimit="10" d="
		M411.7,116.8c0,26.9,10.7,53.6,29.1,73.1s44.5,31.7,71.3,33.4"/>
</g>
<g>
	<path fill="none" stroke="#BE1E2D" stroke-width="7" stroke-linecap="round" stroke-linejoin="round" stroke-miterlimit="10" d="
		M166.7,122.7c4.1,2.4,8.2,4.9,12.3,7.3"/>
	<path fill="none" stroke="#BE1E2D" stroke-width="7" stroke-linecap="round" stroke-linejoin="round" stroke-miterlimit="10" d="
		M166.4,131.7c3.7-3.5,7.4-6.9,11-10.4"/>
</g>
<g>
	<path fill="none" stroke="#BE1E2D" stroke-width="7" stroke-linecap="round" stroke-linejoin="round" stroke-miterlimit="10" d="
		M494.7,186.2c0.5,2.9,1,5.7,1.3,8.6"/>
	<path fill="none" stroke="#BE1E2D" stroke-width="7" stroke-linecap="round" stroke-linejoin="round" stroke-miterlimit="10" d="
		M490.1,172.6c0.9,1.6,1.8,3.2,2.4,4.9"/>
	<path fill="none" stroke="#BE1E2D" stroke-width="7" stroke-linecap="round" stroke-linejoin="round" stroke-miterlimit="10" d="
		M480.3,163c1.3,0.9,2.5,2,3.7,3"/>
	<path fill="none" stroke="#BE1E2D" stroke-width="7" stroke-linecap="round" stroke-linejoin="round" stroke-miterlimit="10" d="
		M462.9,154.6c1.4,0.4,2.8,0.8,4.2,1.3"/>
	<path fill="none" stroke="#BE1E2D" stroke-width="7" stroke-linecap="round" stroke-linejoin="round" stroke-miterlimit="10" d="
		M444.8,152.5c1.2,0,2.4-0.1,3.6,0"/>
	<path fill="none" stroke="#BE1E2D" stroke-width="7" stroke-linecap="round" stroke-linejoin="round" stroke-miterlimit="10" d="
		M425.8,153.7c1.5-0.2,3.1-0.3,4.6-0.4"/>
	<path fill="none" stroke="#BE1E2D" stroke-width="7" stroke-linecap="round" stroke-linejoin="round" stroke-miterlimit="10" d="
		M402.8,155.9c2.9-0.2,5.8-0.4,8.7-0.7"/>
	<path fill="none" stroke="#BE1E2D" stroke-width="7" stroke-linecap="round" stroke-linejoin="round" stroke-miterlimit="10" d="
		M384.3,156.2c1.4,0.1,2.7,0.1,4.1,0.1"/>
	<path fill="none" stroke="#BE1E2D" stroke-width="7" stroke-linecap="round" stroke-linejoin="round" stroke-miterlimit="10" d="
		M363.3,153.8c2.2,0.4,4.5,0.8,6.7,1.1"/>
	<path fill="none" stroke="#BE1E2D" stroke-width="7" stroke-linecap="round" stroke-linejoin="round" stroke-miterlimit="10" d="
		M344,148.2c1.8,0.7,3.7,1.4,5.6,2"/>
	<path fill="none" stroke="#BE1E2D" stroke-width="7" stroke-linecap="round" stroke-linejoin="round" stroke-miterlimit="10" d="
		M326.7,140.1c1.1,0.6,2.3,1.2,3.4,1.8"/>
	<path fill="none" stroke="#BE1E2D" stroke-width="7" stroke-linecap="round" stroke-linejoin="round" stroke-miterlimit="10" d="
		M310.4,131.1c0.9,0.5,1.9,1,2.8,1.6"/>
	<path fill="none" stroke="#BE1E2D" stroke-width="7" stroke-linecap="round" stroke-linejoin="round" stroke-miterlimit="10" d="
		M293.2,122.3c1.2,0.5,2.4,1.1,3.5,1.6"/>
	<path fill="none" stroke="#BE1E2D" stroke-width="7" stroke-linecap="round" stroke-linejoin="round" stroke-miterlimit="10" d="
		M275.7,116c1,0.3,2.1,0.6,3.1,0.9"/>
	<path fill="none" stroke="#BE1E2D" stroke-width="7" stroke-linecap="round" stroke-linejoin="round" stroke-miterlimit="10" d="
		M256.4,113.4c1.7,0,3.4,0.1,5.1,0.2"/>
	<path fill="none" stroke="#BE1E2D" stroke-width="7" stroke-linecap="round" stroke-linejoin="round" stroke-miterlimit="10" d="
		M237,113.9c1.7-0.2,3.3-0.3,5-0.4"/>
	<path fill="none" stroke="#BE1E2D" stroke-width="7" stroke-linecap="round" stroke-linejoin="round" stroke-miterlimit="10" d="
		M216.8,117.7c2-0.5,4-1,6.1-1.5"/>
	<path fill="none" stroke="#BE1E2D" stroke-width="7" stroke-linecap="round" stroke-linejoin="round" stroke-miterlimit="10" d="
		M196.5,125.5c1.9-1,3.9-1.9,5.9-2.7"/>
	<path fill="none" stroke="#BE1E2D" stroke-width="7" stroke-linecap="round" stroke-linejoin="round" stroke-miterlimit="10" d="
		M489.9,193.6c2,2.6,4,5.2,6,7.9c1.9-3,3.8-5.9,5.7-8.9"/>
</g>
<g>
	<path fill="none" stroke="#BE1E2D" stroke-width="7" stroke-linecap="round" stroke-linejoin="round" stroke-miterlimit="10" d="
		M504.1,216.6c-3.1,3.7-6.3,7.4-9.4,11.1"/>
	<path fill="none" stroke="#BE1E2D" stroke-width="7" stroke-linecap="round" stroke-linejoin="round" stroke-miterlimit="10" d="
		M495.7,215.6c2.3,3.9,4.7,7.8,7,11.7"/>
</g>
<g>
	<path fill="none" stroke="#BE1E2D" stroke-width="7" stroke-linecap="round" stroke-linejoin="round" stroke-miterlimit="10" d="
		M159,211.8c-2.1,0.8-4.3,1.6-6.4,2.4"/>
	<path fill="none" stroke="#BE1E2D" stroke-width="7" stroke-linecap="round" stroke-linejoin="round" stroke-miterlimit="10" d="
		M177.5,206.4c-2,0.5-4.1,1-6.1,1.7"/>
	<path fill="none" stroke="#BE1E2D" stroke-width="7" stroke-linecap="round" stroke-linejoin="round" stroke-miterlimit="10" d="
		M199.1,203.3c-3,0.1-5.9,0.3-8.8,0.8"/>
	<path fill="none" stroke="#BE1E2D" stroke-width="7" stroke-linecap="round" stroke-linejoin="round" stroke-miterlimit="10" d="
		M218.8,203.8c-2.2-0.2-4.5-0.3-6.7-0.4"/>
	<path fill="none" stroke="#BE1E2D" stroke-width="7" stroke-linecap="round" stroke-linejoin="round" stroke-miterlimit="10" d="
		M235.4,206.5c-1.4-0.3-2.7-0.6-4.1-0.9"/>
	<path fill="none" stroke="#BE1E2D" stroke-width="7" stroke-linecap="round" stroke-linejoin="round" stroke-miterlimit="10" d="
		M251.4,211.3c-1.2-0.4-2.4-0.8-3.6-1.2"/>
	<path fill="none" stroke="#BE1E2D" stroke-width="7" stroke-linecap="round" stroke-linejoin="round" stroke-miterlimit="10" d="
		M268.8,218.9c-1.5-0.8-3-1.6-4.6-2.4"/>
	<path fill="none" stroke="#BE1E2D" stroke-width="7" stroke-linecap="round" stroke-linejoin="round" stroke-miterlimit="10" d="
		M284.1,227.2c-1.3-0.7-2.7-1.4-4.1-2"/>
	<path fill="none" stroke="#BE1E2D" stroke-width="7" stroke-linecap="round" stroke-linejoin="round" stroke-miterlimit="10" d="
		M299.5,236.2c-1.1-0.7-2.2-1.3-3.3-2"/>
	<path fill="none" stroke="#BE1E2D" stroke-width="7" stroke-linecap="round" stroke-linejoin="round" stroke-miterlimit="10" d="
		M315.5,245.8c-1.3-0.7-2.6-1.5-3.9-2.3"/>
	<path fill="none" stroke="#BE1E2D" stroke-width="7" stroke-linecap="round" stroke-linejoin="round" stroke-miterlimit="10" d="
		M333.7,255.3c-2-0.9-3.9-1.8-5.9-2.8"/>
	<path fill="none" stroke="#BE1E2D" stroke-width="7" stroke-linecap="round" stroke-linejoin="round" stroke-miterlimit="10" d="
		M350.2,261.6c-1.5-0.5-2.9-1-4.4-1.5"/>
	<path fill="none" stroke="#BE1E2D" stroke-width="7" stroke-linecap="round" stroke-linejoin="round" stroke-miterlimit="10" d="
		M369.5,266.6c-2.2-0.4-4.4-0.9-6.6-1.4"/>
	<path fill="none" stroke="#BE1E2D" stroke-width="7" stroke-linecap="round" stroke-linejoin="round" stroke-miterlimit="10" d="
		M387.5,268.8c-1.8-0.1-3.6-0.2-5.4-0.3"/>
	<path fill="none" stroke="#BE1E2D" stroke-width="7" stroke-linecap="round" stroke-linejoin="round" stroke-miterlimit="10" d="
		M405.4,268.3c-1.6,0.1-3.2,0.3-4.8,0.4"/>
	<path fill="none" stroke="#BE1E2D" stroke-width="7" stroke-linecap="round" stroke-linejoin="round" stroke-miterlimit="10" d="
		M423.6,265.3c-1.8,0.4-3.6,0.8-5.4,1.1"/>
	<path fill="none" stroke="#BE1E2D" stroke-width="7" stroke-linecap="round" stroke-linejoin="round" stroke-miterlimit="10" d="
		M440,260.4c-1.2,0.4-2.3,0.8-3.5,1.2"/>
	<path fill="none" stroke="#BE1E2D" stroke-width="7" stroke-linecap="round" stroke-linejoin="round" stroke-miterlimit="10" d="
		M456,253.6c-1.3,0.7-2.7,1.3-4,1.9"/>
	<path fill="none" stroke="#BE1E2D" stroke-width="7" stroke-linecap="round" stroke-linejoin="round" stroke-miterlimit="10" d="
		M471.6,244.7c-1.3,0.8-2.6,1.7-3.9,2.5"/>
	<path fill="none" stroke="#BE1E2D" stroke-width="7" stroke-linecap="round" stroke-linejoin="round" stroke-miterlimit="10" d="
		M486.6,234.1c-1.6,1.2-3.1,2.4-4.7,3.6"/>
	<path fill="none" stroke="#BE1E2D" stroke-width="7" stroke-linecap="round" stroke-linejoin="round" stroke-miterlimit="10" d="
		M152.3,207.3c-2.9,2.2-5.8,4.4-8.7,6.5c3.4,1.8,6.8,3.5,10.2,5.3"/>
</g>
<g>
	<path fill="none" stroke="#BE1E2D" stroke-width="7" stroke-linecap="round" stroke-linejoin="round" stroke-miterlimit="10" d="
		M88.5,215.4c3.6,2.6,7.1,5.2,10.7,7.9"/>
	<path fill="none" stroke="#BE1E2D" stroke-width="7" stroke-linecap="round" stroke-linejoin="round" stroke-miterlimit="10" d="
		M97.3,213.6c-1.9,4.1-3.7,8.3-5.6,12.4"/>
</g>
</svg>
