<?xml version="1.0" encoding="utf-8"?>
<!-- Generator: Adobe Illustrator 19.2.0, SVG Export Plug-In . SVG Version: 6.00 Build 0)  -->
<svg version="1.1" id="Layer_1" xmlns="http://www.w3.org/2000/svg" xmlns:xlink="http://www.w3.org/1999/xlink" x="0px" y="0px"
	 width="816.4px" height="385.6px" viewBox="0 0 816.4 385.6" enable-background="new 0 0 816.4 385.6" xml:space="preserve">
<symbol  id="Arrow_right_1_" viewBox="-25.5 -26 29 52">
	
		<polyline fill="none" stroke="#231F20" stroke-width="7" stroke-linecap="round" stroke-linejoin="round" stroke-miterlimit="10" points="
		-22,22.5 0,0 -22,-22.5 	"/>
</symbol>
<symbol  id="Arrow_up" viewBox="-26 -25.5 52 29">
	
		<polyline fill="none" stroke="#231F20" stroke-width="7" stroke-linecap="round" stroke-linejoin="round" stroke-miterlimit="10" points="
		-22.5,-22 0,0 22.5,-22 	"/>
</symbol>
<path fill="none" stroke="#FFFFFF" stroke-width="120" stroke-linejoin="bevel" stroke-miterlimit="10" d="M578.9,32.9
	c-6.1,15.3-12.2,30.7-18.2,46c-18.3-13.5-31-34.5-34.5-57c-6.2,19.3-12.4,38.5-18.5,57.8c-15.4-20.7-30.8-41.5-46.2-62.2
	c-7.5,23.2-15,46.3-22.6,69.5c-2-14.1-7.2-28.4-17.6-38.1c-10.4-9.7-26.8-13.9-39.5-7.3c-12.7,6.6-2.4,30,6.7,40.9
	c-25.9-7.7-63.2-33.6-71.2-59.4c1,9.8,2,19.8-1,29.2c-2.9,9.4-10.8,17.9-20.6,18.5c-16.3,1-25.3-17.8-36.3-29.9
	c-10.2-11.1-27-17.7-40.8-11.4c-13.7,6.3-18.5,28.3-6,36.8c6.7,4.6,15.5,4.1,23.7,5s17.3,4.9,18.7,12.9c-10.5,9.1-21,18.3-31.5,27.4
	c17.6-1.1,35.1-2.3,52.7-3.4c-18.8,47-32.4,96.1-40.2,146.2c-0.3-14.1-0.9-29.1-9-40.6s-26.9-16.3-36.3-5.8
	c-5.4,6.2-5.9,15.1-8.5,22.9c-2.6,7.8-10.1,15.7-17.8,13c-13.9-4.8-2.2-29.1-12.1-39.9c-7.5-8.1-22.4-1.7-26.2,8.6
	c-3.8,10.4-0.2,21.8,3.3,32.3c-13.8,11.7-37,9.7-48.6-4.2c-11.6-13.9-9.4-37.1,4.5-48.6c-15,1.2-31.1,2.9-42.5,12.7
	c-11.4,9.8-13.9,31-1,38.7c6.7,4,15,3.2,22.7,2.4c39.5-4.5,79.1-8.9,118.6-13.4c16.4-1.8,32.7-3.7,49-5.8
	c34.5-4.4,68.9-9.9,103.3-15.4c-19.8,15-39.5,30-59.3,45c-2.8,2.1-5.6,4.2-8.4,6.4c-9.4,7.1-18.9,14.4-26.4,23.5
	c-19.7,23.8-23.2,57.1-22.2,88c15.5-24.7,31-49.3,46.5-74c0.9,20.2,1.8,40.3,2.7,60.5c17.4-23.4,34.7-46.7,52.1-70.1
	c2.3,20,4.5,40,6.8,60c12.7-13.8,25.4-27.7,38.1-41.5c4.6,17.3,9.1,34.6,13.7,51.9c0.3-10.2,0.7-20.9,5.6-29.9s16.1-15.4,25.6-11.5
	c12.3,4.9,13.5,21.6,12.8,34.8c6.6-20.5,13.3-41,19.9-61.5c-0.3,13.1-0.5,26.7,4.6,38.8s17.1,22.3,30.2,21.1
	c10.9-1,19.8-9.7,24.2-19.7c4.5-9.9,5.3-21.1,6.1-32c15.2,20.6,30.5,41.1,45.7,61.7c8.4-35.3-14.6-75.1-49.4-85.5
	c0.7,9.6,1.4,19.2,2.1,28.8c-80.5-16.8-164.1-18-245-3.5c10-43.2,55.2-69.2,98.6-78.4c14.9-3.2,30.1-5,45.4-5.4
	c16-0.5,32.3,0.6,47.8-3.5c15.5-4.1,30.5-14.6,34.5-30.1c1.6-6.1,1.3-12.6,3.4-18.6s7.5-11.6,13.7-10.7c7.2,1.1,10.5,10.5,8,17.4
	S504,185,498,189.3c-26.3,18.8-52.7,37.6-79,56.5c34.6,11,75.4-1.3,98.2-29.6c9.5,6.1,22.5,6.3,32.2,0.5c9.7-5.8,15.8-17.3,15-28.5
	c-1.6,20.3-3.3,40.6-4.9,60.9c10.4,2.9,17.7-10.2,19.9-20.8c2.2-10.6,6.2-24,17-24.7c8-0.5,14.4,7.7,14.9,15.8
	c0.6,8-3,15.7-6.5,22.9c13.4-18.5,26.9-37,40.3-55.5c-0.1,24.2-0.3,48.5-0.4,72.7c13.3-24.2,26.7-48.4,40-72.6
	c0.8,21.9,1.5,43.8,2.3,65.6c11.7-21.5,23.4-43,35.1-64.5c-1.9,19.7,3.9,40,15.9,55.8c3-17.9,6.1-35.8,9.1-53.7
	c0.8,32.7,38.2,58.8,69.2,48.3"/>
<g id="Arrow_right">
</g>
<g>
	
		<line fill="none" stroke="#231F20" stroke-width="7" stroke-linecap="round" stroke-linejoin="round" stroke-miterlimit="10" x1="255.2" y1="85.4" x2="255.2" y2="326.7"/>
	
		<line fill="none" stroke="#231F20" stroke-width="7" stroke-linecap="round" stroke-linejoin="round" stroke-miterlimit="10" x1="232.7" y1="304.2" x2="535.1" y2="304.2"/>
	
		<use xlink:href="#Arrow_up"  width="52" height="29" x="-26" y="-25.5" transform="matrix(1 0 0 -1 255.2291 85.3713)" overflow="visible"/>
	
		<use xlink:href="#Arrow_right_1_"  width="29" height="52" x="-25.5" y="-26" transform="matrix(1 0 0 -1 535.1443 304.204)" overflow="visible"/>
</g>
<text transform="matrix(1 0 0 1 210.574 44.9171)"><tspan x="0" y="0" fill="#231F20" font-family="'PermanentMarker'" font-size="30.74px">how much crying there</tspan><tspan x="-2" y="30" fill="#231F20" font-family="'PermanentMarker'" font-size="30.74px">is in the shrink’s office</tspan></text>
<text transform="matrix(1 0 0 1 213.3057 353.6168)" fill="#231F20" font-family="'PermanentMarker'" font-size="30.74px">how fucked up you are</text>
<path fill="none" stroke="#BE1E2D" stroke-width="7" stroke-linecap="round" stroke-linejoin="round" stroke-miterlimit="10" d="
	M271.9,287.9c11.3,2.1,22-6.2,28.4-15.8c6.3-9.5,10-20.7,17.1-29.8c10.9-14,28.6-21.3,46.1-23.9c17.5-2.7,35.4-1.4,53.1-1.7"/>
<text transform="matrix(1 0 0 1 48.3608 214.6395)"><tspan x="0" y="0" fill="#231F20" font-family="'PermanentMarker'" font-size="30.74px">snot bubbles</tspan><tspan x="-42" y="30" fill="#231F20" font-family="'PermanentMarker'" font-size="30.74px">(single serving)</tspan></text>
<g>
	<path fill="none" stroke="#231F20" stroke-width="7" stroke-linecap="round" stroke-linejoin="round" stroke-miterlimit="10" d="
		M332.3,220.5c1.6,0,3.2,0,4.9-0.1"/>
	<path fill="none" stroke="#231F20" stroke-width="7" stroke-linecap="round" stroke-linejoin="round" stroke-miterlimit="10" d="
		M312,220.6c1.8,0,3.7,0,5.5,0"/>
	<path fill="none" stroke="#231F20" stroke-width="7" stroke-linecap="round" stroke-linejoin="round" stroke-miterlimit="10" d="
		M291.4,220.6c2.3,0,4.6,0,6.9,0"/>
	<path fill="none" stroke="#231F20" stroke-width="7" stroke-linecap="round" stroke-linejoin="round" stroke-miterlimit="10" d="
		M271.6,220.4c2.2,0,4.4,0.1,6.7,0.1"/>
	<path fill="none" stroke="#231F20" stroke-width="7" stroke-linecap="round" stroke-linejoin="round" stroke-miterlimit="10" d="
		M250.6,220.4c2.4,0,6.3,0,8.7,0"/>
</g>
<path fill="none" stroke="#BE1E2D" stroke-width="7" stroke-linecap="round" stroke-linejoin="round" stroke-miterlimit="10" d="
	M363.4,218.4c17.5-2.7,35.4-1.4,53.1-1.7s36-2.3,51.6-10.8c19.5-10.7,32.9-31.6,34.4-53.8"/>
<g>
	<path fill="none" stroke="#231F20" stroke-width="7" stroke-linecap="round" stroke-linejoin="round" stroke-miterlimit="10" d="
		M430.3,211.9c1.7,2,3.3,4.1,5,6.1"/>
	<path fill="none" stroke="#231F20" stroke-width="7" stroke-linecap="round" stroke-linejoin="round" stroke-miterlimit="10" d="
		M435.9,211.3c-2,2.2-4.1,4.4-6.1,6.7"/>
	<path fill="none" stroke="#231F20" stroke-width="7" stroke-linecap="round" stroke-linejoin="round" stroke-miterlimit="10" d="
		M433.9,228.8c-1.7,6,1.1,12.6,5.8,16.6c4.7,4.1,10.9,5.9,17.1,6.4c10.9,1,22.2-1.8,31.4-7.8c7.6-4.9,13.7-11.9,21.2-17.1
		c7.4-5.2,17.2-8.6,25.6-5.1"/>
	<text transform="matrix(1 0 0 1 545.706 214.9508)"><tspan x="0" y="0" fill="#231F20" font-family="'PermanentMarker'" font-size="30.74px">the therapist</tspan><tspan x="0" y="30" fill="#231F20" font-family="'PermanentMarker'" font-size="30.74px">starts crying too</tspan></text>
</g>
</svg>
