<?xml version="1.0" encoding="utf-8"?>
<!-- Generator: Adobe Illustrator 18.0.0, SVG Export Plug-In . SVG Version: 6.00 Build 0)  -->
<!DOCTYPE svg PUBLIC "-//W3C//DTD SVG 1.1//EN" "http://www.w3.org/Graphics/SVG/1.1/DTD/svg11.dtd">
<svg version="1.1" id="Layer_1" xmlns="http://www.w3.org/2000/svg" xmlns:xlink="http://www.w3.org/1999/xlink" x="0px" y="0px"
	 viewBox="0 0 396.9 234" enable-background="new 0 0 396.9 234" xml:space="preserve">
<path fill="none" stroke="#FFFFFF" stroke-width="120" stroke-linejoin="bevel" stroke-miterlimit="10" d="M48.2,1
	c-3.9,4.6-0.9,12.2,4.3,15.2S64,19,70,18.7C139,15,207.9,11.3,276.8,7.6c17.4-0.9,36.4-1.4,50.4,8.9c10.8,8,16.6,21,21.8,33.4
	c12.2,28.8,24.5,57.5,36.7,86.3c2,4.7,4.1,9.7,3.5,14.8c-0.5,5.1-4.5,10.2-9.7,10.1c-4.7-0.2-8.1-4.3-10.7-8.1
	c-10-14.2-19.3-28.9-27.9-44c-4.7-8.3-12.5-18.1-21.6-15.1c-7.1,2.3-9.3,11-11.3,18.2c-5.3,19.4-16.1,37.3-30.9,51
	c-16.1-21.6-32.1-43.3-48.2-64.9C219.9,85.6,209,72.1,193.6,70c-8.6,49.2-8.2,100.2,2.7,149c-51.1-52.2-96.5-110-135.2-172
	C51.8,83,36.9,117.7,17,149.2c46.2-10,92.4-20.1,138.5-30.1"/>
<text transform="matrix(1 0 0 1 38.3396 24.049)" font-family="'PermanentMarker'" font-size="30.74">the fine line between</text>
<text transform="matrix(1 0 0 1 31.1145 120.0495)"><tspan x="0" y="0" font-family="'PermanentMarker'" font-size="30.74">under-</tspan><tspan x="-27.4" y="30" font-family="'PermanentMarker'" font-size="30.74">confidence</tspan></text>
<path fill="none" stroke="#BE1E2D" stroke-width="7" stroke-linecap="round" stroke-linejoin="round" stroke-miterlimit="10" d="
	M194,55.4c-0.4,56.3,3.5,112.7,11.6,168.4"/>
<text transform="matrix(1 0 0 1 273.7942 120.0495)"><tspan x="0" y="0" font-family="'PermanentMarker'" font-size="30.74">over-</tspan><tspan x="-35.6" y="30" font-family="'PermanentMarker'" font-size="30.74">confidence</tspan></text>
</svg>
