<?xml version="1.0" encoding="utf-8"?>
<!-- Generator: Adobe Illustrator 18.0.0, SVG Export Plug-In . SVG Version: 6.00 Build 0)  -->
<!DOCTYPE svg PUBLIC "-//W3C//DTD SVG 1.1//EN" "http://www.w3.org/Graphics/SVG/1.1/DTD/svg11.dtd">
<svg version="1.1" id="Layer_1" xmlns="http://www.w3.org/2000/svg" xmlns:xlink="http://www.w3.org/1999/xlink" x="0px" y="0px"
	 viewBox="0 0 764 412" enable-background="new 0 0 764 412" xml:space="preserve">
<path fill="none" stroke="#FFFFFF" stroke-width="120" stroke-linejoin="bevel" stroke-miterlimit="10" d="M86.8-0.7
	C61,40.9,38.4,84.5,19.5,129.6C13,145-7.5,187.2,0,202.1c9.1,18.1,33.4,18.7,52,10.8c18.6-7.9,47.7-45.2,60.7-60.6
	c38.6-45.6,80.7-88.3,125.9-127.4c13.7-11.9,33-23.9,48.5-14.5c15.3,9.3,13.7,32,7.8,48.9c-21.5,62.1-71.5,109.2-119,154.5
	S56.1,304,38.6,367.3c16.7,4.7,58.7,4.2,73.4-5s62.9,3,73.7-10.6c44.4-56.2,41.3-145.9,83.1-204.1S363.6,35.5,431.4,12.7
	C377.5,104.1,327.1,197.6,280.6,293c-8.4,17.1-16.8,35.5-14.7,54.5s19.7,37.4,38.3,33.3c14.6-3.3,23.3-18,29.6-31.5
	c30.1-64.5,47.4-134.6,78.9-198.4S513.1,24.4,581.9,5.9c-26.8,63-72.3,128.5-99.1,191.5c-22.3,52.2-44.8,105.4-50.4,161.9
	c45.8-28.6,71-80.6,90.7-130.9c19.8-50.3,37.7-103.5,75.8-141.9c12.2-12.3,33.1-22.7,45.6-10.6c6.9,6.7,7.6,17.3,10,26.5
	c8.4,32.1,68.8,47.8,100.5,38.1"/>
<g>
	<g>
		<text transform="matrix(1 0 0 1 185.6508 28.6133)" fill="#8CC63F" font-family="'PermanentMarker'" font-size="31">clothes cycle during</text>
	</g>
	<text transform="matrix(1 0 0 1 508.0513 28.6133)" fill="#8CC63F" font-family="'PermanentMarker'" font-size="31">week 1</text>
</g>
<text transform="matrix(1 0 0 1 326.625 116.5635)" font-family="'PermanentMarker'" font-size="31">on body</text>
<g>
	<path fill="none" stroke="#8CC63F" stroke-width="6" stroke-linecap="round" stroke-linejoin="round" stroke-miterlimit="10" d="
		M414.8,130.7c4.5,2.2,7.2,6.9,9.5,11.3c23.4,43.5,42.3,93.2,32.2,141.6"/>
	<path fill="none" stroke="#8CC63F" stroke-width="6" stroke-linecap="round" stroke-linejoin="round" stroke-miterlimit="10" d="
		M450.5,279.2c2,0.3,2.3,3,2.2,5.1s0.9,4.8,2.9,4.3c0,1,0,2-0.1,3c2.2-3.8,4.4-7.5,6.5-11.3"/>
</g>
<text transform="matrix(1 0 0 1 348.2417 324.5635)"><tspan x="0" y="0" font-family="'PermanentMarker'" font-size="31">laundry</tspan><tspan x="6.8" y="24" font-family="'PermanentMarker'" font-size="31">basket</tspan></text>
<g>
	<path fill="none" stroke="#8CC63F" stroke-width="6" stroke-linecap="round" stroke-linejoin="round" stroke-miterlimit="10" d="
		M336.9,351.6c-50,19.5-103.5,30.1-157.2,31.2c-15.6,0.3-32.2-0.5-45.1-9.1"/>
	<path fill="none" stroke="#8CC63F" stroke-width="6" stroke-linecap="round" stroke-linejoin="round" stroke-miterlimit="10" d="
		M135.5,390.6c0.8-6.5-0.5-13.3-3.8-19c6.6,0,13.3,0,19.9,0"/>
</g>
<text transform="matrix(1 0 0 1 20.1479 331.5635)"><tspan x="0" y="0" font-family="'PermanentMarker'" font-size="31">washer</tspan><tspan x="-15.5" y="24" font-family="'PermanentMarker'" font-size="31">and dryer</tspan></text>
<g>
	<path fill="none" stroke="#8CC63F" stroke-width="6" stroke-linecap="round" stroke-linejoin="round" stroke-miterlimit="10" d="
		M52,298.6c-16-23.5-25.4-51.4-26.7-79.8c-1.1-24.8,4.1-50.5,18.5-70.8"/>
	<path fill="none" stroke="#8CC63F" stroke-width="6" stroke-linecap="round" stroke-linejoin="round" stroke-miterlimit="10" d="
		M29.7,151.4c4.7,0.8,9.7-0.6,13.2-3.7c3.6,6,6.5,12.3,8.7,18.9"/>
</g>
<text transform="matrix(1 0 0 1 14.731 123.9336)" font-family="'PermanentMarker'" font-size="31">closet</text>
<path fill="none" stroke="#8CC63F" stroke-width="6" stroke-linecap="round" stroke-linejoin="round" stroke-miterlimit="10" d="
	M129.7,98.3c11.1-3.8,21.5-9.5,32.2-14.2c48.4-20.9,106-19.5,153.3,3.9"/>
<path fill="none" stroke="#8CC63F" stroke-width="6" stroke-linecap="round" stroke-linejoin="round" stroke-miterlimit="10" d="
	M313.5,77.6c0,4.6,1.5,9.2,4.2,13c-6.3,0-12.7,0-19,0"/>
<text transform="matrix(1 0 0 1 508.0513 59.6133)" fill="#39B54A" font-family="'PermanentMarker'" font-size="31">week 2</text>
<g>
	<path fill="none" stroke="#39B54A" stroke-width="6" stroke-linecap="round" stroke-linejoin="round" stroke-miterlimit="10" d="
		M373.3,137.5c9.7,24,19.4,48.1,24.2,73.5s4.6,52.4-5.2,76.2"/>
	<path fill="none" stroke="#39B54A" stroke-width="6" stroke-linecap="round" stroke-linejoin="round" stroke-miterlimit="10" d="
		M381.4,276.7c1.8,5.1,3.6,10.1,5.4,15.2c0.4,1,0.8,2.1,1.8,2.6c2.2,1.1,4-1.9,5-4.2c1.7-4.1,4.5-7.8,8-10.5"/>
	<path fill="none" stroke="#39B54A" stroke-width="6" stroke-linecap="round" stroke-linejoin="round" stroke-miterlimit="10" d="
		M335.4,320.9c-53.8,21.7-113.4,28.8-170.9,20.5"/>
	<path fill="none" stroke="#39B54A" stroke-width="6" stroke-linecap="round" stroke-linejoin="round" stroke-miterlimit="10" d="
		M163.5,356.6c-3.3-6.6-6.9-12.9-10.9-19.1c7.1,0.4,14.3-0.5,21.1-2.6"/>
	<path fill="none" stroke="#39B54A" stroke-width="6" stroke-linecap="round" stroke-linejoin="round" stroke-miterlimit="10" d="
		M94.9,299.2c-10.8-27.5-15.5-57.4-13.6-86.9c0.9-14.4,5.1-31,18.4-36.6c3.1-1.3,6.5-1.9,9.8-2.8c15.6-4.7,26.5-18.2,38.5-29.3
		c37.5-34.6,93.9-47.4,142.6-32.3"/>
	<path fill="none" stroke="#39B54A" stroke-width="6" stroke-linecap="round" stroke-linejoin="round" stroke-miterlimit="10" d="
		M283.8,97.8c2.4-1.2,4.9,1.2,6.4,3.4c2.9,4.1,5.8,8.2,8.6,12.4c-6.9,0.6-13.7,2.6-19.7,6.1"/>
</g>
<text transform="matrix(1 0 0 1 508.0513 94.6133)" fill="#009245" font-family="'PermanentMarker'" font-size="31">week 3</text>
<g>
	<path fill="none" stroke="#009245" stroke-width="6" stroke-linecap="round" stroke-linejoin="round" stroke-miterlimit="10" d="
		M344.8,139.9c4.6,10.6,9.1,21.4,13.3,32.2c4.3,11,8.4,22.2,10.9,33.7c5.6,25.6,3.2,52.9-6.7,77.1"/>
	<path fill="none" stroke="#009245" stroke-width="6" stroke-linecap="round" stroke-linejoin="round" stroke-miterlimit="10" d="
		M354.5,278.9c0.1,4.6,2.3,8.8,4.4,12.8c3.2-2,6-4.6,8.3-7.6"/>
	<path fill="none" stroke="#009245" stroke-width="6" stroke-linecap="round" stroke-linejoin="round" stroke-miterlimit="10" d="
		M331.9,305c-12.7-1.8-25.2,2.9-37.5,6.7c-39.3,12.1-81.5,14.7-122.1,7.6c-5.7-1-12.9-3.9-12.6-9.8c0.1-2.1,1.3-4,1.9-6
		c1.5-5-0.5-10.5-4.2-14.2s-8.7-5.6-13.8-6.6c-3.2-0.6-6.7-1-9.2-3.2c-1.7-1.6-2.6-3.9-3.4-6.1c-3.9-10.9-7.2-22-9.9-33.2
		c-1.3-5.6-2.5-11.4-1.6-17.1c0.8-5.1,3.1-9.9,5.9-14.3c11.7-18.1,31.1-29.7,50.3-39.4c7.6-3.9,15.4-7.6,23.5-10.2
		c5.6-1.8,11.4-3.1,17.1-4.4c23.7-5.3,47.3-10.7,71-16"/>
	<path fill="none" stroke="#009245" stroke-width="6" stroke-linecap="round" stroke-linejoin="round" stroke-miterlimit="10" d="
		M277.3,132.3c5.4-0.7,10.9,0,15.9,2.1c-1.5,5.8-4.9,11-9.6,14.6"/>
</g>
<text transform="matrix(1 0 0 1 508.0513 126.5137)" fill="#006837" font-family="'PermanentMarker'" font-size="31">week 4</text>
<g>
	<path fill="none" stroke="#006837" stroke-width="6" stroke-linecap="round" stroke-linejoin="round" stroke-miterlimit="10" d="
		M329.7,151.1c-1,9.7,4.3,18.8,8.1,27.7c5.4,12.7,7.9,26.5,9.4,40.2c0.9,8.5,1.5,17,1.7,25.5c0.1,4.9-0.2,10.4-3.8,13.7
		c-3.7,3.3-9.5,3-13.7,5.7c-5.3,3.2-6.9,10-10.2,15.2c-3.9,6.2-10.4,10.5-17.3,13c-6.9,2.6-14.2,3.6-21.5,4.6
		c-4.5,0.6-9,1.3-13.5,1.1c-16.8-0.7-31.2-12.4-41.4-25.7"/>
	<path fill="none" stroke="#006837" stroke-width="6" stroke-linecap="round" stroke-linejoin="round" stroke-miterlimit="10" d="
		M218.6,279.2c0-5.8,0-11.6,0-17.3c5.4,2.3,10.9,4.2,16.6,5.5"/>
</g>
<g>
	<text transform="matrix(1 0 0 1 157.625 250.0635)" font-family="'PermanentMarker'" font-size="31">floor</text>
	<path fill="none" stroke="#006837" stroke-width="6" stroke-linecap="round" stroke-linejoin="round" stroke-miterlimit="10" d="
		M217.4,212.9c-1.5-15.1,10.7-30.2,25.8-31.8c4.7-0.5,9.4,0.1,14.1-0.4c12-1.2,21.9-9.4,31-17.2"/>
	<path fill="none" stroke="#006837" stroke-width="6" stroke-linecap="round" stroke-linejoin="round" stroke-miterlimit="10" d="
		M276.6,162.8c5.9,0.7,12,0.2,17.7-1.6c-2.4,5-4.3,10.3-5.6,15.8"/>
</g>
<g>
	<text transform="matrix(1 0 0 1 508.051 155.5195)" fill="#8CC63F" font-family="'PermanentMarker'" font-size="31">and start over ...</text>
</g>
</svg>
