<?xml version="1.0" encoding="utf-8"?>
<!-- Generator: Adobe Illustrator 18.0.0, SVG Export Plug-In . SVG Version: 6.00 Build 0)  -->
<!DOCTYPE svg PUBLIC "-//W3C//DTD SVG 1.1//EN" "http://www.w3.org/Graphics/SVG/1.1/DTD/svg11.dtd">
<svg version="1.1" id="Layer_1" xmlns="http://www.w3.org/2000/svg" xmlns:xlink="http://www.w3.org/1999/xlink" x="0px" y="0px"
	 viewBox="0 0 603.6 356.4" enable-background="new 0 0 603.6 356.4" xml:space="preserve">
<path fill="none" stroke="#FFFFFF" stroke-width="120" stroke-linejoin="bevel" stroke-miterlimit="10" d="M38.3,11.2
	c-5.9,75.6-8.7,151.5-8.5,227.4c0.1,27.4,0.6,55.1,7.4,81.7c28.6,9.7,59.4,13.1,89.5,9.8c12.3-1.3,24.6-3.8,37-2.7
	c13.6,1.2,30,5.7,39-4.7c8.2-9.5,3.3-24.1-2.2-35.3c-14.6-30.2-31-60.1-54.5-84.1c-8-8.2-17.2-16.1-21-27c-2-5.8-2.3-12-4.5-17.8
	c-2.4-6.5-7-11.9-11.4-17.3c-16.9-20.7-32.3-42.8-45.7-65.9c-4.4-7.6-8.8-16.3-6.6-24.9c1-3.7,3.1-7.1,5.3-10.2
	C71.3,26.8,82.2,14.1,96.8,7s33.4-7.3,45.8,3.1c16.2,13.6,15.8,37.9,18.8,58.8c3.4,23.5,12.8,45.7,22.1,67.6
	c12.1,28.4,24.1,56.7,36.2,85.1c7.7,18.1,15.5,36.4,19.3,55.8c2.3,11.7,3.1,23.7,7.2,34.8s12.2,21.7,23.8,24.7
	c5.3,1.4,11.4,0.8,15.5-2.8c2.6-2.3,4.1-5.6,5.4-8.8c6.3-15.6,9.4-32.5,9.1-49.4c-0.1-7.7-0.8-16,3.5-22.3
	c4.7-6.9,15.2-12,13.2-20.1c2.6,0.1,5.2,0.2,7.8,0.3c21.3,32.1-0.2,80,21.8,111.7c3,4.4,7,8.3,12,10.1c7.7,2.7,16.6-0.4,22.8-5.7
	c6.2-5.4,10.4-12.7,14.5-19.8c11.4-19.8,23.2-39.3,35.6-58.5c2.7-4.3,5.7-8.7,10.4-10.8c9.8-4.4,20.9,4.5,25,14.4
	c4.1,9.9,4.4,21.2,9.2,30.8c10,20.1,35.3,26.2,57.5,30c10.9,1.9,22.8,3.7,32.7-1.4c18-9.1,18.9-36.6,6.7-52.7s-32.2-23.8-51.2-30.7
	c2.1-35.4,17.6-68.4,31-101.2s25-68.4,18.6-103.3c-17.8-10-35.5-20.1-53.3-30.1c-24.5-13.8-52-28.1-79.3-21.6
	c-11.6,2.8-22,9.2-33.5,12.5c-12.5,3.6-25.8,3.4-38.8,3.2C319.2,9.7,272.4,8.8,225.7,8c2.9,69,5.9,138.6,22.7,205.6"/>
<g>
	
		<line fill="none" stroke="#000000" stroke-width="7" stroke-linecap="round" stroke-linejoin="round" stroke-miterlimit="10" x1="32.9" y1="44.4" x2="32.9" y2="331.7"/>
	
		<polyline fill="none" stroke="#000000" stroke-width="7" stroke-linecap="round" stroke-linejoin="round" stroke-miterlimit="10" points="
		10.4,66.4 32.9,44.4 55.4,66.4 	"/>
	<text transform="matrix(1 0 0 1 7.0923 23.3647)" font-family="'PermanentMarker'" font-size="31">perceived time before the week end</text>
</g>
<g>
	
		<line fill="none" stroke="#000000" stroke-width="7" stroke-linecap="round" stroke-linejoin="round" stroke-miterlimit="10" x1="10.1" y1="309.2" x2="593.5" y2="309.2"/>
	
		<polyline fill="none" stroke="#000000" stroke-width="7" stroke-linecap="round" stroke-linejoin="round" stroke-miterlimit="10" points="
		571.5,286.7 593.5,309.2 571.5,331.7 	"/>
	
		<line fill="none" stroke="#000000" stroke-width="7" stroke-linecap="round" stroke-miterlimit="10" x1="140.5" y1="301" x2="140.5" y2="317"/>
	<text transform="matrix(1 0 0 1 73.4746 348.7344)" font-family="'PermanentMarker'" font-size="31">m</text>
	
		<line fill="none" stroke="#000000" stroke-width="7" stroke-linecap="round" stroke-miterlimit="10" x1="248.5" y1="301" x2="248.5" y2="317"/>
	<text transform="matrix(1 0 0 1 184.4839 348.7344)" font-family="'PermanentMarker'" font-size="31">t</text>
	
		<line fill="none" stroke="#000000" stroke-width="7" stroke-linecap="round" stroke-miterlimit="10" x1="356.5" y1="301" x2="356.5" y2="317"/>
	<text transform="matrix(1 0 0 1 289.4263 348.7344)" font-family="'PermanentMarker'" font-size="31">w</text>
	
		<line fill="none" stroke="#000000" stroke-width="7" stroke-linecap="round" stroke-miterlimit="10" x1="463.5" y1="301" x2="463.5" y2="317"/>
	<text transform="matrix(1 0 0 1 401.374 348.7344)" font-family="'PermanentMarker'" font-size="31">t</text>
	<text transform="matrix(1 0 0 1 511.0459 348.7344)" font-family="'PermanentMarker'" font-size="31">f</text>
</g>
<path fill="none" stroke="#C1172C" stroke-width="7" stroke-linecap="round" stroke-miterlimit="10" d="M78.9,85.3
	c0,0,197.4,180.9,397.2,180.9c91.8,0,90.4-211.7,90.4-211.7"/>
</svg>
