<?xml version="1.0" encoding="utf-8"?>
<!-- Generator: Adobe Illustrator 18.0.0, SVG Export Plug-In . SVG Version: 6.00 Build 0)  -->
<!DOCTYPE svg PUBLIC "-//W3C//DTD SVG 1.1//EN" "http://www.w3.org/Graphics/SVG/1.1/DTD/svg11.dtd">
<svg version="1.1" id="Layer_1" xmlns="http://www.w3.org/2000/svg" xmlns:xlink="http://www.w3.org/1999/xlink" x="0px" y="0px"
	 viewBox="0 0 326 387" enable-background="new 0 0 326 387" xml:space="preserve">
<path fill="none" stroke="#FFFFFF" stroke-width="120" stroke-linejoin="bevel" stroke-miterlimit="10" d="M24.6-0.9
	C9.8,5,0.1,21.6,2.2,37.4C27.8,27,51.5,12.3,75-2.2C59.1,45.1,37.5,90.5,10.6,132.7c20.1-7.9,40.3-15.9,60.4-23.8
	c2.8,16.4-10.4,30.5-20.6,43.7c-23.1,30-34.2,69-30.3,106.6c7.3-3.8,14.7-7.5,22-11.3c-9.4,31.3-18.8,62.6-28.2,94
	c15.6-9.1,31.2-18.2,46.8-27.3c11.7-6.9,26.5-13.8,38.2-6.8c8.1,4.8,11.6,15.2,10.9,24.7s-4.9,18.2-9,26.8c9.6,8.1,24.8,6.3,35-1.1
	c10.1-7.4,16.2-19.2,21-30.8c4.8-11.6,8.9-23.8,16.5-33.8c5.4-7.3,15.6-13.5,23.1-8.4c6.3,4.3,6.2,13.5,5.3,21.1
	c-1.8,16.3-3.7,32.9-9.5,48.3c-5.8,15.4-16.1,29.7-30.8,37s-34.3,6-45.8-5.7c56.3,1.3,112.5,2.7,168.8,4c11.3,0.3,23.4,0.3,32.8-5.9
	c7.9-5.2,12.6-14.1,16.1-22.9c5.9-15.1,8.9-32.9,0.9-46.9c-9-15.6-29.4-21.5-47.2-18.6c-17.8,2.8-33.6,12.6-48.8,22.2
	c0.9-21.5,1.7-43,2.6-64.5c0.2-5.7,0.5-11.4-0.7-16.9c-3.6-17.8-19.9-29.8-35-39.9C140.5,152.5,76,108.9,11.5,65.3"/>
<g>
	
		<line fill="none" stroke="#000000" stroke-width="7" stroke-linecap="round" stroke-linejoin="round" stroke-miterlimit="10" x1="10" y1="299.7" x2="314.3" y2="299.7"/>
	
		<line fill="none" stroke="#000000" stroke-width="7" stroke-linecap="round" stroke-linejoin="round" stroke-miterlimit="10" x1="32.5" y1="322.2" x2="32.5" y2="32.5"/>
	
		<polyline fill="none" stroke="#000000" stroke-width="7" stroke-linecap="round" stroke-linejoin="round" stroke-miterlimit="10" points="
		10,54.5 32.5,32.5 55,54.5 	"/>
	
		<polyline fill="none" stroke="#000000" stroke-width="7" stroke-linecap="round" stroke-linejoin="round" stroke-miterlimit="10" points="
		292.3,277.2 314.3,299.7 292.3,322.2 	"/>
</g>
<text transform="matrix(1 0 0 1 60.4471 351.331)"><tspan x="0" y="0" font-family="'PermanentMarker'" font-size="31"># of people with</tspan><tspan x="52.6" y="30" font-family="'PermanentMarker'" font-size="31">your problem</tspan></text>
<text transform="matrix(1 0 0 1 3.9963 22.0019)" font-family="'PermanentMarker'" font-size="31">shame</text>
<path fill="none" stroke="#722B7D" stroke-width="7" stroke-linecap="round" stroke-linejoin="round" stroke-miterlimit="10" d="
	M44.6,74.3c10.8,33.5,41.1,57.1,72.5,72.9s65.7,26.2,95.5,44.9s55.8,48.7,56.9,83.9"/>
</svg>
