<?xml version="1.0" encoding="utf-8"?>
<!-- Generator: Adobe Illustrator 19.2.0, SVG Export Plug-In . SVG Version: 6.00 Build 0)  -->
<svg version="1.1" id="Layer_1" xmlns="http://www.w3.org/2000/svg" xmlns:xlink="http://www.w3.org/1999/xlink" x="0px" y="0px"
	 width="774px" height="596.3px" viewBox="0 0 774 596.3" enable-background="new 0 0 774 596.3" xml:space="preserve">
<path fill="none" stroke="#FFFFFF" stroke-width="120" stroke-linejoin="bevel" stroke-miterlimit="10" d="M275.6-0.4
	c-7.2,18.8-14.4,37.5-21.6,56.3c29.4-18.7,58.8-37.3,88.2-56C310.5,38.9,278.8,78,247.1,117C293,77.9,338.9,38.7,384.8-0.5
	c-55.1,51-112.2,105-136,176.2c28.3-5.1,49.8-28.7,63.8-53.8s22.8-53.1,38.4-77.3s40.9-45.1,69.6-44.4
	c-43.8,64.8-87.5,129.6-131.3,194.5c53.8-67,107.5-133.9,161.3-200.9c6.7,25.2-5,51.9-21.6,72s-37.8,35.9-55,55.4
	c-17.3,19.5-30.8,44.9-26.9,70.7C398,123.9,448.9,56,499.9-12c-13.5,76.4-62.8,140.9-110.5,202c36.6-11.8,67.9-39,84.7-73.6
	c-12.5,1.5-23,13.1-23.1,25.7c-0.1,12.6,10.1,24.4,22.6,26.1c4.9,0.7,9.9-0.1,14.5-1.8c16-5.8,26.4-23.9,23.5-40.6
	s-18.9-30.2-35.9-30.3c25.3-14.5,57-21.9,83.6-9.9s41.8,48.9,24.3,72.2c-9.1,12.2-24.2,18-37.3,26c-13,8-25.5,21.2-23.2,36.3
	c30-21.1,60-42.3,90-63.4c-22.2,37.2-44.4,74.4-66.6,111.6c36.2-36.9,72.5-73.8,108.7-110.6c-40.4,58.3-80.8,116.6-121.2,174.8
	c44.1-55,88.3-110,132.4-165c5.9-7.4,15.9-15.4,23.5-9.9c8.3,6,2,19-4.6,26.7C643.2,234,601,283.4,558.8,332.8
	c56.6-52.7,113.2-105.4,169.8-158.1C677.8,235.8,627,296.8,576.2,357.9c42.9-15.4,67.5-59.2,90.7-98.5
	c23.2-39.3,54.5-80.9,99.8-86.1C712.9,237.1,659.2,301,605.4,364.8c41.1-30.9,82.1-61.8,123.2-92.7c-22.1,27.7-44.3,55.5-66.4,83.2
	c27.8-7,52.3-26.4,65.4-51.9c0.6,53.8-12.6,107.8-38,155.3c-4.3,8-11.5,17.1-20.3,15c-5.4-1.3-8.9-6.3-11.9-11
	c-18.7-29-37.3-58.1-56-87.1c16.7,73.4,43,144.5,78.1,211.1c-38.3-13.1-58-55-68.7-94c-10.7-39-17.8-81.6-45.5-111
	c-15.2,71.6,6.7,150.1,56.7,203.5c-9.1,6-22.1,2-29.5-6s-10.7-18.9-13.8-29.4c-16.7-57.3-33.3-114.5-50-171.8
	c-18.1,3.8-29.4,23.1-30.3,41.6c-0.9,18.4,6.3,36.2,13.3,53.3c15.5,37.6,31,75.1,46.5,112.7c-15.6,10.6-37.9-3.9-43.7-21.8
	c-5.8-18-1.4-37.4-0.7-56.3c2-53.8-29.8-107.4-78.1-131.3c-5.3,34.9,2.9,71.7,22.6,100.9c11.4,16.9,26.5,31.6,34.4,50.4
	c7.9,18.8,5.6,44.4-12.1,54.6c-29.2,16.9-67-21.9-97.8-8.1c32.9-10.9,70.9-27.2,77.8-61.2c6-29.7-15.2-57.1-28.4-84.4
	c-4.7-9.7-7.8-23,0.4-30.1c11.2-9.8,28.4,4.4,32.1,18.9c9.2,36-23.6,76.1-60.7,74.3c-15-0.8-29.2-7.1-44.1-9.5
	c-14.9-2.3-32.6,0.9-40.1,14c-10.7,18.6,5.9,43.9-3.6,63.2c-8.1,16.5-30,19.3-48.4,19.9c-27.9,0.9-55.8,1.9-83.7,2.8
	c-10.2,0.3-20.6,0.6-30.1-2.8s-18.1-11.7-18.8-21.9c-0.8-12,11.4-22.9,23.2-20.9c11.8,2.1,19.5,16.6,14.7,27.5
	c3.2-9.6,6.5-19.5,13.2-27c6.7-7.5,17.8-12.2,27.2-8.5c9.3,3.7,14,14,21.5,20.7c9.5,8.6,24.1,10.9,35.8,5.7
	c11.7-5.2,19.7-17.6,19.7-30.4c10.9,10.4,21.7,20.9,32.6,31.3c0.5-24.2-16.3-47.7-39.3-55.1c-23-7.4-50.3,1.9-64,21.8
	c5.3-20.3,10.7-40.6,16-61c-25.1,11-50.2,21.9-75.3,32.9c-20.3-31.3-18.3-75.4,4.8-104.8c1.8,20.9,3.5,41.9,5.3,62.8
	c24.1-25,48.2-50,72.3-74.9c-1.1,18.9-2.2,37.8-3.4,56.7c9.8,4.9,21.7-2.2,27.7-11.4c6-9.2,8.5-20.3,14.6-29.4
	c6.1-9.1,18.4-15.9,27.9-10.6c7.9,4.4,10.1,14.7,9.7,23.7s-2.5,18.2,0,26.8c2.5,8.6,12.4,16.1,20.4,11.9
	c-61.6,18.5-125.4,29.9-189.6,33.9c-22.6,1.4-47.1,1.4-65.7-11.5c-14.9-10.3-23.5-27.2-31.6-43.4c-12.8-25.8-25.6-51.5-38.5-77.3
	c16.4,3.6,31.4,13.4,41.3,26.9c-10.5-28.4-21.1-56.7-31.6-85.1c12.5,36.1,38.6,67.3,71.9,85.9c-26.5-54.8-53-109.6-79.4-164.4
	C56,261.5,95.2,312.6,134.3,363.8c-19.4-71.3-57.5-137.3-109.6-189.8c15.9-8.9,33.3,8.5,43.3,23.8c37.5,57.7,74.9,115.4,112.4,173.1
	c-35.5-71.6-71-143.3-105.3-215.5c45.7,41.7,80.6,95.1,100.4,153.7c5.2,15.5,9.8,32,21.5,43.4s33.4,14.3,43.2,1.3
	c-53.9-48.4-88.2-118-93.8-190.2c4,18,8.9,37.3,23.4,48.7c14.4,11.4,41.2,7.5,44.8-10.6c2.5-12.8-7.6-24.7-18.6-31.7
	s-23.8-11.7-32.5-21.4c-8.7-9.7-10.7-27.4,0.3-34.3c33.1-20.8,77.5-21.8,111.5-2.6"/>
<g id="Arrow_right">
</g>
<g>
	
		<line fill="none" stroke="#000000" stroke-width="7" stroke-linecap="round" stroke-linejoin="round" stroke-miterlimit="10" x1="313.2" y1="33.8" x2="313.2" y2="147.4"/>
	
		<line fill="none" stroke="#000000" stroke-width="7" stroke-linecap="round" stroke-linejoin="round" stroke-miterlimit="10" x1="290.7" y1="124.9" x2="468.4" y2="124.9"/>
	<g>
		
			<polyline fill="none" stroke="#000000" stroke-width="7" stroke-linecap="round" stroke-linejoin="round" stroke-miterlimit="10" points="
			290.7,55.8 313.2,33.8 335.7,55.8 		"/>
	</g>
	<g>
		
			<polyline fill="none" stroke="#000000" stroke-width="7" stroke-linecap="round" stroke-linejoin="round" stroke-miterlimit="10" points="
			446.4,102.4 468.4,124.9 446.4,147.4 		"/>
	</g>
	<text transform="matrix(1 0 0 1 253.4417 177.4799)" fill="#507282" font-family="'PermanentMarker'" font-size="30.74px">practice of skill</text>
	<text transform="matrix(1 0 0 1 256.4137 25.4656)" fill="#2C285D" font-family="'PermanentMarker'" font-size="30.74px">mastery of skill</text>
	<path fill="none" stroke="#2C285D" stroke-width="7" stroke-linecap="round" stroke-linejoin="round" stroke-miterlimit="10" d="
		M329,111.7c42.6-19.4,85.2-38.8,127.9-58.2"/>
</g>
<g>
	
		<line fill="none" stroke="#000000" stroke-width="7" stroke-linecap="round" stroke-linejoin="round" stroke-miterlimit="10" x1="568.8" y1="218.7" x2="568.8" y2="332.4"/>
	
		<line fill="none" stroke="#000000" stroke-width="7" stroke-linecap="round" stroke-linejoin="round" stroke-miterlimit="10" x1="546.3" y1="309.9" x2="724" y2="309.9"/>
	<g>
		
			<polyline fill="none" stroke="#000000" stroke-width="7" stroke-linecap="round" stroke-linejoin="round" stroke-miterlimit="10" points="
			546.3,240.7 568.8,218.7 591.3,240.7 		"/>
	</g>
	<g>
		
			<polyline fill="none" stroke="#000000" stroke-width="7" stroke-linecap="round" stroke-linejoin="round" stroke-miterlimit="10" points="
			702,287.4 724,309.9 702,332.4 		"/>
	</g>
	<text transform="matrix(1 0 0 1 578.4655 362.4565)" fill="#2C285D" font-family="'PermanentMarker'" font-size="30.74px">mastery</text>
	<text transform="matrix(1 0 0 1 564.8666 177.4802)"><tspan x="0" y="0" fill="#675890" font-family="'PermanentMarker'" font-size="30.74px">ability to</tspan><tspan x="-56" y="30" fill="#675890" font-family="'PermanentMarker'" font-size="30.74px">progress quickly</tspan></text>
	<path fill="none" stroke="#675890" stroke-width="7" stroke-linecap="round" stroke-linejoin="round" stroke-miterlimit="10" d="
		M590.3,288.6c28.2-32.4,68.8-53.8,111.5-58.5"/>
</g>
<g>
	
		<line fill="none" stroke="#000000" stroke-width="7" stroke-linecap="round" stroke-linejoin="round" stroke-miterlimit="10" x1="460.2" y1="443.9" x2="460.2" y2="557.5"/>
	
		<line fill="none" stroke="#000000" stroke-width="7" stroke-linecap="round" stroke-linejoin="round" stroke-miterlimit="10" x1="437.7" y1="535" x2="615.4" y2="535"/>
	<g>
		
			<polyline fill="none" stroke="#000000" stroke-width="7" stroke-linecap="round" stroke-linejoin="round" stroke-miterlimit="10" points="
			437.7,465.9 460.2,443.9 482.7,465.9 		"/>
	</g>
	<g>
		
			<polyline fill="none" stroke="#000000" stroke-width="7" stroke-linecap="round" stroke-linejoin="round" stroke-miterlimit="10" points="
			593.4,512.5 615.4,535 593.4,557.5 		"/>
	</g>
	<text transform="matrix(1 0 0 1 383.8946 587.5947)" fill="#675890" font-family="'PermanentMarker'" font-size="30.74px">ability to progress</text>
	<text transform="matrix(1 0 0 1 419.4077 402.7358)"><tspan x="0" y="0" fill="#AA91AB" font-family="'PermanentMarker'" font-size="30.74px">time nedded to</tspan><tspan x="0.1" y="30" fill="#AA91AB" font-family="'PermanentMarker'" font-size="30.74px">complete task</tspan></text>
	<path fill="none" stroke="#AA91AB" stroke-width="7" stroke-linecap="round" stroke-linejoin="round" stroke-miterlimit="10" d="
		M480.8,480.4c15.8-4.5,32.5,2.9,46,12.2c13.5,9.3,25.9,20.8,41.5,26"/>
</g>
<g>
	
		<line fill="none" stroke="#000000" stroke-width="7" stroke-linecap="round" stroke-linejoin="round" stroke-miterlimit="10" x1="166.2" y1="443.8" x2="166.2" y2="557.5"/>
	
		<line fill="none" stroke="#000000" stroke-width="7" stroke-linecap="round" stroke-linejoin="round" stroke-miterlimit="10" x1="143.7" y1="535" x2="321.4" y2="535"/>
	<g>
		
			<polyline fill="none" stroke="#000000" stroke-width="7" stroke-linecap="round" stroke-linejoin="round" stroke-miterlimit="10" points="
			143.7,465.8 166.2,443.8 188.7,465.8 		"/>
	</g>
	<g>
		
			<polyline fill="none" stroke="#000000" stroke-width="7" stroke-linecap="round" stroke-linejoin="round" stroke-miterlimit="10" points="
			299.4,512.5 321.4,535 299.4,557.5 		"/>
	</g>
	<text transform="matrix(1 0 0 1 147.7099 587.554)" fill="#AA91AB" font-family="'PermanentMarker'" font-size="30.74px">time needed</text>
	<text transform="matrix(1 0 0 1 148.2802 402.736)"><tspan x="0" y="0" fill="#AEAEAE" font-family="'PermanentMarker'" font-size="30.74px">how much i</tspan><tspan x="-17.7" y="30" fill="#AEAEAE" font-family="'PermanentMarker'" font-size="30.74px">procrastinate</tspan></text>
	<path fill="none" stroke="#AEAEAE" stroke-width="7" stroke-linecap="round" stroke-linejoin="round" stroke-miterlimit="10" d="
		M176.9,487.7c17.9-7.9,38.4-9.6,57.3-4.6s36,16.5,47.6,32.2"/>
</g>
<g>
	
		<line fill="none" stroke="#000000" stroke-width="7" stroke-linecap="round" stroke-linejoin="round" stroke-miterlimit="10" x1="57.5" y1="218.7" x2="57.5" y2="332.4"/>
	
		<line fill="none" stroke="#000000" stroke-width="7" stroke-linecap="round" stroke-linejoin="round" stroke-miterlimit="10" x1="35" y1="309.9" x2="212.7" y2="309.9"/>
	<g>
		
			<polyline fill="none" stroke="#000000" stroke-width="7" stroke-linecap="round" stroke-linejoin="round" stroke-miterlimit="10" points="
			35,240.7 57.5,218.7 80,240.7 		"/>
	</g>
	<g>
		
			<polyline fill="none" stroke="#000000" stroke-width="7" stroke-linecap="round" stroke-linejoin="round" stroke-miterlimit="10" points="
			190.7,287.4 212.7,309.9 190.7,332.4 		"/>
	</g>
	<text transform="matrix(1 0 0 1 6.7539 362.4562)" fill="#AEAEAE" font-family="'PermanentMarker'" font-size="30.74px">procrastination</text>
	<text transform="matrix(1 0 0 1 50.2672 177.4799)"><tspan x="0" y="0" fill="#507282" font-family="'PermanentMarker'" font-size="30.74px">how much</tspan><tspan x="-27.8" y="30" fill="#507282" font-family="'PermanentMarker'" font-size="30.74px">practice i get</tspan></text>
	<path fill="none" stroke="#7895A4" stroke-width="7" stroke-linecap="round" stroke-linejoin="round" stroke-miterlimit="10" d="
		M71.5,252.6c32.9,14,65.9,27.9,98.8,41.9"/>
</g>
<g>
	<path fill="none" stroke="#F09B36" stroke-width="7" stroke-linecap="round" stroke-linejoin="round" stroke-miterlimit="10" d="
		M432.3,56.8c4.2,3.3,8.4,6.5,12.6,9.8"/>
	<path fill="none" stroke="#F09B36" stroke-width="7" stroke-linecap="round" stroke-linejoin="round" stroke-miterlimit="10" d="
		M441.2,54.5c-1.5,5-3,10-4.5,15"/>
	<path fill="none" stroke="#F09B36" stroke-width="7" stroke-linecap="round" stroke-linejoin="round" stroke-miterlimit="10" d="
		M447.3,75.1c27.8,12.7,59.9,8.9,90.4,7.6c13-0.5,26.6-0.5,38.4,5.1c11.8,5.6,21.3,18.1,19.3,31"/>
	<path fill="none" stroke="#F09B36" stroke-width="7" stroke-linecap="round" stroke-linejoin="round" stroke-miterlimit="10" d="
		M588.7,119.1c2.8,3.3,5.5,6.7,8.3,10c1.7-4.5,3.3-9.1,5-13.6"/>
	<path fill="none" stroke="#F09B36" stroke-width="7" stroke-linecap="round" stroke-linejoin="round" stroke-miterlimit="10" d="
		M692.4,225.8c-2.8,4.8-5.6,9.5-8.5,14.3"/>
	<path fill="none" stroke="#F09B36" stroke-width="7" stroke-linecap="round" stroke-linejoin="round" stroke-miterlimit="10" d="
		M683,226c3.3,4.2,6.7,8.4,10,12.6"/>
	<path fill="none" stroke="#F09B36" stroke-width="7" stroke-linecap="round" stroke-linejoin="round" stroke-miterlimit="10" d="
		M710.5,386.5c1.6,18.7,2.3,38-3.7,55.8c-6.1,17.8-20.3,33.9-38.8,37"/>
	<path fill="none" stroke="#F09B36" stroke-width="7" stroke-linecap="round" stroke-linejoin="round" stroke-miterlimit="10" d="
		M667.9,472.8c-1.8,3.1-3.6,6.2-5.4,9.3c3.3,1.2,6.5,2.4,9.8,3.6"/>
	<path fill="none" stroke="#F09B36" stroke-width="7" stroke-linecap="round" stroke-linejoin="round" stroke-miterlimit="10" d="
		M560,509c-3,3.2-6,6.4-9,9.6"/>
	<path fill="none" stroke="#F09B36" stroke-width="7" stroke-linecap="round" stroke-linejoin="round" stroke-miterlimit="10" d="
		M552.9,507.2c1.5,4.1,3,8.3,4.5,12.4"/>
	<path fill="none" stroke="#F09B36" stroke-width="7" stroke-linecap="round" stroke-linejoin="round" stroke-miterlimit="10" d="
		M412.5,498.4c-5.3,0.8-10.6-1.4-15.1-4.2c-4.5-2.9-8.5-6.5-13-9.3c-13.2-8.1-31-8-44.1,0.2"/>
	<path fill="none" stroke="#F09B36" stroke-width="7" stroke-linecap="round" stroke-linejoin="round" stroke-miterlimit="10" d="
		M340.8,477.4c-2.3,3.7-4.6,7.4-6.9,11.2c3.3,0.4,6.7,0.9,10,1.3"/>
	<path fill="none" stroke="#F09B36" stroke-width="7" stroke-linecap="round" stroke-linejoin="round" stroke-miterlimit="10" d="
		M191.5,476.8c-2,4.6-3.9,9.2-5.9,13.8"/>
	<path fill="none" stroke="#F09B36" stroke-width="7" stroke-linecap="round" stroke-linejoin="round" stroke-miterlimit="10" d="
		M183.1,479.1c3.9,3.1,7.8,6.1,11.8,9.2"/>
	<path fill="none" stroke="#F09B36" stroke-width="7" stroke-linecap="round" stroke-linejoin="round" stroke-miterlimit="10" d="
		M111.7,481.5c-14.8-4.7-27.9-14.5-36.5-27.4c-8.6-12.9-12.7-28.8-11.4-44.2"/>
	<path fill="none" stroke="#F09B36" stroke-width="7" stroke-linecap="round" stroke-linejoin="round" stroke-miterlimit="10" d="
		M58.1,412.5c2.3-2.6,4.6-5.1,6.9-7.7c1.3,3.3,2.6,6.5,3.8,9.8"/>
	<path fill="none" stroke="#F09B36" stroke-width="7" stroke-linecap="round" stroke-linejoin="round" stroke-miterlimit="10" d="
		M166.3,286.1c-3,3.2-6,6.4-9,9.5"/>
	<path fill="none" stroke="#F09B36" stroke-width="7" stroke-linecap="round" stroke-linejoin="round" stroke-miterlimit="10" d="
		M158.3,286.2c2.3,3.5,4.5,7.1,6.8,10.6"/>
	<path fill="none" stroke="#F09B36" stroke-width="7" stroke-linecap="round" stroke-linejoin="round" stroke-miterlimit="10" d="
		M165.4,136.4c4.4-17.7,17-33.2,33.4-41.3s36.3-8.5,53.1-1.1c7.3,3.2,14,7.8,21.3,11.1c7.3,3.2,15.8,5,23.3,2.3"/>
	<path fill="none" stroke="#F09B36" stroke-width="7" stroke-linecap="round" stroke-linejoin="round" stroke-miterlimit="10" d="
		M293.6,101.9c2.5,2,4.9,3.9,7.4,5.9c-2.1,2.5-4.2,4.9-6.2,7.4"/>
	<path fill="none" stroke="#F09B36" stroke-width="7" stroke-linecap="round" stroke-linejoin="round" stroke-miterlimit="10" d="
		M340.5,101.2c-0.9,4.2-1.7,8.3-2.6,12.5"/>
	<path fill="none" stroke="#F09B36" stroke-width="7" stroke-linecap="round" stroke-linejoin="round" stroke-miterlimit="10" d="
		M332.6,104.3c4.5,1.9,9.1,3.8,13.6,5.7"/>
</g>
<g id="Arrow_up">
</g>
</svg>
