<?xml version="1.0" encoding="utf-8"?>
<!-- Generator: Adobe Illustrator 19.2.0, SVG Export Plug-In . SVG Version: 6.00 Build 0)  -->
<svg version="1.1" id="Layer_1" xmlns="http://www.w3.org/2000/svg" xmlns:xlink="http://www.w3.org/1999/xlink" x="0px" y="0px"
	 width="380.8px" height="316.4px" viewBox="0 0 380.8 316.4" enable-background="new 0 0 380.8 316.4" xml:space="preserve">
<symbol  id="Arrow_right_1_" viewBox="-25.5 -26 29 52">
	
		<polyline fill="none" stroke="#231F20" stroke-width="7" stroke-linecap="round" stroke-linejoin="round" stroke-miterlimit="10" points="
		-22,22.5 0,0 -22,-22.5 	"/>
</symbol>
<symbol  id="Arrow_up" viewBox="-26 -25.5 52 29">
	
		<polyline fill="none" stroke="#231F20" stroke-width="7" stroke-linecap="round" stroke-linejoin="round" stroke-miterlimit="10" points="
		-22.5,-22 0,0 22.5,-22 	"/>
</symbol>
<path fill="none" stroke="#FFFFFF" stroke-width="120" stroke-linejoin="bevel" stroke-miterlimit="10" d="M39.1,12.2
	c-8.5,13.6-11.6,30.4-8.5,46.1c15.8-11.1,28.9-26.1,37.8-43.2C63.2,36,58.1,56.8,52.9,77.6c18.5-19.7,37-39.3,55.6-59
	c-2.8,13.7-5.5,27.5-8.3,41.2c-0.6,3-1.2,6.4,0.4,9.1c2.7,4.7,10.3,3.8,13.9-0.3s4-9.9,4.3-15.3c0.2-5.4,0.4-11.2,3.6-15.6
	c3.3-4.6,9.6-6.8,15.1-5.1c9.3,2.9,12.7,15.6,8.3,24.3c-4.5,8.7-14.3,13.4-23.9,14.9c-9.6,1.5-19.5,0.4-29.2,0.7
	C70.3,73,48.3,80.7,30.6,94.1c5,13.6,23.1,20.4,35.9,13.5c-15.5,12.2-16.4,35-15.9,54.7c0.6,22.5,1.1,45,1.7,67.5
	c0.2,7.5-0.1,16.2-6.1,20.9c-5.7,4.5-15.3,2.3-18.5-4.2s1-15.4,8-17.2c9.8-2.4,17.9,7.2,26.8,11.9c9.2,4.9,21.1,4.4,29.9-1.4
	c2.1-3.8-2.1-8.8-6.5-8.5c-4.3,0.3-7.6,4.4-8.5,8.7c-0.9,4.3,0.1,8.7,1,12.9c3.2,14.3,6.4,28.5,9.7,42.8c12-25,23.9-50.1,35.9-75.1
	c-9.3,32.5-18.5,65.1-27.8,97.6c15.7-26.4,31.4-52.7,47.2-79.1c-4.7,18-9.5,35.9-14.2,53.9c10-19.8,20.1-39.7,30.1-59.5
	c-3.3,19.7-6.5,39.4-9.8,59.1c13.7-23.6,27.4-47.1,41.1-70.7c-5.5,27.8-11,55.7-16.6,83.5c18.2-22.8,32.5-48.9,41.9-76.5
	c-0.5,21.9-1,43.7-1.5,65.6c11.4-28.6,22.9-57.2,34.3-85.8c-5.9,26.3-11.7,52.6-17.6,78.8c-1.4,6.2-1.7,14.5,4.1,16.9
	c6.7,2.7,12.3-5.5,14.8-12.3c5.5-14.6,11-29.3,16.6-43.9c-2.2,14.6-4.4,29.1-6.6,43.7c3.4-16.2,6.7-32.4,10.1-48.6
	c1.3-6.2,2.9-13,7.9-16.9c5-4,14.3-2.4,15.3,3.8c1.8-6.2,3.6-12.5,5.4-18.7c-1,18.4,6.7,37,20.3,49.3c2.2-30.7,4.3-61.4,6.5-92.1
	c0.8-11.5,1.7-23.2,6-33.8c8-19.7,26.6-32.9,44.2-44.8c-21.3,0.3-43.2,0.8-62.8,8.9s-36.9,25.8-38,47.1c19.4,9.2,44.3,5.1,59.7-9.9
	c-2.3,17.3-21.2,30.4-38.2,26.5c-17-3.9-28.3-24-22.8-40.5c-9.6,12.1-19.3,24.1-28.9,36.2c0-8.5,0.1-17.1,0.1-25.6
	c-3.1,22.3-6.3,44.5-9.4,66.8c-19.1-11.7-47.3-4.5-58.3,15c-17.4-9.1-34.8-18.1-52.2-27.2c-8.6-4.5-17.5-9.2-23.4-16.8
	c-8.3-10.7-9.2-26.7-2.1-38.2c4.1,9.6,9.4,20.3,19.4,23.4c10.6,3.2,23.1-5.8,23.3-16.8s-11.7-20.7-22.5-17.9
	c5.1-7.4,11.6-14.1,19.9-17.7c8.2-3.6,18.4-3.6,25.8,1.5c7.4,5.1,11,15.8,6.7,23.7c9-5.9,18-11.9,27.1-17.8"/>
<g id="Arrow_right">
</g>
<g>
	
		<line fill="none" stroke="#231F20" stroke-width="7" stroke-linecap="round" stroke-linejoin="round" stroke-miterlimit="10" x1="55.2" y1="82.7" x2="55.2" y2="256.3"/>
	
		<use xlink:href="#Arrow_up"  width="52" height="29" x="-26" y="-25.5" transform="matrix(1 0 0 -1 55.235 82.6686)" overflow="visible"/>
	
		<line fill="none" stroke="#231F20" stroke-width="7" stroke-linecap="round" stroke-linejoin="round" stroke-miterlimit="10" x1="32.7" y1="233.8" x2="315.1" y2="233.8"/>
	
		<use xlink:href="#Arrow_right_1_"  width="29" height="52" x="-25.5" y="-26" transform="matrix(1 0 0 -1 315.0797 233.7603)" overflow="visible"/>
</g>
<text transform="matrix(1 0 0 1 79.9464 266.4617)"><tspan x="0" y="0" fill="#231F20" font-family="'PermanentMarker'" font-size="30.74px">value of the</tspan><tspan x="9.2" y="30" fill="#231F20" font-family="'PermanentMarker'" font-size="30.74px">stuff i own</tspan></text>
<text transform="matrix(1 0 0 1 28.7349 38.7026)"><tspan x="0" y="0" fill="#231F20" font-family="'PermanentMarker'" font-size="30.74px">negative </tspan><tspan x="0" y="30" fill="#231F20" font-family="'PermanentMarker'" font-size="30.74px">feelings</tspan></text>
<path fill="none" stroke="#BE1E2D" stroke-width="7" stroke-linecap="round" stroke-linejoin="round" stroke-miterlimit="10" d="
	M100.5,131.5c-1.8,88.7,143.4,115.7,153.9,0.7"/>
<g>
	<path fill="none" stroke="#231F20" stroke-width="7" stroke-linecap="round" stroke-linejoin="round" stroke-miterlimit="10" d="
		M104.6,138.1c-2.4,1.8-4.9,3.6-7.3,5.4"/>
	<path fill="none" stroke="#231F20" stroke-width="7" stroke-linecap="round" stroke-linejoin="round" stroke-miterlimit="10" d="
		M98.1,137.9c1.5,1.9,3,3.9,4.6,5.8"/>
	<text transform="matrix(1 0 0 1 130.4291 118.7386)" fill="#231F20" font-family="'PermanentMarker'" font-size="30.74px">envy</text>
	<path fill="none" stroke="#231F20" stroke-width="7" stroke-linecap="round" stroke-linejoin="round" stroke-miterlimit="10" d="
		M111.3,142.2c4.5-2.1,10.5-0.5,13.4,3.6c1.2,1.7,1.8,3.7,2.8,5.5c1,1.8,2.4,3.6,4.4,4.1c1.9,0.5,4-0.2,5.5-1.4
		c1.5-1.2,2.7-2.9,3.7-4.6c3.6-6.1,6.3-12.7,7.9-19.6"/>
</g>
<g>
	<path fill="none" stroke="#231F20" stroke-width="7" stroke-linecap="round" stroke-linejoin="round" stroke-miterlimit="10" d="
		M249.1,139.9c2.9,2.1,5.9,4.2,8.8,6.2"/>
	<path fill="none" stroke="#231F20" stroke-width="7" stroke-linecap="round" stroke-linejoin="round" stroke-miterlimit="10" d="
		M248.1,146.8c3.3-2.6,6.6-5.3,9.8-7.9"/>
	<text transform="matrix(1 0 0 1 283.1835 118.7386)" fill="#231F20" font-family="'PermanentMarker'" font-size="30.74px">greed</text>
	<path fill="none" stroke="#231F20" stroke-width="7" stroke-linecap="round" stroke-linejoin="round" stroke-miterlimit="10" d="
		M268.4,142.9c2.7-2.1,6.6-1.7,9.6,0s5.2,4.3,7.5,6.8c2.3,2.5,4.9,4.9,8.1,5.8c6.2,1.8,12.9-2.6,15.8-8.4s3-12.5,3.1-19"/>
</g>
</svg>
