<?xml version="1.0" encoding="utf-8"?>
<!-- Generator: Adobe Illustrator 18.0.0, SVG Export Plug-In . SVG Version: 6.00 Build 0)  -->
<!DOCTYPE svg PUBLIC "-//W3C//DTD SVG 1.1//EN" "http://www.w3.org/Graphics/SVG/1.1/DTD/svg11.dtd">
<svg version="1.1" id="Layer_1" xmlns="http://www.w3.org/2000/svg" xmlns:xlink="http://www.w3.org/1999/xlink" x="0px" y="0px"
	 viewBox="0 0 343.3 333.3" enable-background="new 0 0 343.3 333.3" xml:space="preserve">
<path fill="none" stroke="#FFFFFF" stroke-width="120" stroke-linejoin="bevel" stroke-miterlimit="10" d="M60.4,5.9
	C31.3,32.8,12.3,70.4,7.9,109.8c33.1-20,62.1-46.1,90.8-72c14.7-13.3,29.5-26.5,44.2-39.8c3.3,30.7-8.8,61.3-26.2,86.9
	S76.9,132.1,56.3,155s-39.9,48.2-49,77.8c24.3,7.1,50.8-4.9,68.7-22.8s29.3-41,42.3-62.8c21.7-36.3,48.5-69.5,79.3-98.4
	c13.6-12.8,28.3-24.9,45.2-32.8s36.6-11.2,54.6-6.1c1.3,11.4-6,21.8-13.1,30.8c-56,71.8-118.9,138.1-187.7,197.8
	c-16.9,14.7-34.4,29.2-47.3,47.6c-7.7,10.9-13.4,26.4-5.1,36.9c4.9,6.3,13.8,8.6,21.7,7.6c8-1.1,15.3-5,22.1-9.2
	c17.9-11.2,34.1-25.1,47.8-41.3c30.7-36.3,49.8-84.3,90.5-108.9c7.6-4.6,16.8-8.3,25.3-5.5c12.1,4,16.7,19.1,15.3,31.8
	c-2.9,26.4-22.6,47.4-41.5,66c-18.9,18.6-39,38.9-43.4,65.1c20.7-2,38.8-15,53.3-30c14.5-15,26.4-32.3,41.6-46.5
	s34.8-25.5,55.6-24.5c-4.8,40.2-30.7,77.3-66.9,95.6"/>
<g>
	
		<line fill="none" stroke="#010101" stroke-width="7" stroke-linecap="round" stroke-linejoin="round" stroke-miterlimit="10" x1="30.8" y1="70.2" x2="30.8" y2="282.2"/>
	
		<line fill="none" stroke="#010101" stroke-width="7" stroke-linecap="round" stroke-linejoin="round" stroke-miterlimit="10" x1="8.3" y1="259.7" x2="336" y2="259.7"/>
	
		<polyline fill="none" stroke="#010101" stroke-width="7" stroke-linecap="round" stroke-linejoin="round" stroke-miterlimit="10" points="
		8.3,92.2 30.8,70.2 53.3,92.2 	"/>
	
		<polyline fill="none" stroke="#010101" stroke-width="7" stroke-linecap="round" stroke-linejoin="round" stroke-miterlimit="10" points="
		314.7,237.2 336.7,259.7 314.7,282.2 	"/>
</g>
<text transform="matrix(1 0 0 1 85.4534 299.321)"><tspan x="0" y="0" font-family="'PermanentMarker'" font-size="31">how much i</tspan><tspan x="-44.5" y="30" font-family="'PermanentMarker'" font-size="31">watch what i eat</tspan></text>
<text transform="matrix(1 0 0 1 37.6364 22.6477)"><tspan x="0" y="0" font-family="'PermanentMarker'" font-size="31">how comfortable</tspan><tspan x="-0.6" y="30" font-family="'PermanentMarker'" font-size="31">i am with my body</tspan></text>
<path fill="none" stroke="#ECC19C" stroke-width="7" stroke-linecap="round" stroke-linejoin="round" stroke-miterlimit="10" d="
	M46.3,249.3c24.4,0.3,43.9-21.4,52.8-44.1s11-47.7,20.2-70.3S148.6,91,173,92.3c22.3,1.1,39.6,20.8,48.3,41.4s11.7,43.3,20.9,63.7
	s27.7,39.3,50,38.8"/>
</svg>
