<?xml version="1.0" encoding="utf-8"?>
<!-- Generator: Adobe Illustrator 18.0.0, SVG Export Plug-In . SVG Version: 6.00 Build 0)  -->
<!DOCTYPE svg PUBLIC "-//W3C//DTD SVG 1.1//EN" "http://www.w3.org/Graphics/SVG/1.1/DTD/svg11.dtd">
<svg version="1.1" id="Layer_1" xmlns="http://www.w3.org/2000/svg" xmlns:xlink="http://www.w3.org/1999/xlink" x="0px" y="0px"
	 viewBox="0 0 366 423" enable-background="new 0 0 366 423" xml:space="preserve">
<path fill="none" stroke="#FFFFFF" stroke-width="120" stroke-linejoin="bevel" stroke-miterlimit="10" d="M54.6-9.3
	C24.3,17.1,5.2,56,2.9,96.1c24.5-1.6,45.5-18.2,61.9-36.6s30.1-39.4,49.3-54.7s46.6-23.9,68.7-13c-2,24.9-4,49.7-6,74.6
	c29.1,2.5,53.6-20.2,74.4-40.8s46.7-42.4,75.5-37.4c7.2,9.5,6.4,23.3,1.1,34c-5.3,10.7-14.3,19-23.1,27.1
	C290.3,62.5,275.4,76,257.2,83c-20.1,7.7-42.3,6.8-63.8,5.8c-29.5-1.4-58.9-2.8-88.4-4.2c-15.3-0.7-31.3-1.3-45,5.5
	c-14.2,7-23.8,21.2-28.8,36.1s-6,31-6.9,46.8c-3.2,53.6-6.4,107.2-9.6,160.8c-1.2,19.4-1,41.9,14,54.1c10.5,8.5,25.2,9.2,38.7,9.5
	c77.5,1.7,155,3.3,232.4,5c7.9,0.2,16,0.3,23.3-2.7s13.6-9.9,13.2-17.8c-0.3-7.7-7-14-14.3-16.5c-7.3-2.5-15.3-2-23-1.7
	c-48.9,2.3-98-0.6-146.3-8.6c-12.6-2.1-25.3-4.6-36.5-10.8s-20.7-16.6-22.7-29.2c-2.8-17.5,8.8-33.8,19.8-47.7
	c45-57,90.1-114,135.1-171.1c4.8-6.1,11.3-12.9,18.9-11.6c8.2,1.4,11.9,10.9,14.1,19c9.9,37.2,19.8,74.4,29.7,111.6
	c3.2,11.9,6.3,24.9,1.4,36.2c-7.5,17.4-32.3,22.3-48.5,12.6c-16.3-9.7-24.1-29.6-24.3-48.6s6-37.3,12.1-55.2"/>
<g>
	
		<line fill="none" stroke="#010101" stroke-width="7" stroke-linecap="round" stroke-linejoin="round" stroke-miterlimit="10" x1="356.7" y1="361.8" x2="8" y2="361.8"/>
	
		<line fill="none" stroke="#010101" stroke-width="7" stroke-linecap="round" stroke-linejoin="round" stroke-miterlimit="10" x1="31.1" y1="35.4" x2="31.1" y2="384.1"/>
</g>
<g>
	
		<polyline fill="none" stroke="#010101" stroke-width="7" stroke-linecap="round" stroke-linejoin="round" stroke-miterlimit="10" points="
		334.7,339.3 356.7,361.8 334.7,384.3 	"/>
	<text transform="matrix(1 0 0 1 33.597 414.7799)" fill="#010101" font-family="'PermanentMarker'" font-size="31">desire &amp; temptation</text>
</g>
<g>
	
		<polyline fill="none" stroke="#010101" stroke-width="7" stroke-linecap="round" stroke-linejoin="round" stroke-miterlimit="10" points="
		8.6,57.4 31.1,35.4 53.6,57.4 	"/>
	<text transform="matrix(1 0 0 1 3.0512 24.7831)" fill="#010101" font-family="'PermanentMarker'" font-size="31">potential for deception</text>
</g>
<path fill="none" stroke="#9E1F63" stroke-width="7" stroke-linecap="round" stroke-linejoin="round" stroke-miterlimit="10" d="
	M40.5,348.3c89.1-89.2,173.6-182.9,253.2-280.7"/>
<g>
	<path fill="none" stroke="#010101" stroke-width="7" stroke-linecap="round" stroke-linejoin="round" stroke-miterlimit="10" d="
		M229.9,140.2c5.6-2.6,10.7-6.2,15-10.6"/>
	<path fill="none" stroke="#010101" stroke-width="7" stroke-linecap="round" stroke-linejoin="round" stroke-miterlimit="10" d="
		M240.8,144.2c-2.8-6.4-5.5-12.8-8.3-19.2"/>
	<path fill="none" stroke="#010101" stroke-width="7" stroke-linecap="round" stroke-linejoin="round" stroke-miterlimit="10" d="
		M245.5,151.2c-1.5,4.1,1.8,8.5,5.7,10.5c3.9,2,8.4,2.4,12.4,4.3c9.3,4.3,13.8,15.8,12.3,26c-1.4,10.2-7.6,19.1-14.8,26.4"/>
</g>
<text transform="matrix(1 0 0 1 197.9807 246.0977)" font-family="'PermanentMarker'" font-size="31">fast-food</text>
<g>
	<path fill="none" stroke="#010101" stroke-width="7" stroke-linecap="round" stroke-linejoin="round" stroke-miterlimit="10" d="
		M281.1,91.4c-6.2-0.5-12.5,1.6-17.1,5.6"/>
	<path fill="none" stroke="#010101" stroke-width="7" stroke-linecap="round" stroke-linejoin="round" stroke-miterlimit="10" d="
		M269,83.4c0.4,5.5,2.8,10.7,6.6,14.7c0.4,1.3,0.9,2.7,1.3,4"/>
	<path fill="none" stroke="#010101" stroke-width="7" stroke-linecap="round" stroke-linejoin="round" stroke-miterlimit="10" d="
		M253.5,93c-4.6,0.4-8.7-2.7-12.9-4.8c-9.7-5-21.7-5.4-31.7-0.8"/>
</g>
<text transform="matrix(1 0 0 1 130.034 100.1423)" font-family="'PermanentMarker'" font-size="31">love</text>
</svg>
