<?xml version="1.0" encoding="utf-8"?>
<!-- Generator: Adobe Illustrator 18.0.0, SVG Export Plug-In . SVG Version: 6.00 Build 0)  -->
<!DOCTYPE svg PUBLIC "-//W3C//DTD SVG 1.1//EN" "http://www.w3.org/Graphics/SVG/1.1/DTD/svg11.dtd">
<svg version="1.1" id="Layer_1" xmlns="http://www.w3.org/2000/svg" xmlns:xlink="http://www.w3.org/1999/xlink" x="0px" y="0px"
	 viewBox="0 0 414 368.1" enable-background="new 0 0 414 368.1" xml:space="preserve">
<path fill="none" stroke="#FFFFFF" stroke-width="120" stroke-linejoin="bevel" stroke-miterlimit="10" d="M45.2,6.4
	C17.5,25.8-0.8,58.1-3.3,91.9c22.5-0.9,42.5-15,58-31.4s28-35.5,44.5-51s38.5-27.3,60.8-24.2C109.5,54,59.2,122.7,8.8,191.3
	c8.2,8,21.7,8.1,32.1,3.3s18.4-13.5,26.1-22C113.2,121.8,159.4,71,205.6,20.2c24.5,43.7,15.6,100.1-9.7,143.4
	s-64.6,76.3-103.1,108.4c-14.9,12.5-67.8,22.7-82.7,35.1c61.8,9.1,163,11,224.7,1.2c23.5-3.7,47.8-8.8,70.8-2.7
	c23,6.1,14.8,28,10.5,51.4c14.2-7.4,58.1-15.2,67.4-28.2s11.2-32.8-0.2-44.1c-9-8.9-22.9-9.8-34.9-13.8c-29.6-9.7-48.9-38.4-60-67.6
	S272,143,258.2,115C241.1,80.4,211,52.5,175.3,38"/>
<g>
	
		<line fill="none" stroke="#000000" stroke-width="7" stroke-linecap="round" stroke-linejoin="round" stroke-miterlimit="10" x1="16" y1="307.2" x2="399" y2="307.2"/>
	
		<line fill="none" stroke="#000000" stroke-width="7" stroke-linecap="round" stroke-linejoin="round" stroke-miterlimit="10" x1="38.5" y1="329.7" x2="38.5" y2="40"/>
	
		<polyline fill="none" stroke="#000000" stroke-width="7" stroke-linecap="round" stroke-linejoin="round" stroke-miterlimit="10" points="
		16,62 38.5,40 61,62 	"/>
	
		<polyline fill="none" stroke="#000000" stroke-width="7" stroke-linecap="round" stroke-linejoin="round" stroke-miterlimit="10" points="
		377,284.7 399,307.2 377,329.7 	"/>
</g>
<text transform="matrix(1 0 0 1 9.9707 29.4677)" font-family="'PermanentMarker'" font-size="31">spoken words</text>
<text transform="matrix(1 0 0 1 277.6234 358.797)" font-family="'PermanentMarker'" font-size="31">comfort</text>
<path fill="none" stroke="#B92D26" stroke-width="7" stroke-linecap="round" stroke-linejoin="round" stroke-miterlimit="10" d="
	M54.4,295.4c28.3,1.7,54.4-17.9,69.2-42.1s20.9-52.5,28-80c7.1-27.5,16.1-55.6,35.2-76.5c9.8-10.7,23.9-19.6,38.1-16.4
	c9.7,2.2,17.3,9.7,23.2,17.7c16.1,22,22.9,49.3,28.7,75.9s11.1,54,25.1,77.5s38.5,42.6,65.8,41.9"/>
</svg>
