 
 
 
<svg version="1.1" id="Layer_1" xmlns="http://www.w3.org/2000/svg" xmlns:xlink="http://www.w3.org/1999/xlink" x="0px" y="0px"
	 viewBox="0 0 752 387" enable-background="new 0 0 752 387" xml:space="preserve">
<path stroke="#FFFFFF" stroke-width="120" d="
	M61.6-25.2C35.1,59.9,8.6,145-17.9,230.2c5.5,4.6,14,3.4,19.8-0.8c5.8-4.2,9.3-10.7,12.4-17.1C42.1,155.1,52,90.4,81.2,33.9
	c11.4-22.1,31.1-45.4,55.8-42.3c10.4,23.3,4.8,50.8-6,73.9s-26.4,43.8-36.8,67.1c-13.8,30.7-18.3,64.8-27.7,97.2
	C51.7,280.6,24.1,329,22.8,382c9,1.7,15.7-8,19.7-16.3C86.9,274.8,129.2,182.9,169.3,90c14.4-33.3,29.3-67.8,56.5-91.7
	c3.2-2.8,6.9-5.6,11.2-5.4c8.4,0.2,12,10.7,12.9,19.1c7.8,75.7-26.2,148.7-59.3,217.2c5.9,12.8,24.4,15.2,36.7,8.3
	c12.3-6.9,19.4-20.2,25.1-33.1c29.7-68.2,35.5-150,87.7-202.9c1.9-2,4-3.9,6.5-5c6.9-3,15.2,1.4,19.1,7.8c3.9,6.4,4.5,14.2,4.9,21.7
	c3.2,59.8,1.1,119.8-6.3,179.2c-1.3,10.3-2.7,20.9,0.1,30.9c2.8,10,10.9,19.3,21.3,19.9c12.2,0.7,21.9-10.3,27-21.5
	c8.9-19.6,9.9-41.7,11.6-63.2c1.6-20,3.9-40,6.9-59.9c0.8-5,1.6-10.1,4.2-14.4c6.8-11.3,22.2-13.1,35.3-13.6
	c77.8-3.2,155.6-6.5,233.4-2.9c8.9,0.4,18.1,1,25.9,5.1c7.9,4.1,14.1,12.8,12.5,21.5c-2.3,12.7-17.8,17.4-30.7,18.7
	c-57.4,6-116.6-4.4-172.5,10.2c-14.5,3.8-31.2,12.7-31,27.7c0.1,9.3,7.4,17.4,15.9,21.2c8.5,3.8,18.1,4.3,27.4,4.7
	c44.5,2,89,4,133.5,6c4.9,0.2,10.6,0.8,13.4,4.9c3.8,5.5-0.6,13-5.5,17.5c-18.2,16.5-44.7,19.6-69.3,20c-58.5,1-118.4-8.3-174.7,7.8
	"/>
<g>
	
		<line stroke-width="7" x1="34.5" y1="382" x2="34.5" y2="49"/>
	<text transform="matrix(1 0 0 1 10.6426 26.2422)" font-family="'PermanentMarker'" font-size="31">how good of a person i am</text>
	
		<polyline stroke-width="7" points="
		12,71 34.5,49 57,71 	"/>
</g>
<g>
	
		<line stroke-width="7" x1="11" y1="145.5" x2="743" y2="145.5"/>
	
		<polyline stroke-width="7" points="
		721,123 743,145.5 721,168 	"/>
	<text transform="matrix(1 0 0 1 268.5605 96.3506)" font-family="'PermanentMarker'" font-size="31">how many people are watching</text>
</g>
<path stroke="#00A89C" stroke-width="7" d="M38.6,372.8
	c0-92,11-185,57-267c18-31,58-52,93-57c34-4,51,11,77,29c28,20,60,33,93,43c111,33,233,14,348,24"/>
<g>
	<path stroke="#231F20" stroke-width="7" d="M85.7,163.1
		c2,5.9,5.8,11,9.9,15.8c18.3,21.3,43.9,36.4,71.4,42"/>
	<text transform="matrix(1 0 0 1 184.6426 236.8232)" font-family="'PermanentMarker'" font-size="31">i’m me</text>
</g>
<g>
	<text transform="matrix(1 0 0 1 355.0156 256.8232)" font-family="'PermanentMarker'" font-size="31">i’m no one</text>
	<path stroke="#231F20" stroke-width="7" d="M529.2,236.9
		c12.1-14,29.9-21.7,47.7-26.8s36.3-8,53.5-14.8c17.2-6.8,33.6-18.4,40.9-35.4"/>
</g>
</svg>
