<?xml version="1.0" encoding="utf-8"?>
<!-- Generator: Adobe Illustrator 19.2.0, SVG Export Plug-In . SVG Version: 6.00 Build 0)  -->
<svg version="1.1" id="Layer_1" xmlns="http://www.w3.org/2000/svg" xmlns:xlink="http://www.w3.org/1999/xlink" x="0px" y="0px"
	 width="380.37px" height="388.76px" viewBox="0 0 380.37 388.76" enable-background="new 0 0 380.37 388.76" xml:space="preserve">
<path fill="none" stroke="#FFFFFF" stroke-width="120" stroke-linejoin="bevel" stroke-miterlimit="10" d="M21.53,0.63
	c-3.12,21.28-6.25,42.56-9.37,63.84C46.34,40.91,80.51,17.35,114.69-6.21c-1.81,19.58-3.61,39.16-5.42,58.74
	c36.8-20.21,73.6-40.41,110.4-60.62c-3.87,28.39-7.74,56.78-11.6,85.17c37.76-14.58,72.11-37.91,99.59-67.63
	c-2.33,13.32-4.66,26.63-6.99,39.95c15.71-17.26,31.43-34.52,47.14-51.78c4.45,15.01,8.95,30.44,7.61,46.04
	c-1.34,15.59-9.88,31.6-24.51,37.16c-20.93,7.95-42.59-7.46-61.81-18.95c-43.13-25.78-96.22-34.37-145.27-23.5
	c-29.46,6.53-57.9,20.24-78.49,42.31s-32.51,53.03-28.1,82.88c8.16-1.51,16.32-3.01,24.48-4.52c-6.54,22.9-13.08,45.8-19.61,68.7
	c6.59-2.28,13.19-4.55,19.78-6.83c-6.59,28.17-13.18,56.33-19.77,84.5c12.94-9.93,25.88-19.86,38.82-29.79
	c-11.04,30.77-22.09,61.55-33.13,92.32C94.16,234.02,203.72,121.93,336.09,52.52C267.44,167.78,135.11,237.48,78.23,358.99
	c36.88-29.94,73.77-59.88,110.65-89.82c-6.44,33.27-12.88,66.53-19.32,99.8c23.85-24.64,47.69-49.28,71.54-73.93
	c-7.97,26.77-15.94,53.53-23.91,80.3c26.73-33.89,53.46-67.77,80.19-101.66c-13.15,38.36-26.3,76.72-39.45,115.08
	c27.51-39.7,55.03-79.4,82.54-119.1c-10.92,38.67-21.84,77.33-32.76,116c22.95-29.72,45.9-59.45,68.86-89.17
	c-0.9,32.07-1.8,64.15-2.7,96.22"/>
<g>
	
		<line fill="none" stroke="#000000" stroke-width="7" stroke-linecap="round" stroke-linejoin="round" stroke-miterlimit="10" x1="44.44" y1="47.14" x2="44.44" y2="351.19"/>
	
		<polyline fill="none" stroke="#000000" stroke-width="7" stroke-linecap="round" stroke-linejoin="round" stroke-miterlimit="10" points="
		21.94,69.14 44.44,47.14 66.94,69.14 	"/>
</g>
<g>
	
		<line fill="none" stroke="#000000" stroke-width="7" stroke-linecap="round" stroke-linejoin="round" stroke-miterlimit="10" x1="21.94" y1="328.69" x2="362.34" y2="328.69"/>
	
		<polyline fill="none" stroke="#000000" stroke-width="7" stroke-linecap="round" stroke-linejoin="round" stroke-miterlimit="10" points="
		340.34,306.19 362.34,328.69 340.34,351.19 	"/>
</g>
<text transform="matrix(1 0 0 1 248.4102 383.2023)"><tspan x="0" y="0" font-family="'PermanentMarker'" font-size="30.74px">cynici</tspan><tspan x="80.93" y="0" font-family="'PermanentMarker'" font-size="30.74px">s</tspan><tspan x="94.89" y="0" font-family="'PermanentMarker'" font-size="30.74px">m</tspan></text>
<text transform="matrix(1 0 0 1 12.9879 29.0008)"><tspan x="0" y="0" font-family="'PermanentMarker'" font-size="30.74px">how prof</tspan><tspan x="140.04" y="0" font-family="'PermanentMarker'" font-size="30.74px">o</tspan><tspan x="158.77" y="0" font-family="'PermanentMarker'" font-size="30.74px">und </tspan><tspan x="220.76" y="0" font-family="'PermanentMarker'" font-size="30.74px">y</tspan><tspan x="232.14" y="0" font-family="'PermanentMarker'" font-size="30.74px">o</tspan><tspan x="250.87" y="0" font-family="'PermanentMarker'" font-size="30.74px">u </tspan><tspan x="280.23" y="0" font-family="'PermanentMarker'" font-size="30.74px">so</tspan><tspan x="312.62" y="0" font-family="'PermanentMarker'" font-size="30.74px">und</tspan></text>
<path fill="none" stroke="#0071B5" stroke-width="7" stroke-linecap="round" stroke-linejoin="round" stroke-miterlimit="10" d="
	M61.85,311.62c74.01-88.43,156.63-169.65,246.32-242.13"/>
</svg>
