<?xml version="1.0" encoding="utf-8"?>
<!-- Generator: Adobe Illustrator 19.2.0, SVG Export Plug-In . SVG Version: 6.00 Build 0)  -->
<svg version="1.1" id="Layer_1" xmlns="http://www.w3.org/2000/svg" xmlns:xlink="http://www.w3.org/1999/xlink" x="0px" y="0px"
	 width="961.19px" height="492.55px" viewBox="0 0 961.19 492.55" enable-background="new 0 0 961.19 492.55" xml:space="preserve">
<path fill="none" stroke="#FFFFFF" stroke-width="120" stroke-linejoin="bevel" stroke-miterlimit="10" d="M11.65,218.57
	c0.78,31.82,1.56,63.64,2.35,95.47c16.13-30.23,32.27-60.46,48.4-90.69c-1.47,34.75-2.95,69.5-4.42,104.26
	c23.46-39.37,46.92-78.73,70.38-118.1c-2.48,22.15-4.95,44.29-7.43,66.44c-0.56,5.04-1.13,10.11-0.65,15.16
	c2.55,26.8,40.5,42.01,60.85,24.4c20.35-17.61,10.75-57.35-15.41-63.72c11.19,18.64,22.39,37.28,33.58,55.91
	c-4.27-72.39,17.99-146.05,61.64-203.95S369.27,4.14,440.03-11.69c-30.66,36.69-61.31,73.38-91.97,110.07
	c37.8-48.4,84.16-90.09,136.28-122.55c-14.12,24.26-28.23,48.52-42.35,72.78c36.94-24.05,73.89-48.09,110.83-72.14
	c-18.63,32.43-37.25,64.85-55.88,97.28c27.37-23.98,54.75-47.96,82.12-71.94c-8.14,20.19-16.29,40.38-24.43,60.58
	c23.51-22.65,47.03-45.3,70.54-67.96c-18.43,41.72-65.57,63.33-110.65,70.28c-45.08,6.95-91.44,2.99-136.22,11.62
	s-90.78,34.26-104.45,77.77c61.8-22.35,118.69-58.17,165.56-104.25c-36.35,35.63-72.7,71.26-109.05,106.89
	c33.03-18.63,66.06-37.26,99.08-55.89c-10.4,23.02-20.8,46.03-31.2,69.05c53.31-51.09,116.47-91.86,184.97-119.43
	c-41.34,47.15-82.67,94.31-124.01,141.46C520.61,131.97,582,72.03,643.4,12.09c-30.3,54.64-60.61,109.28-90.91,163.92
	c38.04-42.46,76.08-84.91,114.11-127.37c-13.4,37.05-26.81,74.11-40.21,111.16c14.36-33.98,28.72-67.97,43.08-101.95
	c14.47,3.34,15.66,23.32,13.26,37.97s-2.21,34.38,11.97,38.8c14.01,4.37,25.41-11.38,31.67-24.65
	c20.04,52.17,25.58,109.82,15.84,164.86c21.55-33.13,43.1-66.27,64.66-99.4c-17.71,41.46-35.43,82.91-53.14,124.37
	c32.42-36.17,64.84-72.34,97.26-108.51c-15.02,36.01-30.05,72.02-45.07,108.03c24.03-33.34,48.06-66.67,72.09-100.01
	c-12.52,37.8-25.04,75.6-37.56,113.39c20.65-18.63,41.3-37.27,61.94-55.9c-3.39,16.73-6.78,33.46-10.17,50.2
	c12.04-17.69,24.08-35.38,36.12-53.07c6.64,19.49,13.37,39.57,12.26,60.12c-1.11,20.56-11.94,41.98-31.13,49.42
	c-16.3,6.32-35.17,1.35-49.85-8.16c-14.68-9.5-26.18-23.05-38.23-35.72c-77.79-81.75-187.88-131.91-300.62-136.96
	c-112.74-5.05-226.87,35.05-311.67,109.52c22.99-10.35,59.25-66.67,82.24-77.01c9.55,9.92,13.49,57.09,24.32,48.58
	c-2.73,7.49-5.47,14.98-8.2,22.48c19.78-18.27,39.57-36.55,59.35-54.82c-3.47,15.93-6.93,31.87-10.4,47.8
	c40.97-18.37,81.95-36.73,122.92-55.1c-20.75,28.85-41.51,57.69-62.26,86.54c31.89-29.05,63.78-58.1,95.66-87.15
	c-20.72,25.45-41.45,50.9-62.17,76.35c23.62-27.72,47.25-55.44,70.87-83.17c-8.98,35.36-17.96,70.71-26.94,106.07
	c19.88-22.48,39.77-44.96,59.65-67.45c-12.6,35.35-25.21,70.7-37.81,106.06c25.01,3.83,51.62-4.82,69.6-22.62
	c-4.91,18.39-9.81,36.77-14.72,55.16c18.75-20.11,37.5-40.21,56.25-60.32c0.71,8.42,1.41,16.83,2.12,25.25
	c21.6-16.21,43.21-32.42,64.81-48.63c3.43,5.2,6.85,10.4,10.28,15.6c0.49-12.86,0.99-25.72,1.48-38.59c4.7,1.52,9.4,3.05,14.09,4.57
	c0.97-6.56,1.94-13.12,2.91-19.67c19.8,40.54,39.92,87.49,22.46,129.09c-18.66,44.47-72.08,62.31-120.01,67.63
	c-27.01,3-54.72,3.63-80.99-3.32c-14.17-3.75-28.5-10.27-36.74-22.4c-14.29-21.03-4.26-51.47,15.1-67.95
	c19.36-16.48,45.27-22.49,70.09-27.97c-25.61,40.71-51.22,81.43-76.83,122.14c38.07-33.73,76.13-67.46,114.2-101.2
	c-20.81,33.35-41.62,66.69-62.43,100.04c27.06-20.05,54.12-40.11,81.17-60.16c-5.19,24.31-1.33,50.44,10.68,72.21
	c49.96-32.41,75.32-98.49,59.88-156.01c-8.89-33.12-33.18-64.63-66.89-70.93c-25.44-4.76-51.06,5.28-75,15.11
	c-22.96,9.43-45.92,18.87-68.88,28.3c-17.5,7.19-35.96,15.14-46.78,30.66c-14.51,20.82-11.09,48.61-9.71,73.95
	c1.37,25.34-2.3,55.11-24.03,68.2c-0.77-41.62-1.54-83.24-2.31-124.86c-17.53,41.76-35.07,83.51-52.6,125.27
	c17.63-6.02,30.41-24.05,30.27-42.67c-0.15-18.63-13.21-36.45-30.93-42.2c-9.66-3.13-20.18-2.88-30.1-0.69
	c-46.7,10.32-75.49,68.94-55.11,112.2c12.83-39.36,25.67-78.73,38.5-118.09c4.72,38.99,9.43,77.98,14.15,116.96
	c-14.27-78.27-51.93-152.13-106.9-209.64c-20.87,35.82-25.98,80.46-13.73,120.06s41.65,73.58,79.09,91.37"/>
<g>
	<path fill="none" stroke="#000000" stroke-width="7" stroke-linecap="round" stroke-linejoin="round" stroke-miterlimit="10" d="
		M378.14,42.54c-67.61-5.91-147.55,55.44-158.4,126.91s33.51,147.17,97.78,170.32c64.28,23.15,141.15-6.95,178.1-67.66
		c28.43-46.7,32.91-110.55,6.34-158.48S390.5,28.88,341.13,46.92"/>
	<text transform="matrix(1 0 0 1 321.0851 96.213)"><tspan x="0" y="0" font-family="'PermanentMarker'" font-size="30.74px">wh</tspan><tspan x="43.26" y="0" font-family="'PermanentMarker'" font-size="30.74px" letter-spacing="-1">a</tspan><tspan x="59.59" y="0" font-family="'PermanentMarker'" font-size="30.74px">t i</tspan><tspan x="-34.99" y="30" font-family="'PermanentMarker'" font-size="30.74px">w</tspan><tspan x="-9.92" y="30" font-family="'PermanentMarker'" font-size="30.74px">ant </tspan><tspan x="51.41" y="30" font-family="'PermanentMarker'" font-size="30.74px">t</tspan><tspan x="65.22" y="30" font-family="'PermanentMarker'" font-size="30.74px">o do</tspan><tspan x="-15.88" y="60" font-family="'PermanentMarker'" font-size="30.74px">with </tspan><tspan x="63.34" y="60" font-family="'PermanentMarker'" font-size="30.74px">y</tspan><tspan x="74.72" y="60" font-family="'PermanentMarker'" font-size="30.74px">o</tspan><tspan x="93.45" y="60" font-family="'PermanentMarker'" font-size="30.74px">u</tspan></text>
</g>
<g>
	<path fill="none" stroke="#000000" stroke-width="7" stroke-linecap="round" stroke-linejoin="round" stroke-miterlimit="10" d="
		M341.54,189.9c-69.87,19.77-123.09,93.33-123.44,170.63c-0.13,27.9,6.37,56.58,22.47,78.53c20.24,27.58,53.26,41.39,85.81,45.56
		c59.27,7.59,122.82-15.48,160.46-65.03s44.71-125.4,11.48-178.44s-112.6-69.83-171.25-46.3"/>
	<text transform="matrix(1 0 0 1 301.9633 386.4512)"><tspan x="0" y="0" font-family="'PermanentMarker'" font-size="30.74px">wh</tspan><tspan x="43.26" y="0" font-family="'PermanentMarker'" font-size="30.74px" letter-spacing="-1">a</tspan><tspan x="59.59" y="0" font-family="'PermanentMarker'" font-size="30.74px">t </tspan><tspan x="85.71" y="0" font-family="'PermanentMarker'" font-size="30.74px">y</tspan><tspan x="97.08" y="0" font-family="'PermanentMarker'" font-size="30.74px">o</tspan><tspan x="115.82" y="0" font-family="'PermanentMarker'" font-size="30.74px">u</tspan><tspan x="18.4" y="30" font-family="'PermanentMarker'" font-size="30.74px">can do</tspan><tspan x="6.75" y="60" font-family="'PermanentMarker'" font-size="30.74px">with me</tspan></text>
</g>
<g>
	<path fill="none" stroke="#00A9A3" stroke-width="7" stroke-linecap="round" stroke-linejoin="round" stroke-miterlimit="10" d="
		M326.96,262.01c0.4,4.52,0.81,9.04,1.21,13.56c-4.01-0.89-8.18-1.04-12.24-0.44"/>
	<path fill="none" stroke="#00A9A3" stroke-width="7" stroke-linecap="round" stroke-linejoin="round" stroke-miterlimit="10" d="
		M324.57,271.08c-13.7-10.38-31.86-14.63-48.74-11.42c-12.62,2.4-24.11,8.64-35.97,13.56c-11.86,4.92-24.99,8.59-37.46,5.52"/>
	<text transform="matrix(1 0 0 1 81.9445 248.3441)"><tspan x="0" y="0" fill="#00A9A3" font-family="'PermanentMarker'" font-size="30.74px">my i</tspan><tspan x="58.57" y="0" fill="#00A9A3" font-family="'PermanentMarker'" font-size="30.74px">d</tspan><tspan x="73.55" y="0" fill="#00A9A3" font-family="'PermanentMarker'" font-size="30.74px">ea</tspan><tspan x="-77.09" y="30" fill="#00A9A3" font-family="'PermanentMarker'" font-size="30.74px">of </tspan><tspan x="-32.39" y="30" fill="#00A9A3" font-family="'PermanentMarker'" font-size="30.74px">o</tspan><tspan x="-13.66" y="30" fill="#00A9A3" font-family="'PermanentMarker'" font-size="30.74px">ur i</tspan><tspan x="42.18" y="30" fill="#00A9A3" font-family="'PermanentMarker'" font-size="30.74px">d</tspan><tspan x="57.16" y="30" fill="#00A9A3" font-family="'PermanentMarker'" font-size="30.74px">eal</tspan><tspan x="-76.73" y="60" fill="#00A9A3" font-family="'PermanentMarker'" font-size="30.74px">rel</tspan><tspan x="-27.68" y="60" fill="#00A9A3" font-family="'PermanentMarker'" font-size="30.74px" letter-spacing="-1">a</tspan><tspan x="-11.35" y="60" fill="#00A9A3" font-family="'PermanentMarker'" font-size="30.74px">t</tspan><tspan x="3.39" y="60" fill="#00A9A3" font-family="'PermanentMarker'" font-size="30.74px">i</tspan><tspan x="12.64" y="60" fill="#00A9A3" font-family="'PermanentMarker'" font-size="30.74px">onship</tspan></text>
</g>
<g>
	<path fill="none" stroke="#000000" stroke-width="7" stroke-linecap="round" stroke-linejoin="round" stroke-miterlimit="10" d="
		M598.15,46.19c-48.99-1.23-113.83,46.4-134.01,91.82c-20.18,45.41-13.52,101.24,14.32,142.25c23.69,34.89,61.91,59.22,103.13,65.64
		c53.91,8.39,111.69-15.23,144.2-59.76c38.42-52.62,37.42-131.37-2.3-182.97C683.76,51.57,608.82,31.7,549.37,57"/>
	<text transform="matrix(1 0 0 1 555.4269 96.213)"><tspan x="0" y="0" font-family="'PermanentMarker'" font-size="30.74px">wh</tspan><tspan x="43.26" y="0" font-family="'PermanentMarker'" font-size="30.74px" letter-spacing="-1">a</tspan><tspan x="59.59" y="0" font-family="'PermanentMarker'" font-size="30.74px">t i</tspan><tspan x="-0.72" y="30" font-family="'PermanentMarker'" font-size="30.74px">can do</tspan><tspan x="-15.88" y="60" font-family="'PermanentMarker'" font-size="30.74px">with </tspan><tspan x="63.34" y="60" font-family="'PermanentMarker'" font-size="30.74px">y</tspan><tspan x="74.72" y="60" font-family="'PermanentMarker'" font-size="30.74px">o</tspan><tspan x="93.45" y="60" font-family="'PermanentMarker'" font-size="30.74px">u</tspan></text>
</g>
<g>
	<path fill="none" stroke="#000000" stroke-width="7" stroke-linecap="round" stroke-linejoin="round" stroke-miterlimit="10" d="
		M552.33,189.84c-46.82,8.8-86.12,52.83-96.76,104.98c-10.64,52.15,6.6,109.59,41.38,146.01s85.35,51.66,132.15,42.7
		c51.63-9.88,99.07-50.14,117.21-105.52s3.51-123.83-38-159.82C665.39,180.98,606.63,178.23,552.33,189.84"/>
	<text transform="matrix(1 0 0 1 536.3053 386.4512)"><tspan x="0" y="0" font-family="'PermanentMarker'" font-size="30.74px">wh</tspan><tspan x="43.26" y="0" font-family="'PermanentMarker'" font-size="30.74px" letter-spacing="-1">a</tspan><tspan x="59.59" y="0" font-family="'PermanentMarker'" font-size="30.74px">t </tspan><tspan x="85.71" y="0" font-family="'PermanentMarker'" font-size="30.74px">y</tspan><tspan x="97.08" y="0" font-family="'PermanentMarker'" font-size="30.74px">o</tspan><tspan x="115.82" y="0" font-family="'PermanentMarker'" font-size="30.74px">u</tspan><tspan x="-15.87" y="30" font-family="'PermanentMarker'" font-size="30.74px">w</tspan><tspan x="9.2" y="30" font-family="'PermanentMarker'" font-size="30.74px">ant </tspan><tspan x="70.53" y="30" font-family="'PermanentMarker'" font-size="30.74px">t</tspan><tspan x="84.34" y="30" font-family="'PermanentMarker'" font-size="30.74px">o do</tspan><tspan x="6.75" y="60" font-family="'PermanentMarker'" font-size="30.74px">with me</tspan></text>
</g>
<g>
	<path fill="none" stroke="#00A9A3" stroke-width="7" stroke-linecap="round" stroke-linejoin="round" stroke-miterlimit="10" d="
		M610.86,261.65c0.01,3.54,0.02,7.09,0.03,10.63c4.16-0.69,8.33-1.38,12.49-2.07"/>
	<path fill="none" stroke="#00A9A3" stroke-width="7" stroke-linecap="round" stroke-linejoin="round" stroke-miterlimit="10" d="
		M613.23,268.45c4.86-6.73,13.36-10.02,21.64-10.6s16.51,1.19,24.66,2.74c40.86,7.77,57.27,10.59,98.76,7.71"/>
	<text transform="matrix(1 0 0 1 769.5831 241.5948)"><tspan x="0" y="0" fill="#00A9A3" font-family="'PermanentMarker'" font-size="30.74px">y</tspan><tspan x="11.38" y="0" fill="#00A9A3" font-family="'PermanentMarker'" font-size="30.74px">o</tspan><tspan x="30.11" y="0" fill="#00A9A3" font-family="'PermanentMarker'" font-size="30.74px">ur i</tspan><tspan x="85.95" y="0" fill="#00A9A3" font-family="'PermanentMarker'" font-size="30.74px">d</tspan><tspan x="100.93" y="0" fill="#00A9A3" font-family="'PermanentMarker'" font-size="30.74px">ea</tspan><tspan x="0" y="30" fill="#00A9A3" font-family="'PermanentMarker'" font-size="30.74px">of </tspan><tspan x="44.7" y="30" fill="#00A9A3" font-family="'PermanentMarker'" font-size="30.74px">o</tspan><tspan x="63.43" y="30" fill="#00A9A3" font-family="'PermanentMarker'" font-size="30.74px">ur i</tspan><tspan x="119.27" y="30" fill="#00A9A3" font-family="'PermanentMarker'" font-size="30.74px">d</tspan><tspan x="134.25" y="30" fill="#00A9A3" font-family="'PermanentMarker'" font-size="30.74px">eal</tspan><tspan x="0" y="60" fill="#00A9A3" font-family="'PermanentMarker'" font-size="30.74px">rel</tspan><tspan x="49.05" y="60" fill="#00A9A3" font-family="'PermanentMarker'" font-size="30.74px" letter-spacing="-1">a</tspan><tspan x="65.38" y="60" fill="#00A9A3" font-family="'PermanentMarker'" font-size="30.74px">t</tspan><tspan x="80.12" y="60" fill="#00A9A3" font-family="'PermanentMarker'" font-size="30.74px">i</tspan><tspan x="89.37" y="60" fill="#00A9A3" font-family="'PermanentMarker'" font-size="30.74px">onship</tspan></text>
</g>
<g>
	<path fill="none" stroke="#DA1C5C" stroke-width="7" stroke-linecap="round" stroke-linejoin="round" stroke-miterlimit="10" d="
		M489.15,235.75c-1.47,0.85-2.95,1.7-4.42,2.56c2.35-0.12,4.71-0.25,7.06-0.37c-3.4,1.4-6.81,2.8-10.21,4.2
		c3.72-0.52,7.44-1.04,11.16-1.55c-4.27,1.8-8.54,3.6-12.81,5.4c4.58-0.73,9.16-1.46,13.74-2.19c-5.86,2.68-11.72,5.36-17.59,8.04
		c6.79-1.43,13.59-2.86,20.38-4.28c-7.16,5.44-15.4,9.45-24.09,11.73c9.12-2.21,18.23-4.41,27.35-6.62
		c-8.92,4.19-17.85,8.37-26.77,12.56c8.18-2.48,16.35-4.96,24.53-7.43c-7.25,4.11-14.51,8.22-21.76,12.33
		c5.98-1.71,11.95-3.42,17.93-5.13c-4.9,3.23-9.79,6.45-14.69,9.68c3.67-1.16,7.34-2.32,11.01-3.47c-2.98,1.94-5.96,3.88-8.94,5.82
		c2.76-0.97,5.53-1.94,8.29-2.91c-2.2,2.12-4.4,4.23-6.6,6.35"/>
	<text transform="matrix(1 0 0 1 361.8862 26.7785)"><tspan x="0" y="0" fill="#DA1C5C" font-family="'PermanentMarker'" font-size="30.74px">o</tspan><tspan x="18.73" y="0" fill="#DA1C5C" font-family="'PermanentMarker'" font-size="30.74px">ur rel</tspan><tspan x="113.77" y="0" fill="#DA1C5C" font-family="'PermanentMarker'" font-size="30.74px" letter-spacing="-1">a</tspan><tspan x="130.1" y="0" fill="#DA1C5C" font-family="'PermanentMarker'" font-size="30.74px">t</tspan><tspan x="144.84" y="0" fill="#DA1C5C" font-family="'PermanentMarker'" font-size="30.74px">i</tspan><tspan x="154.09" y="0" fill="#DA1C5C" font-family="'PermanentMarker'" font-size="30.74px">onship</tspan></text>
	<path fill="none" stroke="#DA1C5C" stroke-width="7" stroke-linecap="round" stroke-linejoin="round" stroke-miterlimit="10" d="
		M489.53,215.14c-5.1-7.57-4.14-17.95-0.09-26.13s10.7-14.72,17.02-21.31c6.31-6.59,12.56-13.67,15.45-22.34
		c4.09-12.29,0.72-25.99-5.42-37.4c-6.14-11.41-14.85-21.18-22.41-31.7c-7.56-10.52-14.15-22.36-15.02-35.29"/>
	<path fill="none" stroke="#DA1C5C" stroke-width="7" stroke-linecap="round" stroke-linejoin="round" stroke-miterlimit="10" d="
		M483.11,214.26c1.7,2.55,3.39,5.1,5.09,7.65c2.11-3.43,4.23-6.86,6.34-10.29"/>
</g>
</svg>
