<?xml version="1.0" encoding="utf-8"?>
<!-- Generator: Adobe Illustrator 18.0.0, SVG Export Plug-In . SVG Version: 6.00 Build 0)  -->
<!DOCTYPE svg PUBLIC "-//W3C//DTD SVG 1.1//EN" "http://www.w3.org/Graphics/SVG/1.1/DTD/svg11.dtd">
<svg version="1.1" id="Layer_1" xmlns="http://www.w3.org/2000/svg" xmlns:xlink="http://www.w3.org/1999/xlink" x="0px" y="0px"
	 viewBox="0 0 494.9 294" enable-background="new 0 0 494.9 294" xml:space="preserve">
<path fill="none" stroke="#FFFFFF" stroke-width="120" stroke-linejoin="bevel" stroke-miterlimit="10" d="M34.6,4.8
	c-9.8,7.1-20,14.8-24.6,25.9S9.3,57.5,20.8,61.1c12.4,3.8,23.8-7.2,33.2-16C80.9,19.9,117.5,5.6,154.3,5.7
	c-1.7,13-3.5,25.9-5.2,38.9c5.4,8.2,18.5,4,25.4-3s12.9-16.5,22.7-17.7c9.9-1.3,18.9,7.6,21.3,17.3s0.2,19.9-2.1,29.7
	c22.4-2.4,35.1,28.1,57.1,32.8c9.7,2.1,19.9-1.4,28-7.1c8.1-5.7,14.5-13.5,20.8-21.2c-3.6,13.4-1.7,28.7,6.8,39.7s23.6,17.1,37,13.2
	c11.2-3.3,19.6-12.5,26.7-21.9s13.6-19.5,23.4-25.9c9.8-6.4,24-8,32.6,0c10.6,9.9,6.5,28.6-3.8,38.8s-24.7,14.9-37.7,21.4
	c-24.1,12.2-44.2,32.3-56.5,56.3c-5.9,11.5-10,23.8-16.3,35.1c-6.3,11.3-15.4,21.7-27.6,26c6.3-26.3,12.5-52.6,18.8-78.9
	c1.6-6.8,3.2-13.7,2.6-20.7c-0.7-7-4-14-10.2-17.3c-7.6-4.1-17.5-1.2-23.9,4.6c-6.4,5.8-10.3,13.8-13.9,21.7
	c-17.8,38.3-35.6,76.6-53.4,114.9c-13.8-19.2-13.6-44.7-12.4-68.3c1.2-23.6,2.7-48.8-9.3-69.1c-4.8-8.1-11.5-14.9-18.4-21.3
	c-13.6-12.5-28.6-23.5-44.5-32.9C119.6,77.5,95.2,67.7,70,61c-6.5-1.7-13.5-3.2-19.7-0.6c-6.7,2.7-10.7,9.5-13.9,15.9
	c-8.6,17.7-14.1,36.9-16,56.5c-1.9,19.6-0.4,39.4,1.2,59c2,24.8,3.9,49.5,5.9,74.3c0.4,5.1,1.4,11.1,6.1,13.2c4,1.8,9-0.5,11.5-4.2
	s3.2-8.2,3.9-12.6c7.3-50.8,14.7-101.5,22-152.3c6.4,22.2,12.9,44.4,19.3,66.6c2,6.9,4.1,14,8.2,19.8c8.5,12.1,24.5,17.2,39.3,16.3
	s28.8-6.6,42.5-12.4"/>
<line fill="none" stroke="#000000" stroke-width="7" stroke-linecap="round" stroke-miterlimit="10" x1="35.2" y1="286.4" x2="35.2" y2="67.5"/>
<line fill="none" stroke="#000000" stroke-width="7" stroke-linecap="round" stroke-miterlimit="10" x1="12.7" y1="164" x2="382.7" y2="164"/>
<g>
	<text transform="matrix(1 0 0 1 9.3198 24.7437)"><tspan x="0" y="0" font-family="'PermanentMarker'" font-size="31">how good of</tspan><tspan x="0" y="30" font-family="'PermanentMarker'" font-size="31">a person i am</tspan></text>
	
		<polyline fill="none" stroke="#000000" stroke-width="7" stroke-linecap="round" stroke-linejoin="round" stroke-miterlimit="10" points="
		12.7,89.5 35.2,67.5 57.7,89.5 	"/>
</g>
<g>
	
		<polyline fill="none" stroke="#000000" stroke-width="7" stroke-linecap="round" stroke-linejoin="round" stroke-miterlimit="10" points="
		360.7,141.5 382.7,164 360.7,186.5 	"/>
	<text transform="matrix(1 0 0 1 230.6235 96.6846)"><tspan x="0" y="0" font-family="'PermanentMarker'" font-size="31">how many people</tspan><tspan x="28.8" y="30" font-family="'PermanentMarker'" font-size="31">are watching</tspan></text>
</g>
<path fill="none" stroke="#00A79B" stroke-width="7" stroke-linecap="round" stroke-miterlimit="10" d="M44.6,280.8
	c9.6-46.4,14.5-92.8,24.2-139.2c3.1-14.8,6.4-30.1,15.1-42.5s24.4-21.2,39-17.3c12.1,3.3,20.4,14,29.3,23
	c22.4,22.6,52.9,35.8,84,42.6s63.1,7.5,95,8.2"/>
<g>
	<path fill="none" stroke="#000000" stroke-width="7" stroke-linecap="round" stroke-miterlimit="10" d="M73.3,177.1
		c1.1,5.5,2.3,11.2,5.4,15.9s8.6,8.3,14.2,7.4"/>
	<text transform="matrix(1 0 0 1 100.3213 212.0752)" font-family="'PermanentMarker'" font-size="31">i’m me</text>
</g>
<g>
	<path fill="none" stroke="#000000" stroke-width="7" stroke-linecap="round" stroke-miterlimit="10" d="M326.5,174.8
		c-4.4,4.7-2.5,12.5,1.2,17.7c3.7,5.2,9.1,9.3,11.8,15.1c4.5,9.6,0.4,21.5-7.3,28.8s-18.3,10.6-28.7,12.5"/>
	<text transform="matrix(1 0 0 1 140.6934 257.3252)" font-family="'PermanentMarker'" font-size="31">i’m no one</text>
</g>
</svg>
