<?xml version="1.0" encoding="utf-8"?>
<!-- Generator: Adobe Illustrator 18.0.0, SVG Export Plug-In . SVG Version: 6.00 Build 0)  -->
<!DOCTYPE svg PUBLIC "-//W3C//DTD SVG 1.1//EN" "http://www.w3.org/Graphics/SVG/1.1/DTD/svg11.dtd">
<svg version="1.1" id="Layer_1" xmlns="http://www.w3.org/2000/svg" xmlns:xlink="http://www.w3.org/1999/xlink" x="0px" y="0px"
	 viewBox="0 0 615 412.4" enable-background="new 0 0 615 412.4" xml:space="preserve">
<path fill="none" stroke="#FFFFFF" stroke-width="120" stroke-linejoin="bevel" stroke-miterlimit="10" d="M615,321.5
	c-28,0.2-69.6,6.3-92.3,22.6c-32.8,23.5-65.7,47-98.5,70.4c-4.8-27.8,12.9-53.8,28.9-77s32-51.1,23.6-78
	c-11.2-8.4-28.1-2.6-37.3,7.9c-9.2,10.6-13.1,24.5-18.7,37.3c-23.1,53.1-80.6,89.1-138.4,86.8c-5.6-13.4-2.6-29.2,4.8-41.8
	c7.3-12.6,18.5-22.4,29.8-31.6c12-9.7,25.8-23.8,19.9-38.1c-5.3-12.7-23.8-14.4-35.5-7.2c-11.7,7.2-18.5,20-25.8,31.7
	c-29.7,47.2-77.1,82.9-130.6,98.4c-11-20-7.4-45.4,3.5-65.4c10.9-20,28.2-35.7,45.2-50.7c6.5-5.7,13.6-13.9,10.2-21.8
	c-2.4-5.5-9.3-7.9-15.1-6.7s-10.7,5.2-14.9,9.5c-17.5,18.2-25.4,43.2-38.2,64.9c-12.8,21.7-34.8,42-59.8,38.7
	C54,368.7,38,348.7,32.5,327.7s-3-43.2-1.6-65c3.9-59.1-0.9-118.7-14.1-176.5C14,74.2,11,61.1,16.4,50c8.3-17.1,31-20,50-20.6
	c149-4.6,297.9-9.2,446.9-13.9c8-0.2,16.9-0.2,22.7,5.4c10.5,10.1,2,27.6-7.3,38.7c-57.8,69-140.2,117-228.7,133.3
	c-64.1,11.8-131.2,7.6-193.5,27c-7.1,2.2-14.8,5.3-18.3,11.9c-4.1,7.8-0.3,18.1,6.7,23.5c7,5.5,16.2,7.1,25,7.3
	c31.2,0.9,60.8-12.4,90.9-20.6c106.1-28.9,252.2,3.9,358.7-23.6"/>
<g>
	
		<line fill="none" stroke="#000000" stroke-width="7" stroke-linecap="round" stroke-linejoin="round" stroke-miterlimit="10" x1="37" y1="56.6" x2="37" y2="344"/>
	
		<line fill="none" stroke="#000000" stroke-width="7" stroke-linecap="round" stroke-linejoin="round" stroke-miterlimit="10" x1="14.2" y1="321.5" x2="597.6" y2="321.5"/>
	
		<polyline fill="none" stroke="#000000" stroke-width="7" stroke-linecap="round" stroke-linejoin="round" stroke-miterlimit="10" points="
		14.5,78.6 37,56.6 59.5,78.6 	"/>
	
		<polyline fill="none" stroke="#000000" stroke-width="7" stroke-linecap="round" stroke-linejoin="round" stroke-miterlimit="10" points="
		575.6,299 597.6,321.5 575.6,344 	"/>
</g>
<text transform="matrix(1 0 0 1 9.5239 38.9434)" font-family="'PermanentMarker'" font-size="30.7418">probability of law being adopted</text>
<g>
	<text transform="matrix(1 0 0 1 94.1006 366.4253)" fill="#9E005D" font-family="'PermanentMarker'" font-size="30.7418">average citizens’ preference</text>
	<path fill="none" stroke="#9E005D" stroke-width="7" stroke-linecap="round" stroke-miterlimit="10" d="M48.2,233.2
		c62.9-9.3,126.6-13,190.1-9.8c45.1,2.3,90.1,8.1,135.3,9c60.6,1.2,121-6.3,181.1-13.8"/>
</g>
<g>
	<text transform="matrix(1 0 0 1 98.2437 400.3521)" fill="#2E3192" font-family="'PermanentMarker'" font-size="30.7418">economic elites’ preference</text>
	<path fill="none" stroke="#2E3192" stroke-width="7" stroke-linecap="round" stroke-miterlimit="10" d="M50.1,311.2
		c53.5-59.4,123.6-108.9,203.2-116.9c32.1-3.2,64.7,0.4,96.7-3.5c45.3-5.6,88.2-26.5,122.6-56.6S532.8,64.9,550,22.6"/>
</g>
</svg>
