<?xml version="1.0" encoding="utf-8"?>
<!-- Generator: Adobe Illustrator 19.2.0, SVG Export Plug-In . SVG Version: 6.00 Build 0)  -->
<svg version="1.1" id="Layer_1" xmlns="http://www.w3.org/2000/svg" xmlns:xlink="http://www.w3.org/1999/xlink" x="0px" y="0px"
	 width="506.8px" height="258.2px" viewBox="0 0 506.8 258.2" enable-background="new 0 0 506.8 258.2" xml:space="preserve">
<path fill="none" stroke="#FFFFFF" stroke-width="120" stroke-linejoin="bevel" stroke-miterlimit="10" d="M88.2,40.7
	c4.4-6.4,8.9-13,15.4-17.2c6.5-4.2,15.5-5.5,21.9-1c7.2,5.1,8.3,15.4,13.6,22.5c7.9,10.8,24,12.4,36.5,7.9
	c12.6-4.6,22.7-13.9,33.2-22.1s22.6-15.9,35.9-16c11.7-0.1,22.9,5.7,31.6,13.6s15.2,17.9,21.6,27.7c10.4-11.6,21-23.4,34.1-31.8
	s29.4-13.2,44.5-9.4c16.8,4.2,29.7,18,46,23.8c24.6,8.7,54.7-4.9,64.5-29c-34.5,5-69.1,10-103.6,15c-35.6,5.1-72.8,10.9-102,32
	c-18.2,13.1-33.7,32.3-55.8,36c-7.2,1.2-14.7,0.7-21.6,3c-6.9,2.4-13.2,9.1-11.5,16.2c1.7,7.1,10.6,10.3,17.6,8.5
	c7-1.8,12.5-7.2,17.6-12.4c15.3-15.4,30.6-30.9,46-46.3c-1.3,18.3-2.5,36.5-3.8,54.8c18.7-16.1,37.4-32.2,56.1-48.3
	c10.4,9,10,26.6,1.7,37.6s-22.4,16.3-36.1,17.9c-13.7,1.6-27.6,0-41.4-0.1c-38.4-0.1-76.7,12.6-107.5,35.5
	c11.7,6.9,26.6,8.2,39.4,3.3c12.7-4.8,23-15.7,27.2-28.6c-3,11.1-4.2,26.1,6.2,30.9c9.1,4.2,19.2-3.6,24.8-11.9s10.7-18.3,20.2-21.3
	c-2.2,16,0.9,32.8,8.7,47c14.7-17.1,29.3-34.3,44-51.4c5.1,14.3,10.2,28.5,15.3,42.8c-81.4,4.9-162.7,9.9-244.1,14.8
	c-13.4,0.8-27,1.7-39.7,5.9c-8.5,2.8-16.8,7.4-21.6,14.9c-4.8,7.6-4.9,18.6,1.7,24.7c7,6.6,18.7,5.2,26.6-0.3
	c7.9-5.5,12.9-14.1,18.1-22.1s11.3-16.2,20.1-20c2.4,11.1,5,22.6,12.1,31.5c7,8.9,19.8,14.4,30.1,9.5c9.3-4.5,13.2-15.4,19-23.9
	s18.1-15.5,25.9-8.7c7.1,6.3,4.5,19.8,12.6,25c5.8,3.7,13.7,0.4,18.2-4.8s6.9-11.8,11-17.3s11-10,17.5-7.9c-2.2,8.4-4.4,17-3.3,25.7
	c1.1,8.6,6.2,17.3,14.4,20c12.5,4.1,25-6.8,31.2-18.4c6.2-11.6,9.6-25.2,19.4-34c8.5,20.8,16.9,41.6,25.4,62.4
	c9.8-15.3,19.6-30.7,29.4-46c5.4-8.4,13.6-18,23.2-15.2c6.4,1.9,10,8.8,11.3,15.3s1.1,13.4,3.4,19.7c2.3,6.3,8.4,12,15,10.7
	c14.4-2.8,10.9-31.6,25.6-32.8c6.7-0.5,11.9,6.1,13.7,12.6c1.7,6.5,1.4,13.6,4,19.8c2.6,6.2,10.1,11.3,16,8.1
	c1.4-17.7,2.9-35.4,4.3-53"/>
<g id="Arrow_right">
</g>
<text transform="matrix(1 0 0 1 86.8862 38.5008)" font-family="'PermanentMarker'" font-size="30.74px">efficacy of contraception</text>
<path fill="none" stroke="#000000" stroke-width="7" stroke-linecap="round" stroke-linejoin="round" stroke-miterlimit="10" d="
	M256.3,69.7c2.1,55.7,2.4,111.6,0.9,167.3"/>
<g>
	<text transform="matrix(1 0 0 1 186.9179 108.4034)" font-family="'PermanentMarker'" font-size="30.74px">pill</text>
	<path fill="none" stroke="#9F2214" stroke-width="7" stroke-linecap="round" stroke-linejoin="round" stroke-miterlimit="10" d="
		M263.7,77.1c0,6.9,0,26.8,0,33.6c1.3-7,2.9-22.6,4.2-29.7c0.9,6.5,1.5,24.9,2.4,31.4c0.4-8.2,0.9-23.4,1.3-31.7c1,11,2.1,22,3.1,33
		c1.6-11.5,1.4-22.7,3-34.3c0.1,11.8,1.9,23.3,2,35.1c2.1-14.6,3-22.4,5-37c0.2,14,1.6,21.1,1.9,35.1c1-10.1,1.9-20.2,2.9-30.4
		c0.8,9.9,1.6,19.7,2.5,29.6c1-10.7,2.1-21.3,3.1-32c0.3,11.9,0.8,22.1,1.1,33.9c1.5-11.7,2.7-21.7,4.2-33.5
		c0.5,12.4,1.7,19.5,2.2,31.9c1.4-12.7,2.1-20,3.5-32.6c1.3,11,2.5,22.1,3.8,33.1c0.2-10.4,0.5-20.8,0.7-31.2c0.5,9.9,2.6,20.1,3,30
		c2.4-14.3,2-18.6,4.5-32.9c0.3,13.6,1.6,19.6,1.9,33.2c2-10.8,4.1-24.4,6.1-35.2c-0.1,11.6-0.3,23.2-0.4,34.8"/>
</g>
<g>
	<text transform="matrix(1 0 0 1 133.5432 164.838)" font-family="'PermanentMarker'" font-size="30.74px">condom</text>
	<path fill="none" stroke="#9F2214" stroke-width="7" stroke-linecap="round" stroke-linejoin="round" stroke-miterlimit="10" d="
		M264.3,137.6c-1.2,9.3-0.8,24.4,2.5,33.1c0.7-10.7,2.2-24.4,2.8-35.1c2.6,11.6,2.5,23.9,5.1,35.5c0.7-11.3,1.4-22.5,2.2-33.8
		c1.1,12.8,1.9,22.8,3,35.6c0.8-11.6,1.9-23.7,2.7-35.3c0.7,10.9,1.3,24.9,2.1,35.8c0.7-12.4,1.3-24.7,2-37.1
		c1.1,10.6,2.1,21.2,3.2,31.8c1.6-10,1.3-20.4,2.9-30.4c0.2,11.2,2.5,22.9,2.7,34.1c0.8-12,1.6-24,2.5-35.9
		c1.3,11.5,2.5,23,3.8,34.4c1.3-12.2,2.6-24.3,4-36.5c0.1,13.2,0.2,26.4,0.3,39.5c1-13.5,1.9-27,2.9-40.4
		c1.2,15.1,2.5,23.6,3.7,38.6c1.1-15.1,2-23.6,3.1-38.7c1.1,12.8,2.2,25.6,3.3,38.4c1.5-14.8,3.4-23.5,4.9-38.3
		c1.1,14.4,1.7,22.6,2.8,37c0.5-11.8,1-23.5,1.5-35.3"/>
</g>
<g>
	<text transform="matrix(1 0 0 1 22.7111 221.2732)" font-family="'PermanentMarker'" font-size="30.74px">my personality</text>
	<path fill="none" stroke="#9F2214" stroke-width="7" stroke-linecap="round" stroke-linejoin="round" stroke-miterlimit="10" d="
		M263.8,194.6c-0.4,8.2,0.4,26.1,0,34.3c2.2-9.9,3.4-23.6,5.5-33.5c-0.2,9.7,0.2,25.2,0,34.9c1.6-8.3,2.7-26.8,4.3-35.1
		c0.4,8.1,1,25.9,1.4,34.1c1.4-10.2,2.5-25.6,3.8-35.8c0.3,12.1,0.6,24.3,0.8,36.4c2-12.5,4-25,6-37.5c0.1,13.8,0.2,24.1,0.4,37.9
		c1.9-13.1,3.8-22.9,5.7-36c0.8,11.3,1.6,22.7,2.4,34c1.6-12,3.1-23.9,4.7-35.9c0.2,11.5,0.5,23,0.7,34.5
		c2.1-11.1,4.2-22.1,6.2-33.2c0.3,12.5,0.7,24.9,1,37.4c0.8-12.5,1.7-25.1,2.5-37.6c1.7,12.5,3.6,22.8,5.2,35.3
		c1.5-13.2,2.7-24.1,4.1-37.3c0.5,13.1,0.8,24,1.3,37.1c1.5-11.7,3-21.2,4.5-32.9c0.1,12.5,1,20,1,32.5c2.1-12.6,3.3-20.3,5.4-32.9
		c0.7,10.4,1.4,20.7,2.2,31.1c1.2-11.6,2.5-23.2,3.7-34.8c0.7,13.6,1.4,27.2,2.1,40.7c1.3-10.9,2.8-26.1,4.1-37
		c0.3,11,0.5,23.4,0.8,34.4c1-11.4,1.8-20.1,2.8-31.5c0.2,10.2,0.3,20.3,0.5,30.5c1.6-11,3.2-22,4.8-33c0.6,10.8,1.3,21.6,1.9,32.4
		c1-11.3,1.9-22.7,2.9-34c0.3,12.2,0.7,24.3,1,36.5c2-12.6,4.1-25.1,6.1-37.7c-0.5,11-1.1,22-1.6,33c1.8-10.5,3.7-21.1,5.5-31.6
		c-0.5,12.5-1,25-1.5,37.6c2-11.2,3.9-22.3,5.9-33.5c0.7,9.7,1.3,19.3,2,29c0.5-11.2,0.9-22.3,1.4-33.5c0.4,12,0.8,24,1.2,36.1
		c1-10.5,3.2-25.3,4.2-35.8c1.7,11.6,2.2,24.9,3.9,36.6c0.6-12.2,1.1-21.8,1.7-33.9c1.3,9.9,2.7,19.8,4,29.8
		c0.8-10.3,1.5-20.5,2.3-30.8c0.2,10,0.3,20,0.5,30c1.2-10.1,2.3-20.2,3.5-30.3c0.6,10.4,1.2,20.9,1.8,31.3c1.3-9.7,2.7-19.5,4-29.2
		c-0.1,9.1-0.1,18.2-0.2,27.3c1.1-8.2,2.5-22.3,3.6-30.5c1.1,11.3,2,24.4,3.1,35.7c0.8-12.3,1.3-20.4,2.1-32.7
		c0.6,9.6,1.3,19.2,1.9,28.9c1.1-11,2.2-22,3.3-33c1.1,10.2,2.2,20.5,3.2,30.7c1.1-10.8,2.3-21.7,3.4-32.5
		c-0.5,12.6-1,25.3-1.6,37.9c1.7-11.4,3.5-22.9,5.2-34.3c0.5,11.1,0.9,22.1,1.4,33.2c1.2-11,2.5-22.1,3.7-33.1
		c0.3,10.7,0.6,21.3,0.9,32c1.4-8.8,2.5-24,3.9-32.8c0,8.6,0.4,23.5,0.4,32.1c1-9.5,2-19,2.9-28.6c1,9.9,1.9,19.8,2.9,29.7
		c0.9-12.1,1.8-24.2,2.8-36.3c0.1,10.3,0.2,20.5,0.3,30.8c1.3-11,2.7-22,4-33c0.6,11.1,1.2,29,1.8,40.1c1-10,2-26.8,2.9-36.8
		c0.1,10,0.3,20,0.4,30.1c1.3-9.9,2.5-19.9,3.8-29.8c1.4,11.1,2.1,25.6,3.5,36.7c0-11.2,0.6-25.8,0.6-36.9
		c1.9,10.7,3.8,21.4,5.6,32.1c0.6-10.9,1.2-21.8,1.8-32.7c0.6,11.5,1.2,23,1.9,34.5c0.8-10.9,1.5-21.9,2.3-32.8
		c0.9,11-0.4,25.3,0.5,36.2"/>
</g>
<g id="Arrow_up">
</g>
</svg>
