<?xml version="1.0" encoding="utf-8"?>
<!-- Generator: Adobe Illustrator 19.2.0, SVG Export Plug-In . SVG Version: 6.00 Build 0)  -->
<svg version="1.1" id="Layer_1" xmlns="http://www.w3.org/2000/svg" xmlns:xlink="http://www.w3.org/1999/xlink" x="0px" y="0px"
	 width="429.92px" height="542.56px" viewBox="0 0 429.92 542.56" enable-background="new 0 0 429.92 542.56" xml:space="preserve">
<path fill="none" stroke="#FFFFFF" stroke-width="120" stroke-linejoin="bevel" stroke-miterlimit="10" d="M28.58,5.58
	c-8.46,21.4-16.92,42.8-25.38,64.21c32.44-26.17,64.88-52.35,97.31-78.52C86.05,21.4,71.57,51.54,57.1,81.68
	c32.58-27.56,65.17-55.13,97.75-82.69c-8.7,23.97-17.39,47.94-26.09,71.91c36.74-31.84,73.48-63.68,110.22-95.52
	c-16.95,35.24-33.9,70.49-50.85,105.73c21.46-20.96,42.91-41.92,64.37-62.88c3.08,25.98-13.42,51.28-35.35,65.54
	s-48.45,19.41-74.39,22.77c-42.64,5.52-85.8,6.99-128.72,4.37c16.54-12.09,33.07-24.18,49.61-36.27
	c-17.36,42.7-34.73,85.39-52.09,128.09c15.06-8.11,30.12-16.22,45.18-24.33c-7.8,24.37-15.59,48.75-23.39,73.12
	c9.03-8.1,18.06-16.2,27.08-24.3C44,257.54,27.55,287.86,11.11,318.18c15.33-5.29,30.66-10.59,45.99-15.88
	c-14.72,30.91-29.43,61.82-44.15,92.73c8.73-7.6,17.47-15.2,26.2-22.8c-6.05,19.98-12.1,39.95-18.14,59.93
	c15.14-11.35,30.28-22.7,45.42-34.05c-24.13,35.58-34.36,80.34-28.07,122.87c19.4-15.26,27.94-40.66,30.95-65.16
	c3-24.5,1.49-49.45,5.6-73.79c6.46-38.23,26.62-73.09,51.85-102.53c25.23-29.44,55.51-54.05,85.61-78.49
	c37.27-30.26,110.19-71.07,147.46-101.33c-38.59,41.17-112.84,92.91-151.43,134.08c-24.91,26.58-49.98,53.36-69.5,84.12
	s-33.37,66.09-33.48,102.52c7.16-22.37,25.45-40.88,47.74-48.3c-7.1,27.47-14.2,54.94-21.29,82.41
	c17.28-25.37,34.57-50.75,51.85-76.12c-4.15,33.75-8.3,67.5-12.45,101.26c24.46-28.95,48.93-57.9,73.39-86.85
	c-7.73,36.65-15.46,73.3-23.19,109.96c14.46-47.26,37.48-91.89,67.61-131.08c-0.75,33.1-1.49,66.21-2.24,99.31
	c18.99-37.92,37.99-75.84,56.98-113.76c-3,44.34-6,88.68-9.01,133.03c10.96-36.2,21.93-72.41,32.89-108.61
	c9.04,42.34,18.07,84.68,27.11,127.01"/>
<g>
	
		<line fill="none" stroke="#000000" stroke-width="7" stroke-linecap="round" stroke-linejoin="round" stroke-miterlimit="10" x1="41.61" y1="88.68" x2="41.61" y2="414.61"/>
	
		<polyline fill="none" stroke="#000000" stroke-width="7" stroke-linecap="round" stroke-linejoin="round" stroke-miterlimit="10" points="
		19.11,110.68 41.61,88.68 64.11,110.68 	"/>
</g>
<g>
	
		<line fill="none" stroke="#000000" stroke-width="7" stroke-linecap="round" stroke-linejoin="round" stroke-miterlimit="10" x1="19.11" y1="392.11" x2="381.81" y2="392.11"/>
	
		<polyline fill="none" stroke="#000000" stroke-width="7" stroke-linecap="round" stroke-linejoin="round" stroke-miterlimit="10" points="
		359.81,369.61 381.81,392.11 359.81,414.61 	"/>
</g>
<text transform="matrix(1 0 0 1 124.4157 449.1379)"><tspan x="0" y="0" font-family="'PermanentMarker'" font-size="30.74px">how good </tspan><tspan x="159.34" y="0" font-family="'PermanentMarker'" font-size="30.74px">y</tspan><tspan x="170.72" y="0" font-family="'PermanentMarker'" font-size="30.74px">o</tspan><tspan x="189.45" y="0" font-family="'PermanentMarker'" font-size="30.74px">u s</tspan><tspan x="233.07" y="0" font-family="'PermanentMarker'" font-size="30.74px">a</tspan><tspan x="250" y="0" font-family="'PermanentMarker'" font-size="30.74px">y</tspan><tspan x="60.31" y="30" font-family="'PermanentMarker'" font-size="30.74px">y</tspan><tspan x="71.69" y="30" font-family="'PermanentMarker'" font-size="30.74px">o</tspan><tspan x="90.42" y="30" font-family="'PermanentMarker'" font-size="30.74px">u are d</tspan><tspan x="196.96" y="30" font-family="'PermanentMarker'" font-size="30.74px" letter-spacing="-1">o</tspan><tspan x="215.06" y="30" font-family="'PermanentMarker'" font-size="30.74px">ing</tspan></text>
<text transform="matrix(1 0 0 1 12.6989 36.7511)"><tspan x="0" y="0" font-family="'PermanentMarker'" font-size="30.74px">how good </tspan><tspan x="159.34" y="0" font-family="'PermanentMarker'" font-size="30.74px">y</tspan><tspan x="170.72" y="0" font-family="'PermanentMarker'" font-size="30.74px">o</tspan><tspan x="189.45" y="0" font-family="'PermanentMarker'" font-size="30.74px">u’re</tspan><tspan x="0" y="30" font-family="'PermanentMarker'" font-size="30.74px">act</tspan><tspan x="48.39" y="30" font-family="'PermanentMarker'" font-size="30.74px">u</tspan><tspan x="65.44" y="30" font-family="'PermanentMarker'" font-size="30.74px">al</tspan><tspan x="99.7" y="30" font-family="'PermanentMarker'" font-size="30.74px">l</tspan><tspan x="115.16" y="30" font-family="'PermanentMarker'" font-size="30.74px">y d</tspan><tspan x="154.12" y="30" font-family="'PermanentMarker'" font-size="30.74px" letter-spacing="-1">o</tspan><tspan x="172.22" y="30" font-family="'PermanentMarker'" font-size="30.74px">ing</tspan></text>
<path fill="none" stroke="#FBC9C3" stroke-width="7" stroke-linecap="round" stroke-linejoin="round" stroke-miterlimit="10" d="
	M53.66,519.62c4.08-87.25,45.5-169.43,100.86-236.99s124.34-122.43,192.74-176.75"/>
</svg>
