<?xml version="1.0" encoding="utf-8"?>
<!-- Generator: Adobe Illustrator 18.0.0, SVG Export Plug-In . SVG Version: 6.00 Build 0)  -->
<!DOCTYPE svg PUBLIC "-//W3C//DTD SVG 1.1//EN" "http://www.w3.org/Graphics/SVG/1.1/DTD/svg11.dtd">
<svg version="1.1" id="Layer_1" xmlns="http://www.w3.org/2000/svg" xmlns:xlink="http://www.w3.org/1999/xlink" x="0px" y="0px"
	 viewBox="0 0 996 383" enable-background="new 0 0 996 383" xml:space="preserve">
<path fill="none" stroke="#FFFFFF" stroke-width="120" stroke-linejoin="bevel" stroke-miterlimit="10" d="M20.6,60.1
	c1.2,62,2.5,124,3.7,185.9C48.4,186,72.4,125.9,96.5,65.9c-6.7,59.1-13.3,118.2-20,177.3c-1.4,12.6,0.1,29.5,12.5,32
	c12.4,2.5,20.3-12.6,23.8-24.8c19.6-68.6,39.2-137.3,58.8-205.9c3.1,67.3,6.3,134.6,9.4,201.8c0.6,13.1,1.3,26.7,6.8,38.6
	c5.5,12,16.9,22.2,30.1,22.1c3.7-98.8,7.3-197.5,11-296.3c162.5-14.2,326.4-13.6,488.8,2c-8.1,15.6-28,19.9-45.5,22.4
	C547.1,53.5,421.9,71.8,296.7,90.1c-42.5,58.6-66.8,130.2-68.8,202.6c-0.3,12.6,1.3,27.5,12.3,33.6c10.6,5.9,24.7-0.5,31.5-10.6
	s8.6-22.6,10.8-34.6c16.4-86.7,72.5-165,149.4-208.3c1.1,53.9-23.9,107.8-65.7,141.8c-16.1,13.1-34.6,23.6-47.6,39.7
	c-13,16.1-18.9,40.8-6.5,57.3c17.5,23.2,57.1,12.7,74.1-10.9s19.5-54.2,27.5-82.2c15.4-54,53.5-101.2,103.2-127.4
	C497.7,175.8,459.3,256,405.4,324c120.4-11.6,240.9-23.2,361.3-34.8c52-5,105-9.9,155.8,1.9c22.9,5.3,49.1,19.5,49,43
	c0,20.7-21.1,35.2-41.2,40.2c-58.1,14.4-116.3-18.3-167.2-49.7c-87.4-53.9-177.7-110.6-233-197.1c59.9,40.7,121.2,82.1,191,101.4
	c70.5,19.6,145.1,15.5,218.1,11.2c90.8-5.3,208.6-0.8,299.3-6.1"/>
<g>
	
		<polyline fill="none" stroke="#000000" stroke-width="7" stroke-linecap="round" stroke-linejoin="round" stroke-miterlimit="10" points="
		227.2,56.9 249.7,34.9 272.2,56.9 	"/>
	
		<line fill="none" stroke="#000000" stroke-width="7" stroke-linecap="round" stroke-linejoin="round" stroke-miterlimit="10" x1="249.7" y1="34.9" x2="249.7" y2="313.6"/>
	
		<line fill="none" stroke="#000000" stroke-width="7" stroke-linecap="round" stroke-linejoin="round" stroke-miterlimit="10" x1="982.4" y1="291.3" x2="226.7" y2="291.3"/>
	
		<polyline fill="none" stroke="#000000" stroke-width="7" stroke-linecap="round" stroke-linejoin="round" stroke-miterlimit="10" points="
		960.4,268.8 982.4,291.3 960.4,313.8 	"/>
</g>
<text transform="matrix(1 0 0 1 833.5869 346.1133)"><tspan x="0" y="0" font-family="'PermanentMarker'" font-size="31">days spent</tspan><tspan x="-43.1" y="30" font-family="'PermanentMarker'" font-size="31">on a project</tspan></text>
<text transform="matrix(1 0 0 1 225.1958 23.9402)" font-family="'PermanentMarker'" font-size="31">estimated time until completion</text>
<g>
	<path fill="none" stroke="#F05B26" stroke-width="7" stroke-linecap="round" stroke-linejoin="bevel" stroke-miterlimit="10" d="
		M262.7,164.9c20.4,2,36.9,2.7,51.5-1.6"/>
	<path fill="none" stroke="#000000" stroke-width="7" stroke-linecap="round" stroke-linejoin="round" stroke-miterlimit="10" d="
		M316.9,281.6c0,6.4,0,12.9,0,19.3"/>
</g>
<text transform="matrix(1 0 0 1 311.937 332.7925)" fill="#231F20" font-family="'PermanentMarker'" font-size="31">1</text>
<g>
	<text transform="matrix(1 0 0 1 12.5103 166.5435)"><tspan x="0" y="0" font-family="'PermanentMarker'" font-size="31">should take a</tspan><tspan x="-7.3" y="30" font-family="'PermanentMarker'" font-size="31">couple of days</tspan></text>
</g>
<g>
	<path fill="none" stroke="#F05B26" stroke-width="7" stroke-linecap="round" stroke-linejoin="bevel" stroke-miterlimit="10" d="
		M314.2,163.3c8.7-2.6,16.8-7.1,24.5-14.2c15.7-14.4,28.8-32.1,45.2-45.2"/>
	<path fill="none" stroke="#000000" stroke-width="7" stroke-linecap="round" stroke-linejoin="round" stroke-miterlimit="10" d="
		M383.8,281.9c0.3,6.2,0.5,12.4,0.8,18.7"/>
</g>
<text transform="matrix(1 0 0 1 373.3472 332.7928)" fill="#231F20" font-family="'PermanentMarker'" font-size="31">2</text>
<g>
	<path fill="none" stroke="#F05B26" stroke-width="7" stroke-linecap="round" stroke-linejoin="bevel" stroke-miterlimit="10" d="
		M383.9,103.9c5.2-4.1,10.8-7.8,16.8-10.8c15.7-7.6,33.3-9.3,50.6-6.9"/>
	<path fill="none" stroke="#000000" stroke-width="7" stroke-linecap="round" stroke-linejoin="round" stroke-miterlimit="10" d="
		M451.4,283.9c0,4.9,0,9.8,0,14.7"/>
</g>
<text transform="matrix(1 0 0 1 443.2378 332.7928)" fill="#231F20" font-family="'PermanentMarker'" font-size="31">3</text>
<text transform="matrix(1 0 0 1 17.6143 89.2151)"><tspan x="0" y="0" fill="#231F20" font-family="'PermanentMarker'" font-size="31">actually, give</tspan><tspan x="49.3" y="30" fill="#231F20" font-family="'PermanentMarker'" font-size="31">me a week</tspan></text>
<g>
	<path fill="none" stroke="#F05B26" stroke-width="7" stroke-linecap="round" stroke-linejoin="bevel" stroke-miterlimit="10" d="
		M451.3,86.2c13,1.8,25.8,6,37.5,11.7c10.7,5.3,20.6,11.8,30.1,19"/>
	<path fill="none" stroke="#000000" stroke-width="7" stroke-linecap="round" stroke-linejoin="round" stroke-miterlimit="10" d="
		M518.6,283.9c0,4.9,0,9.8,0,14.7"/>
</g>
<text transform="matrix(1 0 0 1 510.1924 332.7928)" fill="#231F20" font-family="'PermanentMarker'" font-size="31">4</text>
<g>
	<path fill="none" stroke="#F05B26" stroke-width="7" stroke-linecap="round" stroke-linejoin="bevel" stroke-miterlimit="10" d="
		M518.9,117c14.7,11.2,28.2,24.2,41.4,37.2c8.4,8.2,16.8,16.4,25.5,24.2"/>
	<path fill="none" stroke="#000000" stroke-width="7" stroke-linecap="round" stroke-linejoin="round" stroke-miterlimit="10" d="
		M585.9,281.4c0,6.6,0,13.1,0,19.7"/>
</g>
<text transform="matrix(1 0 0 1 576.3901 332.7928)" fill="#231F20" font-family="'PermanentMarker'" font-size="31">5</text>
<g>
	<path fill="none" stroke="#F05B26" stroke-width="7" stroke-linecap="round" stroke-linejoin="bevel" stroke-miterlimit="10" d="
		M585.8,178.4c14,12.6,28.7,24.2,45.3,33c7.1,3.7,14.4,6.9,21.8,9.6"/>
	<path fill="none" stroke="#000000" stroke-width="7" stroke-linecap="round" stroke-linejoin="round" stroke-miterlimit="10" d="
		M653.1,282.3c0,6,0,12,0,18"/>
</g>
<text transform="matrix(1 0 0 1 646.4653 332.7928)" fill="#231F20" font-family="'PermanentMarker'" font-size="31">6</text>
<text transform="matrix(1 0 0 1 38.6846 243.8715)"><tspan x="0" y="0" fill="#231F20" font-family="'PermanentMarker'" font-size="31">ok, just one</tspan><tspan x="50.9" y="30" fill="#231F20" font-family="'PermanentMarker'" font-size="31">more day</tspan></text>
<g>
	<path fill="none" stroke="#F05B26" stroke-width="7" stroke-linecap="round" stroke-linejoin="bevel" stroke-miterlimit="10" d="
		M652.9,220.9c21.4,7.7,44.2,11.4,67.4,13.1"/>
	<path fill="none" stroke="#000000" stroke-width="7" stroke-linecap="round" stroke-linejoin="round" stroke-miterlimit="10" d="
		M720,281.9c0.3,6.2,0.5,12.4,0.8,18.7"/>
</g>
<text transform="matrix(1 0 0 1 711.7896 332.7925)" fill="#231F20" font-family="'PermanentMarker'" font-size="31">7</text>
<g>
	<path fill="none" stroke="#F05B26" stroke-width="7" stroke-linecap="round" stroke-linejoin="bevel" stroke-miterlimit="10" d="
		M720.3,234.1c19.7,1.5,39.6,1.6,59.2,1.6c2.5,0,5.2,0,8.1,0"/>
	<path fill="none" stroke="#000000" stroke-width="7" stroke-linecap="round" stroke-linejoin="round" stroke-miterlimit="10" d="
		M787.6,283.9c0,4.9,0,9.8,0,14.7"/>
</g>
<g>
	<path fill="none" stroke="#F05B26" stroke-width="7" stroke-linecap="round" stroke-linejoin="bevel" stroke-miterlimit="10" d="
		M787.6,235.6c17.3,0,40.5,0,67.2,0"/>
	<path fill="none" stroke="#000000" stroke-width="7" stroke-linecap="round" stroke-linejoin="round" stroke-miterlimit="10" d="
		M854.8,283.9c0,4.9,0,9.8,0,14.7"/>
</g>
<g>
	<path fill="none" stroke="#F05B26" stroke-width="7" stroke-linecap="round" stroke-linejoin="bevel" stroke-miterlimit="10" d="
		M854.8,235.7c20.6,0,43.4,0,67.2,0"/>
	<path fill="none" stroke="#000000" stroke-width="7" stroke-linecap="round" stroke-linejoin="round" stroke-miterlimit="10" d="
		M922,283.9c0,4.9,0,9.8,0,14.7"/>
</g>
<path fill="none" stroke="#F05B26" stroke-width="7" stroke-linecap="round" stroke-linejoin="bevel" stroke-miterlimit="10" d="
	M922.1,235.7c110,0,243.2,0.1,298,0.1"/>
</svg>
