<?xml version="1.0" encoding="utf-8"?>
<!-- Generator: Adobe Illustrator 18.0.0, SVG Export Plug-In . SVG Version: 6.00 Build 0)  -->
<!DOCTYPE svg PUBLIC "-//W3C//DTD SVG 1.1//EN" "http://www.w3.org/Graphics/SVG/1.1/DTD/svg11.dtd">
<svg version="1.1" id="Layer_1" xmlns="http://www.w3.org/2000/svg" xmlns:xlink="http://www.w3.org/1999/xlink" x="0px" y="0px"
	 viewBox="0 0 400.5 226.5" enable-background="new 0 0 400.5 226.5" xml:space="preserve">
<path fill="none" stroke="#FFFFFF" stroke-width="120" stroke-linejoin="bevel" stroke-miterlimit="10" d="M17.7,19.5
	c87.5,1.5,174.9,3,262.4,4.6c22.8,0.4,47.9,1.7,64.6,17.3c19.9,18.6,19.8,49.6,18.3,76.8c-0.5,8.7-1.1,17.7-5.3,25.3
	c-4.2,7.6-13.2,13.4-21.5,11c-10.4-3-14-15.5-16.7-25.9s-9-22.7-19.8-22.4c-11.2,0.3-16.6,13.7-18.8,24.7
	c-2.2,11-6.1,24.5-17.2,26.5c-8.1,1.4-15.8-4.8-19.7-12c-3.9-7.2-5.3-15.5-8.3-23.2c-8.8-21.8-33.1-36.3-56.5-33.6
	c8.2,38.3,10.2,78,6,116.9c-1,9.1-4.9,20.6-14.1,20.6c-6.5,0-11-6.1-14.6-11.4C125.7,168.1,88,126,45,90.1
	c-11.2,15.1-16.4,34.6-14.3,53.3c53.4,1.3,106.4-29.3,131.8-76.3"/>
<text transform="matrix(1 0 0 1 28.3414 31.5489)" font-family="'PermanentMarker'" font-size="30.74">the fine line between</text>
<text transform="matrix(1 0 0 1 30.7623 127.5489)"><tspan x="0" y="0" font-family="'PermanentMarker'" font-size="30.74">stuff</tspan><tspan x="-24" y="30" font-family="'PermanentMarker'" font-size="30.74">you own</tspan></text>
<path fill="none" stroke="#BE1E2D" stroke-width="7" stroke-linecap="round" stroke-linejoin="round" stroke-miterlimit="10" d="
	M182.7,61.2c0.1,52,0.2,104,0.3,156"/>
<text transform="matrix(1 0 0 1 235.4576 127.5489)"><tspan x="0" y="0" font-family="'PermanentMarker'" font-size="30.74">stuff that</tspan><tspan x="7.1" y="30" font-family="'PermanentMarker'" font-size="30.74">owns you</tspan></text>
</svg>
