<?xml version="1.0" encoding="utf-8"?>
<!-- Generator: Adobe Illustrator 19.2.0, SVG Export Plug-In . SVG Version: 6.00 Build 0)  -->
<svg version="1.1" id="Layer_1" xmlns="http://www.w3.org/2000/svg" xmlns:xlink="http://www.w3.org/1999/xlink" x="0px" y="0px"
	 width="583.7px" height="372.9px" viewBox="0 0 583.7 372.9" enable-background="new 0 0 583.7 372.9" xml:space="preserve">
<symbol  id="Arrow_right_1_" viewBox="-25.5 -26 29 52">
	
		<polyline fill="none" stroke="#231F20" stroke-width="7" stroke-linecap="round" stroke-linejoin="round" stroke-miterlimit="10" points="
		-22,22.5 0,0 -22,-22.5 	"/>
</symbol>
<symbol  id="Arrow_up" viewBox="-26 -25.5 52 29">
	
		<polyline fill="none" stroke="#231F20" stroke-width="7" stroke-linecap="round" stroke-linejoin="round" stroke-miterlimit="10" points="
		-22.5,-22 0,0 22.5,-22 	"/>
</symbol>
<path fill="none" stroke="#FFFFFF" stroke-width="120" stroke-linejoin="bevel" stroke-miterlimit="10" d="M247.7,14.4
	c-3.3,20.7-6.6,41.4-9.9,62c20.3-13.5,35.8-34.3,42.8-57.7c-3.9,7.8-7.9,16.1-7.1,24.7c0.8,8.7,8.4,17.3,16.9,15.8
	c5.9-1,10.1-6.3,13.7-11.2c9.3-12.7,18.7-25.4,28-38.2c-0.8,10.6-1.4,21.8,3.3,31.3s16.8,16.2,26.2,11.3
	c10.3-5.4,10.6-21.2,3.7-30.6c7.2,3.4,14.7,7,19.8,13.2c5.1,6.2,7,15.7,2.3,22.1c-4.2,5.8-12.2,7.3-19.4,6.7
	c-7.1-0.6-14.1-2.8-21.3-2.6c-18.7,0.4-34.7,19.6-31.6,38c-9-10.9-29.8-6.9-34.1,6.6c16.6,0.7,33.3,1.4,49.9,2.1
	c-13.1,9.7-20.7,25.3-24.1,41.2s-2.8,32.4-2.2,48.7c1.5,42.8,2.9,85.6,4.4,128.4c7.4-18.1,14.8-36.2,22.3-54.3
	c2.3,13.4,4.7,26.8,7,40.3c4.7-12.6,19.2-20.8,32.5-18.3c-6.8,1.2-5.1,13.1,1.6,14.9s13.3-3.2,17.6-8.6c4.3-5.4,7.8-11.9,13.9-15.2
	c6.2-3.4,14.4-2.6,19.8,2c5.4,4.5,7.6,12.5,5.4,19.2c7.8-9.5,15.5-18.9,23.3-28.4c10.4,3.4,21.1,7,29.4,14.1
	c8.4,7.1,13.9,18.6,10.8,29.1c-2.7,9.2-11.4,15.6-20.6,18.2c-9.2,2.6-19,2.1-28.5,1.6c-13.4-0.8-26.7-1.5-40.1-2.3
	c-8.8-0.5-18.7-1.5-24.4-8.2c-6.2-7.3-5-18.2-3.3-27.7c3.3-19.3,6.7-38.5,10-57.8c3.8-22.1,7.7-44.2,11.5-66.3
	c2.9-16.5,6.4-34.3,18.9-45.5c2.2,28,4.5,56.1,6.7,84.1c9.9-30.4,19.7-60.8,29.6-91.1c4.7,10.2,9.4,20.3,14,30.5
	c3.2,7,6.6,14.1,12.3,19.2c11.4,10.2,31.3,8.3,40.7-3.7c9.4-12.1,6.2-31.8-6.5-40.3c11.6,3.1,21.2,12.7,24.2,24.2
	c3,11.6-0.6,24.7-9.1,33c7.5-3.9,14.9-8.6,19.9-15.4c5-6.9,7.1-16.3,3.6-24c-6-12.9-23.7-14.8-37.7-12.1c-23,4.4-44.5,16-60.8,32.9
	c-13.5,14-25,32.4-43.9,36.7c-22.9,5.2-43.7-12.5-64.8-22.7c-25.7-12.4-56.5-13.7-83.2-3.6s-48.9,31.5-59.9,57.8
	c9.2-33.9,18.4-67.8,27.6-101.7c-29.9,10.1-55.5,32.4-69.7,60.5c3.3-25.4,6.6-50.8,9.9-76.2c-30.1,21.5-53.6,52.2-66.5,87
	c-0.4-28.9-0.8-57.8-1.2-86.8C72,136.5,50.6,166,45.1,198.5c-5.5-19.7-11-39.5-16.4-59.2c38.9,5.9,67.2,38.4,97.6,63.4
	c46.2,37.9,104.1,61.3,163.6,66.2c10.3,0.8,23.9,4.4,23.7,14.7c-0.2,10.6-14.7,13.4-25.3,12.8c-38.5-2.1-77-4.3-115.6-6.4
	c-14.4-0.8-29.3-1.5-42.5,4.2c-13.2,5.7-24,19.8-20.9,33.8c3.4,15.4,22.3,23.4,37.6,19.7c15.3-3.6,27.3-15.6,36.6-28.3
	c9.4-12.7,17.1-26.7,28.6-37.6c-12.7,24.4-25.4,48.8-38.1,73.2c32.9-19,60.1-47.7,77.2-81.6c-3,20.9-6,41.8-9.1,62.6
	c30.3-12.3,54.8-38.2,65.4-69.2"/>
<g id="Arrow_right">
</g>
<g>
	
		<line fill="none" stroke="#231F20" stroke-width="7" stroke-linecap="round" stroke-linejoin="round" stroke-miterlimit="10" x1="168.4" y1="291.7" x2="454.7" y2="291.7"/>
	
		<use xlink:href="#Arrow_right_1_"  width="29" height="52" x="-25.5" y="-26" transform="matrix(1 0 0 -1 454.6905 291.7025)" overflow="visible"/>
	
		<line fill="none" stroke="#231F20" stroke-width="7" stroke-linecap="round" stroke-linejoin="round" stroke-miterlimit="10" x1="310" y1="80.5" x2="310" y2="314.2"/>
	
		<use xlink:href="#Arrow_up"  width="52" height="29" x="-26" y="-25.5" transform="matrix(1 0 0 -1 309.9562 80.6344)" overflow="visible"/>
</g>
<text transform="matrix(1 0 0 1 128.9817 345.6983)" fill="#231F20" font-family="'PermanentMarker'" font-size="30.74px">too easy</text>
<text transform="matrix(1 0 0 1 367.7242 345.6981)" fill="#231F20" font-family="'PermanentMarker'" font-size="30.74px">too hard</text>
<text transform="matrix(1 0 0 1 243.1932 37.2408)"><tspan x="0" y="0" fill="#231F20" font-family="'PermanentMarker'" font-size="30.74px">desire to</tspan><tspan x="-10.8" y="30" fill="#231F20" font-family="'PermanentMarker'" font-size="30.74px">do a thing</tspan></text>
<path fill="none" stroke="#BE1E2D" stroke-width="7" stroke-linecap="round" stroke-linejoin="round" stroke-miterlimit="10" d="
	M214.4,233.5c18.7-39.8,56.3-66.3,94.9-66.8c38.7-0.5,76.8,24.9,96.3,64.2"/>
<g>
	<path fill="none" stroke="#231F20" stroke-width="7" stroke-linecap="round" stroke-linejoin="round" stroke-miterlimit="10" d="
		M407.8,216.6c-4.3,3.6-8.6,7.1-12.9,10.7"/>
	<path fill="none" stroke="#231F20" stroke-width="7" stroke-linecap="round" stroke-linejoin="round" stroke-miterlimit="10" d="
		M395.8,217.8c3.7,2.8,7.3,5.5,11,8.3"/>
	<path fill="none" stroke="#231F20" stroke-width="7" stroke-linecap="round" stroke-linejoin="round" stroke-miterlimit="10" d="
		M403.5,205.3c0.5-6.2-3.9-11.6-8.1-16.2c-4.2-4.6-8.6-9.9-8.3-16.1c0.3-6,6-11.3,12.1-11.1"/>
	<text transform="matrix(1 0 0 1 417.5426 156.5944)"><tspan x="0" y="0" fill="#231F20" font-family="'PermanentMarker'" font-size="30.74px">pointless</tspan><tspan x="0" y="30" fill="#231F20" font-family="'PermanentMarker'" font-size="30.74px">to try</tspan></text>
</g>
<g>
	<path fill="none" stroke="#231F20" stroke-width="7" stroke-linecap="round" stroke-linejoin="round" stroke-miterlimit="10" d="
		M214.8,219.2c2.8,2.9,5.5,5.7,8.3,8.6"/>
	<path fill="none" stroke="#231F20" stroke-width="7" stroke-linecap="round" stroke-linejoin="round" stroke-miterlimit="10" d="
		M213.5,228c3.5-2.9,7-5.8,10.6-8.7"/>
	<path fill="none" stroke="#231F20" stroke-width="7" stroke-linecap="round" stroke-linejoin="round" stroke-miterlimit="10" d="
		M218.4,206.7c-0.4-5.8,2.6-11.2,5.3-16.4c2.6-5.2,5-11,3.5-16.6c-1.6-5.8-7.8-10-13.8-9.2"/>
	<text transform="matrix(1 0 0 1 18.3044 156.5944)"><tspan x="0" y="0" fill="#231F20" font-family="'PermanentMarker'" font-size="30.74px">meaningless</tspan><tspan x="30.7" y="30" fill="#231F20" font-family="'PermanentMarker'" font-size="30.74px">to achieve</tspan></text>
</g>
</svg>
