<?xml version="1.0" encoding="utf-8"?>
<!-- Generator: Adobe Illustrator 18.0.0, SVG Export Plug-In . SVG Version: 6.00 Build 0)  -->
<!DOCTYPE svg PUBLIC "-//W3C//DTD SVG 1.1//EN" "http://www.w3.org/Graphics/SVG/1.1/DTD/svg11.dtd">
<svg version="1.1" id="Layer_1" xmlns="http://www.w3.org/2000/svg" xmlns:xlink="http://www.w3.org/1999/xlink" x="0px" y="0px"
	 viewBox="0 0 774 267.9" enable-background="new 0 0 774 267.9" xml:space="preserve">
<path fill="none" stroke="#FFFFFF" stroke-width="120" stroke-linejoin="bevel" stroke-miterlimit="10" d="M39-10.3
	C23.4,9.5,14.8,32.4,14.3,55.3c-0.1,6,0.8,12.8,7.3,16.5c10.3,5.8,24.6-1.1,34.1-7.6c32.8-22.7,65.5-45.3,98.3-68
	c-42,73.8-89.2,146-141.6,216c-9.3,12.5-18.9,28-9.2,40.3c8.5,10.9,29.4,13.6,45.1,8.8c15.7-4.8,27-15.2,35.9-25.9
	c29.6-35.5,40.3-77.6,58.6-117.1s48.4-79.6,99.7-96.6c30-9.9,63.8-10.7,96.7-11.4C399.6,9.2,460,8,520.5,6.8
	c9-0.2,18.9-0.1,25.5,4.4c8.9,6,6.9,17.5-1.1,24.3c-7.9,6.8-19.8,10-31.2,13c-81.4,21.3-164.8,42.9-251.2,42.8
	c-15,0-30.7-0.6-44,4.4c-21.2,8-29.4,27-34.4,44.2c-10.5,36.1-15.9,73-16.1,109.9c-0.1,7.9,1.9,17.7,11.9,20.3
	c10.6,2.7,20.4-5,26.8-11.8c38.6-41,77.2-82,115.8-123c1.5,34.9,2.9,69.8,4.4,104.7c0.2,4.6,0.5,9.6,4.1,13.3
	c7.9,8.2,26.7,5.1,34.2-3.2c7.5-8.3,7-19.2,5.9-29.2s-2.5-20.7,3.9-29.5c6.4-8.8,23.8-14,33.7-7.2c12.2,8.4,2.1,23.5,4.9,35.6
	c2.4,10.3,14.8,18.1,28.2,21.3c13.4,3.2,27.8,2.7,41.9,2.2c77.4-2.9,154.7-5.7,232.1-8.6c5.7-0.2,12.1-0.7,15.9-3.9
	c5-4.3,2.1-11.4-3.9-14.9c-6-3.5-13.9-4.3-21.5-5c-74.8-7.1-164.4-19.7-239.2-26.8c178.6-10.2,372-14.8,550.6-25"/>
<text transform="matrix(1 0 0 1 6.2216 32.0958)" font-family="'PermanentMarker'" font-size="31">estimated time until completion</text>
<g>
	
		<polyline fill="none" stroke="#000000" stroke-width="7" stroke-linecap="round" stroke-linejoin="round" stroke-miterlimit="10" points="
		8.2,64.9 30.7,42.9 53.2,64.9 	"/>
	
		<line fill="none" stroke="#000000" stroke-width="7" stroke-linecap="round" stroke-linejoin="round" stroke-miterlimit="10" x1="30.7" y1="42.9" x2="30.7" y2="259.8"/>
	
		<line fill="none" stroke="#000000" stroke-width="7" stroke-linecap="round" stroke-linejoin="round" stroke-miterlimit="10" x1="763.5" y1="237.4" x2="7.7" y2="237.4"/>
	
		<polyline fill="none" stroke="#000000" stroke-width="7" stroke-linecap="round" stroke-linejoin="round" stroke-miterlimit="10" points="
		741.5,214.9 763.5,237.4 741.5,259.9 	"/>
</g>
<text transform="matrix(1 0 0 1 363.6532 214.9356)" font-family="'PermanentMarker'" font-size="31">time spent on a project</text>
<path fill="none" stroke="#F15A24" stroke-width="7" stroke-linecap="round" stroke-linejoin="bevel" stroke-miterlimit="10" d="
	M37.5,137.5c14.6,20.4,47,19.3,67.7,5.2s33.4-37,47.5-57.7s32.4-41.3,57.1-45.9c29.5-5.5,58.1,13.9,77.8,36.6s34.5,49.8,57.6,68.9
	c42.9,35.4,103.9,35.7,159.5,34.3c170.3-4.4,340.6-8.7,510.9-13.1"/>
</svg>
