<?xml version="1.0" encoding="utf-8"?>
<!-- Generator: Adobe Illustrator 18.0.0, SVG Export Plug-In . SVG Version: 6.00 Build 0)  -->
<!DOCTYPE svg PUBLIC "-//W3C//DTD SVG 1.1//EN" "http://www.w3.org/Graphics/SVG/1.1/DTD/svg11.dtd">
<svg version="1.1" id="Layer_1" xmlns="http://www.w3.org/2000/svg" xmlns:xlink="http://www.w3.org/1999/xlink" x="0px" y="0px"
	 viewBox="0 0 708.6 465" enable-background="new 0 0 708.6 465" xml:space="preserve">
<path fill="none" stroke="#FFFFFF" stroke-width="120" stroke-linejoin="bevel" stroke-miterlimit="10" d="M-37.1,684.6
	c59.2,15.1,126.1-5.4,166.7-51c18.1-20.3,31-44.7,48.5-65.6s41.7-38.8,68.9-38.6c5.1,17.9-0.3,37.4-9.7,53.5
	c-9.4,16.1-22.5,29.6-34.2,44c-41.3,50.5-67.2,113.5-73.2,178.5c8.1,7.9,22.2,5.9,30.9-1.3c8.7-7.1,13.4-18,17.8-28.4
	c21.1-50.1,42.2-100.2,63.4-150.3c9.7-23,19.6-46.4,35.4-65.7s38.5-34.5,63.5-35.3c-51.2,89.7-99.3,181.1-144.3,274.1
	c-6.3,13-12.6,26.6-11.9,41c0.7,14.4,11,29.4,25.4,30c15.5,0.7,26.7-14.2,34.8-27.5c74.3-122.1,107-155.3,166-285.5
	c5.7,67.6,18,41-8.3,103.6c-26.4,62.5-57.7,123.7-72.3,190c15.5,8.6,35.8,3.5,49.2-8c13.4-11.5,21.3-28.2,27.6-44.8
	c14.7-38.7,23.1-79.4,36.3-118.6s31.8-77.9,62.6-105.5c11.6-10.3,28.1-19.2,42-12.4c18.8,9.2,15.9,36.6,9.1,56.4
	c-19.5,56.5-47.6,110-83.1,158.1c-9.3,12.5-19.3,25.3-22.4,40.6c-3.1,15.3,3.5,33.8,18.4,38.4c20.3,6.3,37.6-15.2,47.9-33.8
	c27.5-50,53.3-100.9,77.4-152.6c4-8.5,9.1-18.1,18.3-20.2c10.5-2.3,20.6,7.3,22.9,17.8c2.3,10.5-1.1,21.3-4.4,31.5
	c-16,49.6-32,99.2-48,148.8c11.4,14.3,35.1,3.6,46-11.1c31.1-41.9,24.6-105.3,61.4-142.3c23.6-23.7,59.5-30.2,92.9-30.1
	s95.6,7.2,128.7,2.3"/>
<path fill="none" stroke="#FFFFFF" stroke-width="120" stroke-linejoin="bevel" stroke-miterlimit="10" d="M363.9,21.8
	C271.6,35.8,172,1.5,86.7,39.1C69.8,46.5,53.8,57,43.5,72.2s-13.9,35.8-5.8,52.3c30.8-4.9,67-8.2,88.6,14.3
	c19,19.7,18,50.6,15.8,77.9c-1.5,18.9-3.1,38.1-9,56.1c-6,18-17,35.1-33.4,44.6c-14.7,8.5-32.3,10.3-47.8,17.3s-29.7,23.1-25,39.4
	c94.7-0.8,189.3-1.5,284-2.3c66.4-0.5,133-1.1,199.1,5.3c60.9,5.8,121.1,17.4,181.1,29c7.3-8.2,2.9-22.1-5.8-28.7
	c-8.8-6.6-20.2-8-31.1-9.6c-10.8-1.6-22.4-3.9-30-11.8c-19.1-19.5-2.8-59-24.4-75.7c-16.7-12.9-40.9-0.6-61.8-3.7
	c-20.3-3-38.4-21.1-58.5-16.5c-12.8,2.9-21.8,14.5-27.7,26.3c-5.9,11.8-10,24.7-18.5,34.7c-15.9,18.9-44.2,23.4-68.2,17.5
	c-24-6-44.8-20.5-65-34.8c-25-17.6-50.1-35.5-70.9-57.9c-47-50.8-67.1-120.2-85.7-186.9"/>
<g>
	
		<line fill="none" stroke="#000000" stroke-width="7" stroke-linecap="round" stroke-linejoin="round" stroke-miterlimit="10" x1="122.1" y1="51.7" x2="122.1" y2="400.4"/>
	
		<line fill="none" stroke="#000000" stroke-width="7" stroke-linecap="round" stroke-linejoin="round" stroke-miterlimit="10" x1="99.6" y1="378.4" x2="683" y2="378.4"/>
</g>
<g>
	
		<polyline fill="none" stroke="#000000" stroke-width="7" stroke-linecap="round" stroke-linejoin="round" stroke-miterlimit="10" points="
		661,355.9 683,378.4 661,400.9 	"/>
	<text transform="matrix(1 0 0 1 616.8359 446.8415)" font-family="'PermanentMarker'" font-size="31">time</text>
</g>
<g>
	
		<polyline fill="none" stroke="#000000" stroke-width="7" stroke-linecap="round" stroke-linejoin="round" stroke-miterlimit="10" points="
		99.6,73.7 122.1,51.7 144.6,73.7 	"/>
	<text transform="matrix(1 0 0 1 99.6445 39.175)" fill="#ED1C24" font-family="'PermanentMarker'" font-size="31">toothpaste tube</text>
</g>
<g>
	<text transform="matrix(1 0 0 1 30.1543 99.0529)" font-family="'PermanentMarker'" font-size="31">full</text>
	<text transform="matrix(1 0 0 1 10.5068 369.2365)" font-family="'PermanentMarker'" font-size="31">empty</text>
</g>
<path fill="none" stroke="#ED1C24" stroke-width="7" stroke-linecap="round" stroke-linejoin="round" stroke-miterlimit="10" d="
	M144.6,99.1c0,167.7,308.8,309.7,486.8,309.7"/>
<g>
	<path fill="none" stroke="#7AC943" stroke-width="7" stroke-linecap="round" stroke-linejoin="round" stroke-miterlimit="10" d="
		M630.2,384.7c-4.8,5-8.7,10.9-11.5,17.2"/>
	<path fill="none" stroke="#7AC943" stroke-width="7" stroke-linecap="round" stroke-linejoin="round" stroke-miterlimit="10" d="
		M608.7,385.3c-0.8,0.7-1.5,1.4-2.3,2.1c-2.6,2.4-5.2,4.9-7.8,7.3c-0.9,1.5-2,2.9-3.2,4.1"/>
	<path fill="none" stroke="#7AC943" stroke-width="7" stroke-linecap="round" stroke-linejoin="round" stroke-miterlimit="10" d="
		M578.5,385c-3.5,4.7-7.5,9-12.1,12.7"/>
	<path fill="none" stroke="#7AC943" stroke-width="7" stroke-linecap="round" stroke-linejoin="round" stroke-miterlimit="10" d="
		M549.2,384.4c-3.1,2.9-6.4,5.5-10,7.8"/>
	<path fill="none" stroke="#7AC943" stroke-width="7" stroke-linecap="round" stroke-linejoin="round" stroke-miterlimit="10" d="
		M520.7,383.3c-3.1-0.6-6.6,1.2-7.9,4.1"/>
</g>
<g>
	<text transform="matrix(1 0 0 1 413.5615 274.8361)"><tspan x="0" y="0" font-family="'PermanentMarker'" font-size="31">somehow, this</tspan><tspan x="0" y="37.2" font-family="'PermanentMarker'" font-size="31">is possible</tspan></text>
	<path fill="none" stroke="#000000" stroke-width="7" stroke-linecap="round" stroke-linejoin="round" stroke-miterlimit="10" d="
		M584.7,304.9c7.7,5,15.8,10.5,19.2,19c1.7,4.3,2.1,9,2.3,13.6c0.9,15.6,1.1,32.2-7.3,45.4c-1.8,2.8-4.2,5.6-7.5,6.4
		c-1.2,0.3-2.8,1.4-1.9,2.2"/>
</g>
</svg>
