 
 
 
<svg version="1.1" id="Layer_1" xmlns="http://www.w3.org/2000/svg" xmlns:xlink="http://www.w3.org/1999/xlink" x="0px" y="0px"
	 viewBox="0 0 828 317" enable-background="new 0 0 828 317" xml:space="preserve">
<path stroke="#FFFFFF" stroke-width="120" d="M70.6-38.9
	C22.7,12.1-12.5,75-30.8,142.5c-2,7.5,0.2,19.6,7.7,17.5c2.1-0.6,3.6-2.3,5-3.9c25.7-29.8,42.8-65.8,63.2-99.4S91-9.7,126.7-26.2
	c-9,43-36.2,79.5-56.7,118.3C32.4,162.9,16.3,244.8,24,324.5c6.1-2.4,9.6-8.5,12.5-14.3C61,262,76.8,209.5,105.8,164
	c15.2-23.8,33.9-45.6,44.6-71.7c11.7-28.6,14.5-63.4,38.6-82.8c-7.9,85.4-11.9,171.2-11.8,257c0,7.4,0.1,15.1,3.7,21.5
	c3.6,6.4,11.9,10.9,18.5,7.7c4.9-2.4,7.3-7.9,9.1-13c13.2-36.5,17.9-76.7,39-109.3c2.7-4.2,7.4-8.7,12-6.7c2.1,0.9,3.4,3.1,4.4,5.1
	c9.5,18.2,12.1,39.1,19.6,58.2c7.5,19.1,22.6,37.8,43,39.3c24.7-48.2,42.2-100.1,51.8-153.4c4.6-25.6,11.8-56.8,36.8-63.9
	c11.9,32.3,15.1,67.1,23.1,100.7s22.1,67.6,49.7,88.3c16.8-28.9,33.6-57.8,50.5-86.6c3.8-6.5,9.3-13.9,16.7-13.1
	c6.8,0.8,10.7,7.9,13.2,14.3c7.6,18.8,14.1,38.4,25,55.5c11,17.1,27.5,31.9,47.5,35.3c1.2-35.9,8.8-71.5,22.2-104.8
	c2.4-6,6.8-12.9,13.2-12c5,0.8,7.7,6.1,9.7,10.7c13,31.2,26,62.4,39,93.6c34.2-50.1,63.5-103.6,87.4-159.4
	c5.9,56.3,7.3,113.1,4.2,169.7"/>
<g>
	
		<line stroke-width="7" x1="31.5" y1="309" x2="31.5" y2="35"/>
	
		<polyline stroke-width="7" points="
		8.9,57.1 31.4,35.1 53.9,57.1 	"/>
</g>
<text transform="matrix(1 0 0 1 12.126 21.5654)" font-family="'PermanentMarker'" font-size="31">kindness</text>
<g>
	
		<line stroke-width="7" x1="8" y1="189.5" x2="817" y2="189.5"/>
	
		<polyline stroke-width="7" points="
		794.9,167.1 816.9,189.6 794.9,212.1 	"/>
</g>
<text transform="matrix(1 0 0 1 774.3687 148.2432)" font-family="'PermanentMarker'" font-size="31">i.q.</text>
<path stroke="#9E005D" stroke-width="7" d="
	M34.9,186.1c10-32,27-61,42-90c11-20,30-59,61-46c12,6,19,26,24,37c11,21,19,45,28,67c15,39,35,99,82,110c39,8,60-46,78-69
	c22-27,41-83,88-67c17,5,31,29,43,42s28,25,43,35c13,9,22,14,38,13c24-1,34-16,51-31c27-22,54-38,90-27c30,10,44,32,78,18"/>
</svg>
