<?xml version="1.0" encoding="utf-8"?> <!-- Generator: Adobe Illustrator 18.0.0, SVG Export Plug-In . SVG Version: 6.00 Build 0) --> <!DOCTYPE svg PUBLIC "-//W3C//DTD SVG 1.1//EN" "http://www.w3.org/Graphics/SVG/1.1/DTD/svg11.dtd"> <svg version="1.1" id="Layer_1" xmlns="http://www.w3.org/2000/svg" xmlns:xlink="http://www.w3.org/1999/xlink" x="0px" y="0px" viewBox="0 0 964 352" enable-background="new 0 0 964 352" xml:space="preserve"> <path stroke="#FFFFFF" stroke-width="120" stroke-linejoin="bevel" d="M949.7,287.6 c-161,22.7-324.5,26.9-486.4,12.4c-92.9-8.3-187.7-22.7-278.5-1.2c-38.2,9-81.2,23.6-114.4,2.7c-25.9-16.4-36-49.6-36.8-80.2 c-0.8-30.7,5.5-61.3,3.2-91.9c-1.4-18.2-5.6-37.5,2.5-53.8c10-20.2,34.5-27.7,56.4-32.5c47.9-10.4,96.6-17.3,145.6-20.6 C209.1,38.7,177,55,144.9,71.3c89.1-6.4,177.5-23.3,262.7-50.2c-39.4,12.6-81.7,27.2-105,61.4c130.9-50.3,306.6-61.7,446.6-53.1 C536.8,70,319.3,190.3,115,261.5c65.3,21.9,140.5,13.2,198.4-24.2c32.7-21.1,59.3-50.3,90.3-74s69.2-42.1,107.7-36.4 c-43.3,43.2-88.5,84.5-135.2,123.9c52.9,7.2,102.8-23.8,145.4-56s86.5-68.3,139.5-74c-36.6,40.9-77.8,77.7-122.6,109.4 c27.9,13.1,61.5,3.2,87.3-13.7c25.8-16.9,46.8-40.1,72.3-57.3s116.7-29.1,145-17c-42.1,35.4-142.2,72-184.3,107.4 c-8.5,7.2-17.9,17.7-13.5,27.9c4.3,10.2,18.4,10.7,29.3,9.4c84.3-10.1,185.3-50.2,263.3-83.4"/> <path stroke-width="7" d="M50.7,285.1"/> <g> <line stroke-width="7" x1="48.5" y1="310" x2="48.5" y2="97"/> <polyline stroke-width="7" points=" 26,119 48.5,97 71,119 	"/> </g> <g> <line stroke-width="7" x1="25" y1="286.5" x2="935" y2="286.5"/> <polyline stroke-width="7" points=" 913,264 935,286.5 913,309 	"/> <text transform="matrix(1 0 0 1 868.792 223.9991)" font-family="'PermanentMarker'" font-size="31">time</text> <g> <path d=" M871.6,207.9c0.6,0.3,14.7-2.4,16.3-1.8 M878.9,206.6c1.6,2.4-5.9,12.8-2.3,15.9"/> <path d=" M890.2,207.4c-0.4,0.5-2.5,11.2-1.2,14.6"/> <path d=" M895.4,222.5c-0.2-1.2,4.8-15.5,6.6-14.9c2.2,0.7-0.6,7.8,3.4,8.2c3.9,0.4,8.6-7.7,9.8-7.4c1.6,0.4-1.2,12.3-1.8,13.7"/> <path d=" M932.7,220.9c0,0-9.3,3.2-10.4,0.3c-1.1-2.9,3.6-9.2,2.8-10.6 M934.3,207.3c0,0-10.8,1.4-11,2.6 M923.8,214.9c0,0,6.6,0.2,7.3-0.4 "/> </g> </g> <g> <text transform="matrix(1 0 0 1 25.1953 73.5244)" fill="#29ABE2" font-family="'PermanentMarker'" font-size="31">how much money i have</text> <path stroke="#29ABE2" d=" M30.6,58.6c0.2,0.7-2.3,13.6-2.3,13.6 M28.3,72.2c0,0,1.1-4.8,6.4-5.4c4.1-0.4,5.2-2,5.3-2.6c0.1-0.6,1.1-7,1.1-7 M38.8,71.7 c0,0,2.4-13.8,2.3-14.5"/> <path stroke="#29ABE2" d=" M55.8,57.3c0,0-14.7,9-9.7,13.2c4.6,3.9,12.7-1.2,12.9-3.1c0.2-1.9-1.8-6.8-4.3-8.9"/> <path stroke="#29ABE2" d=" M77.7,60C73.9,69.9,66.6,72.8,66,71.2c-0.6-1.6,2-12.2,2.7-12.7 M77.7,60c-0.9,3.3-0.7,12.4,2.5,11.6c3.8-0.9,6.1-11.9,7.5-12.8"/> <path stroke="#29ABE2" d=" M101.7,73c-0.2-1.2,4.8-15.5,6.6-14.9c2.2,0.7-0.6,7.8,3.4,8.2c3.9,0.4,8.6-7.7,9.8-7.4c1.6,0.4-1.2,12.3-1.8,13.7"/> <path stroke="#29ABE2" d=" M129.3,60c-0.4,0.5-2.7,9.4,2.6,11.2c3.8,1.3,10.5-9,9.6-13.3"/> <path stroke="#29ABE2" d=" M155.3,58c-9.1,0.7-17.8,14.4-0.4,13.2"/> <path stroke="#29ABE2" d=" M163.1,58.6c0.2,0.7-2.3,13.6-2.3,13.6 M160.8,72.2c0,0,1.1-4.8,6.4-5.4c4.1-0.4,5.2-2,5.3-2.6c0.1-0.6,1.1-7,1.1-7 M171.3,71.7 c0,0,2.4-13.8,2.3-14.5"/> <path stroke="#29ABE2" stroke-linejoin="bevel" d=" M191.4,71c0-1.6,5.4-12.9,5.8-12.1c0.4,0.8,0.9,6.9,3.1,7.1s8.9-6.5,10.5-7.1c1.6-0.6-1.8,10.9-1.3,12.8"/> <path stroke="#29ABE2" stroke-linejoin="bevel" d=" M226.4,57.7c-1.8,0.9-13,9.7-9.6,13.2c3.4,3.5,13.4-0.1,13.6-3.5c0.2-3.4-4.5-8.6-4.5-8.6"/> <path stroke="#29ABE2" stroke-linejoin="bevel" d=" M234.5,70.9c0-1.5,5.8-12.1,5.8-12.1"/> <path stroke="#29ABE2" stroke-linejoin="bevel" d=" M239.6,61.2c0,1.4,0.3,9.9,3.5,10.1c3.2,0.2,5.1-13,5.1-13"/> <path stroke="#29ABE2" stroke-linejoin="bevel" d=" M254.8,59.6c0.9,2-2.8,10-2.4,11.1c0.4,1.1,7.7,2,11.2,0.4"/> <path stroke="#29ABE2" stroke-linejoin="bevel" d=" M254.4,59.9c0.4-0.3,10.2-1.8,10.7-2.4"/> <path stroke="#29ABE2" stroke-linejoin="bevel" d=" M254.4,64.4c0.7,0.2,6.3,0.8,7,0"/> <path stroke="#29ABE2" stroke-linejoin="bevel" d=" M270.7,57.8c0,1.6,1.3,7.8,3.6,8.8"/> <path stroke="#29ABE2" stroke-linejoin="bevel" d=" M279.9,57.8c-0.9,0.4-9.8,12.3-9.4,15.1"/> <path stroke="#29ABE2" stroke-linejoin="bevel" d=" M296.4,57.6c-1.1,1.4-2.5,12.2-2.1,13.7"/> <path stroke="#29ABE2" stroke-linejoin="bevel" d=" M316.7,57.9c0.4,1.4-2.4,13.4-2.4,13.4"/> <path stroke="#29ABE2" stroke-linejoin="bevel" d=" M326.9,57.2c1,1.9-2.2,11.8-1.9,14.1"/> <path stroke="#29ABE2" stroke-linejoin="bevel" d=" M315.5,68.4c1-1,10.6-3.6,10.6-3.6"/> <path stroke="#29ABE2" stroke-linejoin="bevel" d=" M332.8,71.2c0-1.4,5.2-12.7,8.5-13.8c0,0,5.3,11.5,2.3,14.2"/> <path stroke="#29ABE2" stroke-linejoin="bevel" d=" M337.6,67.8c1.4,0,8.3-1.9,9.6-2.8"/> <path stroke="#29ABE2" stroke-linejoin="bevel" d=" M350.6,58.9c0.5,1,2.1,13,2.1,13"/> <path stroke="#29ABE2" stroke-linejoin="bevel" d=" M352.9,71c0,0,6.6-12.1,8.9-12.9"/> <path stroke="#29ABE2" stroke-linejoin="bevel" d=" M366.8,59.6c0.9,2-2.8,10-2.4,11.1c0.4,1.1,7.7,2,11.2,0.4"/> <path stroke="#29ABE2" stroke-linejoin="bevel" d=" M366.4,59.9c0.4-0.3,10.2-1.8,10.8-2.4"/> <path stroke="#29ABE2" stroke-linejoin="bevel" d=" M366.4,64.4c0.7,0.2,6.3,0.8,7,0"/> </g> <path stroke="#29ABE2" stroke-width="7" d="M49,285c19-27,53-8,73,4 c27,15,58,15,85,3c25-12,53-36,79-41c37-7,57,30,84,48c52,33,105-2,140-41c25-28,59-60,100-51c29,5,47,38,64,59c36,47,93,86,148,51 c27-17,53-53,87-45c7,2,14,7,20,9"/> <g> <text transform="matrix(1 0 0 1 25.1953 39.0264)" fill="#D4145A" font-family="'PermanentMarker'" font-size="31">amount of money that would be sweet to have</text> <path stroke="#D4145A" stroke-linejoin="bevel" d=" M26.8,37.2c0-1.4,5.2-12.7,8.5-13.8c0,0,5.3,11.5,2.3,14.2"/> <path stroke="#D4145A" stroke-linejoin="bevel" d=" M31.6,33.8c1.4,0,8.3-1.9,9.6-2.8"/> <path stroke="#D4145A" stroke-linejoin="bevel" d=" M45.4,36c0-1.6,5.4-12.9,5.8-12.1c0.4,0.8,0.9,6.9,3.1,7.1s8.9-6.5,10.5-7.1c1.6-0.6-1.8,10.9-1.3,12.8"/> <path stroke="#D4145A" stroke-linejoin="bevel" d=" M80.4,22.7c-1.8,0.9-13,9.7-9.6,13.2s13.4-0.1,13.6-3.5c0.2-3.4-4.5-8.6-4.5-8.6"/> <path stroke="#D4145A" stroke-linejoin="bevel" d=" M91.1,25.8c-0.7,2-2,8.4,1.2,10.6s11.4-7.7,10.9-12.1"/> <path stroke="#D4145A" stroke-linejoin="bevel" d=" M107.5,35.9c0-1.5,5.8-12.1,5.8-12.1"/> <path stroke="#D4145A" stroke-linejoin="bevel" d=" M112.6,26.2c0,1.4,0.3,9.9,3.5,10.1c3.2,0.2,5.1-13,5.1-13"/> <path stroke="#D4145A" stroke-linejoin="bevel" d=" M125.1,23.9c1.2,0.3,13.1-1.8,14.8-1.4"/> <path stroke="#D4145A" stroke-linejoin="bevel" d=" M132.5,22.8c0.3,1.1-4.7,11.8-4.7,13.1c0,1.3,1.1,2.4,1.1,2.4"/> <path stroke="#D4145A" stroke-linejoin="bevel" d=" M161.4,22.7c-1.8,0.9-13,9.7-9.6,13.2s13.4-0.1,13.6-3.5c0.2-3.4-4.5-8.6-4.5-8.6"/> <path stroke="#D4145A" stroke-linejoin="bevel" d=" M175.4,23.7c0.4,1.1-4.1,11-3.9,12.8s0.4,1.2,0.4,1.2"/> <path stroke="#D4145A" stroke-linejoin="bevel" d=" M172.1,25.3c0.4-0.2,10.7-4,12.9-2.9"/> <path stroke="#D4145A" stroke-linejoin="bevel" d=" M170.9,31.8c0.9,0.5,10.5-0.7,10.5-0.7"/> <path stroke="#D4145A" stroke-linejoin="bevel" d=" M197.4,36c0-1.6,5.4-12.9,5.8-12.1c0.4,0.8,0.9,6.9,3.1,7.1s8.9-6.5,10.5-7.1c1.6-0.6-1.8,10.9-1.3,12.8"/> <path stroke="#D4145A" stroke-linejoin="bevel" d=" M232.4,22.7c-1.8,0.9-13,9.7-9.6,13.2s13.4-0.1,13.6-3.5c0.2-3.4-4.5-8.6-4.5-8.6"/> <path stroke="#D4145A" stroke-linejoin="bevel" d=" M240.5,35.9c0-1.5,5.8-12.1,5.8-12.1"/> <path stroke="#D4145A" stroke-linejoin="bevel" d=" M245.6,26.2c0,1.4,0.3,9.9,3.5,10.1c3.2,0.2,5.1-13,5.1-13"/> <path stroke="#D4145A" stroke-linejoin="bevel" d=" M260.8,24.6c0.9,2-2.8,10-2.4,11.1c0.4,1.1,7.7,2,11.2,0.4"/> <path stroke="#D4145A" stroke-linejoin="bevel" d=" M260.4,24.9c0.4-0.3,10.2-1.8,10.8-2.4"/> <path stroke="#D4145A" stroke-linejoin="bevel" d=" M260.4,29.4c0.7,0.2,6.3,0.8,7,0"/> <path stroke="#D4145A" stroke-linejoin="bevel" d=" M276.7,22.8c0,1.6,1.3,7.8,3.6,8.8"/> <path stroke="#D4145A" stroke-linejoin="bevel" d=" M285.9,22.8c-0.9,0.4-9.8,12.3-9.4,15.1"/> <path stroke="#D4145A" stroke-linejoin="bevel" d=" M299.1,23.9c1.2,0.3,13.1-1.8,14.8-1.4"/> <path stroke="#D4145A" stroke-linejoin="bevel" d=" M306.5,22.8c0.3,1.1-4.7,11.8-4.7,13.1c0,1.3,1.1,2.4,1.1,2.4"/> <path stroke="#D4145A" stroke-linejoin="bevel" d=" M316.7,23.9c0.4,1.4-2.4,13.4-2.4,13.4"/> <path stroke="#D4145A" stroke-linejoin="bevel" d=" M326.9,23.2c1,1.9-2.2,11.7-1.9,14.1"/> <path stroke="#D4145A" stroke-linejoin="bevel" d=" M315.5,34.4c1-1,10.6-3.6,10.6-3.6"/> <path stroke="#D4145A" stroke-linejoin="bevel" d=" M331.8,36.2c0-1.4,5.2-12.7,8.5-13.8c0,0,5.3,11.5,2.3,14.2"/> <path stroke="#D4145A" stroke-linejoin="bevel" d=" M336.6,32.8c1.4,0,8.3-1.9,9.6-2.8"/> <path stroke="#D4145A" stroke-linejoin="bevel" d=" M348.1,23.9c1.2,0.3,13.1-1.8,14.8-1.4"/> <path stroke="#D4145A" stroke-linejoin="bevel" d=" M355.5,22.8c0.3,1.1-4.7,11.8-4.7,13.1c0,1.3,1.1,2.4,1.1,2.4"/> <path stroke="#D4145A" stroke-linejoin="bevel" d=" M377.4,23.4c0.1,3.2-4.4,9.4-1.9,12.9s11.2-11.6,11.5-11.2c0.2,0.4-1.6,11.2,2.2,11.5c3.8,0.3,4.6-8.9,7.2-13.6"/> <path stroke="#D4145A" stroke-linejoin="bevel" d=" M410.4,22.7c-1.8,0.9-13,9.7-9.6,13.2s13.4-0.1,13.6-3.5c0.2-3.4-4.5-8.6-4.5-8.6"/> <path stroke="#D4145A" stroke-linejoin="bevel" d=" M421.1,25.8c-0.7,2-2,8.4,1.2,10.6s11.4-7.7,10.9-12.1"/> <path stroke="#D4145A" stroke-linejoin="bevel" d=" M440.9,22.7c0.1,1.4-4.5,11.3-3.8,13.7c0.7,2.3,7.5-1.5,11,0.3"/> <path stroke="#D4145A" stroke-linejoin="bevel" d=" M453.9,25.6c0.3,1.8,0.9,7.7,0,11.2"/> <path stroke="#D4145A" stroke-linejoin="bevel" d=" M454.8,22.8c2.2,0.3,9.2,4.1,9.8,6.2c0.6,2.2-7.2,7.4-8.7,7.7"/> <path stroke="#D4145A" stroke-linejoin="bevel" d=" M484.1,26.8c0.2,1.2-2.2,9.6-2.7,10.7"/> <path stroke="#D4145A" stroke-linejoin="bevel" d=" M480.2,24.5c1.1-1.2,9.8-3.4,11.4-1.2c1.6,2.2-5.7,6.2-5.7,6.2s9.3,1.4,7.3,4.3c-2,2.9-9.2,3.7-9.2,3.7"/> <path stroke="#D4145A" stroke-linejoin="bevel" d=" M500.8,24.6c0.9,2-2.8,10-2.4,11.1c0.4,1.1,7.7,2,11.2,0.4"/> <path stroke="#D4145A" stroke-linejoin="bevel" d=" M500.4,24.9c0.4-0.3,10.2-1.8,10.8-2.4"/> <path stroke="#D4145A" stroke-linejoin="bevel" d=" M500.4,29.4c0.7,0.2,6.3,0.8,7,0"/> <path stroke="#D4145A" stroke-linejoin="bevel" d=" M538.1,22.5c-1.2-0.4-11,1.9-11.6,3.5c-0.6,1.6,7.7,2.6,8.1,5.6s-6.9,6.2-7.9,5.8"/> <path stroke="#D4145A" stroke-linejoin="bevel" d=" M543.4,23.4c0.1,3.2-4.4,9.4-1.9,12.9s11.2-11.6,11.5-11.2c0.2,0.4-1.6,11.2,2.2,11.5c3.8,0.3,4.6-8.9,7.2-13.6"/> <path stroke="#D4145A" stroke-linejoin="bevel" d=" M568.8,24.6c0.9,2-2.8,10-2.4,11.1c0.4,1.1,7.7,2,11.2,0.4"/> <path stroke="#D4145A" stroke-linejoin="bevel" d=" M568.4,24.9c0.4-0.3,10.2-1.8,10.8-2.4"/> <path stroke="#D4145A" stroke-linejoin="bevel" d=" M568.4,29.4c0.7,0.2,6.3,0.8,7,0"/> <path stroke="#D4145A" stroke-linejoin="bevel" d=" M584.8,24.6c0.9,2-2.8,10-2.4,11.1c0.4,1.1,7.7,2,11.2,0.4"/> <path stroke="#D4145A" stroke-linejoin="bevel" d=" M584.4,24.9c0.4-0.3,10.2-1.8,10.8-2.4"/> <path stroke="#D4145A" stroke-linejoin="bevel" d=" M584.4,29.4c0.7,0.2,6.3,0.8,7,0"/> <path stroke="#D4145A" stroke-linejoin="bevel" d=" M598.1,23.9c1.2,0.3,13.1-1.8,14.8-1.4"/> <path stroke="#D4145A" stroke-linejoin="bevel" d=" M605.5,22.8c0.3,1.1-4.7,11.8-4.7,13.1c0,1.3,1.1,2.4,1.1,2.4"/> <path stroke="#D4145A" stroke-linejoin="bevel" d=" M625.1,23.9c1.2,0.3,13.1-1.8,14.8-1.4"/> <path stroke="#D4145A" stroke-linejoin="bevel" d=" M632.5,22.8c0.3,1.1-4.7,11.8-4.7,13.1c0,1.3,1.1,2.4,1.1,2.4"/> <path stroke="#D4145A" stroke-linejoin="bevel" d=" M648.4,22.7c-1.8,0.9-13,9.7-9.6,13.2s13.4-0.1,13.6-3.5c0.2-3.4-4.5-8.6-4.5-8.6"/> <path stroke="#D4145A" stroke-linejoin="bevel" d=" M671.7,23.9c0.4,1.4-2.4,13.4-2.4,13.4"/> <path stroke="#D4145A" stroke-linejoin="bevel" d=" M681.9,23.2c1,1.9-2.2,11.7-1.9,14.1"/> <path stroke="#D4145A" stroke-linejoin="bevel" d=" M670.5,34.4c1-1,10.6-3.6,10.6-3.6"/> <path stroke="#D4145A" stroke-linejoin="bevel" d=" M686.8,37.2c0-1.4,5.2-12.7,8.5-13.8c0,0,5.3,11.5,2.3,14.2"/> <path stroke="#D4145A" stroke-linejoin="bevel" d=" M691.6,33.8c1.4,0,8.3-1.9,9.6-2.8"/> <path stroke="#D4145A" stroke-linejoin="bevel" d=" M705.6,23.9c0.5,1,2.1,13,2.1,13"/> <path stroke="#D4145A" stroke-linejoin="bevel" d=" M707.9,36c0,0,6.6-12.1,8.9-12.9"/> <path stroke="#D4145A" stroke-linejoin="bevel" d=" M722.8,24.6c0.9,2-2.8,10-2.4,11.1c0.4,1.1,7.7,2,11.2,0.4"/> <path stroke="#D4145A" stroke-linejoin="bevel" d=" M722.4,24.9c0.4-0.3,10.2-1.8,10.8-2.4"/> <path stroke="#D4145A" stroke-linejoin="bevel" d=" M722.4,29.4c0.7,0.2,6.3,0.8,7,0"/> </g> <path stroke="#D4145A" stroke-width="7" d="M49,253c19-27,53-8,73,4 c27,15,58,15,85,3c25-12,53-36,79-41c37-7,57,30,84,48c52,33,105-2,140-41c25-28,59-60,100-51c29,5,47,38,64,59c36,47,93,86,148,51 c27-17,53-53,87-45c7,2,14,7,20,9"/> <g> <path stroke-width="7" d=" M594.4,176.1c0.1,10,0.3,15.9,0.4,25.9"/> <path stroke-width="7" d=" M587.5,196.4c2.8,2.4,5.6,4.9,8.4,7.3c0.6-3.7,2.9-7.2,6.1-9.2"/> <path stroke-width="7" d=" M587.3,183.5c1.1-3.5,2.9-6.9,5.1-9.8c3,2.9,6.3,5.5,9.9,7.6"/> </g> <g> <g> <text transform="matrix(1 0 0 1 384.6667 158.6665)" font-family="'PermanentMarker'" font-size="31">this tiny life long frustration</text> </g> <path stroke-linejoin="bevel" d=" M387.1,142.9c1.2,0.3,13.1-1.8,14.8-1.4"/> <path stroke-linejoin="bevel" d=" M394.5,141.8c0.3,1.1-4.7,11.8-4.7,13.1s1.1,2.4,1.1,2.4"/> <path stroke-linejoin="bevel" d=" M404.7,142.9c0.4,1.4-2.4,13.4-2.4,13.4"/> <path stroke-linejoin="bevel" d=" M414.9,142.2c1,1.9-2.2,11.8-1.9,14.1"/> <path stroke-linejoin="bevel" d=" M403.5,153.4c1-1,10.6-3.6,10.6-3.6"/> <path stroke-linejoin="bevel" d=" M423.4,143.6c-1.1,1.4-2.5,12.2-2.1,13.7"/> <path stroke-linejoin="bevel" d=" M442.1,141.5c-1.2-0.4-11,1.9-11.6,3.5s7.7,2.6,8.1,5.6s-6.9,6.2-7.9,5.8"/> <path stroke-linejoin="bevel" d=" M456.1,143.9c1.2,0.3,13.1-1.8,14.8-1.4"/> <path stroke-linejoin="bevel" d=" M463.5,142.8c0.3,1.1-4.7,11.8-4.7,13.1s1.1,2.4,1.1,2.4"/> <path stroke-linejoin="bevel" d=" M474.4,143.6c-1.1,1.4-2.5,12.2-2.1,13.7"/> <path stroke-linejoin="bevel" d=" M480.5,154.9c0-1.5,5.8-12.1,5.8-12.1"/> <path stroke-linejoin="bevel" d=" M485.6,145.2c0,1.4,0.3,9.9,3.5,10.1s5.1-13,5.1-13"/> <path stroke-linejoin="bevel" d=" M498.7,142.8c0,1.6,1.3,7.8,3.6,8.8"/> <path stroke-linejoin="bevel" d=" M507.9,142.8c-0.9,0.4-9.8,12.3-9.4,15.1"/> <path stroke-linejoin="bevel" d=" M525.9,141.7c0.1,1.4-4.5,11.3-3.8,13.7c0.7,2.3,7.5-1.5,11,0.3"/> <path stroke-linejoin="bevel" d=" M542.4,143.6c-1.1,1.4-2.5,12.2-2.1,13.7"/> <path stroke-linejoin="bevel" d=" M551.4,142.7c0.4,1.1-4.1,11-3.9,12.8s0.4,1.2,0.4,1.2"/> <path stroke-linejoin="bevel" d=" M548.1,144.3c0.4-0.2,10.7-4,12.9-2.9"/> <path stroke-linejoin="bevel" d=" M546.9,150.8c0.9,0.5,10.5-0.7,10.5-0.7"/> <path stroke-linejoin="bevel" d=" M564.8,144.6c0.9,2-2.8,10-2.4,11.1c0.4,1.1,7.7,2,11.2,0.4"/> <path stroke-linejoin="bevel" d=" M564.4,144.9c0.4-0.3,10.2-1.8,10.8-2.4"/> <path stroke-linejoin="bevel" d=" M564.4,149.4c0.7,0.2,6.3,0.8,7,0"/> <path stroke-linejoin="bevel" d=" M593.9,142.7c0.1,1.4-4.5,11.3-3.8,13.7c0.7,2.3,7.5-1.5,11,0.3"/> <path stroke-linejoin="bevel" d=" M616.4,142.7c-1.8,0.9-13,9.7-9.6,13.2s13.4-0.1,13.6-3.5s-4.5-8.6-4.5-8.6"/> <path stroke-linejoin="bevel" d=" M625.5,154.9c0-1.5,5.8-12.1,5.8-12.1"/> <path stroke-linejoin="bevel" d=" M630.6,145.2c0,1.4,0.3,9.9,3.5,10.1s5.1-13,5.1-13"/> <path stroke-linejoin="bevel" d=" M654.8,143.2c-3.9,1.2-12.4,9-10.4,12.2s14.9-0.8,15.5-2.1s-4-2.7-4-2.7"/> <path stroke-linejoin="bevel" d=" M679.4,142.7c0.4,1.1-4.1,11-3.9,12.8s0.4,1.2,0.4,1.2"/> <path stroke-linejoin="bevel" d=" M676.1,144.3c0.4-0.2,10.7-4,12.9-2.9"/> <path stroke-linejoin="bevel" d=" M674.9,150.8c0.9,0.5,10.5-0.7,10.5-0.7"/> <path stroke-linejoin="bevel" d=" M691.3,146.1c0.1,0.6-1.7,9.9-1.7,9.9"/> <path stroke-linejoin="bevel" d=" M692.4,147.6c0-1.1,4-5.6,4.7-5.7s5.4,4.2,3.9,5.7s-8.6,3.1-8.6,3.1s1.8,5.4,9.4,6.2"/> <path stroke-linejoin="bevel" d=" M707.1,145.8c-0.7,2-2,8.4,1.2,10.6s11.4-7.7,10.9-12.1"/> <path stroke-linejoin="bevel" d=" M735.1,142.5c-1.2-0.4-11,1.9-11.6,3.5s7.7,2.6,8.1,5.6s-6.9,6.2-7.9,5.8"/> <path stroke-linejoin="bevel" d=" M738.1,143.9c1.2,0.3,13.1-1.8,14.8-1.4"/> <path stroke-linejoin="bevel" d=" M745.5,142.8c0.3,1.1-4.7,11.8-4.7,13.1s1.1,2.4,1.1,2.4"/> <path stroke-linejoin="bevel" d=" M755.3,147.1c0.1,0.6-1.7,9.9-1.7,9.9"/> <path stroke-linejoin="bevel" d=" M756.4,148.6c0-1.1,4-5.6,4.7-5.7s5.4,4.2,3.9,5.7s-8.6,3.1-8.6,3.1s1.8,5.4,9.4,6.2"/> <path stroke-linejoin="bevel" d=" M768.8,157.2c0-1.4,5.2-12.7,8.5-13.8c0,0,5.3,11.5,2.3,14.2"/> <path stroke-linejoin="bevel" d=" M773.6,153.8c1.4,0,8.3-1.9,9.6-2.8"/> <path stroke-linejoin="bevel" d=" M786.1,143.9c1.2,0.3,13.1-1.8,14.8-1.4"/> <path stroke-linejoin="bevel" d=" M793.5,142.8c0.3,1.1-4.7,11.8-4.7,13.1s1.1,2.4,1.1,2.4"/> <path stroke-linejoin="bevel" d=" M804.4,142.6c-1.1,1.4-2.5,12.2-2.1,13.7"/> <path stroke-linejoin="bevel" d=" M820.4,142.7c-1.8,0.9-13,9.7-9.6,13.2s13.4-0.1,13.6-3.5s-4.5-8.6-4.5-8.6"/> <path stroke-linejoin="bevel" d=" M829.5,154.9c0-1.5,5.8-12.1,5.8-12.1"/> <path stroke-linejoin="bevel" d=" M834.6,145.2c0,1.4,0.3,9.9,3.5,10.1s5.1-13,5.1-13"/> </g> </svg> 