<?xml version="1.0" encoding="utf-8"?>
<!-- Generator: Adobe Illustrator 18.0.0, SVG Export Plug-In . SVG Version: 6.00 Build 0)  -->
<!DOCTYPE svg PUBLIC "-//W3C//DTD SVG 1.1//EN" "http://www.w3.org/Graphics/SVG/1.1/DTD/svg11.dtd">
<svg version="1.1" id="Layer_1" xmlns="http://www.w3.org/2000/svg" xmlns:xlink="http://www.w3.org/1999/xlink" x="0px" y="0px"
	 viewBox="0 0 583.5 601.5" enable-background="new 0 0 583.5 601.5" xml:space="preserve">
<path fill="none" stroke="#FFFFFF" stroke-width="120" stroke-linejoin="bevel" stroke-miterlimit="10" d="M42.5,14.1
	C29.7,22.1,16,30.8,9.8,44.5S9,78.3,23.7,81.6c15.2,3.3,27.4-11.5,38-22.8c20.1-21.6,107.8-41.1,137.1-44.6
	c-0.8,22.4-42.4,58.9-57.9,75s-65.8,19-76.7,38.6c-14.7,26.3-15.1,57.9-15.2,88.1c-0.2,101.8-0.3,203.5-0.5,305.3
	c0,14.7,0.4,30.7,9.6,42.2c11.7,14.6,32.9,16.5,51.6,17.1c59.1,2,118.2,3.3,177.3,3.9c85.3,0.9,175.1-0.7,249.1-43.2
	c-4.5-11.6-17.2-18.3-29.6-19.6c-12.4-1.3-24.8,1.6-37,3.8c-105.2,18.2-213.1-24.5-319-10.6c-9,1.2-18.2,2.8-27.2,1.2
	s-17.9-7.2-20.6-15.9c-3.2-10.5,3.9-21.9,13.5-27.4c9.6-5.4,21-6.2,31.9-6.9c62.2-4,124.4-8,186.6-12c13.6-0.9,27.9-1.9,39.5-9.1
	c11.6-7.2,19.4-22.6,13.4-34.9c-74.2-2.5-148.4-5-222.6-7.5c-11.1-19.4-1.7-45.6,15.9-59.3s41.1-17.3,63.4-17.5s44.8,2.6,66.9-0.3
	c22.1-2.9,44.8-12.7,56.4-31.8c-56.4-3.4-112.9-6.8-169.3-10.1c13.4-77.8,35.2-158.5,90.8-214.5c21.9-22,52-40.2,82.5-34.3
	c22.6,4.3,40.6,20.9,61.8,29.9c18.1,7.7,38.6,9.6,57.8,5.4c9.9-2.2,19.7-5.9,29.9-5.6c10.2,0.4,21.2,6.5,22.7,16.6
	c1.4,9.3-6.1,18.1-14.9,21.5c-8.8,3.4-18.6,2.6-27.9,1.8c-35-3-70-6.1-105-9.1c-14-1.2-29.9-1.8-40.2,7.8
	c-10,9.3-10.7,24.7-10.8,38.4c-0.2,39.9-0.3,79.9-0.5,119.8"/>
<g>
	
		<line fill="none" stroke="#000000" stroke-width="7" stroke-linecap="round" stroke-linejoin="round" stroke-miterlimit="10" x1="498.5" y1="553.8" x2="33" y2="553.8"/>
	
		<polyline fill="none" stroke="#000000" stroke-width="7" stroke-linecap="round" stroke-linejoin="round" stroke-miterlimit="10" points="
		476.5,531.3 498.5,553.8 476.5,576.3 	"/>
	<text transform="matrix(1 0 0 1 512.7725 557.8037)" font-family="'PermanentMarker'" font-size="31">age</text>
</g>
<g>
	
		<line fill="none" stroke="#000000" stroke-width="7" stroke-linecap="round" stroke-linejoin="round" stroke-miterlimit="10" x1="55.5" y1="89.2" x2="55.5" y2="576.3"/>
	
		<polyline fill="none" stroke="#000000" stroke-width="7" stroke-linecap="round" stroke-linejoin="round" stroke-miterlimit="10" points="
		33,111.2 55.5,89.2 78,111.2 	"/>
	<text transform="matrix(1 0 0 1 8.2485 40.4985)"><tspan x="0" y="0" font-family="'PermanentMarker'" font-size="31">how complex</tspan><tspan x="-1.1" y="37.2" font-family="'PermanentMarker'" font-size="31">society seems</tspan></text>
</g>
<g>
	<path fill="none" stroke="#000000" stroke-width="7" stroke-linecap="round" stroke-linejoin="round" stroke-miterlimit="10" d="
		M55.7,555.8c37-7.4,67-38.1,85.3-72.8"/>
	
		<line fill="none" stroke="#000000" stroke-width="7" stroke-linecap="round" stroke-linejoin="round" stroke-miterlimit="10" x1="149.5" y1="549" x2="149.5" y2="557"/>
	<text transform="matrix(1 0 0 1 88.6619 587.8037)" font-family="'PermanentMarker'" font-size="31">college</text>
</g>
<g>
	<path fill="none" stroke="#22B573" stroke-width="7" stroke-linecap="round" stroke-linejoin="round" stroke-miterlimit="10" d="
		M146.4,474.5c1.6,1.4,4.4,1.3,5.9-0.3c1.5-1.6,1.5-4.3,0-5.9c-1.5-1.5-4.3-1.6-5.9-0.2"/>
	<text transform="matrix(1 0 0 1 162.3167 469.2158)"><tspan x="0" y="0" fill="#22B573" font-family="'PermanentMarker'" font-size="31">I could fix the</tspan><tspan x="7.2" y="37.2" fill="#22B573" font-family="'PermanentMarker'" font-size="31">system if only</tspan><tspan x="16.4" y="74.4" fill="#22B573" font-family="'PermanentMarker'" font-size="31">they’d listen!</tspan></text>
</g>
<g>
	<path fill="none" stroke="#000000" stroke-width="7" stroke-linecap="round" stroke-linejoin="round" stroke-miterlimit="10" d="
		M154.3,457.6c18.3-39.9,26.7-83.2,34.8-126.1c1.3-7,2.7-14.1,4-21.1"/>
	<path fill="none" stroke="#F7931E" stroke-width="7" stroke-linecap="round" stroke-linejoin="round" stroke-miterlimit="10" d="
		M199.2,295.3c-2.1-0.9-4.5-1.3-6.8-1c-0.1,2.5-0.1,5-0.2,7.5c1.3,0,2.6,0,4,0C198.1,300.2,199.2,297.8,199.2,295.3z"/>
	<text transform="matrix(1 0 0 1 228.1782 301.8037)"><tspan x="0" y="0" fill="#F7931E" font-family="'PermanentMarker'" font-size="31">well...</tspan><tspan x="0" y="37.2" fill="#F7931E" font-family="'PermanentMarker'" font-size="31">maybe...</tspan></text>
</g>
<g>
	<path fill="none" stroke="#000000" stroke-width="7" stroke-linecap="round" stroke-linejoin="round" stroke-miterlimit="10" d="
		M198.9,282.8c8.9-40.3,21.8-80.3,44.2-115.2c9.5-14.8,20.9-31.2,37.8-38.1"/>
	<path fill="none" stroke="#C1272D" stroke-width="7" stroke-linecap="round" stroke-linejoin="round" stroke-miterlimit="10" d="
		M294.6,120.9c-1.2-0.2-2.4,0.4-3.1,1.4c-0.7,1-1,2.2-1.3,3.3c-0.2,0.9-0.3,1.8,0.2,2.6c0.4,0.7,1.2,1.1,2,1.3
		c1,0.3,2.1,0.6,3.1,0.7c1,0.1,2.2,0.1,2.9-0.6c0.8-0.8,0.7-2.3-0.1-3.2s-2-1.3-3.1-1.5c-1.2-0.2-2.4-0.1-3.5-0.2"/>
	<text transform="matrix(1 0 0 1 265.7432 56.5859)"><tspan x="0" y="0" fill="#C1272D" font-family="'PermanentMarker'" font-size="31">   F*ck it.</tspan><tspan x="0" y="37.2" fill="#C1272D" font-family="'PermanentMarker'" font-size="31">this sh*t is doomed.</tspan></text>
</g>
<g>
	<path fill="none" stroke="#000000" stroke-width="7" stroke-linecap="round" stroke-linejoin="round" stroke-miterlimit="10" d="
		M307.4,129.1c10.3,5.7,19.3,13.7,23.3,24.7c5,13,8,27,10,41c4,30,12,58,17.3,87.4"/>
	<path fill="none" stroke="#F7931E" stroke-width="7" stroke-linecap="round" stroke-linejoin="round" stroke-miterlimit="10" d="
		M364.1,292.8c-1.4-0.3-2.8-0.6-4.2-0.5c-1.4,0.1-2.9,0.8-3.6,2.1c-0.9,1.6-0.4,3.8,0.9,5.1c1.6,1.8,4.3,2.5,6.5,1.7
		c0.8-1.7-0.1-3.9-1.6-5c-1.5-1.1-3.5-1.5-5.4-1.8"/>
	<path fill="none" stroke="#000000" stroke-width="7" stroke-linecap="round" stroke-linejoin="round" stroke-miterlimit="10" d="
		M363.5,309.6c10.2,49.2,19.2,98.2,29.4,147.4"/>
	<path fill="none" stroke="#22B573" stroke-width="7" stroke-linecap="round" stroke-linejoin="round" stroke-miterlimit="10" d="
		M396,466.2c-1.3,1.9-2,4.3-2,6.7c0,1.5,0.4,3.1,1.6,4c1.8,1.3,4.5,0,5.5-2c1-2,0.9-4.3,0.7-6.5"/>
	<path fill="none" stroke="#000000" stroke-width="7" stroke-linecap="round" stroke-linejoin="round" stroke-miterlimit="10" d="
		M401.4,484.6c13.3,37.4,45.3,71.2,84.3,68.8"/>
</g>
<g>
	
		<line fill="none" stroke="#000000" stroke-width="7" stroke-linecap="round" stroke-linejoin="round" stroke-miterlimit="10" x1="398.5" y1="549" x2="398.5" y2="557"/>
	<text transform="matrix(1 0 0 1 291.791 587.8037)" font-family="'PermanentMarker'" font-size="31">retirement</text>
</g>
</svg>
