<?xml version="1.0" encoding="utf-8"?>
<!-- Generator: Adobe Illustrator 18.0.0, SVG Export Plug-In . SVG Version: 6.00 Build 0)  -->
<!DOCTYPE svg PUBLIC "-//W3C//DTD SVG 1.1//EN" "http://www.w3.org/Graphics/SVG/1.1/DTD/svg11.dtd">
<svg version="1.1" id="Layer_1" xmlns="http://www.w3.org/2000/svg" xmlns:xlink="http://www.w3.org/1999/xlink" x="0px" y="0px"
	 viewBox="0 0 1091.9 635.1" enable-background="new 0 0 1091.9 635.1" xml:space="preserve">
<path fill="none" stroke="#FFFFFF" stroke-width="120" stroke-linejoin="bevel" stroke-miterlimit="10" d="M26.5,229.5
	c-8,14.4-16.2,29.9-15.1,46.3s15.6,33.1,31.7,30c14.3-2.8,21.8-18.2,27.1-31.8c22.8-57.7,45.6-115.3,68.4-173
	c23.7,63.5,21.8,136.2-5.3,198.3c-3.6,8.2-7.7,16.7-7,25.6c0.6,8.9,8.1,18.1,17,16.8c8.2-1.2,12.7-10,15.9-17.7
	c29.5-72.5,59.1-145,88.6-217.5c19.5,38,15.5,83.4,11,125.9c-7.4,69.9-14.9,139.8-22.3,209.7c48.9-67.5,78.2-149.1,83.4-232.3
	c1.7-27.8,0.9-56,8.3-82.9c7.4-26.8,25-52.8,51.5-61.3c-1.6,124.8-25.7,249.3-70.9,365.6c-7.1,18.3-14.9,37.1-13.8,56.7
	c1,19.6,13.7,40.2,33.2,42.9c16.1,2.3,31.8-8.3,40.4-22.1c8.6-13.8,11.5-30.3,14.1-46.3c14.6-89.2,25.6-179,33-269.1
	c3-36.9,5.7-74.6,20.6-108.4s44.9-63.6,81.7-67.1c-7.1,162-100.7,371.9-97.2,534c0.3,15.1,1.6,30.6,8.2,44.2
	c6.6,13.6,19.6,25,34.6,25.9c16.8,0.9,32.1-11.5,39.7-26.5c7.6-15,9.2-32.3,10.6-49.1c8.4-98.8,17.6-256.7,26-355.5
	c2.9-33.7,5.8-67.9,17.4-99.7s32.9-61.5,63.6-75.7c19.8,63.3-5,130.7-22.3,194.7c-29.5,109.1-38.3,283.1-24.2,395.2
	c1.7,13.1,4.7,27.9,16.1,34.5c13.3,7.7,31.2-0.8,39-14c7.8-13.2,8.2-29.3,8.4-44.7c1.6-121.3,4.1-301.7,5.7-423
	c0.4-28.5,1.1-58.3,14.3-83.6C671,49.2,700.9,30.2,728.1,39c-20.5,150.7-41.7,360.5-62.2,511.2c-2.3,17-4.6,34.6-0.1,51.1
	s17.6,32,34.7,33.8c19.2,2,36.5-14.1,42.7-32.3c6.3-18.2,4.2-38.1,2.5-57.4c-14.3-157.3-3.3-375.9,31.2-530
	c19.7-4.5,39.4,11.4,46.4,30.3s4.7,39.9,2.3,59.9c-14.6,120-30.7,273-45.2,393c-4,32.6-4,73.3,24.8,89.1
	c23.1,12.6,51.4,1.1,74.8-10.9c55.6-28.6,112.6-94.3,151.4-143.3c43.5-54.8,62.6-128.1,51.5-197.2c-11.1-69-52.3-132.7-110.7-171.1
	c-15.9-10.4-33.5-19.2-52.5-20.7c-18.9-1.5-39.4,5.5-50.1,21.3s-7.9,40.3,8.2,50.4c17.8,11.1,41.5,1.5,61.8,6.9
	c17.2,4.6,30.1,19.9,36,36.7c5.9,16.8,5.9,35.1,4.8,52.9c-3.8,62.8-20,124.8-47.4,181.5c-7.2,14.8-15.4,29.7-28.4,39.9
	c-12.9,10.2-31.7,14.6-46.1,6.7c-22-11.9-23-42.6-21.1-67.6c3.4-44.7,6.9-89.4,10.3-134.2c1.6-20.1,3.6-41.6,16.2-57.4
	s39.7-21.6,52.5-6c-11.4,58.3-22.9,116.6-34.3,174.9"/>
<g>
	<text transform="matrix(1 0 0 1 615.1956 144.3518)" fill="#008A60" font-family="'PermanentMarker'" font-size="30.74">stress</text>
</g>
<g>
	
		<line fill="none" stroke="#000000" stroke-width="7" stroke-linecap="round" stroke-miterlimit="10" x1="660.3" y1="161" x2="660.3" y2="325.6"/>
	<path fill="none" stroke="#000000" stroke-width="7" stroke-linecap="round" stroke-linejoin="round" stroke-miterlimit="10" d="
		M651.3,167.7c2.2-4,4.8-7.9,7.8-11.4c0.1-0.1,0.2-0.3,0.4-0.3c0.2,0,0.4,0.1,0.6,0.3c3.5,3.3,6.7,7,9.6,10.9"/>
	<path fill="none" stroke="#000000" stroke-width="7" stroke-linecap="round" stroke-linejoin="round" stroke-miterlimit="10" d="
		M650.7,321c0.2,0.6,0.8,0.9,1.3,1.2c2.9,1.6,5.3,4.1,6.9,7c0.2,0.5,0.4,1.1,0.7,1.6c2.4-3.7,5.2-7.1,8.3-10.1"/>
</g>
<text transform="matrix(1 0 0 1 630.6526 362.5765)"><tspan x="0" y="0" fill="#008A60" font-family="'PermanentMarker'" font-size="30.74">feel</tspan><tspan x="-29.5" y="30" fill="#008A60" font-family="'PermanentMarker'" font-size="30.74">stressed</tspan></text>
<g>
	<path fill="none" stroke="#000000" stroke-width="7" stroke-linecap="round" stroke-miterlimit="10" d="M598.5,309.8
		c10.2-4,23,0.4,28.6,9.8c3.1,5.2,4,11.4,4.9,17.4"/>
	<path fill="none" stroke="#000000" stroke-width="7" stroke-linecap="round" stroke-linejoin="round" stroke-miterlimit="10" d="
		M601.7,301.1c-1.6,2.4-3.6,4.5-5.9,6.4c-0.3,0.2-0.5,0.5-0.6,0.8c-0.1,0.4,0.2,0.8,0.4,1.1c1.7,2.1,3.5,4,5.5,5.7"/>
</g>
<text transform="matrix(1 0 0 1 482.5544 305.2708)"><tspan x="0" y="0" fill="#008A60" font-family="'PermanentMarker'" font-size="30.74">stress</tspan><tspan x="-20.7" y="30" fill="#008A60" font-family="'PermanentMarker'" font-size="30.74">hormone</tspan></text>
<g>
	<path fill="none" stroke="#000000" stroke-width="7" stroke-linecap="round" stroke-miterlimit="10" d="M724.5,375.6
		c6.6-0.2,13.1-3.4,17.3-8.6c4.2-5.1,6.1-12.1,5-18.6"/>
	<path fill="none" stroke="#000000" stroke-width="7" stroke-linecap="round" stroke-linejoin="round" stroke-miterlimit="10" d="
		M739,351.5c2.3-2.5,4.7-5,7-7.6c3,2,5.5,4.8,7.2,8"/>
</g>
<text transform="matrix(1 0 0 1 741.9772 305.4846)"><tspan x="0" y="0" fill="#008A60" font-family="'PermanentMarker'" font-size="30.74">immune</tspan><tspan x="-9.4" y="30" fill="#008A60" font-family="'PermanentMarker'" font-size="30.74">response</tspan></text>
<g>
	<path fill="none" stroke="#000000" stroke-width="7" stroke-linecap="round" stroke-miterlimit="10" d="M576.6,277.4
		c22-21.9,52.4-35,83.4-36s62.2,10.2,85.5,30.7"/>
	<path fill="none" stroke="#000000" stroke-width="7" stroke-linecap="round" stroke-linejoin="round" stroke-miterlimit="10" d="
		M747.5,261.6c0,3.8,0,7.6,0,11.3c-4.1,0-8.2,0.2-12.3,0.6"/>
	<path fill="none" stroke="#000000" stroke-width="7" stroke-linecap="round" stroke-linejoin="round" stroke-miterlimit="10" d="
		M574.8,267.3c0.1,3.6,0,7.1-0.3,10.7c3.8,0,7.6,0,11.3,0"/>
</g>
<g>
	<path fill="none" stroke="#000000" stroke-width="7" stroke-linecap="round" stroke-miterlimit="10" d="M515.6,345.4
		c-1.3,3.1-2.1,6.6-2.1,10.2c0,14.4,11.7,26.1,26.1,26.1s26.1-11.7,26.1-26.1c0-3.6-0.7-7-2.1-10.2"/>
	<path fill="none" stroke="#000000" stroke-width="7" stroke-linecap="round" stroke-linejoin="round" stroke-miterlimit="10" d="
		M504.9,352.7c1.2-0.2,2-1.1,2.9-2c2.6-2.6,5.3-5,8.2-7.2c1.9,3.5,3.7,7,5.3,10.7"/>
</g>
<g>
	<path fill="none" stroke="#000000" stroke-width="7" stroke-linecap="round" stroke-miterlimit="10" d="M788.7,345.4
		c-1.3,3.1-2.1,6.6-2.1,10.2c0,14.4,11.7,26.1,26.1,26.1c14.4,0,26.1-11.7,26.1-26.1c0-3.6-0.7-7-2.1-10.2"/>
	<path fill="none" stroke="#000000" stroke-width="7" stroke-linecap="round" stroke-linejoin="round" stroke-miterlimit="10" d="
		M778.5,350.3c0.4,0,0.8,0,1.3-0.1c2.9-3.1,5.8-6.1,8.8-9.2c2.1,3.6,4,7.3,5.8,11"/>
</g>
<g>
	<path fill="none" stroke="#000000" stroke-width="7" stroke-linecap="round" stroke-miterlimit="10" d="M503.1,274.6
		c-2.7-9-9.2-16.9-17.5-21.4c-8.3-4.5-18.4-5.5-27.5-2.8"/>
	<path fill="none" stroke="#000000" stroke-width="7" stroke-linecap="round" stroke-linejoin="round" stroke-miterlimit="10" d="
		M460.7,243.8c-2.3,2.2-4.6,4.3-6.9,6.5c-0.2,0.7,0.4,1.4,0.9,2c2.1,2.2,4.5,4.1,7.1,5.7"/>
</g>
<text transform="matrix(1 0 0 1 299.1598 234.9045)"><tspan x="0" y="0" fill="#008A60" font-family="'PermanentMarker'" font-size="30.74">neuro</tspan><tspan x="-54.6" y="30" fill="#008A60" font-family="'PermanentMarker'" font-size="30.74">degeneration</tspan></text>
<g>
	<path fill="none" stroke="#000000" stroke-width="7" stroke-linecap="round" stroke-miterlimit="10" d="M457.1,300
		c-18.8-2.5-38.3-5-56.6-0.2c-18.4,4.8-35.7,18.7-38.7,37.5"/>
	<path fill="none" stroke="#000000" stroke-width="7" stroke-linecap="round" stroke-linejoin="round" stroke-miterlimit="10" d="
		M356.1,327c-0.3,5,1.4,10,4.7,13.7c3.3-2.7,6.6-5.5,9.9-8.2"/>
</g>
<text transform="matrix(1 0 0 1 287.4713 364.9404)"><tspan x="0" y="0" fill="#008A60" font-family="'PermanentMarker'" font-size="30.74">sleep</tspan><tspan x="-44.6" y="30" fill="#008A60" font-family="'PermanentMarker'" font-size="30.74">deprivation</tspan></text>
<g>
	
		<line fill="none" stroke="#000000" stroke-width="7" stroke-linecap="round" stroke-miterlimit="10" x1="330" y1="408" x2="330" y2="459"/>
	<path fill="none" stroke="#000000" stroke-width="7" stroke-linecap="round" stroke-linejoin="round" stroke-miterlimit="10" d="
		M322.1,455.9c1.2,4.2,3.6,8.1,6.9,10.9c3.3-3.1,6.1-6.7,8.4-10.6"/>
</g>
<text transform="matrix(1 0 0 1 266.6529 494.9753)"><tspan x="0" y="0" fill="#008A60" font-family="'PermanentMarker'" font-size="30.74">physical</tspan><tspan x="-8.4" y="30" fill="#008A60" font-family="'PermanentMarker'" font-size="30.74">inactivity</tspan></text>
<g>
	<path fill="none" stroke="#000000" stroke-width="7" stroke-linecap="round" stroke-miterlimit="10" d="M478.3,343.3
		c5,13.5-0.3,30.1-12.2,38.2c-13,8.9-32.1,8.1-42.2,20.1c-7.1,8.5-7.4,20.7-6,31.7c1.4,11,4.1,22.2,1.7,33
		c-2.4,10.8-12.2,21.1-23.1,19.2"/>
	<path fill="none" stroke="#000000" stroke-width="7" stroke-linecap="round" stroke-linejoin="round" stroke-miterlimit="10" d="
		M398.2,477.6c0.2,0.5-0.1,1-0.3,1.5c-1.7,2.7-4,5-6.6,6.7c4.1,2.4,8.3,4.9,12.4,7.3"/>
	<path fill="none" stroke="#000000" stroke-width="7" stroke-linecap="round" stroke-linejoin="round" stroke-miterlimit="10" d="
		M470.7,348.7c1.8-2.6,3.8-5.1,6.1-7.4c-0.1-0.5,0.2-1.1,0.7-1.3c3.5,1.5,6.9,3.4,10,5.7"/>
</g>
<g>
	<path fill="none" stroke="#000000" stroke-width="7" stroke-linecap="round" stroke-linejoin="round" stroke-miterlimit="10" d="
		M254.4,403.2c0,12.2-9.8,22-22,22s-22-9.8-22-22s9.8-22,22-22"/>
	<path fill="none" stroke="#000000" stroke-width="7" stroke-linecap="round" stroke-linejoin="round" stroke-miterlimit="10" d="
		M228.6,374.1c1.7,2.7,3.9,5.1,6.5,6.9c0.4,1-0.4,2.2-1.1,3c-1.6,1.9-3.2,3.7-4.8,5.6"/>
</g>
<g>
	<path fill="none" stroke="#000000" stroke-width="7" stroke-linecap="round" stroke-miterlimit="10" d="M201.2,275.3
		c2.4,0.4,4.3,2.6,4.3,5.1c0,2.9-2.3,5.2-5.2,5.2s-5.2-2.3-5.2-5.2c0-2.9,2.3-5.2,5.2-5.2"/>
	<path fill="none" stroke="#000000" stroke-width="7" stroke-linecap="round" stroke-miterlimit="10" d="M199.9,296.2
		c-1.1,7.3-2.2,14.7-1.3,22c0.9,7.3,4,14.7,9.9,19.1c5.9,4.4,13.6,5.3,21,5.4s14.9-0.5,21.9,1.5c7.1,2,13.9,7.3,15,14.5"/>
	<path fill="none" stroke="#000000" stroke-width="7" stroke-linecap="round" stroke-miterlimit="10" d="M295.4,272.3
		c1.2,13.3-7.9,26.9-20.8,30.7c-5.6,1.7-12,1.6-17.1-1.3c-4.5-2.5-7.7-6.9-11.4-10.4c-7.9-7.4-19-11.3-29.9-10.4"/>
	
		<line fill="none" stroke="#000000" stroke-width="7" stroke-linecap="round" stroke-miterlimit="10" x1="199.8" y1="265" x2="199.8" y2="172.3"/>
	<path fill="none" stroke="#000000" stroke-width="7" stroke-linecap="round" stroke-miterlimit="10" d="M95.6,313.8
		c1.4,10.2,10.4,18.9,20.7,19.7c9.7,0.8,19-4.7,25.8-11.8c6.7-7.1,11.5-15.8,17.4-23.6c5.9-7.8,13.3-15.1,22.7-17.7"/>
	<path fill="none" stroke="#000000" stroke-width="7" stroke-linecap="round" stroke-linejoin="round" stroke-miterlimit="10" d="
		M223.2,274c-2.5,2.6-5.2,5-8.1,7.2c2.5,2.5,5.1,5,7.6,7.5"/>
	<path fill="none" stroke="#000000" stroke-width="7" stroke-linecap="round" stroke-linejoin="round" stroke-miterlimit="10" d="
		M192,301.1c2.3-2.3,4.8-4.5,7.6-6.3c0.3-0.2,0.6-0.4,0.9-0.3c0.2,0,0.4,0.2,0.6,0.3c2.7,2.2,5.1,4.7,7.2,7.4"/>
	<path fill="none" stroke="#000000" stroke-width="7" stroke-linecap="round" stroke-linejoin="round" stroke-miterlimit="10" d="
		M190.5,179.6c3.2-3.1,6.2-6.5,8.9-10.1c2.8,2.9,5.5,5.8,8.2,8.9"/>
	<path fill="none" stroke="#000000" stroke-width="7" stroke-linecap="round" stroke-linejoin="round" stroke-miterlimit="10" d="
		M90,321.3c-0.7-3.6,0.2-7.6,2.4-10.6c0.3-0.1,0.5-0.3,0.8-0.4c1.4-0.4,2.9,0.7,4,1.7c2.3,2,5,3.7,7.7,5"/>
</g>
<text transform="matrix(1 0 0 1 5.0581 269.9438)"><tspan x="0" y="0" fill="#008A60" font-family="'PermanentMarker'" font-size="30.74">less brain</tspan><tspan x="29.1" y="30" fill="#008A60" font-family="'PermanentMarker'" font-size="30.74">power</tspan></text>
<text transform="matrix(1 0 0 1 108.9953 129.352)"><tspan x="0" y="0" fill="#008A60" font-family="'PermanentMarker'" font-size="30.74">dysfunctional</tspan><tspan x="36.2" y="30" fill="#008A60" font-family="'PermanentMarker'" font-size="30.74">behavior</tspan></text>
<path fill="none" stroke="#000000" stroke-width="7" stroke-linecap="round" stroke-miterlimit="10" d="M76,241.6
	c-0.8-34.3,19.1-68.3,49.5-84.2"/>
<path fill="none" stroke="#000000" stroke-width="7" stroke-linecap="round" stroke-linejoin="round" stroke-miterlimit="10" d="
	M115.5,154c4.1-0.2,8.2-0.1,12.3,0.3c-0.3,4.4-0.6,8.9-0.9,13.3"/>
<g>
	<path fill="none" stroke="#000000" stroke-width="7" stroke-linecap="round" stroke-miterlimit="10" d="M313,109
		c38.5-24.2,82.8-39.3,128.1-43.5"/>
	<path fill="none" stroke="#000000" stroke-width="7" stroke-linecap="round" stroke-linejoin="round" stroke-miterlimit="10" d="
		M438.9,59.3c3.2,2.2,6.4,4.4,9.6,6.6c-3.4,1.5-6.4,3.8-8.6,6.8"/>
</g>
<text transform="matrix(1 0 0 1 461.0083 72.0466)"><tspan x="0" y="0" fill="#008A60" font-family="'PermanentMarker'" font-size="30.74">economic</tspan><tspan x="22.3" y="30" fill="#008A60" font-family="'PermanentMarker'" font-size="30.74">status</tspan></text>
<g>
	<path fill="none" stroke="#000000" stroke-width="7" stroke-linecap="round" stroke-miterlimit="10" d="M504.6,44.2
		c-1.3-3.1-2.1-6.6-2.1-10.2c0-14.4,11.7-26.1,26.1-26.1c14.4,0,26.1,11.7,26.1,26.1c0,3.6-0.7,7-2.1,10.2"/>
	<path fill="none" stroke="#000000" stroke-width="7" stroke-linecap="round" stroke-linejoin="round" stroke-miterlimit="10" d="
		M547,33.3c-1,4.9,0,10.2,2.8,14.4c6.1-1.9,11.7-5.3,16.3-9.8"/>
</g>
<g>
	<path fill="none" stroke="#000000" stroke-width="7" stroke-linecap="round" stroke-miterlimit="10" d="M605.1,77.4
		c10.9-1,22.2,2.3,30.8,9.1c8.6,6.8,14.5,16.9,16,27.8"/>
	<path fill="none" stroke="#000000" stroke-width="7" stroke-linecap="round" stroke-linejoin="round" stroke-miterlimit="10" d="
		M642,109.1c4,2.7,7.5,6.3,10,10.4c0.4,0.3,0.9-0.3,1-0.8c1.1-4.9,2.1-9.9,3.2-14.8"/>
</g>
<g>
	<path fill="none" stroke="#000000" stroke-width="7" stroke-linecap="round" stroke-miterlimit="10" d="M308.9,144.6
		c36.1,35.9,89.1,53.9,139.5,47.4"/>
	<path fill="none" stroke="#000000" stroke-width="7" stroke-linecap="round" stroke-linejoin="round" stroke-miterlimit="10" d="
		M446.6,185.6c1.6,1.4,3.2,2.8,4.7,4.2c1.1,1,2.2,2,3.5,2.7c-3.5,1.5-6.6,4.1-8.9,7.2"/>
</g>
<text transform="matrix(1 0 0 1 481.9358 186.6572)"><tspan x="0" y="0" fill="#008A60" font-family="'PermanentMarker'" font-size="30.74">social</tspan><tspan x="-22.7" y="30" fill="#008A60" font-family="'PermanentMarker'" font-size="30.74">isolation</tspan></text>
<g>
	<path fill="none" stroke="#000000" stroke-width="7" stroke-linecap="round" stroke-miterlimit="10" d="M504.6,158.2
		c-1.3-3.1-2.1-6.6-2.1-10.2c0-14.4,11.7-26.1,26.1-26.1c14.4,0,26.1,11.7,26.1,26.1c0,3.6-0.7,7-2.1,10.2"/>
	<path fill="none" stroke="#000000" stroke-width="7" stroke-linecap="round" stroke-linejoin="round" stroke-miterlimit="10" d="
		M546.6,148.5c2.4,4.3,4.4,8.8,6,13.4c3.4-6,8.5-11.1,14.5-14.5"/>
</g>
<g>
	<path fill="none" stroke="#000000" stroke-width="7" stroke-linecap="round" stroke-miterlimit="10" d="M587.9,185.2
		c8.8,1.9,18.3-0.2,25.5-5.5c7.2-5.3,12.1-13.8,13-22.7"/>
	<path fill="none" stroke="#000000" stroke-width="7" stroke-linecap="round" stroke-linejoin="round" stroke-miterlimit="10" d="
		M618.2,157.4c3-2.8,6.3-5.3,9.9-7.3c0.5,4.4,2.1,8.7,4.6,12.3"/>
</g>
<g>
	<path fill="none" stroke="#000000" stroke-width="7" stroke-linecap="round" stroke-miterlimit="10" d="M691.8,156.3
		c-1.3,12,3.2,24.5,11.8,32.9c5.8,6.3,14.4,9.9,22.9,9.8"/>
	<path fill="none" stroke="#000000" stroke-width="7" stroke-linecap="round" stroke-linejoin="round" stroke-miterlimit="10" d="
		M724.2,190.6c2.5,2.6,4.6,5.5,6.4,8.6c1.2,0.4,2.2,1.1,3,2.1c-4.2,0.9-8.2,2.9-11.4,5.7"/>
</g>
<text transform="matrix(1 0 0 1 751.2 171.7643)"><tspan x="0" y="0" fill="#008A60" font-family="'PermanentMarker'" font-size="30.74">stress</tspan><tspan x="-11.4" y="30" fill="#008A60" font-family="'PermanentMarker'" font-size="30.74">related</tspan><tspan x="-13.8" y="60" fill="#008A60" font-family="'PermanentMarker'" font-size="30.74">diseases</tspan></text>
<g>
	<path fill="none" stroke="#000000" stroke-width="7" stroke-linecap="round" stroke-miterlimit="10" d="M865.1,218
		c18.7,2.6,38.4,2.9,55.7-4.6c17.3-7.6,31.5-24.6,30.8-43.5"/>
	<path fill="none" stroke="#000000" stroke-width="7" stroke-linecap="round" stroke-linejoin="round" stroke-miterlimit="10" d="
		M943.3,174.7c2.1-3.9,5.2-7.2,8.9-9.5c1.9,3.6,4.2,7.1,6.8,10.3"/>
</g>
<text transform="matrix(1 0 0 1 943.6817 129.4054)"><tspan x="0" y="0" fill="#008A60" font-family="'PermanentMarker'" font-size="30.74">poor</tspan><tspan x="-14.7" y="30" fill="#008A60" font-family="'PermanentMarker'" font-size="30.74">health</tspan></text>
<g>
	<path fill="none" stroke="#000000" stroke-width="7" stroke-linecap="round" stroke-miterlimit="10" d="M863.8,54.3
		c20.9-1.4,42.4-2.7,62.3,3.8c19.9,6.5,38.1,22.8,40.4,43.6"/>
	<path fill="none" stroke="#000000" stroke-width="7" stroke-linecap="round" stroke-linejoin="round" stroke-miterlimit="10" d="
		M867.7,46.1c-2.6,2.3-5.2,4.6-7.8,6.9c-0.4,0.4-0.9,0.8-1.3,1.2c-0.2,0.2-0.3,0.4-0.4,0.6c-0.1,0.5,0.4,1,0.8,1.3
		c3,2.1,6,4.1,9,6.2"/>
</g>
<text transform="matrix(1 0 0 1 746.2095 57.0458)"><tspan x="0" y="0" fill="#008A60" font-family="'PermanentMarker'" font-size="30.74">disease</tspan><tspan x="-4.7" y="30" fill="#008A60" font-family="'PermanentMarker'" font-size="30.74">related</tspan><tspan x="6.7" y="60" fill="#008A60" font-family="'PermanentMarker'" font-size="30.74">stress</tspan></text>
<g>
	<path fill="none" stroke="#000000" stroke-width="7" stroke-linecap="round" stroke-miterlimit="10" d="M672.2,115
		c0.1-12.8,6.3-25.4,16.5-33.2s23.9-10.6,36.3-7.4"/>
	<path fill="none" stroke="#000000" stroke-width="7" stroke-linecap="round" stroke-linejoin="round" stroke-miterlimit="10" d="
		M664.8,107.4c1.8,1.8,3.2,3.9,4.2,6.2c0.8,1.9,1.4,4,2.6,5.7c0.1,0.1,0.2,0.2,0.3,0.2c0.2,0,0.3-0.1,0.5-0.3c3.1-4,6.3-8,9.4-11.9"
		/>
</g>
<g>
	<path fill="none" stroke="#000000" stroke-width="7" stroke-linecap="round" stroke-miterlimit="10" d="M1039.2,134
		c13.7-4.8,23.5-17.8,23.5-33.1c0-19.3-15.7-35-35-35c-19.3,0-35,15.7-35,35"/>
	<path fill="none" stroke="#000000" stroke-width="7" stroke-linecap="round" stroke-linejoin="round" stroke-miterlimit="10" d="
		M985,91c1.1,4.9,4.4,9,7.6,12.9c1.1,0.4,2-0.8,2.5-1.9c1.7-3.3,4.1-6.3,7-8.7"/>
</g>
<g>
	
		<line fill="none" stroke="#000000" stroke-width="7" stroke-linecap="round" stroke-miterlimit="10" x1="979.4" y1="173.8" x2="979.4" y2="271.9"/>
	<path fill="none" stroke="#000000" stroke-width="7" stroke-linecap="round" stroke-linejoin="round" stroke-miterlimit="10" d="
		M969.8,263.8c2.7,4.9,5.7,9.6,8.9,14.1c2.2-3.2,4.7-6.2,7.5-8.9"/>
</g>
<text transform="matrix(1 0 0 1 923.0735 305.2704)"><tspan x="0" y="0" fill="#008A60" font-family="'PermanentMarker'" font-size="30.74">chronic</tspan><tspan x="4.1" y="30" fill="#008A60" font-family="'PermanentMarker'" font-size="30.74">illness</tspan></text>
<g>
	
		<line fill="none" stroke="#000000" stroke-width="7" stroke-linecap="round" stroke-miterlimit="10" x1="871.2" y1="311" x2="913.9" y2="311"/>
	<path fill="none" stroke="#000000" stroke-width="7" stroke-linecap="round" stroke-linejoin="round" stroke-miterlimit="10" d="
		M873.7,304.6c-2.8,1.8-5.2,4.2-7,7c2.2,1.5,4.5,3.1,6.7,4.6c0.1,0.3,0.3,0.6,0.4,0.8"/>
</g>
<g>
	<path fill="none" stroke="#000000" stroke-width="7" stroke-linecap="round" stroke-miterlimit="10" d="M659.8,404.3
		c0,18.7,0,37.3,0,56"/>
	<path fill="none" stroke="#000000" stroke-width="7" stroke-linecap="round" stroke-linejoin="round" stroke-miterlimit="10" d="
		M652.3,458.5c2.8,2.4,5.4,5.1,7.6,8c1.5-2.6,3.5-5,5.6-7"/>
</g>
<text transform="matrix(1 0 0 1 596.8682 494.9755)"><tspan x="0" y="0" fill="#008A60" font-family="'PermanentMarker'" font-size="30.74">negative</tspan><tspan x="-55.2" y="30" fill="#008A60" font-family="'PermanentMarker'" font-size="30.74">representations</tspan></text>
<g>
	<path fill="none" stroke="#000000" stroke-width="7" stroke-linecap="round" stroke-miterlimit="10" d="M749.6,490.1
		c14.3-3.4,25.5-17.1,26.1-31.8"/>
	<path fill="none" stroke="#000000" stroke-width="7" stroke-linecap="round" stroke-linejoin="round" stroke-miterlimit="10" d="
		M765.8,463.9c3-2.4,6.4-4.3,10.1-5.6c2.4,2.8,5.1,5.4,7.9,7.7"/>
</g>
<text transform="matrix(1 0 0 1 750.8391 420.2031)"><tspan x="0" y="0" fill="#008A60" font-family="'PermanentMarker'" font-size="30.74">biased</tspan><tspan x="-40.7" y="30" fill="#008A60" font-family="'PermanentMarker'" font-size="30.74">perceptions</tspan></text>
<g>
	<path fill="none" stroke="#000000" stroke-width="7" stroke-linecap="round" stroke-miterlimit="10" d="M535.7,448.4
		c-2.5,8-1.7,17,2.2,24.4c3.9,7.4,10.8,13.2,18.8,15.8"/>
	<path fill="none" stroke="#000000" stroke-width="7" stroke-linecap="round" stroke-linejoin="round" stroke-miterlimit="10" d="
		M526.3,453.1c1.8-1.3,3.5-2.8,4.8-4.6c1.2-1.6,2.3-3.5,4.2-4.4c2.6,3.2,5.3,6.4,8.1,9.5"/>
</g>
<text transform="matrix(1 0 0 1 443.2925 434.8827)" fill="#008A60" font-family="'PermanentMarker'" font-size="30.74">rumination</text>
<g>
	<path fill="none" stroke="#000000" stroke-width="7" stroke-linecap="round" stroke-miterlimit="10" d="M684.8,407.7
		c-1.3,7.1-2.7,14.5-1,21.5c1.6,7,7.1,13.7,14.3,14.5"/>
	<path fill="none" stroke="#000000" stroke-width="7" stroke-linecap="round" stroke-miterlimit="10" d="M632.2,405.3
		c1,4.8,2,9.6,1.8,14.5c-0.2,4.9-1.8,9.9-5.3,13.3c-4.3,4.2-11.3,5.3-16.6,2.6"/>
	<path fill="none" stroke="#000000" stroke-width="7" stroke-linecap="round" stroke-linejoin="round" stroke-miterlimit="10" d="
		M623.9,409.7c2.3-2.9,4.8-5.6,7.4-8.2c3.2,1.5,5.4,4.9,8.9,5.4"/>
	<path fill="none" stroke="#000000" stroke-width="7" stroke-linecap="round" stroke-linejoin="round" stroke-miterlimit="10" d="
		M676.7,410.1c2.6-2.3,5.1-4.7,7.7-7c0.2-0.2,0.4-0.4,0.7-0.4c0.4,0,0.7,0.2,1,0.5c2.7,2.6,4.9,5.7,6.2,9.2"/>
</g>
<g>
	<path fill="none" stroke="#000000" stroke-width="7" stroke-linecap="round" stroke-miterlimit="10" d="M456.1,446.7
		c-1.3,3.1-2.1,6.6-2.1,10.2c0,14.4,11.7,26.1,26.1,26.1c14.4,0,26.1-11.7,26.1-26.1c0-3.6-0.7-7-2.1-10.2"/>
	<path fill="none" stroke="#000000" stroke-width="7" stroke-linecap="round" stroke-linejoin="round" stroke-miterlimit="10" d="
		M446.8,450.7c1.2,0,2.2-0.9,3-1.7c2-2.1,3.9-4.1,5.9-6.2c1.4,2.9,3.2,5.6,5.3,8.1c0.5,0.7,0.9,1.4,1.4,2.1"/>
</g>
<g>
	<path fill="none" stroke="#000000" stroke-width="7" stroke-linecap="round" stroke-miterlimit="10" d="M390.2,537
		c0,0,122.2,34,270.1,34s258.9-34,258.9-34"/>
	<path fill="none" stroke="#000000" stroke-width="7" stroke-linecap="round" stroke-linejoin="round" stroke-miterlimit="10" d="
		M910.7,529.5c1.2,0.7,2.3,1.5,3.5,2.2c1.7,1,3.3,2.1,5.2,2.7c1.3,0.5,2.7,0.8,3.8,1.7c-2.7,3.9-4.9,8-6.7,12.4"/>
</g>
<text transform="matrix(1 0 0 1 919.1556 494.9755)"><tspan x="0" y="0" fill="#008A60" font-family="'PermanentMarker'" font-size="30.74">physical</tspan><tspan x="9.8" y="30" fill="#008A60" font-family="'PermanentMarker'" font-size="30.74">health</tspan></text>
<g>
	<path fill="none" stroke="#000000" stroke-width="7" stroke-linecap="round" stroke-miterlimit="10" d="M1040.9,468.5
		c0,0,43.5-68.6,43.5-157.6s-43.5-150-43.5-150"/>
	<path fill="none" stroke="#000000" stroke-width="7" stroke-linecap="round" stroke-linejoin="round" stroke-miterlimit="10" d="
		M1035,171.6c0.5-4.9,1.3-9.7,2.2-14.6c4.1,1.3,8.3,2.1,12.6,2.4"/>
</g>
<text transform="matrix(1 0 0 1 491.3534 630.2007)" fill="#E81E26" font-family="'PermanentMarker'" font-size="30.74">depression starts here</text>
<line fill="none" stroke="#E81E26" stroke-width="7" stroke-linecap="round" stroke-miterlimit="10" x1="659.8" y1="601.5" x2="659.8" y2="543.5"/>
<path fill="none" stroke="#E81E26" stroke-width="7" stroke-linecap="round" stroke-linejoin="round" stroke-miterlimit="10" d="
	M647.9,551.6c3.8-3.9,7.7-7.7,11.5-11.6c4.4,3.3,8.7,6.7,13.1,10"/>
</svg>
