<?xml version="1.0" encoding="utf-8"?>
<!-- Generator: Adobe Illustrator 18.0.0, SVG Export Plug-In . SVG Version: 6.00 Build 0)  -->
<!DOCTYPE svg PUBLIC "-//W3C//DTD SVG 1.1//EN" "http://www.w3.org/Graphics/SVG/1.1/DTD/svg11.dtd">
<svg version="1.1" id="Layer_1" xmlns="http://www.w3.org/2000/svg" xmlns:xlink="http://www.w3.org/1999/xlink" x="0px" y="0px"
	 viewBox="0 0 593.5 298" enable-background="new 0 0 593.5 298" xml:space="preserve">
<path fill="none" stroke="#FFFFFF" stroke-width="120" stroke-linejoin="bevel" stroke-miterlimit="10" d="M512.5,16.8
	C366,19.5,219.6,22.2,73.2,25c-10,0.2-20.5,0.5-28.9,6C29,40.9,27.8,62.3,28.2,80.5c1.4,63.8,2.7,127.6,4.1,191.5
	c48.4-5.3,97.3-6.3,145.9-3c26.1,1.8,52.3,4.8,78.3,2.3c28.5-2.8,56.1-12.2,84.5-16c49.7-6.6,100.5,4.1,150.1-3.4
	c32.5-4.9,63.8-17.9,90.3-37.3c1,17.2,2.1,34.4,3.1,51.6"/>
<g>
	
		<line fill="none" stroke="#000000" stroke-width="7" stroke-linecap="round" stroke-linejoin="round" stroke-miterlimit="10" x1="576.1" y1="265.2" x2="10.2" y2="265.2"/>
	
		<polyline fill="none" stroke="#000000" stroke-width="7" stroke-linecap="round" stroke-linejoin="round" stroke-miterlimit="10" points="
		554.1,242.7 576.1,265.2 554.1,287.7 	"/>
	<text transform="matrix(1 0 0 1 535.1514 231.229)" font-family="'PermanentMarker'" font-size="30.7418">age</text>
</g>
<g>
	
		<line fill="none" stroke="#000000" stroke-width="7" stroke-linecap="round" stroke-linejoin="round" stroke-miterlimit="10" x1="33.2" y1="17.2" x2="33.2" y2="287.6"/>
	
		<polyline fill="none" stroke="#000000" stroke-width="7" stroke-linecap="round" stroke-linejoin="round" stroke-miterlimit="10" points="
		10.7,39.2 33.2,17.2 55.7,39.2 	"/>
	<text transform="matrix(1 0 0 1 66.2217 28.1919)" font-family="'PermanentMarker'" font-size="30.7418">how much money i’m making</text>
</g>
<path fill="none" stroke="#8CC63F" stroke-width="7" stroke-linecap="round" stroke-miterlimit="10" d="M36.3,263.6
	c23.3-1.2,46.5-2.5,69.8-3.7c23-1.2,46-3,69-3.4c11.2-0.2,22.4,0.1,33.4,2c10.7,1.8,21.1,5.7,31.9,6.7c10.5,0.9,19-2.5,28.1-7.4
	c7.6-4.1,15.3-8,24.3-7.4c28,1.9,52.1,38.3,80,15.3c10.8-8.9,20.4-23.8,36.4-21.9c15,1.8,25.5,15,40.1,17.9
	c16.9,3.4,25-13.5,39.3-17.9c9.2-2.8,16.9,2.9,24.3,7.7c8,5.3,17,9,26.5,10.6c4,0.7,8,1,12,1"/>
</svg>
