<?xml version="1.0" encoding="utf-8"?>
<!-- Generator: Adobe Illustrator 19.2.0, SVG Export Plug-In . SVG Version: 6.00 Build 0)  -->
<svg version="1.1" id="Layer_1" xmlns="http://www.w3.org/2000/svg" xmlns:xlink="http://www.w3.org/1999/xlink" x="0px" y="0px"
	 width="609.9px" height="434.8px" viewBox="0 0 609.9 434.8" enable-background="new 0 0 609.9 434.8" xml:space="preserve">
<path fill="none" stroke="#FFFFFF" stroke-width="120" stroke-linejoin="bevel" stroke-miterlimit="10" d="M234.8,9.3
	c-2.1,19.5-4.2,39-6.3,58.5c31.1-16.7,58.6-40,80.2-67.8c-4.6,26.4-9.2,52.8-13.7,79.2c35.2-21.5,70.3-43,105.5-64.4
	c-23.4,47.2-72.8,80.3-125.3,84.1c12,6.3,24,12.5,36.1,18.8c-10.5,35.5-10.5,73.1-10.4,110.1c0.1,47.6,0.2,95.1,0.3,142.7
	c-19-36.9-37.9-73.9-56.9-110.8c-10.7,6.9-14.7,20.5-16.1,33.1c-1.4,12.6-1.2,25.8-6.7,37.3c-5.4,11.5-19.2,20.4-30.8,15.2
	c-15.3-6.8-14.4-30.5-27.7-40.7c-11.4-8.8-29.1-3.3-38.3,7.8c-9.2,11.1-12.1,25.9-14.8,40.1c-3.4-24.8-6.7-49.6-10.1-74.3
	c-1.1-7.9-2.4-16.3-7.5-22.5c-11.5-13.6-35.7-6.6-45,8.7c-9.3,15.3-8,34.4-6.5,52.2c-11.9-5.2-24.6-11.3-30.4-23
	c-5.8-11.6,1.2-29.6,14.2-28.9c13.8,0.7,18.3,18.5,19.3,32.3c1,13.7,6.8,31.6,20.6,30.9c14-0.7,17.7-19.6,17.2-33.7
	c-1.5-42.2-3-84.4-4.5-126.6c-0.6-16.3-1.1-32.9,3.6-48.5c4.8-15.6,15.9-30.2,31.6-34.7c-4.2,18.4-8.4,37.2-6.6,56
	c1.8,18.8,10.7,37.9,27.1,47.2c14.6,8.3,33.9,7.3,47.5-2.4c-8.6,16.9,5.3,40.5,24.3,41.1c9.9,0.3,19.8-4.5,29.4-2.1
	c9.4,2.4,15.6,10.9,20.7,19.2c5,8.2,10.1,17.2,18.7,21.5c8.6,4.3,21.8,0.5,23-9.1c4.4,18.9,24.9,32.5,44,29.2
	c-6.3,6-12.9,12.4-16,20.5c-3.1,8.2-1.7,18.8,5.5,23.7c12.3,8.3,28.3-5.6,32.8-19.8c4.4-14.2,4.5-30.9,15.1-41.4
	c1.7,14.3,3.4,28.6,5.2,42.9c1.1,9.1,2.3,18.5,7.4,26.1c8.8,13.2,29.4,16.5,42,6.8c12.6-9.7-10.5-33-21-44.9
	c3.5,8.8,32.1,20.4,38.6,27.3c6.5,6.9,16.6,11.3,25.6,8.4c15.6-5,17.8-25.6,24.8-40.4c11.9-25.1,46.5-36.3,70.9-22.8
	c7.7,3.7,3.6,16.6-4.3,19.9c-7.9,3.4-16.9,1.5-25.4,2.9c-8.4,1.4-17.4,9.4-14,17.3c9.2-3.7,18.9-7.4,28.8-6
	c9.8,1.5,19.2,10.3,17.6,20c-1.8,11.1-15.6,15.7-26.8,14.7c-11.2-1-22.3-5.4-33.3-3.2c-14.2,2.9-24.3,16.5-27.4,30.7
	c-3.2,14.2-0.8,28.9,1.6,43.2c24.9-21.2,43-50.4,51.1-82.1c9,8,10.7,21.4,10,33.4s-3,24.3,0.4,35.9c3.4,11.6,15.2,21.9,26.7,18.5
	c-8.6-78.2-17.1-156.4-25.7-234.7c-2-18.7-7.7-41.7-26.1-45.7c-16.9-3.7-31.2,11.7-42.6,24.6c-45.7,51.8-108.1,88.6-175.6,103.3"/>
<g>
	
		<line fill="none" stroke="#000000" stroke-width="7" stroke-linecap="round" stroke-linejoin="round" stroke-miterlimit="10" x1="66.1" y1="322.3" x2="568.4" y2="322.3"/>
	<g>
		
			<polyline fill="none" stroke="#000000" stroke-width="7" stroke-linecap="round" stroke-linejoin="round" stroke-miterlimit="10" points="
			547.4,299.8 569.4,322.3 547.4,344.8 		"/>
	</g>
	
		<line fill="none" stroke="#000000" stroke-width="7" stroke-linecap="round" stroke-linejoin="round" stroke-miterlimit="10" x1="306.6" y1="355" x2="306.6" y2="88.4"/>
	<g>
		
			<polyline fill="none" stroke="#000000" stroke-width="7" stroke-linecap="round" stroke-linejoin="round" stroke-miterlimit="10" points="
			284.1,109.7 306.6,87.7 329.1,109.7 		"/>
	</g>
</g>
<g id="Arrow_right">
</g>
<text transform="matrix(1 0 0 1 516.0222 376.1204)" fill="#72AA8B" font-family="'PermanentMarker'" font-size="30.74px">job</text>
<text transform="matrix(1 0 0 1 5.8997 283.0022)" font-family="'PermanentMarker'" font-size="30.74px">physical</text>
<text transform="matrix(1 0 0 1 493.692 283.0022)" font-family="'PermanentMarker'" font-size="30.74px">mental</text>
<g>
	<text transform="matrix(1 0 0 1 258.9335 73.4872)" fill="#72AA8B" font-family="'PermanentMarker'" font-size="30.74px">salary</text>
</g>
<path fill="none" stroke="#72AA8B" stroke-width="7" stroke-linecap="round" stroke-linejoin="round" stroke-miterlimit="10" d="
	M87.8,300.9c79.5-3.5,160-8.8,235.7-33.4S470.7,196.8,510.7,128"/>
<text transform="matrix(1 0 0 1 463.1208 409.1651)" fill="#CE3045" font-family="'PermanentMarker'" font-size="30.74px">illness</text>
<g>
	<text transform="matrix(1 0 0 1 223.0302 42.4615)" fill="#CE3045" font-family="'PermanentMarker'" font-size="30.74px">healthcare</text>
</g>
<path fill="none" stroke="#CE3045" stroke-width="7" stroke-linecap="round" stroke-linejoin="round" stroke-miterlimit="10" d="
	M98.4,127.5C198.3,241,349.5,307.6,500.7,304.7"/>
<g id="Arrow_up">
</g>
</svg>
