 
 
 
<svg version="1.1" id="Layer_1" xmlns="http://www.w3.org/2000/svg" xmlns:xlink="http://www.w3.org/1999/xlink" x="0px" y="0px"
	 viewBox="0 0 868 494" enable-background="new 0 0 868 494" xml:space="preserve">
<path stroke="#FFFFFF" stroke-width="120" d="M13.6,145.6
	c59.3-13,126.8,18.6,179.2-11.9c22.4-13.1,37.5-35.3,54.7-54.7s40-37.3,65.9-36.4c-35.2,50-54.9,110.8-55.7,172
	c-0.4,29,3.1,59.3-8.5,85.8c-11.5,26.3-36,44.4-60.8,58.7C136.3,389.3,78,408.7,18.2,415.8c52.6-12.8,107.1-17.4,161.1-13.5
	c18.2,1.3,37.3,3.4,54-3.8s29.3-27.9,20.8-44c2.4,34.3,9.8,68.3,21.8,100.5c13.1,10.6,32.9,1.5,45-10.3s23.3-27,40-29.5
	c22.9-3.4,40.6,18.3,60.1,30.8c25.8,16.6,60.9,17.2,87.3,1.6c12.5-7.4,22.9-18,35.7-24.7c12.8-6.7,30-8.6,40.8,1
	c6,5.3,9.1,13.4,15.6,18.1c10.3,7.6,24.7,4.2,36.9,0.5c49.4-15,98.7-29.9,148.1-44.9c2.6,22.6-1.6,46-11.8,66.3
	c20.4,0.8,41.4-10.1,50.3-28.4c8.9-18.3,3.3-43.2-13.9-54.1c-23-14.6-52.5-1.4-79.1,4.3c-49.5,10.6-100-6.6-148.9-19.6
	c-48.9-13-109.6-7.2-152.9,18.9c151.9-77.8,259.9-249,416.6-316.5C767.3,117,645.7,51.6,566.1,98.4c2.7-25.8-24.3-48.8-50-45.8
	s-46,27.1-48.9,52.9C444.1,86.7,421.1,67.9,398,49c-11.4-9.3-26-19.1-39.6-13.6C348,39.6,342.9,51,338.8,61.3
	c-8.1,20.5-16.3,43.3-8.6,64c5.2,13.9,16.7,24.3,27.8,34.1c48.4,42.8,96.8,85.5,145.2,128.3"/>
<g>
	
		<line stroke-width="7" x1="236.2" y1="424.7" x2="819.6" y2="424.7"/>
	
		<polyline stroke-width="7" points="
		797.6,402.2 819.6,424.7 797.6,447.2 	"/>
	<text transform="matrix(1 0 0 1 765.187 382.1011)" font-family="'PermanentMarker'" font-size="31">age</text>
	<text transform="matrix(1 0 0 1 272.1157 461.502)" font-family="'PermanentMarker'" font-size="31">20</text>
	<text transform="matrix(1 0 0 1 430.1104 461.502)" font-family="'PermanentMarker'" font-size="31">25</text>
	<text transform="matrix(1 0 0 1 588.8555 461.502)" font-family="'PermanentMarker'" font-size="31">30</text>
	<text transform="matrix(1 0 0 1 746.8501 461.502)" font-family="'PermanentMarker'" font-size="31">35</text>
</g>
<g>
	
		<polyline stroke-width="7" points="
		236.2,120 258.7,98 281.2,120 	"/>
	
		<line stroke-width="7" x1="258.7" y1="98" x2="258.7" y2="446.7"/>
</g>
<g>
	<text transform="matrix(1 0 0 1 15.6348 158.3125)" font-family="'PermanentMarker'" font-size="31">sounds great !</text>
</g>
<g>
	<text transform="matrix(1 0 0 1 236.1895 54.4346)" fill="#B25538" font-family="'PermanentMarker'" font-size="31">going out partying</text>
</g>
<path stroke="#B25538" stroke-width="7" d="
	M292.8,120c161.4,0,165.3,285,471.7,285"/>
<g>
	<text transform="matrix(1 0 0 1 25.2617 404.9971)" font-family="'PermanentMarker'" font-size="31">you kidding ?!</text>
</g>
<g>
	<text transform="matrix(1 0 0 1 236.1895 85.4346)" fill="#507282" font-family="'PermanentMarker'" font-size="31">gettin up nice and early for the market</text>
</g>
<path stroke="#507282" stroke-width="7" d="
	M292.8,405c321.1,0,315.3-285,471.7-285"/>
</svg>
