<?xml version="1.0" encoding="utf-8"?>
<!-- Generator: Adobe Illustrator 19.2.0, SVG Export Plug-In . SVG Version: 6.00 Build 0)  -->
<svg version="1.1" id="Layer_1" xmlns="http://www.w3.org/2000/svg" xmlns:xlink="http://www.w3.org/1999/xlink" x="0px" y="0px"
	 width="338.27px" height="224.6px" viewBox="0 0 338.27 224.6" enable-background="new 0 0 338.27 224.6" xml:space="preserve">
<path fill="none" stroke="#FFFFFF" stroke-width="120" stroke-linejoin="bevel" stroke-miterlimit="10" d="M68.87,16.59
	c-17.07,28.13-34.14,56.26-51.21,84.4C57.82,62.74,106.6,33.6,159.3,16.35C104.89,56.86,56.17,105.01,15.02,158.94
	c75.84-37.3,145.64-86.85,205.87-146.15c-47.54,61.32-95.08,122.63-142.61,183.95c54.16-70.4,116.58-134.45,185.57-190.41
	c-43.47,72.71-86.94,145.42-130.41,218.13c54.99-55.5,109.99-111.01,164.98-166.51c-39.04,68.1-78.09,136.19-117.13,204.29
	C237.69,201.72,294.1,141.21,350.5,80.69c-27.37,43.81-54.75,87.63-82.12,131.44c18.65-10.96,37.3-21.91,55.94-32.87"/>
<g>
	<g>
		<text transform="matrix(1 0 0 1 129.3054 43.7605)" font-family="'PermanentMarker'" font-size="30.74px">guess</text>
	</g>
	<g>
		<path fill="none" stroke="#EF4136" stroke-width="7" stroke-linecap="round" stroke-linejoin="round" stroke-miterlimit="10" d="
			M246.88,34.2c32.24,6.61,59.01,34.47,64.34,66.94c5.33,32.47-11.13,67.43-39.56,84"/>
		<path fill="none" stroke="#EF4136" stroke-width="7" stroke-linecap="round" stroke-linejoin="round" stroke-miterlimit="10" d="
			M268.72,175.09c-1.02,4.36-2.04,8.73-3.06,13.09c5.86,0.99,11.72,1.97,17.57,2.96"/>
	</g>
	<text transform="matrix(1 0 0 1 133.403 175.0899)"><tspan x="0" y="0" font-family="'PermanentMarker'" font-size="30.74px">m</tspan><tspan x="25.04" y="0" font-family="'PermanentMarker'" font-size="30.74px">o</tspan><tspan x="43.44" y="0" font-family="'PermanentMarker'" font-size="30.74px">ve</tspan><tspan x="-25.2" y="30" font-family="'PermanentMarker'" font-size="30.74px">for</tspan><tspan x="24.75" y="30" font-family="'PermanentMarker'" font-size="30.74px">w</tspan><tspan x="49.82" y="30" font-family="'PermanentMarker'" font-size="30.74px">ard</tspan></text>
	<g>
		<path fill="none" stroke="#EF4136" stroke-width="7" stroke-linecap="round" stroke-linejoin="round" stroke-miterlimit="10" d="
			M90.17,175.73c-18.07-9.95-34.06-24.41-43.4-42.79s-11.46-40.88-3.26-59.8S70.95,39.9,91.58,39.9"/>
		<path fill="none" stroke="#EF4136" stroke-width="7" stroke-linecap="round" stroke-linejoin="round" stroke-miterlimit="10" d="
			M88.32,32.5c3.23,1.47,6.45,2.93,9.68,4.4c-2.26,3.49-4.51,6.99-6.77,10.48"/>
	</g>
</g>
<text transform="matrix(1 0 0 1 142.4694 107.8143)" fill="#EF4136" font-family="'PermanentMarker'" font-size="30.74px">life</text>
</svg>
