<?xml version="1.0" encoding="utf-8"?>
<!-- Generator: Adobe Illustrator 19.2.0, SVG Export Plug-In . SVG Version: 6.00 Build 0)  -->
<svg version="1.1" id="Layer_1" xmlns="http://www.w3.org/2000/svg" xmlns:xlink="http://www.w3.org/1999/xlink" x="0px" y="0px"
	 width="692.5px" height="431.8px" viewBox="0 0 692.5 431.8" enable-background="new 0 0 692.5 431.8" xml:space="preserve">
<path fill="none" stroke="#FFFFFF" stroke-width="120" stroke-linejoin="bevel" stroke-miterlimit="10" d="M97.9,34.7
	c8.8-2.6,17.7-5.2,26.5-7.8c0,15.1,0,30.2,0,45.3c18.4-23.8,36.7-47.5,55.1-71.3c-6.1,23.1-12.2,46.1-18.3,69.2
	c19.6-20.6,39.2-41.2,58.8-61.9c-6.7,18.6-13.1,40-3.3,57.2c5.2,9.1,14.3,15.4,19.9,24.2c5.6,8.9,5.6,23.1-4,27.3
	c18.1,1.5,36.2,3,54.2,4.5c-2.4,16.9-4.8,33.8-7.2,50.6c27.9-2.4,53.4-22.7,62.1-49.4c-9.3,14.8-18.7,29.7-28,44.5
	c-2.4,3.8-4.9,7.8-5.6,12.2c-1.9,11.8,10.2,22.6,22.2,22.1c11.9-0.4,22.2-9.4,27.6-20.1c5.4-10.6,6.9-22.8,8.3-34.6
	c7.6,13.6,15.3,27.1,22.9,40.7c9.6-15.4,19.1-30.7,28.7-46.1c-8.4,14,6.5,32,22.5,34.9c16,2.9,32.1-3.3,48.3-5.2
	c28.1-3.4,61.7,11.6,65.2,39.7c2.6,21-12.1,39.7-25.8,55.7c35.3-0.5,70.6-0.9,105.9-1.4c19.6-0.3,39.1-0.5,58.7-0.8
	c-48,28-107.7,35-160.8,19c2.6,21.9,17.6,41.9,37.8,50.5c-11.4-2.5-24,1.8-31.5,10.7c-7.5,8.9-9.6,22.1-5.2,32.8
	c-7.6-0.1-15.1-0.1-22.7-0.2c3.1,13.3,6.3,26.7,9.4,40c-26.5-19.3-52.9-38.6-79.4-57.9c2.7,21.4-1.9,43.7-12.8,62.4
	c-8.6-15.5-17.8-31.7-32.9-41.1c-15.1-9.4-37.8-9.1-47.9,5.4c-3.8,5.4-5.4,12.1-8.9,17.7c-3.5,5.6-10.2,10.3-16.4,8.1
	c-7.1-2.5-8.8-11.8-8-19.3c0.8-7.5,2.8-15.7-1.2-22.1c-6.6-10.7-24-7.2-32.5,2.1c-8.6,9.2-12.6,22-21.2,31.2
	c-8.6,9.2-26.1,12.6-32.5,1.8c-2.9-33.1-41.4-57.9-72.7-46.8c7.5-13.2,15-29.8,7.1-42.8c-6.1-10.1-19.4-13.4-31.2-13
	c-11.8,0.4-23.6,3.4-35.3,2.2c-30-3.2-51.2-39.4-39.3-67.1c10,15.9,19.9,31.9,29.9,47.8c5.8-18.2,11.6-36.5,17.5-54.7
	c1.7,16.8,3.6,34.2,11.9,48.9c8.3,14.8,24.7,26.3,41.4,23.5c24.2-4,34.2-32.7,39.6-56.6c-4.2,11.5,3.2,25.8,15.1,29.1
	s25.5-5.3,27.7-17.4c2.2-12.1-7.4-25-19.6-26.2c-9.2-0.9-17.8,3.8-26.7,6.2c-8.9,2.4-20.5,1.4-24.5-6.9c-5-10.4,5.8-21.2,15.4-27.8
	c16.4-11.1,32.8-22.3,49.1-33.4c-95.6-1.1-191,37.5-259,104.6"/>
<g id="Arrow_right">
</g>
<text transform="matrix(1 0 0 1 111.6531 41.6461)"><tspan x="0" y="0" fill="#231F20" font-family="'PermanentMarker'" font-size="30.74px">trigger</tspan><tspan x="17.5" y="30" fill="#231F20" font-family="'PermanentMarker'" font-size="30.74px">event</tspan></text>
<g>
	<path fill="none" stroke="#BE1E2D" stroke-width="7" stroke-linecap="round" stroke-linejoin="round" stroke-miterlimit="10" d="
		M222.8,82.9c9.9,24.5,32.8,43.3,58.7,48.3"/>
	<path fill="none" stroke="#BE1E2D" stroke-width="7" stroke-linecap="round" stroke-linejoin="round" stroke-miterlimit="10" d="
		M280.8,125.8c1.5,2.2,2.9,4.4,4.4,6.6c-2.4,1.1-4.9,2.3-7.3,3.4"/>
</g>
<text transform="matrix(1 0 0 1 324.9713 155.8106)"><tspan x="0" y="0" fill="#231F20" font-family="'PermanentMarker'" font-size="30.74px">life is</tspan><tspan x="-46.4" y="30" fill="#231F20" font-family="'PermanentMarker'" font-size="30.74px">meaningless</tspan></text>
<g>
	<path fill="none" stroke="#BE1E2D" stroke-width="7" stroke-linecap="round" stroke-linejoin="round" stroke-miterlimit="10" d="
		M495.9,170.8c14.2-0.8,28.6,4.5,38.7,14.5c10.2,9.9,15.9,24.2,15.4,38.4"/>
	<path fill="none" stroke="#BE1E2D" stroke-width="7" stroke-linecap="round" stroke-linejoin="round" stroke-miterlimit="10" d="
		M545.7,223.1c1.5,2.2,3,4.4,4.5,6.6c-0.2-2.8,0.9-5.7,2.9-7.7"/>
</g>
<text transform="matrix(1 0 0 1 533.5945 268.4352)" fill="#231F20" font-family="'PermanentMarker'" font-size="30.74px">depression</text>
<g>
	<path fill="none" stroke="#BE1E2D" stroke-width="7" stroke-linecap="round" stroke-linejoin="round" stroke-miterlimit="10" d="
		M556,295.6c0.9,28.6-14.1,57.1-38.1,72.6"/>
	<path fill="none" stroke="#BE1E2D" stroke-width="7" stroke-linecap="round" stroke-linejoin="round" stroke-miterlimit="10" d="
		M515.8,363c-1.5,3.1-3,6.2-4.5,9.2c3.1,0,6.3,0,9.4,0"/>
</g>
<text transform="matrix(1 0 0 1 281.984 381.7285)"><tspan x="0" y="0" fill="#231F20" font-family="'PermanentMarker'" font-size="30.74px">coping with</tspan><tspan x="-65.8" y="30" fill="#231F20" font-family="'PermanentMarker'" font-size="30.74px">short term pleasure</tspan></text>
<g>
	<path fill="none" stroke="#BE1E2D" stroke-width="7" stroke-linecap="round" stroke-linejoin="round" stroke-miterlimit="10" d="
		M216.2,372.4c-13.1-2.4-25.4-9.2-34.3-19.1c-8.9-9.9-14.4-22.9-15.4-36.2"/>
	<path fill="none" stroke="#BE1E2D" stroke-width="7" stroke-linecap="round" stroke-linejoin="round" stroke-miterlimit="10" d="
		M162.1,321.1c1.3-2.6,2.7-5.3,4-7.9c1.3,2,2.5,4.1,3.8,6.1"/>
</g>
<text transform="matrix(1 0 0 1 16.2497 260.9942)"><tspan x="0" y="0" fill="#231F20" font-family="'PermanentMarker'" font-size="30.74px">less long term</tspan><tspan x="43.4" y="30" fill="#231F20" font-family="'PermanentMarker'" font-size="30.74px">potential</tspan></text>
<g>
	<path fill="none" stroke="#BE1E2D" stroke-width="7" stroke-linecap="round" stroke-linejoin="round" stroke-miterlimit="10" d="
		M164.3,231.9c2.7-15.7,11-30.4,23.1-40.8c12.1-10.4,27.9-16.4,43.8-16.8"/>
	<path fill="none" stroke="#BE1E2D" stroke-width="7" stroke-linecap="round" stroke-linejoin="round" stroke-miterlimit="10" d="
		M230.9,169.1c2,1.4,4,2.8,6,4.2c-2.2,2.2-4.4,4.4-6.5,6.6"/>
</g>
</svg>
