<?xml version="1.0" encoding="utf-8"?>
<!-- Generator: Adobe Illustrator 19.2.0, SVG Export Plug-In . SVG Version: 6.00 Build 0)  -->
<svg version="1.1" id="Layer_1" xmlns="http://www.w3.org/2000/svg" xmlns:xlink="http://www.w3.org/1999/xlink" x="0px" y="0px"
	 width="721.04px" height="630.95px" viewBox="0 0 721.04 630.95" enable-background="new 0 0 721.04 630.95" xml:space="preserve">
<path fill="none" stroke="#FFFFFF" stroke-width="120" stroke-linejoin="bevel" stroke-miterlimit="10" d="M15.71,431.17
	c-12.35,5.1-20.92,18.22-20.62,31.57c0.3,13.36,9.45,26.08,22.01,30.62c4.82,1.74,9.98,2.35,15.1,2.35
	c35.8,0.01,67.99-33.81,66.2-69.57c-5.49,23.69-10.98,47.38-16.47,71.07c18.47-22.77,36.94-45.53,55.41-68.3
	c-13.53,56.5-36.82,110.65-68.55,159.32c24.96-28.05,49.93-56.09,74.89-84.14c2.17,24.35,4.33,48.7,6.5,73.04
	c12.72-15.28,25.44-30.56,38.16-45.84c-7.82,34.55-15.64,69.11-23.47,103.66c27.25-20.57,54.49-41.13,81.74-61.7
	c-4.36,19.82-8.72,39.64-13.08,59.46c31.45-24.48,62.9-48.95,94.35-73.43c-0.06,27.81-0.13,55.62-0.19,83.43
	c8.59-10.03,17.18-20.05,25.76-30.08c-0.99,13.15-1.97,26.3-2.96,39.45c24.62-38.15,49.23-76.3,73.85-114.45
	c-7.78,19.53-15.55,39.05-23.33,58.58c29.55-34.97,59.09-69.94,88.64-104.91c-22.59,35.59-45.19,71.17-67.78,106.76
	c47.59-54.77,86.73-116.87,115.62-183.42c-44.68,18.12-85.38,45.99-118.43,81.09c24.83-26.11,49.65-52.22,74.48-78.33
	c-17.56-0.5-25.39,25.7-14.54,39.51c10.85,13.82,30.84,16.41,48.3,14.43c34.67-3.92,67.53-22.03,89.35-49.26
	c-1.76,9.03-3.52,18.06-5.28,27.1c27.39-22.86,48.72-52.91,61.25-86.31c8.77,4.46,19.79-3.08,22.69-12.47
	c2.9-9.4,0.17-19.5-2.56-28.95c-5.79-20.02-11.57-40.04-17.36-60.06c-2.62-9.07-5.76-18.88-13.58-24.18
	c-12.88-8.74-30.11-0.63-43.41,7.47c39.72-17.39,79.44-34.78,119.16-52.16c-58.66,7.32-115.77,26.87-166.61,57.04
	c11.17-49.14,34.4-95.49,67.08-133.86c-29.14,12.11-58.29,24.23-87.43,36.34c10.36-12.79,20.73-25.58,31.09-38.37
	c-25.02,19.4-50.03,38.81-75.05,58.21c7.84-33.35,15.68-66.7,23.52-100.05c-38.84,32.16-69.54,74.07-88.47,120.81
	c11.24-42.1,22.89-129.05,34.13-171.15c-35.95,34.81-58.92,127.98-62.52,177.9c6.97-56.66,13.93-113.32,20.9-169.98
	c-16.41,44.8-32.82,89.6-49.23,134.4c-6.97-22.76-13.94-45.52-20.9-68.28c-11.83,21.78-23.67,43.57-35.5,65.35
	c-38.22,2.44-77.06-5.65-111.14-23.15c28.58,22.06,57.15,44.12,85.73,66.18c-38.56,2.57-77.12,5.15-115.69,7.72
	c-12.32,0.82-28.23,5.03-28.89,17.36c-0.61,11.32,12.55,17.67,23.41,20.94c36.49,11,110.91,7.55,147.4,18.55
	c-44.17-7.86-126.27-1.25-170.44-9.11c-18.15-3.23-38.14-6.14-53.93,3.37c-15.82,9.53-22.74,29.16-23.81,47.6
	c-1.07,18.44,2.5,36.86,2.06,55.32c-0.43,17.61-11.13,39.88-28.41,36.45c-12.51-2.48-18.25-18.75-13.71-30.67
	s15.97-19.76,27.53-25.15c23.53-10.97,51.69-14.68,75.41-4.12s40.69,37.71,34.39,62.9c22.09-53.79,44.19-107.59,66.28-161.38
	c-18.03,51.85-36.07,103.7-54.1,155.55c54.51-25.71,101.29-67.57,132.86-118.91c-23.95,54.68-47.91,109.36-71.86,164.04
	c27.46-45.44,54.92-90.88,82.38-136.32c-5.64,48.86-1.4,98.85,12.4,146.06c10.76-53.77,21.51-107.54,32.27-161.31
	c-12.8,69.09-3.13,142.15,27.22,205.52c-1.36-42.24-2.71-84.48-4.07-126.73c-1.99-61.92-3.08-127.57,28.09-181.1
	c4.1,63.05,8.2,126.09,12.3,189.14c12.95-60.51,25.9-121.03,38.84-181.54c0.63,78.27,1.25,156.54,1.88,234.81
	c18.85-52.33,37.69-104.67,56.54-157c5.88,35.68,11.77,71.35,17.65,107.03c6.26-27.44,12.52-54.87,18.78-82.31
	c18.62,12.8,98.17,8.02,116.79,20.83"/>
<g>
	<text transform="matrix(1 0 0 1 402.2516 132.6579)" fill="#009542" font-family="'PermanentMarker'" font-size="30.74px">i’m happy</text>
</g>
<path fill="none" stroke="#000000" stroke-width="7" stroke-linecap="round" stroke-linejoin="round" stroke-miterlimit="10" d="
	M563.25,126.42c26.28,1.04,52.03,12.31,70.62,30.92s29.85,44.36,30.87,70.64"/>
<path fill="none" stroke="#000000" stroke-width="7" stroke-linecap="round" stroke-linejoin="round" stroke-miterlimit="10" d="
	M655.07,226.95c3.16,2.9,6.33,5.81,9.49,8.71c3.15-3.28,6.3-6.57,9.45-9.85"/>
<g>
	<text transform="matrix(1 0 0 1 603.9032 278.2017)" fill="#009542" font-family="'PermanentMarker'" font-size="30.74px">i dream</text>
</g>
<path fill="none" stroke="#000000" stroke-width="7" stroke-linecap="round" stroke-linejoin="round" stroke-miterlimit="10" d="
	M674.79,302c6.87,36.27-3.07,75.38-26.44,103.96c-23.37,28.58-59.72,46.1-96.63,46.56"/>
<path fill="none" stroke="#000000" stroke-width="7" stroke-linecap="round" stroke-linejoin="round" stroke-miterlimit="10" d="
	M552.55,445.05c-2.42,2.25-4.83,4.5-7.25,6.75c3.19,2.74,6.38,5.47,9.57,8.21"/>
<g>
	<text transform="matrix(1 0 0 1 418.5973 449.735)"><tspan x="0" y="0" fill="#009542" font-family="'PermanentMarker'" font-size="30.74px">i make</tspan><tspan x="9.01" y="30" fill="#009542" font-family="'PermanentMarker'" font-size="30.74px">plans</tspan></text>
</g>
<path fill="none" stroke="#000000" stroke-width="7" stroke-linecap="round" stroke-linejoin="round" stroke-miterlimit="10" d="
	M396.85,457.38c-34.98,5.51-72.11-4.33-99.78-26.43c-27.67-22.1-45.47-56.13-47.83-91.47"/>
<path fill="none" stroke="#000000" stroke-width="7" stroke-linecap="round" stroke-linejoin="round" stroke-miterlimit="10" d="
	M238.74,346.35c3.69-3.64,7.38-7.28,11.07-10.93c3.78,3.81,7.57,7.61,11.35,11.42"/>
<g>
	<text transform="matrix(1 0 0 1 212.721 249.593)"><tspan x="0" y="0" fill="#009542" font-family="'PermanentMarker'" font-size="30.74px">i look</tspan><tspan x="-14.33" y="30" fill="#009542" font-family="'PermanentMarker'" font-size="30.74px">for</tspan><tspan x="35.62" y="30" fill="#009542" font-family="'PermanentMarker'" font-size="30.74px">w</tspan><tspan x="60.68" y="30" fill="#009542" font-family="'PermanentMarker'" font-size="30.74px">ard</tspan><tspan x="-20.8" y="60" fill="#009542" font-family="'PermanentMarker'" font-size="30.74px">t</tspan><tspan x="-6.99" y="60" fill="#009542" font-family="'PermanentMarker'" font-size="30.74px">o thin</tspan><tspan x="83.54" y="60" fill="#009542" font-family="'PermanentMarker'" font-size="30.74px">g</tspan><tspan x="102.67" y="60" fill="#009542" font-family="'PermanentMarker'" font-size="30.74px">s</tspan></text>
</g>
<path fill="none" stroke="#000000" stroke-width="7" stroke-linecap="round" stroke-linejoin="round" stroke-miterlimit="10" d="
	M254.54,216.91c5.99-26.73,21.77-51.16,43.67-67.62s49.75-24.82,77.09-23.15"/>
<path fill="none" stroke="#000000" stroke-width="7" stroke-linecap="round" stroke-linejoin="round" stroke-miterlimit="10" d="
	M373.29,119.38c2.3,2.22,4.61,4.44,6.91,6.66c-1.91,2.55-3.83,5.11-5.74,7.66"/>
<path fill="none" stroke="#000000" stroke-width="7" stroke-linecap="round" stroke-linejoin="round" stroke-miterlimit="10" d="
	M474.44,495.93c-1.93,30.29-17.67,59.42-41.94,77.64s-56.65,25.18-86.27,18.56"/>
<path fill="none" stroke="#000000" stroke-width="7" stroke-linecap="round" stroke-linejoin="round" stroke-miterlimit="10" d="
	M352.08,582.28c-4.07,2.59-8.14,5.19-12.21,7.78c3.08,3.52,6.16,7.04,9.23,10.55"/>
<g>
	<text transform="matrix(1 0 0 1 213.5471 580.5434)"><tspan x="0" y="0" fill="#009542" font-family="'PermanentMarker'" font-size="30.74px">plans</tspan><tspan x="-11.5" y="30" fill="#009542" font-family="'PermanentMarker'" font-size="30.74px">change</tspan></text>
</g>
<path fill="none" stroke="#000000" stroke-width="7" stroke-linecap="round" stroke-linejoin="round" stroke-miterlimit="10" d="
	M179.61,579.47c-23.52,7.55-50.56,3.1-70.41-11.59s-32.02-39.25-31.68-63.94"/>
<path fill="none" stroke="#000000" stroke-width="7" stroke-linecap="round" stroke-linejoin="round" stroke-miterlimit="10" d="
	M68.66,512.49c2.57-4.95,5.15-9.91,7.72-14.86c3.38,4.84,6.75,9.69,10.13,14.53"/>
<g>
	<text transform="matrix(1 0 0 1 4.4589 449.735)"><tspan x="0" y="0" fill="#009542" font-family="'PermanentMarker'" font-size="30.74px">life is </tspan><tspan x="103.12" y="0" fill="#009542" font-family="'PermanentMarker'" font-size="30.74px">s</tspan><tspan x="116.78" y="0" fill="#009542" font-family="'PermanentMarker'" font-size="30.74px">o</tspan><tspan x="12.31" y="30" fill="#009542" font-family="'PermanentMarker'" font-size="30.74px">random</tspan></text>
</g>
<path fill="none" stroke="#000000" stroke-width="7" stroke-linecap="round" stroke-linejoin="round" stroke-miterlimit="10" d="
	M64.13,414.16c-4.19-29.5,4.36-60.6,23.06-83.8s47.26-38.17,76.98-40.35"/>
<path fill="none" stroke="#000000" stroke-width="7" stroke-linecap="round" stroke-linejoin="round" stroke-miterlimit="10" d="
	M161.6,282.07c2.64,2.16,5.28,4.33,7.93,6.49c-2.21,3.16-4.42,6.32-6.63,9.48"/>
<path fill="none" stroke="#000000" stroke-width="7" stroke-linecap="round" stroke-linejoin="round" stroke-miterlimit="10" d="
	M487.92,96.25c10.24-9.82,14.23-25.75,9.54-39.14s-17.94-23.41-32.12-23.98c-14.18-0.57-28.32,8.54-33.39,21.79
	s-0.49,29.65,10.88,38.13"/>
<path fill="none" stroke="#000000" stroke-width="7" stroke-linecap="round" stroke-linejoin="round" stroke-miterlimit="10" d="
	M448.57,89.43c-0.67,3.28-1.35,6.57-2.02,9.85c-3.6-0.9-7.2-1.79-10.8-2.69"/>
<path fill="none" stroke="#000000" stroke-width="7" stroke-linecap="round" stroke-linejoin="round" stroke-miterlimit="10" d="
	M628.7,230.99c1.64-10.3-2.3-21.6-10.45-28.35c-8.15-6.74-19.16-8.94-29.73-9.36c-10.78-0.43-21.59,0.75-32.35-0.01
	c-10.76-0.76-21.86-3.73-29.69-11.15s-11.33-20.1-5.86-29.39"/>
<path fill="none" stroke="#000000" stroke-width="7" stroke-linecap="round" stroke-linejoin="round" stroke-miterlimit="10" d="
	M508.2,160.18c3.13-4,6.25-7.99,9.38-11.99c3.38,3.24,6.76,6.48,10.14,9.72"/>
<path fill="none" stroke="#C1172C" stroke-width="7" stroke-linecap="round" stroke-linejoin="round" stroke-miterlimit="10" d="
	M442.51,167.12c2.66-2.17,5.31-4.34,7.97-6.5c2.07,2.5,4.13,5,6.2,7.5"/>
<path fill="none" stroke="#C1172C" stroke-width="7" stroke-linecap="round" stroke-miterlimit="10" d="M464.6,232.93
	c-12.74-19.2-18.08-43.19-14.7-65.98"/>
<text transform="matrix(1 0 0 1 394.7821 273.3102)"><tspan x="0" y="0" fill="#C1172C" font-family="'PermanentMarker'" font-size="30.74px">happiness</tspan><tspan x="-13.97" y="30" fill="#C1172C" font-family="'PermanentMarker'" font-size="30.74px">s</tspan><tspan x="0.29" y="30" fill="#C1172C" font-family="'PermanentMarker'" font-size="30.74px" letter-spacing="-1">t</tspan><tspan x="13.49" y="30" fill="#C1172C" font-family="'PermanentMarker'" font-size="30.74px">a</tspan><tspan x="31.35" y="30" fill="#C1172C" font-family="'PermanentMarker'" font-size="30.74px">r</tspan><tspan x="47.05" y="30" fill="#C1172C" font-family="'PermanentMarker'" font-size="30.74px">ts h</tspan><tspan x="105.32" y="30" fill="#C1172C" font-family="'PermanentMarker'" font-size="30.74px">e</tspan><tspan x="121.05" y="30" fill="#C1172C" font-family="'PermanentMarker'" font-size="30.74px">re</tspan></text>
<path fill="none" stroke="#C1172C" stroke-width="7" stroke-linecap="round" stroke-linejoin="round" stroke-miterlimit="10" d="
	M466.78,326.91c6.8,21.4,9.82,43.99,8.88,66.43"/>
<path fill="none" stroke="#C1172C" stroke-width="7" stroke-linecap="round" stroke-linejoin="round" stroke-miterlimit="10" d="
	M467.86,393.33c1.95,2.59,3.9,5.17,5.85,7.76c2.49-2.07,4.97-4.15,7.46-6.22"/>
<path fill="none" stroke="#C1172C" stroke-width="7" stroke-linecap="round" stroke-linejoin="round" stroke-miterlimit="10" d="
	M551.25,316.43c4.3,10.07,14.98,16.73,25.92,17.36s21.8-4.3,29.49-12.1c7.69-7.79,12.39-18.22,14.46-28.97"/>
<path fill="none" stroke="#C1172C" stroke-width="7" stroke-linecap="round" stroke-linejoin="round" stroke-miterlimit="10" d="
	M612.85,295.15c2.99-2.13,5.98-4.27,8.98-6.4c1.92,2.45,3.85,4.9,5.77,7.35"/>
<path fill="none" stroke="#C1172C" stroke-width="7" stroke-linecap="round" stroke-linejoin="round" stroke-miterlimit="10" d="
	M405.61,320.23c-9.34,9.25-18.79,18.6-30.04,25.4c-11.25,6.8-24.65,10.9-37.61,8.69c-12.96-2.21-25.08-11.72-27.87-24.56"/>
<path fill="none" stroke="#C1172C" stroke-width="7" stroke-linecap="round" stroke-linejoin="round" stroke-miterlimit="10" d="
	M304.04,335.68c1.29-2.96,2.58-5.92,3.88-8.88c3.05,1.25,6.1,2.5,9.15,3.75"/>
</svg>
