<?xml version="1.0" encoding="utf-8"?>
<!-- Generator: Adobe Illustrator 18.0.0, SVG Export Plug-In . SVG Version: 6.00 Build 0)  -->
<!DOCTYPE svg PUBLIC "-//W3C//DTD SVG 1.1//EN" "http://www.w3.org/Graphics/SVG/1.1/DTD/svg11.dtd">
<svg version="1.1" id="Layer_1" xmlns="http://www.w3.org/2000/svg" xmlns:xlink="http://www.w3.org/1999/xlink" x="0px" y="0px"
	 viewBox="0 0 736.2 504" enable-background="new 0 0 736.2 504" xml:space="preserve">
<path fill="none" stroke="#FFFFFF" stroke-width="120" stroke-linejoin="bevel" stroke-miterlimit="10" d="M13.7,135
	C73.5,97.3,133.3,59.6,193.1,21.9c9.8,13.4,5.8,32.7-3.2,46.5c-9,13.9-22.2,24.5-32.2,37.7s-16.6,31.1-9.9,46.3
	c49-42.6,98-85.2,147-127.8c12.9,6,27.8,0.4,41.9-1.6c14.1-2.1,32.4,3,34.1,17.1c0.5,4.5-0.9,9.2,0.1,13.6
	c2.9,13.6,23.4,13.3,34.7,5.2c11.3-8.1,20.3-20.9,34-23.2c11.3-1.9,22.6,4.2,30.8,12.1s14.2,17.9,21.9,26.4
	c16.3,18.2,40.1,29.6,64.5,30.8c19.9,1,39.4-4.3,59-8c19.6-3.6,40.4-5.5,58.8,2.2c18.4,7.6,33,27.4,28.7,46.9
	c-4.8,22.1-31.2,33.4-53.8,30.9c-22.5-2.5-42.6-14.6-63.4-23.7c-20.8-9-45.3-15-65.6-5c-6.6,17.5-13.3,35.3-24.3,50.4
	c-11,15.1-27,27.6-45.6,30.1c-36.2,4.9-70.4-28.1-106.2-20.6c-0.8,20.6-1.7,41.6-8.7,61.1c-7,19.4-21.3,37.3-41,43.4
	c-20,6.2-42.1-0.8-58.9-13.2c-16.8-12.4-29.3-29.6-41.5-46.5c-23.1-32-46.2-64-69.3-96c-22.6,43.1-16.5,95.5-3.3,142.3
	s32.9,92.5,36,141c0.8,11.6,3,26.5,14.3,29.2c6.8,1.6,71.9-6.7,75.8-12.5s5.4-12.9,6.9-19.7c9-38.6-33.1-71.7-11.4-104.9
	c8-12.2,16.9-24.1,29-32.3s27.6-12.3,41.4-7.7c17.9,6,28.7,24.9,31.9,43.5s0.6,37.7,0.8,56.6c0.1,15,6.7,34.3,21.7,33.7
	c4-0.2,7.8-1.9,11.2-4.2c16.3-11,22.5-31.6,33-48.2c10.5-16.6,33.2-30.4,49-18.7c10.8,8,12,23.8,9.8,37s-6.7,26.7-3.8,39.9
	c2.9,13.1,17.7,24.9,29.5,18.4c8.1-4.4,10.6-14.7,12.4-23.7c3.1-16.2,6.4-32.7,14.1-47.3c7.7-14.6,20.5-27.4,36.6-31.2
	c16.1-3.7,35.2,3.8,41.2,19.2c6.9,17.5-3.9,39.3,5.8,55.5c9.4,15.9,31.8,16.3,50.2,14.9c-5.6-36.1,8.1-74.7,35.1-99.3
	c10.4,27.6,8,120.3,6.3,149.7"/>
<g>
	
		<polyline fill="none" stroke="#000000" stroke-width="7" stroke-linecap="round" stroke-linejoin="round" stroke-miterlimit="10" points="
		126.2,110 148.7,88 171.2,110 	"/>
	<text transform="matrix(1 0 0 1 18.8657 109.9995)" font-family="'PermanentMarker'" font-size="31">money</text>
</g>
<g>
	
		<line fill="none" stroke="#000000" stroke-width="7" stroke-linecap="round" stroke-linejoin="round" stroke-miterlimit="10" x1="148.7" y1="88" x2="148.7" y2="436.7"/>
	
		<line fill="none" stroke="#000000" stroke-width="7" stroke-linecap="round" stroke-linejoin="round" stroke-miterlimit="10" x1="126.2" y1="414.7" x2="709.6" y2="414.7"/>
</g>
<g>
	
		<polyline fill="none" stroke="#000000" stroke-width="7" stroke-linecap="round" stroke-linejoin="round" stroke-miterlimit="10" points="
		687.6,392.2 709.6,414.7 687.6,437.2 	"/>
	<text transform="matrix(1 0 0 1 643.3809 374.7007)" font-family="'PermanentMarker'" font-size="31">time</text>
</g>
<g>
	<text transform="matrix(1 0 0 1 126.1895 44.4346)" fill="#00A651" font-family="'PermanentMarker'" font-size="31">how i think i budget</text>
	
		<polyline fill="none" stroke="#00A651" stroke-width="7" stroke-linecap="round" stroke-linejoin="round" stroke-miterlimit="10" points="
		149.2,357.9 197.5,374.7 197.5,283 328.5,304.2 328.5,205 492.5,233.7 492.5,120 669.5,160.2 669.5,75 	"/>
</g>
<g>
	<text transform="matrix(1 0 0 1 126.1895 75.4346)" fill="#ED1C24" font-family="'PermanentMarker'" font-size="31">how i actually budget</text>
	<path fill="none" stroke="#ED1C24" stroke-width="7" stroke-linecap="round" stroke-linejoin="round" stroke-miterlimit="10" d="
		M149.2,381.9l64.3,22.8V313c0,0,58,79.2,131,79.2V293c0,0,23,149.7,164,149.7V329c0,0,23.9,139.2,177,139.2"/>
</g>
</svg>
