<?xml version="1.0" encoding="utf-8"?>
<!-- Generator: Adobe Illustrator 19.2.0, SVG Export Plug-In . SVG Version: 6.00 Build 0)  -->
<svg version="1.1" id="Layer_1" xmlns="http://www.w3.org/2000/svg" xmlns:xlink="http://www.w3.org/1999/xlink" x="0px" y="0px"
	 width="885.33px" height="603.37px" viewBox="0 0 885.33 603.37" enable-background="new 0 0 885.33 603.37" xml:space="preserve">
<path fill="none" stroke="#FFFFFF" stroke-width="120" stroke-linejoin="bevel" stroke-miterlimit="10" d="M132.15-7.41
	C112.16,26.85,92.18,61.11,72.19,95.37c47.29-22.31,89.98-54.33,124.62-93.49c-23.54,38.27-47.08,76.54-70.62,114.81
	c44.87-42.12,89.74-84.23,134.62-126.35c-20.12,51.34-40.25,102.68-60.37,154.02c47.49-32.21,84.75-79.28,105.2-132.9
	c-0.42,31.72-0.85,63.44-1.27,95.16c20.58-21.91,41.16-43.82,61.74-65.74c0.56,26.86,1.11,53.72,1.67,80.59
	c43.74-22.96,81.2-57.73,107.35-99.64c5,32.5,10,65,15,97.51c25.26-22.54,50.53-45.08,75.79-67.61
	c0.72,27.6,20.34,53.71,46.65,62.08c6.91-22.93,13.83-45.87,20.74-68.8c2.04,27.46,16.86,55.96,42.73,65.38
	c25.87,9.42,60.44-9.54,59.37-37.05c14.87,11.24,29.74,22.48,44.61,33.72c-0.9,21.29-20.99,37.74-41.87,42.02
	c-20.88,4.28-42.4-0.67-63.22-5.2c-183.75-39.94-374.41-47.84-560.83-23.22c-21.36,2.82-43.26,6.27-61.81,17.21
	s-33.21,31.17-31.32,52.63c44.74-7.45,89.49-14.9,134.23-22.35C102.01,211.48,48.82,254.85-4.38,298.22
	c72.4-27.68,144.8-55.35,217.21-83.03C164.02,290.08,86.58,345.78,0.07,368.22c87.99,11.63,179.85-8.62,254.79-56.19
	c-10.44,47.45-61.7,72.46-107.72,88.03s-98.13,32.76-119.09,76.6c98.67-33.31,197.35-66.61,296.02-99.92
	c-47.75,52.69-114.76,87.53-185.32,96.33c-17.64,2.2-35.88,2.94-52.15,10.12c-16.27,7.18-30.4,22.97-29.06,40.7
	c1.43,18.93,20.62,32.98,39.59,33.78s36.95-8.82,51.57-20.91c14.62-12.1,26.89-26.82,41.36-39.1
	c38.84-32.93,93.62-46.11,143.2-34.45c-40.63,35.82-81.26,71.63-121.89,107.45c-9.58,8.45-19.81,22.61-11.6,32.39
	c8.91,10.61,25.76,0.58,35.36-9.39c40.83-42.41,81.67-84.81,122.5-127.22c-1.29,53.62-18.21,106.77-48.16,151.27
	c17.31-29.03,34.62-58.07,51.94-87.1c5.09-8.54,11.29-17.89,21.05-19.81c13.77-2.71,25.63,11.78,27.16,25.74
	c1.52,13.96-3.55,27.7-5.26,41.63s1.37,30.45,13.7,37.16c15.36,8.36,35.29-5.1,40.07-21.93c4.78-16.82-0.89-34.67-6.85-51.11
	c-51.38-141.9-127.83-274.69-224.75-390.37c16.91-13.31,43.66,3.82,47.59,24.98s-6.77,42-17.12,60.88
	c24.88-4.93,49.76-9.86,74.64-14.79c-1.88,22.7-3.76,45.4-5.64,68.1c25.89-3.66,51.78-7.33,77.67-10.99
	c-8.49,26.68-16.98,53.35-25.46,80.03c26.41-11.67,52.82-23.35,79.23-35.02c1.55,24.42,3.09,48.85,4.64,73.27
	c17.05-6.76,34.1-13.51,51.14-20.27c-1.05,11.72-2.1,23.43-3.16,35.15c15.07-4.65,30.14-9.31,45.21-13.96
	c-0.41,18.7-0.82,37.39-1.23,56.09c14.13-12.38,28.26-24.76,42.38-37.15c-59.97,45.1-107.9,106.07-137.57,174.99
	c12.93,10.06,32.16,8.08,46.23-0.31c14.06-8.4,24.13-21.96,33.82-35.17c35.15-47.92,70.29-95.85,105.44-143.77
	c-28.83,69.57-57.66,139.13-86.49,208.7c36.38-61.78,81.8-118.23,134.38-166.97c-18.24,50.02-36.48,100.05-54.72,150.07
	c50.57-22.63,92.09-64.81,113.93-115.73c-7.55,39.58-6.82,80.72,2.13,120c21.58-41.91,43.15-83.81,64.73-125.72
	c2.26,36.82,4.51,73.64,6.77,110.45c20.26,2.6,38.55-15.33,43.74-35.09s0.67-40.61-3.86-60.53c16.36,16.6,32.71,33.19,49.07,49.79
	c5.34-52.16,2.8-105.11-7.5-156.52c-3.68-18.36-8.52-36.94-18.98-52.46s-27.56-27.67-46.28-27.77
	c-18.72-0.11-37.65,14.67-38.17,33.39c-5.97-21.61-12.14-43.66-24.72-62.22s-32.97-33.33-55.4-33.22
	c-25.56,0.13-46.72,18.53-67.21,33.81c-20.49,15.27-47.42,28.71-70.64,18.03c-24.13-11.09-30.78-41.47-36.16-67.48
	s-17.2-56.34-43.35-60.97c-35.92-6.35-70.8,42.08-102.57,24.17c-18.64-10.51-19.55-38.91-7.42-56.53s32.73-27.05,52.31-35.66"/>
<g>
	
		<line fill="none" stroke="#000000" stroke-width="7" stroke-linecap="round" stroke-linejoin="round" stroke-miterlimit="10" x1="117.1" y1="555.36" x2="871.53" y2="555.36"/>
	
		<polyline fill="none" stroke="#000000" stroke-width="7" stroke-linecap="round" stroke-linejoin="round" stroke-miterlimit="10" points="
		849.53,532.86 871.53,555.36 849.53,577.86 	"/>
</g>
<g>
	
		<line fill="none" stroke="#000000" stroke-width="7" stroke-linecap="round" stroke-linejoin="round" stroke-miterlimit="10" x1="137.44" y1="130.19" x2="137.44" y2="577.86"/>
	
		<polyline fill="none" stroke="#000000" stroke-width="7" stroke-linecap="round" stroke-linejoin="round" stroke-miterlimit="10" points="
		114.94,152.19 137.44,130.19 159.94,152.19 	"/>
</g>
<text transform="matrix(1 0 0 1 819.4028 521.7429)"><tspan x="0" y="0" font-family="'PermanentMarker'" font-size="30.74px">d</tspan><tspan x="15.28" y="0" font-family="'PermanentMarker'" font-size="30.74px">a</tspan><tspan x="32.21" y="0" font-family="'PermanentMarker'" font-size="30.74px">ys</tspan></text>
<g>
	<path fill="none" stroke="#000000" stroke-width="7" stroke-linecap="round" stroke-linejoin="round" stroke-miterlimit="10" d="
		M244.37,545.86c0.41,5.92,0.97,11.82,1.38,17.74"/>
	<text transform="matrix(1 0 0 1 240.1015 599.5305)" font-family="'PermanentMarker'" font-size="30.74px">1</text>
	<path fill="none" stroke="#000000" stroke-width="7" stroke-linecap="round" stroke-linejoin="round" stroke-miterlimit="10" d="
		M336.41,545.86c0.41,5.92,0.97,11.82,1.38,17.74"/>
	<text transform="matrix(1 0 0 1 326.3086 599.5305)" font-family="'PermanentMarker'" font-size="30.74px">2</text>
	<path fill="none" stroke="#000000" stroke-width="7" stroke-linecap="round" stroke-linejoin="round" stroke-miterlimit="10" d="
		M428.46,545.86c0.41,5.92,0.97,11.82,1.38,17.74"/>
	<text transform="matrix(1 0 0 1 420.9253 599.5305)" font-family="'PermanentMarker'" font-size="30.74px">3</text>
	<path fill="none" stroke="#000000" stroke-width="7" stroke-linecap="round" stroke-linejoin="round" stroke-miterlimit="10" d="
		M520.5,545.86c0.41,5.92,0.97,11.82,1.38,17.74"/>
	<text transform="matrix(1 0 0 1 512.6294 599.5303)" font-family="'PermanentMarker'" font-size="30.74px">4</text>
	<path fill="none" stroke="#000000" stroke-width="7" stroke-linecap="round" stroke-linejoin="round" stroke-miterlimit="10" d="
		M612.55,545.86c0.41,5.92,0.97,11.82,1.38,17.74"/>
	<text transform="matrix(1 0 0 1 603.5845 599.5303)" font-family="'PermanentMarker'" font-size="30.74px">5</text>
	<path fill="none" stroke="#000000" stroke-width="7" stroke-linecap="round" stroke-linejoin="round" stroke-miterlimit="10" d="
		M704.59,545.86c0.41,5.92,0.97,11.82,1.38,17.74"/>
	<text transform="matrix(1 0 0 1 698.3833 599.5305)" font-family="'PermanentMarker'" font-size="30.74px">6</text>
	<path fill="none" stroke="#000000" stroke-width="7" stroke-linecap="round" stroke-linejoin="round" stroke-miterlimit="10" d="
		M796.64,545.86c0.41,5.92,0.97,11.82,1.38,17.74"/>
	<text transform="matrix(1 0 0 1 788.4722 599.5303)" font-family="'PermanentMarker'" font-size="30.74px">7</text>
</g>
<text transform="matrix(1 0 0 1 3.3276 357.7068)"><tspan x="0" y="0" font-family="'PermanentMarker'" font-size="30.74px">memo</tspan><tspan x="85.44" y="0" font-family="'PermanentMarker'" font-size="30.74px">r</tspan><tspan x="101.47" y="0" font-family="'PermanentMarker'" font-size="30.74px">y</tspan></text>
<text transform="matrix(1 0 0 1 108.9375 105.967)"><tspan x="0" y="0" fill="#27AAE1" font-family="'PermanentMarker'" font-size="30.74px">s</tspan><tspan x="14.26" y="0" fill="#27AAE1" font-family="'PermanentMarker'" font-size="30.74px" letter-spacing="-1">t</tspan><tspan x="27.47" y="0" fill="#27AAE1" font-family="'PermanentMarker'" font-size="30.74px">andard forgetting </tspan><tspan x="313.25" y="0" fill="#27AAE1" font-family="'PermanentMarker'" font-size="30.74px">c</tspan><tspan x="328.11" y="0" fill="#27AAE1" font-family="'PermanentMarker'" font-size="30.74px">u</tspan><tspan x="346.09" y="0" fill="#27AAE1" font-family="'PermanentMarker'" font-size="30.74px">r</tspan><tspan x="361.79" y="0" fill="#27AAE1" font-family="'PermanentMarker'" font-size="30.74px">ve (ebbingh</tspan><tspan x="531.65" y="0" fill="#27AAE1" font-family="'PermanentMarker'" font-size="30.74px">a</tspan><tspan x="548.58" y="0" fill="#27AAE1" font-family="'PermanentMarker'" font-size="30.74px">us, 1885)</tspan></text>
<path fill="none" stroke="#27AAE1" stroke-width="7" stroke-linecap="round" stroke-linejoin="round" stroke-miterlimit="10" d="
	M151.35,160.05c6.2,92.18,59.72,174.37,119.7,244.64c46.74,54.76,98.48,105.25,154.34,150.67"/>
<g>
	<text transform="matrix(1 0 0 1 45.206 185.176)" font-family="'PermanentMarker'" font-size="30.74px">100%</text>
	<text transform="matrix(1 0 0 1 58.3852 542.509)" font-family="'PermanentMarker'" font-size="30.74px">50%</text>
</g>
<text transform="matrix(1 0 0 1 108.9375 65.2509)"><tspan x="0" y="0" fill="#1C75BC" font-family="'PermanentMarker'" font-size="30.74px">first repetit</tspan><tspan x="184.98" y="0" fill="#1C75BC" font-family="'PermanentMarker'" font-size="30.74px">i</tspan><tspan x="194.23" y="0" fill="#1C75BC" font-family="'PermanentMarker'" font-size="30.74px">on of learning pro</tspan><tspan x="481.96" y="0" fill="#1C75BC" font-family="'PermanentMarker'" font-size="30.74px">c</tspan><tspan x="497.45" y="0" fill="#1C75BC" font-family="'PermanentMarker'" font-size="30.74px">ess</tspan></text>
<path fill="none" stroke="#1C75BC" stroke-width="7" stroke-linecap="round" stroke-linejoin="round" stroke-miterlimit="10" d="
	M241.8,158.31c48.4,52.93,100.76,102.24,156.5,147.38C520.6,404.71,658.07,482.9,797.75,555.69"/>
<text transform="matrix(1 0 0 1 108.9375 24.5349)"><tspan x="0" y="0" fill="#2B3990" font-family="'PermanentMarker'" font-size="30.74px">s</tspan><tspan x="14.26" y="0" fill="#2B3990" font-family="'PermanentMarker'" font-size="30.74px">e</tspan><tspan x="29.99" y="0" fill="#2B3990" font-family="'PermanentMarker'" font-size="30.74px">cond review</tspan></text>
<path fill="none" stroke="#2B3990" stroke-width="7" stroke-linecap="round" stroke-linejoin="round" stroke-miterlimit="10" d="
	M425.85,158.37c126.33,86.91,274.52,141.78,427,158.08"/>
</svg>
