<?xml version="1.0" encoding="utf-8"?>
<!-- Generator: Adobe Illustrator 19.2.0, SVG Export Plug-In . SVG Version: 6.00 Build 0)  -->
<svg version="1.1" id="Layer_1" xmlns="http://www.w3.org/2000/svg" xmlns:xlink="http://www.w3.org/1999/xlink" x="0px" y="0px"
	 width="408.5px" height="427.4px" viewBox="0 0 408.5 427.4" enable-background="new 0 0 408.5 427.4" xml:space="preserve">
<path fill="none" stroke="#FFFFFF" stroke-width="120" stroke-linejoin="bevel" stroke-miterlimit="10" d="M47.5,5.3
	C37.6,20.6,27.7,35.8,17.8,51C50.6,26.8,86.2,6.3,123.6-9.9C90.4,25.3,55.7,59.2,21.1,93.1C66.8,61,112.5,28.9,158.2-3.2
	c-34.3,37.3-68.7,74.7-98.6,115.7c14.5,5.8,31.2-0.5,43.3-10.3s21-22.9,32-34s25.3-20.5,40.8-19.6c0.9,11.1,1.9,22.2,2.8,33.3
	c15.6-8.5,31.3-16.9,46.9-25.4c6.4-3.5,13.5-7.1,20.7-6c7.2,1.1,13.7,9.3,10.1,15.7c-39.5,8-78.9,16-118.4,23.9
	c-15.2,3.1-31,6.5-42.8,16.5c-17,14.6-20.5,42.5-7.6,60.8c19.2-10,38.4-20,57.5-30c-22.3,27.6-35.9,62.1-38.5,97.4
	c22.8-9.1,39.8-28.3,56-46.9c17.2-19.7,34.3-39.5,51.5-59.2c-9.2,24.8-18.4,49.6-27.7,74.3c24.9-15.8,49.8-31.6,74.7-47.4
	c8-5.1,19.7-9.8,26-2.6c9.5,11-10.5,28-4.6,41.2c4.5,10.1,20.8,8.2,27.7-0.5c6.9-8.7,7.8-20.5,10.3-31.2
	c2.5-10.8,8.7-22.5,19.6-24.4c7.4-1.3,14.9,2.5,20,8.1c5.1,5.5,8.2,12.5,11.2,19.4c6.6,15.2,13.2,30.3,19.9,45.5
	c-42.1-17.8-86.9-29.4-132.4-34.3c-31.7-3.4-66.2-2.8-92.1,15.8c-20.8,15-32.6,39.2-43.6,62.4c14.3,3.6,30.1,1.3,42.7-6.5
	c-5.5,16.4-11,32.8-16.5,49.3c12.1-5.9,24.2-11.8,36.3-17.7c10.7,14.3,21.4,28.5,32.1,42.8c-17-14.8-19.8-43.3-6-61.1
	s42.1-22.2,60.7-9.4c9.8,6.7,16.4,17,22.8,27c9.4,14.7,18.8,29.3,28.2,44c-20.7-19-41.4-38-62.1-57c-5.2-4.8-11.7-9.9-18.6-8.4
	c-6.8,1.5-10.6,9-11.1,15.9c-0.5,6.9,1.3,13.8,1.3,20.7c-0.1,17.8-14.1,34.5-31.6,37.7c-9.9,1.8-20.3-0.3-30.2,1.5
	c-9.9,1.8-20.3,10-18.5,20c15.5-0.4,30.8,8.7,38,22.4c18.8-13.1,37.5-26.1,56.3-39.2c-14.8,26.6-29.5,53.2-44.3,79.8
	c23.6-6,47.3-12.1,70.9-18.1c-22.6,29.9-69.5,37.6-100.4,16.5C142,394.4,132,347.9,151.6,316c-28.3,25.8-43.6,62.5-58,98
	c0.6-20.6,1.1-41.3,1.7-61.9c0.3-10-0.2-21.6-8.3-27.4c-8.2-5.9-21.4-1.1-24.7,8.5c-3.3,9.6,3.3,21,13,23.9c9,2.7,18.6-1.1,26.8-5.8
	c23-13.4,41.1-34.9,50.3-59.9c-34.8,0.8-69.7,1.6-104.5,2.4c-6.6,0.1-13.5,0.4-19.3,3.4s-10.4,9.7-8.7,16.1
	c2.6,9.9,18,10.6,25.1,3.3c7.1-7.4,8.2-18.5,8.7-28.8c3.9-79.1-0.1-158.7-11.9-237"/>
<g id="Arrow_right">
</g>
<g>
	
		<line fill="none" stroke="#000000" stroke-width="7" stroke-linecap="round" stroke-linejoin="round" stroke-miterlimit="10" x1="48.2" y1="42.8" x2="48.2" y2="317.3"/>
	
		<line fill="none" stroke="#000000" stroke-width="7" stroke-linecap="round" stroke-linejoin="round" stroke-miterlimit="10" x1="25.7" y1="294.8" x2="301.9" y2="294.8"/>
	<g>
		
			<polyline fill="none" stroke="#000000" stroke-width="7" stroke-linecap="round" stroke-linejoin="round" stroke-miterlimit="10" points="
			25.7,64.8 48.2,42.8 70.7,64.8 		"/>
	</g>
	<g>
		
			<polyline fill="none" stroke="#000000" stroke-width="7" stroke-linecap="round" stroke-linejoin="round" stroke-miterlimit="10" points="
			279.9,272.3 301.9,294.8 279.9,317.3 		"/>
	</g>
</g>
<text transform="matrix(1 0 0 1 250.9722 258.8197)" font-family="'PermanentMarker'" font-size="30.74px">age</text>
<text transform="matrix(1 0 0 1 22.6756 30.8752)" font-family="'PermanentMarker'" font-size="30.74px">ambition</text>
<path fill="none" stroke="#AB3D63" stroke-width="7" stroke-linecap="round" stroke-linejoin="round" stroke-miterlimit="10" d="
	M70.4,86.9c14.3,44.1,35.8,85.5,58.5,125.9C168.5,283.1,212.3,351,260.1,416"/>
<g>
	<path fill="none" stroke="#000000" stroke-width="7" stroke-linecap="round" stroke-linejoin="round" stroke-miterlimit="10" d="
		M81.1,96.7c-3.2,3.7-6.4,7.3-9.6,11"/>
	<path fill="none" stroke="#000000" stroke-width="7" stroke-linecap="round" stroke-linejoin="round" stroke-miterlimit="10" d="
		M70.9,97.7c3.2,2.9,6.3,5.9,9.5,8.8"/>
	<path fill="none" stroke="#000000" stroke-width="7" stroke-linecap="round" stroke-linejoin="round" stroke-miterlimit="10" d="
		M91.2,101.1c3.8,2.6,9.2,0.3,12-3.4c2.8-3.6,3.8-8.3,5.9-12.4c3.9-7.8,11.5-13.7,20-15.5"/>
	<text transform="matrix(1 0 0 1 137.5379 76.0796)" font-family="'PermanentMarker'" font-size="30.74px">rockstar</text>
</g>
<g>
	<path fill="none" stroke="#000000" stroke-width="7" stroke-linecap="round" stroke-linejoin="round" stroke-miterlimit="10" d="
		M141.5,225c-2.2,3.2-4.4,6.3-6.6,9.5"/>
	<path fill="none" stroke="#000000" stroke-width="7" stroke-linecap="round" stroke-linejoin="round" stroke-miterlimit="10" d="
		M134.6,227.6c2.4,1.5,4.9,2.9,7.3,4.4"/>
	<path fill="none" stroke="#000000" stroke-width="7" stroke-linecap="round" stroke-linejoin="round" stroke-miterlimit="10" d="
		M152.6,221c3.7,0.6,6.8-3,7.7-6.6c1.3-5.2-0.9-11-5.3-14.2c-1.7-1.2-3.6-2-5.3-3.1c-1.7-1.1-3.3-2.7-3.8-4.7c-0.6-2.6,0.9-5.4,3-7
		c2.1-1.6,4.8-2.4,7.4-3.1"/>
	<text transform="matrix(1 0 0 1 167.8617 167.8294)"><tspan x="0" y="0" font-family="'PermanentMarker'" font-size="30.74px">a couple kids </tspan><tspan x="0" y="30" font-family="'PermanentMarker'" font-size="30.74px">&amp; a yellow lab</tspan></text>
</g>
<g>
	<path fill="none" stroke="#000000" stroke-width="7" stroke-linecap="round" stroke-linejoin="round" stroke-miterlimit="10" d="
		M248.5,389.1c-3.5,3.1-7.1,6.3-10.6,9.4"/>
	<path fill="none" stroke="#000000" stroke-width="7" stroke-linecap="round" stroke-linejoin="round" stroke-miterlimit="10" d="
		M239.1,390.1c2.9,2.4,5.8,4.9,8.8,7.3"/>
	<path fill="none" stroke="#000000" stroke-width="7" stroke-linecap="round" stroke-linejoin="round" stroke-miterlimit="10" d="
		M226.5,395.9c-4.7,3.7-10.6,6.1-16.5,5.7c-5.9-0.4-11.8-3.9-14.2-9.3c-2.3-5.2-1.3-11.1-0.1-16.7c1.1-5.5,2.4-11.4,0.5-16.7
		s-8.2-9.5-13.3-6.9"/>
	<text transform="matrix(1 0 0 1 62.3228 339.7932)"><tspan x="0" y="0" font-family="'PermanentMarker'" font-size="30.74px">shower</tspan><tspan x="5.9" y="30" font-family="'PermanentMarker'" font-size="30.74px">once a</tspan><tspan x="16.1" y="60" font-family="'PermanentMarker'" font-size="30.74px">week</tspan></text>
</g>
<g id="Arrow_up">
</g>
</svg>
