<?xml version="1.0" encoding="utf-8"?> <!-- Generator: Adobe Illustrator 18.0.0, SVG Export Plug-In . SVG Version: 6.00 Build 0) --> <!DOCTYPE svg PUBLIC "-//W3C//DTD SVG 1.1//EN" "http://www.w3.org/Graphics/SVG/1.1/DTD/svg11.dtd"> <svg version="1.1" id="Layer_1" xmlns="http://www.w3.org/2000/svg" xmlns:xlink="http://www.w3.org/1999/xlink" x="0px" y="0px" viewBox="0 0 807 438" enable-background="new 0 0 807 438" xml:space="preserve"> <path stroke="#FFFFFF" stroke-width="120" stroke-linejoin="bevel" d="M491,21.7 c-43.1,5-86.6,0-129.9-0.2s-88.4,4.9-125.3,27.8c-23,14.3-41.5,34.7-59.7,54.8c-33.6,37.3-67.2,74.5-100.8,111.8 C57.5,235.7,39,256.7,33,282.7c24.4,3.4,44.6-17.8,60.1-37c40.5-49.8,82.4-99.3,133.7-137.8s113.5-65.5,177.6-64.4 c8.6,0.2,18.8,1.9,22.4,9.7c5.2,11.1-7.5,21.9-18.2,27.9c-99.1,54.6-192.9,118.7-279.9,191.1c-13.4,11.2-28,28.3-20,43.8 c5.4,10.5,19.5,14,30.9,11c11.4-3,20.9-10.9,30-18.4c72.1-59.6,150.7-111.2,233.9-153.8c-43.1,78.9-125.7,126-195.6,182.7 c-9.4,7.7-19,16-23.5,27.3c-4.5,11.3-2.1,26.3,8.5,32.3c14.2,8.1,31.2-3.9,43.1-15.2c89.1-84.4,178.2-168.8,267.4-253.1 c14.1,31.9-5.8,68.4-28.8,94.6c-23,26.2-51.2,51.5-57,85.9c27.5,3.9,54-13.4,71.4-35.1c17.4-21.6,28.2-47.7,43.6-70.8 c15.3-23.1,37.4-44.4,64.9-47.9c-27.5,41.8-55.7,85.6-61.3,135.3c79.5-29.9,166.5-39.4,250.6-27.5c4.5,0.6,9.5,1.7,11.8,5.5 c2.8,4.4,0.3,10.6-3.9,13.7s-9.6,3.9-14.8,4.6c-24.8,3.4-49.6,6.7-74.5,10.1c-17.1,2.3-35.7,4.4-50.7-4.2 c-15-8.6-21.7-32.6-7.9-43.1"/> <path stroke-width="7" d="M221.7,391.2"/> <g> <line stroke-width="7" x1="219.5" y1="415" x2="219.5" y2="82"/> <line stroke-width="7" x1="44" y1="267.5" x2="412" y2="267.5"/> <polyline stroke-width="7" points=" 197,104 219.5,82 242,104 	"/> <polyline stroke-width="7" points=" 390,245 412,267.5 390,290 	"/> </g> <g> <text transform="matrix(1 0 0 1 197.0029 32.1329)"><tspan x="0" y="0" font-family="'PermanentMarker'" font-size="31">how good i think </tspan><tspan x="0" y="37.2" font-family="'PermanentMarker'" font-size="31">i am at something</tspan></text> <path stroke-linejoin="bevel" d=" M201.7,17c0.4,1.4-2.4,13.4-2.4,13.4"/> <path stroke-linejoin="bevel" d=" M211.9,16.2c1,1.9-2.2,11.8-1.9,14.1"/> <path stroke-linejoin="bevel" d=" M200.5,27.5c1-1,10.6-3.6,10.6-3.6"/> <path stroke-linejoin="bevel" d=" M227.4,15.7c-1.8,0.9-13,9.7-9.6,13.2s13.4-0.1,13.6-3.5s-4.5-8.6-4.5-8.6"/> <path stroke-linejoin="bevel" d=" M240.4,16.5c0.1,3.2-4.4,9.4-1.9,12.9s11.2-11.6,11.5-11.2s-1.6,11.2,2.2,11.5c3.8,0.3,4.6-8.9,7.3-13.6"/> <path stroke-linejoin="bevel" d=" M284.8,16.2c-3.9,1.2-12.4,9-10.4,12.2s14.9-0.8,15.5-2.1s-4-2.7-4-2.7"/> <path stroke-linejoin="bevel" d=" M304.4,15.7c-1.8,0.9-13,9.7-9.6,13.2s13.4-0.1,13.6-3.5s-4.5-8.6-4.5-8.6"/> <path stroke-linejoin="bevel" d=" M323.4,15.7c-1.8,0.9-13,9.7-9.6,13.2s13.4-0.1,13.6-3.5s-4.5-8.6-4.5-8.6"/> <path stroke-linejoin="bevel" d=" M333.9,18.6c0.3,1.8,0.9,7.7,0,11.2"/> <path stroke-linejoin="bevel" d=" M334.8,15.9c2.2,0.3,9.2,4.1,9.8,6.2c0.6,2.2-7.2,7.4-8.7,7.8"/> <path stroke-linejoin="bevel" d=" M363.4,17.7c-1.1,1.4-2.5,12.2-2.1,13.7"/> <path stroke-linejoin="bevel" d=" M382.1,16.9c1.2,0.3,13.1-1.8,14.8-1.4"/> <path stroke-linejoin="bevel" d=" M389.5,15.8c0.3,1.1-4.7,11.8-4.7,13.1s1.1,2.4,1.1,2.4"/> <path stroke-linejoin="bevel" d=" M398.7,18c0.4,1.4-2.4,13.4-2.4,13.4"/> <path stroke-linejoin="bevel" d=" M408.9,17.2c1,1.9-2.2,11.8-1.9,14.1"/> <path stroke-linejoin="bevel" d=" M397.5,28.5c1-1,10.6-3.6,10.6-3.6"/> <path stroke-linejoin="bevel" d=" M418.4,16.7c-1.1,1.4-2.5,12.2-2.1,13.7"/> <path stroke-linejoin="bevel" d=" M423.5,28.9c0-1.5,5.8-12.1,5.8-12.1"/> <path stroke-linejoin="bevel" d=" M428.6,19.2c0,1.4,0.3,9.9,3.5,10.1s5.1-13,5.1-13"/> <path stroke-linejoin="bevel" d=" M446.9,15.4c-1.1,1.1-5.1,12.8-4.5,13.9s7.6-9.8,14.2-12.2"/> <path stroke-linejoin="bevel" d=" M448.6,24c0.8,2.1,5.1,5.6,9.3,4.8"/> <path stroke-linejoin="bevel" d=" M203.4,54.7c-1.1,1.4-2.5,12.2-2.1,13.7"/> <path stroke-linejoin="bevel" d=" M220.8,67.2c0-1.4,5.2-12.7,8.5-13.8c0,0,5.3,11.5,2.3,14.2"/> <path stroke-linejoin="bevel" d=" M225.6,63.9c1.4,0,8.3-1.9,9.6-2.8"/> <path stroke-linejoin="bevel" d=" M238.4,66c0-1.6,5.4-12.9,5.8-12.1s0.9,6.9,3.1,7.1s8.9-6.5,10.5-7.1s-1.8,10.9-1.3,12.8"/> <path stroke-linejoin="bevel" d=" M274.8,67.2c0-1.4,5.2-12.7,8.5-13.8c0,0,5.3,11.5,2.3,14.2"/> <path stroke-linejoin="bevel" d=" M279.6,63.9c1.4,0,8.3-1.9,9.6-2.8"/> <path stroke-linejoin="bevel" d=" M293.1,53.9c1.2,0.3,13.1-1.8,14.8-1.4"/> <path stroke-linejoin="bevel" d=" M300.5,52.8c0.3,1.1-4.7,11.7-4.7,13.1s1.1,2.4,1.1,2.4"/> <path stroke-linejoin="bevel" d=" M330.1,52.5c-1.2-0.4-11,1.9-11.6,3.5s7.7,2.6,8.1,5.6c0.4,3-6.9,6.2-7.9,5.8"/> <path stroke-linejoin="bevel" d=" M342.4,52.7c-1.8,0.9-13,9.7-9.6,13.2c3.4,3.5,13.4-0.1,13.6-3.5c0.2-3.4-4.5-8.6-4.5-8.6"/> <path stroke-linejoin="bevel" d=" M351.4,66c0-1.6,5.4-12.9,5.8-12.1s0.9,6.9,3.1,7.1s8.9-6.5,10.5-7.1s-1.8,10.9-1.3,12.8"/> <path stroke-linejoin="bevel" d=" M378.8,54.6c0.9,2-2.8,10-2.4,11.1c0.4,1.1,7.7,2,11.2,0.4"/> <path stroke-linejoin="bevel" d=" M378.4,54.9c0.4-0.3,10.2-1.8,10.8-2.4"/> <path stroke-linejoin="bevel" d=" M378.4,59.4c0.7,0.2,6.3,0.8,7,0"/> <path stroke-linejoin="bevel" d=" M393.1,53.9c1.2,0.3,13.1-1.8,14.8-1.4"/> <path stroke-linejoin="bevel" d=" M400.5,52.8c0.3,1.1-4.7,11.7-4.7,13.1s1.1,2.4,1.1,2.4"/> <path stroke-linejoin="bevel" d=" M410.7,54c0.4,1.4-2.4,13.4-2.4,13.4"/> <path stroke-linejoin="bevel" d=" M420.9,53.2c1,1.9-2.2,11.7-1.9,14.1"/> <path stroke-linejoin="bevel" d=" M409.5,64.5c1-1,10.6-3.6,10.6-3.6"/> <path stroke-linejoin="bevel" d=" M429.4,53.7c-1.1,1.4-2.5,12.2-2.1,13.7"/> <path stroke-linejoin="bevel" d=" M435.5,65.9c0-1.5,5.8-12.1,5.8-12.1"/> <path stroke-linejoin="bevel" d=" M440.6,56.2c0,1.4,0.3,9.9,3.5,10.1s5.1-13,5.1-13"/> <path stroke-linejoin="bevel" d=" M463.8,53.2c-3.9,1.2-12.4,9-10.4,12.2c1.9,3.2,14.9-0.8,15.5-2.1c0.6-1.2-4-2.7-4-2.7"/> </g> <g> <text transform="matrix(1 0 0 1 422.0029 256.5414)"><tspan x="0" y="0" font-family="'PermanentMarker'" font-size="31">how good i think</tspan><tspan x="0" y="37.2" font-family="'PermanentMarker'" font-size="31">people are at something</tspan></text> <path stroke-linejoin="bevel" d=" M426.7,241c0.4,1.4-2.4,13.4-2.4,13.4"/> <path stroke-linejoin="bevel" d=" M436.9,240.2c1,1.9-2.2,11.8-1.9,14.1"/> <path stroke-linejoin="bevel" d=" M425.5,251.5c1-1,10.6-3.6,10.6-3.6"/> <path stroke-linejoin="bevel" d=" M452.4,239.7c-1.8,0.9-13,9.7-9.6,13.2s13.4-0.1,13.6-3.5c0.2-3.4-4.5-8.6-4.5-8.6"/> <path stroke-linejoin="bevel" d=" M465.4,240.5c0.1,3.2-4.4,9.4-1.9,12.9c2.6,3.5,11.2-11.6,11.5-11.2c0.2,0.4-1.6,11.2,2.2,11.5c3.8,0.3,4.6-8.9,7.2-13.6"/> <path stroke-linejoin="bevel" d=" M509.8,240.2c-3.9,1.2-12.4,9-10.4,12.2s14.9-0.8,15.5-2.1s-4-2.7-4-2.7"/> <path stroke-linejoin="bevel" d=" M529.4,239.7c-1.8,0.9-13,9.7-9.6,13.2s13.4-0.1,13.6-3.5c0.2-3.4-4.5-8.6-4.5-8.6"/> <path stroke-linejoin="bevel" d=" M548.4,239.7c-1.8,0.9-13,9.7-9.6,13.2s13.4-0.1,13.6-3.5c0.2-3.4-4.5-8.6-4.5-8.6"/> <path stroke-linejoin="bevel" d=" M558.9,242.6c0.3,1.8,0.9,7.7,0,11.2"/> <path stroke-linejoin="bevel" d=" M559.8,239.9c2.2,0.3,9.2,4.1,9.8,6.2c0.6,2.2-7.2,7.4-8.7,7.8"/> <path stroke-linejoin="bevel" d=" M588.4,241.7c-1.1,1.4-2.5,12.2-2.1,13.7"/> <path stroke-linejoin="bevel" d=" M607.1,240.9c1.2,0.3,13.1-1.8,14.8-1.4"/> <path stroke-linejoin="bevel" d=" M614.5,239.8c0.3,1.1-4.7,11.8-4.7,13.1c0,1.3,1.1,2.4,1.1,2.4"/> <path stroke-linejoin="bevel" d=" M623.7,242c0.4,1.4-2.4,13.4-2.4,13.4"/> <path stroke-linejoin="bevel" d=" M633.9,241.2c1,1.9-2.2,11.8-1.9,14.1"/> <path stroke-linejoin="bevel" d=" M622.5,252.5c1-1,10.6-3.6,10.6-3.6"/> <path stroke-linejoin="bevel" d=" M643.4,240.7c-1.1,1.4-2.5,12.2-2.1,13.7"/> <path stroke-linejoin="bevel" d=" M648.5,252.9c0-1.5,5.8-12.1,5.8-12.1"/> <path stroke-linejoin="bevel" d=" M653.6,243.2c0,1.4,0.3,9.9,3.5,10.1c3.2,0.2,5.1-13,5.1-13"/> <path stroke-linejoin="bevel" d=" M671.9,239.4c-1.1,1.1-5.1,12.8-4.5,13.9c0.6,1.2,7.6-9.8,14.2-12.2"/> <path stroke-linejoin="bevel" d=" M673.6,248c0.8,2.1,5.1,5.6,9.3,4.8"/> <path stroke-linejoin="bevel" d=" M425,292.3c0.4-0.6,1.5-11.7,4.2-13.7c2.7-2.1,8.7,0.6,7.7,3.4s-7.1,4.6-11.5,3.6"/> <path stroke-linejoin="bevel" d=" M442.8,279.6c0.9,2-2.8,10-2.4,11.1s7.7,2,11.2,0.4"/> <path stroke-linejoin="bevel" d=" M442.4,279.9c0.4-0.3,10.2-1.8,10.8-2.4"/> <path stroke-linejoin="bevel" d=" M442.4,284.4c0.7,0.2,6.3,0.8,7,0"/> <path stroke-linejoin="bevel" d=" M466.4,277.7c-1.8,0.9-13,9.7-9.6,13.2s13.4-0.1,13.6-3.5s-4.5-8.6-4.5-8.6"/> <path stroke-linejoin="bevel" d=" M476,291.3c0.4-0.6,1.5-11.7,4.2-13.7c2.7-2.1,8.7,0.6,7.7,3.4s-7.1,4.6-11.5,3.6"/> <path stroke-linejoin="bevel" d=" M495.9,276.7c0.1,1.4-4.5,11.3-3.8,13.7c0.7,2.3,7.5-1.5,11,0.3"/> <path stroke-linejoin="bevel" d=" M510.8,279.6c0.9,2-2.8,10-2.4,11.1s7.7,2,11.2,0.4"/> <path stroke-linejoin="bevel" d=" M510.4,279.9c0.4-0.3,10.2-1.8,10.8-2.4"/> <path stroke-linejoin="bevel" d=" M510.4,284.4c0.7,0.2,6.3,0.8,7,0"/> <path stroke-linejoin="bevel" d=" M534.8,291.2c0-1.4,5.2-12.7,8.5-13.8c0,0,5.3,11.5,2.3,14.2"/> <path stroke-linejoin="bevel" d=" M539.6,287.9c1.4,0,8.3-1.9,9.6-2.8"/> <path stroke-linejoin="bevel" d=" M555.3,281.2c0.1,0.6-1.7,9.9-1.7,9.9"/> <path stroke-linejoin="bevel" d=" M556.4,282.6c0-1.1,4-5.6,4.7-5.7s5.4,4.2,3.9,5.7s-8.6,3.1-8.6,3.1s1.8,5.4,9.4,6.2"/> <path stroke-linejoin="bevel" d=" M572.8,279.6c0.9,2-2.8,10-2.4,11.1s7.7,2,11.2,0.4"/> <path stroke-linejoin="bevel" d=" M572.4,279.9c0.4-0.3,10.2-1.8,10.8-2.4"/> <path stroke-linejoin="bevel" d=" M572.4,284.4c0.7,0.2,6.3,0.8,7,0"/> <path stroke-linejoin="bevel" d=" M597.8,291.2c0-1.4,5.2-12.7,8.5-13.8c0,0,5.3,11.5,2.3,14.2"/> <path stroke-linejoin="bevel" d=" M602.6,287.9c1.4,0,8.3-1.9,9.6-2.8"/> <path stroke-linejoin="bevel" d=" M616.1,277.9c1.2,0.3,13.1-1.8,14.8-1.4"/> <path stroke-linejoin="bevel" d=" M623.5,276.8c0.3,1.1-4.7,11.8-4.7,13.1s1.1,2.4,1.1,2.4"/> <path stroke-linejoin="bevel" d=" M653.1,276.5c-1.2-0.4-11,1.9-11.6,3.5s7.7,2.6,8.1,5.6s-6.9,6.2-7.9,5.8"/> <path stroke-linejoin="bevel" d=" M665.4,276.7c-1.8,0.9-13,9.7-9.6,13.2s13.4-0.1,13.6-3.5s-4.5-8.6-4.5-8.6"/> <path stroke-linejoin="bevel" d=" M674.4,290c0-1.6,5.4-12.9,5.8-12.1s0.9,6.9,3.1,7.1s8.9-6.5,10.5-7.1c1.6-0.6-1.8,10.9-1.3,12.8"/> <path stroke-linejoin="bevel" d=" M701.8,278.6c0.9,2-2.8,10-2.4,11.1s7.7,2,11.2,0.4"/> <path stroke-linejoin="bevel" d=" M701.4,278.9c0.4-0.3,10.2-1.8,10.8-2.4"/> <path stroke-linejoin="bevel" d=" M701.4,283.4c0.7,0.2,6.3,0.8,7,0"/> <path stroke-linejoin="bevel" d=" M716.1,277.9c1.2,0.3,13.1-1.8,14.8-1.4"/> <path stroke-linejoin="bevel" d=" M723.5,276.8c0.3,1.1-4.7,11.8-4.7,13.1s1.1,2.4,1.1,2.4"/> <path stroke-linejoin="bevel" d=" M733.7,278c0.4,1.4-2.4,13.4-2.4,13.4"/> <path stroke-linejoin="bevel" d=" M743.9,277.2c1,1.9-2.2,11.8-1.9,14.1"/> <path stroke-linejoin="bevel" d=" M732.5,288.5c1-1,10.6-3.6,10.6-3.6"/> <path stroke-linejoin="bevel" d=" M752.4,277.7c-1.1,1.4-2.5,12.2-2.1,13.7"/> <path stroke-linejoin="bevel" d=" M758.5,289.9c0-1.5,5.8-12.1,5.8-12.1"/> <path stroke-linejoin="bevel" d=" M763.6,280.2c0,1.4,0.3,9.9,3.5,10.1s5.1-13,5.1-13"/> <path stroke-linejoin="bevel" d=" M786.8,277.2c-3.9,1.2-12.4,9-10.4,12.2s14.9-0.8,15.5-2.1s-4-2.7-4-2.7"/> </g> <g> <text transform="matrix(1 0 0 1 242.0913 156.7453)" fill="#FF931E" font-family="'PermanentMarker'" font-size="31">how good i actually am</text> <path stroke="#FF931E" stroke-linejoin="bevel" d=" M248.7,141c0.4,1.4-2.4,13.4-2.4,13.4"/> <path stroke="#FF931E" stroke-linejoin="bevel" d=" M258.9,140.2c1,1.9-2.2,11.8-1.9,14.1"/> <path stroke="#FF931E" stroke-linejoin="bevel" d=" M247.5,151.5c1-1,10.6-3.6,10.6-3.6"/> <path stroke="#FF931E" stroke-linejoin="bevel" d=" M274.4,139.7c-1.8,0.9-13,9.7-9.6,13.2c3.4,3.5,13.4-0.1,13.6-3.5s-4.5-8.6-4.5-8.6"/> <path stroke="#FF931E" stroke-linejoin="bevel" d=" M287.4,140.5c0.1,3.2-4.4,9.4-1.9,12.9s11.2-11.6,11.5-11.2s-1.6,11.2,2.2,11.5s4.6-8.9,7.2-13.6"/> <path stroke="#FF931E" stroke-linejoin="bevel" d=" M331.8,140.2c-3.9,1.2-12.4,9-10.4,12.2s14.9-0.8,15.5-2.1s-4-2.7-4-2.7"/> <path stroke="#FF931E" stroke-linejoin="bevel" d=" M351.4,139.7c-1.8,0.9-13,9.7-9.6,13.2c3.4,3.5,13.4-0.1,13.6-3.5s-4.5-8.6-4.5-8.6"/> <path stroke="#FF931E" stroke-linejoin="bevel" d=" M370.4,139.7c-1.8,0.9-13,9.7-9.6,13.2c3.4,3.5,13.4-0.1,13.6-3.5s-4.5-8.6-4.5-8.6"/> <path stroke="#FF931E" stroke-linejoin="bevel" d=" M380.9,142.6c0.3,1.8,0.9,7.7,0,11.2"/> <path stroke="#FF931E" stroke-linejoin="bevel" d=" M381.8,139.9c2.2,0.3,9.2,4.1,9.8,6.2c0.6,2.2-7.2,7.4-8.7,7.8"/> <path stroke="#FF931E" stroke-linejoin="bevel" d=" M410.4,141.7c-1.1,1.4-2.5,12.2-2.1,13.7"/> <path stroke="#FF931E" stroke-linejoin="bevel" d=" M427.8,155.2c0-1.4,5.2-12.7,8.5-13.8c0,0,5.3,11.5,2.3,14.2"/> <path stroke="#FF931E" stroke-linejoin="bevel" d=" M432.6,151.9c1.4,0,8.3-1.9,9.6-2.8"/> <path stroke="#FF931E" stroke-linejoin="bevel" d=" M456.6,141.3c-3.5,0.7-12.2,5.9-10.2,10.6s10.2,3.1,10.2,3.1"/> <path stroke="#FF931E" stroke-linejoin="bevel" d=" M462.1,141.9c1.2,0.3,13.1-1.8,14.8-1.4"/> <path stroke="#FF931E" stroke-linejoin="bevel" d=" M469.5,140.8c0.3,1.1-4.7,11.8-4.7,13.1s1.1,2.4,1.1,2.4"/> <path stroke="#FF931E" stroke-linejoin="bevel" d=" M479.1,143.9c-0.7,2-2,8.4,1.2,10.6s11.4-7.7,10.9-12.1"/> <path stroke="#FF931E" stroke-linejoin="bevel" d=" M493.8,155.2c0-1.4,5.2-12.7,8.5-13.8c0,0,5.3,11.5,2.3,14.2"/> <path stroke="#FF931E" stroke-linejoin="bevel" d=" M498.6,151.9c1.4,0,8.3-1.9,9.6-2.8"/> <path stroke="#FF931E" stroke-linejoin="bevel" d=" M516.9,140.7c0.1,1.4-4.5,11.3-3.8,13.7c0.7,2.3,7.5-1.5,11,0.3"/> <path stroke="#FF931E" stroke-linejoin="bevel" d=" M532.9,140.7c0.1,1.4-4.5,11.3-3.8,13.7c0.7,2.3,7.5-1.5,11,0.3"/> <path stroke="#FF931E" stroke-linejoin="bevel" d=" M545.7,140.8c0,1.6,1.3,7.8,3.6,8.8"/> <path stroke="#FF931E" stroke-linejoin="bevel" d=" M554.9,140.8c-0.9,0.4-9.8,12.3-9.4,15.1"/> <path stroke="#FF931E" stroke-linejoin="bevel" d=" M567.8,155.2c0-1.4,5.2-12.7,8.5-13.8c0,0,5.3,11.5,2.3,14.2"/> <path stroke="#FF931E" stroke-linejoin="bevel" d=" M572.6,151.9c1.4,0,8.3-1.9,9.6-2.8"/> <path stroke="#FF931E" stroke-linejoin="bevel" d=" M585.4,154c0-1.6,5.4-12.9,5.8-12.1s0.9,6.9,3.1,7.1s8.9-6.5,10.5-7.1c1.6-0.6-1.8,10.9-1.3,12.8"/> </g> <path stroke="#FF931E" stroke-width="7" d="M220,266c14-5,30-24,24-39 c-15-36-55-3-62,19c-20,59,70,81,99,32c22-36,1-65-34-80c-23-10-63-20-83-1c-17,16-21,52-20,74c3,38,40,67,76,75 c69,16,127-61,128-125c2-80-110-125-178-117c-72,9-81,98-78,157c3,62,54,104,113,113c76,11,148-36,178-106"/> </svg> 