<?xml version="1.0" encoding="utf-8"?>
<!-- Generator: Adobe Illustrator 18.0.0, SVG Export Plug-In . SVG Version: 6.00 Build 0)  -->
<!DOCTYPE svg PUBLIC "-//W3C//DTD SVG 1.1//EN" "http://www.w3.org/Graphics/SVG/1.1/DTD/svg11.dtd">
<svg version="1.1" id="Layer_1" xmlns="http://www.w3.org/2000/svg" xmlns:xlink="http://www.w3.org/1999/xlink" x="0px" y="0px"
	 viewBox="0 0 614 486" enable-background="new 0 0 614 486" xml:space="preserve">
<path fill="none" stroke="#FFFFFF" stroke-width="120" stroke-linejoin="bevel" stroke-miterlimit="10" d="M372.5,9.9
	c-20.6,18.9-35.6,43.8-42.7,70.8c-3.9,14.7-2.7,34.8,11.7,39.6c12.8,4.3,25.1-7.1,33.8-17.5c25.9-30.8,51.7-61.6,77.6-92.3
	c11.2-13.3,27.7-28,43.5-20.9c13.6,6,16.1,25.4,9.6,38.7s-19.1,22.5-30.2,32.4c-35.4,31.4-59.3,75.4-66.5,122.2
	c21.9-18.7,43.9-37.4,65.8-56.1c13.8-11.8,28-23.8,45.2-29.5c17.2-5.7,38.3-3.6,50.4,9.9c17.6,19.6,7,53.2-14.5,68.4
	c-21.4,15.3-49.3,17.3-75.6,18.9c-23,1.3-46,2.7-69,4c-15.9,0.9-32.4,1.8-47.3-3.9c-32.5-12.4-45.9-49.9-60.1-81.7
	c-4.7-10.4-10-20.8-18.3-28.7s-20.2-12.6-31.3-9.8c-22.2,5.7-27.8,35.8-46.9,48.5c-19.4,12.9-46.7,3.2-62.7-13.6
	S120.5,70,108.3,50.2S77.4,11.7,54.2,10.7C38.8,35.5,24.7,63.3,27,92.4s27.9,58,56.8,53.5C50.4,198.3,29,258.4,21.9,320.2
	c-1.6,13.6-2.4,27.8,2.8,40.4c5.1,12.7,17.9,23.2,31.4,21.6c18.2-2.2,27.6-23.7,26.8-42c-0.8-18.3-7.9-36.1-7.1-54.4
	c1.6-34.1,31.5-61.6,64.2-71.6c32.7-9.9,67.8-6.1,101.8-2.1c7.7,0.9,15.6,1.9,22.5,5.5c6.9,3.6,12.6,10.5,12.5,18.3
	c-0.2,14.3-17.4,20.9-31.2,24.7c-86.8,23.6-163.9,80.9-211.6,157.1c-7.7,12.4-14.6,29-5.8,40.7c8.5,11.2,26.6,9.5,37.7,0.9
	s17.4-21.7,25.2-33.4c22.5-34,60.2-57.7,100.6-63.2c-5.8,16.6-11.7,34.2-8.6,51.5c3.1,17.3,18.5,33.8,35.9,31.5
	c18.2-2.4,28-22,34.9-39c7-17.3,14.6-35.4,29.4-46.9c14.7-11.5,38.8-13.2,50.5,1.4c9.6,11.9,7.5,29.4,13.5,43.4
	c8,18.6,29.7,28.5,49.9,27.8c20.2-0.8,39.1-10.3,56-21.4c16.9-11.2,32.6-24.2,50.6-33.5c12.9-6.7,27.3-11.3,41.8-10.5
	c14.5,0.9,29.2,8,36.5,20.6c11.2,19.1,2.2,44.8-14.3,59.5c-16.5,14.7-38.7,21-60,26.9"/>
<g>
	<g>
		
			<line fill="none" stroke="#010101" stroke-width="7" stroke-linecap="round" stroke-linejoin="round" stroke-miterlimit="10" x1="340.6" y1="117.5" x2="567.7" y2="117.5"/>
		
			<line fill="none" stroke="#010101" stroke-width="7" stroke-linecap="round" stroke-linejoin="round" stroke-miterlimit="10" x1="454.3" y1="180.1" x2="454.3" y2="34.3"/>
		
			<polyline fill="none" stroke="#010101" stroke-width="7" stroke-linecap="round" stroke-linejoin="round" stroke-miterlimit="10" points="
			546,95 568,117.5 546,140 		"/>
		
			<polyline fill="none" stroke="#010101" stroke-width="7" stroke-linecap="round" stroke-linejoin="round" stroke-miterlimit="10" points="
			431.8,56.4 454.3,34.4 476.8,56.4 		"/>
	</g>
	<g>
		<text transform="matrix(1 0 0 1 371.3337 24.3824)" fill="#D41C5C" font-family="'PermanentMarker'" font-size="30.74">satisfaction</text>
		<g>
			<text transform="matrix(1 0 0 1 500.6984 164.658)" fill="#00A99D" font-family="'PermanentMarker'" font-size="30.74">success</text>
		</g>
		<path fill="none" stroke="#D41C5C" stroke-width="7" stroke-linecap="round" stroke-miterlimit="10" d="M548.8,66.5
			c-35.8,5.6-69.7,23-95,48.9c-25.4,25.9-42.2,60-47.1,95.9"/>
	</g>
</g>
<g>
	<g>
		
			<line fill="none" stroke="#010101" stroke-width="7" stroke-linecap="round" stroke-linejoin="round" stroke-miterlimit="10" x1="13.3" y1="117.9" x2="268.3" y2="117.9"/>
		
			<line fill="none" stroke="#010101" stroke-width="7" stroke-linecap="round" stroke-linejoin="round" stroke-miterlimit="10" x1="35.3" y1="180.1" x2="35.3" y2="34.3"/>
		
			<polyline fill="none" stroke="#010101" stroke-width="7" stroke-linecap="round" stroke-linejoin="round" stroke-miterlimit="10" points="
			246.5,95.4 268.5,117.9 246.5,140.4 		"/>
		
			<polyline fill="none" stroke="#010101" stroke-width="7" stroke-linecap="round" stroke-linejoin="round" stroke-miterlimit="10" points="
			12.8,56.4 35.3,34.4 57.8,56.4 		"/>
	</g>
	<g>
		<text transform="matrix(1 0 0 1 7.8386 24.3824)" fill="#00A99D" font-family="'PermanentMarker'" font-size="30.74">success</text>
		<text transform="matrix(1 0 0 1 224.5392 79.0164)" fill="#010101" font-family="'PermanentMarker'" font-size="30.74">time</text>
		<path fill="none" stroke="#00A99D" stroke-width="7" stroke-linecap="round" stroke-miterlimit="10" d="M41.2,118.5
			c4.9-8.3,9.9-16.5,14.8-24.8c4.1-6.8,9.9-14.6,17.9-13.8c7.5,0.8,11.7,8.8,14.6,15.7c4.1,9.7,8.1,19.4,12.2,29.1
			c3.2,7.6,7.1,15.9,14.7,19c10.6,4.3,22.4-4.1,27.8-14.2s6.8-21.8,11.8-32.1c3.6-7.3,9.8-14.1,17.9-14.7
			c11-0.7,19.1,10.3,22.6,20.7c3.6,10.4,5.4,22.2,13.3,29.8c6.5,6.2,16.7,8.2,25.1,5.1c8.4-3.2,14.7-11.4,15.5-20.4"/>
	</g>
</g>
<g>
	<g>
		
			<line fill="none" stroke="#010101" stroke-width="7" stroke-linecap="round" stroke-linejoin="round" stroke-miterlimit="10" x1="35.8" y1="457.4" x2="35.8" y2="208.4"/>
		
			<line fill="none" stroke="#010101" stroke-width="7" stroke-linecap="round" stroke-linejoin="round" stroke-miterlimit="10" x1="13.3" y1="434.9" x2="568.1" y2="434.9"/>
		
			<polyline fill="none" stroke="#010101" stroke-width="7" stroke-linecap="round" stroke-linejoin="round" stroke-miterlimit="10" points="
			13.3,230.4 35.8,208.4 58.3,230.4 		"/>
		
			<polyline fill="none" stroke="#010101" stroke-width="7" stroke-linecap="round" stroke-linejoin="round" stroke-miterlimit="10" points="
			546,412.4 568,434.9 546,457.4 		"/>
		<text transform="matrix(1 0 0 1 523.6198 401.8758)" fill="#010101" font-family="'PermanentMarker'" font-size="30.74">time</text>
	</g>
	<g>
		<g>
			<text transform="matrix(1 0 0 1 64.8367 225.9332)" fill="#D41C5C" font-family="'PermanentMarker'" font-size="30.74">life satisfaction</text>
		</g>
	</g>
	<path fill="none" stroke="#D41C5C" stroke-width="7" stroke-linecap="round" stroke-miterlimit="10" d="M43.3,331.9
		c17.2-29.8,63.4-37.3,89.1-14.5c12.1,10.8,19.2,26,27.9,39.7s20.7,27,36.8,29.7c35,5.9,60.8-40.3,96.2-39
		c24.3,0.9,41.3,23.3,55.3,43.1c14,19.8,33.1,41.3,57.3,39c16.9-1.6,30.5-14.8,47-18.9c23-5.8,47.4,7.7,61.6,26.7
		c14.2,19,20.4,42.6,26.2,65.6"/>
</g>
</svg>
