<?xml version="1.0" encoding="utf-8"?>
<!-- Generator: Adobe Illustrator 18.0.0, SVG Export Plug-In . SVG Version: 6.00 Build 0)  -->
<!DOCTYPE svg PUBLIC "-//W3C//DTD SVG 1.1//EN" "http://www.w3.org/Graphics/SVG/1.1/DTD/svg11.dtd">
<svg version="1.1" id="Layer_1" xmlns="http://www.w3.org/2000/svg" xmlns:xlink="http://www.w3.org/1999/xlink" x="0px" y="0px"
	 viewBox="0 0 403.5 457" enable-background="new 0 0 403.5 457" xml:space="preserve">
<path fill="none" stroke="#FFFFFF" stroke-width="120" stroke-linejoin="bevel" stroke-miterlimit="10" d="M26.6,10.1
	C17.5,34.2,8.4,58.3-0.7,82.4C33.5,54.7,67.7,26.9,101.9-0.8c-32.9,54-65.7,108-98.6,162C53.1,108.3,109,58.9,170.1,13.8
	c-25.1,39.5-50.9,81.3-48.2,125.4c27.1-28.3,54.3-56.6,81.4-84.9c15.7-16.4,33.5-33.9,59-38.4c-26.8,39.8-53.5,79.7-80.3,119.5
	c52.3-42,104.5-84,156.8-126c0.1,55.6,6.8,111.1,13.5,166.5c11.2,92.6,22.3,185.1,33.5,277.7c-6.1,5.3-17.1,5.5-25.3,2.3
	c-8.2-3.2-14.2-8.9-20-14.5c-14.2-13.7-36.1-57.8-50.3-71.5c-4.9,18.3-2.5,67.7-16.2,83.1c-3.1,3.5-7,6.9-12.1,8.3
	c-11.4,2.9-22.6-5.8-26-14.8s-2.2-18.8-6-27.7c-3.8-8.9-16.2-17-27-13.1c-8,2.9-10.8,10.5-12.7,17.2c-5.8,20.8-21.4,12.9-25.1,34.1
	c-30.9-31.6-50.9-34.3-81.7-66c-6.3-6.5-13.5-13.4-23.6-15c-12.8-2.1-25.6,5.5-31,14.8c-5.4,9.4,8.4,47.6,8.7,57.9
	c25.5-95.2,12.5-222.1-11.8-317.5c1.5,10.6,3.1,21.3,4.6,31.9c104.5,10.4,206.7,34.6,301.1,71.3c-42.4,51-102.5,92.8-172,119.8
	c-22.3,8.7-52.1,15-69.7,1.1c-10.2-8-12.4-20.8-8.7-31.7c3.7-11,12.5-20.4,21.9-29c32.6-29.6,75.8-51.9,123.4-63.7"/>
<g>
	
		<line fill="none" stroke="#000000" stroke-width="7" stroke-linecap="round" stroke-linejoin="round" stroke-miterlimit="10" x1="389.3" y1="426.4" x2="14.4" y2="426.4"/>
	
		<line fill="none" stroke="#000000" stroke-width="7" stroke-linecap="round" stroke-linejoin="round" stroke-miterlimit="10" x1="37.4" y1="100" x2="37.4" y2="448.7"/>
</g>
<g>
	
		<polyline fill="none" stroke="#000000" stroke-width="7" stroke-linecap="round" stroke-linejoin="round" stroke-miterlimit="10" points="
		367.3,403.9 389.3,426.4 367.3,448.9 	"/>
	<text transform="matrix(1 0 0 1 219.7488 387.7048)" font-family="'PermanentMarker'" font-size="31">competence</text>
</g>
<polyline fill="none" stroke="#000000" stroke-width="7" stroke-linecap="round" stroke-linejoin="round" stroke-miterlimit="10" points="
	14.9,122 37.4,100 59.9,122 "/>
<text transform="matrix(1 0 0 1 10.7229 55.3764)"><tspan x="0" y="0" fill="#F2C32F" font-family="'PermanentMarker'" font-size="31">how high you </tspan><tspan x="0" y="30" fill="#F2C32F" font-family="'PermanentMarker'" font-size="31">place the bar</tspan></text>
<path fill="none" stroke="#F2C32F" stroke-width="7" stroke-linecap="round" stroke-linejoin="round" stroke-miterlimit="10" d="
	M46.5,413.6c62.6-11,121.6-32,174.6-72c2-2,4-4,6-6c1-1,3-1,4-2c95-82,114-208,114.7-324.3"/>
<text transform="matrix(1 0 0 1 10.7229 25.9158)" fill="#3B61AC" font-family="'PermanentMarker'" font-size="31">perceived competence</text>
<path fill="none" stroke="#3B61AC" stroke-width="7" stroke-linecap="round" stroke-linejoin="round" stroke-miterlimit="10" d="
	M45,412c30.8-61.9,80.2-114.4,140.2-148.8s130.3-50.5,199.2-45.7"/>
<path fill="none" stroke="#000000" stroke-width="7" stroke-linecap="round" stroke-linejoin="round" stroke-miterlimit="10" d="
	M316.5,216c-2.9,2.7-5.9,5.4-8.8,8.1"/>
<path fill="none" stroke="#000000" stroke-width="7" stroke-linecap="round" stroke-linejoin="round" stroke-miterlimit="10" d="
	M308.1,216.3c3.2,2.4,6.1,5.2,8.8,8.2"/>
<g>
	<text transform="matrix(1 0 0 1 88.2014 134.5698)"><tspan x="0" y="0" font-family="'PermanentMarker'" font-size="31">beginning of</tspan><tspan x="23" y="30" font-family="'PermanentMarker'" font-size="31">“imposter</tspan><tspan x="20.6" y="60" font-family="'PermanentMarker'" font-size="31">syndrome”</tspan></text>
</g>
<path fill="none" stroke="#000000" stroke-width="7" stroke-linecap="round" stroke-linejoin="round" stroke-miterlimit="10" d="
	M301.6,210.1c-4.4-0.1-8.7-2.5-11.9-6.7c-2.6-3.3-4.4-7.6-6.8-11.1c-2.4-3.5-5.9-6.3-9.3-5.3"/>
</svg>
