<?xml version="1.0" encoding="utf-8"?>
<!-- Generator: Adobe Illustrator 19.2.0, SVG Export Plug-In . SVG Version: 6.00 Build 0)  -->
<svg version="1.1" id="Layer_1" xmlns="http://www.w3.org/2000/svg" xmlns:xlink="http://www.w3.org/1999/xlink" x="0px" y="0px"
	 width="606.3px" height="431.5px" viewBox="0 0 606.3 431.5" enable-background="new 0 0 606.3 431.5" xml:space="preserve">
<symbol  id="Arrow_right_1_" viewBox="-25.5 -26 29 52">
	
		<polyline fill="none" stroke="#231F20" stroke-width="7" stroke-linecap="round" stroke-linejoin="round" stroke-miterlimit="10" points="
		-22,22.5 0,0 -22,-22.5 	"/>
</symbol>
<symbol  id="Arrow_up" viewBox="-26 -25.5 52 29">
	
		<polyline fill="none" stroke="#231F20" stroke-width="7" stroke-linecap="round" stroke-linejoin="round" stroke-miterlimit="10" points="
		-22.5,-22 0,0 22.5,-22 	"/>
</symbol>
<path fill="none" stroke="#FFFFFF" stroke-width="120" stroke-linejoin="bevel" stroke-miterlimit="10" d="M151.5,67.6
	c-0.2-8.7-0.4-17.3-0.7-26c-10.9,10.7-21.8,21.3-32.6,32c-1-16.1-1.9-32.3-2.9-48.4c-0.4-7.4-1.2-15.4-6.3-20.7
	C99.1-5.8,80,3,75.5,16.6s0.7,28.2,5.8,41.5c-2.8-19.3-5.6-38.5-8.4-57.8C61.7,22.9,50.6,45.6,39.4,68.2
	c-4.4-20.9-8.7-41.8-13.1-62.7C17.6,29.3,8.8,53.1,0,76.9c9.6,17.9,37.2,22.6,52.2,8.9c-9.5,13.3-18.9,26.6-28.4,39.9
	c20.8-7.1,41.6-14.1,62.4-21.2c-24.3,13.2-48.7,26.4-73,39.7c32.4,10.1,68.2,9.1,100.1-2.8C79.7,163.2,46.1,185,12.5,206.8
	c28.5,0.9,57,1.8,85.5,2.7c-23.9,18.1-51.2,31.5-80.1,39.5c29.9,9.8,62.9,9.7,92.7-0.4c-21.7,7.8-43.3,15.7-65,23.5
	c-5.7,2.1-12,4.7-14.2,10.4c-2.9,7.4,3.9,15.8,11.7,17.4s15.7-2,22.5-6.2c7.4-4.6,14.7-10.4,23.4-11.2s18.8,6.7,16.4,15.1
	c-2.8,10.2-17.4,9.2-27.8,7.3c-15.4-2.8-32.3-2.3-45.6,5.9s-21.5,26-15.2,40.4c6.3,14.4,29.2,19.1,38.3,6.3
	c7.2-10.2,5.2-27.7,16.9-32c11.7-4.3,21.6,11.8,18.8,23.9c-2.8,12.1-12.3,21.5-16.9,33c-4.7,11.5-1,28.7,11.4,30
	c11.3,1.2,18.6-11.2,22.8-21.7c9.3-22.9,18.5-45.8,27.8-68.7c-12.1-0.2-24.3-0.3-36.4-0.5c-4.8,6.5,4.2,15.7,12.2,14.6
	c8-1.1,13.8-7.9,19.4-13.6c5.6-5.8,13.1-11.4,21-9.6c-9.2,30.6-18.4,61.2-27.6,91.7c18-36.2,36-72.3,54-108.5
	c-8,41.1-16,82.1-24,123.2c16-30.7,31.9-61.3,47.9-92c-6.2,31.7-12.5,63.5-18.7,95.2c14.1-34.7,28.1-69.4,42.2-104.1
	c-0.8,24.6-1.6,49.3-2.4,73.9c5.3-25.3,15.1-49.6,28.8-71.4c-6,29.7-10.1,59.8-12.2,90c12.3-34.1,24.6-68.1,36.9-102.2
	c0,29.2-0.1,58.4-0.1,87.6c0,5.8,0.7,12.9,6,15.3c8.2,3.7,14.7-7.6,16.7-16.3c6.8-29.7,13.6-59.3,20.4-89
	c2.4,37.5,4.7,75.1,7.1,112.6c23.4-24.8,35.2-60.1,31.4-94c0.9,35.2,1.7,70.5,2.6,105.7c8.6-17.1,17.3-35,17.1-54.1
	c-0.2-19.1-12.7-39.5-31.6-41.9c33.2,0,66.5,0,99.7,0c13.3,0,27-0.1,39.1-5.6c12.1-5.5,22.1-18,20.2-31.1c8.5,7.4,14.1,18.9,12.1,30
	c-2.1,11.1-13.4,20.4-24.4,18c-11.2-2.4-17.6-15.2-16.4-26.6c1.2-11.3,8-21.3,15.2-30.1c24.7-30.4,56.9-54.6,92.8-69.9
	c-18.4,22.6-36.7,45.2-55.1,67.8c-2.1-16.8-4.3-33.6-6.4-50.4c-21,18-42,36-63.1,54c12.9-17,16-40.9,7.9-60.7
	c-11.6,18.5-23.3,36.9-34.9,55.4c14.8-8.9,23.1-28.3,17.2-44.5c-5.8-16.2-26.7-25.8-42-17.9s-18.5,32.9-4.5,43
	c10.3,7.5,24.4,5.5,36.9,7.5c12.6,2,26.5,13.4,21.5,25c-4.2,9.7-17.4,10.5-28,9.8c-27.2-1.9-54.4-3.8-81.6-5.7
	c-43.7-3-87.7-6.1-129.8-18.5c-52-15.3-99.7-44.8-136.6-84.4c12.2-2.3,22,12.3,20.1,24.6c-1.9,12.2-11.3,21.8-20.1,30.5
	C184.6,154.3,324.1,95.2,464.7,94.7"/>
<g id="Arrow_right">
</g>
<g>
	
		<use xlink:href="#Arrow_up"  width="52" height="29" x="-26" y="-25.5" transform="matrix(1 0 0 -1 38.1393 76.8424)" overflow="visible"/>
	
		<use xlink:href="#Arrow_right_1_"  width="29" height="52" x="-25.5" y="-26" transform="matrix(1 0 0 -1 507.8492 324.3385)" overflow="visible"/>
	
		<line fill="none" stroke="#231F20" stroke-width="7" stroke-linecap="round" stroke-linejoin="round" stroke-miterlimit="10" x1="38.1" y1="76.8" x2="38.1" y2="346.8"/>
	
		<line fill="none" stroke="#231F20" stroke-width="7" stroke-linecap="round" stroke-linejoin="round" stroke-miterlimit="10" x1="15.6" y1="324.3" x2="507.8" y2="324.3"/>
</g>
<g>
	<text transform="matrix(1 0 0 1 386.6054 249.5432)"><tspan x="0" y="0" fill="#231F20" font-family="'PermanentMarker'" font-size="30.74px">months spent</tspan><tspan x="23.5" y="30" fill="#231F20" font-family="'PermanentMarker'" font-size="30.74px">exercising</tspan></text>
</g>
<text transform="matrix(1 0 0 1 10.6393 63.8175)" fill="#BE1E2D" font-family="'PermanentMarker'" font-size="30.74px">difficulty</text>
<path fill="none" stroke="#BE1E2D" stroke-width="7" stroke-linecap="round" stroke-linejoin="round" stroke-miterlimit="10" d="
	M48.4,117c6.1,21.4,15.6,41.8,28.1,60.2c39,57.7,104.8,92.9,172.6,109s138.2,15.3,207.9,14.3"/>
<text transform="matrix(1 0 0 1 10.6393 31.969)" fill="#009444" font-family="'PermanentMarker'" font-size="30.74px">reward</text>
<path fill="none" stroke="#009444" stroke-width="7" stroke-linecap="round" stroke-linejoin="round" stroke-miterlimit="10" d="
	M50.2,312.2C92.9,244.4,153.4,188,224,150.2S375,93.1,455.1,95"/>
<g>
	<path fill="none" stroke="#231F20" stroke-width="7" stroke-linecap="round" stroke-linejoin="round" stroke-miterlimit="10" d="
		M84.1,125c0-3.3,0-6.5,0-9.8"/>
	<path fill="none" stroke="#231F20" stroke-width="7" stroke-linecap="round" stroke-linejoin="round" stroke-miterlimit="10" d="
		M84.1,142.4c0-2.8,0-5.6,0-8.4"/>
	<path fill="none" stroke="#231F20" stroke-width="7" stroke-linecap="round" stroke-linejoin="round" stroke-miterlimit="10" d="
		M84.1,160.5c0-3,0-6,0-9.1"/>
	<path fill="none" stroke="#231F20" stroke-width="7" stroke-linecap="round" stroke-linejoin="round" stroke-miterlimit="10" d="
		M84.1,177.9c0-2.6,0-5.1,0-7.7"/>
	<path fill="none" stroke="#231F20" stroke-width="7" stroke-linecap="round" stroke-linejoin="round" stroke-miterlimit="10" d="
		M84.1,198.2c0-3.5,0-7,0-10.5"/>
	<path fill="none" stroke="#231F20" stroke-width="7" stroke-linecap="round" stroke-linejoin="round" stroke-miterlimit="10" d="
		M84.1,218.3c0-3.7,0-7.4,0-11.1"/>
	<path fill="none" stroke="#231F20" stroke-width="7" stroke-linecap="round" stroke-linejoin="round" stroke-miterlimit="10" d="
		M84.1,236.4c0-2.8,0-5.6,0-8.4"/>
	<path fill="none" stroke="#231F20" stroke-width="7" stroke-linecap="round" stroke-linejoin="round" stroke-miterlimit="10" d="
		M84.1,255.3c0-3.3,0-6.5,0-9.8"/>
	<path fill="none" stroke="#231F20" stroke-width="7" stroke-linecap="round" stroke-linejoin="round" stroke-miterlimit="10" d="
		M84.1,273.4c0-3,0-6,0-9.1"/>
	<path fill="none" stroke="#231F20" stroke-width="7" stroke-linecap="round" stroke-linejoin="round" stroke-miterlimit="10" d="
		M84.1,292.9c0-3.5,0-7,0-10.5"/>
	<path fill="none" stroke="#231F20" stroke-width="7" stroke-linecap="round" stroke-linejoin="round" stroke-miterlimit="10" d="
		M84.1,311c0-3,0-6,0-9.1"/>
	<path fill="none" stroke="#231F20" stroke-width="7" stroke-linecap="round" stroke-linejoin="round" stroke-miterlimit="10" d="
		M84.1,330.7c0-3.6,0-7.3,0-10.9"/>
</g>
<g>
	<path fill="none" stroke="#231F20" stroke-width="7" stroke-linecap="round" stroke-linejoin="round" stroke-miterlimit="10" d="
		M83.3,350.6c2.2,5.2-0.5,11.1-3.8,15.6s-7.2,9.1-7.7,14.7c-0.8,8.6,7.4,15.9,15.8,17.4c8.5,1.5,17.1-1.4,25.2-4.1
		c8.4-2.9,16.9-5.7,25.3-8.6"/>
	<path fill="none" stroke="#231F20" stroke-width="7" stroke-linecap="round" stroke-linejoin="round" stroke-miterlimit="10" d="
		M80.6,352c1.4-1.7,2.8-3.3,4.2-5c1,1.4,2,2.8,3,4.2"/>
	<text transform="matrix(1 0 0 1 150.0692 375.821)"><tspan x="0" y="0" fill="#231F20" font-family="'PermanentMarker'" font-size="30.74px">my usual</tspan><tspan x="0" y="30" fill="#231F20" font-family="'PermanentMarker'" font-size="30.74px">stopping point</tspan></text>
</g>
</svg>
