<?xml version="1.0" encoding="utf-8"?>
<!-- Generator: Adobe Illustrator 18.0.0, SVG Export Plug-In . SVG Version: 6.00 Build 0)  -->
<!DOCTYPE svg PUBLIC "-//W3C//DTD SVG 1.1//EN" "http://www.w3.org/Graphics/SVG/1.1/DTD/svg11.dtd">
<svg version="1.1" id="Layer_1" xmlns="http://www.w3.org/2000/svg" xmlns:xlink="http://www.w3.org/1999/xlink" x="0px" y="0px"
	 viewBox="0 0 410 420" enable-background="new 0 0 410 420" xml:space="preserve">
<path fill="none" stroke="#FFFFFF" stroke-width="120" stroke-linejoin="bevel" stroke-miterlimit="10" d="M31.4,4.5
	C29.8,24.7,16.8,41.9,10.2,61s-3.4,45.5,15.6,52.2c10.5,3.7,22.4-0.3,31.3-7c8.9-6.7,15.4-16,22.4-24.6c26.2-32.3,60.7-57.7,99.4-73
	c1.1,27.7,2.1,55.4,3.2,83.1c0.2,5.8,0.6,12,4.1,16.6c5.6,7.3,17.1,7.3,25.1,2.6s13.3-12.6,18.7-19.9c18.8-25.5,42.6-47.3,69.5-64
	c13.7-8.5,33.2-15,44.5-3.4c9.6,9.9,6.1,26.1,1.9,39.3c-14.1,44.4-28.5,89.4-52.9,129.1c-48.5,78.9-137.3,131.6-229.8,136.5
	C50.1,261.9,37,195.3,24,128.8c7.7-9.2,24.1-3.9,29.7,6.8c5.6,10.6,3.7,23.4,1.7,35.2C42.9,242.9,30.6,315,18.2,387.1
	c66.7-0.1,133.4-0.3,200.2-0.4c62.7-0.1,127-0.5,185.7-22.6"/>
<g>
	
		<line fill="none" stroke="#010101" stroke-width="7" stroke-linecap="round" stroke-linejoin="round" stroke-miterlimit="10" x1="38.6" y1="65.6" x2="38.6" y2="380"/>
	
		<line fill="none" stroke="#010101" stroke-width="7" stroke-linecap="round" stroke-linejoin="round" stroke-miterlimit="10" x1="377.7" y1="357.5" x2="16.1" y2="357.5"/>
	
		<polyline fill="none" stroke="#010101" stroke-width="7" stroke-linecap="round" stroke-linejoin="round" stroke-miterlimit="10" points="
		16.1,87.6 38.6,65.6 61.1,87.6 	"/>
	
		<polyline fill="none" stroke="#010101" stroke-width="7" stroke-linecap="round" stroke-linejoin="round" stroke-miterlimit="10" points="
		355.7,335 377.7,357.5 355.7,380 	"/>
</g>
<text transform="matrix(1 0 0 1 2.0097 415.3077)" fill="#010101" font-family="'PermanentMarker'" font-size="31">attractiveness of partner</text>
<text transform="matrix(1 0 0 1 10.0708 56.2899)" fill="#DA1C5C" font-family="'PermanentMarker'" font-size="31">expected enjoyment of sex</text>
<path fill="none" stroke="#DA1C5C" stroke-width="7" stroke-linecap="round" stroke-linejoin="round" stroke-miterlimit="10" d="
	M48.4,345.2c67.9-6.4,133.7-34.2,185.6-78.5s89.7-104.8,106.7-170.9"/>
<g>
	<text transform="matrix(1 0 0 1 10.0698 24.9185)" fill="#F15A29" font-family="'PermanentMarker'" font-size="31">actual enjoyment of sex</text>
</g>
<path fill="none" stroke="#F15A29" stroke-width="7" stroke-linecap="round" stroke-linejoin="round" stroke-miterlimit="10" d="
	M48.2,117.6c108.5-7.4,217.5-7.5,326.1-0.3"/>
</svg>
