<?xml version="1.0" encoding="utf-8"?>
<!-- Generator: Adobe Illustrator 18.0.0, SVG Export Plug-In . SVG Version: 6.00 Build 0)  -->
<!DOCTYPE svg PUBLIC "-//W3C//DTD SVG 1.1//EN" "http://www.w3.org/Graphics/SVG/1.1/DTD/svg11.dtd">
<svg version="1.1" id="Layer_1" xmlns="http://www.w3.org/2000/svg" xmlns:xlink="http://www.w3.org/1999/xlink" x="0px" y="0px"
	 viewBox="0 0 401 541.6" enable-background="new 0 0 401 541.6" xml:space="preserve">
<path fill="none" stroke="#FFFFFF" stroke-width="120" stroke-linejoin="bevel" stroke-miterlimit="10" d="M24.3-7.1
	C14.7,17.7,5.1,42.5-4.5,67.3c15.7,9.9,35.3-3.6,48.8-16.4c19.5-18.4,39.1-36.8,58.6-55.2c-4.6,23.7-9.2,47.4-13.7,71.1
	C130,66.6,162.5,34,189.9,3.7c-4.4,14.2-8.8,29.1-6.1,43.8c2.7,14.6,15,28.7,29.8,27.9c18.1-0.9,28.1-20.8,35.5-37.4
	S270.3,2.5,288,6.3c11.5,2.4,19,14.3,20.2,25.9c1.2,11.6-2.4,23.2-6,34.3c8.3,8.6,23.5,4.1,31.5-4.7s11.8-20.7,18.9-30.3
	s20.1-17.2,30.7-11.7c4,25.7-16.3,48.2-35.3,65.9c-39.8,37.1-81.6,73.6-109.4,120.4s-39.4,107.2-14.8,155.7
	c22-26.3,43.9-52.7,65.9-79c-2.1,13.7-4.3,27.7-1.9,41.4c2.4,13.7,10.1,27.2,22.8,32.8c7.3,3.2,15.9,3.7,22.3,8.6
	c7.6,5.8,9.9,16.2,11.6,25.6c8.8,48.6,17.6,97.1,26.4,145.7c-9.6,5.6-22.6,1.1-30-7.2c-7.4-8.3-10.6-19.4-13.6-30.2
	c-9.1-32.8-18.2-65.5-27.4-98.3c-20.7,12.6-33.3,37.5-31.2,61.6c1.4,15.8,8.4,30.9,8.1,46.8c-0.3,15.9-13,33.6-28.5,30.2
	c-9.4-2.1-15.7-11.1-18.9-20.2c-5-14.3-4.6-29.8-4.6-45c0-15.1-0.7-30.9-7.5-44.4c-6.8-13.5-21.4-24.3-36.3-22
	c-0.3,49.1-11.2,98.1-31.9,142.7c-30.9-2.5-61.6-6.9-91.9-13.3c-16-3.4-35.3-10.9-36.6-27.2c-1-12.5,10.3-23.1,22.3-26.8
	s24.9-2.3,37.5-2.8c14-0.6,28.4-3.9,39.2-12.8c10.8-8.9,17.1-24.2,12.2-37.3c-6.5-17.7-28.7-23.7-47.5-23.4
	c-23.6,0.3-47,6.5-67.7,17.9c-5.1-15.9-10.2-32.5-8.5-49.1c1.7-16.6,12.2-33.6,28.5-37.5c15.9-3.8,31.7,5.4,46.4,12.6
	c15.5,7.6,33,13.4,49.8,9.3c16.7-4.1,31.2-21.3,26.7-37.9c-4-14.8-20.6-22.8-35.8-23.5c-15.3-0.7-30.3,3.9-45.5,5.5
	c-15.2,1.5-32.4-1-42.2-12.7c-12.7-15.1-7.8-37.6-3.8-57c11.5-55.7,9.5-114.1-5.7-168.9"/>
<g>
	<g>
		
			<line fill="none" stroke="#000000" stroke-width="7" stroke-linecap="round" stroke-linejoin="round" stroke-miterlimit="10" x1="33.4" y1="79.7" x2="33.4" y2="428.4"/>
		
			<line fill="none" stroke="#000000" stroke-width="7" stroke-linecap="round" stroke-linejoin="round" stroke-miterlimit="10" x1="359" y1="406" x2="10.3" y2="406"/>
	</g>
	<g>
		
			<polyline fill="none" stroke="#000000" stroke-width="7" stroke-linecap="round" stroke-linejoin="round" stroke-miterlimit="10" points="
			337,383.5 359,406 337,428.5 		"/>
	</g>
	<g>
		
			<polyline fill="none" stroke="#000000" stroke-width="7" stroke-linecap="round" stroke-linejoin="round" stroke-miterlimit="10" points="
			10.9,101.7 33.4,79.7 55.9,101.7 		"/>
	</g>
</g>
<text transform="matrix(1 0 0 1 3.6665 30.6851)"><tspan x="0" y="0" font-family="'PermanentMarker'" font-size="30.74">how long i’m willing to</tspan><tspan x="0" y="36.9" font-family="'PermanentMarker'" font-size="30.74">wait for the elevator</tspan></text>
<path fill="none" stroke="#00A99D" stroke-width="7" stroke-linecap="round" stroke-miterlimit="10" d="M34.6,288.8
	c15.9,16.9,31.8,33.7,47.7,50.6c7.3,7.8,14.8,15.7,24.2,20.8s21.1,7.1,30.7,2.5c10.5-5,16.2-16.4,21.4-26.9
	C202.7,245.5,262.8,163,335.3,93.3"/>
<text transform="matrix(1 0 0 1 10.3154 459.6851)"><tspan x="0" y="0" font-family="'PermanentMarker'" font-size="30.74">how much of my life i </tspan><tspan x="0" y="36.9" font-family="'PermanentMarker'" font-size="30.74">have already invested in </tspan><tspan x="0" y="73.8" font-family="'PermanentMarker'" font-size="30.74">waiting for said elevator</tspan></text>
<g>
	<path fill="none" stroke="#000000" stroke-width="7" stroke-linecap="round" stroke-miterlimit="10" d="M136.6,355.7
		c-1.2,2-1.8,4.4-1.7,6.7c0,0.7,0.1,1.4,0.5,1.9c0.5,0.7,1.5,1,2.5,1.1c1.4,0.2,3,0.2,4.1-0.6c1-0.8,1.4-2.1,1.2-3.3
		c-0.2-1.2-1.1-2.2-2.2-2.8c-1.2-0.6-2.7-0.6-3.9-0.1"/>
	<text transform="matrix(1 0 0 1 108.2534 315.0183)"><tspan x="0" y="0" font-family="'PermanentMarker'" font-size="30.74">get out while </tspan><tspan x="0" y="30" font-family="'PermanentMarker'" font-size="30.74">you still can!</tspan></text>
</g>
</svg>
