<?xml version="1.0" encoding="utf-8"?>
<!-- Generator: Adobe Illustrator 18.0.0, SVG Export Plug-In . SVG Version: 6.00 Build 0)  -->
<!DOCTYPE svg PUBLIC "-//W3C//DTD SVG 1.1//EN" "http://www.w3.org/Graphics/SVG/1.1/DTD/svg11.dtd">
<svg version="1.1" id="Layer_1" xmlns="http://www.w3.org/2000/svg" xmlns:xlink="http://www.w3.org/1999/xlink" x="0px" y="0px"
	 viewBox="0 0 419.1 529.5" enable-background="new 0 0 419.1 529.5" xml:space="preserve">
<path fill="none" stroke="#FFFFFF" stroke-width="120" stroke-linejoin="bevel" stroke-miterlimit="10" d="M38.6-7.6
	C23.2,13,7.8,33.6-7.6,54.2c-5.6,7.5-11.5,15.9-10.4,25.2c1.6,13.7,18.4,21.2,31.8,18.1s23.9-13.2,33.6-23
	C82.8,39.1,118.2,3.8,153.5-31.6c12.5,11.4,6.4,31.8-0.2,47.4c-6.6,15.6-11.7,36.7,1.8,46.9c12.1,9.3,29.4,1.9,42.7-5.7
	c24.4-13.9,48.8-27.8,73.2-41.7c6.6,15.6,1,33.4-1.6,50.2c-2.6,16.8,0,37.6,15.4,44.8c10.5,4.9,23,1.3,33-4.4s19.1-13.3,29.9-17.2
	c10.8-3.9,24.8-3,31.7,6.2c5.6,7.4,4.9,18.1,0.7,26.4s-11.2,14.7-18.1,20.9C262.5,231,155.3,311.1,41.9,381.2
	c-4.7,2.9-10.2,5.9-15.3,4.1c-6.4-2.2-8.5-10.1-9.4-16.9C2.6,263.1,18.7,156.2,34.8,51.1c2.7,138.1,5.5,276.2,8.2,414.3
	c46-20.5,87.7-50.6,121.6-87.9c39.5-43.5,71.2-98.7,125.5-121.4c-50.6,56.8-101.2,113.6-151.9,170.4c-3.3,3.7-6.7,8.1-5.8,12.9
	c1.3,6.9,10.2,8.9,17.3,9.3c59.1,3.4,118.1,6.7,177.2,10.1c21.2,1.2,43,2.6,62.3,11.6c19.2,9,35.6,27.6,35.4,48.8
	c-20.4,11.9-45.9,7.2-69.2,3.2c-76.2-13-154.4-14.3-231-3.7c84.7-77.2,201.3-118.2,315.7-111"/>
<g>
	
		<line fill="none" stroke="#000000" stroke-width="7" stroke-linecap="round" stroke-linejoin="round" stroke-miterlimit="10" x1="35.2" y1="76.5" x2="35.2" y2="455.8"/>
	
		<line fill="none" stroke="#000000" stroke-width="7" stroke-linecap="round" stroke-linejoin="round" stroke-miterlimit="10" x1="12.7" y1="431.3" x2="401.2" y2="431.3"/>
	
		<polyline fill="none" stroke="#000000" stroke-width="7" stroke-linecap="round" stroke-linejoin="round" stroke-miterlimit="10" points="
		379.2,408.8 401.2,431.3 379.2,453.8 	"/>
	
		<polyline fill="none" stroke="#000000" stroke-width="7" stroke-linecap="round" stroke-linejoin="round" stroke-miterlimit="10" points="
		12.7,98.5 35.2,76.5 57.7,98.5 	"/>
</g>
<text transform="matrix(1 0 0 1 106.3109 485.4747)" fill="#497775" font-family="'PermanentMarker'" font-size="31">sense of self worth</text>
<g>
	<text transform="matrix(1 0 0 1 4.0902 62.4989)" fill="#497775" font-family="'PermanentMarker'" font-size="31">image of own body</text>
</g>
<path fill="none" stroke="#497775" stroke-width="7" stroke-linecap="round" stroke-linejoin="round" stroke-miterlimit="10" d="
	M51.3,417.7c70.1-1.2,139.6-38.6,194.1-104.4s93.5-159.5,108.9-261.5"/>
<g>
	<text transform="matrix(1 0 0 1 102.7251 518.9665)" fill="#FCD046" font-family="'PermanentMarker'" font-size="31">esteem for someone</text>
</g>
<text transform="matrix(1 0 0 1 4.0902 31.0024)" fill="#FCD046" font-family="'PermanentMarker'" font-size="31">image of their body</text>
<line fill="none" stroke="#FCD046" stroke-width="7" stroke-linecap="round" stroke-linejoin="round" stroke-miterlimit="10" x1="52.3" y1="408.8" x2="389.5" y2="71.6"/>
</svg>
