<?xml version="1.0" encoding="utf-8"?>
<!-- Generator: Adobe Illustrator 19.2.0, SVG Export Plug-In . SVG Version: 6.00 Build 0)  -->
<svg version="1.1" id="Layer_1" xmlns="http://www.w3.org/2000/svg" xmlns:xlink="http://www.w3.org/1999/xlink" x="0px" y="0px"
	 width="842.9px" height="396.3px" viewBox="0 0 842.9 396.3" enable-background="new 0 0 842.9 396.3" xml:space="preserve">
<path fill="none" stroke="#FFFFFF" stroke-width="120" stroke-linejoin="bevel" stroke-miterlimit="10" d="M92.1,34.7
	c-4.3-11.4,9.6-24.6,20.8-19.8c17.3,7.5,12.8,39.8,31,44.6c12.1,3.2,22.2-9.5,27.7-20.8s12.4-24.9,24.9-25.7
	c13.7-0.8,22.3,14.4,26.4,27.6s9.4,28.8,22.7,32.1c16.7,4.1,29.3-14.5,36.5-30.1c7.2-15.6,20-34.1,36.6-29.8c15.9,4.1,19,25,19,41.4
	c9.3,0.3,18.6,0.6,28,1c3.9,0.1,7.9,0.3,11.7,1c20.6,3.7,36.2,25.3,33.3,46c-2.9,20.7-36.6,17.2-57.5,15
	c18.1,2.9,47.4,33.6,57.5,48.9c9.9-13,19.8-26,29.7-39.1c10.2,21.4,20.3,42.8,30.5,64.2c-11.5,2.2-23.3-0.5-34.9-2.1
	c-11.6-1.6-24.2-2-34.2,4.1c-10,6.1-15.5,20.8-8.3,30c10.5-3.9,21.4-7.9,32.5-6.8c11.1,1.1,22.5,8.8,23.8,19.9
	c1.6,13.6-11.3,24-22.7,31.5c-8.1,5.3-16.2,10.6-24.4,16c-24.5,16-48.9,32.1-73.4,48.1c-5.2-4.4-10.5-8.9-15.7-13.3
	c-11.1,19.2-22.3,38.3-33.4,57.5c-3.6-27.4-7.3-54.9-10.9-82.3c-23,40.6-46.1,81.2-69.1,121.8c-8-21.5-15.9-43-23.9-64.5
	c-2.7-7.2-5.4-14.6-10-20.8c-4.7-6.2-11-10.9-17.2-15.6c-16.7-12.4-33.4-24.8-50-37.1c-12.3-9.1-24.8-18.5-33.3-31.2
	c-8.5-12.7-12.2-29.7-5.5-43.5c30,8.1,59.9,16.2,89.9,24.3c0.4-23.8-25.2-41.2-49-41.1s-45.4,12.7-65.8,24.9
	c-13.3-5.2-12.6-25.9-2.3-35.8s25.3-12.2,39.1-15.8s28.7-10.1,33.6-23.5c5.6-15.3-4.6-32.3-1.8-48.3c4.3-23.7,32.9-33,56.8-36.7
	c86.6-13.4,174.5-15,262.2-16.7c36.6-0.7,73.2-1.4,109.8-2.1c-7.5,3.1-4.2,16.2,3.8,17.7c7.9,1.5,15.4-5.2,18.4-12.7
	c3-7.5,2.9-15.8,4.3-23.8c1.4-8,5.1-16.4,12.5-19.6c14.8-6.5,27.9,11,39.9,21.8c19.6,17.5,48.4,19.1,74.7,19.8
	c7.4,0.2,14.7,0.4,22.1,0.6c24.9,0.7,49.7,1.3,74.6,2c-9.9,32.2-35.5,59.2-67.2,70.8c10.2-10.5,30.4-3.8,35.4,10s-2.9,29.7-15,37.9
	c-19.4,13-50.4,12.8-58.7,34.7c-4.3,11.4,1.1,25.7,12,31.3c10.9,5.6,25.7,1.8,32.4-8.4c4.1-6.2,5.3-13.9,8.6-20.6
	c3.3-6.7,10.2-12.9,17.4-11c8.6,2.2,10.9,13.5,17.6,19.3c8.2,7.1,21,4.8,30.7,9.8c13.4,6.9,15.9,26.7,7.4,39.1
	c-8.5,12.4-24.7,17.6-39.7,16.8s-29.2-6.6-43.1-12.4c12.8,10.9,3.8,31.7-5.9,45.5c-5.5,7.9-11.1,15.8-16.6,23.6
	c-1.7,2.4-3.4,4.9-5.1,7.3c-12.7,18.1-25.5,36.3-38.2,54.4c9.9-33.4-3.2-72.3-31.4-92.8c-6.7,39.2-13.4,78.4-20.1,117.6
	c-5-19.8-10-39.6-15-59.4c-1.5-6.1-3.3-12.5-7.9-16.8c-11-10.2-30.5,0.3-34.3,14.8c-3.8,14.5,2.6,29.5,8.8,43.1
	c-5.3-25.7-26.1-47.5-51.5-54c-12.6-3.2-27.4-3.6-35.9-13.5c-8.7-10.2-6.4-25.6-2.5-38.4c3.9-12.8,8.9-26.7,4.1-39.2
	c-4.8-12.5-25.3-18.2-31.1-6.1c4.2-55.2,8.3-110.4,12.5-165.5c1.2-15.4,6.9-35.4,22.3-35.6c7.4-0.1,13.7,4.9,20.5,7.8
	c13.8,5.9,30.1,3,43.3-4c13.3-7,37.3-18.8,48-29.3"/>
<g id="Arrow_right">
</g>
<g>
	<text transform="matrix(1 0 0 1 500.7617 31.5232)"><tspan x="0" y="0" font-family="'PermanentMarker'" font-size="30.74px">positive feeling of</tspan><tspan x="-8.2" y="30" font-family="'PermanentMarker'" font-size="30.74px">wanting to improve</tspan></text>
	<path fill="none" stroke="#F09B36" stroke-width="7" stroke-linecap="round" stroke-linejoin="round" stroke-miterlimit="10" d="
		M477.4,48.9c-7.3,3.1-13.6,8.7-17.4,15.7s-5.2,15.3-3.9,23.1"/>
	<path fill="none" stroke="#F09B36" stroke-width="7" stroke-linecap="round" stroke-linejoin="round" stroke-miterlimit="10" d="
		M452.6,87.8c1,1.6,2,3.2,3.1,4.8c0.8-1.4,1.5-2.9,2.3-4.3"/>
	<path fill="none" stroke="#F09B36" stroke-width="7" stroke-linecap="round" stroke-linejoin="round" stroke-miterlimit="10" d="
		M451.9,162.6c-2.8,16.5-2,33.7,2.3,49.9"/>
	<path fill="none" stroke="#F09B36" stroke-width="7" stroke-linecap="round" stroke-linejoin="round" stroke-miterlimit="10" d="
		M450.2,211.8c1.7,1.4,3.5,2.9,5.2,4.3c0.5-2.4,1.1-4.8,1.6-7.3"/>
	<path fill="none" stroke="#F09B36" stroke-width="7" stroke-linecap="round" stroke-linejoin="round" stroke-miterlimit="10" d="
		M468.5,282.9c2,12.7,8.3,24.6,17.6,33.4s21.6,14.4,34.4,15.6"/>
	<path fill="none" stroke="#F09B36" stroke-width="7" stroke-linecap="round" stroke-linejoin="round" stroke-miterlimit="10" d="
		M520.8,327.4c1.8,1.6,3.6,3.1,5.3,4.7c-1.8,1.6-3.5,3.2-5.3,4.9"/>
	<text transform="matrix(1 0 0 1 538.3088 321.7281)"><tspan x="0" y="0" font-family="'PermanentMarker'" font-size="30.74px">even more</tspan><tspan x="18.8" y="30" font-family="'PermanentMarker'" font-size="30.74px">positive</tspan><tspan x="14.4" y="60" font-family="'PermanentMarker'" font-size="30.74px">feelings</tspan></text>
	<path fill="none" stroke="#F09B36" stroke-width="7" stroke-linecap="round" stroke-linejoin="round" stroke-miterlimit="10" d="
		M701.4,322.8c12.9-4.2,24.3-12.9,31.7-24.2c7.5-11.3,11-25.1,9.9-38.7"/>
	<path fill="none" stroke="#F09B36" stroke-width="7" stroke-linecap="round" stroke-linejoin="round" stroke-miterlimit="10" d="
		M739.3,261.2c1.4-1.7,2.8-3.4,4.2-5c0.9,1.3,1.8,2.5,2.7,3.8"/>
	<text transform="matrix(1 0 0 1 692.311 200.4463)"><tspan x="0" y="0" font-family="'PermanentMarker'" font-size="30.74px">calmly</tspan><tspan x="-30" y="30" font-family="'PermanentMarker'" font-size="30.74px">want more</tspan></text>
	<path fill="none" stroke="#F09B36" stroke-width="7" stroke-linecap="round" stroke-linejoin="round" stroke-miterlimit="10" d="
		M743.2,159.5c3.5-24.8-0.9-50.7-12.4-73"/>
	<path fill="none" stroke="#F09B36" stroke-width="7" stroke-linecap="round" stroke-linejoin="round" stroke-miterlimit="10" d="
		M726.7,87.9c0.7-2.1,1.3-4.1,2-6.2c1.5,0.9,3.1,1.8,4.6,2.7"/>
</g>
<g>
	<g>
		<text transform="matrix(1 0 0 1 90.4581 31.5232)"><tspan x="0" y="0" font-family="'PermanentMarker'" font-size="30.74px">negative feeling of</tspan><tspan x="28.3" y="30" font-family="'PermanentMarker'" font-size="30.74px">hating yourself</tspan></text>
	</g>
	<path fill="none" stroke="#88206E" stroke-width="7" stroke-linecap="round" stroke-linejoin="round" stroke-miterlimit="10" d="
		M392.9,210.8c0.7,1.9,1.5,3.7,2.2,5.6c1-1.5,1.9-3,2.9-4.5"/>
	<path fill="none" stroke="#88206E" stroke-width="7" stroke-linecap="round" stroke-linejoin="round" stroke-miterlimit="10" d="
		M367.6,48.5c8.8,1.7,16.9,6.9,21.9,14.4c5,7.4,7,16.9,5.2,25.7"/>
	<path fill="none" stroke="#88206E" stroke-width="7" stroke-linecap="round" stroke-linejoin="round" stroke-miterlimit="10" d="
		M391.2,88.2c1.1,1.7,2.1,3.5,3.2,5.2c1.4-1.7,2.8-3.5,4.2-5.2"/>
	<text transform="matrix(1 0 0 1 354.4729 124.0196)"><tspan x="0" y="0" font-family="'PermanentMarker'" font-size="30.74px">desire to</tspan><tspan x="14.3" y="30" font-family="'PermanentMarker'" font-size="30.74px">change</tspan></text>
	<path fill="none" stroke="#88206E" stroke-width="7" stroke-linecap="round" stroke-linejoin="round" stroke-miterlimit="10" d="
		M397.5,163.9c1.6,16.2,0.9,32.6-2.1,48.6"/>
	<text transform="matrix(1 0 0 1 381.8507 243.1834)"><tspan x="0" y="0" font-family="'PermanentMarker'" font-size="30.74px">make</tspan><tspan x="-20.2" y="30" font-family="'PermanentMarker'" font-size="30.74px">changes</tspan></text>
	<path fill="none" stroke="#88206E" stroke-width="7" stroke-linecap="round" stroke-linejoin="round" stroke-miterlimit="10" d="
		M379.9,284.8c-11.3,26.6-37.7,46.2-66.5,49.3"/>
	<path fill="none" stroke="#88206E" stroke-width="7" stroke-linecap="round" stroke-linejoin="round" stroke-miterlimit="10" d="
		M313.4,330.4c-1.5,1.8-3,3.6-4.5,5.3c1.5,0.8,3,1.7,4.5,2.5"/>
	<text transform="matrix(1 0 0 1 174.2128 325.6206)"><tspan x="0" y="0" font-family="'PermanentMarker'" font-size="30.74px">no more</tspan><tspan x="-0.9" y="30" font-family="'PermanentMarker'" font-size="30.74px">negative</tspan><tspan x="7.7" y="60" font-family="'PermanentMarker'" font-size="30.74px">feeling</tspan></text>
	<path fill="none" stroke="#88206E" stroke-width="7" stroke-linecap="round" stroke-linejoin="round" stroke-miterlimit="10" d="
		M155.6,327.9c-14.1-4.7-26.5-14.1-35-26.3s-12.9-27.2-12.4-42"/>
	<path fill="none" stroke="#88206E" stroke-width="7" stroke-linecap="round" stroke-linejoin="round" stroke-miterlimit="10" d="
		M103.5,264c1.2-2.6,2.4-5.1,3.5-7.7c1.5,2.3,3,4.5,4.5,6.8"/>
	<text transform="matrix(1 0 0 1 44.3687 200.4464)"><tspan x="0" y="0" font-family="'PermanentMarker'" font-size="30.74px">slowly</tspan><tspan x="-30" y="30" font-family="'PermanentMarker'" font-size="30.74px">lose it all</tspan></text>
	<path fill="none" stroke="#88206E" stroke-width="7" stroke-linecap="round" stroke-linejoin="round" stroke-miterlimit="10" d="
		M95.9,158.1c-4.5-24.6,0.3-50.8,13.1-72.3"/>
	<path fill="none" stroke="#88206E" stroke-width="7" stroke-linecap="round" stroke-linejoin="round" stroke-miterlimit="10" d="
		M104.4,84.6c2.3-0.9,4.5-1.8,6.8-2.7c0.3,2.6,0.6,5.2,0.9,7.8"/>
</g>
<g id="Arrow_up">
</g>
</svg>
