<?xml version="1.0" encoding="utf-8"?>
<!-- Generator: Adobe Illustrator 19.2.0, SVG Export Plug-In . SVG Version: 6.00 Build 0)  -->
<svg version="1.1" id="Layer_1" xmlns="http://www.w3.org/2000/svg" xmlns:xlink="http://www.w3.org/1999/xlink" x="0px" y="0px"
	 width="555.1px" height="340.4px" viewBox="0 0 555.1 340.4" enable-background="new 0 0 555.1 340.4" xml:space="preserve">
<symbol  id="Arrow_right_1_" viewBox="-25.5 -26 29 52">
	
		<polyline fill="none" stroke="#231F20" stroke-width="7" stroke-linecap="round" stroke-linejoin="round" stroke-miterlimit="10" points="
		-22,22.5 0,0 -22,-22.5 	"/>
</symbol>
<symbol  id="Arrow_up" viewBox="-26 -25.5 52 29">
	
		<polyline fill="none" stroke="#231F20" stroke-width="7" stroke-linecap="round" stroke-linejoin="round" stroke-miterlimit="10" points="
		-22.5,-22 0,0 22.5,-22 	"/>
</symbol>
<path fill="none" stroke="#FFFFFF" stroke-width="120" stroke-linejoin="bevel" stroke-miterlimit="10" d="M35.7,12.4
	C30,35.2,24.2,58,18.5,80.8C48.7,62.8,73,35,86.8,2.7c-3.4,26.4-6.9,52.8-10.3,79.2c23.9-26.5,47.8-53,71.7-79.5
	c-5.4,26.8-10.8,53.7-16.2,80.5c20.5-16.4,38.3-36.1,52.4-58.2c-0.6,17.7-1.2,35.3-1.8,53c16.2-4.5,29.1-19.2,31.3-35.8
	c1.1-8.2,1.3-18.8,9-21.6c9-3.2,16.4,9.1,14.6,18.4s-8.5,17.2-10.2,26.6c-1.8,9.4,6,21.6,14.8,18.1c1.9-26.8,13-52.8,31-72.7
	c3.6,25.3,7.2,50.7,10.8,76c14.4-14.3,23-34.2,23.6-54.5c0.3-11,0.5-25.4,11.1-28.7c9.2-2.8,17.9,6.9,19.4,16.4
	c1.5,9.5-1.2,19.2-0.3,28.8s7.9,20.1,17.4,19.1c5.8-0.6,10.2-5.1,14.9-8.5c4.7-3.4,11.5-5.8,16-2.3c5.6,4.3,3.5,14,8.5,18.9
	c5.7,5.6,15.5,1.1,20.5-5.1c5-6.2,8.7-14.2,16.1-17.2c16-6.5,30.9,15.9,48.1,14.2c6.5-0.7,12.1-4.8,17.6-8.5s11.7-7.1,18.2-6.3
	s12.3,8.3,9.1,14.1c6.2,69.5,11.7,143.2-20,205.3c-4-34.7-7.9-69.4-11.9-104c-7.5,39.1-15,78.1-22.5,117.2
	c-18.3-22.4-27.3-52.1-24.7-80.9c-13.8,29.9-27.5,59.9-41.3,89.8c-0.6-15-14-28.3-29-28.9c-15-0.5-29.3,11.8-31,26.7
	c-0.6-10.3-1.1-20.5-1.7-30.8c-11.1,14.4-22.2,28.8-33.2,43.3c-7-48.5,9.9-99.9,44.3-134.8c-19.1,0.2-38.1,0.4-57.2,0.7
	c21.8-19.4,40-43,53.2-69.1c-9-5.7-20.6-7.1-30.6-3.7c11.7-10.4,23.4-20.8,35.1-31.2c-15,41.8-21.7,86.5-19.5,130.9
	c27.3-10.1,50.7-30.2,64.8-55.7c-1.6,8-3.2,16-4.8,24c13.7-18.4,27.5-36.7,41.2-55.1c-3.4,10.2,3.7,22.5,14.2,24.6
	c-5.3-14.3-18.1-25.6-32.9-29.1c-14.8-3.5-31.3,1-42.4,11.4c-1.4-13.3-2.8-26.6-4.2-39.9c-10.7,31.4-21.4,62.7-32.1,94.1
	c-4.2-12.1-20-17.3-32-12.7c-11.9,4.6-19.8,16.6-22.8,29.1c-3,12.4-2,25.5-0.9,38.2c-10-9.2-20-18.5-30-27.7
	c-10.8,17-16.6,37-16.6,57.1c-1.6-7.5-3.3-15.1-7.7-21.4s-12.3-10.7-19.6-8.7c-9.8,2.6-13.7,14.2-16,24.1
	c-4.1,17.6-8.3,35.1-12.4,52.7c9.5-28,18.9-56,28.4-84.1c-14.3,38.6-17,81.4-7.6,121.5c22.8-20.7,36.3-51.3,36.2-82
	c-5.8-7.9-20.1-3.7-23.1,5.5c-3.1,9.3,2.7,19.6,10.8,25c8.2,5.4,18.2,6.9,27.9,8.3c1.5,0.2,3,0.4,4.5,0.6c9.6,1.4,19.4,2.7,28.8,0.3
	c9.4-2.4,18.2-9.6,19.5-19.1s-7.9-20-17.3-17.4c0.3,19.7,3.8,39.4,10.3,58c2.8,8.1,7.6,17,16,18.3c8.1,1.2,15.6-5.9,17.6-13.9
	s0.2-16.3-1.6-24.3c0.6,14.7-16.6,25-31.2,22.9c-14.6-2.1-26.5-12.3-37.5-22c-16.8-14.9-33.7-29.9-50.5-44.8
	c-8.8-7.8-17.7-15.7-23.8-25.8s-9.1-22.6-5.1-33.7c4-11,16.3-19.3,27.6-16.2c-8.7-20.4-11.6-43.2-8.3-65.1c4.7-1,9.5-2,14.2-3
	c-5.5-6-11.1-12-16.6-18c-10.7,61.5-21.5,122.9-32.2,184.4c-5.1-6.3-4.4-15.6-2.1-23.4c2.3-7.8,6-15.4,6.1-23.5
	c0.1-8.1-5.1-17.2-13.3-17.7c-9.8-0.5-15.5,10.7-18.7,20c-5.9,17.6-11.8,35.2-17.7,52.8c4.2-32,8.4-64,12.6-96.1
	c-32.7,15.1-56,48.6-58.9,84.5c-2.3-27-1-54.4,3.8-81.1c-18.6,26.4-31.1,57.1-36.3,89c-8.2,6-21-0.3-24.3-9.9s0.7-20.4,6.7-28.5
	s14.1-14.6,20.7-22.4c6.6-7.8,11.8-17.6,10.4-27.7c-1.6-12.1-12.1-21-16.9-32.2c-8.9-21.1,3.5-44.6,15.5-64
	c-12.8-3.2-25.6-6.3-38.5-9.5"/>
<g id="Arrow_right">
</g>
<g>
	
		<line fill="none" stroke="#231F20" stroke-width="7" stroke-linecap="round" stroke-linejoin="round" stroke-miterlimit="10" x1="43.6" y1="83.4" x2="43.6" y2="285.7"/>
	
		<use xlink:href="#Arrow_up"  width="52" height="29" x="-26" y="-25.5" transform="matrix(1 0 0 -1 43.5932 83.4354)" overflow="visible"/>
	
		<line fill="none" stroke="#231F20" stroke-width="7" stroke-linecap="round" stroke-linejoin="round" stroke-miterlimit="10" x1="21.1" y1="263.2" x2="494.9" y2="263.2"/>
	
		<use xlink:href="#Arrow_right_1_"  width="29" height="52" x="-25.5" y="-26" transform="matrix(1 0 0 -1 494.9187 263.2372)" overflow="visible"/>
</g>
<text transform="matrix(1 0 0 1 451.0925 231.4174)" fill="#231F20" font-family="'PermanentMarker'" font-size="30.74px">time</text>
<text transform="matrix(1 0 0 1 17.0932 71.6698)" fill="#BE1E2D" font-family="'PermanentMarker'" font-size="30.74px">how good i was told it would feel</text>
<path fill="none" stroke="#BE1E2D" stroke-width="7" stroke-linecap="round" stroke-linejoin="round" stroke-miterlimit="10" d="
	M58.3,217.2h110.6"/>
<g>
	<path fill="none" stroke="#231F20" stroke-width="7" stroke-linecap="round" stroke-linejoin="round" stroke-miterlimit="10" d="
		M206.3,257.6c0,4.2,0,8.4,0,12.6"/>
	<path fill="none" stroke="#231F20" stroke-width="7" stroke-linecap="round" stroke-linejoin="round" stroke-miterlimit="10" d="
		M206.4,231.4c0,4.3,0,8.6,0,12.9"/>
	<path fill="none" stroke="#231F20" stroke-width="7" stroke-linecap="round" stroke-linejoin="round" stroke-miterlimit="10" d="
		M206.4,206.6c0,4.2,0,8.3,0,12.5"/>
	<path fill="none" stroke="#231F20" stroke-width="7" stroke-linecap="round" stroke-linejoin="round" stroke-miterlimit="10" d="
		M206.5,181.1c0,4.3,0,8.7,0,13"/>
	<path fill="none" stroke="#231F20" stroke-width="7" stroke-linecap="round" stroke-linejoin="round" stroke-miterlimit="10" d="
		M206.5,158.3c0,3.5,0,6.9,0,10.4"/>
	<path fill="none" stroke="#231F20" stroke-width="7" stroke-linecap="round" stroke-linejoin="round" stroke-miterlimit="10" d="
		M206.5,133.3c0,4.2,0,8.3,0,12.5"/>
	<path fill="none" stroke="#231F20" stroke-width="7" stroke-linecap="round" stroke-linejoin="round" stroke-miterlimit="10" d="
		M206.4,112.5c0,2.8,0,5.6,0,8.3"/>
	<path fill="none" stroke="#231F20" stroke-width="7" stroke-linecap="round" stroke-linejoin="round" stroke-miterlimit="10" d="
		M206.3,93.7c0,2.1,0,4.2,0,6.2"/>
</g>
<g>
	<path fill="none" stroke="#231F20" stroke-width="7" stroke-linecap="round" stroke-linejoin="round" stroke-miterlimit="10" d="
		M211.2,281.4c-1.3,1.6-2.6,3.1-3.9,4.7c1.7,1.5,3.3,2.9,5,4.4"/>
	<path fill="none" stroke="#231F20" stroke-width="7" stroke-linecap="round" stroke-linejoin="round" stroke-miterlimit="10" d="
		M210.2,285.9c37.2-0.3,74.4-0.6,111.6-0.9"/>
	<path fill="none" stroke="#231F20" stroke-width="7" stroke-linecap="round" stroke-linejoin="round" stroke-miterlimit="10" d="
		M322,281.2c1.7,1.4,3.4,2.7,5.1,4.1c-1.6,1.5-3.1,3.1-4.7,4.6"/>
</g>
<text transform="matrix(1 0 0 1 191.7393 319.2701)" fill="#231F20" font-family="'PermanentMarker'" font-size="30.74px">exercising</text>
<g>
	<path fill="none" stroke="#231F20" stroke-width="7" stroke-linecap="round" stroke-linejoin="round" stroke-miterlimit="10" d="
		M328,257.1c0.4,4.6,0.7,9.1,1.1,13.7"/>
	<path fill="none" stroke="#231F20" stroke-width="7" stroke-linecap="round" stroke-linejoin="round" stroke-miterlimit="10" d="
		M328.1,233.7c0,3-0.1,6-0.1,9"/>
	<path fill="none" stroke="#231F20" stroke-width="7" stroke-linecap="round" stroke-linejoin="round" stroke-miterlimit="10" d="
		M328.2,212.3c0,3,0,6-0.1,8.9"/>
	<path fill="none" stroke="#231F20" stroke-width="7" stroke-linecap="round" stroke-linejoin="round" stroke-miterlimit="10" d="
		M328.4,186.2c0,4.5,0,9.1-0.1,13.6"/>
	<path fill="none" stroke="#231F20" stroke-width="7" stroke-linecap="round" stroke-linejoin="round" stroke-miterlimit="10" d="
		M328.4,163.5c0,3.5,0,7,0,10.5"/>
	<path fill="none" stroke="#231F20" stroke-width="7" stroke-linecap="round" stroke-linejoin="round" stroke-miterlimit="10" d="
		M328.4,143.2c0,2.8,0,5.6,0,8.4"/>
	<path fill="none" stroke="#231F20" stroke-width="7" stroke-linecap="round" stroke-linejoin="round" stroke-miterlimit="10" d="
		M328.3,119.5c0,3.7,0.1,7.4,0.1,11.2"/>
	<path fill="none" stroke="#231F20" stroke-width="7" stroke-linecap="round" stroke-linejoin="round" stroke-miterlimit="10" d="
		M328,93.7c0.1,4.7,0.1,9.3,0.2,14"/>
</g>
<path fill="none" stroke="#BE1E2D" stroke-width="7" stroke-linecap="round" stroke-linejoin="round" stroke-miterlimit="10" d="
	M168.9,217.2c19.8,0,38.3,16.6,57.3,11.2c6.6-1.9,11.9-6.7,16.5-11.8c18.3-20.3,29.2-48,52.4-62.5c11.1-7,24.3-10.2,37.4-11.2
	c13.1-1,39.8-0.4,39.8-0.4h74.7"/>
<text transform="matrix(1 0 0 1 17.0932 39.9427)" fill="#009444" font-family="'PermanentMarker'" font-size="30.74px">how i actually feel</text>
<path fill="none" stroke="#009444" stroke-width="7" stroke-linecap="round" stroke-linejoin="round" stroke-miterlimit="10" d="
	M58.4,233.1c0,0,56.4-3.4,83.7,3.3c14.1,3.5,27.8,8.4,41.8,11.8c38.5,9.3,78.7,7.2,118.3,5c9.4-0.5,19.5-1.3,27-6.9
	c10.9-8.2,12.8-23.4,13.9-37c3.3-43,6.6-85.9,9.9-128.9c-0.5,18.9,14.9,35.3,32.6,42s37.2,5.9,56.1,5"/>
</svg>
