<?xml version="1.0" encoding="utf-8"?>
<!-- Generator: Adobe Illustrator 19.2.0, SVG Export Plug-In . SVG Version: 6.00 Build 0)  -->
<svg version="1.1" id="Layer_1" xmlns="http://www.w3.org/2000/svg" xmlns:xlink="http://www.w3.org/1999/xlink" x="0px" y="0px"
	 width="756.24px" height="513.82px" viewBox="0 0 756.24 513.82" enable-background="new 0 0 756.24 513.82" xml:space="preserve">
<path fill="none" stroke="#FFFFFF" stroke-width="120" stroke-linejoin="bevel" stroke-miterlimit="10" d="M36.47,11.02
	C26.53,36.84,16.59,62.66,6.65,88.48c40.93-33.17,81.85-66.34,122.78-99.52C93.39,36.55,57.34,84.13,21.3,131.72
	C86.99,78.99,152.69,26.27,218.38-26.46c-30.48,52.78-77.47,93.56-119.4,137.8S18.18,207.4,10.88,267.91
	c19.42,1.7,39.36-3.37,55.6-14.14C41.66,296.15,16.84,338.53-7.98,380.9c22.38-7.32,44.76-14.63,67.15-21.95
	c-5.25,15.54-10.5,31.07-15.75,46.61c36.87-28.86,67.84-65.22,90.5-106.2c-16.06,44.74-32.11,89.47-48.17,134.21
	c24.14-2.05,45.3-18.48,58.48-38.81c13.17-20.34,19.48-44.29,24.42-68.01c11.02-53.01,16.14-107.04,21.24-160.94
	c3.61-38.15,7.22-76.3,10.83-114.44c3.64,29.77,7.29,59.54,10.93,89.31c1.29,10.53,4.87,23.59,15.35,25.23
	c10.55,1.65,17.94-9.83,22.34-19.57c16.74-37.11,33.48-74.22,50.22-111.33c-9.41,53.81-18.82,107.63-28.23,161.44
	C319.79,124.53,376.41,58.1,439.75-1.15c-9.52,58.46-33.66,114.48-69.61,161.55c55.46-39.45,110.91-78.91,166.37-118.36
	c-8.44,33.06-16.87,66.12-25.31,99.18c29.05-34.69,58.09-69.38,87.14-104.06c-43.63,57.03-90.88,116.81-158.26,141.62
	c-30.57,11.26-63.4,14.49-95.25,21.34s-128.3,115.59-150.65,139.3c91.73-67.42,267.21-205.06,380.84-211.9
	c7.56-0.46,16.85,0.18,20.2,6.97c4.53,9.16-6.2,18.18-15.29,22.85c-76.85,39.37-153.71,78.75-230.56,118.12
	c114.03-51.05,234.38-87.96,357.42-109.61c-86.9,52.39-178.43,97.09-273.17,133.42c107.23-39.95,214.47-79.91,321.7-119.86
	c-81.45,73.11-172.16,135.9-269.26,186.39c51.73-14.82,103.47-29.63,155.2-44.45c11.06-3.17,23.43-6.23,33.63-0.91
	c12.77,6.66,16.27,24.3,11.52,37.9c-4.74,13.6-15.54,24.06-25.98,33.97c27.04-33.51,54.09-67.02,81.13-100.53
	c-7.01,40.11-14.03,80.22-21.04,120.33c4.73-2.85,9.46-5.7,14.19-8.56c-17.04,28.92-34.08,57.83-51.12,86.75
	c-4.57-24.66-9.26-49.7-20.41-72.16c-3.69-7.43-8.47-14.9-15.97-18.46c-15.8-7.5-34.83,7.48-38.25,24.63s3.68,34.46,10.63,50.51
	c-16.97-36.04-33.94-72.08-50.91-108.12c-19.25,49.09-38.49,98.18-57.74,147.27c-2.9-30.13-6.18-61.47-22.13-87.19
	s-48.61-43.81-76.93-33.13c-27.84,10.51-39.93,42.2-58.07,65.79c-15.93,20.72-38.98,36.63-64.78,40.76
	c-25.81,4.13-54.1-4.73-70.54-25.04c-14.07-17.38-18.42-40.72-30.44-59.58c-12.03-18.86-39.27-32.47-56.32-17.99
	c113.51-8.11,228.33,2.21,338.58,30.42c-78.93,63.71-182.17,96.51-283.4,90.04"/>
<line fill="none" stroke="#000000" stroke-width="7" stroke-linecap="round" stroke-linejoin="round" stroke-miterlimit="10" x1="27.14" y1="393.77" x2="735.81" y2="393.77"/>
<text transform="matrix(1 0 0 1 540.7725 442.9712)"><tspan x="0" y="0" font-family="'PermanentMarker'" font-size="30.74px">predictibility</tspan><tspan x="47.19" y="30" font-family="'PermanentMarker'" font-size="30.74px">of melo</tspan><tspan x="168.68" y="30" font-family="'PermanentMarker'" font-size="30.74px" letter-spacing="-1">d</tspan><tspan x="182.73" y="30" font-family="'PermanentMarker'" font-size="30.74px">y</tspan></text>
<polyline fill="none" stroke="#000000" stroke-width="7" stroke-linecap="round" stroke-linejoin="round" stroke-miterlimit="10" points="
	715.37,371.29 737.37,393.79 715.37,416.29 "/>
<line fill="none" stroke="#000000" stroke-width="7" stroke-linecap="round" stroke-linejoin="round" stroke-miterlimit="10" x1="49.64" y1="75.33" x2="49.64" y2="416.29"/>
<text transform="matrix(1 0 0 1 22.141 33.9288)"><tspan x="0" y="0" font-family="'PermanentMarker'" font-size="30.74px">enj</tspan><tspan x="49.8" y="0" font-family="'PermanentMarker'" font-size="30.74px" letter-spacing="-1">o</tspan><tspan x="67.9" y="0" font-family="'PermanentMarker'" font-size="30.74px">ya</tspan><tspan x="96.87" y="0" font-family="'PermanentMarker'" font-size="30.74px">bility</tspan><tspan x="0" y="30" font-family="'PermanentMarker'" font-size="30.74px">of </tspan><tspan x="44.7" y="30" font-family="'PermanentMarker'" font-size="30.74px">s</tspan><tspan x="58.36" y="30" font-family="'PermanentMarker'" font-size="30.74px">ong</tspan></text>
<polyline fill="none" stroke="#000000" stroke-width="7" stroke-linecap="round" stroke-linejoin="round" stroke-miterlimit="10" points="
	27.14,96.64 49.64,74.64 72.14,96.64 "/>
<path fill="none" stroke="#ED1C24" stroke-width="7" stroke-linecap="round" stroke-linejoin="round" stroke-miterlimit="10" d="
	M77.93,350.27c40.26,1.27,80.53,2.54,120.79,3.81c8.78,0.28,18.03,0.45,25.75-3.72c16.41-8.85,17.75-31.46,16.98-50.09
	c-1.24-29.72-2.48-59.44-3.72-89.16c-0.44-10.47-0.84-21.24,2.59-31.15s11.59-18.91,22-20.12c13.91-1.62,25.25,10.27,34.6,20.7
	C402.66,298.7,569.55,358.88,726.37,335.41"/>
<path fill="none" stroke="#000000" stroke-width="7" stroke-linecap="round" stroke-linejoin="round" stroke-miterlimit="10" d="
	M236.4,381.47c-0.53,8.21-1.06,16.43-1.59,24.64"/>
<text transform="matrix(1 0 0 1 209.1714 442.6668)"><tspan x="0" y="0" font-family="'PermanentMarker'" font-size="30.74px">indivi</tspan><tspan x="77.09" y="0" font-family="'PermanentMarker'" font-size="30.74px">d</tspan><tspan x="92.07" y="0" font-family="'PermanentMarker'" font-size="30.74px">u</tspan><tspan x="109.12" y="0" font-family="'PermanentMarker'" font-size="30.74px">al</tspan><tspan x="0" y="30" font-family="'PermanentMarker'" font-size="30.74px">d</tspan><tspan x="14.98" y="30" font-family="'PermanentMarker'" font-size="30.74px">ependant</tspan><tspan x="0" y="60" font-family="'PermanentMarker'" font-size="30.74px">c</tspan><tspan x="14.86" y="60" font-family="'PermanentMarker'" font-size="30.74px">u</tspan><tspan x="32.84" y="60" font-family="'PermanentMarker'" font-size="30.74px">t</tspan><tspan x="46.65" y="60" font-family="'PermanentMarker'" font-size="30.74px">off p</tspan><tspan x="121.46" y="60" font-family="'PermanentMarker'" font-size="30.74px" letter-spacing="-1">o</tspan><tspan x="139.56" y="60" font-family="'PermanentMarker'" font-size="30.74px">int</tspan></text>
<path fill="none" stroke="#000000" stroke-width="7" stroke-linecap="round" stroke-linejoin="round" stroke-miterlimit="10" d="
	M270.47,152.52c-4.14,5.91-8.28,11.83-12.41,17.74"/>
<path fill="none" stroke="#000000" stroke-width="7" stroke-linecap="round" stroke-linejoin="round" stroke-miterlimit="10" d="
	M256.16,152.34c4.71,5.14,9.42,10.29,14.13,15.43"/>
<path fill="none" stroke="#000000" stroke-width="7" stroke-linecap="round" stroke-linejoin="round" stroke-miterlimit="10" d="
	M262.66,140.63c-0.57-5.35-5.81-9.18-11.1-10.19c-5.29-1.01-10.71,0.08-16.06,0.66c-5.35,0.58-11.13,0.54-15.64-2.39
	c-8.62-5.58-8.09-19.27-1.62-27.25s16.7-11.67,26.41-15.01"/>
<text transform="matrix(1 0 0 1 249.3193 75.3277)"><tspan x="0" y="0" font-family="'PermanentMarker'" font-size="30.74px">p</tspan><tspan x="16.12" y="0" font-family="'PermanentMarker'" font-size="30.74px">e</tspan><tspan x="31.85" y="0" font-family="'PermanentMarker'" font-size="30.74px">r</tspan><tspan x="48.48" y="0" font-family="'PermanentMarker'" font-size="30.74px">s</tspan><tspan x="62.14" y="0" font-family="'PermanentMarker'" font-size="30.74px">onal </tspan><tspan x="144.45" y="0" font-family="'PermanentMarker'" font-size="30.74px">f</tspan><tspan x="158.14" y="0" font-family="'PermanentMarker'" font-size="30.74px" letter-spacing="-1">a</tspan><tspan x="174.77" y="0" font-family="'PermanentMarker'" font-size="30.74px">v</tspan><tspan x="188.76" y="0" font-family="'PermanentMarker'" font-size="30.74px">orite </tspan><tspan x="276.72" y="0" font-family="'PermanentMarker'" font-size="30.74px">s</tspan><tspan x="290.38" y="0" font-family="'PermanentMarker'" font-size="30.74px">ong</tspan></text>
<g>
	<path fill="none" stroke="#000000" stroke-width="7" stroke-linecap="round" stroke-linejoin="round" stroke-miterlimit="10" d="
		M460.14,258.58c11.73,0,23.45,0,35.18,0h136.29"/>
	<path fill="none" stroke="#000000" stroke-width="7" stroke-linecap="round" stroke-linejoin="round" stroke-miterlimit="10" d="
		M461.5,252.02c-2.21,2.4-4.43,4.8-6.64,7.2c2.9,2.21,5.81,4.41,8.71,6.62"/>
	<path fill="none" stroke="#000000" stroke-width="7" stroke-linecap="round" stroke-linejoin="round" stroke-miterlimit="10" d="
		M626.52,252.26c2.67,1.97,5.33,3.94,8,5.92c-3.12,3.23-6.23,6.45-9.35,9.68"/>
</g>
<text transform="matrix(1 0 0 1 451.9915 173.6758)"><tspan x="0" y="0" font-family="'PermanentMarker'" font-size="30.74px">safe zone of</tspan><tspan x="-65.68" y="30" font-family="'PermanentMarker'" font-size="30.74px">minimum enj</tspan><tspan x="125.63" y="30" font-family="'PermanentMarker'" font-size="30.74px" letter-spacing="-1">o</tspan><tspan x="143.73" y="30" font-family="'PermanentMarker'" font-size="30.74px">ya</tspan><tspan x="172.7" y="30" font-family="'PermanentMarker'" font-size="30.74px">bility</tspan><tspan x="-68.74" y="60" font-family="'PermanentMarker'" font-size="30.74px">for maximal </tspan><tspan x="131.58" y="60" font-family="'PermanentMarker'" font-size="30.74px">a</tspan><tspan x="148.51" y="60" font-family="'PermanentMarker'" font-size="30.74px">udien</tspan><tspan x="225" y="60" font-family="'PermanentMarker'" font-size="30.74px">c</tspan><tspan x="240.49" y="60" font-family="'PermanentMarker'" font-size="30.74px">e</tspan></text>
</svg>
