<?xml version="1.0" encoding="utf-8"?>
<!-- Generator: Adobe Illustrator 18.0.0, SVG Export Plug-In . SVG Version: 6.00 Build 0)  -->
<!DOCTYPE svg PUBLIC "-//W3C//DTD SVG 1.1//EN" "http://www.w3.org/Graphics/SVG/1.1/DTD/svg11.dtd">
<svg version="1.1" id="Layer_1" xmlns="http://www.w3.org/2000/svg" xmlns:xlink="http://www.w3.org/1999/xlink" x="0px" y="0px"
	 viewBox="0 0 610.5 478.5" enable-background="new 0 0 610.5 478.5" xml:space="preserve">
<path fill="none" stroke="#FFFFFF" stroke-width="120" stroke-linejoin="bevel" stroke-miterlimit="10" d="M116.5-3
	c-11.1,23.9-22.2,47.7-33.3,71.6C122.7,37,169.9,15.3,219.5,5.8c-26.8,52.5-60.7,101.3-100.6,144.7c16.9,1.5,33.7,2.9,50.6,4.4
	c-8.6,31.7-24.4,61.4-45.9,86.3C85,285.9,28.4,315.2-0.6,366.7c-0.4-18.4,0.5-37.5,8.8-53.9s25.9-29.4,44.1-27
	c20.5,2.8,33.7,22.6,44.1,40.5c22.6,38.8,45.2,77.6,67.8,116.4c128.2,12.2,257.4,14.5,385.9,7.1c17.2-1,38.4-5.2,43.3-21.7
	c3.7-12.6-5.3-26-16.9-32c-11.7-5.9-25.3-6.2-38.4-6.3c-88.4-0.7-176.8-1.5-265.1-2.2c-27.9-0.2-56.6-0.6-82.3-11.4
	c-25.7-10.8-48-34.5-48.3-62.4c-0.3-22.9,14.3-43.9,32.6-57.6c18.3-13.7,40.3-21.6,61.6-30c122-48,234.7-119.5,330-209.4
	c-12.3,47.6-52.2,82.2-90,113.6c-91,75.6-182.1,151.1-273.1,226.7c80.3-48.7,148.4-114.8,215.7-180.4
	c48.4-47.1,96.7-94.3,145.1-141.4C516.8,163.7,430,273,344.6,379.8c25.9,2,51.4-9.9,70.9-27.1c19.5-17.2,101.1-18.8,115-40.8
	c32.3-51.4,30.8-120.9,59.1-174.6c25-47.5,8.4-118.2,6.3-171.9"/>
<g>
	<text transform="matrix(1 0 0 1 19.6328 263.0234)"><tspan x="0" y="0" font-family="'PermanentMarker'" font-size="31">major </tspan><tspan x="-9.6" y="37.2" font-family="'PermanentMarker'" font-size="31">sources </tspan><tspan x="-14.2" y="74.4" font-family="'PermanentMarker'" font-size="31">of stress</tspan></text>
	
		<line fill="none" stroke="#000000" stroke-width="7" stroke-linecap="round" stroke-linejoin="round" stroke-miterlimit="10" x1="157.5" y1="137.4" x2="157.5" y2="471.5"/>
	
		<polyline fill="none" stroke="#000000" stroke-width="7" stroke-linecap="round" stroke-linejoin="round" stroke-miterlimit="10" points="
		135,159.4 157.5,137.4 180,159.4 	"/>
</g>
<g>
	<text transform="matrix(1 0 0 1 551.3225 412.5156)" font-family="'PermanentMarker'" font-size="31">age</text>
	
		<line fill="none" stroke="#000000" stroke-width="7" stroke-linecap="round" stroke-linejoin="round" stroke-miterlimit="10" x1="600.5" y1="449" x2="135" y2="449"/>
	
		<polyline fill="none" stroke="#000000" stroke-width="7" stroke-linecap="round" stroke-linejoin="round" stroke-miterlimit="10" points="
		578.5,426.5 600.5,449 578.5,471.5 	"/>
</g>
<g>
	<text transform="matrix(1 0 0 1 110.1846 125.6582)" fill="#3FA9F5" font-family="'PermanentMarker'" font-size="31">school</text>
	<path fill="none" stroke="#3FA9F5" stroke-width="6" stroke-linecap="round" stroke-linejoin="round" stroke-miterlimit="10" d="
		M163.6,443.2c13.9,0.8,26.5-9.1,33.6-21s10-25.8,13.8-39.2s8.9-27,19.3-36.3c15.9-14.2,40.7-14.5,60.3-6.1
		c19.6,8.4,35.3,23.8,50.2,39c15,15.2,30.2,30.9,49.5,40c17.9,8.5,38.1,10.7,57.8,12.8c42.8,4.6,85.7,9.2,128.5,13.7"/>
</g>
<g>
	<g>
		<text transform="matrix(1 0 0 1 110.1846 95.6582)" fill="#7AC943" font-family="'PermanentMarker'" font-size="31">money</text>
	</g>
	<path fill="none" stroke="#7AC943" stroke-width="6" stroke-linecap="round" stroke-linejoin="round" stroke-miterlimit="10" d="
		M194,447.5c22.7-6.9,36.3-29.7,46.6-51.1c18.3-38,33.1-77.8,44.1-118.6c3.6-13.3,6.9-27.1,14.9-38.4c14.1-19.9,40.4-28.1,64.8-26.7
		c24.3,1.4,47.4,11,69.9,20.4c27.4,11.5,54.8,23,82.2,34.5c23.7,9.9,47.4,19.9,71.1,29.8"/>
</g>
<g>
	<text transform="matrix(1 0 0 1 110.1846 63.7618)" fill="#FF1D25" font-family="'PermanentMarker'" font-size="31">love</text>
	<path fill="none" stroke="#FF1D25" stroke-width="6" stroke-linecap="round" stroke-linejoin="round" stroke-miterlimit="10" d="
		M239.1,445.2c28.5-27.3,46.5-63.3,60.7-99.6c15.3-38.9,26.7-79.3,45.2-116.8c15.4-31.2,36.6-57.8,62.6-80.9
		c26.4-23.5,56.3-43.2,87.6-59.5c30.5-15.9,62.8-28.9,96.1-37.3c4.5-1.1,8.9-2.2,13.4-3.1"/>
</g>
<g>
	<path fill="none" stroke="#FF931E" stroke-width="6" stroke-linecap="round" stroke-linejoin="round" stroke-miterlimit="10" d="
		M260.3,443.3c29.3-4.7,58.3-9.7,85.3-21.7c9-4,18-9,27-14c5-3,9-6,14-10c16-14,30-28,45-43c1-1,1-3,2-4c88-98,142-219,158.9-346.6"
		/>
	<text transform="matrix(1 0 0 1 110.1846 34.4987)" fill="#FF931E" font-family="'PermanentMarker'" font-size="31">meaning</text>
</g>
</svg>
