<?xml version="1.0" encoding="utf-8"?>
<!-- Generator: Adobe Illustrator 19.2.0, SVG Export Plug-In . SVG Version: 6.00 Build 0)  -->
<svg version="1.1" id="Layer_1" xmlns="http://www.w3.org/2000/svg" xmlns:xlink="http://www.w3.org/1999/xlink" x="0px" y="0px"
	 width="787.58px" height="689.01px" viewBox="0 0 787.58 689.01" enable-background="new 0 0 787.58 689.01" xml:space="preserve">
<path fill="none" stroke="#FFFFFF" stroke-width="120" stroke-linejoin="bevel" stroke-miterlimit="10" d="M117.3-5.76
	C96.28,28.15,75.26,62.06,54.24,95.97C93.97,60.7,133.7,25.43,173.43-9.85C149.1,24.37,124.77,58.58,100.44,92.8
	c44.19-37.16,88.39-74.32,132.58-111.49C188.7,32.47,144.39,83.63,100.07,134.8c50.69-47.73,101.38-95.47,152.07-143.2
	c-42.96,79.93-96.66,154.08-159.21,219.83c28.93-23.32,57.87-46.64,86.8-69.96c-29.85,43.81-59.7,87.61-89.56,131.42
	c34.17-29.96,68.33-59.92,102.5-89.87c-20,35.9-39.99,71.79-59.99,107.69c36.53-36.2,73.06-72.4,109.6-108.6
	c-10.55,39.48-21.09,78.96-31.64,118.44c25.55-38.02,51.11-76.05,76.66-114.07c-9.04,37.78-18.08,75.55-27.12,113.33
	c18.76-19.58,37.53-39.15,56.29-58.73c-7.58,24.95-15.17,49.9-22.75,74.86c49.55-38.24,75.1-98.93,100.9-155.96
	s57-116.48,111.91-146.53c-22.4,35.44-44.8,70.88-67.19,106.32c63.64-43.55,120.56-96.91,168.13-157.61
	c-46.99,63.26-93.99,126.52-140.98,189.78c49.6-43.43,99.21-86.86,148.81-130.29c-12.93,20.31-25.87,40.62-38.8,60.93
	c31.24-29.19,62.48-58.39,93.72-87.58c-25.06,46.01-69.9,77.1-111.44,109.03s-83.27,69.44-96.97,120
	c68.26-75.97,149.56-140.2,239.26-189.04c-96.64,79.08-193.98,158.86-272.96,255.57C526.24,209.1,624.4,127.67,722.55,46.24
	c-63.22,72.69-126.44,145.38-189.66,218.07c6.41-6.22,12.83-12.43,19.24-18.65c-9.49,9.4-18.97,18.81-28.46,28.21
	c55.83-26.74,111.66-53.48,167.49-80.22c-33.48,40.76-66.96,81.53-100.44,122.29c30.7-25.9,61.4-51.8,92.1-77.7
	c-10.9,16.06-21.8,32.12-32.7,48.19c22.91-15.13,45.81-30.27,68.72-45.4c-18.18,51.44-68.31,86.72-121.29,99.76
	c-52.98,13.03-108.75,6.96-162.39-3.01s-106.89-23.8-161.4-26.18c-31.72-1.39-64.75,1.48-92.5,16.92
	c-33.52,18.66-54.85,52.9-74.74,85.71c38.2-24.49,76.4-48.98,114.6-73.46c-33.26,39.72-66.51,79.45-99.77,119.17
	c52.31-59.74,119.15-106.66,193.11-135.56c-12.11,15.91-24.23,31.81-36.34,47.72c58.71-9.49,117.43-18.99,176.14-28.48
	c-34.54,35.57-86.59,47.1-135.84,52.83c-49.25,5.73-100.51,7.77-144.76,30.13c-10.84,5.48-21.43,12.45-27.88,22.74
	s-7.76,24.56-0.45,34.26c7.31,9.7,24.18,11.4,31.32,1.58c-16.76,27.48-33.51,54.95-50.27,82.43c20.56-10.71,41.12-21.41,61.68-32.12
	c-17.23,45.5-34.45,91-51.68,136.5c29.74-64.24,59.47-128.48,89.21-192.72c-3.27,9.85-6.59,20.01-5.87,30.36
	c0.72,10.35,6.47,21.07,16.28,24.46c14.62,5.05,29.2-7.69,37.77-20.57c8.56-12.88,16.6-28.29,31.44-32.67
	c13.93,31.03,57.91,43.65,86.18,24.73c17.89-11.98,31.6-34.61,53.12-33.97c22.2,0.66,36.36,26.51,58.26,30.22
	c20.98,3.55,39.1-14.18,51.97-31.12c12.87-16.94,27.34-36.38,48.53-38.38c21.97-2.08,41.4,17.09,47.43,38.32
	c6.03,21.23,1.99,43.85-2.09,65.54c-8.99,47.8-17.98,95.61-26.97,143.41c-20.39,0.54-39.36-17.75-39.56-38.14
	s18.39-39.06,38.78-38.93c20.39,0.13,38.76,19.03,38.3,39.42c-0.64,28.25-33.5,47.22-61.39,42.66s-50.17-25.46-67.84-47.51
	c-15.62-19.49-36.43-43.4-60.25-35.89c-27.02,8.51-31.69,51.67-59.39,57.64c-18.82,4.06-35.52-12.08-47.23-27.36
	c-11.71-15.28-25.47-32.84-44.72-33.15c-27.81-0.45-41.36,33.52-63.97,49.73c-28.65,20.54-75.5,4.85-86-28.8"/>
<g>
	
		<line fill="none" stroke="#000000" stroke-width="7" stroke-linecap="round" stroke-linejoin="round" stroke-miterlimit="10" x1="104.23" y1="250.75" x2="326.22" y2="250.75"/>
	
		<polyline fill="none" stroke="#000000" stroke-width="7" stroke-linecap="round" stroke-linejoin="round" stroke-miterlimit="10" points="
		304.22,228.25 326.22,250.75 304.22,273.25 	"/>
	
		<line fill="none" stroke="#000000" stroke-width="7" stroke-linecap="round" stroke-linejoin="round" stroke-miterlimit="10" x1="126.73" y1="76.76" x2="126.73" y2="273.25"/>
	
		<polyline fill="none" stroke="#000000" stroke-width="7" stroke-linecap="round" stroke-linejoin="round" stroke-miterlimit="10" points="
		104.23,98.66 126.73,76.66 149.23,98.66 	"/>
	<text transform="matrix(1 0 0 1 98.4219 33.258)"><tspan x="0" y="0" font-family="'PermanentMarker'" font-size="30.74px"># of lies</tspan><tspan x="0" y="30" font-family="'PermanentMarker'" font-size="30.74px">y</tspan><tspan x="11.38" y="30" font-family="'PermanentMarker'" font-size="30.74px">o</tspan><tspan x="30.11" y="30" font-family="'PermanentMarker'" font-size="30.74px">u tell</tspan></text>
	<g>
		<text transform="matrix(1 0 0 1 270.9107 300.2446)" font-family="'PermanentMarker'" font-size="30.74px">age</text>
	</g>
	<path fill="none" stroke="#B2D235" stroke-width="7" stroke-linecap="round" stroke-linejoin="round" stroke-miterlimit="10" d="
		M146.67,108.44c4.7,35.56,22.54,68.23,47.67,87.29s57.49,23.35,85.43,20.56"/>
</g>
<g>
	
		<line fill="none" stroke="#000000" stroke-width="7" stroke-linecap="round" stroke-linejoin="round" stroke-miterlimit="10" x1="468.71" y1="247.75" x2="690.7" y2="247.75"/>
	
		<polyline fill="none" stroke="#000000" stroke-width="7" stroke-linecap="round" stroke-linejoin="round" stroke-miterlimit="10" points="
		668.7,225.25 690.7,247.75 668.7,270.25 	"/>
	
		<line fill="none" stroke="#000000" stroke-width="7" stroke-linecap="round" stroke-linejoin="round" stroke-miterlimit="10" x1="491.21" y1="77.73" x2="491.21" y2="268.96"/>
	
		<polyline fill="none" stroke="#000000" stroke-width="7" stroke-linecap="round" stroke-linejoin="round" stroke-miterlimit="10" points="
		468.71,98.66 491.21,76.66 513.71,98.66 	"/>
	<text transform="matrix(1 0 0 1 468.71 33.258)"><tspan x="0" y="0" font-family="'PermanentMarker'" font-size="30.74px">how big </tspan><tspan x="132.87" y="0" font-family="'PermanentMarker'" font-size="30.74px">y</tspan><tspan x="144.24" y="0" font-family="'PermanentMarker'" font-size="30.74px">o</tspan><tspan x="162.98" y="0" font-family="'PermanentMarker'" font-size="30.74px">ur</tspan><tspan x="0" y="30" font-family="'PermanentMarker'" font-size="30.74px">lies are</tspan></text>
	<text transform="matrix(1 0 0 1 636.7554 300.2446)" font-family="'PermanentMarker'" font-size="30.74px">age</text>
	<path fill="none" stroke="#FFF200" stroke-width="7" stroke-linecap="round" stroke-linejoin="round" stroke-miterlimit="10" d="
		M501.8,229.83c48.04-2.59,94.78-24.32,127.72-59.39s51.71-83.07,51.29-131.18"/>
</g>
<g>
	
		<line fill="none" stroke="#000000" stroke-width="7" stroke-linecap="round" stroke-linejoin="round" stroke-miterlimit="10" x1="150.11" y1="630.25" x2="651.09" y2="630.25"/>
	
		<polyline fill="none" stroke="#000000" stroke-width="7" stroke-linecap="round" stroke-linejoin="round" stroke-miterlimit="10" points="
		629.09,607.75 651.09,630.25 629.09,652.75 	"/>
	<text transform="matrix(1 0 0 1 597.1475 679.2443)" font-family="'PermanentMarker'" font-size="30.74px">age</text>
	
		<line fill="none" stroke="#000000" stroke-width="7" stroke-linecap="round" stroke-linejoin="round" stroke-miterlimit="10" x1="172.61" y1="376.76" x2="172.61" y2="652.66"/>
	
		<polyline fill="none" stroke="#000000" stroke-width="7" stroke-linecap="round" stroke-linejoin="round" stroke-miterlimit="10" points="
		150.11,398.76 172.61,376.76 195.11,398.76 	"/>
	<text transform="matrix(1 0 0 1 149.2286 365.0454)"><tspan x="0" y="0" font-family="'PermanentMarker'" font-size="30.74px">impo</tspan><tspan x="70.34" y="0" font-family="'PermanentMarker'" font-size="30.74px">r</tspan><tspan x="86.04" y="0" font-family="'PermanentMarker'" font-size="30.74px" letter-spacing="-1">t</tspan><tspan x="99.24" y="0" font-family="'PermanentMarker'" font-size="30.74px">an</tspan><tspan x="134.46" y="0" font-family="'PermanentMarker'" font-size="30.74px">c</tspan><tspan x="149.95" y="0" font-family="'PermanentMarker'" font-size="30.74px">e of </tspan><tspan x="222.05" y="0" font-family="'PermanentMarker'" font-size="30.74px">y</tspan><tspan x="233.43" y="0" font-family="'PermanentMarker'" font-size="30.74px">o</tspan><tspan x="252.16" y="0" font-family="'PermanentMarker'" font-size="30.74px">ur lies</tspan></text>
	<path fill="none" stroke="#F9A01B" stroke-width="7" stroke-linecap="round" stroke-linejoin="round" stroke-miterlimit="10" d="
		M197.43,501.49c76.93,3.65,154.25,7.29,230.78-1.3s152.91-30.03,216.93-72.84"/>
</g>
</svg>
