<?xml version="1.0" encoding="utf-8"?>
<!-- Generator: Adobe Illustrator 19.2.0, SVG Export Plug-In . SVG Version: 6.00 Build 0)  -->
<svg version="1.1" id="Layer_1" xmlns="http://www.w3.org/2000/svg" xmlns:xlink="http://www.w3.org/1999/xlink" x="0px" y="0px"
	 width="405.7px" height="289.4px" viewBox="0 0 405.7 289.4" enable-background="new 0 0 405.7 289.4" xml:space="preserve">
<path fill="none" stroke="#FFFFFF" stroke-width="120" stroke-linejoin="bevel" stroke-miterlimit="10" d="M100.6,21.3
	c-10.9-4.7-23.8-2.5-34,3.4S48.5,39.9,41.8,49.6c-11.5,16.6-20.4,35.5-23,55.5c-4.6,35.9,12.8,73.6,42.7,94s70.8,23.1,103.5,7.6
	c14.9-7.1,28.1-17.6,38-30.8c17.3-23,23.7-53.9,17-81.9s-26.5-52.6-52.4-65.3c-14.4-7-30.7-10.4-46.5-8.3s-31,10.3-40.5,23.1
	c-12.4,16.7-13.9,38.8-15,59.6c-0.4,7.4-0.8,15,1.2,22.2c2,7.2,6.7,14.1,13.6,16.7c9.1,3.4,19.6-1.4,25.8-8.8
	c6.2-7.4,9.1-17,11.8-26.3c0.5,16.1,8,31.9,20.2,42.5c6.3-20,12.5-40,18.8-60c1.9-6,3.8-12.2,7.5-17.3c3.7-5.1,9.5-9.1,15.8-9
	c11.4,0.2,18.6,14,16.3,25.3s-10.7,20-18.7,28.1c15.5-10.6,31-21.2,46.5-31.7c-22.4,4.4-40.7,24.6-42.8,47.4
	c12.3-4.8,24.5-9.7,36.8-14.5c-13.6,15.2-27.2,30.3-40.8,45.5c7-2.7,13.9-5.4,20.9-8.1c-4.6,8.7-9.2,17.4-13.8,26.1
	c6.7-1.3,12.1-6.7,15.1-12.8c3-6.1,4.1-13,4.9-19.8c4.5-35.1,5.4-70.7,2.6-106c7.8,2.5,16.4,0,23.6-3.8c7.3-3.8,13.8-8.9,21.3-12.2
	c17.8-8.1,38.5-5.4,57.8-2.5c15.1,2.2,31.4,5,42.1,15.9c7.6,7.7,11.3,18.4,14.1,28.9c5.7,21.3,8.9,43.6,6.6,65.5
	s-10.4,43.7-25.2,60.1c-19.8,1.6-38.5,9.2-57.5,15.1c-19,5.9-39.4,10.2-58.6,5.1s-36.5-22.1-35.9-41.9c0.5-16.3,12.7-30.4,27.2-37.9
	c14.5-7.5,31.1-9.5,47.3-11.5c0.5,9.7,1,19.4,1.5,29.1c5.8-6.8,11.6-13.7,17.3-20.5c3.6-4.3,7.4-8.7,12.3-11.5
	c4.9-2.8,11.4-3.6,16.1-0.5c7.8,5,6.8,17.4,0.6,24.2s-15.6,9.4-24.4,12c-43,12.7-84.2,31.5-121.9,55.8c18,4.9,37,5.8,55.4,2.5
	c-17.4,11.1-30.5,28.9-36,48.8c5.5-3.3,11-6.6,16.5-9.9c0.5,5,1,10,1.6,15c10.4,0.4,20.8,0.8,31.2,1.2c6.2,0.2,12.3,0.5,18.5,0.3
	c16.6-0.3,33.1-3.3,49.8-3.6c14.1-0.3,28.2,1.2,42.3,2.8c9.8,1.1,19.7,2.2,29.5,3.2"/>
<g id="Arrow_right">
</g>
<text transform="matrix(1 0 0 1 81.0232 130.6479)" font-family="'PermanentMarker'" font-size="30.74px">life</text>
<path fill="none" stroke="#000000" stroke-width="7" stroke-linecap="round" stroke-linejoin="round" stroke-miterlimit="10" d="
	M102.4,20.1c-34.9,6.6-65.5,32.6-77.6,66s-5.2,73,17.5,100.3s60.3,41.5,95.3,35.9c22.7-3.7,44-15.2,59.5-32.2
	c29.5-32.4,34.6-84.7,11.8-122.1S137.4,11,95,22.3"/>
<text transform="matrix(1 0 0 1 250.0415 130.6479)" font-family="'PermanentMarker'" font-size="30.74px">death</text>
<path fill="none" stroke="#000000" stroke-width="7" stroke-linecap="round" stroke-linejoin="round" stroke-miterlimit="10" d="
	M294.1,22c-37.5,1.2-74.4,18-96.2,45.1s-27.8,64.1-14,95.1c13.7,31,47.1,54.8,84.4,58.8c37.3,4,76.7-12.5,95.9-41.2
	c13.1-19.7,16.6-43.5,14.1-66.3c-2.4-22.1-10.6-44.2-26.5-61.4c-15.8-17.2-39.9-29.1-65-28.8"/>
<path fill="none" stroke="#AB3D63" stroke-width="7" stroke-linecap="round" stroke-linejoin="round" stroke-miterlimit="10" d="
	M205,73.2c-2.2,0.7-4.4,1.4-6.6,2.1c3.2,0.5,6.4,1.1,9.6,1.6c-5,2.6-10,5.3-14.9,7.9c5.7,0.2,11.5,0.3,17.2,0.5
	c-7.4,2.4-14.9,4.8-22.3,7.2c9.5,0.5,19,0.9,28.4,1.4c-12,2.4-24.1,4.9-36.1,7.3c12.3,0.2,24.5,1.5,36.3,4c-12.1,3-24.2,6-36.3,9.1
	c13.3,0.2,26.7,0.3,40,0.5c-12.8,4.2-25.6,8.4-38.3,12.6c11.8,0,23.6-0.1,35.5-0.1c-11.1,3.5-22.2,6.9-33.4,10.4
	c10.4,0,20.8,0.1,31.2,0.1c-9.7,5-20.7,8.8-32.2,11c10.2-1.3,21-0.4,30.5,2.6c-8.2,3.9-17.8,6.2-27.5,6.6c9,1,18,2,27.1,3
	c-7.4,1.7-14.8,3.3-22.3,5c5.1,0.6,10.1,1.3,15.2,1.9c-2.2,2.7-5.9,4.7-10,5.5c1.4,0.9,2.8,1.7,4.3,2.6"/>
<g>
	<path fill="none" stroke="#000000" stroke-width="7" stroke-linecap="round" stroke-linejoin="round" stroke-miterlimit="10" d="
		M199.3,205.3c4,9.3,2.7,20.7-3.2,29c-2.5,3.5-5.8,6.6-7,10.7c-2,6.5,2,13.7,7.7,17.5c5.7,3.8,12.7,5,19.4,6.1"/>
	<path fill="none" stroke="#000000" stroke-width="7" stroke-linecap="round" stroke-linejoin="round" stroke-miterlimit="10" d="
		M195.7,209.7c1.3-2,2.6-4,4-6c1.9,1.9,3.8,3.7,5.7,5.6"/>
	<text transform="matrix(1 0 0 1 226.9688 275.1773)" font-family="'PermanentMarker'" font-size="30.74px">exercising</text>
</g>
<g id="Arrow_up">
</g>
</svg>
