<?xml version="1.0" encoding="utf-8"?>
<!-- Generator: Adobe Illustrator 18.0.0, SVG Export Plug-In . SVG Version: 6.00 Build 0)  -->
<!DOCTYPE svg PUBLIC "-//W3C//DTD SVG 1.1//EN" "http://www.w3.org/Graphics/SVG/1.1/DTD/svg11.dtd">
<svg version="1.1" id="Layer_1" xmlns="http://www.w3.org/2000/svg" xmlns:xlink="http://www.w3.org/1999/xlink" x="0px" y="0px"
	 viewBox="0 0 964 352" enable-background="new 0 0 964 352" xml:space="preserve">
<path fill="none" stroke="#FFFFFF" stroke-width="120" stroke-linejoin="bevel" stroke-miterlimit="10" d="M949.7,287.6
	c-161,22.7-324.5,26.9-486.4,12.4c-92.9-8.3-187.7-22.7-278.5-1.2c-38.2,9-81.2,23.6-114.4,2.7c-25.9-16.4-36-49.6-36.8-80.2
	c-0.8-30.7,5.5-61.3,3.2-91.9c-1.4-18.2-5.6-37.5,2.5-53.8c10-20.2,34.5-27.7,56.4-32.5c47.9-10.4,96.6-17.3,145.6-20.6
	C209.1,38.7,177,55,144.9,71.3c89.1-6.4,177.5-23.3,262.7-50.2c-39.4,12.6-81.7,27.2-105,61.4c130.9-50.3,306.6-61.7,446.6-53.1
	C536.8,70,319.3,190.3,115,261.5c65.3,21.9,140.5,13.2,198.4-24.2c32.7-21.1,59.3-50.3,90.3-74s69.2-42.1,107.7-36.4
	c-43.3,43.2-88.5,84.5-135.2,123.9c52.9,7.2,102.8-23.8,145.4-56s86.5-68.3,139.5-74c-36.6,40.9-77.8,77.7-122.6,109.4
	c27.9,13.1,61.5,3.2,87.3-13.7c25.8-16.9,46.8-40.1,72.3-57.3s116.7-29.1,145-17c-42.1,35.4-142.2,72-184.3,107.4
	c-8.5,7.2-17.9,17.7-13.5,27.9c4.3,10.2,18.4,10.7,29.3,9.4c84.3-10.1,185.3-50.2,263.3-83.4"/>
<path fill="none" stroke="#000000" stroke-width="7" stroke-linecap="round" stroke-miterlimit="10" d="M50.7,285.1"/>
<g>
	
		<line fill="none" stroke="#000000" stroke-width="7" stroke-linecap="round" stroke-linejoin="round" stroke-miterlimit="10" x1="48.5" y1="310" x2="48.5" y2="97"/>
	
		<polyline fill="none" stroke="#000000" stroke-width="7" stroke-linecap="round" stroke-linejoin="round" stroke-miterlimit="10" points="
		26,119 48.5,97 71,119 	"/>
</g>
<g>
	
		<line fill="none" stroke="#000000" stroke-width="7" stroke-linecap="round" stroke-linejoin="round" stroke-miterlimit="10" x1="25" y1="286.5" x2="935" y2="286.5"/>
	
		<polyline fill="none" stroke="#000000" stroke-width="7" stroke-linecap="round" stroke-linejoin="round" stroke-miterlimit="10" points="
		913,264 935,286.5 913,309 	"/>
	<text transform="matrix(1 0 0 1 868.792 223.9991)" font-family="'PermanentMarker'" font-size="31">time</text>
</g>
<g>
	<text transform="matrix(1 0 0 1 25.1953 73.5244)" fill="#29ABE2" font-family="'PermanentMarker'" font-size="31">how much money i have</text>
</g>
<path fill="none" stroke="#29ABE2" stroke-width="7" stroke-linecap="round" stroke-miterlimit="10" d="M49,285c19-27,53-8,73,4
	c27,15,58,15,85,3c25-12,53-36,79-41c37-7,57,30,84,48c52,33,105-2,140-41c25-28,59-60,100-51c29,5,47,38,64,59c36,47,93,86,148,51
	c27-17,53-53,87-45c7,2,14,7,20,9"/>
<g>
	<text transform="matrix(1 0 0 1 25.1953 39.0264)" fill="#D4145A" font-family="'PermanentMarker'" font-size="31">amount of money that would be sweet to have</text>
</g>
<path fill="none" stroke="#D4145A" stroke-width="7" stroke-linecap="round" stroke-miterlimit="10" d="M49,253c19-27,53-8,73,4
	c27,15,58,15,85,3c25-12,53-36,79-41c37-7,57,30,84,48c52,33,105-2,140-41c25-28,59-60,100-51c29,5,47,38,64,59c36,47,93,86,148,51
	c27-17,53-53,87-45c7,2,14,7,20,9"/>
<g>
	<path fill="none" stroke="#000000" stroke-width="7" stroke-linecap="round" stroke-linejoin="round" stroke-miterlimit="10" d="
		M594.4,176.1c0.1,10,0.3,15.9,0.4,25.9"/>
	<path fill="none" stroke="#000000" stroke-width="7" stroke-linecap="round" stroke-linejoin="round" stroke-miterlimit="10" d="
		M587.5,196.4c2.8,2.4,5.6,4.9,8.4,7.3c0.6-3.7,2.9-7.2,6.1-9.2"/>
	<path fill="none" stroke="#000000" stroke-width="7" stroke-linecap="round" stroke-linejoin="round" stroke-miterlimit="10" d="
		M587.3,183.5c1.1-3.5,2.9-6.9,5.1-9.8c3,2.9,6.3,5.5,9.9,7.6"/>
</g>
<g>
	<g>
		<text transform="matrix(1 0 0 1 384.6667 158.6665)" font-family="'PermanentMarker'" font-size="31">this tiny life long frustration</text>
	</g>
</g>
</svg>
