<?xml version="1.0" encoding="utf-8"?>
<!-- Generator: Adobe Illustrator 18.0.0, SVG Export Plug-In . SVG Version: 6.00 Build 0)  -->
<!DOCTYPE svg PUBLIC "-//W3C//DTD SVG 1.1//EN" "http://www.w3.org/Graphics/SVG/1.1/DTD/svg11.dtd">
<svg version="1.1" id="Layer_1" xmlns="http://www.w3.org/2000/svg" xmlns:xlink="http://www.w3.org/1999/xlink" x="0px" y="0px"
	 viewBox="0 0 755 345" enable-background="new 0 0 755 345" xml:space="preserve">
<path fill="none" stroke="#FFFFFF" stroke-width="120" stroke-linecap="square" stroke-linejoin="bevel" stroke-miterlimit="10" d="
	M5,120.5c19.3-17.7,38.6-35.4,57.9-53.1c0.1,20.6,0.1,41.3,0.2,61.9c37.1-17.7,70-44.1,95.2-76.6c0.2,22.9,0.5,45.9,0.7,68.8
	c0.1,6,0.5,12.8,5.1,16.6c8.4,7,20.3-2.3,27.2-10.8c22.9-28.5,45.7-57,68.6-85.6c2.3,42.2,4.7,84.4,7,126.7
	c0.6,11.1,4.1,25.5,15.2,26.4c8.8,0.7,15.1-7.9,19.5-15.5c39.2-67.5,78.5-135,117.7-202.5c-15.7,58-31.4,116-47.1,173.9
	c-3.2,11.7-5.3,26.5,4.4,33.7c7.9,5.9,19.8,2.4,26.6-4.7c6.8-7.1,9.9-16.9,13.2-26.2c19.1-54.1,52.6-103,96-140.5
	c6.5,28,2.2,58.4-12,83.5c-5.2,9.2-11.8,17.9-14.8,28c-3,10.1-1.5,22.7,7,29c9.1,6.8,22.8,3.5,31.1-4.2c8.3-7.7,12.6-18.7,16.7-29.3
	c11.8-31.1,23.7-62.2,35.5-93.4c8.5,64.1,5.9,129.7-7.8,193c64.2-16.5,128.4-33.1,192.6-49.6c-69.1,19.4-143.1,20.7-212.8,3.7
	c-22.1-5.4-45.3-12.6-67.1-6.1c-17.2,5.1-30.8,17.9-43.7,30.3C389,244,340.9,290.2,292.8,336.5c67.5,8.3,138.2-30.6,167.3-92.1"/>
<g>
	
		<line fill="none" stroke="#000000" stroke-width="7" stroke-linecap="round" stroke-linejoin="round" stroke-miterlimit="10" x1="553" y1="180.6" x2="263" y2="180.6"/>
	
		<line fill="none" stroke="#000000" stroke-width="7" stroke-linecap="round" stroke-linejoin="round" stroke-miterlimit="10" x1="408" y1="35.6" x2="408" y2="325.6"/>
	
		<polyline fill="none" stroke="#000000" stroke-width="7" stroke-linecap="round" stroke-linejoin="round" stroke-miterlimit="10" points="
		531,158.1 553,180.6 531,203.1 	"/>
	
		<polyline fill="none" stroke="#000000" stroke-width="7" stroke-linecap="round" stroke-linejoin="round" stroke-miterlimit="10" points="
		385.5,57.6 408,35.6 430.5,57.6 	"/>
</g>
<g>
	<text transform="matrix(1 0 0 1 358.7609 28.2349)" font-family="'PermanentMarker'" font-size="30.74">energy</text>
</g>
<g>
	<text transform="matrix(1 0 0 1 571.1211 189.0269)" font-family="'PermanentMarker'" font-size="30.74">distractions</text>
</g>
<g>
	<g>
		<text transform="matrix(1 0 0 1 465.6563 68.8433)"><tspan x="0" y="0" fill="#93CC89" font-family="'PermanentMarker'" font-size="30.74">time of</tspan><tspan x="0" y="30" fill="#93CC89" font-family="'PermanentMarker'" font-size="30.74">the day</tspan></text>
	</g>
	<path fill="none" stroke="#93CC89" stroke-width="7" stroke-linecap="round" stroke-miterlimit="10" d="M427.1,68.8
		c-15.3,46.9,129.8,101.8,53,149.1C423,253,367.4,292.6,313,333"/>
	<path fill="none" stroke="#93CC89" stroke-width="7" stroke-linecap="round" stroke-linejoin="round" stroke-miterlimit="10" d="
		M313.4,315.3c-1.1,6.5-2.3,13.1-3.4,19.6c7,1.1,14,2.3,21,3.4"/>
</g>
<g>
	<g>
		
			<line fill="none" stroke="#FBD14A" stroke-width="7" stroke-linecap="round" stroke-miterlimit="10" x1="287.3" y1="51.7" x2="276.5" y2="62.5"/>
		<path fill="none" stroke="#FBD14A" stroke-width="7" stroke-linecap="round" stroke-miterlimit="10" d="M306.4,55.7
			c-7.8,9.3-17.4,17.4-26,26"/>
		<path fill="none" stroke="#FBD14A" stroke-width="7" stroke-linecap="round" stroke-miterlimit="10" d="M335.5,49.8
			c-20.4,20.4-40.8,40.7-61.1,61.1"/>
		<path fill="none" stroke="#FBD14A" stroke-width="7" stroke-linecap="round" stroke-miterlimit="10" d="M356.5,51.9
			c-12.1,12.1-24.2,24.2-36.3,36.3c-8.1,9.2-15.1,18.5-24.8,26.1c-6.9,5.4-12.8,11.5-19,17.7"/>
		<path fill="none" stroke="#FBD14A" stroke-width="7" stroke-linecap="round" stroke-miterlimit="10" d="M383.6,47.9
			C346.5,85,309.5,122,272.3,159.2"/>
		<path fill="none" stroke="#FBD14A" stroke-width="7" stroke-linecap="round" stroke-miterlimit="10" d="M388.2,66.4
			c-7,7-14,13.6-21.5,20.1c-10.3,8.9-18.5,19.9-28.1,29.5c-15.8,15.8-31.6,31.6-47.4,47.4"/>
		<path fill="none" stroke="#FBD14A" stroke-width="7" stroke-linecap="round" stroke-miterlimit="10" d="M391.6,86.2
			c-27,27-53.9,53.9-80.9,80.9"/>
		<path fill="none" stroke="#FBD14A" stroke-width="7" stroke-linecap="round" stroke-miterlimit="10" d="M385.1,116.4
			c-15.8,13.5-30,28.8-44.6,43.6"/>
		
			<line fill="none" stroke="#FBD14A" stroke-width="7" stroke-linecap="round" stroke-miterlimit="10" x1="386.8" y1="137.2" x2="361.9" y2="162.1"/>
		
			<line fill="none" stroke="#FBD14A" stroke-width="7" stroke-linecap="round" stroke-miterlimit="10" x1="391.5" y1="155.6" x2="380.3" y2="166.8"/>
	</g>
	<g>
		<text transform="matrix(1 0 0 1 91.2499 86.1707)"><tspan x="0" y="0" fill="#FBD14A" font-family="'PermanentMarker'" font-size="30.74">area where</tspan><tspan x="-85.6" y="30" fill="#FBD14A" font-family="'PermanentMarker'" font-size="30.74">work is actually</tspan><tspan x="47.9" y="60" fill="#FBD14A" font-family="'PermanentMarker'" font-size="30.74">possible</tspan></text>
	</g>
</g>
</svg>
