<?xml version="1.0" encoding="utf-8"?>
<!-- Generator: Adobe Illustrator 19.2.0, SVG Export Plug-In . SVG Version: 6.00 Build 0)  -->
<svg version="1.1" id="Layer_1" xmlns="http://www.w3.org/2000/svg" xmlns:xlink="http://www.w3.org/1999/xlink" x="0px" y="0px"
	 width="485.54px" height="377.86px" viewBox="0 0 485.54 377.86" enable-background="new 0 0 485.54 377.86" xml:space="preserve">
<path fill="none" stroke="#FFFFFF" stroke-width="120" stroke-linejoin="bevel" stroke-miterlimit="10" d="M39.23,10.82
	C20.24,25.11,8.78,48.87,9.42,72.62c25.82-1.19,47.32-18.95,69.2-32.71C128.07,8.8,188.53-4.36,246.42,3.38
	c9.06,1.21,20.57,6.15,19.2,15.19c-0.87,5.74-6.8,9.11-12.21,11.21c-32.8,12.69-69.22,9.44-104.38,10.23s-73.46,7.5-96.62,33.97
	c-14.91,17.04-21.23,39.78-26.21,61.87C10.99,203.24,4.23,272.53,6.1,341.6c9.62-30.85,19.36-62,35.61-89.94s39.79-52.79,69.91-64.5
	C87.66,248.33,63.7,309.5,39.75,370.67c-4.73,12.09-7.87,29.08,3.54,35.27c6.23,3.38,14.29,1.25,19.76-3.25s8.93-10.93,12.25-17.19
	c41.15-77.55,82.3-155.11,123.45-232.66c-6.47,69.9-12.95,139.8-19.42,209.7c-0.58,6.3,0.08,14.55,6.16,16.28
	c6.41,1.83,11.31-5.61,13.83-11.78c42.5-104.1,85-208.19,127.5-312.29c5.25-12.86,10.61-25.91,19.17-36.86s20.89-19.71,34.74-20.8
	c-25.51,94.1-61.16,185.46-106.12,271.97c-9.76,18.78-20.24,38.47-19.53,59.62s17.62,43.36,38.68,41.35
	c17.21-1.64,28.98-17.55,38.46-32.01c16.48-25.13,32.95-50.25,49.43-75.38c4.66-7.1,11.35-15.15,19.7-13.64
	c11.52,2.08,11.94,18.35,9.4,29.78c-3.74,16.87-7.49,33.74-11.23,50.61c-1.64,7.41-3.3,15.03-2.09,22.52s5.97,14.92,13.27,16.98
	c12.96,3.66,23.58-9.99,30.92-21.29c7.33-11.29,56.74-4.48,68.08,2.79"/>
<path fill="none" stroke="#000000" stroke-width="7" stroke-linecap="round" stroke-linejoin="round" stroke-miterlimit="10" d="
	M33.67,44.54c0.44,106.67,0.87,213.34,1.31,320.02"/>
<path fill="none" stroke="#000000" stroke-width="7" stroke-linecap="round" stroke-linejoin="round" stroke-miterlimit="10" d="
	M11.17,342.05c155.88,0,311.77,0,467.65,0"/>
<polyline fill="none" stroke="#000000" stroke-width="7" stroke-linecap="round" stroke-linejoin="round" stroke-miterlimit="10" points="
	11.17,66.54 33.67,44.54 56.17,66.54 "/>
<polyline fill="none" stroke="#000000" stroke-width="7" stroke-linecap="round" stroke-linejoin="round" stroke-miterlimit="10" points="
	456.82,319.55 478.82,342.05 456.82,364.55 "/>
<text transform="matrix(1 0 0 1 86.2313 371.1459)" font-family="'PermanentMarker'" font-size="30.74px">knowledge of a thing</text>
<text transform="matrix(1 0 0 1 7.1737 30.4435)"><tspan x="0" y="0" font-family="'PermanentMarker'" font-size="30.74px">a</tspan><tspan x="17.26" y="0" font-family="'PermanentMarker'" font-size="30.74px">bility </tspan><tspan x="109.39" y="0" font-family="'PermanentMarker'" font-size="30.74px">t</tspan><tspan x="123.2" y="0" font-family="'PermanentMarker'" font-size="30.74px">o re</tspan><tspan x="186.57" y="0" font-family="'PermanentMarker'" font-size="30.74px">p</tspan><tspan x="202.09" y="0" font-family="'PermanentMarker'" font-size="30.74px">air it</tspan></text>
<path fill="none" stroke="#FFC60B" stroke-width="7" stroke-linecap="round" stroke-linejoin="round" stroke-miterlimit="10" d="
	M53.16,321.66c75.7-13.41,147.5-48.19,204.96-99.28S358.51,104.06,380.68,30.44"/>
<path fill="none" stroke="#000000" stroke-width="7" stroke-linecap="round" stroke-linejoin="round" stroke-miterlimit="10" d="
	M187.81,263.31c-1.34,8-2.68,16.01-4.02,24.01"/>
<path fill="none" stroke="#000000" stroke-width="7" stroke-linecap="round" stroke-linejoin="round" stroke-miterlimit="10" d="
	M177.22,270.16c6.23,3.54,12.47,7.09,18.7,10.63"/>
<path fill="none" stroke="#000000" stroke-width="7" stroke-linecap="round" stroke-linejoin="round" stroke-miterlimit="10" d="
	M200.23,295.8c3.02,9.87,14.53,15.28,24.79,14.17c10.26-1.11,19.29-7.3,26.85-14.32s14.21-15.08,22.44-21.31
	c8.23-6.23,18.67-10.57,28.8-8.59"/>
<text transform="matrix(1 0 0 1 320.9295 270.1577)"><tspan x="0" y="0" font-family="'PermanentMarker'" font-size="30.74px">t</tspan><tspan x="13.81" y="0" font-family="'PermanentMarker'" font-size="30.74px" letter-spacing="-1">o</tspan><tspan x="31.91" y="0" font-family="'PermanentMarker'" font-size="30.74px">ilets</tspan></text>
<path fill="none" stroke="#000000" stroke-width="7" stroke-linecap="round" stroke-linejoin="round" stroke-miterlimit="10" d="
	M74.58,310.04c-1.78,5.34-3.56,10.67-5.34,16.01"/>
<path fill="none" stroke="#000000" stroke-width="7" stroke-linecap="round" stroke-linejoin="round" stroke-miterlimit="10" d="
	M64.12,314.97c5.25,2.82,10.51,5.64,15.76,8.46"/>
<path fill="none" stroke="#000000" stroke-width="7" stroke-linecap="round" stroke-linejoin="round" stroke-miterlimit="10" d="
	M65.91,302.53c-10.34-8.57-12.34-25.53-4.28-36.27c8.04-10.71,22.54-13.72,34.12-20.44c16.32-9.47,27.23-27.64,27.92-46.5"/>
<text transform="matrix(1 0 0 1 51.5719 184.6255)"><tspan x="0" y="0" font-family="'PermanentMarker'" font-size="30.74px">rel</tspan><tspan x="49.05" y="0" font-family="'PermanentMarker'" font-size="30.74px" letter-spacing="-1">a</tspan><tspan x="65.38" y="0" font-family="'PermanentMarker'" font-size="30.74px">t</tspan><tspan x="80.12" y="0" font-family="'PermanentMarker'" font-size="30.74px">i</tspan><tspan x="89.37" y="0" font-family="'PermanentMarker'" font-size="30.74px">onships</tspan></text>
</svg>
