<?xml version="1.0" encoding="utf-8"?>
<!-- Generator: Adobe Illustrator 19.2.0, SVG Export Plug-In . SVG Version: 6.00 Build 0)  -->
<svg version="1.1" id="Layer_1" xmlns="http://www.w3.org/2000/svg" xmlns:xlink="http://www.w3.org/1999/xlink" x="0px" y="0px"
	 width="628.9px" height="434.4px" viewBox="0 0 628.9 434.4" enable-background="new 0 0 628.9 434.4" xml:space="preserve">
<symbol  id="Arrow_right_1_" viewBox="-25.5 -26 29 52">
	
		<polyline fill="none" stroke="#231F20" stroke-width="7" stroke-linecap="round" stroke-linejoin="round" stroke-miterlimit="10" points="
		-22,22.5 0,0 -22,-22.5 	"/>
</symbol>
<symbol  id="Arrow_up" viewBox="-26 -25.5 52 29">
	
		<polyline fill="none" stroke="#231F20" stroke-width="7" stroke-linecap="round" stroke-linejoin="round" stroke-miterlimit="10" points="
		-22.5,-22 0,0 22.5,-22 	"/>
</symbol>
<path fill="none" stroke="#FFFFFF" stroke-width="120" stroke-linejoin="bevel" stroke-miterlimit="10" d="M48.2,3.3
	c-19.8,15.5-30.4,42.1-26.5,67C37.5,48.6,53.2,26.8,68.9,5C56.7,36.1,44.5,67.2,32.3,98.2c24-31.6,48-63.3,72.1-94.9
	C91.5,39.4,78.7,75.5,65.8,111.6c20.7-30.9,41.3-61.7,62-92.6c-6.4,30.8-12.9,61.6-19.3,92.4c21.6-41.6,43.3-83.2,64.9-124.8
	c-8.3,28.6-16.6,57.2-24.9,85.7c-1.9,6.5-2.8,15.4,3.4,18.2c6.3,2.9,12.5-3.9,16-9.9c14.5-23.9,28.9-47.8,43.4-71.7
	c-9.7,37.1-19.4,74.1-29.1,111.2c26.5-42.8,53-85.5,79.5-128.3c-10.1,29.4-20.2,58.8-30.3,88.1c-1.8,5.4-3.3,12.4,1.2,15.9
	c6.1,4.8,14.2-2.8,18.1-9.5C264,64,277.3,41.5,290.6,19.1c-7,28.7-14,57.5-21,86.2C302.5,79.8,324,40.2,327.5-1.2
	c-2.8,22.2-5.5,44.4-8.3,66.6c-0.9,7-1.6,14.9,2.6,20.6c5.5,7.5,16.4,7.9,25.7,7.4c82-3.6,164.1-7.2,246.1-10.9
	c-15.5,20.2-31.1,40.4-46.6,60.6c-5.7,7.5-13.6,15.8-22.8,13.9c-9-1.9-13.1-12.4-14.4-21.5c-1.3-9.1-1.8-19.4-8.6-25.6
	c-10.1-9.1-27.6-2.1-33.8,10s-4.5,26.5-2.7,40c-12.7-14.3-25.3-28.5-38-42.8c5.6,15.8,11.2,31.5,16.8,47.3
	c-26.6-1.8-50.7,26.3-44.8,52.3c-9.8-3.2-19.6-6.5-29.4-9.7c1.4,14.1,2.7,28.3,4.1,42.4c-11.2-14.6-36.4-9.1-47.3,5.8
	s-11.6,34.6-11.8,53c-8.7-14.2-33.9-12.6-40.7,2.7c-6.8,15.3,8.9,35.1,25.3,32c6.9-1.3,12.9-5.7,18.5-9.9c14-10.5,28-21,41.9-31.5
	c-5.6,24.9-11.2,49.7-16.8,74.6c22.6-22.2,45.2-44.4,67.7-66.6c-2,18.7-4,37.4-6,56.2c13.2-20.5,26.5-41,39.7-61.4
	c2.9-4.5,6.5-9.5,11.9-10c7.4-0.8,12.7,7.7,12.6,15.2c-0.1,7.4-3.5,14.4-4.4,21.8c-0.9,7.4,2,16.4,9.2,18.1
	c13.3-15.8,26.6-31.6,40-47.4c3.5,22.4,7.1,44.9,10.6,67.3c21.9-20.4,43.8-40.7,65.7-61.1c-6.5,22.6,16.4,48,39.5,43.9
	c-50.7,8.4-101.4,16.9-152.1,25.3c-9.9,1.6-20,3.4-28.8,8.3c-8.8,4.9-16.1,13.6-16.4,23.7c21.5-29.3,43-58.5,64.5-87.8
	c-40.2,21.5-75.9,51.6-103.9,87.7c-6.2-14.8-12.3-29.5-18.5-44.3c-9.9,13.2-19.7,26.4-29.6,39.6c-1.9-17.4-3.7-34.8-5.6-52.2
	c-19.1,18.5-38.2,37-57.3,55.5c-4.4-23.2-8.8-46.3-13.2-69.5c-14.1,18.8-28.1,37.6-42.2,56.3c-3.9,5.2-9.4,11.1-15.7,9.7
	c-6.5-1.4-9.1-10.1-6.8-16.3c2.3-6.3,7.7-10.8,12.6-15.4c25.5-24.3,39.3-60.3,36.6-95.4c-21.9,24.7-43.8,49.4-65.7,74.1
	c1.8-19.7,3.6-39.4,5.4-59.1c-14.8,16.3-29.5,32.6-44.3,48.8c8.8-5.6,6.5-20.8-2.6-25.9c-9.1-5.1-21.1-1.6-28.8,5.4
	c-7.7,7-12.2,16.8-16.5,26.3c7.1-18.9,14.3-37.7,21.4-56.6c-28.4,10.1-51.6,33.7-61.3,62.2c3.4-19,6.7-38.1,10.1-57.1
	c-9.7,19.5-23.6,41.8-45.3,42.2c-9.6,3.2-11.4,18-4.1,24.8s20.1,5.5,27.5-1.4s9.8-17.9,8.5-27.9c-2.9-22.6-21.8-39.4-39.4-54
	c9.4-5.9,18.8-11.7,28.2-17.6c-10.3-4.1-20.7-8.3-31-12.4c13.7-8.1,27.4-16.2,41.2-24.2c-14.8-0.4-29.6-0.7-44.4-1.1
	c15.8-16.6,31.7-33.2,47.5-49.8C41.7,163.1,19.9,159.2,0,163.9c4.3-6.6,12-10.2,19.6-12.5s15.5-4,22.2-8.1s12.2-11.7,11-19.5
	s-11.5-13.5-17.6-8.5c23.2,11.7,50.4,12.1,76.4,10c27.1-2.2,54-6.9,80.9-11.5c26.5-4.6,53-9.1,79.5-13.7
	c-15.4,17.8-30.8,35.6-46.3,53.4c16.9,20.2,27,46.1,28.1,72.5c1,23.8-5.4,48.4-20.9,66.5c-15.4,18.1-40.4,28.7-63.7,24
	c-12.4-2.5-25.6-12.4-23.7-24.9c1.3-8.4,8.7-14.2,15.6-19.2C242.7,213.7,324.3,155,405.9,96.3c-3.8,73.8-7.6,147.5-11.4,221.3"/>
<g id="Arrow_right">
</g>
<g>
	
		<line fill="none" stroke="#231F20" stroke-width="7" stroke-linecap="round" stroke-linejoin="round" stroke-miterlimit="10" x1="24.1" y1="339.5" x2="536.8" y2="339.5"/>
	
		<use xlink:href="#Arrow_right_1_"  width="29" height="52" x="-25.5" y="-26" transform="matrix(1 0 0 -1 536.826 339.547)" overflow="visible"/>
	
		<line fill="none" stroke="#231F20" stroke-width="7" stroke-linecap="round" stroke-linejoin="round" stroke-miterlimit="10" x1="46.6" y1="108.2" x2="46.6" y2="362"/>
	
		<use xlink:href="#Arrow_up"  width="52" height="29" x="-26" y="-25.5" transform="matrix(1 0 0 -1 46.5813 108.3084)" overflow="visible"/>
</g>
<text transform="matrix(1 0 0 1 546.6866 346.7228)" fill="#231F20" font-family="'PermanentMarker'" font-size="30.74px">time</text>
<text transform="matrix(0 -1 1 0 34.2029 274.6814)" fill="#231F20" font-family="'PermanentMarker'" font-size="30.74px">fitness</text>
<text transform="matrix(1 0 0 1 21.0813 97.2927)" fill="#BE1E2D" font-family="'PermanentMarker'" font-size="30.74px">how i think normal people become fit</text>
<path fill="none" stroke="#BE1E2D" stroke-width="7" stroke-linecap="round" stroke-linejoin="round" stroke-miterlimit="10" d="
	M61.5,329.1c61.1-15.5,113.8-53.7,162.2-94.1s94.8-84.2,150.2-114.5"/>
<g>
	<path fill="none" stroke="#231F20" stroke-width="7" stroke-linecap="round" stroke-linejoin="round" stroke-miterlimit="10" d="
		M246.4,334.1c-0.2,3.9-0.4,7.7-0.6,11.6"/>
	<path fill="none" stroke="#231F20" stroke-width="7" stroke-linecap="round" stroke-linejoin="round" stroke-miterlimit="10" d="
		M246.4,316.9c0,2.3,0,4.6,0,6.9"/>
	<path fill="none" stroke="#231F20" stroke-width="7" stroke-linecap="round" stroke-linejoin="round" stroke-miterlimit="10" d="
		M246.3,297.6c0,2.1,0,4.1,0,6.2"/>
	<path fill="none" stroke="#231F20" stroke-width="7" stroke-linecap="round" stroke-linejoin="round" stroke-miterlimit="10" d="
		M246.3,277.6c0,2.3,0,4.6,0,7"/>
	<path fill="none" stroke="#231F20" stroke-width="7" stroke-linecap="round" stroke-linejoin="round" stroke-miterlimit="10" d="
		M246.2,254.6c0,3.3,0,6.5,0,9.8"/>
	<path fill="none" stroke="#231F20" stroke-width="7" stroke-linecap="round" stroke-linejoin="round" stroke-miterlimit="10" d="
		M246.2,234.5c0,2.3,0,4.6,0,6.9"/>
	<path fill="none" stroke="#231F20" stroke-width="7" stroke-linecap="round" stroke-linejoin="round" stroke-miterlimit="10" d="
		M246.1,213c0,2.8,0,5.6,0,8.4"/>
	<path fill="none" stroke="#231F20" stroke-width="7" stroke-linecap="round" stroke-linejoin="round" stroke-miterlimit="10" d="
		M246.1,193c0,2.3,0,4.6,0,6.8"/>
	<path fill="none" stroke="#231F20" stroke-width="7" stroke-linecap="round" stroke-linejoin="round" stroke-miterlimit="10" d="
		M246.1,171.7c0,2.8,0,5.6,0,8.4"/>
	<path fill="none" stroke="#231F20" stroke-width="7" stroke-linecap="round" stroke-linejoin="round" stroke-miterlimit="10" d="
		M246.2,151.4c0,2.3,0,4.7,0,7"/>
	<path fill="none" stroke="#231F20" stroke-width="7" stroke-linecap="round" stroke-linejoin="round" stroke-miterlimit="10" d="
		M246.2,131.1c0,2.3,0,4.7,0,7"/>
	<path fill="none" stroke="#231F20" stroke-width="7" stroke-linecap="round" stroke-linejoin="round" stroke-miterlimit="10" d="
		M246.4,110.8c0,2.3,0,4.7-0.1,7"/>
</g>
<text transform="matrix(1 0 0 1 210.2198 372.7555)"><tspan x="0" y="0" fill="#231F20" font-family="'PermanentMarker'" font-size="30.74px">meet</tspan><tspan x="-27.8" y="30" fill="#231F20" font-family="'PermanentMarker'" font-size="30.74px">someone</tspan></text>
<g>
	<path fill="none" stroke="#231F20" stroke-width="7" stroke-linecap="round" stroke-linejoin="round" stroke-miterlimit="10" d="
		M401.8,334.1c0,3.5,0,7.1,0,10.6"/>
	<path fill="none" stroke="#231F20" stroke-width="7" stroke-linecap="round" stroke-linejoin="round" stroke-miterlimit="10" d="
		M401.8,314.8c0,2.5,0,5.1,0,7.6"/>
	<path fill="none" stroke="#231F20" stroke-width="7" stroke-linecap="round" stroke-linejoin="round" stroke-miterlimit="10" d="
		M401.9,293.3c0,2.8,0,5.5,0,8.3"/>
	<path fill="none" stroke="#231F20" stroke-width="7" stroke-linecap="round" stroke-linejoin="round" stroke-miterlimit="10" d="
		M402,271.2c0,3,0,5.9,0,8.9"/>
	<path fill="none" stroke="#231F20" stroke-width="7" stroke-linecap="round" stroke-linejoin="round" stroke-miterlimit="10" d="
		M402,250c0,2.9,0,5.9,0,8.8"/>
	<path fill="none" stroke="#231F20" stroke-width="7" stroke-linecap="round" stroke-linejoin="round" stroke-miterlimit="10" d="
		M402,228.7c0,2.8,0,5.5,0,8.3"/>
	<path fill="none" stroke="#231F20" stroke-width="7" stroke-linecap="round" stroke-linejoin="round" stroke-miterlimit="10" d="
		M402.1,210.1c0,2.1,0,4.2,0,6.2"/>
	<path fill="none" stroke="#231F20" stroke-width="7" stroke-linecap="round" stroke-linejoin="round" stroke-miterlimit="10" d="
		M402.1,189.2c0,2.6,0,5.1,0,7.7"/>
	<path fill="none" stroke="#231F20" stroke-width="7" stroke-linecap="round" stroke-linejoin="round" stroke-miterlimit="10" d="
		M402.1,168.2c0,2.8,0,5.6,0,8.4"/>
	<path fill="none" stroke="#231F20" stroke-width="7" stroke-linecap="round" stroke-linejoin="round" stroke-miterlimit="10" d="
		M402,147.2c0,2.6,0,5.1,0,7.7"/>
	<path fill="none" stroke="#231F20" stroke-width="7" stroke-linecap="round" stroke-linejoin="round" stroke-miterlimit="10" d="
		M401.9,128.3c0,2.1,0,4.2,0,6.3"/>
	<path fill="none" stroke="#231F20" stroke-width="7" stroke-linecap="round" stroke-linejoin="round" stroke-miterlimit="10" d="
		M401.8,110.8c0,1.4,0,2.8,0,4.2"/>
</g>
<text transform="matrix(1 0 0 1 308.6158 372.7555)"><tspan x="0" y="0" fill="#231F20" font-family="'PermanentMarker'" font-size="30.74px">relationship</tspan><tspan x="46.9" y="30" fill="#231F20" font-family="'PermanentMarker'" font-size="30.74px">starts</tspan></text>
<path fill="none" stroke="#BE1E2D" stroke-width="7" stroke-linecap="round" stroke-linejoin="round" stroke-miterlimit="10" d="
	M373.9,120.6c12.2-6.7,26.1-12.8,39.7-9.7c10.6,2.4,19,10.1,28.1,16c24.5,16.2,56.4,22.3,84.3,18.6"/>
<text transform="matrix(1 0 0 1 24.0813 65.8191)" fill="#009444" font-family="'PermanentMarker'" font-size="30.74px">how i plan to get fit</text>
<path fill="none" stroke="#009444" stroke-width="7" stroke-linecap="round" stroke-linejoin="round" stroke-miterlimit="10" d="
	M61.8,328.9h168.7c15.1,0,30.8-0.5,44.1-7.7c13.3-7.2,24.4-17.7,35.2-28.3c40.4-40,77.7-83.1,111.5-128.9
	c9.9-13.4,19.6-27.2,32.6-37.6s31.5-16.1,46.4-15.5c14.9,0.6,25.6,3.5,25.6,3.5"/>
<text transform="matrix(1 0 0 1 24.0814 34.7932)" fill="#662D91" font-family="'PermanentMarker'" font-size="30.74px">how i actually do it</text>
<path fill="none" stroke="#662D91" stroke-width="7" stroke-linecap="round" stroke-linejoin="round" stroke-miterlimit="10" d="
	M60.4,330.1c4.1-7,8.4-14.1,14.8-19.1s15.8-7.3,23.1-3.6c10.4,5.2,14.6,20.9,26.3,21.3c15.9,0.5,20.6-27.9,36.5-26.4
	c14.3,1.3,16.1,25.7,30.3,27.3c15.5,1.7,20.7-25.3,36.3-25.4c14.4-0.1,20.5,22.9,34.9,22c7.4-0.5,12.3-7.2,16.6-13.1
	s10.2-12.2,17.5-11.2c12.6,1.8,14.7,23.1,27.5,23.8c12.6,0.7,16.9-19.8,29.5-21c14-1.3,19.5,21.7,33.5,22.2
	c15,0.6,20.5-24.4,35.5-24c13.4,0.4,17.9,20.8,31.2,22.9c6.7,1.1,13.1-3.2,17.7-8.1c4.6-4.9,8.3-10.7,13.9-14.5s14.1-4.7,18.7,0.2"
	/>
</svg>
