<?xml version="1.0" encoding="utf-8"?>
<!-- Generator: Adobe Illustrator 19.2.0, SVG Export Plug-In . SVG Version: 6.00 Build 0)  -->
<svg version="1.1" id="Layer_1" xmlns="http://www.w3.org/2000/svg" xmlns:xlink="http://www.w3.org/1999/xlink" x="0px" y="0px"
	 width="641.98px" height="393.78px" viewBox="0 0 641.98 393.78" enable-background="new 0 0 641.98 393.78" xml:space="preserve">
<path fill="none" stroke="#FFFFFF" stroke-width="120" stroke-linejoin="bevel" stroke-miterlimit="10" d="M23.61,15.85
	c-2.96,18.31-5.92,36.62-8.88,54.93C34.36,59.92,53.99,49.06,73.62,38.2C29.1,97.01,4.82,170.86,5.75,244.62
	c29.35-27.17,58.71-54.35,88.06-81.52C58.99,234.27,33.49,310,18.16,387.73c13.91-0.17,24.07-13.89,27.33-27.42
	c3.26-13.52,2-27.83,5.29-41.34c3.29-13.52,13.52-27.21,27.43-27.29c0.56,10.42,1.28,21.37,6.91,30.16
	c5.63,8.79,17.94,14.23,26.86,8.8c8.85-5.4,9.82-17.65,9.8-28.02c-0.05-22.32-0.1-44.63-0.15-66.95
	c12.77,35.54,46.31,62.73,83.73,67.87c-27.21-54.47-64.04-104.11-108.28-145.95c-8.11-7.67-16.78-15.53-20.55-26.04
	c-3.77-10.51-0.56-24.5,9.81-28.66c12.52-5.03,25.15,6.36,33.88,16.65c28.38,33.46,56.77,66.92,85.15,100.37
	c12.31,14.51,30.51,30.53,47.84,22.69c13.88-6.28,17.46-24.85,14.21-39.72c-3.25-14.88-11.29-28.47-13.71-43.51
	c-1.76-10.93,2.42-25.35,13.46-26.24c8.11-0.66,14.45,6.55,19.33,13.06c17.85,23.79,35.7,47.58,53.55,71.37
	c1.47-35.25,2.95-70.5,4.42-105.75c0.28-6.72,1.58-14.92,7.9-17.23c6.78-2.48,13.29,3.92,17.7,9.64
	c14.82,19.25,29.64,38.5,44.46,57.74c-16.07-49.48-32.13-98.97-48.2-148.45c84.94-30.74,177.76-39.41,266.92-24.93
	c-19.2,29.89-57.49,40.72-92.78,44.78c-35.3,4.06-72.51,4.11-103.66,21.19c-10.55,5.78-21.14,18.47-14.49,28.49
	c5.93,8.93,19.48,6.41,29.6,2.87c29.24-10.25,58.48-20.5,87.72-30.75c0.79,4.8,1.59,9.61,2.38,14.41
	c-62.74,38.63-125.49,77.26-188.23,115.89c-11.71,7.21-23.63,14.6-32.47,25.12c-8.84,10.52-14.25,24.91-10.7,38.19
	c4.38,16.41,21.92,27.07,38.9,26.99c16.98-0.08,32.92-9.13,44.93-21.12s20.74-26.82,29.48-41.38c3.68-6.12,7.6-12.46,13.68-16.22
	c6.07-3.76,14.95-4.03,19.65,1.35c4.56,5.22,3.53,13.15,5.78,19.7c3.76,10.96,16.75,16.63,28.27,15.36
	c11.52-1.27,21.71-7.92,30.76-15.16c9.5-7.59,18.38-16.08,28.93-22.12c10.54-6.05,23.33-9.47,34.95-5.89
	c11.62,3.58,20.95,15.77,18.37,27.64c-3.79,17.43-26.42,21.53-44.25,21.94c-42.16,0.95-84.31,1.9-126.47,2.84
	c-27.27,0.61-59.9,4.43-72.08,28.85c-9.63,19.32-0.84,43.42,13.85,59.25c22.56,24.31,58.89,34.86,90.96,26.43
	c8.49-2.23,17.22-5.71,25.77-3.72c8.55,1.99,15.46,12.88,9.89,19.67c-3.59,4.38-10.09,4.63-15.76,4.52
	c-146.59-2.92-293.19-5.83-439.78-8.75"/>
<g>
	
		<line fill="none" stroke="#000000" stroke-width="7" stroke-linecap="round" stroke-linejoin="round" stroke-miterlimit="10" x1="35.3" y1="49.27" x2="35.3" y2="383.95"/>
	
		<line fill="none" stroke="#000000" stroke-width="7" stroke-linecap="round" stroke-linejoin="round" stroke-miterlimit="10" x1="12.8" y1="361.95" x2="478.49" y2="361.95"/>
	
		<polyline fill="none" stroke="#000000" stroke-width="7" stroke-linecap="round" stroke-linejoin="round" stroke-miterlimit="10" points="
		12.8,71.27 35.3,49.27 57.8,71.27 	"/>
	<text transform="matrix(1 0 0 1 29.3531 34.7195)" font-family="'PermanentMarker'" font-size="30.74px">y</text>
	
		<polyline fill="none" stroke="#000000" stroke-width="7" stroke-linecap="round" stroke-linejoin="round" stroke-miterlimit="10" points="
		456.49,339.45 478.49,361.95 456.49,384.45 	"/>
	<text transform="matrix(1 0 0 1 491.152 369.5718)" font-family="'PermanentMarker'" font-size="30.74px">x</text>
</g>
<g>
	<path fill="none" stroke="#602D91" stroke-width="7" stroke-linecap="round" stroke-linejoin="round" stroke-miterlimit="10" d="
		M50.05,341.27c0.37,0.71,1.61,0.66,1.92-0.08c0.31-0.74-0.53-1.66-1.29-1.42"/>
	<path fill="none" stroke="#602D91" stroke-width="7" stroke-linecap="round" stroke-linejoin="round" stroke-miterlimit="10" d="
		M79.43,337.57c1.24,0.4,2.58-1.2,1.96-2.35c-1.13-0.57-2.7,0.28-2.86,1.53"/>
	<path fill="none" stroke="#602D91" stroke-width="7" stroke-linecap="round" stroke-linejoin="round" stroke-miterlimit="10" d="
		M66.8,312.04c0.91,0.77,2.27,0.97,3.35,0.48c0.56-0.89-0.06-2.26-1.09-2.44"/>
	<path fill="none" stroke="#602D91" stroke-width="7" stroke-linecap="round" stroke-linejoin="round" stroke-miterlimit="10" d="
		M98.95,304.78c0.02,0.39,0.04,0.79,0.06,1.18c0.92,0,1.84-0.01,2.76-0.01c0.64-1.06-0.88-2.56-1.93-1.9"/>
	<path fill="none" stroke="#602D91" stroke-width="7" stroke-linecap="round" stroke-linejoin="round" stroke-miterlimit="10" d="
		M115.81,329.7c0.94-0.24,1.93-0.5,2.61-1.2s0.84-1.98,0.08-2.58s-2.18,0.35-1.68,1.18"/>
	<path fill="none" stroke="#602D91" stroke-width="7" stroke-linecap="round" stroke-linejoin="round" stroke-miterlimit="10" d="
		M109,293.89c0.54,0.47,1.56,0.01,1.57-0.7c0.01-0.72-0.99-1.2-1.55-0.74"/>
	<path fill="none" stroke="#602D91" stroke-width="7" stroke-linecap="round" stroke-linejoin="round" stroke-miterlimit="10" d="
		M111.83,269.99c1.09-0.13,2.19-0.26,3.28-0.39c0.06-1.51-2.26-2.4-3.24-1.24"/>
	<path fill="none" stroke="#602D91" stroke-width="7" stroke-linecap="round" stroke-linejoin="round" stroke-miterlimit="10" d="
		M136.29,273.63c-0.25,1.08,1.18,2.11,2.12,1.53c-0.07-0.39-0.14-0.77-0.21-1.16"/>
	<path fill="none" stroke="#602D91" stroke-width="7" stroke-linecap="round" stroke-linejoin="round" stroke-miterlimit="10" d="
		M135.08,303.95c0.02,0.53,0.05,1.06,0.07,1.58c1.1,0.57,2.53-0.96,1.88-2.01c-0.39,0.07-0.78,0.15-1.17,0.22"/>
	<path fill="none" stroke="#602D91" stroke-width="7" stroke-linecap="round" stroke-linejoin="round" stroke-miterlimit="10" d="
		M162.74,282.99c0.99,0.76,2.4,0.93,3.54,0.43c-0.42-1.06-1.9-1.52-2.84-0.89"/>
	<path fill="none" stroke="#602D91" stroke-width="7" stroke-linecap="round" stroke-linejoin="round" stroke-miterlimit="10" d="
		M182.63,296.15c0.38,0.77,1.48,1.08,2.2,0.61c0.38-0.84-0.71-1.89-1.54-1.47"/>
	<path fill="none" stroke="#602D91" stroke-width="7" stroke-linecap="round" stroke-linejoin="round" stroke-miterlimit="10" d="
		M198.21,262.42c0.02,0.67,0.04,1.34,0.06,2.01c0.93,0,1.85,0,2.78,0c0-0.65,0-1.3,0-1.95c-0.67-0.02-1.34-0.04-2.01-0.06"/>
	<path fill="none" stroke="#602D91" stroke-width="7" stroke-linecap="round" stroke-linejoin="round" stroke-miterlimit="10" d="
		M163.86,264.09c-0.08,1.42,2.05,2.31,3.01,1.27c0.96-1.05-0.12-3.09-1.52-2.89"/>
	<path fill="none" stroke="#602D91" stroke-width="7" stroke-linecap="round" stroke-linejoin="round" stroke-miterlimit="10" d="
		M183.12,251.67c0.37,0.96,1.59,1.49,2.54,1.1c0.53-1.27-0.62-2.9-1.99-2.83"/>
	<path fill="none" stroke="#602D91" stroke-width="7" stroke-linecap="round" stroke-linejoin="round" stroke-miterlimit="10" d="
		M179.22,231.24c0.32,1.2,2.03,1.76,2.99,0.97s0.76-2.57-0.36-3.12"/>
	<path fill="none" stroke="#602D91" stroke-width="7" stroke-linecap="round" stroke-linejoin="round" stroke-miterlimit="10" d="
		M220.18,227.57c0.66,0.6,1.78,0.61,2.45,0.02c0.68-0.58,0.83-1.69,0.33-2.43c-0.64-0.4-1.61,0.01-1.78,0.74"/>
	<path fill="none" stroke="#602D91" stroke-width="7" stroke-linecap="round" stroke-linejoin="round" stroke-miterlimit="10" d="
		M199.97,218.07c-0.41,0.39,0.05,1.23,0.59,1.1c0.48-0.72,0.17-1.83-0.61-2.2"/>
	<path fill="none" stroke="#602D91" stroke-width="7" stroke-linecap="round" stroke-linejoin="round" stroke-miterlimit="10" d="
		M230.61,245.82c1.29,0.21,2.49-1.33,1.99-2.53c-0.53,0.06-1.07,0.13-1.6,0.19"/>
	<path fill="none" stroke="#602D91" stroke-width="7" stroke-linecap="round" stroke-linejoin="round" stroke-miterlimit="10" d="
		M240.43,203.7c0.94,0.48,2.01-1.09,1.23-1.79c-0.36-0.06-0.71-0.13-1.07-0.19"/>
	<path fill="none" stroke="#602D91" stroke-width="7" stroke-linecap="round" stroke-linejoin="round" stroke-miterlimit="10" d="
		M211.57,193.98c0.72,1.09,2.83,0.34,2.7-0.96c-0.13-1.3-2.34-1.62-2.84-0.41"/>
	<path fill="none" stroke="#602D91" stroke-width="7" stroke-linecap="round" stroke-linejoin="round" stroke-miterlimit="10" d="
		M218.07,170.62c-0.18,1.21,1.46,2.22,2.46,1.52c0.43-0.98-0.48-2.27-1.55-2.19"/>
	<path fill="none" stroke="#602D91" stroke-width="7" stroke-linecap="round" stroke-linejoin="round" stroke-miterlimit="10" d="
		M255.11,243.31c0.04,0.51,0.07,1.03,0.11,1.54c0.54,0.42,1.43,0.24,1.77-0.35c0.34-0.59,0.05-1.45-0.58-1.71"/>
	<path fill="none" stroke="#602D91" stroke-width="7" stroke-linecap="round" stroke-linejoin="round" stroke-miterlimit="10" d="
		M278.27,226.79c0.54,0.62,1.77,0.25,1.88-0.57c0.11-0.82-0.99-1.49-1.67-1.03"/>
	<path fill="none" stroke="#602D91" stroke-width="7" stroke-linecap="round" stroke-linejoin="round" stroke-miterlimit="10" d="
		M268.82,199.29c0.02,0.53,0.04,1.07,0.06,1.6c1.21,0,2.42,0,3.62,0c0-0.51,0-1.02,0-1.53c-0.4-0.16-0.8-0.32-1.2-0.49"/>
	<path fill="none" stroke="#602D91" stroke-width="7" stroke-linecap="round" stroke-linejoin="round" stroke-miterlimit="10" d="
		M264.25,183.5c0.02,0.39,0.04,0.79,0.06,1.18c0.93,0,1.85,0,2.78,0c0-0.65,0-1.3,0-1.95c-0.67-0.02-1.34-0.04-2.01-0.06"/>
	<path fill="none" stroke="#602D91" stroke-width="7" stroke-linecap="round" stroke-linejoin="round" stroke-miterlimit="10" d="
		M243.5,177.38c0.57-0.1,0.99-0.72,0.88-1.28c-0.11-0.57-0.74-0.98-1.3-0.85"/>
	<path fill="none" stroke="#602D91" stroke-width="7" stroke-linecap="round" stroke-linejoin="round" stroke-miterlimit="10" d="
		M288.39,160.98c0.58,0.3,1.38,0,1.62-0.61s-0.17-1.37-0.8-1.53"/>
	<path fill="none" stroke="#602D91" stroke-width="7" stroke-linecap="round" stroke-linejoin="round" stroke-miterlimit="10" d="
		M356.97,147.58c0.89,0.46,2.14-0.38,2.06-1.38s-1.44-1.62-2.25-1.03"/>
	<path fill="none" stroke="#602D91" stroke-width="7" stroke-linecap="round" stroke-linejoin="round" stroke-miterlimit="10" d="
		M316.86,178.74c-0.6,0.76-0.25,2.07,0.66,2.43c0.91,0.35,2.06-0.37,2.13-1.34s-0.95-1.86-1.9-1.65"/>
	<path fill="none" stroke="#602D91" stroke-width="7" stroke-linecap="round" stroke-linejoin="round" stroke-miterlimit="10" d="
		M314.51,136.99c0.02,0.67,0.04,1.34,0.06,2.01c0.64-0.01,1.28-0.01,1.92-0.02c0.62-1.03-0.37-2.59-1.57-2.46"/>
	<path fill="none" stroke="#602D91" stroke-width="7" stroke-linecap="round" stroke-linejoin="round" stroke-miterlimit="10" d="
		M305.79,202.6c1.04,0.39,2.18-1.06,1.56-1.98c-0.52-0.03-1.05-0.06-1.57-0.09"/>
	<path fill="none" stroke="#602D91" stroke-width="7" stroke-linecap="round" stroke-linejoin="round" stroke-miterlimit="10" d="
		M348.98,186.41c0.83-0.05,1.66-0.1,2.49-0.16c-0.67-0.41-1.33-0.81-2-1.22"/>
	<path fill="none" stroke="#602D91" stroke-width="7" stroke-linecap="round" stroke-linejoin="round" stroke-miterlimit="10" d="
		M375.14,144.46c0.03,0.52,0.07,1.03,0.1,1.55c0.85,0.61,2.25,0.01,2.39-1.03s-1.05-1.99-2.03-1.63"/>
	<path fill="none" stroke="#602D91" stroke-width="7" stroke-linecap="round" stroke-linejoin="round" stroke-miterlimit="10" d="
		M264.6,150.94c1.49-0.03,2.52-2.04,1.65-3.26c-0.61-0.4-1.56,0.07-1.63,0.79"/>
	<path fill="none" stroke="#602D91" stroke-width="7" stroke-linecap="round" stroke-linejoin="round" stroke-miterlimit="10" d="
		M294.06,126.38c1.24,1.05,3.51-0.47,3.01-2.02c-0.45-0.02-0.91-0.04-1.36-0.06"/>
	<path fill="none" stroke="#602D91" stroke-width="7" stroke-linecap="round" stroke-linejoin="round" stroke-miterlimit="10" d="
		M315.02,101.69c0.74,1.1,2.59,1.15,3.39,0.1c-0.91-0.1-1.82-0.21-2.73-0.31"/>
	<path fill="none" stroke="#602D91" stroke-width="7" stroke-linecap="round" stroke-linejoin="round" stroke-miterlimit="10" d="
		M336.07,163.88c0.76,0.27,1.52,0.54,2.29,0.8c0.01-0.44,0.02-0.88,0.03-1.31c-0.45-0.03-0.9-0.06-1.35-0.08"/>
	<path fill="none" stroke="#602D91" stroke-width="7" stroke-linecap="round" stroke-linejoin="round" stroke-miterlimit="10" d="
		M388.05,173.84c0.41,1.07,2.33,0.93,2.57-0.2c0.24-1.12-1.44-2.05-2.26-1.25"/>
	<path fill="none" stroke="#602D91" stroke-width="7" stroke-linecap="round" stroke-linejoin="round" stroke-miterlimit="10" d="
		M410.61,152.29c-0.67,1.19,0.87,2.84,2.1,2.25c1.23-0.58,0.93-2.82-0.42-3.06"/>
	<path fill="none" stroke="#602D91" stroke-width="7" stroke-linecap="round" stroke-linejoin="round" stroke-miterlimit="10" d="
		M345.68,115.53c0.19,0.85,1.37,1.27,2.06,0.74c-0.08-0.73-0.17-1.47-0.25-2.2"/>
	<path fill="none" stroke="#602D91" stroke-width="7" stroke-linecap="round" stroke-linejoin="round" stroke-miterlimit="10" d="
		M353.14,83.31c-1.13,1.13,0.3,3.48,1.82,2.99s1.33-3.23-0.25-3.49"/>
	<path fill="none" stroke="#602D91" stroke-width="7" stroke-linecap="round" stroke-linejoin="round" stroke-miterlimit="10" d="
		M388.66,103.81c1.09,1.29,3.65,0.43,3.73-1.26c-0.5-0.03-0.99-0.07-1.49-0.1"/>
</g>
<path fill="none" stroke="#00A9A3" stroke-width="7" stroke-linecap="round" stroke-linejoin="round" stroke-miterlimit="10" d="
	M48.23,350.97c144.79-87.04,281.05-188.24,406.23-301.7"/>
<g>
	<text transform="matrix(1 0 0 1 345.1501 22.321)"><tspan x="0" y="0" fill="#00A9A3" font-family="'PermanentMarker'" font-size="30.74px">linear regress</tspan><tspan x="219.38" y="0" fill="#00A9A3" font-family="'PermanentMarker'" font-size="30.74px">i</tspan><tspan x="228.63" y="0" fill="#00A9A3" font-family="'PermanentMarker'" font-size="30.74px">on</tspan></text>
	<path fill="none" stroke="#000000" stroke-width="7" stroke-linecap="round" stroke-linejoin="round" stroke-miterlimit="10" d="
		M509.54,34.16c21.06-0.28,42.13-0.56,63.19-0.84c-8.9-0.36-17.82-0.02-26.66,1.01c-2.77,0.32-5.63,0.75-7.95,2.3
		c-2.32,1.54-3.92,4.53-3,7.16c1.97,5.69,12.03,3.95,14.66,9.36c1.88,3.85-1.78,8.39-5.87,9.68c-4.09,1.29-8.53,0.62-12.76,1.33
		c-15.83,2.66-22.67,22.29-36.93,29.67c-13.28,6.87-31.81-0.24-37.09-14.23"/>
	<path fill="none" stroke="#000000" stroke-width="7" stroke-linecap="round" stroke-linejoin="round" stroke-miterlimit="10" d="
		M452.69,88.52c0.53-4.11,1.05-8.23,1.58-12.34c4.41,1.35,8.81,2.69,13.22,4.04"/>
</g>
<g>
	<path fill="none" stroke="#F4783B" stroke-width="7" stroke-linecap="round" stroke-linejoin="round" stroke-miterlimit="10" d="
		M74.92,82.81c85.29,76.33,180.37,140.79,275.12,205c29.77,20.17,59.54,40.35,89.32,60.52"/>
	<text transform="matrix(1 0 0 1 378.8189 225.9642)"><tspan x="0" y="0" fill="#F4783B" font-family="'PermanentMarker'" font-size="30.74px">a</tspan><tspan x="17.86" y="0" fill="#F4783B" font-family="'PermanentMarker'" font-size="30.74px" letter-spacing="-2">l</tspan><tspan x="31.79" y="0" fill="#F4783B" font-family="'PermanentMarker'" font-size="30.74px">t</tspan><tspan x="46.53" y="0" fill="#F4783B" font-family="'PermanentMarker'" font-size="30.74px">e</tspan><tspan x="62.26" y="0" fill="#F4783B" font-family="'PermanentMarker'" font-size="30.74px">rn</tspan><tspan x="96.24" y="0" fill="#F4783B" font-family="'PermanentMarker'" font-size="30.74px" letter-spacing="-1">a</tspan><tspan x="112.57" y="0" fill="#F4783B" font-family="'PermanentMarker'" font-size="30.74px">tive </tspan><tspan x="179.49" y="0" fill="#F4783B" font-family="'PermanentMarker'" font-size="30.74px">f</tspan><tspan x="193.18" y="0" fill="#F4783B" font-family="'PermanentMarker'" font-size="30.74px">acts</tspan></text>
	<path fill="none" stroke="#000000" stroke-width="7" stroke-linecap="round" stroke-linejoin="round" stroke-miterlimit="10" d="
		M384.07,236.36c21.65,0.63,43.3,1.27,64.95,1.9c-14.11-1.75-28.55-0.76-42.28,2.9c-2.42,0.65-4.9,1.42-6.77,3.09
		s-2.93,4.48-1.88,6.75c1.88,4.05,8.3,3.39,11.18,6.8c2.73,3.24,0.63,8.59-3.02,10.73c-3.65,2.15-8.14,2.04-12.38,1.96
		c-13.12-0.24-26.26,0.45-39.28,2.06"/>
	<path fill="none" stroke="#000000" stroke-width="7" stroke-linecap="round" stroke-linejoin="round" stroke-miterlimit="10" d="
		M358.48,264.36c-2.34,3.01-4.67,6.02-7.01,9.03c4.96,0.52,9.71,2.84,13.15,6.44"/>
</g>
</svg>
