<?xml version="1.0" encoding="utf-8"?>
<!-- Generator: Adobe Illustrator 18.0.0, SVG Export Plug-In . SVG Version: 6.00 Build 0)  -->
<!DOCTYPE svg PUBLIC "-//W3C//DTD SVG 1.1//EN" "http://www.w3.org/Graphics/SVG/1.1/DTD/svg11.dtd">
<svg version="1.1" id="Layer_1" xmlns="http://www.w3.org/2000/svg" xmlns:xlink="http://www.w3.org/1999/xlink" x="0px" y="0px"
	 viewBox="0 0 507 288" enable-background="new 0 0 507 288" xml:space="preserve">
<path fill="none" stroke="#FFFFFF" stroke-width="120" stroke-linejoin="bevel" stroke-miterlimit="10" d="M41.5-3.9
	c-16.9,33.5-25.9,71-26.1,108.5c19.3,5.9,39.6-6.7,52.4-22.2s21.3-34.5,35.6-48.7s37.8-22.7,54.5-11.5
	C127.9,58.8,97.7,95.6,74,136.7s-40.7,86.8-42.2,134.1c39.2-46.1,78.5-92.1,117.7-138.2c35.6-41.8,71.8-84.1,116.6-116
	c13.5,6,10.9,26,4.5,39.3s-14.6,29.6-6,41.5c5.8,8.1,17.5,10,27,7.3c9.6-2.7,17.5-9.2,25.2-15.5c25.4-20.9,50.8-41.8,76.3-62.7
	c12.2-10,27.4-20.6,42.3-15.7c17.1,5.7,21.6,27.3,23.3,45.3c5.8,61.2,11.6,122.4,17.4,183.5c1.1,12,1.2,26.5-8.7,33.3
	c-10.8,7.5-26.6-0.3-33-11.8c-6.5-11.5-6.8-25.2-8.9-38.2c-5.1-31.1-22.1-60.1-46.7-79.8c-13.6,34.3-28.2,68.3-43.8,101.8
	c-4.2,9.1-8.7,18.4-16,25.2c-7.3,6.9-18.1,11-27.5,7.6c-10.7-3.8-16.3-15.3-20.8-25.8c-21.5-50.3-42.9-100.6-64.4-150.8
	c-13.9,21.8-19.6,47.7-26.3,72.7c-6.7,25,10.7,57.2-7.2,75.9s-73.7,21.5-96.3,8.9c1.9,4.2,3.7,8.4,5.6,12.6"/>
<g>
	
		<line fill="none" stroke="#010101" stroke-width="7" stroke-linecap="round" stroke-linejoin="round" stroke-miterlimit="10" x1="29.9" y1="283" x2="29.9" y2="34"/>
	
		<line fill="none" stroke="#010101" stroke-width="7" stroke-linecap="round" stroke-linejoin="round" stroke-miterlimit="10" x1="7.4" y1="260.5" x2="490.1" y2="260.5"/>
	
		<polyline fill="none" stroke="#010101" stroke-width="7" stroke-linecap="round" stroke-linejoin="round" stroke-miterlimit="10" points="
		7.4,56 29.9,34 52.4,56 	"/>
	
		<polyline fill="none" stroke="#010101" stroke-width="7" stroke-linecap="round" stroke-linejoin="round" stroke-miterlimit="10" points="
		468.1,238 490.1,260.5 468.1,283 	"/>
	<text transform="matrix(1 0 0 1 438.6329 227.4929)" fill="#010101" font-family="'PermanentMarker'" font-size="30.74">time</text>
</g>
<g>
	<g>
		<text transform="matrix(1 0 0 1 3.352 22.5503)" font-family="'PermanentMarker'" font-size="30.74">how okay i am</text>
	</g>
</g>
<path fill="none" stroke="#39B54A" stroke-width="7" stroke-linecap="round" stroke-linejoin="round" stroke-miterlimit="10" d="
	M32.7,84c2.4-8.3,11.7-13.6,20-11.5c9.8,2.5,16.5,11,25.7,14.8c17.3,7.3,26.6-10.9,40.4-17c15.8-6.9,29.1,8.2,43.4,12.2
	c18.2,5,36.2-6,50.5-16.1"/>
<g>
	<path fill="none" stroke="#000000" stroke-width="7" stroke-linecap="round" stroke-linejoin="round" stroke-miterlimit="10" d="
		M219.3,65c0.4-0.9,0.9-1.7,0.2-2.8c-0.7-1.1-5.2-1.4-6.8,0.5c-1.6,2-1.2,5.3,0.9,6.8c1.9,0.7,4.1-0.9,4.2-2.9"/>
	<path fill="none" stroke="#000000" stroke-width="7" stroke-linecap="round" stroke-linejoin="round" stroke-miterlimit="10" d="
		M224.4,53.3c1.4-4.7,3.4-9.6,7.7-12c7-3.9,16.6,0.7,23.5-3.4"/>
</g>
<text transform="matrix(1 0 0 1 265.0001 44.9927)"><tspan x="0" y="0" font-family="'PermanentMarker'" font-size="30.74">someone asks</tspan><tspan x="0" y="30" font-family="'PermanentMarker'" font-size="30.74">me if i’m okay</tspan></text>
<path fill="none" stroke="#39B54A" stroke-width="7" stroke-linecap="round" stroke-linejoin="round" stroke-miterlimit="10" d="
	M217.9,76.8c5.7,45.1,6.9,90.6,15.3,135.3c2,10.4,3.3,22.1,9.3,31c8.7,12.8,23,4.5,29.6-6c9-14.3,15.1-38.2,36.3-37.6
	c10.1,0.3,17.5,7.4,26.5,10.8c7.4,2.8,15.4,2,21.5-3.2c10.2-8.6,12.4-23.1,20.1-33.4c4.3-5.7,10.4-9.6,17.7-9.4
	c7.4,0.2,14.3,3.8,21.1,6.3c6.2,2.3,12.8,4.3,19.4,2.9c6.8-1.5,12.8-5.4,17.4-10.5c9.7-11,13.1-26.1,15.9-40.1"/>
</svg>
