<?xml version="1.0" encoding="utf-8"?>
<!-- Generator: Adobe Illustrator 19.2.0, SVG Export Plug-In . SVG Version: 6.00 Build 0)  -->
<svg version="1.1" id="Layer_1" xmlns="http://www.w3.org/2000/svg" xmlns:xlink="http://www.w3.org/1999/xlink" x="0px" y="0px"
	 width="547.96px" height="350.64px" viewBox="0 0 547.96 350.64" enable-background="new 0 0 547.96 350.64" xml:space="preserve">
<path fill="none" stroke="#FFFFFF" stroke-width="120" stroke-linejoin="bevel" stroke-miterlimit="10" d="M34.33,52.03
	c-12.65-6.8-30.77,2.1-33.11,16.27s11.94,28.44,26.1,26.07c7.81-1.3,14.32-6.53,20.43-11.56c24.11-19.87,48.22-39.74,72.32-59.61
	c-15.85,26.11-31.7,52.23-47.55,78.34c-5.59,9.21-11.31,20.56-6.46,30.17c5.03,9.95,19.39,11.77,29.32,6.71s16.46-14.82,22.53-24.17
	c22.8-35.13,45.61-70.27,68.41-105.4c4.52-6.96,10.89-14.82,19.11-13.66c7.29,1.03,11.68,9.32,11.18,16.66
	c-0.51,7.35-4.52,13.91-8.25,20.26c-53.67,91.3-68.94,204.39-41.39,306.65c1.82,6.77,5.45,14.84,12.45,15.1
	c9.1,0.34,12.1-11.99,11.94-21.09c-1.57-88.88-12.4-180.2,14.61-264.89c4.11-12.88,12.23-27.78,25.74-27.56
	c12.07,0.19,19.8,12.39,26.09,22.7c26.1,42.78,66.01,77,112.27,96.26c20.66,8.6,44.18,15.55,56.38,34.31
	c10.11,15.54,9.8,35.43,14.96,53.24s21.47,36.03,39.29,30.9c15.61-4.49,21.26-23.26,24.42-39.19c4.61-23.22,9.23-46.43,13.84-69.65
	c2.64-13.28,4.4-29.35-5.84-38.21c-9.11-7.88-22.87-5.65-34.61-2.97c-71.13,16.25-142.27,32.51-213.4,48.76
	c-8.04,1.84-16.27,3.75-23.21,8.2c-6.94,4.45-12.47,12.03-12.16,20.28c0.42,11.21,11.46,19.6,22.54,21.35
	c11.08,1.75,22.27-1.38,33.24-3.74c71.92-15.47,150.43,3.34,207.53,49.71c14.17,11.5,28.2,29.45,21.17,46.29
	c-7.36,17.63-31.21,19.43-50.29,18.43c-78.66-4.15-157.32-8.31-235.98-12.46c-8.29-0.44-18.4-2.17-21.13-10.01
	c-2.19-6.3,2.24-13.36,8.17-16.43c5.92-3.07,12.89-3.15,19.56-3.17c76.45-0.17,152.91-0.33,229.36-0.5"/>
<line fill="none" stroke="#000000" stroke-width="7" stroke-linecap="round" stroke-linejoin="round" stroke-miterlimit="10" x1="202.54" y1="10.62" x2="202.54" y2="305.89"/>
<line fill="none" stroke="#000000" stroke-width="7" stroke-linecap="round" stroke-linejoin="round" stroke-miterlimit="10" x1="171.57" y1="285.18" x2="515.18" y2="285.18"/>
<text transform="matrix(1 0 0 1 152.9484 335.241)"><tspan x="0" y="0" font-family="'PermanentMarker'" font-size="30.74px">how many issues </tspan><tspan x="255.92" y="0" font-family="'PermanentMarker'" font-size="30.74px">y</tspan><tspan x="267.29" y="0" font-family="'PermanentMarker'" font-size="30.74px">o</tspan><tspan x="286.03" y="0" font-family="'PermanentMarker'" font-size="30.74px">u h</tspan><tspan x="333.28" y="0" font-family="'PermanentMarker'" font-size="30.74px" letter-spacing="-1">a</tspan><tspan x="349.91" y="0" font-family="'PermanentMarker'" font-size="30.74px">ve</tspan></text>
<text transform="matrix(1 0 0 1 8.0571 66.5312)"><tspan x="0" y="0" font-family="'PermanentMarker'" font-size="30.74px"># of p</tspan><tspan x="93.81" y="0" font-family="'PermanentMarker'" font-size="30.74px">e</tspan><tspan x="109.54" y="0" font-family="'PermanentMarker'" font-size="30.74px">o</tspan><tspan x="128.27" y="0" font-family="'PermanentMarker'" font-size="30.74px">ple</tspan><tspan x="17.05" y="30" font-family="'PermanentMarker'" font-size="30.74px">willing </tspan><tspan x="143.67" y="30" font-family="'PermanentMarker'" font-size="30.74px">t</tspan><tspan x="157.48" y="30" font-family="'PermanentMarker'" font-size="30.74px">o</tspan><tspan x="5.52" y="60" font-family="'PermanentMarker'" font-size="30.74px" letter-spacing="-1">t</tspan><tspan x="18.73" y="60" font-family="'PermanentMarker'" font-size="30.74px">alk </tspan><tspan x="84.2" y="60" font-family="'PermanentMarker'" font-size="30.74px">t</tspan><tspan x="98.01" y="60" font-family="'PermanentMarker'" font-size="30.74px">o </tspan><tspan x="128.72" y="60" font-family="'PermanentMarker'" font-size="30.74px">y</tspan><tspan x="140.1" y="60" font-family="'PermanentMarker'" font-size="30.74px">o</tspan><tspan x="158.83" y="60" font-family="'PermanentMarker'" font-size="30.74px">u</tspan></text>
<polyline fill="none" stroke="#000000" stroke-width="7" stroke-linecap="round" stroke-linejoin="round" stroke-miterlimit="10" points="
	180.04,32.62 202.54,10.62 225.04,32.62 "/>
<polyline fill="none" stroke="#000000" stroke-width="7" stroke-linecap="round" stroke-linejoin="round" stroke-miterlimit="10" points="
	495.7,262.68 517.7,285.18 495.7,307.68 "/>
<path fill="none" stroke="#F15A22" stroke-width="7" stroke-linecap="round" stroke-linejoin="round" stroke-miterlimit="10" d="
	M215.45,43.89c89.11,76.67,178.23,153.34,267.34,230.01"/>
<path fill="none" stroke="#000000" stroke-width="7" stroke-linecap="round" stroke-linejoin="round" stroke-miterlimit="10" d="
	M377.33,175.06c1.07,5.88,2.14,11.76,3.21,17.64"/>
<path fill="none" stroke="#000000" stroke-width="7" stroke-linecap="round" stroke-linejoin="round" stroke-miterlimit="10" d="
	M369.7,188.52c5.9-3.19,11.8-6.38,17.69-9.56"/>
<path fill="none" stroke="#000000" stroke-width="7" stroke-linecap="round" stroke-linejoin="round" stroke-miterlimit="10" d="
	M373.07,198.62c-1.25,4.21,0.89,8.68,3.55,12.18c2.66,3.49,5.96,6.63,7.59,10.71c3.47,8.7-2.46,19.2-11.12,22.78
	c-8.66,3.58-18.85,1.37-26.87-3.48s-14.3-12.04-20.45-19.12"/>
<text transform="matrix(1 0 0 1 234.6662 210.4123)"><tspan x="0" y="0" font-family="'PermanentMarker'" font-size="30.74px">l</tspan><tspan x="16.39" y="0" font-family="'PermanentMarker'" font-size="30.74px">o</tspan><tspan x="34.79" y="0" font-family="'PermanentMarker'" font-size="30.74px">v</tspan><tspan x="49.71" y="0" font-family="'PermanentMarker'" font-size="30.74px">e</tspan><tspan x="65.44" y="0" font-family="'PermanentMarker'" font-size="30.74px">rs</tspan></text>
<path fill="none" stroke="#000000" stroke-width="7" stroke-linecap="round" stroke-linejoin="round" stroke-miterlimit="10" d="
	M468.13,253.48c-0.26,6.57-0.52,13.14-0.77,19.7"/>
<path fill="none" stroke="#000000" stroke-width="7" stroke-linecap="round" stroke-linejoin="round" stroke-miterlimit="10" d="
	M459.09,267.64c5.32-3.69,10.65-7.39,15.97-11.08"/>
<path fill="none" stroke="#000000" stroke-width="7" stroke-linecap="round" stroke-linejoin="round" stroke-miterlimit="10" d="
	M477.21,244.2c-2.95-1.2-4.08-5.05-3.18-8.1c0.9-3.05,3.3-5.41,5.79-7.4c2.48-1.99,5.18-3.8,7.08-6.35c4.29-5.76,3.45-14.09,0-20.38
	c-3.45-6.3-9.05-11.08-14.34-15.93s-10.55-10.17-12.94-16.94"/>
<text transform="matrix(1 0 0 1 388.4199 158.9005)"><tspan x="0" y="0" font-family="'PermanentMarker'" font-size="30.74px">th</tspan><tspan x="32.63" y="0" font-family="'PermanentMarker'" font-size="30.74px">e</tspan><tspan x="48.36" y="0" font-family="'PermanentMarker'" font-size="30.74px">rapists</tspan></text>
</svg>
