<?xml version="1.0" encoding="utf-8"?>
<!-- Generator: Adobe Illustrator 19.2.0, SVG Export Plug-In . SVG Version: 6.00 Build 0)  -->
<svg version="1.1" id="Layer_1" xmlns="http://www.w3.org/2000/svg" xmlns:xlink="http://www.w3.org/1999/xlink" x="0px" y="0px"
	 width="487.6px" height="281.8px" viewBox="0 0 487.6 281.8" enable-background="new 0 0 487.6 281.8" xml:space="preserve">
<path fill="none" stroke="#FFFFFF" stroke-width="120" stroke-linejoin="bevel" stroke-miterlimit="10" d="M107.1,23.8
	c-21.1,4.3-39.3,18.1-53,34.7s-23.4,36.1-32.9,55.4c-0.8,24.5,8.2,49.1,24.6,67.3s39.9,29.8,64.3,31.8c31.4,2.7,62.8-10.1,86.7-30.6
	c15.6-13.3,28.9-31.4,29.6-51.9c0.6-18.2-8.6-35.1-17.6-50.9c-6.5-11.5-13.1-23.1-22.1-32.8c-9-9.7-20.6-17.5-33.7-19.4
	c-26.3-3.7-50.8,18.1-59.5,43.2s-5.3,52.6-1.9,79c16.3-14,28.5-32.9,34.5-53.5c2,22,4,44,6,66c14.1-28.4,31.6-55.1,52-79.3
	c5.9-7,13.7-14.5,22.7-12.9c8.3,1.5,13.4,10.6,13.2,19s-4.5,16.1-8.8,23.3s-9.1,14.5-10.5,22.8c5-9.6,10.1-19.1,15.1-28.7
	c-5.5,14.3-11,28.7-16.5,43c-2.4,6.3-4.1,14.9,1.6,18.4c4.4,2.7,10.5-0.2,13-4.8c2.5-4.5,2.3-10,1.8-15.2
	c-1.1-12.9-3.4-25.7-2.2-38.6c1.2-12.9,6.4-26.1,17-33.4c14.6-10,35.6-5.5,49,6c15.8,13.6,23.3,36.5,17.8,56.7s-23.9,36.3-44.6,38.6
	c-15,1.6-32.3-5.5-36.6-20c-2.9-9.7,0.4-20.1,4.8-29.2c15.8-32.9,46-58.5,81-68.8c10.9-3.2,25-3.9,31.2,5.7c3.7,5.7,3,13.4,0.4,19.7
	c-2.6,6.3-6.8,11.8-10,17.9c-9.6,18.1-9.5,40.9,0.2,58.9c21.4-27.2,37.7-57.9,54-88.5c-12,32.6-23.9,65.1-35.9,97.7
	c19.6-22.1,39.3-44.1,58.9-66.2c-4.7,19.4-9.5,38.9-14.2,58.3c3.9,5.5,12.5,5.3,18.3,1.8c5.8-3.4,9.9-9.1,14.9-13.6
	c5-4.5,12.1-8,18.4-5.6c8.7,3.3,10.3,14.6,10.5,23.9c0.5,23.2,1,46.4,1.5,69.6c0.2,7.7-0.5,16.9-7.3,20.5
	c-7.1,3.7-15.3-1.4-22.6-4.6c-16.2-7.1-35-4.5-51.9,0.7c-16.9,5.3-33,13.2-50.3,16.8c-8.1,1.7-16.7,2.4-24.6,0
	c-7.9-2.4-15.2-8.3-17.4-16.3c-3.7-13.2,7.9-26.8,21.2-30.4c13.3-3.6,27.3-0.1,40.6,3.4c-9.1,8.5-18.4,17.2-29.4,23.1
	c-11,5.9-24.3,8.7-36.2,4.9c-16.1-5.1-26.2-20.7-34.3-35.6c-13.3-24.2-24.9-49.3-34.8-75.1"/>
<g id="Arrow_right">
</g>
<path fill="none" stroke="#000000" stroke-width="7" stroke-linecap="round" stroke-linejoin="round" stroke-miterlimit="10" d="
	M250.1,75.4c-65.3-2.8-89.4,93.1-13.1,97.4c65.4,3.7,85.3-99.1,20.2-92.8"/>
<text transform="matrix(1 0 0 1 86.2988 116.7501)"><tspan x="0" y="0" font-family="'PermanentMarker'" font-size="30.74px">who</tspan><tspan x="-0.8" y="30" font-family="'PermanentMarker'" font-size="30.74px">i am</tspan></text>
<path fill="none" stroke="#000000" stroke-width="7" stroke-linecap="round" stroke-linejoin="round" stroke-miterlimit="10" d="
	M106.3,28.2C-19.2,54.9-9.2,228.4,127.8,218.3C296.3,205.8,208.2-12,114.4,23.2"/>
<text transform="matrix(1 0 0 1 314.804 101.7502)"><tspan x="0" y="0" font-family="'PermanentMarker'" font-size="30.74px">what</tspan><tspan x="0" y="30" font-family="'PermanentMarker'" font-size="30.74px">people</tspan><tspan x="0" y="60" font-family="'PermanentMarker'" font-size="30.74px">ask about</tspan></text>
<path fill="none" stroke="#F4BB3A" stroke-width="7" stroke-linecap="round" stroke-linejoin="round" stroke-miterlimit="10" d="
	M210.6,96.9c-1.9,1-3.9,2-5.8,3c3.1,0.4,6.2,0.8,9.2,1.2c-3.7,1.6-7.5,3.3-11.2,4.9c4.4,0.2,8.8,0.4,13.2,0.6
	c-6.6,1.7-13.3,3.3-19.9,5c7,0,13.9,0,20.9,0c-6.9,1.9-13.7,3.8-20.6,5.7c6.7-0.1,13.5-0.3,20.2-0.4c-7.1,2.2-14.2,4.3-21.4,6.5
	c7.4-0.4,14.7-0.8,22.1-1.3c-7.6,2.7-15.1,5.3-22.7,8c7.6-0.5,15.1-0.9,22.7-1.4c-7.3,2.4-14.6,4.7-22,7.1c7.3-0.5,14.7-1,22-1.5
	c-6.8,2.5-13.5,4.9-20.3,7.4c6.7-0.6,13.3-1.1,20-1.7c-5.8,2.9-11.7,5.7-17.5,8.6c5.9-1,11.7-2,17.6-3c-5.1,2.4-10.1,4.9-15.2,7.3
	c4.5-0.7,9-1.4,13.5-2.2c-3.2,2.2-6.4,4.4-9.6,6.6c2.9-0.9,5.7-1.8,8.6-2.7c-1.4,1.5-2.7,3.1-4.1,4.6"/>
<g>
	<path fill="none" stroke="#000000" stroke-width="7" stroke-linecap="round" stroke-linejoin="round" stroke-miterlimit="10" d="
		M221.4,180.9c8.1,8,13.2,19,13.9,30.4c0.3,4.2-0.1,8.6,1.4,12.6c1.9,5.3,6.8,9.1,12.1,11.1c5.3,2,11,2.4,16.6,2.9"/>
	<path fill="none" stroke="#000000" stroke-width="7" stroke-linecap="round" stroke-linejoin="round" stroke-miterlimit="10" d="
		M219.9,187.5c0-2.6,0-5.2-0.1-7.8c2.8,0.9,5.7,1.9,8.5,2.8"/>
	<text transform="matrix(1 0 0 1 273.342 232.8076)"><tspan x="0" y="0" font-family="'PermanentMarker'" font-size="30.74px">first</tspan><tspan x="0" y="30" font-family="'PermanentMarker'" font-size="30.74px">impressions</tspan></text>
</g>
<g id="Arrow_up">
</g>
</svg>
