<?xml version="1.0" encoding="utf-8"?>
<!-- Generator: Adobe Illustrator 19.2.0, SVG Export Plug-In . SVG Version: 6.00 Build 0)  -->
<svg version="1.1" id="Layer_1" xmlns="http://www.w3.org/2000/svg" xmlns:xlink="http://www.w3.org/1999/xlink" x="0px" y="0px"
	 width="711.98px" height="522.2px" viewBox="0 0 711.98 522.2" enable-background="new 0 0 711.98 522.2" xml:space="preserve">
<path fill="none" stroke="#FFFFFF" stroke-width="120" stroke-linejoin="bevel" stroke-miterlimit="10" d="M62.75,14.33
	c0.4,11.58,0.8,23.15,1.2,34.73c43.78-16.59,87.56-33.19,131.34-49.78c-2.97,16.71-5.94,33.41-8.91,50.12
	c28.54-11.64,57.08-23.28,85.62-34.93c-3.95,11.02-7.96,22.57-6.37,34.17c1.59,11.6,10.75,23.06,22.46,22.99
	c14.25-0.09,22.66-15.26,32.66-25.41c17.57-17.82,47.75-21.43,69.03-8.26c-75.86,34.98-161.22,49.11-244.3,40.44
	c-30.98-3.23-62.81-9.49-92.78-1.02S-4.3,115.54,3.22,145.77c75.6-43.44,166.44-59.73,252.43-45.25
	c-55.32,41.82-127.67,51.7-196.5,60.2c-20.58,2.54-41.16,5.08-61.74,7.62c82.73-1.51,165.46-3.02,248.18-4.53
	c-17.72,34.32-60.63,47.63-99.25,47.57c-38.63-0.06-76.99-9.97-115.52-7.2c-8.43,0.61-17.77,2.36-22.73,9.2
	c-6.43,8.86-1.67,22.27,7.26,28.6s20.52,7.28,31.47,7.38c39.36,0.35,78.78-7.83,114.76-23.8c15.73-6.98,37.7-13.87,47.15,0.52
	c6.76,10.3,0.21,25.07-10.36,31.4s-23.57,6.55-35.9,6.59c-34.83,0.1-69.66,0.19-104.49,0.29c-14.47,0.04-32.02,1.94-38.12,15.06
	c-5.61,12.07,3.2,26.87,15.22,32.58s26,4.79,39.26,3.75c33.94-2.66,67.89-5.31,101.83-7.97c14.9-1.17,30.41-2.52,43.24-10.18
	c12.83-7.66,22.01-23.68,16.91-37.73c15.45,12.23,30.89,24.47,46.34,36.7c-0.81-24.98-1.63-49.95-2.44-74.93
	c20.99,13.27,41.97,26.54,62.96,39.82c-3.62-27.76-7.24-55.53-10.86-83.29c11.36,13.61,22.71,27.23,34.07,40.84
	c4.48-25.68,8.96-51.35,13.44-77.03c11.6,10.95,23.2,21.9,34.79,32.84c5.35-7.3,6.47-16.81,6.74-25.86
	c0.27-9.04-0.11-18.32,2.83-26.88s10.25-16.4,19.29-16.69s17.56,10.18,13.16,18.08c1.93-15.05,3.85-30.1,5.78-45.15
	c27.68,17.35,55.36,34.69,83.04,52.04c17.62,11.04,37.58,26.66,35.08,47.3c-1.01,8.34-5.71,15.7-10.3,22.74
	c-24.61,37.78-49.21,75.56-73.82,113.34c23.32-17.38,46.63-34.76,69.95-52.14c-10.3,21.36-20.6,42.72-30.91,64.07
	c30.67-25.37,61.33-50.73,92-76.1c3.6,29.75-2.97,60.63-18.39,86.33c15.39-20.96,30.79-41.93,46.18-62.89
	c1.55,16.24,3.1,32.48,4.66,48.72c11.72-11.34,23.43-22.68,35.15-34.02c8.96,16.33,3.71,37.84-8.86,51.59
	c-12.57,13.75-30.98,20.8-49.31,24.12c-43.49,7.89-88.2-2.79-129.96-17.27c-41.76-14.48-82.45-32.9-125.85-41.26
	c-43.4-8.36-91.28-5.47-127.52,19.83c63.36,6.15,126.72,12.29,190.09,18.44c7.42,0.72,16.07,2.24,19.42,8.9
	c3.43,6.82-1.27,15.48-8.02,19.06c-6.75,3.58-14.78,3.44-22.41,3.22c-36.55-1.07-73.11-2.13-109.66-3.2
	c-20.4-0.6-45.53,1.61-53.8,20.27c66.44,3.35,132.89,6.7,199.33,10.06c-40.44,32.36-97.23,43.11-146.7,27.77
	c-17.17-5.33-34.07-13.66-52.04-12.87s-37.1,15.77-33.78,33.44c2.22,11.85,13.83,20.11,25.69,22.28
	c11.86,2.17,24.01-0.49,35.77-3.13c37.69-8.46,75.38-16.93,113.07-25.39c12-2.69,24.63-5.37,36.42-1.87
	c11.79,3.5,22.01,15.52,19,27.44c-2.9,11.49-15.62,17.07-26.8,21.03c-39.55,14.01-79.63,28.13-121.43,31.76
	c-36.03,3.13-72.22-1.65-108.06-6.41c-51.28-6.82-102.56-13.63-153.84-20.45c-8.96-1.19-18.38-2.57-25.52-8.1
	c-7.14-5.53-10.75-16.72-5.15-23.8c31.27,5.89,62.54,11.78,93.81,17.67c-8.81-19.98-17.01-45.17-2.97-61.89
	c15.16-18.04,43.82-11.97,66.11-4.32c-16.29-19.98-2.45-52.9,21.02-63.58s51.14-4.8,74.98,4.98c-0.85-29.66-1.7-59.32-2.55-88.98"/>
<g>
	<g>
		
			<line fill="none" stroke="#000000" stroke-width="7" stroke-linecap="round" stroke-linejoin="round" stroke-miterlimit="10" x1="247.42" y1="52.85" x2="247.42" y2="517.79"/>
		
			<polyline fill="none" stroke="#000000" stroke-width="7" stroke-linecap="round" stroke-linejoin="round" stroke-miterlimit="10" points="
			224.92,74.85 247.42,52.85 269.92,74.85 		"/>
	</g>
	<text transform="matrix(1 0 0 1 88.3205 39.7016)"><tspan x="0" y="0" font-family="'PermanentMarker'" font-size="30.74px">goodness in </tspan><tspan x="185.85" y="0" font-family="'PermanentMarker'" font-size="30.74px">y</tspan><tspan x="197.23" y="0" font-family="'PermanentMarker'" font-size="30.74px">o</tspan><tspan x="215.96" y="0" font-family="'PermanentMarker'" font-size="30.74px">ur life</tspan></text>
</g>
<g>
	<g>
		
			<line fill="none" stroke="#000000" stroke-width="7" stroke-linecap="round" stroke-linejoin="round" stroke-miterlimit="10" x1="19.3" y1="305.21" x2="511.29" y2="305.21"/>
		
			<polyline fill="none" stroke="#000000" stroke-width="7" stroke-linecap="round" stroke-linejoin="round" stroke-miterlimit="10" points="
			489.29,282.71 511.29,305.21 489.29,327.71 		"/>
	</g>
	<text transform="matrix(1 0 0 1 521.3 297.4499)"><tspan x="0" y="0" font-family="'PermanentMarker'" font-size="30.74px">exp</tspan><tspan x="47.73" y="0" font-family="'PermanentMarker'" font-size="30.74px">e</tspan><tspan x="63.46" y="0" font-family="'PermanentMarker'" font-size="30.74px">c</tspan><tspan x="79.25" y="0" font-family="'PermanentMarker'" font-size="30.74px" letter-spacing="-1">ta</tspan><tspan x="108.79" y="0" font-family="'PermanentMarker'" font-size="30.74px">t</tspan><tspan x="123.53" y="0" font-family="'PermanentMarker'" font-size="30.74px">i</tspan><tspan x="132.78" y="0" font-family="'PermanentMarker'" font-size="30.74px">ons</tspan><tspan x="0" y="30" font-family="'PermanentMarker'" font-size="30.74px">a</tspan><tspan x="17.26" y="30" font-family="'PermanentMarker'" font-size="30.74px">b</tspan><tspan x="34.88" y="30" font-family="'PermanentMarker'" font-size="30.74px">o</tspan><tspan x="53.62" y="30" font-family="'PermanentMarker'" font-size="30.74px">ut life</tspan></text>
</g>
<line fill="none" stroke="#00A9A3" stroke-width="7" stroke-linecap="round" stroke-linejoin="round" stroke-miterlimit="10" x1="44.58" y1="509.21" x2="478.94" y2="74.85"/>
<g>
	<g>
		
			<text transform="matrix(0.7071 -0.7071 0.7071 0.7071 307.8394 238.0501)" fill="#F4783B" font-family="'PermanentMarker'" font-size="30.74px">happy</text>
	</g>
	<g>
		
			<text transform="matrix(0.7071 -0.7071 0.7071 0.7071 340.3997 247.5689)" fill="#602D91" font-family="'PermanentMarker'" font-size="30.74px">sad</text>
	</g>
</g>
<g>
	<g>
		<path fill="none" stroke="#F4783B" stroke-width="7" stroke-linecap="round" stroke-linejoin="round" stroke-miterlimit="10" d="
			M57.29,85.65c-8.47,10.72-16.95,21.43-25.42,32.15"/>
		<path fill="none" stroke="#F4783B" stroke-width="7" stroke-linecap="round" stroke-linejoin="round" stroke-miterlimit="10" d="
			M76.08,90.71c-11.9,15.87-30.57,37.63-42.47,53.5"/>
		<path fill="none" stroke="#F4783B" stroke-width="7" stroke-linecap="round" stroke-linejoin="round" stroke-miterlimit="10" d="
			M107.91,88.22c-24.36,23.61-54.18,59.68-72.65,86.91"/>
		<path fill="none" stroke="#F4783B" stroke-width="7" stroke-linecap="round" stroke-linejoin="round" stroke-miterlimit="10" d="
			M126.81,88.66c-26.11,35.12-65.45,85.62-91.56,120.74"/>
		<path fill="none" stroke="#F4783B" stroke-width="7" stroke-linecap="round" stroke-linejoin="round" stroke-miterlimit="10" d="
			M150.25,88.72c-32.17,43.81-82.82,111.36-114.99,155.17"/>
		<path fill="none" stroke="#F4783B" stroke-width="7" stroke-linecap="round" stroke-linejoin="round" stroke-miterlimit="10" d="
			M179.61,88.42C142.87,144.74,79.24,220.94,35.26,271.81"/>
		<path fill="none" stroke="#F4783B" stroke-width="7" stroke-linecap="round" stroke-linejoin="round" stroke-miterlimit="10" d="
			M207.94,88.72c-54.08,67-104.79,136.09-158.87,203.1"/>
		<path fill="none" stroke="#F4783B" stroke-width="7" stroke-linecap="round" stroke-linejoin="round" stroke-miterlimit="10" d="
			M230.46,94.92c-52.1,67.29-104.2,134.59-156.29,201.88"/>
		<path fill="none" stroke="#F4783B" stroke-width="7" stroke-linecap="round" stroke-linejoin="round" stroke-miterlimit="10" d="
			M232.81,127.67c-39.76,54.48-79.51,108.97-119.27,163.45"/>
		<path fill="none" stroke="#F4783B" stroke-width="7" stroke-linecap="round" stroke-linejoin="round" stroke-miterlimit="10" d="
			M234.36,164.51c-29.62,41.7-59.24,83.4-88.86,125.1"/>
		<path fill="none" stroke="#F4783B" stroke-width="7" stroke-linecap="round" stroke-linejoin="round" stroke-miterlimit="10" d="
			M234.13,205.73c-20.37,28.21-40.73,56.42-61.1,84.63"/>
		<path fill="none" stroke="#F4783B" stroke-width="7" stroke-linecap="round" stroke-linejoin="round" stroke-miterlimit="10" d="
			M232.78,244.25c-14.69,13.99-27.09,30.37-36.59,48.3"/>
		<path fill="none" stroke="#F4783B" stroke-width="7" stroke-linecap="round" stroke-linejoin="round" stroke-miterlimit="10" d="
			M233.52,267.59c-6.85,9.01-13.69,18.02-20.54,27.04"/>
		<path fill="none" stroke="#F4783B" stroke-width="7" stroke-linecap="round" stroke-linejoin="round" stroke-miterlimit="10" d="
			M237.78,283.74c-2.84,3.91-5.67,7.81-8.51,11.72"/>
		<path fill="none" stroke="#FFFFFF" stroke-width="32" stroke-linecap="round" stroke-linejoin="round" stroke-miterlimit="10" d="
			M66.15,178.2c49.55-3.07,99.1-6.15,148.66-9.22c-1.14,6.29-6.44,11.19-12.36,13.62s-12.44,2.81-18.83,3.16
			c-26.71,1.47-53.42,2.94-80.12,4.41c-6.41,0.35-14.64,2.34-15.26,8.73c-0.42,4.31,3.47,8.06,7.67,9.11
			c4.2,1.05,8.6,0.11,12.85-0.71c29.43-5.68,62.21-0.57,90.31,7.9"/>
	</g>
	<text transform="matrix(1 0 0 1 73.8112 184.1268)"><tspan x="0" y="0" font-family="'PermanentMarker'" font-size="30.74px">epi</tspan><tspan x="42" y="0" font-family="'PermanentMarker'" font-size="30.74px">c</tspan><tspan x="56.86" y="0" font-family="'PermanentMarker'" font-size="30.74px">urean</tspan><tspan x="16.38" y="30" font-family="'PermanentMarker'" font-size="30.74px">ni</tspan><tspan x="43.57" y="30" font-family="'PermanentMarker'" font-size="30.74px">rv</tspan><tspan x="73.26" y="30" font-family="'PermanentMarker'" font-size="30.74px">ana</tspan></text>
</g>
<g>
	<g>
		<path fill="none" stroke="#602D91" stroke-width="7" stroke-linecap="round" stroke-linejoin="round" stroke-miterlimit="10" d="
			M261.62,313.2c-2.06,2.61-4.12,5.22-6.17,7.83"/>
		<path fill="none" stroke="#602D91" stroke-width="7" stroke-linecap="round" stroke-linejoin="round" stroke-miterlimit="10" d="
			M278.88,314.07c-8.84,7.08-16.14,16.06-21.25,26.16"/>
		<path fill="none" stroke="#602D91" stroke-width="7" stroke-linecap="round" stroke-linejoin="round" stroke-miterlimit="10" d="
			M304.27,313.19c-17.62,13.93-32.79,30.96-44.6,50.07"/>
		<path fill="none" stroke="#602D91" stroke-width="7" stroke-linecap="round" stroke-linejoin="round" stroke-miterlimit="10" d="
			M330.2,315.35c-27.54,20.26-50.56,46.64-66.9,76.68"/>
		<path fill="none" stroke="#602D91" stroke-width="7" stroke-linecap="round" stroke-linejoin="round" stroke-miterlimit="10" d="
			M349.58,317.95c-30.02,36.78-60.04,73.56-90.05,110.34"/>
		<path fill="none" stroke="#602D91" stroke-width="7" stroke-linecap="round" stroke-linejoin="round" stroke-miterlimit="10" d="
			M379.79,313.55c-16.73,22.43-33.45,44.86-50.18,67.29c-21.99,29.49-43.98,58.98-66.57,88.02"/>
		<path fill="none" stroke="#602D91" stroke-width="7" stroke-linecap="round" stroke-linejoin="round" stroke-miterlimit="10" d="
			M415.18,313.67c-49.94,59.05-96.4,121.05-139.05,185.57"/>
		<path fill="none" stroke="#602D91" stroke-width="7" stroke-linecap="round" stroke-linejoin="round" stroke-miterlimit="10" d="
			M439.78,316.22c-42.52,60.51-85.04,121.02-127.57,181.53"/>
		<path fill="none" stroke="#602D91" stroke-width="7" stroke-linecap="round" stroke-linejoin="round" stroke-miterlimit="10" d="
			M471.84,318.56c-42.34,61.2-84.68,122.4-127.02,183.61"/>
		<path fill="none" stroke="#602D91" stroke-width="7" stroke-linecap="round" stroke-linejoin="round" stroke-miterlimit="10" d="
			M475.12,360.69c-13.39,17.86-26.47,35.95-39.26,54.24c-12.78,18.3-25.27,36.8-37.44,55.52c-6.82,10.49-13.55,21.04-20.17,31.65"/>
		<path fill="none" stroke="#602D91" stroke-width="7" stroke-linecap="round" stroke-linejoin="round" stroke-miterlimit="10" d="
			M473.01,404.44c-23.43,33.55-46.86,67.09-70.29,100.64"/>
		<path fill="none" stroke="#602D91" stroke-width="7" stroke-linecap="round" stroke-linejoin="round" stroke-miterlimit="10" d="
			M475.3,434.03c-16.3,23.19-32.6,46.39-48.91,69.58"/>
		<path fill="none" stroke="#602D91" stroke-width="7" stroke-linecap="round" stroke-linejoin="round" stroke-miterlimit="10" d="
			M476.22,472.54c-7.83,9.97-15.66,19.95-23.49,29.92"/>
		<path fill="none" stroke="#602D91" stroke-width="7" stroke-linecap="round" stroke-linejoin="round" stroke-miterlimit="10" d="
			M476.35,499.42c-1.58,1.8-3.17,3.6-4.75,5.4"/>
		<path fill="none" stroke="#FFFFFF" stroke-width="39" stroke-linecap="round" stroke-linejoin="round" stroke-miterlimit="10" d="
			M323.26,397.55c27.71-1.61,54.62-4.51,81.84-1.17c3.43,0.42,7.64,1.52,8.34,4.9c0.83,4.03-4.06,6.65-8.03,7.73
			c-27.16,7.43-55.47,10.62-83.6,9.44c-3.8-0.16-9.16,1.16-8.62,4.93c0.42,2.87,4.07,3.75,6.96,3.96
			c30.42,2.26,59.63-2.44,90.91-2.7"/>
	</g>
	<text transform="matrix(1 0 0 1 325.4841 404.4417)"><tspan x="0" y="0" font-family="'PermanentMarker'" font-size="30.74px">naive</tspan><tspan x="-8.6" y="30" font-family="'PermanentMarker'" font-size="30.74px">mis</tspan><tspan x="40.54" y="30" font-family="'PermanentMarker'" font-size="30.74px">e</tspan><tspan x="56.27" y="30" font-family="'PermanentMarker'" font-size="30.74px">r</tspan><tspan x="72.3" y="30" font-family="'PermanentMarker'" font-size="30.74px">y</tspan></text>
</g>
</svg>
