 
 
 
<svg version="1.1" id="Layer_1" xmlns="http://www.w3.org/2000/svg" xmlns:xlink="http://www.w3.org/1999/xlink" x="0px" y="0px"
	 viewBox="0 0 768.7 400" enable-background="new 0 0 768.7 400" xml:space="preserve">
<path stroke="#FFFFFF" stroke-width="120" d="
	M67.9-19.2C41.4,65.9,14.9,151-11.6,236.2c5.5,4.6,14,3.4,19.8-0.8c5.8-4.2,9.3-10.7,12.4-17.1C48.4,161.1,58.3,96.4,87.5,39.9
	C99,17.8,118.6-5.5,143.4-2.4c10.4,23.3,4.8,50.8-6,73.9s-26.4,43.8-36.8,67.1c-13.8,30.7-18.3,64.8-27.7,97.2
	C58,286.6,30.4,335,29.1,388c9,1.7,15.7-8,19.7-16.3C93.2,280.8,135.5,188.9,175.6,96c14.4-33.3,29.3-67.8,56.5-91.7
	c3.2-2.8,6.9-5.6,11.2-5.4c8.4,0.2,12,10.7,12.9,19.1c7.8,75.7-26.2,148.7-59.3,217.2c5.9,12.8,24.4,15.2,36.7,8.3
	c12.3-6.9,19.4-20.2,25.1-33.1c29.7-68.2,35.5-150,87.7-202.9c1.9-2,4-3.9,6.5-5c6.9-3,15.2,1.4,19.1,7.8c3.9,6.4,4.5,14.2,4.9,21.7
	c3.2,59.8,1.1,119.8-6.3,179.2c-1.3,10.3-2.7,20.9,0.1,30.9s10.9,19.3,21.3,19.9c12.2,0.7,21.9-10.3,27-21.5
	c8.9-19.6,9.9-41.7,11.6-63.2c1.6-20,3.9-40,6.9-59.9c0.8-5,1.6-10.1,4.2-14.4c6.8-11.3,22.2-13.1,35.3-13.6
	c77.8-3.2,155.6-6.5,233.4-2.9c8.9,0.4,18.1,1,25.9,5.1c7.9,4.1,14.1,12.8,12.5,21.5c-2.3,12.7-17.8,17.4-30.7,18.7
	c-57.4,6-116.6-4.4-172.5,10.2c-14.5,3.8-31.2,12.7-31,27.7c0.1,9.3,7.4,17.4,15.9,21.2s18.1,4.3,27.4,4.7c44.5,2,89,4,133.5,6
	c4.9,0.2,10.6,0.8,13.4,4.9c3.8,5.5-0.6,13-5.5,17.5c-18.2,16.5-44.7,19.6-69.3,20c-58.5,1-118.4-8.3-174.7,7.8"/>
<g>
	
		<line stroke-width="7" x1="40.8" y1="388" x2="40.8" y2="55"/>
	<text transform="matrix(1 0 0 1 16.9457 32.2422)" font-family="'PermanentMarker'" font-size="31">how good of a person i am</text>
	<path d="
		M21.9,16.9c0.2,0.7-2.3,13.6-2.3,13.6 M19.7,30.5c0,0,1.1-4.8,6.4-5.4c4.1-0.4,5.2-2,5.3-2.6c0.1-0.6,1.1-7,1.1-7 M30.2,30
		c0,0,2.4-13.8,2.3-14.5"/>
	<path d="
		M47.2,15.6c0,0-14.7,9-9.7,13.2c4.6,3.9,12.7-1.2,12.9-3.1c0.2-1.9-1.8-6.8-4.3-8.9"/>
	<path d="
		M69.1,18.4C65.3,28.2,58,31.2,57.4,29.5c-0.6-1.6,2-12.2,2.7-12.7 M69.1,18.4c-0.9,3.3-0.7,12.4,2.5,11.6
		c3.8-0.9,6.1-11.9,7.5-12.8"/>
	<path d="
		M106,15.5c-1.4-0.5-14.3,9.2-11.4,12.7c2.9,3.5,17.8-0.9,16.4-2.4c-1-1.1-3.8-3.9-4.6-3.2"/>
	<path d="
		M124.2,15.6c0,0-14.7,9-9.7,13.2c4.6,3.9,12.7-1.2,12.9-3.1c0.2-1.9-1.8-6.8-4.3-8.9"/>
	<path d="
		M144.2,15.6c0,0-14.7,9-9.7,13.2c4.6,3.9,12.7-1.2,12.9-3.1c0.2-1.9-1.8-6.8-4.3-8.9"/>
	<path d="
		M154.1,18.5c1,3.6,0.7,6.5-0.6,12.1 M153.5,30.5c16.1-5.5,11.7-10.9,0.6-14.9"/>
	<path d="
		M190.2,15.6c0,0-14.7,9-9.7,13.2c4.6,3.9,12.7-1.2,12.9-3.1c0.2-1.9-1.8-6.8-4.3-8.9"/>
	<path d="
		M200.8,31.2c-0.9-0.9,2.8-14.1,2.8-14.1 M213.7,15.2c-2.7-0.9-13.1,2.6-13.1,2.6 M198.2,24.1c0.4,0.6,11.6-0.3,11.6-0.3"/>
	<path d="
		M224,29.4c0,0,4.3-11.2,8.8-13.6c0,0,5.6,12.6,2,14.5 M229.5,26.1c0,0,4.9-0.1,9-2.1"/>
	<path d="
		M255.4,30.7c0.5-1.2,2.4-13.5,3.9-14.6c2.3-1.6,12.6,1.3,6,5.8c-5,3.3-10.5,0.2-10.5,0.2"/>
	<path d="
		M280.9,28.7c0,0-9.3,3.2-10.4,0.3c-1.1-2.9,3.6-9.2,2.8-10.6 M282.5,15.2c0,0-10.8,1.4-11,2.6 M272,22.7c0,0,6.6,0.2,7.3-0.4"/>
	<path d="
		M287.8,19.9c0.1,0.6-1.8,10-1.8,10 M298.5,30.5c-5.9,0.2-9.5-5.3-9.5-5.3s6.9-2.1,7.7-3.6c0.9-1.7-1.5-5.5-2.9-5.9
		c-1.4-0.4-5.2,5.3-5.2,5.3"/>
	<path d="
		M315.3,15.6c-1.6-1-12.1,1.8-12.2,3.4c-0.1,1.6,8.4,1.7,9,5.2c0.5,2.9-6.9,6.4-8.3,5.7"/>
	<path d="
		M327.2,15.6c0,0-14.7,9-9.7,13.2c4.6,3.9,12.7-1.2,12.9-3.1c0.2-1.9-1.8-6.8-4.3-8.9"/>
	<path d="
		M335.1,29.5c-0.2-0.9,5.3-13.4,5.3-13.4 M340.3,16.1c-0.8,2,0,14.6,3.8,12.9c3.5-1.6,3.5-12.4,4.5-13"/>
	<path d="
		M369.4,16.2c-0.4,0.5-2.5,11.2-1.2,14.6"/>
	<path d="
		M385,29.4c0,0,4.3-11.2,8.8-13.6c0,0,5.6,12.6,2,14.5 M390.5,26.1c0,0,4.9-0.1,9-2.1"/>
	<path d="
		M402.6,31.4c-0.2-1.2,4.8-15.5,6.6-14.9c2.2,0.7-0.6,7.8,3.4,8.2c3.9,0.4,8.6-7.7,9.8-7.4c1.6,0.4-1.2,12.3-1.8,13.7"/>
	
		<polyline stroke-width="7" points="
		17.9,76.8 40.4,54.8 62.9,76.8 	"/>
</g>
<g>
	
		<line stroke-width="7" x1="17.3" y1="151.5" x2="749.3" y2="151.5"/>
	
		<polyline stroke-width="7" points="
		726.9,128.8 748.9,151.3 726.9,173.8 	"/>
	<text transform="matrix(1 0 0 1 274.8637 102.3506)" font-family="'PermanentMarker'" font-size="31">how many people are watching</text>
	<path d="
		M281.9,86.9c0.2,0.7-2.3,13.6-2.3,13.6 M279.7,100.5c0,0,1.1-4.8,6.4-5.4c4.1-0.4,5.2-2,5.3-2.6c0.1-0.6,1.1-7,1.1-7 M290.2,100
		c0,0,2.4-13.8,2.3-14.5"/>
	<path d="
		M309.2,85.6c0,0-14.7,9-9.7,13.2c4.6,3.9,12.7-1.2,12.9-3.1c0.2-1.9-1.8-6.8-4.3-8.9"/>
	<path d="
		M329.1,88.4c-3.8,9.8-11.1,12.8-11.7,11.2c-0.6-1.6,2-12.2,2.7-12.7 M329.1,88.4c-0.9,3.3-0.7,12.4,2.5,11.6
		c3.8-0.9,6.1-11.9,7.5-12.8"/>
	<path d="
		M354.6,101.4c-0.2-1.2,4.8-15.5,6.6-14.9c2.2,0.7-0.6,7.8,3.4,8.2c3.9,0.4,8.6-7.7,9.8-7.4c1.6,0.4-1.2,12.3-1.8,13.7"/>
	<path d="
		M379,100.4c0,0,4.3-11.2,8.8-13.6c0,0,5.6,12.6,2,14.5 M384.5,97.1c0,0,4.9-0.1,9-2.1"/>
	<path d="
		M397.1,99.5c-0.2-0.9,5.3-13.4,5.3-13.4 M402.3,86.1c-0.8,2,0,14.6,3.8,12.9c3.5-1.6,3.5-12.4,4.5-13"/>
	<path d="
		M420.1,94.5c-2.6-0.7-4.3-7.4-4.1-8.1 M425.8,85.9c-1.8,1-9.8,15.6-9.8,15.6"/>
	<path d="
		M439.4,100.7c0.5-1.2,2.4-13.5,3.9-14.6c2.3-1.6,12.6,1.3,6,5.8c-5,3.3-10.5,0.2-10.5,0.2"/>
	<path d="
		M465.9,98.7c0,0-9.3,3.2-10.4,0.3c-1.1-2.9,3.6-9.2,2.8-10.6 M467.5,85.2c0,0-10.8,1.4-11,2.6 M457,92.7c0,0,6.6,0.2,7.3-0.4"/>
	<path d="
		M481.2,86.6c0,0-14.7,9-9.7,13.2c4.6,3.9,12.7-1.2,12.9-3.1c0.2-1.9-1.8-6.8-4.3-8.9"/>
	<path d="
		M490.4,100.7c0.5-1.2,2.4-13.5,3.9-14.6c2.3-1.6,12.6,1.3,6,5.8c-5,3.3-10.5,0.2-10.5,0.2"/>
	<path d="
		M509.5,86.4c0.5,1.3-4.7,12.2-3.8,13.8c0.9,1.5,9.1-1.7,11.4,0"/>
	<path d="
		M532.9,99.7c0,0-9.3,3.2-10.4,0.3c-1.1-2.9,3.6-9.2,2.8-10.6 M534.5,86.2c0,0-10.8,1.4-11,2.6 M524,93.7c0,0,6.6,0.2,7.3-0.4"/>
	<path d="
		M550,100.4c0,0,4.3-11.2,8.8-13.6c0,0,5.6,12.6,2,14.5 M555.5,97.1c0,0,4.9-0.1,9-2.1"/>
	<path d="
		M570.8,89.9c0.1,0.6-1.8,10-1.8,10 M581.5,100.5c-5.9,0.2-9.5-5.3-9.5-5.3s6.9-2.1,7.7-3.6c0.9-1.7-1.5-5.5-2.9-5.9
		c-1.4-0.4-5.2,5.3-5.2,5.3"/>
	<path d="
		M595.9,98.7c0,0-9.3,3.2-10.4,0.3c-1.1-2.9,3.6-9.2,2.8-10.6 M597.5,85.2c0,0-10.8,1.4-11,2.6 M587,92.7c0,0,6.6,0.2,7.3-0.4"/>
	<path d="
		M626.1,88.4c-3.8,9.8-11.1,12.8-11.7,11.2c-0.6-1.6,2-12.2,2.7-12.7 M626.1,88.4c-0.9,3.3-0.7,12.4,2.5,11.6
		c3.8-0.9,6.1-11.9,7.5-12.8"/>
	<path d="
		M638,99.4c0,0,4.3-11.2,8.8-13.6c0,0,5.6,12.6,2,14.5 M643.5,96.1c0,0,4.9-0.1,9-2.1"/>
	<path d="
		M653.8,86.7c0.6,0.3,14.7-2.4,16.3-1.8 M661.1,85.4c1.6,2.4-5.9,12.8-2.3,15.9"/>
	<path d="
		M679.2,86.3c-9.1,0.7-17.8,14.4-0.4,13.2"/>
	<path d="
		M687.9,86.9c0.2,0.7-2.3,13.6-2.3,13.6 M685.7,100.5c0,0,1.1-4.8,6.4-5.4c4.1-0.4,5.2-2,5.3-2.6c0.1-0.6,1.1-7,1.1-7 M696.2,100
		c0,0,2.4-13.8,2.3-14.5"/>
	<path d="
		M707.4,87.2c-0.4,0.5-2.5,11.2-1.2,14.6"/>
	<path d="
		M713.1,99.5c-0.2-0.9,5.3-13.4,5.3-13.4 M718.3,86.1c-0.8,2,0,14.6,3.8,12.9c3.5-1.6,3.5-12.4,4.5-13"/>
	<path d="
		M742,86.5c-1.4-0.5-14.3,9.2-11.4,12.7c2.9,3.5,17.8-0.9,16.4-2.4c-1-1.1-3.8-3.9-4.6-3.2"/>
</g>
<g>
	<path stroke="#231F20" stroke-width="7" d="M92,169.1
		c2,5.9,5.8,11,9.9,15.8c18.3,21.3,43.9,36.4,71.4,42"/>
	<text transform="matrix(1 0 0 1 190.9457 242.8232)" font-family="'PermanentMarker'" font-size="31">i’m me</text>
	<path d="
		M196.4,227.2c-0.4,0.5-2.5,11.2-1.2,14.6"/>
	<path d="
		M208.2,221.2c0.1,0.9-2.6,6-2.6,6"/>
	<path d="
		M208.6,242.4c-0.2-1.2,4.8-15.5,6.6-14.9c2.2,0.7-0.6,7.8,3.4,8.2c3.9,0.4,8.6-7.7,9.8-7.4c1.6,0.4-1.2,12.3-1.8,13.7"/>
	<path d="
		M245.6,242.4c-0.2-1.2,4.8-15.5,6.6-14.9c2.2,0.7-0.6,7.8,3.4,8.2c3.9,0.4,8.6-7.7,9.8-7.4c1.6,0.4-1.2,12.3-1.8,13.7"/>
	<path d="
		M281.9,240.7c0,0-9.3,3.2-10.4,0.3c-1.1-2.9,3.6-9.2,2.8-10.6 M283.5,227.2c0,0-10.8,1.4-11,2.6 M273,234.7c0,0,6.6,0.2,7.3-0.4"/>
</g>
<g>
	<text transform="matrix(1 0 0 1 361.3188 262.8232)" font-family="'PermanentMarker'" font-size="31">i’m no one</text>
	<path d="
		M367.4,246.2c-0.4,0.5-2.5,11.2-1.2,14.6"/>
	<path d="
		M379.2,240.2c0.1,0.9-2.6,6-2.6,6"/>
	<path d="
		M379.6,261.4c-0.2-1.2,4.8-15.5,6.6-14.9c2.2,0.7-0.6,7.8,3.4,8.2c3.9,0.4,8.6-7.7,9.8-7.4c1.6,0.4-1.2,12.3-1.8,13.7"/>
	<path d="
		M416.1,260.5c-0.2-0.9,5.3-13.4,5.3-13.4 M421.3,247.1c-0.8,2,0,14.6,3.8,12.9c3.5-1.6,3.5-12.4,4.5-13"/>
	<path d="
		M444.2,246.6c0,0-14.7,9-9.7,13.2c4.6,3.9,12.7-1.2,12.9-3.1c0.2-1.9-1.8-6.8-4.3-8.9"/>
	<path d="
		M475.2,246.6c0,0-14.7,9-9.7,13.2c4.6,3.9,12.7-1.2,12.9-3.1c0.2-1.9-1.8-6.8-4.3-8.9"/>
	<path d="
		M483.1,260.5c-0.2-0.9,5.3-13.4,5.3-13.4 M488.3,247.1c-0.8,2,0,14.6,3.8,12.9c3.5-1.6,3.5-12.4,4.5-13"/>
	<path d="
		M511.9,259.7c0,0-9.3,3.2-10.4,0.3c-1.1-2.9,3.6-9.2,2.8-10.6 M513.5,246.2c0,0-10.8,1.4-11,2.6 M503,253.7c0,0,6.6,0.2,7.3-0.4"/>
	<path stroke="#231F20" stroke-width="7" d="M535.5,242.9
		c12.1-14,29.9-21.7,47.7-26.8c17.8-5.1,36.3-8,53.5-14.8c17.2-6.8,33.6-18.4,40.9-35.4"/>
</g>
<path stroke="#00A89C" stroke-width="7" d="M44.9,378.8
	c0-92,11-185,57-267c18-31,58-52,93-57c34-4,51,11,77,29c28,20,60,33,93,43c111,33,233,14,348,24"/>
</svg>
