<?xml version="1.0" encoding="utf-8"?>
<!-- Generator: Adobe Illustrator 19.2.0, SVG Export Plug-In . SVG Version: 6.00 Build 0)  -->
<svg version="1.1" id="Layer_1" xmlns="http://www.w3.org/2000/svg" xmlns:xlink="http://www.w3.org/1999/xlink" x="0px" y="0px"
	 width="510.7px" height="400.4px" viewBox="0 0 510.7 400.4" enable-background="new 0 0 510.7 400.4" xml:space="preserve">
<symbol  id="Arrow_right_1_" viewBox="-25.5 -26 29 52">
	
		<polyline fill="none" stroke="#231F20" stroke-width="7" stroke-linecap="round" stroke-linejoin="round" stroke-miterlimit="10" points="
		-22,22.5 0,0 -22,-22.5 	"/>
</symbol>
<symbol  id="Arrow_up" viewBox="-26 -25.5 52 29">
	
		<polyline fill="none" stroke="#231F20" stroke-width="7" stroke-linecap="round" stroke-linejoin="round" stroke-miterlimit="10" points="
		-22.5,-22 0,0 22.5,-22 	"/>
</symbol>
<path fill="none" stroke="#FFFFFF" stroke-width="120" stroke-linejoin="bevel" stroke-miterlimit="10" d="M41.2,5.4
	C35.6,21.7,30,38,24.5,54.3C45.6,36.5,66.8,18.7,88,1C65.8,38.7,43.6,76.4,21.4,114.2c30.5-37.7,61-75.3,91.5-113
	C96.4,37.3,80,73.4,63.5,109.5C89.2,73,115,36.5,140.7,0c-6.3,24.8-12.6,49.6-18.9,74.5c21.3-21.8,42.6-43.5,63.9-65.3
	c-2.2,15.9-4.4,31.8-6.7,47.7C195,41,211,25.2,226.9,9.3c1.1,8.9,2.2,17.8,3.3,26.7c7.4-3.7,14.9-7.5,22.3-11.2
	c-6,22.7-25.8,39.6-47.6,48.2s-45.6,10.2-69,11.7c-27.7,1.8-55.5,3.6-83.2,5.4c0.5,61,1.1,122,1.6,183c0.1,11.4,0.1,23.5-5.5,33.5
	c-5.5,10-18.5,16.9-28.7,11.7c6.5,15.8,23.8,26.5,40.9,25.3c-1.5-10.1-3.1-20.2-4.6-30.4c-6.4,15.5,6,35.5,22.7,36.6
	c-5.3,20.2,4.5,43.4,22.7,53.7c-15.5-32.3-31-64.6-46.5-96.8c27.3,33.5,54.7,66.9,82,100.4c-23.5-37-47.1-74.1-70.6-111.1
	c39.5,31.2,74.2,68.3,102.7,109.9c-9.8-35.6-30-68.3-57.6-92.8c34.3,21.5,62.5,52.8,80.3,89.1c-10.7-34-28.3-65.8-51.6-92.9
	c33.6-1.2,65.5,27.5,67.9,61.1c0.5,7.5-0.2,15.4,2.9,22.2c3.1,6.8,12.1,11.8,18.3,7.4c7.5-5.3,3.3-17-1.5-24.9
	c-14.4-23.5-28.9-46.9-43.3-70.4c21.3,1.2,35.4,22.4,43.4,42.2c8,19.8,14.7,42.2,32.8,53.6c2.6-25.4-4.3-51.6-19-72.5
	c14.5-0.8,29,8.6,34.1,22.2c2.6-13,5.2-26,7.8-39c4.4,3.6,8.8,7.1,13.2,10.7c-2.9-8.8-5.9-17.5-8.8-26.3c7.5,4.5,15.3,9.2,20.5,16.3
	s7.4,17.2,2.9,24.7c-4.4,7.4-13.9,10.3-22.4,9.5c-8.5-0.8-16.4-4.7-24.2-8.3c-64.1-29.7-135.5-43.6-206.1-40.2
	c51-44.4,101.9-88.8,152.9-133.2c5.5-4.8,11.8-9.9,19.1-9.5c7.3,0.4,13.5,10.1,8.3,15.2c8.1-9.9,16.1-19.7,24.2-29.6
	c0.7,16.2,1.4,32.5,2.1,48.7c9.3-2.6,18.6-5.2,27.9-7.8c-3.5,5.9-7.2,12.1-7.8,19c-0.6,6.9,2.8,14.6,9.3,16.7
	c8.9,2.9,17.4-5.6,21.4-14c4-8.4,6.8-18.4,14.7-23.3c10.1,11.9,28.4,10.9,43.8,8.8c5.2-0.7,10.5-1.4,15.7-2.1c17-2.3,34-4.5,51-6.8
	c6.2,7,12.4,13.9,18.6,20.9c-71.4-21.8-142.8-43.6-214.2-65.4c-5.4,3.9-10.8,7.7-16.2,11.6c9.1-25,26.7-46.9,49.1-61.2
	c-1.7,7.3-3.4,14.7-2.4,22.1c0.9,7.4,5,14.8,11.8,17.7c6.9,2.9,16.3-0.6,17.9-7.8c-5.1,5.2,0.3,14.7,7.5,16.1
	c7.1,1.4,14.1-2.4,20.4-6c10.6-6.2,21.3-12.3,31.9-18.5c-0.3-6.6-5.1-12.8-11.4-14.9s-13.8,0.1-18,5.2
	c-5.9-13.7-11.7-27.4-17.6-41.2c19.5-3.9,40.9,8.4,47.2,27.3c9.5-13.7,18.9-27.5,28.4-41.2c4.5,15.8,18.6,28.5,34.8,31.3
	c16.2,2.8,33.7-4.5,43.3-17.9c12.6,5.4,25.1,10.7,37.7,16.1"/>
<g id="Arrow_right">
</g>
<g>
	
		<line fill="none" stroke="#231F20" stroke-width="7" stroke-linecap="round" stroke-linejoin="round" stroke-miterlimit="10" x1="53.6" y1="77.7" x2="53.6" y2="344.8"/>
	
		<line fill="none" stroke="#231F20" stroke-width="7" stroke-linecap="round" stroke-linejoin="round" stroke-miterlimit="10" x1="31.1" y1="322.3" x2="310" y2="322.3"/>
	
		<use xlink:href="#Arrow_up"  width="52" height="29" x="-26" y="-25.5" transform="matrix(1 0 0 -1 53.6041 77.4973)" overflow="visible"/>
	
		<use xlink:href="#Arrow_right_1_"  width="29" height="52" x="-25.5" y="-26" transform="matrix(1 0 0 -1 309.9953 322.2662)" overflow="visible"/>
</g>
<text transform="matrix(1 0 0 1 83.6884 361.2224)"><tspan x="0" y="0" fill="#231F20" font-family="'PermanentMarker'" font-size="30.74px">duration of</tspan><tspan x="1.2" y="30" fill="#231F20" font-family="'PermanentMarker'" font-size="30.74px">eye contact</tspan></text>
<text transform="matrix(1 0 0 1 27.1041 37.2798)"><tspan x="0" y="0" fill="#231F20" font-family="'PermanentMarker'" font-size="30.74px">odds of getting</tspan><tspan x="0" y="30" fill="#231F20" font-family="'PermanentMarker'" font-size="30.74px">physical</tspan></text>
<path fill="none" stroke="#BE1E2D" stroke-width="7" stroke-linecap="round" stroke-linejoin="round" stroke-miterlimit="10" d="
	M72,310.9c27.5-28.7,54.9-57.3,82.4-86c42.2-44.1,84.6-88.3,133.4-125"/>
<g>
	<path fill="none" stroke="#231F20" stroke-width="7" stroke-linecap="round" stroke-linejoin="round" stroke-miterlimit="10" d="
		M278.1,103.6c-2.1,4.4-4.2,8.9-6.3,13.3"/>
	<path fill="none" stroke="#231F20" stroke-width="7" stroke-linecap="round" stroke-linejoin="round" stroke-miterlimit="10" d="
		M271.3,105.6c2.5,3.2,5,6.4,7.5,9.6"/>
	<path fill="none" stroke="#231F20" stroke-width="7" stroke-linecap="round" stroke-linejoin="round" stroke-miterlimit="10" d="
		M288.3,114.3c5.8-2.4,12.9-1.5,17.9,2.3c3.8,2.9,6.4,7.3,10.5,9.8c5.8,3.6,13.7,2.6,19.3-1.3c5.6-3.9,9.1-10.2,10.9-16.8
		c1.8-6.6,2-13.5,2.2-20.3"/>
	<text transform="matrix(1 0 0 1 326.2056 77.4969)" fill="#231F20" font-family="'PermanentMarker'" font-size="30.74px">making out</text>
</g>
<g>
	<path fill="none" stroke="#231F20" stroke-width="7" stroke-linecap="round" stroke-linejoin="round" stroke-miterlimit="10" d="
		M230.9,144.9c-2.1,4.7-4.3,9.4-6.4,14.1"/>
	<path fill="none" stroke="#231F20" stroke-width="7" stroke-linecap="round" stroke-linejoin="round" stroke-miterlimit="10" d="
		M222.5,148.7c3.1,2.1,6.2,4.2,9.2,6.3"/>
	<path fill="none" stroke="#231F20" stroke-width="7" stroke-linecap="round" stroke-linejoin="round" stroke-miterlimit="10" d="
		M244.3,157.3c6.5-2.4,14.1-1.6,20,2c15.2,9.5,15.9,33.8,31.6,42.4c6,3.3,13.2,3.6,19.8,2.3c6.7-1.3,12.9-4.2,19.1-7"/>
	<text transform="matrix(1 0 0 1 346.3285 193.5934)" fill="#231F20" font-family="'PermanentMarker'" font-size="30.74px">fighting</text>
</g>
</svg>
