<?xml version="1.0" encoding="utf-8"?>
<!-- Generator: Adobe Illustrator 19.2.0, SVG Export Plug-In . SVG Version: 6.00 Build 0)  -->
<svg version="1.1" id="Layer_1" xmlns="http://www.w3.org/2000/svg" xmlns:xlink="http://www.w3.org/1999/xlink" x="0px" y="0px"
	 width="722.9px" height="386.7px" viewBox="0 0 722.9 386.7" enable-background="new 0 0 722.9 386.7" xml:space="preserve">
<symbol  id="Arrow_right_1_" viewBox="-25.5 -26 29 52">
	
		<polyline fill="none" stroke="#231F20" stroke-width="7" stroke-linecap="round" stroke-linejoin="round" stroke-miterlimit="10" points="
		-22,22.5 0,0 -22,-22.5 	"/>
</symbol>
<symbol  id="Arrow_up" viewBox="-26 -25.5 52 29">
	
		<polyline fill="none" stroke="#231F20" stroke-width="7" stroke-linecap="round" stroke-linejoin="round" stroke-miterlimit="10" points="
		-22.5,-22 0,0 22.5,-22 	"/>
</symbol>
<path fill="none" stroke="#FFFFFF" stroke-width="120" stroke-linejoin="bevel" stroke-miterlimit="10" d="M18.8,3.7
	c-1,18.4-2,36.8-3,55.2c17-16.7,34-33.5,50.9-50.2c1.4,14.4,2.8,28.8,4.2,43.2C84.7,33.5,98.4,15,112.1-3.5
	c2.4,19.8,4.8,39.6,7.2,59.4c14.7-16,29.4-32.1,44.1-48.1c4,17.8,8.1,35.6,12.1,53.5c7-10.4,14-20.8,20.9-31.1
	c10.2,9.2,5.3,27.5-5.9,35.4c-11.3,7.9-25.9,8.4-39.7,8.6c-29.7,0.4-59.4,0.8-89.1,1.2C53,75.4,44.2,75.6,36.3,79S21.7,90,22,98.6
	s10,16.3,17.7,12.6c-1.6,78.2-3.2,156.4-4.8,234.6c-10.7-10.9-6.8-32.1,7.1-38.6c13.9-6.4,32.6,4.4,34,19.6
	c-0.7-7.8,7.8-13.1,15.4-14.6s16.2-1.3,22.1-6.4c11.7-9.9,3.4-28.8-5.4-41.3c-16.5-23.4-33-46.8-49.5-70.2
	c-6.5-9.2-13.2-19-13.8-30.2c-0.6-11.2,7.8-23.6,19-22.9c5.7,0.4,10.7,3.9,15.3,7.4c15.4,11.5,30.8,23,46.3,34.4
	c-3.5-12.6-7-25.2-10.5-37.8c-12,9.3-18.9,25.8-14.4,40.3c4.5,14.5,21.8,24.5,35.9,18.7c14-5.7,18.5-27.9,6.3-37
	c1.5,9.2,3.1,18.3,4.6,27.5c14.2-7,25.2-20.4,29.2-35.8c1,9.4,2,18.9,3,28.3c13.6-14.3,27.3-28.6,40.9-42.9
	c-20.6,25-41.1,49.9-61.7,74.9c13-2.7,26-5.4,39-8.2c5.9-1.2,12-2.5,18-1.7c18.7,2.3,30.2,24.9,25.2,43.1c-5,18.2-22.1,31-40.3,36.1
	s-37.4,3.9-56.3,2.6c32-32.3,64-64.5,96.1-96.8c7.7-7.8,16-16.8,16.1-27.7c0.1-11-13.8-21.3-22-13.9c28.7,9.2,62.1,2,84.5-18.3
	c1.1,8.2,9.4,14.7,17.6,13.9c8.2-0.8,15-8.8,14.5-17c-0.5-8.5-7.3-15-12.2-22c-18.4-26.6-3.8-69.2,26.9-79
	c-4.5,9.7-9.1,20.3-7.1,30.9s13.8,19.8,23.4,15c4.6-2.3,7.3-7,9.9-11.4c6.4-11.2,12.8-22.5,19.2-33.7c2.3,20.2,4.6,40.5,6.9,60.7
	c15.4-23.3,30.7-46.5,46.1-69.8c-1.5,21.3,7.7,43.1,24.1,56.8c4.5-17.5,9.1-35,13.6-52.5c6,19.9,12.1,39.7,18.1,59.6
	c13.8-19.4,27.5-38.7,41.3-58.1c6.2,20.9,12.5,41.8,18.7,62.7c0.6-10,1.3-20.5,6.6-29s16.8-14,25.7-9.3c10.8,5.7,10.6,21,8.9,33
	c10.5-19.8,20.9-39.6,31.4-59.4c15.4,13.2,22.6,35.2,18.1,54.9c5.9-15,11.7-30,17.6-45c-25.6,53.8-83.3,86.6-141.8,97.6
	s-118.8,3.3-177.9-4.4c36.3,47.6,51.1,110.9,39.8,169.7c2.4-9,4.9-18.3,10.2-25.9s14.2-13.6,23.5-12.8c10.7,0.9,18.6,9.8,27.2,16.2
	c8.6,6.5,22.2,10.1,29.1,1.9c-7.9-30.6-15.8-61.3-23.7-91.9c19.3,11.8,34.1,31,40.5,52.7c13.7-14.5,21.8-34,22.6-53.9
	c9.7,15.2,19.4,30.3,29,45.5c5.4-28.8,10.8-57.6,16.1-86.5c14.9,20.2-2.2,56.4,18.6,70.3c10.7,7.1,25.9,2.7,34.8-6.5
	c8.9-9.2,13.1-21.8,17.1-34.1c1.2,14,2.4,28,3.5,41.9c2.7-6.3,5.4-12.5,8.1-18.8c-58.2,17.9-113.8,44.2-164.5,78
	c-19.9,13.3-40.7,30.4-43.7,54.1c-1.8,14.6,1.9,33.3-10.8,40.9c-11.1,6.6-26.1-3.3-29.5-15.7c-3.5-12.4,0.9-25.5,5.2-37.7
	c-5.5,23.4-10.9,46.7-16.4,70.1c1.3-16.5,2-34.9-8.9-47.3c-10.5-11.9-28.1-13.7-43.9-14.8c-39.5-2.7-79.1-5.5-118.6-8.2
	c-64.6-4.5-129.1-9-193.7-13.4"/>
<g id="Arrow_right">
</g>
<g>
	
		<line fill="none" stroke="#231F20" stroke-width="7" stroke-linecap="round" stroke-linejoin="round" stroke-miterlimit="10" x1="40.2" y1="73.6" x2="40.2" y2="341.8"/>
	
		<line fill="none" stroke="#231F20" stroke-width="7" stroke-linecap="round" stroke-linejoin="round" stroke-miterlimit="10" x1="19.6" y1="319.3" x2="460.7" y2="319.3"/>
	
		<use xlink:href="#Arrow_right_1_"  width="29" height="52" x="-25.5" y="-26" transform="matrix(1 0 0 -1 460.6595 319.2674)" overflow="visible"/>
	
		<use xlink:href="#Arrow_up"  width="52" height="29" x="-26" y="-25.5" transform="matrix(1 0 0 -1 40.1834 73.6114)" overflow="visible"/>
</g>
<text transform="matrix(1 0 0 1 395.136 370.8312)" fill="#231F20" font-family="'PermanentMarker'" font-size="30.74px">heat</text>
<text transform="matrix(1 0 0 1 13.6834 27.5914)"><tspan x="0" y="0" fill="#231F20" font-family="'PermanentMarker'" font-size="30.74px">efforts made</tspan><tspan x="0" y="30" fill="#231F20" font-family="'PermanentMarker'" font-size="30.74px">to cool down</tspan></text>
<path fill="none" stroke="#BE1E2D" stroke-width="7" stroke-linecap="round" stroke-linejoin="round" stroke-miterlimit="10" d="
	M56.4,303.9c0,0,90,1.4,116.2-7.4s41.9-27.9,54.9-47.8c13.6-20.8,22.9-43.6,36.1-64.6c13.2-21,31.1-41,56.1-51s58-7.3,75.6,11.1
	c14.6,15.2,15.7,36.7,16.2,56.6c0.8,32.6,1.5,65.3,2.3,97.9"/>
<g>
	<path fill="none" stroke="#231F20" stroke-width="7" stroke-linecap="round" stroke-linejoin="round" stroke-miterlimit="10" d="
		M247.5,202.8c2.2,3.3,4.5,6.5,6.7,9.8"/>
	<path fill="none" stroke="#231F20" stroke-width="7" stroke-linecap="round" stroke-linejoin="round" stroke-miterlimit="10" d="
		M244,211c4.1-2.2,8.1-4.3,12.2-6.5"/>
	<path fill="none" stroke="#231F20" stroke-width="7" stroke-linecap="round" stroke-linejoin="round" stroke-miterlimit="10" d="
		M232.1,207.1c-10.8-2.6-22.8,0.6-30.8,8.3c-3.9,3.8-6.9,8.6-11.4,11.7c-5.6,3.9-13.2,4.6-19.4,1.9c-6.2-2.7-10.8-8.9-11.7-15.6"/>
	<text transform="matrix(1 0 0 1 65.8578 164.0999)"><tspan x="0" y="0" fill="#231F20" font-family="'PermanentMarker'" font-size="30.74px">take a cold</tspan><tspan x="33.2" y="30" fill="#231F20" font-family="'PermanentMarker'" font-size="30.74px">shower</tspan></text>
</g>
<g>
	<path fill="none" stroke="#231F20" stroke-width="7" stroke-linecap="round" stroke-linejoin="round" stroke-miterlimit="10" d="
		M356.9,123.2c-4,3.7-7.9,7.4-11.9,11"/>
	<path fill="none" stroke="#231F20" stroke-width="7" stroke-linecap="round" stroke-linejoin="round" stroke-miterlimit="10" d="
		M344.6,123.6c4.4,3.3,8.6,7,12.3,11"/>
	<path fill="none" stroke="#231F20" stroke-width="7" stroke-linecap="round" stroke-linejoin="round" stroke-miterlimit="10" d="
		M349.7,114.8c0.9-3.8-1-7.9-3.9-10.6s-6.6-4.3-10.2-5.8s-7.4-3-10.4-5.5c-3-2.5-5.2-6.4-4.8-10.3c0.4-3.9,4.3-7.4,8.1-6.6"/>
	<text transform="matrix(1 0 0 1 344.5937 50.7883)"><tspan x="0" y="0" fill="#231F20" font-family="'PermanentMarker'" font-size="30.74px">design an air con system</tspan><tspan x="0" y="30" fill="#231F20" font-family="'PermanentMarker'" font-size="30.74px">out of fans &amp; ice cubes</tspan></text>
</g>
<g>
	<path fill="none" stroke="#231F20" stroke-width="7" stroke-linecap="round" stroke-linejoin="round" stroke-miterlimit="10" d="
		M409.9,270.7c2.5-3,4.9-6.1,7.4-9.1"/>
	<path fill="none" stroke="#231F20" stroke-width="7" stroke-linecap="round" stroke-linejoin="round" stroke-miterlimit="10" d="
		M409.4,262.4c2.9,2.4,5.8,4.8,8.7,7.2"/>
	<path fill="none" stroke="#231F20" stroke-width="7" stroke-linecap="round" stroke-linejoin="round" stroke-miterlimit="10" d="
		M427.8,264.2c5.2-1.1,10.5,1.3,14.8,4.5c4.2,3.2,7.8,7.3,12.2,10.3c4.4,3,10.1,4.8,15,2.9c6.2-2.4,9-9.6,9.3-16.2
		s-1.3-13.2-0.6-19.8"/>
	<text transform="matrix(1 0 0 1 465.6878 199.2115)"><tspan x="0" y="0" fill="#231F20" font-family="'PermanentMarker'" font-size="30.74px">just lie naked</tspan><tspan x="0" y="30" fill="#231F20" font-family="'PermanentMarker'" font-size="30.74px">on your bed</tspan></text>
</g>
</svg>
