<?xml version="1.0" encoding="utf-8"?>
<!-- Generator: Adobe Illustrator 18.0.0, SVG Export Plug-In . SVG Version: 6.00 Build 0)  -->
<!DOCTYPE svg PUBLIC "-//W3C//DTD SVG 1.1//EN" "http://www.w3.org/Graphics/SVG/1.1/DTD/svg11.dtd">
<svg version="1.1" id="Layer_1" xmlns="http://www.w3.org/2000/svg" xmlns:xlink="http://www.w3.org/1999/xlink" x="0px" y="0px"
	 viewBox="0 0 601.5 622.1" enable-background="new 0 0 601.5 622.1" xml:space="preserve">
<path fill="none" stroke="#FFFFFF" stroke-width="120" stroke-linejoin="bevel" stroke-miterlimit="10" d="M54.6-12
	C8.2,24.2-25.6,76.3-39.7,133.5c19.5,7.6,38.7-10.3,52.5-26.1C54.9,59.4,102.3,16,153.9-21.7c4.6,20.2-4,40.8-13.2,59.4
	c-23.3,47-51.9,91.3-85.3,131.7c-37.3,45.3-81.8,88-98,144.4C-5.7,270.1,34.6,229.5,74.9,189c75.5-76.1,151.2-152.3,234.2-220.1
	C222.8,88.2,136.5,207.4,50.2,326.7c-4.3,6-8.7,14.3-4.1,20.1c5.6,7.1,17,1.7,23.8-4.2c29.9-25.7,56.4-55.5,78.5-88.1
	c20.7-30.6,37.5-63.6,56.4-95.3c40.9-68.5,91.9-131,150.9-184.8c-8.7,40.9-27.3,78.9-45.2,116.7c-42.2,89.2-81.1,181-99.6,278
	C325.9,277.9,350.9,111.6,449.3,2.9c-21.9,119.6-76.6,231.7-94.8,352c82.8-93.9,90-235.7,167.8-333.8c5.3,27.3-6.5,54.5-14.4,81.1
	c-24.5,81.9-14,170-26.7,254.5c48.6-111.3,83-228.8,102.1-348.7c6.2,123.4,6.3,247,6.5,370.6c-131.6-6.5-264.6-12.9-394.1,11.3
	c58.3,26.9,125.9,17.4,190,20.5c14.7,0.7,30,2.3,42.3,10.4c4.9,3.2,9.6,8.4,9,14.2c-0.5,4.7-4.2,8.4-7.9,11.5
	c-38.7,32.2-91.8,38.8-141.6,46.1c-58.3,8.6-116.2,19.8-173.4,33.7c58.9-43.3,132-66.8,205-66c24.9,0.3,55.7,8.2,60.9,32.6
	c-32.5,16.8-68.9,24.4-105,30.5c-67.3,11.5-135.2,19-203.3,22.5c100.6,19.8,205.5,3.7,306.5,21.5c-3.9,8.9-14.6,12.2-24,14.2
	c-96.5,20.7-196.7,11.5-294.5-1.4"/>
<g>
	
		<line fill="none" stroke="#000000" stroke-width="7" stroke-linecap="round" stroke-linejoin="round" stroke-miterlimit="10" x1="589.8" y1="323.6" x2="9.8" y2="323.6"/>
	
		<line fill="none" stroke="#000000" stroke-width="7" stroke-linecap="round" stroke-linejoin="round" stroke-miterlimit="10" x1="299.8" y1="33.6" x2="299.8" y2="613.6"/>
	
		<polyline fill="none" stroke="#000000" stroke-width="7" stroke-linecap="round" stroke-linejoin="round" stroke-miterlimit="10" points="
		567.8,301.1 589.8,323.6 567.8,346.1 	"/>
	
		<polyline fill="none" stroke="#000000" stroke-width="7" stroke-linecap="round" stroke-linejoin="round" stroke-miterlimit="10" points="
		277.3,55.6 299.8,33.6 322.3,55.6 	"/>
</g>
<g>
	<text transform="matrix(1 0 0 1 250.6368 26.2557)" font-family="'PermanentMarker'" font-size="30.74">energy</text>
</g>
<g>
	<text transform="matrix(1 0 0 1 409 376.0381)" font-family="'PermanentMarker'" font-size="30.74">distractions</text>
</g>
<g>
	<path fill="none" stroke="#FDF27D" stroke-width="7" stroke-linecap="round" stroke-miterlimit="10" d="M7.6,75
		c4.7-12.5,9.5-25.1,16.6-36.5"/>
	<path fill="none" stroke="#FDF27D" stroke-width="7" stroke-linecap="round" stroke-miterlimit="10" d="M19.8,120.3
		C38,91.2,56.2,62.2,74.4,33.1"/>
	<path fill="none" stroke="#FDF27D" stroke-width="7" stroke-linecap="round" stroke-miterlimit="10" d="M31.4,169.8
		C63.8,113.9,96.9,57,144.6,13.4"/>
	<path fill="none" stroke="#FDF27D" stroke-width="7" stroke-linecap="round" stroke-miterlimit="10" d="M13.2,267.7
		c36.3-48.1,63-102.9,98.9-151.3c18.4-24.8,39.1-47.8,59.8-70.7"/>
	<path fill="none" stroke="#FDF27D" stroke-width="7" stroke-linecap="round" stroke-miterlimit="10" d="M47,291.9
		C101.6,200.1,160.7,111,224.2,25"/>
	<path fill="none" stroke="#FDF27D" stroke-width="7" stroke-linecap="round" stroke-miterlimit="10" d="M97.8,299.3
		c39.6-58.4,80-116.1,120.5-173.9c6.7-9.5,13.4-19.1,20-28.6c9.3-13.2,18.5-26.4,28-39.4"/>
	<path fill="none" stroke="#FDF27D" stroke-width="7" stroke-linecap="round" stroke-miterlimit="10" d="M190.6,288.7
		c8.8-16.6,15.7-34.2,23.6-51.3c16.9-36.4,38.6-70.6,64.4-101.3"/>
	<path fill="none" stroke="#FDF27D" stroke-width="7" stroke-linecap="round" stroke-miterlimit="10" d="M233.7,302.8
		c15.8-42.3,37.6-82.1,59.3-121.6"/>
	<path fill="none" stroke="#FDF27D" stroke-width="7" stroke-linecap="round" stroke-miterlimit="10" d="M277.4,312.3
		c3.4-13.3,6.7-26.6,10.1-39.8"/>
</g>
<g>
	<text transform="matrix(1 0 0 1 70.3894 147.1192)"><tspan x="0" y="0" font-family="'PermanentMarker'" font-size="30.74">area where</tspan><tspan x="-42.8" y="36.9" font-family="'PermanentMarker'" font-size="30.74">work is actually</tspan><tspan x="23.9" y="73.8" font-family="'PermanentMarker'" font-size="30.74">possible</tspan></text>
</g>
<g>
	<g>
		<text transform="matrix(1 0 0 1 365 89.0383)" fill="#94CD8A" font-family="'PermanentMarker'" font-size="30.74">time of the day</text>
	</g>
	<path fill="none" stroke="#94CD8A" stroke-width="7" stroke-linecap="round" stroke-miterlimit="10" d="M353.4,66.9
		c-8.6,26.5,11,53.3,30,73.8c16.7,18.1,33.8,35.8,51.4,53.1c20.9,20.5,42.9,41.1,55.7,67.5s14.3,60.6-4.5,83
		c-14.6,17.4-38.2,24.7-54.3,40.7c-6.5,6.5-11.7,14.3-19.1,19.9c-6,4.5-13.1,7.2-20,10.1c-56,23.2-105.2,59.8-153.9,96
		c-37.8,28.1-75.6,56.3-113.4,84.4"/>
</g>
</svg>
