<?xml version="1.0" encoding="utf-8"?>
<!-- Generator: Adobe Illustrator 18.0.0, SVG Export Plug-In . SVG Version: 6.00 Build 0)  -->
<!DOCTYPE svg PUBLIC "-//W3C//DTD SVG 1.1//EN" "http://www.w3.org/Graphics/SVG/1.1/DTD/svg11.dtd">
<svg version="1.1" id="Layer_1" xmlns="http://www.w3.org/2000/svg" xmlns:xlink="http://www.w3.org/1999/xlink" x="0px" y="0px"
	 viewBox="0 0 704 355" enable-background="new 0 0 704 355" xml:space="preserve">
<path fill="none" stroke="#FFFFFF" stroke-width="120" stroke-linejoin="bevel" stroke-miterlimit="10" d="M33.6,7.3
	C19.7,20.8,15.4,43.1,23.1,60.8c16.5-12.1,33.1-24.2,49.6-36.3c20.5-15,43-30.7,68.4-30.2C96.5,24,62.1,68.8,44.9,119.6
	C20.9,190.3,30.2,268,13.3,340.7c13.3,0.5,25.5-8.3,33.1-19.3c7.6-11,11.5-24,16.2-36.5c24.2-64.8,71.1-121,130.5-156.3
	c-27,67-54,133.9-81,200.9c-3.4,8.3-6.8,16.9-6.4,25.9s5.5,18.4,14.1,20.8c15.1,4.2,26.4-13.4,31.8-28.1c17.6-48,31.2-97.6,52.9-144
	s52.5-90.2,96.2-116.7c-5.8,65.4-22.5,129.7-49.2,189.7c-5.1,11.4-10.6,23.1-10.3,35.5c0.2,12.4,8.3,25.8,20.7,27.2
	c17.5,2.1,28.2-18.2,33.8-35c14-42.4,28-84.9,42-127.3c4.3-13,8.8-26.3,17.9-36.5c9.1-10.1,24.2-16.2,36.8-10.8
	c11.4,4.9,17.6,17.9,18,30.3c0.4,12.4-3.8,24.4-8,36.1c-14.6,41-29.2,81.9-43.9,122.9c56.8,9.7,114.3,19.3,171.8,14.7
	c57.4-4.6,115.7-25.1,154.9-67.4c-48.8,0.8-97.3,11.8-141.7,31.9c-14.2,6.4-28,13.8-43.1,17.6c-15.1,3.8-32,3.5-45.1-4.8
	c-12.9-8.1-20.4-22.8-23.3-37.7c-2.9-14.9-1.6-30.3-0.3-45.5c46.8,32.9,106.5,46.7,163,37.7"/>
<g>
	
		<line fill="none" stroke="#010101" stroke-width="7" stroke-linecap="round" stroke-linejoin="round" stroke-miterlimit="10" x1="10.5" y1="295.2" x2="694.9" y2="295.2"/>
	
		<line fill="none" stroke="#010101" stroke-width="7" stroke-linecap="round" stroke-linejoin="round" stroke-miterlimit="10" x1="37.5" y1="41.7" x2="37.5" y2="319.2"/>
	
		<polyline fill="none" stroke="#010101" stroke-width="7" stroke-linecap="round" stroke-linejoin="round" stroke-miterlimit="10" points="
		672.9,272.7 694.9,295.2 672.9,317.7 	"/>
	
		<polyline fill="none" stroke="#010101" stroke-width="7" stroke-linecap="round" stroke-linejoin="round" stroke-miterlimit="10" points="
		15,63.7 37.5,41.7 60,63.7 	"/>
</g>
<g>
	
		<line fill="none" stroke="#94C64F" stroke-width="7" stroke-linecap="round" stroke-linejoin="round" stroke-miterlimit="10" x1="65.3" y1="286.7" x2="49.7" y2="302.3"/>
	
		<line fill="none" stroke="#94C64F" stroke-width="7" stroke-linecap="round" stroke-linejoin="round" stroke-miterlimit="10" x1="86.1" y1="288.2" x2="73.4" y2="300.8"/>
	
		<line fill="none" stroke="#94C64F" stroke-width="7" stroke-linecap="round" stroke-linejoin="round" stroke-miterlimit="10" x1="110.8" y1="285.7" x2="93.2" y2="303.3"/>
	
		<line fill="none" stroke="#94C64F" stroke-width="7" stroke-linecap="round" stroke-linejoin="round" stroke-miterlimit="10" x1="132.7" y1="286.1" x2="115.8" y2="303"/>
	
		<line fill="none" stroke="#94C64F" stroke-width="7" stroke-linecap="round" stroke-linejoin="round" stroke-miterlimit="10" x1="156" y1="285" x2="136.9" y2="304"/>
	
		<line fill="none" stroke="#94C64F" stroke-width="7" stroke-linecap="round" stroke-linejoin="round" stroke-miterlimit="10" x1="177.2" y1="286.1" x2="160.3" y2="303"/>
	
		<line fill="none" stroke="#94C64F" stroke-width="7" stroke-linecap="round" stroke-linejoin="round" stroke-miterlimit="10" x1="199.1" y1="286.4" x2="182.8" y2="302.6"/>
	<text transform="matrix(1 0 0 1 71.6312 340.25)" fill="#94C64F" font-family="'PermanentMarker'" font-size="31">spring</text>
</g>
<g>
	<path fill="none" stroke="#BF3F4B" stroke-width="7" stroke-linecap="round" stroke-linejoin="round" stroke-miterlimit="10" d="
		M221.8,285.9c-5.7,5.7-11.5,11.5-17.2,17.2"/>
	
		<line fill="none" stroke="#BF3F4B" stroke-width="7" stroke-linecap="round" stroke-linejoin="round" stroke-miterlimit="10" x1="242.8" y1="287.1" x2="228.1" y2="301.9"/>
	
		<line fill="none" stroke="#BF3F4B" stroke-width="7" stroke-linecap="round" stroke-linejoin="round" stroke-miterlimit="10" x1="263.7" y1="288.5" x2="251.6" y2="300.5"/>
	
		<line fill="none" stroke="#BF3F4B" stroke-width="7" stroke-linecap="round" stroke-linejoin="round" stroke-miterlimit="10" x1="287.7" y1="286.7" x2="272.1" y2="302.3"/>
	
		<line fill="none" stroke="#BF3F4B" stroke-width="7" stroke-linecap="round" stroke-linejoin="round" stroke-miterlimit="10" x1="311.6" y1="285" x2="292.7" y2="304"/>
	
		<line fill="none" stroke="#BF3F4B" stroke-width="7" stroke-linecap="round" stroke-linejoin="round" stroke-miterlimit="10" x1="332.4" y1="286.4" x2="316.3" y2="302.6"/>
	<path fill="none" stroke="#BF3F4B" stroke-width="7" stroke-linecap="round" stroke-linejoin="round" stroke-miterlimit="10" d="
		M355.8,285.3c-6.1,6.1-12.2,12.2-18.3,18.3"/>
	<text transform="matrix(1 0 0 1 219.2166 340.25)" fill="#BF3F4B" font-family="'PermanentMarker'" font-size="31">summer</text>
</g>
<g>
	<path fill="none" stroke="#C57436" stroke-width="7" stroke-linecap="round" stroke-linejoin="round" stroke-miterlimit="10" d="
		M378,285.3c-6.1,6.1-12.3,12.3-18.4,18.4"/>
	
		<line fill="none" stroke="#C57436" stroke-width="7" stroke-linecap="round" stroke-linejoin="round" stroke-miterlimit="10" x1="398.9" y1="286.7" x2="383.3" y2="302.3"/>
	
		<line fill="none" stroke="#C57436" stroke-width="7" stroke-linecap="round" stroke-linejoin="round" stroke-miterlimit="10" x1="422" y1="285.8" x2="404.7" y2="303.2"/>
	
		<line fill="none" stroke="#C57436" stroke-width="7" stroke-linecap="round" stroke-linejoin="round" stroke-miterlimit="10" x1="444.9" y1="285.1" x2="426.2" y2="303.9"/>
	
		<line fill="none" stroke="#C57436" stroke-width="7" stroke-linecap="round" stroke-linejoin="round" stroke-miterlimit="10" x1="467.1" y1="285.2" x2="448.5" y2="303.8"/>
	
		<line fill="none" stroke="#C57436" stroke-width="7" stroke-linecap="round" stroke-linejoin="round" stroke-miterlimit="10" x1="489.7" y1="284.9" x2="470.4" y2="304.1"/>
	<path fill="none" stroke="#C57436" stroke-width="7" stroke-linecap="round" stroke-linejoin="round" stroke-miterlimit="10" d="
		M511.7,285c-6.3,6.3-12.6,12.6-18.9,18.9"/>
	<text transform="matrix(1 0 0 1 378.8019 340.25)" fill="#C57436" font-family="'PermanentMarker'" font-size="31">autumn</text>
</g>
<g>
	
		<line fill="none" stroke="#A9BDD5" stroke-width="7" stroke-linecap="round" stroke-linejoin="round" stroke-miterlimit="10" x1="534" y1="285" x2="515" y2="304"/>
	
		<line fill="none" stroke="#A9BDD5" stroke-width="7" stroke-linecap="round" stroke-linejoin="round" stroke-miterlimit="10" x1="557.1" y1="284.2" x2="536.5" y2="304.8"/>
	<path fill="none" stroke="#A9BDD5" stroke-width="7" stroke-linecap="round" stroke-linejoin="round" stroke-miterlimit="10" d="
		M577.5,286c-5.7,5.7-11.3,11.3-17,17"/>
	
		<line fill="none" stroke="#A9BDD5" stroke-width="7" stroke-linecap="round" stroke-linejoin="round" stroke-miterlimit="10" x1="600" y1="285.8" x2="582.5" y2="303.3"/>
	
		<line fill="none" stroke="#A9BDD5" stroke-width="7" stroke-linecap="round" stroke-linejoin="round" stroke-miterlimit="10" x1="622.9" y1="285.1" x2="604" y2="303.9"/>
	
		<line fill="none" stroke="#A9BDD5" stroke-width="7" stroke-linecap="round" stroke-linejoin="round" stroke-miterlimit="10" x1="643.8" y1="286.4" x2="627.6" y2="302.6"/>
	<path fill="none" stroke="#A9BDD5" stroke-width="7" stroke-linecap="round" stroke-linejoin="round" stroke-miterlimit="10" d="
		M667,285.4c-6,6-12.1,12.1-18.1,18.1"/>
	<text transform="matrix(1 0 0 1 541.7465 340.25)" fill="#A9BDD5" font-family="'PermanentMarker'" font-size="31">winter</text>
</g>
<text transform="matrix(1 0 0 1 10.0091 27)" font-family="'PermanentMarker'" font-size="31">happiness</text>
<path fill="none" stroke="#010101" stroke-width="7" stroke-linecap="round" stroke-linejoin="round" stroke-miterlimit="10" d="
	M47.2,275.4c24.7-1.7,46.2-16.7,62.2-34.3s27.9-38.1,43.2-56.2c36.7-43.3,93.5-71.3,152.5-75.1c23.2-1.5,47.7,0.9,67.3,12.6
	c41.2,24.7,47,80.3,82.9,111.3c26.2,22.5,64.3,28.3,99.9,28c35.6-0.3,71.4-5.6,106.7-1"/>
</svg>
