<?xml version="1.0" encoding="utf-8"?>
<!-- Generator: Adobe Illustrator 19.2.0, SVG Export Plug-In . SVG Version: 6.00 Build 0)  -->
<svg version="1.1" id="Layer_1" xmlns="http://www.w3.org/2000/svg" xmlns:xlink="http://www.w3.org/1999/xlink" x="0px" y="0px"
	 width="747.34px" height="395.65px" viewBox="0 0 747.34 395.65" enable-background="new 0 0 747.34 395.65" xml:space="preserve">
<path fill="none" stroke="#FFFFFF" stroke-width="120" stroke-linejoin="bevel" stroke-miterlimit="10" d="M47.62,9.5
	C29.86,39.68,12.1,69.86-5.66,100.04c24.89-3.78,47.07-17.31,68.49-30.55c44-27.19,87.99-54.38,131.99-81.56
	C124.85,57.42,53.5,128.83,11.39,218c41.01-41.27,82.02-82.55,123.03-123.82c23.65-23.8,47.48-47.75,75.2-66.65
	s59.9-32.63,93.43-33.55c-64.39,70.35-128.78,140.71-193.17,211.06C69.42,249.25,27.85,295.29,9.09,352.22
	c117.75-64.62,208.47-168.1,296.61-269.46c29.11-33.48,58.23-66.97,87.34-100.45c-2.89,69.28-50.93,127.44-98.06,178.3
	s-98.14,104.73-109.47,173.13C283.15,213.81,420.99,63.64,558.14-7.78c-68.96,108.77-180,240.84-260.15,341.64
	c38.94-8.4,70.29-37.53,93.84-69.66s41.39-68.23,65.79-99.72s57.58-59.1,97.07-64.37c-43.73,73.32-87.46,146.63-131.18,219.95
	c40.92,4.14,77.62-26.12,101.23-59.81c23.61-33.68,39.88-72.85,68.78-102.12c4.6-4.66,9.75-9.18,16.08-10.89
	c6.33-1.71,14.08,0.23,17.22,5.98c3.69,6.76-0.2,14.99-4.03,21.67c-35.21,61.32-81.03,159.46-116.24,220.78
	c63.2-47.86,137.02-132.54,200.22-180.4c7.38-5.59,18.37-11.05,24.91-4.5c6.56,6.58,1,17.59-4.67,24.95
	c-45.65,59.3-91.31,118.6-136.96,177.9c50.32-33.88,100.64-67.77,150.96-101.65c-10.23,26.64-20.47,53.28-30.7,79.91"/>
<line fill="none" stroke="#000000" stroke-width="7" stroke-linecap="round" stroke-linejoin="round" stroke-miterlimit="10" x1="15.3" y1="310.09" x2="733.38" y2="310.09"/>
<polyline fill="none" stroke="#000000" stroke-width="7" stroke-linecap="round" stroke-linejoin="round" stroke-miterlimit="10" points="
	711.38,287.59 733.38,310.09 711.38,332.59 "/>
<text transform="matrix(1 0 0 1 548.3793 362.535)"><tspan x="0" y="0" font-family="'PermanentMarker'" font-size="30.74px">elapsed time</tspan><tspan x="-36.17" y="30" font-family="'PermanentMarker'" font-size="30.74px">sin</tspan><tspan x="5.28" y="30" font-family="'PermanentMarker'" font-size="30.74px">c</tspan><tspan x="20.77" y="30" font-family="'PermanentMarker'" font-size="30.74px">e break-up</tspan></text>
<polyline fill="none" stroke="#000000" stroke-width="7" stroke-linecap="round" stroke-linejoin="round" stroke-miterlimit="10" points="
	15.3,66.73 37.8,44.73 60.3,66.73 "/>
<line fill="none" stroke="#000000" stroke-width="7" stroke-linecap="round" stroke-linejoin="round" stroke-miterlimit="10" x1="37.8" y1="44.73" x2="37.8" y2="332.09"/>
<text transform="matrix(1 0 0 1 10.4968 29.04)"><tspan x="0" y="0" font-family="'PermanentMarker'" font-size="30.74px">% of romanticiz</tspan><tspan x="239.14" y="0" font-family="'PermanentMarker'" font-size="30.74px" letter-spacing="-1">a</tspan><tspan x="255.47" y="0" font-family="'PermanentMarker'" font-size="30.74px">t</tspan><tspan x="270.21" y="0" font-family="'PermanentMarker'" font-size="30.74px">i</tspan><tspan x="279.45" y="0" font-family="'PermanentMarker'" font-size="30.74px">on of rel</tspan><tspan x="421.26" y="0" font-family="'PermanentMarker'" font-size="30.74px" letter-spacing="-1">a</tspan><tspan x="437.59" y="0" font-family="'PermanentMarker'" font-size="30.74px">t</tspan><tspan x="452.33" y="0" font-family="'PermanentMarker'" font-size="30.74px">i</tspan><tspan x="461.58" y="0" font-family="'PermanentMarker'" font-size="30.74px">onship</tspan></text>
<path fill="none" stroke="#ED1164" stroke-width="7" stroke-linecap="round" stroke-linejoin="round" stroke-miterlimit="10" d="
	M60.3,128.54c5.19,19.44,10.3,38.91,15.45,58.36"/>
<path fill="none" stroke="#000000" stroke-width="7" stroke-linecap="round" stroke-linejoin="round" stroke-miterlimit="10" d="
	M89.18,145.18c-2.9,1.93-5.8,3.85-8.71,5.78c3.51,3.36,7.02,6.73,10.53,10.09"/>
<path fill="none" stroke="#000000" stroke-width="7" stroke-linecap="round" stroke-linejoin="round" stroke-miterlimit="10" d="
	M107.22,91.74c27.02,0.2,54.05,0.4,81.07,0.6c-7.83,3.06-16.6,1.65-24.92,0.39c-8.31-1.27-17.24-2.26-24.77,1.49
	s-12.29,14.14-7.27,20.89c2.85,3.84,8.06,5.61,10.31,9.83c1.9,3.58,1.1,8.14-1.12,11.52c-2.23,3.38-5.67,5.78-9.19,7.77
	c-14.47,8.19-31.94,10.96-48.23,7.64"/>
<text transform="matrix(1 0 0 1 88.6947 80.257)"><tspan x="0" y="0" font-family="'PermanentMarker'" font-size="30.74px">“</tspan><tspan x="12.61" y="0" font-family="'PermanentMarker'" font-size="30.74px">b</tspan><tspan x="29.63" y="0" font-family="'PermanentMarker'" font-size="30.74px">ut i l</tspan><tspan x="111.34" y="0" font-family="'PermanentMarker'" font-size="30.74px">o</tspan><tspan x="129.74" y="0" font-family="'PermanentMarker'" font-size="30.74px">ve </tspan><tspan x="172.07" y="0" font-family="'PermanentMarker'" font-size="30.74px">y</tspan><tspan x="183.45" y="0" font-family="'PermanentMarker'" font-size="30.74px">o</tspan><tspan x="202.18" y="0" font-family="'PermanentMarker'" font-size="30.74px">u”</tspan></text>
<path fill="none" stroke="#ED1164" stroke-width="7" stroke-linecap="round" stroke-linejoin="round" stroke-miterlimit="10" d="
	M73.46,177.84c6.19,17.82,9.07,36.52,13.62,54.77c4.51,18.12,10.98,36,23.17,50.47c7.39,8.77,20.43,13.21,31.58,14.06"/>
<text transform="matrix(1 0 0 1 103.3699 247.0512)"><tspan x="0" y="0" font-family="'PermanentMarker'" font-size="30.74px">“i h</tspan><tspan x="51.72" y="0" font-family="'PermanentMarker'" font-size="30.74px" letter-spacing="-1">a</tspan><tspan x="68.05" y="0" font-family="'PermanentMarker'" font-size="30.74px">te</tspan><tspan x="18.82" y="30" font-family="'PermanentMarker'" font-size="30.74px">y</tspan><tspan x="30.2" y="30" font-family="'PermanentMarker'" font-size="30.74px">o</tspan><tspan x="48.93" y="30" font-family="'PermanentMarker'" font-size="30.74px">u”</tspan></text>
<path fill="none" stroke="#ED1164" stroke-width="7" stroke-linecap="round" stroke-linejoin="round" stroke-miterlimit="10" d="
	M138.07,296.45c23.87,2.62,46.93-9,66.18-21.92c20.28-13.61,38.08-30.54,54.95-48.11c17.48-18.21,34.06-37.29,52.13-54.93
	c17.23-16.83,35.87-32.53,57.01-44.25c21.52-11.93,45.28-18.76,69.88-19.81c3.03-0.13,6.07-0.17,9.1-0.14"/>
<text transform="matrix(1 0 0 1 388.9944 158.7325)"><tspan x="0" y="0" font-family="'PermanentMarker'" font-size="30.74px">“it </tspan><tspan x="48.57" y="0" font-family="'PermanentMarker'" font-size="30.74px">w</tspan><tspan x="73.64" y="0" font-family="'PermanentMarker'" font-size="30.74px">a</tspan><tspan x="90.9" y="0" font-family="'PermanentMarker'" font-size="30.74px">s</tspan><tspan x="0" y="30" font-family="'PermanentMarker'" font-size="30.74px"> ni</tspan><tspan x="38.58" y="30" font-family="'PermanentMarker'" font-size="30.74px">c</tspan><tspan x="54.07" y="30" font-family="'PermanentMarker'" font-size="30.74px">e </tspan><tspan x="0" y="60" font-family="'PermanentMarker'" font-size="30.74px"> th</tspan><tspan x="44.01" y="60" font-family="'PermanentMarker'" font-size="30.74px">o</tspan><tspan x="62.74" y="60" font-family="'PermanentMarker'" font-size="30.74px">ugh”</tspan></text>
<path fill="none" stroke="#ED1164" stroke-width="7" stroke-linecap="round" stroke-linejoin="round" stroke-miterlimit="10" d="
	M435.2,107.57c37.24-2.21,74.54,8.06,107.5,24.95c34.17,17.52,64.03,42.42,91.5,68.98c15.65,15.13,30.64,30.92,45.61,46.72"/>
</svg>
