<?xml version="1.0" encoding="utf-8"?>
<!-- Generator: Adobe Illustrator 19.2.0, SVG Export Plug-In . SVG Version: 6.00 Build 0)  -->
<svg version="1.1" id="Layer_1" xmlns="http://www.w3.org/2000/svg" xmlns:xlink="http://www.w3.org/1999/xlink" x="0px" y="0px"
	 width="512.7px" height="423.7px" viewBox="0 0 512.7 423.7" enable-background="new 0 0 512.7 423.7" xml:space="preserve">
<path fill="none" stroke="#FFFFFF" stroke-width="120" stroke-linejoin="bevel" stroke-miterlimit="10" d="M176.2,21.1
	c-3.6,18.3-7.1,36.6-10.7,54.9c23-8.7,39.8-32,40.9-56.6c6.8,2.9,9.1,11.5,8.8,18.8c-0.3,7.4-2.4,14.8-1,22
	c1.4,7.2,8.3,14.3,15.4,12.1c4.8-1.5,7.5-6.4,9.7-10.8c6.6-13.3,13.3-26.6,19.9-39.9c-2.8,9.5-5.6,19.7-2.5,29.1s14.9,16.4,23.2,11
	c4.9-3.2,6.8-9.3,8.4-14.9c4.4-15.6,8.9-31.2,13.3-46.9c5.1,26.7,13.1,52.9,24,77.9c3.9-12.3,7.7-24.7,11.6-37
	c9.1,4.9,16,13.9,18.3,24.1c20.8-13.4,50.4-11.1,68.8,5.5c11.9,10.7,18.6,25.8,25.1,40.4c6.1,13.9,12.2,27.7,18.3,41.6
	c13.3,30.1,26.8,62.8,19.7,94.9c-15-26.7-29.9-53.3-44.9-80c3,25.6,6.1,51.2,9.1,76.8c-12.2-21.1-24.4-42.2-36.5-63.3
	c-0.2,23.1-0.4,46.1-0.5,69.2c-2.1-13.6-4.2-27.1-6.3-40.7c-1.3-8.3-3.3-17.8-10.7-21.9c-10-5.6-23.4,4.2-24.6,15.7
	c-1.2,11.4,6.1,22.2,14.9,29.6c8.8,7.4,19.2,12.8,27.7,20.5c24,21.9,26.9,63.2,6.1,88.3c-14.1,17-35.6,25.4-55.3,35.4
	s-39.7,24.1-45.4,45.4c0.4-31.4,0.8-62.8,1.2-94.2c-11.2,2.9-16.1,15.7-19.3,26.8c-6.3,22-12.7,43.9-19,65.9
	c-2.1-23.1-4.2-46.3-6.3-69.4c-0.5-6-2.4-13.5-8.3-14.4c-7.2-1.1-10.7,8.3-11.6,15.5c-2.7,22.4-5.5,44.8-8.2,67.1
	c-8-29.9-16-59.7-23.9-89.6c-7.4,32.2-14.8,64.4-22.2,96.6c-13.8-33.2-15.9-71.1-6-105.7c-13.7,23.8-19.7,52-16.9,79.3
	c-22.2-10.2-44.7-20.7-63.8-36S82.1,328,78.3,303.8s6.3-51.3,27.8-63.1c5.6-3,11.7-5,16.9-8.7s9.4-9.8,8.3-16
	c-1.9-11.1-16.6-13.4-27.9-13c-19.6,0.7-39.3,1.3-58.9,2c-13,0.4-29.4,3.4-32.4,16.1c-1.9,7.8,3.2,16.2,10.3,20
	c7.1,3.8,15.7,3.8,23.6,2c11.1-2.5,21.3-8.2,31.8-12.7c10.5-4.4,22.2-7.6,33.3-4.8c11.1,2.8,20.8,13.4,19.1,24.7
	c-2.2,14.5-19.8,20.7-34.4,21.1c-25.5,0.7-52.5-8.3-67.9-28.6s-15-52.9,4.7-69.1c9.9-1.4,17.9-9.3,22.6-18.2s7-18.8,10.6-28.2
	c14.4-38.2,51.7-66.7,92.3-70.5"/>
<g id="Arrow_right">
</g>
<text transform="matrix(1 0 0 1 188.0968 34.3286)"><tspan x="0" y="0" fill="#231F20" font-family="'PermanentMarker'" font-size="30.74px">choose a</tspan><tspan x="-38.4" y="30" fill="#231F20" font-family="'PermanentMarker'" font-size="30.74px">public service</tspan></text>
<g>
	<path fill="none" stroke="#BE1E2D" stroke-width="7" stroke-linecap="round" stroke-linejoin="round" stroke-miterlimit="10" d="
		M396.1,62.7c18.7,4.7,35.5,16.2,46.7,31.8c11.2,15.6,16.7,35.3,15.2,54.5"/>
	<path fill="none" stroke="#BE1E2D" stroke-width="7" stroke-linecap="round" stroke-linejoin="round" stroke-miterlimit="10" d="
		M452.1,146.2c2,2.9,4,5.8,6.1,8.7c2.1-3.1,4.1-6.3,6.2-9.4"/>
</g>
<text transform="matrix(1 0 0 1 378.3589 201.8864)"><tspan x="0" y="0" fill="#231F20" font-family="'PermanentMarker'" font-size="30.74px">remove</tspan><tspan x="-1.9" y="30" fill="#231F20" font-family="'PermanentMarker'" font-size="30.74px">funding</tspan></text>
<g>
	<path fill="none" stroke="#BE1E2D" stroke-width="7" stroke-linecap="round" stroke-linejoin="round" stroke-miterlimit="10" d="
		M432,274.7c4.4,19.6,1.2,40.7-8.8,58.1c-10,17.4-26.6,30.9-45.7,37"/>
	<path fill="none" stroke="#BE1E2D" stroke-width="7" stroke-linecap="round" stroke-linejoin="round" stroke-miterlimit="10" d="
		M376.3,364.1c-1.6,2-3.3,4.1-4.9,6.1c2.9,1.7,5.8,3.5,8.6,5.2"/>
</g>
<text transform="matrix(1 0 0 1 176.8996 354.4436)"><tspan x="0" y="0" fill="#231F20" font-family="'PermanentMarker'" font-size="30.74px">blame for</tspan><tspan x="36.7" y="30" fill="#231F20" font-family="'PermanentMarker'" font-size="30.74px">being</tspan><tspan x="-0.3" y="60" fill="#231F20" font-family="'PermanentMarker'" font-size="30.74px">inefficient</tspan></text>
<g>
	<path fill="none" stroke="#BE1E2D" stroke-width="7" stroke-linecap="round" stroke-linejoin="round" stroke-miterlimit="10" d="
		M148.7,372c-20.8-1-41-11.5-53.9-27.9s-18.2-38.5-14.3-59"/>
	<path fill="none" stroke="#BE1E2D" stroke-width="7" stroke-linecap="round" stroke-linejoin="round" stroke-miterlimit="10" d="
		M73.3,291.5c2.3-3.1,4.5-6.2,6.8-9.4c1.9,3.6,3.9,7.1,5.8,10.7"/>
</g>
<text transform="matrix(1 0 0 1 10.6487 215.7271)"><tspan x="0" y="0" fill="#231F20" font-family="'PermanentMarker'" font-size="30.74px">privatise</tspan><tspan x="13.4" y="30" fill="#231F20" font-family="'PermanentMarker'" font-size="30.74px">service</tspan></text>
<g>
	<path fill="none" stroke="#BE1E2D" stroke-width="7" stroke-linecap="round" stroke-linejoin="round" stroke-miterlimit="10" d="
		M64.2,164.3c-2.3-38.8,21.4-77.9,56.9-93.8"/>
	<path fill="none" stroke="#BE1E2D" stroke-width="7" stroke-linecap="round" stroke-linejoin="round" stroke-miterlimit="10" d="
		M118,65.5c3,1,6.1,2.1,9.1,3.1c-1.7,2.9-3.5,5.7-5.2,8.6"/>
</g>
</svg>
