<?xml version="1.0" encoding="utf-8"?>
<!-- Generator: Adobe Illustrator 18.0.0, SVG Export Plug-In . SVG Version: 6.00 Build 0)  -->
<!DOCTYPE svg PUBLIC "-//W3C//DTD SVG 1.1//EN" "http://www.w3.org/Graphics/SVG/1.1/DTD/svg11.dtd">
<svg version="1.1" id="Layer_1" xmlns="http://www.w3.org/2000/svg" xmlns:xlink="http://www.w3.org/1999/xlink" x="0px" y="0px"
	 viewBox="0 0 733.1 329" enable-background="new 0 0 733.1 329" xml:space="preserve">
<path fill="none" stroke="#FFFFFF" stroke-width="120" stroke-linejoin="bevel" stroke-miterlimit="10" d="M62.6,173.8
	c-19.6,40.2-45.4,92.4-39.8,136.8c28.6-11.2,70.8-12.4,90.8-35.6c24.1-28,27.3-78.9,51.4-106.9c2,40.5,3.9,81,5.9,121.4
	c0.4,8.1,0.8,16.4,4.3,23.6c3.5,7.3,10.8,13.3,18.9,12.8c42.1-83.8,84.1-167.7,126.2-251.5c7.7-15.3,15.6-30.9,27.5-43.1
	s29-20.8,46-18.5c4,0.5,7.9,1.7,11.5,3.4c9.8,4.8,17.2,14.3,19.3,25c3,15.3-4.2,30.4-9.4,45.1c-5.2,14.7-7.8,32.7,2.3,44.5
	c10.4,12.1,30.3,11.6,43.9,3.1c13.6-8.4,22.3-22.6,30.6-36.3c15.5-25.7,31.1-51.4,46.6-77.2c5.5-9.1,11.2-18.5,19.7-24.9
	s20.5-9.5,30-4.6c8.4,4.3,13,14,13.4,23.4c0.4,9.4-2.9,18.6-7.1,27.1c-16.4,33.1-46,57.3-68.3,86.7c-22.2,29.4-36.7,70.9-18.1,102.7
	c19.7,3,37.7-10.8,52.2-24.5c14.5-13.7,30.2-29,50.2-30.2c17-1,33.1,9.3,43.1,23s14.8,30.6,18.1,47.2c3.7,18.5,4.6,40.8-9.8,53.1
	c-9,7.7-21.6,9.1-33.4,10.2c-136.9,12.3-274.6,16.7-412,12.9c8.3-12.8,16.6-25.6,25-38.4"/>
<path fill="none" stroke="#F7941E" stroke-width="7" stroke-linecap="round" stroke-linejoin="round" stroke-miterlimit="10" d="
	M373.7,43C317.8,131.4,252.1,227.1,188,309.7c131.4-0.5,262.8-0.9,394.3-1.4c-78-89.2-137.5-168.6-204.6-267.3"/>
<g>
	<text transform="matrix(1 0 0 1 333.4064 27)" fill="#F7941E" font-family="'PermanentMarker'" font-size="31">comfy</text>
	<text transform="matrix(1 0 0 1 590.0001 324)" fill="#F7941E" font-family="'PermanentMarker'" font-size="31">fits well</text>
	<text transform="matrix(1 0 0 1 2.9903 324)" fill="#F7941E" font-family="'PermanentMarker'" font-size="31">looks good</text>
</g>
<g>
	<path fill="none" stroke="#010101" stroke-width="7" stroke-linecap="round" stroke-linejoin="round" stroke-miterlimit="10" d="
		M399.3,104c-7.3,9.3-14.7,18.7-22,28"/>
	<path fill="none" stroke="#010101" stroke-width="7" stroke-linecap="round" stroke-linejoin="round" stroke-miterlimit="10" d="
		M381.4,107.2c5.7,7.2,11.4,14.4,17.2,21.6"/>
	<path fill="none" stroke="#010101" stroke-width="7" stroke-linecap="round" stroke-linejoin="round" stroke-miterlimit="10" d="
		M410.9,112c10.2,3.2,21.4-1.6,29.3-8.8C448,96,453.5,86.6,459.8,78c6.4-8.6,14.3-16.7,24.6-19.6"/>
</g>
<text transform="matrix(1 0 0 1 492.5001 34.0903)"><tspan x="0" y="0" font-family="'PermanentMarker'" font-size="31">grandma’s</tspan><tspan x="0" y="30" font-family="'PermanentMarker'" font-size="31">knitted</tspan><tspan x="0" y="60" font-family="'PermanentMarker'" font-size="31">sweater</tspan></text>
<g>
	<path fill="none" stroke="#010101" stroke-width="7" stroke-linecap="round" stroke-linejoin="round" stroke-miterlimit="10" d="
		M273.6,287.7c-6.4,6.8-12.8,13.6-19.2,20.3"/>
	<path fill="none" stroke="#010101" stroke-width="7" stroke-linecap="round" stroke-linejoin="round" stroke-miterlimit="10" d="
		M255.7,284.4c4.2,7.3,9.8,13.8,16.4,19"/>
	<path fill="none" stroke="#010101" stroke-width="7" stroke-linecap="round" stroke-linejoin="round" stroke-miterlimit="10" d="
		M244.9,274.9c-9.7-3-15.7-12.9-19-22.5c-3.3-9.7-4.8-20.1-10.1-28.8c-5.3-8.7-16-15.4-25.6-11.8"/>
</g>
<text transform="matrix(1 0 0 1 44.7374 199.0471)"><tspan x="0" y="0" font-family="'PermanentMarker'" font-size="31">first prom</tspan><tspan x="29.8" y="30" font-family="'PermanentMarker'" font-size="31">tuxedo</tspan></text>
<g>
	<path fill="none" stroke="#010101" stroke-width="7" stroke-linecap="round" stroke-linejoin="round" stroke-miterlimit="10" d="
		M533.9,299c5.5,5.2,11,10.3,16.5,15.5"/>
	<path fill="none" stroke="#010101" stroke-width="7" stroke-linecap="round" stroke-linejoin="round" stroke-miterlimit="10" d="
		M549.9,299.1c-4.3,7.6-9.9,14.5-16.5,20.2"/>
	<path fill="none" stroke="#010101" stroke-width="7" stroke-linecap="round" stroke-linejoin="round" stroke-miterlimit="10" d="
		M535.4,288c-7-8.6-12.4-18.8-13.5-29.8c-1.1-11,2.5-22.8,11.1-29.9c8.5-7,20.2-8.3,31.2-9.3"/>
</g>
<text transform="matrix(1 0 0 1 578.0001 194.0122)"><tspan x="0" y="0" font-family="'PermanentMarker'" font-size="31">runway</tspan><tspan x="0" y="30" font-family="'PermanentMarker'" font-size="31">models’</tspan><tspan x="0" y="60" font-family="'PermanentMarker'" font-size="31">dresses</tspan></text>
</svg>
