<?xml version="1.0" encoding="utf-8"?>
<!-- Generator: Adobe Illustrator 19.2.0, SVG Export Plug-In . SVG Version: 6.00 Build 0)  -->
<svg version="1.1" id="Layer_1" xmlns="http://www.w3.org/2000/svg" xmlns:xlink="http://www.w3.org/1999/xlink" x="0px" y="0px"
	 width="400.57px" height="359.28px" viewBox="0 0 400.57 359.28" enable-background="new 0 0 400.57 359.28" xml:space="preserve">
<path fill="none" stroke="#FFFFFF" stroke-width="120" stroke-linejoin="bevel" stroke-miterlimit="10" d="M32.09,8.11
	C20.07,23.43,15.15,44.09,18.96,63.18c30.05-18.41,60.1-36.81,90.15-55.22c-4.32,9.37-8.69,18.93-9.88,29.17s1.29,21.47,8.9,28.43
	c10.32,9.44,26.89,8.3,39.35,1.95c12.46-6.35,22.18-16.86,32.99-25.73C218.39,10.69,272.3,0.31,319.05,15.1
	c8.49,2.68,17.7,7.15,20.25,15.68c3.55,11.88-8.32,23.03-20.14,26.76c-11.83,3.73-25.06,3.75-35.52,10.42
	c-11.7,7.46-17.39,23.16-13.21,36.39c4.19,13.23,17.88,22.79,31.74,22.16c-23.19,23.62-46.38,47.23-69.57,70.85
	c24.28,2.11,48.56,4.21,72.84,6.32c17.98,1.56,37.22,3.63,50.98,15.3c11.57,9.82,17.34,25.14,18.69,40.26s-1.23,30.28-3.8,45.24
	c-2.45,14.27-7.89,31.65-22.19,33.88c-6.38,0.99-12.72-1.58-18.72-3.97c-99.62-39.57-210.02-38.74-317.2-37.35
	c-14.04-70.16,1.78-145.8,42.76-204.46c0.16,52.73,0.32,105.47,0.48,158.2c0.03,10.36,0.09,20.92,3.31,30.76
	c3.21,9.85,10.15,19.05,19.99,22.29c18.12,5.97,35.66-9.51,48.5-23.62c35.92-39.46,71.83-78.91,107.75-118.37"/>
<g>
	<path fill="none" stroke="#000000" stroke-width="7" stroke-linecap="round" stroke-linejoin="round" stroke-miterlimit="10" d="
		M44.82,79.96c0,80.26,0,160.51,0,240.77"/>
	
		<line fill="none" stroke="#000000" stroke-width="7" stroke-linecap="round" stroke-linejoin="round" stroke-miterlimit="10" x1="22.32" y1="298.23" x2="384.72" y2="298.23"/>
	
		<polyline fill="none" stroke="#000000" stroke-width="7" stroke-linecap="round" stroke-linejoin="round" stroke-miterlimit="10" points="
		22.32,101.96 44.82,79.96 67.32,101.96 	"/>
	
		<polyline fill="none" stroke="#000000" stroke-width="7" stroke-linecap="round" stroke-linejoin="round" stroke-miterlimit="10" points="
		362.72,275.73 384.72,298.23 362.72,320.73 	"/>
</g>
<text transform="matrix(1 0 0 1 330.7751 353.5404)" font-family="'PermanentMarker'" font-size="30.74px">age</text>
<text transform="matrix(1 0 0 1 17.1029 62.0728)"><tspan x="0" y="0" fill="#00A9A3" font-family="'PermanentMarker'" font-size="30.74px">re</tspan><tspan x="32.66" y="0" fill="#00A9A3" font-family="'PermanentMarker'" font-size="30.74px">s</tspan><tspan x="46.62" y="0" fill="#00A9A3" font-family="'PermanentMarker'" font-size="30.74px">ponsibilities</tspan></text>
<path fill="none" stroke="#00A9A3" stroke-width="7" stroke-linecap="round" stroke-linejoin="round" stroke-miterlimit="10" d="
	M56.28,287.94c86.93-57.88,173.87-115.76,260.8-173.64"/>
<text transform="matrix(1 0 0 1 17.6821 29.6195)"><tspan x="0" y="0" fill="#F4783B" font-family="'PermanentMarker'" font-size="30.74px">magnitu</tspan><tspan x="122.87" y="0" fill="#F4783B" font-family="'PermanentMarker'" font-size="30.74px">d</tspan><tspan x="137.85" y="0" fill="#F4783B" font-family="'PermanentMarker'" font-size="30.74px">e of hang</tspan><tspan x="283.11" y="0" fill="#F4783B" font-family="'PermanentMarker'" font-size="30.74px">o</tspan><tspan x="301.52" y="0" fill="#F4783B" font-family="'PermanentMarker'" font-size="30.74px">v</tspan><tspan x="316.44" y="0" fill="#F4783B" font-family="'PermanentMarker'" font-size="30.74px">e</tspan><tspan x="332.17" y="0" fill="#F4783B" font-family="'PermanentMarker'" font-size="30.74px">rs</tspan></text>
<path fill="none" stroke="#F4783B" stroke-width="7" stroke-linecap="round" stroke-linejoin="round" stroke-miterlimit="10" d="
	M61.79,290.74c58.78,2.38,115.48-29.75,152.58-75.41s56.59-103.4,66.41-161.4"/>
</svg>
