<?xml version="1.0" encoding="utf-8"?> <!-- Generator: Adobe Illustrator 18.0.0, SVG Export Plug-In . SVG Version: 6.00 Build 0) --> <!DOCTYPE svg PUBLIC "-//W3C//DTD SVG 1.1//EN" "http://www.w3.org/Graphics/SVG/1.1/DTD/svg11.dtd"> <svg version="1.1" id="Layer_1" xmlns="http://www.w3.org/2000/svg" xmlns:xlink="http://www.w3.org/1999/xlink" x="0px" y="0px" viewBox="0 0 857.8 329.5" enable-background="new 0 0 857.8 329.5" xml:space="preserve"> <path stroke="#FFFFFF" stroke-width="120" d="M88.4-33.9 C40.5,17.1,5.3,80-13,147.5c-2,7.5,0.2,19.6,7.7,17.5c2.1-0.6,3.6-2.3,5-3.9C25.5,131.4,42.5,95.3,63,61.7s45.8-66.3,81.5-82.9 c-9,43-36.2,79.5-56.7,118.3c-37.5,70.8-53.6,152.7-45.9,232.4c6.1-2.4,9.6-8.5,12.5-14.3C78.8,267,94.6,214.5,123.6,169 c15.2-23.8,33.9-45.6,44.6-71.7c11.7-28.6,14.5-63.4,38.6-82.8c-7.9,85.4-11.9,171.2-11.8,257c0,7.4,0.1,15.1,3.7,21.5 c3.6,6.4,11.9,10.9,18.5,7.7c4.9-2.4,7.3-7.9,9.1-13c13.2-36.5,17.9-76.7,39-109.3c2.7-4.2,7.4-8.7,12-6.7c2.1,0.9,3.4,3.1,4.4,5.1 c9.5,18.2,12.1,39.1,19.6,58.2c7.5,19.1,22.6,37.8,43,39.3c24.7-48.2,42.2-100.1,51.8-153.4c4.6-25.6,11.8-56.8,36.8-63.9 c11.9,32.3,15.1,67.1,23.1,100.7s22.1,67.6,49.7,88.3c16.8-28.9,33.6-57.8,50.5-86.6c3.8-6.5,9.3-13.9,16.7-13.1 c6.8,0.8,10.7,7.9,13.2,14.3c7.6,18.8,14.1,38.4,25,55.5c11,17.1,27.5,31.9,47.5,35.3c1.2-35.9,8.8-71.5,22.2-104.8 c2.4-6,6.8-12.9,13.2-12c5,0.8,7.7,6.1,9.7,10.7c13,31.2,26,62.4,39,93.6c34.2-50.1,63.5-103.6,87.4-159.4 c5.9,56.3,7.3,113.1,4.2,169.7"/> <text transform="matrix(1 0 0 1 792.1846 153.2432)" font-family="'PermanentMarker'" font-size="31">I.Q.</text> <text transform="matrix(1 0 0 1 29.942 26.5654)" font-family="'PermanentMarker'" font-size="31">kindness</text> <path stroke="#9E005D" stroke-width="7" d=" M52.7,191.1c10-32,27-61,42-90c11-20,30-59,61-46c12,6,19,26,24,37c11,21,19,45,28,67c15,39,35,99,82,110c39,8,60-46,78-69 c22-27,41-83,88-67c17,5,31,29,43,42s28,25,43,35c13,9,22,14,38,13c24-1,34-16,51-31c27-22,54-38,90-27c30,10,44,32,78,18"/> <g> <line stroke-width="7" x1="49.3" y1="314" x2="49.3" y2="40"/> <polyline stroke-width="7" points=" 26.7,62.1 49.2,40.1 71.7,62.1 	"/> <path d=" M32.5,24.7c0,0,3.6-14.1,4.3-14.6 M46.7,11.3c-7.7,3.6-14.2,13.4-14.2,13.4 M38.7,17.7c0,0,2.5,5.8,10.2,5"/> <path d=" M56.2,10.5C55.8,11,53.7,21.7,55,25.1"/> <path d=" M61.9,23.8c-0.2-0.9,5.3-13.4,5.3-13.4 M67.1,10.4c-0.8,2,0,14.6,3.8,12.9c3.5-1.6,3.5-12.4,4.5-13"/> <path d=" M80.9,12.8c1,3.6,0.7,6.5-0.6,12.1 M80.3,24.8c16.1-5.5,11.7-10.9,0.6-14.9"/> <path d=" M94.9,23.8c-0.2-0.9,5.3-13.4,5.3-13.4 M100.1,10.4c-0.8,2,0,14.6,3.8,12.9c3.5-1.6,3.5-12.4,4.5-13"/> <path d=" M123.7,24c0,0-9.3,3.2-10.4,0.3c-1.1-2.9,3.6-9.2,2.8-10.6 M125.3,10.5c0,0-10.8,1.4-11,2.6 M114.8,18c0,0,6.6,0.2,7.3-0.4"/> <path d=" M141.1,9.9c-1.6-1-12.1,1.8-12.2,3.4c-0.1,1.6,8.4,1.7,9,5.2c0.5,2.9-6.9,6.4-8.3,5.7"/> <path d=" M155.1,9.9c-1.6-1-12.1,1.8-12.2,3.4c-0.1,1.6,8.4,1.7,9,5.2c0.5,2.9-6.9,6.4-8.3,5.7"/> </g> <g> <line stroke-width="7" x1="25.8" y1="194.5" x2="834.8" y2="194.5"/> <polyline stroke-width="7" points=" 812.7,172.1 834.7,194.6 812.7,217.1 	"/> <path d=" M808.9,150.7c0.9-0.5,2.9,1,2.3,1.3c-0.6,0.3-2.3,0.6-2.3,0.6"/> <path d=" M827.8,135.9c0,0,5.2,3.1,5.1,7.3c-0.1,5.7-13.6,8.8-14.8,5.7c-1.2-3,10.8-13,10.8-13 M831.5,151.9c0,0-4.1-7.3-4.8-7.7"/> <path d=" M838.9,150.7c0.9-0.5,2.9,1,2.3,1.3c-0.6,0.3-2.3,0.6-2.3,0.6"/> <path d=" M801,151.1c-1.3-3.4,0.8-14.1,1.2-14.6 M810.1,134c-3.1-0.3-11.7,1.2-13.2,2 M803.5,149.8c-5.4-0.9-9.8,1.3-9.8,1.3"/> </g> </svg> 