<?xml version="1.0" encoding="utf-8"?>
<!-- Generator: Adobe Illustrator 18.0.0, SVG Export Plug-In . SVG Version: 6.00 Build 0)  -->
<!DOCTYPE svg PUBLIC "-//W3C//DTD SVG 1.1//EN" "http://www.w3.org/Graphics/SVG/1.1/DTD/svg11.dtd">
<svg version="1.1" id="Layer_1" xmlns="http://www.w3.org/2000/svg" xmlns:xlink="http://www.w3.org/1999/xlink" x="0px" y="0px"
	 viewBox="0 0 455.2 325" enable-background="new 0 0 455.2 325" xml:space="preserve">
<path fill="none" stroke="#FFFFFF" stroke-width="120" stroke-linejoin="bevel" stroke-miterlimit="10" d="M154.1,21.1
	c-34.9-7-75.5-12.5-102.2,11.1C27.8,53.4,25.5,89.5,25,121.6c-0.5,31.1-1,62.2-1.6,93.3c-0.4,22.7,1.7,49.9,21.4,61.1
	c19,10.7,42.3-0.1,62.6-8.2c61-24.3,132.1-21.6,191.1,7.1c27.4,13.4,54.8,32.6,85.2,29.7c30.1-2.9,54.3-28,65.2-56.1
	c11-28.1,11.2-59.1,11.3-89.3c0.1-13.7,0-27.7-4.9-40.4c-5-12.7-16.1-24-29.7-24.9c-19.7-1.4-34,17.7-44.8,34.3
	c-23.2,35.8-49.3,71.2-85.1,94.4s-83.6,32-121.6,12.6c-26.4-13.5-44.8-38.3-62.1-62.3c-26-35.8-51.9-71.6-77.9-107.4"/>
<g>
	
		<line fill="none" stroke="#000000" stroke-width="7" stroke-linecap="round" stroke-linejoin="round" stroke-miterlimit="10" x1="34.5" y1="35.7" x2="34.5" y2="288.3"/>
	
		<line fill="none" stroke="#000000" stroke-width="7" stroke-linecap="round" stroke-linejoin="round" stroke-miterlimit="10" x1="444.9" y1="265.8" x2="12" y2="265.8"/>
	
		<polyline fill="none" stroke="#000000" stroke-width="7" stroke-linecap="round" stroke-linejoin="round" stroke-miterlimit="10" points="
		12,57.7 34.5,35.7 57,57.7 	"/>
	
		<polyline fill="none" stroke="#000000" stroke-width="7" stroke-linecap="round" stroke-linejoin="round" stroke-miterlimit="10" points="
		422.9,243.3 444.9,265.8 422.9,288.3 	"/>
</g>
<text transform="matrix(1 0 0 1 395.4691 319.6336)" font-family="'PermanentMarker'" font-size="31">age</text>
<text transform="matrix(1 0 0 1 6.0043 23.9681)" font-family="'PermanentMarker'" font-size="31"># of naps</text>
<path fill="none" stroke="#46408A" stroke-width="7" stroke-linecap="round" stroke-linejoin="round" stroke-miterlimit="10" d="
	M48.5,76.9c26.8,44.4,58.9,85.5,95.4,122.2c16,16.1,33.2,31.6,54.1,40.3c32.1,13.4,69.9,8.9,100.8-7.1s55.4-42.4,74.2-71.7
	s32.3-61.6,45.7-93.7"/>
</svg>
