<?xml version="1.0" encoding="utf-8"?>
<!-- Generator: Adobe Illustrator 19.2.0, SVG Export Plug-In . SVG Version: 6.00 Build 0)  -->
<svg version="1.1" id="Layer_1" xmlns="http://www.w3.org/2000/svg" xmlns:xlink="http://www.w3.org/1999/xlink" x="0px" y="0px"
	 width="777.22px" height="767.38px" viewBox="0 0 777.22 767.38" enable-background="new 0 0 777.22 767.38" xml:space="preserve">
<path fill="none" stroke="#FFFFFF" stroke-width="120" stroke-linejoin="bevel" stroke-miterlimit="10" d="M42.42,2.93
	C30.28,45.57,18.13,88.2,5.98,130.83c33.74-42.5,67.48-85,101.22-127.49C83.03,61.28,58.87,119.22,34.7,177.16
	c40.01-53.24,80.03-106.49,120.04-159.73c-13.41,51.67-26.82,103.35-40.23,155.02c30.96-64.92,72.56-124.77,122.62-176.42
	c-24.07,56.7-48.14,113.41-72.21,170.11C205.58,112.52,246.24,58.9,286.9,5.28c-28.79,62.27-57.58,124.53-86.37,186.8
	C256.65,144.78,301.24,83.91,329.4,16.14c-13.25,53.54-26.49,107.08-39.74,160.62c26.89-35.18,53.78-70.36,80.67-105.54
	c2.43,12.89,4.87,25.78,7.3,38.67c14.15-18.43,28.31-36.86,42.46-55.29c3.67,20.64,7.35,41.28,11.02,61.92
	c30.77-33.66,61.54-67.32,92.31-100.98c11.45,42.43-24.42,85.34-65.76,100.26s-86.71,10.35-130.65,10.98
	c-110.17,1.58-219.58,38.19-308.52,103.22C11.29,269.4,4.09,308.81-3.12,348.23c23.68-56.88,58.58-109.07,102.11-152.67
	c-22.06,56.87-44.13,113.74-66.19,170.61c23.74-66.15,61.49-127.23,110.03-178.05c-22.58,60.04-45.16,120.08-67.75,180.12
	c36.05-52.66,72.1-105.31,108.14-157.97c-19.78,56.97-39.56,113.95-59.34,170.92c35.51-67.53,71.02-135.06,106.53-202.59
	c-16.58,67.79-33.16,135.58-49.75,203.37c30.62-70.93,61.25-141.87,91.87-212.8c-9.23,63.96-18.46,127.91-27.69,191.87
	c32.57-56.14,65.13-112.28,97.7-168.42c-11.73,60.77-23.47,121.54-35.2,182.31c-1.23-32.45,12.52-65.16,36.55-86.99
	c24.03-21.83,57.91-32.38,90.09-28.05c-12.16,23.52-38.18,36.96-64.13,42.21s-52.73,3.75-79.14,5.54
	C155.65,316.81,32.67,421.87,2.51,553.85c43.83-54.4,87.67-108.79,131.5-163.19c-30.99,58.58-61.98,117.15-92.98,175.73
	c42.43-58.14,84.86-116.27,127.29-174.41c-24.57,59.67-49.15,119.34-73.72,179.01c40.92-55.52,81.84-111.04,122.76-166.55
	c-24.8,62.15-49.6,124.29-74.4,186.44c38.47-65.15,76.94-130.29,115.41-195.44c-19.21,62.11-38.42,124.22-57.64,186.33
	c17.73-63.39,50.41-122.55,94.64-171.3c-9.53,55.01-19.06,110.01-28.59,165.02c4.32-46.6,23.51-91.71,54.09-127.14
	c0.66,29.29,1.33,58.58,1.99,87.86c21.56-28.27,43.13-56.54,64.69-84.82c0.87,11.14,1.73,22.28,2.6,33.42
	c15.87-9.08,31.75-18.15,47.62-27.23c-2.29,11.7-4.58,23.4-6.87,35.11c19.87-14.28,39.74-28.57,59.61-42.85
	c-3.35,17.89-6.69,35.77-10.04,53.66c12.92-13.59,25.85-27.18,38.77-40.77c2.57,16.15,5.14,32.3,7.71,48.44
	c12.37-14.42,24.74-28.84,37.11-43.25c5.68,11.41-0.82,25.89-11.2,33.27c-10.39,7.39-23.56,9.39-36.2,10.99
	C419,524.5,318.94,525.11,224.81,553.94c-94.13,28.84-184.88,93.46-211.24,188.31c38.54-44.41,77.07-88.82,115.61-133.23
	c-22.23,53.09-44.46,106.17-66.69,159.26c36.23-46.06,72.46-92.12,108.69-138.18c-20.86,47.87-41.73,95.74-62.59,143.62
	c28.5-55.61,57.01-111.23,85.51-166.84c-9.3,52.99-18.6,105.98-27.9,158.98c9.27-64.68,34.29-127.04,72.29-180.19
	C219,652.5,199.5,719.32,179.99,786.15c28.22-62.05,56.45-124.1,84.67-186.14c-10.61,50.84-21.22,101.69-31.84,152.53
	c25.08-41.02,50.17-82.04,75.25-123.06c-10.6,46.53-21.21,93.06-31.81,139.59c15.23-35.11,30.45-70.22,45.68-105.33
	c1.4,29.63,2.79,59.27,4.19,88.9c-1.6-34.9,30.95-63.84,65.21-70.73s69.44,2.65,103.07,12.11
	c-21.54-164.66-15.35-332.92,18.23-495.55c10.18-49.32,26.89-103.56,71.09-127.69c-10.55,16.75-21.1,33.49-31.65,50.24
	c11.99-1.94,23.97-3.87,35.96-5.81c-10.59,23.68-21.17,47.35-31.76,71.03c13.54-0.78,27.09-1.56,40.63-2.34
	c-12.46,27.07-24.93,54.14-37.39,81.21c25.47-4.12,50.94-8.24,76.42-12.36c-22.66,33.58-45.32,67.16-67.97,100.74
	c15.3-8.21,30.6-16.43,45.89-24.64c-13.59,24.93-27.17,49.85-40.76,74.78c12.11-5.75,24.23-11.5,36.34-17.24
	c-12.68,26.73-25.36,53.47-38.04,80.2c11.34-4.4,22.67-8.8,34.01-13.2c-16.62,37.06-33.25,74.13-49.87,111.19
	c19.95-9.8,39.91-19.6,59.86-29.4c-14.55,37.29-29.09,74.58-43.64,111.87c18.68-13.59,37.35-27.18,56.03-40.77
	c-22.69,38.58-45.37,77.15-68.06,115.73c40.49-15.57,64.88-59.06,69.96-102.14c5.08-43.09-5.71-86.31-16.99-128.2
	c-11.27-41.89-23.23-84.6-20.5-127.9c54.41-10.72,111.1-9.76,165.12,2.8"/>
<g>
	<g>
		<text transform="matrix(1 0 0 1 68.1963 70.1091)"><tspan x="0" y="0" font-family="'PermanentMarker'" font-size="30.74px">wh</tspan><tspan x="43.26" y="0" font-family="'PermanentMarker'" font-size="30.74px" letter-spacing="-1">a</tspan><tspan x="59.59" y="0" font-family="'PermanentMarker'" font-size="30.74px">t</tspan><tspan x="-10.96" y="30" font-family="'PermanentMarker'" font-size="30.74px">i </tspan><tspan x="10.27" y="30" font-family="'PermanentMarker'" font-size="30.74px">w</tspan><tspan x="35.33" y="30" font-family="'PermanentMarker'" font-size="30.74px">ant</tspan><tspan x="-1.92" y="60" font-family="'PermanentMarker'" font-size="30.74px">t</tspan><tspan x="11.89" y="60" font-family="'PermanentMarker'" font-size="30.74px">o be</tspan></text>
		<path fill="none" stroke="#000000" stroke-width="7" stroke-linecap="round" stroke-linejoin="round" stroke-miterlimit="10" d="
			M109.6,17.19C80.36,15.4,50.99,32.01,38.22,56.94s-8.56,56.64,9.81,78.22s49.77,32.25,78.6,27.31
			c28.83-4.95,54.04-25.03,64.76-50.81c4.83-11.63,6.88-24.33,5.5-36.76c-2.44-22.09-16.16-42.83-36.09-54.58
			s-45.67-14.25-67.72-6.59"/>
	</g>
	<g>
		<text transform="matrix(1 0 0 1 225.9815 70.1091)"><tspan x="0" y="0" font-family="'PermanentMarker'" font-size="30.74px">wh</tspan><tspan x="43.26" y="0" font-family="'PermanentMarker'" font-size="30.74px" letter-spacing="-1">a</tspan><tspan x="59.59" y="0" font-family="'PermanentMarker'" font-size="30.74px">t</tspan><tspan x="13.12" y="30" font-family="'PermanentMarker'" font-size="30.74px">y</tspan><tspan x="24.5" y="30" font-family="'PermanentMarker'" font-size="30.74px">o</tspan><tspan x="43.23" y="30" font-family="'PermanentMarker'" font-size="30.74px">u</tspan><tspan x="11.9" y="60" font-family="'PermanentMarker'" font-size="30.74px">are</tspan></text>
		<path fill="none" stroke="#000000" stroke-width="7" stroke-linecap="round" stroke-linejoin="round" stroke-miterlimit="10" d="
			M256.43,13.76c-32.06-6-67.01,11.26-81.2,39.14s-7.13,63.83,15.89,85.81c12.52,11.95,29.22,19.91,46.82,22.32
			c28.64,3.92,59.15-7.74,76.67-29.56c17.51-21.82,21.17-52.97,8.85-77.77s-40.17-42.05-69.11-42.48"/>
	</g>
	<path fill="none" stroke="#ED1C24" stroke-width="7" stroke-linecap="round" stroke-linejoin="round" stroke-miterlimit="10" d="
		M183.07,47.81c-1.19,1.17-2.38,2.35-3.57,3.52c2.06-0.07,4.12-0.13,6.19-0.2c-2.66,1.69-5.33,3.38-7.99,5.07
		c2.89-0.32,5.78-0.63,8.67-0.95c-4.12,2.44-8.24,4.88-12.37,7.32c5.07-0.65,10.13-1.3,15.2-1.96c-5.69,2.85-11.39,5.69-17.08,8.54
		c5.92-0.82,11.85-1.65,17.77-2.47c-6.04,3.08-12.08,6.16-18.13,9.24c6.53-1.37,13.07-2.74,19.6-4.11
		c-5.68,4.8-12.63,8.08-19.95,9.38c6.55-1.55,13.09-3.09,19.64-4.64c-6.4,3.19-12.8,6.38-19.2,9.57c6.87-1.61,13.75-3.21,20.62-4.82
		c-6.97,3.58-13.94,7.16-20.91,10.74c6.76-1.84,13.52-3.67,20.28-5.51c-6.38,3.56-12.76,7.12-19.15,10.68
		c5.79-0.66,11.58-1.33,17.36-1.99c-4.56,2.43-9.11,4.86-13.67,7.28c3.99-0.1,7.99-0.2,11.98-0.31c-4.32,2.06-8.64,4.12-12.96,6.18
		c4.58-0.03,9.16-0.06,13.73-0.09c-2.8,1.62-5.59,3.23-8.39,4.85c1.47,0.64,2.95,1.28,4.42,1.92c-1.38,1.47-2.76,2.94-4.14,4.41"/>
	<text transform="matrix(1 0 0 1 359.604 98.0425)"><tspan x="0" y="0" fill="#ED1C24" font-family="'PermanentMarker'" font-size="30.74px">ins</tspan><tspan x="41.46" y="0" fill="#ED1C24" font-family="'PermanentMarker'" font-size="30.74px">e</tspan><tspan x="57.19" y="0" fill="#ED1C24" font-family="'PermanentMarker'" font-size="30.74px">c</tspan><tspan x="72.05" y="0" fill="#ED1C24" font-family="'PermanentMarker'" font-size="30.74px">urity</tspan></text>
</g>
<g>
	<g>
		<text transform="matrix(1 0 0 1 64.0527 272.2329)"><tspan x="0" y="0" font-family="'PermanentMarker'" font-size="30.74px">wh</tspan><tspan x="43.26" y="0" font-family="'PermanentMarker'" font-size="30.74px" letter-spacing="-1">a</tspan><tspan x="59.59" y="0" font-family="'PermanentMarker'" font-size="30.74px">t</tspan><tspan x="-10.96" y="30" font-family="'PermanentMarker'" font-size="30.74px">i </tspan><tspan x="10.27" y="30" font-family="'PermanentMarker'" font-size="30.74px">w</tspan><tspan x="35.33" y="30" font-family="'PermanentMarker'" font-size="30.74px">ant</tspan></text>
		<path fill="none" stroke="#000000" stroke-width="7" stroke-linecap="round" stroke-linejoin="round" stroke-miterlimit="10" d="
			M123.52,202.34c-35.51-8.09-75.36,12.17-89.75,45.62s-1.69,76.32,28.6,96.53c18.52,12.36,41.76,16.34,63.92,14.27
			c21.14-1.98,42.36-9.62,57.36-24.65c21.61-21.65,26.88-57.17,14.45-85.12c-12.43-27.95-40.93-47.46-71.29-51.21"/>
	</g>
	<g>
		<text transform="matrix(1 0 0 1 224.8379 253.8224)"><tspan x="0" y="0" font-family="'PermanentMarker'" font-size="30.74px">wh</tspan><tspan x="43.26" y="0" font-family="'PermanentMarker'" font-size="30.74px" letter-spacing="-1">a</tspan><tspan x="59.59" y="0" font-family="'PermanentMarker'" font-size="30.74px">t</tspan><tspan x="13.12" y="30" font-family="'PermanentMarker'" font-size="30.74px">y</tspan><tspan x="24.5" y="30" font-family="'PermanentMarker'" font-size="30.74px">o</tspan><tspan x="43.23" y="30" font-family="'PermanentMarker'" font-size="30.74px">u</tspan><tspan x="4.43" y="60" font-family="'PermanentMarker'" font-size="30.74px">h</tspan><tspan x="22.32" y="60" font-family="'PermanentMarker'" font-size="30.74px" letter-spacing="-1">a</tspan><tspan x="38.95" y="60" font-family="'PermanentMarker'" font-size="30.74px">ve</tspan></text>
		<path fill="none" stroke="#000000" stroke-width="7" stroke-linecap="round" stroke-linejoin="round" stroke-miterlimit="10" d="
			M262.9,199.12c-21.79,0.2-43.87,5.38-62.14,17.26c-18.26,11.88-32.36,30.87-35.92,52.36c-2.92,17.64,1.37,36.18,10.88,51.32
			c9.51,15.14,24.03,26.88,40.42,34.02c23.4,10.19,51.02,10.9,74.45,0.79c23.44-10.11,42.13-31.19,48.22-55.98
			c5.39-21.95,0.69-46.17-12.5-64.52c-14.02-19.5-37.36-31.92-61.36-32.8"/>
	</g>
	<path fill="none" stroke="#ED1C24" stroke-width="7" stroke-linecap="round" stroke-linejoin="round" stroke-miterlimit="10" d="
		M184.8,237.19c-1.32,1.23-2.64,2.46-3.96,3.68c2.41-0.03,4.82-0.06,7.23-0.1c-3.83,2.3-7.66,4.6-11.48,6.9
		c5-0.61,10.01-1.22,15.01-1.83c-6.08,3.36-12.16,6.72-18.24,10.08c6.58-0.92,13.17-1.84,19.75-2.75
		c-7.44,3.86-14.88,7.71-22.32,11.57c7.82-1.02,15.65-2.04,23.47-3.06c-8.38,4.46-16.77,8.93-25.15,13.39
		c9.26-2.26,18.51-4.51,27.77-6.76c-9.01,5.65-18.01,11.3-27.02,16.95c9.76-2.82,19.51-5.65,29.27-8.47
		c-9.45,3.53-18.44,8.3-26.65,14.16c8.47-2.08,16.93-4.16,25.4-6.24c-8.42,5.12-16.84,10.24-25.27,15.36
		c9.14-2.93,18.29-5.87,27.43-8.8c-8.76,3.56-16.93,8.58-24.07,14.78c6.09-0.97,12.18-1.94,18.27-2.9
		c-5.21,3.66-10.42,7.31-15.64,10.97c4.64-0.66,9.29-1.32,13.93-1.98c-4.13,2.21-8.25,4.43-12.38,6.64
		c2.07,1.42,4.14,2.84,6.21,4.26"/>
	<text transform="matrix(1 0 0 1 359.604 282.0266)" fill="#ED1C24" font-family="'PermanentMarker'" font-size="30.74px">envy</text>
</g>
<g>
	<g>
		<text transform="matrix(1 0 0 1 69.7557 481.3533)"><tspan x="0" y="0" font-family="'PermanentMarker'" font-size="30.74px">wh</tspan><tspan x="43.26" y="0" font-family="'PermanentMarker'" font-size="30.74px" letter-spacing="-1">a</tspan><tspan x="59.59" y="0" font-family="'PermanentMarker'" font-size="30.74px">t</tspan><tspan x="-6.18" y="30" font-family="'PermanentMarker'" font-size="30.74px">i h</tspan><tspan x="32.93" y="30" font-family="'PermanentMarker'" font-size="30.74px" letter-spacing="-1">a</tspan><tspan x="49.56" y="30" font-family="'PermanentMarker'" font-size="30.74px">ve</tspan></text>
		<path fill="none" stroke="#000000" stroke-width="7" stroke-linecap="round" stroke-linejoin="round" stroke-miterlimit="10" d="
			M111.05,406.05c-24.87-4.06-51.25,7.93-65.89,28.44c-14.64,20.51-17.61,48.39-9.19,72.15s27.56,43.12,50.55,53.45
			c22.12,9.93,48.13,11.67,70.86,3.22s41.66-27.42,48.57-50.67c3.24-10.89,3.88-22.48,2.36-33.74
			c-2.98-22.05-14.48-42.84-31.56-57.09s-39.6-21.83-61.83-20.81"/>
	</g>
	<g>
		<text transform="matrix(1 0 0 1 226.1412 467.2527)"><tspan x="0" y="0" font-family="'PermanentMarker'" font-size="30.74px">wh</tspan><tspan x="43.26" y="0" font-family="'PermanentMarker'" font-size="30.74px" letter-spacing="-1">a</tspan><tspan x="59.59" y="0" font-family="'PermanentMarker'" font-size="30.74px">t</tspan><tspan x="13.12" y="30" font-family="'PermanentMarker'" font-size="30.74px">y</tspan><tspan x="24.5" y="30" font-family="'PermanentMarker'" font-size="30.74px">o</tspan><tspan x="43.23" y="30" font-family="'PermanentMarker'" font-size="30.74px">u</tspan><tspan x="4.43" y="60" font-family="'PermanentMarker'" font-size="30.74px">h</tspan><tspan x="22.32" y="60" font-family="'PermanentMarker'" font-size="30.74px" letter-spacing="-1">a</tspan><tspan x="38.95" y="60" font-family="'PermanentMarker'" font-size="30.74px">ve</tspan></text>
		<path fill="none" stroke="#000000" stroke-width="7" stroke-linecap="round" stroke-linejoin="round" stroke-miterlimit="10" d="
			M253.9,400.08c-38.47-0.29-75.16,28.93-83.48,66.49s12.59,79.54,47.58,95.53c15.39,7.03,33,9.31,49.57,5.87
			c25.03-5.19,46.71-23.69,56.51-47.3c9.79-23.61,7.72-51.64-4.74-73.95c-12.46-22.32-34.87-38.65-59.76-44.47"/>
	</g>
	<path fill="none" stroke="#ED1C24" stroke-width="7" stroke-linecap="round" stroke-linejoin="round" stroke-miterlimit="10" d="
		M187.11,439.94c-0.46,0.45-0.92,0.9-1.38,1.35c1.62,0.29,3.23,0.58,4.85,0.88c-3.17,1.24-6.33,2.49-9.5,3.73
		c4.12,0.16,8.25,0.32,12.37,0.48c-5.4,2-10.8,4-16.2,6.01c5.59,0.74,11.19,1.48,16.78,2.23c-5.47,1.23-10.94,2.45-16.4,3.68
		c5.75-0.25,11.5-0.5,17.26-0.75c-7.32,2.05-14.64,4.11-21.96,6.16c8.31-0.04,16.62-0.07,24.93-0.11
		c-7.87-0.03-15.74,2.35-22.28,6.73c9.09-0.35,18.18-0.7,27.27-1.06c-10.49,2.36-20.99,4.72-31.48,7.09
		c10.13,0.83,20.26,1.66,30.39,2.49c-9.59,1.42-19.18,2.85-28.77,4.27c9.54,0.51,19.07,1.02,28.61,1.53
		c-9.4-0.62-18.93,0.85-27.71,4.27c9.55,0.79,19.1,1.59,28.64,2.38c-9.35,2.06-18.69,4.11-28.04,6.17
		c8.92,0.92,17.84,1.83,26.76,2.75c-9.44,2.23-18.89,4.46-28.33,6.68c9.33-1.18,18.66-2.37,28-3.55
		c-7.41,3.16-14.83,6.32-22.24,9.48c7.35-0.41,14.7-0.83,22.05-1.24c-6.96,2.1-13.91,4.21-20.87,6.31
		c6.59,0.12,13.17,0.24,19.76,0.36c-6.9,1.18-13.8,2.35-20.69,3.53c5.74,0.29,11.48,0.58,17.22,0.87
		c-4.29,1.36-8.58,2.73-12.86,4.09c3.82-0.15,7.64-0.29,11.46-0.44c-1.98,1.85-3.97,3.69-5.95,5.54"/>
	<text transform="matrix(1 0 0 1 359.604 489.1179)"><tspan x="0" y="0" fill="#ED1C24" font-family="'PermanentMarker'" font-size="30.74px">p</tspan><tspan x="16.12" y="0" fill="#ED1C24" font-family="'PermanentMarker'" font-size="30.74px">o</tspan><tspan x="34.85" y="0" fill="#ED1C24" font-family="'PermanentMarker'" font-size="30.74px">ssessiveness</tspan></text>
</g>
<g>
	<g>
		<text transform="matrix(1 0 0 1 63.7462 681.8441)"><tspan x="0" y="0" font-family="'PermanentMarker'" font-size="30.74px">wh</tspan><tspan x="43.26" y="0" font-family="'PermanentMarker'" font-size="30.74px" letter-spacing="-1">a</tspan><tspan x="59.59" y="0" font-family="'PermanentMarker'" font-size="30.74px">t</tspan><tspan x="-5.79" y="30" font-family="'PermanentMarker'" font-size="30.74px">i need</tspan></text>
		<path fill="none" stroke="#000000" stroke-width="7" stroke-linecap="round" stroke-linejoin="round" stroke-miterlimit="10" d="
			M108.62,612.64c-22.91,2.75-44.79,14.79-58.45,33.38s-18.59,43.61-11.9,65.7s25.22,40.46,47.64,45.9
			c16.89,4.1,34.71,1.09,51.38-3.84c12.36-3.65,24.66-8.5,34.49-16.83c22.05-18.7,26.94-53.38,14.01-79.23
			c-12.94-25.85-41.06-42.33-69.85-44.87"/>
	</g>
	<g>
		<text transform="matrix(1 0 0 1 221.5314 663.5741)"><tspan x="0" y="0" font-family="'PermanentMarker'" font-size="30.74px">wh</tspan><tspan x="43.26" y="0" font-family="'PermanentMarker'" font-size="30.74px" letter-spacing="-1">a</tspan><tspan x="59.59" y="0" font-family="'PermanentMarker'" font-size="30.74px">t</tspan><tspan x="13.12" y="30" font-family="'PermanentMarker'" font-size="30.74px">y</tspan><tspan x="24.5" y="30" font-family="'PermanentMarker'" font-size="30.74px">o</tspan><tspan x="43.23" y="30" font-family="'PermanentMarker'" font-size="30.74px">u</tspan><tspan x="4.43" y="60" font-family="'PermanentMarker'" font-size="30.74px">h</tspan><tspan x="22.32" y="60" font-family="'PermanentMarker'" font-size="30.74px" letter-spacing="-1">a</tspan><tspan x="38.95" y="60" font-family="'PermanentMarker'" font-size="30.74px">ve</tspan></text>
		<path fill="none" stroke="#000000" stroke-width="7" stroke-linecap="round" stroke-linejoin="round" stroke-miterlimit="10" d="
			M236.65,610.35c-18.55,1.4-36.51,9.56-49.76,22.6c-13.25,13.05-21.7,30.88-23.39,49.4c-1.67,18.23,3.61,37.65,16.7,50.44
			c13.27,12.96,32.5,17.63,50.94,19.57c21.37,2.25,44.11,1.25,62.62-9.67c18.87-11.13,31.27-32.25,32.41-54.13
			c1.14-21.88-8.77-43.92-25.48-58.08c-16.71-14.16-39.77-20.32-61.43-17.02"/>
	</g>
	<path fill="none" stroke="#ED1C24" stroke-width="7" stroke-linecap="round" stroke-linejoin="round" stroke-miterlimit="10" d="
		M177.62,653.39c-1.12,1.05-2.23,2.09-3.35,3.14c2.34-0.19,4.68-0.38,7.02-0.58c-3.28,1.13-6.57,2.25-9.85,3.38
		c3.59,0.94,7.17,1.88,10.76,2.82c-3.8,0.85-7.61,1.7-11.41,2.56c4.75,0.55,9.5,1.1,14.25,1.65c-6.22,2.01-12.43,4.03-18.65,6.04
		c5.77-0.1,11.53-0.2,17.3-0.3c-6.93,1.9-10.71,3.8-17.63,5.7c7.14,0.01,15.23,0.26,22.37,0.27c-5.87,2.44-15.84,4.63-21.71,7.07
		c6.89,0.27,13.79,0.54,20.68,0.81c-6.48,2.21-12.97,4.42-19.45,6.62c6.83-0.35,13.66-0.71,20.48-1.06
		c-6.7,2.74-13.41,5.48-20.11,8.21c5.86-0.13,11.72-0.27,17.57-0.4c-5.57,2.17-11.13,4.34-16.7,6.5c5.89-0.46,11.79-0.92,17.68-1.37
		c-5.55,1.3-11.09,2.6-16.64,3.9c4.9,0.5,9.79,0.99,14.69,1.49c-4.01,1.33-8.02,2.66-12.03,3.99c3.32,0.04,6.64,0.08,9.96,0.12
		c-2.98,1.16-5.96,2.31-8.94,3.47c2.56-0.1,5.12-0.19,7.67-0.29c-1.01,1.34-2.03,2.68-3.04,4.02"/>
	<text transform="matrix(1 0 0 1 359.604 691.5468)" fill="#ED1C24" font-family="'PermanentMarker'" font-size="30.74px">lacking</text>
</g>
<g>
	<path fill="none" stroke="#000000" stroke-width="7" stroke-linecap="round" stroke-linejoin="round" stroke-miterlimit="10" d="
		M563.65,68.7c21.36,10.62,24.08,39.46,23.92,63.31c-0.35,50.7-0.71,101.4-1.06,152.09c-0.18,26.47,0.34,55.14,16.52,76.09
		c-14.36,22.76-13.9,51.49-12.97,78.39c2.41,69.42,4.81,138.85,7.22,208.27c0.71,20.4-1.07,45.28-19.31,54.46"/>
	<text transform="matrix(1 0 0 1 622.3008 366.3801)"><tspan x="0" y="0" font-family="'PermanentMarker'" font-size="30.74px">jeal</tspan><tspan x="66.7" y="0" font-family="'PermanentMarker'" font-size="30.74px">o</tspan><tspan x="85.44" y="0" font-family="'PermanentMarker'" font-size="30.74px">usy</tspan></text>
</g>
</svg>
