<?xml version="1.0" encoding="utf-8"?>
<!-- Generator: Adobe Illustrator 18.0.0, SVG Export Plug-In . SVG Version: 6.00 Build 0)  -->
<!DOCTYPE svg PUBLIC "-//W3C//DTD SVG 1.1//EN" "http://www.w3.org/Graphics/SVG/1.1/DTD/svg11.dtd">
<svg version="1.1" id="Layer_1" xmlns="http://www.w3.org/2000/svg" xmlns:xlink="http://www.w3.org/1999/xlink" x="0px" y="0px"
	 viewBox="0 0 718.7 583" enable-background="new 0 0 718.7 583" xml:space="preserve">
<path fill="none" stroke="#FFFFFF" stroke-width="120" stroke-linejoin="bevel" stroke-miterlimit="10" d="M56.5,3.1
	C44.9,38.7,33.3,74.3,21.6,109.9C93,77.4,134.4,46.9,197.8,0c-27.6,46.8-32.6,76.9-60.1,123.7C101.5,185,64,251.6,69.3,323.2
	c25.1-42.1,50.1-84.2,75.2-126.3C200.6,102.7,207.6,76.3,285.2,0c-60.1,114.5-69.6,160.4-128.3,275.7
	C117.1,353.9,63.1,485,76.2,572.4C167.6,390.5,283.6,168.9,396.6,0.6c-44.5,220.3-143.3,389.2-210.5,603.3
	c72.7-105.6,100.6-194.4,152.4-312.3S405.9,91.4,494.8,0c-2.7,46.6,0.7,40.9-16.8,83.9c-65.1,159.2-117.8,323.8-157.5,491.6
	c11.6,9.5,29.6,5.4,40.6-4.9c10.9-10.3,16.5-25.2,21.7-39.5c57.3-157.3,114.7-314.6,172-471.9c5.1-14.1,10.4-28.5,19.6-40.2
	c9.2-11.7,23-20.6,37.6-19.8c-39.8,125.5-79.5,250.9-119.3,376.4c-23.4,74-46.8,155.1-19.7,227.7c25.2-101.5,50.5-203,75.7-304.6
	C574.1,195.9,600.8,90.5,660.2,3.8c-23,104.8-45.9,209.7-63.1,315.7c-12.2,75.2-21.4,151.4-17.4,227.4c0.4,7.8,1.3,16.3,6.6,21.9
	c8.3,8.8,23.8,5.1,31.6-4.2s10-22.1,11.9-34.3C655.5,365.8,694.4,164.6,720.1,0c-2.8,170.1-18.7,376.7-21.5,546.8"/>
<g>
	
		<polyline fill="none" stroke="#000000" stroke-width="7" stroke-linecap="round" stroke-linejoin="round" stroke-miterlimit="10" points="
		615.2,292.6 637.2,315.1 615.2,337.6 	"/>
	
		<line fill="none" stroke="#000000" stroke-width="7" stroke-linecap="round" stroke-linejoin="round" stroke-miterlimit="10" x1="637.2" y1="315.1" x2="91.6" y2="315.1"/>
	<g>
		<text transform="matrix(1 0 0 1 648.1294 323.0371)" font-family="'PermanentMarker'" font-size="31">time</text>
	</g>
</g>
<g>
	
		<polyline fill="none" stroke="#000000" stroke-width="7" stroke-linecap="round" stroke-linejoin="round" stroke-miterlimit="10" points="
		92.2,69.1 114.7,47.1 137.2,69.1 	"/>
	
		<line fill="none" stroke="#000000" stroke-width="7" stroke-linecap="round" stroke-linejoin="round" stroke-miterlimit="10" x1="114.7" y1="47.1" x2="114.7" y2="337.4"/>
	<g>
		<text transform="matrix(1 0 0 1 0 69.1133)" font-family="'PermanentMarker'" font-size="31">work</text>
	</g>
</g>
<text transform="matrix(1 0 0 1 472.052 62.2911)" fill="#BB1F8B" font-family="'PermanentMarker'" font-size="31">work on a task</text>
<path fill="none" stroke="#BB1F8B" stroke-width="6" stroke-linecap="round" stroke-linejoin="round" stroke-miterlimit="10" d="
	M119.7,171.9c38.9,0.1,77.8,0.1,116.8,0.2"/>
<g>
	<text transform="matrix(1 0 0 1 327.4939 31.9354)" fill="#FBB03B" font-family="'PermanentMarker'" font-size="31">automate task with code</text>
</g>
<path fill="none" stroke="#FBB03B" stroke-width="6" stroke-linecap="round" stroke-linejoin="round" stroke-miterlimit="10" d="
	M129.6,316c28-12.3,48.9-37.2,62.6-64.6c13.7-27.3,21.1-57.3,28.7-87c4.6-17.8,9.4-35.8,17.5-52.3s19.9-31.7,35.8-41.1
	c30.1-17.7,73-9.1,93.9,18.9c11.1,14.9,16,33.3,20.7,51.3c6.6,25.4,13.2,50.8,19.8,76.2c5.7,21.8,11.5,44,23.4,63.2
	c11.9,19.1,31.1,35.1,53.5,37.5"/>
<text transform="matrix(1 0 0 1 223.5234 258)"><tspan x="0" y="0" font-family="'PermanentMarker'" font-size="31">temporary</tspan><tspan x="-2.8" y="24" font-family="'PermanentMarker'" font-size="31">hard work</tspan></text>
<path fill="none" stroke="#BB1F8B" stroke-width="6" stroke-linecap="round" stroke-linejoin="round" stroke-miterlimit="10" d="
	M230.1,172.1c23.3,0,46.6,0,69.8,0c20.5,0,42.2-1.4,62,4.9c36.3,11.5,52.4,48.5,70.2,78.8c9,15.3,19.2,30.2,33.7,40.9
	c14.4,10.6,32.9,17.4,50.8,12.7c1.8-0.5,3.6-1.1,5.3-1.8"/>
<g>
	<path fill="none" stroke="#000000" stroke-width="7" stroke-linecap="round" stroke-linejoin="round" stroke-miterlimit="10" d="
		M405.7,166.3c4,3.1,10.2,1.4,13.4-2.5c3.2-3.9,4-9.2,4.1-14.2c0-5-0.6-10.1,0.3-15.1c2.1-11.9,13.9-21.3,26-20.8"/>
	<text transform="matrix(1 0 0 1 458.8843 107.9995)"><tspan x="0" y="0" font-family="'PermanentMarker'" font-size="31">automation</tspan><tspan x="0" y="24" font-family="'PermanentMarker'" font-size="31">takes over</tspan></text>
</g>
<text transform="matrix(1 0 0 1 516.8843 233.3335)"><tspan x="0" y="0" font-family="'PermanentMarker'" font-size="31">free time</tspan><tspan x="0" y="24" font-family="'PermanentMarker'" font-size="31">forever ...</tspan></text>
<g>
	<text transform="matrix(1 0 0 1 170.8843 41)" font-family="'PermanentMarker'" font-size="31">theory</text>
	<g>
		<path fill="none" stroke="#000000" stroke-width="7" stroke-linecap="round" stroke-linejoin="round" stroke-miterlimit="10" d="
			M162.5,14.3c-0.5,14.2-1,28.4-1.5,42.7"/>
		<path fill="none" stroke="#000000" stroke-width="7" stroke-linecap="round" stroke-linejoin="round" stroke-miterlimit="10" d="
			M160.9,57.8c39.5-1.6,79.1-3.1,118.6-4.7"/>
		<path fill="none" stroke="#000000" stroke-width="7" stroke-linecap="round" stroke-linejoin="round" stroke-miterlimit="10" d="
			M279.2,53c0-15.6,0-47,0-47"/>
		<path fill="none" stroke="#000000" stroke-width="7" stroke-linecap="round" stroke-linejoin="round" stroke-miterlimit="10" d="
			M280.2,7c-42-0.3-84-0.6-126-1"/>
	</g>
</g>
<g>
	<text transform="matrix(1 0 0 1 194.8843 396.3335)" font-family="'PermanentMarker'" font-size="31">reality</text>
	<path fill="none" stroke="#000000" stroke-width="7" stroke-linecap="round" stroke-linejoin="round" stroke-miterlimit="10" d="
		M178.3,364.9c1.2,16.9,4.5,33.7,10,49.7"/>
	<path fill="none" stroke="#000000" stroke-width="7" stroke-linecap="round" stroke-linejoin="round" stroke-miterlimit="10" d="
		M191.4,411.5c41.7-0.1,83.3-0.1,125-0.2"/>
	<path fill="none" stroke="#000000" stroke-width="7" stroke-linecap="round" stroke-linejoin="round" stroke-miterlimit="10" d="
		M315.5,411.5c-0.5-17.3-0.9-34.7-1.4-52"/>
	
		<line fill="none" stroke="#000000" stroke-width="7" stroke-linecap="round" stroke-linejoin="round" stroke-miterlimit="10" x1="170.7" y1="364.5" x2="310.7" y2="364.5"/>
</g>
<g>
	
		<line fill="none" stroke="#000000" stroke-width="7" stroke-linecap="round" stroke-linejoin="round" stroke-miterlimit="10" x1="114.7" y1="374.1" x2="114.7" y2="578.5"/>
	
		<polyline fill="none" stroke="#000000" stroke-width="7" stroke-linecap="round" stroke-linejoin="round" stroke-miterlimit="10" points="
		92.2,395.1 114.7,373.1 137.2,395.1 	"/>
</g>
<g>
	
		<polyline fill="none" stroke="#000000" stroke-width="7" stroke-linecap="round" stroke-linejoin="round" stroke-miterlimit="10" points="
		615.2,533.5 637.2,556 615.2,578.5 	"/>
	
		<line fill="none" stroke="#000000" stroke-width="7" stroke-linecap="round" stroke-linejoin="round" stroke-miterlimit="10" x1="637.2" y1="556" x2="91.6" y2="556"/>
</g>
<g>
	<path fill="none" stroke="#FBB03B" stroke-width="6" stroke-linecap="round" stroke-linejoin="round" stroke-miterlimit="10" d="
		M134.1,556.4c37.3-14.2,55.2-41.7,67.9-67.8c12.7-26.1,23.5-53.9,53.2-73.9"/>
	<path fill="none" stroke="#FBB03B" stroke-width="6" stroke-linecap="round" stroke-linejoin="round" stroke-miterlimit="10" d="
		M318.6,382c15.1-9.6,35.9-8.6,50.1,2.3c7,5.4,12.4,12.5,19.9,17.2c7.9,5,17,5.6,25.6,2.3c31.4-11.9,47.1-68.2,88-48.7
		c17.4,8.3,28.6,24.8,44.2,35.4c7.5,5.1,16.1,8.9,25.4,8.6c8.7-0.2,16.6-3.9,23.7-8.6c8.7-5.7,16.3-12.7,25-18.3
		c9.6-6.2,20.5-10.3,31.9-11.9"/>
	
		<line fill="none" stroke="#FBB03B" stroke-width="6" stroke-linecap="round" stroke-linejoin="round" stroke-miterlimit="10" x1="662.7" y1="359" x2="669.7" y2="359"/>
	
		<line fill="none" stroke="#FBB03B" stroke-width="6" stroke-linecap="round" stroke-linejoin="round" stroke-miterlimit="10" x1="681.7" y1="359" x2="687.7" y2="359"/>
	
		<line fill="none" stroke="#FBB03B" stroke-width="6" stroke-linecap="round" stroke-linejoin="round" stroke-miterlimit="10" x1="699.7" y1="359" x2="709.7" y2="359"/>
</g>
<g>
	<path fill="none" stroke="#000000" stroke-width="7" stroke-linecap="round" stroke-linejoin="round" stroke-miterlimit="10" d="
		M410,400.7c-1.1,2.3-0.2,5.3,2,6.6c0.9,0.5,2.1,0.7,3,0.3c1-0.4,1.5-1.7,1.1-2.6c-1.7-0.5-3.6-0.3-5.3,0.3"/>
	<text transform="matrix(1 0 0 1 372.3843 436)" font-family="'PermanentMarker'" font-size="31">bug #1</text>
</g>
<path fill="none" stroke="#000000" stroke-width="7" stroke-linecap="round" stroke-linejoin="round" stroke-miterlimit="10" d="
	M573.6,395.7c-1.1-0.6-2.6,0.1-3,1.3c-0.4,1.2,0.1,2.5,1,3.3c0.9,0.8,2.2,1.1,3.4,1.1c0.9,0,1.8-0.2,2.4-0.8
	c0.6-0.6,0.9-1.7,0.3-2.4C576.4,397.5,574.9,394.7,573.6,395.7z"/>
<text transform="matrix(1 0 0 1 528.3843 432.5)" font-family="'PermanentMarker'" font-size="31">bug #2</text>
<path fill="none" stroke="#BB1F8B" stroke-width="6" stroke-linecap="round" stroke-linejoin="round" stroke-miterlimit="10" d="
	M116.9,473.1c79.9,0.5,159.9,1,239.8-2.3c31.8-1.3,63.7-3.2,95.5-5c20.9-1.2,41.8-2.5,62.8-3.7c39.3-2.3,79-4.6,118,0.7"/>
<text transform="matrix(1 0 0 1 263.8843 519.25)" font-family="'PermanentMarker'" font-size="31">no time to ever finish task...</text>
<g>
	
		<line fill="none" stroke="#BB1F8B" stroke-width="6" stroke-linecap="round" stroke-linejoin="round" stroke-miterlimit="10" x1="649.7" y1="463" x2="662.7" y2="463"/>
	
		<line fill="none" stroke="#BB1F8B" stroke-width="6" stroke-linecap="round" stroke-linejoin="round" stroke-miterlimit="10" x1="679.7" y1="463" x2="690.7" y2="463"/>
	
		<line fill="none" stroke="#BB1F8B" stroke-width="6" stroke-linecap="round" stroke-linejoin="round" stroke-miterlimit="10" x1="705.7" y1="463" x2="709.7" y2="463"/>
</g>
</svg>
