<?xml version="1.0" encoding="utf-8"?> <!-- Generator: Adobe Illustrator 18.0.0, SVG Export Plug-In . SVG Version: 6.00 Build 0) --> <!DOCTYPE svg PUBLIC "-//W3C//DTD SVG 1.1//EN" "http://www.w3.org/Graphics/SVG/1.1/DTD/svg11.dtd"> <svg version="1.1" id="Layer_1" xmlns="http://www.w3.org/2000/svg" xmlns:xlink="http://www.w3.org/1999/xlink" x="0px" y="0px" viewBox="0 0 645 387" enable-background="new 0 0 645 387" xml:space="preserve"> <path stroke="#FFFFFF" stroke-width="120" stroke-linejoin="bevel" d="M58.2,27.1 c-5.9,75.6-8.7,151.5-8.5,227.4c0.1,27.4,0.6,55.1,7.4,81.7c28.6,9.7,59.4,13.1,89.5,9.8c12.3-1.3,24.6-3.8,37-2.7 c13.6,1.2,30,5.7,39-4.7c8.2-9.5,3.3-24.1-2.2-35.3c-14.6-30.2-31-60.1-54.5-84.1c-8-8.2-17.2-16.1-21-27c-2-5.8-2.3-12-4.5-17.8 c-2.4-6.5-7-11.9-11.4-17.3c-16.9-20.7-32.3-42.8-45.7-65.9c-4.4-7.6-8.8-16.3-6.6-24.9c1-3.7,3.1-7.1,5.3-10.2 C91.3,42.8,102.2,30,116.8,23c14.6-7.1,33.4-7.3,45.8,3.1c16.2,13.6,15.8,37.9,18.8,58.8c3.4,23.5,12.8,45.7,22.1,67.6 c12.1,28.4,24.1,56.7,36.2,85.1c7.7,18.1,15.5,36.4,19.3,55.8c2.3,11.7,3.1,23.7,7.2,34.8c4.1,11.2,12.2,21.7,23.8,24.7 c5.3,1.4,11.4,0.8,15.5-2.8c2.6-2.3,4.1-5.6,5.4-8.8c6.3-15.6,9.4-32.5,9.1-49.4c-0.1-7.7-0.8-16,3.5-22.3 c4.7-6.9,15.2-12,13.2-20.1c2.6,0.1,5.2,0.2,7.8,0.3c21.3,32.1-0.2,80,21.8,111.7c3,4.4,7,8.3,12,10.1c7.7,2.7,16.6-0.4,22.8-5.7 c6.2-5.4,10.4-12.7,14.5-19.8c11.4-19.8,23.2-39.3,35.6-58.5c2.7-4.3,5.7-8.7,10.4-10.8c9.8-4.4,20.9,4.5,25,14.4 c4.1,9.9,4.4,21.2,9.2,30.8c10,20.1,35.3,26.2,57.5,30c10.9,1.9,22.8,3.7,32.7-1.4c18-9.1,18.9-36.6,6.7-52.7s-32.2-23.8-51.2-30.7 c2.1-35.4,17.6-68.4,31-101.2s25-68.4,18.6-103.3c-17.8-10-35.5-20.1-53.3-30.1c-24.5-13.8-52-28.1-79.3-21.6 c-11.6,2.8-22,9.2-33.5,12.5c-12.5,3.6-25.8,3.4-38.8,3.2c-46.7-0.9-93.5-1.7-140.2-2.6c2.9,69,5.9,138.6,22.7,205.6"/> <polyline stroke-width="7" points=" 30.4,82.3 52.9,60.3 75.4,82.3 "/> <line stroke-width="7" x1="52.9" y1="60.3" x2="52.9" y2="347.7"/> <line stroke-width="7" x1="30.1" y1="325.2" x2="613.5" y2="325.2"/> <polyline stroke-width="7" points=" 591.5,302.7 613.5,325.2 591.5,347.7 "/> <line stroke-width="7" x1="160.5" y1="317" x2="160.5" y2="333"/> <line stroke-width="7" x1="268.5" y1="317" x2="268.5" y2="333"/> <line stroke-width="7" x1="376.5" y1="317" x2="376.5" y2="333"/> <line stroke-width="7" x1="483.5" y1="317" x2="483.5" y2="333"/> <text transform="matrix(1 0 0 1 27.06 39.3454)" font-family="'PermanentMarker'" font-size="31">perceived time before the week end</text> <text transform="matrix(1 0 0 1 93.4424 364.715)" font-family="'PermanentMarker'" font-size="31">m</text> <text transform="matrix(1 0 0 1 204.4516 364.715)" font-family="'PermanentMarker'" font-size="31">t</text> <text transform="matrix(1 0 0 1 309.394 364.715)" font-family="'PermanentMarker'" font-size="31">w</text> <text transform="matrix(1 0 0 1 421.3418 364.715)" font-family="'PermanentMarker'" font-size="31">t</text> <text transform="matrix(1 0 0 1 531.0137 364.715)" font-family="'PermanentMarker'" font-size="31">f</text> <path stroke="#C1172C" stroke-width="7" d="M98.9,101.3 c0,0,197.4,180.9,397.2,180.9c91.8,0,90.4-211.7,90.4-211.7"/> <path stroke-linejoin="bevel" d=" M30.9,37.5c0.4-0.6,1.5-11.7,4.2-13.7s8.7,0.6,7.7,3.4s-7.1,4.6-11.5,3.6"/> <path stroke-linejoin="bevel" d=" M48.7,24.8c0.9,2-2.8,10-2.4,11.1c0.4,1.1,7.7,2,11.2,0.4"/> <path stroke-linejoin="bevel" d=" M48.3,25.1c0.4-0.3,10.2-1.8,10.8-2.4"/> <path stroke-linejoin="bevel" d=" M48.3,29.6c0.7,0.2,6.3,0.8,7,0"/> <path stroke-linejoin="bevel" d=" M63.2,27.3c0.1,0.6-1.7,9.9-1.7,9.9"/> <path stroke-linejoin="bevel" d=" M64.2,28.8c0-1.1,4-5.6,4.7-5.7s5.4,4.2,3.9,5.7s-8.6,3.1-8.6,3.1s1.8,5.4,9.4,6.2"/> <path stroke-linejoin="bevel" d=" M88.5,23.5C85,24.1,76.2,29.3,78.3,34c2.1,4.7,10.2,3.1,10.2,3.1"/> <path stroke-linejoin="bevel" d=" M95.7,24.8c0.9,2-2.8,10-2.4,11.1c0.4,1.1,7.7,2,11.2,0.4"/> <path stroke-linejoin="bevel" d=" M95.3,25.1c0.4-0.3,10.2-1.8,10.8-2.4"/> <path stroke-linejoin="bevel" d=" M95.3,29.6c0.7,0.2,6.3,0.8,7,0"/> <path stroke-linejoin="bevel" d=" M113.2,23.8c-1.1,1.4-2.5,12.2-2.1,13.7"/> <path stroke-linejoin="bevel" d=" M121.5,24.1c0.5,1,2.1,13,2.1,13"/> <path stroke-linejoin="bevel" d=" M123.8,36.2c0,0,6.6-12.1,8.9-12.9"/> <path stroke-linejoin="bevel" d=" M137.7,24.8c0.9,2-2.8,10-2.4,11.1c0.4,1.1,7.7,2,11.2,0.4"/> <path stroke-linejoin="bevel" d=" M137.3,25.1c0.4-0.3,10.2-1.8,10.8-2.4"/> <path stroke-linejoin="bevel" d=" M137.3,29.6c0.7,0.2,6.3,0.8,7,0"/> <path stroke-linejoin="bevel" d=" M151.8,25.8c0.3,1.8,0.9,7.7,0,11.2"/> <path stroke-linejoin="bevel" d=" M152.6,23c2.2,0.3,9.2,4.1,9.8,6.2c0.6,2.2-7.2,7.4-8.7,7.8"/> <path stroke-linejoin="bevel" d=" M177.9,24.1c1.2,0.3,13.1-1.8,14.8-1.4"/> <path stroke-linejoin="bevel" d=" M185.3,23c0.3,1.1-4.7,11.8-4.7,13.1s1.1,2.4,1.1,2.4"/> <path stroke-linejoin="bevel" d=" M196.2,23.8c-1.1,1.4-2.5,12.2-2.1,13.7"/> <path stroke-linejoin="bevel" d=" M203.2,36.2c0-1.6,5.4-12.9,5.8-12.1s0.9,6.9,3.1,7.1s8.9-6.5,10.5-7.1s-1.8,10.9-1.3,12.8"/> <path stroke-linejoin="bevel" d=" M230.7,25.8c0.9,2-2.8,10-2.4,11.1c0.4,1.1,7.7,2,11.2,0.4"/> <path stroke-linejoin="bevel" d=" M230.3,26.1c0.4-0.3,10.2-1.8,10.8-2.4"/> <path stroke-linejoin="bevel" d=" M230.3,30.6c0.7,0.2,6.3,0.8,7,0"/> <path stroke-linejoin="bevel" d=" M259,27c0.2,1.2-2.2,9.6-2.7,10.7"/> <path stroke-linejoin="bevel" d=" M255.1,24.7c1.1-1.2,9.8-3.4,11.4-1.2c1.6,2.2-5.7,6.2-5.7,6.2s9.3,1.4,7.3,4.3s-9.2,3.7-9.2,3.7"/> <path stroke-linejoin="bevel" d=" M275.7,24.8c0.9,2-2.8,10-2.4,11.1c0.4,1.1,7.7,2,11.2,0.4"/> <path stroke-linejoin="bevel" d=" M275.3,25.1c0.4-0.3,10.2-1.8,10.8-2.4"/> <path stroke-linejoin="bevel" d=" M275.3,29.6c0.7,0.2,6.3,0.8,7,0"/> <path stroke-linejoin="bevel" d=" M294.2,23.9c0.4,1.1-4.1,11-3.9,12.8s0.4,1.2,0.4,1.2"/> <path stroke-linejoin="bevel" d=" M291,25.5c0.4-0.2,10.7-4,12.9-2.9"/> <path stroke-linejoin="bevel" d=" M289.7,32c0.9,0.5,10.5-0.7,10.5-0.7"/> <path stroke-linejoin="bevel" d=" M313.3,23.9c-1.8,0.9-13,9.7-9.6,13.2s13.4-0.1,13.6-3.5s-4.5-8.6-4.5-8.6"/> <path stroke-linejoin="bevel" d=" M325.2,26.3c0.1,0.6-1.7,9.9-1.7,9.9"/> <path stroke-linejoin="bevel" d=" M326.2,27.8c0-1.1,4-5.6,4.7-5.7s5.4,4.2,3.9,5.7s-8.6,3.1-8.6,3.1s1.8,5.4,9.4,6.2"/> <path stroke-linejoin="bevel" d=" M342.7,24.8c0.9,2-2.8,10-2.4,11.1c0.4,1.1,7.7,2,11.2,0.4"/> <path stroke-linejoin="bevel" d=" M342.3,25.1c0.4-0.3,10.2-1.8,10.8-2.4"/> <path stroke-linejoin="bevel" d=" M342.3,29.6c0.7,0.2,6.3,0.8,7,0"/> <path stroke-linejoin="bevel" d=" M367.9,23.1c1.2,0.3,13.1-1.8,14.8-1.4"/> <path stroke-linejoin="bevel" d=" M375.3,22c0.3,1.1-4.7,11.8-4.7,13.1s1.1,2.4,1.1,2.4"/> <path stroke-linejoin="bevel" d=" M385.6,24.2c0.4,1.4-2.4,13.4-2.4,13.4"/> <path stroke-linejoin="bevel" d=" M395.8,23.4c1,1.9-2.2,11.8-1.9,14.1"/> <path stroke-linejoin="bevel" d=" M384.4,34.7c1-1,10.6-3.6,10.6-3.6"/> <path stroke-linejoin="bevel" d=" M402.7,25.8c0.9,2-2.8,10-2.4,11.1c0.4,1.1,7.7,2,11.2,0.4"/> <path stroke-linejoin="bevel" d=" M402.3,26.1c0.4-0.3,10.2-1.8,10.8-2.4"/> <path stroke-linejoin="bevel" d=" M402.3,30.6c0.7,0.2,6.3,0.8,7,0"/> <path stroke-linejoin="bevel" d=" M431.3,22.7c0.1,3.2-4.4,9.4-1.9,12.9s11.2-11.6,11.5-11.2s-1.6,11.2,2.2,11.5s4.6-8.9,7.2-13.6"/> <path stroke-linejoin="bevel" d=" M456.7,24.8c0.9,2-2.8,10-2.4,11.1c0.4,1.1,7.7,2,11.2,0.4"/> <path stroke-linejoin="bevel" d=" M456.3,25.1c0.4-0.3,10.2-1.8,10.8-2.4"/> <path stroke-linejoin="bevel" d=" M456.3,29.6c0.7,0.2,6.3,0.8,7,0"/> <path stroke-linejoin="bevel" d=" M472.7,24.8c0.9,2-2.8,10-2.4,11.1c0.4,1.1,7.7,2,11.2,0.4"/> <path stroke-linejoin="bevel" d=" M472.3,25.1c0.4-0.3,10.2-1.8,10.8-2.4"/> <path stroke-linejoin="bevel" d=" M472.3,29.6c0.7,0.2,6.3,0.8,7,0"/> <path stroke-linejoin="bevel" d=" M490.8,22.5c-1.1,1.1-5.1,12.8-4.5,13.9s7.6-9.8,14.2-12.2"/> <path stroke-linejoin="bevel" d=" M492.4,31.2c0.8,2.1,5.1,5.6,9.3,4.8"/> <path stroke-linejoin="bevel" d=" M519.7,24.8c0.9,2-2.8,10-2.4,11.1c0.4,1.1,7.7,2,11.2,0.4"/> <path stroke-linejoin="bevel" d=" M519.3,25.1c0.4-0.3,10.2-1.8,10.8-2.4"/> <path stroke-linejoin="bevel" d=" M519.3,29.6c0.7,0.2,6.3,0.8,7,0"/> <path stroke-linejoin="bevel" d=" M532.4,36.1c0-1.5,5.8-12.1,5.8-12.1"/> <path stroke-linejoin="bevel" d=" M537.4,26.4c0,1.4,0.3,9.9,3.5,10.1s5.1-13,5.1-13"/> <path stroke-linejoin="bevel" d=" M551.8,25.8c0.3,1.8,0.9,7.7,0,11.2"/> <path stroke-linejoin="bevel" d=" M552.6,23c2.2,0.3,9.2,4.1,9.8,6.2c0.6,2.2-7.2,7.4-8.7,7.8"/> <path stroke-linejoin="bevel" d=" M96.2,361.2c0-1.6,5.4-12.9,5.8-12.1s0.9,6.9,3.1,7.1s8.9-6.5,10.5-7.1c1.6-0.6-1.8,10.9-1.3,12.8"/> <path stroke-linejoin="bevel" d=" M206.9,349.1c1.2,0.3,13.1-1.8,14.8-1.4"/> <path stroke-linejoin="bevel" d=" M214.3,348c0.3,1.1-4.7,11.8-4.7,13.1s1.1,2.4,1.1,2.4"/> <path stroke-linejoin="bevel" d=" M315.3,349.7c0.1,3.2-4.4,9.4-1.9,12.9s11.2-11.6,11.5-11.2s-1.6,11.2,2.2,11.5s4.6-8.9,7.2-13.6"/> <path stroke-linejoin="bevel" d=" M423.9,349.1c1.2,0.3,13.1-1.8,14.8-1.4"/> <path stroke-linejoin="bevel" d=" M431.3,348c0.3,1.1-4.7,11.8-4.7,13.1s1.1,2.4,1.1,2.4"/> <path stroke-linejoin="bevel" d=" M537.2,348.9c0.4,1.1-4.1,11-3.9,12.8s0.4,1.2,0.4,1.2"/> <path stroke-linejoin="bevel" d=" M534,350.5c0.4-0.2,10.7-4,12.9-2.9"/> <path stroke-linejoin="bevel" d=" M532.7,357c0.9,0.5,10.5-0.7,10.5-0.7"/> </svg> 