<?xml version="1.0" encoding="utf-8"?>
<!-- Generator: Adobe Illustrator 19.2.0, SVG Export Plug-In . SVG Version: 6.00 Build 0)  -->
<svg version="1.1" id="Layer_1" xmlns="http://www.w3.org/2000/svg" xmlns:xlink="http://www.w3.org/1999/xlink" x="0px" y="0px"
	 width="918.69px" height="420.4px" viewBox="0 0 918.69 420.4" enable-background="new 0 0 918.69 420.4" xml:space="preserve">
<path fill="none" stroke="#FFFFFF" stroke-width="120" stroke-linejoin="bevel" stroke-miterlimit="10" d="M31.2,17.27
	c-3.49,21.32-6.97,42.64-10.46,63.95C74.7,45.25,128.66,9.28,182.62-26.7c-5.71,43.79-46.59,73.07-83.92,96.66
	s-78.41,52.31-84.97,95.98c59.24-30.79,118.49-61.57,177.73-92.36c-16.89,21.99-33.78,43.98-50.67,65.97
	c-31.11,40.5-102.98,138.01-127.06,183.05c58.56-66.06,160.29-186.63,223.81-247.94c10.77,37.67-16.72,74.58-42.4,104.17
	c-45.33,52.23-90.67,104.47-136,156.7c57.95-48.25,115.91-96.51,173.86-144.76c-5.71,28.01-25.61,50.95-46.98,69.93
	s-45.17,35.64-62.94,58.04s-28.89,52.69-19.86,79.81c48.58-17.62,89.64-55.07,111.66-101.83c-7.66,28.39-15.33,56.79-22.99,85.18
	c12.59,13.58,36.22,10.34,50.15-1.87c13.93-12.21,20.58-30.51,26.64-48.01c6.07-17.5,12.6-35.82,26.41-48.17
	c-6.99,37.33-13.98,74.66-20.97,111.98c11.26,0.65,22.52,1.29,33.78,1.94c46.43-123.18,72.73-253.93,77.54-385.49
	c24.39,33.39,32.49,75.97,34.85,117.26c2.36,41.28-0.34,82.92,5.45,123.86c3.54,25.06,16.62,55.06,41.93,55.41
	c16.75,0.23,30.73-14.03,36.57-29.73c5.84-15.7,5.61-32.89,7.08-49.58c4.17-47.39,23.02-93.39,53.31-130.09
	c12.55-15.21,33.98-29.76,50.39-18.81c8.96,5.98,12.36,17.97,10.92,28.65c-1.45,10.68-6.89,20.35-12.51,29.54
	c-23.34,38.16-51.68,73.26-84.07,104.12c-7.97,7.6-16.4,15.22-21.03,25.21c-4.63,10-4.4,23.19,3.68,30.68
	c8.04,7.46,21.27,6.7,30.61,0.94c9.33-5.76,15.51-15.41,20.71-25.07c19.61-36.49,29.5-77.33,45.73-115.45s41.04-75.43,79-92.01
	c-41.35,121.21-95.88,237.91-162.34,347.38c60.43,10.75,125.86-27.18,146.56-84.96c6.12-17.09,8.7-35.43,16.46-51.84
	c7.76-16.41,22.78-31.31,40.93-31.42c-9.14,59.06-37.4,115.01-79.51,157.42c21.98,14.76,52.92,3.1,71.31-15.95
	s29.21-44.17,46.19-64.49c16.98-20.31,44.85-36.04,69.46-26.26c11.55,4.59,20.38,14.03,30.7,20.94s40.44-23.3,50.89-30.02"/>
<line fill="none" stroke="#000000" stroke-width="7" stroke-linecap="round" stroke-linejoin="round" stroke-miterlimit="10" x1="28.52" y1="314.26" x2="751.68" y2="314.26"/>
<line fill="none" stroke="#000000" stroke-width="7" stroke-linecap="round" stroke-linejoin="round" stroke-miterlimit="10" x1="51.02" y1="52.96" x2="51.02" y2="340.33"/>
<polyline fill="none" stroke="#000000" stroke-width="7" stroke-linecap="round" stroke-linejoin="round" stroke-miterlimit="10" points="
	28.52,74.96 51.02,52.96 73.52,74.96 "/>
<polyline fill="none" stroke="#000000" stroke-width="7" stroke-linecap="round" stroke-linejoin="round" stroke-miterlimit="10" points="
	729.68,291.76 751.68,314.26 729.68,336.76 "/>
<text transform="matrix(1 0 0 1 22.5225 40.2139)"><tspan x="0" y="0" font-family="'PermanentMarker'" font-size="30.74px">pro</tspan><tspan x="52.08" y="0" font-family="'PermanentMarker'" font-size="30.74px">d</tspan><tspan x="67.06" y="0" font-family="'PermanentMarker'" font-size="30.74px">uctivity</tspan></text>
<text transform="matrix(1 0 0 1 774.7501 307.2258)"><tspan x="0" y="0" font-family="'PermanentMarker'" font-size="30.74px">brea</tspan><tspan x="68.14" y="0" font-family="'PermanentMarker'" font-size="30.74px" letter-spacing="-2">d</tspan><tspan x="80.66" y="0" font-family="'PermanentMarker'" font-size="30.74px">th</tspan><tspan x="0" y="30" font-family="'PermanentMarker'" font-size="30.74px">of fo</tspan><tspan x="78.02" y="30" font-family="'PermanentMarker'" font-size="30.74px">c</tspan><tspan x="92.88" y="30" font-family="'PermanentMarker'" font-size="30.74px">us</tspan></text>
<path fill="none" stroke="#ED1C24" stroke-width="7" stroke-linecap="round" stroke-linejoin="round" stroke-miterlimit="10" d="
	M79.27,296.72c75.25,0.23,150.5,0.47,225.75,0.7c18.01,0.06,37.29-0.27,52.08-10.54c16.94-11.78,23.46-33.39,28.22-53.47
	c17.72-74.8,26.74-151.67,26.81-228.54c5.13,60.57,10.26,121.15,15.39,181.72c1.64,19.36,3.34,38.99,10.06,57.21
	s19.21,35.19,37.01,42.95c10.13,4.41,21.32,5.63,32.34,6.39c19.19,1.33,38.45,1.45,57.69,1.58c49.06,0.31,98.12,0.63,147.19,0.94"/>
<path fill="none" stroke="#000000" stroke-width="7" stroke-linecap="round" stroke-linejoin="round" stroke-miterlimit="10" d="
	M72.49,345.14c7.83,12.27,25.28,12.69,39.81,11.72c16.99-1.13,33.97-2.27,50.96-3.4c6.94-0.46,14.15-0.89,20.64,1.61
	c6.49,2.5,12.07,8.82,11.36,15.75c0.51-5.76,5.36-10.39,10.79-12.4c5.42-2.01,11.37-1.91,17.15-1.78
	c23.59,0.52,47.17,1.04,70.76,1.55c6.6,0.14,13.35,0.27,19.61-1.82c6.26-2.09,12.04-6.86,13.46-13.3"/>
<text transform="matrix(1 0 0 1 87.0799 403.0582)"><tspan x="0" y="0" font-family="'PermanentMarker'" font-size="30.74px">“micro </tspan><tspan x="110.62" y="0" font-family="'PermanentMarker'" font-size="30.74px">d</tspan><tspan x="125.6" y="0" font-family="'PermanentMarker'" font-size="30.74px">e</tspan><tspan x="141.63" y="0" font-family="'PermanentMarker'" font-size="30.74px" letter-spacing="-1">t</tspan><tspan x="154.84" y="0" font-family="'PermanentMarker'" font-size="30.74px">ai</tspan><tspan x="182.55" y="0" font-family="'PermanentMarker'" font-size="30.74px">l</tspan><tspan x="198.01" y="0" font-family="'PermanentMarker'" font-size="30.74px">s”</tspan></text>
<path fill="none" stroke="#000000" stroke-width="7" stroke-linecap="round" stroke-linejoin="round" stroke-miterlimit="10" d="
	M489.95,339.49c-0.09,7.76,6.42,14.35,13.75,16.9s15.33,1.97,23.06,1.35c16.31-1.31,32.63-2.62,48.94-3.92
	c5.66-0.45,11.5-0.89,16.88,0.93c5.38,1.81,10.22,6.48,10.4,12.15c-2.91-5.43,1.69-12.37,7.5-14.42s12.18-0.78,18.28,0.06
	c25.31,3.5,51.67-0.93,74.44-12.53"/>
<text transform="matrix(1 0 0 1 503.8432 403.0583)" font-family="'PermanentMarker'" font-size="30.74px">“big picture”</text>
<path fill="none" stroke="#000000" stroke-width="7" stroke-linecap="round" stroke-linejoin="round" stroke-miterlimit="10" d="
	M98.07,288.03c4.72,4.47,9.43,8.93,14.15,13.4"/>
<path fill="none" stroke="#000000" stroke-width="7" stroke-linecap="round" stroke-linejoin="round" stroke-miterlimit="10" d="
	M100.2,303.78c4.19-5.73,8.37-11.46,12.56-17.19"/>
<path fill="none" stroke="#000000" stroke-width="7" stroke-linecap="round" stroke-linejoin="round" stroke-miterlimit="10" d="
	M104.37,280.86c0.15-4.2-3.88-7.15-6.36-10.55c-4.45-6.11-3.95-14.75-0.72-21.59c3.23-6.83,8.76-12.26,14.17-17.53"/>
<text transform="matrix(1 0 0 1 117.1919 132.5798)"><tspan x="0" y="0" font-family="'PermanentMarker'" font-size="30.74px">tweaking</tspan><tspan x="0" y="30" font-family="'PermanentMarker'" font-size="30.74px">ev</tspan><tspan x="30.95" y="30" font-family="'PermanentMarker'" font-size="30.74px">e</tspan><tspan x="46.68" y="30" font-family="'PermanentMarker'" font-size="30.74px">r</tspan><tspan x="62.71" y="30" font-family="'PermanentMarker'" font-size="30.74px">y</tspan><tspan x="0" y="60" font-family="'PermanentMarker'" font-size="30.74px" letter-spacing="-1">a</tspan><tspan x="16.63" y="60" font-family="'PermanentMarker'" font-size="30.74px">v</tspan><tspan x="30.62" y="60" font-family="'PermanentMarker'" font-size="30.74px">ail</tspan><tspan x="74.72" y="60" font-family="'PermanentMarker'" font-size="30.74px">a</tspan><tspan x="91.98" y="60" font-family="'PermanentMarker'" font-size="30.74px">ble</tspan><tspan x="0" y="90" font-family="'PermanentMarker'" font-size="30.74px">settin</tspan><tspan x="86.97" y="90" font-family="'PermanentMarker'" font-size="30.74px">g</tspan><tspan x="106.09" y="90" font-family="'PermanentMarker'" font-size="30.74px">s</tspan></text>
<path fill="none" stroke="#000000" stroke-width="7" stroke-linecap="round" stroke-linejoin="round" stroke-miterlimit="10" d="
	M698.59,288.74c-3.45,4.24-6.9,8.48-10.35,12.72"/>
<path fill="none" stroke="#000000" stroke-width="7" stroke-linecap="round" stroke-linejoin="round" stroke-miterlimit="10" d="
	M687.37,289.08c3.53,4.42,7.07,8.84,10.6,13.26"/>
<path fill="none" stroke="#000000" stroke-width="7" stroke-linecap="round" stroke-linejoin="round" stroke-miterlimit="10" d="
	M692.01,280c-0.96-2.75,1.2-5.63,3.58-7.31c2.38-1.68,5.23-2.94,6.77-5.42c2.7-4.37-0.16-10.27-4.26-13.36
	c-4.1-3.09-9.24-4.52-13.49-7.4c-4.25-2.88-7.67-8.3-5.66-13.03"/>
<text transform="matrix(1 0 0 1 574.63 128.8573)"><tspan x="0" y="0" font-family="'PermanentMarker'" font-size="30.74px">anxiety</tspan><tspan x="38.03" y="30" font-family="'PermanentMarker'" font-size="30.74px">o</tspan><tspan x="56.44" y="30" font-family="'PermanentMarker'" font-size="30.74px">v</tspan><tspan x="71.36" y="30" font-family="'PermanentMarker'" font-size="30.74px">e</tspan><tspan x="87.09" y="30" font-family="'PermanentMarker'" font-size="30.74px">r</tspan><tspan x="-44.22" y="60" font-family="'PermanentMarker'" font-size="30.74px">exisential</tspan><tspan x="23.09" y="90" font-family="'PermanentMarker'" font-size="30.74px">crisis</tspan></text>
</svg>
