<?xml version="1.0" encoding="utf-8"?>
<!-- Generator: Adobe Illustrator 18.0.0, SVG Export Plug-In . SVG Version: 6.00 Build 0)  -->
<!DOCTYPE svg PUBLIC "-//W3C//DTD SVG 1.1//EN" "http://www.w3.org/Graphics/SVG/1.1/DTD/svg11.dtd">
<svg version="1.1" id="Layer_1" xmlns="http://www.w3.org/2000/svg" xmlns:xlink="http://www.w3.org/1999/xlink" x="0px" y="0px"
	 viewBox="0 0 901.3 332" enable-background="new 0 0 901.3 332" xml:space="preserve">
<path fill="none" stroke="#FFFFFF" stroke-width="120" stroke-linejoin="bevel" stroke-miterlimit="10" d="M-14.5,150.6
	c59.2,15.1,126.1-5.4,166.7-51c18.1-20.3,31-44.7,48.5-65.6s41.7-38.8,68.9-38.6c5.1,17.9-0.3,37.4-9.7,53.5
	c-9.4,16.1-22.5,29.6-34.2,44c-41.3,50.5-67.2,113.5-73.2,178.5c8.1,7.9,22.2,5.9,30.9-1.3c8.7-7.1,13.4-18,17.8-28.4
	c21.1-50.1,42.2-100.2,63.4-150.3c9.7-23,19.6-46.4,35.4-65.7s38.5-34.5,63.5-35.3C312.1,80.3,264,171.7,219,264.6
	c-6.3,13-12.6,26.6-11.9,41c0.7,14.4,11,29.4,25.4,30c15.5,0.7,26.7-14.2,34.8-27.5c74.3-122.1,107-155.3,166-285.5
	c5.7,67.6,18,41-8.3,103.6s-57.7,123.7-72.3,190c15.5,8.6,35.8,3.5,49.2-8s21.3-28.2,27.6-44.8c14.7-38.7,23.1-79.4,36.3-118.6
	c13.1-39.2,31.8-77.9,62.6-105.5c11.6-10.3,28.1-19.2,42-12.4c18.8,9.2,15.9,36.6,9.1,56.4c-19.5,56.5-47.6,110-83.1,158.1
	c-9.3,12.5-19.3,25.3-22.4,40.6c-3.1,15.3,3.5,33.8,18.4,38.4c20.3,6.3,37.6-15.2,47.9-33.8c27.5-50,53.3-100.9,77.4-152.6
	c4-8.5,9.1-18.1,18.3-20.2c10.5-2.3,20.6,7.3,22.9,17.8s-1.1,21.3-4.4,31.5c-16,49.6-32,99.2-48,148.8c11.4,14.3,35.1,3.6,46-11.1
	c31.1-41.9,24.6-105.3,61.4-142.3c23.6-23.7,59.5-30.2,92.9-30.1c33.4,0.1,95.6,7.2,128.7,2.3"/>
<g>
	<text transform="matrix(1 0 0 1 208.7831 32)" font-family="'PermanentMarker'" font-size="30.7418">not a very efficient day</text>
	<path fill="none" stroke="#662D91" stroke-width="7" stroke-linecap="round" stroke-linejoin="round" stroke-miterlimit="10" d="
		M567.3,24.5c19.5,7.5,36.5,21.4,47.8,38.9s16.9,38.7,15.8,59.6"/>
	<path fill="none" stroke="#662D91" stroke-width="7" stroke-linecap="round" stroke-linejoin="round" stroke-miterlimit="10" d="
		M619.9,118c3.2,3.9,6.4,7.7,9.7,11.6c4.1-3.9,8.2-7.7,12.3-11.6"/>
</g>
<g>
	<text transform="matrix(1 0 0 1 432.0741 160)" font-family="'PermanentMarker'" font-size="30.7418">i’m a little behind on schedule</text>
	<path fill="none" stroke="#662D91" stroke-width="7" stroke-linecap="round" stroke-linejoin="round" stroke-miterlimit="10" d="
		M630.4,172c1.5,23,3,46.4-2.9,68.6s-20.9,43.4-42.7,50.6"/>
	<path fill="none" stroke="#662D91" stroke-width="7" stroke-linecap="round" stroke-linejoin="round" stroke-miterlimit="10" d="
		M585,280.9c-3.1,4-6.2,8.1-9.3,12.1c5.4,1.9,10.7,3.8,16.1,5.8"/>
</g>
<g>
	<text transform="matrix(1 0 0 1 164.3945 314)" font-family="'PermanentMarker'" font-size="30.7418">and a little more stressed</text>
	<path fill="none" stroke="#662D91" stroke-width="7" stroke-linecap="round" stroke-linejoin="round" stroke-miterlimit="10" d="
		M155.3,306.1c-28.5-1.3-56.1-15.1-74.2-37.2c-18-22-26.2-51.9-21.8-80"/>
	<path fill="none" stroke="#662D91" stroke-width="7" stroke-linecap="round" stroke-linejoin="round" stroke-miterlimit="10" d="
		M44.8,198.1c4.8-4.2,9.6-8.4,14.4-12.7c3.1,5.3,6.3,10.5,9.4,15.8"/>
</g>
<g>
	<text transform="matrix(1 0 0 1 3.2668 159.9995)" font-family="'PermanentMarker'" font-size="30.7418">slept a little less</text>
	<path fill="none" stroke="#662D91" stroke-width="7" stroke-linecap="round" stroke-linejoin="round" stroke-miterlimit="10" d="
		M60.9,120.9c2.7-38.6,32.9-68.3,67-82.5c18.3-7.7,37.9-11.8,57.6-14.1"/>
	<path fill="none" stroke="#662D91" stroke-width="7" stroke-linecap="round" stroke-linejoin="round" stroke-miterlimit="10" d="
		M179.4,16.2c3.7,2.8,7.3,5.5,11,8.3c-2.9,3.4-5.7,6.8-8.6,10.2"/>
</g>
<path fill="none" stroke="#662D91" stroke-width="7" stroke-linecap="round" stroke-linejoin="round" stroke-miterlimit="10" d="
	M493.7,42.6c13.7,7.1,22.8,21.1,27.4,35.8c4.7,14.7,5.4,30.3,6.1,45.7"/>
<path fill="none" stroke="#662D91" stroke-width="7" stroke-linecap="round" stroke-linejoin="round" stroke-miterlimit="10" d="
	M516.4,119.6c3.6,3.4,7.3,6.8,10.9,10.2c2.9-3.2,5.8-6.5,8.7-9.7"/>
<path fill="none" stroke="#662D91" stroke-width="7" stroke-linecap="round" stroke-linejoin="round" stroke-miterlimit="10" d="
	M527.4,174.7c-1.6,33.7-15,66.8-37.3,92.1"/>
<path fill="none" stroke="#662D91" stroke-width="7" stroke-linecap="round" stroke-linejoin="round" stroke-miterlimit="10" d="
	M484.2,258c0,4.4,0,8.8,0.1,13.2c5.2-1.2,10.3-2.4,15.5-3.5"/>
<path fill="none" stroke="#662D91" stroke-width="7" stroke-linecap="round" stroke-linejoin="round" stroke-miterlimit="10" d="
	M213.9,276c-24.7-19.9-39.6-51.3-39.4-83"/>
<path fill="none" stroke="#662D91" stroke-width="7" stroke-linecap="round" stroke-linejoin="round" stroke-miterlimit="10" d="
	M163.1,196.4c3.6-3,7.2-6.1,10.7-9.1c3.1,3.5,6.1,6.9,9.2,10.4"/>
<path fill="none" stroke="#662D91" stroke-width="7" stroke-linecap="round" stroke-linejoin="round" stroke-miterlimit="10" d="
	M177.8,130.5c0.9-30.5,18.5-60,45-75.2"/>
<path fill="none" stroke="#662D91" stroke-width="7" stroke-linecap="round" stroke-linejoin="round" stroke-miterlimit="10" d="
	M216.2,50c4.7,0,9.4,0,14,0c-1.9,4-3.8,7.9-5.7,11.9"/>
<path fill="none" stroke="#662D91" stroke-width="7" stroke-linecap="round" stroke-linejoin="round" stroke-miterlimit="10" d="
	M358,45.5c25.9,32.1,44.1,70.4,52.6,110.7c2.9,13.5,4.6,27.5,2.6,41.2s-8.1,27.2-18.8,35.9c-13.7,11.2-33.4,13.2-50.5,8.5
	c-20.7-5.8-38.8-21.6-45.2-42.1s0.3-45,17.6-57.7c17.3-12.7,44.3-10.9,58.4,5.3s10.8,44.9-7.5,56.1c-8.9,5.4-20.8,6.4-30,1.5
	c-9.2-5-15-16.2-12.6-26.4c2.4-10.2,13.5-17.8,23.7-15.4s16.6,15.4,11.5,24.6c-3.9,3-10.5,1.3-12.4-3.3"/>
</svg>
