<?xml version="1.0" encoding="utf-8"?>
<!-- Generator: Adobe Illustrator 19.2.0, SVG Export Plug-In . SVG Version: 6.00 Build 0)  -->
<svg version="1.1" id="Layer_1" xmlns="http://www.w3.org/2000/svg" xmlns:xlink="http://www.w3.org/1999/xlink" x="0px" y="0px"
	 width="580.55px" height="401.08px" viewBox="0 0 580.55 401.08" enable-background="new 0 0 580.55 401.08" xml:space="preserve">
<path fill="none" stroke="#FFFFFF" stroke-width="120" stroke-linejoin="bevel" stroke-miterlimit="10" d="M113.77,25.66
	C66.97,71.71,28.9,126.6,2.15,186.56c52.74-13.57,91.63-57.08,126.62-98.81s72.48-85.97,124.5-102.08
	C237.15,47.65,184.36,92.06,134.7,132.5S32.71,218.26,18.2,280.64c24.4,0.1,47.11-13.59,64.01-31.2s29.1-39.07,42.44-59.5
	c44.12-67.55,102.49-125.75,170.17-169.69c-0.67,23.13-11.49,44.99-25.81,63.16c-14.32,18.17-32.1,33.25-49.21,48.83
	c-59.1,53.81-111.47,115.01-155.5,181.71c37.77-4.08,71.09-27.48,96.44-55.77s44.23-61.65,65.61-93.05s46.25-61.78,79.47-80.21
	c8.59-4.77,19.98-8.45,27.61-2.26c6.15,4.98,6.72,14.56,3.5,21.79c-3.22,7.23-9.35,12.67-15.24,17.95
	c-83.76,75.01-155.64,163.26-212.14,260.47c105.34-90.36,210.69-180.71,316.03-271.07c-68.43,93.52-136.87,187.03-205.3,280.55
	C283.48,345.56,346.69,298.78,409.9,252c-42.07,54.73-84.14,109.46-126.21,164.19c49.73-42.54,99.46-85.09,149.19-127.63
	c-16.59,30.84-33.19,61.69-49.78,92.53c30.73-28.61,61.46-57.23,92.19-85.84c-9.22,21.3-18.43,42.61-27.65,63.91
	c26.14-24.83,52.27-49.66,78.41-74.49c-16.43,29.33-32.86,58.66-49.28,87.99c13.68-12.87,27.36-25.75,41.03-38.62
	c-9.26,18.97-18.53,37.93-27.79,56.9c24.64-13.9,49.28-27.8,73.92-41.7c-9.71,18.62-19.42,37.24-29.13,55.85"/>
<path fill="none" stroke="#FFC60B" stroke-width="7" stroke-linecap="round" stroke-linejoin="round" stroke-miterlimit="10" d="
	M116.19,33.74C53.9,58.07,11.03,125.04,15.03,191.8s54.55,128.13,119.3,144.85c48.81,12.6,103.32,0.33,142.18-31.78
	c56.34-46.57,74.03-133.91,40.24-198.73S201.26,5.78,130.81,25.28"/>
<text transform="matrix(1 0 0 1 112.346 113.9865)"><tspan x="0" y="0" font-family="'PermanentMarker'" font-size="30.74px">who </tspan><tspan x="73.97" y="0" font-family="'PermanentMarker'" font-size="30.74px">y</tspan><tspan x="85.35" y="0" font-family="'PermanentMarker'" font-size="30.74px">o</tspan><tspan x="104.08" y="0" font-family="'PermanentMarker'" font-size="30.74px">u</tspan><tspan x="35.77" y="30" font-family="'PermanentMarker'" font-size="30.74px">are</tspan></text>
<path fill="none" stroke="#0083CA" stroke-width="7" stroke-linecap="round" stroke-linejoin="round" stroke-miterlimit="10" d="
	M156.65,189.7c-18.38,6.48-34.11,20.18-43.04,37.51s-10.97,38.08-5.59,56.81c2.78,9.68,7.67,19.04,15.49,25.38
	c9.74,7.89,22.82,10.23,35.34,10.74c18.35,0.76,37.41-2.05,52.94-11.85c26.55-16.75,37.53-54.29,24.19-82.71
	s-49.23-43.96-79.08-34.24"/>
<text transform="matrix(1 0 0 1 143.0259 235.4064)"><tspan x="0" y="0" fill="#0083CA" font-family="'PermanentMarker'" font-size="30.74px">how</tspan><tspan x="7.25" y="30" fill="#0083CA" font-family="'PermanentMarker'" font-size="30.74px">y</tspan><tspan x="18.63" y="30" fill="#0083CA" font-family="'PermanentMarker'" font-size="30.74px">o</tspan><tspan x="37.36" y="30" fill="#0083CA" font-family="'PermanentMarker'" font-size="30.74px">u</tspan><tspan x="7.1" y="60" fill="#0083CA" font-family="'PermanentMarker'" font-size="30.74px">act</tspan></text>
<path fill="none" stroke="#000000" stroke-width="7" stroke-linecap="round" stroke-linejoin="round" stroke-miterlimit="10" d="
	M250.55,265.7c9.82-4.5,22.93,4.05,22.79,14.85c-0.12,8.81-7.13,15.74-13.15,22.17c-12.15,12.99-22.1,28.03-29.3,44.3
	c-4.53,10.24-7.43,23.63,0.54,31.5c5.61,5.54,14.46,5.92,22.29,4.96c17.77-2.18,34.87-9.57,48.64-21.01"/>
<text transform="matrix(1 0 0 1 314.6153 329.6381)"><tspan x="0" y="0" font-family="'PermanentMarker'" font-size="30.74px">the on</tspan><tspan x="96.72" y="0" font-family="'PermanentMarker'" font-size="30.74px">l</tspan><tspan x="112.18" y="0" font-family="'PermanentMarker'" font-size="30.74px">y thing</tspan><tspan x="0" y="30" font-family="'PermanentMarker'" font-size="30.74px">p</tspan><tspan x="16.12" y="30" font-family="'PermanentMarker'" font-size="30.74px">e</tspan><tspan x="31.85" y="30" font-family="'PermanentMarker'" font-size="30.74px">o</tspan><tspan x="50.58" y="30" font-family="'PermanentMarker'" font-size="30.74px">ple will ev</tspan><tspan x="220.82" y="30" font-family="'PermanentMarker'" font-size="30.74px">e</tspan><tspan x="236.55" y="30" font-family="'PermanentMarker'" font-size="30.74px">r</tspan><tspan x="0" y="60" font-family="'PermanentMarker'" font-size="30.74px">know </tspan><tspan x="93.27" y="60" font-family="'PermanentMarker'" font-size="30.74px">a</tspan><tspan x="110.53" y="60" font-family="'PermanentMarker'" font-size="30.74px">b</tspan><tspan x="128.15" y="60" font-family="'PermanentMarker'" font-size="30.74px">o</tspan><tspan x="146.89" y="60" font-family="'PermanentMarker'" font-size="30.74px">ut </tspan><tspan x="190.98" y="60" font-family="'PermanentMarker'" font-size="30.74px">y</tspan><tspan x="202.36" y="60" font-family="'PermanentMarker'" font-size="30.74px">o</tspan><tspan x="221.09" y="60" font-family="'PermanentMarker'" font-size="30.74px">u</tspan></text>
</svg>
