<?xml version="1.0" encoding="utf-8"?>
<!-- Generator: Adobe Illustrator 18.0.0, SVG Export Plug-In . SVG Version: 6.00 Build 0)  -->
<!DOCTYPE svg PUBLIC "-//W3C//DTD SVG 1.1//EN" "http://www.w3.org/Graphics/SVG/1.1/DTD/svg11.dtd">
<svg version="1.1" id="Layer_1" xmlns="http://www.w3.org/2000/svg" xmlns:xlink="http://www.w3.org/1999/xlink" x="0px" y="0px"
	 viewBox="0 0 846 559.5" enable-background="new 0 0 846 559.5" xml:space="preserve">
<path fill="none" stroke="#FFFFFF" stroke-width="120" stroke-linejoin="bevel" stroke-miterlimit="10" d="M81-3.7
	C69.7,5.9,58,16.2,53.1,30.2s0.2,32.6,14.3,37.2c18.5,6.1,34-13.6,47.4-27.7c22.7-23.8,56.6-36.5,89.4-33.4
	c-5.9,12.5-12,25.9-10,39.6c2.1,13.7,16.2,26.3,29.2,21.4c12.3-4.7,15.1-20.4,18.6-33.1s15.3-27,27.2-21.4c11,5.1,9.4,21,6.1,32.7
	c-18.4,64.7-36.9,129.4-55.3,194.1c29.3-13.8,49.8-40.8,69.2-66.9c20.8-28,41.6-56,62.4-84c11.1,14.6,12.3,34.9,7.6,52.6
	s-14.7,33.5-24.5,49c-27,42.6-54,85.3-81,127.9c-14.1,22.2-28.7,45.1-50.5,59.8c-36.9,25-85.3,21.4-128.7,31.5
	c-14.9,3.5-32.1,12-32.6,27.3c-0.5,12.5,11.8,22.6,24.2,24.3s24.8-2.7,36.6-7.1c44.6-16.5,89.2-32.9,133.7-49.4
	c-4.3,32,21.1,65,53.1,68.9c3.2-105.5,6.5-211,9.7-316.5c0.3-9.8,0.7-19.9,5.1-28.7s14-15.7,23.6-13.8c15.6,3.1,18.5,23.8,17.9,39.7
	c-4.3,112.2-8.6,224.3-12.9,336.5c72.7-120.2,75.2-268.1,89.9-407.8c2.5-23.5,5.7-48,19-67.5c13.3-19.5,39.8-32.2,61.2-22.2
	c-5.8,64.6-15.7,128.8-25.5,192.9c-13.1,85.8-26.2,171.5-39.3,257.3c-1.3,8.8-2.7,17.9-0.3,26.5c2.3,8.6,9.4,16.5,18.2,17
	c12.2,0.7,20.6-12,25.3-23.2c27.3-65.1,23.9-138.3,22.4-208.9c-1.4-70.6,0.6-145,36.6-205.7c6.1-10.3,13.4-20.3,23.6-26.7
	s23.6-8.6,34.2-3c11.9,6.3,17.3,21,16.7,34.4c-0.6,13.4-6,26.1-11.1,38.6c-16.9,41.2-30.9,83.5-42,126.6
	C547.6,275.7,538.3,333.4,529,391c-6.1,37.5-12.1,74.9-18.2,112.4c-2.5,15.3-2,35.7,12.7,40.4c12.8,4.1,25.1-8.6,29.2-21.3
	c4.1-12.8,4.1-27.1,11-38.5c6.9-11.5,25.9-17.1,33.1-5.8c-13.1,27.8,11.8,64.9,42.5,64.6c30.7-0.2,55.1-35.6,45.6-64.8
	c-8.8-27.2-37.4-41.6-61.4-57.1c-24-15.5-47.8-42.1-39-69.3c10.5-32.4,58.9-38.7,71.1-70.6c7-18.2-1-39.5-14.6-53.6
	c-13.6-14.1,34-78.9,16.2-87c-6.3-47.2-33.4-47.8-4.7-85.8c22.3-29.4,17.1-38.3,54.1-38.8S810.6,24.5,846,35.1"/>
<g>
	
		<line fill="none" stroke="#010101" stroke-width="7" stroke-linecap="round" stroke-linejoin="round" stroke-miterlimit="10" x1="229.7" y1="69.2" x2="229.7" y2="500.3"/>
	
		<line fill="none" stroke="#010101" stroke-width="7" stroke-linecap="round" stroke-linejoin="round" stroke-miterlimit="10" x1="687.7" y1="478.2" x2="207.6" y2="478.2"/>
</g>
<g>
	<text transform="matrix(1 0 0 1 481.7219 525.1923)"><tspan x="0" y="0" font-family="'PermanentMarker'" font-size="31">how good they</tspan><tspan x="0" y="30" font-family="'PermanentMarker'" font-size="31">make you feel</tspan></text>
	
		<polyline fill="none" stroke="#010101" stroke-width="7" stroke-linecap="round" stroke-linejoin="round" stroke-miterlimit="10" points="
		665.7,455.7 687.7,478.2 665.7,500.7 	"/>
</g>
<g>
	<text transform="matrix(1 0 0 1 48.8059 25.2182)"><tspan x="0" y="0" font-family="'PermanentMarker'" font-size="31">how good you</tspan><tspan x="-28.9" y="30" font-family="'PermanentMarker'" font-size="31">make them feel</tspan></text>
	
		<polyline fill="none" stroke="#010101" stroke-width="7" stroke-linecap="round" stroke-linejoin="round" stroke-miterlimit="10" points="
		207.6,91.2 230.1,69.2 252.6,91.2 	"/>
</g>
<g>
	<path fill="none" stroke="#F7C890" stroke-width="7" stroke-linecap="round" stroke-linejoin="round" stroke-miterlimit="10" d="
		M285.8,86.6c-16.3,13.3-27.5,21.5-43.8,34.8"/>
	<path fill="none" stroke="#F7C890" stroke-width="7" stroke-linecap="round" stroke-linejoin="round" stroke-miterlimit="10" d="
		M321.3,86.7c-22.4,19-57.2,50.3-79.6,69.3"/>
	<path fill="none" stroke="#F7C890" stroke-width="7" stroke-linecap="round" stroke-linejoin="round" stroke-miterlimit="10" d="
		M349.2,91.3c-32,26.6-81,72.6-107.5,100.2"/>
	<path fill="none" stroke="#F7C890" stroke-width="7" stroke-linecap="round" stroke-linejoin="round" stroke-miterlimit="10" d="
		M380.7,93.4c-37.5,33.9-101.5,97.1-139,131"/>
	<path fill="none" stroke="#F7C890" stroke-width="7" stroke-linecap="round" stroke-linejoin="round" stroke-miterlimit="10" d="
		M415.2,93.4c-46.8,40.3-129.5,118-173.5,167"/>
	<path fill="none" stroke="#F7C890" stroke-width="7" stroke-linecap="round" stroke-linejoin="round" stroke-miterlimit="10" d="
		M443,91.3c-53.4,56.2-147.5,143.5-201.2,207"/>
	<path fill="none" stroke="#F7C890" stroke-width="7" stroke-linecap="round" stroke-linejoin="round" stroke-miterlimit="10" d="
		M473.1,93.4c-66,59.4-172.1,172.1-231.1,240.2"/>
	<path fill="none" stroke="#F7C890" stroke-width="7" stroke-linecap="round" stroke-linejoin="round" stroke-miterlimit="10" d="
		M503.7,93.4C433.3,161.2,304.1,299.8,245,374.7"/>
	<path fill="none" stroke="#F7C890" stroke-width="7" stroke-linecap="round" stroke-linejoin="round" stroke-miterlimit="10" d="
		M530.5,98C470,166.4,305,347.2,244.4,415.6"/>
	<path fill="none" stroke="#FFFFFF" stroke-width="40" stroke-linecap="round" stroke-linejoin="round" stroke-miterlimit="10" d="
		M275.7,171c35.1-0.1,70.2-0.3,105.3-0.4c-27.8,18.5-58.9,31.9-91.4,39.5c32.5-8.5,66.6-10.9,100-7.1"/>
	<text transform="matrix(1 0 0 1 278.2125 181.4115)"><tspan x="0" y="0" fill="#F7C890" font-family="'PermanentMarker'" font-size="31">hard to</tspan><tspan x="3.4" y="30" fill="#F7C890" font-family="'PermanentMarker'" font-size="31">sustain</tspan></text>
</g>
<g>
	<path fill="none" stroke="#EBBCD8" stroke-width="7" stroke-linecap="round" stroke-linejoin="round" stroke-miterlimit="10" d="
		M292.3,465.4C357.9,395.7,539,170.6,600.2,98"/>
	<path fill="none" stroke="#EBBCD8" stroke-width="7" stroke-linecap="round" stroke-linejoin="round" stroke-miterlimit="10" d="
		M328.5,465.7c63.8-70.5,242.6-301.8,306.4-372.3"/>
	<path fill="none" stroke="#EBBCD8" stroke-width="7" stroke-linecap="round" stroke-linejoin="round" stroke-miterlimit="10" d="
		M367.7,465.7c67.3-74.5,232.6-284.9,289.6-361.8"/>
	<path fill="none" stroke="#EBBCD8" stroke-width="7" stroke-linecap="round" stroke-linejoin="round" stroke-miterlimit="10" d="
		M415.2,465.4c77.6-90.3,175.3-226.3,242-325"/>
	<path fill="none" stroke="#EBBCD8" stroke-width="7" stroke-linecap="round" stroke-linejoin="round" stroke-miterlimit="10" d="
		M461.1,465.2c66.9-84.6,127.5-173.2,193.1-267"/>
	<path fill="none" stroke="#EBBCD8" stroke-width="7" stroke-linecap="round" stroke-linejoin="round" stroke-miterlimit="10" d="
		M503.7,465.2c45.3-59.8,105.2-140.4,150.4-200.2"/>
	<path fill="none" stroke="#EBBCD8" stroke-width="7" stroke-linecap="round" stroke-linejoin="round" stroke-miterlimit="10" d="
		M546.2,465.2c30.9-42.1,77-105.7,107.9-147.7"/>
	<path fill="none" stroke="#EBBCD8" stroke-width="7" stroke-linecap="round" stroke-linejoin="round" stroke-miterlimit="10" d="
		M581.2,465.2c10-12,23.3-30.2,33.2-42.2c12.4-14.9,24.9-29.9,35.7-46"/>
	<path fill="none" stroke="#EBBCD8" stroke-width="7" stroke-linecap="round" stroke-linejoin="round" stroke-miterlimit="10" d="
		M615.7,465.2c9.7-10.9,28.7-33.2,38.5-44.1"/>
	<path fill="none" stroke="#FFFFFF" stroke-width="40" stroke-linecap="round" stroke-linejoin="round" stroke-miterlimit="10" d="
		M437.7,350.6c56.3-1.4,112.6-2.9,169-4.3"/>
	<text transform="matrix(1 0 0 1 441.3086 359.6916)" fill="#EBBCD8" font-family="'PermanentMarker'" font-size="31">too selfish</text>
</g>
<g>
	<path fill="none" stroke="#39B54A" stroke-width="7" stroke-linecap="round" stroke-linejoin="round" stroke-miterlimit="10" d="
		M248.8,461.2C364.4,325.8,467.1,205,582.6,69.7"/>
	<g>
		<text transform="matrix(1 0 0 1 443.6365 25.2183)"><tspan x="0" y="0" fill="#39B54A" font-family="'PermanentMarker'" font-size="31">balanced</tspan><tspan x="-66.9" y="30" fill="#39B54A" font-family="'PermanentMarker'" font-size="31">relationships</tspan></text>
	</g>
</g>
<g>
	<path fill="none" stroke="#010101" stroke-width="7" stroke-linecap="round" stroke-linejoin="round" stroke-miterlimit="10" d="
		M266.6,425.2c4.9,4.1,9.8,8.2,14.7,12.4"/>
	<path fill="none" stroke="#010101" stroke-width="7" stroke-linecap="round" stroke-linejoin="round" stroke-miterlimit="10" d="
		M274.9,423.3c-2.6,6.7-5.2,13.4-7.9,20.1"/>
	<path fill="none" stroke="#010101" stroke-width="7" stroke-linecap="round" stroke-linejoin="round" stroke-miterlimit="10" d="
		M259.5,433c-6.5-4.2-15.1-2.3-22,1.2c-6.8,3.5-13,8.5-20.3,10.8c-7.4,2.3-16.8,0.7-20.3-6.1"/>
</g>
<text transform="matrix(1 0 0 1 7.2687 443.1024)" font-family="'PermanentMarker'" font-size="31">undesirable</text>
<g>
	<path fill="none" stroke="#010101" stroke-width="7" stroke-linecap="round" stroke-linejoin="round" stroke-miterlimit="10" d="
		M537.9,108.8c6.1,5,12.2,9.9,18.3,14.9"/>
	<path fill="none" stroke="#010101" stroke-width="7" stroke-linecap="round" stroke-linejoin="round" stroke-miterlimit="10" d="
		M533.4,122.7c6.5-5.1,13-10.3,19.4-15.4"/>
	<path fill="none" stroke="#010101" stroke-width="7" stroke-linecap="round" stroke-linejoin="round" stroke-miterlimit="10" d="
		M570.9,112.8c18.1,1.5,36.6-3.7,51.4-14.2s25.7-26.4,30.3-44"/>
</g>
<text transform="matrix(1 0 0 1 647.5276 42.6644)" font-family="'PermanentMarker'" font-size="31">unattainable</text>
</svg>
