<?xml version="1.0" encoding="utf-8"?>
<!-- Generator: Adobe Illustrator 19.2.0, SVG Export Plug-In . SVG Version: 6.00 Build 0)  -->
<svg version="1.1" id="Layer_1" xmlns="http://www.w3.org/2000/svg" xmlns:xlink="http://www.w3.org/1999/xlink" x="0px" y="0px"
	 width="550.7px" height="436.7px" viewBox="0 0 550.7 436.7" enable-background="new 0 0 550.7 436.7" xml:space="preserve">
<symbol  id="Arrow_right_1_" viewBox="-25.5 -26 29 52">
	
		<polyline fill="none" stroke="#231F20" stroke-width="7" stroke-linecap="round" stroke-linejoin="round" stroke-miterlimit="10" points="
		-22,22.5 0,0 -22,-22.5 	"/>
</symbol>
<symbol  id="Arrow_up" viewBox="-26 -25.5 52 29">
	
		<polyline fill="none" stroke="#231F20" stroke-width="7" stroke-linecap="round" stroke-linejoin="round" stroke-miterlimit="10" points="
		-22.5,-22 0,0 22.5,-22 	"/>
</symbol>
<path fill="none" stroke="#FFFFFF" stroke-width="120" stroke-linejoin="bevel" stroke-miterlimit="10" d="M515.3,52.7
	c-12.5,6.9-24.9,13.9-37.4,20.8c0.1-9.3,0.1-18.6,0.2-27.9c-11,8.4-22,16.7-33,25.1c7.5-21.4,15-42.7,22.5-64.1
	c-23.5,23.1-47.1,46.2-70.6,69.3c9.1-7.3,18.6-15.2,21.9-26.4c3.3-11.1-3.4-25.8-15-26.2c-4.9-0.2-9.5,2.2-13.7,4.8
	c-20.6,12.9-35.3,33-49.6,52.7c8.6-22.9,17.2-45.9,25.7-68.8c-28.9,10.8-53.3,33.3-66.5,61.2c1.8-13.7,3.6-27.4,5.5-41.1
	c-10.4-7.8-26.5-0.8-32.7,10.6s-5.4,25.2-4.4,38.2c-2.1-11.6-4.1-23.1-6.2-34.7c-0.7-3.7-1.3-7.4-3-10.8
	c-5.7-11.4-23.6-13.8-32.1-4.3c-8.5,9.5-4.1,27,7.8,31.4c-10.5,1.3-21.5-4.7-26.1-14.2s-2.6-21.8,4.8-29.3
	c12.6,14.2,18,34.4,14.4,53.1c-3.7,18.6-16.4,35.2-33.5,43.6c22.6-1.5,45.1-3.1,67.7-4.6c-68,20.3-140.8,24.5-210.7,12.3
	c-7.6-1.3-15.6-2.8-23-0.4s-13.5,10.4-11,17.7c3.4,10.1,17.9,9.8,28.1,6.7c28.5-8.6,55.2-23,78.1-41.9c-3.9,13.9-7.9,27.7-11.8,41.6
	c28.6-0.8,56.7-13,76.8-33.4c-7.7,23.1-15.5,46.3-23.2,69.4c16.5-16,32.9-32.1,49.4-48.1c-1.4,11.2-2.8,22.4-4.3,33.6
	c15.8-12.8,31.7-25.6,47.5-38.4c-5.8,17.7-12.1,36.3-25.8,48.9c-24.3,22.2-61.6,18-94.5,16.9c-10.7-0.4-22-0.1-31.5,5
	c-9.5,5.1-16.3,16.6-12.7,26.8c4.8,13.5,24.8,15.5,36.4,7.1s16.8-22.9,21.4-36.5c-0.1,16.8-0.2,33.6-0.3,50.4
	c24.3-3.5,45.4-23.6,50-47.7c-2.8,15.6-5.7,31.2-8.5,46.8c19.4-11.5,34.6-30,42.2-51.3c-4.1,20.7-8.1,41.4-12.2,62.1
	c-33.4-6.7-68.8-3-100.1,10.5c-6.7,2.9-13.5,6.4-18.2,12c-4.7,5.6-7.1,13.7-4.1,20.5c4.1,9.4,17,12.1,26.5,8.3
	c9.5-3.8,16.2-12.3,22.1-20.6c5.9-8.4,11.7-17.2,20.3-22.7c-11,21.2-16.6,45.1-16.3,69c28.8-5.7,53-29.9,58.8-58.7
	c-3.7,16.3-7.4,32.6-11.1,48.9c4,0.7,8.1,1.3,12.1,2c6.4-15.9,12.8-31.9,19.2-47.8c-2.4,23.9-4.7,47.8-7.1,71.7
	c2.2-7.2,4.5-14.3,6.7-21.5c-14.7,36.6-23.1,75.7-24.7,115c27.4-36.6,47.6-78.4,59.4-122.5c-2.9,35.4-5.8,70.9-8.6,106.3
	c11.1-33.2,22.2-66.5,33.2-99.7c-0.5,33.2-1.1,66.4-1.6,99.7c10.8-38.2,21.7-76.5,32.5-114.7c2,39,4.1,77.9,6.1,116.9
	c9.3-41.3,18.6-82.5,27.8-123.8c0.3,40,0.6,80,0.9,120c8.9-38.2,17.8-76.5,26.7-114.7c2.3,40.4,4.7,80.8,7,121.2
	c9.5-39,19-78,28.5-117.1c3.8,35.2,7.6,70.3,11.3,105.5c7.3-31.9,14.6-63.7,21.9-95.6c-1.3,39.5,4,79.2,15.6,117
	c3.2-1,6.3-1.9,9.5-2.9c2.4-49.6,4.8-99.3,7.3-148.9c0,33.1,10,66.1,28.5,93.6c-5.6-24.2-11.1-48.4-16.7-72.6
	c-39.9,7.8-80.7,14-121.2,9.7c-40.5-4.3-81-20.1-108.2-50.3c-8.6-9.6-16.1-23.3-10.3-34.8c6.2-12.3,22.9-13.8,36.7-13.2
	c17.1,0.9,34.5,2.6,50.3,9.1s30.2,18.2,36.4,34.2s2.4,36.2-11.3,46.5c-13,9.8-31.2,8.9-47,4.7c-9.5-2.5-19.1-6.2-25.8-13.4
	s-9.4-18.8-4.1-27.1c6.1-9.6,19.6-11,31-9.7c11.4,1.2,23.5,3.9,33.7-1.1c9.1-4.5,14.6-14.3,17.2-24.1c2.7-9.8,3.1-20.1,5.4-30
	c5.1-22.6,20.1-42.8,40.2-54.3s45.1-14.2,67.2-7.1"/>
<g id="Arrow_right">
</g>
<g>
	
		<line fill="none" stroke="#231F20" stroke-width="7" stroke-linecap="round" stroke-linejoin="round" stroke-miterlimit="10" x1="230.4" y1="90.3" x2="230.4" y2="352.6"/>
	
		<line fill="none" stroke="#231F20" stroke-width="7" stroke-linecap="round" stroke-linejoin="round" stroke-miterlimit="10" x1="216" y1="335.5" x2="507.8" y2="335.5"/>
	
		<use xlink:href="#Arrow_up"  width="52" height="29" x="-26" y="-25.5" transform="matrix(1 0 0 -1 230.4332 89.8333)" overflow="visible"/>
	
		<use xlink:href="#Arrow_right_1_"  width="29" height="52" x="-25.5" y="-26" transform="matrix(1 0 0 -1 507.7704 335.5429)" overflow="visible"/>
</g>
<text transform="matrix(1 0 0 1 238.0464 385.3689)"><tspan x="0" y="0" fill="#231F20" font-family="'PermanentMarker'" font-size="30.74px">how long i keep</tspan><tspan x="-27.3" y="30" fill="#231F20" font-family="'PermanentMarker'" font-size="30.74px">romanticizing my ex</tspan></text>
<text transform="matrix(1 0 0 1 207.933 69.7631)" fill="#BE1E2D" font-family="'PermanentMarker'" font-size="30.74px">how society sees me</text>
<text transform="matrix(1 0 0 1 94.464 222.2643)"><tspan x="0" y="0" fill="#231F20" font-family="'PermanentMarker'" font-size="30.74px">regular</tspan><tspan x="74.2" y="30" fill="#231F20" font-family="'PermanentMarker'" font-size="30.74px">sad</tspan></text>
<text transform="matrix(1 0 0 1 93.0236 298.1485)"><tspan x="0" y="0" fill="#231F20" font-family="'PermanentMarker'" font-size="30.74px">pathetic</tspan><tspan x="75.6" y="30" fill="#231F20" font-family="'PermanentMarker'" font-size="30.74px">sad</tspan></text>
<path fill="none" stroke="#BE1E2D" stroke-width="7" stroke-linecap="round" stroke-linejoin="round" stroke-miterlimit="10" d="
	M242.4,227.5c26.9,0.2,53.7,0.3,80.6,0.5c8.6,0,17.6,0.2,25.3,4.1c9.6,4.9,15.5,15,18.6,25.3s3.9,21.2,6,31.7
	c2.6,12.6,8.4,26,20.1,31.3c6.3,2.9,13.4,3,20.3,3.1c19.9,0.2,39.8,0.5,59.7,0.7"/>
<text transform="matrix(1 0 0 1 207.933 38.5138)" fill="#009444" font-family="'PermanentMarker'" font-size="30.74px">how i see myself</text>
<path fill="none" stroke="#009444" stroke-width="7" stroke-linecap="round" stroke-linejoin="round" stroke-miterlimit="10" d="
	M242.2,238.2c22.3-0.2,33.6,3.1,43.5,15.8c6.5,8.4,9.3,19,11.8,29.4s5,21,11.2,29.7c6.2,8.7,17,15,27.3,12.5
	c12.7-3,19.1-16.8,23.5-29.1c12.5-35.5,22-71.9,28.3-109c1.6-9.5,3.6-20,11.3-25.9c6.2-4.7,14.5-5.2,22.2-5.5
	c20.9-0.8,41.7-1.5,62.6-2.3"/>
<text transform="matrix(1 0 0 1 3.1752 146.38)"><tspan x="0" y="0" fill="#231F20" font-family="'PermanentMarker'" font-size="30.74px">greek tragedy</tspan><tspan x="165.5" y="30" fill="#231F20" font-family="'PermanentMarker'" font-size="30.74px">sad</tspan></text>
</svg>
