<?xml version="1.0" encoding="utf-8"?>
<!-- Generator: Adobe Illustrator 19.2.0, SVG Export Plug-In . SVG Version: 6.00 Build 0)  -->
<svg version="1.1" id="Layer_1" xmlns="http://www.w3.org/2000/svg" xmlns:xlink="http://www.w3.org/1999/xlink" x="0px" y="0px"
	 width="479.9px" height="221.9px" viewBox="0 0 479.9 221.9" enable-background="new 0 0 479.9 221.9" xml:space="preserve">
<path fill="none" stroke="#FFFFFF" stroke-width="120" stroke-linejoin="bevel" stroke-miterlimit="10" d="M-7.5,169.3
	c-1.4-24.9,2.5-50,11.6-73.2c5.9,14.3,11.8,28.6,17.7,42.9c4.3,10.4,9.1,21.5,18.7,27.4c13.9,8.6,35,0.9,40.1-14.6
	s-7.4-34.2-23.8-35.4c4.9,12.2,11.8,24.5,23.2,31.2c11.4,6.7,28.2,5.5,35.4-5.6c4.6-7,4.3-16,6.4-24.1c2.1-8.1,8.8-16.7,17-15.2
	c8.1,1.5,11.3,11.4,11.2,19.6c-0.1,8.2-1.8,17.1,2.3,24.1c6,10.2,21.7,10.6,31,3.3s13.2-19.4,15-31.1c1.7-11.7,1.8-23.7,5.6-34.8
	c3.6-10.5,13.1-21,24-18.7c8.6,1.8,13.9,11.1,14.4,19.9c0.5,8.8-2.5,17.3-4.8,25.8c-9.9,36.9-5.1,77.5,13.1,111.1
	c8.6-40.2,17.2-80.4,25.8-120.7c13.9,1.9,18.2,19.4,20.1,33.3c1.9,13.9,8.6,31.3,22.6,30.5c9.9-0.5,16.4-10.5,20-19.7
	s6.8-19.7,15.3-24.8c10.3-6.1,24.3-0.9,31.9,8.3s10.4,21.5,12.9,33.2c9.6-4.3,14.2-15.2,17.3-25.3s5.9-21.1,14-27.8
	c8.2-6.7,23.6-4.9,25.8,5.4c2.5,11.6-12.2,18.8-23.9,21.1c-100.5,20.2-205.7,17.2-304.9-8.8c-25.2-6.6-51-15.3-69.2-33.9
	S32.7,43,47.8,21.8C58.6,6.6,78.3,0.1,96.9,0s36.7,5.4,54.8,9.9c82,20.3,168.9,20.2,250.9-0.2"/>
<g>
	<text transform="matrix(1 0 0 1 77.2877 27.1295)" fill="#231F20" font-family="'PermanentMarker'" font-size="30.74px">the fine line between</text>
</g>
<g id="Arrow_right">
</g>
<g>
	<text transform="matrix(1 0 0 1 13.1402 123.13)"><tspan x="0" y="0" fill="#231F20" font-family="'PermanentMarker'" font-size="30.74px">realizing you</tspan><tspan x="-9.3" y="30" fill="#231F20" font-family="'PermanentMarker'" font-size="30.74px">have potential</tspan></text>
</g>
<path fill="none" stroke="#BE1E2D" stroke-width="7" stroke-linecap="round" stroke-linejoin="round" stroke-miterlimit="10" d="
	M235.3,53c1.4,52,2.8,103.9,4.3,155.9"/>
<g>
	<text transform="matrix(1 0 0 1 251.3248 123.13)"><tspan x="0" y="0" fill="#231F20" font-family="'PermanentMarker'" font-size="30.74px">realizing your</tspan><tspan x="38" y="30" fill="#231F20" font-family="'PermanentMarker'" font-size="30.74px">potential</tspan></text>
</g>
</svg>
