<?xml version="1.0" encoding="utf-8"?>
<!-- Generator: Adobe Illustrator 18.0.0, SVG Export Plug-In . SVG Version: 6.00 Build 0)  -->
<!DOCTYPE svg PUBLIC "-//W3C//DTD SVG 1.1//EN" "http://www.w3.org/Graphics/SVG/1.1/DTD/svg11.dtd">
<svg version="1.1" id="Layer_1" xmlns="http://www.w3.org/2000/svg" xmlns:xlink="http://www.w3.org/1999/xlink" x="0px" y="0px"
	 viewBox="0 0 529 326.5" enable-background="new 0 0 529 326.5" xml:space="preserve">
<path fill="none" stroke="#FFFFFF" stroke-width="120" stroke-linejoin="bevel" stroke-miterlimit="10" d="M-6.5,182.9
	C61,101.6,146.2,35,241.4-11c-14.2,62.4-66.6,107.7-116.4,147.9S22.2,221.2,6,283.1c18.5,14.6,46,12.4,66.4,0.7s35-31.2,48.1-50.7
	c35.5-53,64.7-110.6,107.5-157.9S331.6-8.9,395-3C293.2,89.5,204.8,196.9,133.8,314.7c46.6,2.5,90.5-24.7,121.1-60
	s50.4-78.2,72.4-119.4c22-41.1,47.6-82.1,85.6-109.1c6-4.3,13.8-8.3,20.5-5.2c5.8,2.7,8.2,10,7.3,16.3s-4.4,11.9-7.8,17.2
	c-46.7,73.1-93.5,146.2-140.2,219.3c-6.6,10.4-13.1,24.7-4.9,33.9c6.3,7.1,18.3,6.1,25.9,0.4c7.6-5.7,11.9-14.6,16.1-23.1
	c33.7-69,75-134.2,122.9-194.2c11.1-13.9,26.8-28.9,43.9-24.1c15.5,4.4,22.3,24,18.3,39.7c-3.9,15.6-15.4,28.1-26.1,40.2
	c-49.1,55.3-91.4,116.5-125.7,182c15.7,4.7,33,0.7,47.3-7.4c14.3-8,26.2-19.7,37.7-31.4c33.4-33.7,65.8-68.4,97.2-103.9"/>
<path fill="none" stroke="#010101" stroke-width="7" stroke-linecap="round" stroke-linejoin="round" stroke-miterlimit="10" d="
	M208,52.9c-47.5-17.7-103.8-9.8-144.2,20.9S0.6,156.9,6.3,207.2c2.5,22.2,10.5,44.3,25.2,61.2c15.5,17.9,37.3,29,59.5,37.1
	c36,13.1,75.3,19.3,112.8,11.8c37.5-7.5,73.1-29.9,91.1-63.7c14.7-27.6,17-60.8,9.7-91.2c-10.8-45-42.8-84.4-84.4-104.4"/>
<g>
	<text transform="matrix(1 0 0 1 96.5879 162.7197)"><tspan x="0" y="0" font-family="'PermanentMarker'" font-size="30.74">what</tspan><tspan x="-17.8" y="30" font-family="'PermanentMarker'" font-size="30.74">you are</tspan></text>
</g>
<path fill="none" stroke="#010101" stroke-width="7" stroke-linecap="round" stroke-linejoin="round" stroke-miterlimit="10" d="
	M455.6,54.9c-39.3-19.2-87.2-11.3-126.3,8.3c-38.7,19.4-72.6,51-88.2,91.4s-10.5,89.8,18.4,122.1c14.4,16.2,33.8,27.4,54.3,34.4
	c39.9,13.8,85.1,12.1,123.3-5.8c38.2-17.9,68.7-52.1,80.8-92.6s5.2-86.3-19.3-120.7c-10.2-14.3-31.5-28.5-51.7-34.2"/>
<text transform="matrix(1 0 0 1 344.917 162.7202)"><tspan x="0" y="0" font-family="'PermanentMarker'" font-size="30.74">what you</tspan><tspan x="-14.5" y="30" font-family="'PermanentMarker'" font-size="30.74">want to be</tspan></text>
<path fill="none" stroke="#BE1E2D" stroke-width="7" stroke-linecap="round" stroke-linejoin="round" stroke-miterlimit="10" d="
	M274,112.6c-5,7.2-10,14.5-14.9,21.7c8.7-4.2,17.5-7.8,28-7.9c-10.8,11.1-25.4,15.3-39.8,23.5c15.5-3,31.1-5.9,46.6-8.9
	c-17.6,9.9-35.2,19.8-52.9,29.7c19.4-5.6,38.8-11.2,58.2-16.8c-19.9,9.9-39.9,19.8-59.8,29.8c19.4-10.3,40.6-17.1,62.4-19.9
	c-21.8,9.5-43.6,19-65.4,28.4c22.2-5,44.3-10,66.5-15.1c-23.2,8.7-46.4,17.3-69.6,26c24.3-4.6,48.5-9.1,72.8-13.7
	c-23.9,8.5-47.8,17-71.8,25.6c24-4.5,47.9-9,71.9-13.4c-22.5,9.7-45,19.3-67.5,29c20.4-5.4,40.7-10.7,61.1-16.1
	c-17.1,10.6-34.1,21.2-51.2,31.9c17.2-6.3,34.5-12.5,51.7-18.8c-16.1,9.4-32.3,18.8-48.4,28.3c13.6-5,27.1-9.9,40.7-14.9
	c-12.4,8.1-24.8,16.2-37.2,24.3c11.2-4.7,22.5-9.4,33.7-14.1c-9.6,6.7-19.2,13.4-28.8,20.1c8-1.9,16-3.8,24-5.7
	c-4.7,3.1-9.4,6.3-14.1,9.4"/>
<text transform="matrix(1 0 0 1 175.2891 22.8184)" fill="#BE1E2D" font-family="'PermanentMarker'" font-size="30.74">what matters</text>
</svg>
