<?xml version="1.0" encoding="utf-8"?>
<!-- Generator: Adobe Illustrator 19.2.0, SVG Export Plug-In . SVG Version: 6.00 Build 0)  -->
<svg version="1.1" id="Layer_1" xmlns="http://www.w3.org/2000/svg" xmlns:xlink="http://www.w3.org/1999/xlink" x="0px" y="0px"
	 width="600.33px" height="391.53px" viewBox="0 0 600.33 391.53" enable-background="new 0 0 600.33 391.53" xml:space="preserve">
<path fill="none" stroke="#FFFFFF" stroke-width="120" stroke-linejoin="bevel" stroke-miterlimit="10" d="M-6.43,23.16
	C37.59,20.19,141.2,11.3,185.22,8.33c-18.28,17.96-44.79,58.74-19.77,64.26s50.12-6.56,73.62-16.77
	c86.02-37.36,181.29-53.19,274.76-45.66c12.63,1.02,28.89,6.37,28.46,19.03c-0.39,11.38-14.2,16.49-25.39,18.6
	C352.29,78.87,183.73,88.93,16.6,77.64c-2.74,30.06-5.48,60.11-8.23,90.17c22.47-16.09,44.94-32.18,67.4-48.27
	C14.95,187.16-9.6,285.64,12.36,373.9c32.47-69.61,64.93-139.22,97.4-208.83c-10.74,27,2.86,61.23,29.2,73.49
	c26.34,12.26,61.29,0.64,75.04-24.96c-2.2,19.63-4.28,40.2,3.05,58.54s27.4,33.21,46.36,27.67c20.33-5.95,28.21-29.87,34.19-50.19
	c6.72-22.84,15.24-45.96,31.47-63.38c16.23-17.42,41.87-27.95,64.42-20.33c21.01,7.1,41.99,27.94,39.28,49.94
	c-2.41,19.58-28.54,30.91-21.19,57.42c33.71-40.41,42.9-72.95,54.59-113.79c3-10.49,8.09-22.88,18.9-24.35
	c12.59-1.71,20.75,12.56,25.22,24.45c21.75,57.96,43.5,115.92,65.26,173.87c4.99,13.29,9.66,29.31,1.21,40.71
	c-8.36,11.29-26.15,11.45-38.16,4.16c-12.01-7.29-19.61-19.89-26.73-32c-9.74,19.24-19.48,38.48-29.22,57.72
	c-8.34-26.97-32.06-48.59-59.69-54.39c-27.63-5.8-58.05,4.44-76.53,25.78c-6.87-30.95-39.4-53.9-70.87-49.98
	s-57.38,34.13-56.45,65.83c-12.84-41.18-64.46-65.18-104.22-48.47c-16.18,6.8-29.96,19.03-46.87,23.72s-39.66-2.92-41.47-20.38"/>
<text transform="matrix(1 0 0 1 5.1725 26.1645)"><tspan x="0" y="0" font-family="'PermanentMarker'" font-size="30.74px">am</tspan><tspan x="42.9" y="0" font-family="'PermanentMarker'" font-size="30.74px">o</tspan><tspan x="61.63" y="0" font-family="'PermanentMarker'" font-size="30.74px">unt of stuff th</tspan><tspan x="286.75" y="0" font-family="'PermanentMarker'" font-size="30.74px" letter-spacing="-1">a</tspan><tspan x="303.08" y="0" font-family="'PermanentMarker'" font-size="30.74px">t sh</tspan><tspan x="361.34" y="0" font-family="'PermanentMarker'" font-size="30.74px">o</tspan><tspan x="380.08" y="0" font-family="'PermanentMarker'" font-size="30.74px">uld </tspan><tspan x="441.11" y="0" fill="#B2D235" font-family="'PermanentMarker'" font-size="30.74px">lo</tspan><tspan x="476.83" y="0" fill="#B2D235" font-family="'PermanentMarker'" font-size="30.74px" letter-spacing="-1">g</tspan><tspan x="495.35" y="0" fill="#B2D235" font-family="'PermanentMarker'" font-size="30.74px">ical</tspan><tspan x="555.24" y="0" fill="#B2D235" font-family="'PermanentMarker'" font-size="30.74px">l</tspan><tspan x="570.7" y="0" fill="#B2D235" font-family="'PermanentMarker'" font-size="30.74px">y</tspan><tspan x="0" y="30" font-family="'PermanentMarker'" font-size="30.74px">be left </tspan><tspan x="117.56" y="30" font-family="'PermanentMarker'" font-size="30.74px">t</tspan><tspan x="131.37" y="30" font-family="'PermanentMarker'" font-size="30.74px">o </tspan><tspan x="162.08" y="30" font-family="'PermanentMarker'" font-size="30.74px">p</tspan><tspan x="177.6" y="30" font-family="'PermanentMarker'" font-size="30.74px">ack when m</tspan><tspan x="355.52" y="30" font-family="'PermanentMarker'" font-size="30.74px">o</tspan><tspan x="373.92" y="30" font-family="'PermanentMarker'" font-size="30.74px">ving h</tspan><tspan x="465.36" y="30" font-family="'PermanentMarker'" font-size="30.74px">o</tspan><tspan x="484.09" y="30" font-family="'PermanentMarker'" font-size="30.74px">use</tspan></text>
<g>
	
		<line fill="none" stroke="#000000" stroke-width="7" stroke-linecap="round" stroke-linejoin="round" stroke-miterlimit="10" x1="31.17" y1="98.38" x2="31.17" y2="385.75"/>
	
		<polyline fill="none" stroke="#000000" stroke-width="7" stroke-linecap="round" stroke-linejoin="round" stroke-miterlimit="10" points="
		8.67,120.38 31.17,98.38 53.67,120.38 	"/>
</g>
<g>
	
		<line fill="none" stroke="#000000" stroke-width="7" stroke-linecap="round" stroke-linejoin="round" stroke-miterlimit="10" x1="8.67" y1="363.75" x2="592.07" y2="363.75"/>
	
		<polyline fill="none" stroke="#000000" stroke-width="7" stroke-linecap="round" stroke-linejoin="round" stroke-miterlimit="10" points="
		570.07,341.25 592.07,363.75 570.07,386.25 	"/>
</g>
<path fill="none" stroke="#B2D235" stroke-width="7" stroke-linecap="round" stroke-miterlimit="10" d="M53.67,135.06
	c99.9,99.9,287.86,206.18,443.81,206.18"/>
<text transform="matrix(1 0 0 1 530.0777 333.3954)" fill="#010101" font-family="'PermanentMarker'" font-size="31px">time</text>
<g>
	<text transform="matrix(1 0 0 1 5.1724 86.3245)"><tspan x="0" y="0" font-family="'PermanentMarker'" font-size="31px">and am</tspan><tspan x="105.65" y="0" font-family="'PermanentMarker'" font-size="31px">o</tspan><tspan x="124.54" y="0" font-family="'PermanentMarker'" font-size="31px">unt </tspan><tspan x="186.51" y="0" fill="#F9A01B" font-family="'PermanentMarker'" font-size="31px">act</tspan><tspan x="235.32" y="0" fill="#F9A01B" font-family="'PermanentMarker'" font-size="31px">u</tspan><tspan x="252.51" y="0" fill="#F9A01B" font-family="'PermanentMarker'" font-size="31px">al</tspan><tspan x="287.05" y="0" fill="#F9A01B" font-family="'PermanentMarker'" font-size="31px">l</tspan><tspan x="302.64" y="0" fill="#F9A01B" font-family="'PermanentMarker'" font-size="31px">y </tspan><tspan x="326.53" y="0" font-family="'PermanentMarker'" font-size="31px">left</tspan></text>
	<path fill="none" stroke="#F9A01B" stroke-width="7" stroke-linecap="round" stroke-miterlimit="10" d="M53.67,157.06
		c99.9,99.9,302.81,138.67,443.81-2.33"/>
</g>
</svg>
