 
 
 
<svg version="1.1" id="Layer_1" xmlns="http://www.w3.org/2000/svg" xmlns:xlink="http://www.w3.org/1999/xlink" x="0px" y="0px"
	 viewBox="0 0 740.3 315.7" enable-background="new 0 0 740.3 315.7" xml:space="preserve">
<path stroke="#FFFFFF" stroke-width="120" stroke-linecap="square" d="
	M35.1-6.9C2.1,55.6,0.7,129.5,0,200.2c9.5,4.4,20.2-2.7,27.9-9.7c28.1-25.6,50.8-56.9,66.3-91.6c20.3-45.2,29.5-97.6,64.6-132.6
	c16.2,62.9-8.3,129.3-40.9,185.4s-74.2,107.8-97,168.6c39-3.8,73.2-29,98-59.3s42.2-65.9,62.3-99.6c18.4-30.8,42.3-62.4,77.2-70.8
	c-1,39.9-11.4,79.5-30,114.8c-5.5,10.5-11.9,20.9-14.4,32.5c-2.5,11.6-0.3,25.1,8.9,32.7c11.2,9.2,28.4,6.1,40.6-1.6
	c12.3-7.7,21.6-19.3,33.3-27.9c34-25,80.5-21,122.6-18c72.3,5.3,145.1,4.5,217.3-2.3c13.3-1.2,26.5-2.7,39.6-5.2
	c7.9-1.5,16.1-3.5,22.1-8.9c9.2-8.2,10.9-21.7,11-34c0.1-11.8-0.9-23.8-6-34.5c-9.3-19.5-30.5-30.4-51.3-36.2
	c-41.1-11.5-84.6-8.4-127.1-5.3c-81.7,6-163.4,12.1-245.2,18.1"/>
<g>
	
		<line stroke-width="7" x1="3.8" y1="195.2" x2="735.8" y2="195.2"/>
	
		<line stroke-width="7" x1="27.3" y1="310.7" x2="27.3" y2="36.7"/>
	
		<polyline stroke-width="7" points="
		4.9,58.7 27.4,36.7 49.9,58.7 	"/>
	
		<polyline stroke-width="7" points="
		713.8,172.7 735.8,195.2 713.8,217.7 	"/>
</g>
<g>
	<text transform="matrix(1 0 0 1 0.8664 20.2965)" font-family="'PermanentMarker'" font-size="31">productivity</text>
</g>
<g>
	<text transform="matrix(1 0 0 1 307.6837 249.5368)" font-family="'PermanentMarker'" font-size="31">all the people in the world</text>
</g>
<path stroke="#488EB1" stroke-width="7" d="
	M47.5,102.7c48.4,3.4,96.4,1.4,144.8-1c3.6-0.1,5.7-0.1,5.7-0.1s-3.7,0.1,0,0c-0.3,3.7-0.4,7.3-0.5,10.9
	c-1.6,54.5,12.4,107,25.5,159.5c-2.8-45.8-3.2-12.1,0,0c-3-56,6-110,19-167c0,0,1-1,2-1c14,3,28,8,42,7c8-1,16-5,24-6
	c36-3,71-4,107-4c8,0,16,2,24,3c4,1,9,2,13,3c19,2,37-5,56-9c13-2,24-2,37,1c6,1,13,1,19-2c22-13,47-19,69.7-9.1"/>
<g>
	<path stroke-width="7" d="M167.2,261.8
		c11.1,9.9,27,14,41.5,10.8"/>
	<text transform="matrix(1 0 0 1 121.1188 256.9474)" font-family="'PermanentMarker'" font-size="30.7418">me</text>
</g>
</svg>
