<?xml version="1.0" encoding="utf-8"?> <!-- Generator: Adobe Illustrator 18.0.0, SVG Export Plug-In . SVG Version: 6.00 Build 0) --> <!DOCTYPE svg PUBLIC "-//W3C//DTD SVG 1.1//EN" "http://www.w3.org/Graphics/SVG/1.1/DTD/svg11.dtd"> <svg version="1.1" id="Layer_1" xmlns="http://www.w3.org/2000/svg" xmlns:xlink="http://www.w3.org/1999/xlink" x="0px" y="0px" viewBox="0 0 601.5 622.1" enable-background="new 0 0 601.5 622.1" xml:space="preserve"> <path stroke="#FFFFFF" stroke-width="120" stroke-linejoin="bevel" d="M54.6-12 C8.2,24.2-25.6,76.3-39.7,133.5c19.5,7.6,38.7-10.3,52.5-26.1C54.9,59.4,102.3,16,153.9-21.7c4.6,20.2-4,40.8-13.2,59.4 c-23.3,47-51.9,91.3-85.3,131.7c-37.3,45.3-81.8,88-98,144.4C-5.7,270.1,34.6,229.5,74.9,189c75.5-76.1,151.2-152.3,234.2-220.1 C222.8,88.2,136.5,207.4,50.2,326.7c-4.3,6-8.7,14.3-4.1,20.1c5.6,7.1,17,1.7,23.8-4.2c29.9-25.7,56.4-55.5,78.5-88.1 c20.7-30.6,37.5-63.6,56.4-95.3c40.9-68.5,91.9-131,150.9-184.8c-8.7,40.9-27.3,78.9-45.2,116.7c-42.2,89.2-81.1,181-99.6,278 C325.9,277.9,350.9,111.6,449.3,2.9c-21.9,119.6-76.6,231.7-94.8,352c82.8-93.9,90-235.7,167.8-333.8c5.3,27.3-6.5,54.5-14.4,81.1 c-24.5,81.9-14,170-26.7,254.5c48.6-111.3,83-228.8,102.1-348.7c6.2,123.4,6.3,247,6.5,370.6c-131.6-6.5-264.6-12.9-394.1,11.3 c58.3,26.9,125.9,17.4,190,20.5c14.7,0.7,30,2.3,42.3,10.4c4.9,3.2,9.6,8.4,9,14.2c-0.5,4.7-4.2,8.4-7.9,11.5 c-38.7,32.2-91.8,38.8-141.6,46.1c-58.3,8.6-116.2,19.8-173.4,33.7c58.9-43.3,132-66.8,205-66c24.9,0.3,55.7,8.2,60.9,32.6 c-32.5,16.8-68.9,24.4-105,30.5c-67.3,11.5-135.2,19-203.3,22.5c100.6,19.8,205.5,3.7,306.5,21.5c-3.9,8.9-14.6,12.2-24,14.2 c-96.5,20.7-196.7,11.5-294.5-1.4"/> <polyline stroke-width="7" points=" 567.8,301.1 589.8,323.6 567.8,346.1 "/> <line stroke-width="7" x1="589.8" y1="323.6" x2="9.8" y2="323.6"/> <polyline stroke-width="7" points=" 277.3,55.6 299.8,33.6 322.3,55.6 "/> <line stroke-width="7" x1="299.8" y1="33.6" x2="299.8" y2="613.6"/> <path stroke="#94CD8A" stroke-width="7" d="M353.4,66.9 c-8.6,26.5,11,53.3,30,73.8c16.7,18.1,33.8,35.8,51.4,53.1c20.9,20.5,42.9,41.1,55.7,67.5s14.3,60.6-4.5,83 c-14.6,17.4-38.2,24.7-54.3,40.7c-6.5,6.5-11.7,14.3-19.1,19.9c-6,4.5-13.1,7.2-20,10.1c-56,23.2-105.2,59.8-153.9,96 c-37.8,28.1-75.6,56.3-113.4,84.4"/> <path stroke="#FDF27D" stroke-width="7" d="M7.6,75 c4.7-12.5,9.5-25.1,16.6-36.5"/> <path stroke="#FDF27D" stroke-width="7" d="M19.8,120.3 C38,91.2,56.2,62.2,74.4,33.1"/> <path stroke="#FDF27D" stroke-width="7" d="M31.4,169.8 C63.8,113.9,96.9,57,144.6,13.4"/> <path stroke="#FDF27D" stroke-width="7" d="M13.2,267.7 c36.3-48.1,63-102.9,98.9-151.3c18.4-24.8,39.1-47.8,59.8-70.7"/> <path stroke="#FDF27D" stroke-width="7" d="M47,291.9 C101.6,200.1,160.7,111,224.2,25"/> <path stroke="#FDF27D" stroke-width="7" d="M97.8,299.3 c39.6-58.4,80-116.1,120.5-173.9c6.7-9.5,13.4-19.1,20-28.6c9.3-13.2,18.5-26.4,28-39.4"/> <path stroke="#FDF27D" stroke-width="7" d="M190.6,288.7 c8.8-16.6,15.7-34.2,23.6-51.3c16.9-36.4,38.6-70.6,64.4-101.3"/> <path stroke="#FDF27D" stroke-width="7" d="M233.7,302.8 c15.8-42.3,37.6-82.1,59.3-121.6"/> <path stroke="#FDF27D" stroke-width="7" d="M277.4,312.3 c3.4-13.3,6.7-26.6,10.1-39.8"/> <g> <path d=" M255.2,17.5c0,0,6.6,0.2,7.3-0.4"/> <path d=" M288.2,17.5c0,0,6.6,0.2,7.3-0.4"/> <g> <path d=" M256.4,13.3c0.8,1.4-3.9,7.7-2.8,10.6c1.1,2.9,10.4-0.3,10.4-0.3"/> <path d=" M254.7,12.5c0.3-1.2,11-2.6,11-2.6"/> <path d=" M289.4,13.3c0.8,1.4-3.9,7.7-2.8,10.6c1.1,2.9,10.4-0.3,10.4-0.3"/> <path d=" M287.7,12.5c0.3-1.2,11-2.6,11-2.6"/> <path d=" M269.3,24.3c-0.2-0.9,5.3-13.4,5.3-13.4"/> <path d=" M274.5,10.9c-0.8,2,0,14.6,3.8,12.9c3.5-1.6,3.5-12.4,4.5-13"/> <path d=" M304,14.7c0.1,0.6-1.8,10-1.8,10"/> <path d=" M304.7,15.7c0,0,3.8-5.7,5.2-5.3c1.4,0.4,3.8,4.2,2.9,5.9c-0.8,1.5-7.7,3.6-7.7,3.6s3.6,5.5,9.5,5.3"/> <path d=" M330.2,11.3c-1.4-0.5-14.3,9.2-11.4,12.7c2.9,3.5,17.8-0.9,16.4-2.4c-1-1.1-3.8-3.9-4.6-3.2"/> <path d=" M340.1,11.2c-0.1,0.8,1.5,7.4,4.1,8.1"/> <path d=" M350,10.7c-1.8,1-9.8,15.6-9.8,15.6"/> </g> </g> <g> <path stroke="#94CD8A" d=" M367,74.5c0.6,0.3,14.7-2.4,16.3-1.8"/> <path stroke="#94CD8A" d=" M374.3,73.2c1.6,2.4-5.9,12.8-2.3,15.9"/> <path stroke="#94CD8A" d=" M385.6,73c-0.4,0.5-2.5,11.2-1.2,14.6"/> <path stroke="#94CD8A" d=" M390.8,88.2c-0.2-1.2,4.8-15.5,6.6-14.9c2.2,0.7-0.6,7.8,3.4,8.2c3.9,0.4,8.6-7.7,9.8-7.4c1.6,0.4-1.2,12.3-1.8,13.7"/> <path stroke="#94CD8A" d=" M525.4,76.3c0.8,1.4-3.9,7.7-2.8,10.6c1.1,2.9,10.4-0.3,10.4-0.3"/> <path stroke="#94CD8A" d=" M523.7,75.5c0.3-1.2,11-2.6,11-2.6"/> <path stroke="#94CD8A" d=" M524.2,80.5c0,0,6.6,0.2,7.3-0.4"/> <path stroke="#94CD8A" d=" M419.4,76.3c0.8,1.4-3.9,7.7-2.8,10.6c1.1,2.9,10.4-0.3,10.4-0.3"/> <path stroke="#94CD8A" d=" M417.7,75.5c0.3-1.2,11-2.6,11-2.6"/> <path stroke="#94CD8A" d=" M418.2,80.5c0,0,6.6,0.2,7.3-0.4"/> <path stroke="#94CD8A" d=" M455.4,72.4c0,0-14.7,9-9.7,13.2c4.6,3.9,12.7-1.2,12.9-3.1c0.2-1.9-1.8-6.8-4.3-8.9"/> <path stroke="#94CD8A" d=" M467.8,73.8c0,0-3.7,13.3-2.8,14.1"/> <path stroke="#94CD8A" d=" M464.9,74.5c0,0,10.4-3.4,13.1-2.6"/> <path stroke="#94CD8A" d=" M462.4,80.9c0.4,0.6,11.6-0.3,11.6-0.3"/> <path stroke="#94CD8A" d=" M489,74.5c0.6,0.3,14.7-2.4,16.3-1.8"/> <path stroke="#94CD8A" d=" M496.3,73.2c1.6,2.4-5.9,12.8-2.3,15.9"/> <path stroke="#94CD8A" d=" M507.1,73.7c0.2,0.7-2.3,13.6-2.3,13.6"/> <path stroke="#94CD8A" d=" M504.9,87.3c0,0,1.1-4.8,6.4-5.4c4.1-0.4,5.2-2,5.3-2.6c0.1-0.6,1.1-7,1.1-7"/> <path stroke="#94CD8A" d=" M517.7,72.3c0.1,0.8-2.3,14.5-2.3,14.5"/> <path stroke="#94CD8A" d=" M551.3,76.3c1,3.6,0.7,6.5-0.6,12.1"/> <path stroke="#94CD8A" d=" M551.3,73.4c11.2,4,15.6,9.4-0.6,14.9"/> <path stroke="#94CD8A" d=" M565.2,87.2c0,0,4.3-11.2,8.8-13.6c0,0,5.6,12.6,2,14.5 M570.7,83.9c0,0,4.9-0.1,9-2.1"/> <path stroke="#94CD8A" d=" M583.1,73.2c-0.1,0.8,1.5,7.4,4.1,8.1"/> <path stroke="#94CD8A" d=" M593,72.7c-1.8,1-9.8,15.6-9.8,15.6"/> </g> <g> <path d=" M70.2,144.2c0,0,4.3-11.2,8.8-13.6c0,0,5.6,12.6,2,14.5 M75.7,140.9c0,0,4.9-0.1,9-2.1"/> <path d=" M91,134.7c0.1,0.6-1.8,10-1.8,10"/> <path d=" M91.7,135.7c0,0,3.8-5.7,5.2-5.3c1.4,0.4,3.8,4.2,2.9,5.9c-0.8,1.5-7.7,3.6-7.7,3.6s3.6,5.5,9.5,5.3"/> <path d=" M108.4,133.3c0.8,1.4-3.9,7.7-2.8,10.6c1.1,2.9,10.4-0.3,10.4-0.3"/> <path d=" M106.7,132.5c0.3-1.2,11-2.6,11-2.6"/> <path d=" M107.2,137.5c0,0,6.6,0.2,7.3-0.4"/> <path d=" M120.2,144.2c0,0,4.3-11.2,8.8-13.6c0,0,5.6,12.6,2,14.5 M125.7,140.9c0,0,4.9-0.1,9-2.1"/> <path d=" M155.3,131.7c-0.7,0.5-3.3,11-2.7,12.7c0.6,1.6,8-1.4,11.7-11.2"/> <path d=" M164.3,133.2c-0.9,3.3-0.7,12.4,2.5,11.6c3.8-0.9,6.1-11.9,7.5-12.8"/> <path d=" M179.1,131.7c0.2,0.7-2.3,13.6-2.3,13.6"/> <path d=" M176.9,145.3c0,0,1.1-4.8,6.4-5.4c4.1-0.4,5.2-2,5.3-2.6c0.1-0.6,1.1-7,1.1-7"/> <path d=" M189.7,130.3c0.1,0.8-2.3,14.5-2.3,14.5"/> <path d=" M197.4,133.3c0.8,1.4-3.9,7.7-2.8,10.6c1.1,2.9,10.4-0.3,10.4-0.3"/> <path d=" M195.7,132.5c0.3-1.2,11-2.6,11-2.6"/> <path d=" M196.2,137.5c0,0,6.6,0.2,7.3-0.4"/> <path d=" M212,134.7c0.1,0.6-1.8,10-1.8,10"/> <path d=" M212.7,135.7c0,0,3.8-5.7,5.2-5.3c1.4,0.4,3.8,4.2,2.9,5.9c-0.8,1.5-7.7,3.6-7.7,3.6s3.6,5.5,9.5,5.3"/> <path d=" M230.4,133.3c0.8,1.4-3.9,7.7-2.8,10.6c1.1,2.9,10.4-0.3,10.4-0.3"/> <path d=" M228.7,132.5c0.3-1.2,11-2.6,11-2.6"/> <path d=" M229.2,137.5c0,0,6.6,0.2,7.3-0.4"/> <path d=" M32.3,168.7c-0.7,0.5-3.3,11-2.7,12.7c0.6,1.6,8-1.4,11.7-11.2"/> <path d=" M41.3,170.2c-0.9,3.3-0.7,12.4,2.5,11.6c3.8-0.9,6.1-11.9,7.5-12.8"/> <path d=" M64.4,168.4c0,0-14.7,9-9.7,13.2c4.6,3.9,12.7-1.2,12.9-3.1c0.2-1.9-1.8-6.8-4.3-8.9"/> <path d=" M75,171.7c0.1,0.6-1.8,10-1.8,10"/> <path d=" M75.7,172.7c0,0,3.8-5.7,5.2-5.3c1.4,0.4,3.8,4.2,2.9,5.9c-0.8,1.5-7.7,3.6-7.7,3.6s3.6,5.5,9.5,5.3"/> <path d=" M94.2,167.5c-0.6,0.5-4.3,14.6-4.3,14.6"/> <path d=" M89.9,182.2c0,0,6.5-9.8,14.2-13.4"/> <path d=" M96.1,175.2c0,0,2.5,5.8,10.2,5"/> <path d=" M125.6,168c-0.4,0.5-2.5,11.2-1.2,14.6"/> <path d=" M143.5,167.4c-1.6-1-12.1,1.8-12.2,3.4c-0.1,1.6,8.4,1.7,9,5.2c0.5,2.9-6.9,6.4-8.3,5.7"/> <path d=" M156.2,181.2c0,0,4.3-11.2,8.8-13.6c0,0,5.6,12.6,2,14.5 M161.7,177.9c0,0,4.9-0.1,9-2.1"/> <path d=" M186.4,168.1c-9.1,0.7-17.8,14.4-0.4,13.2"/> <path d=" M191,168.5c0.6,0.3,14.7-2.4,16.3-1.8"/> <path d=" M198.3,167.2c1.6,2.4-5.9,12.8-2.3,15.9"/> <path d=" M208.4,170.2c-0.4,0.5-2.7,9.4,2.6,11.2c3.8,1.3,10.5-9,9.6-13.3"/> <path d=" M222.2,182.2c0,0,4.3-11.2,8.8-13.6c0,0,5.6,12.6,2,14.5 M227.7,178.9c0,0,4.9-0.1,9-2.1"/> <path d=" M245.7,167.2c0.5,1.3-4.7,12.2-3.8,13.8c0.9,1.5,9.1-1.7,11.4,0"/> <path d=" M261.7,167.2c0.5,1.3-4.7,12.2-3.8,13.8c0.9,1.5,9.1-1.7,11.4,0"/> <path d=" M274.1,167.2c-0.1,0.8,1.5,7.4,4.1,8.1"/> <path d=" M284,166.7c-1.8,1-9.8,15.6-9.8,15.6"/> <path d=" M95.6,219.5c0.5-1.2,2.4-13.5,3.9-14.6c2.3-1.6,12.6,1.3,6,5.8c-5,3.3-10.5,0.2-10.5,0.2"/> <path d=" M121.4,204.4c0,0-14.7,9-9.7,13.2c4.6,3.9,12.7-1.2,12.9-3.1c0.2-1.9-1.8-6.8-4.3-8.9"/> <path d=" M141.5,204.4c-1.6-1-12.1,1.8-12.2,3.4c-0.1,1.6,8.4,1.7,9,5.2c0.5,2.9-6.9,6.4-8.3,5.7"/> <path d=" M156.5,204.4c-1.6-1-12.1,1.8-12.2,3.4c-0.1,1.6,8.4,1.7,9,5.2c0.5,2.9-6.9,6.4-8.3,5.7"/> <path d=" M162.6,205c-0.4,0.5-2.5,11.2-1.2,14.6"/> <path d=" M171.5,208.9c-0.2,3.9-2.6,10.2-2.6,10.2"/> <path d=" M167.5,205.9c0.6-0.5,11.2-4.4,11.8-0.5c0.6,3.9-6.2,5.9-6.2,5.9s8.5-0.2,7.7,3.4c-0.8,4.1-9.3,4.4-9.3,4.4"/> <path d=" M190.7,204.2c0.5,1.3-4.7,12.2-3.8,13.8c0.9,1.5,9.1-1.7,11.4,0"/> <path d=" M206.4,208.3c0.8,1.4-3.9,7.7-2.8,10.6c1.1,2.9,10.4-0.3,10.4-0.3"/> <path d=" M204.7,207.5c0.3-1.2,11-2.6,11-2.6"/> <path d=" M205.2,212.5c0,0,6.6,0.2,7.3-0.4"/> </g> <g> <path d=" M412.3,362.3c1,3.6,0.7,6.5-0.6,12.1"/> <path d=" M412.3,359.4c11.2,4,15.6,9.4-0.6,14.9"/> <path d=" M429.6,360c-0.4,0.5-2.5,11.2-1.2,14.6"/> <path d=" M448.5,359.4c-1.6-1-12.1,1.8-12.2,3.4c-0.1,1.6,8.4,1.7,9,5.2c0.5,2.9-6.9,6.4-8.3,5.7"/> <path d=" M451,360.5c0.6,0.3,14.7-2.4,16.3-1.8"/> <path d=" M458.3,359.2c1.6,2.4-5.9,12.8-2.3,15.9"/> <path d=" M468,363.7c0.1,0.6-1.8,10-1.8,10"/> <path d=" M468.7,364.7c0,0,3.8-5.7,5.2-5.3c1.4,0.4,3.8,4.2,2.9,5.9c-0.8,1.5-7.7,3.6-7.7,3.6s3.6,5.5,9.5,5.3"/> <path d=" M482.2,373.2c0,0,4.3-11.2,8.8-13.6c0,0,5.6,12.6,2,14.5 M487.7,369.9c0,0,4.9-0.1,9-2.1"/> <path d=" M510.4,360.1c-9.1,0.7-17.8,14.4-0.4,13.2"/> <path d=" M516,361.5c0.6,0.3,14.7-2.4,16.3-1.8"/> <path d=" M523.3,360.2c1.6,2.4-5.9,12.8-2.3,15.9"/> <path d=" M535.6,360c-0.4,0.5-2.5,11.2-1.2,14.6"/> <path d=" M550.4,360.4c0,0-14.7,9-9.7,13.2c4.6,3.9,12.7-1.2,12.9-3.1c0.2-1.9-1.8-6.8-4.3-8.9"/> <path d=" M559.3,374.3c-0.2-0.9,5.3-13.4,5.3-13.4"/> <path d=" M564.5,360.9c-0.8,2,0,14.6,3.8,12.9c3.5-1.6,3.5-12.4,4.5-13"/> <path d=" M589.5,360.4c-1.6-1-12.1,1.8-12.2,3.4c-0.1,1.6,8.4,1.7,9,5.2c0.5,2.9-6.9,6.4-8.3,5.7"/> </g> </svg> 