<?xml version="1.0" encoding="utf-8"?>
<!-- Generator: Adobe Illustrator 19.2.0, SVG Export Plug-In . SVG Version: 6.00 Build 0)  -->
<svg version="1.1" id="Layer_1" xmlns="http://www.w3.org/2000/svg" xmlns:xlink="http://www.w3.org/1999/xlink" x="0px" y="0px"
	 width="828.7px" height="452.6px" viewBox="0 0 828.7 452.6" enable-background="new 0 0 828.7 452.6" xml:space="preserve">
<path fill="none" stroke="#FFFFFF" stroke-width="120" stroke-linejoin="bevel" stroke-miterlimit="10" d="M126.6,43.2
	c0.1,3.9,0.3,7.8,0.4,11.6c122.4,0,244.7-0.1,367.1-0.1c14.4,0,29.2-0.1,42.8-4.8s26.2-15,29.7-29c-2.8,16.4-5.6,32.9-8.4,49.3
	c22.3-23.4,44.7-46.8,67-70.2c-2.1,27.3-4.3,54.6-6.4,81.8c17.5-25.3,35.1-50.6,52.6-75.9c4.6,27.9,9.2,55.7,13.8,83.6
	c16-13.5,32-27,48.1-40.5c12.3,15.4,51.4,10.7,71.1,9.3C631,63.8,441.6,74,268.2,79.5c-49.5,1.6-99.3,3.1-148.2,11.3
	c-26.6,4.5-52.9,10.9-78.5,19.2c-9.7,3.1-19.8,6.8-26.6,14.5s-8.8,20.5-1.7,27.8c17.8-19.9,35.7-39.9,53.5-59.8
	c-2.1,21.3-4.2,42.6-6.3,63.8c21.6-21.7,43.1-43.5,64.7-65.2c-2.6,13.1-5.1,26.3-7.7,39.4c18-22.3,36-44.6,54-66.9
	c-8.1,24.3-16.1,48.7-24.2,73c8.9-11.1,17.9-22.2,26.8-33.3c-12.7,14-25.5,28.1-38.2,42.1c14.7,90.5,17.2,183,7.6,274.2
	c-32-30.4-57.1-67.9-73.2-109c-10,8.5-9.3,26.6,1.4,34.2s28,2.6,32.9-9.7c22.3,23.5,65.1,22.3,86.1-2.3c17.1-20.1,18.5-49,16.4-75.3
	c-2.1-26.3-6.8-53.4,1.2-78.6c7.5-24,26.8-44.1,50.6-52.6s51.4-5.2,72.4,8.7c3.6,13,7.1,26,10.7,39c15.4-23.6,38.6-42.1,65.1-51.8
	c5.2-1.9,11.4-3.4,16.1-0.5c4.7,2.9,4.6,12.1-1,12.7c22.3-10.7,48-10.8,72.7-10.6c39.8,0.2,79.7,0.5,119.5,0.7
	c23.1,0.1,46.9,0.4,68.5,8.6s41.1,26.1,44.4,49c-16.6-3.6-35.1,3.9-44.5,18.1c22.6-1,45.1-2,67.7-2.9
	c-24.2,24.8-48.3,49.5-72.5,74.3c15.3-1.6,30.7-3.1,46-4.7c-7.9,26.1-15.7,52.2-23.6,78.3c12.1-7.4,24.2-14.8,36.3-22.3
	c-3.1,11.7-6.2,23.4-9.3,35.2c14.5-11.3,29-22.6,43.5-33.8c9.6,11.2-3.9,30-18.7,29.7c-14.8-0.3-26.6-12.2-34.8-24.5
	c-20.8-31-29.7-69.7-24.4-106.6c1.9-13,5.2-27.2-1.5-38.5c-10.3-17.5-38.7-14.8-52.5,0.2s-16.9,36.6-19.3,56.8
	c6.5-13.1,4.9-29.8-4-41.3c-8.9-11.6-24.7-17.4-39-14.4c17.6,0.3,35.2,0.5,52.7,0.8c-20.5-14.6-54.2-2-60.1,22.5s18.5,51,43.4,47.3
	c-12.2-5.1-27.5,7.4-25.1,20.4c14.1,9.2,33.1,10.4,48.3,3.1c-27.5-0.1-54.6,15.5-68.2,39.4c21.5,3.3,43.1,6.5,64.6,9.8
	c-8.9-10.6-26.7-11.8-37-2.6c-10.2,9.2-10.8,27.1-1.3,37c-9.1-13.2-18.1-26.5-27.2-39.7c-5.5,10.2-11,20.5-16.5,30.7
	c-0.3-9.6-0.6-19.2-0.9-28.8c-8.4,8-16.8,16-25.1,24c2-56.6,3.9-113.2,5.9-169.8c0.7-19.7-0.1-42.6-16-54.3
	c36.2,63.3,38.7,144.6,6.5,210c-6.8,13.7-18.3,28.5-33.5,27c-18.9-1.9-25.2-25.9-26.9-44.8c-2.1,7.8-4.1,15.7-6.2,23.5
	c4.6-31,9.2-62.8,3.2-93.6c-6.1-30.8-25.1-60.9-54.6-71.6c-27.6-9.9-59.1-1-82.9,16.1c34.6,3.7,69.2,7.3,103.8,11
	c-34.7-1.7-69.5-3.3-104.2-5c-2.5,22.2,18.8,41.4,40.9,45c22.1,3.6,44.3-4.1,65.4-11.7c-28.2,17.7-64.1,22.4-95.9,12.6
	c-4.1,17.6,12.3,34.6,30.1,38c17.7,3.4,35.7-2.9,52.7-9c-24.9,18.1-59.2,22.3-87.8,10.8c19.5,24.5,50.5,39.5,81.8,39.6
	c-22.1,4.4-44.2,8.9-66.4,13.3c-21,30.6-65.1,32.4-102.1,28.2s-78.4-10.2-107.8,12.6c174.8-0.1,349.6-0.2,524.3-0.4
	c52,0,105.7-0.4,153.3-21.4c7.3,16.8-0.4,38.6-16.6,47.1c-15.3-13.9-20.9-37.6-13.3-56.9c15.9,11.2,30.3,26.2,35.2,45
	c4.9,18.8-2.2,41.7-19.7,50.1s-42.9-4.5-42.4-23.9c-14.8,14-29.6,28-44.4,42c-18.8-23.1-37.6-46.2-56.4-69.4
	c-15.7,29.3-55.5,42.8-85.8,29.1"/>
<g id="Arrow_right">
</g>
<g>
	
		<line fill="none" stroke="#000000" stroke-width="7" stroke-linecap="round" stroke-linejoin="round" stroke-miterlimit="10" x1="146" y1="87.8" x2="146" y2="403.9"/>
	
		<line fill="none" stroke="#000000" stroke-width="7" stroke-linecap="round" stroke-linejoin="round" stroke-miterlimit="10" x1="123.5" y1="381.4" x2="811" y2="381.4"/>
	<g>
		
			<polyline fill="none" stroke="#000000" stroke-width="7" stroke-linecap="round" stroke-linejoin="round" stroke-miterlimit="10" points="
			789,358.9 811,381.4 789,403.9 		"/>
	</g>
	<g>
		
			<polyline fill="none" stroke="#000000" stroke-width="7" stroke-linecap="round" stroke-linejoin="round" stroke-miterlimit="10" points="
			123.5,109.8 146,87.8 168.5,109.8 		"/>
	</g>
</g>
<text transform="matrix(1 0 0 1 577.9186 433.7957)" font-family="'PermanentMarker'" font-size="30.74px">time in the gym</text>
<text transform="matrix(1 0 0 1 118.515 66.8856)"><tspan x="0" y="0" font-family="'PermanentMarker'" font-size="30.74px">intensity of physical activity </tspan><tspan x="435.8" y="0" fill="#F4BB3A" font-family="'PermanentMarker'" font-size="30.74px">for most people</tspan></text>
<path fill="none" stroke="#F4BB3A" stroke-width="7" stroke-linecap="round" stroke-linejoin="round" stroke-miterlimit="10" d="
	M155.1,339.8c13.5,1,26.1,1.2,38.8-3c8.2-2.7,14-10.4,16.6-18.6c2.7-8.2,2.7-17,2.7-25.7c0-42.1,0-84.2,0-126.3
	c0-12.7,0.8-27.1,10.7-35.1c7.3-5.9,17.4-6.3,26.7-6.5c19-0.4,38-0.7,57-1.1c10.4-0.2,22,0.1,29.4,7.4c7.4,7.2,7.9,18.7,7.9,29.1
	c0.1,41.1-0.1,109.7,0.4,123.3c0.5,13.6-0.6,25.6,4.8,36.5s18.1,21.1,30.7,17c8.2-2.7,14-10.4,16.6-18.6s2.7-17,2.7-25.7
	c0-42.1,0-84.2,0-126.3c0-12.7,0.8-27.1,10.7-35.1c7.3-5.9,17.4-6.3,26.7-6.5c19-0.4,38-0.7,57-1.1c10.4-0.2,22,0.1,29.4,7.4
	c7.4,7.2,7.9,18.7,7.9,29.1c0.1,41.1,0.3,82.2,0.4,123.3c0,9.8,0.1,19.8,3.6,28.9c3.5,9.1,11.1,17.3,20.8,18.5
	c11.8,1.5,21-9,23.8-13.6c4.4-7.4,4.4-18.3,4.5-24.6c0.1-6.3,0-84.2,0-126.3c0-12.7,0.8-27.1,10.7-35.1c7.3-5.9,17.4-6.3,26.7-6.5
	c19-0.4,38-0.7,57-1.1c10.4-0.2,22,0.1,29.4,7.4c7.4,7.2,7.9,18.7,7.9,29.1c0.1,41.1,0.3,82.2,0.4,123.3c0,9.8,0.1,19.8,3.6,28.9
	c3.5,9.1,11.1,17.3,20.8,18.5c11.8,1.5,20.7,1,32.6,0.4"/>
<text transform="matrix(1 0 0 1 11.4076 141.4907)" font-family="'PermanentMarker'" font-size="30.74px">exercise</text>
<text transform="matrix(1 0 0 1 69.9457 350.0453)" font-family="'PermanentMarker'" font-size="30.74px">rest</text>
<text transform="matrix(1 0 0 1 554.3262 38.9732)" fill="#AB3D63" font-family="'PermanentMarker'" font-size="30.74px">for me</text>
<path fill="none" stroke="#AB3D63" stroke-width="7" stroke-linecap="round" stroke-linejoin="round" stroke-miterlimit="10" d="
	M155.1,358.6c43-0.9,99.3-1.8,142.2-2.7c13-0.3,26.7-0.7,37.7-6.5c20.2-10.6,23.6-34.1,24.9-54.4c1.5-23.7,3-47.4,4.4-71
	c0.7-10.5,1.4-21.2,5.9-31s13.6-18.6,25.6-21c16-3.2,32.4,6.2,40.4,18.4c8,12.2,9.5,26.6,10.9,40.5c2.6,27.2,5.3,54.5,7.9,81.7
	c0.9,9.6,2.1,19.8,9.1,27.4c10.5,11.5,29.9,13,47.1,13.5c16.5,0.5,32.5,0.8,49.9,0.1c17.5-0.7,32.8-1,44.9-10.6
	c13.7-10.8,15.5-28.5,16.4-44.4c1.4-25.5,2.8-50.9,4.2-76.4c0.7-11.8,1.4-24,7.2-34.7c5.8-10.8,17.9-19.9,31.7-19.9
	c13.8,0.1,25.7,9.2,31.4,19.9s6.4,22.8,7,34.5c1.7,31.9,3.4,63.9,5.2,95.8c0.4,7.4,2.5,16,6.4,22.6c8,13.6,27.9,14,44.3,13.1"/>
<g id="Arrow_up">
</g>
</svg>
