<?xml version="1.0" encoding="utf-8"?>
<!-- Generator: Adobe Illustrator 18.0.0, SVG Export Plug-In . SVG Version: 6.00 Build 0)  -->
<!DOCTYPE svg PUBLIC "-//W3C//DTD SVG 1.1//EN" "http://www.w3.org/Graphics/SVG/1.1/DTD/svg11.dtd">
<svg version="1.1" id="Layer_1" xmlns="http://www.w3.org/2000/svg" xmlns:xlink="http://www.w3.org/1999/xlink" x="0px" y="0px"
	 viewBox="0 0 562.5 477.4" enable-background="new 0 0 562.5 477.4" xml:space="preserve">
<path fill="none" stroke="#FFFFFF" stroke-width="120" stroke-linejoin="bevel" stroke-miterlimit="10" d="M57.7-0.4
	C27.4,29.4,12.3,73.8,18.1,115.9c6.6,6.2,16.9-1.3,22.7-8.3c33.2-40.2,66.3-80.5,99.5-120.7c8.3,18.9-0.5,41.3-14.1,56.9
	S94.6,70.4,80.1,85c-27,27.2-40.8,65.2-45.5,103.1s-1,76.4,2.8,114.5c0.4,4.4,1.1,9.1,4.3,12c7.5,6.6,18.3-2.6,23.8-10.9
	C127.9,208,174.8,102.2,204-8.4c2.5-9.4,7.5-21,17.2-20.6c6,0.2,10.7,5.5,12.3,11.3s0.7,11.8-0.3,17.7
	c-14.6,87.2-44.8,171.9-88.7,248.6C105.5,317,55.3,379.6,27,453.1c25.4,3.9,53.9,7.1,74.6-8.2c10.9-8.1,17.9-20.3,24.6-32.1
	c39.2-69.2,78.7-139.1,101.6-215.2c10.8-35.9,17.7-72.8,29.7-108.3c11.9-35.5,29.3-70.2,57.2-95.2c15.4,10.2,22.2,30,21.7,48.5
	c-0.6,18.5-7.3,36.1-13.9,53.4c16.5,4.2,32.9-7.9,42.5-22c9.6-14,15.4-30.7,26.8-43.3s32-19.8,45.4-9.3c7.6,5.9,10.7,15.8,13.5,25
	c12,40.3,24,80.6,36,120.9c4.6,15.4,8.5,34.1-2.4,45.9c-6.7,7.2-17,9.5-26.8,10.9c-58.4,8.1-119.5-4.7-169.8-35.5
	c-17.4,23.5-35.6,49.9-33.1,79.1c1.6,19,11.9,36.1,24.1,50.8c26.1,31.5,61.3,54.4,98.5,71.2s130.5,27.7,169.9,38.6
	c-4.9,13.4-74.7,18.5-88.7,21.2C357.4,469,252,464.8,152.9,437.3"/>
<g>
	<text transform="matrix(1 0 0 1 23.1813 106.0459)" fill="#0071BC" font-family="'PermanentMarker'" font-size="31">rejection of authority</text>
	
		<line fill="none" stroke="#000000" stroke-width="7" stroke-linecap="round" stroke-linejoin="round" stroke-miterlimit="10" x1="45.7" y1="126.4" x2="45.7" y2="460.5"/>
	
		<polyline fill="none" stroke="#000000" stroke-width="7" stroke-linecap="round" stroke-linejoin="round" stroke-miterlimit="10" points="
		23.2,148.4 45.7,126.4 68.2,148.4 	"/>
</g>
<g>
	<text transform="matrix(1 0 0 1 502.9567 442.0361)" font-family="'PermanentMarker'" font-size="31">age</text>
	
		<line fill="none" stroke="#000000" stroke-width="7" stroke-linecap="round" stroke-linejoin="round" stroke-miterlimit="10" x1="488.7" y1="438" x2="23.2" y2="438"/>
	
		<polyline fill="none" stroke="#000000" stroke-width="7" stroke-linecap="round" stroke-linejoin="round" stroke-miterlimit="10" points="
		466.7,415.5 488.7,438 466.7,460.5 	"/>
</g>
<path fill="none" stroke="#0071BC" stroke-width="7" stroke-linecap="round" stroke-linejoin="round" stroke-miterlimit="10" d="
	M58.2,269c39.3-6.6,73.1-32.4,84.3-64.2c3.6-10.3,5.1-21.3,11.2-30.7c6.1-9.5,18.7-17.4,31.3-14.9c11.8,2.3,18.7,12.2,23.9,21.3
	c29,50.7,49.7,104.8,85.6,152.3s91.5,89.2,158.9,95.6"/>
<g>
	<text transform="matrix(1 0 0 1 23.1813 32.9985)"><tspan x="0" y="0" fill="#7AC943" font-family="'PermanentMarker'" font-size="31">confidence in wisdom received </tspan><tspan x="0" y="37.2" fill="#7AC943" font-family="'PermanentMarker'" font-size="31">from a small number of books</tspan></text>
	<path fill="none" stroke="#7AC943" stroke-width="7" stroke-linecap="round" stroke-linejoin="round" stroke-miterlimit="10" d="
		M56.2,432.3c45.2-38.3,73.7-88.2,93.9-139s33.1-103.5,52.1-154.7c1.8-4.8,4.3-10.2,10-11.8c9.1-2.5,16.5,6.2,20.6,13.3
		c12.6,21.8,28.9,42.8,52.3,57.2c23.4,14.5,54.9,21.6,82.6,13.9c22.4-6.2,39.6-21,54.8-35.9c22-21.7,41.9-44.8,59.2-69.2"/>
</g>
<path fill="none" stroke="#000000" stroke-width="7" stroke-linecap="round" stroke-miterlimit="10" d="M196.3,433.4
	c-2.1,3.7-3.4,7.8-3.6,12.1"/>
<text transform="matrix(1 0 0 1 136.2679 471.4756)" font-family="'PermanentMarker'" font-size="30.74">college</text>
</svg>
