<?xml version="1.0" encoding="utf-8"?>
<!-- Generator: Adobe Illustrator 19.2.0, SVG Export Plug-In . SVG Version: 6.00 Build 0)  -->
<svg version="1.1" id="Layer_1" xmlns="http://www.w3.org/2000/svg" xmlns:xlink="http://www.w3.org/1999/xlink" x="0px" y="0px"
	 width="694.9px" height="596.3px" viewBox="0 0 694.9 596.3" enable-background="new 0 0 694.9 596.3" xml:space="preserve">
<path fill="none" stroke="#FFFFFF" stroke-width="120" stroke-linejoin="bevel" stroke-miterlimit="10" d="M155.9-4.6
	c-6.2,18.9-12.3,37.7-18.5,56.6c32-9.4,61.1-28.6,82.3-54.4c-11.4,30.7-22.8,61.3-34.2,92c32.7-29,65.3-58,98-86.9
	c-4,23-7.9,46.1-11.9,69.1c24.1-19.7,48.3-39.4,72.4-59.1c-6.7,18-11.7,42.2,4,53.3c9.6,6.7,23.2,4.7,32.9-1.8s16.5-16.4,22.9-26.1
	c5.3,15-5.9,31.8-20.3,38.5s-31.1,5.9-47,5.2s-32.6-1.1-46.8,6.2c-27.4,14.1-35.4,51.5-61.6,67.9c-17.7,11.2-42.4,9.9-58.9-3
	c-16.5-12.9-23.6-36.6-17-56.5c-33.7-8.9-71.8,1.2-96.6,25.7C45,109.2,34.4,96.4,23.9,83.7c-3,21.4,7.9,44.2,26.4,55.3
	s43.8,10,61.3-2.8c-10.9,37.7-21.7,75.3-32.6,113c11.7-7.4,23.4-14.9,35.2-22.3c-1.7,20.9-3.3,41.7-5,62.6
	c12.8-38.3,25.6-76.6,38.4-114.9c2.9-8.6,6.1-17.6,13.1-23.3c7-5.7,19.2-6,23.9,1.8c-12.2,50.4-24.5,100.8-36.7,151.1
	c41-31.3,73.4-73.7,92.8-121.4c-10.4,49.4-20.7,98.9-31.1,148.3c25.6-37.4,51.2-74.8,76.9-112.3c-14.4,37.8-28.9,75.5-43.3,113.3
	c20.3-14.6,40.6-29.2,60.9-43.8c-3.7,23.1-7.5,46.2-11.2,69.3c11.1-14.5,22.3-29,33.4-43.5c2.9,27.8,5.7,55.5,8.6,83.3
	c17-21.9,33.9-43.8,50.9-65.7c-6.8,23.2,4.1,50.4,25,62.6c8.3-34.7,16.7-69.4,25-104.1c3,44.8,5.9,89.6,8.9,134.4
	c25.7-41.9,51.4-83.8,77.1-125.7c0.2,37.5,0.3,74.9,0.5,112.4c25.7-34,45.7-72.3,59-112.8c-16,6.6-25,26.6-19.4,43
	c5.7,16.4,25.1,26.5,41.8,21.8c3.2-0.9,6.2-2.2,9.2-3.8c21.6-11.2,37.9-32.3,43.3-56c5.4-23.8-0.3-49.8-15-69.2
	c-11,13.6-22.1,27.2-33.1,40.7c-23.1-12.9-36.8-40.8-33-66.9c-17.2,30.9-34.5,61.7-51.7,92.6c-23.8-4.8-27.5-38.8-47.4-52.7
	c-10.3-7.1-24.7-7.8-35.5-1.5c-10.8,6.3-17.5,19-16.5,31.5c-4.7-20.4-9.3-40.9-14-61.3c-25.5,32.2-45.5,68.6-59.1,107.3
	c-5.3-31.7-10.6-63.3-15.9-95c-20.1,1.9-38.7,15.3-47,33.7c-14.3-0.1-23-18.9-17.1-32c5.9-13.1,21-19.8,35.3-20.6
	c14.3-0.8,28.4,3,42.6,5.1c14.2,2.1,29.5,2.2,41.9-5.1c-21.8-40.1-24.1-90.3-6.1-132.3c11.5,41.5,23,82.9,34.5,124.4
	c2,7,4.1,14.4,9,19.7c5,5.4,13.7,8,19.7,3.8c8.3-5.7,5.7-18.4,2.3-27.9c-13.1-35.9-26.2-71.8-39.3-107.7
	c40.3,32.8,63.8,81.4,86.1,128.3c-5.6-47.1-9.3-94.5-11-141.9c7,30,13.9,59.9,20.9,89.9c16.5-21.6,33.1-43.2,49.6-64.9
	c4.4,13.2,8.9,26.4,13.3,39.6c13.3-16.2,26.6-32.5,39.9-48.7c2.7,15.5,5.4,31,8,46.4c14.3-21.5,28.5-43,42.8-64.5
	c12.2,16.9-2.2,41.6-20.9,50.9c-18.7,9.3-40.7,9.9-59.9,18.3c-21.2,9.2-37.1,27-53.6,43.1C421.3,289.6,269.7,342.7,123.7,327.5
	c-23.2-2.4-47.1-6.4-69.6,0c-22.5,6.4-43,27.1-40.1,50.2c29.1-16.3,53.3-41.2,68.9-70.6c-7.4,27.5-14.8,55-22.2,82.6
	c24.7-23.5,49.4-46.9,74.1-70.4c-5.1,21.3-10.1,42.5-15.2,63.8c22.8-19.7,45.6-39.5,68.4-59.2c-3.5,8.5-7.1,17.3-7.3,26.6
	c-0.2,9.2,3.9,19.2,12.2,23.3c8.3,4.1,20.4-0.4,21.8-9.5c8,6.2,5.3,19.8-2.6,26.1s-18.6,7.3-28.7,8c-48.7,3.4-97.3,6.9-146,10.3
	c49.9,5.4,99.7,10.7,149.6,16.1c-35.3,7.3-70.6,14.6-105.9,21.8c13.6,0.2,27.3,0.3,40.9,0.5c-10,14.8-20,29.6-30.1,44.4
	c6.3-0.6,10.3,6.9,10.2,13.2s-2.4,12.6-1.1,18.8c1.3,6.2,9.2,11.4,13.8,7.1c-10.4,5.5-21.3,11.4-27.9,21.2s-7.3,24.6,1.7,32.2
	c11.2,9.5,29.9,1.3,36.2-11.9s4-28.8,1.3-43.2c-2.7-14.4-5.4-29.8,0.1-43.4c141.2,1.1,282.4,2.1,423.6,3.2
	c41.5,0.3,87.6,2.4,117.2,31.6c9.7,9.6,17.2,23,14.8,36.4c-2.4,13.4-18.4,24.1-30.3,17.4c-8.9-5-11.5-16.3-14.9-25.9
	s-11.1-20.2-21.2-18.5c-22.4,3.6-7.4,51.4-29.8,55.1c-8.6,1.4-16.3-6.6-17.9-15.1c-1.6-8.5,1.3-17.2,4.2-25.4
	c-18.1-5.9-39.9,3.3-48.3,20.4c-138.1,0-276.1,0.1-414.2,0.1"/>
<g id="Arrow_right">
</g>
<g>
	<g>
		
			<line fill="none" stroke="#000000" stroke-width="7" stroke-linecap="round" stroke-linejoin="round" stroke-miterlimit="10" x1="107.2" y1="121.8" x2="107.2" y2="269.8"/>
		
			<line fill="none" stroke="#000000" stroke-width="7" stroke-linecap="round" stroke-linejoin="round" stroke-miterlimit="10" x1="85.8" y1="247.7" x2="593.6" y2="247.7"/>
		<g>
			
				<polyline fill="none" stroke="#000000" stroke-width="7" stroke-linecap="round" stroke-linejoin="round" stroke-miterlimit="10" points="
				84.7,143.8 107.2,121.8 129.7,143.8 			"/>
		</g>
		<g>
			
				<polyline fill="none" stroke="#000000" stroke-width="7" stroke-linecap="round" stroke-linejoin="round" stroke-miterlimit="10" points="
				571.6,224.8 593.6,247.3 571.6,269.8 			"/>
		</g>
	</g>
	<text transform="matrix(1 0 0 1 605.1675 254.6299)" font-family="'PermanentMarker'" font-size="30.74px">time</text>
	<text transform="matrix(1 0 0 1 23.9853 108.4858)" fill="#BE1E2D" font-family="'PermanentMarker'" font-size="30.74px">well being</text>
	<path fill="none" stroke="#F09B36" stroke-width="7" stroke-linecap="round" stroke-linejoin="round" stroke-miterlimit="10" d="
		M122.7,231c11.5-27.3,28.5-63.1,63-64c31.6-0.8,52.7,29.2,62.1,55.8c11.1,31.4,12.9,66.9,32.5,94.8c8.4,12,20.5,22.1,34.7,26.4
		c14.8,4.5,30.1,1.4,42.9-7c13.8-9,23.4-22.7,31.4-36.9c9-16,17.2-32.6,25.7-48.9c2.2-4.1,4.3-8.3,6.5-12.4
		c8.9-17.1,21.3-40.5,34.3-54.8s32.5-24.1,51.4-20.2c14.8,3,27.4,14.7,31.7,29.2"/>
	<g>
		<path fill="none" stroke="#CE3045" stroke-width="7" stroke-linecap="round" stroke-linejoin="round" stroke-miterlimit="10" d="
			M186.2,164c2.3,2.9,4.5,5.7,6.8,8.6"/>
		<path fill="none" stroke="#CE3045" stroke-width="7" stroke-linecap="round" stroke-linejoin="round" stroke-miterlimit="10" d="
			M185.1,171.9c1.2-3.6,3.8-6.8,7.2-8.6"/>
		<path fill="none" stroke="#000000" stroke-width="7" stroke-linecap="round" stroke-linejoin="round" stroke-miterlimit="10" d="
			M198.4,151.7c7.3-8.7,18.3-13.3,29.3-15.9c11-2.6,22.4-3.5,33.3-6.3c10.9-2.8,21.8-8,28.4-17.2s7.7-22.9,0.2-31.4"/>
		<text transform="matrix(1 0 0 1 177.3887 35.0535)"><tspan x="0" y="0" font-family="'PermanentMarker'" font-size="30.74px">“shit, it’s all</tspan><tspan x="-60.6" y="30" font-family="'PermanentMarker'" font-size="30.74px">downhill from here”</tspan></text>
	</g>
	<g>
		<path fill="none" stroke="#CE3045" stroke-width="7" stroke-linecap="round" stroke-linejoin="round" stroke-miterlimit="10" d="
			M218.1,209.8c12.7,12.7,15.4,32,17.3,49.8s3.9,37,15.8,50.5"/>
		<path fill="none" stroke="#CE3045" stroke-width="7" stroke-linecap="round" stroke-linejoin="round" stroke-miterlimit="10" d="
			M244.6,313.1c3.7,1.7,7.3,3.4,11,5.1c0.3-4.2,0.6-8.3,0.9-12.5"/>
		<path fill="none" stroke="#000000" stroke-width="7" stroke-linecap="round" stroke-linejoin="round" stroke-miterlimit="10" d="
			M218.2,272.8c-22,0.3-43.9,0.6-65.9,0.9c-4.5,0.1-9.1,0.2-13.1,2.3c-6,3.2-8.9,10.3-9,17.1s2.3,13.3,4.7,19.6"/>
		<text transform="matrix(1 0 0 1 28.9941 346.6983)"><tspan x="0" y="0" font-family="'PermanentMarker'" font-size="30.74px">“no, no... not</tspan><tspan x="-14.1" y="30" font-family="'PermanentMarker'" font-size="30.74px">further down”</tspan></text>
	</g>
	<g>
		<path fill="none" stroke="#CE3045" stroke-width="7" stroke-linecap="round" stroke-linejoin="round" stroke-miterlimit="10" d="
			M327.3,341.6c2.9,3.4,5.7,6.8,8.6,10.1"/>
		<path fill="none" stroke="#CE3045" stroke-width="7" stroke-linecap="round" stroke-linejoin="round" stroke-miterlimit="10" d="
			M333.7,340.2c-1.9,4.3-3.7,8.7-5.6,13"/>
		<path fill="none" stroke="#000000" stroke-width="7" stroke-linecap="round" stroke-linejoin="round" stroke-miterlimit="10" d="
			M337.7,365.6c2.9,10.7,12,19.6,22.8,22.2s22.9-1.1,30.5-9.3c4.2-4.5,6.9-10.2,10.6-15.2c3.7-5,8.8-9.5,14.9-9.9"/>
		<text transform="matrix(1 0 0 1 419.6769 332.6836)"><tspan x="0" y="0" font-family="'PermanentMarker'" font-size="30.74px">“well this is</tspan><tspan x="24.3" y="30" font-family="'PermanentMarker'" font-size="30.74px">definitely</tspan><tspan x="-8.2" y="60" font-family="'PermanentMarker'" font-size="30.74px">rock bottom”</tspan></text>
	</g>
	<g>
		<path fill="none" stroke="#CE3045" stroke-width="7" stroke-linecap="round" stroke-linejoin="round" stroke-miterlimit="10" d="
			M380.7,281.9c14.8-36.3,33.1-71.1,54.8-103.7"/>
		<path fill="none" stroke="#CE3045" stroke-width="7" stroke-linecap="round" stroke-linejoin="round" stroke-miterlimit="10" d="
			M427.5,177.8c3.9-1,7.8-2,11.7-3c-0.5,3.8-1,7.6-1.4,11.4"/>
		<path fill="none" stroke="#000000" stroke-width="7" stroke-linecap="round" stroke-linejoin="round" stroke-miterlimit="10" d="
			M402.8,194c-10.7-9.2-19.4-20.6-25.4-33.3c-4.5-9.4-7.5-19.7-6.7-30s5.9-20.7,14.7-26.1c7.2-4.4,16.2-5.2,24.5-3.8
			s16.2,4.6,24,7.9"/>
		<text transform="matrix(1 0 0 1 450.0409 107.1556)"><tspan x="0" y="0" font-family="'PermanentMarker'" font-size="30.74px">“this takes so</tspan><tspan x="-4.3" y="30" font-family="'PermanentMarker'" font-size="30.74px">much effort...”</tspan></text>
	</g>
</g>
<g>
	<g>
		
			<line fill="none" stroke="#000000" stroke-width="7" stroke-linecap="round" stroke-linejoin="round" stroke-miterlimit="10" x1="107.2" y1="437.8" x2="107.2" y2="585.8"/>
		
			<line fill="none" stroke="#000000" stroke-width="7" stroke-linecap="round" stroke-linejoin="round" stroke-miterlimit="10" x1="85.8" y1="563.7" x2="593.6" y2="563.7"/>
		<g>
			
				<polyline fill="none" stroke="#000000" stroke-width="7" stroke-linecap="round" stroke-linejoin="round" stroke-miterlimit="10" points="
				84.7,459.8 107.2,437.8 129.7,459.8 			"/>
		</g>
		<g>
			
				<polyline fill="none" stroke="#000000" stroke-width="7" stroke-linecap="round" stroke-linejoin="round" stroke-miterlimit="10" points="
				571.6,540.8 593.6,563.3 571.6,585.8 			"/>
		</g>
	</g>
	<text transform="matrix(1 0 0 1 605.1674 571.427)" font-family="'PermanentMarker'" font-size="30.74px">time</text>
	<text transform="matrix(1 0 0 1 33.3663 424.9833)" fill="#7895A4" font-family="'PermanentMarker'" font-size="30.74px">negativity</text>
	<path fill="none" stroke="#7895A4" stroke-width="7" stroke-linecap="round" stroke-linejoin="round" stroke-miterlimit="10" d="
		M133.9,489.2c137.5-0.5,274.9-1,412.4-1.6"/>
</g>
<g id="Arrow_up">
</g>
</svg>
