<?xml version="1.0" encoding="utf-8"?>
<!-- Generator: Adobe Illustrator 19.2.0, SVG Export Plug-In . SVG Version: 6.00 Build 0)  -->
<svg version="1.1" id="Layer_1" xmlns="http://www.w3.org/2000/svg" xmlns:xlink="http://www.w3.org/1999/xlink" x="0px" y="0px"
	 width="410.4px" height="458.8px" viewBox="0 0 410.4 458.8" enable-background="new 0 0 410.4 458.8" xml:space="preserve">
<symbol  id="Arrow_right_1_" viewBox="-25.5 -26 29 52">
	
		<polyline fill="none" stroke="#231F20" stroke-width="7" stroke-linecap="round" stroke-linejoin="round" stroke-miterlimit="10" points="
		-22,22.5 0,0 -22,-22.5 	"/>
</symbol>
<symbol  id="Arrow_up" viewBox="-26 -25.5 52 29">
	
		<polyline fill="none" stroke="#231F20" stroke-width="7" stroke-linecap="round" stroke-linejoin="round" stroke-miterlimit="10" points="
		-22.5,-22 0,0 22.5,-22 	"/>
</symbol>
<path fill="none" stroke="#FFFFFF" stroke-width="120" stroke-linejoin="bevel" stroke-miterlimit="10" d="M258.2,12.7
	c-7.5,33.6-30.2,63.5-60.6,79.7c-5.4-25-1.8-51.9,10.1-74.5c-24.6,11.7-42.6,36.2-46.4,63.2c-17.2-17.1-25-43-20.2-66.8
	c-12.2,21.7-24.3,43.5-36.5,65.2c-1.6-21.6-3.2-43.3-4.8-64.9C80.8,29.4,72,56.1,78.4,79.2C74,68.1,69.6,56.9,65.1,45.7
	c-0.8-2-1.6-4-2.7-5.8C56,29,38.5,27,29.8,36.3s-5.7,26.6,5.6,32.4c-3.1-11.7-6.3-23.5-9.4-35.2c8.8,23.4,8.1,50.2-2,73
	c10.8-9.6,21.6-19.1,32.4-28.7C52.2,86.9,48,96,43.8,105c8.1-5.6,16.1-11.2,24.2-16.8c-7.7,11.2-15.3,22.3-23,33.5
	c3.9-3.7,7.7-7.5,11.6-11.2c-15.1,78.3-15.6,159.4-1.4,237.8c1.7,9.5,2,22.3-7.1,25.7c-5.5,2-11.9-1.2-15.4-6
	c-3.4-4.8-4.6-10.8-5.8-16.6c7.3,5.7,16,9.7,25.1,11.5c8.1,1.6,16.4,1.4,24.7,1.2c31.3-0.7,62.6-1.4,93.8-2.1
	c0.5,7.8,11.1,11,18.4,8.2s12.5-9.2,19-13.6c18.2-12.2,42.3-6.9,63.8-2.9c21.5,4,47.6,4.7,61-12.7c1.3,10.4,2.7,20.8,4,31.3
	c9.2-12,18.5-24,27.7-35.9c-3.8,6.3-2.1,15.3,3.8,19.8c5.8,4.5,15,3.7,20.1-1.6c1.6,16.5,3.2,32.9,4.8,49.4
	c-3.9,14.9-7.9,29.7-11.8,44.6c-9.4-18.7-18.7-37.5-28.1-56.2c-4.2,18.7-8.5,37.4-12.7,56.2c-11.2-21.1-18.2-44.4-20.5-68.2
	c-9.5-1-15.2,11.1-13.9,20.5s6.6,18.2,6.7,27.7s-9.7,20.1-18,15.4c-2.6-1.5-4.4-4.1-5.8-6.7c-6.7-12.1-9.4-26.3-7.8-39.9
	c-5.9-4.2-14.2,2.9-14.8,10.2s3.1,14.1,4.6,21.2c1.4,7.1-0.9,16.4-8.1,17.9c-8,1.7-13.9-8-14.2-16.1c-0.3-8.8,2.6-17.7,0.7-26.2
	c-1.9-8.6-12.6-16-19.3-10.4c-5.3,4.5-3.7,12.9-1.6,19.5c3.9,12.5,7.9,25.1,11.8,37.6c-12.8-26.4-25.6-52.9-38.4-79.3
	c-5-10.4-10.2-21.2-10.7-32.8c-0.4-8.4,1.6-16.7,4-24.7c22.6-75.2,82.4-138.2,156.3-164.6C303,202.7,254.6,256.4,206.2,310
	c-11.4,12.6-25.3,26.3-42.3,24.9c-17.2-1.4-29.4-18.6-32.5-35.6c-3.1-17,0.3-34.5,0.7-51.7c1.1-50.5-25.8-100.7-68.4-127.7"/>
<g id="Arrow_right">
</g>
<g>
	
		<line fill="none" stroke="#231F20" stroke-width="7" stroke-linecap="round" stroke-linejoin="round" stroke-miterlimit="10" x1="30.4" y1="354.1" x2="389" y2="354.1"/>
	
		<use xlink:href="#Arrow_right_1_"  width="29" height="52" x="-25.5" y="-26" transform="matrix(1 0 0 -1 388.9954 354.1218)" overflow="visible"/>
	
		<line fill="none" stroke="#231F20" stroke-width="7" stroke-linecap="round" stroke-linejoin="round" stroke-miterlimit="10" x1="50.8" y1="81.1" x2="50.8" y2="376.6"/>
	
		<use xlink:href="#Arrow_up"  width="52" height="29" x="-26" y="-25.5" transform="matrix(1 0 0 -1 50.769 81.1054)" overflow="visible"/>
</g>
<text transform="matrix(1 0 0 1 25.269 39.9632)"><tspan x="0" y="0" fill="#231F20" font-family="'PermanentMarker'" font-size="30.74px">perceived self</tspan><tspan x="0" y="30" fill="#231F20" font-family="'PermanentMarker'" font-size="30.74px">knowledge</tspan></text>
<text transform="matrix(1 0 0 1 216.3235 408.3566)"><tspan x="0" y="0" fill="#231F20" font-family="'PermanentMarker'" font-size="30.74px">actual self</tspan><tspan x="7" y="30" fill="#231F20" font-family="'PermanentMarker'" font-size="30.74px">knowledge</tspan></text>
<path fill="none" stroke="#BE1E2D" stroke-width="7" stroke-linecap="round" stroke-linejoin="round" stroke-miterlimit="10" d="
	M66.1,119.9c14.9-0.3,26.5,6.8,35.8,15.9c9.3,9.1,13.3,22,16.4,34.5c8.6,33.6,13.8,79.9,15.7,114.5c0.6,10.6,0.8,21.4,4.2,31.6
	c3.3,10.1,10.3,19.7,20.6,23.5c14.2,5.2,30.8-2.4,40.1-14.1c9.4-11.7,13.2-26.6,16.8-40.9c7.2-28.7,3.6-19,10.8-47.6
	c1.2-4.7,2.4-9.6,5.2-13.7c2.8-4.1,7.5-7.2,12.5-6.9c6.4,0.4,12.4,6.2,18.4,4.1c5.5-1.9,6.6-8.8,7.3-14.4s3.3-12.5,9.1-12.7
	c4.8-0.2,9.1,4.6,13.7,3.4c5-1.3,5.4-7.9,5.6-12.9c0.2-5,3.9-11.5,8.7-9.7c1.3,0.5,2.2,1.5,3.4,2.1c3.4,1.6,7.3-1,10.2-3.3
	c7.8-6.3,15.5-12.7,23.3-19"/>
</svg>
