<?xml version="1.0" encoding="utf-8"?>
<!-- Generator: Adobe Illustrator 18.0.0, SVG Export Plug-In . SVG Version: 6.00 Build 0)  -->
<!DOCTYPE svg PUBLIC "-//W3C//DTD SVG 1.1//EN" "http://www.w3.org/Graphics/SVG/1.1/DTD/svg11.dtd">
<svg version="1.1" id="Layer_1" xmlns="http://www.w3.org/2000/svg" xmlns:xlink="http://www.w3.org/1999/xlink" x="0px" y="0px"
	 viewBox="0 0 874.5 452.7" enable-background="new 0 0 874.5 452.7" xml:space="preserve">
<path fill="none" stroke="#FFFFFF" stroke-width="120" stroke-linejoin="bevel" stroke-miterlimit="10" d="M24.3,4.1
	C19.6,28.2,14.8,52.3,10,76.3C53.3,48,96.6,19.6,139.8-8.7c-11.2,28.3-22.5,56.7-33.7,85c33.7-18.7,83.3-57.6,117-76.3
	c-29.7,20.4-75.3,61.1-105,81.5C75.2,110.9,14.7,179.7,7.4,231.2c57.9-32.8,134-91.4,198.4-108c-17.5,37.8-35,75.5-52.6,113.3
	c33.1-4.4,63.2-27.2,76.4-57.9c-15.4,40.7-50,73.7-91.5,87.2c-20.9,6.8-43.1,8.8-64.6,13.2c-21.6,4.4-43.4,11.6-59.4,26.7
	c-16,15.1-24.6,39.8-15.7,59.9c38.2-39.3,88.2-67,141.8-78.5c-19.3,36.5-38.6,73.1-57.8,109.6c10.4,5.9,24.6,35.1,29.5,46
	c2.6-59.2,29-136.2,78.3-169.1c-3.5,43.7-7.1,87.5-10.6,131.2c-1.2,14.4,0.5,33.3,14.4,37.2c14.9,4.2,26.2-13.2,31.6-27.8
	c36.8-100.2,56.3-206.8,57.5-313.5c0.2-18.5-0.1-37.3,4.2-55.3s13.9-35.6,29.7-45.3c2.6,33.3,5.2,66.6,7.8,99.9
	c36-47.3,103.8-67.5,159.8-47.5C517.2,7,583.6-10.4,634.2,13.3c14.5,6.8,28.4,16.7,44.5,17.5c34.2,1.7,59.7-37.9,93.9-37.2
	c25.2,0.5,45.5,25,46.9,50.1s-12.4,49.2-31.1,66s-41.9,27.7-64.7,38.3c-55.9,25.9-112.1,52-171.5,68.2s-131.9,58.3-191.9,44
	c-14.3-3.4-29.5-7.9-43.3-2.9c-17.9,6.5-28.5,25.5-33.4,43.9c-3.5,12.7,5.2,28.2,8.6,38.2c11.6,34,44.4,47.1,79,37.6
	s61.3-37,82.8-65.7c21.5-28.8,40-60.4,66.8-84.1s65.4-38.8,99.1-26.4c-33.1,59.6-56.8,124.4-69.6,191.3
	c31.5-16.9,56.4-23.7,71.9-55.9c9.3-19.4,15.3-32.1,23.8-51.8c8.5-19.7,20.6-38.9,39.1-49.9s44.4-11.4,59.9,3.5
	c9.3,8.9,13.6,21.7,17.6,34c17,52.2,34.5,75.8,51.5,128c-71.4,8.5-142.9,17.1-214.3,25.6c-30.3,3.6-61.5,7.2-90.9-1
	c-29.4-8.2-56.8-31.2-60.6-61.5"/>
<line fill="none" stroke="#000000" stroke-width="7" stroke-linecap="round" stroke-linejoin="round" stroke-miterlimit="10" x1="14.3" y1="362" x2="230.3" y2="362"/>
<line fill="none" stroke="#000000" stroke-width="7" stroke-linecap="round" stroke-linejoin="round" stroke-miterlimit="10" x1="36.8" y1="384.5" x2="36.8" y2="262.4"/>
<polyline fill="none" stroke="#010101" stroke-width="7" stroke-linecap="round" stroke-linejoin="round" stroke-miterlimit="10" points="
	14.3,284.4 36.8,262.4 59.3,284.4 "/>
<polyline fill="none" stroke="#010101" stroke-width="7" stroke-linecap="round" stroke-linejoin="round" stroke-miterlimit="10" points="
	208.3,339.5 230.3,362 208.3,384.5 "/>
<path fill="none" stroke="#EF4423" stroke-width="7" stroke-linecap="round" stroke-linejoin="round" stroke-miterlimit="10" d="
	M43.6,355.5c15.3-29.9,44.2-51.2,75.6-63.2s65.3-15.6,98.8-17.7"/>
<g>
	<text transform="matrix(1 0 0 1 7.4468 220.1163)"><tspan x="0" y="0" fill="#EF4423" font-family="'PermanentMarker'" font-size="30.74">harm caused</tspan><tspan x="0" y="30" fill="#EF4423" font-family="'PermanentMarker'" font-size="30.74">by break-up</tspan></text>
</g>
<text transform="matrix(1 0 0 1 86.1606 413.4515)"><tspan x="0" y="0" font-family="'PermanentMarker'" font-size="30.74">length of</tspan><tspan x="-39.1" y="30" font-family="'PermanentMarker'" font-size="30.74">relationship</tspan></text>
<line fill="none" stroke="#000000" stroke-width="7" stroke-linecap="round" stroke-linejoin="round" stroke-miterlimit="10" x1="14.3" y1="168.2" x2="230.3" y2="168.2"/>
<line fill="none" stroke="#000000" stroke-width="7" stroke-linecap="round" stroke-linejoin="round" stroke-miterlimit="10" x1="36.8" y1="190.7" x2="36.8" y2="68.7"/>
<polyline fill="none" stroke="#010101" stroke-width="7" stroke-linecap="round" stroke-linejoin="round" stroke-miterlimit="10" points="
	14.3,90.7 36.8,68.7 59.3,90.7 "/>
<polyline fill="none" stroke="#010101" stroke-width="7" stroke-linecap="round" stroke-linejoin="round" stroke-miterlimit="10" points="
	208.3,145.7 230.3,168.2 208.3,190.7 "/>
<g>
	<text transform="matrix(1 0 0 1 7.4466 26.356)"><tspan x="0" y="0" fill="#69539C" font-family="'PermanentMarker'" font-size="30.74">probability of</tspan><tspan x="0" y="30" fill="#69539C" font-family="'PermanentMarker'" font-size="30.74">breaking up</tspan></text>
</g>
<path fill="none" stroke="#887DBA" stroke-width="7" stroke-linecap="round" stroke-linejoin="round" stroke-miterlimit="10" d="
	M45.2,89.3c7.4,25.5,25.9,47.5,49.8,59.1c31.3,15.2,67.9,12.2,102.5,8.9"/>
<g>
	
		<line fill="none" stroke="#000000" stroke-width="7" stroke-linecap="round" stroke-linejoin="round" stroke-miterlimit="10" x1="276.9" y1="361.7" x2="809.6" y2="361.7"/>
	
		<line fill="none" stroke="#000000" stroke-width="7" stroke-linecap="round" stroke-linejoin="round" stroke-miterlimit="10" x1="299.4" y1="384.5" x2="299.4" y2="68.7"/>
</g>
<g>
	
		<polyline fill="none" stroke="#010101" stroke-width="7" stroke-linecap="round" stroke-linejoin="round" stroke-miterlimit="10" points="
		787.6,339.2 809.6,361.7 787.6,384.2 	"/>
	<text transform="matrix(1 0 0 1 468.3669 413.4516)" font-family="'PermanentMarker'" font-size="30.74">length of relationship</text>
</g>
<g>
	
		<polyline fill="none" stroke="#010101" stroke-width="7" stroke-linecap="round" stroke-linejoin="round" stroke-miterlimit="10" points="
		276.9,90.7 299.4,68.7 321.9,90.7 	"/>
	<text transform="matrix(1 0 0 1 269.9373 56.6539)"><tspan x="0" y="0" fill="#CE539E" font-family="'PermanentMarker'" font-size="30.74">potential harm</tspan><tspan x="231.2" y="0" font-family="'PermanentMarker'" font-size="30.74"> = </tspan><tspan x="272" y="0" fill="#887DBA" font-family="'PermanentMarker'" font-size="30.74">probability</tspan><tspan x="440.3" y="0" font-family="'PermanentMarker'" font-size="30.74"> × </tspan><tspan x="478.2" y="0" fill="#EF4523" font-family="'PermanentMarker'" font-size="30.74">harm</tspan></text>
</g>
<line fill="none" stroke="#CE539E" stroke-width="7" stroke-linecap="round" stroke-linejoin="round" stroke-miterlimit="10" x1="313.1" y1="210.6" x2="792.2" y2="210.6"/>
<text transform="matrix(1 0 0 1 269.9369 26.3561)" fill="#F9A01B" font-family="'PermanentMarker'" font-size="30.74">cumulative happiness from relationship</text>
<path fill="none" stroke="#F9A01B" stroke-width="7" stroke-linecap="round" stroke-linejoin="round" stroke-miterlimit="10" d="
	M308.8,347c74.8-66,158.1-113.7,243.5-151s173.2-64.3,260.8-91.3"/>
<g>
	<path fill="none" stroke="#000000" stroke-width="7" stroke-linecap="round" stroke-linejoin="round" stroke-miterlimit="10" d="
		M517,204.3c4.2,4.3,8.4,8.7,12.6,13"/>
	<path fill="none" stroke="#000000" stroke-width="7" stroke-linecap="round" stroke-linejoin="round" stroke-miterlimit="10" d="
		M518.1,217.2c3.4-4.7,6.7-9.4,10.1-14.1"/>
	<path fill="none" stroke="#000000" stroke-width="7" stroke-linecap="round" stroke-linejoin="round" stroke-miterlimit="10" d="
		M523.1,227.7c2.1,3.6,0.2,8.3-2.2,11.7c-2.5,3.4-5.7,6.6-6.4,10.7c-0.9,5.2,2.5,10.5,7.1,13.1s10.1,3.3,15.4,3.5
		c15.3,0.7,30.8-1.1,45.6-5.2"/>
</g>
<text transform="matrix(1 0 0 1 594.7736 266.5762)"><tspan x="0" y="0" font-family="'PermanentMarker'" font-size="30.74">zero-sum</tspan><tspan x="0" y="30" font-family="'PermanentMarker'" font-size="30.74">relationship</tspan></text>
</svg>
