<?xml version="1.0" encoding="utf-8"?>
<!-- Generator: Adobe Illustrator 18.0.0, SVG Export Plug-In . SVG Version: 6.00 Build 0)  -->
<!DOCTYPE svg PUBLIC "-//W3C//DTD SVG 1.1//EN" "http://www.w3.org/Graphics/SVG/1.1/DTD/svg11.dtd">
<svg version="1.1" id="Layer_1" xmlns="http://www.w3.org/2000/svg" xmlns:xlink="http://www.w3.org/1999/xlink" x="0px" y="0px"
	 viewBox="0 0 640.5 432.9" enable-background="new 0 0 640.5 432.9" xml:space="preserve">
<path fill="none" stroke="#FFFFFF" stroke-width="120" stroke-linejoin="bevel" stroke-miterlimit="10" d="M29.2,6.9
	C29,18,19.7,26.3,12.2,34.5S-1.6,55.1,4.7,64.2c7.8,11.5,25.6,5.7,37.7-1.2C74,44.8,105.6,26.7,137.3,8.6
	C122.1,71.3,31.2,92.7,17.9,155.9c36.6-17.8,63.5-50.2,91.7-79.6S192.1,21,232.5,15.9C172,72.4,89.9,127.2,44.7,196.6
	C27.3,223.3,12.3,252,4.4,283s-8.4,64.4,2.7,94.3c2.1,5.6,5.2,11.7,11,13.2c7.8,2.1,14.6-5.3,19.4-11.8
	c87.8-120.2,186.6-232.2,295-334.1c5.7,6.5,6.3,16.4,3.7,24.6s-8.1,15.3-13.5,22.1c-64,80.3-140.7,151.2-192.3,239.9
	c-5.5,9.4-10.8,19.4-11.5,30.2c-0.7,10.9,4.3,22.8,14.4,26.9c14.6,5.9,29.8-6.7,39.1-19.3c20.6-28.1,32.7-61.3,49.9-91.6
	s41.8-59.2,75.4-68.2c-18.6,26-30.7,56.6-34.9,88.3c52.4-11.6,68.1-86,118.7-104c-10.1,33.7-20.1,67.4-30.2,101.1
	c16.8,5.9,35.3-5.3,45.5-19.9s15-32.2,23.5-47.9s23.1-30.2,41-30.1c-4.7,36.8-9.4,73.6-14.1,110.4c20.5-16.9,33.7-42.2,36-68.6
	c0.9-10.9,2.6-25.1,13.3-27.1c6-1.1,11.9,3,15.3,8c8.2,12.1,5.6,28.1,4.6,42.7s1.4,32.1,14.4,38.7c12.7,6.5,27.6-1.1,40.3-7.6
	c12.7-6.5,29.5-11.6,39.9-1.8c7.2,6.8,7.7,18.8,3.3,27.7s-12.6,15.4-21,20.6c-40,24.9-89.2,29.1-136.3,30.6
	c-65.8,2.1-131.7,0.2-197.3-5.6c-11-1-22.4-2-32.9,1.3c-10.6,3.3-20.2,12.2-20.7,23.3c-0.6,13,11.6,23.6,24.3,26.1
	c12.7,2.5,25.8-1,38.4-4.1c80-19.8,163.4-25.6,245.3-17"/>
<g>
	
		<line fill="none" stroke="#000000" stroke-width="7" stroke-linecap="round" stroke-linejoin="round" stroke-miterlimit="10" x1="482" y1="366.5" x2="16.5" y2="366.5"/>
	
		<line fill="none" stroke="#000000" stroke-width="7" stroke-linecap="round" stroke-linejoin="round" stroke-miterlimit="10" x1="39" y1="54.9" x2="39" y2="389"/>
</g>
<g>
	
		<polyline fill="none" stroke="#000000" stroke-width="7" stroke-linecap="round" stroke-linejoin="round" stroke-miterlimit="10" points="
		460,344 482,366.5 460,389 	"/>
	
		<polyline fill="none" stroke="#000000" stroke-width="7" stroke-linecap="round" stroke-linejoin="round" stroke-miterlimit="10" points="
		16.5,76.9 39,54.9 61.5,76.9 	"/>
</g>
<g>
	<text transform="matrix(1 0 0 1 9.5149 39.9536)" font-family="'PermanentMarker'" font-size="31">total happiness</text>
</g>
<g>
	<text transform="matrix(1 0 0 1 257.1391 419.4307)" font-family="'PermanentMarker'" font-size="31">number of kids</text>
</g>
<path fill="none" stroke="#7AC943" stroke-width="7" stroke-linecap="round" stroke-linejoin="round" stroke-miterlimit="10" d="
	M51.3,359c20.3-49.7,53-88.6,87.7-121.4s72.2-60.4,106.6-93.8c33.5-32.6,63.9-70.5,93-109.9"/>
<g>
	<text transform="matrix(1 0 0 1 202.968 221.8628)" font-family="'PermanentMarker'" font-size="30.74">individual happiness</text>
	<text transform="matrix(1 0 0 1 176.468 258.4341)" font-family="'PermanentMarker'" font-size="30.74">× population</text>
	<text transform="matrix(1 0 0 1 171.468 296.2678)" font-family="'PermanentMarker'" font-size="30.74">= why kids make you happ</text>
	<path fill="none" stroke="#C1272D" stroke-width="7" stroke-linecap="round" stroke-linejoin="round" stroke-miterlimit="10" d="
		M416.7,300.9c17.9-9.6,35.9-19.2,53.8-28.8"/>
	<text transform="matrix(1 0 0 1 550.0164 296.2678)" font-family="'PermanentMarker'" font-size="31">iness</text>
</g>
</svg>
